ply
format ascii 1.0
element vertex 490
property float x
property float y
property float z
end_header
-0.62936240 -0.69938648 0.02674143
-0.41901422 0.03451459 0.32847866
-0.39210382 -0.07425479 0.09659937
-0.40441209 -0.02214022 0.20581359
-0.39341906 -0.09885414 0.06800548
-0.42232788 0.01659529 0.31523946
-0.63300562 -0.62071806 0.14347605
-0.41531664 -0.15869778 0.05869163
-0.34711719 -0.02935757 0.01156865
-0.17799963 0.44290775 0.09696186
-0.56715250 -0.51814359 0.06819017
-0.60405791 -0.51852721 0.18659256
-0.35058334 0.03073241 0.10293680
-0.39688382 -0.14046149 0.02363772
-0.21278745 0.31803101 0.04238509
-0.16244303 0.47479469 0.08939453
-0.33939293 0.05701777 0.10196180
-0.48206815 -0.07076301 0.39113742
-0.18153839 0.43132594 0.09290644
-0.65838188 -0.78228074 0.00961056
-0.56321692 -0.30551761 0.33929265
-0.27588564 0.13885851 0.00656190
-0.49468341 -0.12226043 0.36305401
-0.10570918 0.56884122 0.03211026
-0.26470530 0.25400606 0.12422018
-0.37203321 0.09467156 0.25738829
-0.57053679 -0.39378247 0.24507467
-0.12142005 0.57608849 0.09240558
-0.48310751 -0.13957393 0.30264717
-0.21935552 0.30258286 0.04293031
-0.57947141 -0.45699498 0.18949591
-0.32490352 0.17260921 0.20955016
-0.15638608 0.49131498 0.09192718
-0.49847323 -0.15426914 0.33254462
-0.08291274 0.63107353 0.04171593
-0.32787782 0.11443247 0.14148752
-0.32480735 0.16613619 0.20060094
-0.47066677 -0.32011443 0.02160118
-0.33302689 0.17072245 0.23320656
-0.06571287 0.66494018 0.03149600
-0.53293073 -0.31441382 0.22983283
-0.52768666 -0.23524377 0.31860077
-0.41596493 -0.14608514 0.07761415
-0.57090676 -0.33582795 0.32361630
-0.30230996 0.19361837 0.16479062
-0.25991523 0.20956083 0.04946656
-0.23726821 0.30411929 0.10269811
-0.11788134 0.54186589 0.03532781
-0.53324753 -0.24461782 0.32400757
-0.38961941 -0.00062767 0.18686147
-0.34511834 0.13157946 0.21992435
-0.28424150 0.21341115 0.13298815
-0.31074589 0.23872346 0.25217223
-0.52787650 -0.43700340 0.04993197
-0.39831603 -0.01276524 0.19868366
-0.26149029 0.20030408 0.04218706
-0.58960217 -0.45518324 0.22455676
-0.46172044 -0.20025088 0.15275192
-0.22907613 0.30903444 0.08286212
-0.35379368 -0.01197331 0.05628330
-0.20481580 0.33369836 0.03760992
-0.53358310 -0.30055404 0.25043300
-0.19667760 0.43296698 0.14387734
-0.53406858 -0.44093812 0.06463220
-0.49480239 -0.35576090 0.05179366
-0.57819551 -0.50406462 0.12256294
-0.43652645 -0.12243967 0.17542486
-0.46392161 -0.19688129 0.16434170
-0.48521134 -0.29781425 0.09822893
-0.32006514 0.04606289 0.02506383
-0.38114771 -0.03524602 0.11336069
-0.44132435 -0.19038908 0.10019504
-0.47133246 -0.11081340 0.30309188
-0.20006539 0.42726749 0.14718641
-0.58973932 -0.52510905 0.13167156
-0.52277702 -0.16816756 0.39230520
-0.36936620 -0.00194470 0.11984493
-0.46151251 -0.29970527 0.01934418
-0.07677532 0.64259458 0.03731703
-0.49803510 -0.35539225 0.06270185
-0.29774576 0.18686000 0.14106397
-0.68618977 -0.79278648 0.08519033
-0.65407455 -0.68086904 0.13108221
-0.20713823 0.32857436 0.03825428
-0.41986379 -0.06653249 0.19635253
-0.52894771 -0.43259123 0.05927219
-0.62959850 -0.57957631 0.18740819
-0.69551253 -0.77460194 0.13949983
-0.38245958 0.02493819 0.19791324
-0.25598794 0.32598829 0.19220340
-0.43093655 -0.05345470 0.24948491
-0.57326078 -0.45850864 0.16746426
-0.20668054 0.38531336 0.11250679
-0.60178965 -0.60993963 0.05727944
-0.58967334 -0.45247194 0.22840492
-0.54373616 -0.37115651 0.18891717
-0.43334514 -0.21145937 0.04636321
-0.29812926 0.12736852 0.06289881
-0.18049683 0.42341959 0.07899812
-0.09616452 0.60965830 0.05583295
-0.56377518 -0.55208975 0.01200139
-0.58382756 -0.48674744 0.16382258
-0.59670180 -0.52138025 0.15908238
-0.57375085 -0.50933170 0.10121188
-0.17888129 0.45168206 0.11151342
-0.51239926 -0.29150960 0.19424675
-0.53013361 -0.23247170 0.33018497
-0.29424626 0.13844328 0.06516824
-0.44307327 -0.22350024 0.06163818
-0.27245584 0.18543757 0.05767782
-0.06298365 0.65056425 0.00351513
-0.37250435 -0.05905139 0.05373848
-0.50772357 -0.27528021 0.20084183
-0.22642696 0.25450283 0.00154499
-0.53044200 -0.35570696 0.16670138
-0.02810963 0.74780428 0.02092849
-0.60111213 -0.55265623 0.13155016
-0.33085117 0.16113020 0.21339370
-0.41737726 -0.03565253 0.22955485
-0.42508414 -0.17519481 0.06814601
-0.22834872 0.26401693 0.02043521
-0.23269969 0.24665190 0.01127827
-0.45158458 -0.06623556 0.29895768
-0.50390244 -0.14425929 0.36339808
-0.55485845 -0.32463285 0.28684789
-0.50564432 -0.25006011 0.22780240
-0.29530218 0.19926625 0.14974853
-0.25789133 0.31610903 0.18515097
-0.59723824 -0.59140319 0.06735388
-0.43751103 0.00069309 0.34293774
-0.53192616 -0.35787544 0.16858940
-0.44503614 -0.04539183 0.30567700
-0.48455745 -0.07409995 0.39470455
-0.26513758 0.25799307 0.13093430
-0.48980334 -0.36472678 0.02371957
-0.57458371 -0.47810701 0.14556979
-0.48569459 -0.35514420 0.02327006
-0.39048958 0.00680874 0.19959033
-0.53100103 -0.22748122 0.33964044
-0.61879301 -0.69183445 0.00276471
-0.69435543 -0.76523954 0.14826719
-0.43979028 -0.13823400 0.16486134
-0.39262497 0.07081832 0.29190186
-0.62932152 -0.57931620 0.18686286
-0.32355237 0.02367640 0.00642188
-0.59601498 -0.56561965 0.09782473
-0.36779612 0.12631401 0.28596780
-0.10919579 0.59965038 0.08446440
-0.42973903 -0.15671945 0.10780306
-0.48506767 -0.24262941 0.17141907
-0.33709428 0.12842473 0.18985921
-0.42597505 -0.05676317 0.22908257
-0.31013110 0.13983838 0.11821336
-0.42680457 -0.08623575 0.19241954
-0.60758024 -0.59566194 0.09499333
-0.55612969 -0.42657229 0.15488975
-0.26467058 0.28741306 0.16869532
-0.49838164 -0.17266773 0.30769357
-0.64914560 -0.75150096 0.02093069
-0.48238239 -0.18539062 0.23916106
-0.53957886 -0.41035122 0.12321018
-0.63523990 -0.72327626 0.01379485
-0.42514673 -0.01362432 0.28398937
-0.51397038 -0.35585311 0.11343256
-0.58497703 -0.61026329 0.00267475
-0.24560034 0.32770011 0.16101778
-0.62320262 -0.60997891 0.12622257
-0.47476402 -0.19396000 0.20317636
-0.31944337 0.07947708 0.06765703
-0.47270799 -0.29142439 0.06646970
-0.19183166 0.44632185 0.14608724
-0.54182810 -0.46362963 0.05934889
-0.54344404 -0.23803595 0.36564669
-0.41363844 -0.14659888 0.06943219
-0.41775671 -0.05199714 0.20896298
-0.26827791 0.18165319 0.03916510
-0.59572494 -0.58874589 0.06602451
-0.57736421 -0.41363597 0.24057575
-0.24248670 0.27202091 0.07667240
-0.36609036 0.00267206 0.11545160
-0.43710780 -0.18591979 0.09257371
-0.42410913 -0.14439116 0.10611676
-0.46280476 -0.11298912 0.27271053
-0.46655235 -0.16667394 0.21313487
-0.42415962 -0.17681397 0.06300601
-0.33287093 0.16778477 0.22878323
-0.35812235 -0.01480145 0.06645629
-0.28123596 0.25384927 0.17727496
-0.52198374 -0.16564967 0.39310965
-0.48430386 -0.09812412 0.36182335
-0.54787958 -0.26600882 0.34260431
-0.45840201 -0.08642279 0.29398134
-0.12230669 0.57619262 0.09540141
-0.21550623 0.39805958 0.15795632
-0.23330151 0.27200302 0.04705249
-0.30057722 0.20893238 0.17964645
-0.21480270 0.39733145 0.15471765
-0.20438929 0.34872830 0.05629550
-0.63425958 -0.66210353 0.09228099
-0.37450561 -0.09438112 0.01303362
-0.41585270 0.04583694 0.33340326
-0.39221439 0.04793899 0.26004282
-0.46559468 -0.28286615 0.05497201
-0.32375404 0.08065784 0.08312256
-0.49036807 -0.18752719 0.26204038
-0.21263941 0.41443375 0.17057294
-0.31711993 0.05791615 0.03139406
-0.31299099 0.21716887 0.23063827
-0.52650684 -0.33183706 0.18587999
-0.24120960 0.26196268 0.05913309
-0.18539988 0.38693786 0.04610572
-0.41221130 -0.00858880 0.24903028
-0.53751099 -0.26825500 0.30619740
-0.33392712 0.03073689 0.04927407
-0.20764525 0.32653943 0.03717205
-0.48419967 -0.11629856 0.33723095
-0.49414572 -0.26357818 0.17271030
-0.58661377 -0.40676975 0.27954340
-0.43335274 -0.14547414 0.13445558
-0.40034428 -0.02793984 0.18496604
-0.31366101 0.15879676 0.15489027
-0.65009564 -0.72995633 0.05274657
-0.49478006 -0.29313076 0.13531159
-0.21898390 0.32903841 0.07704210
-0.18424498 0.43995780 0.11314805
-0.36438468 -0.05321476 0.03536573
-0.36115545 0.10738228 0.23930319
-0.40829206 -0.04259140 0.19102003
-0.36957625 0.05575028 0.19752495
-0.61699778 -0.51700330 0.23032060
-0.64822400 -0.73475999 0.04030464
-0.30057168 0.20459524 0.17383999
-0.01141351 0.77299148 0.00074764
-0.03823194 0.72696024 0.02572427
-0.18161134 0.37996107 0.02458687
-0.16238159 0.48540738 0.10336093
-0.61581969 -0.66014200 0.03548306
-0.29336885 0.16272289 0.09474613
-0.22768810 0.31859648 0.09115179
-0.24832848 0.30013868 0.13302305
-0.26948315 0.15254787 0.00420289
-0.52567816 -0.23386049 0.31397516
-0.59732372 -0.46228951 0.23995233
-0.45555043 -0.28378102 0.02138695
-0.15153556 0.46107021 0.03593163
-0.46234655 -0.21128906 0.14003713
-0.62389171 -0.67639822 0.03979567
-0.59713888 -0.52163011 0.16015708
-0.67051756 -0.71242672 0.14194515
-0.60769665 -0.64867216 0.02461772
-0.22247048 0.32808053 0.08699783
-0.51089138 -0.27241859 0.21486817
-0.69655395 -0.82066780 0.08137304
-0.31896281 0.08908253 0.07892858
-0.11712383 0.54493600 0.03698457
-0.39709353 -0.06361276 0.12688039
-0.52607143 -0.26012090 0.28019375
-0.64713800 -0.65767896 0.13968258
-0.48209566 -0.33406520 0.03980707
-0.58908546 -0.42623231 0.26153168
-0.10594820 0.59948575 0.07378047
-0.32493231 0.17056577 0.20691559
-0.62990630 -0.65536082 0.08725327
-0.57648528 -0.46427527 0.17015746
-0.65441865 -0.68505901 0.12659869
-0.43979263 -0.17791526 0.11190795
-0.46228567 -0.15849604 0.21030168
-0.46604097 -0.31173629 0.01787815
-0.58773643 -0.52598447 0.12404950
-0.68539876 -0.74186528 0.15060402
-0.56122321 -0.54396677 0.01461992
-0.31407586 0.22157048 0.24000858
-0.43150741 -0.18620852 0.07414311
-0.43938655 -0.20927119 0.06874999
-0.49908859 -0.31093737 0.12542851
-0.04249421 0.69799924 0.00080486
-0.37199897 -0.04787530 0.06702639
-0.45302644 -0.19939758 0.12587750
-0.47380033 -0.21026541 0.17830908
-0.49949068 -0.22118610 0.24651153
-0.56441975 -0.55984014 0.00373399
-0.59439385 -0.45424706 0.24124584
-0.64634103 -0.68707418 0.09788183
-0.52274919 -0.30095059 0.21499518
-0.12977953 0.56437713 0.10371028
-0.66477734 -0.76422030 0.05432235
-0.54901403 -0.48092887 0.05941448
-0.50554031 -0.32653585 0.12539820
-0.66345477 -0.79466814 0.00942324
-0.15085930 0.49727407 0.08207246
-0.42396361 -0.03610381 0.25017467
-0.35584712 0.01607893 0.10034004
-0.57650822 -0.43142170 0.21407980
-0.11965082 0.54848409 0.04986234
-0.33249950 0.08813759 0.12128457
-0.49354106 -0.32244489 0.09219499
-0.36912370 -0.02680017 0.08588998
-0.14618747 0.49607414 0.06541771
-0.44612288 -0.01937951 0.34389624
-0.29599512 0.08669708 0.00173972
-0.58485430 -0.39390895 0.29103887
-0.52662182 -0.39894336 0.09668627
-0.22523007 0.25642285 0.00025099
-0.44371325 -0.05689621 0.28606001
-0.31689140 0.15573899 0.16121797
-0.68009758 -0.79272556 0.06564159
-0.40198585 -0.07605363 0.12603983
-0.15882391 0.48695064 0.09395725
-0.50563294 -0.21069241 0.28030831
-0.04737277 0.71086973 0.03370198
-0.53685743 -0.36115310 0.18010405
-0.38615784 -0.02793403 0.13926306
-0.56554174 -0.39618081 0.22577885
-0.34700465 0.05317978 0.12136538
-0.36587468 0.06488011 0.19778319
-0.61744058 -0.52081585 0.22665910
-0.49988478 -0.32862169 0.10439135
-0.16943975 0.48410943 0.12437099
-0.32696050 0.16470982 0.20563497
-0.35559800 0.00504670 0.08481302
-0.55202287 -0.31855577 0.28582221
-0.62360632 -0.55097878 0.20626862
-0.10606305 0.55801290 0.01879840
-0.36956030 0.03981907 0.17621088
-0.42821556 -0.04188797 0.25615516
-0.13675839 0.48273310 0.01723008
-0.69738692 -0.78108692 0.13688414
-0.42899451 -0.06580233 0.22674753
-0.62228769 -0.60378015 0.13154785
-0.22753076 0.25919509 0.01136417
-0.15695281 0.50388104 0.11052467
-0.49439117 -0.15324698 0.32075581
-0.64063114 -0.68872029 0.07728681
-0.56703293 -0.50910854 0.07986353
-0.22730173 0.34434032 0.12426611
-0.47618818 -0.33349603 0.02153206
-0.47075182 -0.17573050 0.21457872
-0.55328494 -0.50705779 0.03830276
-0.59348589 -0.48777297 0.19357444
-0.61050707 -0.66990608 0.00533322
-0.50933230 -0.17967439 0.33362657
-0.28237641 0.20740417 0.11896124
-0.51456791 -0.39365745 0.06490183
-0.03145354 0.74310553 0.02543178
-0.38783833 0.08882735 0.30051455
-0.57300854 -0.53315055 0.06702991
-0.45128307 -0.03640618 0.33779827
-0.24254318 0.29542622 0.10809249
-0.42970434 0.01722262 0.33984476
-0.43673685 -0.07447561 0.24011856
-0.25193313 0.22784460 0.04814972
-0.48397833 -0.16779499 0.26778755
-0.61317039 -0.55326480 0.16959146
-0.63127249 -0.57215965 0.20270085
-0.29925096 0.19659024 0.15890051
-0.33918598 0.15775190 0.23574075
-0.42675382 -0.10910841 0.16172878
-0.41826198 -0.08226897 0.17018843
-0.39173993 0.08225976 0.30432063
-0.65776628 -0.72259641 0.08728549
-0.66445249 -0.74215889 0.08272023
-0.36050516 0.03290283 0.13780308
-0.50962722 -0.17986865 0.33431771
-0.42400578 -0.11339602 0.14715174
-0.67127889 -0.78057200 0.05344730
-0.42452282 -0.06245745 0.21680342
-0.26386994 0.28842297 0.16746338
-0.43491536 -0.02268230 0.30337596
-0.41409549 -0.08992599 0.14654389
-0.41746628 -0.07179605 0.18160237
-0.44450876 -0.21325117 0.07994254
-0.54901600 -0.33405298 0.25545019
-0.43170556 -0.22491258 0.02312475
-0.55147570 -0.31092715 0.29424071
-0.43942320 -0.12127040 0.18631922
-0.61723751 -0.56003672 0.17365810
-0.66521204 -0.80132091 0.00620634
-0.53410119 -0.42133269 0.09090381
-0.32388526 0.19631542 0.23790893
-0.08106206 0.60581195 0.00203712
-0.53309518 -0.42744654 0.07950234
-0.56827289 -0.55336249 0.02479495
-0.43146402 -0.00018760 0.32227802
-0.45836368 -0.20617770 0.13402566
-0.37115276 0.12679258 0.29742199
-0.45686659 -0.09612594 0.27608353
-0.43367237 -0.09206487 0.20676872
-0.55024755 -0.39172575 0.18244489
-0.56597191 -0.43844813 0.17075250
-0.34608352 0.00421419 0.05304497
-0.15893477 0.48400161 0.09037856
-0.46579954 -0.21579009 0.14515582
-0.37015340 -0.00337135 0.12047739
-0.05819448 0.67724520 0.02369372
-0.63701528 -0.67725807 0.08093408
-0.47856075 -0.16691634 0.25150403
-0.47374690 -0.13702874 0.27588293
-0.38709846 -0.00021493 0.17928942
-0.37571475 0.02120533 0.17119829
-0.39994326 -0.04447356 0.16160700
-0.54625678 -0.44322649 0.10085013
-0.63679552 -0.62085056 0.15551092
-0.47096488 -0.29946017 0.05012814
-0.60799700 -0.48316327 0.24648394
-0.10911169 0.54423857 0.01023749
-0.42251244 0.02162965 0.32255331
-0.55553299 -0.49013418 0.06813354
-0.48307878 -0.10068027 0.35446447
-0.34074846 0.01635100 0.05205316
-0.20945369 0.29573798 0.00188963
-0.46366382 -0.15832420 0.21497168
-0.34131670 0.10566089 0.17308247
-0.65896279 -0.75282288 0.05079872
-0.36709243 0.03474090 0.16148137
-0.07432336 0.65637165 0.04780412
-0.45609823 -0.18396655 0.15637049
-0.39308125 -0.07785503 0.09494372
-0.34393620 0.01024162 0.05417054
-0.30388078 0.09272639 0.03519549
-0.06814903 0.67583847 0.05389115
-0.64290094 -0.59380132 0.21128519
-0.56073195 -0.29965740 0.33910707
-0.38973796 0.08760395 0.30500263
-0.36043558 -0.02550180 0.05962853
-0.45753121 -0.06887813 0.31459162
-0.23851831 0.27133617 0.06297183
-0.58873743 -0.39494458 0.30216879
-0.42453659 -0.21499830 0.01325759
-0.45152822 -0.25093624 0.05226346
-0.52631146 -0.29731399 0.23132692
-0.46824297 -0.17826673 0.20310979
-0.41920817 -0.02248740 0.25302532
-0.16378713 0.49302235 0.11805312
-0.48482808 -0.12754680 0.32424322
-0.56221575 -0.42493635 0.17668316
-0.17184217 0.45804030 0.09731847
-0.42931479 -0.05097650 0.24756695
-0.57299256 -0.52648097 0.07588007
-0.25968075 0.18999311 0.02259486
-0.28652507 0.18699780 0.10509327
-0.25108421 0.30168673 0.14396863
-0.23200579 0.29986736 0.08006698
-0.39756215 -0.10218140 0.07691431
-0.18811572 0.37016329 0.03246816
-0.59800494 -0.43251923 0.28188056
-0.36984095 -0.07414672 0.02500949
-0.43172199 -0.11453593 0.17049301
-0.55792397 -0.40154731 0.19407082
-0.12349360 0.52371073 0.02918029
-0.44559973 -0.06757200 0.27788997
-0.36323354 0.03970679 0.15567522
-0.41583082 -0.01663869 0.24994899
-0.30921176 0.13839647 0.11332674
-0.43328613 -0.14563799 0.13402224
-0.31917146 0.16902103 0.18629156
-0.11496936 0.52900785 0.00878386
-0.45361158 -0.06778346 0.30342305
-0.46864739 -0.17337453 0.21094237
-0.24344750 0.35738811 0.19370446
-0.30908388 0.19236182 0.18494001
-0.58710659 -0.54661375 0.09448697
-0.31557545 0.17801720 0.18671159
-0.21159852 0.34347332 0.07251105
-0.52109933 -0.37236953 0.11435911
-0.49408656 -0.17236628 0.29425654
-0.34461325 0.05162270 0.11158177
-0.06901486 0.65470493 0.02847493
-0.69506258 -0.81472003 0.08450600
-0.29374534 0.26726139 0.23548256
-0.32136837 0.03648774 0.01648349
-0.31080842 0.17968437 0.17357667
-0.33717409 0.08060845 0.12629789
-0.53325701 -0.29588869 0.25560883
-0.01224823 0.77426904 0.00514230
-0.48981798 -0.24782483 0.17979105
-0.61119545 -0.54227507 0.17789546
-0.48618498 -0.24136534 0.17670628
-0.51297385 -0.27785817 0.21431819
-0.20968461 0.36634010 0.09686353
-0.29450268 0.09641439 0.00990012
-0.43863624 -0.20740516 0.06882290
-0.37232286 0.11260040 0.28225049
-0.34466633 0.17264971 0.27328274
-0.29961717 0.19764367 0.16148643
-0.22805926 0.36359563 0.15240629
-0.49223024 -0.10849146 0.37352642
-0.49762952 -0.26595175 0.18076770
-0.58859909 -0.58964956 0.04185798
-0.21764025 0.38232970 0.14383841
-0.13467433 0.53829807 0.08467526
