ply
format ascii 1.0
element vertex 363
property float x
property float y
property float z
end_header
0.55888551 0.45865875 0.43438387
0.53049278 0.48212528 0.42454749
0.16290846 0.70979828 0.14517932
0.57602334 0.28061256 0.11308952
0.45742106 0.47527993 0.26497254
0.43357813 0.40168917 0.07042182
0.72148782 0.14903724 0.14082266
0.29188287 0.52899796 0.04169568
0.34249932 0.50785333 0.10054346
0.43036872 0.48964682 0.23964278
0.38947830 0.55843133 0.29534069
0.03832383 0.77409607 0.02480137
0.22999494 0.66248709 0.18466565
0.34736094 0.55310363 0.20060439
0.33612990 0.58796400 0.24778663
0.37835667 0.44800013 0.05262987
0.59493440 0.31187749 0.21327829
0.06326675 0.75715375 0.04077660
0.44977075 0.44838640 0.19599696
0.43851134 0.46055934 0.19782101
0.49180850 0.45420623 0.29155675
0.39244965 0.49303266 0.17068850
0.51150674 0.46999580 0.36241734
0.48130286 0.44798702 0.25816122
0.36409277 0.51607490 0.16007654
0.29898578 0.64122468 0.27996773
0.64162278 0.20187566 0.08685736
0.37550858 0.52494949 0.20059149
0.45959774 0.49860060 0.31588459
0.42265448 0.53133255 0.30747575
0.18424977 0.70147902 0.17118119
0.08907396 0.73853391 0.05512796
0.55679113 0.26280585 0.03913212
0.65554643 0.27334633 0.25736818
0.46762773 0.35824773 0.05166873
0.61609101 0.30776858 0.24731821
0.56815791 0.41506824 0.36585885
0.68729168 0.21809906 0.21044059
0.54842252 0.26182073 0.02045509
0.58251029 0.37537196 0.31525302
0.57422453 0.38177100 0.31148580
0.18756829 0.67680407 0.12853748
0.69040591 0.20786379 0.19622162
0.63283747 0.20936219 0.08426402
0.27103931 0.62494069 0.19165015
0.33472249 0.52549207 0.12023523
0.63479143 0.28647527 0.24214087
0.54872543 0.41649795 0.32991165
0.63449717 0.18873231 0.04638535
0.44660085 0.47371918 0.24025074
0.44199511 0.57057613 0.42445433
0.40343073 0.49949834 0.20552532
0.30393508 0.58830988 0.18419211
0.39677221 0.57807928 0.34913716
0.43864954 0.41786861 0.11285444
0.54706669 0.36580595 0.22538003
0.60084689 0.25923523 0.11997074
0.45507291 0.56195933 0.43336180
0.50787497 0.47194272 0.35905308
0.59270471 0.38151357 0.34787217
0.31933072 0.55474854 0.14791942
0.34182817 0.46041957 0.00449013
0.73046398 0.10805854 0.07692172
0.47649607 0.36585987 0.08457601
0.60836434 0.34388566 0.30400676
0.21911384 0.59955937 0.03728765
0.39921477 0.40176255 0.00195345
0.32962742 0.56083190 0.18062641
0.36455488 0.61702287 0.36256799
0.48641247 0.35624349 0.08517511
0.61035115 0.28040501 0.18121901
0.51819265 0.53657860 0.50871730
0.42841190 0.47807795 0.21263528
0.19960763 0.62980342 0.05872834
0.38512674 0.54967171 0.26916087
0.46321574 0.38474932 0.09577604
0.52419645 0.43742993 0.32272941
0.33355662 0.54530483 0.15746830
0.59691697 0.21611826 0.02603002
0.43193308 0.55456650 0.37239546
0.56213188 0.26997980 0.06412092
0.70687842 0.17695491 0.16739592
0.65936869 0.23307785 0.18459438
0.51760858 0.33891177 0.11285879
0.64077717 0.30068153 0.28245914
0.36980554 0.43058288 0.00077759
0.63377714 0.16652904 0.00061333
0.58667338 0.39297611 0.35871702
0.24375588 0.63903034 0.16530538
0.20025730 0.67721593 0.15469678
0.33736852 0.61741400 0.30906445
0.46523941 0.53226048 0.39436030
0.36645228 0.58460617 0.30162835
0.21499445 0.59963661 0.02921644
0.22281864 0.63447863 0.11441011
0.52190638 0.39394674 0.23133133
0.62837011 0.25319603 0.16286883
0.45543295 0.47735941 0.26515496
0.69913089 0.16285598 0.12377406
0.62877131 0.24237695 0.14206700
0.05758119 0.75721341 0.02954300
0.43067777 0.46303302 0.18711863
0.73301017 0.12947492 0.12476892
0.31563374 0.57696873 0.18490590
0.40200859 0.47145835 0.14669685
0.33354005 0.50272542 0.07241494
0.48095763 0.36085114 0.08348352
0.32504165 0.61714840 0.28392029
0.58176291 0.28376138 0.13083740
0.17279544 0.64156497 0.02867605
0.25890189 0.65831244 0.23405004
0.51116139 0.32922927 0.08065186
0.42061222 0.39236933 0.02592287
0.40429318 0.56366038 0.33536357
0.49590462 0.32178530 0.03532426
0.52796990 0.41580054 0.28707525
0.54515839 0.40964726 0.30910996
0.47132471 0.34623030 0.03505486
0.74392742 0.06411701 0.01606468
0.40968466 0.50313473 0.22527392
0.48618463 0.53289407 0.43744799
0.60492355 0.38809979 0.38542125
0.54255360 0.42302001 0.33061099
0.50960249 0.45628101 0.33122993
0.56851381 0.34230348 0.22127604
0.48731115 0.50582898 0.38565487
0.48962876 0.51450908 0.40761474
0.59377509 0.23337127 0.05420640
0.06353462 0.76025522 0.04750437
0.51960164 0.33537513 0.10977674
0.25867775 0.61777782 0.15266456
0.37213945 0.49215764 0.12838700
0.52165604 0.48173159 0.40611652
0.29028770 0.53635877 0.05320832
0.38862139 0.58218169 0.34105349
0.36370778 0.49914896 0.12551098
0.40209544 0.49074882 0.18538842
0.20761976 0.69128102 0.19748236
0.58555001 0.29898226 0.16879147
0.51292133 0.35261500 0.13086145
0.66352665 0.27069747 0.26801354
0.46898448 0.42093709 0.17955257
0.65158522 0.20092291 0.10484736
0.53827667 0.32191050 0.12018056
0.34438831 0.47734690 0.04340166
0.52667230 0.48704639 0.42674521
0.55478954 0.37816086 0.26547021
0.38903260 0.58688289 0.35126176
0.54971665 0.41221091 0.32333070
0.13472429 0.71288818 0.09507222
0.22397368 0.59522647 0.03833979
0.55234045 0.47404358 0.45203468
0.35800001 0.49466613 0.10516292
0.14664055 0.66098213 0.01522263
0.45307055 0.45021752 0.20624208
0.57485819 0.31701821 0.18345591
0.53977299 0.29719529 0.07381829
0.49736300 0.41979319 0.23393317
0.40135926 0.51640737 0.23515239
0.27647296 0.59402245 0.14076354
0.32824287 0.56888068 0.19393335
0.62109131 0.30987489 0.26150826
0.31745559 0.49308315 0.02104518
0.32260269 0.62935036 0.30341467
0.02822555 0.77792263 0.01227828
0.47710344 0.43759549 0.22902668
0.46120903 0.39848149 0.11918885
0.30662501 0.53415745 0.08143420
0.52355266 0.50148493 0.44934624
0.19136938 0.69804078 0.17853202
0.43403479 0.55086607 0.36920315
0.58628953 0.31275037 0.19775955
0.60493016 0.25040582 0.11049390
0.58049369 0.26657796 0.09399211
0.51200396 0.52586687 0.47497126
0.29550290 0.62366909 0.23795888
0.56442964 0.34962821 0.22774664
0.45986044 0.55239183 0.42381728
0.42075115 0.44989401 0.14106244
0.41850519 0.42750350 0.09186968
0.22823919 0.59474194 0.04588949
0.36207366 0.58873707 0.30113360
0.48195881 0.54365301 0.45049316
0.53973544 0.34520042 0.16959740
0.40199089 0.48611355 0.17592424
0.59285134 0.37623605 0.33762705
0.24137136 0.67646885 0.23529987
0.24365976 0.59910226 0.08538683
0.57407755 0.24627838 0.04064763
0.31856075 0.52989423 0.09675427
0.51274508 0.43680811 0.29862213
0.34720755 0.51340735 0.12103451
0.52980286 0.48726922 0.43344107
0.40565175 0.59305638 0.39677307
0.49057865 0.50555825 0.39163870
0.71108478 0.16359793 0.14912444
0.35575914 0.49304149 0.09744446
0.38691992 0.48867276 0.15094140
0.23724698 0.64255494 0.15934646
0.53215653 0.52742648 0.51832521
0.49395075 0.31372997 0.01533839
0.70274639 0.12498931 0.05538314
0.58566374 0.32814825 0.22725566
0.26107821 0.63891143 0.19965640
0.44624311 0.56758708 0.42696807
0.34173664 0.46427238 0.01200046
0.39866889 0.51090485 0.21879309
0.38885680 0.59498781 0.36709434
0.53275609 0.28457353 0.03460484
0.63718790 0.30622923 0.28636971
0.66535705 0.23507538 0.20054014
0.64041531 0.23225407 0.14510429
0.56476921 0.46565127 0.46009454
0.57424515 0.38520133 0.31837648
0.32707214 0.50746489 0.06896367
0.29859436 0.58024383 0.15742192
0.22386409 0.66239756 0.17224512
0.03189098 0.77796245 0.01967681
0.56770998 0.25626293 0.04786977
0.52180707 0.37781259 0.19891715
0.17376310 0.66664326 0.08068328
0.43348122 0.56138140 0.38909444
0.56737012 0.38689965 0.30803978
0.61936039 0.22669998 0.09197280
0.31548303 0.56709063 0.16488072
0.19475648 0.64060998 0.07061978
0.44886172 0.38851124 0.07462633
0.58349591 0.24334721 0.05360087
0.61664963 0.21922705 0.07163856
0.42406353 0.47605884 0.19992095
0.22433472 0.63146061 0.11141109
0.04159644 0.77063024 0.02441557
0.45254403 0.52522928 0.35497111
0.21005122 0.61816943 0.05635146
0.55612808 0.33586934 0.18369754
0.15655731 0.66783601 0.04870930
0.70393586 0.10401511 0.01587804
0.27285996 0.58828485 0.12209267
0.43588731 0.57660645 0.42429966
0.36637625 0.50076127 0.13405856
0.31637922 0.54771870 0.12798929
0.33231875 0.58887666 0.24199907
0.60720229 0.20188516 0.01814734
0.63347298 0.27042761 0.20746513
0.39237237 0.42389241 0.03247862
0.58590674 0.35996008 0.29126111
0.52067626 0.38147846 0.20397909
0.72746509 0.10457090 0.06396978
0.57564187 0.39493415 0.34059954
0.02766938 0.78077686 0.01686694
0.21845479 0.67913407 0.19486277
0.55030555 0.34482348 0.18995048
0.51865864 0.38298264 0.20295386
0.50224757 0.36937803 0.14302021
0.48263049 0.44404051 0.25293198
0.32578957 0.62397695 0.29904872
0.30221972 0.59597838 0.19607905
0.38196734 0.47055739 0.10488056
0.69330382 0.11572207 0.01802434
0.10966910 0.74397999 0.10712599
0.69238591 0.13386999 0.05242832
0.62857497 0.19960193 0.05626407
0.32030863 0.62476403 0.28967619
0.28832626 0.52013683 0.01690071
0.48986650 0.34506404 0.06974937
0.38957551 0.55572498 0.29013094
0.58647317 0.40857837 0.38947111
0.42549160 0.50313735 0.25684175
0.38883939 0.58392906 0.34497789
0.18563832 0.68534648 0.14174095
0.30068925 0.60185510 0.20475741
0.68707353 0.15995023 0.09389645
0.10367970 0.70220506 0.01175235
0.65545487 0.15799849 0.02686497
0.32024485 0.51681715 0.07400547
0.54586393 0.50677252 0.50445455
0.19217488 0.68320137 0.15050967
0.69861990 0.14015147 0.07741862
0.58635914 0.33431372 0.24095511
0.50419235 0.52579463 0.45922908
0.28944263 0.58911395 0.15685976
0.07445130 0.75470757 0.05822497
0.44501844 0.46164179 0.21297547
0.44859618 0.56216085 0.42083168
0.31010035 0.60114521 0.22213161
0.49277854 0.32263726 0.03078343
0.33164510 0.62961054 0.32198963
0.59166026 0.37559995 0.33397856
0.69141901 0.20216745 0.18687040
0.23207173 0.59737456 0.05879878
0.12669100 0.71990865 0.09304995
0.26476130 0.55061972 0.03071398
0.54273146 0.33710980 0.15942472
0.22584271 0.67793649 0.20722345
0.61426985 0.25898743 0.14627822
0.45504534 0.36453402 0.03909696
0.59102106 0.30418959 0.19011356
0.72520292 0.09677939 0.04389511
0.38784045 0.45380285 0.08315309
0.33268416 0.63105839 0.32695553
0.51975906 0.44513074 0.32924566
0.34387979 0.52124131 0.13003230
0.56918347 0.38438612 0.30664176
0.24439631 0.66459602 0.21763270
0.22668199 0.60613960 0.06553839
0.53904647 0.36136112 0.20049052
0.34976241 0.55826682 0.21570931
0.03297231 0.76875579 0.00345255
0.34902155 0.57127708 0.24020837
0.46217090 0.39527559 0.11470805
0.62646198 0.30821946 0.26892668
0.51503396 0.45936590 0.34823492
0.42069915 0.53686494 0.31461820
0.20441303 0.60284513 0.01449467
0.48989099 0.32769451 0.03511578
0.47066057 0.33981055 0.02091011
0.53332645 0.29261711 0.05180467
0.57142490 0.37838051 0.29912555
0.51854479 0.54062742 0.51750505
0.55995017 0.26687872 0.05357249
0.26165217 0.58259487 0.08835217
0.20083328 0.62683809 0.05525469
0.13013239 0.72061461 0.10133120
0.22424503 0.62070680 0.08975935
0.51148272 0.39212278 0.20687588
0.57434571 0.26389349 0.07635593
0.34858543 0.52263290 0.14220688
0.49071357 0.36322424 0.10770209
0.54466695 0.50511795 0.49876076
0.55244416 0.25107983 0.00703850
0.20156826 0.64468473 0.09235752
0.49672186 0.46250939 0.31794697
0.43565574 0.50584626 0.28254607
0.21200827 0.64033288 0.10451403
0.38704211 0.46955574 0.11301355
0.58303201 0.37164953 0.30886203
0.01983078 0.78080851 0.00127851
0.61649340 0.31828943 0.26912913
0.31761697 0.50137269 0.03791946
0.50480521 0.51727980 0.44345075
0.22770686 0.60560071 0.06650876
0.40806916 0.45736262 0.13065267
0.43898028 0.37218106 0.02228832
0.29882282 0.61036974 0.21803235
0.07788721 0.74993747 0.05556091
0.36968410 0.44451925 0.02836248
0.56262571 0.43101469 0.38665351
0.51118535 0.29300857 0.00837616
0.63142836 0.21639140 0.09548592
0.64954096 0.30028939 0.29917520
0.12360705 0.69381940 0.03479814
0.48523206 0.40069616 0.17157890
0.36196634 0.54082131 0.20524307
0.30905992 0.49320406 0.00452259
0.37916511 0.48362851 0.12538499
0.33601165 0.61534464 0.30222303
0.66060191 0.24683948 0.21453516
0.66543669 0.22655495 0.18368591
0.31710792 0.55670822 0.14739411
0.42128915 0.43238628 0.10717821
0.46978673 0.42940921 0.19807115
0.52776772 0.45638409 0.36770719
0.41095373 0.43412077 0.09000436
