ply
format ascii 1.0
element vertex 355
property float x
property float y
property float z
end_header
-0.47433206 0.45788941 0.00735774
-0.54576313 0.79556030 0.03012447
-0.38340989 0.60913986 0.01071491
-0.57592815 0.46948498 0.01365703
-0.65333587 0.58123493 0.02418381
-0.72949857 0.20708857 0.00760103
-0.53460658 0.52808946 0.01461877
-0.50805336 0.68706232 0.02198793
-0.70266044 0.15471324 0.00319274
-0.45394114 0.46870857 0.00682504
-0.50480312 0.68183702 0.02151626
-0.47755367 0.49368268 0.00952893
-0.49247476 0.33062270 0.00128498
-0.02283697 0.79885155 0.00120595
-0.39427093 0.62618077 0.01226767
-0.23691438 0.70386547 0.00783370
-0.49029851 0.38378468 0.00412235
-0.55138940 0.62538880 0.02096750
-0.16974419 0.76614797 0.00756161
-0.62298781 0.26636273 0.00497215
-0.42832062 0.58230704 0.01172101
-0.77214664 0.47773585 0.02503607
-0.67176247 0.15567724 0.00152686
-0.26721609 0.70523632 0.00959633
-0.49950263 0.70601767 0.02256693
-0.26707536 0.65066862 0.00655179
-0.39718395 0.40459067 0.00009823
-0.64155459 0.36659804 0.01158355
-0.55112243 0.60929942 0.02005726
-0.61502558 0.52195817 0.01875301
-0.50916767 0.78570193 0.02753926
-0.51759613 0.39190918 0.00609363
-0.64103460 0.68274117 0.02914807
-0.60605592 0.22396588 0.00167047
-0.59005868 0.59152514 0.02123499
-0.64811242 0.64713085 0.02756024
-0.67941839 0.40572846 0.01586836
-0.68462068 0.60290962 0.02713106
-0.34757447 0.69457364 0.01347502
-0.45478112 0.36299241 0.00098865
-0.76861221 0.47007480 0.02441304
-0.58822161 0.42531580 0.01188315
-0.77728355 0.15787299 0.00752147
-0.49161941 0.40131399 0.00517137
-0.25046986 0.72796565 0.00992927
-0.35671368 0.53360218 0.00502552
-0.71471173 0.27226174 0.01040502
-0.77121401 0.69094878 0.03684952
-0.71653545 0.55807871 0.02641232
-0.49680242 0.37558264 0.00402785
-0.77891713 0.18368728 0.00904896
-0.47095612 0.76310277 0.02415507
-0.78961891 0.60925674 0.03332760
-0.70827091 0.69213372 0.03341258
-0.61261696 0.77154398 0.03250849
-0.37683648 0.77450788 0.01955186
-0.50623870 0.49197358 0.01103019
-0.28311279 0.52632421 0.00052449
-0.61192608 0.61061567 0.02351433
-0.32236907 0.55926961 0.00454259
-0.70432281 0.56747842 0.02625576
-0.23167358 0.71727663 0.00828838
-0.31813088 0.79659587 0.01751400
-0.53321189 0.58671755 0.01780383
-0.72885489 0.19775841 0.00704598
-0.58426440 0.34029129 0.00693128
-0.60937160 0.78182864 0.03290022
-0.32384199 0.52442271 0.00268532
-0.30762100 0.54085201 0.00269689
-0.70440966 0.41082716 0.01754291
-0.44390228 0.73779166 0.02124091
-0.37385538 0.71724582 0.01619931
-0.58611673 0.24786410 0.00189076
-0.51122063 0.64953434 0.02007575
-0.30672216 0.55379653 0.00336723
-0.35844946 0.55062366 0.00606937
-0.55204374 0.42988476 0.01012405
-0.43008170 0.58125365 0.01176039
-0.37706038 0.72726578 0.01693529
-0.51450199 0.58818835 0.01684444
-0.66498798 0.78497058 0.03617021
-0.67822760 0.43573919 0.01747219
-0.48702550 0.64757878 0.01862042
-0.20420621 0.68431252 0.00492531
-0.79425246 0.34459594 0.01885702
-0.36192933 0.61785966 0.01000474
-0.28334302 0.59742898 0.00449431
-0.67820984 0.59619868 0.02640082
-0.39590940 0.59704906 0.01073767
-0.77787876 0.50526518 0.02688709
-0.62578380 0.30482578 0.00726824
-0.32932687 0.60089570 0.00724631
-0.64643794 0.44299126 0.01610663
-0.62537366 0.65041065 0.02647731
-0.44750318 0.37989154 0.00152406
-0.53167105 0.72851926 0.02560938
-0.70847058 0.23118000 0.00777148
-0.77929860 0.63736773 0.03431765
-0.76790440 0.59756672 0.03146860
-0.65366262 0.54586297 0.02223354
-0.58578867 0.35458684 0.00781166
-0.62177074 0.42139396 0.01353196
-0.59198630 0.77248567 0.03141276
-0.74951363 0.25664350 0.01147265
-0.76492953 0.32651237 0.01621879
-0.47226572 0.40812209 0.00447318
-0.47151425 0.54731709 0.01217760
-0.75296563 0.11567866 0.00382002
-0.62891155 0.74399000 0.03188192
-0.74468899 0.20608187 0.00839038
-0.61637336 0.49223188 0.01717374
-0.42948380 0.75976634 0.02166140
-0.68433297 0.61822695 0.02796746
-0.67993951 0.65925092 0.03000596
-0.75881624 0.61421889 0.03188953
-0.75517935 0.34205213 0.01654097
-0.64952880 0.27224630 0.00677663
-0.52089065 0.49533072 0.01203242
-0.28766182 0.51490027 0.00014190
-0.66223049 0.66000867 0.02906259
-0.35360518 0.79676634 0.01949769
-0.79690200 0.33368692 0.01839738
-0.18794747 0.72236490 0.00613811
-0.55714417 0.31461644 0.00399318
-0.43094453 0.53618562 0.00930036
-0.68542755 0.13152912 0.00094349
-0.58312821 0.67392015 0.02543460
-0.76665407 0.42424524 0.02175363
-0.53313965 0.28514931 0.00101743
-0.59068960 0.65469104 0.02478530
-0.73889554 0.53598493 0.02642717
-0.62019318 0.56501073 0.02143648
-0.21207306 0.73701161 0.00829583
-0.12480402 0.76399648 0.00494089
-0.43876144 0.54937702 0.01046949
-0.48117498 0.52238399 0.01132770
-0.61825120 0.61196548 0.02394146
-0.39164978 0.49681199 0.00492239
-0.43907714 0.76472420 0.02247119
-0.55903339 0.24380627 0.00015771
-0.35083792 0.74181169 0.01628545
-0.66354090 0.63516539 0.02775298
-0.76641804 0.43564355 0.02237481
-0.38020068 0.76619214 0.01927631
-0.45596886 0.68320775 0.01887483
-0.78178555 0.63421828 0.03428078
-0.67677951 0.63094127 0.02825466
-0.76848763 0.71822125 0.03821552
-0.61859757 0.22268847 0.00229734
-0.57117611 0.72170395 0.02742862
-0.58655632 0.47162902 0.01436782
-0.53767288 0.64695823 0.02140450
-0.69022185 0.68112177 0.03179530
-0.73991162 0.46097192 0.02230922
-0.41678959 0.66938788 0.01592536
-0.65237033 0.34472665 0.01096832
-0.63557321 0.23252892 0.00378969
-0.57882547 0.37018785 0.00829235
-0.65933746 0.69963068 0.03110656
-0.12861630 0.79757476 0.00702168
-0.39263424 0.67596710 0.01494721
-0.46433470 0.74567109 0.02281650
-0.36274216 0.74960816 0.01738181
-0.54763627 0.29408404 0.00232142
-0.75981414 0.50008941 0.02559373
-0.65346795 0.31944659 0.00962256
-0.09601135 0.76208162 0.00323196
-0.71986312 0.48571384 0.02257039
-0.72238350 0.41249257 0.01863586
-0.63125366 0.46773136 0.01663839
-0.65553916 0.51413757 0.02057244
-0.54280061 0.33415300 0.00428215
-0.55350363 0.30395374 0.00319720
-0.77806550 0.24751186 0.01255343
-0.30706751 0.54433781 0.00286007
-0.73738575 0.11581815 0.00296073
-0.77479041 0.05579583 0.00170210
-0.62241799 0.59319389 0.02312870
-0.30583471 0.75793624 0.01467828
-0.57747525 0.24610068 0.00131171
-0.71184170 0.46603265 0.02102872
-0.46121678 0.65294093 0.01748253
-0.35195640 0.63991135 0.01067691
-0.77315754 0.28651759 0.01445097
-0.63873094 0.43235585 0.01508586
-0.76988912 0.68229616 0.03629427
-0.46100819 0.68660587 0.01934438
-0.50145853 0.70320535 0.02251928
-0.12376729 0.74254465 0.00368939
-0.78471231 0.06629330 0.00283846
-0.65128469 0.36109301 0.01181869
-0.67599034 0.63146669 0.02823998
-0.54488593 0.33394128 0.00438642
-0.52858049 0.55074757 0.01554434
-0.67580235 0.48435396 0.02004265
-0.69224858 0.27384216 0.00924286
-0.71322995 0.76231408 0.03759411
-0.75591516 0.63605231 0.03294312
-0.72295040 0.26391089 0.01039879
-0.02986983 0.78220385 0.00067089
-0.71983522 0.63518065 0.03088670
-0.50229454 0.59104407 0.01632400
-0.43771452 0.50803119 0.00811032
-0.51498049 0.74940473 0.02584280
-0.73558527 0.30700830 0.01350033
-0.54523474 0.62543154 0.02062736
-0.55674440 0.35628715 0.00628992
-0.62230408 0.45910266 0.01566014
-0.56107092 0.70918351 0.02616949
-0.59410286 0.49125135 0.01587978
-0.53090286 0.76353431 0.02751522
-0.50642294 0.42799583 0.00748006
-0.76169974 0.53232598 0.02749264
-0.54426688 0.70633066 0.02507555
-0.65456694 0.75221044 0.03376715
-0.15662654 0.71151620 0.00379132
-0.68943816 0.48843691 0.02102873
-0.55443442 0.43688247 0.01064652
-0.27010211 0.53181380 0.00010592
-0.56888968 0.55262536 0.01789211
-0.59403765 0.28402862 0.00434414
-0.56941193 0.79808849 0.03158126
-0.55131251 0.30078346 0.00289883
-0.50847703 0.44303471 0.00843129
-0.75541878 0.34091902 0.01649124
-0.79159689 0.65651780 0.03606777
-0.07740878 0.76086271 0.00212887
-0.11255594 0.69853264 0.00061618
-0.62234843 0.51139814 0.01857287
-0.46107179 0.65400052 0.01753343
-0.39517614 0.51141286 0.00593118
-0.50695825 0.62999380 0.01875110
-0.54566401 0.62565106 0.02066347
-0.61744857 0.42029393 0.01323021
-0.67493552 0.17897749 0.00300011
-0.53401989 0.35934865 0.00519564
-0.27838486 0.56832546 0.00259876
-0.18084829 0.71521676 0.00534523
-0.64370060 0.62984937 0.02635300
-0.54361552 0.43722835 0.01006368
-0.29719070 0.60099274 0.00546328
-0.64196229 0.71939391 0.03123944
-0.67107368 0.65567809 0.02931373
-0.76362270 0.22430724 0.01045832
-0.62671787 0.43912685 0.01479412
-0.75867021 0.15629271 0.00639767
-0.71594214 0.71176672 0.03493208
-0.37792113 0.64710587 0.01252227
-0.62106204 0.39816675 0.01219992
-0.40926775 0.41793570 0.00151337
-0.46401513 0.64850521 0.01739141
-0.70107162 0.78348345 0.03809556
-0.65976870 0.54021406 0.02225899
-0.52882189 0.33657217 0.00363884
-0.26552555 0.69406933 0.00888080
-0.69472480 0.75174576 0.03597614
-0.38871145 0.61039555 0.01107983
-0.57924479 0.75818139 0.02990764
-0.79148477 0.18599302 0.00987669
-0.14428964 0.79124999 0.00754196
-0.66365927 0.24010959 0.00577459
-0.70091635 0.34447312 0.01365588
-0.77228844 0.54278523 0.02866398
-0.31965110 0.74304491 0.01461848
-0.53503150 0.74481636 0.02670333
-0.75561893 0.52531999 0.02676435
-0.73659652 0.53319871 0.02614417
-0.78595650 0.41118601 0.02210109
-0.43824381 0.65100604 0.01609637
-0.28909478 0.68331373 0.00959391
-0.14850540 0.73322171 0.00454728
-0.47180656 0.33749384 0.00051714
-0.76982355 0.29426411 0.01469653
-0.27491927 0.73310119 0.01157571
-0.78940946 0.03695765 0.00146732
-0.60922569 0.24227265 0.00286565
-0.51846838 0.29021034 0.00048260
-0.40594959 0.54796815 0.00856505
-0.16355807 0.77071524 0.00747151
-0.78239763 0.50173730 0.02694224
-0.67321837 0.34432939 0.01210644
-0.13846491 0.79802662 0.00759492
-0.70673376 0.42405337 0.01840829
-0.25982130 0.77731115 0.01319578
-0.49238211 0.39181697 0.00468530
-0.41458780 0.51682359 0.00731258
-0.55483186 0.38718778 0.00790312
-0.33983704 0.64464939 0.01026612
-0.79312551 0.10028522 0.00519833
-0.69085228 0.23626137 0.00707377
-0.73608172 0.30260345 0.01328283
-0.75904101 0.50041699 0.02556893
-0.45889950 0.64462537 0.01689081
-0.11172377 0.69763011 0.00051964
-0.36870453 0.69196105 0.01450555
-0.56005025 0.53712583 0.01653763
-0.54466373 0.53599799 0.01561858
-0.42379525 0.65363318 0.01543848
-0.61844891 0.79563528 0.03417373
-0.69074315 0.58163428 0.02628781
-0.13178827 0.71349919 0.00251938
-0.42263910 0.53686988 0.00887623
-0.43183729 0.62982905 0.01456133
-0.62996161 0.40879256 0.01328652
-0.29166722 0.69980001 0.01065454
-0.23481403 0.66391420 0.00549351
-0.44206256 0.51081336 0.00850712
-0.57977831 0.79235816 0.03183927
-0.68549019 0.61481577 0.02784203
-0.63555098 0.16557138 0.00006224
-0.52340925 0.36365554 0.00484482
-0.57723767 0.54219729 0.01777636
-0.79580015 0.71321505 0.03945691
-0.75531578 0.25365505 0.01162924
-0.34741169 0.48353383 0.00172153
-0.30119130 0.59497190 0.00535086
-0.40180644 0.40155953 0.00018679
-0.63506526 0.79127634 0.03485588
-0.62515926 0.78999639 0.03423336
-0.72971505 0.64438242 0.03194861
-0.44817972 0.75898457 0.02265835
-0.26831448 0.73268121 0.01118477
-0.64559489 0.22442824 0.00389661
-0.48255292 0.42696804 0.00609446
-0.49537697 0.34822837 0.00242625
-0.38903359 0.45464164 0.00243000
-0.65394592 0.28507346 0.00773628
-0.31683883 0.55337334 0.00390669
-0.26666996 0.62060589 0.00485623
-0.31756073 0.61367846 0.00730287
-0.54163778 0.35783243 0.00553521
-0.70719129 0.25450221 0.00899817
-0.37923294 0.58127564 0.00893180
-0.59871024 0.78925705 0.03272029
-0.62349403 0.23790015 0.00341637
-0.72986710 0.17323849 0.00573777
-0.37995145 0.77689773 0.01985821
-0.79263049 0.64131999 0.03527953
-0.62676889 0.19002707 0.00093447
-0.27144033 0.61117136 0.00459667
-0.79163861 0.46331906 0.02531853
-0.47249657 0.57158470 0.01358277
-0.65586174 0.33847484 0.01081470
-0.30386353 0.79050982 0.01638131
-0.39512676 0.64769489 0.01351257
-0.36755589 0.55027032 0.00655650
-0.56669682 0.59961301 0.02038495
-0.44104522 0.56538409 0.01148739
-0.19776630 0.65039718 0.00267952
-0.72160506 0.20026393 0.00678195
-0.58139867 0.28350386 0.00361156
-0.63817549 0.46710253 0.01698861
-0.22233851 0.76620495 0.01049174
-0.58602858 0.33481809 0.00672487
-0.39741680 0.78018892 0.02101334
