ply
format ascii 1.0
element vertex 223
property float x
property float y
property float z
end_header
-0.59224212 -0.34278950 0.00384609
-0.40089077 -0.13860352 0.00039743
-0.70802402 0.03058938 0.01257473
-0.77727157 -0.03853374 0.01388650
-0.76272035 -0.41755858 0.00835047
-0.67361569 -0.11905726 0.00946367
-0.71060228 -0.39716122 0.00694064
-0.33533755 0.01409633 0.00032202
-0.58458191 -0.51263916 0.00132856
-0.31454137 0.08619526 0.00061429
-0.41531166 0.36029735 0.00753134
-0.52918565 -0.07239162 0.00542445
-0.42149770 0.16191860 0.00507952
-0.34624588 0.36823982 0.00540770
-0.58845872 0.18503530 0.01077887
-0.49222228 -0.31932229 0.00093059
-0.53549755 -0.48501548 0.00011308
-0.44769678 0.10967492 0.00522707
-0.32530096 0.39328709 0.00506627
-0.59166509 -0.36681008 0.00350640
-0.57730246 -0.59297419 0.00001978
-0.15753677 0.58135211 0.00216365
-0.65165895 -0.43786651 0.00449357
-0.67835069 -0.55745173 0.00375694
-0.57846338 -0.06204014 0.00715375
-0.18155941 0.60728681 0.00328587
-0.46066818 -0.28532788 0.00036623
-0.61125094 -0.04154269 0.00848627
-0.77946597 -0.32286382 0.01015680
-0.47211996 -0.06040599 0.00374227
-0.17942953 0.48471814 0.00157885
-0.77095056 -0.43661106 0.00836147
-0.55902869 -0.43817043 0.00149892
-0.57420218 -0.02970028 0.00744843
-0.53276074 0.05447821 0.00723562
-0.66029191 -0.05207238 0.00992883
-0.71390200 0.06953031 0.01328499
-0.75101089 -0.70093775 0.00418458
-0.28786349 0.48156270 0.00503749
-0.73669022 -0.25897917 0.00962984
-0.28318128 0.43183061 0.00422160
-0.77802289 -0.50423348 0.00768586
-0.63731629 -0.60273832 0.00182683
-0.47325268 0.04104880 0.00513489
-0.50650907 0.20620994 0.00841613
-0.63632643 0.10660430 0.01127598
-0.26269826 0.18066858 0.00020326
-0.50776106 0.02198567 0.00599420
-0.76431006 -0.25633734 0.01055682
-0.38472986 0.14688709 0.00369155
-0.70411396 -0.62808603 0.00364455
-0.25376585 0.33188966 0.00193610
-0.47314531 -0.13497204 0.00277872
-0.43082303 -0.08902392 0.00202648
-0.43016201 -0.10586284 0.00178007
-0.72379738 -0.66190672 0.00382785
-0.46116054 0.28228760 0.00796890
-0.31639078 0.19556199 0.00213580
-0.19600147 0.41087383 0.00112687
-0.47612676 0.28473812 0.00848484
-0.72478771 -0.43609619 0.00687821
-0.61678857 -0.27699277 0.00551802
-0.06182192 0.66617239 0.00020719
-0.78167611 -0.13191350 0.01278056
-0.59423238 -0.01969441 0.00822885
-0.64286757 -0.16211101 0.00789550
-0.58538407 -0.08719892 0.00704091
-0.55611533 -0.31171221 0.00309511
-0.73220521 -0.04344490 0.01236588
-0.72222465 -0.09754681 0.01132053
-0.43324432 0.12692527 0.00499104
-0.61396182 -0.32778245 0.00474790
-0.68522173 -0.42626938 0.00573216
-0.31959489 0.04481536 0.00022436
-0.17579244 0.38418609 0.00011771
-0.79291832 -0.44863766 0.00890983
-0.26928583 0.36471948 0.00287597
-0.42523262 0.19174185 0.00559872
-0.31808776 0.31458771 0.00378149
-0.28958276 0.44161394 0.00455904
-0.51430619 -0.28202429 0.00214210
-0.62654161 -0.01845302 0.00928855
-0.51330251 0.28368759 0.00967103
-0.36135098 -0.03547704 0.00049927
-0.60485715 -0.63808382 0.00030645
-0.43415439 0.11896900 0.00491408
-0.42557147 0.21083041 0.00586480
-0.42531347 0.20330459 0.00575588
-0.67157930 -0.64574724 0.00235816
-0.21373940 0.35137421 0.00090427
-0.67073488 0.02885485 0.01134766
-0.44170800 -0.19776486 0.00092447
-0.75809109 -0.53535521 0.00662646
-0.68660140 -0.77460158 0.00112078
-0.30871767 0.28908563 0.00313811
-0.73849064 0.04526054 0.01375445
-0.46229744 -0.10630419 0.00281167
-0.42346272 0.00673202 0.00306873
-0.61549473 -0.10855447 0.00772760
-0.65383446 0.12345688 0.01206648
-0.16938989 0.56033748 0.00226545
-0.57572794 0.22324143 0.01087852
-0.65759754 -0.65243548 0.00181736
-0.61149567 -0.62442666 0.00070332
-0.36659843 0.28225890 0.00491556
-0.21656653 0.42334735 0.00195754
-0.75387591 -0.54542738 0.00635576
-0.41913530 0.00895057 0.00295867
-0.67485267 0.04531704 0.01170064
-0.57251614 -0.23652719 0.00462954
-0.70630443 -0.29282543 0.00819644
-0.12136714 0.63151211 0.00166635
-0.72012264 -0.18208818 0.01012268
-0.32444012 0.34720564 0.00442255
-0.21037999 0.33648199 0.00059676
-0.48382923 0.30897284 0.00905744
-0.65869027 -0.14898670 0.00858176
-0.46622309 0.23046160 0.00743964
-0.70140415 -0.71195006 0.00243607
-0.72351599 -0.63169312 0.00422263
-0.79521602 -0.49116802 0.00841550
-0.73042351 -0.50423712 0.00614930
-0.49015185 -0.26371413 0.00160701
-0.77142793 -0.64524287 0.00558811
-0.26155412 0.42203486 0.00339243
-0.25522202 0.45619228 0.00364455
-0.75392312 -0.20159712 0.01095318
-0.57759255 -0.32004270 0.00367716
-0.31913346 0.15738992 0.00171414
-0.39590922 0.16085093 0.00423912
-0.75555021 -0.19762287 0.01105883
-0.49640626 -0.16819781 0.00308561
-0.63879681 -0.01942002 0.00967129
-0.62188983 -0.50246358 0.00266906
-0.38708648 -0.07639761 0.00078320
-0.61074328 -0.22199491 0.00605795
-0.54426163 -0.36962074 0.00193840
-0.45360491 0.10755345 0.00538946
-0.60423356 -0.34229240 0.00423988
-0.51898193 -0.00595446 0.00598302
-0.48778108 -0.27111992 0.00143148
-0.61702818 -0.59350252 0.00129527
-0.25153446 0.52239698 0.00441039
-0.29397929 0.16282830 0.00097472
-0.19423082 0.50067997 0.00227006
-0.27360350 0.27623108 0.00183263
-0.46453941 0.08485085 0.00543904
-0.29319325 0.11890051 0.00036220
-0.73504198 -0.11169541 0.01154523
-0.46121556 -0.16275997 0.00202215
-0.55534470 -0.53048289 0.00014613
-0.36725083 0.24768825 0.00447455
-0.44680461 0.03510101 0.00420151
-0.68932784 -0.35731697 0.00678635
-0.56022310 -0.55193734 0.00001687
-0.56700820 0.00598110 0.00769309
-0.43802392 0.08394017 0.00457081
-0.53642702 -0.12345960 0.00497566
-0.26807901 0.41127115 0.00345922
-0.34447008 0.12982339 0.00216368
-0.12140554 0.54444772 0.00050388
-0.47038552 -0.32102996 0.00020276
-0.15917090 0.42218399 0.00008896
-0.40300575 0.00852450 0.00243223
-0.58850014 -0.13966271 0.00644028
-0.44336689 0.14737567 0.00559119
-0.32797539 0.19106837 0.00244975
-0.68921590 -0.40798452 0.00610551
-0.56628323 -0.30566508 0.00350421
-0.42977422 0.33399200 0.00764667
-0.63290983 -0.71608198 0.00016961
-0.78332287 -0.30528390 0.01051629
-0.40508023 0.00359216 0.00243328
-0.59862077 0.00715129 0.00872935
-0.29034081 0.48154625 0.00511725
-0.78225648 -0.69106472 0.00532516
-0.63948429 -0.56824762 0.00235783
-0.48576185 0.15491477 0.00706069
-0.56904078 0.20343278 0.01039786
-0.60470420 -0.41438818 0.00329144
-0.50268602 0.10291730 0.00691209
-0.51787013 -0.39670765 0.00072430
-0.64758724 -0.54376972 0.00294661
-0.69307542 -0.32660407 0.00731785
-0.01661668 0.77904809 0.00025643
-0.07715673 0.69478786 0.00108475
-0.37594825 0.39392677 0.00670998
-0.17659888 0.44763747 0.00099184
-0.59740072 0.04105445 0.00914311
-0.26720199 0.23411801 0.00106307
-0.43320370 0.03171631 0.00371716
-0.44547707 0.32777926 0.00807060
-0.30404520 0.30532154 0.00320427
-0.26318878 0.38436702 0.00294174
-0.59899491 -0.51351345 0.00178220
-0.66118664 0.06637444 0.01154088
-0.60732841 -0.29026708 0.00503517
-0.16204178 0.43773863 0.00038955
-0.70422089 0.08870790 0.01322876
-0.56849092 -0.28503925 0.00385117
-0.55902904 0.15338597 0.00940570
-0.54395938 -0.08625206 0.00571616
-0.71635896 -0.75280166 0.00237275
-0.59932214 -0.32370904 0.00432970
-0.32867908 0.44382107 0.00585077
-0.62259424 -0.17701381 0.00704178
-0.44334999 -0.11194531 0.00212455
-0.53263992 0.25241807 0.00987739
-0.47381607 0.16749845 0.00684321
-0.72983932 -0.13173784 0.01110937
-0.70812470 0.05038716 0.01284260
-0.78108698 -0.57499975 0.00683884
-0.51035172 0.07222847 0.00674939
-0.55455261 -0.30885756 0.00308281
-0.20972085 0.36202338 0.00091687
-0.61718810 0.15526599 0.01130851
-0.64874893 -0.27936554 0.00651815
-0.40803128 -0.04674539 0.00185574
-0.18553998 0.39865246 0.00062577
-0.43618909 0.10980473 0.00485728
-0.41335154 0.27226111 0.00629136
-0.79251730 -0.48902568 0.00835702
-0.54381984 0.16207981 0.00903087
