ply
format ascii 1.0
element vertex 1088
property float x
property float y
property float z
end_header
-0.14284828 -0.48134822 0.00000187
-0.36977756 -0.09272894 0.02614358
-0.28300646 0.11674977 0.16979846
-0.36975104 -0.09266855 0.11098498
-0.62263077 -0.70317465 0.07624577
-0.11072536 -0.62589270 0.00000127
-0.33669552 -0.01286726 0.16089746
-0.16383523 0.40445587 0.16501874
-0.26500335 -0.72189826 0.00000219
-0.14870082 -0.20059049 0.00000262
-0.36289507 -0.07612848 0.39139634
-0.25582340 0.18237396 0.21048233
-0.36511210 -0.08146664 0.05392067
-0.02859323 -0.53927523 0.00000087
-0.17321043 0.26273224 0.00000571
-0.49400085 -0.73197430 0.00000390
-0.43511155 -0.25046533 0.15753146
-0.06521643 0.64254916 0.03459616
-0.18888609 0.34397760 0.16235057
-0.22280905 0.26208639 0.01284125
-0.36759591 -0.08746671 0.13799798
-0.12033753 -0.72921342 0.00000108
-0.36543506 -0.44654870 0.00000364
-0.44467008 -0.27354947 0.33986229
-0.40339509 -0.25766507 0.00000440
-0.33956686 -0.78851777 0.00000259
-0.29549804 -0.16270831 0.00000382
-0.20313422 -0.76906753 0.00000161
-0.22265758 0.13544942 0.00000594
-0.41643038 -0.20536214 0.09410173
-0.15098563 0.37840024 0.00000503
-0.11325270 -0.10493718 0.00000259
-0.45237440 -0.29214758 0.29709736
-0.23370387 -0.53312701 0.00000243
-0.39602882 -0.15610839 0.09781961
-0.41874826 -0.21095809 0.09674411
-0.32797083 0.00819285 0.23737898
-0.31052187 -0.09558503 0.00000410
-0.37776867 -0.54173160 0.00000350
-0.29902250 -0.63643688 0.00000266
-0.30078831 0.07382079 0.16042978
-0.11875726 0.51329076 0.00844318
-0.37740827 -0.11115686 0.15931739
-0.44698477 -0.46455449 0.00000421
-0.34338611 -0.78696412 0.00000262
-0.38560286 -0.13094746 0.32512093
-0.48750752 -0.49956062 0.00000443
-0.08949038 -0.33245963 0.00000184
-0.12300412 0.04942254 0.00000891
-0.23531619 0.10805321 0.00000595
-0.31851125 0.03102995 0.24737751
-0.45440578 -0.53181058 0.00000410
-0.38880432 -0.13867410 0.27001801
-0.14325242 -0.26127341 0.00000243
-0.03240309 -0.58888716 0.00000077
-0.49365225 -0.39179984 0.25693572
-0.23995733 -0.11718542 0.00000352
-0.16357803 0.40508026 0.08214336
-0.52618343 -0.47032708 0.01481048
-0.22752579 0.25069287 0.15915133
-0.32384497 0.01815727 0.15176378
-0.01262181 0.48159853 0.00000692
-0.04912242 0.11927026 0.00000977
-0.15289143 -0.48701671 0.00000194
-0.54791695 -0.56772441 0.00000471
-0.22803240 0.10236720 0.00000616
-0.17682941 0.37308711 0.11481034
-0.54445183 -0.79101032 0.00000413
-0.65369433 -0.79980236 0.00000493
-0.58489019 -0.61206144 0.09081413
-0.00682104 -0.49421045 0.00000082
-0.52398008 -0.46500814 0.02667938
-0.29860601 0.07909283 0.07868272
-0.11064830 0.51974124 0.00000447
-0.40752950 -0.18386982 0.00888176
-0.00845755 -0.79919821 0.00000007
-0.25965771 0.16732898 0.00000484
-0.34883657 -0.26275927 0.00000397
-0.38062868 -0.11893785 0.30637586
-0.00593334 -0.39373100 0.00000106
-0.51605648 -0.66092712 0.00000424
-0.11533084 -0.03810690 0.00000277
-0.32346839 -0.46107134 0.00000329
-0.16211236 -0.16913100 0.00000280
-0.43796384 -0.25735736 0.29825121
-0.15273391 0.17053989 0.00000707
-0.12730449 0.46579596 0.00000465
-0.28852171 -0.40460640 0.00000317
-0.02698495 -0.51245970 0.00000092
-0.25185513 -0.62654638 0.00000233
-0.32652098 -0.36857104 0.00000354
-0.42154843 -0.21772763 0.31638843
-0.40380725 -0.17488888 0.13738722
-0.38051555 -0.11865533 0.08403476
-0.17428496 0.37923354 0.03079329
-0.56351024 -0.56044865 0.20319661
-0.30165309 -0.11478625 0.00000399
-0.43733698 -0.25583348 0.05071470
-0.14886852 -0.51560879 0.00000183
-0.43472293 -0.24953225 0.27796957
-0.46301168 -0.31782168 0.13959853
-0.20780994 -0.17501758 0.00000313
-0.41493759 -0.54830408 0.00000376
-0.34111354 -0.29227892 0.00000384
-0.55972689 -0.55131507 0.22371788
-0.47937319 -0.38351777 0.00000466
-0.39564788 -0.79806966 0.00000299
-0.41288194 -0.71622097 0.00000332
-0.16005506 0.25843373 0.00000603
-0.62563109 -0.71041793 0.11098426
-0.44338849 -0.35091525 0.00000447
-0.11092640 -0.08115627 0.00000263
-0.11541688 -0.01007128 0.00000285
-0.30396363 0.06615433 0.17200056
-0.45181149 -0.29077765 0.03753214
-0.63627213 -0.73610556 0.00945760
-0.58157885 -0.60406828 0.11675286
-0.07891244 0.60948354 0.04400190
-0.32989615 -0.33404794 0.00000365
-0.35376874 -0.05408202 0.07255046
-0.24791273 -0.42312750 0.00000281
-0.13870658 0.24384502 0.00000663
-0.36685729 -0.08568693 0.21848555
-0.23551977 0.23139313 0.17139910
-0.07928050 0.47246066 0.00000560
-0.00540144 -0.16268329 0.00000163
-0.47298491 -0.34190664 0.34123260
-0.22601490 -0.05614277 0.00000356
-0.07723628 -0.56478965 0.00000117
-0.10357010 -0.36976263 0.00000186
-0.55878353 -0.54980803 0.00000484
-0.43333268 -0.24616538 0.03148804
-0.47930023 -0.35714433 0.10340929
-0.47513759 -0.74662864 0.00000372
-0.31413409 -0.71212757 0.00000259
-0.11204579 -0.55610567 0.00000146
-0.47803476 -0.45981660 0.00000446
-0.23078118 0.24283707 0.07794507
-0.34176084 -0.21598235 0.00000404
-0.58442312 -0.61093134 0.03001298
-0.30531526 0.06289742 0.02690414
-0.51528084 -0.44401002 0.11425078
-0.31590950 0.03730897 0.29947349
-0.17772742 -0.38670933 0.00000237
-0.20264167 0.31076896 0.15322421
-0.39466500 -0.15282923 0.41378108
-0.60259295 -0.65479672 0.01702476
-0.36718172 -0.08646380 0.06852487
-0.07393728 0.62088358 0.00000423
-0.17913163 -0.18745345 0.00000288
-0.17465501 -0.42597735 0.00000225
-0.37462428 -0.10444507 0.38128197
-0.44555736 -0.27568465 0.17740165
-0.18930373 -0.05602440 0.00000329
-0.43754625 -0.25634280 0.14705591
-0.31803921 0.03217391 0.14564712
-0.31779057 -0.37813205 0.00000345
-0.21103092 -0.47782081 0.00000240
-0.31615397 -0.05821787 0.00000424
-0.23997948 0.22062387 0.23107199
-0.48244563 -0.68860823 0.00000392
-0.46783760 -0.32947287 0.14804003
-0.31610397 0.03684238 0.23081602
-0.02838003 0.49569809 0.00000644
-0.00806334 0.59200180 0.00000591
-0.41510218 -0.20216231 0.25313437
-0.18562359 -0.52568352 0.00000209
-0.34234557 -0.02650380 0.06815143
-0.48088083 -0.56675416 0.00000421
-0.08925043 -0.62477911 0.00000111
-0.29634264 0.08455540 0.11858108
-0.49410301 -0.53855854 0.00000438
-0.39566365 -0.34010828 0.00000413
-0.27081493 0.14618962 0.00844162
-0.00790897 0.19581912 0.00000987
-0.05682762 0.45924371 0.00000621
-0.06485199 -0.03093071 0.00000241
-0.48142558 -0.71355134 0.00000385
-0.20850570 0.29660884 0.22496004
-0.47237718 -0.34042785 0.03914009
-0.52239591 -0.46118927 0.16047595
-0.07244804 -0.46794695 0.00000138
-0.01334237 -0.64528793 0.00000049
-0.30824918 0.05581427 0.02594093
-0.50001889 -0.40716136 0.04686463
-0.45436472 -0.56046939 0.00000403
-0.50015014 -0.74619299 0.00000391
-0.14096627 -0.07978480 0.00000286
-0.49681768 -0.39943746 0.15252551
-0.30414346 -0.12729172 0.00000398
-0.26819408 0.15250774 0.22656864
-0.62027830 -0.69749540 0.14173160
-0.03075978 -0.24240103 0.00000163
-0.27837068 -0.22371553 0.00000354
-0.39262840 -0.14790465 0.23043890
-0.09687942 0.12436799 0.00000871
-0.36459386 -0.08022508 0.28020805
-0.20527975 -0.22632420 0.00000298
-0.26285303 -0.51128852 0.00000270
-0.14721808 -0.05532589 0.00000297
-0.38746709 -0.13544381 0.22417133
-0.19891427 -0.63900137 0.00000190
-0.26864362 0.15141973 0.29001391
-0.51127809 -0.43434590 0.09946595
-0.30214608 0.01067762 0.00000551
-0.39899877 -0.16329066 0.38502002
-0.43866056 -0.25902906 0.05421474
-0.23720957 0.22731240 0.19855735
-0.29717195 0.07921233 0.00000493
-0.23224992 0.23929131 0.07659389
-0.26602399 -0.63440031 0.00000242
-0.46246281 -0.31650218 0.27163243
-0.01773184 -0.69757771 0.00000039
-0.22498198 0.25683314 0.18432239
-0.35952890 -0.06800150 0.38210186
-0.00323876 0.76243716 0.00000431
-0.29737261 0.08206580 0.18951561
-0.38065144 -0.63385808 0.00000329
-0.61892855 -0.69423699 0.10620718
-0.48837170 -0.37905273 0.33350515
-0.44079140 -0.26417470 0.08571341
-0.10690646 -0.20997810 0.00000228
-0.55487466 -0.60818255 0.00000467
-0.01469183 -0.05239866 0.00000198
-0.32810259 -0.22024848 0.00000392
-0.21701254 -0.75667834 0.00000175
-0.49194738 -0.38767672 0.08838367
-0.52600467 -0.46989518 0.00832595
-0.51785707 -0.45022970 0.11739878
-0.34980649 -0.17851803 0.00000419
-0.61318767 -0.74631578 0.00000476
-0.39616463 -0.75558406 0.00000310
-0.15229370 -0.30637762 0.00000238
-0.31076363 -0.59274441 0.00000286
-0.45081037 -0.34433535 0.00000454
-0.45250994 -0.75503367 0.00000353
-0.36879626 -0.09036776 0.21213356
-0.38798529 -0.47255281 0.00000375
-0.27260807 -0.01894015 0.00000401
-0.16460650 -0.47900981 0.00000204
-0.32260007 0.02115900 0.23858209
-0.22181933 -0.18735225 0.00000321
-0.27597052 -0.14014132 0.00000373
-0.61477560 -0.68420893 0.02861302
-0.25537300 -0.71730006 0.00000213
-0.22522904 0.00651275 0.00000718
-0.50907522 -0.42903176 0.19775625
-0.32256290 0.02125497 0.09163699
-0.01189221 -0.13010411 0.00000176
-0.59473562 -0.63582909 0.05724524
-0.36866638 -0.76613736 0.00000287
-0.00197259 -0.45250818 0.00000086
-0.24536327 -0.39252520 0.00000287
-0.03380267 0.29738793 0.00000831
-0.35536754 -0.05794333 0.10684493
-0.52894044 -0.47698525 0.06661732
-0.06332836 0.30903098 0.00000757
-0.02014879 -0.74553829 0.00000029
-0.60765737 -0.66702378 0.02509392
-0.19352537 -0.52150530 0.00000216
-0.58363521 -0.60903031 0.05699539
-0.17603916 -0.40426913 0.00000232
-0.41882625 -0.42996061 0.00000408
-0.09977608 -0.04493622 0.00000264
-0.49980828 -0.48744905 0.00000455
-0.66401637 -0.80308592 0.13625412
-0.02003476 0.51327884 0.00000644
-0.13053665 0.48484895 0.09649392
-0.59659946 -0.64033115 0.19854617
-0.58288425 -0.60721689 0.04923210
-0.42269638 -0.22049963 0.32963654
-0.05019830 0.37903729 0.00000715
-0.34077859 -0.07574978 0.00000438
-0.21247664 -0.15340260 0.00000322
-0.31587902 0.03739109 0.09875421
-0.61200017 -0.76884711 0.00000470
-0.26210776 -0.12474262 0.00000367
-0.52344894 -0.46373317 0.19836754
-0.34148657 -0.02443925 0.28743878
-0.23140121 -0.09434658 0.00000351
-0.17837836 0.36934939 0.07265538
-0.30393204 0.04702320 0.00000511
-0.14101027 0.45438200 0.00000448
-0.13646929 0.47052696 0.07990971
-0.24457234 -0.44422972 0.00000273
-0.58862621 -0.62107795 0.01513386
-0.35054946 -0.04631060 0.08655336
-0.16086058 -0.64003336 0.00000161
-0.52354068 -0.58506936 0.00000449
-0.06422882 0.64493442 0.01230784
-0.41447532 -0.59432364 0.00000364
-0.37798986 -0.11255579 0.03917336
-0.11505357 0.52222961 0.07188056
-0.26858896 -0.22645967 0.00000346
-0.45023334 -0.65268224 0.00000377
-0.60310972 -0.65604717 0.08282008
-0.29863212 -0.06824419 0.00000408
-0.19919294 0.05710124 0.00000722
-0.20828053 -0.16198942 0.00000317
-0.34359831 -0.02953099 0.13507676
-0.60922539 -0.72897369 0.00000477
-0.07025420 0.33034608 0.00000721
-0.47493187 -0.49135292 0.00000435
-0.07531300 -0.35577348 0.00000168
-0.44017285 -0.26268420 0.15226233
-0.08630442 -0.42914569 0.00000158
-0.10857258 0.53787637 0.06717876
-0.32456473 -0.56345487 0.00000304
-0.22784764 0.24991760 0.11913360
-0.00262123 -0.26847470 0.00000131
-0.38263524 -0.12378439 0.35972089
-0.38244510 -0.23968501 0.00000429
-0.32212228 -0.07328519 0.00000425
-0.00676698 -0.42653862 0.00000098
-0.24333751 0.21251559 0.25999987
-0.37732017 -0.11093921 0.04336685
-0.58855325 -0.62090361 0.05932525
-0.27782592 -0.07182138 0.00000392
-0.14707103 0.44493318 0.05148789
-0.45233813 -0.29205298 0.12993036
-0.56245834 -0.55790913 0.19368865
-0.07242336 0.55658412 0.00000490
-0.10719186 -0.63261080 0.00000123
-0.07935093 -0.72648740 0.00000078
-0.28967035 -0.61115885 0.00000266
-0.22779927 -0.74352241 0.00000186
-0.57942832 -0.59887725 0.14806049
-0.03386772 -0.53799635 0.00000091
-0.03853692 -0.73784256 0.00000045
-0.15318586 -0.35075635 0.00000228
-0.44636661 -0.63127130 0.00000379
-0.60422140 -0.65872848 0.02415933
-0.38221139 -0.12274995 0.09592255
-0.35115114 -0.37295821 0.00000372
-0.22466265 -0.79409033 0.00000171
-0.37436032 -0.10379321 0.03678804
-0.33582276 -0.01075935 0.14067130
-0.07426299 -0.09235365 0.00000233
-0.52641183 -0.51071906 0.00000469
-0.55366451 -0.53667760 0.13449515
-0.30225861 -0.13272114 0.00000395
-0.27205333 -0.15463561 0.00000367
-0.13511316 0.30792305 0.00000607
-0.02913925 0.30120617 0.00000837
-0.32763305 0.00901651 0.04402517
-0.28145969 -0.45688191 0.00000298
-0.36592260 -0.13595267 0.00000442
-0.53280723 -0.48631930 0.03396659
-0.43601209 -0.25264022 0.17582396
-0.53699392 -0.66312879 0.00000439
-0.47148663 -0.38461611 0.00000460
-0.57028592 -0.57680076 0.02555434
-0.01254294 0.70543754 0.00000468
-0.58422327 -0.63459408 0.00000482
-0.35517690 -0.05748136 0.06572969
-0.11805539 -0.46958393 0.00000172
-0.31573337 0.03774154 0.12631384
-0.62787610 -0.71583766 0.13102636
-0.64740783 -0.76299030 0.14569499
-0.44868743 -0.28323704 0.07594907
-0.08095932 0.60454208 0.03959055
-0.45909423 -0.30836514 0.16397628
-0.18835793 0.34525681 0.06479394
-0.23487823 -0.75296801 0.00000189
-0.60796523 -0.66776973 0.13681182
-0.20789772 -0.22403818 0.00000301
-0.32921857 0.00517903 0.27304310
-0.33765277 -0.78544974 0.00000258
-0.49044850 -0.38405594 0.03766482
-0.35431275 -0.13211711 0.00000434
-0.16755772 0.05633570 0.00000790
-0.08693488 -0.19010094 0.00000218
-0.49496159 -0.39496070 0.25305000
-0.26030099 0.17156757 0.12830275
-0.35428938 -0.05534926 0.31477264
-0.37048689 -0.09445395 0.32160470
-0.40612316 -0.26270935 0.00000441
-0.56229681 -0.55751920 0.23154844
-0.45522779 -0.29902527 0.03689309
-0.56086373 -0.55405289 0.01150619
-0.43339449 -0.28578889 0.00000456
-0.10202279 -0.60809553 0.00000125
-0.47173688 -0.33888116 0.01932027
-0.23813927 -0.55523461 0.00000241
-0.39740193 -0.15943512 0.37499264
-0.03320488 0.02564028 0.00001104
-0.36293897 -0.71592802 0.00000295
-0.48159900 -0.36269948 0.23051275
-0.59372216 -0.63338488 0.12312796
-0.10915154 -0.19883406 0.00000233
-0.15918680 -0.50659919 0.00000193
-0.40202504 -0.17059553 0.35603055
-0.22786175 -0.77203649 0.00000179
-0.35583892 -0.62725258 0.00000312
-0.25620562 0.18145473 0.12728415
-0.42444986 -0.22472623 0.17217255
-0.22619483 -0.67036718 0.00000203
-0.23368469 -0.52313578 0.00000246
-0.31820202 -0.47499156 0.00000321
-0.22365133 0.14109409 0.00000586
-0.15341347 -0.51544112 0.00000187
-0.18616349 0.35055119 0.14849196
-0.32233217 0.02180830 0.17881761
-0.37091342 -0.65449351 0.00000316
-0.53543615 -0.51300269 0.00000476
-0.13425101 0.22656852 0.00000690
-0.59494317 -0.63633084 0.07106239
-0.07193708 0.62632531 0.00430611
-0.30460671 -0.04361814 0.00000419
-0.23007870 0.24452628 0.23808047
-0.03281670 -0.61637622 0.00000071
-0.13857459 0.46544722 0.01045835
-0.01155575 -0.06367993 0.00000193
-0.40363291 -0.17447750 0.36152387
-0.27813068 0.12851726 0.25678611
-0.34699380 -0.03772900 0.14798693
-0.48879862 -0.38008267 0.27007768
-0.44125277 -0.26529080 0.13897958
-0.24903570 0.19876578 0.09772960
-0.07430943 0.55857420 0.00000484
-0.61425912 -0.71717638 0.00000484
-0.07530792 0.61818671 0.01835442
-0.01840590 -0.11129338 0.00000186
-0.50860190 -0.42788708 0.14814095
-0.10150136 0.55494714 0.08377915
-0.20075828 -0.60996425 0.00000199
-0.26776540 0.15355103 0.02888653
-0.40495870 -0.20991422 0.00000453
-0.01418221 -0.32964647 0.00000128
-0.29728603 0.08227035 0.29588747
-0.52225238 -0.46083826 0.05201796
-0.19539949 -0.04592927 0.00000336
-0.29744467 -0.66650879 0.00000258
-0.27571043 0.13436034 0.25540197
-0.00576973 -0.32915866 0.00000114
-0.03030282 -0.72656792 0.00000041
-0.35017109 -0.65902501 0.00000299
-0.04941609 0.48730880 0.00000608
-0.18826580 -0.26992527 0.00000275
-0.19430308 0.33089840 0.19500993
-0.26827517 -0.73983979 0.00000217
-0.20959213 -0.47848424 0.00000239
-0.40183514 -0.17013545 0.31773224
-0.09362300 0.37414840 0.00000628
-0.24274994 0.17853634 0.00000509
-0.19732998 0.32359669 0.05512750
-0.53190523 -0.48414734 0.16932052
-0.43241656 -0.24395403 0.04016891
-0.45580232 -0.30041498 0.09934659
-0.29987615 -0.14465310 0.00000390
-0.17119896 0.38668245 0.06376934
-0.52714550 -0.47265446 0.12478898
-0.53774285 -0.49823695 0.08074953
-0.42112204 -0.45688736 0.00000403
-0.43940964 -0.38733763 0.00000435
-0.38877413 -0.13859285 0.07229235
-0.52475119 -0.46687251 0.09150118
-0.16058795 0.30684790 0.00000554
-0.55175322 -0.53205806 0.01138804
-0.07212559 0.42163056 0.00000626
-0.50183445 -0.41154614 0.08513460
-0.34203124 -0.17229745 0.00000415
-0.16286442 0.40680131 0.12526061
-0.23197857 -0.76095808 0.00000185
-0.58992845 -0.62422109 0.00013172
-0.22824442 0.14045590 0.00000577
-0.21153013 -0.23810932 0.00000300
-0.47259310 -0.34096074 0.34833649
-0.27125558 -0.67826301 0.00000235
-0.00011453 -0.33610651 0.00000116
-0.53718865 -0.49690285 0.17277268
-0.01353921 -0.49920833 0.00000085
-0.40374631 -0.17473739 0.03297745
-0.17143834 0.36246896 0.00000475
-0.00385398 -0.79045516 0.00000005
-0.45862883 -0.74559015 0.00000360
-0.49767253 -0.40149972 0.11640719
-0.43760195 -0.25648460 0.32017940
-0.38046616 -0.11854260 0.23792763
-0.04444865 -0.53153813 0.00000101
-0.40364119 -0.46374106 0.00000389
-0.61818886 -0.76778001 0.00000474
-0.27268207 0.07996668 0.00000544
-0.36028162 -0.06980942 0.16289277
-0.09546347 -0.24985562 0.00000210
-0.40226543 -0.17116626 0.12942515
-0.11254625 -0.72246838 0.00000104
-0.43731463 -0.25578573 0.19653992
-0.39150470 -0.14519913 0.40454420
-0.27570909 -0.43148285 0.00000300
-0.31794232 -0.23869482 0.00000380
-0.14059694 0.19233672 0.00000711
-0.03020490 0.32621866 0.00000810
-0.30588728 0.06151548 0.04892227
-0.37676385 -0.10961083 0.39097714
-0.22822008 0.24901459 0.20906125
-0.34049121 -0.68388337 0.00000286
-0.06579419 0.00920811 0.00001052
-0.22038935 -0.06612684 0.00000350
-0.24998276 0.05759790 0.00000614
-0.49151042 -0.38662943 0.26824400
-0.28368247 -0.67548525 0.00000245
-0.37552452 -0.10661557 0.31316334
-0.59087145 -0.62650186 0.09815495
-0.05990319 -0.42426482 0.00000139
-0.23374116 0.23568879 0.13116653
-0.34503207 -0.03299970 0.30687547
-0.25005427 -0.38408443 0.00000293
-0.23626284 0.22960308 0.07958446
-0.32433423 -0.09609970 0.00000421
-0.05300256 -0.40647200 0.00000138
-0.35629499 -0.28245896 0.00000398
-0.43917930 -0.26028988 0.25537232
-0.25872651 0.14133422 0.00000512
-0.16904406 -0.72486180 0.00000146
-0.17096637 0.38723916 0.17742103
-0.23016784 -0.78837734 0.00000177
-0.09069401 0.50836563 0.00000500
-0.46253812 -0.31668651 0.33343378
-0.30350804 0.06726031 0.02968308
-0.36774680 -0.08783169 0.15535390
-0.15748914 0.41977966 0.09631819
-0.29048982 0.09868384 0.15552612
-0.31030878 -0.07128972 0.00000416
-0.19145010 0.33779266 0.04119922
-0.17927460 0.36718336 0.12687778
-0.38049075 -0.11859438 0.05998794
-0.07740372 0.33911625 0.00000697
-0.43232003 -0.24371935 0.00138063
-0.57255614 -0.78616291 0.00000435
-0.14312805 0.00383598 0.00000894
-0.41333112 -0.40438524 0.00000411
-0.28785294 -0.08662711 0.00000396
-0.00301889 0.46790600 0.00000726
-0.22097880 -0.72855574 0.00000185
-0.07280501 0.21873517 0.00000827
-0.04119293 0.67438644 0.00000439
-0.55188996 -0.76325887 0.00000426
-0.09947815 0.55983454 0.01492129
-0.38225028 -0.12284291 0.07413580
-0.25284928 0.18955892 0.09817340
-0.56565213 -0.56561661 0.09135633
-0.22992267 -0.79432732 0.00000175
-0.43665686 -0.25419918 0.23132575
-0.37154543 -0.16482212 0.00000439
-0.07124436 -0.10761073 0.00000227
-0.36392355 -0.07860739 0.29346886
-0.27568901 -0.61051464 0.00000255
-0.53807372 -0.49903268 0.00960948
-0.44546816 -0.27547610 0.33674204
-0.19737056 -0.61810619 0.00000194
-0.20631143 -0.44421938 0.00000245
-0.10748021 -0.76097232 0.00000091
-0.11867017 -0.54786336 0.00000153
-0.23419952 -0.59873760 0.00000227
-0.59156734 -0.62818259 0.11268699
-0.17164949 0.34863394 0.00000489
-0.31856409 -0.44257301 0.00000330
-0.04915547 -0.47543705 0.00000118
-0.36248213 -0.07513084 0.37319845
-0.45218891 -0.78653574 0.00000345
-0.05599046 0.33999997 0.00000742
-0.17134117 0.38633531 0.15412790
-0.32462996 0.01085878 0.00000503
-0.51936501 -0.64867610 0.00000430
-0.31298175 -0.53675908 0.00000302
-0.37456939 -0.10429792 0.03725662
-0.26942301 -0.35377747 0.00000315
-0.04410957 0.64686316 0.00000460
-0.10810286 0.10310310 0.00000869
-0.18148977 -0.34662527 0.00000250
-0.09817404 -0.20699403 0.00000222
-0.22274731 0.26222977 0.14586630
-0.08275528 -0.12199766 0.00000232
-0.52401012 -0.46508938 0.29487360
-0.45127568 -0.28948623 0.08956526
-0.05410637 -0.39189255 0.00000143
-0.21725187 0.27550262 0.01302618
-0.42698294 -0.49026367 0.00000400
-0.05542817 -0.42217332 0.00000136
-0.23547022 0.23151892 0.02603651
-0.07314278 0.51393837 0.00000532
-0.05064099 0.03202553 0.00001061
-0.45557842 -0.29988468 0.34331128
-0.11141691 0.09460042 0.00000870
-0.14804153 0.42470530 0.00000463
-0.13401130 -0.30697396 0.00000224
-0.04874313 0.67742771 0.00000420
-0.44978854 -0.28589699 0.11360788
-0.09112993 0.57998550 0.09807998
-0.46287316 -0.31749088 0.22536902
-0.24424319 -0.77177674 0.00000191
-0.22810754 0.01375914 0.00000704
-0.36467054 -0.42703685 0.00000368
-0.37257838 -0.09950143 0.27831310
-0.48075581 -0.78597873 0.00000366
-0.41808233 -0.20934883 0.05887059
-0.27117595 0.06691191 0.00000560
-0.47328144 -0.70303589 0.00000381
-0.11164557 0.12222766 0.00000842
-0.50172997 -0.41129929 0.21247105
-0.57984239 -0.78300303 0.00000442
-0.14043263 0.40072188 0.00000503
-0.30091414 -0.67493361 0.00000258
-0.25476632 -0.17523749 0.00000348
-0.51875943 -0.45241201 0.20740438
-0.64489853 -0.75693256 0.12522098
-0.11450919 -0.14332785 0.00000251
-0.08773296 -0.26180559 0.00000201
-0.59398001 -0.63400728 0.14936537
-0.51713586 -0.61442184 0.00000437
-0.12312679 -0.09632056 0.00000269
-0.47529894 -0.34748361 0.08711259
-0.15590827 -0.03723312 0.00000308
-0.50636476 -0.42248061 0.02023635
-0.25979897 0.04563656 0.00000606
-0.10483975 0.54688716 0.09229707
-0.19323508 -0.34908429 0.00000259
-0.14832340 -0.59895366 0.00000162
-0.29127884 0.09677622 0.21984549
-0.11890228 0.51294059 0.01016228
-0.17980526 -0.73897535 0.00000151
-0.38079131 -0.26539046 0.00000421
-0.21814160 -0.46784389 0.00000248
-0.00553748 0.02070182 0.00001168
-0.13393611 0.38350567 0.00000534
-0.21597846 -0.11273060 0.00000335
-0.63019919 -0.74609768 0.00000489
-0.47806084 -0.37728623 0.00000466
-0.29778793 -0.03616793 0.00000416
-0.16398610 -0.09496763 0.00000300
-0.19639906 0.32584444 0.04861427
-0.25746849 -0.12077852 0.00000364
-0.40003464 -0.38387978 0.00000406
-0.55987573 -0.55166799 0.01863694
-0.04058721 -0.31193367 0.00000153
-0.40074590 -0.16749717 0.11537950
-0.17679156 -0.25326520 0.00000270
-0.55713844 -0.54506207 0.07669304
-0.59329039 -0.65246469 0.00000484
-0.09471654 0.13960852 0.00000860
-0.22881135 0.23868781 0.00000478
-0.00572747 0.05304312 0.00001135
-0.46562296 -0.32412508 0.11908877
-0.26817560 0.15255225 0.22782055
-0.25579208 -0.37607750 0.00000299
-0.06102157 -0.48603162 0.00000125
-0.22502330 -0.19256711 0.00000322
-0.30310276 -0.54139924 0.00000293
-0.17147718 0.38600942 0.09472076
-0.34179035 -0.02516284 0.05674855
-0.02118829 -0.21901903 0.00000161
-0.39960000 -0.16474417 0.43224269
-0.18991500 -0.61745876 0.00000189
-0.28187019 -0.61912358 0.00000258
-0.25236109 -0.50794184 0.00000263
-0.17810933 -0.67276162 0.00000166
-0.58991814 -0.68968165 0.00000473
-0.42557317 -0.22744203 0.26357162
-0.27807531 -0.13611053 0.00000376
-0.13587286 -0.20962255 0.00000250
-0.28153312 -0.07127739 0.00000395
-0.33408767 -0.38265449 0.00000356
-0.57040811 -0.57710117 0.17746204
-0.41698614 -0.20671195 0.28581208
-0.20921163 -0.20114598 0.00000308
-0.51257348 -0.43747264 0.08604968
-0.30457225 0.06468721 0.12097705
-0.09035186 -0.64579302 0.00000107
-0.35739860 -0.28127962 0.00000399
-0.46323797 -0.31836644 0.10286431
-0.00434683 -0.08157958 0.00000183
-0.44815567 -0.28195897 0.21120812
-0.08373043 0.49201229 0.00000531
-0.28648978 0.01556103 0.00000579
-0.20221546 0.31179902 0.12759939
-0.00204758 0.23518258 0.00000960
-0.27258533 0.14190805 0.18470699
-0.35545251 -0.05814624 0.05337863
-0.43141565 -0.34794441 0.00000438
-0.29348245 0.09145566 0.23315062
-0.50390917 -0.72971916 0.00000398
-0.24204578 -0.07684125 0.00000363
-0.01691840 -0.00004498 0.00000213
-0.06754063 0.63693702 0.05716191
-0.42589387 -0.56966853 0.00000379
-0.58114618 -0.60302299 0.10046531
-0.01149378 0.11226346 0.00001063
-0.63090897 -0.72315943 0.05257701
-0.61551619 -0.68599886 0.07446507
-0.03658641 -0.11590314 0.00000199
-0.59388018 -0.63376540 0.09149974
-0.44652298 -0.27801850 0.23927218
-0.48181239 -0.61460376 0.00000410
-0.07785559 0.43766952 0.00000598
-0.18147898 -0.20306183 0.00000286
-0.12773915 0.46241245 0.00000468
-0.41086757 -0.19193466 0.15033734
-0.36510387 -0.65320987 0.00000312
-0.20434891 0.15570861 0.00000613
-0.25869617 0.17544404 0.08000765
-0.18653448 0.20725985 0.00000599
-0.12021342 -0.18785475 0.00000244
-0.14603104 -0.30693319 0.00000233
-0.43630862 -0.25335723 0.20315225
-0.19975963 0.31772864 0.11092403
-0.21987987 -0.46910453 0.00000249
-0.40537655 -0.17868072 0.21262380
-0.46997321 -0.33462811 0.13291723
-0.48441896 -0.36950725 0.22545838
-0.05903358 -0.66220510 0.00000079
-0.64099550 -0.74750966 0.03094778
-0.02517620 -0.29894018 0.00000144
-0.24946763 0.19772525 0.04557511
-0.22637597 0.25346529 0.24237238
-0.23506825 0.23248379 0.15759911
-0.30532590 -0.11147493 0.00000402
-0.62988704 -0.72069246 0.12729114
-0.41514748 -0.35059124 0.00000426
-0.12334331 0.48876324 0.00000451
-0.43237337 -0.37490022 0.00000432
-0.45669532 -0.30258092 0.33511445
-0.26041958 0.08568642 0.00000564
-0.02927488 -0.43784377 0.00000113
-0.56008613 -0.55217808 0.07025553
-0.45414224 -0.29641482 0.27987510
-0.10479128 0.49215117 0.00000486
-0.00340622 -0.12906197 0.00000166
-0.05775960 -0.15986998 0.00000204
-0.06733801 -0.19789369 0.00000201
-0.09318532 -0.37963083 0.00000175
-0.35165474 -0.57273531 0.00000322
-0.07835267 0.06252906 0.00000972
-0.34628507 -0.03602446 0.30043873
-0.09143071 -0.40658903 0.00000167
-0.11206542 -0.69560951 0.00000111
-0.28508562 0.11173668 0.01724120
-0.52480620 -0.71858299 0.00000416
-0.44411582 -0.27220404 0.16692655
-0.19316725 -0.00195817 0.00000345
-0.32551870 -0.61970228 0.00000291
-0.43192282 -0.24276705 0.15772860
-0.17591403 -0.66652715 0.00000166
-0.57164961 -0.58009738 0.12869869
-0.53278923 -0.48628345 0.26880068
-0.10169959 -0.12690151 0.00000245
-0.31362984 -0.72683805 0.00000255
-0.51533186 -0.44413862 0.25286466
-0.46007112 -0.31071743 0.01916683
-0.11929687 -0.08959533 0.00000268
-0.07617395 -0.37056234 0.00000165
-0.00414361 -0.59710854 0.00000048
-0.31899410 0.02986602 0.20632707
-0.51759112 -0.44958618 0.08126799
-0.39659524 -0.15748338 0.27552378
-0.12297304 0.50311017 0.07310081
-0.44654831 -0.27807418 0.10997075
-0.03494324 0.23874436 0.00000887
-0.61951631 -0.73820311 0.00000483
-0.20598556 0.30269492 0.17963988
-0.58192164 -0.60489559 0.11140648
-0.16507593 0.40146109 0.15143995
-0.18804595 0.34601203 0.01746816
-0.37262017 -0.68686503 0.00000309
-0.39874992 -0.16267490 0.03193686
-0.24613160 0.03149340 0.00000649
-0.39801329 -0.30892327 0.00000423
-0.52470368 -0.46675804 0.09550870
-0.57147133 -0.57966268 0.02587233
-0.53431040 -0.48994714 0.00768494
-0.27151200 -0.45109576 0.00000292
-0.33089814 0.00112979 0.14129694
-0.60645664 -0.66412395 0.00351036
-0.36742419 -0.36292565 0.00000386
-0.59914440 -0.64647377 0.07584295
-0.15926868 -0.78819442 0.00000123
-0.26122302 -0.06888814 0.00000380
-0.02426756 0.06201425 0.00001087
-0.37980214 -0.67747772 0.00000317
-0.41413257 -0.19981895 0.19384922
-0.17785913 -0.25297025 0.00000271
-0.13400339 0.23954397 0.00000677
-0.39819503 -0.16133817 0.09973466
-0.19585307 -0.21191873 0.00000295
-0.19108613 0.33866447 0.20383032
-0.47015426 -0.33506459 0.11865856
-0.00493596 0.38080150 0.00000809
-0.50381720 -0.62288636 0.00000424
-0.52344537 -0.46372125 0.11929193
-0.12657146 -0.44604293 0.00000184
-0.31830490 0.03153609 0.06082325
-0.46806666 -0.33002198 0.05564430
-0.31202942 0.04667891 0.23840924
-0.41765773 -0.20833720 0.37699738
-0.39275599 -0.45194957 0.00000383
-0.19367844 -0.72743410 0.00000164
-0.18805760 -0.43124717 0.00000234
-0.18420820 0.08367402 0.00000727
-0.52054518 -0.45671880 0.10081228
-0.54879522 -0.52492434 0.24893810
-0.53088391 -0.48167613 0.03947896
-0.21087120 -0.27912292 0.00000289
-0.18074077 -0.22430658 0.00000280
-0.53158450 -0.49792862 0.00000477
-0.15685923 0.42130405 0.00924901
-0.22594418 0.25450921 0.20777977
-0.49430445 -0.39336646 0.07012931
-0.42985496 -0.23777944 0.26768035
-0.19050120 -0.61083382 0.00000191
-0.40360653 -0.17440677 0.19443554
-0.46291909 -0.31760395 0.27703488
-0.00841731 0.63728678 0.00000545
-0.19103007 -0.62094647 0.00000189
-0.02965732 -0.58240759 0.00000077
-0.30676937 0.05938641 0.03678689
-0.17132197 -0.66423494 0.00000163
-0.27569383 0.13440622 0.11820672
-0.17590117 -0.57491982 0.00000189
-0.01811078 0.73984945 0.00000422
-0.32496166 -0.11440196 0.00000417
-0.56496054 -0.78351909 0.00000430
-0.41129160 -0.19296607 0.33220536
-0.39952612 -0.35030350 0.00000414
-0.14687032 0.44541931 0.01438874
-0.40580761 -0.40861222 0.00000404
-0.48008120 -0.78904212 0.00000365
-0.50072074 -0.40886450 0.24993160
-0.24774265 -0.59712875 0.00000238
-0.24758175 -0.73417836 0.00000203
-0.29935509 -0.32016617 0.00000346
-0.31730086 0.03396260 0.00037911
-0.42956406 -0.23706801 0.05234487
-0.38045627 -0.53545690 0.00000353
-0.49255958 -0.38915852 0.17801128
-0.46139312 -0.31390834 0.00319430
-0.38898614 -0.60501856 0.00000342
-0.05931511 -0.60260183 0.00000094
-0.48881936 -0.53215218 0.00000436
-0.21488763 0.28120622 0.11193092
-0.27802983 0.09020549 0.00000522
-0.06439431 -0.33439255 0.00000165
-0.27628735 0.06549031 0.00000551
-0.33158195 -0.00052896 0.32643417
-0.25241533 0.19060268 0.19021265
-0.13087507 -0.65889543 0.00000134
-0.28424177 -0.77800870 0.00000220
-0.35419530 -0.05512280 0.32987088
-0.50695473 -0.42390496 0.02065482
-0.21649238 -0.01040148 0.00000361
-0.36270863 -0.07566965 0.18441042
-0.11535781 0.45525885 0.00000501
-0.02337987 0.02769154 0.00001123
-0.26915702 0.15018621 0.14950547
-0.40793484 -0.70830399 0.00000331
-0.14080550 0.46005583 0.13924287
-0.55749816 -0.55658543 0.00000481
-0.30351594 0.06723584 0.15742306
-0.04716644 0.23591518 0.00000864
-0.49173570 -0.38717389 0.30513519
-0.43482280 -0.24977450 0.30653048
-0.11676507 -0.04046872 0.00000278
-0.38370860 -0.42681137 0.00000383
-0.63412356 -0.73091829 0.00605400
-0.40837538 -0.18591936 0.18350378
-0.14009608 0.16512933 0.00000739
-0.62897533 -0.73135287 0.00000492
-0.37621418 -0.10828106 0.32595229
-0.20347312 0.30875996 0.19293714
-0.00145254 -0.52367419 0.00000070
-0.43434909 -0.46579093 0.00000411
-0.02930359 0.08643302 0.00001052
-0.29394189 -0.39103228 0.00000324
-0.15989248 -0.20558560 0.00000269
-0.01484027 0.02321034 0.00001145
-0.11871520 0.09984720 0.00000849
-0.51371777 -0.44023192 0.00946467
-0.41353008 -0.45361286 0.00000399
-0.46847680 -0.33101457 0.11252144
-0.41238922 -0.67012870 0.00000344
-0.38406968 -0.12723485 0.06250557
-0.41126624 -0.19289675 0.14214934
-0.48419407 -0.36895931 0.10731339
-0.24558070 -0.09655239 0.00000361
-0.33873299 -0.01778661 0.17124663
-0.37268984 -0.09976895 0.24094202
-0.52781975 -0.47428527 0.19882366
-0.44309792 -0.37243268 0.00000441
-0.06799916 -0.48559311 0.00000130
-0.26188487 -0.27899668 0.00000328
-0.26520422 -0.44309533 0.00000289
-0.32162631 0.02350963 0.24477339
-0.12712650 -0.74693304 0.00000109
-0.21329428 0.28505534 0.05496276
-0.14228339 -0.13811521 0.00000273
-0.40218449 -0.79863572 0.00000304
-0.25579491 0.10680344 0.00000553
-0.44455230 -0.27325526 0.10710904
-0.34822702 -0.04071555 0.36668339
-0.63962543 -0.74420196 0.03025033
-0.36493084 -0.08102842 0.03913061
-0.49148417 -0.38655525 0.01233029
-0.08701667 0.10442981 0.00000912
-0.03379574 -0.50312865 0.00000100
-0.42535889 -0.77447122 0.00000327
-0.05754147 -0.59171200 0.00000095
-0.27249897 0.14211643 0.18742990
-0.23397160 0.18148834 0.00000524
-0.36273965 -0.07574680 0.23761012
-0.51663876 -0.44728914 0.13490964
-0.28648278 -0.13448016 0.00000383
-0.48016921 -0.35923818 0.00693569
-0.01499004 0.31785539 0.00000850
-0.22998597 0.24475332 0.16337582
-0.09682858 0.15612909 0.00000839
-0.10764384 -0.02856236 0.00000274
-0.53733802 -0.77653062 0.00000411
-0.34099922 -0.04989869 0.00000445
-0.29935771 -0.43989012 0.00000316
-0.34671885 -0.24880145 0.00000399
-0.25799623 -0.44492984 0.00000283
-0.48533478 -0.47438800 0.00000448
-0.19417489 0.32203159 0.00000468
-0.30376139 0.06663965 0.24187072
-0.44518575 -0.63078260 0.00000378
-0.15985180 0.41407552 0.09968702
-0.08598361 0.59241074 0.07746211
-0.35021228 -0.04550147 0.20268713
-0.37729403 -0.11089042 0.38190261
-0.40445703 -0.17646448 0.29977041
-0.30237105 -0.55697608 0.00000289
-0.26726231 -0.31022537 0.00000324
-0.16706969 -0.65508229 0.00000162
-0.21010302 -0.46967033 0.00000241
-0.64246386 -0.75105357 0.00608488
-0.03004392 0.51644748 0.00000620
-0.53609097 -0.49425432 0.24525999
-0.00998981 -0.07858109 0.00000188
-0.32045716 0.02633384 0.20734879
-0.45306021 -0.29379618 0.12947176
-0.02121019 -0.11345923 0.00000188
-0.29163370 0.09592849 0.00868120
-0.40916532 -0.38223547 0.00000413
-0.38005337 -0.11754909 0.31007037
-0.50596952 -0.42153484 0.21683770
-0.53505290 -0.49174634 0.16553412
-0.53948563 -0.50244504 0.09501817
-0.09266875 -0.38699570 0.00000173
-0.44005886 -0.28737515 0.00000460
-0.15922384 -0.51921809 0.00000190
-0.33785895 -0.20103081 0.00000405
-0.08408306 0.56389368 0.00000458
-0.34980252 -0.04451914 0.36585760
-0.04525804 0.66590977 0.00000438
-0.34331632 -0.02885643 0.28062999
-0.48392841 -0.36831993 0.15453272
-0.41259229 -0.19609550 0.07896262
-0.22409351 -0.69181204 0.00000196
-0.08536818 0.37914127 0.00000641
-0.30254558 -0.29160279 0.00000355
-0.33231008 -0.00227705 0.09595405
-0.38069692 -0.18350556 0.00000441
-0.34738949 -0.79974359 0.00000262
-0.09944819 0.13815263 0.00000852
-0.56658787 -0.60380369 0.00000477
-0.06174146 -0.38922083 0.00000149
-0.01262545 0.30276784 0.00000871
-0.21586809 -0.62686300 0.00000206
-0.27898756 0.12645116 0.19627489
-0.31296566 -0.34613052 0.00000350
-0.48670939 -0.66748244 0.00000400
-0.14707287 0.44492534 0.13161965
-0.03199540 -0.59387410 0.00000076
-0.31613934 -0.19985825 0.00000389
-0.27859071 0.12741171 0.13817984
-0.29512018 -0.69929808 0.00000248
-0.40523002 -0.17832606 0.19087164
-0.39042389 -0.14257725 0.10813959
-0.40255785 -0.19740912 0.00000454
-0.49767548 -0.60088325 0.00000425
-0.36389732 -0.21963158 0.00000420
-0.06074574 0.58337271 0.00000488
-0.27336875 0.14002191 0.06140480
-0.32167792 0.02339316 0.05392119
-0.35629022 -0.06017633 0.23487778
-0.10514303 -0.46873468 0.00000162
-0.41290277 -0.59662414 0.00000362
-0.48624125 -0.37390506 0.18650191
-0.36862352 -0.08994809 0.15023014
-0.25933790 0.17389245 0.13370819
-0.49368733 -0.39187387 0.00628671
-0.05253482 0.21887051 0.00000870
-0.41213095 -0.19498053 0.05074575
-0.57888246 -0.59755570 0.04914240
-0.38366717 -0.12627436 0.32772228
-0.26872513 -0.77886498 0.00000208
-0.07275818 -0.42420402 0.00000149
-0.28989038 0.10013322 0.10311035
-0.35666236 -0.06107166 0.16112155
-0.05893450 0.43995443 0.00000636
-0.31472784 0.04016205 0.29225534
-0.30493358 -0.48852611 0.00000308
-0.00458881 -0.22149961 0.00000142
-0.16989753 -0.54803669 0.00000191
-0.26822522 0.15243764 0.10659964
-0.19854484 0.32065812 0.18770707
-0.34860227 -0.04161310 0.16831401
-0.26185960 -0.08047347 0.00000377
-0.16375776 -0.42784393 0.00000217
-0.27401546 -0.07766667 0.00000387
-0.39558753 -0.15504768 0.20806530
-0.04983410 0.13804179 0.00000957
-0.18716499 -0.11480391 0.00000313
-0.27643451 0.13261139 0.27537462
-0.66957146 -0.81649661 0.08930429
-0.17850621 0.19647628 0.00000626
-0.37544414 -0.10642516 0.40013605
-0.17239834 -0.56747931 0.00000188
-0.16123740 -0.17951795 0.00000277
-0.30671045 0.05952083 0.22201125
-0.28690189 0.10734561 0.16343690
-0.19577880 0.32734314 0.01907635
-0.34493655 -0.22844405 0.00000403
-0.04929773 0.08078411 0.00001015
-0.38179269 -0.12174754 0.29420272
-0.10096631 -0.41401875 0.00000173
-0.21205030 -0.09989418 0.00000335
-0.45108816 -0.28904447 0.34821007
-0.44018823 -0.77714175 0.00000338
-0.31547505 -0.29304940 0.00000365
-0.22526576 0.25614819 0.18051304
-0.07088081 -0.42183113 0.00000148
-0.29793280 0.08071704 0.10322914
-0.52220678 -0.46073297 0.16550852
-0.24064794 0.21901691 0.06927408
-0.21850023 -0.76041937 0.00000175
-0.12540351 0.49724364 0.04619095
-0.24000828 0.22055319 0.25765064
-0.55374771 -0.69116604 0.00000445
-0.14183950 0.22376241 0.00000677
-0.16016139 -0.15554260 0.00000282
-0.27428728 0.13780218 0.11284219
-0.42259595 -0.76921433 0.00000327
-0.31210196 -0.66060519 0.00000270
-0.39244813 -0.45805198 0.00000382
-0.31263894 0.04521683 0.01721290
-0.31878027 -0.79560381 0.00000242
-0.13642961 -0.70862281 0.00000126
-0.07863707 0.57675630 0.00000457
-0.48822775 -0.49532688 0.00000445
-0.04750056 0.68531966 0.02305739
-0.44773364 -0.41471723 0.00000434
-0.51845306 -0.45166403 0.01060415
-0.41127273 -0.46337602 0.00000394
-0.35305944 -0.19608413 0.00000417
-0.32088694 0.02529778 0.17055340
-0.15387708 -0.56346673 0.00000175
-0.07766055 -0.13213012 0.00000226
-0.44061691 -0.67555672 0.00000364
-0.37617993 -0.10820128 0.39332843
-0.11323859 0.52660972 0.11042648
-0.32062075 -0.43530503 0.00000333
-0.06785637 -0.10619324 0.00000225
-0.38336033 -0.12552470 0.11835760
-0.59693098 -0.64113140 0.17317244
-0.45161632 -0.29031166 0.16127069
-0.17887701 0.36814648 0.05054644
-0.27546576 -0.21620119 0.00000354
-0.32365763 -0.10441121 0.00000418
-0.11554204 0.52104920 0.09840841
-0.00735400 -0.29548445 0.00000132
-0.26853555 0.15168221 0.25282273
-0.60617703 -0.66345286 0.17129339
-0.55096024 -0.53014338 0.00476716
-0.30845651 0.05531403 0.01978821
-0.24672469 -0.56400913 0.00000245
-0.29540887 -0.52503425 0.00000292
-0.51687878 -0.44786546 0.05802768
-0.61343408 -0.68097240 0.19981395
-0.02653961 -0.59152544 0.00000072
-0.22770341 -0.62143171 0.00000216
-0.34628686 -0.03602294 0.16197959
-0.29870763 0.07884900 0.04262230
-0.20796737 -0.11265869 0.00000329
-0.10957661 0.01658289 0.00000952
-0.10438275 0.33648777 0.00000643
-0.17216545 0.38434973 0.04935868
-0.25813359 -0.38736641 0.00000298
-0.02758299 0.40795335 0.00000734
