ply
format ascii 1.0
element vertex 1352
property float x
property float y
property float z
end_header
-0.50001061 0.22860265 -0.03853022
-0.00892992 -0.37503502 0.00000187
-0.54389739 -0.51310021 0.24246532
-0.56539887 -0.56500524 0.07784408
-0.44935337 0.29640767 -0.03522706
-0.01275466 -0.32054231 0.00000212
-0.44642425 0.34666502 -0.03784496
-0.46813247 -0.33019215 0.34574050
-0.25494090 -0.47713989 0.00000180
-0.32605296 -0.36121944 0.00000241
-0.27495822 0.13617937 0.06524544
-0.55129987 -0.66133279 0.00000144
-0.33401829 -0.45636842 0.00000201
-0.33482948 -0.00836586 0.17101853
-0.42274377 -0.22060424 0.02006471
-0.20249704 0.31111434 0.10777668
-0.30307320 0.06829900 0.21148528
-0.48341408 -0.61749649 0.00000153
-0.06579885 0.72102970 -0.00483596
-0.33866197 -0.01762046 0.23488751
-0.58638245 0.15891114 -0.04694567
-0.43806201 0.30641711 -0.03418139
-0.14833248 0.44187757 0.14554729
-0.43725687 0.32991534 -0.03548800
-0.54402018 -0.51339662 0.26068687
-0.10912732 0.16724055 0.00000931
-0.28565738 -0.61426061 0.00000124
-0.60357267 -0.01361454 -0.03900451
-0.48261273 -0.36514965 0.29781687
-0.28751829 0.10585717 0.05287826
-0.50187922 -0.41165763 0.13906689
-0.28928229 0.10159537 0.14617161
-0.20300944 -0.71788359 0.00000067
-0.43733346 -0.25583130 0.15577665
-0.22204766 -0.12478060 0.00000329
-0.05223378 0.37210366 0.00000889
-0.53154814 0.19546662 -0.04113690
-0.45789692 -0.30547667 0.18206272
-0.79318136 -0.44155195 -0.04081289
-0.00929422 0.14807531 0.00001093
-0.29502687 -0.43596631 0.00000204
-0.10009519 -0.62008661 0.00000094
-0.13464262 -0.67370296 0.00000076
-0.46772411 -0.32919562 0.00517711
-0.29224902 0.09443316 0.14137849
-0.27457967 0.52185404 -0.02331614
-0.05575767 0.65101963 0.00000709
-0.67554647 0.04365786 -0.05300784
-0.18691528 0.55410969 -0.01244222
-0.41845024 -0.21024388 0.17143729
-0.08233393 0.25287351 0.00000918
-0.07439444 0.18468171 0.00000972
-0.16801983 0.31760472 0.00000748
-0.11273416 -0.21895382 0.00000271
-0.66607535 -0.04341277 -0.04634488
-0.29360601 0.09115821 0.10940597
-0.02840965 -0.14420421 0.00000291
-0.12304722 0.30406836 0.00000824
-0.50460899 -0.58455938 0.00000170
-0.16136996 -0.41200054 0.00000194
-0.23874916 0.22359288 0.14546993
-0.65019357 -0.76971555 0.15168141
-0.01067940 -0.19712383 0.00000257
-0.63190901 -0.75056553 0.00000117
-0.45608887 0.23796886 -0.03267027
-0.15356736 0.42923927 0.15121850
-0.64263147 -0.75145942 0.12832782
-0.11632818 0.51914734 0.00411715
-0.04564347 0.68979388 0.03611482
-0.40189886 -0.39014983 0.00000240
-0.34291354 -0.02788172 0.14879273
-0.09125826 0.56721008 0.00000708
-0.01758214 0.18915024 0.00001055
-0.48659456 -0.37475353 0.02634975
-0.42112938 -0.63173676 0.00000137
-0.25831610 -0.09339270 0.00000348
-0.37979463 -0.76986623 0.00000070
-0.25563079 -0.02469831 0.00000378
-0.18471763 0.35403839 0.08104773
-0.19487503 -0.29345274 0.00000251
-0.29923216 -0.51993304 0.00000168
-0.43317387 -0.24579482 0.32288602
-0.15785538 0.62423605 -0.01244043
-0.07916204 0.17066948 0.00000974
-0.49778610 -0.40177599 0.13727088
-0.25788423 0.07537122 0.00000764
-0.25795004 0.17724191 0.02759855
-0.04792384 0.02854425 0.00001110
-0.01329779 0.41916063 0.00000918
-0.34433955 -0.03132586 0.19091263
-0.15512952 -0.50907671 0.00000151
-0.35925031 0.37992713 -0.02710380
-0.34434476 -0.03134046 0.25111994
-0.61789405 -0.09927221 -0.03590841
-0.43767837 -0.25666872 0.29546815
-0.24831602 0.20049959 0.05242287
-0.35159725 -0.58300954 0.00000148
-0.78192729 -0.10911964 -0.05931574
-0.25586230 -0.38159880 0.00000222
-0.00326771 -0.54762250 0.00000108
-0.51317495 -0.43892589 0.07725250
-0.11922586 0.62675923 -0.00694016
-0.54670244 -0.01497187 -0.03059998
-0.46185908 0.11034461 -0.02577827
-0.33338550 -0.35621059 0.00000244
-0.72579259 -0.13253807 -0.04968172
-0.49136445 0.29727647 -0.04142788
-0.11271269 0.40972888 0.00000774
-0.11562110 -0.56743127 0.00000119
-0.04567465 0.03395139 0.00001110
-0.43250826 -0.24418011 0.09023774
-0.36158559 -0.07296499 0.29861143
-0.46342418 -0.31881648 0.05717555
-0.00465445 -0.38676757 0.00000181
-0.25843638 0.17605932 0.27945453
-0.00433201 -0.00377764 0.00000346
-0.73412693 -0.15469781 -0.04955821
-0.63755202 -0.73919690 0.11634614
-0.27232328 0.14253651 0.18847384
-0.46501863 -0.32266459 0.02227502
-0.31863824 -0.10674131 0.00000351
-0.50067133 -0.40874422 0.21735689
-0.15276837 -0.47437024 0.00000166
-0.49713287 -0.40020353 0.29550552
-0.59697074 -0.64122736 0.17593931
-0.54987687 -0.52753198 0.07935277
-0.66217673 -0.79864466 0.07151773
-0.34628275 -0.03601962 0.26456332
-0.53289610 -0.48654148 0.24553578
-0.17748176 -0.44230244 0.00000183
-0.29436374 0.08932420 0.24878399
-0.25393283 0.18693221 0.26893878
-0.16382363 -0.79092801 0.00000029
-0.23976363 -0.34412438 0.00000236
-0.15824027 0.56935394 -0.00916986
-0.61031061 -0.67343193 0.11850687
-0.44566026 -0.57655472 0.00000165
-0.42401391 -0.22367691 0.20701380
-0.00292368 -0.71409041 0.00000038
-0.05262669 -0.14796063 0.00000293
-0.28609204 0.10929555 0.19652866
-0.17069933 0.38787809 0.18408935
-0.64908063 -0.00060591 -0.04645147
-0.14570013 -0.31008774 0.00000236
-0.08234332 -0.33782694 0.00000215
-0.33981791 -0.02041283 0.28561738
-0.62803727 -0.10810074 -0.03685763
-0.18612495 0.35064214 0.04178201
-0.39299095 -0.14878045 0.19135042
-0.59730142 -0.64202392 0.05578454
-0.50687003 -0.42370212 0.00672199
-0.37173781 -0.09746625 0.05023667
-0.02257113 -0.07911261 0.00000319
-0.33512583 -0.68512219 0.00000101
-0.54498363 0.01814059 -0.03235381
-0.33476585 -0.00821000 0.10216554
-0.27578464 0.47216845 -0.02048060
-0.46127078 -0.53754354 0.00000184
-0.40705216 -0.18273135 0.31506848
-0.52962273 0.03425667 -0.03108275
-0.17241231 -0.26107416 0.00000262
-0.25605229 0.18181968 0.14071693
-0.06427458 0.12089467 0.00001027
-0.37921104 -0.62460494 0.00000134
-0.44001704 -0.26231718 0.37446129
-0.50688696 -0.42374685 0.12382349
-0.60868824 -0.66951340 0.03649131
-0.02752474 0.03199196 0.00001138
-0.14247498 0.22660629 0.00000843
-0.18525688 -0.39878362 0.00000203
-0.13111545 -0.13483033 0.00000311
-0.35924971 -0.13577923 0.00000345
-0.31043833 -0.70176196 0.00000090
-0.22289921 -0.44260934 0.00000190
-0.27434134 -0.38070220 0.00000225
-0.15311480 -0.66711593 0.00000081
-0.16178499 -0.52536255 0.00000145
-0.66393787 -0.04596174 -0.04587759
-0.11911936 0.51240849 0.01448883
-0.23753870 0.22651522 0.14394324
-0.00174541 0.78172052 0.00000709
-0.45349091 -0.29483658 0.08883092
-0.33928373 -0.77589428 0.00000062
-0.39752331 -0.15972020 0.12145627
-0.28359979 0.11531409 0.14690474
-0.16990969 0.26577836 0.00000778
-0.08099339 0.60445094 0.06170526
-0.52140051 -0.45878693 0.16315135
-0.14814454 -0.44038570 0.00000180
-0.12770209 0.49168676 0.05235315
-0.31031379 0.05082131 0.13471332
-0.39183241 -0.76068884 0.00000076
-0.62635839 -0.76224345 0.00000111
-0.45132253 -0.28960708 0.25246891
-0.34148103 -0.02442281 0.13229270
-0.45305568 -0.29378870 0.17476317
-0.48361528 -0.64864421 0.00000139
-0.34412333 -0.03080627 0.26249093
-0.13339233 0.62765932 -0.00906791
-0.14380214 0.45281777 0.05563148
-0.21966112 0.26967424 0.18012811
-0.19603349 0.32672015 0.06320673
-0.43534997 -0.25104734 0.29203054
-0.49749175 -0.40106982 0.27014002
-0.39495873 -0.15353467 0.29781023
-0.11637079 -0.41947794 0.00000184
-0.30075619 0.07389756 0.06816185
-0.13111430 0.48344702 0.10919513
-0.19899660 0.31956157 0.21159858
-0.40664494 -0.70165920 0.00000104
-0.18080132 -0.46239144 0.00000175
-0.00822226 0.74290287 0.00000723
-0.35858372 -0.06571302 0.15355684
-0.28834426 0.05021996 0.00000734
-0.47120443 -0.33760402 0.18924814
-0.31054819 0.05024921 0.31994760
-0.09976843 -0.32662711 0.00000222
-0.00117899 -0.74476218 0.00000024
-0.52816540 0.18062365 -0.03974209
-0.51230770 -0.43683559 0.17738356
-0.37409335 -0.75840366 0.00000075
-0.28739399 0.10615070 0.24632847
-0.38842982 -0.13776921 0.19857308
-0.41870525 -0.21086724 0.40585032
-0.29469857 -0.65407258 0.00000108
-0.49689108 -0.45591274 0.00000226
-0.21723014 0.27554438 0.14197434
-0.16265023 0.22146645 0.00000816
-0.08160327 -0.40019089 0.00000187
-0.18516870 -0.60960758 0.00000111
-0.52031130 -0.45615554 0.10958284
-0.62526184 0.16146161 -0.05279007
-0.11639492 0.51898557 0.02334634
-0.24691477 -0.08570535 0.00000350
-0.31497505 0.03956672 0.17383057
-0.78438407 -0.38572896 -0.04290916
-0.27060059 0.14669663 0.15267435
-0.33890870 -0.48573965 0.00000189
-0.41052240 0.21880212 -0.02483998
-0.49130103 -0.38611698 0.05609662
-0.25857282 -0.16769083 0.00000316
-0.34173194 -0.02502870 0.13720310
-0.23297593 -0.19094266 0.00000302
-0.30112347 0.07301014 0.09031142
-0.76471061 -0.34909263 -0.04225096
-0.18180622 0.61403108 -0.01532692
-0.58146220 -0.60378474 0.05569049
-0.00679028 -0.71071625 0.00000035
-0.30675694 0.05940980 0.08999972
-0.08750651 0.47499260 0.00000771
-0.36990178 0.27699968 -0.02242324
-0.16406544 0.34302306 0.00000738
-0.60004544 -0.64864922 0.07248557
-0.30829653 0.05569035 0.16569914
-0.22951660 -0.51035994 0.00000161
-0.37880024 -0.16823561 0.00000334
-0.37099209 -0.55552250 0.00000163
-0.51171082 0.26838046 -0.04265377
-0.16184191 0.40926608 0.05301402
-0.24642365 0.20506790 0.06021662
-0.41965789 -0.21316703 0.40414917
-0.47546366 -0.34788308 0.08201320
-0.20229912 0.31159380 0.05736060
-0.37393802 -0.10278629 0.29726171
-0.34311160 -0.71077442 0.00000091
-0.23370637 -0.24225494 0.00000279
-0.03374776 -0.56477433 0.00000108
-0.30726191 0.04967516 0.00000705
-0.24017803 -0.10080351 0.00000342
-0.00322760 0.42781791 0.00000928
-0.40639216 -0.18112886 0.04481702
-0.23375241 -0.70682478 0.00000076
-0.55325824 0.21456160 -0.04547158
-0.37231761 -0.09886470 0.01063606
-0.02519733 -0.59166032 0.00000095
-0.54776108 -0.75266546 0.00000103
-0.09233189 0.45591676 0.00000776
-0.27049190 -0.75873554 0.00000059
-0.52369982 0.01847662 -0.02925940
-0.05944482 0.65647501 0.02292941
-0.39693743 0.38003817 -0.03262585
-0.17404279 -0.15615036 0.00000308
-0.62437886 -0.70739323 0.01763245
-0.40100741 -0.16813087 0.10152291
-0.38368779 -0.12631617 0.05573012
-0.62593251 -0.71114564 0.12416939
-0.52900237 0.14994606 -0.03800493
-0.23810801 0.01910070 0.00000829
-0.49275798 -0.38964182 0.29352731
-0.44143769 -0.26574057 0.17788962
-0.02321892 0.06853569 0.00001122
-0.41034931 -0.54813081 0.00000172
-0.50148755 -0.41071013 0.07852537
-0.68826562 0.01427333 -0.05308796
-0.04889077 0.72810948 -0.00279072
-0.07819015 -0.53892511 0.00000126
-0.61810172 -0.69223863 0.01100684
-0.74039644 -0.26477608 -0.04380363
-0.01318938 0.24052601 0.00001030
-0.50384498 -0.41640380 0.14876446
-0.08467127 0.59557164 0.06680506
-0.63345689 -0.11783927 -0.03706046
-0.42251879 -0.22007060 0.30420014
-0.17291987 0.23850065 0.00000790
-0.45779482 -0.78272992 0.00000077
-0.16996665 -0.29451218 0.00000247
-0.45986155 -0.31022486 0.35041502
-0.29698998 0.08298664 0.16814736
-0.46601391 -0.32507658 0.29480889
-0.07786599 -0.09820978 0.00000319
-0.02905987 0.48653868 0.00000852
-0.02876400 -0.37967858 0.00000188
-0.70662856 -0.19473851 -0.04310722
-0.13754275 -0.61093420 0.00000103
-0.02583583 -0.69448936 0.00000050
-0.55063099 0.10328106 -0.03834139
-0.07259276 0.62473387 0.00095975
-0.25798783 -0.19514354 0.00000304
-0.28914461 -0.19292900 0.00000309
-0.57404131 -0.75523132 0.00000106
-0.48001674 -0.75296581 0.00000093
-0.43161213 -0.24202400 0.30856171
-0.38820103 -0.31492364 0.00000271
-0.20042957 -0.15970469 0.00000310
-0.56471950 -0.56336266 0.00342955
-0.41946450 -0.21269044 0.11163716
-0.21640737 -0.05194607 0.00000360
-0.15326449 0.61171257 -0.01100942
-0.02651399 0.29682773 0.00000974
-0.62934655 -0.71938753 0.14162189
-0.20784411 0.09834608 0.00000825
-0.15911268 0.63671511 -0.01338090
-0.42041078 -0.21497886 0.22661398
-0.11378504 0.15962213 0.00000929
-0.07129738 -0.16939270 0.00000287
-0.19198503 0.02837229 0.00000893
-0.45859486 0.16030464 -0.02832909
-0.62540132 0.09483827 -0.04877185
-0.13067403 -0.21074066 0.00000278
-0.49502629 -0.39511788 0.28404692
-0.07927152 0.57238698 0.00000723
-0.79472983 -0.12689514 -0.06011173
-0.09386754 -0.56911391 0.00000115
-0.23413543 -0.68133783 0.00000087
-0.24779935 -0.51624823 0.00000162
-0.34080783 0.36117423 -0.02326806
-0.10978185 0.53494918 0.07412290
-0.00277343 -0.55479616 0.00000106
-0.49304500 0.16457741 -0.03362970
-0.35551283 0.35142738 -0.02482921
-0.36144808 -0.07263052 0.22507760
-0.58893973 -0.01063591 -0.03704370
-0.35730249 -0.06261656 0.05682293
-0.13325885 0.06270558 0.00000960
-0.49470967 -0.39435163 0.22017965
-0.57115817 -0.57891190 0.18602146
-0.33550340 -0.23961508 0.00000296
-0.05971103 0.05769741 0.00001074
-0.42746973 -0.60991138 0.00000148
-0.20247141 0.31117558 0.12491321
-0.01268976 -0.27150738 0.00000233
-0.19167753 0.33723757 0.02637365
-0.34035146 -0.49523777 0.00000185
-0.51133859 0.15376090 -0.03565118
-0.38478017 -0.16057840 0.00000338
-0.25782725 0.17753129 0.23722747
-0.02564539 0.66638529 0.00000745
-0.22885336 -0.34015143 0.00000236
-0.12162814 -0.15186524 0.00000302
-0.32473311 -0.79153341 0.00000053
-0.01978520 0.67724675 0.00000747
-0.25060627 0.19496751 0.13996722
-0.25228661 -0.54442364 0.00000150
-0.16336709 -0.52846515 0.00000143
-0.14953198 -0.09778175 0.00000330
-0.25288898 -0.75476950 0.00000058
-0.58962232 -0.79187322 0.00000093
-0.24636327 -0.44765359 0.00000191
-0.44842342 -0.28260183 0.06655458
-0.43747568 -0.25617668 0.21477950
-0.02821655 -0.52642983 0.00000124
-0.44885778 -0.32453769 0.00000276
-0.39594853 -0.74556488 0.00000084
-0.52483630 0.06597513 -0.03230503
-0.15241088 0.43203622 0.00406292
-0.32049593 0.02623364 0.30988520
-0.37931976 -0.11576897 0.00028839
-0.01226544 0.57326847 0.00000823
-0.79246885 -0.53880334 -0.03481394
-0.12873730 -0.71257120 0.00000058
-0.74773920 -0.24595971 -0.04601864
-0.33862373 -0.28692958 0.00000276
-0.18247645 0.61437851 -0.01544605
-0.29440901 -0.52182871 0.00000166
-0.66322362 -0.80117208 0.05119678
-0.27613130 -0.73554027 0.00000070
-0.24865560 0.54380864 -0.02085319
-0.55903220 0.18047261 -0.04425014
-0.43341264 0.30729815 -0.03355438
-0.43001857 -0.23816654 0.00287648
-0.29151931 0.09618966 0.29701567
-0.09795162 -0.02530605 0.00000354
-0.63946414 -0.74381298 0.05943323
-0.55369109 -0.77893066 0.00000093
-0.26311541 0.48235816 -0.01924421
-0.30801994 0.02651446 0.00000719
-0.30491638 -0.46970409 0.00000191
-0.09344477 0.44373730 0.00000782
-0.26832131 0.45823124 -0.01854352
-0.12549967 0.35384849 0.00000789
-0.05183792 -0.16871735 0.00000284
-0.32712719 0.01022343 0.33794138
-0.44809237 -0.28180781 0.22158802
-0.18317571 0.21910957 0.00000787
-0.44289809 -0.26927239 0.36138812
-0.21226433 0.28753436 0.09725788
-0.54530126 0.21608302 -0.04439934
-0.15569793 -0.56700593 0.00000125
-0.67139500 0.11239549 -0.05656709
-0.50559074 -0.77627689 0.00000087
-0.26450649 0.16141136 0.08424752
-0.47039017 -0.59108907 0.00000162
-0.40471441 -0.17707843 0.04471090
-0.59521246 0.18029045 -0.04953388
-0.52477998 0.26454997 -0.04433421
-0.22479336 -0.24425589 0.00000277
-0.40855244 -0.18634973 0.20828047
-0.54351640 -0.51217979 0.17578138
-0.72607177 -0.28304908 -0.04059984
-0.45127791 0.21857730 -0.03079071
-0.29986864 0.07603384 0.26185161
-0.48419148 -0.54431415 0.00000185
-0.02504417 -0.45944774 0.00000153
-0.09221406 -0.46315476 0.00000161
-0.20671219 0.30093628 0.16013147
-0.20148134 -0.06102369 0.00000354
-0.16131248 -0.15731937 0.00000306
-0.29127106 -0.49041256 0.00000179
-0.22072329 -0.70431525 0.00000075
-0.60392463 -0.65801513 0.20093860
-0.16114339 -0.70881826 0.00000064
-0.51784039 -0.45019171 0.15123498
-0.26034045 -0.77438593 0.00000050
-0.25492987 0.18452494 0.27455381
-0.44262877 -0.54782796 0.00000177
-0.20399854 -0.01828100 0.00000373
-0.44298658 -0.74987197 0.00000089
-0.32451096 0.01654201 0.26493576
-0.09858004 0.24279772 0.00000900
-0.30790362 0.05664192 0.07682221
-0.74527669 -0.20167273 -0.04834260
-0.64645392 -0.76068741 0.09268872
-0.14539354 -0.54582220 0.00000133
-0.26834938 0.43265232 -0.01699706
-0.00970439 -0.55149007 0.00000110
-0.56554824 0.17694949 -0.04499016
-0.31273857 -0.49435043 0.00000181
-0.63962787 0.10432902 -0.05142915
-0.59009737 -0.62463397 0.13251877
-0.06813938 0.63548446 0.02432471
-0.50441927 -0.41779009 0.14682508
-0.44525751 -0.66501468 0.00000126
-0.13756594 -0.39301413 0.00000199
-0.10896023 -0.67863959 0.00000070
-0.19851328 0.32073092 0.13733283
-0.40151331 -0.16935118 0.07113119
-0.41316667 -0.19749413 0.34750158
-0.07647261 -0.00814703 0.00000358
-0.35457435 0.30699179 -0.02199824
-0.35387567 -0.05434595 0.12784204
-0.52344966 -0.73329538 0.00000108
-0.20418747 0.24558765 0.00000738
-0.33192694 -0.20643182 0.00000310
-0.04155887 -0.51000446 0.00000133
-0.32734168 -0.22950256 0.00000299
-0.02132828 -0.10603373 0.00000307
-0.02279809 0.26021066 0.00001003
-0.29624006 0.08479939 0.09902643
-0.04998719 0.39708090 0.00000876
-0.37263584 -0.09963830 0.16952206
-0.39330187 0.22674187 -0.02280115
-0.47130048 -0.33783063 0.03259524
-0.39312729 -0.14911379 0.31448600
-0.13498747 -0.58610272 0.00000114
-0.01283128 -0.02084622 0.00000343
-0.52244443 -0.55828995 0.00000185
-0.24539328 -0.33040622 0.00000242
-0.53905773 -0.55533165 0.00000188
-0.30549276 -0.25618255 0.00000284
-0.37298468 0.28085095 -0.02310786
-0.60023153 -0.64909947 0.11302557
-0.24270085 -0.00549671 0.00000384
-0.17212158 0.62209338 -0.01439836
-0.17144920 -0.49070588 0.00000161
-0.32193905 0.02275080 0.27479094
-0.48896614 -0.40934336 0.00000245
-0.47393814 -0.55909252 0.00000177
-0.01510360 0.62823707 0.00000785
-0.48531261 -0.37166592 0.24232309
-0.03936027 -0.75515181 0.00000026
-0.31251094 -0.37999842 0.00000231
-0.02030977 -0.04032793 0.00000335
-0.14300926 0.05675399 0.00000949
-0.64468247 -0.75641084 0.15402503
-0.39292827 -0.14862709 0.13014890
-0.03187699 0.71546900 0.00000705
-0.09887223 -0.44951761 0.00000168
-0.09812739 -0.68127644 0.00000067
-0.08002808 0.60678071 0.08362078
-0.16333029 0.40567133 0.09774372
-0.31383243 -0.75142503 0.00000069
-0.31588829 -0.34708321 0.00000246
-0.17621188 0.15940404 0.00000834
-0.52939588 -0.47809136 0.23279154
-0.76225674 -0.08935548 -0.05763517
-0.03492332 0.32119796 0.00000947
-0.03660565 0.59738231 0.00000771
-0.44768730 -0.28083438 0.37171605
-0.32951492 0.36961603 -0.02212713
-0.41717738 -0.20717014 0.14876755
-0.04516360 0.40894499 0.00000876
-0.46249318 -0.72600073 0.00000102
-0.52060115 -0.57416838 0.00000177
-0.22552960 0.25551090 0.04859856
-0.51413316 0.27068287 -0.04314784
-0.51660019 -0.63670141 0.00000149
-0.56789124 -0.57102507 0.23755214
-0.43223262 -0.24351437 0.08190771
-0.52481049 -0.46701556 0.04901592
-0.21341959 0.28474158 0.20864603
-0.05306166 0.63254720 0.00000725
-0.39074263 0.37869105 -0.03163761
-0.23155063 0.24097098 0.16462585
-0.42643222 0.16956875 -0.02418383
-0.17490184 0.32355666 0.00000734
-0.32638687 -0.51416326 0.00000174
-0.47610319 -0.71664047 0.00000108
-0.28757259 0.10572412 0.10920616
-0.62345624 -0.70516747 0.13758501
-0.07788703 -0.38012281 0.00000195
-0.08097262 -0.59885770 0.00000100
-0.15469663 0.33665693 0.00000756
-0.00486075 -0.19713578 0.00000261
-0.22965069 -0.66881138 0.00000092
-0.45933694 -0.30895001 0.08763382
-0.24994220 -0.32034355 0.00000248
-0.19532667 -0.27436402 0.00000259
-0.45825541 -0.30634737 0.36880884
-0.00709733 -0.26837647 0.00000228
-0.18601666 -0.75126594 0.00000049
-0.30600286 -0.01018232 0.00000392
-0.14068507 0.46034196 0.08748082
-0.01817393 0.47687495 0.00000875
-0.09195071 0.47517100 0.00000764
-0.08209621 0.20739824 0.00000947
-0.23823135 -0.19834846 0.00000299
-0.24803706 0.20117329 0.04666220
-0.43051374 -0.23936372 0.05428810
-0.14515419 0.44955519 0.00886019
-0.23931681 0.22222289 0.13209105
-0.66344899 -0.03715004 -0.04634014
-0.28558955 0.11051252 0.08206283
-0.41153538 -0.19355118 0.21006574
-0.61992097 0.11893878 -0.04943078
-0.58409506 -0.61014360 0.16064689
-0.03183091 -0.71004564 0.00000044
-0.14128131 0.45890042 0.14900894
-0.49956286 -0.40606424 0.10097233
-0.48551646 -0.57706642 0.00000171
-0.37873781 -0.11437753 0.40344509
-0.22316012 -0.74097860 0.00000059
-0.35304898 -0.29686069 0.00000273
-0.70354426 -0.25005779 -0.03930287
-0.13332249 -0.03999480 0.00000353
-0.05719077 -0.46269900 0.00000156
-0.21123460 -0.72474980 0.00000065
-0.19288412 -0.45089677 0.00000182
-0.58269626 -0.60676658 0.14315438
-0.44444883 -0.27301428 0.30274522
-0.11879641 -0.55194062 0.00000126
-0.03810215 0.20257269 0.00001016
-0.22996888 0.24136449 0.00000702
-0.45390666 -0.29584447 0.21401441
-0.49367696 -0.39186043 0.29977247
-0.00350574 0.74126017 0.00000731
-0.45104021 -0.72008359 0.00000103
-0.04117983 0.36604148 0.00000909
-0.56577361 -0.56591052 0.09352111
-0.66892695 0.09599066 -0.05521146
-0.10453689 -0.42866540 0.00000178
-0.39524138 -0.15421435 0.21644960
-0.02044199 0.38190028 0.00000930
-0.78217071 -0.36928537 -0.04358197
-0.14541411 0.05349236 0.00000947
-0.55931944 0.19208500 -0.04499610
-0.08824765 -0.18561865 0.00000282
-0.23379701 -0.73495471 0.00000064
-0.57365805 0.07687137 -0.04011036
-0.48463744 -0.37003264 0.14463046
-0.59728491 0.10184956 -0.04508218
-0.01095515 -0.34839949 0.00000199
-0.30875030 -0.05921131 0.00000371
-0.51171243 -0.43539280 0.01219174
-0.21494143 -0.10031846 0.00000339
-0.09161853 0.57880145 0.00835328
-0.11243611 0.35149887 0.00000811
-0.45727631 -0.79191631 0.00000073
-0.39511371 -0.15390728 0.25084847
-0.65364909 -0.77805769 0.15292767
-0.01272592 -0.79476458 0.00000004
-0.20515937 -0.44279233 0.00000187
-0.29589242 -0.26811427 0.00000277
-0.14363110 -0.67540354 0.00000076
-0.18004663 -0.47091725 0.00000171
-0.34385538 -0.03015367 0.09288153
-0.16666429 0.32811770 0.00000743
-0.47818220 -0.35445264 0.27265668
-0.27886611 -0.61182153 0.00000124
-0.76742369 -0.01706252 -0.06277309
-0.11027169 0.50533158 0.00000718
-0.63500392 0.09555111 -0.05022035
-0.46913019 -0.33260080 0.34827125
-0.66114277 -0.15826344 -0.03866176
-0.39991239 0.23977263 -0.02455847
-0.79374045 -0.23589881 -0.05335993
-0.36313763 -0.07670917 0.21561313
-0.08430542 -0.62447715 0.00000090
-0.17771605 0.37094247 0.05747143
-0.56040275 -0.55294675 0.22530992
-0.63713473 -0.04123427 -0.04224182
-0.28481796 -0.17665154 0.00000316
-0.17254704 0.38341907 0.13069417
-0.43137181 -0.24144354 0.30064479
-0.22705950 0.25181404 0.14822669
-0.53787827 -0.72824687 0.00000113
-0.23091771 -0.29761985 0.00000255
-0.61498392 -0.68471164 0.01030982
-0.21775730 0.07589862 0.00000824
-0.39635834 -0.15691087 0.21539104
-0.63027209 0.00475344 -0.04402382
-0.15313932 0.58818519 -0.00956490
-0.02398235 -0.15476850 0.00000286
-0.05144633 0.49073744 0.00000816
-0.43686095 -0.52881169 0.00000185
-0.63239443 -0.72674561 0.13930745
-0.12018137 0.50984383 0.03653849
-0.15650368 0.42215165 0.11340416
-0.12172773 0.00578886 0.00001013
-0.41240582 0.30089679 -0.03009210
-0.07505754 0.08659226 0.00001033
-0.19075121 -0.12037074 0.00000326
-0.26537600 0.15930699 0.23800580
-0.14496809 0.07766015 0.00000933
-0.35104594 -0.04751331 0.09639954
-0.57403100 -0.58584738 0.14815220
-0.63386202 -0.73028719 0.00876621
-0.45015115 -0.47802490 0.00000209
-0.45546862 -0.62160772 0.00000147
-0.42629203 -0.22917421 0.13192897
-0.70789832 0.05784002 -0.05860207
-0.55495113 -0.53978288 0.09720539
-0.51466888 -0.44253379 0.11605282
-0.22768599 -0.62197763 0.00000112
-0.66803145 -0.81277895 0.10841660
-0.32923153 0.00514913 0.15889083
-0.21188346 0.11676800 0.00000807
-0.07617902 0.08459755 0.00001032
-0.01981184 0.38090485 0.00000932
-0.49847278 -0.59400386 0.00000165
-0.16843840 -0.23222518 0.00000274
-0.50633574 -0.42242065 0.26417527
-0.51152062 -0.43492949 0.00173680
-0.66651648 -0.80912149 0.11202158
-0.29631871 -0.52907491 0.00000163
-0.31082973 0.04957567 0.13618053
-0.18879263 -0.50335658 0.00000158
-0.23234522 -0.45269966 0.00000187
-0.56540120 -0.78081495 0.00000094
-0.24200962 -0.71326506 0.00000074
-0.38682267 0.24055380 -0.02269021
-0.26817071 -0.44872850 0.00000194
-0.59387064 -0.72150022 0.00000124
-0.37908432 -0.11521116 0.31691730
-0.30384415 0.06643838 0.19437984
-0.46950120 -0.33349153 0.17214411
-0.52572984 -0.46924064 0.21488591
-0.08686789 0.59026825 0.07587854
-0.39418331 0.38106638 -0.03228513
-0.42654267 -0.22978146 0.19581079
-0.07087865 0.03545126 0.00001071
-0.14150493 -0.02434122 0.00000361
-0.15364905 0.61763924 -0.01142496
-0.04067323 -0.63647306 0.00000078
-0.43424278 -0.71754652 0.00000102
-0.39626119 -0.15668301 0.41455930
-0.43054435 0.31357881 -0.03351535
-0.18336399 0.25122738 0.00000766
-0.36938632 -0.62332374 0.00000133
-0.20418461 0.30703828 0.16358054
-0.50314254 -0.41471016 0.21384791
-0.25577265 -0.65844434 0.00000101
-0.43950784 -0.26108536 0.29346305
-0.42487797 -0.22575943 0.10393398
-0.51163620 0.20714439 -0.03893078
-0.17775401 -0.38869697 0.00000207
-0.30736423 0.05794265 0.12023015
-0.15694577 0.42108449 0.10985417
-0.14262050 -0.08255495 0.00000335
-0.37041381 -0.51301676 0.00000181
-0.17383893 0.61493844 -0.01421593
-0.33906844 -0.01860194 0.24039149
-0.11061457 -0.34637848 0.00000215
-0.53816122 -0.49924791 0.07782705
-0.77700531 -0.09986486 -0.05915645
-0.45599088 -0.30086923 0.00708958
-0.37697294 -0.63873816 0.00000127
-0.60923141 -0.67082655 0.15756266
-0.68385881 -0.19338959 -0.03985692
-0.67154318 -0.18208760 -0.03873970
-0.58131373 0.10328018 -0.04283159
-0.11083916 -0.48859829 0.00000153
-0.05848227 0.61313641 0.00000729
-0.00647149 -0.05512398 0.00000327
-0.04470234 -0.50283766 0.00000137
-0.36155421 -0.07288208 0.08546562
-0.67825681 -0.00039304 -0.05073416
-0.36055270 -0.07046766 0.18786427
-0.51549411 -0.44452977 0.22609648
-0.50919694 0.22191764 -0.03946935
-0.06092296 -0.03613048 0.00000343
-0.08508866 -0.52223551 0.00000134
-0.05972727 0.30798039 0.00000917
-0.22835445 0.24868965 0.09133191
-0.16716021 0.58893538 -0.01166226
-0.21342929 0.19881171 0.00000754
-0.48549283 -0.56494671 0.00000176
-0.34778082 -0.06834280 0.00000373
-0.19615047 0.57365412 -0.01497850
-0.27645901 0.13255139 0.20611547
-0.19710913 -0.26811963 0.00000262
-0.39203638 -0.14647023 0.02051405
-0.51271027 -0.43780789 0.19275036
-0.21776967 0.27424327 0.09948015
-0.19373827 0.33226061 0.08412463
-0.72183627 -0.23912765 -0.04264217
-0.13109905 0.43414560 0.00000731
-0.42473316 -0.22541369 0.21879283
-0.19121587 0.33835182 0.03473990
-0.41687277 -0.70324838 0.00000105
-0.41797549 -0.20910098 0.27042449
-0.60798872 0.12738740 -0.04819670
-0.27513310 0.13575526 0.12254223
-0.57596529 -0.59051317 0.02917495
-0.42797264 -0.32595438 0.00000272
-0.48483011 -0.54471678 0.00000185
-0.00507345 0.28495121 0.00001014
-0.21500930 -0.36177912 0.00000224
-0.32401258 0.01775067 0.10094518
-0.11047928 -0.19160637 0.00000283
-0.40000534 0.30330300 -0.02842322
-0.64536810 -0.75806582 0.02344854
-0.43771681 -0.25675738 0.17205319
-0.23926912 -0.31389847 0.00000249
-0.10125679 -0.58525378 0.00000109
-0.03168550 -0.61799556 0.00000084
-0.24148840 0.21697874 0.17665753
-0.63269413 -0.72746915 0.07626714
-0.61685878 -0.05644716 -0.03835261
-0.43282527 -0.24494831 0.17556581
-0.51635736 -0.44661304 0.20041846
-0.39180526 -0.67390811 0.00000114
-0.22761370 0.25047383 0.21497479
-0.69090551 0.00655544 -0.05300645
-0.55838948 -0.54808646 0.26142165
-0.10501600 0.05033050 0.00001010
-0.07772928 0.46939677 0.00000789
-0.10585079 -0.44708142 0.00000170
-0.25052103 0.19517449 0.10393011
-0.16245429 0.13683738 0.00000869
-0.00715248 0.02628019 0.00001173
-0.42840537 -0.23427793 0.18043204
-0.33860838 -0.01748725 0.12037775
-0.00182346 0.51750857 0.00000874
-0.06045026 -0.43430445 0.00000169
-0.25509652 -0.37965748 0.00000222
-0.22558454 -0.54008949 0.00000148
-0.22945186 -0.18653890 0.00000303
-0.00718090 -0.11304122 0.00000296
-0.29366845 0.09101063 0.01423266
-0.41228461 -0.19536312 0.30336389
-0.38816038 -0.59267008 0.00000149
-0.33133370 -0.79658204 0.00000051
-0.45819563 -0.30619648 0.14182702
-0.24546158 0.20739032 0.06673611
-0.44659784 -0.27819481 0.07617910
-0.42070031 -0.37738356 0.00000248
-0.38335815 -0.12552519 0.19942331
-0.29820210 0.35617039 -0.01672960
-0.60758942 -0.66686147 0.06174830
-0.04176470 0.75554109 -0.00341073
-0.05190875 -0.41694006 0.00000175
-0.03463105 0.62407929 0.00000758
-0.19664964 0.32522890 0.17419918
-0.09655918 0.07489300 0.00001007
-0.60642982 -0.79656523 0.00000093
-0.07959049 0.49003533 0.00000774
-0.43987310 -0.29999566 0.00000285
-0.07636809 0.59590346 0.00000712
-0.08754305 -0.33225203 0.00000218
-0.56142145 -0.55540198 0.04778435
-0.53351432 -0.48802856 0.05422739
-0.46074107 -0.76254439 0.00000086
-0.16557311 0.40025893 0.03086197
-0.05262985 0.36004159 0.00000896
-0.29424971 -0.16811748 0.00000321
-0.11082529 0.15506801 0.00000936
-0.17666706 -0.63312215 0.00000100
-0.11586274 -0.31838673 0.00000228
-0.53398627 -0.48917088 0.14222470
-0.56805748 -0.57142311 0.05849136
-0.34812316 0.41453969 -0.02757358
-0.27644157 -0.12867872 0.00000335
-0.70437783 -0.18672571 -0.04326353
-0.30808204 -0.20885555 0.00000305
-0.48490280 -0.37067181 0.10141560
-0.38123751 -0.43932167 0.00000215
-0.24669269 0.20441543 0.14945090
-0.53138542 0.03497394 -0.03138420
-0.53298426 0.17467685 -0.04008682
-0.42155746 -0.21774606 0.19348001
-0.17015733 0.38919213 0.01764196
-0.27275237 -0.54005408 0.00000155
-0.78139335 -0.23976137 -0.05131904
-0.31091443 -0.67177653 0.00000103
-0.11318934 -0.50672078 0.00000145
-0.49218717 0.30012310 -0.04172082
-0.07859821 -0.14281288 0.00000299
-0.04898842 -0.57759398 0.00000105
-0.22959062 -0.63127488 0.00000108
-0.47626841 -0.34982949 0.18745054
-0.07174294 -0.22354452 0.00000263
-0.23204304 0.23978022 0.22281055
-0.17061152 -0.20572136 0.00000286
-0.25214165 0.49929225 -0.01866479
-0.07708817 -0.05330995 0.00000338
-0.37135440 -0.09654915 0.30553260
-0.54370230 -0.51262927 0.25662678
-0.16153485 0.41000727 0.05631666
-0.74557966 -0.21686538 -0.04746608
-0.31116676 -0.29272264 0.00000269
-0.12128884 0.17398721 0.00000908
-0.00939053 0.29412085 0.00001002
-0.09834622 -0.55007404 0.00000124
-0.39869314 0.36918730 -0.03222502
-0.21644402 0.54354209 -0.01612300
-0.23532477 -0.24288493 0.00000279
-0.10311506 0.55104357 0.09340402
-0.25081131 -0.48768023 0.00000174
-0.60699338 -0.66542363 0.11258223
-0.09589730 0.56847185 0.00080111
-0.21871153 0.27196741 0.15931877
-0.13740706 0.46825522 0.10271623
-0.34797576 -0.04010283 0.14311381
-0.34780332 -0.55219936 0.00000161
-0.56496578 -0.56395954 0.07390718
-0.55147541 -0.76096064 0.00000100
-0.40735421 -0.65280706 0.00000126
-0.52742445 -0.47523776 0.00000222
-0.51036656 -0.43215168 0.31163603
-0.19026718 0.27006000 0.00000744
-0.41461095 0.30578369 -0.03071105
-0.09647421 0.04790329 0.00001024
-0.45537305 -0.75522858 0.00000088
-0.12532353 0.63874424 -0.00855903
-0.74278295 -0.29924235 -0.04206381
-0.03064536 0.70876747 0.00000711
-0.30390877 -0.39894411 0.00000221
-0.20404311 0.30738053 0.14483884
-0.03187523 -0.19748145 0.00000268
-0.20280851 0.14405800 0.00000804
-0.60480219 -0.66013372 0.09571850
-0.39156550 -0.14533430 0.04752717
-0.13728599 -0.12857448 0.00000314
-0.12132436 0.16523524 0.00000914
-0.56533474 -0.64532083 0.00000153
-0.14511341 0.44964892 0.15036295
-0.19186659 0.04045568 0.00000885
-0.11658012 0.15301433 0.00000928
-0.34196940 -0.56815726 0.00000153
-0.32743961 0.00947300 0.22458400
-0.46798664 -0.41982156 0.00000237
-0.50732350 -0.42479700 0.01039291
-0.07944505 -0.16741908 0.00000289
-0.44922408 -0.28454095 0.25062427
-0.27552378 0.13480654 0.28709084
-0.17592816 -0.29131642 0.00000249
-0.08658369 -0.43930399 0.00000171
-0.46732718 -0.32824802 0.34589958
-0.50433701 -0.53641629 0.00000191
-0.18494299 -0.47167596 0.00000172
-0.46575394 -0.32444423 0.15479797
-0.51337999 -0.68918353 0.00000126
-0.79401249 -0.23335654 -0.05355383
-0.07594967 0.61662841 0.03559486
-0.33818898 -0.73871988 0.00000078
-0.26120770 0.16937502 0.09361241
-0.38013282 -0.70137525 0.00000101
-0.12442014 -0.17378615 0.00000293
-0.50535947 -0.42042896 0.00000242
-0.02824023 0.55459243 0.00000811
-0.17882411 0.36826301 0.18715239
-0.12042307 0.50925845 0.09312267
-0.38083068 -0.11942900 0.36854535
-0.60122800 -0.65150321 0.04810411
-0.48051295 0.28966337 -0.03937827
-0.20347726 0.24918619 0.00000737
-0.43532410 -0.36339831 0.00000257
-0.26168889 0.16821012 0.18882005
-0.15894660 -0.11979062 0.00000322
-0.23469162 -0.55370581 0.00000143
-0.13687801 0.10227553 0.00000930
-0.75190067 -0.16758478 -0.05137807
-0.08973198 -0.08341991 0.00000327
-0.25587860 -0.64390951 0.00000107
-0.51220989 0.12782668 -0.03420659
-0.38561076 -0.13096599 0.27570361
-0.23744477 -0.26285008 0.00000271
-0.30957919 -0.49341947 0.00000181
-0.01988893 -0.32237527 0.00000212
-0.10972284 -0.24479063 0.00000259
-0.15925953 -0.75436974 0.00000044
-0.61399865 -0.76873040 0.00000106
-0.18922572 0.34315652 0.03361011
-0.12352955 0.38033268 0.00000776
-0.77109390 -0.17694232 -0.05361956
-0.36887169 -0.09055490 0.29124123
-0.05408126 0.66942334 0.03459811
-0.00715334 0.35731167 0.00000966
-0.74260336 -0.19209526 -0.04853190
-0.16851094 -0.63386405 0.00000098
-0.11070955 -0.30542585 0.00000233
-0.71490103 -0.01477652 -0.05522561
-0.18840563 0.34513211 0.16067764
-0.36340153 -0.68580478 0.00000105
-0.10514314 0.54614776 0.08120135
-0.26707840 0.00026492 0.00000797
-0.72703755 -0.21044990 -0.04514153
-0.24476212 0.20907687 0.12940484
-0.05722322 -0.43105590 0.00000170
-0.36040992 -0.07012507 0.25049922
-0.59652978 -0.77236563 0.00000102
-0.52894562 0.10738109 -0.03541639
-0.13383956 0.03996736 0.00000973
-0.55088747 -0.52997541 0.24509011
-0.39668185 -0.15768752 0.08483639
-0.55684686 -0.54435861 0.06881765
-0.34572223 -0.03466296 0.16263352
-0.00549300 0.01763606 0.00001181
-0.28449845 0.11314413 0.15799867
-0.13932900 -0.52050734 0.00000143
-0.47302845 -0.56951523 0.00000172
-0.54686260 -0.52025765 0.15867110
-0.79104000 -0.46064448 -0.03934229
-0.28579599 -0.17245221 0.00000318
-0.79192334 -0.77711183 -0.02028956
-0.46605182 -0.78716457 0.00000076
-0.34584227 0.39090788 -0.02580724
-0.05949853 -0.16704586 0.00000286
-0.38384950 0.38715059 -0.03114164
-0.74342322 0.01930890 -0.06146524
-0.16605654 -0.11276804 0.00000326
-0.19730137 0.16956739 0.00000796
-0.09124477 0.17990719 0.00000950
-0.21570188 -0.40663934 0.00000205
-0.24586311 0.44887719 -0.01468985
-0.38177392 0.34258828 -0.02813657
-0.44572520 -0.28450114 0.00000293
-0.55169982 -0.58123231 0.00000179
-0.20309140 -0.17429800 0.00000304
-0.63067347 0.15909117 -0.05343834
-0.07933526 0.45349267 0.00000797
-0.55303890 -0.53516924 0.25716153
-0.39488390 -0.28073704 0.00000287
-0.25033993 0.19561391 0.03916055
-0.12827379 0.49030679 0.04603332
-0.11694654 -0.08890879 0.00000329
-0.41342515 -0.19811931 0.38175961
-0.34296811 0.44165072 -0.02846260
-0.44291481 -0.26930696 0.18792570
-0.41064227 -0.19140083 0.38159624
-0.29508460 0.08759193 0.00999590
-0.05165245 0.66518742 0.00000706
-0.21747643 0.27494934 0.15552990
-0.29138103 -0.75557089 0.00000063
-0.16776621 0.38118944 0.00000709
-0.35517275 -0.75267100 0.00000074
-0.30586913 0.06154525 0.32511330
-0.53004289 -0.47965166 0.16855723
-0.10116566 0.36798480 0.00000817
-0.34901834 -0.62101513 0.00000131
-0.39661318 -0.15752965 0.32100418
-0.29631010 0.39838034 -0.01901144
-0.58429790 0.20060140 -0.04916783
-0.09880381 0.51754385 0.00000727
-0.53883469 0.17585240 -0.04101426
-0.33449179 -0.00755230 0.22028732
-0.59139323 -0.62776244 0.18748803
-0.62574774 -0.71069944 0.07038776
-0.12923425 -0.69582367 0.00000065
-0.78523296 0.00691989 -0.06683288
-0.26826116 -0.76031774 0.00000058
-0.10300433 -0.02349242 0.00000355
-0.47249955 -0.34073290 0.25340486
-0.64906359 -0.76698714 0.01272398
-0.74419433 -0.22655776 -0.04667589
-0.23814294 0.22505897 0.06926321
-0.48113617 -0.60372400 0.00000158
-0.09719595 0.16013162 0.00000953
-0.16619232 0.39876476 0.00954408
-0.24691357 0.20388512 0.06130858
-0.13741514 -0.56714445 0.00000123
-0.53575468 -0.66531098 0.00000140
-0.19179116 -0.62498343 0.00000106
-0.40568540 -0.17942856 0.22297433
-0.24497411 -0.15549363 0.00000319
-0.45932153 -0.30891132 0.04320697
-0.38696542 -0.13424015 0.38626277
-0.33608019 -0.01138195 0.06814817
-0.55894965 -0.69199914 0.00000132
-0.49023312 0.25488493 -0.03869253
-0.08506260 0.59462708 0.05964693
-0.21420816 0.28284058 0.12801073
-0.12939216 -0.19261704 0.00000285
-0.49110672 -0.38564932 0.10025967
-0.15018572 -0.21637566 0.00000278
-0.03766005 0.21622121 0.00001008
-0.53761911 -0.49793786 0.03729807
-0.17611994 -0.03808056 0.00000360
-0.20325491 -0.60751480 0.00000115
-0.57565141 -0.73568940 0.00000115
-0.39398625 -0.15118328 0.18858397
-0.27326450 0.14026974 0.02260474
-0.19316506 0.56968498 -0.01430100
-0.74127936 -0.15355290 -0.05067427
-0.78590220 -0.42644969 -0.04066312
-0.43129477 -0.72944742 0.00000096
-0.51679665 -0.44767153 0.14087944
-0.60617012 -0.66343617 0.14789134
-0.00361908 -0.71444619 0.00000035
-0.11244615 -0.31904873 0.00000227
-0.76758760 -0.26094988 -0.04801453
-0.40250862 -0.49669224 0.00000193
-0.73652190 -0.18907352 -0.04782511
-0.60099435 -0.75748211 0.00000109
-0.53275818 -0.48620847 0.23751700
-0.20742051 -0.76406050 0.00000047
-0.39520219 -0.15411440 0.05682993
-0.64147526 -0.74866813 0.16692451
-0.39051458 -0.52703840 0.00000178
-0.41073591 -0.58523136 0.00000156
-0.09734731 0.12960953 0.00000972
-0.30265969 0.06929397 0.31196001
-0.49104419 -0.38550043 0.16265813
-0.00800721 0.75565267 0.00000716
-0.66071522 -0.79511631 0.09340708
-0.39400211 -0.15122280 0.22581135
-0.55570066 0.23530059 -0.04708619
-0.38674971 -0.13370726 0.02531496
-0.72623712 -0.19835912 -0.04575724
-0.52445126 0.03913990 -0.03062195
-0.17754465 0.37135717 0.02939091
-0.32310247 0.01959787 0.00000700
-0.35048330 -0.34043849 0.00000254
-0.36356255 0.25550675 -0.02019264
-0.48726770 -0.37638709 0.27839988
-0.02892883 0.68596631 0.00000728
-0.30127522 -0.24790318 0.00000287
-0.09189277 0.46272501 0.00000772
-0.26421878 0.15002950 0.00000708
-0.03585109 -0.67779565 0.00000059
-0.08099285 0.20200349 0.00000952
-0.19328035 -0.47422585 0.00000172
-0.16893320 -0.52080506 0.00000148
-0.48019087 -0.76329404 0.00000089
-0.57434070 -0.58659458 0.13476202
-0.19442815 0.33059445 0.10368217
-0.01670238 -0.03469858 0.00000337
-0.37809366 -0.11280906 0.00552516
-0.43697929 -0.25498116 0.30131122
-0.00969411 -0.23764679 0.00000247
-0.19048743 -0.45252186 0.00000181
-0.21568552 -0.10257386 0.00000338
-0.46976790 -0.33413020 0.01714884
-0.36024252 -0.43701053 0.00000213
-0.49147725 -0.77003360 0.00000087
-0.30177897 -0.46673670 0.00000191
-0.33018705 0.00284225 0.15967517
-0.13579212 -0.43544945 0.00000180
-0.20507298 0.11352475 0.00000820
-0.49988759 0.21290971 -0.03756093
-0.24460346 0.20945834 0.17595498
-0.54209715 -0.68013734 0.00000134
-0.20062257 0.31563756 0.17039724
-0.35948211 -0.28091648 0.00000281
-0.39975670 0.32741976 -0.02984876
-0.32291275 -0.15878487 0.00000329
-0.40863612 -0.50474322 0.00000191
-0.32987601 -0.56225187 0.00000154
-0.18483807 0.35374489 0.16215755
-0.00413449 -0.30625719 0.00000217
-0.57273024 -0.58270723 0.19796310
-0.34168521 -0.02492127 0.29758015
-0.24736121 -0.04604913 0.00000367
-0.10678417 -0.05239963 0.00000343
-0.12863818 0.37939849 0.00000769
-0.27207291 -0.12802446 0.00000335
-0.48768049 -0.63463467 0.00000146
-0.38075888 -0.11925538 0.36079699
-0.17970094 -0.02188845 0.00000368
-0.14209358 -0.78201085 0.00000029
-0.60756409 0.14257920 -0.04905546
-0.65848935 0.13532141 -0.05606816
-0.13564432 -0.78587252 0.00000027
-0.33208302 -0.72648650 0.00000082
-0.51589119 -0.44548714 0.18904655
-0.27592725 0.10698857 0.00000717
-0.19156946 -0.73150611 0.00000059
-0.46777380 -0.32932055 0.15221518
-0.68157107 -0.84546560 0.12561706
-0.45617625 -0.30132708 0.31387910
-0.38082454 -0.11940790 0.18085162
-0.12215597 0.16756053 0.00000911
-0.56345212 -0.67053944 0.00000142
-0.31221589 -0.05227190 0.00000374
-0.63687724 -0.73756784 0.04863554
-0.05533505 -0.76302797 0.00000025
-0.62280053 -0.70358443 0.18096220
-0.00702481 0.43032414 0.00000920
-0.49904650 -0.40482333 0.32521704
-0.38896093 -0.38618428 0.00000240
-0.53991437 -0.55024135 0.00000191
-0.26654884 0.15647584 0.22924502
-0.53395277 -0.71845138 0.00000116
-0.23923464 0.22242337 0.06902403
-0.51274902 -0.48297614 0.00000216
-0.25733000 -0.30951661 0.00000253
-0.09910603 -0.51431125 0.00000140
-0.02965138 0.63010055 0.00000761
-0.41542375 0.28930223 -0.02983091
-0.06154873 -0.03549886 0.00000344
-0.29253206 0.48779234 -0.02387860
-0.56274319 -0.55859679 0.19177099
-0.17548083 0.59581649 -0.01329706
-0.35605118 -0.05959829 0.13512439
-0.57600045 -0.59059829 0.03475741
-0.08954309 -0.54682207 0.00000124
-0.26350915 -0.62310427 0.00000117
-0.03587298 -0.56172532 0.00000110
-0.31119782 -0.03963635 0.00000380
-0.14251427 0.32366207 0.00000783
-0.73805529 -0.04258535 -0.05692841
-0.63502878 0.00007117 -0.04443610
-0.33296669 -0.58496439 0.00000144
-0.07354512 -0.28660944 0.00000236
-0.48797485 -0.37808561 0.01949026
-0.08638864 -0.55666202 0.00000119
-0.22175540 -0.40447494 0.00000207
-0.17485160 0.01405959 0.00000927
-0.01657494 0.04681945 0.00001146
-0.60999095 0.16337620 -0.05067132
-0.25132543 -0.29824817 0.00000257
-0.49862653 -0.40380946 0.31407806
-0.64283991 0.08758036 -0.05088393
-0.41201907 -0.69451421 0.00000108
-0.21623445 -0.04976928 0.00000361
-0.42939746 0.28766248 -0.03177649
-0.74257779 0.01352502 -0.06099090
-0.13835299 -0.53780973 0.00000136
-0.57306200 -0.06281216 -0.03155770
-0.47625691 -0.70988303 0.00000111
-0.01571477 0.01434978 0.00001167
-0.48551121 -0.37214312 0.17620856
-0.40970570 -0.18913372 0.20112701
-0.43818074 -0.25787431 0.08130392
-0.36681440 -0.43943855 0.00000213
-0.52901465 0.09827872 -0.03487471
-0.38106781 -0.12000060 0.34167495
-0.50026256 -0.57774949 0.00000173
-0.14781865 -0.50501341 0.00000151
-0.23271760 0.14213088 0.00000760
-0.10045156 0.20064352 0.00000923
-0.36898944 -0.09083688 0.22279263
-0.23888402 -0.70361644 0.00000078
-0.20119926 -0.35285434 0.00000226
-0.44426668 0.27531868 -0.03320426
-0.51923919 0.03703381 -0.02973153
-0.61551982 -0.68600774 0.16178332
-0.05316078 0.66888368 0.00000702
-0.21568169 -0.37212491 0.00000220
-0.38078868 -0.43296266 0.00000218
-0.18925709 0.34308165 0.00847405
-0.24040832 0.21958463 0.22521323
-0.74324369 0.00852223 -0.06078509
-0.25090671 0.19424568 0.03643081
-0.63401610 -0.73066056 0.08631111
-0.59496444 0.09141254 -0.04410991
-0.30045551 0.07461663 0.27284220
-0.43557039 -0.25157762 0.23715732
-0.53053576 -0.72008461 0.00000115
-0.08657972 0.32623649 0.00000865
-0.03292767 -0.23723260 0.00000251
-0.34267697 -0.02731450 0.26339018
-0.14021277 -0.25719953 0.00000259
-0.30917898 -0.15699580 0.00000328
-0.45321009 -0.29416686 0.33433425
-0.65354949 -0.13132931 -0.03918310
-0.08449356 0.40720698 0.00000818
-0.38932166 -0.13992552 0.29554200
-0.40067822 -0.16734579 0.38820803
-0.43416411 -0.24817763 0.09011973
-0.21407031 -0.33824420 0.00000234
-0.51610863 -0.69518632 0.00000124
-0.43019670 -0.65510762 0.00000128
-0.14973366 -0.43611440 0.00000182
-0.32733718 -0.69181746 0.00000097
-0.27989683 0.51098055 -0.02343514
-0.20565668 -0.02358350 0.00000371
-0.04221480 -0.22503880 0.00000258
-0.05143485 0.50582659 0.00000806
-0.45021865 -0.28694475 0.33226496
-0.16304819 0.00469857 0.00000951
-0.53918755 -0.50172991 0.20168567
-0.17924570 -0.61010325 0.00000110
-0.67484325 -0.08918255 -0.04485377
-0.71488219 -0.22921905 -0.04222512
-0.25277215 0.09324790 0.00000760
-0.30335054 0.06763176 0.14311911
-0.32976598 0.00385973 0.13214423
-0.48458365 -0.36990777 0.31961069
-0.19645379 -0.31687039 0.00000241
-0.62342876 0.12212590 -0.05013732
-0.33961791 -0.01992729 0.20451498
-0.01263549 -0.32144552 0.00000211
-0.45097122 -0.28876048 0.29814807
-0.53077102 -0.48140886 0.14979096
-0.01964604 -0.61138415 0.00000085
-0.36028785 -0.08090926 0.00000369
-0.01792247 0.59321338 0.00000802
-0.37771398 -0.11190440 0.36108243
-0.06910485 -0.26874310 0.00000243
-0.04180010 0.20105048 0.00001011
-0.60132509 -0.65173954 0.13036320
-0.34036627 -0.02173531 0.24443908
-0.50286376 -0.45151389 0.00000228
-0.05923143 0.28910410 0.00000930
-0.43279487 -0.57767004 0.00000163
-0.33208689 -0.38814840 0.00000230
-0.09194470 -0.47768396 0.00000155
-0.03760768 0.70919394 0.03716007
-0.27309445 -0.77907449 0.00000050
-0.48541239 -0.79888701 0.00000074
-0.16330586 0.40106663 0.00000703
-0.14470311 0.61846709 -0.01016596
-0.37793759 -0.13336465 0.00000349
-0.14003436 -0.15557960 0.00000303
-0.12399734 -0.40351865 0.00000192
-0.22047924 0.26402414 0.00000702
-0.28319445 0.11629621 0.04026718
-0.44955352 -0.28533682 0.26575276
-0.72485524 -0.29294476 -0.03982202
-0.38702562 -0.13438557 0.38996175
-0.52657467 -0.61352557 0.00000161
-0.58224553 -0.60567856 0.22784384
-0.13981380 0.17461118 0.00000880
-0.17934853 -0.33541700 0.00000230
-0.17567159 -0.25892726 0.00000263
-0.30239522 0.06993384 0.26882535
-0.51930845 -0.45373192 0.03156836
-0.22465011 -0.46793252 0.00000179
-0.52651715 -0.47113451 0.01380750
-0.28442714 -0.62838459 0.00000118
-0.25921872 0.00643040 0.00000805
-0.35486218 -0.13439873 0.00000345
-0.59701115 -0.75233263 0.00000111
-0.66558748 -0.80687881 0.10653868
-0.21920107 -0.35715458 0.00000227
-0.45441630 -0.29707313 0.16248526
-0.33144113 -0.25281382 0.00000289
-0.36983526 -0.09287586 0.13229515
-0.32307029 0.02001803 0.32525927
-0.37831876 -0.11336079 0.25242463
-0.01223199 -0.52251643 0.00000123
-0.30609015 -0.23251586 0.00000294
-0.36706990 -0.11096683 0.00000357
-0.48391494 -0.36828512 0.04724097
-0.59437054 -0.63494980 0.10174599
-0.46977559 0.22659789 -0.03398395
-0.50406128 -0.67023402 0.00000133
-0.05602871 0.53363484 0.00000782
-0.76874304 -0.26961344 -0.04765849
-0.51848418 -0.45174640 0.16446708
-0.19969890 -0.09113169 0.00000340
-0.58779120 -0.61906660 0.15647979
-0.50312370 -0.41465977 0.06797161
-0.43493292 -0.25003633 0.16730940
-0.61541647 -0.79551959 0.00000095
-0.49099740 -0.41193020 0.00000244
-0.66318679 -0.09609108 -0.04272925
-0.53275067 -0.76158726 0.00000097
-0.06617630 -0.40602270 0.00000182
-0.28702885 0.10703520 0.15796104
-0.49207583 -0.76955831 0.00000088
-0.04436305 0.44931909 0.00000852
-0.05037895 -0.61819714 0.00000087
-0.38945091 -0.59379035 0.00000149
-0.09452704 0.24504700 0.00000904
-0.17606466 0.60389400 -0.01387215
-0.40265346 -0.59981740 0.00000148
-0.20623162 0.07780247 0.00000840
-0.16073728 -0.68382061 0.00000075
-0.50426751 -0.41742414 0.15881321
-0.42212832 -0.21913107 0.40748858
-0.12817021 0.04801861 0.00000977
-0.19042461 -0.52285832 0.00000150
-0.15557767 -0.27764192 0.00000252
-0.40810895 -0.18528415 0.36119619
-0.14379708 0.63102806 -0.01079480
-0.30108270 -0.12252725 0.00000342
-0.13404183 0.24838278 0.00000843
-0.29039967 -0.75350410 0.00000064
-0.33787045 -0.01570752 0.17413931
-0.11633551 0.51912642 0.10038116
-0.47383362 -0.34394723 0.06286243
-0.03037009 -0.59011316 0.00000096
-0.50295734 -0.41425973 0.11754895
-0.39214364 -0.14673238 0.11696109
-0.01538150 0.73115295 0.00000720
-0.03918274 0.55228263 0.00000796
-0.40524146 -0.17835359 0.12684789
-0.47009766 -0.57250643 0.00000170
-0.32115790 -0.69241053 0.00000096
-0.65224868 0.02639935 -0.04855213
-0.20286384 0.31022990 0.07368639
-0.29261339 0.09355816 0.00412572
-0.41401169 -0.19953386 0.33935213
-0.51619786 -0.44622299 0.05068922
-0.39911497 -0.16356219 0.10309461
-0.38790411 -0.13649561 0.06584035
-0.66687506 -0.80998719 0.07418828
-0.41268736 -0.19633123 0.17588495
-0.79820073 -0.74204201 -0.02333382
-0.00422623 -0.19977519 0.00000263
