ply
format ascii 1.0
element vertex 1362
property float x
property float y
property float z
end_header
-0.38517094 0.35393539 -0.04616010
-0.56151080 -0.55562168 0.21321490
-0.49880478 0.28067580 -0.06534674
-0.36112484 -0.07185153 0.27959204
-0.40778127 -0.18448494 0.13730615
-0.42000610 -0.21838245 0.00000281
-0.36169124 -0.47957483 0.00000175
-0.51658362 -0.44715554 0.09773038
-0.63481158 -0.73258108 0.16092914
-0.71401978 -0.05298138 -0.08308732
-0.44582221 -0.27632940 0.29304299
-0.06232748 0.37458441 0.00000825
-0.12310111 -0.49933717 0.00000131
-0.61643547 -0.68821824 0.08878164
-0.34267578 -0.02730644 0.13446741
-0.10980499 0.52426606 0.00000641
-0.37865010 -0.11416269 0.31968403
-0.52096099 -0.45772168 0.05227392
-0.28065017 -0.33183429 0.00000218
-0.49499857 -0.39504293 0.05129177
-0.37836123 -0.11345681 0.08397676
-0.50639343 0.28023586 -0.06705292
-0.19375122 -0.68080825 0.00000074
-0.20663179 -0.16673546 0.00000269
-0.26596695 0.15788573 0.11351880
-0.22346532 0.00206333 0.00000861
-0.35577425 -0.63554549 0.00000115
-0.41809675 -0.20938578 0.05541380
-0.44997254 -0.28634134 0.07380272
-0.11140494 -0.08334601 0.00000286
-0.07775452 0.29456675 0.00000862
-0.44890964 -0.28377721 0.12686259
-0.48007715 -0.35902745 0.27405024
-0.22877565 0.24767312 0.12059729
-0.65836787 -0.05082768 -0.07047305
-0.39194274 -0.14625290 0.29056209
-0.18222763 0.24799244 0.00000739
-0.08066814 0.09610863 0.00001006
-0.31230095 0.04601764 0.33731505
-0.13476412 -0.22938295 0.00000234
-0.34524071 -0.75551903 0.00000069
-0.13109712 0.45509762 0.00000661
-0.14336380 0.20807952 0.00000828
-0.37142193 -0.09671082 0.27722475
-0.48250630 0.27008879 -0.06058189
-0.18649678 -0.46913239 0.00000152
-0.38557243 0.38370404 -0.04909320
-0.02562720 -0.36150798 0.00000168
-0.50688940 -0.42375293 0.13575636
-0.35187253 -0.41054246 0.00000199
-0.27590659 -0.77740198 0.00000050
-0.04045055 0.14071736 0.00001033
-0.45236295 -0.29212132 0.32597134
-0.04492283 -0.48371658 0.00000125
-0.06641387 -0.24872458 0.00000217
-0.08007267 -0.39730802 0.00000163
-0.40724441 -0.62802154 0.00000126
-0.23545489 0.23154548 0.19301809
-0.24542563 -0.02629463 0.00000327
-0.16162246 0.36335143 0.00000684
-0.00632882 -0.29027948 0.00000187
-0.02727840 0.23080334 0.00000986
-0.73222822 -0.28369626 -0.06526828
-0.15125617 0.16011254 0.00000852
-0.43323839 -0.28785589 0.00000257
-0.31484437 -0.11640996 0.00000304
-0.22652350 0.25310740 0.20065603
-0.77164042 -0.06072136 -0.09562209
-0.20648731 0.30148587 0.01038999
-0.10797487 -0.05513334 0.00000296
-0.27055335 -0.64163220 0.00000100
-0.59370255 0.09849435 -0.06982358
-0.28423879 0.11376738 0.28844297
-0.18572573 -0.42791149 0.00000168
-0.61723006 -0.69013661 0.18871593
-0.01647051 0.06738070 0.00001125
-0.73394281 -0.08041993 -0.08505869
-0.19991761 0.31734324 0.10087447
-0.40256411 -0.28033745 0.00000256
-0.08367496 0.59798092 0.01000631
-0.36026505 -0.06977085 0.14079018
-0.33287787 -0.00365112 0.10533510
-0.09362390 0.15516457 0.00000942
-0.45152017 -0.29008541 0.29033506
-0.49976683 -0.40655571 0.08575326
-0.27987233 -0.39652959 0.00000194
-0.14037102 -0.18783799 0.00000251
-0.04448530 0.52170014 0.00000742
-0.00845887 -0.73119318 0.00000021
-0.27448222 0.09651419 0.00000713
-0.13366441 0.18083423 0.00000863
-0.03398265 -0.32091093 0.00000185
-0.09143337 -0.40649348 0.00000161
-0.49954510 0.27670792 -0.06513866
-0.22540838 0.25580513 0.04607796
-0.42867067 -0.59427857 0.00000142
-0.37432718 -0.74959320 0.00000075
-0.15986200 -0.34520546 0.00000195
-0.47351494 -0.59073406 0.00000150
-0.43805084 -0.25756496 0.21734536
-0.33216637 -0.00193482 0.14539042
-0.45185691 -0.29089916 0.31229448
-0.08547432 -0.59268731 0.00000091
-0.24835038 -0.38671473 0.00000192
-0.52425355 -0.73696172 0.00000103
-0.32824802 -0.18346009 0.00000281
-0.39126146 -0.36031312 0.00000224
-0.35780087 -0.63401908 0.00000116
-0.45860028 -0.31631732 0.00000251
-0.42949232 -0.23690265 0.21098866
-0.04793232 0.07832048 0.00001069
-0.35991919 -0.13826478 0.00000302
-0.16745047 -0.39282513 0.00000178
-0.59267300 -0.63085204 0.11536598
-0.36258373 -0.12826006 0.00000307
-0.26778501 0.15349779 0.07781860
-0.39618382 0.38183114 -0.05135898
-0.02774889 0.19515334 0.00001012
-0.19900469 -0.37029320 0.00000191
-0.52188659 -0.49652484 0.00000193
-0.33834735 0.32909656 -0.03300336
-0.34712169 0.39289531 -0.04111254
-0.22404683 -0.26815790 0.00000233
-0.29923058 -0.59647119 0.00000121
-0.33257779 -0.00292673 0.10780517
-0.17984825 -0.67007279 0.00000076
-0.26730183 0.15466484 0.06391125
-0.59521651 0.10145060 -0.07045444
-0.20582493 0.30308017 0.14478615
-0.39276597 -0.22575417 0.00000275
-0.44448185 -0.74079424 0.00000089
-0.52791303 -0.47450867 0.14095515
-0.75735813 -0.11504468 -0.08714887
-0.28886282 0.10261323 0.02887763
-0.41460076 0.21052203 -0.03925476
-0.62221676 -0.70217526 0.18485191
-0.10633097 0.68386507 -0.01340794
-0.23039390 0.24376406 0.18436623
-0.52059895 -0.45685408 0.23133823
-0.29730129 0.08224153 0.01414424
-0.00419551 -0.55211079 0.00000094
-0.25670600 -0.08776522 0.00000306
-0.43140468 -0.74748266 0.00000085
-0.10250580 0.55251837 0.03481251
-0.64511746 -0.75746095 0.12152165
-0.43900308 -0.69496250 0.00000106
-0.14917213 0.43985149 0.16074970
-0.40654141 -0.18149638 0.26912177
-0.00649237 -0.09829756 0.00000264
-0.43113890 -0.72546905 0.00000093
-0.29876086 -0.12863049 0.00000297
-0.09659915 0.47809839 0.00000696
-0.21846277 0.48010004 -0.01979532
-0.08407070 -0.09315910 0.00000278
-0.28316161 0.11637253 0.15915352
-0.07268206 0.58907485 0.00000649
-0.17228954 0.60812992 -0.02137563
-0.33389422 -0.00610438 0.09344969
-0.30352339 -0.33241290 0.00000221
-0.31872842 0.03051073 0.04628365
-0.67725205 0.03355779 -0.08287404
-0.04073725 0.70164126 0.02063505
-0.39602199 0.24703903 -0.03845942
-0.23700555 0.02307434 0.00000825
-0.07312033 -0.21765506 0.00000229
-0.00316254 0.32508951 0.00000951
-0.35515803 0.31177428 -0.03522302
-0.03804731 0.59611201 0.00000696
-0.05104927 0.21734618 0.00000960
-0.29544228 -0.27361211 0.00000242
-0.07827302 0.71196711 -0.00962594
-0.28415787 0.41101703 -0.02833708
-0.26834023 -0.60094428 0.00000115
-0.66066182 0.09820502 -0.08522107
-0.28803405 -0.77864277 0.00000051
-0.00953243 0.59127390 0.00000742
-0.24599586 0.20610166 0.07154125
-0.40822837 -0.18556856 0.25485799
-0.39868918 -0.20742899 0.00000282
-0.45155922 0.17420635 -0.04430334
-0.69599015 0.02293131 -0.08617664
-0.01849879 -0.47506887 0.00000125
-0.41641453 -0.20533498 0.34726584
-0.77493149 -0.25658405 -0.07769183
-0.68171030 0.01095256 -0.08174400
-0.14308496 -0.57079190 0.00000108
-0.38410953 -0.12733193 0.01378591
-0.06157885 -0.66649759 0.00000059
-0.57442987 -0.64769846 0.00000144
-0.16889252 0.39224166 0.17803720
-0.21632887 -0.10272936 0.00000294
-0.07872357 -0.55091029 0.00000105
-0.04539402 -0.67473614 0.00000054
-0.61925465 -0.76661402 0.00000106
-0.47231916 -0.34029943 0.32972437
-0.53518182 -0.49205610 0.11605876
-0.08608753 -0.22535409 0.00000228
-0.10302285 -0.01794327 0.00000309
-0.38457009 -0.12844671 0.09543490
-0.18224595 -0.19194707 0.00000256
-0.58998764 -0.70964217 0.00000123
-0.20561314 0.30359048 0.17378207
-0.19831879 0.15856296 0.00000782
-0.32570007 0.01366980 0.32422957
-0.14598167 -0.41193879 0.00000168
-0.23870251 0.45328692 -0.02189927
-0.41172919 0.30022606 -0.04715308
-0.06233269 0.64950389 0.06114036
-0.35772356 -0.06363781 0.21571729
-0.03747596 -0.58631486 0.00000086
-0.18927924 0.34302571 0.12435368
-0.03897586 -0.66447675 0.00000057
-0.26405281 -0.52503675 0.00000143
-0.27822790 0.00587328 0.00000776
-0.05030604 -0.67058456 0.00000056
-0.71327591 -0.22140694 -0.06684578
-0.13831148 0.46607253 0.12902313
-0.45220390 -0.29172921 0.09920260
-0.45913985 -0.30848253 0.34833843
-0.23769107 0.22614790 0.16362566
-0.20891941 0.58452982 -0.02756189
-0.12740210 0.49241266 0.05640040
-0.21831504 -0.09482007 0.00000297
-0.44966626 -0.28561032 0.30985132
-0.44828650 -0.67932963 0.00000113
-0.29217005 0.09462350 0.18050905
-0.49214581 0.08991241 -0.04560950
-0.60496145 -0.66051698 0.05995087
-0.54597449 0.21628091 -0.07006825
-0.53080970 -0.48150456 0.28120205
-0.42155650 -0.72529936 0.00000092
-0.20378411 -0.20063579 0.00000256
-0.46381569 -0.32199287 0.00000249
-0.04822728 0.50710899 0.00000747
-0.03355728 0.13039902 0.00001052
-0.54597706 -0.51812077 0.20812768
-0.43057969 -0.31876665 0.00000245
-0.13527441 0.47340506 0.11700485
-0.05110626 0.03544972 0.00001096
-0.33627591 -0.01185259 0.04619126
-0.01640389 -0.43156058 0.00000141
-0.43965667 -0.26143861 0.12842096
-0.20199583 0.18315740 0.00000758
-0.55747467 -0.02079042 -0.05009766
-0.60157692 -0.65234733 0.09614254
-0.15459280 -0.35546237 0.00000190
-0.23202328 -0.74591845 0.00000055
-0.23926893 0.22233617 0.23152198
-0.28119648 -0.18816306 0.00000272
-0.28267738 -0.21088475 0.00000264
-0.24807350 0.06547933 0.00000777
-0.00212265 -0.38827550 0.00000153
-0.00195827 -0.01345604 0.00000294
-0.26505628 -0.75338006 0.00000057
-0.17964821 -0.49295640 0.00000142
-0.30544016 0.06258693 0.17157133
-0.26166606 0.52767599 -0.03428776
-0.16405132 0.56731695 -0.01558332
-0.20523298 0.03865352 0.00000861
-0.44325286 0.17962468 -0.04290688
-0.62334484 -0.74116784 0.00000116
-0.41038904 -0.19078271 0.19384900
-0.02428135 -0.18088245 0.00000236
-0.56197518 -0.55674261 0.16017520
-0.49647325 -0.53960437 0.00000173
-0.09905394 -0.18281288 0.00000246
-0.43238074 -0.24387051 0.05902905
-0.39249459 -0.41331917 0.00000204
-0.39278552 -0.14828433 0.20215601
-0.02926538 0.33854246 0.00000902
-0.24753737 -0.55854052 0.00000128
-0.37705514 -0.11031114 0.29393548
-0.28923956 0.10170272 0.05714422
-0.17616633 0.37468517 0.06563617
-0.52543688 -0.77151495 0.00000090
-0.07792764 -0.61755908 0.00000080
-0.41666418 -0.36261132 0.00000227
-0.06097943 0.19902261 0.00000959
-0.12970409 0.30255249 0.00000777
-0.17862476 -0.50248766 0.00000139
-0.56920922 -0.00381507 -0.05442046
-0.21244234 0.28710949 0.00102257
-0.09806390 0.46406126 0.00000704
-0.48078710 -0.53666329 0.00000171
-0.06650734 0.01115048 0.00001091
-0.39113158 -0.14429060 0.18066223
-0.32342982 -0.10959914 0.00000308
-0.16754384 0.39549986 0.11620766
-0.13090670 0.48395079 0.08566871
-0.37473550 -0.33766073 0.00000230
-0.07699475 0.44174090 0.00000753
-0.12339368 0.66711068 -0.01573990
-0.68491960 0.09552991 -0.09055400
-0.56579858 0.14595760 -0.06792457
-0.44528085 -0.27502477 0.37755153
-0.62994123 -0.72082162 0.01156093
-0.40598553 0.35713866 -0.05126072
-0.50156826 0.14178574 -0.05273003
-0.37210575 -0.09835613 0.12068006
-0.52897698 0.20492800 -0.06506928
-0.16516890 0.40123555 0.05876265
-0.25499824 -0.21390156 0.00000258
-0.11558461 0.32676488 0.00000781
-0.47270921 -0.34124106 0.34558973
-0.37790331 -0.11235694 0.24181634
-0.16200612 -0.28173092 0.00000219
-0.10015454 -0.55730969 0.00000106
-0.48090023 -0.36101547 0.32115492
-0.56360036 -0.63516927 0.00000147
-0.70833558 -0.11916170 -0.07546339
-0.54996401 -0.52774602 0.20159383
-0.35377434 0.37118420 -0.04057334
-0.49172908 -0.68893170 0.00000116
-0.23801912 0.22535270 0.25576732
-0.47781920 -0.35356823 0.04942592
-0.51808828 -0.45079312 0.27461040
-0.39749607 -0.43967152 0.00000195
-0.10799211 0.53927130 0.08949949
-0.71442395 -0.23707578 -0.06561521
-0.25040045 0.19546780 0.07948823
-0.04053542 0.70212811 0.03156456
-0.19889376 -0.02484201 0.00000321
-0.73802549 -0.07279847 -0.08672636
-0.19142985 0.09381274 0.00000841
-0.04688387 0.68680143 0.03691752
-0.09744235 -0.60156006 0.00000089
-0.59361446 -0.63312483 0.17738475
-0.23379815 -0.03356723 0.00000323
-0.32648838 0.01177062 0.21319455
-0.48920992 0.19021861 -0.05450471
-0.14471537 0.06774640 0.00000931
-0.18262225 -0.60880154 0.00000099
-0.01075855 -0.48710230 0.00000119
-0.45963243 -0.44310719 0.00000203
-0.10686198 0.47557840 0.00000682
-0.36716482 -0.08643293 0.26820645
-0.53318077 -0.48722866 0.28798607
-0.00708242 0.71116376 0.00000656
-0.36613721 -0.64611721 0.00000113
-0.16370541 0.12988199 0.00000856
-0.47170135 -0.53749931 0.00000170
-0.45443848 -0.29712653 0.16991866
-0.37592140 -0.10756652 0.08312165
-0.16197520 -0.70734054 0.00000059
-0.76187724 -0.13237225 -0.08653657
-0.04803704 -0.64042133 0.00000067
-0.04578892 -0.64745027 0.00000064
-0.18623380 -0.18425123 0.00000259
-0.09462329 -0.60821772 0.00000086
-0.37824425 -0.61439806 0.00000127
-0.11039674 -0.58551747 0.00000097
-0.57299328 -0.67378610 0.00000134
-0.50112003 -0.40982512 0.15551303
-0.34451547 -0.14077622 0.00000299
-0.35625762 -0.07461353 0.00000326
-0.46011165 -0.51055604 0.00000178
-0.05475883 -0.74331409 0.00000030
-0.23402359 -0.40851459 0.00000182
-0.25092822 -0.50746018 0.00000148
-0.31623664 0.03652508 0.08403559
-0.21415426 -0.13008064 0.00000284
-0.74275130 -0.12089937 -0.08322547
-0.31711417 0.03440373 0.16243915
-0.41781816 -0.54878587 0.00000157
-0.64908010 -0.76702678 0.00731120
-0.11801094 0.04012770 0.00000992
-0.12298265 -0.54832655 0.00000113
-0.42309722 0.29884443 -0.04964005
-0.33437487 -0.00726653 0.14193542
-0.18493018 -0.65947038 0.00000081
-0.37173289 -0.28557244 0.00000249
-0.45037326 -0.34480324 0.00000239
-0.04606603 0.38028073 0.00000845
-0.13120732 0.48322624 0.05143882
-0.21746473 -0.04338964 0.00000317
-0.02874064 0.12729222 0.00001061
-0.01285869 -0.46124065 0.00000129
-0.21786435 -0.68790674 0.00000075
-0.34501344 0.32514387 -0.03416181
-0.49082357 -0.38496795 0.17342322
-0.48434713 -0.36933073 0.12624399
-0.12067802 0.50864553 0.07060966
-0.33769163 -0.01528153 0.35587999
-0.15294041 -0.27826208 0.00000219
-0.70961958 -0.05527402 -0.08185497
-0.15075935 0.43602520 0.00366513
-0.52890050 -0.47689012 0.07312942
-0.60884911 0.16414917 -0.07957780
-0.56991327 -0.57590276 0.04718014
-0.35703760 -0.06198567 0.32484800
-0.39270419 0.28725412 -0.04153256
-0.28262261 -0.69163686 0.00000083
-0.21288992 -0.24279603 0.00000241
-0.59734154 0.12073315 -0.07278396
-0.15149187 -0.40488067 0.00000171
-0.13087672 0.24243028 0.00000821
-0.58800876 -0.61959189 0.20235720
-0.16721164 -0.46443096 0.00000151
-0.03745580 -0.01923952 0.00000298
-0.30500224 0.06364187 0.23555018
-0.01221144 -0.63406146 0.00000064
-0.26399720 0.16264422 0.02600607
-0.36588824 -0.55494529 0.00000147
-0.35287264 -0.05193161 0.35234869
-0.55002153 0.02869954 -0.05310094
-0.62649769 -0.71251005 0.12437743
-0.38374072 -0.14992611 0.00000302
-0.26269341 0.16578874 0.11235672
-0.10294783 0.55144960 0.08138907
-0.70970738 -0.06518034 -0.08092998
-0.05567080 0.23675214 0.00000938
-0.41053933 -0.19114213 0.09975351
-0.18742959 -0.44201982 0.00000163
-0.05512377 -0.34750825 0.00000178
-0.27114332 0.14538766 0.14746231
-0.05126381 0.46109009 0.00000777
-0.21345399 0.28465900 0.23015961
-0.70414656 -0.19879566 -0.06690022
-0.42283037 -0.36615720 0.00000226
-0.14624535 0.44691885 0.11891652
-0.10751881 0.54041368 0.09698074
-0.56141055 -0.55537957 0.18684295
-0.33351469 -0.00518594 0.03215537
-0.48671761 0.14473262 -0.04959015
-0.63740838 -0.73885006 0.17388903
-0.26109031 0.16965649 0.18297666
-0.37619612 -0.10822691 0.00310103
-0.53245664 -0.48547915 0.17625886
-0.23785505 -0.67175931 0.00000084
-0.14184974 0.10547568 0.00000907
-0.32718238 0.01009534 0.20683832
-0.61393613 -0.68218446 0.08451141
-0.59390199 -0.63381898 0.18942446
-0.77783883 -0.03924184 -0.09909939
-0.12101822 0.50782365 0.08583386
-0.57258880 -0.58236277 0.06647634
-0.10987623 -0.49412391 0.00000131
-0.78149933 -0.15122391 -0.08925773
-0.40306124 -0.17309953 0.40929586
-0.62435788 -0.00829812 -0.06669656
-0.07477579 0.41634092 0.00000775
-0.09097320 -0.52448374 0.00000117
-0.33036229 0.00241836 0.20833930
-0.11394747 0.15708832 0.00000910
-0.12607184 -0.32338494 0.00000198
-0.32823658 0.00754955 0.22673100
-0.49012631 -0.38328859 0.29461512
-0.33986458 -0.02052683 0.33819580
-0.44587302 -0.27644807 0.18083277
-0.24842782 -0.23223577 0.00000250
-0.38402814 0.38925320 -0.04926697
-0.40260845 0.35442784 -0.05022409
-0.48980331 -0.38250345 0.13572150
-0.42735076 -0.23173021 0.14756551
-0.67803931 -0.11495708 -0.06888564
-0.67359954 -0.82622111 0.10924339
-0.19449443 0.33043686 0.07593215
-0.24762908 0.20215179 0.26578063
-0.56992036 -0.72207797 0.00000115
-0.50422096 -0.41731122 0.14734691
-0.20848574 -0.28087547 0.00000226
-0.28838265 0.44961679 -0.03299364
-0.31252888 -0.40209883 0.00000196
-0.20531850 0.30430689 0.03172260
-0.24715044 0.20330963 0.20104402
-0.28925529 0.10165712 0.26931363
-0.21665961 -0.47137484 0.00000156
-0.45262393 -0.29274324 0.09888989
-0.06686623 -0.58140552 0.00000092
-0.03658389 -0.76811522 0.00000017
-0.54994440 -0.52769840 0.17884766
-0.06139970 -0.26030785 0.00000212
-0.01098822 0.67202687 0.00000679
-0.20944948 -0.25739196 0.00000235
-0.61160856 -0.67656279 0.01466099
-0.18539236 0.35241148 0.06715711
-0.23929463 0.22227915 0.09030405
-0.27957529 -0.14615677 0.00000287
-0.30263770 0.06935145 0.20636441
-0.35733330 -0.51395446 0.00000161
-0.39215815 -0.50588673 0.00000169
-0.15498355 0.23252282 0.00000792
-0.07126749 -0.15932891 0.00000251
-0.06075911 0.58704174 0.00000668
-0.49726114 -0.40051320 0.30278891
-0.30308023 0.06827954 0.30434868
-0.09882788 0.10680433 0.00000971
-0.26764375 -0.31971994 0.00000220
-0.45863658 -0.30726334 0.21903002
-0.51249981 -0.43729505 0.06436379
-0.53903329 -0.50135338 0.08731783
-0.28313717 -0.29305559 0.00000233
-0.04806549 0.68394923 0.02248481
-0.50116742 -0.40994349 0.27107263
-0.52025855 -0.45602605 0.05596211
-0.04330720 0.51012576 0.00000752
-0.10211872 0.29241902 0.00000827
-0.12407273 -0.62079489 0.00000086
-0.14751978 -0.33901897 0.00000195
-0.39776146 -0.73532879 0.00000084
-0.06309458 -0.58445024 0.00000090
-0.44892514 -0.28382164 0.32435974
-0.30142248 -0.74347699 0.00000067
-0.07160931 -0.25346389 0.00000216
-0.12496302 0.37570950 0.00000730
-0.52520490 -0.46797365 0.29629850
-0.39844513 -0.27182680 0.00000258
-0.00025472 -0.26499075 0.00000200
-0.72329974 -0.22483204 -0.06882804
-0.02835802 0.34802082 0.00000896
-0.44460079 -0.72985178 0.00000093
-0.00507979 -0.56708431 0.00000084
-0.08570545 0.28975862 0.00000853
-0.33323768 0.44425157 -0.04281472
-0.30272913 0.43896681 -0.03528231
-0.37736064 -0.50359428 0.00000168
-0.11519938 0.28723040 0.00000811
-0.24095923 0.21825580 0.22146739
-0.12001039 -0.17975566 0.00000251
-0.17362826 -0.26662111 0.00000226
-0.01165065 -0.73888862 0.00000025
-0.00081828 -0.02578324 0.00000290
-0.43099159 -0.77406442 0.00000075
-0.41629860 -0.39146349 0.00000216
-0.19603026 0.32672524 0.18269028
-0.60668832 -0.70912659 0.00000126
-0.53850323 -0.50007772 0.20228694
-0.11268424 -0.72879791 0.00000044
-0.22817706 0.24911939 0.09008482
-0.42259583 -0.22024643 0.02460057
-0.17766027 -0.00654594 0.00000324
-0.23796013 0.22550014 0.11313698
-0.11687835 0.20186602 0.00000872
-0.00097170 -0.07204298 0.00000273
-0.34471381 -0.50697541 0.00000162
-0.27971020 -0.05692924 0.00000321
-0.07911646 0.42441645 0.00000762
-0.35674614 -0.09718339 0.00000317
-0.62469494 -0.70815796 0.17292015
-0.25801480 -0.33937109 0.00000212
-0.09744199 0.11449724 0.00000967
-0.22293378 -0.48303297 0.00000153
-0.23096818 -0.52408248 0.00000138
-0.54978997 0.02694868 -0.05288053
-0.55663329 -0.54384673 0.22680911
-0.44567719 -0.27596915 0.00958914
-0.40659574 0.32855907 -0.04867414
-0.76077068 -0.30099055 -0.07019287
-0.17585190 0.37544194 0.13141789
-0.00719759 -0.17899939 0.00000234
-0.33599627 -0.67532843 0.00000097
-0.35785651 -0.06395824 0.20052385
-0.29406884 0.44445038 -0.03381055
-0.12913291 0.42599139 0.00000686
-0.37123165 -0.17017150 0.00000292
-0.48575273 -0.37272468 0.13909011
-0.16649315 -0.42310953 0.00000166
-0.36766908 -0.08764596 0.14605443
-0.46256688 -0.31674606 0.05489154
-0.10161634 0.55466330 0.10307615
-0.25331482 0.53112888 -0.03269336
-0.03730279 -0.17030016 0.00000242
-0.39132622 -0.14475736 0.09308227
-0.14459144 0.25443572 0.00000791
-0.44666970 0.18094459 -0.04381996
-0.24079137 -0.37382430 0.00000196
-0.18559676 -0.47823614 0.00000149
-0.27449191 0.13730220 0.18292610
-0.23685955 -0.28606382 0.00000228
-0.15301003 -0.78701639 0.00000028
-0.04496695 -0.13441212 0.00000256
-0.08090043 0.29259142 0.00000858
-0.08558204 0.59337527 0.05340450
-0.65708631 -0.05618422 -0.06966675
-0.49823087 -0.40285328 0.24390191
-0.64798003 -0.01649286 -0.07135618
-0.09408787 -0.60807300 0.00000086
-0.61409599 -0.68257040 0.11762375
-0.11597331 -0.16051842 0.00000257
-0.46140164 -0.31393242 0.04047019
-0.36948672 -0.09202994 0.03020395
-0.23055497 -0.59028077 0.00000113
-0.29936212 -0.58861542 0.00000124
-0.66582304 -0.80744749 0.06414197
-0.10638447 -0.32544839 0.00000194
-0.06608328 0.48968709 0.00000733
-0.07138004 0.62766302 0.02249698
-0.34417459 -0.03092183 0.05017473
-0.53941524 0.01384283 -0.04923995
-0.19751494 0.32314178 0.15770335
-0.39610806 -0.77320272 0.00000070
-0.13011967 -0.78199351 0.00000026
-0.16592591 0.21532550 0.00000788
-0.28148234 0.48147029 -0.03444361
-0.57841802 -0.59643835 0.14266552
-0.30361497 -0.70203036 0.00000083
-0.53727388 -0.49710613 0.09729517
-0.01415821 0.00057244 0.00001178
-0.50681520 -0.42357308 0.11613083
-0.25329328 0.08054624 0.00000757
-0.08322831 -0.30093446 0.00000200
-0.56688142 -0.56858289 0.03785068
-0.32733145 -0.61969620 0.00000117
-0.40916893 0.28578722 -0.04518549
-0.42029303 -0.41705066 0.00000207
-0.30733153 0.05802492 0.05521111
-0.10957616 0.66733909 -0.01257856
-0.08079946 0.37978101 0.00000793
-0.23312885 0.23716423 0.10391950
-0.19119646 0.51785660 -0.01711696
-0.29403076 -0.42187661 0.00000186
-0.37294084 0.31204167 -0.03934507
-0.45032290 -0.28719023 0.15868463
-0.60294741 0.04232286 -0.06659321
-0.42172688 0.27758130 -0.04729537
-0.36295557 -0.07626666 0.14987928
-0.27715257 -0.10785888 0.00000301
-0.06102260 0.54892045 0.00000696
-0.01093655 -0.24102297 0.00000203
-0.23410723 0.23480217 0.10439610
-0.09301864 -0.65123123 0.00000070
-0.30585426 -0.42395777 0.00000187
-0.23332486 0.23668884 0.16447888
-0.22712664 -0.17054655 0.00000270
-0.44261271 -0.45664972 0.00000196
-0.20467839 0.30585021 0.08765807
-0.17760976 0.14808179 0.00000821
-0.01792558 -0.50037384 0.00000115
-0.02029222 0.10236177 0.00001093
-0.20250779 -0.66922861 0.00000080
-0.61740148 0.10586707 -0.07598652
-0.27493370 0.13624004 0.05904081
-0.20138824 0.31378990 0.18360145
-0.28084278 0.12196689 0.26558557
-0.41097540 -0.19219340 0.05668874
-0.05102038 0.15763278 0.00001005
-0.70013517 -0.16170441 -0.06951520
-0.09454567 0.37857309 0.00000773
-0.29859385 -0.03728908 0.00000331
-0.32345331 -0.40612611 0.00000197
-0.57844537 -0.59650093 0.04396812
-0.03923577 -0.78080404 0.00000013
-0.14228620 0.45647806 0.09058474
-0.68812776 0.09255420 -0.09100909
-0.33868709 -0.01768348 0.31886929
-0.29232737 -0.47336453 0.00000167
-0.01206341 0.22994044 0.00001009
-0.31910220 -0.51130080 0.00000156
-0.48713401 -0.37606359 0.25861296
-0.57988435 -0.59997457 0.03439622
-0.27485287 0.13643502 0.06336258
-0.57048452 0.12695728 -0.06719097
-0.45399296 0.31462622 -0.05826330
-0.25337556 0.11171269 0.00000734
-0.17398939 0.37994105 0.05775073
-0.59911126 0.13656595 -0.07470247
-0.50370097 -0.41605303 0.07121364
-0.15336652 -0.47981206 0.00000143
-0.10777971 -0.18563113 0.00000247
-0.34385812 -0.03015645 0.01281964
-0.38619488 -0.13237689 0.30688876
-0.66739166 0.01744600 -0.07906511
-0.21517281 -0.01932586 0.00000325
-0.41401497 -0.19953763 0.22685629
-0.06091138 0.56656730 0.00000683
-0.27808920 0.12862030 0.10660325
-0.33139330 -0.00006969 0.17883895
-0.61330229 -0.68918306 0.00000134
-0.58110517 -0.60292554 0.15946525
-0.59637290 -0.63978261 0.06558150
-0.36368135 -0.16773768 0.00000292
-0.55142218 -0.53126258 0.08156305
-0.49304467 -0.39032757 0.10131653
-0.39087117 -0.33731017 0.00000232
-0.50126380 -0.41016862 0.05275180
-0.08552421 -0.41877070 0.00000156
-0.45083049 -0.43874842 0.00000203
-0.08354519 0.39103076 0.00000781
-0.05847793 0.65881205 0.00547438
-0.37135354 -0.78883028 0.00000060
-0.53806800 -0.59971118 0.00000156
-0.56676537 -0.71370029 0.00000118
-0.64067566 -0.01549742 -0.06976855
-0.18148370 -0.14656527 0.00000272
-0.48685035 -0.37537166 0.05833040
-0.44604293 -0.38551232 0.00000223
-0.36348534 -0.07754032 0.00108139
-0.09860187 0.56194079 0.10485110
-0.64359570 -0.08916365 -0.06341240
-0.14933264 -0.12450671 0.00000276
-0.26978502 -0.53479958 0.00000140
-0.10323484 0.55075943 0.00452220
-0.10194383 0.42749995 0.00000726
-0.52721208 -0.47281459 0.09006107
-0.35288861 -0.75965536 0.00000068
-0.31326857 0.00444357 0.00000724
-0.57129574 0.20476379 -0.07480239
-0.55687565 0.22866006 -0.07376075
-0.23043223 0.24367175 0.17856024
-0.45162532 -0.29033312 0.11846680
-0.42194274 -0.21867591 0.19830409
-0.13243280 -0.22617035 0.00000235
-0.10354478 0.66300333 -0.01077540
-0.20307586 0.55940092 -0.02381785
-0.19043155 -0.73671591 0.00000052
-0.49866408 -0.40389097 0.01511885
-0.28395450 0.50936747 -0.03767515
-0.04514749 0.69099349 0.03530601
-0.28177106 0.11973105 0.11910513
-0.39708373 -0.15865439 0.01295904
-0.10391011 0.01808831 0.00001030
-0.38952556 -0.14040717 0.00739252
-0.23239133 0.23894723 0.03361446
-0.30068123 0.36376771 -0.02763482
-0.38279551 -0.12416111 0.05449244
-0.23814435 0.11300013 0.00000756
-0.28539744 -0.30291986 0.00000229
-0.33887911 -0.52726781 0.00000153
-0.22192691 -0.23911083 0.00000244
-0.28110772 0.12132888 0.22056437
-0.04770737 -0.10925067 0.00000266
-0.05588551 0.37369505 0.00000835
-0.44234702 -0.26793256 0.09716795
-0.30737221 -0.10316786 0.00000308
-0.39730334 -0.15919442 0.28915030
-0.13352878 0.28687778 0.00000783
-0.65859514 -0.78999805 0.02871114
-0.34654352 -0.03664871 0.26825514
-0.58440852 -0.61089611 0.01215638
-0.12258237 0.50405049 0.00188183
-0.45172673 -0.29058284 0.25567132
-0.14992203 0.43804225 0.12669665
-0.09971426 0.11686336 0.00000962
-0.32945523 -0.38344958 0.00000206
-0.05029564 -0.74353278 0.00000029
-0.29197437 -0.44188881 0.00000178
-0.20788585 -0.31021613 0.00000215
-0.36185500 0.27462095 -0.03322048
-0.27622995 -0.70607698 0.00000077
-0.30973148 -0.44859704 0.00000179
-0.11484788 -0.33061439 0.00000193
-0.00661598 -0.68453294 0.00000044
-0.42472133 -0.38083300 0.00000221
-0.54681134 -0.52013052 0.06629664
-0.64920068 -0.76731855 0.13880086
-0.04123381 0.74492729 -0.00423855
-0.30077010 -0.60212064 0.00000120
-0.50037706 -0.79488289 0.00000077
-0.11802102 0.39492685 0.00000726
-0.29391024 0.00103708 0.00000756
-0.14476590 0.34743309 0.00000721
-0.35760936 -0.07444439 0.00000326
-0.00553594 0.07274282 0.00001137
-0.24291016 0.21355033 0.09597732
-0.41191566 -0.19446723 0.16412596
-0.07638809 0.09067620 0.00001017
-0.12443154 0.49958432 0.05419101
-0.18338518 -0.13406760 0.00000277
-0.35192785 -0.32253823 0.00000232
-0.30592871 -0.06253230 0.00000323
-0.15886576 0.63220650 -0.02058072
-0.03679095 0.30237669 0.00000918
-0.54235041 -0.77477241 0.00000091
-0.43802235 -0.25749812 0.27135742
-0.36964762 -0.09242202 0.13122757
-0.52767736 -0.60939044 0.00000151
-0.46207961 -0.37933034 0.00000227
-0.22513640 -0.70814782 0.00000068
-0.26010659 -0.61553699 0.00000108
-0.02180759 -0.31902969 0.00000184
-0.50898814 -0.42881569 0.02307959
-0.68282914 0.01087999 -0.08199483
-0.16550262 -0.40649238 0.00000173
-0.31135935 -0.08446233 0.00000315
-0.04539662 -0.40245047 0.00000156
-0.32168627 0.02336813 0.09403103
-0.60915530 -0.67064285 0.18572102
-0.42100200 -0.21640202 0.12036257
-0.17500582 -0.09291819 0.00000292
-0.41236219 -0.19555120 0.33158252
-0.24993397 -0.33648407 0.00000212
-0.75298738 0.02504173 -0.09950827
-0.01547413 -0.52737415 0.00000105
-0.00199523 0.69955266 0.00000672
-0.07613992 -0.13867135 0.00000259
-0.44303745 -0.26960787 0.33374980
-0.29119849 -0.00839111 0.00000341
-0.60985476 -0.71965617 0.00000122
-0.02851440 0.35405108 0.00000891
-0.15671678 -0.48503721 0.00000142
-0.13646992 -0.15018797 0.00000264
-0.75170839 -0.18090878 -0.07956304
-0.57025421 -0.57672501 0.02506617
-0.45536801 -0.39770389 0.00000220
-0.16602592 -0.00663764 0.00000323
-0.37477061 -0.44354889 0.00000190
-0.21432514 -0.46562868 0.00000158
-0.01607175 0.64317054 0.00000693
-0.42835286 -0.23415530 0.31061614
-0.10366058 -0.37000084 0.00000177
-0.44889203 -0.48100582 0.00000187
-0.50651896 -0.59883320 0.00000152
-0.77319205 -0.07908656 -0.09422723
-0.17263144 -0.33499682 0.00000200
-0.65101588 -0.08452897 -0.06556389
-0.08320599 0.59911036 0.08881387
-0.35496020 -0.05696893 0.28264463
-0.26605177 -0.73448110 0.00000065
-0.25915512 -0.50066972 0.00000151
-0.17880517 0.14729898 0.00000820
-0.20220280 -0.56083375 0.00000120
-0.08916261 -0.32010877 0.00000193
-0.52122539 0.10355320 -0.05361008
-0.28984797 0.10023280 0.08814605
-0.57784361 -0.59505069 0.11677364
-0.34426001 -0.16960861 0.00000288
-0.44264898 -0.58840245 0.00000146
-0.24540164 0.20753391 0.13742976
-0.66945958 -0.05859409 -0.07228707
-0.44269761 0.15916575 -0.04082672
-0.05003612 -0.69024163 0.00000049
-0.11616494 0.03764123 0.00000996
-0.48963436 -0.38209209 0.03640015
-0.52427709 -0.46573055 0.13839781
-0.24853608 -0.23474678 0.00000249
-0.39071244 -0.14328022 0.22276162
-0.27654937 -0.10022614 0.00000304
-0.28246126 -0.79881495 0.00000043
-0.15243851 0.00608763 0.00000965
-0.41743514 -0.35816783 0.00000229
-0.11665329 0.25471315 0.00000833
-0.41115946 -0.19264515 0.26401567
-0.43440771 0.29214382 -0.05160619
-0.56317019 -0.72626168 0.00000113
-0.41356629 -0.19844708 0.02094141
-0.31726718 -0.22870293 0.00000262
-0.34647605 -0.03648411 0.22049400
-0.29713199 -0.50291800 0.00000156
-0.27312836 0.11787168 0.00000699
-0.23407786 -0.59266382 0.00000113
-0.39663848 -0.38605511 0.00000215
-0.27209193 0.14309251 0.28646752
-0.11099779 -0.48937213 0.00000133
-0.17787039 0.37056994 0.10069517
-0.46940988 -0.59811014 0.00000147
-0.69534534 -0.06544477 -0.07759637
-0.24321933 -0.45260921 0.00000167
-0.53689694 -0.49619606 0.09712200
-0.63991672 -0.74490553 0.10394259
-0.19373246 0.33227301 0.17260700
-0.38081869 -0.11939518 0.23904832
-0.11709111 0.28958178 0.00000806
-0.34964365 -0.51036906 0.00000161
-0.17983805 -0.71729124 0.00000058
-0.45858693 -0.72186995 0.00000098
-0.48555386 -0.37224737 0.21774726
-0.53409350 -0.59964889 0.00000156
-0.63079584 -0.77230734 0.00000106
-0.46660903 -0.37122190 0.00000231
-0.30909669 -0.75619763 0.00000063
-0.00305554 0.57735264 0.00000762
-0.52956241 -0.76843166 0.00000092
-0.42104918 -0.21651261 0.02862657
-0.05841399 -0.04706281 0.00000291
-0.00463522 -0.65567356 0.00000051
-0.28102615 0.12152834 0.14973816
-0.26701108 0.15536582 0.09059219
-0.46987957 -0.33439958 0.03074226
-0.30960971 -0.47415552 0.00000169
-0.37211555 -0.41974005 0.00000199
-0.61924648 0.01456502 -0.06769922
-0.41682175 -0.20631661 0.30521727
-0.23447625 -0.79410148 0.00000038
-0.45401931 -0.47178385 0.00000192
-0.51415956 -0.44130853 0.29923552
-0.36376709 -0.07822787 0.20595479
-0.36854088 -0.44058463 0.00000190
-0.01914001 -0.74656022 0.00000023
-0.64820445 -0.07654059 -0.06567846
-0.09241426 0.46685854 0.00000710
-0.28256047 0.11782367 0.16352220
-0.71248674 -0.23637819 -0.06523552
-0.45110127 -0.28907186 0.22891633
-0.55557853 0.20262311 -0.07097741
-0.47108981 -0.33732817 0.22029190
-0.49960437 -0.46517384 0.00000201
-0.23463872 -0.30587664 0.00000221
-0.47415125 -0.64361298 0.00000130
-0.58765203 -0.61873066 0.12417305
-0.62989789 -0.72071701 0.01092166
-0.40959311 0.37278369 -0.05358468
-0.53554076 -0.49291924 0.02039938
-0.39052674 -0.14282694 0.08440770
-0.47936219 -0.50331312 0.00000184
-0.13696584 -0.76798791 0.00000033
-0.37903523 -0.11509171 0.29965514
-0.35216996 0.41616714 -0.04449616
-0.22595070 0.25449249 0.13916793
-0.40951189 -0.18866855 0.29205000
-0.23290092 0.23771311 0.14168505
-0.11543287 -0.09763839 0.00000281
-0.11177927 0.14824811 0.00000920
-0.07885060 0.71381396 -0.00993523
-0.20286581 -0.78809291 0.00000035
-0.07723852 0.48761821 0.00000718
-0.21100114 -0.76766205 0.00000044
-0.48312715 0.12021358 -0.04642335
-0.19137757 -0.09371813 0.00000294
-0.21081774 0.05211137 0.00000843
-0.28255200 0.11784493 0.14067581
-0.49087346 -0.62320876 0.00000140
-0.18209513 0.03539359 0.00000899
-0.19455214 0.33029747 0.07845074
-0.45694241 0.24477603 -0.05227743
-0.26064458 -0.41436836 0.00000184
-0.29683033 0.08336760 0.32019484
-0.40479958 -0.17728971 0.22725308
-0.53107947 -0.48215356 0.15613425
-0.03819082 -0.26303327 0.00000207
-0.34956634 -0.04394266 0.16165330
-0.31920880 -0.79055333 0.00000052
-0.43404934 -0.24790847 0.32947916
-0.50090104 -0.40930030 0.26169354
-0.11954122 -0.33907366 0.00000191
-0.29892802 0.07831374 0.02808911
-0.21383989 -0.20203538 0.00000257
-0.03500697 -0.31487063 0.00000187
-0.17491069 -0.32989144 0.00000203
-0.39523569 -0.15419658 0.11826127
-0.59699410 -0.64128065 0.01947338
-0.02967480 -0.23467802 0.00000216
-0.03863503 -0.32633251 0.00000183
-0.17001979 0.38952142 0.14370309
-0.33906800 -0.41569012 0.00000195
-0.23095231 -0.61936474 0.00000103
-0.31775960 -0.70266867 0.00000084
-0.59506947 -0.73294717 0.00000115
-0.35254622 -0.05114028 0.26196551
-0.03782103 -0.18544213 0.00000236
-0.44769797 -0.28085169 0.11917958
-0.16623747 0.39865720 0.01889485
-0.78800428 -0.05054292 -0.10036270
-0.04984105 -0.77772099 0.00000016
-0.71507502 -0.01310928 -0.08713477
-0.54396302 -0.51325536 0.10443441
-0.27548096 0.02193032 0.00000768
-0.13317382 -0.08919342 0.00000287
-0.43107203 -0.47457081 0.00000187
-0.29481813 0.08822755 0.26133630
-0.52202535 0.20406929 -0.06338593
-0.27357477 0.13951358 0.25970587
-0.49182895 -0.38739529 0.17754620
-0.65211695 -0.77435875 0.09640299
-0.61454093 -0.68364465 0.15907592
-0.21287173 0.28607053 0.06602074
-0.49450901 -0.73068696 0.00000101
-0.26011229 -0.05727890 0.00000318
-0.33388960 -0.00609283 0.08267011
-0.12813281 -0.33907005 0.00000192
-0.35536692 -0.05794445 0.10478594
-0.31571767 -0.63931644 0.00000108
-0.40087149 -0.16780546 0.19740513
-0.11351129 0.52594846 0.04352585
-0.31851506 -0.11895060 0.00000303
-0.38858280 -0.13813426 0.09428710
-0.26398072 0.16268453 0.01126859
-0.10491030 0.39405259 0.00000746
-0.40427762 -0.40802976 0.00000208
-0.08996412 -0.53377151 0.00000113
-0.35367104 -0.05385919 0.35586336
-0.50170994 0.20263983 -0.05856955
-0.35326204 -0.05286800 0.25065082
-0.48301965 -0.36612985 0.23624174
-0.63914502 0.01188119 -0.07202705
-0.71861738 -0.09697377 -0.07994892
-0.13673779 -0.53885442 0.00000119
-0.55197865 -0.53260958 0.25536555
-0.57476187 -0.58760852 0.05467865
-0.21464783 0.28178060 0.12362174
-0.58823824 -0.62014580 0.19918998
-0.41689476 -0.20649581 0.38842830
-0.30674219 0.05944650 0.08940300
-0.34978577 -0.08951025 0.00000319
-0.03071298 0.72584242 0.00817792
-0.57716769 0.02925873 -0.05940783
-0.02894509 -0.59257197 0.00000082
-0.51808321 -0.45989504 0.00000206
-0.26864827 0.49974322 -0.03323074
-0.15210651 -0.36754006 0.00000185
-0.03627569 -0.72295135 0.00000034
-0.27542412 -0.69879282 0.00000080
-0.69147503 -0.10915153 -0.07253458
-0.34918967 -0.04304095 0.37533757
-0.43607056 -0.25277948 0.08635927
-0.77245808 -0.29416326 -0.07353642
-0.32052261 -0.73747581 0.00000072
-0.43785539 -0.25708926 0.10877311
-0.28423181 -0.62665629 0.00000108
-0.04230638 0.46112621 0.00000790
-0.38308841 -0.12487549 0.25832734
-0.21479037 0.28143936 0.04220183
-0.30591968 0.06143295 0.06819963
-0.02989075 0.76246810 -0.00329937
-0.16176605 0.59309691 -0.01751688
-0.46745533 -0.32854944 0.10113423
-0.25513458 -0.29710174 0.00000227
-0.42695823 -0.54152280 0.00000161
-0.76598436 -0.08330136 -0.09216474
-0.36903971 -0.09095994 0.28517744
-0.11890512 -0.21233574 0.00000238
-0.16106994 0.41113031 0.08674334
-0.47787851 0.21206585 -0.05397908
-0.35605204 -0.09403097 0.00000318
-0.10511579 -0.09437652 0.00000280
-0.11922494 0.27183798 0.00000816
-0.37268278 -0.31074002 0.00000240
-0.48712206 -0.37603593 0.33459470
-0.58478588 -0.61181128 0.21059889
-0.44905028 -0.28411427 0.05854769
-0.02539029 -0.25351313 0.00000209
-0.36219895 -0.07443975 0.14227325
-0.73314571 -0.23135090 -0.07047412
-0.02366703 0.65163636 0.00000676
-0.31652343 -0.59401709 0.00000125
-0.59599984 -0.07007017 -0.05427018
-0.34903216 -0.04265614 0.24882482
-0.08380211 0.59767389 0.01188424
-0.37473723 -0.35416979 0.00000224
-0.10291617 -0.14743321 0.00000260
-0.65194666 -0.05923370 -0.06819183
-0.14226002 -0.43295792 0.00000159
-0.08679413 -0.26870498 0.00000212
-0.26477352 -0.24324045 0.00000249
-0.05742658 -0.15471728 0.00000251
-0.45108715 0.31012344 -0.05716423
-0.78785866 -0.07415225 -0.09807645
-0.64756441 0.04625005 -0.07724618
-0.33446333 -0.00747722 0.06132235
-0.44438395 -0.57143706 0.00000153
-0.64519715 -0.01541839 -0.07081764
-0.74332076 -0.01793550 -0.09318086
-0.09690027 -0.14538333 0.00000260
-0.00364076 0.41113368 0.00000886
-0.49623176 -0.66784924 0.00000124
-0.54445577 0.07587208 -0.05632014
-0.36316395 -0.08859689 0.00000322
-0.05484419 0.06271545 0.00001070
-0.39965758 -0.72911000 0.00000087
-0.26478642 0.16073753 0.06484546
-0.58768475 -0.61880964 0.16895369
-0.03085147 0.44916785 0.00000817
-0.65039557 -0.77020293 0.01407735
-0.40762258 -0.75226158 0.00000079
-0.17479330 -0.21015362 0.00000248
-0.29073212 0.09809012 0.31465584
-0.26101217 -0.76365709 0.00000053
-0.46404037 -0.32031298 0.32316303
-0.03490058 0.67633951 0.00000640
-0.27074009 0.14635672 0.27081430
-0.54359561 0.04524980 -0.05319991
-0.01654630 0.61539692 0.00000713
-0.59341168 -0.72934550 0.00000116
-0.15080073 0.38705480 0.00000682
-0.34424752 -0.03110477 0.24216238
-0.37487659 -0.18039402 0.00000289
-0.62572443 -0.00487562 -0.06733791
-0.15968643 -0.15324727 0.00000267
-0.09564714 -0.79114759 0.00000018
-0.62829369 0.01115407 -0.06945789
-0.43542191 -0.25121060 0.00519366
-0.18695705 0.34863418 0.06309026
-0.59649783 -0.64008570 0.12799425
-0.41955680 0.31714025 -0.05057030
-0.24300025 0.21333276 0.09786811
-0.20505385 -0.04287302 0.00000315
-0.03925814 -0.26371342 0.00000207
-0.36590892 -0.08340277 0.31972238
-0.13795616 -0.66996580 0.00000070
-0.06721945 -0.67832112 0.00000056
-0.49724659 -0.44860673 0.00000207
-0.22430529 -0.79378438 0.00000036
-0.08021539 0.60633165 0.04847867
-0.40776008 -0.77911133 0.00000069
-0.06727255 -0.28863016 0.00000202
-0.21252708 0.11529890 0.00000793
-0.37157941 -0.09709454 0.37617615
-0.10342856 0.55029088 0.02856752
-0.39081222 -0.14352715 0.39116982
-0.42082697 -0.27881083 0.00000259
-0.15824176 0.41795632 0.13662349
-0.23693003 0.22798358 0.20901379
-0.00915065 -0.29595637 0.00000183
-0.69328159 0.08611580 -0.09158194
-0.20779261 -0.40581506 0.00000179
-0.19284265 -0.50832176 0.00000138
-0.14546897 -0.29825410 0.00000210
-0.08555273 -0.23398754 0.00000225
-0.30892947 -0.05244728 0.00000327
-0.39181903 -0.14595279 0.25071189
-0.11160407 0.31079796 0.00000799
-0.26976952 -0.55124915 0.00000134
-0.12821037 0.49046209 0.03571605
-0.39215732 -0.14676297 0.06754697
-0.45524186 -0.37929243 0.00000226
-0.01171636 -0.59196854 0.00000080
-0.36468297 -0.08043708 0.15312445
-0.24137209 -0.44206962 0.00000171
-0.50878453 -0.42833018 0.19163281
-0.50071710 -0.62307781 0.00000142
-0.39746359 -0.66702813 0.00000110
-0.35775089 -0.53725058 0.00000153
-0.27431175 -0.75965363 0.00000057
-0.24867009 0.19963957 0.23845480
-0.45186418 -0.29091796 0.36185747
-0.31705290 0.03454969 0.21659775
-0.48603767 0.28381333 -0.06270504
-0.36078671 -0.07103085 0.15759166
-0.01612981 -0.35097659 0.00000171
-0.21149617 -0.59587932 0.00000108
-0.18381132 0.35622841 0.06875340
-0.30329695 -0.16365829 0.00000284
-0.08024072 -0.06093939 0.00000289
-0.23113196 0.24198467 0.11616159
-0.15853173 0.41725868 0.07047059
-0.38249218 -0.31573758 0.00000239
-0.21092761 0.49577835 -0.01955556
-0.53790927 -0.49864396 0.23438041
-0.53862691 -0.50037521 0.17066784
-0.37491709 -0.48754546 0.00000174
-0.33736920 -0.01449837 0.22429577
-0.38927305 -0.13981090 0.38043019
-0.18155880 0.17555049 0.00000794
-0.01171547 0.77170640 0.00837687
-0.00866775 -0.07509812 0.00000267
-0.50855654 -0.68983197 0.00000118
-0.16478498 -0.11212720 0.00000283
-0.28053725 0.12270422 0.27367058
-0.05761952 -0.19784164 0.00000235
-0.53418529 -0.66266668 0.00000132
-0.55030549 -0.52856582 0.05916945
-0.39269280 -0.71924162 0.00000090
-0.21854548 0.10091860 0.00000795
-0.23498605 0.49784306 -0.02529481
-0.16285741 0.40681574 0.06359650
-0.17637318 -0.49249175 0.00000142
-0.27130184 0.14500329 0.19472723
-0.47759056 0.17146760 -0.05003873
-0.27984509 -0.45324141 0.00000172
-0.38548529 -0.13065580 0.08331497
-0.14192119 0.45736119 0.03726599
-0.57117003 -0.57893574 0.01763400
-0.45571178 0.30608809 -0.05784453
-0.22116195 0.26605070 0.21916656
-0.13474543 0.47468311 0.08901133
-0.32733709 -0.05766158 0.00000328
-0.13070264 0.48444253 0.11019332
-0.11262309 -0.30601612 0.00000202
-0.25403106 0.02454394 0.00000798
-0.52984232 -0.47916907 0.23293331
-0.35346049 -0.67882591 0.00000099
-0.64241558 -0.04648927 -0.06721229
-0.10033911 0.14464743 0.00000940
-0.71157360 0.05150831 -0.09249343
-0.52851182 -0.47595203 0.07808301
-0.07684353 -0.27393016 0.00000209
-0.41796133 -0.20906176 0.13746645
-0.32763946 0.00899003 0.25829655
-0.04409191 -0.28883713 0.00000198
-0.32068157 -0.51040572 0.00000157
-0.27792922 0.12900805 0.06415463
-0.05139899 0.45733094 0.00000779
-0.66622299 -0.17465051 -0.06046808
-0.47851747 -0.39563271 0.00000224
-0.20402087 0.30743399 0.18928941
-0.12724008 -0.27447125 0.00000216
-0.39852378 -0.16213232 0.05132454
-0.55384272 -0.53710985 0.22875649
-0.69324839 -0.04136565 -0.07941081
-0.32634473 -0.08769577 0.00000316
-0.59057486 -0.62578654 0.11147370
-0.67599636 -0.83200741 0.09916510
-0.52248114 -0.46139809 0.25598362
-0.34382376 -0.69305634 0.00000092
-0.63912821 -0.07012989 -0.06419937
-0.02508822 -0.43967205 0.00000139
-0.63790429 -0.00289369 -0.07033136
-0.12144464 -0.04931876 0.00000300
-0.25613239 0.18163021 0.06397319
-0.11933626 0.33196196 0.00000771
-0.32084882 0.02539264 0.01965143
-0.43725574 -0.25565085 0.36944002
-0.30420530 -0.20789108 0.00000268
-0.23041190 -0.08601571 0.00000303
-0.61998838 0.11488027 -0.07744252
-0.24995004 0.19655658 0.03924528
-0.07702761 -0.02669805 0.00000302
-0.07537852 0.12487185 0.00000993
-0.31769580 0.35269690 -0.03049798
-0.40017909 -0.21746865 0.00000279
-0.38991499 -0.14135346 0.17954341
-0.61903799 -0.72231269 0.00000123
-0.01932644 0.47530940 0.00000814
-0.69237733 0.07896286 -0.09069107
-0.24791199 0.00199641 0.00000824
-0.03937554 0.52514315 0.00000747
-0.30788365 0.05668405 0.27706951
-0.09784865 -0.59837288 0.00000090
-0.19024269 -0.00486111 0.00000327
-0.53532988 -0.73859578 0.00000104
-0.36906454 -0.09101200 0.06510549
-0.16192183 0.16242979 0.00000834
-0.57936293 0.20724905 -0.07689795
-0.19111560 0.58628756 -0.02362823
-0.12765136 -0.04323224 0.00000303
-0.55614352 -0.68302512 0.00000128
-0.46234986 -0.31622350 0.09240078
-0.30917007 0.05357741 0.30334452
-0.24991392 0.19663559 0.26868454
-0.19930895 0.05029133 0.00000862
-0.60580301 -0.66254926 0.07704303
-0.21035679 -0.47914281 0.00000152
-0.45852870 -0.42496037 0.00000210
-0.45945224 -0.30923405 0.26162237
-0.50193852 0.28425452 -0.06641014
-0.65814561 -0.03845832 -0.07160206
-0.47386998 -0.78048384 0.00000079
-0.37984049 -0.11703537 0.28863207
-0.11774704 0.15633205 0.00000905
-0.57284129 -0.58297211 0.06059637
-0.04391194 0.63866705 0.00000655
-0.27278730 0.14142153 0.07001657
-0.37096068 -0.45825395 0.00000184
-0.59026450 0.05223216 -0.06461709
-0.63740748 -0.73884672 0.00939456
-0.00208072 -0.46987733 0.00000123
-0.50397247 -0.54111749 0.00000173
-0.30552024 -0.22288090 0.00000263
-0.37256101 -0.72034132 0.00000086
-0.32860437 0.00666221 0.21229438
-0.27141014 -0.27238077 0.00000239
-0.39038801 -0.14249770 0.24264123
-0.41986713 -0.21366678 0.24960563
-0.21412194 -0.49765217 0.00000146
-0.06551713 -0.30702391 0.00000195
-0.49143499 0.13410372 -0.04966263
-0.27799132 -0.69990927 0.00000079
-0.35625255 -0.06009167 0.36088228
-0.36811540 -0.79426783 0.00000058
-0.17067191 -0.00555571 0.00000324
-0.56675315 -0.72096235 0.00000115
-0.35156536 -0.06257313 0.00000330
-0.13967711 0.46277770 0.07128386
-0.25881520 0.46735314 -0.02787478
-0.69067609 -0.14488278 -0.06894126
-0.67778891 -0.10078502 -0.07018017
-0.43361592 -0.31546667 0.00000247
-0.45302057 -0.29370683 0.26746705
-0.39710209 -0.15869968 0.03943135
-0.47296911 -0.34186852 0.31406915
-0.74623942 -0.02884157 -0.09281260
-0.44082686 -0.26426262 0.09795050
-0.60428244 -0.77597111 0.00000100
-0.00419522 -0.21080092 0.00000218
-0.06092284 0.65290946 0.00671406
-0.65732813 -0.07304996 -0.06811322
-0.47903267 -0.35650313 0.19875599
-0.04368829 0.54483038 0.00000725
-0.56985140 -0.57575715 0.23100492
-0.68171954 -0.19579530 -0.06202029
-0.17269942 0.36665386 0.00000664
-0.64809412 -0.15949480 -0.05773804
-0.36067200 -0.07075285 0.12751631
-0.31004393 -0.20150866 0.00000271
-0.71828753 -0.09975287 -0.07960776
-0.60206324 -0.65351945 0.04332838
-0.61054301 0.14303248 -0.07795301
-0.00087924 0.08463979 0.00001135
-0.06771950 -0.76017392 0.00000025
-0.36177266 -0.51851946 0.00000160
-0.76212847 -0.06931856 -0.09261067
-0.37780139 -0.11210341 0.03149973
-0.00893508 -0.16647226 0.00000239
-0.00053639 0.42717758 0.00000879
-0.43426311 -0.62158287 0.00000132
-0.15330908 0.42986715 0.07296055
-0.26367140 -0.06433655 0.00000316
-0.14761697 0.44360751 0.11727622
-0.13603635 0.12550172 0.00000901
-0.15232928 0.43223199 0.08949849
-0.46426776 0.12818925 -0.04283986
-0.10232059 0.30566239 0.00000816
-0.30818048 0.05596632 0.30835608
-0.25769162 -0.68086380 0.00000084
-0.27482069 0.13651349 0.04278599
-0.16306639 0.15758477 0.00000836
-0.67355043 -0.00436961 -0.07840320
-0.22724028 -0.08715256 0.00000302
-0.04501886 0.69130480 0.01344737
-0.47021702 -0.33521503 0.05231764
-0.74621493 -0.09289731 -0.08669514
-0.23572212 -0.61298513 0.00000106
-0.34895661 0.39666665 -0.04189512
-0.11827176 0.41909200 0.00000707
-0.62798697 0.03905481 -0.07204962
-0.46010289 -0.31080279 0.20319030
-0.42164019 -0.65046519 0.00000120
-0.16060403 -0.67464620 0.00000071
-0.24070203 0.54689217 -0.03129200
-0.35011071 -0.69485790 0.00000092
-0.20393018 -0.52872455 0.00000132
-0.46757823 -0.32884651 0.10921064
-0.33981237 -0.02038916 0.01133882
-0.34729850 -0.03846424 0.06779788
-0.37513563 -0.10567627 0.27174541
-0.15383492 0.40098503 0.00000667
-0.68201494 -0.13026448 -0.06834091
-0.35852438 -0.58564627 0.00000134
-0.30807573 0.05622036 0.27750969
-0.57039464 0.06793147 -0.06153783
-0.38398939 -0.12705123 0.27510110
-0.37077886 -0.09515392 0.15542100
-0.43297917 -0.24531388 0.02169769
-0.42811564 -0.23357910 0.21245925
-0.18791769 -0.34564766 0.00000199
-0.24132484 0.12664683 0.00000741
-0.32125553 -0.12944110 0.00000300
-0.35172939 -0.71465838 0.00000085
-0.49460408 -0.39409584 0.19956970
-0.15544315 -0.46022725 0.00000151
-0.47865692 -0.35559770 0.24712230
-0.48716795 -0.37614611 0.27362320
-0.37250409 -0.52274221 0.00000160
-0.32230437 0.02187756 0.04937848
-0.44108802 -0.62087989 0.00000134
-0.41176584 0.29256073 -0.04643008
-0.37883869 -0.11460662 0.00259757
-0.73428488 0.04759735 -0.09735213
-0.53438306 -0.49012831 0.13282862
-0.42270598 -0.22052510 0.38060012
-0.29381773 -0.74392349 0.00000065
-0.49197805 -0.38775897 0.29283071
-0.31869647 -0.65765262 0.00000101
-0.04861417 0.35349187 0.00000862
-0.14902934 -0.27114823 0.00000221
-0.10878648 -0.05691062 0.00000295
-0.57542509 -0.58921289 0.20809649
-0.30132276 -0.31175819 0.00000229
-0.38562769 -0.13100560 0.25200036
-0.02947503 0.72883028 0.03172894
-0.46310890 -0.31805539 0.07657935
-0.18527476 -0.34319293 0.00000199
-0.09904515 0.38442776 0.00000762
-0.19831230 0.32121709 0.14991906
-0.39983550 -0.52270782 0.00000164
-0.11613671 0.24852647 0.00000838
-0.25349766 0.47670197 -0.02754190
-0.07386215 0.49928907 0.00000714
-0.22527640 0.00901321 0.00000853
-0.35846001 -0.06540873 0.01859776
-0.45536700 -0.29936528 0.08963548
-0.39062515 0.38952059 -0.05081221
-0.41611537 -0.31748679 0.00000244
