ply
format ascii 1.0
element vertex 161
property float x
property float y
property float z
end_header
-0.21574861 0.47860375 0.11955679
-0.19801550 0.29663494 0.34554675
-0.28631175 0.20796040 0.34597537
-0.35652781 0.26972347 0.19662304
-0.43460077 0.15842837 0.23421867
-0.14157911 0.51613557 0.16101712
-0.39249143 0.16691284 0.27227020
-0.52252835 0.12170075 0.17627770
-0.25722134 0.35899061 0.20798378
-0.44546562 0.20666273 0.16733879
-0.19530909 0.21058606 0.44598538
-0.45695060 0.18535008 0.17846027
-0.38580951 0.38978466 0.02761850
-0.36532617 0.41338944 0.02408620
-0.31856492 0.20041661 0.31801355
-0.14909357 0.42730719 0.25303489
-0.28452989 0.44385654 0.08104173
-0.03933261 0.71021110 0.05709951
-0.38770145 0.37135676 0.04633149
-0.42853609 0.12017971 0.28436586
-0.52239841 0.26069942 0.01912640
-0.42891327 0.20870011 0.18376479
-0.17672569 0.43751791 0.21021076
-0.37491101 0.40326411 0.02469783
-0.33930948 0.21875024 0.27379140
-0.25931051 0.33596143 0.23168026
0.46018961 0.22244976 0.00000081
-0.52435535 0.25655150 0.02160582
-0.23552604 0.26670045 0.33697364
-0.33118275 0.32964256 0.15749732
-0.59490132 0.09009328 0.13014498
-0.19934309 0.48192459 0.13436407
-0.16575290 0.36111790 0.30908483
-0.34657362 0.31528237 0.15633088
-0.43362832 0.12721866 0.27063772
-0.10594281 0.48395294 0.23776321
-0.68923795 0.07662578 0.03862876
-0.22046605 0.27037510 0.34985760
-0.23351087 0.23418145 0.37605372
-0.21938281 0.41630420 0.18594489
-0.31999210 0.33531752 0.16373922
-0.34456617 0.35753453 0.11078784
-0.16383468 0.37937903 0.29059061
-0.38865691 0.14774275 0.29830301
-0.26665616 0.40851292 0.14126541
-0.31168932 0.16403434 0.36696565
-0.39763033 0.36127585 0.04650349
-0.11657430 0.53098726 0.17250659
-0.33233908 0.45215926 0.01754231
-0.51970047 0.22354031 0.06423079
-0.48693112 0.27870700 0.03888492
-0.18877061 0.45038101 0.18202402
-0.29600078 0.44042897 0.07193944
-0.47365028 0.26789072 0.06615455
-0.15532511 0.39032593 0.28783238
-0.68162203 0.10959224 0.00994077
-0.21861964 0.24713279 0.37824887
-0.66371953 0.05056233 0.09700168
-0.23949116 0.20890491 0.39789009
-0.64764953 0.14454706 0.00882927
-0.63135821 0.07377554 0.10735431
-0.36096689 0.32043344 0.13421342
-0.03568629 0.74079698 0.02661373
-0.41450867 0.37171054 0.01559453
-0.21375640 0.55683970 0.03327529
-0.57973135 0.11723954 0.11659205
-0.22865134 0.23600651 0.37948760
-0.68974119 0.06527578 0.05090352
-0.26142564 0.27853751 0.29426965
-0.37036893 0.34918398 0.09103786
-0.47321299 0.25321364 0.08325878
-0.18262155 0.24028161 0.42673841
-0.29611403 0.22193868 0.31906450
-0.28843114 0.27150705 0.27166536
-0.16145401 0.45803499 0.20427477
-0.21259712 0.36319426 0.25372487
-0.30906734 0.26604629 0.25449243
-0.48023295 0.30655038 0.01495587
-0.02127874 0.75960582 0.02163297
-0.16684838 0.43091950 0.22885521
-0.22913717 0.27763453 0.33183008
-0.48083094 0.20826624 0.12550275
-0.15302917 0.39367813 0.28663707
-0.52508795 0.22544286 0.05598099
-0.17741261 0.60546255 0.01937980
-0.23043022 0.47502434 0.10699288
-0.47609618 0.17128146 0.17271484
-0.20245288 0.41370949 0.20803955
-0.28537354 0.47979289 0.03941952
-0.28620082 0.26263887 0.28422481
-0.15539877 0.47998551 0.18628709
-0.17798662 0.51912963 0.11642913
-0.59483856 0.16984513 0.03996455
-0.14391109 0.63835138 0.02007330
-0.16260433 0.44490317 0.21783349
-0.30230901 0.20681006 0.32917416
-0.17628384 0.58327639 0.04576423
-0.55537665 0.10122936 0.16227119
-0.54069144 0.23347141 0.02923764
-0.48317504 0.17571089 0.15969141
-0.47365597 0.31338555 0.01466372
-0.08527413 0.53989410 0.19784749
-0.73929286 0.03721773 0.02658000
-0.68803710 0.03543448 0.08660201
-0.13010351 0.38301891 0.32464278
-0.37501681 0.28290832 0.16077913
-0.33422095 0.37073514 0.10755655
-0.43028015 0.31502679 0.06189298
-0.15423386 0.49071664 0.17546161
-0.16111070 0.47406536 0.18652274
-0.21401046 0.49316773 0.10504240
-0.16719662 0.38895470 0.27594998
-0.23407947 0.24472018 0.36348429
-0.24586558 0.22331420 0.37437055
-0.52221364 0.24653399 0.03536586
-0.09710821 0.60821331 0.10714326
0.36866426 0.37077364 0.00000009
-0.40715003 0.18949524 0.23012657
-0.17794479 0.31228641 0.35054758
-0.10488415 0.57061058 0.14089637
-0.27336270 0.23514858 0.32986179
-0.30334863 0.37751374 0.13482243
-0.19399060 0.24818285 0.40493155
-0.54629463 0.10608462 0.16705444
-0.16322635 0.53890705 0.11075145
-0.23788938 0.29146999 0.30626914
-0.18877128 0.32111421 0.32830617
-0.36830184 0.25156128 0.20385218
-0.32707244 0.19406113 0.31557828
-0.41154972 0.14475515 0.27577770
-0.31143054 0.33828640 0.17006823
-0.26743844 0.22909592 0.34341526
-0.23457982 0.36432245 0.22757190
-0.45659080 0.29834229 0.05099941
-0.54344726 0.13415197 0.13851419
-0.21289694 0.23620258 0.39709386
-0.55058420 0.11356749 0.15373214
-0.67050713 0.07142019 0.06571656
-0.15659784 0.31376430 0.37303200
-0.19808288 0.40186074 0.22639325
-0.41318637 0.29031757 0.10919956
-0.28764164 0.19075221 0.36394382
-0.40829805 0.31999826 0.08114321
-0.18209180 0.35972595 0.29217044
-0.68112069 0.06732671 0.05833803
-0.20579669 0.54305315 0.05788456
-0.09939186 0.56498051 0.15348279
-0.45645154 0.11074100 0.26345667
-0.21879818 0.27618185 0.34517390
-0.26680937 0.25540960 0.31434962
-0.20215175 0.47478506 0.13926505
-0.19450077 0.49754140 0.12217120
-0.43258154 0.35722315 0.01153693
-0.38930660 0.21991017 0.21590006
-0.25698194 0.32896441 0.24223341
-0.21889877 0.18858692 0.44418558
-0.13374658 0.47836572 0.21262234
-0.08322722 0.55505222 0.18301038
-0.29512540 0.46908233 0.04050441
-0.63126445 0.11256609 0.06356294
-0.48658058 0.22427328 0.10088170
