ply
format ascii 1.0
element vertex 114
property float x
property float y
property float z
end_header
-0.76960522 0.06983566 0.02555563
-0.25174320 0.71147627 0.10575488
-0.46915913 0.71111983 0.24639675
-0.23203561 0.65740454 0.05795029
-0.48897955 0.44019714 0.08369768
-0.50549901 0.46733284 0.11198337
-0.52260089 0.44746497 0.11019125
-0.28920740 0.71556491 0.13267870
-0.58248281 0.58422500 0.23760325
-0.67010391 0.16808465 0.02474392
-0.70724529 0.49163425 0.25844851
-0.21068768 0.68449891 0.06167355
-0.67783618 0.36376119 0.15653937
-0.64327180 0.48463586 0.21246287
-0.53587306 0.33222076 0.04412016
-0.17838469 0.74721515 0.08137962
-0.47050408 0.34550044 0.01036956
-0.69691080 0.28947952 0.12076892
-0.10369641 0.70878094 0.00808314
-0.44467905 0.69195276 0.21811593
-0.67565179 0.17713833 0.03420478
-0.69477677 0.20707060 0.06599069
-0.60014874 0.29649270 0.06261731
-0.60591650 0.36549282 0.11106195
-0.70922208 0.25657403 0.10742527
-0.58779627 0.39298856 0.11713661
-0.59602964 0.23459870 0.01984519
-0.58156562 0.23588607 0.01130755
-0.70091075 0.35084188 0.16311936
-0.43795049 0.71043193 0.22572966
-0.73569709 0.36343199 0.19381626
-0.44592756 0.54386181 0.12297055
-0.79124731 0.02608944 0.01123368
-0.42169660 0.57574737 0.12793016
-0.09231326 0.73484999 0.01759860
-0.57611328 0.58051497 0.23107228
-0.28037730 0.62571812 0.06874194
-0.50353098 0.52980161 0.15118383
-0.55769265 0.33940163 0.06291060
-0.67095459 0.41975173 0.18835869
-0.78718835 0.07310529 0.03906688
-0.70645058 0.28183559 0.12199733
-0.04837617 0.76773816 0.01043950
-0.53631705 0.70739079 0.28749496
-0.58165854 0.63643777 0.27090007
-0.25660464 0.69254833 0.09664059
-0.55858439 0.32388371 0.05343381
-0.63125616 0.34702137 0.11551218
-0.53012472 0.66762173 0.25771460
-0.08617109 0.77935332 0.04245430
-0.70576900 0.43307289 0.21954753
-0.65594381 0.19051880 0.03010491
-0.52714789 0.67114544 0.25806895
-0.71977752 0.24502397 0.10678084
-0.47106662 0.70030278 0.24062386
-0.13514610 0.77375066 0.07055704
-0.37105685 0.47979027 0.03294497
-0.68733460 0.58932269 0.30884409
-0.27839917 0.69228840 0.11059374
-0.45621997 0.46792647 0.08043832
-0.75752676 0.22343709 0.11725309
-0.36303142 0.72886598 0.18913069
-0.51667607 0.40884262 0.08132761
-0.23868753 0.75905275 0.12812243
-0.59498453 0.59320021 0.25151905
-0.35486045 0.64503986 0.12952183
-0.27240768 0.59870249 0.04607380
-0.67491186 0.13975558 0.00950381
-0.33490419 0.47994873 0.00962301
-0.56607682 0.46374241 0.14890759
-0.28338683 0.62560779 0.07062044
-0.67208761 0.48146230 0.22907753
-0.06175263 0.76201993 0.01540156
-0.61255550 0.24831314 0.03943895
-0.58932984 0.54987693 0.21978413
-0.47431335 0.69075412 0.23654056
-0.44810897 0.41537234 0.04113131
-0.73910934 0.10771964 0.03034254
-0.64259815 0.62562782 0.30338115
-0.45233876 0.46642402 0.07695005
-0.64529514 0.42783722 0.17697185
-0.69356948 0.24216761 0.08794896
-0.46242601 0.43643838 0.06405724
-0.59234345 0.27321965 0.04248058
-0.56121373 0.47365484 0.15217921
-0.54971236 0.68383539 0.28091177
-0.27581474 0.71764821 0.12535091
-0.59019494 0.34172350 0.08547444
-0.59394109 0.46488410 0.16770162
-0.66661602 0.27968186 0.09479158
-0.72331011 0.18198749 0.06822629
-0.49898949 0.57896036 0.18009327
-0.65295988 0.23103794 0.05442524
-0.06021581 0.78323495 0.02815188
-0.37199369 0.46537027 0.02420878
-0.12674811 0.70200276 0.01862737
-0.28604218 0.60546899 0.05929233
-0.65965289 0.24851440 0.07008547
-0.41833466 0.54149938 0.10356140
-0.39425787 0.64175582 0.15292118
-0.55853939 0.41849455 0.11470620
-0.45228601 0.69832593 0.22717424
-0.64620644 0.32180876 0.10886290
-0.57855618 0.68402708 0.29972509
-0.52515984 0.47184488 0.12764585
-0.54139465 0.27196455 0.00865578
-0.69868481 0.19939514 0.06354965
-0.76428044 0.16011935 0.08060335
-0.55358410 0.57793576 0.21480350
-0.30121380 0.73982745 0.15617891
-0.64893919 0.54622275 0.25603980
-0.49784938 0.48203513 0.11655301
-0.35304672 0.47148588 0.01589485
-0.60061777 0.68306297 0.31339502
