ply
format ascii 1.0
element vertex 1107
property float x
property float y
property float z
end_header
0.04723918 -0.57357937 0.03067725
0.13935250 -0.44037718 0.09049590
0.01829277 -0.55729008 0.01187938
0.28149199 -0.73271406 0.18280166
0.03506886 0.74313533 0.02277404
0.01579327 -0.71603197 0.01025619
0.61177462 -0.27569667 0.39728689
0.20389885 -0.13951522 0.13241246
0.05568667 -0.58706987 0.03616308
0.25756675 -0.50362998 0.16726457
0.55564481 -0.67724264 0.36083707
0.30097562 -0.46101215 0.19545439
0.64680213 -0.10009293 0.42003337
0.20664051 0.00813041 0.13420334
0.19213846 -0.28990558 0.12477525
0.14394116 0.00722555 0.09348724
0.23394172 0.44694394 0.15192331
0.64781153 -0.72005773 0.42069042
0.60023487 -0.31865951 0.38979313
0.57712084 -0.01250350 0.37478238
0.32210001 -0.38689944 0.20917264
0.41884518 -0.64523846 0.27199921
0.22401728 -0.57165956 0.14547743
0.54105437 0.08695350 0.35136208
0.62431329 -0.65078753 0.40543041
0.11654789 -0.68136865 0.07568652
0.53155011 0.16481082 0.34518853
0.31932592 -0.31915444 0.20737115
0.13805483 -0.14439416 0.08965319
0.45573249 0.22842897 0.29595318
0.45560235 -0.33491427 0.29586911
0.48823360 0.17235883 0.31705979
0.22351302 -0.73234540 0.14514998
0.10291876 -0.14466579 0.06683573
0.05355664 -0.72765189 0.03477983
0.53852636 -0.54378009 0.34972015
0.20287967 0.52794534 0.13175067
0.60887748 -0.22677805 0.39540544
0.20684399 -0.21983238 0.13432506
0.42037332 -0.61372381 0.27299157
0.46912912 -0.08472244 0.30465290
0.29359844 -0.74646223 0.19066364
0.57757491 -0.78968370 0.37507871
0.29858845 -0.26810682 0.19390416
0.27617177 0.25629631 0.17935057
0.15175845 -0.49416110 0.09855235
0.59689677 -0.33627000 0.38762540
0.10324437 0.54516816 0.06704975
0.50937706 -0.31424627 0.33079025
0.30484962 0.33912036 0.19797140
0.50020236 -0.37897706 0.32483232
0.22418801 -0.60403711 0.14558831
0.12812594 -0.20231710 0.08320534
0.58471847 -0.07626181 0.37971637
0.08185616 -0.70525730 0.05315762
0.45139217 -0.28386989 0.29313493
0.26976085 -0.50795567 0.17518343
0.23083863 0.13450879 0.14991508
0.38102251 -0.09893370 0.24743672
0.34761432 -0.24287429 0.22574170
0.51752263 0.17233738 0.33607930
0.12023439 0.18073319 0.07808937
0.29025751 0.36463705 0.18849511
0.06708803 0.38007417 0.04357337
0.18075477 -0.52835578 0.11738264
0.05982539 0.18597893 0.03886048
0.35195541 -0.06667331 0.22856055
0.38026243 -0.66018319 0.24694346
0.15574785 -0.40171099 0.10114308
0.01474418 0.34424725 0.00958259
0.55978638 -0.09781877 0.36352557
0.19326399 0.48858657 0.12550735
0.19793434 0.48556608 0.12854023
0.31557521 0.20325850 0.20493929
0.37851721 -0.50296527 0.24581011
0.00314981 0.50359917 0.00205059
0.26143330 -0.46716008 0.16977550
0.51159751 0.07340358 0.33223388
0.18952505 -0.24037467 0.12307809
0.57344705 -0.78622448 0.37239805
0.20208913 0.40426314 0.13124003
0.37673417 -0.70744228 0.24465221
0.09562760 0.55961090 0.06210331
0.33048680 0.16369125 0.21462336
0.60678375 -0.30999345 0.39404592
0.06088681 -0.46038330 0.03954006
0.11806752 -0.13875297 0.07667337
0.61805701 -0.45725352 0.40136707
0.05980116 -0.57341683 0.03883504
0.59529799 -0.30656266 0.38658711
0.64812154 -0.36147195 0.42089084
0.10191970 -0.29846433 0.06618693
0.16763283 -0.23075929 0.10886123
0.04229058 0.16700368 0.02747393
0.56750190 -0.66895682 0.36853698
0.06482261 0.01415265 0.04210859
0.34215847 -0.19814891 0.22219864
0.22389197 -0.54298252 0.14539607
0.42314798 -0.24350011 0.27479315
0.04851365 -0.54979968 0.03150490
0.00084113 0.27196723 0.00055539
0.42424107 -0.19496432 0.27550292
0.43788251 -0.31339890 0.28436184
0.41090408 0.03341935 0.26684707
0.49569476 -0.03122875 0.32190448
0.56095988 -0.42362142 0.36428821
0.55552709 -0.45033211 0.36076021
0.32864043 -0.19354011 0.21341999
0.36892909 -0.24132977 0.23958354
0.00787185 0.54924560 0.00511623
0.13914128 0.18198936 0.09036723
0.32691184 -0.02783108 0.21229725
0.19746432 -0.25340533 0.12823386
0.25351065 -0.47492990 0.16463052
0.17602986 -0.55776256 0.11431428
0.03176078 0.61204672 0.02062829
0.54811966 -0.76582688 0.35595039
0.46184698 -0.16109248 0.29992405
0.25498119 -0.72137624 0.16558549
0.64010763 -0.58920258 0.41568714
0.39840034 -0.53404403 0.25872228
0.16135421 0.19186449 0.10479183
0.38546190 0.08448450 0.25032446
0.17904587 0.51435399 0.11627393
0.59988379 -0.07474482 0.38956469
0.15266696 0.47527647 0.09914500
0.15200527 -0.05117042 0.09871264
0.24082214 -0.22603528 0.15639056
0.18692864 0.54721254 0.12139207
0.11519348 -0.31684610 0.07480697
0.39350057 -0.29352260 0.25554028
0.28573203 -0.32050952 0.18555517
0.43480632 0.06647836 0.28236783
0.01514382 -0.35738316 0.00983444
0.19287252 -0.75728810 0.12525193
0.20712189 -0.34890920 0.13450553
0.42676184 -0.08591280 0.27713972
0.63963068 -0.15512381 0.41537637
0.51268029 0.12513681 0.33293587
0.04643705 -0.04647062 0.03015635
0.33298647 0.15671796 0.21624672
0.30780643 -0.64718181 0.19989035
0.05976818 0.35552645 0.03882038
0.53634393 -0.12831908 0.34830213
0.06096238 0.54796946 0.03959253
0.49792564 -0.18991610 0.32335350
0.20151021 -0.33142713 0.13086127
0.24391659 -0.12036814 0.15840010
0.20156926 0.31369036 0.13090441
0.16533177 -0.52775997 0.10736690
0.42273399 0.15803728 0.27452639
0.21745256 0.39149293 0.14121690
0.20701021 -0.52466005 0.13443300
0.15746772 -0.13217282 0.10225998
0.01309223 0.39803556 0.00850890
0.36585534 0.30920982 0.23758757
0.53942275 -0.79691893 0.35030264
0.06362423 0.08098381 0.04132922
0.14358120 -0.53893226 0.09324202
0.21353547 -0.29246020 0.13867052
0.04111905 -0.22948880 0.02670283
0.58147675 -0.68162817 0.37761232
0.20061195 -0.45128679 0.13027795
0.41923091 -0.23275900 0.27224940
0.07706762 0.06428119 0.05005946
0.07531928 0.36604884 0.04891887
0.09457857 -0.02266244 0.06141958
0.60092956 -0.69244105 0.39024505
0.09070065 0.15586305 0.05891098
0.40516713 0.12209508 0.26311970
0.25662801 -0.39412287 0.16665493
0.28002781 0.41059098 0.18185122
0.12169427 -0.55430412 0.07902860
0.26832938 -0.03121425 0.17425384
0.11477179 0.02664886 0.07454470
0.21203950 0.12949111 0.13770726
0.07541804 0.70651513 0.04897654
0.49789426 0.11983149 0.32333431
0.03784070 -0.29820096 0.02457385
0.39128196 -0.38004449 0.25409958
0.47549301 -0.26979059 0.30878595
0.30818251 0.36450586 0.20013516
0.38424224 -0.73351866 0.24952798
0.02706677 0.53430796 0.01758142
0.35570386 -0.21061072 0.23099504
0.66782212 -0.22698623 0.43368408
0.41929278 -0.68476635 0.27228987
0.05303979 0.25365457 0.03445282
0.36267659 -0.02162269 0.23552279
0.09608009 -0.66386485 0.06239467
0.53113967 -0.03082203 0.34492236
0.51329082 -0.39221716 0.33333197
0.42411822 -0.31040895 0.27542335
0.03182234 -0.13780473 0.02066551
0.29654336 -0.09718084 0.19257608
0.45530424 -0.00677880 0.29567495
0.29638472 0.06944270 0.19248042
0.29754910 -0.45151219 0.19322920
0.16327856 -0.37118280 0.10603354
0.02965310 0.33751246 0.01926436
0.04906342 -0.02290462 0.03186192
0.15889888 -0.17583607 0.10318937
0.48120666 -0.28759864 0.31249642
0.58748221 -0.60817909 0.38151211
0.43220505 -0.11928844 0.28067458
0.58443069 -0.07299984 0.37952948
0.54869580 -0.61250550 0.35632426
0.35549423 -0.61775094 0.23085894
0.33315730 0.27400061 0.21635509
0.65234888 -0.08763312 0.42363542
0.01220483 -0.31149870 0.00792585
0.43500111 -0.32381356 0.28249067
0.38056830 -0.48894352 0.24714211
0.29933539 0.30679843 0.19439133
0.49103886 -0.57346839 0.31888193
0.38258576 -0.04003398 0.24845178
0.03725022 0.47908688 0.02419537
0.16506965 0.14907292 0.10720534
0.06245576 0.13369763 0.04056951
0.29802883 -0.44872499 0.19354075
0.43609822 0.04420839 0.28320724
0.09428807 -0.71326876 0.06123093
0.25922453 -0.53093827 0.16834112
0.21071620 0.05567190 0.13684922
0.08945313 -0.55444843 0.05809111
0.62794596 -0.06161900 0.40778816
0.40462512 -0.39289480 0.26276466
0.49082643 0.03553512 0.31874651
0.24441154 -0.66279101 0.15872154
0.08361910 0.02565675 0.05431458
0.03863267 -0.23224571 0.02508816
0.22837739 0.11588793 0.14831710
0.36019731 -0.24464034 0.23391312
0.15267748 -0.60680974 0.09914917
0.02350159 -0.29936913 0.01526200
0.30128846 -0.78969353 0.19565755
0.33632711 -0.18323103 0.21841174
0.21997976 -0.25892475 0.14285547
0.32324401 -0.13850479 0.20991555
0.07463618 -0.69246840 0.04846894
0.04133149 0.39757210 0.02684711
0.29276061 -0.06928834 0.19011953
0.36118579 0.31732610 0.23455513
0.64001286 -0.23997612 0.41562471
0.07458447 -0.35296711 0.04843536
0.01573480 0.57229030 0.01022193
0.27714884 -0.49793780 0.17998122
0.10170009 -0.71950257 0.06604432
0.44070765 0.10463504 0.28619915
0.30719978 0.36274970 0.19949701
0.26949868 -0.32174921 0.17501318
0.07864797 0.41043568 0.05107971
0.14355183 0.12266347 0.09323240
0.20398217 -0.67191678 0.13246658
0.05293745 -0.20504864 0.03437773
0.33649629 -0.73839068 0.21852162
0.02264026 0.35663861 0.01470998
0.08654400 -0.26825848 0.05620191
0.26337853 0.17222294 0.17104483
0.43705234 -0.65556830 0.28382298
0.43062854 -0.19328728 0.27965093
0.42110220 0.18719578 0.27346611
0.63501614 -0.34619278 0.41238010
0.29560447 -0.44260445 0.19196635
0.06386442 -0.69038939 0.04147373
0.47839093 -0.62164086 0.31066838
0.14449824 -0.04409578 0.09383756
0.08760091 -0.36002672 0.05688827
0.18371293 0.50855392 0.11930472
0.49429891 0.03522893 0.32100144
0.01504865 0.50159556 0.00977758
0.06574143 -0.55871570 0.04269266
0.09684935 -0.03954352 0.06289423
0.64594865 -0.15389428 0.41947922
0.01822921 -0.11646781 0.01183810
0.44870096 -0.56269121 0.29138765
0.51895279 -0.62930876 0.33700925
0.61659533 -0.09880711 0.40041718
0.01192487 0.06560032 0.00775661
0.34611529 0.34691429 0.22476807
0.59852833 -0.64389116 0.38868555
0.01420262 0.63024396 0.00922594
0.31215101 0.29550236 0.20271368
0.39155844 0.26410183 0.25427946
0.31428561 -0.39213517 0.20409794
0.58217114 -0.62045765 0.37806311
0.61229169 -0.26998320 0.39762270
0.14420849 -0.07127112 0.09364939
0.11618653 -0.70583999 0.07545185
0.11262561 0.43706012 0.07314387
0.24417819 -0.56070632 0.15856999
0.39620730 -0.19312817 0.25729784
0.40526739 -0.09877741 0.26318130
0.25304791 -0.24844965 0.16433001
0.24309431 0.14886199 0.15787329
0.45714438 -0.14407116 0.29687017
0.21880344 0.33609289 0.14209536
0.62010831 -0.63703519 0.40269965
0.39280036 -0.54779726 0.25508565
0.38201466 -0.54751110 0.24808139
0.66416764 -0.78657073 0.43131226
0.29655635 -0.21613283 0.19258450
0.41210547 -0.15829471 0.26762202
0.29057932 -0.07469265 0.18870302
0.46212798 -0.22514580 0.30010664
0.26029813 -0.07746106 0.16903833
0.49231842 -0.45378518 0.31971264
0.33411580 0.10212279 0.21698128
0.25490874 -0.51756048 0.16553843
0.31994715 -0.15839547 0.20777456
0.55915362 -0.00050747 0.36311448
0.26809099 -0.02542331 0.17409903
0.45582843 -0.32250053 0.29601589
0.30418536 0.30247727 0.19754086
0.07459499 0.37532008 0.04844837
0.07635979 -0.55394799 0.04958826
0.09969017 0.27668405 0.06474655
0.05892199 0.61340934 0.03826639
0.56025696 -0.13739052 0.36383122
0.62387395 -0.17965154 0.40514401
0.26724297 0.36493817 0.17355007
0.49689689 -0.61218965 0.32268617
0.28066009 0.18409166 0.18226676
0.38868916 -0.62917513 0.25241581
0.33819696 0.04576942 0.21963270
0.32934985 -0.59983873 0.21388069
0.45412374 -0.67488652 0.29490921
0.12302860 -0.01599335 0.07989511
0.13843034 -0.69331765 0.08989704
0.53698009 -0.29595360 0.34871557
0.61931789 0.02534792 0.40218568
0.11217864 0.22427139 0.07285731
0.17416950 -0.09783846 0.11310615
0.27999961 0.02176183 0.18184140
0.07704471 0.66996586 0.05003365
0.03885348 0.43601233 0.02523725
0.06706223 -0.16708860 0.04355040
0.67018032 -0.62517965 0.43521652
0.32567027 -0.08583503 0.21149106
0.24697895 -0.47774571 0.16038883
0.17216866 -0.06074803 0.11180680
0.33054984 0.15017365 0.21466458
0.36545628 -0.07244043 0.23732799
0.48957589 0.20692250 0.31793070
0.27435812 0.03916656 0.17817758
0.29019532 0.13275646 0.18845980
0.35984963 0.07456831 0.23369275
0.29838496 -0.40119722 0.19377200
0.10827189 0.09522292 0.07032256
0.66898948 -0.55888063 0.43444303
0.52557778 -0.32567579 0.34131098
0.49063063 -0.26115963 0.31861627
0.10990230 0.55209649 0.07137309
0.25314367 0.17835207 0.16439843
0.17852467 0.15149511 0.11594281
0.21185391 0.50654644 0.13757877
0.25787821 0.17176768 0.16747306
0.21291640 -0.50898737 0.13826850
0.40898153 -0.24382354 0.26559350
0.00238167 0.13684137 0.00155814
0.48252943 -0.30309519 0.31335545
0.10772465 0.40940911 0.06996173
0.41203079 0.04141061 0.26757854
0.42485103 0.08104491 0.27590281
0.15620708 -0.78957361 0.10144131
0.21700546 0.08930567 0.14093278
0.22489098 0.28011832 0.14604965
0.21752651 -0.40490955 0.14126231
0.05818713 0.66365010 0.03778817
0.47958925 -0.31875408 0.31144610
0.39884281 0.22390699 0.25901064
0.18245603 0.45908931 0.11848961
0.65046263 -0.37046501 0.42241114
0.62925291 -0.24497415 0.40863723
0.30969697 0.34284922 0.20111907
0.02834826 0.44640762 0.01841512
0.44068646 -0.53784788 0.28618300
0.36820862 0.21436445 0.23911782
0.23878907 0.10743272 0.15507846
0.39977509 -0.24164729 0.25961486
0.07173557 0.28151110 0.04659312
0.19356254 -0.49452302 0.12570004
0.43914086 -0.24823211 0.28517890
0.47021699 -0.18199898 0.30535957
0.03470920 -0.32268569 0.02254025
0.43972436 -0.26694989 0.28555787
0.06719434 -0.08265396 0.04363619
0.08144970 -0.51846743 0.05289366
0.07993626 -0.33504879 0.05191083
0.50678009 -0.10646121 0.32910341
0.08704700 0.25892395 0.05653656
0.64939243 -0.77335948 0.42171717
0.24842510 -0.41669750 0.16132794
0.64536023 -0.19548169 0.41909719
0.02360414 0.19782908 0.01533867
0.34027585 0.18484254 0.22097965
0.20873109 -0.13931985 0.13555054
0.45002154 -0.71429497 0.29224521
0.57486284 -0.22602232 0.37331641
0.58293784 -0.25988945 0.37856033
0.23449035 -0.78012633 0.15227868
0.54857093 -0.40370145 0.35624281
0.10193240 -0.39524400 0.06619518
0.21299009 -0.35350803 0.13831635
0.07497608 0.50969750 0.04869351
0.45121631 -0.24779938 0.29302067
0.55372536 -0.41253474 0.35959008
0.32431892 0.01759362 0.21062128
0.50018531 -0.00986159 0.32482061
0.43328974 -0.43728667 0.28137955
0.29231721 0.39683622 0.18983193
0.11226171 -0.63403964 0.07290306
0.27491343 -0.63871241 0.17852953
0.40659639 -0.07036765 0.26404428
0.19421248 -0.69652271 0.12612212
0.18843417 0.45879701 0.12237166
0.12696654 0.58857769 0.08245335
0.57984740 -0.44396719 0.37655374
0.28291270 -0.66858786 0.18372428
0.43297073 0.13831207 0.28117427
0.55714452 -0.05004196 0.36180988
0.59131473 -0.14586379 0.38400009
0.20987540 -0.68849623 0.13629366
0.62783694 -0.24649084 0.40771767
0.48810720 -0.62607723 0.31697816
0.23023327 0.45824254 0.14951490
0.21582296 -0.36417294 0.14015603
0.10249575 0.19756855 0.06656983
0.52619720 -0.04727110 0.34171274
0.59044057 -0.09434450 0.38343230
0.27984160 0.28137162 0.18173312
0.25924399 -0.63762408 0.16835377
0.24591590 0.15811154 0.15970536
0.57670379 -0.47150084 0.37451237
0.64986306 0.01776339 0.42202109
0.48140895 -0.50064653 0.31262815
0.00546825 -0.02002759 0.00355110
0.66716361 -0.09832565 0.43325615
0.60588008 -0.75133210 0.39346007
0.03621167 -0.44397092 0.02351596
0.54173237 -0.48595041 0.35180202
0.60999262 -0.10765525 0.39612940
0.48214781 -0.52469683 0.31310800
0.41203663 -0.58111066 0.26757771
0.34663945 -0.46179301 0.22510862
0.44689134 -0.00599526 0.29021162
0.46079603 0.02836621 0.29924569
0.15121205 0.47185874 0.09820030
0.05036633 -0.21122965 0.03270804
0.55034453 -0.09635563 0.35739404
0.01221735 -0.23065162 0.00793398
0.00003796 -0.50221795 0.00002465
0.28631705 -0.41258854 0.18593508
0.63839549 -0.50993615 0.41457504
0.15669619 0.61046630 0.10175848
0.64665627 -0.20704259 0.41993889
0.45519888 -0.54515457 0.29560742
0.45637491 -0.66169244 0.29637113
0.07793015 0.32400730 0.05061507
0.62723309 -0.79253995 0.40732688
0.31143478 0.30757457 0.20224832
0.58995348 -0.05804768 0.38311592
0.05359976 -0.65020174 0.03480783
0.62608159 -0.45170754 0.40657824
0.29069370 -0.20331295 0.18877728
0.08237016 -0.30325630 0.05349141
0.63825649 -0.64312500 0.41448513
0.27645713 -0.01078737 0.17953204
0.18084739 0.16212118 0.11745096
0.47876999 -0.47052497 0.31091434
0.23917119 -0.05072701 0.15531842
0.00402887 -0.73529243 0.00261636
0.43497518 -0.10303167 0.28247347
0.41988492 -0.77422142 0.27267441
0.31772485 -0.25825134 0.20633139
0.18092731 -0.45087367 0.11749469
0.38847342 0.13494141 0.25227898
0.46605363 0.19212863 0.30265626
0.30739954 0.11043453 0.19963226
0.54432237 -0.15818106 0.35348338
0.19300850 -0.34086972 0.12534024
0.27050564 -0.55473983 0.17566711
0.00428354 0.79117340 0.00278181
0.47787681 -0.44656569 0.31033430
0.35503143 -0.39865711 0.23055838
0.16542903 0.09141993 0.10743970
0.17282315 0.55209243 0.11223222
0.46644941 -0.06610887 0.30291268
0.23752853 -0.18376005 0.15425168
0.37933409 -0.32912600 0.24634060
0.46882945 -0.33958742 0.30445877
0.08264324 -0.29843324 0.05366875
0.58956563 0.09662509 0.38286379
0.58609086 0.08063183 0.38060772
0.29258519 0.22441120 0.19000971
0.43972704 -0.20757648 0.28555951
0.19549008 0.42810196 0.12695424
0.25940058 -0.41130772 0.16845545
0.51256061 0.13192222 0.33285800
0.08957421 0.00760575 0.05818206
0.45721954 -0.33645278 0.29691932
0.24094041 -0.49090996 0.15646736
0.63872826 -0.08000293 0.41479021
0.18947452 -0.53839266 0.12304528
0.01962676 0.41040793 0.01275212
0.01068083 0.03568195 0.00694927
0.45704633 -0.18090072 0.29680654
0.65824080 -0.42083880 0.42746243
0.13246469 -0.05904042 0.08602294
0.54255098 -0.69202429 0.35233396
0.59296829 -0.28426626 0.38507414
0.53332734 -0.36546478 0.34634358
0.20353423 0.38201275 0.13217890
0.27614540 -0.79969919 0.17932959
0.10429039 -0.64152890 0.06772646
0.63958949 -0.01379696 0.41534936
0.20943147 -0.48570588 0.13600537
0.66103792 -0.06261280 0.42927802
0.26064020 -0.22062676 0.16926046
0.32460538 -0.53767580 0.21079963
0.11236392 -0.36094064 0.07296944
0.47708017 0.21143587 0.30981618
0.09456172 -0.38086009 0.06140864
0.36757043 -0.36582884 0.23870124
0.54136848 -0.62277061 0.35156596
0.39327309 -0.58239895 0.25539261
0.60171247 -0.53274012 0.39075309
0.52210081 -0.32290342 0.33905303
0.33152643 -0.20345213 0.21529418
0.65250564 -0.78798699 0.42373893
0.30555823 -0.38928106 0.19843034
0.24680424 0.24597274 0.16028030
0.48288122 -0.64065611 0.31358439
0.09254389 -0.63091344 0.06009825
0.00901780 -0.11177898 0.00585618
0.22418511 0.14155962 0.14559425
0.29474902 0.16379011 0.19141617
0.13071688 -0.52732700 0.08488790
0.37716103 -0.75553364 0.24492940
0.25807032 -0.61336589 0.16759159
0.16576335 0.54426152 0.10764795
0.33918104 0.36274096 0.22026481
0.09539290 0.52423710 0.06195167
0.47501948 -0.02528010 0.30847800
0.27350715 -0.61688566 0.17761628
0.57939255 -0.73399204 0.37625897
0.47642827 -0.70336705 0.30939382
0.21570636 0.31356633 0.14008468
0.61169058 -0.39542449 0.39723256
0.19521406 0.48812014 0.12677370
0.39756042 -0.00124488 0.25817624
0.09851209 -0.61935616 0.06397402
0.37544328 -0.54433554 0.24381390
0.49930030 -0.40988329 0.32424659
0.20242053 0.16174141 0.13146028
0.09097654 -0.30324268 0.05908042
0.02154460 0.03620094 0.01400405
0.49001238 -0.27254325 0.31821480
0.28815815 -0.07313506 0.18713069
0.51868337 0.01739129 0.33683643
0.13625035 -0.28616488 0.08848135
0.23449792 -0.74198323 0.15228359
0.15856995 -0.79404789 0.10297575
0.39641279 -0.44506904 0.25743157
0.16571407 0.37905052 0.10761956
0.37382334 -0.06894665 0.24276155
0.60867262 -0.24930172 0.39527243
0.46312955 -0.46457553 0.30075747
0.02990655 -0.66876030 0.01942139
0.04792483 0.65720505 0.03112422
0.11107798 -0.30385676 0.07213434
0.11671396 -0.70852005 0.07579437
0.00495720 -0.77507818 0.00321922
0.48340765 -0.58712101 0.31392625
0.50265145 -0.09451393 0.32642227
0.58804107 -0.01608713 0.38187394
0.56135404 -0.38980231 0.36454409
0.20866016 -0.65452594 0.13550448
0.48132372 -0.33979315 0.31257251
0.37186912 -0.78925824 0.24149284
0.21380050 0.03382545 0.13885251
0.08714695 -0.11022732 0.05659347
0.13480306 -0.19495898 0.08754147
0.39145201 0.29096082 0.25420976
0.11216760 0.52181232 0.07284477
0.49821985 -0.76608187 0.32354534
0.36256576 -0.03716255 0.23545083
0.30535495 0.42287517 0.19829772
0.27259156 -0.34870657 0.17702171
0.19031054 -0.58917606 0.12358819
0.23548245 0.13666230 0.15293062
0.27889648 -0.76489317 0.18111615
0.35245177 -0.27236313 0.22888315
0.58219582 -0.43973711 0.37807879
0.46272254 -0.47372508 0.30049318
0.43757784 -0.76348752 0.28416425
0.31230712 0.41965452 0.20281234
0.20331623 0.22475043 0.13204078
0.57062322 0.08413815 0.37056336
0.53827965 -0.41793221 0.34955972
0.59081686 -0.30253094 0.38367704
0.58906537 -0.57252735 0.38254014
0.36604649 -0.15721291 0.23771143
0.00797997 0.63713753 0.00518492
0.03336927 -0.43695933 0.02167010
0.06930077 -0.48187938 0.04500411
0.48242098 -0.00969982 0.31328449
0.20315532 -0.04919802 0.13192964
0.03896484 0.70099115 0.02530491
0.52799517 -0.70077509 0.34288150
0.13567321 -0.14503753 0.08810655
0.06649146 -0.16037916 0.04317974
0.13378505 0.01245858 0.08689191
0.16194068 -0.71442777 0.10516472
0.53849316 -0.79754597 0.34969893
0.08528429 -0.69502848 0.05538385
0.59760010 -0.18404764 0.38808185
0.04327671 0.17116953 0.02811424
0.51114947 -0.05988398 0.33194080
0.19994213 0.26822603 0.12984879
0.03356716 0.75770479 0.02179851
0.10526368 0.59926432 0.06835985
0.41264549 0.29435572 0.26797217
0.05925679 0.54967797 0.03848491
0.17610484 -0.51577747 0.11436297
0.60999501 -0.46977422 0.39613163
0.07816426 -0.67669457 0.05076009
0.03655693 -0.33916259 0.02374017
0.31033522 0.36862782 0.20153297
0.60007596 -0.68948454 0.38969073
0.19973654 -0.29430789 0.12970945
0.50571334 -0.24694867 0.32841092
0.03229025 0.27091023 0.02097805
0.61227190 -0.52460599 0.39761040
0.38187125 -0.04119110 0.24798779
0.43402287 -0.54691225 0.28185564
0.62914556 0.03027554 0.40856743
0.40102449 -0.79757446 0.26042640
0.45678633 -0.62582654 0.29663831
0.49226025 -0.54364097 0.31967503
0.18428227 -0.73455644 0.11967342
0.08380519 0.38745657 0.05442914
0.49552989 -0.32574481 0.32179794
0.50267756 -0.34166613 0.32643965
0.12682045 -0.02048955 0.08235754
0.35339931 -0.10893485 0.22949830
0.23267803 -0.54188538 0.15110175
0.32407829 -0.11715282 0.21045730
0.08136704 0.34123746 0.05284664
0.16864070 0.30982974 0.10952154
0.05303623 -0.77230883 0.03444187
0.31502163 0.25974238 0.20457859
0.63418847 -0.14362247 0.41184217
0.18365423 0.21593125 0.11927276
0.50168675 -0.21050520 0.32579601
0.10673154 -0.41718701 0.06931176
0.15973639 0.24419959 0.10374034
0.18391319 -0.48002464 0.11943373
0.09653871 0.63876224 0.06269323
0.26593667 -0.28718290 0.17270000
0.62714332 -0.18790329 0.40726718
0.33286473 -0.33584732 0.21616328
0.01893327 0.34626991 0.01230290
0.38193271 0.12260215 0.24803187
0.56146479 -0.64749932 0.36461648
0.45882070 -0.42331764 0.29795924
0.26276904 -0.19911161 0.17064293
0.66293752 -0.20689490 0.43051198
0.06791308 0.30704048 0.04411041
0.17202781 0.49445277 0.11171702
0.07037236 0.35784751 0.04570655
0.17536995 0.41461807 0.11388906
0.58824933 -0.36495280 0.38200983
0.14241144 0.59702235 0.09248269
0.34568560 -0.27549392 0.22448917
0.42131019 -0.09328263 0.27359942
0.00504449 0.12812877 0.00328749
0.29205275 0.35550949 0.18966112
0.00095938 -0.43985203 0.00062302
0.63704330 -0.23545618 0.41369626
0.44414514 -0.07433062 0.28842837
0.11746874 -0.23937857 0.07628453
0.66167450 -0.27173904 0.42969194
0.21196222 -0.47278392 0.13764887
0.32301503 -0.34398374 0.20976685
0.22111578 0.07283985 0.14360227
0.64638638 -0.08534409 0.41976339
0.55581337 -0.60309887 0.36094639
0.08684322 0.08482266 0.05640725
0.54328799 -0.12117749 0.35281160
0.13957144 -0.41397336 0.09063808
0.23417988 0.32912657 0.15208057
0.27626637 0.45133108 0.17940773
0.19926383 0.33009133 0.12940696
0.58289355 -0.71625841 0.37853247
0.41434592 -0.28413084 0.26907718
0.04267216 0.66435701 0.02771309
0.41873112 -0.36344907 0.27192506
0.31474301 0.32489482 0.20439622
0.46331650 -0.13801746 0.30087832
0.10921679 -0.61087501 0.07092568
0.02327002 -0.66650951 0.01511162
0.04004017 0.37644431 0.02600891
0.43951038 0.01862611 0.28542358
0.66931564 -0.40697351 0.43465444
0.49721840 -0.55135232 0.32289484
0.48162189 -0.07056293 0.31276569
0.17032309 0.05504041 0.11061848
0.23428164 -0.61368406 0.15214315
0.01247338 -0.75670499 0.00810025
0.15263744 0.51182920 0.09912504
0.61032319 -0.48488876 0.39634481
0.00635956 0.20686089 0.00414012
0.42641088 -0.50059009 0.27691239
0.14833336 -0.02063918 0.09632809
0.41703999 -0.45763668 0.27082691
0.07130781 0.06899480 0.04631904
0.09618984 -0.64167649 0.06246595
0.31789106 0.08690453 0.20644568
0.10371885 0.60647142 0.06735653
0.35561585 -0.50923324 0.23093791
0.27778989 0.45355833 0.18039702
0.30487084 -0.65986329 0.19798397
0.58425301 -0.46414301 0.37941477
0.02557834 0.35857025 0.01661790
0.14067964 0.40409166 0.09136231
0.12396396 0.63869905 0.08050246
0.25195789 0.49867588 0.16362143
0.16219525 -0.42615518 0.10533004
0.13967465 0.08305631 0.09071530
0.27617255 -0.25243178 0.17934722
0.28084263 0.36646992 0.18238129
0.31382346 -0.02586413 0.20379768
0.14518502 0.42018443 0.09428765
0.26904577 -0.48447978 0.17471907
0.08518737 0.08701074 0.05533193
0.10183266 -0.47627440 0.06613041
0.07367464 -0.19861612 0.04784451
0.60863107 -0.07742818 0.39524516
0.16566105 -0.23633435 0.10758074
0.32331318 0.16244937 0.20996501
0.54971027 -0.55764002 0.35698298
0.21916059 0.27895972 0.14232852
0.10228298 -0.14723635 0.06642285
0.35600504 0.22774804 0.23119283
0.01046887 0.60426974 0.00680175
0.59317762 -0.17734651 0.38520992
0.25304937 -0.36189294 0.16433096
0.12062728 0.37124890 0.07834119
0.60369676 -0.25562218 0.39204112
0.47098246 0.08126526 0.30585933
0.29139781 -0.00442044 0.18923448
0.01813233 0.03723958 0.01178815
0.61507523 -0.38955063 0.39943054
0.24277481 0.50156170 0.15765810
0.00704441 0.47134805 0.00458025
0.51597631 -0.75646073 0.33507645
0.05274199 0.05487004 0.03426288
0.25308141 -0.72882903 0.16435176
0.37389836 -0.37856168 0.24281062
0.53894705 -0.54796320 0.34999332
0.25937560 -0.34424090 0.16843922
0.37572443 -0.43035439 0.24399647
0.46415466 -0.55907404 0.30142331
0.22398001 0.41170892 0.14545523
0.42160994 -0.00919666 0.27379394
0.35096446 -0.76156086 0.22791728
0.61456460 -0.76685184 0.39909986
0.00482967 0.56395167 0.00314042
0.51514226 -0.67720139 0.33453479
0.28504968 -0.77842742 0.18511204
0.22508430 -0.03989170 0.14617036
0.58037019 -0.76011205 0.37689388
0.34829485 0.13274246 0.22618811
0.09086607 0.03025599 0.05902059
0.44538105 0.01956052 0.28923583
0.30291265 -0.70493782 0.19671232
0.06768140 0.51830596 0.04395629
0.52180910 -0.51094031 0.33886394
0.26273805 -0.31750733 0.17062283
0.34774178 -0.55332828 0.22582448
0.59380299 -0.53696603 0.38561663
0.45450374 -0.43556046 0.29515585
0.33373863 -0.74728996 0.21673077
0.12206447 0.65396100 0.07926864
0.53327101 -0.21534170 0.34630674
0.01885830 0.76030189 0.01224695
0.06930800 0.53965366 0.04501221
0.00726791 -0.40969077 0.00471980
0.47539026 -0.48734185 0.30871958
0.34945247 0.28886962 0.22693641
0.14948840 -0.48783016 0.09707818
0.12424162 0.24727046 0.08069045
0.44011697 -0.07214012 0.28581247
0.37341422 -0.39756888 0.24249624
0.28336212 0.17898488 0.18402149
0.33808196 -0.51350659 0.21955135
0.16149829 0.47357482 0.10487989
0.47533619 -0.08069223 0.30868378
0.63937229 -0.69973898 0.41520989
0.65112257 -0.00654895 0.42283893
0.05586917 -0.25925195 0.03628159
0.36433330 -0.53601730 0.23659904
0.15580732 -0.55740368 0.10118170
0.51580381 0.03609596 0.33496615
0.33365631 -0.14172196 0.21667728
0.09722893 -0.47090134 0.06314074
0.03148787 0.15967572 0.02045893
0.50630289 -0.49559629 0.32879418
0.32860807 -0.15999721 0.21339899
0.25132677 -0.58448297 0.16321228
0.49803963 -0.13921690 0.32342744
0.10840267 0.45447797 0.07040125
0.35952228 -0.23007549 0.23347475
0.25336868 -0.42688447 0.16453831
0.06591868 0.27726230 0.04281579
0.50971866 0.05634672 0.33101416
0.58953083 -0.22813581 0.38284174
0.00020412 -0.21245971 0.00013255
0.03860580 0.24886338 0.02507966
0.51815587 -0.01846884 0.33649066
0.61645299 -0.71978545 0.40032610
0.36220226 -0.49654299 0.23521516
0.50750726 -0.79373366 0.32957661
0.22082354 -0.50006503 0.14340341
0.47838688 -0.64577365 0.31066576
0.40263373 0.06854377 0.26147577
0.25970432 0.39750147 0.16865396
0.06820789 0.61580116 0.04429644
0.20351046 0.20247775 0.13216735
0.02496587 -0.44870242 0.01621291
0.07062298 -0.41155007 0.04586276
0.18990216 0.24898873 0.12332949
0.14381488 0.34972039 0.09339928
0.04182523 -0.57228273 0.02716142
0.52181327 -0.64779109 0.33886689
0.13700533 -0.35432753 0.08897164
0.23211779 0.38443202 0.15074027
0.14652333 -0.69252163 0.09515265
0.21173063 -0.09041029 0.13749845
0.31657749 0.13071457 0.20559172
0.13823813 -0.59512001 0.08977222
0.28806782 -0.65797412 0.18707202
0.02066823 0.62910908 0.01342464
0.59519869 -0.11150132 0.38652226
0.09110376 -0.28432205 0.05916303
0.13298973 0.34976739 0.08636958
0.22612099 -0.03208018 0.14684360
0.39143199 0.02862068 0.25420251
0.17771712 -0.44065917 0.11540999
0.64239883 -0.12723321 0.41717395
0.54896337 -0.35917562 0.35649756
0.56401628 0.10984429 0.36627242
0.33648318 -0.63086504 0.21851310
0.10890724 -0.07492991 0.07072466
0.34522426 -0.74727398 0.22418956
0.58337605 -0.13940980 0.37884471
0.12284135 -0.55590743 0.07977351
0.26460147 0.29201210 0.17183635
0.07266743 0.21849816 0.04719936
0.56908661 0.00009999 0.36956739
0.01109827 -0.41262880 0.00720724
0.22650009 0.50108403 0.14708973
0.34149182 -0.77359360 0.22176573
0.64542520 0.01342324 0.41913933
0.21658705 -0.63610780 0.14065222
0.64299875 -0.73191619 0.41756502
0.25278440 0.30502194 0.16416235
0.08684302 -0.52752817 0.05639609
0.55070233 0.10527689 0.35762680
0.55169863 -0.02180377 0.35827327
0.49436119 -0.03475385 0.32103848
0.46331015 -0.06065673 0.30087405
0.31907460 -0.53268927 0.20720792
0.51416153 -0.26372430 0.33389717
0.47889417 -0.27758351 0.31099465
0.28216931 -0.51961058 0.18324153
0.30554482 0.20448667 0.19842580
0.06064872 -0.15239140 0.03938544
0.14070703 0.37087500 0.09138072
0.27062175 -0.06119118 0.17574252
0.36164746 -0.16078267 0.23485471
0.08899669 0.00428468 0.05780709
0.34375566 -0.55062044 0.22323588
0.11229110 0.00516254 0.07293415
0.63121152 -0.29480109 0.40990925
0.35452795 -0.11030361 0.23023124
0.19405082 0.41916627 0.12601984
0.12312473 0.16868088 0.07996652
0.11394541 0.36163351 0.07400224
0.20379940 -0.02407567 0.13234790
0.22701541 0.16783179 0.14743166
0.17524838 0.17617027 0.11381479
0.46937451 -0.65778738 0.30481309
0.27981037 0.32870790 0.18171179
0.46360332 -0.41923311 0.30106509
0.41606399 0.12221718 0.27019584
0.14865071 -0.45713657 0.09653417
0.48748606 -0.04481803 0.31657380
0.47440809 -0.41361812 0.30808166
0.04100525 0.37543660 0.02663564
0.00036046 -0.75488710 0.00023409
0.43123245 0.19668438 0.28004423
0.11812413 0.03731854 0.07672148
0.50841194 -0.49895892 0.33016381
0.23273715 -0.01301635 0.15114015
0.17470144 -0.08420104 0.11345159
0.29776245 -0.70599002 0.19336776
0.32816875 -0.64242989 0.21311368
0.05719571 0.14240380 0.03715355
0.25330511 -0.42334166 0.16449703
0.60097086 -0.34242728 0.39027110
0.35661894 0.04707259 0.23159543
0.09251698 0.29079685 0.06008814
0.56238985 -0.07136846 0.36521620
0.04968766 0.57131869 0.03227048
0.38930678 0.10093156 0.25282088
0.34605971 0.01650607 0.22473919
0.56255454 -0.25369015 0.36532348
0.26197293 -0.29442555 0.17012595
0.20967788 -0.17990941 0.13616538
0.36136320 -0.28402564 0.23467025
0.49693552 -0.28995132 0.32271069
0.08412333 0.28751510 0.05463747
0.51845473 -0.53464788 0.33668566
0.26727688 -0.17741640 0.17357033
0.14777012 0.10193282 0.09597207
0.31345382 -0.01307897 0.20355763
0.55745643 -0.33474407 0.36201292
0.51433986 -0.73584574 0.33401370
0.18953785 -0.40850082 0.12308640
0.15750904 0.09626661 0.10229649
0.02360218 -0.01685868 0.01532732
0.06932914 -0.71173710 0.04502254
0.30049950 -0.03740028 0.19514515
0.01752636 0.12485314 0.01139311
0.46179923 -0.74074376 0.29989368
0.03862122 -0.10257648 0.02508073
0.19939661 -0.43976626 0.12948871
0.17374156 -0.04020920 0.11282825
0.17718121 -0.05088930 0.11506197
0.51826173 0.09340774 0.33656099
0.30164412 -0.10757516 0.19588853
0.64562052 -0.08959941 0.41926602
0.21265495 -0.68921906 0.13809872
0.62603128 -0.20896076 0.40654504
0.42715073 -0.19290118 0.27739245
0.66710460 -0.31760946 0.43321836
0.41047770 -0.01461542 0.26656470
0.24367383 0.32453564 0.15824577
0.10353286 -0.39509344 0.06723452
0.05889593 -0.35803217 0.03824718
0.58299601 -0.19687264 0.37859800
0.48155269 -0.68179673 0.31272164
0.47701040 -0.75151747 0.30977187
0.01104374 -0.00468132 0.00717183
0.17853458 -0.06419814 0.11594085
0.12940446 -0.66297114 0.08403561
0.21899034 0.31046587 0.14221726
0.34437308 -0.15064710 0.22363676
0.44262710 0.21604390 0.28744316
0.23426308 -0.06472441 0.15213110
0.38143894 -0.26920381 0.24770746
0.07996992 0.27009684 0.05194060
0.02327573 0.24491830 0.01512459
0.50669265 -0.46776533 0.32904726
0.47902328 -0.09794334 0.31107819
0.25030997 0.07912379 0.16256046
0.05381155 -0.04734180 0.03494537
0.18166932 -0.67980838 0.11797656
0.32397923 -0.30887935 0.21039300
0.10719808 -0.03428534 0.06961473
0.31182423 -0.22452332 0.20249951
0.36915052 -0.16497596 0.23972718
0.10521846 -0.08454343 0.06832916
0.04017130 -0.19187623 0.02608736
0.35192257 -0.31487542 0.22853950
0.05346877 0.61211497 0.03472517
0.35449022 -0.63061047 0.23020692
0.18979900 -0.18848433 0.12325599
0.43720070 0.10885707 0.28392175
0.55483514 -0.79950225 0.36031148
0.17113267 -0.29543495 0.11113402
0.52881891 -0.04077247 0.34341523
0.14549635 0.54001743 0.09448720
0.26570144 -0.03545630 0.17254725
0.65504426 -0.24940170 0.42538619
0.41218045 0.05824077 0.26767537
0.33768746 -0.09809629 0.21929502
0.36898479 0.24380688 0.23962119
0.53136146 -0.02951433 0.34506637
0.16342290 0.55729437 0.10612784
0.42131296 -0.25571120 0.27360153
0.57662559 0.02463892 0.37446246
0.38884583 -0.61116302 0.25251755
0.11007594 0.27760527 0.07149092
0.08169200 -0.00988711 0.05305101
0.61755311 -0.38508496 0.40103966
0.13273638 0.18719591 0.08620789
0.52032161 -0.51827449 0.33789799
0.38470826 -0.02521676 0.24983010
0.50812042 -0.46873957 0.32997444
0.00263302 0.38703752 0.00171702
0.50800884 -0.19358796 0.32990152
0.45071191 0.01820285 0.29269755
0.63360143 -0.01012922 0.41146073
0.30385900 0.38080367 0.19732720
0.66937554 -0.70035279 0.43469408
0.10281762 0.02678512 0.06678182
0.26618236 -0.42969626 0.17285956
0.34112146 -0.67748135 0.22152521
0.20985520 0.01412372 0.13629082
0.19711050 -0.38277841 0.12800410
0.57570797 -0.79822820 0.37386635
0.45367387 -0.60446221 0.29461706
0.07371260 -0.30096814 0.04786916
0.41106087 -0.18571119 0.26694372
0.24430692 0.02812039 0.15866306
0.53930891 -0.61870831 0.35022843
0.55380344 -0.70026171 0.35964134
0.02026510 -0.57697278 0.01316021
0.33361399 -0.65632302 0.21664985
0.29056320 -0.31765518 0.18869254
0.36201775 -0.03802635 0.23509496
0.41774112 -0.44708005 0.27128223
0.46361730 -0.16066270 0.30107370
0.30334869 -0.78786999 0.19699547
0.60008222 -0.70950109 0.38969484
0.09662137 0.44964388 0.06275072
0.52687132 -0.77606434 0.34215167
0.52858388 -0.78067058 0.34326386
0.48149699 0.08148935 0.31268719
0.53293139 -0.61367029 0.34608689
0.36916342 -0.70536941 0.23973574
0.61605471 0.05704811 0.40006599
0.31454864 0.10495793 0.20427480
0.62397689 -0.46830633 0.40521148
0.39483640 -0.17369226 0.25640756
0.45907030 -0.16561086 0.29812089
0.42832637 0.02139182 0.27816090
0.53924304 -0.37742996 0.35018528
0.10250348 -0.51424569 0.06656604
0.56222457 -0.56600887 0.36510971
0.26128405 -0.40112382 0.16967857
0.55326366 -0.06589587 0.35928965
0.09836542 -0.59198695 0.06387878
0.31325907 -0.03561289 0.20343119
0.17394032 -0.37296477 0.11295732
0.10249456 -0.31413788 0.06656025
0.59557217 -0.44431400 0.38676536
0.13605560 0.14942314 0.08836400
0.28853598 -0.76009178 0.18737607
0.16132002 0.56774706 0.10476206
0.23451445 0.13302886 0.15230210
0.19725393 -0.24110869 0.12809725
0.42229506 0.06331753 0.27424341
0.24951629 -0.31937513 0.16203657
0.06061451 -0.44926837 0.03936323
0.62356251 -0.18900122 0.40494180
0.36197004 -0.30398291 0.23506433
0.06982168 -0.59056646 0.04534239
0.61414009 -0.79522246 0.39882424
0.17549552 -0.54382056 0.11396727
0.08829094 -0.12954605 0.05733638
0.25804409 -0.10121770 0.16757452
0.45114532 -0.01830568 0.29297417
0.58844310 -0.61893463 0.38213611
0.10517719 0.29677552 0.06830941
0.05057489 -0.02238136 0.03284347
0.43768841 0.09275985 0.28423882
0.05864244 -0.74009305 0.03808256
0.05381057 -0.51674801 0.03494473
0.22900826 -0.11311584 0.14871860
0.18823999 0.39494804 0.12224696
0.45455661 -0.61569118 0.29519030
0.05338764 -0.06788528 0.03467008
0.11000015 0.18471487 0.07144332
0.21776623 -0.41680273 0.14141800
0.30562025 0.26726723 0.19847339
0.41636133 -0.01162113 0.27038553
0.20176195 0.20598873 0.13103183
0.03104488 -0.29032162 0.02016063
0.61316860 -0.45433584 0.39819252
0.52136368 -0.52011585 0.33857468
0.19069985 -0.50990981 0.12384101
0.09327313 0.24612004 0.06057995
0.25764909 -0.32043573 0.16731803
0.34961528 -0.00727851 0.22704077
0.17285137 -0.43991876 0.11225016
0.56624389 -0.17248356 0.36771920
0.26251882 -0.23761231 0.17048045
0.29494989 -0.09594908 0.19154125
0.61410111 -0.18558124 0.39879760
0.39203739 -0.41034728 0.25459015
0.59936225 -0.64056295 0.38922709
0.15905410 -0.33056521 0.10329017
0.29754072 -0.19417757 0.19322376
0.33717924 0.14640953 0.21896963
0.52074927 -0.65322518 0.33817592
0.35576257 0.29503465 0.23103391
0.57861108 -0.45911598 0.37575090
0.07153967 0.46014410 0.04646281
0.36925131 -0.67931497 0.23979281
0.15654594 -0.24133910 0.10166136
0.11343185 -0.49380809 0.07366295
0.34204832 -0.48788306 0.22212712
0.65358329 -0.36078992 0.42443770
