ply
format ascii 1.0
element vertex 155
property float x
property float y
property float z
end_header
-0.51045054 0.33939216 0.28701362
-0.44184431 0.40879393 0.29159451
-0.64044297 0.18995091 0.17502187
-0.35436064 0.47639614 0.17710780
-0.38876244 0.45667490 0.26164505
-0.60521775 0.22003259 0.14540295
-0.40696207 0.48097751 0.50639260
-0.44282392 0.39383736 0.21110918
-0.33518350 0.50432789 0.22752053
-0.31969860 0.54418242 0.36785197
-0.52251923 0.34430933 0.38482615
-0.40393612 0.45911601 0.36307922
-0.40739417 0.41440842 0.12554687
-0.44349429 0.40777984 0.29525620
-0.48702729 0.36241296 0.28469613
-0.41171539 0.46918392 0.46585158
-0.32232425 0.49557626 0.10307618
-0.69784617 0.10570903 0.02047552
-0.30834076 0.52774644 0.20780231
-0.47840047 0.36622149 0.25695026
-0.45570800 0.43368542 0.51476473
-0.60091054 0.24562705 0.26798272
-0.62258291 0.19241980 0.08639357
-0.14879805 0.65688556 0.03272453
-0.35588393 0.49744087 0.30706453
-0.46531895 0.35639805 0.12505481
-0.29983559 0.53061342 0.17533499
-0.29428244 0.56557167 0.34466296
-0.75937122 0.04791635 0.04196863
-0.35720885 0.51373112 0.40850079
-0.20340040 0.60148841 0.02814841
-0.53379166 0.31746352 0.29514745
-0.19286411 0.62884331 0.12499633
-0.39164808 0.43443915 0.15021925
-0.67785949 0.14187102 0.11361871
-0.38388276 0.45093834 0.20051210
-0.40361029 0.43234560 0.20704684
-0.40788522 0.43694368 0.25814146
-0.70263696 0.11451989 0.09879893
-0.35203177 0.45357448 0.03228166
-0.63533902 0.20857847 0.25289571
-0.61799222 0.20936026 0.15750796
-0.35578409 0.45250377 0.04772347
-0.46125150 0.35167763 0.07445096
-0.42141941 0.42271206 0.25412545
-0.34582549 0.52492732 0.40742308
-0.31819978 0.54075819 0.33950278
-0.45007810 0.41649708 0.38336676
-0.41907731 0.40169889 0.11963667
-0.55004215 0.26337469 0.07726058
-0.49331766 0.39099145 0.48548716
-0.10849237 0.70913821 0.10151963
-0.34607401 0.51181179 0.33332893
-0.68807250 0.13261776 0.11914544
-0.41541433 0.47168609 0.50156045
-0.38687384 0.42503291 0.06856276
-0.34788764 0.48980656 0.21705627
-0.39164308 0.46628508 0.33357301
-0.12834367 0.69481504 0.13335329
-0.40362048 0.40595642 0.05514685
-0.46811411 0.34756708 0.09029844
-0.33593819 0.47889051 0.08538774
-0.71709609 0.10543652 0.12975472
-0.52778524 0.33701551 0.37314913
-0.51656771 0.36070135 0.44494730
-0.65789306 0.17676125 0.19955517
-0.60475653 0.21824819 0.13247180
-0.21013705 0.59813905 0.04765382
-0.33464324 0.52950561 0.36939436
-0.48066244 0.35062507 0.18016554
-0.39432681 0.42432576 0.10740774
-0.42647853 0.40223709 0.16535492
-0.49543506 0.35816011 0.30862206
-0.34268025 0.48669600 0.16915801
-0.41437513 0.45025000 0.37213734
-0.52938980 0.27575517 0.02962771
-0.37237048 0.43106356 0.01977360
-0.31694463 0.50174308 0.10760913
-0.54313266 0.32087824 0.36860088
-0.41892123 0.44368568 0.36051556
-0.08620421 0.72489530 0.06391068
-0.48822111 0.31902173 0.04170759
-0.34508741 0.52506149 0.40394539
-0.30242491 0.50114703 0.02056671
-0.60475528 0.23488902 0.22828871
-0.49047619 0.34377477 0.19723032
-0.25007865 0.55998522 0.05794895
-0.57101142 0.26592797 0.21271241
-0.38329068 0.48963100 0.41991258
-0.36672759 0.48270932 0.28467634
-0.41011739 0.42580870 0.20687523
-0.74315196 0.07009286 0.07627246
-0.54839176 0.31755200 0.37973124
-0.18530339 0.63031906 0.08995648
-0.42299783 0.43527180 0.33553943
-0.13916042 0.68283951 0.12668061
-0.52831137 0.32161772 0.28751129
-0.47617722 0.34855127 0.14239627
-0.24115863 0.60188097 0.24783713
-0.49728286 0.36632499 0.36627972
-0.19606864 0.64096469 0.21325007
-0.65890932 0.14420846 0.01795617
-0.49404228 0.33092275 0.14375857
-0.25500441 0.58593065 0.23571818
-0.52231872 0.32198778 0.25513431
-0.75655544 0.04987537 0.03703505
-0.49143472 0.32058880 0.06923657
-0.60842401 0.19382814 0.01297080
-0.45002592 0.39070150 0.23452361
-0.43380794 0.43533784 0.39816943
-0.14716803 0.66274530 0.05708072
-0.43297833 0.37825251 0.06467121
-0.65967524 0.15716782 0.09699149
-0.36607593 0.47086906 0.21274213
-0.58573210 0.21526992 0.00577185
-0.39322555 0.43050012 0.13662060
-0.54462469 0.32261139 0.38717297
-0.44537407 0.44458687 0.51803279
-0.45563546 0.39875263 0.31318793
-0.34833232 0.49135986 0.22856160
-0.47436917 0.36742094 0.24064335
-0.39058641 0.48927659 0.45988390
-0.60595733 0.20621398 0.07008900
-0.67053133 0.14549750 0.09230291
-0.57057047 0.25162119 0.12778941
-0.36935666 0.46674407 0.20788041
-0.47832587 0.39624226 0.42939398
-0.53499287 0.32516721 0.34642604
-0.14195296 0.67944843 0.12323383
-0.47771165 0.36115748 0.22382326
-0.46767408 0.42272496 0.52055562
-0.36622086 0.44517335 0.06561106
-0.34875825 0.46070746 0.05450581
-0.48235282 0.34725386 0.17048676
-0.49893591 0.35612759 0.31707740
-0.26454383 0.56593823 0.17552514
-0.42116424 0.46551427 0.49913093
-0.48894599 0.34651622 0.20420513
-0.21163408 0.63310260 0.25760955
-0.40236652 0.46297377 0.37625551
-0.76470578 0.03634678 0.00606529
-0.50098437 0.36488357 0.37929443
-0.45543817 0.36708301 0.12968543
-0.46611589 0.34914586 0.08788316
-0.41676831 0.43024892 0.27074289
-0.34236285 0.53080398 0.42132410
-0.28946897 0.54700917 0.21005344
-0.13170151 0.67832136 0.05771134
-0.48597181 0.31692991 0.01670973
-0.39396319 0.41023064 0.02414896
-0.66786158 0.13832289 0.03561546
-0.15026419 0.67931402 0.17031977
-0.33980149 0.48295328 0.13102901
-0.47595650 0.40699300 0.47765774
-0.48713088 0.31459370 0.00993134
