ply
format ascii 1.0
element vertex 1081
property float x
property float y
property float z
end_header
-0.00282274 -0.06866435 0.01222718
-0.04352216 0.39784539 0.18850958
-0.13323946 0.11607474 0.57714880
-0.04579349 -0.52207083 0.19836208
-0.15748966 -0.02432552 0.68219978
-0.04396542 0.36122105 0.19042698
-0.10477485 0.15695331 0.45384142
-0.13029703 -0.12216534 0.56440717
-0.11484516 0.14183167 0.49746546
-0.12815236 0.21150140 0.55511838
-0.11361772 0.25719509 0.49215701
-0.02032346 0.30899629 0.08800832
-0.13525335 0.06880837 0.58586943
-0.12486555 -0.62774962 0.54087579
-0.07570714 -0.25500157 0.32793799
-0.01038594 0.35572550 0.04496286
-0.08199797 -0.01281529 0.35518834
-0.03410572 0.44938424 0.14772095
-0.14910674 -0.69227803 0.64588141
-0.00590383 0.61090517 0.02556288
-0.17774832 -0.12817460 0.76995462
-0.01861226 -0.28228459 0.08062210
-0.09644745 -0.29476383 0.41777807
-0.07352710 -0.52404463 0.31849480
-0.16118704 -0.71179426 0.69821054
-0.13346855 -0.75362164 0.57814115
-0.01612695 0.58435839 0.06984684
-0.02339941 0.49749640 0.10134501
-0.09321907 -0.18051530 0.40379396
-0.01872183 0.18933791 0.08106265
-0.09228221 -0.33605191 0.39973566
-0.04990918 0.32002461 0.21617253
-0.15818481 -0.17890842 0.68520969
-0.06128814 -0.55753273 0.26547971
-0.09083108 -0.35582617 0.39344987
-0.06621121 0.36324200 0.28679729
-0.02044989 -0.60712171 0.08858208
-0.04324539 0.05144758 0.18728778
-0.08552288 -0.62639922 0.37045652
-0.14022924 -0.25038481 0.60742998
-0.14094101 -0.26504979 0.61051303
-0.16634198 -0.61680686 0.72054130
-0.13477306 0.00312314 0.58378363
-0.11699430 -0.04500861 0.50678360
-0.05299564 -0.54850775 0.22955939
-0.01592366 0.22656094 0.06894357
-0.01230480 -0.54864389 0.05330029
-0.02475073 -0.27760759 0.10721190
-0.03506450 -0.50003773 0.15188770
-0.07131075 0.47520423 0.30889747
-0.15918066 -0.16080771 0.68952358
-0.13960165 -0.01059183 0.60471344
-0.01741604 0.56222403 0.07542968
-0.05195006 0.49005198 0.22502694
-0.16719344 -0.05227867 0.72423398
-0.00321075 -0.20769285 0.01390789
-0.06777992 -0.31272712 0.29359996
-0.13787825 -0.68383890 0.59724247
-0.14483736 -0.05340843 0.62739295
-0.08427279 -0.31710047 0.36504155
-0.00419769 -0.42564151 0.01818300
-0.04749810 -0.07062307 0.20574589
-0.05096289 -0.15407513 0.22075421
-0.06610534 0.28267112 0.28633240
-0.10944465 -0.75491470 0.47407758
-0.00150557 0.57150704 0.00650753
-0.07829479 -0.10091809 0.33914685
-0.03243170 0.56971133 0.14047831
-0.01305116 0.49150991 0.05651695
-0.09870810 -0.04325309 0.42757228
-0.07274804 -0.72661763 0.31512016
-0.07494108 -0.22872476 0.32461968
-0.11822339 -0.57968611 0.51210415
-0.06806395 -0.35133663 0.29483026
-0.05858280 0.08567209 0.25373024
-0.15178403 -0.67582291 0.65747893
-0.11595348 -0.43216035 0.50227177
-0.12881784 0.08735496 0.55799174
-0.03402665 -0.21154588 0.14739208
-0.03017356 -0.38000110 0.13070177
-0.00853999 0.73919606 0.03699107
-0.17449278 0.01409051 0.75585276
-0.15378144 -0.64556891 0.66613150
-0.03537440 0.39399385 0.15321305
-0.14078346 -0.28555438 0.60983044
-0.16423158 -0.62664926 0.71139950
-0.00946328 -0.05321648 0.04099176
-0.03579962 0.36240631 0.15505306
-0.01720452 0.47687247 0.07450800
-0.02596124 0.00918379 0.11241173
-0.08811012 0.12002993 0.38164592
-0.01521156 -0.75919414 0.06589139
-0.09841009 -0.55570674 0.42627957
-0.06650896 -0.04241169 0.28809455
-0.09358303 0.08226622 0.40535194
-0.17649855 -0.19009218 0.76454043
-0.02773808 0.58475035 0.12014641
-0.09718271 -0.78659952 0.42096302
-0.12487112 0.21111628 0.54090393
-0.12173266 -0.34316096 0.52730656
-0.00133653 -0.15019971 0.00578940
-0.05740925 -0.64900577 0.24867767
-0.13879985 -0.41581002 0.60123676
-0.08691228 -0.11634071 0.37647504
-0.06586173 -0.79445058 0.28529099
-0.11952708 -0.78084630 0.51775128
-0.10348233 -0.19676575 0.44825181
-0.16750962 -0.03629279 0.72560364
-0.14388146 -0.21872780 0.62325078
-0.14520055 -0.58341962 0.62896168
-0.04966200 -0.27093819 0.21511917
-0.09510068 0.16163340 0.41193268
-0.04883353 -0.08965195 0.21153051
-0.02214439 -0.46343517 0.09592209
-0.13259438 0.08474491 0.57435173
-0.04503676 0.40635166 0.19507159
-0.04949754 -0.59296870 0.21440677
-0.17079253 -0.47184354 0.73982126
-0.11336968 -0.69930410 0.49107954
-0.05114842 0.35719106 0.22154388
-0.03736886 0.53549445 0.16186376
-0.00884237 0.72727674 0.03830008
-0.05987361 -0.49389517 0.25935242
-0.15165047 -0.48738804 0.65690202
-0.08221423 0.10044597 0.35610300
-0.00753770 0.60273880 0.03264017
-0.02183454 -0.50854766 0.09457990
-0.02570532 0.64691788 0.11134518
-0.01030766 -0.00699375 0.04464935
-0.16926400 -0.56192732 0.73319936
-0.02453504 0.31289768 0.10625279
-0.10801506 -0.31392959 0.46788549
-0.00557039 -0.27368602 0.02412907
-0.12118301 -0.24479681 0.52492642
-0.14843467 0.02735375 0.64296842
-0.09166850 -0.75264430 0.39707726
-0.09685970 -0.24683452 0.41956380
-0.05140998 0.40375587 0.22268058
-0.09868173 -0.51146770 0.42745626
-0.16459739 -0.17207944 0.71298748
-0.12243233 0.01698660 0.53032392
-0.16572222 -0.07037856 0.71786088
-0.14001910 -0.67939728 0.60651612
-0.10178102 -0.06436104 0.44088325
-0.05928053 -0.15792203 0.25678343
-0.02289961 0.26074156 0.09916492
-0.11267721 0.18601058 0.48807716
-0.00448970 0.25299722 0.01941435
-0.00659533 -0.07217334 0.02856876
-0.04469234 -0.38283944 0.19359228
-0.05529117 0.09649015 0.23947190
-0.05608550 -0.32297155 0.24294363
-0.16141757 -0.10844352 0.69921386
-0.13169779 -0.73374629 0.57047075
-0.00976818 0.49667576 0.04229570
-0.13928336 0.16174935 0.60333478
-0.03765564 -0.28390294 0.16311163
-0.17467260 -0.31079555 0.75663000
-0.01751677 -0.22566696 0.07587678
-0.10302705 0.20122913 0.44627327
-0.10613743 -0.65662909 0.45975184
-0.09087985 0.38143998 0.39366478
-0.15875135 -0.48801884 0.68766123
-0.03359725 -0.58446902 0.14553203
-0.00242736 0.11358790 0.01047164
-0.00130629 0.38335076 0.00563236
-0.11721361 -0.60456866 0.50773019
-0.12708484 -0.38041860 0.55049050
-0.08833173 0.33140066 0.38262230
-0.00683078 -0.50812042 0.02958866
-0.13204099 0.18626349 0.57196230
-0.16597383 -0.57251811 0.71894687
-0.12430799 -0.32741144 0.53846240
-0.03662995 -0.00663883 0.15866870
-0.11954540 0.26237410 0.51783651
-0.17185408 -0.12302393 0.74442214
-0.02326332 0.23446839 0.10073882
-0.07234973 -0.39735717 0.31339484
-0.05497913 -0.37012821 0.23815122
-0.17380695 -0.61485445 0.75287813
-0.03430575 0.34950933 0.14858092
-0.04888170 0.54574013 0.21173890
-0.02208128 -0.64336920 0.09564871
-0.02471616 0.46887779 0.10704725
-0.07912330 0.09525975 0.34271249
-0.10304549 -0.06480241 0.44636062
-0.09471528 -0.18285848 0.41027522
-0.09356743 -0.36705828 0.40530279
-0.07296906 -0.32025081 0.31607756
-0.04007653 -0.53166044 0.17359813
-0.11753020 -0.32221973 0.50910270
-0.12953582 0.15781866 0.56110758
-0.14543080 -0.67373419 0.62995839
-0.15047821 -0.29096556 0.65182567
-0.06155501 -0.14067161 0.26663572
-0.04672335 -0.10844495 0.20238990
-0.13949704 -0.35311615 0.60425740
-0.12064368 -0.60227597 0.52258807
-0.00694766 -0.57582742 0.03009494
-0.03732839 -0.70156765 0.16169408
-0.02218546 -0.47656351 0.09610001
-0.08267982 -0.62679529 0.35814130
-0.12397988 -0.55324042 0.53703934
-0.01815282 -0.56703013 0.07863193
-0.13438234 -0.25572598 0.58210254
-0.13234368 -0.77540660 0.57326853
-0.08736986 -0.31226975 0.37845701
-0.12195337 0.01591570 0.52824891
-0.03868974 -0.62923223 0.16759101
-0.10212235 -0.32227638 0.44235983
-0.00341854 -0.34990573 0.01480796
-0.12602855 -0.17474419 0.54591674
-0.02417277 0.50885618 0.10469586
-0.00229123 -0.52837104 0.00992485
-0.05199303 -0.10154810 0.22521639
-0.17911600 -0.50554061 0.77587658
-0.09628067 0.14581953 0.41704324
-0.03354205 0.50225246 0.14528319
-0.06163687 -0.50405455 0.26699030
-0.14515169 0.11594109 0.62875324
-0.02320965 -0.50179595 0.10053643
-0.02776343 -0.54247320 0.12026187
-0.09000762 -0.36735618 0.38988289
-0.13821256 0.09828193 0.59869111
-0.03484529 0.42217982 0.15092279
-0.04996145 -0.45016074 0.21641627
-0.04973237 -0.69878387 0.21542399
-0.14844295 -0.06731974 0.64301133
-0.00801507 0.28423879 0.03468791
-0.04865981 -0.37837157 0.21077800
-0.13162924 -0.49851137 0.57017481
-0.04501347 -0.72402990 0.19498329
-0.15674885 -0.78813553 0.67898464
-0.11342773 -0.61196458 0.49133098
-0.00306870 -0.38895267 0.01329257
-0.02623607 -0.55101305 0.11364590
-0.04461248 -0.50912660 0.19324635
-0.05268803 -0.62817425 0.22822692
-0.00348139 0.27291170 0.01504769
-0.05325300 -0.55239880 0.23067419
-0.00986707 0.03512077 0.04269482
-0.10444080 -0.42157519 0.45240262
-0.17893596 -0.28774604 0.77509815
-0.03321711 -0.06613228 0.14388540
-0.16289881 -0.01159307 0.70563102
-0.01211188 0.52283913 0.05245006
-0.11909180 -0.79353553 0.51586586
-0.09599289 -0.04949720 0.41581061
-0.13681810 0.02716138 0.59264469
-0.07605733 0.01428194 0.32942429
-0.02497119 0.58955359 0.10816048
-0.16228138 -0.17449895 0.70295513
-0.02268809 -0.17661251 0.09827722
-0.12596400 -0.03352558 0.54563826
-0.12236277 -0.76045609 0.53003460
-0.00137293 -0.14303786 0.00594706
-0.09297940 -0.20791396 0.40275565
-0.12934005 -0.21045965 0.56026101
-0.10477189 0.08898558 0.45382333
-0.01868009 0.08160163 0.08087500
-0.00725952 0.49826622 0.03142850
-0.16942982 -0.61107230 0.73391730
-0.12968770 -0.18143834 0.56176716
-0.04727334 -0.00126557 0.20477228
-0.16221422 -0.17504960 0.70266420
-0.07356290 -0.35817009 0.31864986
-0.07183946 0.36580211 0.31117943
-0.17946906 -0.26982629 0.77740765
-0.17234617 -0.77868038 0.74654925
-0.02510340 0.25200611 0.10871099
-0.02211741 -0.33067033 0.09580522
-0.04353785 -0.39352360 0.18859141
-0.01448106 0.69768488 0.06272495
-0.01062890 -0.66965681 0.04604086
-0.05860195 -0.01319211 0.25384402
-0.04342223 -0.19333048 0.18809058
-0.06416050 0.42053008 0.27791792
-0.01409057 -0.26641947 0.06103563
-0.01205015 0.67420578 0.05219227
-0.12439856 -0.42956617 0.53885382
-0.08902428 -0.13169335 0.38562357
-0.09590176 -0.33988726 0.41541433
-0.04940078 -0.69318855 0.21398766
-0.06616518 0.15183707 0.28658152
-0.05424090 -0.35992283 0.23495345
-0.04274606 -0.65645260 0.18516165
-0.10270697 -0.37550390 0.44489226
-0.07570093 -0.07557423 0.32791108
-0.02424509 -0.27694303 0.10502161
-0.13797943 -0.17270777 0.59768498
-0.07809385 0.13286303 0.33825579
-0.02116439 -0.73855013 0.09167707
-0.13884032 -0.10250204 0.60141474
-0.14782523 0.08418149 0.64033270
-0.08819169 -0.37267843 0.38201690
-0.10365338 -0.41407850 0.44899178
-0.15654480 -0.62441349 0.67810190
-0.02592919 0.02980803 0.11227417
-0.10356524 0.16214228 0.44860172
-0.01352442 0.15611181 0.05854582
-0.14300537 -0.54910928 0.61945295
-0.01515323 -0.35684356 0.06563873
-0.16943952 -0.40763885 0.73396075
-0.07161086 -0.61561114 0.31019431
-0.17052093 -0.00624569 0.73864824
-0.00221342 0.63445324 0.00957786
-0.06444801 0.05674846 0.27913600
-0.02827435 -0.54015845 0.12247505
-0.07910354 0.41819173 0.34265193
-0.09697065 -0.03410084 0.42004615
-0.07171295 0.44436744 0.31063744
-0.04009778 0.37651858 0.17367332
-0.01956038 0.65821129 0.08472579
-0.06815529 0.31011194 0.29521504
-0.01258069 0.35446125 0.05447022
-0.06903046 -0.11244946 0.29901686
-0.01203724 -0.20033395 0.05214129
-0.11931762 -0.77541441 0.51684397
-0.07497399 0.37135866 0.32475883
-0.01596414 0.37433231 0.06912830
-0.12234471 -0.60591924 0.52995634
-0.12543637 0.23703852 0.54335463
-0.14742088 -0.51409590 0.63858026
-0.00975215 -0.34471649 0.04224304
-0.11311978 -0.17201822 0.48999906
-0.14239106 0.02182634 0.61678672
-0.09802211 0.28088477 0.42459771
-0.14909548 -0.18191984 0.64583689
-0.06277155 0.50475359 0.27190742
-0.00751716 -0.37371320 0.03256181
-0.09672755 -0.79454917 0.41899139
-0.05395763 -0.35169426 0.23372641
-0.16766357 -0.01189612 0.72627085
-0.15829605 -0.65159261 0.68568778
-0.04640643 0.45935339 0.20100917
-0.03626111 -0.49464092 0.15707099
-0.03930812 -0.05194409 0.17026964
-0.14103405 -0.27884915 0.61091596
-0.08979403 -0.34444946 0.38895768
-0.14389037 0.07901290 0.62328619
-0.00084353 0.33557439 0.00362471
-0.11668466 -0.51517934 0.50543892
-0.03021004 -0.57443732 0.13085978
-0.01420980 -0.67002070 0.06155208
-0.01550209 0.39689738 0.06712815
-0.09149330 -0.56968945 0.39631838
-0.06382404 0.42611581 0.27646080
-0.05963516 0.00273154 0.25828373
-0.09270394 -0.43002823 0.40156245
-0.04989476 -0.72517979 0.21612740
-0.05386045 -0.01463022 0.23330542
-0.08868618 -0.16342129 0.38415888
-0.13492404 0.05226241 0.58444148
-0.17561397 -0.12113175 0.76070911
-0.12571146 0.04068158 0.54453111
-0.00299334 0.25117296 0.01293213
-0.11762855 -0.12823857 0.50953037
-0.12906991 -0.48048460 0.55908853
-0.05666122 -0.71426451 0.24543744
-0.12327852 0.01834843 0.53398979
-0.00032660 -0.33883914 0.00141470
-0.06476093 -0.20018546 0.28052270
-0.00440670 -0.59601754 0.01908833
-0.04159875 0.35034421 0.18017361
-0.17827597 -0.29394183 0.77223915
-0.13242668 -0.51457763 0.57362896
-0.01994355 0.35123977 0.08636526
-0.04165510 -0.60708052 0.18043596
-0.14886643 -0.50287586 0.64484203
-0.08603791 -0.56376070 0.37268743
-0.00367589 0.70018053 0.01591729
-0.02468272 0.61725932 0.10691292
-0.06364525 -0.05697890 0.27568990
-0.16998491 -0.61488450 0.73632181
-0.00301591 0.49384743 0.01304529
-0.02118128 0.56491745 0.09174055
-0.16683555 -0.49398977 0.72268021
-0.13372399 -0.23042125 0.57925099
-0.00031629 -0.69549155 0.00137004
-0.17933208 -0.53330022 0.77681243
-0.08020268 -0.16498715 0.34741119
-0.05213532 -0.14982133 0.22583276
-0.15109964 -0.25277275 0.65451789
-0.13287166 -0.05811249 0.57556033
-0.10651090 -0.41955274 0.46136960
-0.08330539 0.42452678 0.36085543
-0.10501508 0.19452327 0.45488501
-0.11831341 -0.61637390 0.51249409
-0.14871164 -0.27266219 0.64417350
-0.05413453 0.10213686 0.23446180
-0.10388603 -0.04731105 0.45000178
-0.00444817 -0.22336231 0.01926798
-0.12775861 -0.02242100 0.55341214
-0.00657302 -0.55150914 0.02847214
-0.04954575 -0.36828259 0.21461563
-0.01349295 0.69654322 0.05844427
-0.01257880 0.49235493 0.05447076
-0.02454524 0.51833653 0.10630999
-0.16492584 -0.58769882 0.71440715
-0.15992580 -0.73043638 0.69274700
-0.12893924 0.01880312 0.55851239
-0.14948328 -0.09558848 0.64751750
-0.01303451 0.10301251 0.05642020
-0.08311840 -0.63624978 0.36004108
-0.05469816 0.18485481 0.23690861
-0.07631755 0.00312231 0.33055073
-0.09983943 -0.18442845 0.43247175
-0.00719035 -0.54932761 0.03114620
-0.00258873 -0.29684353 0.01121353
-0.00904017 0.54580700 0.03914510
-0.10524167 0.21613877 0.45586830
-0.05319983 -0.14039220 0.23044388
-0.14710335 -0.70596963 0.63720316
-0.05135063 0.34596288 0.22241898
-0.00222195 0.33614075 0.00959590
-0.12187423 -0.24844772 0.52792060
-0.02951650 -0.36707732 0.12785561
-0.03476665 -0.61365008 0.15059750
-0.15830700 -0.04241106 0.68574017
-0.09968696 -0.11311028 0.43181187
-0.10202989 -0.47114524 0.44195938
-0.14574352 -0.30581847 0.63131601
-0.03550127 -0.10781360 0.15377963
-0.17242549 -0.67479914 0.74689358
-0.13544481 -0.46395901 0.58670318
-0.06763759 0.02603429 0.29295102
-0.09215950 -0.68827271 0.39920411
-0.06670544 0.39890829 0.28894109
-0.00923641 0.20407300 0.03997356
-0.17887963 -0.28664902 0.77485424
-0.00162551 -0.49844325 0.00704114
-0.01370554 -0.25121686 0.05936780
-0.00813026 -0.46646363 0.03521756
-0.06125150 -0.38275826 0.26532099
-0.04551418 -0.18668205 0.19715220
-0.00675983 -0.00586314 0.02928131
-0.04545925 0.20013428 0.19688746
-0.15765093 -0.60169792 0.68289357
-0.16967998 -0.16475561 0.73500413
-0.02867085 -0.28521526 0.12419255
-0.15615338 -0.04159655 0.67641121
-0.10803533 0.23426816 0.46797198
-0.00902412 0.02345680 0.03904251
-0.02530852 -0.71848851 0.10962805
-0.02147657 0.48654386 0.09301477
-0.10274077 -0.63009018 0.44503865
-0.01677801 -0.61634690 0.07267673
-0.02886574 -0.20776276 0.12503672
-0.04959277 -0.74925715 0.21481928
-0.04490029 0.00935863 0.19445400
-0.08517264 -0.59552056 0.36893937
-0.05090550 -0.18574376 0.22050560
-0.08100048 -0.48413855 0.35086697
-0.02241240 0.68433809 0.09708298
-0.03511589 0.38130787 0.15209241
-0.07411233 0.25440758 0.32101700
-0.05206520 0.31240079 0.22551194
-0.15676542 -0.64081126 0.67905748
-0.02477875 -0.32470548 0.10733327
-0.02746937 -0.56947535 0.11898811
-0.03492490 -0.58095211 0.15128298
-0.03755705 -0.59113240 0.16268459
-0.04333682 0.53604293 0.18771739
-0.02961492 -0.08917192 0.12828191
-0.10603869 0.24920651 0.45932361
-0.07574587 -0.42029795 0.32810578
-0.17395051 -0.07935644 0.75350368
-0.08304362 -0.64785862 0.35971719
-0.05067819 -0.67325783 0.21952094
-0.17700854 -0.61172771 0.76674682
-0.01540224 -0.26505870 0.06671735
-0.05594342 0.41323811 0.24232046
-0.12952860 0.21838748 0.56108129
-0.10527503 0.12931038 0.45600608
-0.01683656 -0.56055421 0.07293036
-0.06866114 -0.46620995 0.29741707
-0.11680296 -0.32054958 0.50595248
-0.02635551 0.28589484 0.11413718
-0.02737495 -0.28923285 0.11857915
-0.07585904 -0.63839626 0.32859600
-0.16018066 -0.71454549 0.69385111
-0.01924815 -0.07907656 0.08337653
-0.07525347 -0.32986152 0.32597286
-0.06876784 -0.02852156 0.29787928
-0.04429469 -0.17447346 0.19186977
-0.00995204 -0.60945177 0.04310889
-0.15100642 0.04342303 0.65411061
-0.00325936 -0.16307178 0.01411846
-0.17356665 -0.74393874 0.75183636
-0.04940305 0.35261348 0.21398246
-0.03662959 0.39055619 0.15865023
-0.08866101 0.07449815 0.38402888
-0.05563650 -0.04717656 0.24099872
-0.14610814 -0.76284814 0.63289165
-0.06962817 0.48919675 0.30160955
-0.05220630 -0.16977982 0.22614023
-0.07263259 0.02085169 0.31458858
-0.00506257 -0.06555052 0.02192937
-0.13165715 -0.42811614 0.57029629
-0.02720142 -0.22403865 0.11782745
-0.09855873 -0.35034621 0.42692345
-0.10244079 0.23364870 0.44373605
-0.06076352 0.00452633 0.26317182
-0.09846742 -0.12538134 0.42652905
-0.03287121 0.12870279 0.14235266
-0.02697310 0.31661209 0.11681449
-0.02427361 0.57455349 0.10513735
-0.00560620 0.59045416 0.02427227
-0.09248685 -0.14749567 0.40062249
-0.08669405 0.13416404 0.37551251
-0.00033653 0.57379144 0.00144349
-0.07438017 0.43513370 0.32219130
-0.17047319 0.01611142 0.73843980
-0.04128595 -0.25059196 0.17883693
-0.02152119 -0.17794950 0.09322261
-0.12670504 0.01986193 0.54883379
-0.03647754 -0.04427714 0.15800849
-0.13307787 0.00024749 0.57643974
-0.09668950 -0.75434148 0.41882655
-0.13277721 -0.79867512 0.57514650
-0.15282077 -0.00514680 0.66197544
-0.04248801 -0.71938151 0.18404382
-0.01575128 0.18929066 0.06819447
-0.05775083 -0.21202533 0.25015727
-0.02192556 -0.02545311 0.09497420
-0.04691642 -0.42043757 0.20322624
-0.04429008 -0.45907435 0.19184983
-0.00764878 0.06672673 0.03308743
-0.00248951 -0.56592768 0.01078373
-0.08201201 0.33887216 0.35524544
-0.14977787 -0.45163891 0.64879066
-0.13760728 -0.73642755 0.59606868
-0.03776507 -0.30449018 0.16358565
-0.12233568 -0.13591152 0.52992040
-0.07897904 -0.14664473 0.34211081
-0.04802764 -0.40814254 0.20803966
-0.16647367 -0.48192585 0.72111273
-0.07055734 -0.11638798 0.30563080
-0.11649137 -0.74312413 0.50460166
-0.10450729 -0.00560571 0.45269328
-0.09132511 -0.46298587 0.39558980
-0.09007606 0.17873819 0.39016703
-0.04693250 -0.15360601 0.20329590
-0.15961000 0.01295427 0.69137955
-0.03668961 -0.23573571 0.15892710
-0.08035294 -0.17752826 0.34806204
-0.16121246 -0.51502514 0.69832200
-0.05168882 -0.41995570 0.22389866
-0.04000749 0.12551349 0.17326622
-0.09034784 -0.75667161 0.39135659
-0.03238611 -0.73134077 0.14028580
-0.13834319 -0.02325378 0.59926200
-0.09251482 -0.02668188 0.40074462
-0.08659426 -0.48029652 0.37509736
-0.05461817 -0.65149575 0.23658763
-0.08431074 -0.02652713 0.36520657
-0.04474253 0.40852007 0.19379711
-0.01928937 -0.06399721 0.08355508
-0.10719491 -0.78752089 0.46433249
-0.08720375 0.39668140 0.37774089
-0.07460914 -0.60344511 0.32318181
-0.02496084 -0.07311723 0.10812202
-0.02833724 -0.01233939 0.12274743
-0.02326482 0.03230588 0.10073252
-0.07999989 -0.63514382 0.34653276
-0.15825789 -0.11031801 0.68552685
-0.16592027 -0.47407538 0.71871555
-0.02735594 -0.19451934 0.11849676
-0.01134936 0.48723754 0.04914463
-0.05444027 -0.45287538 0.23581702
-0.10903676 -0.11246683 0.47231293
-0.05334263 -0.02509184 0.23106243
-0.02170270 0.25171322 0.09397944
-0.16359624 -0.53061795 0.70864797
-0.11752279 -0.15650065 0.50907201
-0.08160491 -0.45905504 0.35348517
-0.17431605 -0.06906637 0.75508726
-0.07505816 -0.68762940 0.32512683
-0.10772614 -0.28267279 0.46663421
-0.17117412 -0.35533237 0.74147505
-0.09732964 0.24295102 0.42159495
-0.05434131 -0.52150959 0.23538837
-0.10064752 -0.52125371 0.43597138
-0.14395370 -0.67062652 0.62355989
-0.14290118 -0.35911220 0.61900324
-0.10245441 -0.39998791 0.44379824
-0.05488863 -0.54909396 0.23775917
-0.00903237 0.51218891 0.03910920
-0.16733655 -0.62175065 0.72484964
-0.08799349 -0.15075386 0.38115838
-0.16240968 -0.18588877 0.70351076
-0.11501132 -0.04294472 0.49819386
-0.15631662 -0.49151522 0.67711461
-0.09573991 -0.27052882 0.41471326
-0.04156394 -0.12270502 0.18004107
-0.11976790 -0.11681169 0.51879758
-0.10648921 -0.59056216 0.46127564
-0.15418503 -0.36576185 0.66788203
-0.00202714 -0.12713210 0.00878088
-0.11021012 0.04456075 0.47737864
-0.06581365 -0.12775514 0.28508270
-0.01853499 -0.24367280 0.08028739
-0.09484744 0.08274762 0.41082951
-0.00987609 -0.73561776 0.04277993
-0.12162460 -0.21223573 0.52683955
-0.10595165 0.20294043 0.45894295
-0.00499757 -0.31950438 0.02164781
-0.15168241 -0.22078088 0.65704250
-0.17475887 -0.61142737 0.75700164
-0.14768806 -0.04511828 0.63974148
-0.01967783 0.62793374 0.08523226
-0.16164063 -0.70399714 0.70017546
-0.06224688 -0.21460316 0.26963267
-0.12268448 -0.76118809 0.53142816
-0.09920622 -0.64793128 0.42972815
-0.04264924 -0.63163358 0.18474226
-0.09420653 -0.72960526 0.40807119
-0.07034574 0.48011598 0.30471736
-0.06316765 -0.32967052 0.27362111
-0.07167864 -0.04969178 0.31048790
-0.10057345 -0.37081119 0.43565056
-0.10137469 -0.26852944 0.43912143
-0.15768126 -0.46868551 0.68302602
-0.16779681 -0.69113290 0.72684288
-0.11094048 -0.09686701 0.48055950
-0.13572152 -0.11544528 0.58790475
-0.02301547 0.12510130 0.09965824
-0.13751978 -0.38005733 0.59569210
-0.10396338 -0.15949546 0.45033589
-0.17649908 -0.66946572 0.76453960
-0.07238529 -0.35072991 0.31354889
-0.09317152 0.32546863 0.40358812
-0.00310804 -0.36868832 0.01346297
-0.05424479 0.26197714 0.23495018
-0.06552054 -0.04735925 0.28381306
-0.15948787 -0.56434816 0.69085109
-0.09787132 0.32973135 0.42394826
-0.10442161 0.17660522 0.45231268
-0.12696259 -0.40604806 0.54996073
-0.10814741 -0.04900132 0.46846101
-0.16174835 -0.30472881 0.70064503
-0.14168555 0.14781366 0.61374015
-0.08073525 -0.50694942 0.34971809
-0.06229462 -0.01749127 0.26983947
-0.02529686 0.08108688 0.10953821
-0.08913013 -0.08736900 0.38608247
-0.08060571 -0.52161342 0.34915698
-0.01583157 0.38398954 0.06855462
-0.04723891 -0.13000499 0.20462316
-0.07643479 -0.38968840 0.33108991
-0.15205599 -0.29255703 0.65866017
-0.09895901 -0.67120618 0.42865735
-0.08932777 -0.14937475 0.38693807
-0.15715204 0.01949647 0.68073201
-0.12982519 -0.76653612 0.56235927
-0.11691226 -0.72535670 0.50642478
-0.07275030 0.28276691 0.31511879
-0.07657087 -0.51168716 0.33167940
-0.05875263 -0.68164992 0.25449675
-0.04944175 -0.42750338 0.21416511
-0.06051777 -0.37872210 0.26214272
-0.00688521 -0.09918783 0.02982445
-0.06170197 0.00646365 0.26723719
-0.11534674 -0.44088069 0.49964350
-0.03676377 0.01496479 0.15920769
-0.15044731 0.07454463 0.65169102
-0.09701581 -0.10533676 0.42024118
-0.00961697 -0.42241269 0.04165748
-0.12770434 -0.14431188 0.55317599
-0.11183413 -0.15887330 0.48443004
-0.00001819 0.31178355 0.00004790
-0.09559356 -0.15418081 0.41407993
-0.04663787 -0.54610437 0.20201966
-0.14919628 -0.27317941 0.64627284
-0.02020013 -0.63047379 0.08750020
-0.09148624 0.06132150 0.39626691
-0.01556408 -0.41184393 0.06741840
-0.04763214 -0.51530898 0.20632648
-0.07982694 -0.16214342 0.34578359
-0.04610249 0.32475084 0.19968209
-0.08082220 -0.55603242 0.35009471
-0.08065691 -0.60631639 0.34937876
-0.15054476 -0.53490263 0.65211195
-0.00636353 0.59137630 0.02755304
-0.03827531 0.47482973 0.16578588
-0.01368107 -0.46970528 0.05926182
-0.02169015 -0.56281710 0.09395446
-0.04398879 0.32700929 0.19052561
-0.03587115 0.05939243 0.15534373
-0.09316315 0.09236039 0.40353379
-0.08401619 0.39117041 0.36393175
-0.08968111 -0.51336163 0.38846859
-0.09569912 0.35572141 0.41454017
-0.05998189 -0.13081737 0.25982147
-0.04619050 -0.38699907 0.20008178
-0.02962323 -0.55897975 0.12831789
-0.01811546 -0.74059653 0.07847012
-0.01310654 -0.43025410 0.05677317
-0.02520731 -0.13400173 0.10918965
-0.06402610 -0.44535607 0.27733967
-0.08045374 -0.34483942 0.34849870
-0.14131479 -0.09504688 0.61213362
-0.06997597 -0.22877087 0.30311248
-0.00917212 0.68196708 0.03972533
-0.11096053 -0.70427072 0.48064390
-0.04336970 0.03990598 0.18782558
-0.13305847 -0.38223076 0.57636684
-0.10955610 -0.12846957 0.47456244
-0.13387679 -0.47849783 0.57991076
-0.15533675 -0.13620782 0.67287296
-0.12540948 0.00082067 0.54321980
-0.07259254 -0.03981431 0.31444660
-0.07373739 0.13099059 0.31938317
-0.14617698 -0.23739986 0.63319427
-0.03262834 -0.13329221 0.14133504
-0.09795590 -0.68665254 0.42431217
-0.10058091 -0.51880395 0.43568283
-0.05772596 0.32249567 0.25003552
-0.16555770 -0.78208745 0.71714294
-0.17511937 -0.63712567 0.75856310
-0.07691034 0.06386829 0.33312342
-0.16918541 -0.28740898 0.73286068
-0.14671504 0.14764927 0.63552827
-0.09370983 -0.33332008 0.40591964
-0.17334852 -0.55195165 0.75089270
-0.00688174 -0.05429198 0.02980941
-0.01785906 -0.53028834 0.07735948
-0.05144853 -0.13172688 0.22285782
-0.14439091 -0.23748864 0.62545741
-0.16054764 -0.69562966 0.69544089
-0.02479122 0.64713478 0.10738527
-0.01508439 0.36912951 0.06531696
-0.07979576 0.18850899 0.34563288
-0.15067112 -0.77624959 0.65265727
-0.06874486 0.41031772 0.29777688
-0.11200611 -0.08208640 0.48517570
-0.03334277 -0.58804101 0.14442973
-0.17321432 -0.71281058 0.75031030
-0.03548130 -0.07878714 0.15369312
-0.04725522 0.07733486 0.20465966
-0.01300871 -0.21634378 0.05634938
-0.04395158 -0.69894677 0.19038352
-0.07829256 0.14290562 0.33911738
-0.07819823 0.04619688 0.33870125
-0.00488151 0.74138904 0.02114257
-0.12558119 -0.15137567 0.54397905
-0.02697005 -0.05351060 0.11682521
-0.14581662 -0.22693829 0.63163334
-0.08067091 0.11633692 0.34941849
-0.04203487 -0.64976990 0.18208098
-0.14842372 -0.16781266 0.64292717
-0.09690317 -0.67604268 0.41975209
-0.08792042 0.38386920 0.38084456
-0.05122655 -0.60334194 0.22189629
-0.16502263 -0.10250323 0.71483004
-0.08787349 0.08512813 0.38061810
-0.04729339 -0.78015465 0.20485914
-0.15671133 -0.34351599 0.67882562
-0.05563501 0.10924997 0.24096221
-0.15167449 -0.50463349 0.65700591
-0.08850460 0.03911151 0.38334855
-0.00835172 -0.30491397 0.03617687
-0.10498351 -0.27771595 0.45475385
-0.17217825 -0.75516593 0.74582201
-0.05178366 -0.09550851 0.22430950
-0.11376218 -0.73287416 0.49277970
-0.17224690 -0.79628724 0.74611908
-0.15759981 -0.65983760 0.68267173
-0.03920893 -0.56443554 0.16983996
-0.04853025 -0.38770905 0.21021679
-0.02195794 0.58734399 0.09510672
-0.15385824 -0.14147839 0.66646838
-0.01925552 0.66277868 0.08340547
-0.17674623 -0.13133518 0.76561373
-0.12263177 -0.35562408 0.53120112
-0.09239410 -0.75765777 0.40022036
-0.04885100 -0.27005735 0.21160619
-0.04820167 -0.34368783 0.20879351
-0.10511138 0.11001805 0.45529565
-0.02890865 0.27764586 0.12519664
-0.06834348 -0.17016529 0.29604110
-0.03217725 -0.13474584 0.13938107
-0.14185315 0.00172303 0.61445498
-0.02874470 -0.53716600 0.12451241
-0.06928448 0.41136053 0.30011463
-0.01891185 -0.10308690 0.08191982
-0.13212775 0.02509381 0.57232565
-0.10552408 0.15751381 0.45708716
-0.02087521 0.66633570 0.09042236
-0.03178149 -0.66698021 0.13766681
-0.05803772 -0.64368516 0.25139999
-0.02131762 -0.46248072 0.09234080
-0.05071696 -0.71294957 0.21968891
-0.10442544 0.16094300 0.45232806
-0.05980534 0.38834122 0.25904861
-0.12693216 -0.32572749 0.54982966
-0.15573440 -0.79360402 0.67459023
-0.04010507 0.33301362 0.17370202
-0.14568636 -0.65110958 0.63106555
-0.03954804 0.33719999 0.17128928
-0.12020296 -0.60479426 0.52067900
-0.12769216 -0.66004866 0.55311978
-0.01907048 -0.24003816 0.08260694
-0.10975373 -0.74784732 0.47541642
-0.09345972 -0.66549659 0.40483624
-0.07567031 -0.72618765 0.32777846
-0.05130419 0.07085336 0.22219902
-0.09710983 0.16934782 0.42063704
-0.08588186 -0.54508829 0.37201148
-0.06075264 -0.54060900 0.26316014
-0.14708328 -0.00988669 0.63712198
-0.08193801 0.03649660 0.35490149
-0.00006788 -0.44508043 0.00029401
-0.00233124 0.32442489 0.01006863
-0.04789371 -0.13921709 0.20745954
-0.17589134 -0.00218926 0.76191157
-0.04595110 0.44266236 0.19903539
-0.01951181 0.36853150 0.08449613
-0.08823576 -0.57072800 0.38220781
-0.01183033 0.10237045 0.05120375
-0.00986994 0.25357682 0.04272110
-0.06174203 0.25247988 0.26742795
-0.05602696 0.40001738 0.24268132
-0.09167262 -0.41986412 0.39709511
-0.06546649 0.35995817 0.28357086
-0.02932220 -0.73005772 0.12701395
-0.08665862 -0.70487428 0.37537614
-0.01102666 0.33632410 0.04773716
-0.15475076 -0.19369368 0.67033416
-0.05022539 0.35889873 0.21754539
-0.00153956 -0.68638152 0.00666885
-0.02811995 0.63687456 0.12180477
-0.10831002 -0.06706968 0.46916527
-0.12296543 -0.57511836 0.53264511
-0.06933369 -0.72632629 0.30033037
-0.04803471 -0.28498742 0.20807031
-0.07515199 -0.57592338 0.32553327
-0.00936966 0.30881429 0.04055742
-0.00456523 0.56978232 0.01976161
-0.15362655 0.04387634 0.66546124
-0.08069573 -0.36361814 0.34954688
-0.00769504 0.66398662 0.03332563
-0.04740769 0.00649460 0.20531566
-0.09787869 -0.00808668 0.42397979
-0.12017513 -0.53758019 0.52055842
-0.11409667 0.26899588 0.49423277
-0.04569417 0.39183739 0.19791842
-0.03413774 0.38243401 0.14785521
-0.00793114 0.28562012 0.03432444
-0.00286610 0.45333001 0.01239374
-0.13031086 0.10371703 0.56446087
-0.04018775 -0.73419416 0.17407990
-0.06301553 0.33952707 0.27295157
-0.15044427 -0.56291473 0.65167636
-0.05852910 0.03562875 0.25349447
-0.14098530 -0.71654165 0.61070108
-0.03582982 -0.41356450 0.15520281
-0.01481514 0.16212028 0.06413747
-0.05030302 0.48086646 0.21789110
-0.01991181 -0.02817874 0.08625131
-0.07874978 -0.58783150 0.34111768
-0.07206188 -0.10587321 0.31214795
-0.17307033 -0.35871452 0.74968892
-0.14311031 -0.36473110 0.61990905
-0.09614346 0.20039614 0.41645306
-0.04587002 0.29313746 0.19867277
-0.01041446 0.58061534 0.04510063
-0.11381127 -0.18545294 0.49299431
-0.14773171 0.07186480 0.63992661
-0.06580190 -0.57989830 0.28503180
-0.13422941 -0.48493534 0.58143818
-0.09829015 -0.06050239 0.42576167
-0.06458261 -0.23649180 0.27975023
-0.04307476 0.56861293 0.18658464
-0.17036532 -0.31268898 0.73797172
-0.00243838 -0.41902772 0.01056225
-0.15740019 0.04963791 0.68180937
-0.06551623 -0.65012884 0.28379440
-0.04247627 -0.19010831 0.18399300
-0.00566944 0.21505402 0.02452248
-0.02034400 -0.63829011 0.08812340
-0.14796224 -0.20871904 0.64092779
-0.00096770 -0.68216902 0.00419174
-0.13834508 0.09093770 0.59926462
-0.03052639 0.58377284 0.13222550
-0.02208551 -0.79077888 0.09566702
-0.06798501 0.16343158 0.29446602
-0.01270092 -0.01447704 0.05501613
-0.09121273 0.22544527 0.39509478
-0.03030407 0.43326291 0.13125131
-0.17445289 -0.51675558 0.75567681
-0.09865239 -0.31337062 0.42732915
-0.13045844 -0.36277920 0.56510431
-0.03240945 -0.64254177 0.14038689
-0.07630543 0.25700128 0.33051783
-0.08591143 -0.20507725 0.37213957
-0.02366616 -0.40799662 0.10251389
-0.05741997 -0.30131790 0.24872409
-0.08792073 -0.30340427 0.38084322
-0.05155040 0.40998459 0.22328936
-0.08809582 0.13538533 0.38158512
-0.09916111 0.25653937 0.42953005
-0.13416454 -0.58536220 0.58115637
-0.13376456 0.05634920 0.57941890
-0.16617788 -0.28802767 0.71983284
-0.07297466 -0.03570573 0.31610182
-0.01116931 -0.67470586 0.04838172
-0.04471612 -0.03768595 0.19369528
-0.00399348 -0.52687180 0.01729843
-0.16629644 -0.17783999 0.72034729
-0.05055082 0.56486756 0.21897113
-0.09655785 -0.63494027 0.41825631
-0.06395550 -0.22592215 0.27703384
-0.00751880 -0.52240634 0.03256893
-0.07838216 -0.15893188 0.33952531
-0.14879835 -0.49408579 0.64454722
-0.09331339 -0.00722625 0.40420404
-0.01928259 -0.07942408 0.08352571
-0.06863202 0.22742835 0.29727390
-0.00046251 -0.51502204 0.00200343
-0.17496035 -0.41619563 0.75787574
-0.14510635 -0.79093307 0.62855214
-0.02472400 0.42819786 0.10707863
-0.13782960 -0.63228309 0.59703207
-0.07128657 0.16237290 0.30876848
-0.06949002 -0.69166619 0.30100751
-0.01678186 0.00418908 0.07264712
-0.16407880 -0.09156334 0.71074176
-0.06633063 -0.42454472 0.28732210
-0.01280748 -0.02027658 0.05547773
-0.00940365 -0.78313756 0.04073348
-0.04734949 -0.73582423 0.20510215
-0.03025411 -0.14661115 0.13105066
-0.00345330 -0.56084877 0.01495853
-0.16504882 -0.19434716 0.71494281
-0.11208045 0.01123552 0.48547846
-0.01322145 -0.23187526 0.05727092
-0.01361730 -0.68790770 0.05898558
-0.16460288 -0.14732565 0.71301150
-0.13241138 -0.78325689 0.57356173
-0.14198659 -0.54610276 0.61503994
-0.06624834 -0.44889912 0.28696561
-0.00898689 0.33106887 0.03890071
-0.02006315 -0.69312912 0.08690684
-0.08539588 -0.29144815 0.36990637
-0.17201875 -0.31418031 0.74513406
-0.13058396 -0.23490459 0.56564909
-0.02077720 -0.57589328 0.08999990
-0.02575083 -0.00492111 0.11154398
-0.00680991 0.37217292 0.02947283
-0.02228558 -0.40082371 0.09653366
-0.07127057 -0.32451981 0.30872026
-0.09212952 -0.45707321 0.39907426
-0.00118702 0.19897611 0.00510402
-0.05523625 -0.66000789 0.23926494
-0.13863006 -0.28601256 0.60050237
-0.02654696 -0.02237825 0.11499256
-0.11235508 -0.19717851 0.48668638
-0.00850637 0.60692561 0.03683661
-0.04798936 -0.36817500 0.20787387
-0.04756324 -0.42069760 0.20602803
-0.11170426 -0.30823019 0.48386624
-0.08730775 0.27157021 0.37818170
-0.04516306 -0.06012429 0.19563125
-0.03232408 -0.32223547 0.14001709
-0.17125808 -0.47969750 0.74183786
-0.14305449 -0.44019336 0.61966664
-0.07369201 -0.14731719 0.31920913
-0.07911362 0.10258191 0.34267113
-0.02764145 0.62026751 0.11973055
-0.15139450 -0.47006860 0.65579331
-0.09001740 0.06469046 0.38990408
-0.06085964 -0.46357045 0.26362363
-0.14198589 -0.08544272 0.61504078
-0.00271349 0.36231589 0.01172688
-0.02727884 -0.48183587 0.11816279
-0.16728012 -0.21488997 0.72460806
-0.03700677 -0.70527309 0.16030096
-0.16205885 -0.64238733 0.70198750
-0.16697668 -0.27085820 0.72329313
-0.05556538 0.16543761 0.24066412
-0.02435178 -0.10992256 0.10548378
-0.08478383 -0.00803610 0.36725602
-0.05263073 0.53269941 0.22797893
-0.08088892 -0.49335477 0.35038376
-0.09564221 -0.21566761 0.41429013
-0.03209131 -0.11516623 0.13900881
-0.16012985 -0.71730357 0.69363099
-0.01703150 0.21261075 0.07374175
-0.04870699 -0.61789155 0.21098240
-0.14741038 -0.38289741 0.63853580
-0.08015178 0.36848199 0.34718910
-0.04906047 -0.43056196 0.21251355
-0.05140051 -0.00971646 0.22264981
-0.00213649 -0.00462713 0.00925455
-0.13432486 0.16086172 0.58185422
-0.08069807 -0.26647085 0.34955704
-0.04203959 -0.20541567 0.18210143
-0.01888502 -0.61454326 0.08180361
-0.01816207 0.23309785 0.07864058
-0.13243490 -0.57110322 0.57366413
-0.05230501 -0.53537881 0.22656780
-0.09428977 -0.03944763 0.40843320
-0.11271501 0.14201830 0.48823756
-0.03968630 0.55000609 0.17190418
-0.08686972 -0.64194453 0.37629056
-0.04178972 -0.75024271 0.18101907
-0.01866005 -0.14796115 0.08082908
-0.04516421 0.17246327 0.19560760
-0.13277954 -0.48754451 0.57515770
-0.08041797 -0.04063096 0.34834391
-0.00433277 0.45286480 0.01874719
-0.10408944 -0.12351670 0.45088226
-0.01273518 -0.42865762 0.05516454
-0.12347711 -0.54692483 0.53486151
-0.08726289 0.18523981 0.37798071
-0.01158822 0.51951474 0.05018137
-0.06084887 -0.14554213 0.26357692
-0.05775731 -0.48162964 0.25018534
-0.16954385 -0.02105077 0.73441565
-0.11826802 0.27362740 0.51230371
-0.16247277 -0.26253599 0.70378339
-0.08918381 0.00570948 0.38628834
-0.04797337 -0.79847974 0.20780461
-0.07871007 -0.64702737 0.34094569
-0.15227702 -0.70461744 0.65961421
-0.01080987 -0.24892801 0.04682473
-0.17901671 -0.15380831 0.77544886
-0.15755627 -0.31065491 0.68248594
-0.06569838 0.12751064 0.28455743
-0.16075835 -0.43267941 0.69635552
-0.05299229 -0.31633505 0.22954488
-0.03090362 0.09575065 0.13382713
-0.08324033 0.34739786 0.36056727
-0.03659352 0.22162990 0.15848325
-0.04143668 0.13591819 0.17945798
-0.13187411 -0.07189723 0.57123911
-0.09311774 0.03454774 0.40333259
-0.09074757 -0.36840630 0.39308813
-0.01376392 0.59704930 0.05961125
-0.06526227 0.01246698 0.28266051
-0.13724796 -0.69669735 0.59451222
-0.09881208 -0.08601219 0.42802233
-0.15663974 -0.27235600 0.67851609
-0.13857067 -0.31569141 0.60024488
-0.15363128 -0.39575240 0.66548312
-0.02230502 -0.20673805 0.09661787
-0.00492774 -0.66562808 0.02134534
-0.05311089 0.37593096 0.23004687
-0.05215370 -0.79780948 0.22591241
-0.12743664 0.22755718 0.55201918
-0.00804285 -0.36126959 0.03483893
-0.05213668 0.28229418 0.22581930
-0.02520804 -0.17194393 0.10919281
-0.10613187 -0.45681646 0.45972776
-0.06347248 0.46454501 0.27494079
-0.13252445 -0.59488970 0.57405180
-0.01361446 0.51614130 0.05895864
-0.00797459 -0.32435152 0.03454324
-0.07547179 -0.19245300 0.32691854
-0.07687796 0.34450871 0.33300486
-0.05041512 0.17095432 0.21835400
-0.07868262 -0.28824764 0.34082678
-0.08102650 0.14175932 0.35096088
-0.00201616 0.74991786 0.00873064
-0.14690346 0.06472140 0.63633800
-0.05407250 0.05552640 0.23419015
-0.05583368 -0.08287719 0.24185281
-0.17112091 -0.00735849 0.74124718
-0.04664758 -0.33681977 0.20206171
-0.16832878 -0.56460750 0.72914809
-0.00208770 0.58824503 0.00903030
-0.07619356 -0.68587512 0.33004504
-0.01404984 0.22659686 0.06082635
-0.05181709 -0.05419821 0.22445428
-0.04466945 -0.74175668 0.19349311
-0.12660921 0.02070028 0.54841864
-0.03949012 0.39974880 0.17104270
-0.08040310 -0.40188691 0.34827933
-0.06901287 -0.16564165 0.29894069
-0.06745286 0.19408742 0.29216310
