ply
format ascii 1.0
element vertex 1235
property float x
property float y
property float z
end_header
-0.05490379 -0.20134825 0.00000000
-0.36453840 -0.12593848 0.00000000
-0.59241760 -0.11409192 -0.00000091
-0.35614866 -0.00491086 -0.00000010
-0.27171442 0.11196761 0.00000000
-0.53903645 -0.47506198 -0.00000005
-0.10478478 -0.70091814 0.00000000
-0.27993590 -0.29934776 0.00000000
-0.47023013 0.15445590 -0.00000087
-0.00714192 -0.03705106 0.00000000
-0.36825189 -0.42164561 0.00000000
-0.18171944 0.57612312 -0.00000038
-0.07710080 0.10091937 0.00000000
-0.12072487 -0.31682160 0.00000000
-0.64788973 -0.47100058 -0.00000052
-0.42151919 0.11384889 -0.00000059
-0.55827361 -0.68794495 0.00000000
-0.31992704 -0.51125515 0.00000000
-0.46874040 -0.66716164 0.00000000
-0.21058916 -0.69880509 0.00000000
-0.44960386 -0.15728940 -0.00000023
-0.39110637 -0.71764261 0.00000000
-0.12726301 -0.56972140 0.00000000
-0.07123216 0.13328741 0.00000000
-0.58753067 -0.65812284 0.00000000
-0.04173157 0.58865434 0.00000000
-0.48742762 -0.14101243 -0.00000042
-0.77208167 -0.15627585 -0.00000160
-0.20102458 0.22668318 0.00000000
-0.57593018 -0.45396030 -0.00000024
-0.38964736 -0.27225783 0.00000000
-0.70483357 -0.54140043 -0.00000064
-0.56733406 -0.04629180 -0.00000093
-0.76573944 -0.21490841 -0.00000146
-0.24620409 -0.14266334 0.00000000
-0.22525592 -0.00786501 0.00000000
0.31807664 -0.16131537 0.73150963
-0.55108482 -0.09983287 -0.00000076
-0.13610800 -0.76216078 0.00000000
-0.21276146 0.39529619 -0.00000019
-0.55203450 -0.14916691 -0.00000068
-0.13995722 -0.25501245 0.00000000
-0.05825257 -0.77739674 0.00000000
-0.68209028 -0.60576344 -0.00000043
-0.64522541 -0.59653538 -0.00000028
-0.20012562 -0.45167202 0.00000000
-0.01900250 -0.58687615 0.00000000
-0.49405420 -0.28530708 -0.00000019
-0.16553567 -0.15153614 0.00000000
-0.38036504 0.10297674 -0.00000039
-0.44690928 -0.09074163 -0.00000033
-0.00219151 -0.47580191 0.00000000
-0.79348975 -0.15738393 -0.00000161
-0.40359506 -0.45105901 0.00000000
-0.71347147 -0.72538459 -0.00000019
0.18371439 0.26170129 0.42250758
-0.12189507 0.60219246 -0.00000017
-0.23405713 -0.36356464 0.00000000
-0.21467026 -0.32677814 0.00000000
0.29796463 -0.07707249 0.68525606
-0.06220626 0.54006130 0.00000000
-0.20678706 -0.30475029 0.00000000
-0.19433133 0.32161784 0.00000000
-0.31204668 -0.76716000 0.00000000
-0.12138965 0.51198488 -0.00000001
-0.25203484 -0.11357126 0.00000000
-0.67820990 -0.47568494 -0.00000064
-0.09675613 0.68149477 -0.00000020
-0.00747784 0.34470761 0.00000000
-0.49256709 -0.57463342 0.00000000
-0.03579433 -0.69924110 0.00000000
0.24803291 0.08281836 0.57042730
0.30508962 0.02529877 0.70164198
-0.45261261 0.07731453 -0.00000065
-0.38188839 -0.67946303 0.00000000
-0.71371007 -0.47197869 -0.00000080
-0.71910709 -0.43415296 -0.00000089
-0.15326990 -0.33252025 0.00000000
-0.79118556 -0.58471471 -0.00000054
-0.50063246 -0.75735056 0.00000000
-0.08609982 -0.34938976 0.00000000
-0.50341606 -0.01078239 -0.00000072
-0.47680539 -0.30237773 -0.00000009
0.19781949 0.25126505 0.45494524
-0.01543087 0.01297857 0.00000000
-0.50158644 0.05553535 -0.00000082
-0.71207380 -0.42241237 -0.00000088
-0.60422051 -0.23095049 -0.00000076
-0.74790013 -0.48932573 -0.00000078
-0.07958564 0.42983502 0.00000000
-0.25641805 0.47023314 -0.00000051
-0.27647331 -0.73372781 0.00000000
-0.79409546 -0.56688100 -0.00000058
-0.40620390 0.02433463 -0.00000036
-0.07104320 0.70736963 -0.00000014
-0.40991908 -0.68135679 0.00000000
-0.32268339 -0.53337455 0.00000000
0.24502397 0.10990267 0.56350648
-0.42874786 -0.49692348 0.00000000
-0.00169069 0.15571153 0.00000000
-0.73415995 -0.73617685 -0.00000016
-0.62185603 -0.33611774 -0.00000065
-0.10868939 -0.02150175 0.00000000
0.30465865 -0.05522315 0.70065075
-0.04582389 0.47909209 0.00000000
-0.54567444 0.18480313 -0.00000124
-0.25276467 0.32422900 -0.00000024
-0.48187116 0.17581768 -0.00000095
-0.41820186 -0.06015225 -0.00000026
-0.74420786 -0.56705701 -0.00000058
-0.20974515 -0.12096008 0.00000000
-0.04696280 -0.53509116 0.00000000
-0.06165026 0.60579050 0.00000000
-0.07177185 0.63556260 -0.00000002
-0.09663644 -0.23057507 0.00000000
0.13327019 0.43183523 0.30649468
-0.32928878 -0.04359126 0.00000000
-0.52840686 -0.25802520 -0.00000038
-0.08783881 0.65743244 -0.00000012
-0.17207800 0.53078407 -0.00000026
0.27226523 0.08150820 0.62615395
-0.17384616 0.37915117 0.00000000
-0.53273624 -0.06100909 -0.00000075
0.26201057 0.08894715 0.60257125
-0.08281026 -0.12923509 0.00000000
-0.00921962 -0.25657338 0.00000000
-0.34016415 -0.58440542 0.00000000
-0.10312550 0.41436216 0.00000000
-0.18412988 0.04776860 0.00000000
-0.12241317 -0.01834610 0.00000000
0.31539929 -0.14846779 0.72535229
-0.44964537 -0.64247221 0.00000000
-0.08401618 -0.40007180 0.00000000
-0.75207883 -0.25360709 -0.00000135
-0.27502805 -0.23225904 0.00000000
0.19054542 0.31607231 0.43821442
-0.07568983 -0.13750996 0.00000000
0.19840011 0.20145389 0.45628262
-0.75895441 -0.06466076 -0.00000171
0.25840545 0.07750612 0.59428108
-0.23981173 -0.68185455 0.00000000
-0.11429730 0.03202690 0.00000000
-0.40449151 -0.62960154 0.00000000
-0.73826909 -0.54724604 -0.00000063
-0.38606247 0.14408606 -0.00000049
-0.53325164 -0.23683630 -0.00000044
-0.43531168 0.29349190 -0.00000096
-0.59325391 0.15420546 -0.00000139
-0.05652541 -0.06323753 0.00000000
-0.48742190 -0.24833372 -0.00000023
-0.28109619 -0.08124681 0.00000000
0.28528532 -0.02113487 0.65609628
-0.34322682 -0.49500173 0.00000000
0.06074734 0.61080569 0.13970761
-0.28416997 0.13171013 -0.00000003
-0.33032313 -0.13067168 0.00000000
-0.27261862 -0.68131334 0.00000000
-0.44416982 -0.30257699 0.00000000
-0.22503920 0.33131662 -0.00000013
-0.02040530 0.70323890 0.00000000
-0.22889057 0.09650694 0.00000000
-0.69977987 -0.78583026 -0.00000004
-0.12853143 0.17229307 0.00000000
-0.63042581 -0.50405282 -0.00000039
-0.20727074 0.29605648 0.00000000
-0.65975088 0.07653686 -0.00000154
-0.03654904 -0.01502958 0.00000000
-0.03017521 -0.68657136 0.00000000
-0.43308821 -0.00892630 -0.00000042
-0.78991473 -0.77733147 -0.00000006
-0.37227789 -0.77882653 0.00000000
-0.56658643 -0.64097619 0.00000000
-0.27605703 -0.38872492 0.00000000
-0.14205500 0.19433905 0.00000000
-0.30333036 0.36875248 -0.00000053
-0.25675082 0.33356464 -0.00000027
0.31431448 -0.12135253 0.72285730
-0.55498391 -0.25535232 -0.00000050
0.30133227 -0.08905117 0.69300097
-0.32664135 0.07371152 -0.00000011
-0.09202577 0.42100653 0.00000000
-0.01058186 -0.43440184 0.00000000
-0.68763381 -0.49349418 -0.00000065
0.22639702 0.11824071 0.52067018
0.14506789 0.34023905 0.33362961
-0.12683125 -0.73569560 0.00000000
0.18004856 0.34293512 0.41407382
-0.27805141 -0.42851630 0.00000000
-0.38113028 -0.04703118 -0.00000013
-0.03154910 0.46724781 0.00000000
-0.08714542 -0.53658658 0.00000000
-0.57323486 -0.60683274 0.00000000
-0.29494396 0.19250825 -0.00000018
-0.73808372 -0.62520516 -0.00000044
-0.38828787 0.01270062 -0.00000027
-0.70618337 -0.30594298 -0.00000106
-0.44697174 -0.07058971 -0.00000037
-0.20855074 -0.51046181 0.00000000
-0.07240323 0.29733047 0.00000000
-0.09147214 -0.20660800 0.00000000
-0.78602833 -0.37467727 -0.00000106
-0.79491961 -0.49196166 -0.00000077
-0.22661881 0.13436295 0.00000000
-0.61570340 -0.18796669 -0.00000088
-0.65952474 -0.20084985 -0.00000105
-0.23531607 -0.67467606 0.00000000
-0.73746985 0.01846411 -0.00000177
-0.50316328 -0.30835214 -0.00000019
-0.35514766 -0.21209869 0.00000000
-0.08064748 0.67630613 -0.00000013
-0.73104525 -0.06488202 -0.00000159
-0.05606481 -0.55012017 0.00000000
-0.36761734 -0.48432228 0.00000000
-0.41457236 -0.57690805 0.00000000
-0.64375639 -0.17545696 -0.00000102
-0.50041950 0.00725480 -0.00000073
-0.18652900 -0.61867976 0.00000000
-0.04041029 -0.06599914 0.00000000
-0.67522788 -0.46468967 -0.00000065
-0.07734614 0.39325678 0.00000000
-0.34273514 -0.16932908 0.00000000
-0.77112448 -0.67585504 -0.00000031
-0.51097912 -0.50892657 0.00000000
-0.11101227 -0.42532957 0.00000000
-0.47781608 -0.17269579 -0.00000032
-0.07159018 -0.72003770 0.00000000
-0.78738755 -0.42365155 -0.00000094
-0.66921097 -0.59974343 -0.00000038
-0.24105017 -0.56233382 0.00000000
0.23283201 0.07099545 0.53547060
-0.67986178 -0.66619337 -0.00000031
-0.46986637 -0.66115582 0.00000000
-0.03379966 -0.09460085 0.00000000
-0.65856659 0.07810249 -0.00000153
-0.78794885 -0.10725842 -0.00000173
-0.22200544 -0.62011796 0.00000000
-0.44599596 -0.60399717 0.00000000
-0.47642857 -0.57135975 0.00000000
-0.56408858 0.10823315 -0.00000118
-0.46180269 0.14172138 -0.00000081
-0.52670974 -0.06332799 -0.00000072
-0.21441460 -0.00115206 0.00000000
-0.62720746 -0.66584116 -0.00000009
-0.11750767 -0.69150734 0.00000000
0.23021759 0.20457134 0.52945250
-0.74222302 -0.35721466 -0.00000111
0.17273711 0.24589273 0.39726403
-0.62900841 0.09506092 -0.00000144
-0.45877850 0.16566114 -0.00000084
-0.73665267 -0.48634416 -0.00000078
-0.08932515 -0.42665601 0.00000000
-0.09721542 0.60852087 -0.00000008
-0.45100951 -0.25889674 -0.00000005
-0.68578023 -0.20453808 -0.00000115
-0.16723900 -0.59523839 0.00000000
-0.07883581 0.51024425 0.00000000
-0.16944212 0.32150507 0.00000000
-0.76600260 -0.01533772 -0.00000183
-0.31938124 0.03490306 -0.00000001
-0.23229142 -0.22209013 0.00000000
-0.75491762 -0.07945569 -0.00000167
-0.47626585 -0.71122742 0.00000000
-0.33532235 -0.36031789 0.00000000
-0.71168208 -0.71352965 -0.00000022
-0.49506521 -0.24278615 -0.00000027
-0.01943870 0.59061569 0.00000000
-0.54857755 -0.26990125 -0.00000045
-0.57441145 -0.13923217 -0.00000079
-0.22603752 0.03077855 0.00000000
-0.12912092 -0.79059970 0.00000000
-0.40083981 0.36413804 -0.00000094
-0.43148288 -0.46943557 0.00000000
-0.52415603 -0.21898650 -0.00000044
-0.04006566 -0.59648466 0.00000000
-0.20190927 -0.53821129 0.00000000
-0.30103859 -0.35476384 0.00000000
-0.20686693 0.13262337 0.00000000
-0.49486980 -0.06961164 -0.00000057
-0.35410494 -0.15478753 0.00000000
-0.00242742 -0.22995542 0.00000000
-0.41142368 0.03815098 -0.00000041
-0.04607212 -0.42741844 0.00000000
-0.06758562 -0.06262628 0.00000000
-0.72848696 -0.22753759 -0.00000129
-0.42161712 0.04290218 -0.00000046
-0.71831149 -0.51198351 -0.00000072
-0.40429911 -0.63849115 0.00000000
-0.60336381 0.17346646 -0.00000147
-0.11756115 0.31898877 0.00000000
-0.20029543 0.09840521 0.00000000
-0.03766193 0.68672723 0.00000000
-0.33011800 -0.53095776 0.00000000
-0.20017818 0.46165881 -0.00000026
-0.67651683 -0.79417682 -0.00000001
-0.48825562 0.29860133 -0.00000120
-0.37323862 -0.12996174 0.00000000
-0.76866651 -0.12799390 -0.00000164
-0.00480514 0.79394752 -0.00000001
-0.52798492 -0.53355902 0.00000000
0.17053650 0.29977030 0.39220101
-0.59014815 -0.07074330 -0.00000098
-0.76976544 -0.77927101 -0.00000005
-0.15143009 0.01532149 0.00000000
-0.56956935 -0.59197640 0.00000000
-0.63237226 -0.71171045 -0.00000003
-0.33027181 -0.37645823 0.00000000
-0.64371455 -0.33778292 -0.00000074
-0.35456553 -0.59365040 0.00000000
-0.79283243 -0.34818667 -0.00000113
-0.06871404 -0.75207597 0.00000000
-0.05947296 0.27315772 0.00000000
-0.36707368 -0.53521997 0.00000000
-0.22907993 -0.77079403 0.00000000
-0.05512356 0.33457878 0.00000000
-0.42995319 -0.74768323 0.00000000
-0.33478403 -0.36373228 0.00000000
-0.54961956 -0.03612087 -0.00000087
-0.13376758 0.21689776 0.00000000
-0.10356965 -0.69199443 0.00000000
-0.22517253 0.24277274 0.00000000
-0.27741912 -0.77082700 0.00000000
-0.36408758 -0.24137215 0.00000000
-0.20190334 -0.09321509 0.00000000
-0.01452727 0.52403706 0.00000000
-0.54027164 -0.22934081 -0.00000049
0.31145015 -0.08518259 0.71626985
-0.60528445 -0.07602678 -0.00000103
-0.31578717 -0.68487096 0.00000000
-0.06993815 -0.03897428 0.00000000
-0.56701297 0.17279387 -0.00000131
-0.54990190 -0.69644058 0.00000000
-0.02325828 0.02727794 0.00000000
-0.38078538 0.14337327 -0.00000046
-0.69899064 -0.36914012 -0.00000092
-0.27731571 0.15486433 -0.00000004
-0.68830097 -0.48802605 -0.00000066
-0.09221567 0.13071603 0.00000000
-0.09093741 -0.25608474 0.00000000
-0.24205819 -0.41662523 0.00000000
-0.55380726 -0.44742385 -0.00000016
-0.11679613 0.55069137 -0.00000006
-0.53515005 -0.26931927 -0.00000039
-0.71991485 -0.64596200 -0.00000039
0.22461142 0.13156497 0.51656330
-0.41851416 -0.62172335 0.00000000
-0.32076415 0.00338462 0.00000000
-0.55558640 -0.22546400 -0.00000056
-0.01779357 -0.56478161 0.00000000
-0.29238138 -0.45063505 0.00000000
-0.18228406 -0.17493349 0.00000000
-0.14375176 0.62966502 -0.00000031
-0.32244232 -0.06004434 0.00000000
-0.00942623 0.04638078 0.00000000
-0.53181839 -0.55707461 0.00000000
0.16187865 0.35743681 0.37228820
-0.02649952 0.74211389 -0.00000001
-0.21141300 0.52454597 -0.00000042
-0.44966719 0.29578072 -0.00000103
-0.06194529 0.25834697 0.00000000
-0.04165772 -0.68557525 0.00000000
-0.40554062 -0.46151456 0.00000000
-0.65668517 -0.04928133 -0.00000130
-0.05988237 -0.54355842 0.00000000
-0.60467559 -0.17917939 -0.00000085
-0.64675474 -0.24443083 -0.00000091
-0.30044425 -0.40134296 0.00000000
-0.09227420 -0.29700500 0.00000000
-0.56545699 -0.74930429 0.00000000
-0.54154581 -0.68405181 0.00000000
-0.14390957 -0.27376574 0.00000000
-0.72806448 -0.20880835 -0.00000132
-0.51963800 -0.73327297 0.00000000
-0.12220627 0.49620613 0.00000000
-0.08233126 -0.60366607 0.00000000
-0.51184839 0.19538479 -0.00000112
0.19248083 0.29719755 0.44266602
-0.01888849 0.60830855 0.00000000
-0.33063847 0.40358371 -0.00000071
-0.27156758 -0.28393975 0.00000000
-0.35106072 0.15366688 -0.00000036
-0.09848101 -0.00487552 0.00000000
-0.08940904 0.57002550 0.00000000
-0.32405889 -0.58968997 0.00000000
-0.19397914 0.57056290 -0.00000042
0.29790500 0.02408028 0.68511969
-0.34075496 -0.55813754 0.00000000
-0.09967055 0.12974170 0.00000000
-0.67347407 0.00098816 -0.00000146
-0.36316839 0.13257229 -0.00000037
-0.23098551 0.14601472 0.00000000
-0.78712147 -0.00238542 -0.00000194
-0.08395188 0.44967997 0.00000000
-0.19917554 -0.17911211 0.00000000
-0.33961007 -0.17566381 0.00000000
-0.25282088 -0.32608548 0.00000000
-0.73021656 -0.52061033 -0.00000070
-0.13712394 -0.19980150 0.00000000
-0.45661125 -0.21436302 -0.00000016
-0.08863737 -0.45720226 0.00000000
-0.16042694 -0.63539577 0.00000000
-0.60223740 -0.37585574 -0.00000049
-0.39544278 -0.27539912 0.00000000
-0.07639455 -0.63627684 0.00000000
-0.12724605 0.39182442 0.00000000
-0.06826309 -0.24103183 0.00000000
-0.59712905 -0.64646012 0.00000000
0.12866496 0.44918633 0.29590341
-0.59610897 0.12755471 -0.00000136
-0.02399070 0.07269526 0.00000000
-0.63192731 -0.79058743 0.00000000
-0.68472296 0.06058674 -0.00000162
-0.51274288 0.08499788 -0.00000092
-0.56147552 -0.10016449 -0.00000080
-0.40084413 0.17623866 -0.00000061
-0.04000027 0.00787644 0.00000000
-0.67073452 -0.58619249 -0.00000041
-0.64454842 -0.30781350 -0.00000079
-0.42488721 -0.35428432 0.00000000
-0.06639395 -0.57487464 0.00000000
-0.51319945 0.23557155 -0.00000119
-0.69880801 0.04139361 -0.00000164
-0.13787338 -0.62270302 0.00000000
-0.02538091 -0.22494107 0.00000000
-0.59681618 0.16605648 -0.00000143
-0.09969829 -0.43382713 0.00000000
-0.42731148 0.13101695 -0.00000064
0.19281936 0.29247436 0.44344476
-0.77647465 -0.45414546 -0.00000086
0.13473959 0.37866250 0.30987614
-0.51088971 0.26488489 -0.00000123
-0.13819554 -0.33049613 0.00000000
-0.74791622 -0.36811063 -0.00000108
-0.00039839 0.30817017 0.00000000
-0.37496907 -0.71232843 0.00000000
-0.10085128 -0.02343973 0.00000000
-0.12320486 -0.05487398 0.00000000
-0.01856039 0.10554577 0.00000000
-0.33154526 -0.56199831 0.00000000
-0.10567997 -0.59708560 0.00000000
-0.07068112 0.38262084 0.00000000
-0.56643254 -0.27905482 -0.00000051
-0.04476363 0.34991154 0.00000000
-0.26831257 0.01370468 0.00000000
0.26185834 0.01567852 0.60222429
-0.77011126 -0.59590387 -0.00000051
-0.15946274 0.42021003 -0.00000001
-0.77741849 -0.74977994 -0.00000013
0.24063914 0.13898546 0.55342162
-0.42324787 -0.14689489 -0.00000013
-0.58311546 -0.63959867 0.00000000
-0.37635013 -0.30301362 0.00000000
-0.61984211 -0.15035591 -0.00000097
-0.21051164 -0.19106323 0.00000000
-0.23774749 -0.60686612 0.00000000
-0.10137840 -0.27681112 0.00000000
-0.12923883 0.05523115 0.00000000
-0.11784474 -0.00030647 0.00000000
-0.13103341 0.42498657 0.00000000
-0.79795033 -0.12233822 -0.00000169
-0.06760899 -0.45460451 0.00000000
-0.21567725 0.23346160 0.00000000
-0.42421934 -0.36296377 0.00000000
-0.20507354 -0.31878340 0.00000000
-0.10548754 -0.34353104 0.00000000
-0.27047372 -0.75308532 0.00000000
-0.30762342 -0.59404278 0.00000000
-0.50586659 -0.28363693 -0.00000024
0.11528120 0.43072584 0.26512581
-0.39600831 -0.67353600 0.00000000
-0.18651417 -0.37265009 0.00000000
-0.61139566 -0.61597049 -0.00000011
-0.74817443 -0.32448724 -0.00000119
-0.75894505 0.00977826 -0.00000184
-0.33395448 -0.06889060 0.00000000
0.10659707 0.46740395 0.24515352
-0.69191825 -0.44667917 -0.00000075
-0.32466391 0.42857632 -0.00000073
-0.12066007 -0.66074246 0.00000000
-0.55135423 -0.10641014 -0.00000075
-0.09409547 0.40094998 0.00000000
-0.33230245 0.42340454 -0.00000075
-0.44644335 0.19831876 -0.00000084
-0.21082599 -0.13980827 0.00000000
-0.76447695 -0.48301011 -0.00000079
-0.49912560 -0.14115913 -0.00000047
0.06308133 0.63282245 0.14507411
0.25744379 0.08993841 0.59206903
-0.10522131 -0.27544820 0.00000000
-0.19220352 0.38051805 -0.00000008
-0.09214139 0.61303848 -0.00000006
0.13385253 0.37551337 0.30783635
-0.60012370 -0.62544227 -0.00000004
-0.38400716 0.21691155 -0.00000061
-0.65679264 -0.37632766 -0.00000072
-0.09129861 -0.74059731 0.00000000
-0.04983436 -0.40319595 0.00000000
-0.37892714 0.22446296 -0.00000060
-0.22654691 0.17116058 0.00000000
-0.32316607 -0.05095369 0.00000000
-0.05407956 0.72975618 -0.00000011
-0.37741643 0.20821960 -0.00000056
-0.71219188 -0.04543228 -0.00000154
-0.21731633 0.54885209 -0.00000048
-0.32291996 -0.31353167 0.00000000
-0.59994882 -0.22751084 -0.00000074
0.18106219 0.22846034 0.41640979
-0.46414620 -0.25371292 -0.00000012
-0.49590498 -0.52663314 0.00000000
-0.14918923 0.11914079 0.00000000
-0.36739725 0.20107496 -0.00000051
-0.28080413 0.46674988 -0.00000061
-0.32912901 -0.49689463 0.00000000
-0.39043835 -0.01244161 -0.00000023
-0.57545668 -0.14585400 -0.00000078
-0.02997328 -0.33154523 0.00000000
-0.60199153 -0.10040420 -0.00000098
-0.65227169 -0.01282839 -0.00000135
-0.14441468 -0.76181924 0.00000000
-0.75197798 -0.65066612 -0.00000037
-0.64587933 -0.20308356 -0.00000098
-0.21076325 0.49039245 -0.00000035
-0.03607948 -0.18025303 0.00000000
-0.46960357 -0.04636837 -0.00000051
-0.25106612 0.39693853 -0.00000036
-0.39066461 -0.27300742 0.00000000
-0.14354336 -0.39656168 0.00000000
-0.14429182 -0.61916345 0.00000000
-0.14947155 -0.46194112 0.00000000
-0.15582959 -0.30596343 0.00000000
-0.26146585 -0.38551483 0.00000000
-0.40750527 -0.02657059 -0.00000028
-0.11973526 -0.45317030 0.00000000
-0.77911496 -0.05121171 -0.00000182
-0.04139457 0.63707441 0.00000000
-0.65169799 -0.70128787 -0.00000013
-0.55453062 -0.34764010 -0.00000034
-0.30382335 -0.19758520 0.00000000
-0.73232597 0.02973470 -0.00000176
-0.61086178 -0.72833961 0.00000000
-0.36200485 0.01357899 -0.00000015
-0.50500053 -0.69276112 0.00000000
-0.44268587 -0.77849036 0.00000000
-0.02551408 -0.79185557 0.00000000
-0.43854007 0.02680371 -0.00000050
-0.45561528 0.16854714 -0.00000083
-0.71497029 -0.43894735 -0.00000086
-0.01950715 0.27904019 0.00000000
-0.55446774 -0.33970284 -0.00000035
-0.36996359 -0.68059939 0.00000000
-0.14200465 0.13282292 0.00000000
-0.63050854 -0.28932148 -0.00000077
-0.17056137 -0.18466945 0.00000000
0.07484415 0.58595502 0.17212684
-0.60641497 -0.35619488 -0.00000054
-0.24390598 -0.41437656 0.00000000
-0.45604965 0.13093662 -0.00000076
-0.14832087 -0.35461658 0.00000000
-0.49281305 -0.31270847 -0.00000014
-0.37357026 -0.20022908 0.00000000
-0.69793612 -0.62771469 -0.00000043
-0.36062092 -0.33229303 0.00000000
-0.69701874 -0.28554693 -0.00000106
-0.15731753 -0.16831461 0.00000000
-0.70545000 -0.57458675 -0.00000056
0.21368122 0.17461096 0.49142545
-0.62571633 -0.74217445 0.00000000
-0.46630934 0.12826283 -0.00000080
-0.62713569 -0.34939915 -0.00000064
-0.09694262 -0.74457306 0.00000000
-0.17335720 0.51501185 -0.00000024
-0.31468853 0.34600329 -0.00000054
-0.43573257 0.18970370 -0.00000078
-0.14799318 -0.74528396 0.00000000
-0.16010742 -0.68901980 0.00000000
-0.10459120 0.18429556 0.00000000
-0.22235006 0.22596169 0.00000000
-0.32371652 -0.63585848 0.00000000
-0.30367640 0.11436357 -0.00000008
-0.16237733 0.13653511 0.00000000
-0.42799661 -0.70520115 0.00000000
-0.13895831 0.41387454 0.00000000
-0.45786256 -0.64716637 0.00000000
-0.02063422 0.23107859 0.00000000
-0.68753994 -0.48992893 -0.00000065
-0.66949356 -0.17916307 -0.00000113
-0.02394675 -0.24890354 0.00000000
-0.48513281 -0.74119538 0.00000000
-0.37631854 -0.25904611 0.00000000
-0.66749996 -0.62983155 -0.00000032
-0.56672889 -0.75284404 0.00000000
-0.59895980 -0.55927777 -0.00000015
0.24590090 0.16020176 0.56552100
-0.36973792 0.07596835 -0.00000030
-0.05469916 -0.66160518 0.00000000
-0.36508447 -0.35243005 0.00000000
-0.44773510 -0.51725465 0.00000000
-0.24728303 0.13507821 0.00000000
-0.47697315 0.19568130 -0.00000097
-0.07594128 0.37241977 0.00000000
-0.47627938 -0.23475339 -0.00000020
-0.53499305 -0.46364295 -0.00000005
-0.05191977 -0.28323311 0.00000000
-0.36408478 -0.45181710 0.00000000
-0.59258753 -0.03180975 -0.00000106
-0.37890908 0.40647629 -0.00000092
-0.33336693 -0.00950378 0.00000000
-0.02720776 -0.07148952 0.00000000
-0.08078943 -0.16405229 0.00000000
-0.07363450 0.36555934 0.00000000
-0.73960030 -0.15726176 -0.00000146
-0.53182364 -0.04676208 -0.00000077
-0.71287560 -0.01484531 -0.00000160
-0.51837993 -0.69349968 0.00000000
-0.56808507 0.01206840 -0.00000103
-0.16916610 -0.34288931 0.00000000
-0.08823060 0.57511443 0.00000000
-0.40958816 -0.49586511 0.00000000
-0.55965638 -0.62738907 0.00000000
-0.77706611 -0.65154713 -0.00000037
-0.44957995 -0.01735530 -0.00000047
-0.65713459 -0.49309900 -0.00000052
-0.35056871 0.36222240 -0.00000072
-0.47168472 -0.18521643 -0.00000027
-0.35336146 -0.78517044 0.00000000
-0.73153985 -0.08562577 -0.00000156
-0.62207866 -0.73113430 0.00000000
-0.06441042 -0.03972085 0.00000000
0.07133006 0.59097010 0.16404533
-0.31043616 -0.04998941 0.00000000
0.27580431 0.02179012 0.63429528
-0.52894902 -0.05544813 -0.00000075
-0.05662109 0.01342654 0.00000000
-0.01776494 0.59906328 0.00000000
-0.72078228 -0.13178468 -0.00000143
-0.04360565 0.38980097 0.00000000
-0.75076318 -0.29587257 -0.00000126
0.16154352 0.35558334 0.37151760
-0.38292548 -0.61591613 0.00000000
-0.58379501 0.15529165 -0.00000135
-0.04378464 -0.13309570 0.00000000
-0.00703010 0.10181989 0.00000000
-0.39020109 -0.23346147 0.00000000
-0.34308290 0.03937208 -0.00000012
-0.11707930 0.59320587 -0.00000013
-0.09131182 -0.42507213 0.00000000
-0.66394323 -0.66552913 -0.00000024
-0.31554604 -0.21738812 0.00000000
-0.44582543 -0.01941202 -0.00000045
-0.36270857 0.35060957 -0.00000075
-0.45438495 -0.02321242 -0.00000048
-0.16274565 -0.07840748 0.00000000
-0.09037944 -0.72202039 0.00000000
-0.74946517 -0.72779143 -0.00000018
-0.05050231 -0.56322539 0.00000000
-0.13839696 0.60683614 -0.00000025
-0.04351581 0.14979620 0.00000000
-0.36213902 -0.70291340 0.00000000
-0.19261958 0.16753297 0.00000000
-0.39483190 0.20997405 -0.00000064
-0.16909260 -0.61394101 0.00000000
-0.17253546 -0.17285711 0.00000000
-0.36251596 -0.75619674 0.00000000
-0.23748156 -0.25910628 0.00000000
-0.00707791 -0.22341695 0.00000000
-0.63868529 -0.62036401 -0.00000021
-0.09719837 0.10088684 0.00000000
0.17848188 0.34968436 0.41047066
-0.05160417 -0.57801586 0.00000000
-0.60518032 -0.04190048 -0.00000109
-0.17694388 -0.36869758 0.00000000
-0.09754674 -0.03907771 0.00000000
-0.20208499 -0.48368075 0.00000000
-0.30770734 -0.09049599 0.00000000
-0.41494948 -0.44664589 0.00000000
-0.26032495 0.53055531 -0.00000063
-0.40694553 -0.01610343 -0.00000029
-0.22018014 -0.63194245 0.00000000
-0.34373569 0.14173059 -0.00000030
0.11577564 0.45661357 0.26626176
-0.37336850 0.06507793 -0.00000029
0.11967596 0.49637547 0.27522954
-0.35279623 -0.08151989 0.00000000
-0.55100179 0.20181735 -0.00000129
-0.74919009 0.00812929 -0.00000180
-0.00141709 -0.22345670 0.00000000
-0.70291501 -0.06022622 -0.00000148
-0.68631297 -0.02861929 -0.00000146
-0.64605033 0.04540840 -0.00000142
-0.21814592 -0.29572839 0.00000000
0.24602081 0.12787358 0.56579816
0.14677484 0.33303627 0.33755535
-0.00753701 0.49896431 0.00000000
-0.47915348 0.12065296 -0.00000084
-0.64211816 -0.44365093 -0.00000054
-0.55006284 -0.30392492 -0.00000040
-0.43579957 0.24716882 -0.00000088
-0.36021620 0.14188810 -0.00000037
-0.05833075 0.35661867 0.00000000
-0.50287527 -0.61994362 0.00000000
-0.19742700 0.13916349 0.00000000
-0.40235579 0.02790821 -0.00000035
-0.17863712 -0.36342105 0.00000000
-0.71620363 -0.72834396 -0.00000018
-0.05217955 0.03646867 0.00000000
-0.65397155 -0.11548005 -0.00000117
-0.76855761 -0.60199398 -0.00000050
-0.00027507 0.73050821 0.00000000
0.16332959 0.27870572 0.37562832
-0.34834826 -0.17692493 0.00000000
-0.69584960 -0.27879867 -0.00000106
0.23403843 0.10153638 0.53824365
-0.17219956 -0.79524529 0.00000000
-0.42514640 -0.04065889 -0.00000033
-0.01186387 -0.64184904 0.00000000
-0.77099991 -0.32540837 -0.00000119
-0.31617171 0.22949868 -0.00000034
-0.07023342 -0.52728492 0.00000000
0.18134587 0.29717898 0.41705921
-0.30436066 0.06604972 -0.00000000
-0.49608594 -0.30498916 -0.00000016
-0.23211817 -0.34250963 0.00000000
-0.47025755 -0.46100321 0.00000000
-0.15955231 -0.36662343 0.00000000
-0.02503135 0.27959368 0.00000000
0.10000576 0.49740300 0.22999433
-0.35663325 -0.02328999 -0.00000007
-0.06917271 -0.37643650 0.00000000
-0.23949417 -0.35020456 0.00000000
-0.17959119 -0.30599684 0.00000000
-0.33634910 -0.78812957 0.00000000
0.09687226 0.49100560 0.22278854
0.04566006 0.66755611 0.10500924
-0.48725769 -0.37836197 0.00000000
-0.53761536 0.03524574 -0.00000094
-0.32240981 0.13165782 -0.00000019
-0.13716601 0.28896299 0.00000000
-0.52761751 -0.78374255 0.00000000
-0.59503233 -0.00398124 -0.00000112
-0.56030464 -0.78759199 0.00000000
-0.56162339 -0.20803986 -0.00000061
-0.08768568 0.17533731 0.00000000
-0.32061961 -0.57052183 0.00000000
-0.24456297 -0.51306272 0.00000000
-0.75696057 -0.21578230 -0.00000143
-0.06359024 -0.77669102 0.00000000
-0.36049834 -0.06223305 -0.00000001
-0.50299752 0.22067222 -0.00000112
-0.49808875 -0.12838794 -0.00000048
-0.72210377 -0.62437391 -0.00000044
-0.36081892 -0.75487691 0.00000000
0.21122400 0.16311143 0.48577511
0.17128435 0.30303633 0.39392066
-0.09391341 0.69838655 -0.00000022
-0.30935597 0.02297087 0.00000000
-0.22727983 -0.27223045 0.00000000
-0.22789802 0.12203469 0.00000000
-0.47144061 -0.06819084 -0.00000048
-0.69478554 -0.38939738 -0.00000086
-0.44299889 0.31720045 -0.00000104
-0.16795914 0.36621028 0.00000000
-0.04386664 -0.20534430 0.00000000
0.25844827 -0.02800747 0.59437704
-0.40371406 -0.21097004 0.00000000
-0.61861241 -0.56449658 -0.00000023
-0.69141668 -0.06109082 -0.00000143
-0.22556452 0.04073891 0.00000000
0.19378638 0.22791992 0.44567141
-0.74606150 -0.54075766 -0.00000065
-0.22975388 0.55027008 -0.00000054
-0.36577669 0.14139608 -0.00000040
-0.36930236 -0.39282382 0.00000000
-0.62331122 0.01591106 -0.00000127
-0.63715303 0.03706623 -0.00000137
-0.12320988 0.62423676 -0.00000022
-0.41701883 -0.00017120 -0.00000037
-0.19315822 -0.58881295 0.00000000
-0.21187124 -0.28311142 0.00000000
-0.40901166 -0.45217031 0.00000000
-0.40549332 -0.24009815 0.00000000
0.30041495 0.01245155 0.69089228
-0.54140759 0.25318566 -0.00000134
-0.19136453 0.18092944 0.00000000
-0.23889813 -0.64693666 0.00000000
-0.62428457 -0.33252990 -0.00000066
-0.15381473 -0.06441330 0.00000000
-0.54084939 -0.26617178 -0.00000042
-0.30946726 0.28895491 -0.00000042
-0.35722476 -0.74252462 0.00000000
-0.15880802 -0.05134801 0.00000000
-0.57147419 0.13845068 -0.00000127
0.30135363 -0.07857093 0.69305009
-0.79674935 -0.33934402 -0.00000115
0.13510379 0.45841703 0.31071025
-0.53829694 -0.24731515 -0.00000045
-0.62286144 -0.56744385 -0.00000024
-0.75045735 -0.10890877 -0.00000160
-0.32186982 0.47545117 -0.00000080
-0.08903072 -0.38381028 0.00000000
-0.11963185 -0.00288049 0.00000000
-0.39192745 -0.10773968 -0.00000007
-0.18691131 -0.44827661 0.00000000
-0.19613102 -0.08322518 0.00000000
-0.63023233 -0.29340804 -0.00000076
-0.18818396 0.52135950 -0.00000031
-0.51858902 0.11599679 -0.00000100
-0.09992522 0.23308095 0.00000000
-0.65611237 -0.49561942 -0.00000051
-0.54319042 -0.04103375 -0.00000083
-0.08389076 0.41269642 0.00000000
-0.30015367 0.26403624 -0.00000033
-0.14980115 -0.28889525 0.00000000
-0.14449395 -0.01004446 0.00000000
-0.40827817 0.06702154 -0.00000045
-0.27000639 -0.07053984 0.00000000
-0.50893480 0.05318073 -0.00000085
-0.77641714 -0.12019135 -0.00000169
-0.23203407 0.26464701 -0.00000004
0.09554709 0.55291402 0.21973841
-0.59112155 0.02966352 -0.00000116
-0.20185161 -0.55984116 0.00000000
-0.47208035 -0.08542260 -0.00000045
-0.52351379 -0.53896737 0.00000000
-0.28009322 -0.03623174 0.00000000
-0.16434212 0.31804010 0.00000000
0.22921544 0.10640006 0.52715212
-0.14989357 -0.18337680 0.00000000
-0.59362924 0.06493575 -0.00000123
-0.07860060 0.31726569 0.00000000
-0.10801346 -0.01048602 0.00000000
-0.59076661 -0.77394789 0.00000000
-0.62222224 -0.77183324 0.00000000
-0.78193408 -0.14821795 -0.00000163
-0.45244995 -0.12891695 -0.00000029
-0.03690054 -0.15934356 0.00000000
-0.56711584 -0.44997379 -0.00000021
-0.69358069 0.04185380 -0.00000162
-0.06824945 -0.62138683 0.00000000
-0.25797233 -0.66395241 0.00000000
-0.20230268 -0.72515166 0.00000000
0.28271225 -0.04746952 0.65017885
0.25174865 0.10055628 0.57897156
-0.11898466 -0.58406585 0.00000000
-0.50689065 -0.34727976 -0.00000014
-0.45973405 -0.09078951 -0.00000039
-0.68884873 -0.66920346 -0.00000033
-0.30169809 -0.60719270 0.00000000
-0.73293769 -0.26955807 -0.00000124
-0.66451228 -0.68977702 -0.00000020
-0.00639957 0.34624451 0.00000000
-0.76417613 -0.43311125 -0.00000092
-0.23278581 -0.45538551 0.00000000
-0.28832048 0.02490963 0.00000000
-0.00649501 -0.12957162 0.00000000
-0.46790558 0.22690447 -0.00000098
-0.34317839 0.22060756 -0.00000044
-0.70358521 -0.77797127 -0.00000006
-0.42696306 0.24893166 -0.00000085
-0.35388720 -0.32967451 0.00000000
-0.56984222 -0.09001746 -0.00000086
-0.65246546 -0.54044336 -0.00000041
0.20042339 0.29353815 0.46093154
-0.38886610 -0.21294799 0.00000000
-0.17841150 0.07198652 0.00000000
-0.77252203 -0.51010776 -0.00000072
0.13844220 0.40167779 0.31838998
-0.61129868 -0.58755183 -0.00000016
-0.56642246 -0.52259779 -0.00000008
-0.61783582 -0.30164099 -0.00000069
-0.60923606 -0.64055508 -0.00000005
-0.64397222 -0.34071174 -0.00000073
-0.27484974 -0.49143890 0.00000000
-0.21006431 0.12697929 0.00000000
-0.62467402 -0.44902655 -0.00000046
-0.58820236 -0.53467846 -0.00000015
-0.54909092 -0.38491938 -0.00000025
-0.73418021 0.02382974 -0.00000176
-0.11133412 -0.42327052 0.00000000
-0.60762835 0.04197942 -0.00000125
-0.27754703 -0.37253129 0.00000000
-0.40791267 0.33266002 -0.00000091
-0.26161942 0.11629639 0.00000000
-0.35269278 -0.54480630 0.00000000
-0.32195660 -0.73387480 0.00000000
-0.20836955 0.06123417 0.00000000
-0.17138197 0.10569819 0.00000000
-0.46579078 -0.01182752 -0.00000055
-0.69455129 -0.71328533 -0.00000022
0.30993140 -0.08172767 0.71277702
-0.28769800 -0.79383361 0.00000000
-0.03949632 0.19684970 0.00000000
-0.33859149 -0.22883575 0.00000000
-0.64624035 -0.41233963 -0.00000061
-0.56960642 -0.53842908 -0.00000006
-0.66092014 0.02003350 -0.00000144
-0.72714949 -0.24238676 -0.00000126
-0.67107183 -0.47664514 -0.00000061
-0.78896487 -0.24332067 -0.00000139
-0.77365255 -0.28678897 -0.00000128
-0.15332478 0.07092879 0.00000000
-0.10832802 0.54292303 -0.00000001
-0.12707625 -0.05158289 0.00000000
-0.26683635 0.41978374 -0.00000047
0.30328000 0.03348775 0.69748008
-0.26073286 -0.34347335 0.00000000
-0.15522237 -0.12217953 0.00000000
-0.64957565 -0.16493267 -0.00000107
-0.48530149 -0.71855396 0.00000000
-0.25753236 -0.24780931 0.00000000
-0.44950324 -0.51316386 0.00000000
-0.55791402 0.16778082 -0.00000126
-0.08593788 -0.30157727 0.00000000
-0.05273090 0.01794902 0.00000000
-0.03635810 -0.36540055 0.00000000
-0.24240740 0.17004386 0.00000000
0.30576757 0.02768836 0.70320094
-0.34703451 -0.07645423 0.00000000
-0.32338807 -0.03334806 0.00000000
-0.02538913 0.36310372 0.00000000
-0.35395455 0.12533613 -0.00000032
-0.32299429 -0.71165711 0.00000000
-0.02096870 0.00244122 0.00000000
-0.76491272 -0.42770711 -0.00000093
-0.22465201 -0.52775633 0.00000000
-0.15645161 -0.38234359 0.00000000
-0.12225882 -0.67297280 0.00000000
0.28597009 0.05931164 0.65767169
-0.43820319 0.16229890 -0.00000074
-0.74156356 -0.24095726 -0.00000132
-0.69634259 -0.56926316 -0.00000055
-0.04393186 -0.57878608 0.00000000
0.29416329 -0.08620382 0.67651391
-0.06051912 0.72354120 -0.00000012
-0.07891747 -0.18182881 0.00000000
0.09983380 0.51110029 0.22959828
-0.68051565 -0.27478296 -0.00000100
-0.45753410 -0.26536235 -0.00000007
-0.53509122 -0.45012733 -0.00000007
-0.00417779 -0.05453540 0.00000000
-0.54509217 -0.68203539 0.00000000
-0.68089682 -0.00965471 -0.00000147
-0.58478624 -0.04411384 -0.00000100
-0.75092542 -0.02418633 -0.00000175
-0.06717749 0.53659630 0.00000000
-0.35069650 -0.54400074 0.00000000
-0.00489448 -0.51294732 0.00000000
-0.27217367 0.08239999 0.00000000
-0.79956937 -0.67655194 -0.00000031
-0.11434751 -0.59649652 0.00000000
-0.16251548 0.23450857 0.00000000
-0.23997290 0.38518283 -0.00000029
-0.04757578 -0.25485963 0.00000000
-0.23972449 -0.23326775 0.00000000
-0.01429240 0.63874042 0.00000000
-0.04638896 0.73500407 -0.00000008
-0.09382397 -0.63969576 0.00000000
-0.23607814 0.02566201 0.00000000
0.30949661 -0.14082357 0.71177733
-0.20567968 -0.23264894 0.00000000
-0.28437525 -0.52581298 0.00000000
-0.67455804 -0.76542777 -0.00000009
-0.36924899 -0.45690838 0.00000000
0.20182759 0.21588700 0.46416411
-0.09234425 -0.37828350 0.00000000
-0.56755656 -0.49127057 -0.00000014
-0.09430417 -0.51347631 0.00000000
-0.35832763 -0.53625739 0.00000000
-0.75717050 -0.04809761 -0.00000173
0.14477082 0.36139816 0.33294550
-0.10222630 -0.56825346 0.00000000
-0.08563649 -0.01600329 0.00000000
-0.40754172 -0.36235276 0.00000000
-0.53202140 -0.44369966 -0.00000007
0.27844495 0.06036586 0.64036626
-0.03634601 0.55173117 0.00000000
-0.74788290 0.02132871 -0.00000182
-0.60396695 -0.60766751 -0.00000009
-0.16277462 0.47533208 -0.00000012
0.07873891 0.55574715 0.18108486
-0.23918980 0.17506671 0.00000000
-0.75871330 -0.59546810 -0.00000051
-0.31656536 0.11711999 -0.00000014
-0.09319020 0.07795814 0.00000000
-0.47667751 -0.27350312 -0.00000014
-0.42774904 0.15959825 -0.00000069
-0.04529539 -0.06774381 0.00000000
0.25862637 0.01777650 0.59479171
-0.50176615 -0.22754139 -0.00000032
-0.52099878 0.17465365 -0.00000112
-0.00830353 0.61527050 0.00000000
-0.18468864 -0.21681200 0.00000000
0.29321215 -0.04979673 0.67432630
-0.48414364 -0.51463234 0.00000000
-0.64845663 -0.47148857 -0.00000052
-0.51911670 -0.63491404 0.00000000
-0.09214016 -0.68477780 0.00000000
-0.61045569 -0.77583164 0.00000000
-0.13126919 -0.03157975 0.00000000
-0.00212441 -0.25464770 0.00000000
-0.28339154 -0.74078506 0.00000000
-0.05082658 -0.28672126 0.00000000
-0.26570722 -0.25527814 0.00000000
-0.03204039 0.43660346 0.00000000
-0.28728157 -0.58676267 0.00000000
-0.20633507 0.24738844 0.00000000
-0.50991011 0.09348732 -0.00000093
-0.00542838 -0.55727726 0.00000000
0.27009061 -0.03349744 0.62115186
-0.74991971 -0.16596608 -0.00000149
-0.59674484 0.13087261 -0.00000136
-0.46981722 0.10905915 -0.00000078
0.19742569 0.17524683 0.45404291
-0.36049905 -0.69105214 0.00000000
-0.05181977 -0.23954567 0.00000000
-0.59676105 -0.47793019 -0.00000029
0.18630514 0.24782392 0.42846605
-0.58681136 0.08101186 -0.00000123
0.11544245 0.46490896 0.26549518
0.29856378 0.04174959 0.68663388
-0.34558201 -0.53050333 0.00000000
-0.66432577 -0.30309939 -0.00000089
-0.03029421 0.60610563 0.00000000
-0.58039302 -0.15764724 -0.00000078
-0.52702290 -0.45181212 -0.00000004
-0.35696697 -0.02720002 -0.00000006
-0.56853271 -0.26249823 -0.00000055
-0.27341107 -0.22553942 0.00000000
-0.58538210 -0.05179156 -0.00000099
-0.01678786 0.15254483 0.00000000
-0.37000594 0.13869670 -0.00000041
-0.17660014 -0.64887536 0.00000000
-0.03368826 0.75153160 -0.00000006
-0.79273403 -0.46825433 -0.00000083
-0.30849716 -0.58716482 0.00000000
-0.67406255 -0.60518050 -0.00000039
-0.17941728 -0.21547616 0.00000000
-0.07303876 -0.24193950 0.00000000
0.25272968 0.06840615 0.58122897
-0.78540820 -0.61422032 -0.00000046
0.29111320 0.06267536 0.66949904
-0.24323682 -0.06485862 0.00000000
0.19997253 0.20614100 0.45989850
-0.33837301 -0.62719089 0.00000000
-0.37335512 -0.06601023 -0.00000006
-0.13915865 -0.61847121 0.00000000
-0.66685557 0.11270441 -0.00000163
-0.03906788 -0.36630109 0.00000000
-0.70762157 0.03699424 -0.00000167
-0.33688089 0.14873037 -0.00000029
-0.26590803 0.14237291 0.00000000
-0.32800928 -0.14262493 0.00000000
-0.36218601 -0.58241808 0.00000000
-0.24558799 0.15401672 0.00000000
-0.28315732 -0.04369364 0.00000000
-0.19697043 -0.68667632 0.00000000
-0.36986586 -0.61219549 0.00000000
-0.43058500 -0.31089860 0.00000000
-0.62772954 -0.19593148 -0.00000092
0.11809461 0.48489073 0.27159345
-0.48730397 -0.11498623 -0.00000046
-0.63672090 0.15477671 -0.00000158
-0.07967774 0.24315032 0.00000000
-0.54097450 -0.00618746 -0.00000088
-0.42838860 -0.58187169 0.00000000
-0.26274663 0.13545284 0.00000000
-0.69526863 -0.57814658 -0.00000053
-0.16884439 0.22785310 0.00000000
-0.71559298 -0.59747136 -0.00000051
-0.37204388 -0.12732822 0.00000000
-0.21248470 -0.09238080 0.00000000
-0.67992336 -0.60212529 -0.00000042
-0.06849561 -0.69171703 0.00000000
0.23577207 0.18782827 0.54222679
-0.66013867 -0.65971845 -0.00000024
-0.46726024 0.33115491 -0.00000114
-0.32218418 0.23523729 -0.00000038
-0.10950545 -0.55578607 0.00000000
0.27938205 -0.01670382 0.64252001
-0.42884046 -0.27111599 0.00000000
-0.24534827 -0.03988829 0.00000000
-0.74280852 -0.46010435 -0.00000085
-0.43559995 -0.63925833 0.00000000
-0.64216691 -0.50100571 -0.00000044
-0.54693192 -0.05570159 -0.00000082
-0.53106642 -0.54248995 0.00000000
-0.33548173 -0.41810620 0.00000000
-0.38636291 0.26550591 -0.00000070
-0.26772255 0.46481761 -0.00000055
-0.15988266 0.16725871 0.00000000
0.22768991 0.09189907 0.52364451
-0.77653110 -0.62035811 -0.00000045
-0.34437516 -0.74882460 0.00000000
-0.59220505 -0.05733980 -0.00000101
-0.42876309 0.18406320 -0.00000074
-0.30028066 0.43793586 -0.00000064
-0.73991323 -0.28364474 -0.00000124
-0.48456594 -0.15311320 -0.00000038
-0.17623506 0.03011581 0.00000000
-0.46894556 -0.76756322 0.00000000
-0.71936345 -0.27597016 -0.00000117
-0.41155866 -0.29649776 0.00000000
-0.27513155 -0.65525633 0.00000000
-0.13238141 -0.32065338 0.00000000
-0.76653486 -0.71316212 -0.00000022
-0.39377624 -0.15248793 0.00000000
-0.04625377 -0.64116055 0.00000000
-0.09343222 0.52731651 0.00000000
-0.55961967 -0.39982480 -0.00000027
-0.15039672 -0.43333271 0.00000000
-0.70254230 -0.05365757 -0.00000149
-0.48276767 0.13015987 -0.00000088
-0.34433168 -0.40706792 0.00000000
-0.26072058 0.10313993 0.00000000
-0.06848213 -0.60981297 0.00000000
-0.50514054 -0.48107836 0.00000000
-0.04151441 -0.15287393 0.00000000
-0.01817805 0.55599892 0.00000000
-0.11009922 0.07194730 0.00000000
-0.34392667 -0.16350257 0.00000000
-0.28294915 -0.65411198 0.00000000
-0.15992898 0.29041624 0.00000000
-0.07869001 -0.59390533 0.00000000
-0.63351434 -0.24419585 -0.00000086
-0.40435851 -0.38092855 0.00000000
-0.77366829 -0.38556540 -0.00000104
-0.26697725 -0.75849736 0.00000000
-0.74284530 -0.27282673 -0.00000127
-0.49374807 -0.41303733 0.00000000
-0.17981112 0.01418822 0.00000000
0.30441353 -0.01913861 0.70008695
-0.49563757 -0.55949974 0.00000000
-0.03693155 -0.04729986 0.00000000
-0.47975764 -0.32808876 -0.00000005
-0.12334434 -0.36320540 0.00000000
-0.52249974 -0.30776605 -0.00000027
-0.63346565 0.14301392 -0.00000154
-0.05607143 -0.50230080 0.00000000
-0.55528826 -0.35743827 -0.00000032
-0.10000432 0.59165788 -0.00000006
-0.20586728 0.40116310 -0.00000017
-0.19157293 0.35633776 -0.00000003
-0.03614048 0.05035030 0.00000000
-0.79126644 -0.20555726 -0.00000149
-0.36785465 -0.00338882 -0.00000015
-0.26295841 -0.66432977 0.00000000
-0.28677425 -0.41840395 0.00000000
-0.20302354 0.54390466 -0.00000041
-0.38427207 -0.36921507 0.00000000
-0.04312326 -0.10623933 0.00000000
-0.24073553 -0.29947767 0.00000000
-0.31833544 -0.57363123 0.00000000
-0.01603747 0.03971448 0.00000000
-0.51191092 -0.36407247 -0.00000013
-0.04961749 -0.08180059 0.00000000
-0.36377519 -0.14942327 0.00000000
-0.14947565 0.47086152 -0.00000006
-0.65902787 -0.63211977 -0.00000028
-0.66951513 0.12233885 -0.00000166
-0.66836035 -0.63555676 -0.00000031
-0.67733890 -0.20404814 -0.00000112
-0.60410541 -0.48043743 -0.00000031
0.19918711 0.18353830 0.45809329
-0.06358152 -0.08022604 0.00000000
-0.63283187 -0.26117337 -0.00000082
-0.58790129 -0.02035487 -0.00000106
-0.23568968 -0.75003052 0.00000000
-0.47132242 -0.07355347 -0.00000047
-0.69033831 -0.65174925 -0.00000037
-0.64088100 -0.16655959 -0.00000103
0.31706911 -0.20687786 0.72919273
-0.40918118 -0.54779607 0.00000000
-0.74793500 -0.58442974 -0.00000054
-0.04508838 -0.74751693 0.00000000
-0.66150934 -0.01318217 -0.00000139
-0.42887956 0.09720346 -0.00000059
-0.25378981 -0.51337695 0.00000000
-0.30917153 -0.14389952 0.00000000
-0.58243430 -0.51502836 -0.00000016
-0.58002776 0.11984712 -0.00000127
-0.72988302 -0.07687281 -0.00000156
-0.62274212 -0.41861013 -0.00000050
-0.02717020 0.24547930 0.00000000
0.08775885 0.56435955 0.20182747
-0.22687541 0.40445536 -0.00000027
-0.05111715 -0.54095107 0.00000000
-0.06361678 -0.47402975 0.00000000
-0.69944543 -0.17616376 -0.00000126
-0.43596977 -0.40254989 0.00000000
-0.23756680 -0.48256990 0.00000000
-0.22596698 0.25400591 0.00000000
-0.03470058 0.17304698 0.00000000
-0.11684627 0.21690477 0.00000000
-0.46054864 -0.74966800 0.00000000
-0.18895148 -0.60753256 0.00000000
-0.16635793 -0.21349134 0.00000000
-0.44274062 0.00896547 -0.00000049
-0.31350464 -0.73734951 0.00000000
-0.72794938 -0.17333302 -0.00000139
-0.33988091 0.42968652 -0.00000080
-0.59256744 -0.64476460 0.00000000
-0.22018535 -0.63434738 0.00000000
-0.44895950 -0.37995836 0.00000000
-0.05416677 0.20696037 0.00000000
-0.44906926 -0.68386865 0.00000000
-0.65471554 -0.19478934 -0.00000104
-0.32031462 -0.05133762 0.00000000
-0.59672821 0.09524249 -0.00000130
-0.15495108 -0.05725852 0.00000000
-0.63672459 -0.46025804 -0.00000049
0.28771815 0.01732114 0.66169345
-0.11679559 -0.14248170 0.00000000
-0.72720927 -0.33953831 -0.00000109
-0.00531473 0.72830528 0.00000000
-0.59288377 -0.67137223 0.00000000
-0.50389558 -0.71568394 0.00000000
-0.70659447 -0.62444514 -0.00000044
-0.73086190 0.03262264 -0.00000176
-0.51621503 -0.09774836 -0.00000062
-0.67047971 -0.32866102 -0.00000087
-0.29818159 -0.67880893 0.00000000
-0.20993453 -0.66307169 0.00000000
0.11841320 0.45325366 0.27232745
-0.70978940 -0.07989393 -0.00000147
-0.28448656 -0.05529248 0.00000000
-0.62513274 0.12222340 -0.00000147
-0.63658631 -0.66936535 -0.00000012
-0.46920234 -0.42326793 0.00000000
-0.70618969 -0.66170293 -0.00000035
-0.35075429 -0.03359920 -0.00000002
-0.09740107 0.25452611 0.00000000
-0.15141657 -0.43319726 0.00000000
-0.47279891 -0.74629390 0.00000000
-0.50263661 -0.57900417 0.00000000
-0.16887020 0.36229324 0.00000000
0.20473915 0.21774974 0.47085968
-0.09332431 -0.66912413 0.00000000
