ply
format ascii 1.0
element vertex 1418
property float x
property float y
property float z
end_header
-0.69872218 -0.44580334 -0.00000078
-0.49417895 -0.52697945 0.00000000
0.03338433 -0.40256408 0.76445311
-0.58044076 -0.07769034 -0.00000093
-0.12693568 -0.57289994 0.00000000
-0.46616435 -0.26998460 -0.00000010
0.00501270 0.63204819 0.11480151
-0.33310133 -0.27226129 0.00000000
-0.76841146 -0.70254076 -0.00000024
-0.35552859 -0.65738642 0.00000000
-0.01144523 0.01076243 0.00000000
-0.25916401 -0.05050865 0.00000000
-0.47721189 -0.35246503 0.00000000
-0.47339988 -0.36083058 0.00000000
0.03368855 0.00110004 0.77141547
0.01557574 0.37374097 0.35668173
-0.78938758 -0.03978022 -0.00000188
-0.37149206 -0.20787853 0.00000000
-0.32574776 -0.21525396 0.00000000
-0.41295132 -0.76956695 0.00000000
-0.18101932 0.01393305 0.00000000
-0.50842661 -0.44018686 0.00000000
0.03223635 -0.26260811 0.73816377
-0.32625914 -0.18313545 0.00000000
-0.14936198 -0.19643123 0.00000000
-0.05470867 0.06070973 0.00000000
-0.75226945 -0.77077371 -0.00000007
-0.55334514 -0.75861317 0.00000000
-0.50586534 -0.53014183 0.00000000
0.01551449 0.25717047 0.35532361
-0.69107985 -0.78690308 -0.00000003
0.03443098 -0.41925016 0.78841847
-0.27097225 0.13163258 0.00000000
-0.59343594 -0.18298903 -0.00000079
-0.40446967 0.17080037 -0.00000061
0.01946865 0.06878673 0.44590351
-0.32535192 -0.18811297 0.00000000
-0.56559211 -0.51820022 -0.00000008
-0.39747396 -0.29672390 0.00000000
0.02191494 0.04551116 0.50190663
-0.25236523 -0.31277448 0.00000000
-0.21636657 -0.51893759 0.00000000
-0.14574832 -0.49153164 0.00000000
0.03046740 -0.02681490 0.69765139
0.02825094 -0.11147223 0.64690334
-0.78872389 -0.41577145 -0.00000096
-0.16228724 0.61502963 -0.00000037
-0.69574183 -0.03323720 -0.00000150
-0.50200576 -0.25090164 -0.00000028
0.01583287 0.40759486 0.36255464
-0.51536262 -0.70251602 0.00000000
-0.42601144 -0.06248143 -0.00000029
-0.60263067 0.00243155 -0.00000116
0.02702984 -0.10004424 0.61894298
-0.61010611 -0.63897902 -0.00000006
0.03475548 -0.23118331 0.79584295
-0.31948963 -0.38781607 0.00000000
0.02634352 -0.06136519 0.60322672
-0.64406186 -0.56043708 -0.00000034
-0.08662523 0.32481608 0.00000000
-0.29807451 0.05495127 0.00000000
-0.10760993 -0.03864102 0.00000000
-0.57204747 -0.57941043 -0.00000000
0.00879740 0.59765369 0.20144454
-0.26329830 -0.42924401 0.00000000
-0.27938518 0.17333122 -0.00000008
0.03462988 0.00041824 0.79296243
0.00903824 0.59125251 0.20695899
-0.33666739 -0.55572319 0.00000000
-0.04320057 0.07905024 0.00000000
-0.18680216 -0.52792555 0.00000000
-0.39489144 0.25073805 -0.00000071
-0.78017229 -0.72314292 -0.00000019
-0.21878929 -0.40382859 0.00000000
0.01133330 0.40284687 0.25956339
0.02972713 -0.34149075 0.68071198
0.02937426 -0.31074131 0.67263114
-0.21368283 0.55793273 -0.00000048
-0.32704073 -0.72104144 0.00000000
-0.62490088 -0.46491089 -0.00000043
-0.05735825 0.33890960 0.00000000
0.02981647 -0.09026858 0.68274903
-0.19370654 -0.23785491 0.00000000
0.02393498 0.22565383 0.54807651
-0.41936150 -0.26241073 0.00000000
0.01737898 0.32969427 0.39797372
-0.54948211 -0.13256070 -0.00000070
-0.43146741 0.09371616 -0.00000059
-0.73448694 -0.68646467 -0.00000028
-0.29830375 -0.67597622 0.00000000
-0.45932394 -0.41155767 0.00000000
0.01121620 0.36111772 0.25689876
-0.23049732 -0.26724154 0.00000000
0.02813146 -0.18003374 0.64416975
-0.51220518 -0.54056346 0.00000000
-0.37567410 -0.19815104 0.00000000
-0.26688060 -0.43504363 0.00000000
0.01648391 0.40994474 0.37745565
-0.15339930 -0.50110865 0.00000000
-0.76295805 -0.79784220 -0.00000001
-0.59955239 0.05674018 -0.00000124
-0.49948898 -0.44928467 0.00000000
-0.50915682 0.16496092 -0.00000105
-0.64390218 0.12326948 -0.00000155
-0.18567786 -0.44688872 0.00000000
-0.28148821 -0.26489326 0.00000000
0.03190804 0.00002309 0.73066097
-0.31809306 -0.44248939 0.00000000
-0.05921259 -0.26417360 0.00000000
0.03220918 -0.14152116 0.73753756
-0.12621555 -0.07055329 0.00000000
-0.71771061 -0.25038937 -0.00000121
-0.14333797 -0.12225496 0.00000000
0.03439463 -0.59887713 0.78759116
-0.03651992 0.11189271 0.00000000
0.02786352 0.03559328 0.63807058
-0.25727546 0.20360127 -0.00000004
-0.08414033 0.23668601 0.00000000
-0.28211221 -0.57063591 0.00000000
-0.74665827 -0.67762864 -0.00000031
-0.77715814 -0.13571635 -0.00000166
0.00988724 0.42058834 0.22645716
0.02440612 -0.16011272 0.55886859
-0.18292756 -0.51070726 0.00000000
-0.00096813 0.49921086 0.00000000
-0.15960529 -0.07831790 0.00000000
-0.36625281 -0.66198909 0.00000000
-0.64610434 -0.53700966 -0.00000039
-0.10354464 0.35895234 0.00000000
-0.58000904 -0.22744755 -0.00000066
-0.37773490 0.32073769 -0.00000076
0.02364285 -0.10073258 0.54138982
-0.05981788 0.65431243 0.00000000
0.01520675 0.21181513 0.34829688
-0.39184883 -0.03790433 -0.00000019
-0.03638845 0.29125556 0.00000000
-0.48643547 -0.35072628 -0.00000004
-0.46307990 -0.54774755 0.00000000
-0.28995705 -0.31174472 0.00000000
-0.76294637 -0.24755630 -0.00000138
-0.22613139 0.35704955 -0.00000018
-0.40101734 -0.20126472 0.00000000
-0.24140754 0.12115599 0.00000000
-0.70090848 -0.14736666 -0.00000132
-0.07397364 0.56062073 0.00000000
-0.47489792 0.14745460 -0.00000087
0.01822863 0.17964417 0.41747835
-0.17633060 -0.09769677 0.00000000
-0.18155052 0.36638993 -0.00000001
-0.05487314 -0.19353788 0.00000000
0.03026518 -0.02798744 0.69302124
-0.25952616 -0.53060782 0.00000000
-0.22774449 -0.39218521 0.00000000
0.02191008 0.07170378 0.50178546
-0.78678221 -0.37885389 -0.00000105
-0.56303042 -0.02153457 -0.00000095
-0.27251467 -0.18472116 0.00000000
-0.15529512 0.48968107 -0.00000011
0.02919847 -0.14639369 0.66860038
-0.47000855 -0.70505553 0.00000000
-0.12668291 -0.08981320 0.00000000
-0.09247070 0.46781093 0.00000000
-0.00214701 -0.66177446 0.00000000
-0.01467969 -0.76844114 0.00000000
-0.43121114 0.12152882 -0.00000064
0.03404594 0.01962414 0.77958906
-0.10226781 0.44427246 0.00000000
-0.25247836 -0.72044885 0.00000000
-0.51052451 0.17473029 -0.00000107
-0.77141392 -0.33814052 -0.00000115
-0.04307057 -0.68518639 0.00000000
-0.03308301 0.54967636 0.00000000
-0.73004305 -0.07806501 -0.00000156
-0.24496742 0.23592782 -0.00000005
-0.02774928 -0.23788080 0.00000000
-0.16472167 -0.77449554 0.00000000
-0.32123375 -0.45330518 0.00000000
0.02966917 -0.22334130 0.67938077
0.01318494 0.31275585 0.30198053
-0.46613848 -0.75158566 0.00000000
-0.31765386 -0.39357215 0.00000000
-0.67795527 -0.29243770 -0.00000096
0.01814349 0.38403103 0.41545251
-0.48935592 -0.32662091 -0.00000010
-0.20699833 -0.25517365 0.00000000
-0.72943980 -0.35101604 -0.00000108
-0.47953555 0.25995231 -0.00000109
0.03283951 -0.47376093 0.75198072
-0.13150480 -0.33907256 0.00000000
0.02395615 -0.14412501 0.54856491
-0.07428392 -0.14876552 0.00000000
-0.67741579 -0.61649936 -0.00000039
-0.78824067 -0.23432791 -0.00000141
-0.03404163 -0.61398953 0.00000000
-0.60472894 -0.53148478 -0.00000023
-0.78160959 -0.25591999 -0.00000136
-0.44158694 -0.66905427 0.00000000
-0.14564992 -0.05936313 0.00000000
-0.32084072 -0.30135369 0.00000000
-0.34745839 -0.57085818 0.00000000
-0.33330309 -0.54272115 0.00000000
0.02089206 0.01890806 0.47850341
-0.36343753 0.22301020 -0.00000053
-0.79964095 -0.64114368 -0.00000040
-0.76899201 -0.36877379 -0.00000108
-0.75881141 -0.42152801 -0.00000095
-0.12997130 0.42570555 0.00000000
-0.17854159 0.54978925 -0.00000032
-0.77294791 -0.77034092 -0.00000007
-0.54059023 0.20422892 -0.00000125
-0.36387578 -0.17095169 0.00000000
0.02712526 -0.19174393 0.62113076
-0.00952655 0.39180899 0.00000000
0.02637183 -0.16763005 0.60387844
-0.41371611 0.03172701 -0.00000041
0.03227317 -0.41626552 0.73901165
-0.71096611 0.00963004 -0.00000164
-0.29682335 0.38252288 -0.00000053
-0.02393380 -0.14169399 0.00000000
-0.59485686 0.09990791 -0.00000130
0.02961141 -0.03268486 0.67805171
0.00940918 0.55085576 0.21546546
-0.39161059 -0.38483590 0.00000000
0.01481059 0.30242684 0.33919463
-0.00292505 -0.36613947 0.00000000
-0.62887323 -0.70282781 -0.00000003
-0.29578644 -0.58896822 0.00000000
-0.66391420 -0.63830149 -0.00000029
-0.54095870 -0.19124086 -0.00000056
-0.22619957 -0.42397612 0.00000000
0.03250496 -0.08313850 0.74430817
-0.14638446 0.27195126 0.00000000
0.03346172 0.02768456 0.76621348
-0.43897432 -0.38335007 0.00000000
-0.63092029 -0.59945130 -0.00000022
0.02719455 -0.24565971 0.62271923
-0.16114217 -0.34134775 0.00000000
-0.38897711 0.41056854 -0.00000096
-0.34853277 0.37373114 -0.00000073
0.00950159 0.53554928 0.21758646
0.03210520 -0.01530311 0.73515236
-0.30212453 -0.42499763 0.00000000
-0.45262513 -0.20821545 -0.00000015
-0.48720863 0.03145075 -0.00000072
-0.26908895 -0.46905452 0.00000000
-0.51251584 0.17719191 -0.00000109
-0.12012501 0.00949037 0.00000000
-0.18963382 0.16124535 0.00000000
-0.41045231 0.09260021 -0.00000050
-0.78933078 -0.15942961 -0.00000160
-0.21539547 -0.19349341 0.00000000
-0.39895478 0.27525955 -0.00000078
-0.45335928 0.20215736 -0.00000088
-0.37678438 -0.14393684 0.00000000
-0.60101718 -0.08982498 -0.00000099
-0.41385221 -0.63290423 0.00000000
0.00556018 0.62834990 0.12733459
0.02242879 -0.04303248 0.51358908
-0.66608238 -0.54858673 -0.00000046
0.00681096 0.62626654 0.15596506
-0.03608163 -0.01755949 0.00000000
-0.09299859 -0.65826434 0.00000000
0.00757977 0.60501999 0.17357068
-0.25645640 -0.67139208 0.00000000
-0.41001290 0.05528823 -0.00000043
-0.60289162 -0.12878790 -0.00000093
-0.71145344 -0.03097231 -0.00000157
0.03362979 -0.56359547 0.77007806
-0.45946193 -0.46449983 0.00000000
-0.15095095 -0.43286762 0.00000000
-0.18845119 0.26340789 0.00000000
-0.19183056 0.11613364 0.00000000
-0.56581551 -0.23614353 -0.00000058
-0.64048564 -0.60313779 -0.00000025
-0.54603666 0.24760932 -0.00000135
-0.45856193 -0.69209927 0.00000000
-0.19910245 0.28238809 0.00000000
-0.05038393 -0.31758797 0.00000000
-0.01057757 0.60697711 0.00000000
-0.02047876 -0.59028816 0.00000000
0.02770506 0.13755706 0.63440508
-0.71128303 -0.28102788 -0.00000112
-0.00038637 -0.01461985 0.00000000
-0.62807536 -0.02415654 -0.00000122
-0.19626531 0.38828143 -0.00000011
-0.12272140 -0.33262104 0.00000000
-0.37465212 -0.28369954 0.00000000
-0.76895660 -0.77332968 -0.00000007
0.01761680 0.17769048 0.40347445
-0.34024733 0.20279959 -0.00000040
0.01099011 0.44902310 0.25169057
-0.51713699 -0.60757202 0.00000000
-0.45066619 -0.07786458 -0.00000037
0.03272244 -0.36180845 0.74929690
-0.06186618 -0.16729009 0.00000000
-0.61037678 -0.63533920 -0.00000007
-0.52927023 -0.07877070 -0.00000071
-0.27972761 0.20507443 -0.00000014
-0.22066244 -0.53081185 0.00000000
0.03269277 0.04708214 0.74860400
-0.29258743 -0.06839620 0.00000000
-0.42771551 0.16030908 -0.00000069
0.02986917 -0.31931427 0.68396342
-0.67018104 -0.49719891 -0.00000057
-0.73740071 -0.32132566 -0.00000116
-0.71460050 0.02506948 -0.00000168
-0.15163366 0.41399491 0.00000000
-0.05893602 -0.38599735 0.00000000
-0.17883641 0.02577401 0.00000000
-0.61909711 -0.19507284 -0.00000088
-0.07184716 -0.74790949 0.00000000
-0.31412822 -0.18547080 0.00000000
-0.71600646 -0.41244334 -0.00000091
-0.56221753 0.01502368 -0.00000101
-0.19755214 -0.77494186 0.00000000
-0.77436137 -0.68750465 -0.00000028
-0.75233728 -0.04311656 -0.00000172
-0.68906856 -0.05940834 -0.00000142
-0.18840653 0.59596342 -0.00000044
-0.32991794 0.11040295 -0.00000019
-0.21356718 -0.11814525 0.00000000
-0.46954292 -0.44614977 0.00000000
-0.29831499 0.48808038 -0.00000072
0.03278046 -0.52780408 0.75063014
-0.76482713 -0.20512649 -0.00000149
-0.23867702 -0.73910719 0.00000000
-0.53073835 -0.49369076 0.00000000
-0.05429689 0.25855455 0.00000000
-0.68231410 -0.79019392 -0.00000002
-0.15935016 0.13651928 0.00000000
-0.04051265 0.52361184 0.00000000
-0.05701506 -0.54491025 0.00000000
-0.64479417 -0.63846374 -0.00000021
-0.56327319 0.07696162 -0.00000113
-0.67332327 -0.45182964 -0.00000066
-0.02957847 0.69818151 0.00000000
0.02952987 -0.02158611 0.67618424
-0.35692272 0.07217541 -0.00000024
0.00187353 0.73503268 0.04290864
-0.08596592 -0.17593130 0.00000000
-0.66368067 -0.10721778 -0.00000123
-0.02949411 -0.69209945 0.00000000
-0.07644814 0.65502501 -0.00000007
-0.79370004 -0.39361191 -0.00000102
-0.19195199 -0.46756062 0.00000000
0.01016063 0.47710398 0.23269366
0.02401527 -0.10443886 0.54991734
-0.64367312 0.13138542 -0.00000157
-0.25707689 0.32861474 -0.00000026
-0.75201398 -0.01021234 -0.00000178
-0.47480303 -0.32634145 -0.00000004
0.01425818 0.44354591 0.32649720
-0.28032723 0.36595589 -0.00000043
-0.49105662 -0.33231544 -0.00000009
-0.31696382 -0.33446223 0.00000000
-0.15244631 0.00925351 0.00000000
-0.26933163 -0.59735394 0.00000000
-0.66345543 -0.56318223 -0.00000042
-0.73508900 -0.62582374 -0.00000044
-0.07527827 -0.22849290 0.00000000
0.02898732 -0.02141073 0.66376126
-0.50062943 -0.71837211 0.00000000
-0.63167095 -0.41136608 -0.00000055
-0.29752588 0.45753619 -0.00000066
-0.56193262 -0.15662529 -0.00000071
0.02995718 -0.19036469 0.68597442
0.03148563 -0.04768853 0.72096699
-0.31954834 -0.08180552 0.00000000
-0.74854958 -0.39457044 -0.00000101
-0.16273451 -0.76458269 0.00000000
-0.24634409 0.28610295 -0.00000014
0.02927234 -0.26897952 0.67029583
-0.31468466 0.36355186 -0.00000057
-0.43647709 0.33850881 -0.00000105
-0.55420458 -0.27264863 -0.00000047
-0.70736676 0.06855964 -0.00000173
-0.02146155 -0.76896209 0.00000000
-0.46945572 0.32149762 -0.00000116
0.01065236 0.45334134 0.24395789
-0.19080012 0.19139344 0.00000000
-0.28365952 -0.57863396 0.00000000
-0.78026640 -0.10860284 -0.00000172
-0.26035044 0.07089270 0.00000000
0.02696410 0.07294762 0.61746913
-0.44999647 0.25559396 -0.00000096
-0.62810779 0.06501829 -0.00000138
0.02379023 0.09689146 0.54481167
-0.52760106 -0.18826178 -0.00000050
-0.55094886 -0.76514310 0.00000000
-0.31909016 0.07379325 -0.00000008
-0.36986697 -0.79904056 0.00000000
-0.49932015 -0.48782054 0.00000000
0.00983188 0.41184753 0.22519323
-0.47631511 -0.63932532 0.00000000
-0.77947879 -0.64006358 -0.00000040
-0.37465549 -0.14604828 0.00000000
-0.41564402 -0.19700912 -0.00000001
-0.65866923 -0.59489900 -0.00000035
-0.64044058 -0.63890958 -0.00000019
0.02999322 -0.12692086 0.68679738
-0.52822393 -0.04720492 -0.00000076
-0.24761790 0.01551517 0.00000000
-0.04798346 -0.49598733 0.00000000
-0.04880762 -0.78911018 0.00000000
-0.60028511 -0.69131464 0.00000000
-0.55522442 0.12012204 -0.00000117
0.00626065 0.65135348 0.14335923
-0.00156038 -0.22522800 0.00000000
-0.53898227 -0.07856550 -0.00000075
-0.08196216 0.66936707 -0.00000012
0.01956474 0.23720175 0.44803947
-0.28241521 -0.58932650 0.00000000
-0.29421875 -0.34526485 0.00000000
-0.30010211 -0.27090478 0.00000000
-0.21390148 -0.37774584 0.00000000
-0.51691711 -0.79298246 0.00000000
-0.14844313 0.20519409 0.00000000
0.03386286 -0.29546762 0.77540684
-0.55391371 -0.23454359 -0.00000054
-0.24082972 0.20200418 0.00000000
-0.55434406 -0.31616732 -0.00000039
0.01008736 0.46174076 0.23102224
-0.29336536 -0.45394540 0.00000000
0.00477997 0.68773520 0.10945266
0.01724582 0.28579360 0.39494216
0.02891608 0.08543835 0.66214424
0.02891619 -0.08499151 0.66213483
-0.70032328 -0.02848131 -0.00000152
-0.05961116 0.35652858 0.00000000
-0.23844276 -0.35922128 0.00000000
-0.14962357 0.54293472 -0.00000018
-0.16578767 0.55174458 -0.00000027
-0.06145671 -0.45718715 0.00000000
0.01955390 0.18448734 0.44781128
-0.71562916 -0.38717178 -0.00000096
-0.33642665 -0.35863677 0.00000000
-0.52796537 0.26351422 -0.00000130
-0.09954739 0.40462953 0.00000000
-0.19406845 0.51441121 -0.00000032
-0.42956781 -0.03291716 -0.00000036
0.02500894 -0.05979177 0.57266825
-0.19546352 0.14870815 0.00000000
-0.27194357 0.12867600 0.00000000
0.03107863 -0.42507842 0.71166050
0.00984300 0.47605658 0.22542362
-0.03752587 -0.25441343 0.00000000
-0.30684513 -0.79198420 0.00000000
-0.06611427 -0.12312752 0.00000000
-0.42740840 -0.14958473 -0.00000015
-0.60682553 -0.73139942 0.00000000
-0.18604700 0.49059734 -0.00000025
-0.46685126 -0.53211254 0.00000000
-0.43190065 -0.47106853 0.00000000
0.02251051 0.22244795 0.51547223
-0.12386064 0.24056976 0.00000000
-0.22495763 -0.08749988 0.00000000
-0.33081424 0.10976194 -0.00000019
-0.29413214 0.37009737 -0.00000050
0.02363821 -0.08501447 0.54128289
0.02283277 -0.01408994 0.52283812
-0.76434994 -0.56603074 -0.00000058
0.01620940 0.30230704 0.37121281
-0.29041255 -0.59225857 0.00000000
-0.23601300 0.21497399 0.00000000
-0.32721516 0.20062628 -0.00000034
-0.72541732 -0.18069199 -0.00000136
-0.60220504 -0.78130043 0.00000000
-0.21291330 0.46536928 -0.00000032
-0.78346658 -0.59301198 -0.00000052
-0.24845022 -0.43768913 0.00000000
-0.32019541 -0.55580407 0.00000000
-0.57272136 -0.17628030 -0.00000072
-0.05003556 -0.21411464 0.00000000
-0.33281121 -0.51339829 0.00000000
-0.22549720 -0.15495798 0.00000000
0.03008992 -0.34466162 0.68901902
-0.31293252 -0.11156094 0.00000000
-0.21074019 0.08567273 0.00000000
-0.51085144 -0.10516109 -0.00000058
-0.65687811 -0.16029160 -0.00000111
-0.46004364 -0.45361245 0.00000000
-0.17524500 -0.61318350 0.00000000
0.01978873 0.03420875 0.45324302
-0.77945101 -0.68896705 -0.00000028
-0.64553654 -0.56659073 -0.00000034
-0.32607684 -0.40240204 0.00000000
-0.66553396 -0.46449557 -0.00000061
-0.71505433 -0.21434931 -0.00000126
0.01186099 0.47525680 0.27161476
-0.41510504 -0.65345508 0.00000000
-0.11323237 -0.78984803 0.00000000
0.02093438 0.26057538 0.47938097
-0.57820421 0.17026429 -0.00000135
-0.59071571 0.18474287 -0.00000143
-0.07857909 0.44027284 0.00000000
-0.56703299 0.10397361 -0.00000119
-0.16325356 -0.00393480 0.00000000
0.01645564 0.31543782 0.37684411
-0.10026037 -0.35434833 0.00000000
0.01419972 0.31343237 0.32520798
-0.79476631 -0.29120523 -0.00000127
-0.56669265 -0.04498638 -0.00000092
-0.57938862 -0.68470341 0.00000000
-0.16501446 -0.42757970 0.00000000
-0.04768803 -0.00696526 0.00000000
-0.60666209 -0.64325184 -0.00000004
-0.54933542 -0.62341481 0.00000000
-0.09470309 -0.06431290 0.00000000
-0.51560491 -0.21341021 -0.00000041
-0.19006632 -0.03339070 0.00000000
-0.67261326 -0.72258103 -0.00000018
-0.35797104 -0.25792137 0.00000000
0.00485476 0.64479566 0.11118157
-0.68424475 -0.77179986 -0.00000007
0.02044189 0.06766944 0.46818101
-0.04554245 -0.51287198 0.00000000
-0.09510798 0.05560315 0.00000000
-0.27335641 -0.24052785 0.00000000
0.00661587 0.64558697 0.15149221
0.02449043 -0.02539590 0.56079447
-0.17588817 -0.55215216 0.00000000
-0.21100484 -0.64238906 0.00000000
0.01362817 0.37258086 0.31210321
0.01368446 0.48369899 0.31334889
-0.74673724 -0.41110629 -0.00000097
-0.24846332 -0.77399361 0.00000000
-0.25900877 -0.04737488 0.00000000
0.01170671 0.34025800 0.26813421
-0.69810849 -0.23011529 -0.00000116
-0.27596948 -0.68019599 0.00000000
-0.50357181 -0.19025145 -0.00000040
-0.09633390 -0.39445660 0.00000000
-0.53268868 -0.02564798 -0.00000081
-0.28770304 -0.40707782 0.00000000
-0.64010841 -0.19270433 -0.00000098
-0.02333454 0.05400054 0.00000000
-0.63505155 -0.42757303 -0.00000054
-0.28765741 0.47224456 -0.00000065
0.02395018 -0.07857517 0.54842597
-0.43676382 -0.56876695 0.00000000
-0.57436699 -0.30051407 -0.00000051
-0.75550789 -0.51120043 -0.00000072
-0.10524698 -0.20753899 0.00000000
-0.21059883 -0.19947205 0.00000000
0.03103309 -0.31670001 0.71061409
-0.24768066 0.42932597 -0.00000040
-0.76153541 -0.15910296 -0.00000155
-0.63140410 -0.14697047 -0.00000102
-0.44915229 -0.47589105 0.00000000
-0.30385795 0.45312840 -0.00000068
-0.55969048 0.23984250 -0.00000139
0.03086473 -0.12525804 0.70675266
-0.07829322 0.41554075 0.00000000
-0.02879239 -0.72680801 0.00000000
-0.21562929 -0.05171471 0.00000000
-0.39596683 -0.18947867 0.00000000
-0.51836091 -0.20342483 -0.00000044
-0.66338313 -0.68303829 -0.00000021
0.01433062 0.46440780 0.32814747
-0.69688737 -0.38723671 -0.00000088
-0.19987592 0.38417393 -0.00000012
-0.16146760 -0.20179507 0.00000000
-0.23858488 -0.75158387 0.00000000
-0.15576743 0.23401263 0.00000000
0.01670250 0.13753566 0.38256180
-0.05861434 -0.09556299 0.00000000
-0.51550269 -0.26186791 -0.00000032
-0.39571735 -0.36899546 0.00000000
-0.64112091 -0.43793139 -0.00000055
0.02877803 0.02012656 0.65900898
-0.28660005 -0.08948595 0.00000000
0.03286086 0.02417588 0.75246143
-0.37021673 0.05067077 -0.00000026
0.01657414 0.37816712 0.37953302
0.01974340 0.19936867 0.45214307
-0.30509573 0.02793873 0.00000000
-0.07772615 -0.50903374 0.00000000
-0.23421903 0.39058459 -0.00000028
-0.34992170 0.11378461 -0.00000028
-0.29317370 -0.38041380 0.00000000
-0.38605574 -0.34333861 0.00000000
-0.52095968 0.17281014 -0.00000111
0.00460765 0.68212324 0.10551124
-0.17329335 -0.49022403 0.00000000
0.02846177 -0.12759686 0.65173131
-0.40175235 0.19167715 -0.00000064
0.02412800 -0.08456406 0.55249786
-0.61771333 0.03531434 -0.00000128
0.03326089 0.03087941 0.76161540
-0.50813425 -0.51570922 0.00000000
0.03155676 0.01971527 0.72261286
-0.06392577 0.20638640 0.00000000
-0.61513704 -0.08578042 -0.00000106
-0.31995916 -0.17187671 0.00000000
-0.77776909 -0.03657590 -0.00000184
-0.06272873 0.53248614 0.00000000
-0.40679386 -0.62572402 0.00000000
-0.64107156 -0.36861816 -0.00000067
-0.62050098 -0.75694525 0.00000000
-0.14086223 -0.37974426 0.00000000
-0.53519851 -0.47626391 -0.00000003
0.02467859 -0.14640675 0.56510693
0.02366274 -0.06814993 0.54184413
-0.15483794 0.39721790 0.00000000
-0.02543096 0.70817989 0.00000000
0.03000176 0.02100302 0.68701929
-0.31267443 -0.61003566 0.00000000
-0.47693041 -0.17309794 -0.00000032
-0.68490374 -0.49560085 -0.00000063
-0.18094765 -0.57861173 0.00000000
-0.01327381 -0.49320817 0.00000000
-0.16523257 0.19960462 0.00000000
-0.09308487 0.27112833 0.00000000
-0.31016868 0.39844409 -0.00000061
0.02803095 -0.16052741 0.64186770
0.01736598 0.32888785 0.39767635
0.02576397 -0.20661524 0.58996147
0.02010688 0.03990384 0.46052316
-0.09839073 0.63134837 -0.00000012
-0.73670805 -0.78350520 -0.00000004
-0.00249001 0.33790952 0.00000000
-0.24913453 -0.12249965 0.00000000
-0.32702532 -0.12617831 0.00000000
-0.05460443 -0.66468835 0.00000000
-0.58037180 -0.09251414 -0.00000090
-0.16196302 0.63248640 -0.00000040
-0.23421653 0.34358627 -0.00000019
-0.04967057 0.49332631 0.00000000
-0.32906955 -0.65435052 0.00000000
-0.49883798 -0.08090370 -0.00000057
0.01329425 0.45912737 0.30442724
-0.50224948 -0.51475352 0.00000000
0.03087338 -0.26708043 0.70695543
-0.11915383 -0.40187737 0.00000000
-0.14527155 0.42900565 0.00000000
-0.03791383 -0.60074604 0.00000000
-0.17162077 -0.71042353 0.00000000
-0.19490267 -0.12758876 0.00000000
-0.34127003 0.20773815 -0.00000041
0.03400440 -0.24441376 0.77864611
-0.43926507 -0.55717367 0.00000000
-0.01033775 0.11159030 0.00000000
0.01230284 0.36011139 0.28177184
-0.65430808 -0.65809727 -0.00000021
-0.17067297 -0.37845364 0.00000000
-0.06443843 0.00866237 0.00000000
-0.36994717 -0.18906502 0.00000000
0.02351391 0.04802826 0.53850538
-0.66109490 -0.22684726 -0.00000101
-0.20940392 -0.33484271 0.00000000
-0.59541595 -0.16112965 -0.00000084
-0.00646405 0.13324268 0.00000000
-0.37335911 0.04993215 -0.00000027
-0.17073423 -0.78828138 0.00000000
-0.03759737 -0.12102764 0.00000000
-0.20414969 0.13077419 0.00000000
0.01375755 0.30279633 0.31509110
-0.41871578 0.29064339 -0.00000089
0.03271697 -0.19801860 0.74916649
0.02795715 -0.31317517 0.64018309
-0.66121095 -0.18784213 -0.00000108
-0.06223253 -0.55756235 0.00000000
-0.35661182 0.33442646 -0.00000070
-0.55822402 -0.15118739 -0.00000070
-0.48465341 0.11699392 -0.00000086
0.02602840 -0.02828291 0.59601021
-0.15720811 0.63825804 -0.00000039
-0.27436915 0.24966948 -0.00000020
-0.02196769 0.53543949 0.00000000
0.03190483 -0.21691693 0.73057127
-0.43820947 -0.49168023 0.00000000
-0.20292903 0.58137196 -0.00000048
-0.03535371 0.67582422 0.00000000
-0.51771706 0.13381962 -0.00000103
-0.50945634 0.19517243 -0.00000111
-0.33295068 -0.15542161 0.00000000
-0.30275276 -0.41389155 0.00000000
-0.50858963 -0.46777076 0.00000000
0.03222807 -0.42442244 0.73797929
-0.47985446 0.22935778 -0.00000104
-0.35077724 -0.09863394 0.00000000
-0.29905173 0.49998790 -0.00000075
-0.21178117 -0.09558161 0.00000000
-0.65897691 -0.48929477 -0.00000053
-0.11544732 0.51451194 0.00000000
-0.03680505 -0.42468601 0.00000000
-0.09499058 -0.00554005 0.00000000
-0.72358966 -0.17165910 -0.00000137
0.02446099 0.04615962 0.56018430
0.00730788 0.55006546 0.16736801
-0.72934383 -0.46683222 -0.00000083
-0.69705689 -0.12223443 -0.00000134
-0.49530315 0.29100519 -0.00000121
0.02135356 0.14618120 0.48901898
-0.34064975 -0.10649707 0.00000000
0.02572044 0.11304498 0.58898729
-0.39811307 0.03515663 -0.00000035
-0.53386086 0.10804462 -0.00000106
-0.35508624 -0.55062079 0.00000000
-0.25961345 -0.16419132 0.00000000
-0.28475779 -0.69794756 0.00000000
-0.67911631 0.10630608 -0.00000167
-0.41556436 -0.19520310 -0.00000001
-0.22225727 -0.79933375 0.00000000
0.01637945 0.15617748 0.37516037
-0.48149255 -0.77603525 0.00000000
0.01550069 0.28904739 0.35499585
-0.61477637 -0.77197009 0.00000000
-0.22646184 0.13933918 0.00000000
-0.16948316 -0.43943664 0.00000000
-0.24717908 -0.56788355 0.00000000
-0.43945688 -0.11537127 -0.00000026
-0.38243711 -0.17305647 0.00000000
-0.17839581 0.34523016 0.00000000
0.02772369 -0.31059501 0.63483739
-0.67140496 -0.33395252 -0.00000086
-0.26132193 -0.05384922 0.00000000
-0.67535102 -0.00437311 -0.00000146
-0.36398917 0.18790451 -0.00000047
-0.20547724 0.08855514 0.00000000
0.03139134 -0.36634746 0.71881872
0.00749926 0.56265062 0.17174377
0.02597493 0.02417231 0.59484595
0.01524050 0.18284859 0.34908012
-0.75615847 -0.78591913 -0.00000004
-0.52379054 -0.78012162 0.00000000
-0.51699948 -0.65192765 0.00000000
0.02712008 -0.27582210 0.62101507
-0.00492396 -0.20251089 0.00000000
-0.31911859 -0.43069026 0.00000000
0.00520834 0.61748409 0.11928526
-0.24749701 -0.66558945 0.00000000
-0.10884121 -0.21819477 0.00000000
-0.52057284 0.18432324 -0.00000113
-0.35978585 -0.78326517 0.00000000
-0.41979605 -0.59293765 0.00000000
0.02859965 -0.20785934 0.65489113
0.00978589 0.42499214 0.22413555
-0.52719754 0.19541685 -0.00000118
-0.33490899 -0.01562368 0.00000000
0.03178721 -0.41932613 0.72788489
-0.69085366 -0.45765290 -0.00000073
-0.15201309 -0.47980750 0.00000000
-0.36629352 -0.49642453 0.00000000
0.01284736 0.28420770 0.29426432
-0.35740158 -0.63638711 0.00000000
-0.35851336 -0.51461858 0.00000000
0.02464535 0.02953845 0.56441033
-0.16933294 0.60508895 -0.00000038
-0.14506431 -0.59565961 0.00000000
0.02339597 0.26330683 0.53572458
0.02147819 0.05256393 0.49190709
-0.23196647 -0.52111870 0.00000000
-0.34395561 -0.69375294 0.00000000
-0.53184974 -0.61348534 0.00000000
0.03423903 -0.01707129 0.78401148
-0.68641448 -0.35121658 -0.00000089
-0.16489246 -0.39621666 0.00000000
0.02326163 -0.11731200 0.53266132
0.02769775 0.05033489 0.63427049
0.02609065 -0.26119989 0.59744334
-0.32828978 0.15208977 -0.00000026
-0.41475636 -0.40302584 0.00000000
-0.11960004 -0.57772422 0.00000000
-0.60131955 0.00727796 -0.00000116
0.02350524 0.11953544 0.53827983
-0.36180329 -0.40584365 0.00000000
-0.57241780 -0.77318996 0.00000000
-0.05105518 0.17968757 0.00000000
0.02906580 -0.00255705 0.66555780
-0.24358001 -0.20282070 0.00000000
-0.18099968 -0.49016249 0.00000000
-0.38782918 0.02041489 -0.00000028
0.01674160 0.34432277 0.38337874
-0.25127119 -0.48369977 0.00000000
0.02982136 -0.33355001 0.68286920
-0.11765535 0.29174525 0.00000000
-0.63782221 0.14227206 -0.00000156
0.01495789 0.43710458 0.34251547
-0.07267683 0.23299785 0.00000000
-0.02196452 0.75743508 -0.00000002
-0.33621189 0.14554161 -0.00000028
-0.26390687 -0.41929919 0.00000000
-0.02587098 0.49582097 0.00000000
-0.53146261 -0.70433688 0.00000000
-0.78018397 -0.61268485 -0.00000047
-0.20429078 -0.03450183 0.00000000
0.01949119 0.03926016 0.44643050
0.00578871 0.56412345 0.13258956
-0.23759055 -0.12683146 0.00000000
-0.20634486 -0.25763267 0.00000000
-0.10485588 -0.79520613 0.00000000
-0.34332624 0.20730662 -0.00000042
0.03194256 -0.29439989 0.73143780
-0.57623082 -0.59532785 0.00000000
-0.63911164 -0.73523933 -0.00000001
-0.64795125 -0.01481774 -0.00000132
-0.03013327 -0.33061668 0.00000000
-0.14059976 0.47224188 -0.00000002
-0.30802101 0.06473089 -0.00000001
-0.06172773 0.26070645 0.00000000
-0.03865692 -0.19874141 0.00000000
-0.43972644 -0.40271083 0.00000000
-0.09770026 0.49114287 0.00000000
0.01586715 0.43426138 0.36332926
-0.01933465 0.67973518 0.00000000
-0.29339591 -0.27966395 0.00000000
-0.47914636 -0.68266511 0.00000000
-0.18653032 0.07594653 0.00000000
-0.24459110 -0.71086901 0.00000000
-0.61998808 -0.73605931 0.00000000
-0.68836087 -0.59612483 -0.00000047
-0.50754148 -0.47428226 0.00000000
-0.34852207 0.06092955 -0.00000018
-0.13215105 0.50104630 -0.00000004
0.00606624 0.60472065 0.13892683
-0.76747084 -0.32528156 -0.00000119
-0.44606176 -0.62242848 0.00000000
-0.47484672 -0.16220176 -0.00000033
-0.51742399 -0.56764793 0.00000000
0.02175009 -0.00323302 0.49804711
-0.42305684 -0.51271683 0.00000000
-0.27599826 0.12577274 0.00000000
-0.08505389 -0.68580061 0.00000000
-0.26140225 0.28912684 -0.00000021
-0.03761962 -0.74779469 0.00000000
0.01845709 0.15219331 0.42271799
-0.54043496 -0.27692392 -0.00000040
-0.25068438 -0.30713239 0.00000000
-0.68613422 -0.54526150 -0.00000055
-0.57876277 -0.32814202 -0.00000048
-0.68594486 -0.38465410 -0.00000083
0.02910492 -0.30913734 0.66646391
-0.42230412 -0.54086435 0.00000000
-0.30172437 0.48513579 -0.00000073
-0.48398706 -0.49632040 0.00000000
-0.43070272 -0.25203612 0.00000000
-0.25099429 -0.28146815 0.00000000
-0.36188400 -0.74499053 0.00000000
0.02603940 -0.22074690 0.59626842
-0.44762331 -0.44666326 0.00000000
-0.01911626 -0.51137352 0.00000000
0.02026494 0.06962173 0.46412981
-0.18469004 -0.14709830 0.00000000
-0.49633941 0.18758699 -0.00000104
-0.13979153 0.56705773 -0.00000018
-0.05068959 0.32442835 0.00000000
-0.24327803 0.33799800 -0.00000022
0.01200533 0.52030861 0.27490157
-0.31063375 -0.30701298 0.00000000
-0.53059030 -0.49950716 0.00000000
-0.37606144 0.39493757 -0.00000089
-0.31807390 -0.78845972 0.00000000
-0.79297560 -0.62647164 -0.00000043
-0.32761109 -0.20584837 0.00000000
-0.74588436 -0.29727232 -0.00000124
-0.38997927 0.11126211 -0.00000045
-0.01256644 0.74109501 0.00000000
-0.60843861 -0.36590418 -0.00000054
-0.00092197 0.01124175 0.00000000
-0.27113500 -0.21967348 0.00000000
-0.10398500 0.01869653 0.00000000
-0.30389360 0.34212589 -0.00000049
0.02703254 -0.01899681 0.61900192
-0.10058416 0.49119636 0.00000000
-0.02992740 0.33154324 0.00000000
0.03225569 -0.30654225 0.73860818
-0.36115316 -0.46785003 0.00000000
-0.22532628 -0.56944460 0.00000000
-0.50940120 -0.29706684 -0.00000023
-0.51495278 0.08500909 -0.00000093
-0.35128048 -0.18968894 0.00000000
-0.40498155 0.36445561 -0.00000096
-0.49426833 0.03690332 -0.00000076
-0.53240240 -0.71175349 0.00000000
-0.22799332 -0.40419093 0.00000000
-0.67993814 -0.67086357 -0.00000030
0.02088944 0.29979339 0.47833753
0.01138183 0.53522205 0.26062441
-0.29157302 -0.71318203 0.00000000
-0.55497676 -0.68898404 0.00000000
-0.64543802 -0.49599200 -0.00000046
-0.28577065 0.04448349 0.00000000
0.02090940 0.03211657 0.47889546
-0.19528611 -0.48698667 0.00000000
-0.67909634 -0.19666953 -0.00000114
-0.58926505 -0.29887572 -0.00000057
-0.21024702 -0.60712612 0.00000000
-0.64534718 -0.52919304 -0.00000040
-0.74168664 -0.09205990 -0.00000159
-0.62977618 -0.45354277 -0.00000047
-0.39539984 -0.42644337 0.00000000
-0.45544204 0.03210689 -0.00000059
-0.01520187 -0.42770329 0.00000000
-0.78755152 -0.65012479 -0.00000037
-0.23375674 -0.34440851 0.00000000
-0.04729827 0.47449002 0.00000000
-0.79706413 -0.62210244 -0.00000044
-0.58131975 -0.55449235 -0.00000009
0.03437227 -0.37749276 0.78707290
-0.01670152 0.69915640 0.00000000
0.03418355 -0.20818391 0.78274703
-0.29478484 -0.54957592 0.00000000
-0.19202127 -0.34602088 0.00000000
-0.14654972 0.00443089 0.00000000
-0.36589202 0.20352502 -0.00000051
-0.00939724 0.25905254 0.00000000
-0.77399069 -0.65416294 -0.00000036
-0.37951961 -0.53718734 0.00000000
-0.36341259 -0.36492756 0.00000000
-0.76786429 -0.55795586 -0.00000061
0.00703792 0.56929451 0.16118143
0.00489377 0.68268204 0.11206014
-0.18806893 0.10154846 0.00000000
0.02834116 -0.34357396 0.64897692
-0.34334946 0.01113209 -0.00000007
-0.46867412 -0.27613008 -0.00000010
-0.16503143 0.59247804 -0.00000034
-0.11104338 -0.75928950 0.00000000
0.01995304 0.14420752 0.45696250
-0.43142438 -0.13833271 -0.00000018
0.02152549 0.25380051 0.49291390
0.01257847 0.29264808 0.28810629
-0.53357464 -0.00494365 -0.00000085
-0.58051908 -0.62369972 0.00000000
0.02566495 -0.19176283 0.58769363
-0.32637867 -0.66727883 0.00000000
0.03472166 -0.34248164 0.79507178
-0.55637014 -0.17978662 -0.00000064
-0.57983398 0.00890784 -0.00000108
-0.43139154 0.20696731 -0.00000079
-0.76920223 -0.00480323 -0.00000186
-0.67506081 -0.41285184 -0.00000074
-0.16681895 0.54906976 -0.00000027
0.03334003 -0.15307073 0.76343143
0.02439204 -0.00148877 0.55854088
-0.23480178 -0.26085168 0.00000000
-0.29992205 -0.77941602 0.00000000
-0.11332407 -0.45117575 0.00000000
-0.74564284 -0.31885606 -0.00000120
-0.10860767 0.09749796 0.00000000
0.02874874 -0.18823914 0.65830421
-0.67793399 -0.54898995 -0.00000051
-0.25717458 0.07295453 0.00000000
0.01770055 0.32431760 0.40533632
-0.21446177 -0.68707830 0.00000000
0.02051169 0.10796525 0.46976337
-0.33727252 -0.00463781 -0.00000002
0.02505757 -0.12898360 0.57378411
-0.32681072 -0.11379064 0.00000000
-0.48463902 -0.19941476 -0.00000030
-0.45286891 0.25021115 -0.00000096
-0.54568738 -0.14116870 -0.00000067
-0.13959058 -0.44704822 0.00000000
0.00582473 0.63094860 0.13338885
-0.02363417 -0.39019695 0.00000000
-0.26962531 0.34826547 -0.00000035
-0.22154883 0.16640201 0.00000000
0.03381539 -0.20483962 0.77431726
-0.10047851 0.39548749 0.00000000
-0.12086747 -0.08655526 0.00000000
-0.42372334 -0.08665328 -0.00000024
-0.68864799 -0.54057628 -0.00000057
-0.16076712 0.32141384 0.00000000
-0.39792991 -0.27293935 0.00000000
-0.65949780 -0.32496375 -0.00000083
0.02048694 0.09774386 0.46920076
-0.19669051 -0.11234390 0.00000000
-0.20764048 0.39918348 -0.00000018
-0.33417803 -0.61201090 0.00000000
-0.23601180 -0.11927082 0.00000000
-0.46520576 -0.11024298 -0.00000038
0.01492225 0.41027364 0.34171000
-0.43740577 -0.46680054 0.00000000
-0.77599543 -0.32511383 -0.00000119
-0.36484754 0.08892375 -0.00000030
0.02968737 0.05529278 0.67981017
-0.40881306 -0.31412011 0.00000000
-0.40523532 -0.50027072 0.00000000
-0.34330770 -0.34764668 0.00000000
-0.34272623 -0.74232554 0.00000000
-0.75594103 -0.69258845 -0.00000027
-0.54243600 -0.28263462 -0.00000040
-0.43982223 -0.39221334 0.00000000
-0.54086238 -0.07257740 -0.00000077
-0.55832106 0.05789116 -0.00000107
-0.12521763 -0.34930441 0.00000000
-0.37513295 -0.77746803 0.00000000
-0.52427071 0.02492958 -0.00000087
-0.56823879 -0.47929758 -0.00000016
0.03114897 -0.41561833 0.71327078
-0.14387216 -0.48245975 0.00000000
-0.12535003 0.39961004 0.00000000
-0.63006842 0.11247369 -0.00000147
-0.06198221 0.53650653 0.00000000
-0.15679476 -0.45774823 0.00000000
-0.43751335 -0.72687215 0.00000000
-0.37793100 0.08560984 -0.00000035
-0.15070868 -0.61992162 0.00000000
-0.74510342 -0.78013808 -0.00000005
-0.18551025 -0.48537806 0.00000000
-0.26928538 0.28980291 -0.00000025
0.01914199 0.07318275 0.43842468
0.01474681 0.31771925 0.33772898
0.02200464 0.23962753 0.50388658
-0.15799160 0.63939023 -0.00000035
-0.65872312 -0.31274670 -0.00000084
0.02772620 -0.26383498 0.63489330
0.03227470 -0.16192511 0.73903859
-0.20114832 -0.76728612 0.00000000
-0.04664357 0.06128584 0.00000000
-0.59258348 -0.13018981 -0.00000088
-0.12743255 0.32990196 0.00000000
0.02862499 -0.19113733 0.65547061
-0.78996474 -0.14962097 -0.00000163
-0.10271009 -0.22314081 0.00000000
-0.53736222 0.14157274 -0.00000113
-0.47339886 0.01913156 -0.00000064
-0.31780863 0.23995776 -0.00000037
-0.26180041 0.06431669 0.00000000
-0.20335294 -0.57968611 0.00000000
-0.08276703 0.37501892 0.00000000
0.02380713 -0.17376155 0.54515386
-0.23835252 -0.50158721 0.00000000
-0.61360157 -0.76743776 0.00000000
0.00926322 0.45784584 0.21215954
0.02362265 0.06308863 0.54098868
0.01660287 0.17853597 0.38026589
0.02196548 0.17517465 0.50301450
-0.58469552 -0.33816761 -0.00000048
-0.51707000 0.26267982 -0.00000126
-0.37659475 0.41863501 -0.00000093
-0.15251929 -0.50673294 0.00000000
-0.12130301 -0.26980573 0.00000000
-0.52205455 -0.51888555 0.00000000
-0.40051118 -0.59397990 0.00000000
-0.32601535 -0.72214943 0.00000000
-0.71385348 -0.28463227 -0.00000113
-0.01357477 -0.05124719 0.00000000
-0.26184705 -0.07436331 0.00000000
0.00401204 0.67667842 0.09188009
-0.67343903 -0.58896393 -0.00000042
-0.17262255 -0.54792982 0.00000000
-0.09746526 0.10472464 0.00000000
-0.67418653 -0.72512811 -0.00000018
-0.51647127 -0.48689094 0.00000000
0.01801536 0.14170814 0.41261086
-0.58054727 0.15347265 -0.00000133
-0.29122046 -0.60814285 0.00000000
-0.36981189 -0.23817495 0.00000000
0.03268834 -0.03482723 0.74850535
-0.54152638 -0.05116074 -0.00000081
0.03455937 -0.37739477 0.79135686
0.00941898 0.50421703 0.21570727
-0.02948460 -0.30995274 0.00000000
0.02003535 0.06205718 0.45887753
-0.54299498 -0.28821751 -0.00000039
0.01157688 0.33255619 0.26516533
-0.78551668 -0.64700842 -0.00000038
-0.54835111 -0.74633664 0.00000000
-0.44420680 -0.25324604 -0.00000003
-0.03170796 -0.41015139 0.00000000
-0.44852927 -0.33941483 0.00000000
-0.63082558 -0.25065303 -0.00000083
-0.60705209 -0.57634032 -0.00000016
-0.06370298 -0.29701555 0.00000000
0.02041039 0.30048144 0.46737206
-0.01161449 0.65979189 0.00000000
-0.59818649 0.01576384 -0.00000117
0.03209390 -0.04053604 0.73489457
0.01789964 0.23700701 0.40992612
-0.49790573 -0.28563124 -0.00000021
-0.21677296 -0.09068085 0.00000000
-0.02064130 0.21201316 0.00000000
-0.22332281 0.12209307 0.00000000
0.02742747 0.11694588 0.62805879
-0.39036006 0.05534918 -0.00000035
-0.44840744 -0.25181416 -0.00000005
-0.65226418 -0.40829900 -0.00000065
0.02529798 0.10812780 0.57931924
-0.00572123 -0.17271110 0.00000000
-0.59548229 -0.35962322 -0.00000049
-0.71571261 -0.18569075 -0.00000131
0.03090966 -0.16808067 0.70778292
-0.64669669 -0.67568576 -0.00000015
-0.19451068 0.60433120 -0.00000048
-0.23498464 0.34411210 -0.00000020
0.02961307 -0.18885966 0.67809510
-0.14620288 -0.14906597 0.00000000
-0.05064072 -0.35864946 0.00000000
-0.51960570 -0.65146506 0.00000000
-0.33085263 0.14588235 -0.00000026
0.03414050 -0.57757086 0.78177202
-0.40566254 -0.15661266 -0.00000004
-0.45966339 0.24924342 -0.00000099
-0.06181342 -0.37767661 0.00000000
-0.12092938 0.24362978 0.00000000
-0.62826675 -0.45092487 -0.00000047
-0.36837134 0.17567074 -0.00000047
-0.17731649 -0.48513150 0.00000000
-0.56720686 -0.16161054 -0.00000072
0.02649135 -0.21790589 0.60661697
-0.08231738 -0.55931538 0.00000000
-0.12402653 -0.54555869 0.00000000
-0.72991925 -0.34638742 -0.00000109
-0.43970859 -0.34480327 0.00000000
-0.18580870 -0.02071359 0.00000000
-0.16393608 0.43511495 -0.00000005
-0.39669552 -0.25800768 0.00000000
-0.13203976 -0.64202046 0.00000000
-0.55787486 -0.09625168 -0.00000080
-0.36002544 -0.30462483 0.00000000
0.00847030 0.58640343 0.19396143
-0.01873022 -0.56341404 0.00000000
-0.72959292 -0.59839779 -0.00000050
-0.27235281 -0.54000211 0.00000000
0.02497238 -0.10258530 0.57183260
-0.15343393 -0.06845716 0.00000000
-0.37616938 0.25159058 -0.00000064
-0.40371668 0.16235088 -0.00000060
-0.33695701 -0.09581837 0.00000000
-0.06441892 -0.32936943 0.00000000
-0.56141967 -0.62597156 0.00000000
-0.38749307 -0.31978458 0.00000000
-0.43929940 -0.09722301 -0.00000029
-0.36565930 -0.47038868 0.00000000
-0.14640415 0.62252587 -0.00000031
-0.32263193 -0.58220124 0.00000000
-0.17760055 0.05078485 0.00000000
-0.27643505 -0.25124189 0.00000000
-0.74074835 -0.58329159 -0.00000054
0.01850953 0.12387399 0.42392898
-0.36593860 -0.53526527 0.00000000
-0.76132882 0.02755589 -0.00000188
-0.19116190 -0.49466422 0.00000000
0.02940681 0.12583224 0.67336154
-0.42616329 0.04303950 -0.00000048
-0.08898681 -0.63751870 0.00000000
-0.62866277 -0.28193101 -0.00000077
-0.22815315 0.43847635 -0.00000033
-0.41536206 -0.42874411 0.00000000
0.03186796 -0.44673064 0.72973472
-0.11745544 -0.47414261 0.00000000
-0.37936699 0.05167736 -0.00000030
-0.12050448 -0.09067996 0.00000000
0.02389567 0.16635345 0.54719895
-0.20685054 -0.15927412 0.00000000
-0.07587300 0.68713635 -0.00000012
-0.39889482 -0.62829214 0.00000000
-0.00492467 0.67562789 0.00000000
-0.18824932 -0.71976191 0.00000000
-0.74365491 -0.53686070 -0.00000066
0.03361150 -0.45627919 0.76965618
-0.08288054 0.14453682 0.00000000
-0.23614869 0.01339718 0.00000000
-0.18338534 0.29798970 0.00000000
-0.28646687 -0.48616749 0.00000000
-0.00723199 -0.34112668 0.00000000
0.01667040 0.32453850 0.38175657
-0.04723487 -0.35866636 0.00000000
-0.33826366 -0.32607022 0.00000000
0.02432183 -0.17066982 0.55693901
-0.60630196 -0.41139445 -0.00000045
-0.27171698 -0.00687119 0.00000000
-0.20296045 -0.24133804 0.00000000
-0.02071062 0.19096118 0.00000000
-0.08080781 -0.13078260 0.00000000
0.02404639 -0.05055733 0.55062813
-0.74266154 -0.58739936 -0.00000053
-0.39972925 -0.02720484 -0.00000024
-0.70781726 0.07866121 -0.00000175
-0.21307614 -0.47460267 0.00000000
0.02314231 0.19382761 0.52994454
-0.07847287 -0.75317353 0.00000000
-0.20900643 -0.09435896 0.00000000
-0.16036670 0.34249711 0.00000000
-0.76037943 -0.06312280 -0.00000172
-0.47579670 -0.40403593 0.00000000
0.03030132 -0.00911152 0.69384807
-0.65448296 -0.53886253 -0.00000043
-0.41690192 -0.74749374 0.00000000
-0.73778224 -0.12053113 -0.00000152
-0.38563994 -0.76892680 0.00000000
0.03236023 -0.12616500 0.74099565
-0.13641275 0.27456853 0.00000000
-0.79051208 -0.27362323 -0.00000132
0.01835158 0.31381750 0.42024183
-0.54370147 -0.73398340 0.00000000
0.03323529 -0.40795124 0.76104087
0.02631819 0.04807391 0.60269386
0.02499590 0.01989061 0.57243794
-0.73949450 -0.61904627 -0.00000045
-0.17065313 0.45712832 -0.00000012
-0.15590759 0.30932039 0.00000000
-0.39794415 -0.10195614 -0.00000010
-0.20581996 0.37211642 -0.00000012
-0.01820606 0.10809461 0.00000000
-0.04223606 0.62563133 0.00000000
-0.21560915 -0.44792122 0.00000000
0.01264460 0.46339318 0.28955552
-0.51498979 -0.27355492 -0.00000030
-0.11853657 -0.72452939 0.00000000
-0.25661072 0.46558514 -0.00000050
-0.04657917 -0.73685229 0.00000000
-0.65929997 -0.62154365 -0.00000030
-0.57471430 -0.64687830 0.00000000
-0.14316849 0.48553663 -0.00000006
0.02979380 -0.20435151 0.68223381
-0.33563566 -0.18597929 0.00000000
-0.50120503 -0.13590434 -0.00000048
0.01955100 0.11864616 0.44776973
-0.20989113 0.09391853 0.00000000
-0.05997127 0.33713794 0.00000000
-0.00722332 0.60988235 0.00000000
0.01353197 0.35357115 0.30990836
-0.70047075 -0.11651200 -0.00000137
0.02639319 0.13246873 0.60437882
-0.02249250 0.74747509 -0.00000000
-0.47890690 -0.56606734 0.00000000
-0.02069997 -0.09845338 0.00000000
-0.13658988 -0.09876361 0.00000000
-0.45451528 -0.10432040 -0.00000034
-0.09072892 -0.33900154 0.00000000
0.01889016 0.26594809 0.43258792
-0.20033079 0.05347829 0.00000000
-0.34754044 -0.47473153 0.00000000
-0.12719943 0.57126331 -0.00000014
-0.41959098 -0.66311157 0.00000000
0.02841828 -0.06546402 0.65073335
-0.03871336 0.67489177 0.00000000
-0.47810450 -0.63176906 0.00000000
-0.44950369 0.30436340 -0.00000104
-0.54483193 -0.60057104 0.00000000
-0.23661900 0.19505778 0.00000000
0.02572450 -0.17943302 0.58905673
-0.23310985 0.31265330 -0.00000013
0.01007770 0.43260103 0.23081215
-0.68819761 -0.61401933 -0.00000044
-0.33002597 -0.33476308 0.00000000
-0.19586650 -0.72718644 0.00000000
-0.58363456 -0.72168517 0.00000000
-0.47668517 -0.50865906 0.00000000
-0.31074899 0.24243397 -0.00000034
-0.71255183 -0.16324212 -0.00000134
0.02377984 0.21309479 0.54453009
-0.78509527 -0.73076808 -0.00000017
-0.58545542 -0.01941302 -0.00000105
-0.71395904 -0.49052677 -0.00000077
-0.28688359 -0.50414163 0.00000000
-0.13207117 -0.34219334 0.00000000
-0.34793201 -0.47284934 0.00000000
-0.55210531 -0.06459007 -0.00000083
0.02054045 -0.00020641 0.47034949
-0.39134231 -0.49730024 0.00000000
-0.71637863 -0.55743414 -0.00000061
0.03155109 -0.30860937 0.72247469
-0.74471158 -0.09398621 -0.00000160
-0.27325213 -0.77446944 0.00000000
-0.35153171 -0.79125673 0.00000000
-0.39919528 -0.27172151 0.00000000
-0.66367239 -0.09454177 -0.00000125
-0.24819896 -0.31562400 0.00000000
-0.65229529 -0.52787805 -0.00000044
0.03334757 0.01984405 0.76360369
-0.36618969 -0.77058834 0.00000000
-0.67873615 -0.53953999 -0.00000053
-0.64375824 0.07910982 -0.00000147
-0.48605445 0.20335326 -0.00000102
-0.26523033 0.37978882 -0.00000039
-0.43268594 0.12529549 -0.00000065
-0.40531260 -0.53445250 0.00000000
-0.23621395 -0.69477522 0.00000000
-0.00214423 -0.11061834 0.00000000
0.01508145 0.24940012 0.34541452
-0.66215473 -0.66443938 -0.00000024
-0.00624994 -0.15680625 0.00000000
-0.71714813 -0.01269154 -0.00000162
-0.52516055 0.00003453 -0.00000083
-0.18283480 0.29880667 0.00000000
-0.06674335 -0.47903305 0.00000000
-0.07252128 -0.27175784 0.00000000
-0.03916848 -0.79765326 0.00000000
-0.67912042 0.07500349 -0.00000162
-0.73987567 -0.33023992 -0.00000116
-0.15684552 -0.44476697 0.00000000
-0.26583600 0.37596846 -0.00000038
0.03361064 -0.14210241 0.76962721
-0.39688921 0.39265585 -0.00000097
0.01451099 0.41171962 0.33229578
-0.09961510 0.19891562 0.00000000
-0.36359566 -0.56568927 0.00000000
-0.02879074 -0.30464366 0.00000000
-0.02909512 0.28250253 0.00000000
-0.19391838 -0.71784216 0.00000000
-0.64306003 -0.47905841 -0.00000048
-0.79734391 -0.29395390 -0.00000127
-0.12443694 -0.75564921 0.00000000
-0.41310072 -0.72872132 0.00000000
-0.70764905 -0.14953882 -0.00000134
-0.12311741 0.07365536 0.00000000
-0.08807030 -0.75622451 0.00000000
-0.21747611 -0.30899408 0.00000000
-0.04863490 -0.36740944 0.00000000
-0.05205524 -0.56959367 0.00000000
-0.36904916 -0.54537815 0.00000000
-0.44663617 -0.69795495 0.00000000
0.03441595 -0.29168639 0.78807074
-0.02169970 -0.60275817 0.00000000
-0.24093048 -0.60354918 0.00000000
-0.36157700 -0.70738578 0.00000000
-0.34190765 -0.36898988 0.00000000
-0.17049176 -0.75731081 0.00000000
0.02867893 -0.36874050 0.65671176
-0.54206014 -0.04743883 -0.00000082
-0.36146581 -0.71227646 0.00000000
-0.72689891 -0.43725589 -0.00000091
-0.13704070 0.15745924 0.00000000
-0.14358510 0.40160063 0.00000000
0.02135851 0.06941131 0.48916119
-0.01732296 -0.69038117 0.00000000
-0.47538701 -0.07786562 -0.00000048
-0.13074800 0.50385147 -0.00000003
-0.68091661 0.07442292 -0.00000162
-0.69159698 -0.64385110 -0.00000039
-0.29956603 -0.66511822 0.00000000
0.01808083 0.35494837 0.41402903
-0.13149744 -0.71455038 0.00000000
-0.38513681 -0.19759202 0.00000000
0.02261084 0.02909647 0.51784158
-0.36709753 -0.79450428 0.00000000
-0.51583350 -0.59731627 0.00000000
-0.52143806 0.07168761 -0.00000094
-0.77757388 -0.50326413 -0.00000074
-0.10049175 -0.22916563 0.00000000
-0.04343465 -0.47447529 0.00000000
0.00145875 0.75718796 0.03340613
-0.00996751 0.48740947 0.00000000
-0.62441760 -0.06967722 -0.00000113
0.03339200 0.00824307 0.76462501
-0.16431059 -0.12914483 0.00000000
0.00592246 0.58805746 0.13564213
-0.02242105 0.57007062 0.00000000
-0.02255731 -0.65048879 0.00000000
-0.08336374 0.20769480 0.00000000
-0.55877298 -0.75366533 0.00000000
-0.07429375 -0.72967750 0.00000000
-0.65369499 0.09254127 -0.00000154
-0.69305450 -0.00761620 -0.00000153
-0.29463226 -0.47565728 0.00000000
-0.45255360 -0.75534046 0.00000000
-0.29966566 0.05398407 0.00000000
-0.10385194 0.52435732 0.00000000
-0.65838450 -0.53136247 -0.00000046
0.02479120 0.20430920 0.56768286
-0.47348648 0.04509032 -0.00000069
0.02489461 -0.12023210 0.57005244
-0.65179086 0.00968996 -0.00000138
-0.62749869 -0.76757395 0.00000000
-0.36585736 0.23701717 -0.00000057
-0.50284839 -0.59725559 0.00000000
-0.51931679 -0.55885428 0.00000000
-0.00097247 0.49673402 0.00000000
-0.13270840 0.52567482 -0.00000008
-0.07994341 -0.76732326 0.00000000
-0.63576412 -0.15623663 -0.00000102
0.02246616 0.08242238 0.51450992
-0.02263158 -0.72545844 0.00000000
0.03484203 -0.30023542 0.79782659
-0.31819370 -0.37063709 0.00000000
-0.30513453 0.02944005 0.00000000
-0.56316870 -0.58172536 0.00000000
0.01771208 0.18615451 0.40565223
-0.64282268 -0.11337996 -0.00000113
-0.68657887 -0.12607741 -0.00000129
-0.11294475 0.43927336 0.00000000
-0.39428964 -0.49556726 0.00000000
-0.76805425 -0.79269332 -0.00000002
-0.64403260 -0.42334884 -0.00000059
-0.08968565 0.05918412 0.00000000
0.03277642 -0.25552866 0.75052983
-0.79559374 -0.11605583 -0.00000171
-0.03547516 -0.29426956 0.00000000
-0.03425050 0.41363305 0.00000000
-0.15761903 -0.14860310 0.00000000
-0.51070619 0.24188744 -0.00000119
-0.64892316 -0.08237440 -0.00000121
-0.26328081 -0.09587726 0.00000000
-0.38958004 -0.58007711 0.00000000
-0.30268589 -0.14800380 0.00000000
-0.46160394 -0.61217070 0.00000000
0.01770534 0.28267965 0.40546164
-0.51036787 -0.66173100 0.00000000
0.03291273 -0.22829887 0.75364995
-0.30579546 -0.73683947 0.00000000
-0.01804967 -0.57900977 0.00000000
-0.08838751 -0.22205403 0.00000000
-0.53318584 0.16241053 -0.00000115
-0.57052636 -0.79877591 0.00000000
-0.27073088 -0.38668525 0.00000000
-0.21339960 -0.49511448 0.00000000
-0.22758339 0.29525009 -0.00000008
0.01841971 0.15431222 0.42186159
-0.14898969 -0.58644712 0.00000000
0.02388965 0.15631962 0.54706508
-0.20226195 -0.42121729 0.00000000
-0.07429817 0.47548127 0.00000000
0.03011555 -0.31195864 0.68960482
-0.32977575 0.39638764 -0.00000069
-0.38997620 0.12321801 -0.00000047
-0.08845345 0.64619070 -0.00000011
-0.43507844 -0.41534305 0.00000000
-0.56637239 -0.42718226 -0.00000025
-0.16572967 0.28804931 0.00000000
-0.39240435 -0.47069260 0.00000000
0.03477998 -0.01146840 0.79639769
-0.60006273 -0.10774602 -0.00000096
0.00799718 0.58275872 0.18313342
0.03199158 -0.34560108 0.73256212
