ply
format ascii 1.0
element vertex 1156
property float x
property float y
property float z
end_header
-0.73728991 -0.13587005 -0.00000149
-0.31700820 -0.47709447 0.00000000
-0.55400157 -0.42167124 -0.00000020
-0.32985297 -0.17299961 0.00000000
-0.19900577 0.27449536 0.00000000
-0.29064009 0.48624825 -0.00000069
-0.36347845 -0.00020901 -0.00000014
-0.63173640 -0.54813492 -0.00000031
-0.21782154 -0.16214955 0.00000000
-0.25674194 -0.58242786 0.00000000
-0.52748239 -0.75091320 0.00000000
-0.61556894 -0.10671651 -0.00000102
-0.49975094 -0.24945690 -0.00000028
-0.13610289 0.60258824 -0.00000023
-0.27580503 0.01320358 0.00000000
-0.25454909 -0.60548872 0.00000000
-0.77271944 -0.58533847 -0.00000054
-0.33931872 0.40527657 -0.00000075
-0.07985800 0.65754241 -0.00000009
-0.04275687 0.13628475 0.00000000
-0.24319588 -0.34050393 0.00000000
-0.78366309 -0.57878971 -0.00000055
-0.39501104 -0.18742754 0.00000000
-0.40079242 0.35828274 -0.00000093
-0.62002766 0.14272337 -0.00000148
-0.29145265 -0.15448782 0.00000000
-0.53723109 -0.19733796 -0.00000053
-0.42772010 0.03808953 -0.00000048
-0.68488562 -0.51187402 -0.00000060
-0.66302836 -0.62562400 -0.00000031
-0.20283134 -0.27987939 0.00000000
-0.16148268 -0.50642198 0.00000000
-0.30031261 -0.18478672 0.00000000
-0.28036988 0.40005872 -0.00000049
-0.38344848 -0.26632237 0.00000000
-0.26476619 0.00067837 0.00000000
-0.62369484 -0.79494756 0.00000000
-0.10652225 0.44266081 0.00000000
-0.46610063 -0.68120921 0.00000000
-0.41410440 0.19239043 -0.00000069
-0.22918330 -0.64211684 0.00000000
-0.37130916 -0.78649980 0.00000000
-0.32516974 -0.70590782 0.00000000
-0.36681309 -0.46608204 0.00000000
-0.63246268 -0.21040539 -0.00000091
-0.11541701 -0.37554514 0.00000000
-0.01948094 -0.66412514 0.00000000
-0.18197998 0.24234366 0.00000000
-0.39558285 -0.40645802 0.00000000
-0.01905111 0.16131426 0.00000000
-0.02741507 0.46979630 0.00000000
-0.17983468 -0.46460256 0.00000000
-0.54493248 -0.70118260 0.00000000
-0.08063290 0.70006198 -0.00000017
-0.29447821 -0.17725335 0.00000000
-0.77206790 -0.78758442 -0.00000003
-0.43152782 -0.50937653 0.00000000
-0.32077375 0.29115969 -0.00000047
-0.02349784 0.71746016 0.00000000
-0.38786614 -0.03143994 -0.00000019
-0.48949391 0.12172003 -0.00000089
-0.04083629 -0.58060998 0.00000000
-0.32964206 -0.71999317 0.00000000
-0.26171395 -0.43574154 0.00000000
-0.51675320 -0.68655026 0.00000000
-0.49769855 -0.38004258 -0.00000004
-0.30799571 0.42151150 -0.00000065
-0.02331633 0.17618157 0.00000000
-0.50465733 -0.45381358 0.00000000
-0.54508954 0.10995605 -0.00000111
-0.16733991 0.41974145 -0.00000004
-0.64680076 -0.67462265 -0.00000015
-0.77599370 -0.48959461 -0.00000078
-0.73643243 -0.39259988 -0.00000102
-0.25922582 0.15984276 0.00000000
-0.51817763 -0.16797861 -0.00000050
-0.50701451 -0.20496272 -0.00000039
-0.42941639 -0.47677389 0.00000000
-0.52144039 0.04453500 -0.00000089
-0.30868906 -0.36171287 0.00000000
-0.51545554 -0.60724956 0.00000000
-0.21908431 -0.02641451 0.00000000
-0.05405257 0.42192093 0.00000000
-0.09267667 -0.13866013 0.00000000
-0.26235175 0.10949220 0.00000000
-0.58985960 -0.08221172 -0.00000096
-0.62697321 -0.37095308 -0.00000061
-0.06005523 -0.79267836 0.00000000
-0.12304372 0.09412953 0.00000000
-0.29730237 0.10720395 -0.00000004
-0.44542518 0.19549729 -0.00000083
-0.50294471 -0.34284779 -0.00000013
-0.37651449 -0.02484739 -0.00000015
-0.10942451 -0.67111874 0.00000000
-0.26425225 -0.13284791 0.00000000
-0.71848470 -0.57789934 -0.00000056
-0.23512669 -0.47550845 0.00000000
-0.46388161 0.22023977 -0.00000095
-0.01258800 -0.69756031 0.00000000
-0.36907369 -0.40455896 0.00000000
-0.09330477 -0.38915333 0.00000000
-0.36749116 0.27157718 -0.00000063
-0.75583076 -0.36290824 -0.00000109
-0.42332771 0.21913397 -0.00000078
-0.78268635 -0.68382186 -0.00000029
-0.50912577 -0.55081016 0.00000000
-0.25589022 0.10465961 0.00000000
-0.66714919 -0.78634679 -0.00000003
-0.44419941 -0.65405065 0.00000000
-0.40517834 0.04565109 -0.00000040
-0.01016445 -0.13315196 0.00000000
-0.16958433 0.03005831 0.00000000
-0.59517008 -0.20212238 -0.00000077
-0.54313803 -0.67040420 0.00000000
-0.13873176 -0.75974143 0.00000000
-0.53779793 -0.43792450 -0.00000011
-0.01215279 0.47213459 0.00000000
-0.52798617 -0.15102579 -0.00000057
-0.09005453 -0.37421954 0.00000000
-0.40230492 0.25643140 -0.00000076
-0.23561113 -0.02785393 0.00000000
-0.37863716 0.25052363 -0.00000064
-0.44296536 -0.13972414 -0.00000023
-0.76074928 -0.15352918 -0.00000156
-0.74683005 -0.45306024 -0.00000087
-0.66493428 -0.62386680 -0.00000032
-0.25346777 -0.01996780 0.00000000
-0.37041071 0.03939861 -0.00000024
-0.39937383 -0.02271644 -0.00000025
-0.52612484 0.13816682 -0.00000108
-0.35413253 0.22626948 -0.00000050
-0.05673857 -0.39725891 0.00000000
-0.03024602 -0.56033546 0.00000000
-0.30725297 -0.51518220 0.00000000
-0.21401082 0.27104676 0.00000000
-0.44494414 -0.60628831 0.00000000
-0.22428738 -0.42379123 0.00000000
-0.71026289 -0.03196554 -0.00000156
-0.14725269 -0.05194611 0.00000000
-0.49054840 0.14020237 -0.00000093
-0.20405293 -0.45589870 0.00000000
-0.70545214 -0.19742456 -0.00000125
-0.16444720 -0.46146774 0.00000000
-0.48949528 -0.67172146 0.00000000
-0.65746230 0.03825114 -0.00000146
-0.36378318 -0.04621763 -0.00000006
-0.22379701 0.31854856 -0.00000010
-0.74226683 -0.07525746 -0.00000162
-0.25164399 -0.29362118 0.00000000
-0.64235115 -0.06501156 -0.00000121
-0.27670515 0.08997174 0.00000000
-0.73804319 -0.23818561 -0.00000131
-0.79755586 -0.67589694 -0.00000031
-0.50900203 0.10723168 -0.00000095
-0.37806752 -0.25792649 0.00000000
-0.53020996 -0.08923535 -0.00000069
-0.58007312 -0.01874555 -0.00000103
-0.48054710 -0.32534355 -0.00000006
-0.58249205 -0.02654295 -0.00000102
-0.17292041 0.42785984 -0.00000008
-0.02392359 0.31891373 0.00000000
-0.61621749 -0.52880192 -0.00000028
-0.30529973 -0.09221355 0.00000000
-0.66112608 -0.25271925 -0.00000096
-0.60581458 -0.63624960 -0.00000005
-0.57307911 0.04178693 -0.00000111
-0.26591432 0.10493795 0.00000000
-0.04468615 -0.03245837 0.00000000
-0.48059225 0.20636936 -0.00000100
-0.36957279 -0.53844893 0.00000000
-0.04886045 -0.46821183 0.00000000
-0.40387589 -0.64970136 0.00000000
-0.43285668 -0.13753496 -0.00000019
-0.49146664 -0.75354183 0.00000000
-0.05286409 0.02138638 0.00000000
-0.10529553 -0.76025647 0.00000000
-0.26840818 0.07224259 0.00000000
-0.74559218 -0.53456616 -0.00000066
-0.17098583 -0.42342940 0.00000000
-0.42511496 0.22360851 -0.00000080
-0.74347502 -0.22860304 -0.00000135
-0.51438200 -0.77714735 0.00000000
-0.51588726 0.15861195 -0.00000107
-0.03789680 -0.30672890 0.00000000
-0.10935795 -0.09500856 0.00000000
-0.04276526 -0.33130246 0.00000000
-0.33505297 -0.59238589 0.00000000
-0.16677193 -0.69677800 0.00000000
-0.61213315 -0.07474282 -0.00000107
-0.15432404 -0.01642113 0.00000000
-0.08402874 0.05597656 0.00000000
-0.77689159 -0.60693723 -0.00000048
-0.55658203 -0.68972003 0.00000000
-0.16925982 0.43030560 -0.00000007
-0.57048708 -0.09345863 -0.00000086
-0.03311484 -0.38787234 0.00000000
-0.14736694 -0.03002875 0.00000000
-0.26486531 -0.39586493 0.00000000
-0.17511883 0.52355886 -0.00000026
-0.04319318 -0.16845474 0.00000000
-0.16695589 0.24583445 0.00000000
-0.22849739 0.52107894 -0.00000048
-0.21688695 0.38525006 -0.00000019
-0.27543074 0.38040704 -0.00000043
-0.71848017 -0.26451808 -0.00000118
-0.21231332 0.48629287 -0.00000035
-0.56040353 0.03414080 -0.00000104
-0.29577589 -0.66481817 0.00000000
-0.24394520 -0.04338089 0.00000000
-0.46051621 -0.13304830 -0.00000032
-0.66499311 -0.32959360 -0.00000084
-0.78126019 -0.35352102 -0.00000112
-0.34074235 -0.41677970 0.00000000
-0.18830276 -0.50709617 0.00000000
-0.22711152 -0.15613163 0.00000000
-0.55742389 -0.46536314 -0.00000014
-0.16672891 -0.53549558 0.00000000
-0.15753625 -0.45505303 0.00000000
-0.42601791 0.00980816 -0.00000042
-0.24240817 -0.07363148 0.00000000
-0.47070748 -0.12728149 -0.00000037
-0.33295512 -0.41453025 0.00000000
-0.32327196 0.08999943 -0.00000012
-0.07671581 0.68926936 -0.00000013
-0.19847807 -0.43749699 0.00000000
-0.27298737 -0.06694186 0.00000000
-0.02873806 -0.38251457 0.00000000
-0.39329904 -0.06438280 -0.00000015
-0.78913403 0.00790535 -0.00000192
-0.59497035 -0.31555718 -0.00000057
-0.36401969 -0.24426372 0.00000000
-0.02587158 -0.46472648 0.00000000
-0.21491432 -0.44764975 0.00000000
-0.55049324 -0.61501217 0.00000000
-0.07647509 0.36915508 0.00000000
-0.01462545 0.51130593 0.00000000
-0.00428376 -0.76219994 0.00000000
-0.47740471 -0.78624868 0.00000000
-0.45620048 -0.41000831 0.00000000
-0.22253211 0.14561303 0.00000000
-0.43912110 -0.62501955 0.00000000
-0.14237686 -0.04832036 0.00000000
-0.49188107 -0.32306910 -0.00000011
-0.47254184 0.14576507 -0.00000086
-0.20735881 -0.27939162 0.00000000
-0.76244622 -0.13620973 -0.00000160
-0.38440171 0.14538684 -0.00000048
-0.36223388 -0.68032366 0.00000000
-0.01476874 0.09610191 0.00000000
-0.10266408 0.10188169 0.00000000
-0.15222692 0.34910819 0.00000000
-0.26348677 -0.34319925 0.00000000
-0.34847829 -0.73782098 0.00000000
-0.56543976 -0.12853077 -0.00000077
-0.31692189 0.24788567 -0.00000038
-0.12449906 0.37314805 0.00000000
-0.09382294 0.57554573 -0.00000000
-0.22669964 -0.00362862 0.00000000
-0.00120553 -0.25301388 0.00000000
-0.71720362 -0.03318663 -0.00000159
-0.03569079 -0.64561141 0.00000000
-0.33655229 -0.16875678 0.00000000
-0.34060448 -0.41916758 0.00000000
-0.52129650 -0.14702857 -0.00000055
-0.23371577 -0.16979031 0.00000000
-0.28973636 -0.62227744 0.00000000
-0.62908566 -0.05244124 -0.00000118
-0.59635121 -0.09282212 -0.00000097
-0.19202043 0.23737139 0.00000000
-0.13724364 0.44283834 0.00000000
-0.13943595 -0.38433698 0.00000000
-0.75025886 -0.55665922 -0.00000061
-0.35277727 -0.63889641 0.00000000
-0.06202624 0.40151179 0.00000000
-0.01948496 -0.39730850 0.00000000
-0.19545899 -0.13219336 0.00000000
-0.30206916 0.11475381 -0.00000008
-0.53109348 -0.20849738 -0.00000048
-0.52011031 -0.18130720 -0.00000048
-0.08952683 0.38475186 0.00000000
-0.43738201 -0.67476153 0.00000000
-0.39314443 -0.00449095 -0.00000026
-0.00489379 -0.62396997 0.00000000
-0.18698481 0.16950753 0.00000000
-0.06399979 0.25571936 0.00000000
-0.41952702 -0.52507365 0.00000000
-0.28229234 -0.30550075 0.00000000
-0.11675150 -0.78427857 0.00000000
-0.15061307 0.15279971 0.00000000
-0.05418563 0.42394885 0.00000000
-0.18350047 -0.27400103 0.00000000
-0.49874777 -0.33064693 -0.00000013
-0.36298454 0.43669206 -0.00000091
-0.11137987 0.51902050 0.00000000
-0.02646768 0.18519740 0.00000000
-0.11233784 0.20086862 0.00000000
-0.26852530 0.48044157 -0.00000058
-0.44801924 -0.59329009 0.00000000
-0.10288080 -0.56577092 0.00000000
-0.70054018 -0.02742251 -0.00000153
-0.03985394 0.67643702 0.00000000
-0.15553211 -0.27127200 0.00000000
-0.46811152 -0.30032083 -0.00000005
-0.38027820 0.18887921 -0.00000054
-0.54906124 -0.20055252 -0.00000057
-0.33501422 0.24333926 -0.00000045
-0.20439108 -0.60926098 0.00000000
-0.18829893 -0.20677949 0.00000000
-0.33046737 0.40423846 -0.00000071
-0.76723659 -0.23861855 -0.00000140
-0.44445011 -0.12809397 -0.00000026
-0.25802639 0.00339881 0.00000000
-0.22753818 -0.33849037 0.00000000
-0.46531761 -0.11124166 -0.00000038
-0.00616683 0.74577731 0.00000000
-0.43818709 -0.30151010 0.00000000
-0.39810970 0.23737168 -0.00000070
-0.34415144 0.41051283 -0.00000078
-0.60713959 -0.28204158 -0.00000068
-0.21783386 -0.00959065 0.00000000
-0.22564588 0.10597697 0.00000000
-0.08857094 0.08655909 0.00000000
-0.11966284 -0.50175172 0.00000000
-0.66786534 -0.06000545 -0.00000133
-0.08714504 0.49353042 0.00000000
-0.56974018 -0.23148482 -0.00000061
-0.24854244 0.37139314 -0.00000030
-0.13170850 -0.03434659 0.00000000
-0.34507862 -0.27891499 0.00000000
-0.79868329 -0.60897845 -0.00000048
-0.31081882 -0.07889807 0.00000000
-0.19882041 -0.33632958 0.00000000
-0.15883148 0.35453027 0.00000000
-0.09730977 0.33832422 0.00000000
-0.59515524 -0.23192506 -0.00000072
-0.02873717 0.74613422 -0.00000003
-0.22870108 -0.18264210 0.00000000
-0.21003670 -0.36120182 0.00000000
-0.20257461 -0.43974555 0.00000000
-0.74750370 -0.62712818 -0.00000043
-0.14055993 0.10458316 0.00000000
-0.37278563 -0.65916634 0.00000000
-0.40377077 0.04318082 -0.00000039
-0.69565529 -0.77961457 -0.00000005
-0.01900087 0.69909811 0.00000000
-0.51764560 0.26254323 -0.00000126
-0.54536366 -0.35181120 -0.00000029
-0.34039274 -0.55619466 0.00000000
-0.02800755 -0.27592051 0.00000000
-0.66601527 -0.77210814 -0.00000006
-0.16327430 -0.62685436 0.00000000
-0.14608341 -0.16062193 0.00000000
-0.42490342 -0.53969938 0.00000000
-0.24929991 -0.59935331 0.00000000
-0.31099591 -0.71802479 0.00000000
-0.34094706 0.18070598 -0.00000036
-0.54950207 -0.67895061 0.00000000
-0.25992861 -0.55857921 0.00000000
-0.27345061 0.32074347 -0.00000032
-0.15226290 -0.25292367 0.00000000
-0.14984193 -0.23462626 0.00000000
-0.36146131 -0.26424176 0.00000000
-0.11471745 0.58449233 -0.00000011
-0.16915122 0.48788965 -0.00000017
-0.12634924 -0.73876798 0.00000000
-0.08937746 -0.27766615 0.00000000
-0.31250596 -0.24949819 0.00000000
-0.29411083 0.50061667 -0.00000073
-0.69518334 -0.44925705 -0.00000076
-0.57663929 -0.28145415 -0.00000055
-0.23171473 -0.23304868 0.00000000
-0.75386870 -0.42948633 -0.00000093
-0.09068098 0.19871128 0.00000000
-0.09296221 -0.30176693 0.00000000
-0.66742367 -0.02133231 -0.00000140
-0.23562589 0.10461604 0.00000000
-0.43549797 -0.79095274 0.00000000
-0.74711442 -0.77535462 -0.00000006
-0.55229193 0.00908629 -0.00000096
-0.58658046 0.07071382 -0.00000121
-0.27712068 0.29314941 -0.00000029
-0.78930527 -0.30632597 -0.00000123
-0.50563419 -0.00958249 -0.00000073
-0.34036615 -0.46933490 0.00000000
-0.54102910 -0.04095579 -0.00000082
-0.10396769 0.04267722 0.00000000
-0.23828977 0.48938602 -0.00000047
-0.20014285 0.29907069 0.00000000
-0.15454862 0.29495180 0.00000000
-0.79960668 -0.33836085 -0.00000115
-0.45588291 -0.33109513 0.00000000
-0.28327912 -0.74805176 0.00000000
-0.09644948 -0.05205891 0.00000000
-0.39225066 -0.27192512 0.00000000
-0.26607019 -0.73578131 0.00000000
-0.25801337 -0.60522568 0.00000000
-0.31738225 -0.37372568 0.00000000
-0.02074462 -0.48317587 0.00000000
-0.65173715 -0.69545346 -0.00000014
-0.50334507 -0.10459339 -0.00000055
-0.04957435 0.10355038 0.00000000
-0.58879310 0.19026713 -0.00000143
-0.76361644 -0.03772160 -0.00000178
-0.17887311 -0.48313454 0.00000000
-0.27711073 0.45034546 -0.00000056
-0.31381869 -0.59201378 0.00000000
-0.65401262 -0.38278353 -0.00000070
-0.55815691 -0.04957720 -0.00000088
-0.62229222 -0.26701716 -0.00000077
-0.63008541 -0.09487446 -0.00000111
-0.46230838 -0.10670251 -0.00000037
-0.08724565 -0.71538609 0.00000000
-0.22169594 -0.24405274 0.00000000
-0.62700826 -0.71622664 0.00000000
-0.56800997 -0.45655277 -0.00000020
-0.48627797 -0.13314891 -0.00000043
-0.35147634 0.08271518 -0.00000023
-0.02810366 -0.63021922 0.00000000
-0.28276613 0.48569533 -0.00000065
-0.55892217 -0.70643312 0.00000000
-0.17325853 -0.36209244 0.00000000
-0.34079996 0.34422395 -0.00000065
-0.37892240 0.13298486 -0.00000044
-0.06428113 -0.38461399 0.00000000
-0.61093998 -0.36549243 -0.00000055
-0.16391949 -0.26948002 0.00000000
-0.58141869 -0.10549984 -0.00000088
-0.62530732 -0.51757532 -0.00000034
-0.76098591 -0.56873375 -0.00000058
-0.08737487 -0.55722111 0.00000000
-0.46534190 -0.09576217 -0.00000040
-0.74309975 -0.47437987 -0.00000081
-0.78991258 -0.10318031 -0.00000174
-0.07392465 -0.22541451 0.00000000
-0.77799642 -0.12730400 -0.00000168
-0.43429160 0.20851901 -0.00000081
-0.03339183 0.49857539 0.00000000
-0.51882160 -0.08302716 -0.00000065
-0.27566594 0.05664760 0.00000000
-0.62514329 -0.44137493 -0.00000047
-0.36669520 -0.03284799 -0.00000009
-0.51883399 -0.43131694 -0.00000004
-0.12370199 -0.31509829 0.00000000
-0.17341284 0.20392847 0.00000000
-0.08968637 0.69747394 -0.00000020
-0.48710632 -0.15728176 -0.00000039
-0.70835310 -0.76206505 -0.00000009
-0.52997673 -0.21628828 -0.00000047
-0.25002450 -0.57528251 0.00000000
-0.63640261 0.06063398 -0.00000141
-0.44074449 -0.04877216 -0.00000038
-0.16183414 -0.08773920 0.00000000
-0.41889277 0.36908355 -0.00000103
-0.26324207 0.31168902 -0.00000026
-0.14421257 0.05641287 0.00000000
-0.20608450 0.51429641 -0.00000037
-0.42768216 -0.55400491 0.00000000
-0.74152315 -0.09617923 -0.00000158
-0.38502249 -0.26363826 0.00000000
-0.28788075 0.01862025 0.00000000
-0.18901543 0.37214288 -0.00000005
-0.09590209 0.20270470 0.00000000
-0.64425975 -0.58573788 -0.00000030
-0.14746213 -0.13345306 0.00000000
-0.03603242 -0.44052902 0.00000000
-0.11604619 -0.32338971 0.00000000
-0.31486276 -0.56244707 0.00000000
-0.28241679 0.47765338 -0.00000064
-0.25405440 0.37295797 -0.00000033
-0.50856584 0.04731333 -0.00000084
-0.22453293 0.39509881 -0.00000024
-0.38073024 0.08193026 -0.00000036
-0.27683124 -0.77446246 0.00000000
-0.37014329 0.05215180 -0.00000026
-0.52893639 0.02667833 -0.00000089
-0.70437050 -0.52693796 -0.00000066
-0.02552796 -0.02320332 0.00000000
-0.28914678 -0.15352564 0.00000000
-0.13710231 -0.24399355 0.00000000
-0.54269099 -0.15389261 -0.00000063
-0.75161558 -0.77758145 -0.00000006
-0.16760430 -0.71825635 0.00000000
-0.66147137 -0.04928566 -0.00000132
-0.17960152 -0.51639253 0.00000000
-0.43075421 0.08848007 -0.00000058
-0.20986107 -0.03146902 0.00000000
-0.36929259 -0.01437326 -0.00000014
-0.08559608 0.14903526 0.00000000
-0.01514066 -0.03907851 0.00000000
-0.34312204 -0.33956283 0.00000000
-0.08841873 0.24968037 0.00000000
-0.25852495 0.42179206 -0.00000043
-0.17803107 0.03110828 0.00000000
-0.32788062 -0.23018724 0.00000000
-0.09051965 0.65305239 -0.00000013
-0.39820680 -0.64789540 0.00000000
-0.17381799 -0.13287517 0.00000000
-0.34636682 -0.67696834 0.00000000
-0.23277614 -0.26772007 0.00000000
-0.63035917 0.05432120 -0.00000137
-0.11092670 0.46049643 0.00000000
-0.51177406 0.25025836 -0.00000121
-0.19513893 0.04783882 0.00000000
-0.33745939 0.27455571 -0.00000051
-0.65919697 -0.64168322 -0.00000026
-0.01794921 -0.17430170 0.00000000
-0.79919314 -0.22315092 -0.00000144
-0.28597206 0.02227393 0.00000000
-0.00468598 0.77038074 0.00000000
-0.47556856 -0.30282262 -0.00000008
-0.10039795 0.12544280 0.00000000
-0.66727859 0.07023289 -0.00000156
-0.21472111 -0.00062676 0.00000000
-0.25070032 0.38430393 -0.00000034
-0.45171195 -0.38005328 0.00000000
-0.53040928 -0.62533134 0.00000000
-0.27688655 -0.35661221 0.00000000
-0.05085696 0.36948138 0.00000000
-0.12645142 -0.35741380 0.00000000
-0.41595405 -0.33356658 0.00000000
-0.64009917 -0.59387112 -0.00000027
-0.24310853 -0.65505970 0.00000000
-0.31609759 0.30653688 -0.00000048
-0.17286099 0.29302353 0.00000000
-0.53131169 -0.50478733 0.00000000
-0.73884904 -0.13688189 -0.00000150
-0.51753223 0.05622360 -0.00000089
-0.10221100 -0.33348167 0.00000000
-0.35578084 -0.27823097 0.00000000
-0.14999098 0.12080888 0.00000000
-0.13127483 -0.61773247 0.00000000
-0.48768589 0.26389432 -0.00000113
-0.75067794 -0.48186654 -0.00000080
-0.69214201 -0.60160255 -0.00000048
-0.66040683 0.05751556 -0.00000151
-0.15478772 0.00514742 0.00000000
-0.42938405 -0.53503847 0.00000000
-0.33572391 0.01655384 -0.00000005
-0.36691591 -0.45824900 0.00000000
-0.48972976 -0.20432121 -0.00000031
-0.67129254 -0.19389661 -0.00000111
-0.68659180 -0.55842835 -0.00000053
-0.10742049 -0.51436543 0.00000000
-0.74363416 -0.35372257 -0.00000112
-0.19386169 0.02964856 0.00000000
-0.42117682 -0.77610624 0.00000000
-0.33016923 -0.34687170 0.00000000
-0.03922002 0.04300582 0.00000000
-0.71680462 -0.42716733 -0.00000089
-0.42928180 -0.11940835 -0.00000021
-0.12447431 -0.61068112 0.00000000
-0.62443602 0.07423082 -0.00000138
-0.51153809 0.12192431 -0.00000098
-0.59203607 -0.61270952 -0.00000003
-0.22347295 0.32215390 -0.00000011
-0.19026449 0.57663989 -0.00000042
-0.14179598 -0.73342305 0.00000000
-0.21244472 -0.21992835 0.00000000
-0.61390430 -0.75397032 0.00000000
-0.38356048 0.38114291 -0.00000090
-0.05935259 -0.78324085 0.00000000
-0.00442550 -0.50511050 0.00000000
-0.19106697 -0.59741741 0.00000000
-0.00421775 -0.69741470 0.00000000
-0.29354796 -0.45710573 0.00000000
-0.29027781 -0.41650939 0.00000000
-0.38866806 0.26077992 -0.00000071
-0.51412344 -0.23731554 -0.00000036
-0.59444672 0.14719763 -0.00000138
-0.10753714 0.62588304 -0.00000015
-0.54538971 -0.78006756 0.00000000
-0.63527578 -0.26215833 -0.00000083
-0.10942084 -0.47170827 0.00000000
-0.51786119 -0.59526861 0.00000000
-0.55659002 -0.08478075 -0.00000081
-0.25397372 0.09673825 0.00000000
-0.05588609 0.24349031 0.00000000
-0.03042134 0.57890713 0.00000000
-0.16785458 0.29703242 0.00000000
-0.05742141 -0.19820964 0.00000000
-0.17595173 -0.41938922 0.00000000
-0.11041166 0.24740168 0.00000000
-0.27777618 -0.58181673 0.00000000
-0.74892640 -0.31901127 -0.00000120
-0.02239723 -0.12866578 0.00000000
-0.72292739 0.06576575 -0.00000179
-0.12894949 0.22469395 0.00000000
-0.53078532 0.26714411 -0.00000132
-0.39509475 -0.55865878 0.00000000
-0.42875257 -0.01920158 -0.00000038
-0.01710907 0.56198066 0.00000000
-0.01789607 -0.58559555 0.00000000
-0.04561446 -0.57870299 0.00000000
-0.75619394 -0.59073979 -0.00000052
-0.31565070 -0.34258327 0.00000000
-0.02628225 0.08403068 0.00000000
-0.27011925 -0.32391849 0.00000000
-0.05985958 -0.07104627 0.00000000
-0.51164424 -0.55434018 0.00000000
-0.00391337 0.54623348 0.00000000
-0.19196956 0.29021317 0.00000000
-0.73838949 -0.18993393 -0.00000140
-0.13029371 -0.18468305 0.00000000
-0.62729245 -0.46623021 -0.00000044
-0.65718293 -0.39896926 -0.00000069
-0.40776929 -0.67386532 0.00000000
-0.23053317 0.06984052 0.00000000
-0.34995872 -0.12354155 0.00000000
-0.24447906 0.37259516 -0.00000029
-0.20983699 -0.54519081 0.00000000
-0.12538260 -0.52302116 0.00000000
-0.10962246 0.61832100 -0.00000015
-0.67113262 -0.16798778 -0.00000115
-0.19995393 -0.32292569 0.00000000
-0.13517521 -0.26495475 0.00000000
-0.14459661 0.15565038 0.00000000
-0.10686464 0.47751388 0.00000000
-0.61840713 -0.53723425 -0.00000028
-0.10518701 -0.53290778 0.00000000
-0.29198441 0.30652216 -0.00000037
-0.78656632 -0.53756779 -0.00000066
-0.01907402 -0.20474616 0.00000000
-0.28354329 -0.57019454 0.00000000
-0.24178340 -0.67750674 0.00000000
-0.13320155 -0.21952225 0.00000000
-0.15218142 -0.22107783 0.00000000
-0.51445532 -0.46785048 0.00000000
-0.42121124 0.36320880 -0.00000103
-0.05963717 -0.32077488 0.00000000
-0.26391613 -0.32484978 0.00000000
-0.41212851 -0.34720939 0.00000000
-0.25676087 -0.33338693 0.00000000
-0.56888199 -0.06645770 -0.00000090
-0.13599396 0.41041586 0.00000000
-0.25693381 0.29745778 -0.00000021
-0.30724823 0.34541523 -0.00000051
-0.56736410 -0.78790128 0.00000000
-0.72081035 -0.31112230 -0.00000111
-0.30753195 -0.22511707 0.00000000
-0.10852855 0.26811391 0.00000000
-0.15121162 -0.09405733 0.00000000
-0.55602294 -0.47230116 -0.00000012
-0.10547788 0.03272606 0.00000000
-0.21068482 0.49247184 -0.00000036
-0.23803858 -0.73623127 0.00000000
-0.43668222 -0.72609240 0.00000000
-0.65895003 -0.27227122 -0.00000092
-0.02368632 -0.37754765 0.00000000
-0.74281150 -0.39220315 -0.00000102
-0.21612921 0.43903315 -0.00000028
-0.14903310 -0.40173748 0.00000000
-0.22997534 -0.06009446 0.00000000
-0.15597677 -0.69876468 0.00000000
-0.02885156 -0.31153673 0.00000000
-0.23169371 0.48578155 -0.00000043
-0.36526552 -0.12536559 0.00000000
-0.28536215 0.47640923 -0.00000065
-0.27285245 -0.29546118 0.00000000
-0.52300024 -0.66324264 0.00000000
-0.02536474 0.60674685 0.00000000
-0.10846038 -0.39419180 0.00000000
-0.44890487 -0.21287227 -0.00000013
-0.49794653 -0.71703154 0.00000000
-0.10188048 -0.32960489 0.00000000
-0.24029741 0.15324365 0.00000000
-0.51117593 0.01811229 -0.00000080
-0.49342334 -0.76164758 0.00000000
-0.01044115 0.58891970 0.00000000
-0.07574334 -0.29542595 0.00000000
-0.20525680 -0.01331718 0.00000000
-0.28711322 -0.11366572 0.00000000
-0.65440893 -0.02968112 -0.00000133
-0.01566842 0.32714510 0.00000000
-0.43445843 0.04214758 -0.00000051
-0.53197229 -0.61899710 0.00000000
-0.44288170 0.16725270 -0.00000077
-0.45855823 -0.26386005 -0.00000008
-0.01622514 -0.54258394 0.00000000
-0.55351728 -0.31483689 -0.00000039
-0.04207075 -0.10313687 0.00000000
-0.54839075 -0.69700670 0.00000000
-0.79429841 -0.24870656 -0.00000138
-0.04650013 0.71476197 -0.00000005
-0.47249880 -0.00885023 -0.00000059
-0.36813539 0.12482131 -0.00000038
-0.69501203 -0.60916400 -0.00000048
-0.09612277 -0.27705154 0.00000000
-0.79595113 -0.77543569 -0.00000006
-0.10886213 0.30564764 0.00000000
-0.77557403 -0.17719793 -0.00000156
-0.10831799 0.47972953 0.00000000
-0.11923891 0.30439135 0.00000000
-0.27268824 -0.73373085 0.00000000
-0.05444644 -0.14192340 0.00000000
-0.73897034 -0.17256410 -0.00000143
-0.33901849 0.30464828 -0.00000057
-0.16350265 0.35388586 0.00000000
-0.17605802 0.11245121 0.00000000
-0.45024884 0.07278466 -0.00000064
-0.30283493 0.14654259 -0.00000014
-0.12374439 -0.72163713 0.00000000
-0.42563727 0.17770185 -0.00000072
-0.62208366 -0.15042050 -0.00000097
-0.59712756 -0.54203844 -0.00000018
-0.52149642 -0.54025352 0.00000000
-0.18780106 -0.72514147 0.00000000
-0.39473519 -0.09951964 -0.00000009
-0.23551685 -0.24010703 0.00000000
-0.18937548 -0.48028481 0.00000000
-0.62419599 -0.58558637 -0.00000021
-0.63088679 0.16501044 -0.00000151
-0.59837216 -0.69872409 0.00000000
-0.79893231 -0.14303768 -0.00000164
-0.00538970 -0.27864084 0.00000000
-0.13173033 -0.08143896 0.00000000
-0.20058180 0.34132642 -0.00000005
-0.15491727 0.64447886 -0.00000039
-0.68080372 -0.24830166 -0.00000105
-0.07472375 -0.07986274 0.00000000
-0.62474030 -0.34500614 -0.00000064
-0.13891573 0.05591384 0.00000000
-0.27425230 -0.52184653 0.00000000
-0.36852086 -0.66379297 0.00000000
-0.51615524 -0.70742744 0.00000000
-0.27764201 -0.24793862 0.00000000
-0.13809991 -0.44076967 0.00000000
-0.67596179 -0.78962821 -0.00000003
-0.14453644 -0.74726510 0.00000000
-0.42922604 -0.26292154 0.00000000
-0.30369797 0.06842740 -0.00000000
-0.04054027 -0.67254317 0.00000000
-0.63021505 -0.20539930 -0.00000091
-0.70137721 -0.68075103 -0.00000030
-0.22147323 -0.50324333 0.00000000
-0.01458613 -0.46616507 0.00000000
-0.64925867 -0.49954095 -0.00000047
-0.31953070 -0.23214653 0.00000000
-0.13256855 -0.08259480 0.00000000
-0.42467561 -0.72735345 0.00000000
-0.60363388 -0.44773000 -0.00000037
-0.36443764 0.04887918 -0.00000023
-0.41072190 -0.30233032 0.00000000
-0.35595265 -0.31166631 0.00000000
-0.34035984 -0.71863365 0.00000000
-0.34639493 0.01228415 -0.00000009
-0.33378348 -0.13993645 0.00000000
-0.38305405 -0.03991114 -0.00000015
-0.07496450 -0.77313817 0.00000000
-0.53453922 -0.51044804 0.00000000
-0.72730142 -0.22434975 -0.00000129
-0.19580473 -0.04815136 0.00000000
-0.48797759 -0.14288777 -0.00000042
-0.42319542 0.36826438 -0.00000104
-0.14073730 0.21516445 0.00000000
-0.48219457 -0.37864414 0.00000000
-0.37476891 -0.48383284 0.00000000
-0.40490454 -0.66231084 0.00000000
-0.17464504 -0.37288862 0.00000000
-0.07852998 0.38546604 0.00000000
-0.17536710 -0.27914733 0.00000000
-0.32315892 -0.07314290 0.00000000
-0.07337432 0.47132581 0.00000000
-0.04372021 -0.62833518 0.00000000
-0.65054065 -0.75051934 -0.00000004
-0.37023607 0.05084670 -0.00000026
-0.44171318 -0.18458445 -0.00000014
-0.48993459 -0.36782163 -0.00000003
-0.12232616 0.57199705 -0.00000012
-0.13062432 0.33763090 0.00000000
-0.16642679 -0.44643289 0.00000000
-0.26439276 -0.02517628 0.00000000
-0.20596746 -0.76014239 0.00000000
-0.70025939 -0.24631809 -0.00000114
-0.36493695 -0.52886635 0.00000000
-0.78608376 -0.49125746 -0.00000077
-0.67615527 -0.41326195 -0.00000074
-0.12806693 0.26336765 0.00000000
-0.51585287 0.20871848 -0.00000116
-0.43654332 -0.72274113 0.00000000
-0.15098459 -0.06439133 0.00000000
-0.40928552 -0.38704395 0.00000000
-0.22629067 0.32300943 -0.00000012
-0.19472027 -0.13124692 0.00000000
-0.55705196 0.23934992 -0.00000139
-0.01040484 -0.08337647 0.00000000
-0.37879154 -0.04239309 -0.00000013
-0.38123822 0.10005176 -0.00000039
-0.20047586 0.23146755 0.00000000
-0.30300418 -0.36250237 0.00000000
-0.03992298 -0.00752841 0.00000000
-0.18040021 -0.24580021 0.00000000
-0.62038296 -0.55726320 -0.00000025
-0.33880803 0.00034293 -0.00000003
-0.58112580 0.00557414 -0.00000108
-0.04374741 -0.14539704 0.00000000
-0.74425226 -0.10926104 -0.00000157
-0.35964504 -0.57604164 0.00000000
-0.33776060 0.04112834 -0.00000010
-0.39452091 -0.22626574 0.00000000
-0.32782948 -0.63448733 0.00000000
-0.36149976 -0.09200148 0.00000000
-0.36900938 -0.13310300 0.00000000
-0.07054126 0.60971844 0.00000000
-0.31916457 -0.10071943 0.00000000
-0.29640394 -0.31592119 0.00000000
-0.75251496 -0.19243395 -0.00000146
-0.08339071 -0.47210249 0.00000000
-0.57539457 -0.20510505 -0.00000068
-0.43268004 -0.11183887 -0.00000023
-0.23094310 -0.25674790 0.00000000
-0.16260424 0.29922247 0.00000000
-0.23455620 -0.19640829 0.00000000
-0.28193280 -0.78843433 0.00000000
-0.21904783 0.49612904 -0.00000040
-0.09175119 0.22927900 0.00000000
-0.77509743 -0.71540350 -0.00000021
-0.23873378 -0.23222724 0.00000000
-0.28423983 -0.66123933 0.00000000
-0.37750131 -0.69134933 0.00000000
-0.70343608 -0.59229851 -0.00000052
-0.65353638 -0.37304580 -0.00000072
-0.62395257 -0.49339941 -0.00000038
-0.01940168 -0.50452513 0.00000000
-0.11085453 0.68862587 -0.00000027
-0.26825935 0.50731719 -0.00000063
-0.40200356 0.22888108 -0.00000071
-0.49240488 -0.36928725 -0.00000003
-0.69756430 -0.50059748 -0.00000068
-0.62676466 -0.59959215 -0.00000020
-0.42445013 -0.23546755 0.00000000
-0.40313798 -0.77957684 0.00000000
-0.57110554 0.13631546 -0.00000126
-0.53387564 -0.44330478 -0.00000008
-0.75317788 -0.02509470 -0.00000176
-0.00514566 0.57218492 0.00000000
-0.24379994 -0.24937625 0.00000000
-0.15991490 -0.35303491 0.00000000
-0.23089021 0.23418853 0.00000000
-0.31373379 -0.52283126 0.00000000
-0.45290303 -0.27071345 -0.00000004
-0.32473519 -0.30572069 0.00000000
-0.30134934 -0.36205372 0.00000000
-0.48730004 0.27427268 -0.00000115
-0.33231524 0.14984955 -0.00000027
-0.62742013 0.03151107 -0.00000132
-0.39850935 0.29683438 -0.00000081
-0.12939014 0.46936736 0.00000000
-0.24399842 -0.40758955 0.00000000
-0.25051409 0.02487681 0.00000000
-0.39513874 0.39276421 -0.00000097
-0.58682466 -0.02019833 -0.00000105
-0.70499510 -0.62818766 -0.00000043
-0.35557580 -0.48315197 0.00000000
-0.15079994 -0.59965152 0.00000000
-0.01308711 -0.37650457 0.00000000
-0.58449638 -0.47279641 -0.00000024
-0.18810347 0.28249487 0.00000000
-0.06962601 -0.07550392 0.00000000
-0.40368456 0.26742688 -0.00000078
-0.56046849 -0.49180463 -0.00000011
-0.70387203 -0.79462725 -0.00000001
-0.39586887 -0.39298487 0.00000000
-0.69736606 -0.12878598 -0.00000133
-0.64409924 -0.72455591 -0.00000005
-0.72226328 -0.74170673 -0.00000015
-0.27299002 -0.11068994 0.00000000
-0.71222448 -0.65890837 -0.00000035
-0.64849204 -0.22097418 -0.00000096
-0.61496705 -0.53534722 -0.00000026
-0.10932251 -0.28737709 0.00000000
-0.46868068 -0.18310043 -0.00000026
-0.25196153 -0.18621980 0.00000000
-0.23653498 0.03740158 0.00000000
-0.70509863 -0.78050971 -0.00000005
-0.41484773 -0.68780166 0.00000000
-0.25326183 -0.13641673 0.00000000
-0.40978485 -0.46803558 0.00000000
-0.70959127 0.05630676 -0.00000171
-0.36225072 0.28111404 -0.00000063
-0.70385253 -0.11413202 -0.00000139
-0.76327717 -0.64253193 -0.00000039
-0.35518602 0.11230648 -0.00000030
-0.03495771 -0.53356034 0.00000000
-0.24403192 -0.02261930 0.00000000
-0.25605395 0.44252086 -0.00000046
-0.71268064 -0.30919421 -0.00000108
-0.13313176 -0.51672959 0.00000000
-0.05961561 0.22443601 0.00000000
-0.71905923 0.07911196 -0.00000179
-0.46163842 -0.69535488 0.00000000
-0.64391786 -0.54279923 -0.00000037
-0.02887695 -0.42217118 0.00000000
-0.58844775 -0.28270417 -0.00000060
-0.49504346 -0.43496791 0.00000000
-0.42748499 -0.35521001 0.00000000
-0.31103909 -0.23531735 0.00000000
-0.01120059 0.61447740 0.00000000
-0.39071354 0.25335953 -0.00000070
-0.08365193 0.59096575 0.00000000
-0.75200933 -0.12290147 -0.00000158
-0.52277964 -0.33413866 -0.00000023
-0.49406585 -0.10514601 -0.00000051
-0.33406824 -0.77440989 0.00000000
-0.42598423 -0.29060045 0.00000000
-0.78597212 -0.22599415 -0.00000144
-0.62302130 0.03261317 -0.00000130
-0.51132804 -0.13625842 -0.00000053
-0.00770561 -0.78297514 0.00000000
-0.29113051 -0.03207242 0.00000000
-0.54120928 -0.33435011 -0.00000030
-0.69076741 -0.57644790 -0.00000051
-0.65458834 0.00652176 -0.00000139
-0.06250185 -0.51489097 0.00000000
-0.73504633 -0.23381594 -0.00000131
-0.06933763 0.37309095 0.00000000
-0.46459344 -0.42798561 0.00000000
-0.26081899 -0.36316830 0.00000000
-0.14462987 0.34100747 0.00000000
-0.74573565 -0.57232183 -0.00000057
-0.17010079 0.40787020 -0.00000003
-0.48477352 -0.49187532 0.00000000
-0.64325619 -0.57442075 -0.00000032
-0.28311753 -0.39964855 0.00000000
-0.59470564 -0.26720250 -0.00000065
-0.40411317 -0.78775787 0.00000000
-0.15093161 0.14171866 0.00000000
-0.13409872 -0.22753990 0.00000000
-0.17756487 0.28566274 0.00000000
-0.63102537 0.10185731 -0.00000146
-0.76913476 -0.74497485 -0.00000014
-0.54450428 -0.44168347 -0.00000013
-0.62842029 -0.75031602 0.00000000
-0.05845024 0.48587859 0.00000000
-0.17638353 -0.17526923 0.00000000
-0.50728428 -0.10429987 -0.00000057
-0.45457917 -0.51297092 0.00000000
-0.07637341 0.62101841 -0.00000001
-0.34734115 -0.32440987 0.00000000
-0.36365980 -0.40424067 0.00000000
-0.23792364 -0.76845682 0.00000000
-0.07642075 0.44688284 0.00000000
-0.24918009 0.32853937 -0.00000023
-0.79319149 -0.64132786 -0.00000040
-0.67570084 -0.35933676 -0.00000083
-0.69074655 -0.13693655 -0.00000129
-0.06543005 -0.53518534 0.00000000
-0.38992000 -0.17989907 0.00000000
-0.26322010 -0.53301471 0.00000000
-0.28973216 0.35623094 -0.00000045
-0.55555546 -0.22703113 -0.00000056
-0.29148605 0.46644613 -0.00000065
-0.15437996 0.49467021 -0.00000012
-0.19446708 -0.47062004 0.00000000
-0.13114944 0.27049670 0.00000000
-0.34557974 0.45084557 -0.00000080
-0.52561897 0.10110274 -0.00000101
-0.52749532 -0.74117476 0.00000000
-0.57372874 -0.67885506 0.00000000
-0.12676832 -0.63760817 0.00000000
-0.50555128 -0.72297317 0.00000000
-0.30710113 -0.20403595 0.00000000
-0.07199137 0.47096869 0.00000000
-0.20547237 -0.02332397 0.00000000
-0.41864744 0.23191755 -0.00000078
-0.59364754 0.01734618 -0.00000115
-0.22149387 -0.04249605 0.00000000
-0.45861584 -0.43868110 0.00000000
-0.41211423 0.38586795 -0.00000103
-0.33757827 -0.12627828 0.00000000
-0.38135147 -0.56375486 0.00000000
-0.78333050 -0.69161457 -0.00000027
-0.55090970 -0.12079395 -0.00000072
-0.12285855 0.33679914 0.00000000
-0.78901345 -0.68977958 -0.00000028
-0.24733286 -0.66088349 0.00000000
-0.44678244 0.09580353 -0.00000066
-0.15284908 0.34207070 0.00000000
-0.43904930 -0.57370943 0.00000000
-0.40571281 -0.39147899 0.00000000
-0.49962103 -0.24671955 -0.00000028
-0.66028798 0.08618681 -0.00000156
-0.40831447 -0.61011189 0.00000000
-0.38912106 0.27719086 -0.00000074
-0.44727904 0.21637882 -0.00000088
-0.18767256 -0.31176835 0.00000000
-0.45239043 0.26248094 -0.00000098
-0.48724654 0.07349033 -0.00000080
-0.21028809 -0.20631929 0.00000000
-0.17818183 0.35493949 0.00000000
-0.76945150 -0.21283960 -0.00000147
-0.06181880 -0.57768166 0.00000000
-0.02069805 -0.48986548 0.00000000
-0.48327994 -0.51983726 0.00000000
-0.26511475 0.24415249 -0.00000015
-0.21313585 -0.13809118 0.00000000
-0.01418954 0.75717837 0.00000000
-0.23843051 -0.51529300 0.00000000
-0.51342696 -0.22609980 -0.00000038
-0.17672609 -0.73861581 0.00000000
-0.40330777 -0.78134483 0.00000000
-0.09481503 -0.79620075 0.00000000
-0.18281941 0.24936868 0.00000000
-0.07645100 -0.20375483 0.00000000
-0.62539202 0.02660792 -0.00000130
-0.05462633 -0.35262617 0.00000000
-0.72618985 -0.45095783 -0.00000087
-0.05749335 -0.31496125 0.00000000
-0.50474089 -0.74656022 0.00000000
-0.03906483 -0.32437813 0.00000000
-0.12198957 0.35052329 0.00000000
-0.26567733 0.01548333 0.00000000
-0.35052058 -0.45348218 0.00000000
-0.34389192 0.27118549 -0.00000053
-0.30023482 0.39711776 -0.00000057
-0.02765548 -0.76764601 0.00000000
-0.34146276 0.17234914 -0.00000035
-0.45232916 -0.17510377 -0.00000021
-0.44710705 -0.15629454 -0.00000022
-0.09553304 0.54275501 0.00000000
-0.04277257 0.73496699 -0.00000007
-0.09750624 -0.66971636 0.00000000
-0.61655867 0.03474918 -0.00000128
-0.38758257 0.04426349 -0.00000032
-0.40839767 -0.22276302 0.00000000
-0.48190230 -0.79444528 0.00000000
-0.13970810 0.53683800 -0.00000013
-0.65271664 -0.54140633 -0.00000041
-0.19783133 0.17623171 0.00000000
-0.20193802 0.42746919 -0.00000020
-0.74589437 -0.07109962 -0.00000164
-0.79051036 -0.02390968 -0.00000192
-0.50480890 -0.23033829 -0.00000033
-0.26461309 -0.63737166 0.00000000
-0.19882087 0.13790017 0.00000000
-0.39802125 0.14074117 -0.00000053
-0.14387137 0.20054170 0.00000000
-0.53493148 0.10678749 -0.00000106
-0.40892589 -0.20235336 0.00000000
-0.15032785 -0.40563416 0.00000000
-0.71506083 -0.23401625 -0.00000122
-0.03230328 0.69094610 0.00000000
-0.44155157 -0.01395679 -0.00000045
-0.36933625 -0.79871172 0.00000000
-0.72143471 -0.22365902 -0.00000127
-0.47270173 -0.01785355 -0.00000057
-0.29882938 -0.12996718 0.00000000
-0.53669000 -0.60102046 0.00000000
-0.54906273 -0.01772458 -0.00000090
-0.72865242 -0.32782096 -0.00000112
-0.48053178 -0.62670374 0.00000000
-0.72353321 -0.69211316 -0.00000027
-0.17142275 -0.37832770 0.00000000
-0.31767371 -0.04891538 0.00000000
-0.21834216 0.35746533 -0.00000015
-0.65680087 -0.23004504 -0.00000098
-0.27460051 0.50858492 -0.00000066
-0.56107944 -0.63092387 0.00000000
-0.11300449 0.25461060 0.00000000
-0.39293757 0.26631111 -0.00000073
-0.25437787 0.06185512 0.00000000
-0.06372664 -0.69098866 0.00000000
-0.73546624 -0.19862585 -0.00000137
-0.37343007 -0.46253362 0.00000000
-0.58537817 -0.68663031 0.00000000
-0.25204059 0.24963681 -0.00000010
-0.05133989 -0.61964852 0.00000000
-0.52542603 -0.78776401 0.00000000
-0.29640678 -0.29533023 0.00000000
-0.21709172 -0.55107915 0.00000000
-0.48284522 -0.50371206 0.00000000
-0.14271992 -0.26615754 0.00000000
-0.00365910 0.31004062 0.00000000
-0.60383600 -0.09044564 -0.00000100
-0.23282430 -0.51878494 0.00000000
-0.02897673 0.12532777 0.00000000
-0.56007475 -0.18098287 -0.00000066
-0.05823028 0.49052808 0.00000000
-0.00882701 -0.40228659 0.00000000
-0.17016593 -0.50001085 0.00000000
-0.56036305 -0.74659902 0.00000000
-0.67853409 -0.60423458 -0.00000041
-0.31677949 -0.24134851 0.00000000
-0.53814071 -0.45021772 -0.00000009
-0.23059371 -0.36633688 0.00000000
-0.60961455 0.00686162 -0.00000120
-0.59105211 -0.56590837 -0.00000011
-0.31901276 -0.67633855 0.00000000
-0.54468018 -0.31671375 -0.00000035
-0.04324120 -0.31400597 0.00000000
-0.12121683 -0.73511845 0.00000000
-0.03221011 -0.42247954 0.00000000
-0.46213326 -0.43691170 0.00000000
-0.52451676 -0.44683465 -0.00000003
-0.32065058 -0.27790141 0.00000000
-0.59391165 -0.53601623 -0.00000017
-0.59666359 -0.47754595 -0.00000029
-0.06343976 -0.68912309 0.00000000
-0.46183404 -0.47175735 0.00000000
-0.14175783 -0.76815814 0.00000000
-0.74515021 -0.79429084 -0.00000001
-0.73870361 -0.41344506 -0.00000097
-0.50274110 -0.40871418 -0.00000001
-0.38053158 -0.26217467 0.00000000
-0.17389061 -0.75396496 0.00000000
-0.56924647 0.10002538 -0.00000119
-0.26234719 -0.57084012 0.00000000
-0.46001568 0.18781617 -0.00000088
-0.60114390 -0.01425938 -0.00000113
-0.25976980 0.52081966 -0.00000062
-0.13233045 0.39909664 0.00000000
-0.59008974 -0.59866518 -0.00000005
-0.00923348 0.04921325 0.00000000
-0.51725519 -0.43746960 -0.00000002
-0.13724764 -0.53150070 0.00000000
-0.16082938 0.09096597 0.00000000
-0.34272808 -0.18531945 0.00000000
-0.76105988 -0.27248445 -0.00000132
-0.52953082 -0.38788348 -0.00000016
-0.49469686 -0.56585395 0.00000000
-0.58801615 0.02948895 -0.00000115
-0.48677200 0.02016914 -0.00000070
-0.29429385 0.43190420 -0.00000061
-0.54475176 -0.41254196 -0.00000018
-0.50881821 -0.11641609 -0.00000055
-0.50748646 -0.11258489 -0.00000055
-0.25204656 0.28505138 -0.00000017
-0.46624658 -0.26769578 -0.00000010
-0.24595015 -0.12580073 0.00000000
-0.32891759 -0.07722107 0.00000000
-0.04282899 0.68907493 0.00000000
-0.01343168 0.69993091 0.00000000
-0.41586789 -0.52049297 0.00000000
-0.01995247 -0.31425586 0.00000000
-0.30529481 -0.20642091 0.00000000
-0.08022792 0.09584257 0.00000000
-0.31851330 -0.76514500 0.00000000
-0.21326225 -0.58677024 0.00000000
-0.10746645 -0.64892519 0.00000000
-0.03114799 -0.15002888 0.00000000
-0.75585890 -0.53018081 -0.00000067
-0.63157690 -0.20707928 -0.00000092
-0.08911140 -0.07918105 0.00000000
-0.49570757 -0.66343635 0.00000000
-0.08566050 0.67522359 -0.00000015
-0.51737922 -0.73284715 0.00000000
-0.02483512 0.57683575 0.00000000
-0.30030745 0.15990973 -0.00000015
-0.39192370 -0.69298786 0.00000000
-0.48171651 -0.75117815 0.00000000
-0.19292691 -0.56419575 0.00000000
-0.42200789 -0.46924850 0.00000000
-0.40531135 -0.42196772 0.00000000
-0.47824892 -0.26476398 -0.00000016
-0.10337455 -0.25685835 0.00000000
-0.59603673 -0.10472916 -0.00000094
-0.05112072 0.24216262 0.00000000
