ply
format ascii 1.0
element vertex 1275
property float x
property float y
property float z
end_header
-0.10066388 0.04443270 0.00000000
0.11898747 0.16570592 0.44406235
0.04087725 0.61973995 0.15255179
0.18846329 -0.11548374 0.70332903
0.20099057 0.01154480 0.75007981
-0.09462285 -0.37240946 0.00000000
0.20614833 -0.28142199 0.76932889
-0.28276291 0.00202575 0.00000000
-0.55834216 0.03505109 -0.00000103
-0.26130530 0.30687195 -0.00000024
-0.73821419 0.04928277 -0.00000182
-0.10012497 -0.30742437 0.00000000
-0.32529965 -0.05360578 0.00000000
-0.79509372 -0.09627586 -0.00000176
-0.46168214 -0.24142618 -0.00000013
0.02265461 0.67932427 0.08454721
-0.75222462 -0.61705172 -0.00000046
0.18508589 0.08475557 0.69072413
-0.08895521 -0.03473016 0.00000000
-0.68675321 -0.63668466 -0.00000039
-0.29811209 -0.27362606 0.00000000
-0.03307988 0.08183578 0.00000000
-0.50380462 -0.79466265 0.00000000
-0.03510562 0.09560581 0.00000000
0.18217435 -0.16207452 0.67985946
-0.16468370 0.38173294 0.00000000
0.15405561 0.14219972 0.57492602
-0.34105483 -0.08069121 0.00000000
-0.50749022 0.19946685 -0.00000110
-0.65251738 -0.16659234 -0.00000108
-0.26473680 0.13307396 0.00000000
-0.15283833 0.11086968 0.00000000
-0.41288650 0.04571862 -0.00000043
-0.36416736 -0.28275770 0.00000000
-0.36919999 -0.21124750 0.00000000
-0.04056237 -0.21149811 0.00000000
-0.08593822 0.46864966 0.00000000
0.14578994 0.20395823 0.54407728
-0.79166752 -0.55789208 -0.00000061
-0.05481305 0.23233114 0.00000000
-0.69275194 -0.25751632 -0.00000109
0.06469287 0.54032385 0.24142872
-0.75898069 -0.58288109 -0.00000054
-0.77959770 -0.37983990 -0.00000105
-0.04923179 0.05369432 0.00000000
-0.34590915 -0.00587924 -0.00000005
-0.31871018 0.05255199 -0.00000004
-0.11168222 0.04150758 0.00000000
-0.56200707 -0.68502671 0.00000000
-0.23156206 -0.37085205 0.00000000
-0.35550532 -0.66291058 0.00000000
-0.76223707 -0.03556507 -0.00000178
0.01107309 0.75697827 0.04132382
-0.04916488 0.20418435 0.00000000
-0.51224148 0.01635585 -0.00000080
0.12213234 0.27938554 0.45579028
-0.32144806 0.00532243 0.00000000
-0.32776561 -0.46722049 0.00000000
-0.75212032 -0.39020690 -0.00000102
0.16921733 -0.15380056 0.63150525
0.20544983 -0.33625558 0.76672250
-0.72425419 -0.59444779 -0.00000051
-0.39467570 -0.51800770 0.00000000
-0.13853244 -0.16467696 0.00000000
-0.08626421 0.02957633 0.00000000
-0.35529053 -0.23451938 0.00000000
-0.27076027 -0.27392066 0.00000000
-0.44712186 -0.55637038 0.00000000
-0.05257225 0.03204463 0.00000000
-0.02897431 0.07793505 0.00000000
-0.22563718 0.12539452 0.00000000
-0.34143516 -0.55144173 0.00000000
-0.20281564 0.56024206 -0.00000044
-0.05937177 0.26640022 0.00000000
-0.44591492 0.13452896 -0.00000073
-0.19790530 0.18159740 0.00000000
0.16723830 0.01653062 0.62412769
-0.26877147 -0.41353467 0.00000000
-0.43223676 -0.71537197 0.00000000
-0.26539457 -0.19906680 0.00000000
-0.31335625 0.21152653 -0.00000030
-0.60302806 0.12211313 -0.00000138
-0.72778285 -0.67436498 -0.00000031
0.07571273 0.41168562 0.28255960
-0.71430337 -0.13565378 -0.00000139
-0.76636100 -0.22838216 -0.00000143
-0.11354231 -0.57442337 0.00000000
-0.61336154 -0.75188023 0.00000000
-0.11484825 -0.24914654 0.00000000
-0.02134263 -0.22434726 0.00000000
-0.26043922 -0.01207877 0.00000000
0.12998123 0.18027653 0.48508626
-0.06839523 0.33379906 0.00000000
-0.10270835 -0.52297240 0.00000000
0.08839522 0.41846493 0.32988578
-0.07529660 -0.15198284 0.00000000
0.19452661 -0.25665179 0.72595721
-0.06023919 -0.20785372 0.00000000
-0.68975019 -0.31254885 -0.00000098
-0.72143286 -0.53460163 -0.00000066
-0.19671577 -0.44087163 0.00000000
-0.30624688 0.35268232 -0.00000052
-0.08502860 -0.63538253 0.00000000
-0.10819860 -0.02335953 0.00000000
0.08690424 0.45535231 0.32431951
-0.38057098 -0.32626936 0.00000000
-0.07085757 -0.47558349 0.00000000
-0.51628035 -0.74544430 0.00000000
-0.06674472 -0.29140693 0.00000000
-0.60293531 0.11071611 -0.00000135
-0.47390765 -0.47243440 0.00000000
-0.13056841 -0.54443514 0.00000000
-0.09244090 0.19641015 0.00000000
-0.59157509 -0.03225487 -0.00000105
-0.69476670 -0.37201124 -0.00000089
-0.37122208 0.04781324 -0.00000025
-0.46843463 -0.35099435 0.00000000
-0.01480148 0.19127215 0.00000000
-0.16852044 -0.32199720 0.00000000
-0.35408366 -0.43935898 0.00000000
-0.67980254 -0.47049668 -0.00000066
-0.22038764 -0.59652311 0.00000000
0.09876555 0.37610307 0.36858711
-0.42678818 -0.40287095 0.00000000
-0.65444607 -0.68785781 -0.00000016
-0.35817990 -0.65269339 0.00000000
-0.26334372 -0.75198478 0.00000000
-0.40080646 -0.66130781 0.00000000
0.15362035 0.08213971 0.57330579
-0.08976793 0.16956037 0.00000000
-0.37418711 -0.22920468 0.00000000
-0.73462850 -0.75933540 -0.00000010
-0.17240451 0.34765899 0.00000000
0.14087485 0.16575237 0.52573842
-0.63732398 0.04341983 -0.00000138
-0.40872431 -0.24904045 0.00000000
-0.11810911 0.04928553 0.00000000
-0.12332520 0.65062833 -0.00000026
-0.33577436 0.10619133 -0.00000021
-0.16765465 -0.41020611 0.00000000
-0.07288157 -0.72935855 0.00000000
-0.42086834 0.04786628 -0.00000047
-0.52903247 -0.04180726 -0.00000077
0.16481613 -0.02149537 0.61507988
-0.08866439 -0.21877693 0.00000000
0.17854454 -0.18358220 0.66631347
0.18599100 -0.17006002 0.69410288
-0.05283032 -0.77494079 0.00000000
0.06426979 0.54497361 0.23984961
-0.00951568 0.54019946 0.00000000
-0.20073944 0.26234406 0.00000000
0.14871401 0.18565592 0.55499011
-0.16611746 0.46656528 -0.00000012
-0.01730598 0.62557900 0.00000000
0.08651346 0.31831208 0.32287043
-0.49542263 -0.10871678 -0.00000051
-0.09078021 -0.27113038 0.00000000
-0.71868032 -0.30336326 -0.00000112
-0.35842851 0.16918048 -0.00000041
-0.39397269 -0.18863580 0.00000000
-0.43827769 -0.16881588 -0.00000016
-0.65876716 -0.54277182 -0.00000044
-0.26390630 0.06908701 0.00000000
0.18840414 -0.23675627 0.70310873
-0.51107490 0.08756254 -0.00000092
-0.75300497 -0.63559765 -0.00000041
-0.36482811 -0.10875847 0.00000000
-0.38606709 -0.14690141 0.00000000
-0.37589929 -0.06315316 -0.00000008
-0.65722394 -0.75987619 -0.00000005
-0.14881696 -0.00532042 0.00000000
-0.06325098 -0.51580834 0.00000000
-0.69515824 -0.08021582 -0.00000141
0.10952342 0.32144371 0.40873539
0.20163290 -0.08922461 0.75247651
-0.71847272 -0.22532775 -0.00000125
0.13773835 0.17512661 0.51403350
-0.08491303 -0.33837771 0.00000000
-0.13068523 -0.02184855 0.00000000
0.17702001 0.07160466 0.66062599
-0.26398584 -0.76619607 0.00000000
-0.29571375 -0.21523118 0.00000000
-0.09809819 -0.28196695 0.00000000
-0.20297343 -0.39865693 0.00000000
-0.61872029 -0.30323213 -0.00000069
0.20684624 -0.26404333 0.77193338
0.05310624 0.57658184 0.19818901
-0.04772091 0.42161480 0.00000000
-0.11042532 0.66306829 -0.00000023
-0.26889202 -0.09206373 0.00000000
-0.10039705 -0.24026328 0.00000000
-0.27897385 0.32747820 -0.00000036
-0.36704499 0.17213008 -0.00000046
-0.14916699 -0.22535956 0.00000000
-0.32613459 -0.44042766 0.00000000
0.14018477 0.08798008 0.52316856
-0.35425836 -0.29788178 0.00000000
-0.58783430 -0.33642486 -0.00000050
0.19236591 -0.23987795 0.71789366
-0.73901308 -0.33706895 -0.00000114
-0.15049690 0.18947636 0.00000000
-0.13510300 0.49473402 -0.00000004
-0.60832101 -0.56852049 -0.00000018
-0.01995750 0.72691864 0.00000000
-0.09912275 0.51687044 0.00000000
0.07250717 0.38525414 0.27059931
-0.29113391 0.19596577 -0.00000017
-0.65824068 -0.03067606 -0.00000134
-0.60106963 -0.12000924 -0.00000094
0.15795256 -0.09539784 0.58946604
0.16887833 0.14086974 0.63023937
-0.09931786 -0.27221388 0.00000000
-0.59654170 -0.31808704 -0.00000057
-0.06270978 0.66564870 -0.00000003
-0.18185326 -0.56930274 0.00000000
-0.22000930 0.28217587 -0.00000002
-0.51161194 0.20143536 -0.00000113
-0.51399052 -0.56282544 0.00000000
-0.49293524 -0.03982984 -0.00000062
-0.41103104 -0.24939746 0.00000000
-0.06149172 -0.20406535 0.00000000
-0.06350859 0.28799033 0.00000000
-0.55798513 -0.63089776 0.00000000
-0.20207688 -0.76937211 0.00000000
-0.49090201 -0.20095733 -0.00000033
-0.09911671 0.08431566 0.00000000
-0.33993989 -0.28468588 0.00000000
-0.06602889 0.26406825 0.00000000
-0.56917053 -0.75155520 0.00000000
-0.35859215 -0.37376150 0.00000000
0.13404995 0.07883840 0.50027609
0.15218489 0.05893802 0.56795073
-0.67807782 -0.00691956 -0.00000147
-0.28929701 0.41231671 -0.00000055
-0.14668401 -0.55963522 0.00000000
-0.07642034 0.52568042 0.00000000
-0.58533573 0.18727519 -0.00000141
-0.28317958 0.47681734 -0.00000064
-0.30930230 0.42777863 -0.00000066
0.18433005 -0.26643521 0.68790472
-0.48107490 -0.11837493 -0.00000043
-0.11762541 -0.39703295 0.00000000
-0.50760722 -0.68622905 0.00000000
-0.02900505 0.56428409 0.00000000
-0.58992064 0.18635063 -0.00000143
-0.29043925 0.35105583 -0.00000045
-0.25955224 -0.71675140 0.00000000
-0.16410117 -0.44152176 0.00000000
0.15161425 0.16859499 0.56581402
-0.22735648 -0.24656013 0.00000000
-0.50299907 -0.40691727 -0.00000001
-0.13645914 0.58376759 -0.00000020
-0.24091125 -0.63287336 0.00000000
-0.11758307 0.09374497 0.00000000
-0.32171416 -0.65326154 0.00000000
0.09253820 0.28642157 0.34535477
-0.26799831 0.38917008 -0.00000042
-0.07997353 -0.02764614 0.00000000
-0.37829655 -0.50981760 0.00000000
-0.71468532 -0.35247508 -0.00000101
-0.10815265 -0.79505032 0.00000000
-0.38392439 0.41352370 -0.00000096
-0.64608824 -0.38464072 -0.00000066
-0.53217375 -0.64215171 0.00000000
-0.18008479 -0.12781288 0.00000000
-0.33397374 -0.59789765 0.00000000
-0.39683974 0.24713565 -0.00000072
-0.18963315 -0.59840208 0.00000000
-0.18853806 0.11923297 0.00000000
-0.53129137 -0.66671574 0.00000000
-0.13237695 -0.79697037 0.00000000
-0.76737159 -0.77548963 -0.00000006
-0.07363557 0.54122055 0.00000000
-0.47817490 -0.49893767 0.00000000
-0.01653236 0.26660195 0.00000000
-0.66200668 -0.76745999 -0.00000005
-0.62161684 -0.59806168 -0.00000018
0.15174381 0.17700209 0.56629694
-0.78466284 -0.61646777 -0.00000046
-0.00829367 0.55115879 0.00000000
-0.62532645 -0.45108944 -0.00000046
-0.14627078 0.52658862 -0.00000014
-0.17516807 -0.13048872 0.00000000
-0.79966885 -0.71453953 -0.00000021
-0.20416562 -0.25601262 0.00000000
-0.42786852 0.25783560 -0.00000087
-0.23137683 -0.41911381 0.00000000
-0.24931186 -0.50591415 0.00000000
-0.50951332 0.01667651 -0.00000079
-0.00860126 -0.11692764 0.00000000
-0.60800338 -0.29015958 -0.00000067
-0.60353780 -0.07849249 -0.00000102
0.11354192 0.15072134 0.42374244
0.02700799 0.69040889 0.10079176
-0.62412339 -0.79529279 0.00000000
-0.64297575 -0.54494739 -0.00000037
-0.01279599 -0.57870841 0.00000000
-0.15761453 0.51126891 -0.00000016
-0.24283458 -0.71730864 0.00000000
-0.66386646 -0.59012538 -0.00000038
-0.29590935 -0.16707364 0.00000000
0.17399599 0.02038233 0.64934474
-0.03108462 -0.06529693 0.00000000
-0.48503333 -0.70876509 0.00000000
-0.01551861 -0.79257810 0.00000000
-0.14664595 -0.00283404 0.00000000
-0.52776486 0.09689938 -0.00000101
0.17986184 -0.13145396 0.67122930
-0.56951702 -0.00781962 -0.00000100
-0.10343826 0.08502748 0.00000000
-0.19274022 -0.76732457 0.00000000
0.12854068 0.30268389 0.47970247
-0.15199879 -0.24032745 0.00000000
-0.16873164 -0.76878631 0.00000000
-0.72140729 -0.57002223 -0.00000057
-0.24267228 -0.57158029 0.00000000
0.13635267 0.19019249 0.50886166
-0.52291667 0.16393113 -0.00000111
-0.47454983 -0.55490792 0.00000000
-0.18778235 -0.69348937 0.00000000
-0.03259390 -0.36326396 0.00000000
-0.52453148 0.01388804 -0.00000085
-0.33809552 0.01234195 -0.00000005
-0.36371630 -0.10460928 0.00000000
-0.55909908 -0.50082558 -0.00000009
-0.20048434 0.20060451 0.00000000
-0.27929685 0.51800811 -0.00000069
0.01569118 0.72185564 0.05855926
-0.06137923 0.44578248 0.00000000
-0.34945625 0.28388873 -0.00000058
-0.24049488 0.05814815 0.00000000
0.14139186 0.09974792 0.52767217
-0.16553885 -0.78843504 0.00000000
-0.18802254 0.41088071 -0.00000011
0.05222229 0.59512144 0.19488914
-0.45363617 -0.47616264 0.00000000
-0.68985832 -0.59284317 -0.00000048
-0.61216605 -0.28879219 -0.00000069
-0.25495508 -0.28278148 0.00000000
-0.56788641 -0.04862192 -0.00000092
-0.70351839 -0.39066118 -0.00000090
0.12522681 0.19894636 0.46734315
-0.12988442 -0.29417184 0.00000000
-0.78845459 -0.25141600 -0.00000137
-0.39213419 -0.32980567 0.00000000
-0.15019044 -0.77553499 0.00000000
-0.03656877 -0.11589069 0.00000000
-0.61165982 -0.16190729 -0.00000091
-0.00851715 -0.40221152 0.00000000
-0.44684389 -0.08270605 -0.00000035
0.20385341 0.00991651 0.76076305
-0.65691209 -0.23680960 -0.00000097
-0.08712921 -0.17308757 0.00000000
-0.01074359 -0.71277905 0.00000000
-0.39466703 -0.71359032 0.00000000
0.18016236 -0.05937755 0.67235053
-0.09173371 -0.15539940 0.00000000
0.11602805 0.28085986 0.43301111
-0.75615984 -0.04472670 -0.00000173
-0.02206443 0.56105542 0.00000000
-0.43526530 0.03441978 -0.00000050
-0.38217211 -0.03658017 -0.00000015
-0.36453113 -0.59950906 0.00000000
-0.48972759 -0.44738823 0.00000000
-0.29301271 -0.25429821 0.00000000
-0.21195230 0.43770674 -0.00000026
-0.73651481 -0.10964978 -0.00000154
-0.36460072 -0.35833868 0.00000000
-0.08398391 -0.11684362 0.00000000
-0.24291140 -0.33404052 0.00000000
-0.19135731 -0.28930515 0.00000000
-0.64473391 -0.06226802 -0.00000123
-0.00900780 -0.20213412 0.00000000
0.16053657 -0.10789770 0.59910935
-0.32236075 -0.06232469 0.00000000
0.10578873 0.24362621 0.39480400
-0.75562608 -0.46736076 -0.00000083
-0.07642391 -0.56282151 0.00000000
-0.19714089 -0.28168952 0.00000000
-0.40665716 -0.14251573 -0.00000007
-0.00728548 -0.55454600 0.00000000
0.10942099 0.26072615 0.40835720
-0.13380694 0.26468420 0.00000000
-0.20851630 -0.52604210 0.00000000
-0.22255906 0.06127220 0.00000000
0.06993155 0.47079784 0.26098228
0.08815719 0.45766151 0.32899490
-0.39442673 0.18996002 -0.00000060
-0.31868640 0.20354323 -0.00000031
-0.48364672 0.19049056 -0.00000099
-0.26420471 -0.19987103 0.00000000
-0.09524615 -0.65326607 0.00000000
-0.11762406 0.26907197 0.00000000
-0.21481447 -0.28047213 0.00000000
-0.45965052 -0.76217353 0.00000000
-0.63766980 -0.66808081 -0.00000013
-0.20927297 -0.50288075 0.00000000
-0.12342256 -0.45000556 0.00000000
-0.30675825 -0.28799078 0.00000000
0.14658833 -0.00291135 0.54705548
-0.25556821 -0.14815608 0.00000000
-0.79886514 -0.38573176 -0.00000104
-0.55168736 -0.64297718 0.00000000
0.06895746 0.46926403 0.25734743
-0.10599155 0.03386848 0.00000000
-0.25935146 -0.42975795 0.00000000
-0.42662081 -0.37583956 0.00000000
-0.01677533 0.07891222 0.00000000
-0.55552953 -0.70225078 0.00000000
-0.69489294 -0.08513995 -0.00000140
-0.22827187 -0.41470876 0.00000000
-0.38951012 -0.22241440 0.00000000
-0.49146274 0.28244761 -0.00000118
-0.18501402 -0.69770205 0.00000000
-0.19053318 0.40484786 -0.00000011
-0.36017552 -0.40664300 0.00000000
-0.45202130 0.12929565 -0.00000074
-0.36142576 -0.14669704 0.00000000
-0.32260978 0.23285960 -0.00000037
-0.13792060 -0.47370315 0.00000000
-0.44222856 -0.58841151 0.00000000
0.14961697 -0.05882733 0.55835831
-0.27647963 -0.53955197 0.00000000
-0.25639534 0.39491493 -0.00000038
-0.06666910 -0.08658006 0.00000000
-0.46832079 0.02707832 -0.00000063
-0.56258219 0.14357014 -0.00000124
-0.30816075 -0.12754877 0.00000000
-0.21211144 0.20968974 0.00000000
-0.60468197 -0.68651748 0.00000000
0.18040466 -0.25126693 0.67325556
-0.51199269 -0.06871170 -0.00000065
-0.01935297 0.68447787 0.00000000
-0.28758448 -0.30374047 0.00000000
-0.63209212 -0.55648798 -0.00000030
-0.04162354 0.57855004 0.00000000
-0.09395069 0.57411426 -0.00000000
-0.13818948 0.41162190 0.00000000
-0.08325247 -0.69039696 0.00000000
-0.79589999 -0.17618538 -0.00000156
-0.60644674 -0.05050185 -0.00000108
-0.07591504 0.57395703 0.00000000
0.16686153 0.13278027 0.62271398
-0.51108879 0.10972382 -0.00000096
-0.00328698 -0.12247160 0.00000000
0.10601005 0.25236255 0.39562935
-0.21703833 0.28164116 -0.00000001
-0.34013671 -0.27532062 0.00000000
-0.41733217 -0.55388272 0.00000000
-0.35311121 0.26610309 -0.00000056
-0.20525844 -0.36434200 0.00000000
-0.42571005 -0.57326138 0.00000000
-0.66477102 -0.73120576 -0.00000013
-0.64032054 0.13289078 -0.00000155
-0.21073388 -0.78019559 0.00000000
-0.19549312 0.11249115 0.00000000
-0.07791266 -0.51157057 0.00000000
-0.25357595 -0.62565446 0.00000000
-0.49867514 -0.30673411 -0.00000017
-0.09971281 0.05349462 0.00000000
-0.52944070 0.16081738 -0.00000113
-0.01521868 0.69881785 0.00000000
-0.05808179 0.73006934 -0.00000012
-0.08665080 -0.74644983 0.00000000
0.05752377 0.49965182 0.21467884
-0.55816841 -0.01809568 -0.00000094
-0.09517027 0.04214977 0.00000000
-0.24122863 -0.22859418 0.00000000
0.10982167 0.34078047 0.40984705
-0.03386581 -0.23205353 0.00000000
-0.79545021 -0.59501177 -0.00000051
-0.69765103 -0.74853909 -0.00000013
-0.53870332 -0.46785346 -0.00000006
-0.64089233 -0.65156990 -0.00000017
0.12060679 0.18143293 0.45010403
-0.15651380 -0.79551768 0.00000000
-0.19119345 -0.07692465 0.00000000
-0.06697196 0.12471638 0.00000000
0.12975861 0.17598477 0.48425582
-0.55948567 -0.17887990 -0.00000066
-0.68765581 -0.24019451 -0.00000110
-0.07659786 -0.71552318 0.00000000
-0.20765767 -0.78782910 0.00000000
-0.19147030 -0.56276989 0.00000000
-0.41789740 -0.41380787 0.00000000
-0.22581097 -0.41695610 0.00000000
0.18627086 -0.14603589 0.69514716
-0.16611318 -0.31760624 0.00000000
0.18930613 0.06436164 0.70647395
-0.21173330 -0.14337881 0.00000000
-0.51082343 -0.67897063 0.00000000
-0.65986454 -0.06647290 -0.00000128
-0.31915566 -0.01260488 0.00000000
-0.15107851 -0.37693039 0.00000000
-0.22873801 -0.48607358 0.00000000
0.10352592 0.25655711 0.38635913
-0.03583142 0.56994623 0.00000000
-0.60022688 -0.64557910 -0.00000001
-0.38818398 -0.01989183 -0.00000021
-0.16257001 -0.00098051 0.00000000
-0.65029848 -0.72443086 -0.00000008
-0.28519082 -0.37033543 0.00000000
0.13023362 0.13433018 0.48603117
-0.29611707 -0.66123813 0.00000000
-0.23777784 0.41635901 -0.00000034
-0.32559019 -0.41416344 0.00000000
0.20193756 -0.05819707 0.75361335
-0.55775076 -0.35826558 -0.00000033
-0.41014302 0.06846973 -0.00000046
0.20196347 -0.26552320 0.75371116
-0.28915775 -0.19967753 0.00000000
-0.00892165 0.64087832 0.00000000
-0.09321076 -0.10745820 0.00000000
0.09373645 0.25471455 0.34982833
-0.56940097 -0.00861533 -0.00000100
-0.60785240 -0.75861406 0.00000000
-0.03273837 -0.57747948 0.00000000
0.10832070 0.27410451 0.40425041
-0.48884037 0.00795424 -0.00000069
0.12387849 0.27976662 0.46230629
0.17478251 -0.11479870 0.65227371
-0.00982259 -0.77414966 0.00000000
-0.41270757 -0.58880842 0.00000000
-0.19583102 -0.12619220 0.00000000
-0.51502693 0.02128947 -0.00000082
-0.00465835 -0.24288310 0.00000000
0.20372020 -0.12188634 0.76026630
-0.21751428 -0.72897375 0.00000000
-0.75258982 -0.24976136 -0.00000136
-0.21900687 -0.63927621 0.00000000
0.12164518 0.14189102 0.45398158
-0.07695142 0.36920899 0.00000000
-0.40966779 -0.29073998 0.00000000
-0.49521580 -0.45514944 0.00000000
-0.48921806 0.27644846 -0.00000116
-0.28315181 -0.25862557 0.00000000
-0.56593549 0.08623323 -0.00000115
-0.01509429 0.05282961 0.00000000
0.01342508 0.74550635 0.05010123
0.20470914 -0.24156152 0.76395768
-0.39814547 -0.16809960 0.00000000
-0.00027792 0.52647156 0.00000000
-0.02138569 0.58988762 0.00000000
-0.58451474 -0.78352857 0.00000000
-0.45603794 0.18536296 -0.00000086
-0.38391122 -0.76979297 0.00000000
-0.01246783 -0.52808088 0.00000000
-0.74238950 -0.23899427 -0.00000133
-0.31793699 -0.61974072 0.00000000
0.06775422 0.46980864 0.25285730
0.04469464 0.54856682 0.16680171
-0.33823702 -0.21769227 0.00000000
-0.02074261 0.00370571 0.00000000
-0.74106866 -0.78010124 -0.00000005
-0.30067635 -0.76685297 0.00000000
0.15499268 0.16200256 0.57842159
-0.17194676 0.02995644 0.00000000
-0.31060141 0.25769997 -0.00000037
-0.50096309 0.09652424 -0.00000089
-0.21895899 0.54950041 -0.00000049
0.07486580 0.47066486 0.27939519
-0.79360855 -0.10775031 -0.00000173
0.08037287 0.37150794 0.29995230
-0.51509225 -0.09533928 -0.00000062
-0.08534624 0.49086031 0.00000000
-0.06690125 -0.13448386 0.00000000
-0.44394445 -0.29602695 0.00000000
-0.74550879 -0.37115568 -0.00000107
-0.26349494 -0.53499949 0.00000000
0.12817201 0.30333534 0.47832656
0.18816036 -0.27683210 0.70219910
-0.10125329 -0.20275263 0.00000000
-0.36881316 0.31017253 -0.00000071
-0.04105080 -0.38187200 0.00000000
-0.21347013 -0.10797110 0.00000000
-0.60475010 -0.72070813 0.00000000
0.09974287 0.33121344 0.37223709
-0.41217664 -0.69622374 0.00000000
0.12819400 0.26477838 0.47841132
-0.22309431 0.39126837 -0.00000023
-0.28135037 -0.44005430 0.00000000
-0.20571062 -0.28254098 0.00000000
-0.07627075 0.12398027 0.00000000
-0.17093793 0.28226921 0.00000000
-0.38809580 0.20758849 -0.00000061
-0.54521435 -0.03610435 -0.00000085
0.18662082 -0.20497362 0.69645339
-0.41159394 -0.61051601 0.00000000
-0.46296719 -0.58389997 0.00000000
-0.28554049 0.39628443 -0.00000050
0.16579644 0.10350485 0.61874133
0.11342212 0.28067881 0.42328671
-0.57254970 0.05493429 -0.00000113
-0.22375964 -0.09183177 0.00000000
0.02821389 0.66185844 0.10529368
0.10763535 0.23714972 0.40169540
-0.32240796 -0.16251910 0.00000000
0.17500788 -0.15848988 0.65311491
0.18371978 -0.19382092 0.68562704
0.11687847 0.28961655 0.43618399
-0.61238164 0.14487951 -0.00000146
-0.17759261 0.49012879 -0.00000021
-0.36900032 0.24021746 -0.00000059
-0.77704990 -0.16159393 -0.00000160
-0.46455866 -0.47054905 0.00000000
-0.71264189 -0.01679519 -0.00000160
0.05943738 0.49964061 0.22181974
-0.04472934 -0.42084873 0.00000000
-0.65866280 0.13111776 -0.00000163
-0.10480065 0.41163373 0.00000000
-0.16713321 -0.43674406 0.00000000
0.16253765 -0.09957936 0.60657710
-0.09068687 0.50256997 0.00000000
-0.23835987 0.34985635 -0.00000022
-0.74048799 -0.53120363 -0.00000067
-0.22815134 -0.62802202 0.00000000
-0.79516172 -0.27333218 -0.00000132
-0.47264016 0.11454853 -0.00000081
0.09276997 0.34847069 0.34621549
-0.06488991 0.63404268 0.00000000
-0.41543886 -0.28191420 0.00000000
-0.04698986 0.72944504 -0.00000008
-0.05026915 0.71139401 -0.00000006
-0.44670835 0.09138765 -0.00000065
-0.54752135 -0.45297217 -0.00000012
-0.26564640 0.34014595 -0.00000032
-0.19568798 -0.56288791 0.00000000
-0.27751684 0.36114022 -0.00000041
-0.23133457 -0.72132194 0.00000000
0.04309883 0.62136358 0.16084181
-0.38238055 0.28401181 -0.00000072
-0.16334850 -0.77252531 0.00000000
-0.75736821 -0.57499200 -0.00000056
-0.37354314 -0.22453859 0.00000000
-0.09078323 -0.58556229 0.00000000
-0.26231739 -0.27712896 0.00000000
-0.14619333 -0.06183249 0.00000000
-0.43435383 -0.56793642 0.00000000
-0.75603163 -0.50954556 -0.00000073
-0.71043640 -0.31634223 -0.00000106
-0.79373753 -0.37362412 -0.00000107
0.17940886 -0.15447889 0.66953897
0.06519845 0.50750273 0.24331754
-0.04349546 0.24858639 0.00000000
-0.59827334 -0.62557793 -0.00000003
-0.37775114 -0.32225129 0.00000000
-0.05427766 0.41467574 0.00000000
-0.07346767 -0.64241260 0.00000000
-0.60086262 -0.49417683 -0.00000028
0.16262931 0.00868872 0.60692900
-0.50975043 -0.13016091 -0.00000053
-0.64061886 -0.60649920 -0.00000025
-0.41228017 0.13156098 -0.00000058
-0.32164720 -0.75931060 0.00000000
-0.19572324 -0.03148005 0.00000000
-0.48584354 -0.58103794 0.00000000
0.13336644 0.25599018 0.49771357
-0.13349959 0.28139326 0.00000000
-0.45090228 -0.78716230 0.00000000
-0.68111092 -0.17188321 -0.00000119
-0.40214151 0.37182420 -0.00000096
-0.76054794 -0.73433632 -0.00000016
-0.17666319 -0.67470330 0.00000000
0.15529358 -0.04798436 0.57954282
-0.77230471 -0.25800264 -0.00000135
-0.21915695 -0.05911267 0.00000000
-0.37263277 -0.12753561 0.00000000
-0.54664105 -0.34755051 -0.00000030
0.11421303 0.31425893 0.42623585
0.20188563 -0.22601990 0.75342041
-0.42844293 -0.07486968 -0.00000028
-0.48805234 -0.20761304 -0.00000030
-0.10965732 0.09649253 0.00000000
-0.32736877 -0.18409318 0.00000000
-0.17778230 -0.36955360 0.00000000
-0.50850862 -0.67243898 0.00000000
-0.37723657 -0.05521460 -0.00000010
-0.27810225 -0.33695909 0.00000000
-0.27344525 -0.55067253 0.00000000
-0.21588391 0.08174834 0.00000000
-0.31906503 -0.28564373 0.00000000
-0.71688372 -0.12453545 -0.00000143
-0.59793895 0.08545302 -0.00000129
-0.41119593 -0.00142692 -0.00000034
-0.08521101 0.06099758 0.00000000
0.17022109 -0.09610560 0.63525093
-0.01995304 -0.14375322 0.00000000
-0.41144395 -0.40906242 0.00000000
-0.75188971 -0.02676678 -0.00000175
-0.48470530 -0.08186591 -0.00000051
-0.29485264 0.50324553 -0.00000071
-0.22432721 -0.58140081 0.00000000
-0.57436138 -0.79290956 0.00000000
-0.57530552 -0.06533664 -0.00000093
0.07650929 0.39180490 0.28553340
-0.13452034 0.58712906 -0.00000020
-0.50887001 -0.38285339 -0.00000008
-0.58635795 -0.73295200 0.00000000
-0.44968444 -0.32190850 0.00000000
-0.08059191 -0.52571940 0.00000000
-0.18008259 -0.34737891 0.00000000
-0.62900710 -0.61317956 -0.00000019
0.14093243 0.21406259 0.52595007
-0.31049615 -0.37910596 0.00000000
-0.60910606 0.11438580 -0.00000139
-0.13626888 0.16891198 0.00000000
-0.31141919 0.06031088 -0.00000002
0.05270188 0.51875931 0.19668394
-0.31385157 0.13400124 -0.00000016
-0.60511637 -0.59637302 -0.00000011
-0.50304455 0.10783084 -0.00000092
-0.77929664 -0.51641828 -0.00000071
-0.35560635 -0.64238012 0.00000000
-0.44339046 -0.44806987 0.00000000
-0.08756958 0.14339416 0.00000000
-0.78660697 -0.10484809 -0.00000174
-0.49971136 -0.01529664 -0.00000069
-0.34444836 0.20461251 -0.00000042
-0.51535171 0.03044322 -0.00000084
-0.62381643 -0.70036817 -0.00000001
0.16951019 0.10303767 0.63259977
-0.17644431 0.06397744 0.00000000
-0.56943440 -0.10012954 -0.00000084
-0.35505491 0.15824959 -0.00000038
-0.58312398 -0.37294477 -0.00000042
-0.72476178 -0.50543356 -0.00000074
-0.68384457 -0.73371375 -0.00000017
0.20457546 -0.10649696 0.76345801
-0.66155791 -0.21807630 -0.00000102
-0.31022927 -0.51058590 0.00000000
-0.21627907 0.19283295 0.00000000
-0.21086252 0.44219327 -0.00000027
-0.41972476 -0.26194915 0.00000000
-0.12167516 0.15519539 0.00000000
-0.42639872 -0.34742469 0.00000000
-0.38717955 0.13543943 -0.00000048
-0.25899610 -0.00554019 0.00000000
-0.12118953 0.52273029 -0.00000003
-0.33397374 0.46125644 -0.00000083
-0.23401912 -0.39730063 0.00000000
-0.04012474 -0.68519616 0.00000000
-0.34987220 -0.49876213 0.00000000
-0.69609249 -0.72659105 -0.00000018
-0.66958922 -0.55620050 -0.00000046
-0.14828627 -0.53024036 0.00000000
-0.23873766 -0.61572003 0.00000000
-0.31095058 0.42916605 -0.00000067
-0.25645608 -0.01282807 0.00000000
-0.43592343 -0.21888544 -0.00000006
-0.36560079 -0.65416503 0.00000000
-0.63415098 -0.02004855 -0.00000126
0.16398241 0.15998682 0.61196822
-0.42677081 0.16954677 -0.00000071
-0.19791502 0.54891801 -0.00000040
-0.44120008 -0.47077972 0.00000000
-0.01516449 0.70973957 0.00000000
-0.41491213 -0.01693622 -0.00000033
-0.56887102 -0.68266934 0.00000000
0.15436268 0.11262952 0.57607394
0.19978231 -0.15572345 0.74557054
-0.25754234 0.46119279 -0.00000050
-0.07179690 -0.33099985 0.00000000
-0.70509315 -0.32538179 -0.00000102
0.13120323 0.07298161 0.48965350
-0.68182033 -0.05782102 -0.00000139
-0.01594370 -0.75176686 0.00000000
-0.00835086 0.09069442 0.00000000
-0.04769011 0.74251568 -0.00000010
-0.40367827 -0.59413421 0.00000000
-0.46085009 0.29137453 -0.00000107
-0.20950229 -0.75949377 0.00000000
-0.78066391 -0.23264705 -0.00000142
-0.12324936 0.16195913 0.00000000
-0.55098760 -0.17018753 -0.00000064
-0.31505135 -0.57702249 0.00000000
-0.38152471 0.15930656 -0.00000050
-0.34146512 -0.51740056 0.00000000
-0.11504015 0.44146225 0.00000000
-0.23102693 -0.51074380 0.00000000
0.14719662 0.12378412 0.54933190
-0.39543495 -0.38095105 0.00000000
0.18342055 0.07469168 0.68451035
-0.00653076 -0.35281470 0.00000000
-0.53680611 -0.54830647 0.00000000
-0.29575801 -0.00656067 0.00000000
0.18854676 -0.11255333 0.70364046
0.14974409 0.09995589 0.55883980
0.17011967 0.10218784 0.63487422
-0.44487089 0.11726804 -0.00000069
-0.17408289 -0.09114774 0.00000000
-0.32161933 0.06820616 -0.00000008
-0.30000842 0.19704285 -0.00000021
-0.09676862 0.08574907 0.00000000
-0.02547581 -0.19200079 0.00000000
-0.47859150 -0.68151176 0.00000000
-0.15364408 -0.63593578 0.00000000
-0.67407215 -0.78031296 -0.00000005
-0.22520293 -0.56307739 0.00000000
-0.20383210 -0.05632910 0.00000000
-0.16309457 0.20982996 0.00000000
-0.51369143 -0.67354017 0.00000000
-0.32654983 -0.75466871 0.00000000
-0.26440921 0.32868245 -0.00000030
-0.22191302 0.28079391 -0.00000003
0.06928142 0.40586960 0.25856057
-0.04337601 -0.77168465 0.00000000
0.09028594 0.37697721 0.33694407
-0.51934576 -0.73510867 0.00000000
-0.21354322 0.47675645 -0.00000034
-0.53588039 -0.65489572 0.00000000
-0.68958861 -0.59571749 -0.00000048
0.20204806 -0.26297912 0.75402683
-0.28649014 0.46111381 -0.00000062
-0.06883160 0.11881716 0.00000000
-0.54968822 0.17878065 -0.00000125
-0.35695639 0.30545476 -0.00000065
0.12384464 0.25047272 0.46218193
-0.01006445 -0.18980236 0.00000000
0.19136673 -0.12867384 0.71416438
-0.02137979 0.41081509 0.00000000
0.15242258 0.19848724 0.56882834
-0.02106934 -0.10937963 0.00000000
-0.75817782 -0.34875709 -0.00000113
-0.78302890 -0.01034263 -0.00000191
0.09163863 0.39759785 0.34199047
0.15988429 -0.13012135 0.59667516
-0.68351030 -0.17200212 -0.00000120
-0.64305311 -0.06478301 -0.00000122
-0.30875137 -0.61524951 0.00000000
-0.47342706 -0.60142022 0.00000000
-0.15281121 -0.32270584 0.00000000
-0.01534505 -0.35832077 0.00000000
-0.54181844 -0.45684147 -0.00000009
-0.39990696 -0.58705652 0.00000000
-0.44962496 0.17732632 -0.00000082
-0.13701767 -0.42782748 0.00000000
-0.47714454 0.29591542 -0.00000115
-0.12604873 -0.48613647 0.00000000
-0.45418131 0.11493556 -0.00000073
-0.57950163 -0.12250844 -0.00000084
-0.00573470 -0.67295706 0.00000000
-0.00485608 0.21915796 0.00000000
-0.15319274 -0.55007339 0.00000000
-0.41219270 -0.38803691 0.00000000
-0.24013425 -0.58050352 0.00000000
0.17508109 0.11186218 0.65338784
-0.72026265 -0.00366447 -0.00000165
-0.34069970 0.11725025 -0.00000025
-0.64175868 -0.16864450 -0.00000103
0.10789404 0.20032585 0.40266320
-0.09728261 0.10510168 0.00000000
0.16251832 0.04462050 0.60651249
0.13367718 0.17711201 0.49887848
-0.56745583 -0.24029139 -0.00000058
-0.00426624 -0.75031644 0.00000000
-0.36773139 0.40356949 -0.00000087
-0.28597173 -0.78717726 0.00000000
-0.70574510 -0.11511703 -0.00000139
-0.72566342 -0.79731035 -0.00000001
-0.59565353 -0.69969374 0.00000000
-0.26369160 0.49037719 -0.00000058
-0.70288402 -0.30451226 -0.00000105
-0.59153825 -0.58725137 -0.00000007
0.17526881 0.05372291 0.65409231
-0.18785146 -0.46007925 0.00000000
-0.34323132 0.02412733 -0.00000009
-0.61438024 0.13522373 -0.00000145
-0.00425846 0.25486144 0.00000000
0.03624053 0.64997268 0.13524710
-0.34754679 0.29763108 -0.00000060
-0.31700319 -0.69833994 0.00000000
-0.75950575 -0.01656287 -0.00000180
-0.78664213 -0.10621585 -0.00000173
-0.41967583 -0.61624342 0.00000000
-0.42391452 0.14455102 -0.00000065
-0.23039056 -0.58836669 0.00000000
-0.59050953 0.19831721 -0.00000146
-0.57233113 -0.22058620 -0.00000064
-0.04796625 0.53581804 0.00000000
-0.70766884 -0.38404742 -0.00000093
-0.38223633 -0.53261691 0.00000000
-0.35340023 -0.46222967 0.00000000
-0.43557397 -0.43974555 0.00000000
-0.50880569 0.18222977 -0.00000108
-0.13918921 -0.34405145 0.00000000
-0.30622002 -0.54769391 0.00000000
-0.54328728 -0.05562085 -0.00000081
0.19020766 -0.06101339 0.70983857
-0.13674182 -0.24867868 0.00000000
-0.72712755 -0.60550553 -0.00000049
0.17890044 0.09117797 0.66764170
-0.09220757 -0.27137494 0.00000000
-0.12466616 0.35870579 0.00000000
-0.30019355 -0.55691010 0.00000000
-0.21215877 0.28933012 -0.00000000
0.10472074 0.32663429 0.39081311
-0.25028893 0.14362374 0.00000000
-0.22184741 -0.44840401 0.00000000
-0.36195952 -0.56541324 0.00000000
-0.71756452 -0.41971296 -0.00000091
-0.01672943 0.72383446 0.00000000
-0.63427049 -0.10616449 -0.00000111
-0.28809696 0.36519027 -0.00000046
-0.64032751 -0.13327418 -0.00000108
-0.15512535 -0.51221800 0.00000000
-0.38441902 -0.39064738 0.00000000
-0.07214948 -0.29146603 0.00000000
-0.70693505 -0.60778087 -0.00000048
-0.25184730 -0.57509845 0.00000000
-0.20044176 -0.26953286 0.00000000
-0.32928854 -0.56076378 0.00000000
-0.43960759 -0.32208729 0.00000000
-0.53402448 -0.79589397 0.00000000
-0.44446850 -0.75597614 0.00000000
-0.07709352 -0.64826834 0.00000000
-0.54178786 -0.24803725 -0.00000046
-0.60350329 -0.58726120 -0.00000012
-0.33858481 -0.48112091 0.00000000
0.14702223 0.19690296 0.54867625
-0.07475495 0.29062751 0.00000000
-0.38331899 0.22245371 -0.00000061
-0.74151927 -0.60295290 -0.00000049
-0.30896163 -0.30221194 0.00000000
-0.47683507 -0.29872134 -0.00000009
0.12863401 0.05408383 0.48006734
-0.43944380 -0.27328309 0.00000000
-0.54962921 -0.14260681 -0.00000068
-0.24635676 -0.71418786 0.00000000
0.10280694 0.37351137 0.38366833
-0.60069752 0.13920566 -0.00000140
0.16787899 -0.01060709 0.62651008
0.07294566 0.49779350 0.27222809
-0.12653691 -0.46910781 0.00000000
-0.20216954 -0.30067506 0.00000000
0.15170690 0.07144888 0.56616622
-0.20728850 -0.27039829 0.00000000
-0.56189775 0.16424119 -0.00000127
-0.38309926 0.12914006 -0.00000045
0.16521688 0.16110773 0.61657470
-0.47462329 0.10222287 -0.00000079
-0.42702526 -0.75001299 0.00000000
-0.36428806 -0.70843565 0.00000000
0.16039392 0.18018566 0.59857583
-0.55270392 -0.73924941 0.00000000
-0.44557664 -0.60395509 0.00000000
-0.34431690 -0.51620674 0.00000000
-0.27758309 -0.20539628 0.00000000
-0.61542779 -0.39306232 -0.00000052
-0.51430595 0.17138116 -0.00000108
-0.16199543 -0.60434431 0.00000000
-0.19507173 -0.46475625 0.00000000
-0.70424378 -0.35865232 -0.00000096
-0.10487884 0.36190659 0.00000000
-0.51377666 0.20394816 -0.00000114
-0.58668363 -0.31100151 -0.00000054
0.18167360 0.00000072 0.67799628
-0.45716333 0.11974885 -0.00000075
-0.77537292 -0.14606827 -0.00000163
-0.38586986 -0.28065440 0.00000000
0.10281084 0.23705783 0.38369200
0.18823384 -0.17556572 0.70247293
-0.22379871 -0.36898330 0.00000000
0.05328357 0.48923549 0.19885656
-0.30210072 -0.54310715 0.00000000
-0.25366879 0.39876640 -0.00000037
-0.71301347 -0.72539443 -0.00000019
-0.25121358 0.25344154 -0.00000011
-0.28941879 -0.18498328 0.00000000
-0.11714893 0.56106019 -0.00000008
-0.22744966 -0.18076403 0.00000000
0.14998876 0.04481807 0.55975646
-0.73425210 -0.08915137 -0.00000156
-0.49507058 -0.33706582 -0.00000010
-0.12583661 -0.32559007 0.00000000
-0.60768408 -0.18811274 -0.00000085
0.19964148 -0.05300952 0.74504459
0.06553279 0.54544240 0.24456257
-0.48019850 0.15434282 -0.00000091
-0.62340957 -0.63624972 -0.00000012
-0.18012884 -0.03937101 0.00000000
-0.14817494 -0.45661855 0.00000000
-0.22198296 -0.22989748 0.00000000
0.07631331 0.37578800 0.28480315
-0.27583125 0.37543178 -0.00000043
-0.15226316 0.08306197 0.00000000
-0.45869043 -0.57259005 0.00000000
-0.10655369 -0.21751651 0.00000000
-0.05813902 0.16791505 0.00000000
-0.14470676 0.09011193 0.00000000
0.17507583 0.03159298 0.65337360
-0.13281965 -0.17509519 0.00000000
-0.24754816 -0.01459228 0.00000000
0.08795667 0.34319144 0.32825428
-0.03893833 0.64466292 0.00000000
0.10404148 0.32719296 0.38827831
-0.20960139 -0.76741445 0.00000000
-0.76756161 -0.68570995 -0.00000029
-0.47793266 -0.26137769 -0.00000016
-0.49980655 0.24257627 -0.00000115
-0.03942050 0.31575140 0.00000000
-0.04222018 0.71626002 -0.00000003
-0.40464178 -0.73201996 0.00000000
-0.33195451 -0.46252432 0.00000000
-0.15486565 -0.59232545 0.00000000
-0.35423940 -0.68465620 0.00000000
-0.73767447 -0.49018982 -0.00000077
-0.00742047 -0.46541396 0.00000000
-0.10060719 -0.79873896 0.00000000
-0.25303957 -0.04783410 0.00000000
-0.39327314 0.22929828 -0.00000067
-0.15353516 -0.65359956 0.00000000
-0.15327942 0.59758770 -0.00000030
-0.33678940 -0.35460562 0.00000000
0.09170922 0.31098139 0.34225968
-0.18885812 -0.72231442 0.00000000
-0.08167819 0.24004310 0.00000000
-0.05476571 -0.16832796 0.00000000
-0.58102858 -0.24012303 -0.00000064
-0.73388511 -0.30549273 -0.00000118
-0.32698455 0.16449578 -0.00000027
-0.46360052 -0.27080485 -0.00000009
-0.58058083 -0.08664397 -0.00000091
-0.30170393 0.07761554 -0.00000001
-0.24874140 0.46107858 -0.00000046
-0.75850922 -0.42522973 -0.00000094
0.10848719 0.22904812 0.40487471
-0.14630941 0.00795152 0.00000000
0.16518012 -0.04980031 0.61643833
-0.42011526 -0.50914568 0.00000000
-0.72037619 -0.66552329 -0.00000034
-0.19195414 -0.12768036 0.00000000
-0.69892097 -0.43823519 -0.00000079
-0.54419482 0.06787365 -0.00000103
0.19879551 -0.02178921 0.74188739
-0.39039299 0.18895349 -0.00000059
-0.13217553 -0.33766508 0.00000000
-0.58435845 -0.25971478 -0.00000062
-0.33571655 -0.44474402 0.00000000
-0.30483764 -0.60745984 0.00000000
-0.51110411 -0.69340652 0.00000000
-0.00080142 -0.65012902 0.00000000
-0.04234380 0.71275020 -0.00000003
0.18651730 0.07843869 0.69606608
-0.53250515 0.18057996 -0.00000118
-0.09271042 0.08871490 0.00000000
-0.19556090 -0.75857741 0.00000000
-0.15330774 -0.01755592 0.00000000
-0.18286665 -0.62551606 0.00000000
-0.15876159 -0.73350614 0.00000000
-0.17137565 0.32597032 0.00000000
-0.14065436 -0.24726543 0.00000000
0.06276295 0.46595523 0.23423189
-0.55145144 -0.34493032 -0.00000033
0.19282776 -0.30284360 0.71961743
-0.04780897 0.45797142 0.00000000
-0.01687484 -0.04205440 0.00000000
-0.14658701 -0.65956295 0.00000000
0.06351801 0.48190063 0.23704842
-0.12707157 0.33267158 0.00000000
-0.49547786 -0.30187777 -0.00000017
-0.58509362 -0.15852007 -0.00000080
0.03909385 0.59819102 0.14589818
-0.56846851 -0.42080691 -0.00000027
-0.22998530 0.08471717 0.00000000
-0.28629625 0.51021636 -0.00000071
-0.74062061 -0.25979245 -0.00000129
-0.09309622 -0.73578262 0.00000000
0.17424507 -0.10933171 0.65026808
-0.52428591 -0.25690097 -0.00000037
-0.23874784 0.13875873 0.00000000
-0.55377263 0.18318239 -0.00000127
-0.44793767 0.34338018 -0.00000110
-0.77905697 -0.40715614 -0.00000098
0.20188133 -0.33337370 0.75340497
-0.31520581 -0.60977656 0.00000000
-0.36367789 0.11052266 -0.00000033
-0.35047168 0.08186042 -0.00000023
0.12754615 0.28525555 0.47599238
-0.69805586 -0.79979652 -0.00000000
-0.06798845 -0.37501031 0.00000000
-0.35771865 0.31490102 -0.00000067
-0.15582190 0.56610537 -0.00000025
-0.18023777 -0.10401598 0.00000000
-0.37424129 -0.18632630 0.00000000
-0.39360395 -0.03580853 -0.00000020
-0.65933180 -0.07692067 -0.00000126
-0.40979320 -0.53876340 0.00000000
-0.23879641 -0.42667028 0.00000000
-0.64343715 -0.14618622 -0.00000107
-0.60012341 -0.65233326 0.00000000
-0.47591227 -0.00217849 -0.00000061
-0.76554710 -0.78717679 -0.00000003
-0.53491867 -0.47921166 -0.00000002
-0.44300130 0.03642705 -0.00000054
-0.30723891 0.47755510 -0.00000074
-0.72363955 -0.64322996 -0.00000039
-0.04663829 -0.01882667 0.00000000
-0.47965932 0.03790089 -0.00000070
0.16207018 0.08487852 0.60483748
-0.07189552 0.00068056 0.00000000
-0.03995813 -0.17002472 0.00000000
-0.69476330 -0.36460122 -0.00000091
0.13607299 0.22412421 0.50781572
-0.09140521 0.05379725 0.00000000
-0.48389956 -0.77606988 0.00000000
0.18580414 -0.11946028 0.69340533
-0.07807291 -0.26464865 0.00000000
-0.78398055 -0.02262754 -0.00000189
-0.23068419 -0.53375465 0.00000000
-0.29556781 0.04168365 0.00000000
-0.19178474 0.51072782 -0.00000031
-0.02526189 0.02687251 0.00000000
-0.61512917 -0.44909629 -0.00000042
-0.70685232 -0.16259193 -0.00000132
-0.66143626 -0.18739448 -0.00000108
-0.73671889 -0.79452497 -0.00000001
-0.59954363 -0.66705990 0.00000000
0.12678096 0.22953033 0.47314069
0.08187301 0.36163169 0.30555093
-0.07064722 0.14390613 0.00000000
-0.29319826 -0.23753239 0.00000000
0.16067630 -0.04323248 0.59963053
-0.42219359 -0.22284667 0.00000000
-0.15124466 0.45770100 -0.00000004
-0.19422027 -0.40476394 0.00000000
-0.28246722 -0.72085923 0.00000000
-0.02211595 -0.12730214 0.00000000
-0.31018129 -0.10705224 0.00000000
-0.00926840 0.19438680 0.00000000
-0.78408372 -0.78690624 -0.00000003
0.10256396 0.21070594 0.38277251
-0.51059473 -0.35613054 -0.00000014
-0.78144997 -0.61555046 -0.00000046
-0.26493058 -0.22692695 0.00000000
-0.32369483 0.42205831 -0.00000071
-0.74904311 -0.10006922 -0.00000161
0.13409337 0.13214426 0.50043458
-0.02803496 -0.40001243 0.00000000
-0.68133920 -0.25584736 -0.00000104
-0.41481158 0.03424237 -0.00000042
0.18060787 -0.00786243 0.67401296
-0.58953649 0.05389597 -0.00000120
-0.19459318 0.52700275 -0.00000035
-0.29958481 0.01474476 0.00000000
-0.43576762 -0.60351986 0.00000000
0.07595693 0.45196515 0.28346816
-0.70573097 -0.50712979 -0.00000070
-0.02458878 0.13778082 0.00000000
0.15824726 0.06764213 0.59057277
-0.55586308 0.16741475 -0.00000125
-0.40706202 0.12475121 -0.00000054
-0.24522723 0.34540033 -0.00000024
-0.02222698 0.22155097 0.00000000
-0.17622817 -0.18654706 0.00000000
-0.19455394 -0.34120846 0.00000000
-0.13163279 -0.28639841 0.00000000
-0.42997661 -0.00279486 -0.00000042
0.17870563 -0.03261370 0.66691411
-0.19542526 0.13890995 0.00000000
-0.52999187 -0.19277592 -0.00000051
-0.36656785 0.39368567 -0.00000085
-0.67988563 0.11001439 -0.00000168
0.20217682 -0.07413673 0.75450629
-0.75302792 -0.30537224 -0.00000124
-0.50012493 0.18427014 -0.00000105
-0.39651933 -0.59474725 0.00000000
-0.07407624 0.28618380 0.00000000
-0.70605528 0.05194789 -0.00000169
0.19316018 -0.27801955 0.72085786
-0.32797733 0.18521813 -0.00000031
-0.62080187 -0.05253471 -0.00000114
-0.23578240 -0.63353997 0.00000000
-0.20020700 -0.67967725 0.00000000
-0.63238460 -0.52802533 -0.00000035
-0.33763480 -0.74105853 0.00000000
-0.78912812 -0.70797086 -0.00000023
-0.07001224 -0.65295023 0.00000000
0.06315909 0.52827120 0.23570596
-0.04074777 0.18782362 0.00000000
0.05516656 0.52750999 0.20588066
0.18357664 -0.05791923 0.68509233
-0.34500858 -0.77179933 0.00000000
-0.37796339 0.37189570 -0.00000086
-0.48235744 -0.22982273 -0.00000024
-0.38573563 -0.01157640 -0.00000021
0.20354024 -0.30330572 0.75959575
-0.37226567 -0.66564590 0.00000000
-0.20769115 -0.52030742 0.00000000
-0.70612574 -0.46717671 -0.00000077
0.16568924 0.09749843 0.61834168
-0.46103257 -0.44813633 0.00000000
-0.29368365 0.15786447 -0.00000012
-0.18775976 0.55524796 -0.00000037
-0.00460223 0.72722018 0.00000000
-0.25534594 0.24937403 -0.00000012
-0.72755677 -0.29176307 -0.00000118
-0.11201269 0.43849587 0.00000000
-0.68359548 -0.38503835 -0.00000082
-0.38699088 -0.50239331 0.00000000
-0.53430629 0.20282963 -0.00000122
-0.09868486 -0.50972718 0.00000000
-0.08280448 0.01290318 0.00000000
-0.23591824 0.32182071 -0.00000016
-0.02570853 0.70687103 0.00000000
-0.16017359 0.45024043 -0.00000007
-0.16171181 -0.71055949 0.00000000
-0.55199367 -0.06330014 -0.00000083
0.14939684 -0.05712284 0.55753678
-0.66664952 -0.09048190 -0.00000127
-0.58724058 -0.05407137 -0.00000100
-0.69940728 0.00254463 -0.00000158
-0.03868714 -0.44986260 0.00000000
-0.67112339 -0.61592102 -0.00000036
-0.20845723 -0.23356988 0.00000000
-0.71775883 -0.10458883 -0.00000146
0.11431915 0.15051445 0.42664281
-0.21230304 0.38670623 -0.00000018
-0.30228570 -0.53365541 0.00000000
0.16692998 0.09483716 0.62297189
-0.18236484 -0.02569155 0.00000000
-0.78187424 -0.45748660 -0.00000086
-0.77020234 -0.56102639 -0.00000060
-0.22628628 0.44063467 -0.00000033
0.17600904 0.08697207 0.65685236
-0.41627395 -0.25085875 0.00000000
-0.66460580 -0.32007453 -0.00000086
0.18909232 -0.14789587 0.70567662
0.07110887 0.44890133 0.26537707
-0.74985844 -0.37866610 -0.00000105
-0.17321780 -0.20292982 0.00000000
-0.52806973 -0.51186419 0.00000000
0.13358743 0.24293944 0.49853915
-0.43237448 -0.30354282 0.00000000
-0.65325528 -0.48520496 -0.00000052
-0.52992147 0.18965983 -0.00000118
-0.62896061 -0.36967924 -0.00000062
-0.46274605 -0.56724954 0.00000000
0.15551521 0.05340458 0.58037865
-0.41465649 -0.70429128 0.00000000
-0.06000101 0.03940214 0.00000000
-0.30546686 -0.51886660 0.00000000
-0.51162291 0.06493709 -0.00000088
-0.18369454 -0.70885485 0.00000000
-0.11386708 0.26826677 0.00000000
-0.16302270 0.21505977 0.00000000
-0.49047750 0.09140252 -0.00000084
-0.03013133 0.00540300 0.00000000
-0.49540341 0.14560646 -0.00000096
-0.52305382 -0.23084830 -0.00000041
0.04489405 0.60299087 0.16754220
-0.17408101 -0.78942126 0.00000000
-0.59179801 -0.54207307 -0.00000015
-0.04765385 0.13575271 0.00000000
-0.12056483 -0.66621655 0.00000000
-0.43558604 -0.64966470 0.00000000
-0.31030074 -0.12712339 0.00000000
0.15086333 0.08737765 0.56301725
-0.41370812 -0.78965026 0.00000000
-0.30682415 -0.70419669 0.00000000
0.18529525 0.00036585 0.69151103
-0.48643383 0.16737062 -0.00000096
-0.75790763 -0.60559916 -0.00000049
-0.03646134 -0.53865451 0.00000000
0.18951504 -0.16272220 0.70725417
-0.30398810 0.39322245 -0.00000058
-0.04145445 -0.60440564 0.00000000
0.18221273 -0.19028363 0.68000281
-0.47234249 -0.56447208 0.00000000
-0.66938037 -0.29237291 -0.00000093
-0.65976322 -0.70597225 -0.00000015
-0.78989518 0.00257441 -0.00000196
0.09550509 0.41585574 0.35641751
-0.36544347 -0.46915692 0.00000000
-0.36316478 -0.08498629 0.00000000
-0.68430132 -0.47535542 -0.00000067
