ply
format ascii 1.0
element vertex 1209
property float x
property float y
property float z
end_header
-0.28252605 -0.56761754 0.00000000
-0.56035876 -0.37528974 -0.00000031
-0.23802716 -0.69972199 0.00000000
-0.70447397 -0.29189950 -0.00000108
-0.48664251 -0.05465565 -0.00000057
-0.75569963 -0.47441843 -0.00000081
-0.09315911 -0.76319635 0.20924494
-0.69960147 -0.72522283 -0.00000019
-0.63373250 -0.51623011 -0.00000038
-0.55314755 0.22565784 -0.00000135
-0.46265343 -0.00790475 -0.00000055
-0.29338664 0.38660243 -0.00000052
-0.22078490 -0.76974750 0.49590558
-0.00905155 -0.26196942 0.00000000
-0.01092056 0.20385230 0.00000000
-0.07801287 0.10979840 0.00000000
-0.35353446 0.00663385 -0.00000011
-0.13238390 -0.08495991 0.00000000
-0.12204086 -0.07208390 0.00000000
-0.05053741 -0.70599020 0.00000000
-0.15155458 -0.78233552 0.34040719
-0.46965423 -0.04489261 -0.00000051
-0.30061838 -0.71106052 0.67522120
-0.16575034 0.57372797 -0.00000031
-0.21940041 -0.02973570 0.00000000
-0.20106420 -0.72793639 0.45161086
-0.16084656 -0.77714604 0.36127791
-0.45577237 -0.03734526 -0.00000046
-0.06102330 -0.39471012 0.00000000
-0.20553155 -0.76920176 0.00000000
-0.04696380 -0.59624529 0.00000000
-0.58312613 -0.28527275 -0.00000057
-0.00678003 0.62426108 0.00000000
-0.03250068 -0.70217550 0.00000000
-0.18582614 0.03252451 0.00000000
-0.19073936 0.56327897 -0.00000040
-0.72463804 -0.29118189 -0.00000116
-0.42566302 -0.26891944 0.00000000
-0.13344809 0.36961266 0.00000000
-0.08318214 0.37215370 0.00000000
-0.13843928 0.09099985 0.00000000
-0.30867070 -0.67322648 0.00000000
-0.26258907 0.46792427 -0.00000053
-0.78461695 -0.11552801 -0.00000171
-0.24606530 -0.72457826 0.55268794
-0.78784871 -0.41525054 -0.00000096
-0.15081044 -0.61263400 0.00000000
-0.16064489 -0.70655942 0.36082494
-0.53122938 -0.56885409 0.00000000
-0.21028017 0.58021325 -0.00000051
-0.32061762 -0.55150998 0.00000000
-0.54911464 -0.23224609 -0.00000052
-0.75910252 -0.27965012 -0.00000130
-0.31921995 -0.54673755 0.00000000
-0.73356456 -0.77370238 -0.00000007
-0.66310871 -0.17760713 -0.00000110
-0.16352396 -0.08484093 0.00000000
-0.36696196 0.21514928 -0.00000053
-0.33866450 0.40710551 -0.00000075
-0.20829143 -0.69376135 0.46784395
-0.58531111 -0.61375636 0.00000000
-0.10517283 0.45828906 0.00000000
-0.15260369 -0.18963081 0.00000000
-0.30317932 0.04459650 0.00000000
-0.38358483 -0.72945035 0.00000000
-0.58218837 -0.20592533 -0.00000071
-0.09661914 0.44441050 0.00000000
-0.41194400 -0.51095176 0.00000000
-0.43794033 -0.13291721 -0.00000022
-0.70329350 -0.57325685 -0.00000057
-0.29751351 -0.14720076 0.00000000
-0.39139155 -0.78797537 0.00000000
-0.35265592 0.42644888 -0.00000084
-0.10942905 -0.75918138 0.24578890
-0.14016786 -0.48517418 0.00000000
-0.43576023 0.34833547 -0.00000106
-0.37118608 -0.33327603 0.00000000
-0.07899601 -0.67808163 0.00000000
-0.30167550 -0.50676590 0.00000000
-0.06817108 0.61673135 0.00000000
-0.06002550 0.40585303 0.00000000
-0.76370233 -0.18056017 -0.00000153
-0.53053039 0.13508835 -0.00000109
-0.46119332 0.04122554 -0.00000063
-0.77119261 -0.11067116 -0.00000168
-0.40555385 -0.35182396 0.00000000
-0.20214874 -0.11695346 0.00000000
-0.61912990 -0.17192303 -0.00000092
-0.49035984 -0.45112291 0.00000000
-0.20557518 -0.27829048 0.00000000
-0.25851735 0.52397287 -0.00000062
-0.16666651 0.31124431 0.00000000
-0.17663451 -0.24794228 0.00000000
-0.25970459 -0.51402259 0.00000000
-0.30266890 -0.43161622 0.00000000
-0.78091592 -0.09328712 -0.00000175
-0.47506133 -0.41943520 0.00000000
-0.40861541 -0.07481172 -0.00000020
-0.05457962 -0.71500474 0.00000000
-0.10199213 -0.79740149 0.00000000
-0.21553208 0.13029259 0.00000000
-0.36905122 -0.35234988 0.00000000
-0.79686874 -0.53985661 -0.00000065
-0.45487100 -0.57965714 0.00000000
-0.57266587 0.12644029 -0.00000125
-0.69894367 -0.10466955 -0.00000138
-0.45403984 0.13506518 -0.00000076
-0.65418291 0.04297341 -0.00000145
-0.00770270 -0.04604402 0.00000000
-0.75713718 -0.64817035 -0.00000038
-0.21460871 -0.01668450 0.00000000
-0.12884787 -0.75590622 0.28940555
-0.07460603 -0.62391067 0.00000000
-0.02965754 -0.55596018 0.00000000
-0.17724238 -0.17889532 0.00000000
-0.26659346 -0.06814443 0.00000000
-0.14468826 -0.47188088 0.00000000
-0.02347407 -0.29888609 0.00000000
-0.47161934 -0.24691422 -0.00000016
-0.42531815 -0.71441704 0.00000000
-0.36605251 0.41551125 -0.00000088
-0.06084427 -0.02531367 0.00000000
-0.48735905 -0.57144147 0.00000000
-0.05273821 0.68236077 -0.00000002
-0.48917139 -0.07926954 -0.00000053
-0.36403355 -0.65260255 0.00000000
-0.45770115 0.01422013 -0.00000056
-0.72728527 -0.06409747 -0.00000158
-0.15190548 -0.66488028 0.00000000
-0.19057620 0.01203997 0.00000000
-0.18085641 0.04429041 0.00000000
-0.04635970 0.60300189 0.00000000
-0.48599690 -0.65270442 0.00000000
-0.11892677 -0.00121543 0.00000000
-0.10027065 -0.54374671 0.00000000
-0.27380899 -0.51103371 0.00000000
-0.01384148 0.75575137 0.00000000
-0.16205899 -0.77219892 0.36400115
-0.21001139 -0.68366677 0.47170720
-0.02968161 -0.61460841 0.00000000
-0.42103869 -0.79113579 0.00000000
-0.22034173 -0.78682202 0.49491018
-0.11310245 0.26648760 0.00000000
-0.09249680 0.37569809 0.00000000
-0.27706367 0.30449274 -0.00000031
-0.57123744 -0.17202981 -0.00000072
-0.12353453 0.18435934 0.00000000
-0.14517339 -0.74163049 0.32607436
-0.28079623 -0.68284601 0.63069797
-0.29958734 0.08599118 -0.00000002
-0.51226974 -0.06619231 -0.00000066
-0.05825040 -0.79000545 0.00000000
-0.23450802 -0.23041959 0.00000000
-0.40901998 -0.27710915 0.00000000
-0.68563324 -0.61855203 -0.00000042
-0.20858052 -0.02552792 0.00000000
-0.43790266 0.25827605 -0.00000091
-0.75998247 -0.14914046 -0.00000157
-0.12399893 0.66141278 -0.00000028
-0.51958615 0.22458380 -0.00000120
-0.23123002 -0.27158055 0.00000000
-0.16580261 0.05627350 0.00000000
-0.30954504 -0.64742428 0.69527185
-0.77504677 -0.27286643 -0.00000132
-0.28905427 0.47070298 -0.00000065
-0.52496475 -0.32877603 -0.00000025
-0.14783031 -0.62261742 0.00000000
-0.48035040 -0.73366767 0.00000000
-0.02716695 0.17109226 0.00000000
-0.56139755 -0.74614942 0.00000000
-0.04512282 -0.79461676 0.00000000
-0.48114547 0.18408076 -0.00000096
-0.09665759 0.56994754 -0.00000001
-0.35137501 -0.48806569 0.00000000
-0.59778881 -0.59473127 -0.00000009
-0.30764839 0.33637938 -0.00000049
-0.61598527 0.12138787 -0.00000143
-0.20141333 0.58393812 -0.00000048
-0.02044969 -0.76821673 0.00000000
-0.32474992 -0.34839177 0.00000000
-0.18775839 -0.77844119 0.42172462
-0.01470236 -0.20713645 0.00000000
-0.23053266 -0.78336829 0.51780003
-0.66771257 -0.25966626 -0.00000098
-0.31553307 0.05244129 -0.00000003
-0.35316020 -0.25208995 0.00000000
-0.08581073 0.67463094 -0.00000014
-0.25025505 -0.31563476 0.00000000
-0.20023212 -0.68732393 0.00000000
-0.79651922 -0.56175607 -0.00000060
-0.75521189 -0.26068100 -0.00000135
-0.49365568 -0.26142764 -0.00000023
-0.12258216 -0.78075862 0.27533212
-0.18646987 -0.36141321 0.00000000
-0.09707457 -0.38023224 0.00000000
-0.16654739 0.40462208 -0.00000001
-0.46977100 -0.17488687 -0.00000028
-0.66894513 -0.65934646 -0.00000028
-0.25046054 -0.67390406 0.56256014
-0.17578679 -0.54572523 0.00000000
-0.11189500 -0.77337164 0.25132769
-0.03780878 0.74415213 -0.00000006
-0.69757098 -0.14827043 -0.00000130
-0.77989441 -0.01399044 -0.00000189
-0.57277435 -0.65621692 0.00000000
-0.41650566 -0.25461629 0.00000000
-0.40531898 -0.78716671 0.00000000
-0.21155375 0.14712682 0.00000000
-0.36252746 0.07850182 -0.00000027
-0.77237022 -0.26966608 -0.00000133
-0.74648583 -0.35513791 -0.00000111
-0.45540112 0.14182533 -0.00000078
-0.03606684 -0.31783298 0.00000000
-0.56658292 -0.49703398 -0.00000013
-0.51105338 0.28102267 -0.00000126
-0.11894296 0.34267300 0.00000000
-0.31940639 -0.60943329 0.71742201
-0.14824432 -0.76079094 0.33297199
-0.27189258 -0.78391868 0.61069888
-0.12077600 -0.26315957 0.00000000
-0.07775947 -0.77429843 0.17465578
-0.15329805 -0.50831711 0.00000000
-0.40931717 0.30674660 -0.00000087
-0.32244369 -0.18499282 0.00000000
-0.22118957 -0.43377900 0.00000000
-0.02077849 0.03360398 0.00000000
-0.18204316 -0.64367330 0.00000000
-0.61597437 0.16305235 -0.00000150
-0.12710953 -0.35827839 0.00000000
-0.60957634 0.15217294 -0.00000146
-0.40214509 0.11737014 -0.00000051
-0.19605027 0.45784408 -0.00000023
-0.50412554 -0.19875889 -0.00000039
-0.75019783 -0.33970872 -0.00000115
-0.32580182 -0.31498048 0.00000000
-0.37363994 -0.77971083 0.00000000
-0.34535041 -0.65925109 0.00000000
-0.70973951 -0.20022047 -0.00000126
-0.00705447 -0.79698724 0.01584506
-0.20527880 -0.71888649 0.46107730
-0.77050620 -0.10114064 -0.00000170
-0.51600742 0.04277416 -0.00000086
-0.62276316 -0.64133340 -0.00000011
-0.34813112 -0.78250945 0.00000000
-0.19279335 -0.13711432 0.00000000
-0.00878317 0.77581269 0.00000000
-0.42621186 -0.15958534 -0.00000012
-0.47355136 -0.28804296 -0.00000010
-0.13946462 0.43452686 0.00000000
-0.45864189 0.25033826 -0.00000099
-0.78924018 -0.17902200 -0.00000155
-0.57462722 -0.39292085 -0.00000034
-0.21629173 -0.54129231 0.00000000
-0.35378119 0.44322938 -0.00000083
-0.27645898 -0.77879304 0.00000000
-0.14879502 -0.43438748 0.00000000
-0.10548822 -0.22187118 0.00000000
-0.78736633 -0.47786507 -0.00000081
-0.52253419 0.24882892 -0.00000126
-0.06466114 -0.79181558 0.14523555
-0.50760555 0.12836020 -0.00000098
-0.22732902 -0.16919483 0.00000000
-0.39466110 -0.75987637 0.00000000
-0.11972166 -0.47630519 0.00000000
-0.06636978 -0.06997875 0.00000000
-0.10201056 0.35238385 0.00000000
-0.27207720 0.37188455 -0.00000040
-0.21135904 -0.14491630 0.00000000
-0.54845941 -0.73884892 0.00000000
-0.69225127 0.07190114 -0.00000167
-0.10626501 0.54286385 0.00000000
-0.31572297 -0.14448810 0.00000000
-0.10217412 -0.61761093 0.00000000
-0.19893461 0.37928122 -0.00000011
-0.26200435 -0.01286406 0.00000000
-0.71347123 -0.52792311 -0.00000068
-0.16367719 0.42059001 -0.00000003
-0.70352632 -0.41631097 -0.00000085
-0.32581824 0.27318418 -0.00000046
-0.18159126 -0.66569269 0.00000000
-0.03660558 0.21216992 0.00000000
-0.29778945 -0.25933468 0.00000000
-0.59115165 -0.18911159 -0.00000077
-0.15621470 -0.49010348 0.00000000
-0.79133165 -0.22701393 -0.00000143
-0.22630624 0.03741009 0.00000000
-0.79793167 -0.13920934 -0.00000165
-0.59988350 0.03374103 -0.00000121
-0.79137278 -0.50627530 -0.00000073
-0.35762745 -0.32061842 0.00000000
-0.06073291 -0.61709076 0.00000000
-0.07008965 -0.46506643 0.00000000
-0.56912971 -0.36784443 -0.00000036
-0.04607766 0.75070304 -0.00000011
-0.22192465 -0.32158199 0.00000000
-0.37726259 -0.41027561 0.00000000
-0.74922144 -0.51381272 -0.00000072
-0.06665685 -0.18391998 0.00000000
-0.19778509 -0.76197487 0.00000000
-0.38714424 -0.24899606 0.00000000
-0.65506428 0.14160487 -0.00000158
-0.60652870 -0.25771275 -0.00000072
-0.76932377 -0.67969114 -0.00000030
-0.14740673 0.61864847 -0.00000031
-0.26786485 -0.71165538 0.60165232
-0.16826636 0.54036093 -0.00000026
-0.27167934 0.07745498 0.00000000
-0.35575315 -0.08569319 0.00000000
-0.01895746 -0.79417503 0.04258041
-0.66990179 0.04405878 -0.00000152
-0.41359195 0.35489690 -0.00000098
-0.49828604 -0.16848493 -0.00000041
-0.31737414 -0.73364264 0.71285695
-0.09294419 0.49477437 0.00000000
-0.26110998 0.38333544 -0.00000038
-0.19921128 -0.68389833 0.44744903
-0.15337874 -0.68705583 0.00000000
-0.10013913 0.15555646 0.00000000
-0.06593535 -0.63167953 0.00000000
-0.51425648 -0.28318837 -0.00000028
-0.25027895 -0.77914774 0.56215227
-0.10842925 -0.56023061 0.00000000
-0.04096645 -0.50266713 0.00000000
-0.22597148 0.48471972 -0.00000041
-0.22113118 -0.73693973 0.49668336
-0.37309498 -0.27318433 0.00000000
-0.27673605 -0.18071178 0.00000000
-0.37726393 -0.63667423 0.00000000
-0.00219873 0.01754896 0.00000000
-0.02251195 -0.78108793 0.00000000
-0.34456524 -0.09214004 0.00000000
-0.54039323 0.02983646 -0.00000094
-0.46724883 -0.47098950 0.00000000
-0.14449506 0.29090497 0.00000000
-0.06200336 -0.76256073 0.00000000
-0.20138066 -0.00439494 0.00000000
-0.08364347 0.62627137 -0.00000005
-0.60429746 -0.20819801 -0.00000080
-0.27902418 -0.72889763 0.62671757
-0.53611231 -0.73255050 0.00000000
-0.77473092 -0.55480582 -0.00000061
-0.03682751 -0.25502214 0.00000000
-0.60214013 -0.31477949 -0.00000060
-0.34620538 0.37966329 -0.00000073
-0.78962028 -0.24254695 -0.00000139
-0.64488655 -0.22328252 -0.00000094
-0.38711330 -0.06879615 -0.00000012
-0.50105160 -0.27318099 -0.00000024
-0.41792661 -0.77622890 0.00000000
-0.00941642 0.67960733 0.00000000
-0.75157821 -0.70407093 -0.00000024
-0.05747573 -0.77929854 0.12909640
-0.34136227 -0.14062852 0.00000000
-0.18951578 -0.62741613 0.00000000
-0.19841963 -0.40810433 0.00000000
-0.19579041 -0.58143836 0.00000000
-0.19022059 -0.05585893 0.00000000
-0.56208932 -0.55749154 0.00000000
-0.24714231 -0.64764732 0.00000000
-0.31792116 0.28089404 -0.00000044
-0.55353159 0.01518652 -0.00000097
-0.01342668 0.62077069 0.00000000
-0.47568211 -0.23964044 -0.00000019
-0.74520242 -0.55600536 -0.00000061
-0.41076022 0.37971354 -0.00000101
-0.57904035 -0.78870422 0.00000000
-0.55313331 0.03153984 -0.00000100
-0.22165872 -0.47810474 0.00000000
-0.09148236 0.13361357 0.00000000
-0.22194667 -0.69023609 0.49851504
-0.31476110 -0.64701939 0.00000000
-0.05032604 0.25741461 0.00000000
-0.00725950 0.10013429 0.00000000
-0.44208953 -0.39995149 0.00000000
-0.35715440 -0.19972400 0.00000000
-0.78709668 -0.68813103 -0.00000028
-0.19321951 0.54234183 -0.00000037
-0.16533308 0.20894133 0.00000000
-0.63798964 -0.55793351 -0.00000032
-0.46536821 0.10089688 -0.00000075
-0.50446302 0.27190280 -0.00000122
-0.07929649 -0.44263789 0.00000000
-0.06937559 -0.05857414 0.00000000
-0.48040012 0.08981527 -0.00000079
-0.28767622 0.35440710 -0.00000044
-0.66142261 -0.70442641 -0.00000016
-0.33309048 0.02345594 -0.00000005
-0.01912257 -0.26535034 0.00000000
-0.11139762 0.12128052 0.00000000
-0.62684554 0.02648075 -0.00000131
-0.07879504 0.00488445 0.00000000
-0.30064952 -0.58206910 0.00000000
-0.45581046 0.00154571 -0.00000053
-0.51695073 -0.49457929 0.00000000
-0.24549173 0.03306217 0.00000000
-0.61521876 -0.27025884 -0.00000073
-0.39942184 -0.44376710 0.00000000
-0.18289599 0.33592626 0.00000000
-0.48874602 -0.34561795 -0.00000006
-0.70777094 -0.01208405 -0.00000159
-0.22280049 0.03071151 0.00000000
-0.20979492 0.38150695 -0.00000016
-0.45195654 0.34087884 -0.00000112
-0.18427649 -0.75539064 0.41390395
-0.59741920 -0.20009692 -0.00000078
-0.66369635 -0.16435750 -0.00000113
-0.17449529 0.41955292 -0.00000007
-0.42378649 -0.18125138 -0.00000007
-0.44398832 -0.74072480 0.00000000
-0.66232365 -0.72569627 -0.00000013
-0.02552831 -0.06514561 0.00000000
-0.05066513 -0.40731502 0.00000000
-0.12615015 -0.79502869 0.00000000
-0.21518651 -0.74868566 0.48333099
-0.04893726 -0.49211696 0.00000000
-0.72406965 -0.29341590 -0.00000116
-0.62013805 -0.10488608 -0.00000105
-0.72881734 -0.51323271 -0.00000072
-0.67370135 0.10199382 -0.00000164
-0.75610095 -0.55229390 -0.00000062
-0.37511262 -0.77766186 0.00000000
-0.11879592 -0.59129781 0.00000000
-0.29241720 -0.36847785 0.00000000
-0.23471557 -0.72781354 0.00000000
-0.78693342 -0.18628028 -0.00000153
-0.24640021 -0.75097877 0.55344021
-0.25016057 -0.35300168 0.00000000
-0.65689909 -0.40217435 -0.00000068
-0.29836875 -0.70303643 0.67016822
-0.36343130 -0.02069683 -0.00000010
-0.25729117 -0.79703754 0.57790244
-0.30994314 -0.31761095 0.00000000
-0.24684303 -0.71226442 0.55443484
-0.18369471 -0.75730276 0.00000000
-0.68941909 -0.57484692 -0.00000051
-0.55002475 -0.20727769 -0.00000057
-0.58692306 0.20443031 -0.00000145
-0.78943956 -0.05459694 -0.00000186
-0.33283606 -0.56013674 0.00000000
-0.68321860 -0.48443520 -0.00000065
-0.21823570 0.14488135 0.00000000
-0.18425518 -0.72924489 0.41385609
-0.39566770 -0.40789548 0.00000000
-0.14210507 -0.77044308 0.00000000
-0.56330097 -0.19369122 -0.00000065
-0.18171734 -0.77566516 0.40815583
-0.12340878 -0.76854259 0.27718881
-0.33500275 -0.35594651 0.00000000
-0.04451458 -0.77470517 0.00000000
-0.48225921 -0.20415942 -0.00000028
-0.19651926 -0.74333531 0.44140247
-0.19429360 -0.11358838 0.00000000
-0.25945276 -0.65412611 0.00000000
-0.12304227 -0.76336253 0.00000000
-0.15950222 -0.73240066 0.00000000
-0.35474327 0.29892460 -0.00000063
-0.02561575 0.54215038 0.00000000
-0.63670868 -0.69271356 -0.00000008
-0.33242029 0.03079651 -0.00000006
-0.61175531 -0.09271160 -0.00000103
-0.55409247 -0.48612911 -0.00000009
-0.50336909 0.04657368 -0.00000082
-0.31493276 -0.79640836 0.70737308
-0.57243764 -0.74148947 0.00000000
-0.51430798 -0.32968801 -0.00000020
-0.09268696 -0.42650011 0.00000000
-0.12701719 -0.72981006 0.28529364
-0.59325498 -0.64884073 0.00000000
-0.74743992 -0.06867650 -0.00000165
-0.47517502 0.20974009 -0.00000098
-0.38408124 -0.54640180 0.00000000
-0.01480548 -0.79147345 0.03325464
-0.44248241 -0.61071384 0.00000000
-0.08864622 -0.69935524 0.00000000
-0.17508154 -0.72648537 0.00000000
-0.16332906 0.33043948 0.00000000
-0.38777259 -0.41713226 0.00000000
-0.13401414 -0.62424701 0.00000000
-0.16109964 0.29375926 0.00000000
-0.05874037 -0.68026543 0.00000000
-0.28604475 -0.18205941 0.00000000
-0.51404536 -0.09846238 -0.00000061
-0.11022400 -0.50545734 0.00000000
-0.18501745 0.61278206 -0.00000046
-0.06124674 -0.10706960 0.00000000
-0.71919024 -0.25502849 -0.00000120
-0.45432916 0.01413129 -0.00000055
-0.43715212 -0.23327516 -0.00000004
-0.15582833 0.06412662 0.00000000
-0.01308545 -0.24023956 0.00000000
-0.56272089 -0.60089439 0.00000000
-0.76035607 -0.48161948 -0.00000080
-0.33063844 -0.32390675 0.00000000
-0.68220901 -0.34747341 -0.00000088
-0.53902668 -0.10136755 -0.00000071
-0.67300928 0.08981595 -0.00000162
-0.54800183 -0.08361438 -0.00000078
-0.05969809 0.60902482 0.00000000
-0.20024078 0.36141768 -0.00000008
-0.27399978 -0.20064019 0.00000000
-0.34779537 0.45031041 -0.00000084
-0.21188755 0.10162217 0.00000000
-0.45651132 0.12957624 -0.00000076
-0.26502851 0.44972882 -0.00000051
-0.70747930 -0.44853434 -0.00000081
-0.59549463 -0.31200403 -0.00000058
-0.64561623 -0.21438199 -0.00000096
-0.75730741 0.00432852 -0.00000183
-0.20313406 -0.21380644 0.00000000
-0.06073626 0.31133172 0.00000000
-0.62108523 -0.48898697 -0.00000037
-0.38958079 0.32656202 -0.00000083
-0.48299083 -0.04063674 -0.00000058
-0.79803532 -0.48529720 -0.00000079
-0.38586599 -0.61123049 0.00000000
-0.08994798 0.11025849 0.00000000
-0.15033437 -0.00732511 0.00000000
-0.53217751 -0.51336205 0.00000000
-0.69794261 -0.04115247 -0.00000149
-0.06849792 0.19631502 0.00000000
-0.21128380 -0.76937020 0.47456515
-0.14439847 -0.73436290 0.00000000
-0.41210899 0.36164242 -0.00000098
-0.45080504 -0.59637171 0.00000000
-0.20994373 -0.69424003 0.47155520
-0.20927335 0.09640039 0.00000000
-0.43161127 0.31026417 -0.00000098
-0.59787101 -0.37449512 -0.00000048
-0.13608344 -0.05642511 0.00000000
-0.21821477 -0.58781695 0.00000000
-0.37542424 -0.04524869 -0.00000011
-0.19214489 -0.68402767 0.43157715
-0.36646408 -0.12013826 0.00000000
-0.24250256 -0.56335133 0.00000000
-0.13139710 -0.47817129 0.00000000
-0.34991708 0.03023679 -0.00000013
-0.10458488 0.46515435 0.00000000
-0.15749162 -0.72644281 0.35374239
-0.71822113 -0.07232382 -0.00000152
-0.63279939 -0.13470432 -0.00000105
-0.53513867 -0.76404321 0.00000000
-0.02138028 -0.52438587 0.00000000
-0.09520521 -0.43152627 0.00000000
-0.14844033 -0.42221013 0.00000000
-0.75755882 -0.03016399 -0.00000177
-0.13468885 0.52170426 -0.00000008
-0.37297189 -0.37752837 0.00000000
-0.39495933 0.29397458 -0.00000079
-0.12266831 0.35001746 0.00000000
-0.20938382 -0.48419547 0.00000000
-0.26474652 -0.53266960 0.00000000
-0.08342674 -0.10728449 0.00000000
-0.34851992 -0.02238684 -0.00000003
-0.55876762 -0.59193373 0.00000000
-0.11948146 -0.53517550 0.00000000
-0.19283170 -0.74234456 0.43311980
-0.05690460 0.22753288 0.00000000
-0.03725547 0.33996457 0.00000000
-0.25462720 0.01920386 0.00000000
-0.02162968 0.49927324 0.00000000
-0.46618482 -0.39343908 0.00000000
-0.03845734 -0.48740837 0.00000000
-0.00978777 0.67390472 0.00000000
-0.34181306 0.11815854 -0.00000025
-0.11294692 0.16927782 0.00000000
-0.33615145 0.39239699 -0.00000071
-0.78903848 -0.39719108 -0.00000101
-0.56761622 0.22326700 -0.00000140
-0.66376877 -0.20950700 -0.00000105
-0.69057578 -0.77893770 -0.00000005
-0.20326249 -0.06477343 0.00000000
-0.51215261 0.10835559 -0.00000096
-0.04855657 0.08353280 0.00000000
-0.60113358 0.06648487 -0.00000127
-0.29393765 0.30611438 -0.00000038
-0.74493957 0.03880252 -0.00000183
-0.49502993 -0.36757588 -0.00000005
-0.09622801 0.62052959 -0.00000009
-0.49816138 0.10848543 -0.00000090
-0.08095909 0.71476644 -0.00000019
-0.11161989 0.19734561 0.00000000
-0.24258298 -0.71047735 0.54486626
-0.23582751 0.25585708 -0.00000004
-0.32041001 -0.58547783 0.00000000
-0.37091300 0.40275645 -0.00000088
-0.75030363 -0.70074874 -0.00000025
-0.64758432 -0.46005490 -0.00000054
-0.05569180 0.09999411 0.00000000
-0.04334166 -0.31047940 0.00000000
-0.27594048 -0.77856135 0.00000000
-0.70362902 -0.37827435 -0.00000092
-0.51967412 0.19239566 -0.00000114
-0.56651372 -0.15958345 -0.00000072
-0.17387196 -0.74754345 0.39053431
-0.71444303 -0.33125409 -0.00000105
-0.06265348 0.52851546 0.00000000
-0.61864805 -0.74961734 0.00000000
-0.60660970 -0.72204536 0.00000000
-0.16457240 -0.68993306 0.00000000
-0.19400792 -0.05579157 0.00000000
-0.13932252 -0.71820354 0.00000000
-0.45897147 -0.72397387 0.00000000
-0.42794758 -0.27659959 0.00000000
-0.38072488 -0.53699595 0.00000000
-0.13969979 0.64635432 -0.00000032
-0.63013917 -0.34535977 -0.00000066
-0.05000970 0.74266267 -0.00000011
-0.25479120 0.00798737 0.00000000
-0.44657308 0.00808907 -0.00000051
-0.02127979 0.06637601 0.00000000
-0.11528189 -0.78920329 0.25893500
-0.17757212 0.40983596 -0.00000007
-0.23499556 -0.02431169 0.00000000
-0.47295460 0.10756789 -0.00000079
-0.28771436 -0.45972344 0.00000000
-0.79270107 -0.61032498 -0.00000047
-0.57162243 -0.70818245 0.00000000
-0.05750783 -0.78922063 0.12916850
-0.42496637 -0.49072811 0.00000000
-0.18818866 0.21127139 0.00000000
-0.19950134 -0.78801078 0.00000000
-0.12907816 -0.02991270 0.00000000
-0.56726485 -0.41993383 -0.00000026
-0.46259335 0.12778915 -0.00000079
-0.72454935 -0.58935213 -0.00000053
-0.26897967 -0.67546755 0.00000000
-0.09952615 0.48385310 0.00000000
-0.02257112 -0.06796167 0.00000000
-0.02579470 0.14864504 0.00000000
-0.23402455 -0.72939074 0.52564323
-0.54056752 0.23925532 -0.00000132
-0.65778989 -0.41153780 -0.00000067
-0.27418229 0.19997074 -0.00000011
-0.01234604 0.49545270 0.00000000
-0.27591568 -0.59546882 0.00000000
-0.45274138 -0.40756121 0.00000000
-0.29622272 0.40990278 -0.00000057
-0.24244697 -0.33951268 0.00000000
-0.45259130 0.21869157 -0.00000090
-0.36003444 -0.11508231 0.00000000
-0.70963579 -0.79922366 -0.00000000
-0.28960583 -0.64832884 0.65048563
-0.72165459 -0.42177632 -0.00000092
-0.56427824 -0.35474372 -0.00000037
-0.05205281 0.57157749 0.00000000
-0.43473265 0.07767348 -0.00000058
-0.67715019 -0.33558333 -0.00000088
-0.08053540 -0.78435671 0.18089078
-0.66798580 -0.26353055 -0.00000097
-0.64958543 -0.60856527 -0.00000028
-0.20908777 -0.01711202 0.00000000
-0.47972226 -0.08198493 -0.00000049
-0.52214092 -0.17959619 -0.00000050
-0.22293440 -0.09455854 0.00000000
-0.16475050 -0.18679462 0.00000000
-0.26814964 -0.27147508 0.00000000
-0.18318856 0.38170180 -0.00000004
-0.16575550 -0.40618774 0.00000000
-0.17239396 0.09770102 0.00000000
-0.14369822 -0.24302006 0.00000000
-0.56977797 -0.39526591 -0.00000032
-0.18051855 0.30767190 0.00000000
-0.14373223 -0.71604174 0.32283738
-0.06005773 -0.10754269 0.00000000
-0.46896881 -0.03308324 -0.00000053
-0.05896017 -0.22786313 0.00000000
-0.79818135 -0.11405400 -0.00000171
-0.02092311 -0.18876879 0.00000000
-0.13036717 0.34473631 0.00000000
-0.26981491 -0.56583077 0.00000000
-0.15686636 -0.04288332 0.00000000
-0.28006256 -0.70119399 0.00000000
-0.69680434 -0.56198913 -0.00000057
-0.44362730 -0.54565823 0.00000000
-0.19544777 0.23116545 0.00000000
-0.59891802 -0.05395190 -0.00000105
-0.11655823 -0.20541278 0.00000000
-0.09468026 -0.79057598 0.21266159
-0.03773755 -0.64543325 0.00000000
-0.00798646 0.12816435 0.00000000
-0.74476218 -0.79961860 -0.00000000
-0.13089354 0.05648328 0.00000000
-0.19895971 -0.77344233 0.44688395
-0.47627899 0.20095664 -0.00000097
-0.25092381 0.47913468 -0.00000050
-0.24328506 -0.74938750 0.54644328
-0.47062594 -0.01295730 -0.00000057
-0.58662534 -0.24363215 -0.00000066
-0.28466493 -0.67158931 0.63938767
-0.26335239 -0.35618573 0.00000000
-0.04129510 0.66818869 0.00000000
-0.33601174 -0.30427533 0.00000000
-0.58147329 -0.33327222 -0.00000048
-0.09314460 -0.24966404 0.00000000
-0.01672547 0.43959981 0.00000000
-0.12681006 -0.03490346 0.00000000
-0.47763938 -0.15415402 -0.00000035
-0.10088507 0.22822841 0.00000000
-0.03308075 0.00587494 0.00000000
-0.32054004 -0.56747991 0.00000000
-0.22240672 -0.64972299 0.00000000
-0.77996618 -0.41076416 -0.00000097
-0.16530646 -0.75741535 0.37129530
-0.10781154 -0.12554830 0.00000000
-0.49833903 -0.68719554 0.00000000
-0.27283746 -0.74249089 0.61282134
-0.58008844 -0.74896514 0.00000000
-0.36293018 0.28708193 -0.00000064
-0.28745687 -0.35971373 0.00000000
-0.66368932 -0.34910473 -0.00000080
-0.20354369 -0.71002835 0.00000000
-0.48618573 -0.34343618 -0.00000005
-0.67638129 -0.18125281 -0.00000115
-0.69622582 -0.01852046 -0.00000152
-0.02397529 0.56865525 0.00000000
-0.24055649 -0.61048162 0.00000000
-0.58632129 -0.50643229 -0.00000019
-0.27012670 -0.28993738 0.00000000
-0.79672241 -0.07405792 -0.00000181
-0.25978479 -0.61559790 0.00000000
-0.14686744 0.33710137 0.00000000
-0.46268532 -0.34942549 0.00000000
-0.42024264 0.35969082 -0.00000102
-0.04201663 0.74062884 -0.00000007
-0.20422465 0.32932404 -0.00000004
-0.57514441 -0.06293219 -0.00000093
-0.59654623 -0.16541196 -0.00000084
-0.63980222 0.09085810 -0.00000148
-0.44248846 -0.79498029 0.00000000
-0.62422067 -0.16638640 -0.00000096
-0.38694993 0.28007093 -0.00000073
-0.31381473 0.05516951 -0.00000002
-0.00410926 -0.04596139 0.00000000
-0.08947228 0.34216470 0.00000000
-0.28502479 0.50253797 -0.00000069
-0.47752643 -0.35153309 -0.00000000
-0.21987744 -0.08189260 0.00000000
-0.75063157 -0.34920651 -0.00000113
-0.35189438 -0.48050016 0.00000000
-0.61863399 -0.00746343 -0.00000121
-0.22467206 0.05398279 0.00000000
-0.05269932 -0.42766628 0.00000000
-0.63984120 -0.50217378 -0.00000043
-0.07677319 -0.75319874 0.00000000
-0.44220018 -0.74000126 0.00000000
-0.51068121 -0.09940298 -0.00000059
-0.08874680 0.32125539 0.00000000
-0.37449789 -0.35979727 0.00000000
-0.42779899 -0.25135985 0.00000000
-0.52412945 -0.04514111 -0.00000074
-0.51827794 -0.04161512 -0.00000072
-0.22640045 0.29656780 -0.00000008
-0.20484321 0.29468042 0.00000000
-0.09326955 -0.23542465 0.00000000
-0.63765818 -0.36310890 -0.00000067
-0.76598579 -0.42400345 -0.00000094
-0.15877406 -0.61532444 0.00000000
-0.67188710 -0.65131384 -0.00000030
-0.76176161 -0.37774062 -0.00000106
-0.24286172 0.21688601 -0.00000001
-0.22095414 -0.31910548 0.00000000
-0.24723148 0.00750932 0.00000000
-0.38835272 -0.77395302 0.00000000
-0.26691255 -0.76962775 0.59951311
-0.69354320 -0.24460188 -0.00000111
-0.35567462 -0.45468888 0.00000000
-0.53021753 -0.58282274 0.00000000
-0.12431814 0.18985178 0.00000000
-0.04428442 -0.19650277 0.00000000
-0.10150603 -0.34923244 0.00000000
-0.07258301 0.24505948 0.00000000
-0.34163490 0.08909466 -0.00000020
-0.42674398 -0.29899320 0.00000000
-0.18966071 -0.02856246 0.00000000
-0.20528816 0.29204866 0.00000000
-0.39362675 -0.23297331 0.00000000
-0.65264344 -0.59192032 -0.00000032
-0.44100511 0.14359140 -0.00000072
-0.00525951 0.64927953 0.00000000
-0.49356705 -0.28461811 -0.00000019
-0.20489529 -0.41360757 0.00000000
-0.69968784 -0.41183999 -0.00000084
-0.25632647 -0.77561450 0.00000000
-0.14308272 0.57780689 -0.00000022
-0.12990269 0.60938972 -0.00000022
-0.07424635 0.52361095 0.00000000
-0.19275139 -0.77505589 0.43293944
-0.04946909 0.45053229 0.00000000
-0.76396030 0.01592115 -0.00000187
-0.17019144 0.10469859 0.00000000
-0.28826281 -0.66984689 0.00000000
-0.09991941 0.00534718 0.00000000
-0.70649308 -0.14781711 -0.00000134
-0.18372317 0.47546944 -0.00000021
-0.44263646 0.19044735 -0.00000081
-0.17507258 -0.55400622 0.00000000
-0.24358192 0.37257913 -0.00000028
-0.57427824 -0.39249611 -0.00000034
-0.30585486 -0.44827357 0.00000000
-0.28774869 0.41409639 -0.00000055
-0.29107141 -0.58695757 0.00000000
-0.21501976 0.34917465 -0.00000012
-0.35167229 -0.47040805 0.00000000
-0.33302829 -0.55376714 0.00000000
-0.41218242 -0.59201336 0.00000000
-0.32805356 0.06344279 -0.00000010
-0.78143829 -0.27754122 -0.00000131
-0.27177387 0.12996395 0.00000000
-0.32869437 -0.11178425 0.00000000
-0.45002985 0.09366951 -0.00000067
-0.41227645 0.00868333 -0.00000036
-0.57792038 0.21456128 -0.00000143
-0.24472098 0.31330651 -0.00000018
-0.58093601 0.21322735 -0.00000144
-0.61975855 -0.62816954 -0.00000012
-0.10134175 -0.37550205 0.00000000
-0.04262156 -0.20969798 0.00000000
-0.15260914 0.36391962 0.00000000
-0.07675624 -0.05405199 0.00000000
-0.21983343 0.45522860 -0.00000033
-0.13067932 -0.40456635 0.00000000
-0.05377464 -0.00283146 0.00000000
-0.02276223 0.30380094 0.00000000
-0.13768043 0.57143903 -0.00000018
-0.08852222 -0.79006988 0.19883002
-0.49088666 0.11982252 -0.00000089
-0.43578848 -0.50992650 0.00000000
-0.27337727 -0.76089698 0.61403370
-0.47382918 -0.41335270 0.00000000
-0.49504790 -0.21658023 -0.00000032
-0.04153813 -0.68220872 0.00000000
-0.15353103 -0.00214546 0.00000000
-0.11871092 0.59792924 -0.00000015
-0.02299185 -0.08915221 0.00000000
-0.07752066 0.27448612 0.00000000
-0.05079232 -0.04720951 0.00000000
-0.25011423 0.09774571 0.00000000
-0.38446611 -0.07668131 -0.00000009
-0.01759911 -0.01518805 0.00000000
-0.32620808 0.05953868 -0.00000008
-0.03243644 -0.22987121 0.00000000
-0.03162815 -0.72399765 0.00000000
-0.19097742 0.02760942 0.00000000
-0.52911609 0.21366946 -0.00000122
-0.27018636 0.42713410 -0.00000049
-0.06287764 -0.34865513 0.00000000
-0.04840951 0.29807663 0.00000000
-0.01256471 0.04566707 0.00000000
-0.01381463 0.03477464 0.00000000
-0.52194160 -0.60066670 0.00000000
-0.21603645 -0.53349674 0.00000000
-0.64748734 -0.35358188 -0.00000072
-0.65053892 -0.75838298 -0.00000002
-0.42055550 0.05905952 -0.00000049
-0.58806407 0.06385036 -0.00000121
-0.01077820 0.41007584 0.00000000
-0.77128184 -0.04746341 -0.00000179
-0.61038142 -0.26908404 -0.00000072
-0.10598240 -0.32226691 0.00000000
-0.22340648 -0.53632140 0.00000000
-0.23037462 -0.10583855 0.00000000
-0.07516262 -0.60311490 0.00000000
-0.02455324 0.20631245 0.00000000
-0.21272515 -0.18617043 0.00000000
-0.59158540 -0.63372976 0.00000000
-0.05899689 -0.14640570 0.00000000
-0.39441055 0.04570492 -0.00000035
-0.18478788 -0.12189467 0.00000000
-0.14452177 -0.11212690 0.00000000
-0.48388445 -0.29158321 -0.00000014
-0.23637137 -0.79202402 0.00000000
-0.36136833 -0.23945971 0.00000000
-0.28201291 0.39822620 -0.00000049
-0.52290887 -0.22933908 -0.00000041
-0.11673165 -0.46761894 0.00000000
-0.48220277 -0.02848510 -0.00000059
-0.70882207 -0.12200592 -0.00000140
-0.08880072 0.46762842 0.00000000
-0.11795898 -0.17103744 0.00000000
-0.14347444 -0.24756426 0.00000000
-0.57890171 -0.71068025 0.00000000
-0.58540034 -0.30704388 -0.00000054
-0.32145748 0.17962101 -0.00000028
-0.15345207 -0.67603678 0.00000000
-0.06341220 0.47752291 0.00000000
-0.44883785 0.23564771 -0.00000092
-0.32168782 -0.74308038 0.72254598
-0.17631504 0.15448698 0.00000000
-0.11261406 0.62087005 -0.00000016
-0.02011298 -0.61241001 0.00000000
-0.47369623 -0.22879767 -0.00000020
-0.13969599 -0.73334038 0.00000000
-0.59166944 -0.79600132 0.00000000
-0.25589997 -0.68569499 0.00000000
-0.10955654 -0.26359165 0.00000000
-0.47504967 0.12446044 -0.00000083
-0.10406707 -0.42470533 0.00000000
-0.63094568 -0.36546573 -0.00000063
-0.27767417 -0.48766157 0.00000000
-0.46815154 -0.77985239 0.00000000
-0.59573221 0.14018913 -0.00000138
-0.12762037 0.16596203 0.00000000
-0.17610584 -0.48726025 0.00000000
-0.56673634 -0.04599376 -0.00000092
-0.10959234 -0.58940011 0.00000000
-0.55828601 -0.40540022 -0.00000025
-0.73138672 -0.05084394 -0.00000162
-0.35256073 0.15567051 -0.00000037
-0.23262843 0.11431456 0.00000000
-0.55007178 -0.29513007 -0.00000041
-0.24036054 -0.75417596 0.00000000
-0.24608892 0.39696604 -0.00000034
-0.57908756 -0.35937679 -0.00000042
-0.05264079 -0.42351705 0.00000000
-0.35187680 -0.56448138 0.00000000
-0.09894294 -0.18799140 0.00000000
-0.73354763 -0.48338500 -0.00000079
-0.19374406 -0.71468735 0.43516910
-0.57220870 -0.13465415 -0.00000079
-0.31920603 -0.12419791 0.00000000
-0.01985847 -0.76560003 0.00000000
-0.33923122 -0.15324351 0.00000000
-0.05568547 0.11256073 0.00000000
-0.25208649 0.43586236 -0.00000043
-0.19282949 -0.44905999 0.00000000
-0.32819363 -0.31185666 0.00000000
-0.26375210 -0.30000567 0.00000000
-0.25370613 0.15883186 0.00000000
-0.25871807 -0.15141296 0.00000000
-0.23357461 -0.71504617 0.52463263
-0.45709735 -0.06024525 -0.00000043
-0.32185912 -0.65183991 0.00000000
-0.57397246 0.02428845 -0.00000108
-0.45174879 0.06314854 -0.00000063
-0.19733435 -0.10228179 0.00000000
-0.00694414 0.14478374 0.00000000
-0.50945497 -0.26220611 -0.00000030
-0.32720795 0.32436818 -0.00000056
-0.05577654 -0.67521721 0.00000000
-0.10702731 0.54924852 -0.00000001
-0.53199118 -0.27063912 -0.00000038
-0.08619261 0.35279399 0.00000000
-0.00998387 0.28571621 0.00000000
-0.54236847 -0.31531492 -0.00000034
-0.30813709 -0.71588165 0.69210929
-0.40730193 0.20585792 -0.00000069
-0.15871802 0.21507388 0.00000000
-0.44490570 -0.00073991 -0.00000048
-0.05932918 0.47143987 0.00000000
-0.20159337 -0.13391732 0.00000000
-0.07264415 0.56393379 0.00000000
-0.10485013 0.15884864 0.00000000
-0.27648112 -0.53320962 0.00000000
-0.24047208 -0.07748232 0.00000000
-0.55931932 -0.21223649 -0.00000060
-0.30623710 -0.78811628 0.00000000
-0.58916783 -0.45288554 -0.00000030
-0.59418190 -0.12013845 -0.00000091
-0.42041454 0.24947113 -0.00000082
-0.63674515 -0.23102652 -0.00000089
-0.29653338 -0.47181070 0.00000000
-0.39307469 -0.27187112 0.00000000
-0.20853354 0.58199573 -0.00000050
-0.75549597 -0.26448563 -0.00000134
-0.33318782 -0.73772103 0.00000000
-0.01526312 0.58587283 0.00000000
-0.07246118 0.07447959 0.00000000
-0.74458236 -0.11081401 -0.00000157
-0.20129216 0.43785819 -0.00000022
-0.07524550 -0.60025066 0.00000000
-0.78827697 -0.38750893 -0.00000103
-0.64485300 -0.73421580 -0.00000004
-0.61049485 0.00905415 -0.00000121
-0.12649173 -0.23176751 0.00000000
-0.35450122 -0.27079219 0.00000000
-0.12956311 0.16719034 0.00000000
-0.01364914 -0.64120096 0.00000000
-0.40169320 -0.40705726 0.00000000
-0.48673928 0.05115944 -0.00000075
-0.50935316 -0.00397030 -0.00000075
-0.06461227 -0.55972791 0.00000000
-0.57736623 -0.25185025 -0.00000060
-0.44163412 -0.16506478 -0.00000018
-0.08565724 0.25365311 0.00000000
-0.40064189 0.09105634 -0.00000046
-0.15283769 0.60757732 -0.00000031
-0.74996674 0.04769892 -0.00000187
-0.32634279 -0.78426212 0.00000000
-0.47234312 0.10677928 -0.00000079
-0.10416233 0.09207844 0.00000000
-0.36968756 0.11948555 -0.00000037
-0.48857746 -0.49275413 0.00000000
-0.13531113 -0.37592494 0.00000000
-0.50315207 0.20117876 -0.00000109
-0.13284682 0.11353503 0.00000000
-0.28996775 -0.51573998 0.00000000
-0.22901739 0.05372232 0.00000000
-0.65348065 -0.28038883 -0.00000088
-0.57013881 -0.03453046 -0.00000096
-0.19823524 -0.43812454 0.00000000
-0.20724444 -0.10890042 0.00000000
-0.23631664 -0.73300111 0.53079146
-0.02137054 -0.61112255 0.00000000
-0.06166675 -0.12530021 0.00000000
-0.49448222 0.27019033 -0.00000117
-0.56203312 -0.27441144 -0.00000050
-0.08165364 0.38337854 0.00000000
-0.31016186 -0.48103449 0.00000000
-0.18875681 -0.13537902 0.00000000
-0.46877742 0.24818373 -0.00000103
-0.35234269 -0.55342782 0.00000000
-0.28968397 -0.68504500 0.00000000
-0.43434289 -0.58187681 0.00000000
-0.67010099 -0.58113909 -0.00000042
-0.71273774 -0.34422496 -0.00000102
-0.30605048 0.24796803 -0.00000033
-0.11277569 -0.76380086 0.25330582
-0.61070371 -0.18853815 -0.00000086
-0.42092815 0.00268207 -0.00000039
-0.17490488 -0.72048205 0.39285436
-0.65494281 -0.30656198 -0.00000084
-0.38864613 -0.22674075 0.00000000
-0.32863504 -0.06879226 0.00000000
-0.08974353 0.65749675 -0.00000013
-0.14125670 0.37852746 0.00000000
-0.27657214 -0.69689727 0.00000000
-0.24319465 0.50950581 -0.00000052
-0.36780167 0.04835355 -0.00000024
-0.24747866 0.29429960 -0.00000016
-0.57855099 -0.31954360 -0.00000049
-0.58502799 -0.17111644 -0.00000078
-0.71036273 -0.71302402 -0.00000022
-0.37096909 -0.71879500 0.00000000
-0.19841078 -0.72712433 0.44565102
-0.10578810 0.68759120 -0.00000025
-0.09547820 -0.53625584 0.00000000
-0.68477350 -0.12637401 -0.00000128
-0.02424864 -0.76830119 0.00000000
-0.09248408 -0.63473231 0.00000000
-0.14898315 -0.46813634 0.00000000
-0.10881783 0.13312300 0.00000000
-0.18374147 -0.79574955 0.41270223
-0.27155560 -0.77529728 0.00000000
-0.17368539 -0.63969952 0.00000000
-0.01120400 -0.39798969 0.00000000
-0.30198979 -0.66762769 0.00000000
-0.74528933 -0.79180259 -0.00000002
-0.74632835 -0.70748007 -0.00000023
-0.46417764 0.08657986 -0.00000072
-0.53261304 -0.37524977 -0.00000020
-0.57187951 -0.32147640 -0.00000046
-0.34054953 -0.30034289 0.00000000
-0.21792705 -0.18648966 0.00000000
-0.28999320 -0.72586644 0.65135550
-0.65685308 -0.34255093 -0.00000078
-0.11086869 0.49608564 0.00000000
-0.60679978 -0.35760936 -0.00000054
-0.39899620 0.01076554 -0.00000031
-0.24085750 -0.27897263 0.00000000
-0.47094879 -0.25353342 -0.00000015
-0.59200507 -0.61171031 -0.00000003
-0.16320176 -0.29897800 0.00000000
-0.50964671 0.23354501 -0.00000117
-0.27470869 -0.65707475 0.61702460
-0.01405913 -0.06294973 0.00000000
-0.07904495 0.09401688 0.00000000
-0.08758011 0.51271021 0.00000000
-0.06809151 0.41761208 0.00000000
-0.29819039 -0.72535741 0.66976756
-0.52271640 -0.29879591 -0.00000029
-0.28023428 -0.64882886 0.00000000
-0.09214372 -0.31458735 0.00000000
-0.51145530 0.10208947 -0.00000095
-0.06314003 -0.22812705 0.00000000
-0.00960646 0.22186905 0.00000000
-0.29540145 -0.30904755 0.00000000
-0.35643312 -0.06799221 0.00000000
-0.30489051 0.00589878 0.00000000
-0.21013486 -0.73727804 0.00000000
-0.27293450 -0.20238692 0.00000000
-0.22371507 -0.30558068 0.00000000
-0.34567711 -0.15472788 0.00000000
-0.68918651 0.03119359 -0.00000158
-0.39017582 0.22785741 -0.00000065
-0.19160698 -0.27720273 0.00000000
-0.23257375 0.45451015 -0.00000038
-0.06559617 -0.44027349 0.00000000
-0.06862655 -0.63347846 0.00000000
-0.63185531 -0.45410493 -0.00000048
-0.19290420 -0.71139771 0.43328270
-0.36355186 -0.58215213 0.00000000
-0.65559620 -0.57637852 -0.00000036
-0.39609289 -0.14251904 -0.00000002
-0.47107968 -0.66085893 0.00000000
-0.43336523 0.21691208 -0.00000082
-0.02751728 0.04541504 0.00000000
-0.59233731 -0.75656837 0.00000000
-0.49161816 -0.38779211 0.00000000
-0.16588348 0.11458690 0.00000000
-0.62634617 -0.00946138 -0.00000124
-0.34476548 -0.44004691 0.00000000
-0.21050166 -0.75904101 0.47280836
-0.42024627 -0.21603845 0.00000000
-0.06365277 -0.29675537 0.00000000
-0.18208744 -0.72905982 0.00000000
-0.72875112 -0.17800713 -0.00000138
-0.44266564 0.25225008 -0.00000092
-0.03579553 0.32441375 0.00000000
-0.10100610 -0.76526082 0.22687007
-0.08624458 -0.41665956 0.00000000
-0.12981157 -0.01191298 0.00000000
-0.50150490 -0.44174474 0.00000000
-0.63334680 -0.67242318 -0.00000010
-0.22198097 -0.69164902 0.49859208
-0.46260145 -0.07668200 -0.00000042
-0.35708356 -0.43029922 0.00000000
-0.25629771 0.34501833 -0.00000029
-0.76619565 -0.75725752 -0.00000011
-0.74425524 -0.75026304 -0.00000012
-0.30278373 -0.69082052 0.00000000
-0.35742667 0.07852807 -0.00000025
-0.26075795 0.29995763 -0.00000023
-0.45908701 0.05368529 -0.00000064
-0.47737688 0.20643787 -0.00000099
-0.15237084 -0.03388599 0.00000000
-0.37602258 -0.70052791 0.00000000
-0.37957087 -0.59000480 0.00000000
-0.62980902 -0.78865325 0.00000000
-0.31864095 -0.10367384 0.00000000
-0.30175313 -0.00167083 0.00000000
-0.66845578 0.01787950 -0.00000147
-0.18182938 0.24998683 0.00000000
-0.01816627 -0.10319550 0.00000000
-0.35214585 -0.35316631 0.00000000
-0.22620562 -0.64500862 0.00000000
-0.23203807 0.49793801 -0.00000046
-0.21216729 0.32239884 -0.00000006
-0.68342930 -0.50375551 -0.00000061
-0.29634652 -0.76703757 0.00000000
-0.50278687 -0.68696338 0.00000000
-0.31219923 -0.48849896 0.00000000
-0.29674742 -0.13516644 0.00000000
-0.14251782 -0.34204793 0.00000000
-0.39677441 -0.01399948 -0.00000025
-0.25868291 0.31577405 -0.00000025
-0.14365281 0.07667632 0.00000000
-0.69300628 -0.42064250 -0.00000080
-0.74388242 -0.62479579 -0.00000044
-0.26091585 0.34137720 -0.00000030
-0.63734162 -0.08385628 -0.00000116
-0.73331398 -0.73946029 -0.00000015
-0.75720698 -0.61761165 -0.00000046
-0.12405898 0.04533381 0.00000000
-0.46209589 0.13886695 -0.00000080
-0.75688601 -0.11258198 -0.00000162
-0.28764829 0.42749670 -0.00000057
-0.29216132 -0.64314461 0.00000000
-0.36182886 -0.28429815 0.00000000
-0.20608640 0.40215841 -0.00000018
-0.32894272 -0.35713208 0.00000000
-0.47067815 -0.60701931 0.00000000
-0.39127001 -0.72191352 0.00000000
-0.11877683 -0.78669429 0.26678497
-0.35487193 -0.42368773 0.00000000
-0.38792741 0.25917265 -0.00000070
-0.16289459 -0.04085367 0.00000000
-0.42726237 0.28829676 -0.00000092
-0.41460535 -0.77521223 0.00000000
-0.30635485 -0.28218368 0.00000000
-0.37209302 0.21854793 -0.00000056
-0.43601164 0.29017416 -0.00000096
-0.15289576 -0.61978805 0.00000000
-0.73233098 -0.64184552 -0.00000040
-0.24864389 -0.67772835 0.55847973
-0.12837677 0.58008051 -0.00000016
-0.25279778 -0.66408026 0.00000000
-0.43256339 0.25772741 -0.00000089
-0.62312943 -0.28760639 -0.00000074
-0.01807277 0.59476733 0.00000000
-0.31802776 -0.70043629 0.71432513
-0.22816457 0.42306942 -0.00000031
-0.62323183 0.03509700 -0.00000131
-0.24485821 0.05402940 0.00000000
-0.06851058 -0.56045681 0.00000000
-0.73975617 -0.71964109 -0.00000020
-0.10711065 -0.41038677 0.00000000
-0.38973996 -0.17819016 0.00000000
-0.47909942 -0.00496074 -0.00000062
-0.65074849 -0.48389775 -0.00000051
-0.49073166 -0.51291484 0.00000000
-0.21286596 0.47791129 -0.00000034
-0.44698417 -0.10162346 -0.00000031
-0.75367326 -0.66725588 -0.00000033
-0.32357138 -0.40822554 0.00000000
-0.35406509 -0.21303077 0.00000000
-0.04407845 -0.50564194 0.00000000
-0.10310975 -0.47412369 0.00000000
-0.05397163 -0.31014702 0.00000000
-0.45235166 -0.15924005 -0.00000023
-0.67547202 -0.61891830 -0.00000037
-0.40160874 0.02842877 -0.00000035
-0.73297834 -0.48132256 -0.00000080
-0.10799260 0.44101137 0.00000000
-0.46104118 -0.43815649 0.00000000
-0.25451386 -0.74605328 0.57166427
-0.48125905 -0.34328139 -0.00000003
-0.23254891 0.09936106 0.00000000
-0.37614614 -0.00841997 -0.00000018
-0.51104224 0.14408755 -0.00000102
