ply
format ascii 1.0
element vertex 1298
property float x
property float y
property float z
end_header
-0.08757704 0.12378701 0.00000766
-0.34384131 -0.02995992 -0.00080939
-0.24886940 -0.56513375 0.00000165
-0.25783616 0.19848321 -0.13103554
-0.46830821 -0.32026184 -0.06452104
-0.43744835 -0.25610778 0.18760668
-0.35130194 -0.74235928 0.00000216
-0.25205141 -0.21170443 0.00000189
-0.43272486 -0.24469727 0.03285570
-0.42213425 -0.20846643 -0.06654789
-0.53423023 -0.48910984 -0.00381431
-0.31076935 -0.42396039 0.00000211
-0.49701801 -0.39992622 0.27370265
-0.00830754 -0.00965921 0.00000054
-0.28182587 -0.25725514 0.00000204
-0.41717139 -0.20716000 0.30876097
-0.39719895 -0.76031691 0.00000242
-0.31956568 0.02848430 0.30003282
-0.53811872 -0.49914959 0.21763363
-0.16468792 0.40239939 0.16209550
-0.21093827 0.31452131 -0.14867900
-0.23900463 0.22299638 0.01517923
-0.63633603 -0.73626131 0.15477405
-0.60163426 -0.65248173 0.00880778
-0.05002215 0.67923599 0.01367177
-0.10981111 -0.17767049 0.00000105
-0.43843135 -0.23100676 -0.17169595
-0.44835821 -0.27361801 -0.05501763
-0.11403054 0.53807670 -0.08362938
-0.45268261 -0.29288787 0.21302469
-0.34128615 -0.01026462 -0.08543586
-0.54200411 -0.50852960 0.26759470
-0.35405260 -0.01075069 -0.27526376
-0.47212201 -0.31686106 -0.14341515
-0.06231462 0.05935906 0.00000930
-0.47350705 -0.29652470 -0.29159313
-0.06774442 -0.43529198 0.00000064
-0.30131397 0.07256808 0.03705706
-0.05509329 -0.70504045 0.00000039
-0.09547937 -0.74869823 0.00000061
-0.16257317 0.06654254 0.00000618
-0.54396433 -0.51326180 0.24467891
-0.42177659 -0.21827419 0.22373246
-0.26466358 0.18894532 -0.17449389
-0.05082162 -0.34463993 0.00000059
-0.56884533 -0.57332659 0.11515268
-0.10659886 0.20677426 0.00000594
-0.27996278 0.12409609 0.26345438
-0.03167120 -0.33684012 0.00000048
-0.14723457 -0.35788330 0.00000116
-0.28816468 -0.43639818 0.00000197
-0.09588339 0.07098693 0.00000813
-0.43279108 -0.24487011 0.32352281
-0.26159155 0.16845404 0.18282963
-0.32813042 0.00782100 0.12677848
-0.62237960 -0.67066199 -0.19940823
-0.10757134 -0.77588844 0.00000066
-0.35478604 -0.03497177 -0.13477094
-0.18662003 -0.65670049 0.00000122
-0.58522880 -0.61288059 0.21901621
-0.41504157 -0.14791496 -0.33830196
-0.31426367 -0.65804553 0.00000199
-0.55908173 -0.50818318 -0.25989449
-0.38517669 -0.12991327 0.21377575
-0.23431925 -0.36898008 0.00000168
-0.44858462 -0.28176785 -0.00744009
-0.40318435 -0.13270485 -0.25435644
-0.45611382 -0.29016545 -0.06863311
-0.12340974 -0.64324653 0.00000084
-0.41985545 -0.21363468 0.19101197
-0.07500256 -0.19172372 0.00000083
-0.17524196 0.37692726 0.06933821
-0.16050836 0.43839842 -0.16201814
-0.40858093 -0.18641567 0.19627738
-0.19501156 0.32920289 0.02888375
-0.59326071 -0.63227087 0.16009220
-0.07487977 0.61922467 0.01767896
-0.15264297 -0.04855013 0.00000139
-0.09254013 -0.27213165 0.00000089
-0.52352619 -0.45440400 -0.05928420
-0.24369062 -0.42442259 0.00000171
-0.48377627 -0.36795339 0.17781842
-0.26940563 0.14959620 0.09624173
-0.60309833 -0.65601712 0.02725706
-0.14173675 0.45781797 0.03414010
-0.26804712 0.15286383 0.24947180
-0.25126275 -0.73328412 0.00000156
-0.47490841 -0.34654257 0.13742381
-0.25297350 0.22639295 -0.23222931
-0.50082773 -0.39701054 -0.07552639
-0.34945488 -0.03258667 -0.06917480
-0.21582919 0.27892953 0.22715591
-0.46389484 -0.29974407 -0.12623972
-0.13992067 0.46219888 0.07821563
-0.09703149 -0.17579979 0.00000098
-0.29575476 0.08598805 0.05050304
-0.24231879 0.21499519 0.01717616
-0.41581768 -0.77880138 0.00000252
-0.21568103 0.27929181 0.16901799
-0.15079550 0.08877593 0.00000623
-0.03802110 0.49303699 0.00000407
-0.37045059 -0.65660125 0.00000233
-0.11266118 -0.30261832 0.00000099
-0.34063423 -0.63673872 0.00000216
-0.45235541 -0.29209825 0.22166631
-0.60042876 -0.64957559 0.19817708
-0.19612169 0.35085779 -0.15222707
-0.09813749 0.18753207 0.00000646
-0.27205426 0.17206387 -0.18050647
-0.05490597 0.67598981 -0.05344940
-0.16898401 0.39203948 0.01431692
-0.13066053 0.49500281 -0.06531530
-0.22852612 -0.60979021 0.00000150
-0.14954337 0.00010954 0.00000749
-0.45740080 -0.28992814 -0.08955997
-0.32099816 0.04982284 -0.15495563
-0.08798858 -0.08862303 0.00000098
-0.39685211 -0.15809721 0.14252853
-0.14626671 0.44806802 -0.00737282
-0.27990273 -0.42464611 0.00000192
-0.04652575 0.41610426 0.00000487
-0.18899243 -0.72502810 0.00000119
-0.04477586 0.38311964 0.00000538
-0.10869551 0.53758276 0.07242216
-0.30225736 0.10603015 -0.22356834
-0.45865351 -0.26397949 -0.27085775
-0.62047356 -0.69796687 0.12190086
-0.38596287 -0.78944808 0.00000234
-0.04385541 0.69662285 -0.01562209
-0.37656006 -0.07069025 -0.24020042
-0.34810060 -0.55482018 0.00000225
-0.49470931 -0.38999283 -0.02701113
-0.11145443 -0.74952674 0.00000070
-0.23378471 -0.49534714 0.00000160
-0.13922130 0.46388167 0.14840399
-0.25604153 0.18184903 0.23096167
-0.24508046 -0.78945160 0.00000149
-0.59403980 -0.63414788 0.02771315
-0.63470685 -0.71818787 -0.08822689
-0.07168414 0.08212091 0.00000871
-0.32305619 0.03211762 -0.07525009
-0.12557288 0.18446282 0.00000567
-0.38335115 -0.11817370 -0.04567243
-0.53754365 -0.47090751 -0.16777021
-0.35066766 -0.61810535 0.00000223
-0.08270641 -0.56507295 0.00000065
-0.04785237 0.17162929 0.00000820
-0.52917683 -0.43528265 -0.26430118
-0.01804164 -0.64071709 0.00000021
-0.05694377 0.66252345 0.04451155
-0.10650198 0.54287934 0.05965078
-0.15109085 0.45466471 -0.12153521
-0.16508123 0.40145829 0.05530935
-0.00710120 -0.54055184 0.00000021
-0.37528989 -0.10604687 0.27108705
-0.36639810 -0.08458414 0.37687930
-0.14545123 -0.00196181 0.00000138
-0.26618668 0.15735251 0.28425369
-0.11690201 0.51839966 -0.00387322
-0.62888938 -0.71828395 0.13580377
-0.46017721 -0.29870984 -0.07655079
-0.00917572 -0.19952404 0.00000043
-0.17388964 0.40822843 -0.17537515
-0.46044266 -0.31162483 0.26805982
-0.14964072 -0.76992637 0.00000092
-0.32759380 0.00910917 0.22019511
-0.44972500 -0.28404263 -0.01043295
-0.28517598 0.13491355 -0.14625995
-0.38111380 -0.09373791 -0.16478060
-0.26351503 0.17762724 -0.08631452
-0.20634423 -0.39499563 0.00000150
-0.33953848 0.01248531 -0.20139994
-0.34739017 0.01258189 -0.32062429
-0.46090156 -0.31273055 0.21984504
-0.01921464 -0.79114288 0.00000012
-0.34351999 -0.02934310 0.26344281
-0.34584033 -0.01908014 -0.09907148
-0.52607292 -0.47006923 0.23703480
-0.46726280 -0.32397419 -0.02549819
-0.40715563 -0.17503443 -0.04947178
-0.22275987 0.26219746 0.22818549
-0.11000722 -0.35549244 0.00000094
-0.31884262 0.03024362 0.12562533
-0.24083970 0.21856003 0.09314329
-0.17986538 0.36576372 0.09145788
-0.33981115 0.03001732 -0.31523275
-0.26887727 0.15087026 0.11497668
-0.33722651 -0.01415644 0.35192400
-0.12375986 -0.30804315 0.00000105
-0.38239145 -0.79218996 0.00000231
-0.03588929 0.05349786 0.00001018
-0.38806024 -0.11391448 -0.14346306
-0.34137413 -0.54649031 0.00000222
-0.33534622 -0.00959457 0.06716434
-0.01166229 -0.05197503 0.00000054
-0.19280791 0.36382344 -0.18330202
-0.24687032 0.22408605 -0.12558877
-0.07089699 -0.79032880 0.00000043
-0.11139001 0.53537589 -0.02683593
-0.16597696 -0.27379060 0.00000133
-0.32547385 -0.51524818 0.00000214
-0.62584430 -0.70776016 -0.01959028
-0.43961474 -0.26134476 0.34085968
-0.53485316 -0.48842275 -0.01752402
-0.32018793 0.02700128 0.05645774
-0.15307182 -0.00317788 0.00000142
-0.21378697 -0.78203440 0.00000130
-0.06791493 0.49809644 0.00000310
-0.44435427 -0.23922127 -0.20976900
-0.60298145 -0.65573758 0.08565358
-0.16858193 0.41809016 -0.15690278
-0.41557565 -0.15302962 -0.31436518
-0.51499987 -0.44333416 0.17555313
-0.34139654 -0.02422283 0.34122321
-0.21698569 -0.78352332 0.00000132
-0.30333045 0.07257466 -0.03041867
-0.03585102 -0.52168512 0.00000039
-0.24962015 -0.79477143 0.00000151
-0.53732389 -0.49723080 0.21917561
-0.32943290 -0.77415913 0.00000200
-0.31831583 -0.56415439 0.00000207
-0.41873485 -0.21092515 0.09943350
-0.22440073 -0.18938555 0.00000174
-0.04872575 -0.44934064 0.00000051
-0.10575697 0.55354786 -0.05545314
-0.03384939 -0.34346136 0.00000049
-0.32560346 0.02656411 -0.07897943
-0.34134442 0.01688873 -0.25623932
-0.41984153 -0.19733968 -0.10153789
-0.00694144 -0.42793745 0.00000027
-0.17204472 -0.61937386 0.00000115
-0.57783842 -0.56791729 -0.16945185
-0.01859533 -0.63740402 0.00000021
-0.47633746 -0.35000011 0.30431077
-0.33495727 0.00009319 -0.05464010
-0.44340536 -0.25299415 -0.10925057
-0.51684391 -0.44777852 0.00717625
-0.38294208 -0.06849771 -0.35033792
-0.44786555 -0.27568427 -0.03464560
-0.40723813 -0.18316783 0.06182197
-0.28766471 -0.51389593 0.00000191
-0.49529988 -0.39577234 0.13955468
-0.04497533 0.61388195 0.00000220
-0.50748444 -0.37419286 -0.31887314
-0.00142325 0.37358075 0.00000682
-0.56422949 -0.52732450 -0.21787906
-0.00904794 -0.14821152 0.00000046
-0.19837369 0.32107618 0.15436956
-0.54093564 -0.50594777 0.14950298
-0.48372221 -0.33505934 -0.20477954
-0.20691654 -0.59307581 0.00000138
-0.38410881 -0.08734676 -0.25000861
-0.54390538 -0.51311952 0.23496217
-0.33055872 0.00194249 0.33210894
-0.19439836 0.34299633 -0.07699544
-0.54567319 -0.51738727 0.23222916
-0.27512449 -0.71383172 0.00000171
-0.65981114 -0.77836096 -0.09094144
-0.46581760 -0.32459000 0.01845050
-0.51873451 -0.42169946 -0.19154721
-0.30155379 0.07198274 0.11812391
-0.41596207 -0.17042920 -0.21132490
-0.20075651 0.31532869 0.08977210
-0.35705584 -0.06201850 0.22893997
-0.14192630 0.21254696 0.00000479
-0.33773786 -0.01537422 0.14003143
-0.08803237 -0.01656748 0.00000102
-0.37417945 -0.10335814 0.09393627
-0.30374148 0.06669048 0.25468647
-0.33802944 -0.01607211 0.06405473
-0.00238789 -0.62218392 0.00000013
-0.17729896 0.38628250 -0.08954626
-0.20028321 -0.53255051 0.00000138
-0.14379929 -0.25255534 0.00000121
-0.32636228 -0.54715014 0.00000213
-0.06396789 -0.61475849 0.00000050
-0.16832308 -0.76382947 0.00000104
-0.05376619 0.18229313 0.00000787
-0.23519903 0.23217635 0.10977842
-0.17368060 0.38069215 0.12658297
-0.66005671 -0.77202809 -0.13428465
-0.05938679 0.12629165 0.00000847
-0.41982347 -0.14540468 -0.42624846
-0.39470360 -0.15292051 0.37370953
-0.39830154 -0.16160022 0.22680722
-0.13868076 0.19636270 0.00000512
-0.15613781 0.42595741 -0.01813482
-0.05169117 -0.05853713 0.00000078
-0.10922653 -0.17622951 0.00000105
-0.38193929 -0.09169347 -0.19004425
-0.30665967 0.07468210 -0.09390310
-0.36257824 -0.07534880 0.06280291
-0.51357776 -0.42197660 -0.11191120
-0.35490000 -0.65073681 0.00000224
-0.17082731 0.11124008 0.00000532
-0.34189013 -0.02541031 0.28906497
-0.40007168 -0.16588081 0.38466001
-0.34297064 -0.02800992 0.02538849
-0.18164620 0.36146164 0.12722199
-0.45002660 -0.28647006 0.08864944
-0.32364461 0.01863836 0.28253376
-0.07782963 0.61350715 -0.00875909
-0.24025843 -0.22408672 0.00000181
-0.34472737 -0.03226025 0.29320133
-0.27792543 0.12902822 0.09080764
-0.44861180 -0.26531810 -0.11078494
-0.30990988 0.05542139 -0.02247432
-0.41467091 -0.75079864 0.00000253
-0.37212798 -0.09840671 0.12407218
-0.42536232 -0.21336724 -0.08464614
-0.30055928 0.07439104 0.02471304
-0.14088756 0.10100762 0.00000636
-0.24195267 0.21829537 -0.01505731
-0.56166840 -0.55493236 -0.00642865
-0.19915712 -0.34930629 0.00000148
-0.55844849 -0.54082847 -0.04604192
-0.30643642 0.06020028 0.05290044
-0.00921272 0.07939289 0.00001063
-0.13685139 -0.16682233 0.00000122
-0.25466195 -0.45731187 0.00000175
-0.03662539 0.09558757 0.00000958
-0.11843275 -0.36956590 0.00000098
-0.13779946 0.06802253 0.00000691
-0.30721843 0.06244031 -0.02573696
-0.09035184 -0.32987422 0.00000084
-0.33393654 -0.53768331 0.00000218
-0.47714680 -0.29283509 -0.36966974
-0.20614745 -0.38980743 0.00000150
-0.41723466 -0.20716491 -0.00067554
-0.36940879 -0.04674895 -0.28198469
-0.41149819 -0.19345754 0.17249104
-0.09512875 -0.79152030 0.00000058
-0.51321721 -0.39061677 -0.30270314
-0.50013983 -0.40746272 0.26788309
-0.26152071 0.16863571 0.04751677
-0.28953135 0.13179454 -0.19254085
-0.28271410 -0.37714908 0.00000197
-0.32878864 0.00623791 0.05176998
-0.35205230 -0.04993813 0.21838643
-0.04605913 -0.08943410 0.00000072
-0.38281393 -0.12420090 0.03148589
-0.40975726 -0.16119018 -0.17540435
-0.50002915 -0.40719217 0.19159752
-0.06273472 -0.56980675 0.00000052
-0.43777603 -0.25690702 0.37135053
-0.00003482 -0.22603609 0.00000036
-0.53292388 -0.48660278 0.08654288
-0.37052488 -0.07692315 -0.11003575
-0.47001097 -0.33471918 0.14048737
-0.06180534 -0.66310763 0.00000046
-0.02146721 0.54007989 0.00000393
-0.34675682 -0.03715341 0.08725092
-0.23689184 -0.11617404 0.00000186
-0.11499837 0.09975504 0.00000716
-0.54114860 -0.46320423 -0.27043870
-0.06302691 -0.55494601 0.00000053
-0.36565685 -0.08279136 0.33575144
-0.17844769 0.36918226 0.14249000
-0.20681714 -0.67298967 0.00000133
-0.30789369 -0.64501745 0.00000196
-0.45409802 -0.29062676 -0.03529431
-0.55145615 -0.53134495 0.10906462
-0.38727894 -0.10824952 -0.16710880
-0.28770116 0.11861075 -0.08238800
-0.11204610 0.52949482 0.05951768
-0.60948044 -0.63864744 -0.20487431
-0.20044108 0.01151241 0.00000579
-0.54275060 -0.50080997 -0.05931465
-0.12039967 0.51800090 -0.05421866
-0.20922603 0.32418662 -0.18329567
-0.39046422 -0.10978571 -0.20561495
-0.37152207 -0.09695169 0.34319821
-0.10705596 0.09868592 0.00000741
-0.28601694 0.14116767 -0.19810273
-0.37260044 -0.09954826 0.14322995
-0.36291274 -0.02343378 -0.32974952
-0.25651482 0.18071288 0.14937530
-0.16927680 0.40362048 -0.07685049
-0.33649778 0.01838807 -0.19240136
-0.18428884 -0.23876487 0.00000146
-0.45505133 -0.29860666 0.21722656
-0.51521456 -0.42324835 -0.12868030
-0.26320952 -0.44097331 0.00000181
-0.15643407 0.02120075 0.00000699
-0.33628812 -0.00824429 -0.02259154
-0.24632077 0.22792608 -0.14131685
-0.59573728 -0.62570089 -0.07826038
-0.51180500 -0.43561944 0.14136083
-0.18147060 -0.44516885 0.00000132
-0.06780561 0.26206914 0.00000635
-0.42190588 -0.16430166 -0.33945903
-0.37139145 -0.08026424 -0.10222021
-0.30779570 0.05775951 -0.00516568
-0.02563229 0.63197076 0.00000254
-0.21900615 -0.58846390 0.00000145
-0.15167411 0.45125157 -0.10898779
-0.08914651 0.01120804 0.00000916
-0.53556728 -0.49299008 0.22288127
-0.45076364 -0.28826043 0.33486024
-0.23323220 0.27393061 -0.23147324
-0.38861862 -0.13822734 0.31338513
-0.49969035 -0.40637240 0.15033001
-0.11883969 0.51581204 -0.01695376
-0.37373772 -0.06855890 -0.21089926
-0.32977864 0.05513992 -0.32088134
-0.15351415 -0.79109442 0.00000093
-0.42633563 -0.22928217 0.25605169
-0.10818234 0.53882056 0.08592458
-0.15320250 -0.71753269 0.00000098
-0.36223084 -0.78290939 0.00000220
-0.12547007 -0.68231618 0.00000083
-0.49734166 -0.39790905 -0.01724144
-0.58085638 -0.59174514 -0.06593807
-0.48243472 -0.32079041 -0.27461758
-0.61168540 -0.66947258 -0.04528130
-0.37373197 -0.10228215 0.28368095
-0.09899299 0.57012016 -0.05697383
-0.52968383 -0.44373938 -0.21903917
-0.49982196 -0.39977503 -0.04303409
-0.05848281 0.23406430 0.00000702
-0.14551757 0.24989155 0.00000417
-0.16681270 -0.07974937 0.00000146
-0.56735551 -0.56973171 0.15971316
-0.45336285 -0.29453596 0.34776947
-0.63010490 -0.71032703 -0.06789274
-0.42789197 -0.23190905 -0.00683529
-0.48742756 -0.37676641 0.13134854
-0.22312462 0.26692456 -0.03492877
-0.28105327 0.12147514 0.11446622
-0.47312742 -0.34224543 0.19426750
-0.25741762 -0.64189565 0.00000165
-0.41688406 -0.20645681 0.09671508
-0.24744809 0.22893292 -0.16464850
-0.16903207 0.39192057 0.05108009
-0.26344344 0.16398212 0.19714934
-0.54121041 -0.50661349 0.23168951
-0.51235622 -0.41392276 -0.14385517
-0.45745638 -0.26970676 -0.21693504
-0.02800053 0.50409812 0.00000422
-0.47470176 -0.30783868 -0.23884429
-0.61116737 -0.67549878 0.05322586
-0.16262700 0.40737927 0.10589964
-0.58728927 -0.60901952 -0.05502315
-0.07682328 0.28642657 0.00000574
-0.37674296 -0.65403390 0.00000237
-0.18875165 -0.15167563 0.00000154
-0.31195241 -0.37904701 0.00000215
-0.42243296 -0.21985935 0.23627292
-0.22678535 0.28767794 -0.22010615
-0.53060168 -0.48100230 0.24360713
-0.41866088 -0.18455894 -0.16367801
-0.14753543 -0.05633305 0.00000136
-0.47649309 -0.35036328 0.02417623
-0.00800671 -0.79331279 0.00000005
-0.28045276 0.12292452 0.11949848
-0.41467342 -0.20112339 0.17650530
-0.09694037 -0.22993088 0.00000094
-0.41664383 -0.20140956 -0.02776426
-0.12908620 -0.59366512 0.00000091
-0.58094138 -0.57239693 -0.18829881
-0.04536177 -0.45105630 0.00000049
-0.06044862 0.10861677 0.00000868
-0.44506600 -0.21145043 -0.39429697
-0.00897891 -0.12173805 0.00000048
-0.04290556 -0.53489286 0.00000042
-0.29347903 0.09217944 -0.00427288
-0.05398839 -0.05911967 0.00000079
-0.25164160 0.20433478 -0.07406945
-0.44209301 -0.26732120 0.19272034
-0.05914054 0.29741824 0.00000613
-0.27945068 0.16720109 -0.26181725
-0.36832014 -0.08568020 -0.02193249
-0.54993075 -0.52765995 0.05698036
-0.04111921 -0.14606930 0.00000066
-0.03980851 -0.13700712 0.00000065
-0.07997564 0.61864954 -0.07336047
-0.33060595 0.00183359 0.26648709
-0.24036878 0.23396030 -0.08915847
-0.03263749 -0.35748595 0.00000047
-0.00214691 0.66342950 0.00000281
-0.50194269 -0.41181356 0.22825935
-0.15277363 -0.73041445 0.00000097
-0.25872180 0.18146428 -0.03791245
-0.17380267 -0.72435153 0.00000110
-0.44214210 -0.26743379 0.05832165
-0.33280760 0.03565744 -0.24472193
-0.26147735 -0.20062952 0.00000195
-0.03092045 -0.10537970 0.00000062
-0.36992636 -0.09309595 0.22325395
-0.22371501 0.27169603 -0.07370763
-0.35781920 -0.06385968 0.06990555
-0.62959820 -0.71999347 0.01888854
-0.20558026 0.30678570 -0.01932380
-0.40606219 -0.18034467 0.41656569
-0.13428342 -0.10576831 0.00000124
-0.27923214 -0.29479191 0.00000200
-0.61414391 -0.68268430 0.04149617
-0.03853630 0.54674917 0.00000332
-0.41652992 -0.77502882 0.00000253
-0.46923494 -0.28239858 -0.31545019
-0.16372488 0.40473300 0.05212781
-0.35778454 -0.06377363 0.01722627
-0.25224802 -0.19820803 0.00000190
-0.40642488 -0.18120493 0.07203090
-0.44522542 -0.22736761 -0.29710335
-0.22283581 -0.75054336 0.00000138
-0.41756704 -0.20810743 0.13464560
-0.15517364 -0.39018488 0.00000119
-0.34523574 -0.03349305 0.36306247
-0.26272580 0.16571550 0.18644699
-0.16315398 -0.47099072 0.00000119
-0.40285659 -0.17260429 0.38657239
-0.48882571 -0.38014874 0.32706016
-0.25531760 0.19556949 -0.07475240
-0.14074777 0.46020317 0.06411654
-0.10990876 0.54125518 -0.04124980
-0.48587713 -0.37301952 0.04704866
-0.31633323 0.03628733 0.30878383
-0.05376370 0.10147159 0.00000898
-0.36660680 -0.05089968 -0.21367843
-0.43201354 -0.20486383 -0.23833390
-0.15990672 0.41395289 0.02546426
-0.21545120 0.30456528 -0.15455444
-0.24732508 0.20290285 0.09593669
-0.29301137 -0.51035184 0.00000195
-0.43578723 -0.25208917 0.00179858
-0.05593321 -0.52838987 0.00000051
-0.57395381 -0.57191032 -0.08578022
-0.52782863 -0.47185901 -0.01505464
-0.39362061 -0.15030383 0.32660159
-0.14854375 -0.36980125 0.00000117
-0.20374224 0.30811542 0.15573563
-0.11186109 -0.53767604 0.00000084
-0.29008722 0.09966180 0.16173148
-0.35125667 -0.04801900 0.23985782
-0.51268852 -0.43774855 0.05271679
-0.40611303 -0.18046550 0.37466916
-0.47558218 -0.30713359 -0.25655627
-0.39685112 -0.15810040 0.26787508
-0.41080067 -0.16408169 -0.17307314
-0.11707883 0.52575713 -0.05258673
-0.10725077 -0.10413755 0.00000108
-0.35839057 -0.78956372 0.00000217
-0.25143906 0.19297121 0.09214234
-0.49037242 -0.38388276 0.30718356
-0.43142790 -0.18361121 -0.36247483
-0.45974231 -0.30412066 -0.03612262
-0.03440953 0.66432863 0.00000183
-0.19247130 0.34036809 -0.03143474
-0.48857564 -0.36656743 -0.08093648
-0.14158927 0.45817059 0.07745789
-0.35039872 -0.02223923 -0.14816850
-0.06926050 0.26997247 0.00000620
-0.05880562 -0.63704467 0.00000046
-0.61170667 -0.66021687 -0.10352221
-0.41967297 -0.20780887 -0.03348087
-0.30288896 0.06874670 0.27872661
-0.63815767 -0.74065715 0.00131828
-0.56859565 -0.56827366 -0.02759289
-0.61376500 -0.65197563 -0.18619695
-0.39622915 -0.15658747 0.01269264
-0.51302040 -0.40345973 -0.21936060
-0.32388937 0.01805037 0.24550144
-0.45673087 -0.25598750 -0.29182327
-0.31586167 0.07755296 -0.25088865
-0.37295943 -0.10041195 0.07676243
-0.19747363 0.32735112 -0.02554892
-0.07388034 0.63165855 -0.06268472
-0.51290864 -0.40864363 -0.18523467
-0.24503720 0.20841293 0.26414198
-0.19987461 0.33094570 -0.08431639
-0.32593662 -0.70351923 0.00000203
-0.25729147 0.19284391 -0.08751637
-0.44848311 -0.25753957 -0.15751530
-0.22362214 0.26013187 0.02409742
-0.66867518 -0.81433296 0.05333549
-0.20701629 -0.77350283 0.00000127
-0.26665109 0.15624122 0.15922605
-0.49745604 -0.40097788 0.14303853
-0.24071307 0.23272195 -0.08661059
-0.24715587 -0.57545257 0.00000163
-0.46795920 -0.29561973 -0.21344683
-0.50731266 -0.41743746 -0.04567032
-0.18194412 0.36075190 0.00696306
-0.19779453 -0.42238829 0.00000143
-0.38130018 -0.11185163 -0.05424971
-0.50413603 -0.38919511 -0.17440875
-0.33727062 -0.01423883 0.04658809
-0.23494399 0.24429451 -0.07187359
-0.06580890 0.64519650 -0.02546427
-0.14884929 0.44063911 0.13308756
-0.02614570 -0.33694738 0.00000045
-0.33453339 -0.00763226 0.06776013
-0.01125157 -0.36943650 0.00000034
-0.00460580 0.09482021 0.00001056
-0.31990233 0.02767243 0.28855401
-0.24202599 -0.29250345 0.00000178
-0.09456146 0.57170528 0.06886353
-0.15073939 -0.60117763 0.00000103
-0.49646732 -0.39859140 0.15328471
-0.34708446 -0.03793625 0.11008244
-0.41358054 -0.19848768 0.23837264
-0.09978027 -0.56281334 0.00000075
-0.45878351 -0.30762219 0.33495408
-0.25390190 -0.52283299 0.00000171
-0.08202452 0.20781650 0.00000667
-0.37267950 -0.09974120 0.19100660
-0.08799013 -0.32537785 0.00000083
-0.51495051 -0.44321078 0.08192270
-0.24506158 -0.33369148 0.00000177
-0.11672079 0.53273886 -0.09086893
-0.34127593 -0.01480864 -0.05684538
-0.30685508 -0.37963301 0.00000211
-0.22565992 0.28663978 -0.19660699
-0.64497560 -0.74092168 -0.10110021
-0.20825605 0.32587501 -0.17920773
-0.08661571 0.00099648 0.00000937
-0.22462122 0.26788336 -0.06353881
-0.35136423 -0.04828295 0.29371646
-0.21476682 -0.47460902 0.00000150
-0.05469419 -0.31467786 0.00000063
-0.40153363 -0.11540904 -0.33764374
-0.35563973 -0.71721709 0.00000220
-0.42442426 -0.22467314 0.37806365
-0.05722235 0.66185051 0.04931432
-0.11553450 0.27936929 0.00000467
-0.27337724 -0.78135401 0.00000166
-0.57352912 -0.56067306 -0.14968152
-0.16715519 0.40128532 -0.03018483
-0.16025893 0.41309455 0.12707268
-0.32438943 0.02799830 -0.06961370
-0.66309822 -0.77818704 -0.14169346
-0.10068275 0.24621168 0.00000558
-0.08024755 -0.05856868 0.00000095
-0.32651621 0.03106585 -0.12094046
-0.19843772 -0.22965662 0.00000155
-0.45839798 -0.24788608 -0.36770216
-0.26749921 -0.37327605 0.00000188
-0.51956040 -0.41979703 -0.21592791
-0.23638900 0.22930826 0.04992255
-0.12874664 -0.42440215 0.00000101
-0.32939944 0.00475233 0.19057566
-0.46013847 -0.31088138 0.06590705
-0.14215066 -0.74478859 0.00000089
-0.17354494 0.05524865 0.00000600
-0.12514336 0.28776902 0.00000427
-0.50326085 -0.38406488 -0.19329020
-0.23488975 0.23291174 0.25287849
-0.50641078 -0.40612543 -0.10283101
-0.42676201 -0.23030756 0.16621444
-0.35670242 -0.01951186 -0.26046953
-0.03827351 0.09695613 0.00000951
-0.31225780 0.04614012 0.13193294
-0.20213333 -0.79390556 0.00000122
-0.56448424 -0.56279546 0.05960913
-0.34965828 -0.04415617 0.18891048
-0.51964319 -0.43782261 -0.10438358
-0.41921487 -0.16836427 -0.27338487
-0.06121746 0.65297490 -0.00477548
-0.13430715 -0.18526065 0.00000119
-0.61641520 -0.68816936 0.11972065
-0.40089303 -0.16785973 0.29522359
-0.26023886 -0.61006516 0.00000169
-0.15524533 0.42520261 0.07301789
-0.24169675 0.25451928 -0.23787716
-0.45160937 -0.22694573 -0.39618501
-0.19602922 0.32673484 0.17126569
-0.46838951 -0.30886981 -0.13703474
-0.15605167 0.42877588 -0.03447115
-0.43832546 -0.23343474 -0.15490317
-0.29470009 0.08851707 0.26728374
-0.52919084 -0.44885179 -0.17960104
-0.16613501 0.39891338 0.06690175
-0.44795370 -0.23396496 -0.29703584
-0.45838979 -0.30666369 0.15618429
-0.39762259 -0.15996835 0.38869202
-0.35337266 -0.57997936 0.00000227
-0.51912457 -0.41313520 -0.25103021
-0.30156845 0.07195094 0.07216245
-0.15711346 -0.08414085 0.00000140
-0.32324812 0.01959600 0.27638003
-0.59055609 -0.62574136 0.11769909
-0.37491977 -0.09466592 -0.06540260
-0.09313414 0.36258036 0.00000420
-0.06150060 0.53394431 0.00000280
-0.46569407 -0.32429239 0.03266576
-0.01172916 0.47074729 0.00000517
-0.58808076 -0.61976564 0.21373434
-0.15902571 -0.75728738 0.00000099
-0.42951852 -0.21428697 -0.14167704
-0.12808502 -0.74295723 0.00000081
-0.43546891 -0.25133076 0.22815908
-0.43915775 -0.20256718 -0.36063030
-0.28888199 0.10258230 0.02416968
-0.46387017 -0.31989068 0.06752857
-0.14787550 0.08299789 0.00000640
-0.04982177 0.68057102 -0.00530815
-0.48151755 -0.36250576 0.30846453
-0.29689565 -0.63744193 0.00000189
-0.46117410 -0.25752780 -0.34930727
-0.43842375 -0.25846058 0.14217412
-0.03024317 0.72698480 0.03126532
-0.48311311 -0.36380985 -0.01567142
-0.39009967 -0.09509207 -0.29204625
-0.25972077 0.21447676 -0.25959402
-0.33876982 -0.01788259 0.35637516
-0.35771585 -0.03518081 -0.17772543
-0.17818406 -0.14359666 0.00000149
-0.56193185 -0.55663705 0.14209090
-0.60166138 -0.64828277 -0.02644777
-0.43702123 -0.24398324 -0.06919340
-0.25974280 -0.40304506 0.00000182
-0.42715615 -0.16446866 -0.41772813
-0.51811892 -0.45086324 0.15227734
-0.06339104 0.16394351 0.00000783
-0.40951595 -0.18867083 0.14768772
-0.06853550 0.34249687 0.00000522
-0.25169212 -0.54322290 0.00000168
-0.39297771 -0.14874974 0.28222001
-0.24108762 0.21796671 0.02749332
-0.29020754 -0.67520392 0.00000183
-0.25357324 -0.15881345 0.00000193
-0.57394314 -0.55239189 -0.20776138
-0.47664806 -0.35074013 0.08435158
-0.19572854 0.32746193 0.15599839
-0.03127766 -0.51132113 0.00000037
-0.57433331 -0.56144166 -0.15702052
-0.45417085 -0.29647791 0.14890327
-0.22252548 -0.43100044 0.00000157
-0.16419107 0.16634674 0.00000476
-0.50260472 -0.41340327 0.03790607
-0.09406526 -0.01100078 0.00000106
-0.29472244 -0.64697200 0.00000187
-0.49183348 -0.33819938 -0.30766487
-0.04004512 -0.53818041 0.00000041
-0.45338666 -0.29459304 0.33481401
-0.41132367 -0.17320760 -0.12386846
-0.40447801 -0.17651945 0.40239534
-0.41726086 -0.20737118 0.20129444
-0.11970338 0.03228861 0.00000794
-0.24567954 0.20686346 0.24847963
-0.41759944 -0.20818834 0.19566713
-0.15331014 -0.03192525 0.00000141
-0.40353569 -0.17423628 0.21821325
-0.42581499 -0.22801991 0.13728406
-0.38504195 -0.10997290 -0.12253124
-0.38303354 -0.12474160 0.26720306
-0.40330654 -0.14820808 -0.15919121
-0.05134126 0.67791706 -0.01165571
-0.02129438 -0.60501397 0.00000025
-0.29943705 -0.76108766 0.00000183
-0.36891580 -0.78448713 0.00000224
-0.63026184 -0.69686800 -0.15449417
-0.27811876 0.12893850 -0.00225125
-0.02601886 0.74015498 -0.01857551
-0.30636808 0.06035661 0.16313460
-0.44703415 -0.23279834 -0.29044437
-0.42585054 -0.19850849 -0.18500000
-0.18696201 0.34863099 0.09275667
-0.53213215 -0.48095053 -0.02317614
-0.30623981 0.06067529 0.04855572
-0.17215368 0.38438833 0.00117476
-0.42649314 -0.21920007 -0.06523000
-0.21046346 -0.11814966 0.00000170
-0.62726164 -0.69960696 -0.09202354
-0.48409358 -0.34611046 -0.14123699
-0.43918630 -0.22582233 -0.21554241
-0.18351689 -0.48506179 0.00000130
-0.32155669 0.02369786 0.04320787
-0.52662873 -0.45378765 -0.11001022
-0.30093789 -0.79636955 0.00000182
-0.27087852 0.14603899 0.11353920
-0.49508926 -0.38166720 -0.08484833
-0.29300988 -0.65861881 0.00000186
-0.00104506 -0.30808154 0.00000030
-0.33060375 0.00246881 -0.00373548
-0.32767931 -0.74962795 0.00000201
-0.12433983 -0.47170073 0.00000096
-0.08597538 -0.43993932 0.00000074
-0.32153586 0.02373291 0.23643556
-0.43481430 -0.23427214 -0.09662145
-0.28749436 -0.28115112 0.00000206
-0.04897627 0.68175787 0.05264477
-0.37706542 -0.11032565 0.09736001
-0.45346701 -0.29478016 0.18248966
-0.53693509 -0.46878043 -0.17188700
-0.29827732 0.07989737 0.05952863
-0.35297486 0.00104007 -0.33276737
-0.08721500 -0.51913959 0.00000070
-0.28483889 0.11233379 0.14210346
-0.09582248 -0.37603870 0.00000084
-0.19192128 -0.05579575 0.00000162
-0.44478750 -0.26315188 -0.06656810
-0.06614074 0.64031869 0.06377612
-0.21005356 0.31687447 -0.15003899
-0.31752944 0.05802722 -0.15389438
-0.27679133 -0.65029937 0.00000176
-0.11676736 -0.69618237 0.00000077
-0.20555052 -0.01726544 0.00000173
-0.18238579 -0.78457731 0.00000111
-0.51534760 -0.44417390 0.18234712
-0.00272218 -0.25548622 0.00000032
-0.23098406 0.27832726 -0.22502275
-0.23480773 0.24628372 -0.08226351
-0.22142459 0.26542610 0.16506641
-0.60973519 -0.65889335 -0.08201970
-0.15878716 0.44153976 -0.15567309
-0.18523704 -0.74662465 0.00000115
-0.01521947 0.38946533 0.00000619
-0.19365545 0.33246303 0.20399280
-0.44539541 -0.26549247 -0.06110509
-0.32531461 0.02244265 -0.04882402
-0.39822173 -0.09739732 -0.40032461
-0.19526343 0.32859695 0.00210291
-0.47015998 -0.33507511 0.05547511
-0.48085758 -0.36091247 0.32536986
-0.18647064 -0.26924360 0.00000146
-0.04518271 0.69092029 0.00172717
-0.34471926 -0.03223496 0.22026829
-0.38038707 -0.06852529 -0.31156534
-0.32058129 -0.51574719 0.00000211
-0.24955542 0.21604620 -0.11584148
-0.07776338 0.61750609 -0.03278321
-0.12528703 0.17527001 0.00000581
-0.00322231 -0.16998844 0.00000037
-0.27632070 0.17575742 -0.26807603
-0.52884412 -0.43217272 -0.27873698
-0.08859745 -0.71533477 0.00000059
-0.29682752 -0.35531861 0.00000207
-0.18595760 -0.36190411 0.00000140
-0.58298856 -0.60414797 -0.02053757
-0.13209106 0.48582491 -0.02949272
-0.39736009 -0.13166361 -0.17288718
-0.20741142 -0.27600697 0.00000158
-0.21661969 -0.65080047 0.00000140
-0.17431027 -0.68339097 0.00000112
-0.29493615 0.09287279 -0.03062518
-0.25821409 -0.78758836 0.00000157
-0.44859150 -0.24564797 -0.23356420
-0.07342051 0.62274611 0.03631846
-0.25562394 0.18285850 0.21453254
-0.33095175 0.00100618 0.17265090
-0.21807197 0.29985178 -0.16465101
-0.10172333 0.55511349 -0.00431231
-0.46356371 -0.31915444 0.14945333
-0.39930809 -0.16402075 0.01372511
-0.12854964 -0.76101398 0.00000080
-0.09101247 0.58027768 0.01244870
-0.37582764 -0.07202978 -0.22075243
-0.09700403 0.56977725 -0.02477961
-0.51419783 -0.42829016 -0.08177116
-0.32801688 0.05840158 -0.31467661
-0.00953579 -0.52440751 0.00000023
-0.46408576 -0.29240879 -0.17502461
-0.27583867 0.17367873 -0.24778531
-0.42739218 -0.23183754 0.35994399
-0.12307105 -0.72390091 0.00000079
-0.37097633 -0.05253287 -0.26947117
-0.03464494 -0.43636316 0.00000044
-0.29057682 0.09847332 0.24353552
-0.53023505 -0.46110475 -0.11870301
-0.22619405 -0.60972530 0.00000148
-0.24333066 0.21253921 0.18377830
-0.20688391 0.31420600 -0.08545401
-0.46945032 -0.28965163 -0.27331805
-0.19058925 -0.16090673 0.00000155
-0.51333195 -0.41530618 -0.14993793
-0.29773569 0.12408411 -0.26823726
-0.10722900 0.13790143 0.00000687
-0.20402119 -0.32746968 0.00000153
-0.46550173 -0.31027323 -0.08462817
-0.08054712 -0.63154936 0.00000059
-0.18322298 0.07179993 0.00000548
-0.16153917 -0.03217953 0.00000145
-0.57186747 -0.54760021 -0.20638821
-0.40523341 -0.17832863 0.07680075
-0.01406580 0.32527465 0.00000710
-0.62923968 -0.71912956 0.16357455
-0.10087834 -0.02127072 0.00000110
-0.04451747 -0.28621700 0.00000059
-0.50158936 -0.40034157 -0.06618791
-0.53470302 -0.49090123 0.15862419
-0.44047111 -0.26340109 0.09112491
-0.02533618 0.08493040 0.00001007
-0.31078345 0.05065613 -0.00585128
-0.47618467 -0.31162953 -0.23752458
-0.22272903 -0.19481899 0.00000172
-0.34263495 -0.01229243 -0.09312319
-0.10612849 0.54378402 0.02198891
-0.17221902 0.38421777 0.16371854
-0.46808892 -0.29674122 -0.20838881
-0.46766660 -0.29612473 -0.20586678
-0.53186572 -0.48405397 0.27657759
-0.12018083 -0.53125131 0.00000089
-0.59542203 -0.60966468 -0.17385103
-0.23448782 0.23388344 0.23521329
-0.06066580 -0.23563562 0.00000072
-0.51441270 -0.44191131 0.05681894
-0.26216871 -0.22312342 0.00000194
-0.41641408 -0.14801545 -0.35840717
-0.19077724 -0.55631524 0.00000130
-0.48875752 -0.37997711 0.12984943
-0.05916629 0.16932136 0.00000789
-0.38890448 -0.13891178 0.18639401
-0.24272677 -0.74251240 0.00000150
-0.60494900 -0.62827426 -0.20132783
-0.16140726 0.42949250 -0.11986585
-0.45461279 -0.29754457 0.14245261
-0.39383087 -0.13318232 -0.11006918
-0.11641573 0.01930239 0.00000822
-0.34617275 -0.01977967 -0.09971601
-0.48755318 -0.37706792 0.09307396
-0.54655141 -0.51172459 -0.04843436
-0.39362270 -0.15029626 0.04283883
-0.54749554 -0.48619619 -0.22244278
-0.44264010 -0.22435687 -0.27688754
-0.19721033 -0.28402272 0.00000151
-0.40938637 -0.15608440 -0.20175056
-0.37865803 -0.05865165 -0.34723222
-0.58679432 -0.61665571 0.03038762
-0.21244730 -0.50112295 0.00000147
-0.24556015 -0.45752850 0.00000170
-0.06552486 0.64321953 -0.00880150
-0.23201175 -0.48115405 0.00000160
-0.38284314 -0.07729522 -0.29378876
-0.21847078 0.28329352 -0.06705599
-0.36685207 -0.03326517 -0.32773888
-0.39690235 -0.15822557 0.30095109
-0.61655325 -0.67277735 -0.09814044
-0.45660132 -0.30234814 0.20608990
-0.62844753 -0.71721715 0.07257977
-0.42737463 -0.23178945 0.23158707
-0.50706768 -0.39924908 -0.15578377
-0.02042561 -0.36971152 0.00000039
-0.25389227 0.18703915 0.21355622
-0.15236835 -0.15555087 0.00000132
-0.49358058 -0.37531739 -0.10179116
-0.19524059 0.32864702 0.06630528
-0.01670440 -0.22041000 0.00000046
-0.28314021 -0.76266623 0.00000173
-0.31020561 0.07602150 -0.15585552
-0.03621688 -0.11915526 0.00000064
-0.41392556 -0.14427175 -0.34424046
-0.11145295 -0.09141793 0.00000112
-0.24400586 0.25038651 -0.24689972
-0.22879645 -0.68400794 0.00000145
-0.35759363 -0.05395756 -0.05839556
-0.49272990 -0.38956782 0.13982007
-0.30847257 0.08094771 -0.16050144
-0.14969064 -0.48369232 0.00000110
-0.14245217 -0.22444160 0.00000122
-0.19600990 -0.71578991 0.00000124
-0.19253296 0.34896928 -0.08619203
-0.51226914 -0.43674481 0.27895826
-0.36832240 -0.08922228 0.28224391
-0.22083429 0.26686177 0.03105525
-0.31163883 -0.39669302 0.00000213
-0.40095451 -0.11469029 -0.33339271
-0.57495123 -0.58613515 -0.01183556
-0.01058190 0.53829938 0.00000428
-0.61312944 -0.68023700 0.17325532
-0.06270097 0.18079224 0.00000762
-0.19186941 -0.12181561 0.00000158
-0.36874482 -0.04951480 -0.25464532
-0.44300863 -0.26121476 -0.05181648
-0.14150266 -0.43213016 0.00000108
-0.09910427 -0.13877784 0.00000101
-0.38047144 -0.08060433 -0.23725022
-0.42870259 -0.21477868 -0.12627441
-0.58697867 -0.61311978 -0.02467347
-0.10168831 0.55454928 -0.00025234
-0.29408354 0.13120653 -0.25763330
-0.49447331 -0.37244850 -0.13322978
-0.45231947 -0.29201710 0.37525234
-0.01992345 0.60150540 0.00000313
-0.16117084 0.41089270 0.13156921
-0.49311969 -0.39050844 0.13083220
-0.36960191 -0.09230639 0.08209868
-0.07285649 0.43936250 0.00000376
-0.27330923 -0.46063063 0.00000186
-0.28882718 0.10270058 0.20170690
-0.53187633 -0.47121099 -0.08025731
-0.23729999 0.22905137 -0.01207687
-0.56112933 -0.54702556 -0.04776204
-0.28592375 0.10970640 0.24778625
-0.65769690 -0.76864964 -0.11977374
-0.38238680 -0.12317760 0.20836423
-0.34647280 -0.03646676 0.06669081
-0.16853312 0.39311910 0.12781961
-0.49136317 -0.38626537 0.07581062
-0.24798001 0.20130993 0.24541165
-0.09608630 -0.01538389 0.00000107
-0.41398996 -0.19947046 0.11051765
-0.05339474 -0.51085788 0.00000050
-0.21431658 0.28259328 0.07491197
-0.01044466 0.71229023 0.00000189
-0.36021450 -0.04227413 -0.17108428
-0.27963650 0.15659556 -0.19825603
-0.49978903 -0.40661350 0.21521744
-0.31336942 0.04345449 0.15753981
-0.42748794 -0.23205802 0.11957447
-0.42704609 -0.17389818 -0.35706013
-0.10388397 -0.45871788 0.00000084
-0.14454539 0.45103249 0.09600828
-0.17929921 -0.44604802 0.00000130
-0.24046706 0.23872852 -0.12048248
-0.31730652 0.03395596 0.07607398
-0.13948011 0.08379418 0.00000664
-0.31315580 0.04398048 0.02712187
-0.17795342 -0.67271578 0.00000115
-0.24012963 0.23277894 -0.07815260
-0.22380789 0.27133363 -0.07284291
-0.44992974 -0.23653264 -0.31081972
-0.42545789 -0.22715887 0.16156188
-0.40966845 -0.18621163 -0.01749083
-0.57678360 -0.56948787 -0.14368680
-0.51637578 -0.42965317 -0.10614401
-0.06664360 -0.35276970 0.00000068
-0.44254589 -0.20804669 -0.37752560
-0.37783405 -0.75845569 0.00000231
-0.57840979 -0.56197321 -0.21528453
-0.37405670 -0.10306613 0.19167678
-0.13063797 0.08864045 0.00000684
-0.43458158 -0.21983700 -0.18343364
-0.47867197 -0.35562488 0.05335338
-0.09866225 0.56180549 0.06574377
-0.17747223 0.37963945 -0.05059234
-0.36032993 -0.06993302 0.35905737
-0.48683712 -0.37533873 0.08265894
-0.54463476 -0.51487893 0.16405515
-0.27695346 0.14945206 -0.11301877
-0.63511610 -0.72804815 -0.03270381
-0.11920486 0.51220691 0.12684594
-0.32210404 -0.39659375 0.00000220
-0.36555138 -0.08252846 0.10371475
-0.30640975 0.08011672 -0.12413712
-0.05271023 0.03748075 0.00000989
-0.47722325 -0.30582830 -0.28951514
-0.16551001 0.42456412 -0.15100688
-0.04723504 0.43519974 0.00000459
-0.33434531 -0.00718965 0.21242788
-0.13223930 -0.44170341 0.00000102
-0.29096100 0.13157929 -0.21279208
-0.04582773 0.69096273 -0.00999844
-0.40090156 -0.15537067 -0.07803999
-0.30059758 0.11426484 -0.25002491
-0.06236659 -0.27805108 0.00000070
-0.20422876 0.30693698 0.20432881
-0.11068873 0.53276724 0.11664542
-0.16663645 0.07157105 0.00000599
-0.38909471 -0.08470871 -0.34184214
-0.18408863 -0.74416006 0.00000115
-0.01440289 0.58494443 0.00000352
-0.61802566 -0.69205725 0.19635127
-0.57217813 -0.58137429 0.20702143
-0.19275217 0.34969008 -0.09401438
-0.47661981 -0.35067248 0.09744243
-0.08104791 0.20769098 0.00000670
-0.30400881 0.07947814 -0.08386839
-0.45039243 -0.22808938 -0.37064302
-0.15263474 -0.14813617 0.00000133
-0.47863644 -0.33344319 -0.13806380
-0.13451578 0.26575062 0.00000429
-0.20097546 0.31479207 0.19162363
-0.50187504 -0.38801622 -0.14762963
-0.44814354 -0.28193310 0.29424420
-0.40403539 -0.17544468 0.26376843
-0.52555192 -0.43238235 -0.22768638
-0.24603225 -0.32244486 0.00000178
-0.33277628 -0.00341014 0.31955361
-0.45078647 -0.24850076 -0.24887154
-0.25625429 0.18175766 -0.00247050
-0.47120294 -0.33760086 0.23001625
-0.19454804 0.33031720 0.08846164
-0.41277888 -0.19654222 0.01114964
-0.31909421 0.03924410 -0.05999114
-0.28656727 0.14593391 -0.23624343
-0.01513425 0.23941131 0.00000825
-0.27297387 0.14098139 0.10175049
-0.29599062 0.08788717 -0.01535609
-0.51963341 -0.43655899 -0.11214232
-0.43797135 -0.19132119 -0.41308004
-0.07466037 0.61975282 0.03681054
-0.23534139 0.23184119 0.00220297
-0.49025410 -0.38359529 0.24390450
-0.11247615 0.52845752 0.04789488
-0.20048495 -0.53993237 0.00000137
-0.32231924 0.02184183 0.23487726
-0.12768500 -0.16824305 0.00000117
-0.14374612 0.46137348 -0.05255750
-0.25674254 0.18255889 -0.01486087
-0.13985951 -0.69016939 0.00000091
-0.50498044 -0.39531463 -0.14887203
-0.20505536 -0.68380415 0.00000131
-0.56146169 -0.51514214 -0.25230199
-0.45296654 -0.29357046 0.14949431
-0.18372346 0.35645500 0.02228297
-0.00683419 0.38143566 0.00000655
-0.32047722 0.02629440 0.16399856
-0.03639421 0.71213454 0.03711502
-0.09269459 -0.47423008 0.00000076
-0.44713134 -0.27947691 0.01437071
-0.44496450 -0.27425689 0.26495537
-0.44751284 -0.24653114 -0.21174297
-0.46493992 -0.30291376 -0.12219294
-0.34865183 -0.02675547 -0.09351512
-0.44619605 -0.27723426 0.35822636
-0.29476753 0.09022957 -0.01153692
-0.00003251 -0.61729646 0.00000011
-0.33373415 -0.00571399 0.20950396
-0.22171097 0.27150330 -0.04222521
-0.06202732 0.44132239 0.00000406
-0.26748675 0.15421958 0.21237227
-0.29159239 0.09602450 0.20591328
-0.35091844 -0.04720858 0.31670940
-0.25162759 0.19251266 0.13566437
-0.11992387 0.17614113 0.00000596
-0.62860698 -0.71760213 0.09407798
-0.34764481 -0.49453542 0.00000229
-0.39728120 -0.13248548 -0.16655266
-0.12963293 -0.06501843 0.00000124
-0.50415701 -0.36813545 -0.30650932
-0.15857551 0.41716617 0.03210865
-0.35285383 -0.03676477 -0.09437682
-0.45927131 -0.30878803 0.06949061
-0.11769737 -0.39220324 0.00000097
-0.30816245 0.06232882 -0.03930072
-0.61386710 -0.67850161 -0.02174077
-0.29046121 0.09876845 0.04075028
-0.04398952 -0.48281002 0.00000046
-0.07911743 -0.78337532 0.00000049
-0.09743061 -0.26868740 0.00000092
-0.50672626 -0.40467176 -0.11669380
-0.02863449 -0.02687184 0.00000066
-0.12642571 0.50245863 -0.04799564
-0.33392704 0.01007379 -0.10153380
-0.12417161 -0.23656031 0.00000110
-0.18714631 -0.06042666 0.00000159
-0.19845611 0.32087994 0.11951974
-0.28966945 0.11720854 -0.10334895
-0.00724167 -0.13542353 0.00000046
-0.17154883 -0.22870436 0.00000139
-0.12532067 -0.55605567 0.00000091
-0.09369878 -0.12592474 0.00000099
-0.33483568 0.01291025 -0.13301127
-0.19527787 0.32855627 0.07603706
-0.39206010 -0.08779542 -0.36732551
-0.23244445 0.23881973 0.19465318
-0.28935811 0.14538904 -0.27499673
-0.27151358 0.14450286 0.15101711
-0.23629281 -0.78907967 0.00000143
-0.20767494 0.31252539 -0.08688762
-0.19377400 -0.45275822 0.00000139
-0.25975278 0.19460367 -0.13571303
-0.39598611 -0.15601277 0.28385359
-0.60728717 -0.66613287 0.16119464
-0.52837598 -0.44052830 -0.21937586
-0.57865077 -0.56313467 -0.21165672
-0.30959570 0.07782453 -0.15792437
-0.30463716 0.08761796 -0.14429927
-0.08521848 -0.28595012 0.00000084
-0.49027827 -0.38232708 -0.00804115
-0.52781051 -0.44987935 -0.15231892
-0.24541172 -0.30180442 0.00000179
-0.00374877 -0.75165457 0.00000005
-0.55202270 -0.51068789 -0.13757402
-0.25587165 0.22389328 -0.26037055
-0.31824967 -0.74665481 0.00000195
-0.34988356 -0.04470717 0.27858150
-0.53820181 -0.45758095 -0.26110840
-0.51145703 -0.43478003 0.15570736
-0.41939276 -0.19172579 -0.12988774
-0.28679067 0.13465746 -0.16905139
-0.66714501 -0.79962897 -0.06864596
-0.57900298 -0.56024534 -0.23506033
-0.03784308 -0.56964046 0.00000037
-0.46289441 -0.31754357 0.26025626
-0.11026829 -0.77592289 0.00000068
-0.36720112 -0.08650771 0.02354428
-0.43991199 -0.26205072 0.07890886
-0.46215615 -0.27265486 -0.26948464
-0.54222322 -0.50369382 -0.03330224
-0.34660679 -0.03583645 -0.00581405
-0.21884874 -0.04609877 0.00000179
-0.56653982 -0.56775874 0.07475230
-0.23009431 -0.46991494 0.00000160
-0.59528846 -0.60349762 -0.21042806
-0.41586694 -0.15559950 -0.30268484
-0.14886957 0.44059545 0.06586906
-0.18421189 -0.30398008 0.00000142
-0.27345666 0.13981962 0.05408129
-0.37474081 -0.10471432 0.11459714
-0.05621890 0.66650736 -0.01394426
-0.44454476 -0.27324775 0.37130320
-0.40917677 -0.15432762 -0.20957734
-0.18140413 0.37889159 -0.10531377
-0.29057962 -0.34446537 0.00000204
-0.30891883 -0.57811409 0.00000200
-0.64881867 -0.75724828 -0.05698754
-0.19556011 0.32941696 -0.00956825
-0.15105657 0.43531981 0.01334380
-0.35242450 -0.05084945 0.37955207
-0.18165044 -0.11734769 0.00000152
-0.44295996 -0.26941651 0.24311718
-0.18157123 0.38850537 -0.16800024
-0.29348111 0.09146774 0.16883735
-0.22382013 0.29166281 -0.20024595
-0.03849250 -0.02588185 0.00000072
-0.29239932 0.09847876 -0.02738149
-0.48934019 -0.38138136 0.07533033
-0.44713819 -0.27949989 0.15710153
-0.25242913 -0.15399624 0.00000193
-0.27508157 0.16012719 -0.15154314
-0.19857576 0.32059887 0.02076257
-0.25496179 0.18447079 0.03984410
-0.25241005 0.19798227 -0.04592534
-0.18312117 0.35790387 0.08836319
-0.01113892 -0.32018983 0.00000037
-0.23991869 0.22077781 0.16504472
-0.19816291 0.32159153 0.07194135
-0.12462353 -0.41377473 0.00000099
-0.52118951 -0.45827323 0.08421194
-0.30550817 0.06243558 0.12533937
-0.09068887 -0.51014882 0.00000073
-0.27655375 -0.35622898 0.00000195
-0.09848051 0.04241307 0.00000844
-0.14139993 0.47633564 -0.11074388
-0.04686926 -0.53652161 0.00000045
-0.46834275 -0.30628848 -0.15248135
-0.10602649 0.19131783 0.00000617
-0.46366003 -0.27523801 -0.27603933
-0.44294506 -0.24329890 -0.16296495
-0.45653370 -0.30219093 0.35144737
-0.55812758 -0.54745072 0.09678684
-0.17795023 -0.40698054 0.00000132
-0.22612353 0.28955129 -0.22183087
-0.23783033 0.22583249 0.00115641
-0.34850663 -0.01730569 -0.15045723
-0.35512808 -0.62631893 0.00000225
-0.13151294 0.16848604 0.00000571
-0.09794671 0.56353503 0.03925144
-0.50879532 -0.42835850 0.30440363
-0.40844893 -0.71632731 0.00000252
-0.04886194 0.32907367 0.00000600
-0.55832040 -0.54791957 0.23334350
-0.28395489 0.11703240 -0.01591391
-0.39153785 -0.10336781 -0.26199403
-0.46069500 -0.31223586 0.30891922
-0.03661663 -0.30123699 0.00000053
-0.18571948 -0.16223639 0.00000152
-0.27456459 0.13714083 0.10455861
-0.39225906 -0.14700425 0.04604999
-0.55202490 -0.53272086 0.17303933
-0.36124793 -0.05968484 -0.07776124
-0.34094739 -0.48198259 0.00000226
-0.19208454 -0.19198750 0.00000154
-0.39317623 -0.14923324 0.37669006
-0.25314659 -0.43987551 0.00000175
-0.22756842 0.25367323 -0.01913796
-0.17273484 0.07611212 0.00000574
-0.32312012 0.04263539 -0.14203511
-0.23124582 0.24172534 0.04394298
-0.49056801 -0.38434246 0.00461450
-0.03045781 -0.74005514 0.00000022
-0.33422405 0.02355675 -0.19039574
-0.46959370 -0.33370674 0.02687744
-0.46116155 -0.31335124 0.06331435
-0.25289392 -0.24433643 0.00000187
-0.36126849 -0.05600065 -0.10112578
-0.24935183 0.19800895 0.10789638
-0.19443560 -0.32155997 0.00000147
-0.12543924 -0.28668600 0.00000108
-0.50954467 -0.43016365 0.16723293
-0.16947608 -0.30167475 0.00000133
-0.32704121 0.01841517 -0.04970494
-0.21117078 -0.27988070 0.00000160
-0.36668575 -0.06104085 -0.15142336
-0.16409285 0.41154441 -0.04812117
-0.01803013 0.21771523 0.00000846
-0.05380624 0.08242200 0.00000924
-0.33613160 0.04227557 -0.33635521
-0.45050901 -0.25803968 -0.18499021
-0.32058385 0.02603654 0.16936798
-0.28495106 0.11207262 0.01957398
-0.00802956 -0.12647811 0.00000047
-0.12049664 0.51189911 -0.01749926
-0.39512017 -0.72675490 0.00000243
-0.33801749 -0.75897688 0.00000207
-0.32097211 0.03311197 -0.04998699
-0.13103738 0.49027732 -0.04143699
-0.57968020 -0.59087002 -0.05364649
-0.13353477 -0.17930529 0.00000119
-0.06090208 -0.57569188 0.00000051
-0.39430356 -0.14397231 -0.04969168
-0.05187340 0.15949260 0.00000824
-0.59430629 -0.62930536 -0.03408820
-0.40911672 -0.12733646 -0.37756500
-0.48785847 -0.36668751 -0.06935126
