ply
format ascii 1.0
element vertex 1298
property float x
property float y
property float z
end_header
-0.04592243 0.00872342 0.00001118
-0.41950497 -0.38650092 0.00000000
-0.59256452 -0.62448466 -0.00000001
-0.26648226 0.40458873 0.00000149
-0.55785567 -0.07859289 -0.00000083
-0.57823718 -0.72653615 0.00000000
0.22989723 0.06773797 0.13541898
-0.03783847 0.56983471 0.00000288
-0.11757465 0.59006733 0.00000125
-0.30140483 -0.62011987 0.00000000
-0.16618864 0.23223247 0.00000601
-0.63728273 -0.67251951 -0.00000012
-0.17802875 0.17751098 0.00000665
-0.50451201 0.21461849 0.00000009
-0.60927594 -0.10125093 -0.00000101
-0.10590119 -0.45365623 0.00000000
-0.06494313 -0.50194263 0.00000000
-0.74615085 -0.77743661 -0.00000006
-0.46709073 -0.33504623 0.00000000
-0.57656085 -0.52609748 -0.00000012
-0.33906358 -0.48414153 0.00000000
-0.29093060 -0.03412456 0.00000000
-0.36065090 -0.71025598 0.00000000
-0.00645716 0.76309532 0.00000046
-0.57944781 -0.64141721 0.00000000
-0.32940990 -0.25279340 0.00000000
-0.30467317 -0.69226426 0.00000000
-0.14551651 -0.06257481 0.00000000
-0.05395731 -0.28782627 0.00000000
-0.76541215 -0.59347773 -0.00000052
-0.74564302 -0.33677500 -0.00000116
-0.03967743 0.50858778 0.00000377
-0.03290075 -0.25229627 0.00000000
0.17579398 0.33000857 0.10354988
-0.45471194 -0.51717025 0.00000000
0.30330673 -0.49706554 0.17866021
-0.25918207 -0.68300515 0.00000000
-0.74682236 -0.03363089 -0.00000171
-0.61176020 -0.58819419 -0.00000016
-0.22321774 0.14375648 0.00000648
0.10943920 0.21023796 0.06446422
-0.62942040 -0.66544843 -0.00000010
-0.70585090 -0.08039517 -0.00000146
-0.47118825 -0.33458674 -0.00000001
0.30204558 -0.75088209 0.17791735
-0.71055263 -0.58722121 -0.00000053
-0.14407451 -0.04754108 0.00000000
-0.05949733 -0.07969370 0.00000000
-0.60019708 -0.19534165 -0.00000080
-0.47154599 -0.06514397 -0.00000048
0.26601458 -0.02358692 0.15669359
0.25731668 -0.50647742 0.15157017
-0.42473969 0.37047571 -0.00000098
-0.36787242 0.21606946 0.00000269
-0.27203712 -0.59396595 0.00000000
-0.21071404 0.15069915 0.00000656
-0.64880615 -0.25772902 -0.00000090
-0.52832305 -0.32422853 -0.00000027
-0.10852741 -0.51095390 0.00000000
-0.40132666 0.02949750 0.00000516
-0.13954486 -0.66895837 0.00000000
0.66753525 -0.01955553 0.39320385
-0.50457072 -0.00166333 -0.00000074
-0.14250331 -0.57393074 0.00000000
-0.28904921 0.31919941 0.00000248
-0.08535304 -0.69504815 0.00000000
-0.62194586 -0.14562957 -0.00000098
-0.46216190 -0.62343347 0.00000000
-0.42838666 -0.63939112 0.00000000
-0.71816403 -0.25107738 -0.00000121
-0.45348510 0.09691544 0.00000304
-0.41834196 -0.00685514 -0.00000036
-0.36653921 -0.47823536 0.00000000
-0.77563304 -0.40952834 -0.00000098
-0.21942434 -0.28787994 0.00000000
-0.78361207 -0.61542958 -0.00000046
0.60123324 -0.06089933 0.35414967
-0.30182642 0.38099957 0.00000120
-0.63655931 -0.55868649 -0.00000031
-0.28553659 0.27966940 0.00000321
-0.66944665 -0.15984111 -0.00000116
-0.23556300 -0.39706737 0.00000000
-0.02922009 -0.49166819 0.00000000
-0.77985263 -0.70077986 -0.00000025
-0.68600523 -0.09452752 -0.00000135
0.16644552 0.56175405 0.09804286
-0.19147180 -0.46014962 0.00000000
-0.61214620 -0.04014526 -0.00000113
-0.75677401 -0.37355590 -0.00000107
0.41379699 -0.12938264 0.24374311
0.05070172 -0.50201368 0.02986541
-0.36035171 0.01375296 0.00000621
-0.46351641 -0.27434108 -0.00000008
-0.15884887 0.15416253 0.00000729
-0.59585547 -0.49314958 -0.00000026
-0.53841174 0.18781361 -0.00000011
-0.70483738 -0.13653302 -0.00000135
-0.75391227 -0.54700643 -0.00000063
-0.62520301 0.05657032 0.00000041
-0.28270182 -0.26218477 0.00000000
-0.28890792 -0.68365848 0.00000000
-0.26205757 0.40912414 0.00000150
-0.11325954 -0.03043202 0.00000000
-0.25501975 -0.42091373 0.00000000
-0.15422702 0.10993386 0.00000802
-0.17390434 0.44240552 0.00000263
-0.51482368 -0.49991533 0.00000000
-0.69846720 -0.79971367 -0.00000000
-0.32663357 -0.42478725 0.00000000
0.07852506 0.57051331 0.04625451
-0.36916223 -0.10096803 0.00000000
-0.12091731 -0.60765827 0.00000000
-0.14099553 0.14151949 0.00000775
-0.62074417 -0.13218400 -0.00000100
-0.24848574 0.05813357 0.00000738
-0.14292862 -0.66986471 0.00000000
-0.18836306 0.11877069 0.00000738
-0.12650058 -0.23871572 0.00000000
-0.28828046 -0.01243002 0.00000000
-0.42882824 -0.07246675 -0.00000029
-0.57826775 -0.45403630 -0.00000025
-0.31608728 -0.61012530 0.00000000
-0.57831216 -0.65463263 0.00000000
-0.55571550 0.22648096 -0.00000109
-0.47709101 -0.58033335 0.00000000
-0.33474636 -0.39543703 0.00000000
-0.36662579 -0.32110849 0.00000000
-0.04626877 0.70605409 0.00000068
-0.18055105 0.30717134 0.00000467
-0.45487541 -0.25853169 -0.00000007
0.32447881 -0.46746057 0.19113144
-0.06622646 -0.50511873 0.00000000
-0.29241985 0.01870095 0.00000731
-0.36080375 -0.74584478 0.00000000
-0.30406609 -0.71187103 0.00000000
-0.14192837 0.46934348 0.00000280
-0.62106627 -0.53953081 -0.00000028
-0.23247732 0.45387363 0.00000132
-0.43040112 -0.43895063 0.00000000
-0.54275137 -0.72499025 0.00000000
-0.47075942 -0.64136243 0.00000000
-0.04555862 0.64010477 0.00000171
-0.43637103 -0.62645036 0.00000000
-0.05027774 0.71471089 0.00000046
0.10460194 0.46154001 0.06161487
-0.09965620 -0.69876951 0.00000000
-0.16139705 0.61179143 0.00000004
-0.07643260 -0.57072699 0.00000000
-0.48598030 0.03281051 0.00000348
-0.49734694 -0.66721630 0.00000000
-0.35961330 0.31186050 0.00000125
-0.49477819 -0.19790842 -0.00000035
-0.21068923 0.38262093 0.00000293
-0.73938638 -0.29744324 -0.00000122
-0.70834029 0.08956317 -0.00000177
-0.03964603 0.15646072 0.00000905
0.32706264 0.28249046 0.19265266
-0.70187479 -0.35939634 -0.00000095
-0.11390880 0.50768304 0.00000267
-0.40747508 -0.23376560 0.00000000
-0.64529353 0.06743507 -0.00000016
-0.55820292 -0.00973425 -0.00000095
0.25813547 0.15154994 0.15205233
0.23033644 -0.08649268 0.13567770
-0.66026580 -0.10142154 -0.00000122
0.16623373 -0.52346104 0.09791855
-0.03494743 0.01105877 0.00001131
-0.39366066 -0.69749242 0.00000000
-0.15405519 0.06617776 0.00000868
-0.50402647 -0.42039680 0.00000000
-0.15234737 -0.34603149 0.00000000
-0.25287873 0.08217035 0.00000695
-0.47230077 -0.47106346 0.00000000
-0.07636407 -0.76174057 0.00000000
-0.14737973 -0.65590847 0.00000000
-0.45986059 -0.02685175 -0.00000050
-0.18025693 0.08387445 0.00000802
-0.57323605 -0.58014750 -0.00000001
-0.15979426 -0.18324216 0.00000000
0.35864720 -0.60867059 0.21125804
-0.69211382 -0.25036561 -0.00000110
-0.32488787 -0.07505505 0.00000000
-0.54336643 -0.78913760 0.00000000
-0.37020677 -0.12671576 0.00000000
-0.56705880 -0.71394461 0.00000000
-0.38155007 -0.74940699 0.00000000
-0.76831943 -0.66533309 -0.00000034
-0.58305293 -0.69202834 0.00000000
-0.79193676 -0.13432822 -0.00000166
-0.08909320 -0.53097337 0.00000000
-0.46498474 0.24708986 0.00000031
-0.74723464 -0.46529368 -0.00000084
-0.45786524 -0.02712263 -0.00000049
-0.01935115 0.50403607 0.00000415
0.07148296 0.01584537 0.04210642
-0.24817160 -0.41407204 0.00000000
-0.07823922 -0.29713202 0.00000000
-0.38645303 0.40642995 -0.00000085
-0.69615477 -0.70301765 -0.00000024
-0.41372436 -0.35250306 0.00000000
-0.48106685 0.06363672 0.00000306
-0.62524015 -0.65172201 -0.00000010
-0.42101091 -0.15972614 -0.00000010
-0.09783236 0.04904252 0.00000979
-0.30897784 0.44445103 0.00000001
-0.04599003 -0.57682180 0.00000000
-0.56116027 -0.16631034 -0.00000069
-0.53226739 -0.66246647 0.00000000
-0.46957439 -0.72265947 0.00000000
-0.73545682 0.04271617 -0.00000147
-0.48209456 0.29789305 -0.00000087
-0.33328590 -0.14098683 0.00000000
-0.54373664 -0.79415733 0.00000000
0.26055709 0.30911377 0.15347844
-0.59854347 -0.34330526 -0.00000053
-0.26691175 -0.03712651 0.00000000
-0.31950215 -0.05868202 0.00000000
-0.06828096 -0.33806252 0.00000000
-0.13718884 -0.67411673 0.00000000
-0.41134331 -0.53991801 0.00000000
-0.45240989 -0.24319848 -0.00000009
-0.23232815 -0.07577279 0.00000000
-0.23248646 -0.64479697 0.00000000
-0.03500467 -0.02315226 0.00000000
-0.65901601 -0.65734702 -0.00000024
-0.24306233 0.46094778 0.00000100
-0.51812261 -0.79788780 0.00000000
-0.47398001 -0.12324765 -0.00000039
-0.17359836 0.03208535 0.00000890
-0.02790956 0.61075568 0.00000242
-0.07239266 -0.00847123 0.00000000
-0.22578302 0.00442623 0.00000853
-0.27084056 0.11135400 0.00000624
-0.41048127 -0.77772743 0.00000000
-0.14455485 -0.71599889 0.00000000
-0.50305891 0.11696031 0.00000175
-0.31394902 0.09004960 0.00000583
-0.76985216 -0.03146261 -0.00000182
-0.54492646 -0.20618711 -0.00000055
0.44477287 -0.65363443 0.26198962
-0.79417896 0.00272340 -0.00000193
-0.39798865 -0.37866309 0.00000000
0.07260320 -0.22504345 0.04276629
-0.11004097 0.39716887 0.00000438
0.39771879 -0.47175825 0.23427282
-0.30003735 -0.33538565 0.00000000
0.24477427 0.15095465 0.14418210
-0.28485695 0.13843738 0.00000558
-0.19676340 0.42965937 0.00000241
-0.17220357 -0.11823388 0.00000000
-0.14533746 0.20568927 0.00000672
-0.02755058 0.49054366 0.00000423
-0.28939179 0.50592321 -0.00000065
-0.05819766 -0.05720400 0.00000000
0.29208526 -0.01514114 0.17205030
-0.18564188 0.61281300 -0.00000046
-0.53476632 -0.16396719 -0.00000058
-0.45977223 -0.53195608 0.00000000
-0.68986017 -0.43887889 -0.00000075
-0.53941566 -0.06091675 -0.00000078
-0.10901176 -0.65736598 0.00000000
-0.36434260 -0.74941009 0.00000000
-0.72329849 -0.60044557 -0.00000050
-0.50190395 -0.01823629 -0.00000070
-0.13380580 -0.44538081 0.00000000
-0.33751580 -0.65277636 0.00000000
-0.21683262 -0.29600570 0.00000000
-0.50671560 -0.38682210 -0.00000006
-0.46921593 -0.10870025 -0.00000040
-0.18986531 -0.10097047 0.00000000
-0.51352829 -0.44475082 0.00000000
-0.55631781 -0.63404304 0.00000000
-0.46312758 -0.46427175 0.00000000
-0.32735372 -0.28094375 0.00000000
-0.67075151 -0.15976079 -0.00000117
-0.29151085 -0.53078771 0.00000000
-0.63400245 -0.09874390 -0.00000112
-0.17474084 -0.32535222 0.00000000
-0.06428129 -0.08251045 0.00000000
-0.28786543 -0.41883433 0.00000000
-0.63990891 -0.27408630 -0.00000083
-0.31986308 -0.16398372 0.00000000
0.23263425 -0.62273407 0.13703120
0.43293917 0.26050493 0.25501779
-0.65301418 -0.49771604 -0.00000049
-0.30113834 -0.55848962 0.00000000
0.15275820 0.54112184 0.08998057
-0.17065351 0.56806213 0.00000060
-0.17991452 -0.43913570 0.00000000
-0.30159771 -0.25872043 0.00000000
-0.17530720 -0.63306063 0.00000000
-0.25750810 0.14680056 0.00000591
-0.30152461 0.49692324 -0.00000073
-0.34284636 -0.03179957 0.00000000
0.00618814 -0.66302031 0.00364507
0.54306775 -0.59219015 0.31988913
-0.16579355 -0.06270472 0.00000000
0.04713000 0.18272570 0.02776152
-0.22361121 0.31422800 0.00000382
-0.15241943 -0.24718226 0.00000000
-0.16951908 -0.73300087 0.00000000
0.33929577 -0.12592918 0.19985920
-0.74631858 -0.29072866 -0.00000126
-0.19657737 -0.69641244 0.00000000
-0.54820377 -0.35971093 -0.00000029
-0.65599453 -0.20055844 -0.00000103
-0.13626672 0.11203427 0.00000826
-0.08398144 -0.09315647 0.00000000
-0.65653145 -0.79313922 0.00000000
-0.40429273 -0.34655112 0.00000000
-0.55948740 -0.05324358 -0.00000088
-0.08732879 -0.44431311 0.00000000
-0.52187914 0.24984826 -0.00000083
-0.59389287 0.18975388 -0.00000121
-0.02858165 -0.12431546 0.00000000
-0.11906257 -0.16201764 0.00000000
-0.03071712 -0.46563479 0.00000000
-0.48804373 -0.70786941 0.00000000
-0.69718874 -0.60510373 -0.00000049
-0.21284710 -0.67176396 0.00000000
-0.69866973 0.09591305 -0.00000166
0.09024908 -0.29151917 0.05316044
-0.09435900 0.63742840 0.00000090
-0.68506342 -0.70321888 -0.00000024
-0.50373679 0.11351967 0.00000179
-0.32307968 -0.64732909 0.00000000
-0.18275242 -0.40748149 0.00000000
-0.68686533 -0.12062045 -0.00000130
-0.35466802 -0.12196117 0.00000000
-0.67781579 -0.76362294 -0.00000009
-0.13446482 0.20522815 0.00000689
-0.39782384 -0.78301299 0.00000000
-0.39277038 -0.23733759 0.00000000
0.42949706 -0.14915618 0.25299105
-0.24815726 0.50782400 0.00000011
-0.31962374 -0.68956053 0.00000000
-0.56200725 -0.39878657 -0.00000028
-0.51929647 0.13729949 0.00000110
-0.26337770 0.30724469 0.00000317
-0.07072397 -0.61302203 0.00000000
-0.39415479 -0.16115117 0.00000000
-0.33514979 -0.36851543 0.00000000
-0.29711425 0.45816547 0.00000000
-0.08395637 0.36304218 0.00000529
0.05053971 0.46778068 0.02976998
0.28350276 -0.64144266 0.16699485
-0.15538669 -0.52851623 0.00000000
-0.54771441 -0.51295781 -0.00000002
-0.31672576 -0.51255697 0.00000000
-0.24155429 -0.10458261 0.00000000
-0.49387991 -0.51113039 0.00000000
-0.19986223 -0.16252521 0.00000000
-0.67803681 -0.23988482 -0.00000106
-0.67273241 -0.72940445 -0.00000017
-0.15191694 0.31503364 0.00000498
-0.12869586 -0.64452153 0.00000000
-0.23021048 -0.02466526 0.00000000
-0.51096970 -0.62007809 0.00000000
-0.13527648 0.66089225 -0.00000027
-0.35709092 0.12464878 0.00000442
-0.60801876 -0.74445152 0.00000000
-0.08311059 -0.75674856 0.00000000
-0.07842625 0.00659199 0.00001072
-0.77427882 -0.43296662 -0.00000092
-0.37056646 -0.09127407 -0.00000001
-0.13270776 -0.47064227 0.00000000
-0.74479067 -0.60836911 -0.00000048
-0.65861088 -0.37738219 -0.00000073
-0.39295101 -0.55199301 0.00000000
-0.47411221 -0.35634708 0.00000000
-0.52945900 0.02033540 0.00000286
0.38250071 0.23737805 0.22530776
-0.31502402 0.29075074 0.00000246
-0.52668321 -0.25539979 -0.00000038
-0.33320791 0.12662230 0.00000485
-0.05441444 0.47219908 0.00000410
-0.14947660 0.25223914 0.00000596
0.09414148 -0.08253442 0.05545323
-0.11352856 -0.61962390 0.00000000
-0.33946812 -0.27718031 0.00000000
-0.20667563 0.36599901 0.00000328
-0.22418375 -0.49019614 0.00000000
-0.42045337 -0.21366082 -0.00000000
-0.70504636 -0.05992029 -0.00000149
-0.63469231 -0.62982851 -0.00000018
-0.66108763 -0.24353699 -0.00000098
0.58632332 -0.01741024 0.34536710
-0.51393861 -0.29523370 -0.00000026
-0.13974512 -0.51272058 0.00000000
-0.63436395 -0.34533018 -0.00000068
-0.46237099 -0.06219044 -0.00000045
0.24321209 -0.08472779 0.14326198
-0.12476896 -0.49409968 0.00000000
-0.43589687 -0.56690055 0.00000000
-0.69663686 0.06235880 -0.00000106
-0.33374456 -0.03157600 0.00000000
-0.43060341 -0.37468186 0.00000000
-0.38026655 0.05027271 0.00000522
0.19155243 0.19169290 0.11283231
-0.16617090 0.33568025 0.00000446
-0.16781123 0.26500076 0.00000549
-0.01914116 -0.27152500 0.00000000
-0.20366102 -0.47785041 0.00000000
-0.17614837 0.36304367 0.00000390
-0.74838454 -0.17585918 -0.00000147
-0.76536512 -0.27027860 -0.00000132
-0.02308823 0.49540299 0.00000422
-0.08032825 -0.00649237 0.00000000
-0.78085947 -0.57599097 -0.00000056
0.22278547 -0.11207956 0.13122986
0.13761187 -0.36093137 0.08105908
-0.53167427 -0.69035476 0.00000000
-0.70826411 -0.25542340 -0.00000116
-0.50965220 -0.12324521 -0.00000054
-0.34247524 -0.63258743 0.00000000
-0.68873215 -0.20724085 -0.00000116
-0.57296395 -0.63823050 0.00000000
-0.63577622 -0.75636166 0.00000000
-0.52043712 0.25071585 -0.00000082
-0.35738561 -0.51244932 0.00000000
-0.28801489 0.00209272 0.00000762
-0.27091309 -0.63406616 0.00000000
-0.34573731 -0.34213838 0.00000000
-0.57803261 -0.29149315 -0.00000054
0.07913512 0.13829353 0.04661386
-0.12463794 0.60888058 0.00000080
-0.50090384 -0.37341508 -0.00000006
-0.15482870 0.43201244 0.00000317
-0.16917209 -0.39457828 0.00000000
-0.14101094 -0.47506183 0.00000000
-0.43442526 -0.04040425 -0.00000037
-0.19107088 -0.33063343 0.00000000
-0.35806301 -0.01280834 -0.00000009
-0.42520428 -0.49864775 0.00000000
-0.69552433 -0.09882351 -0.00000138
0.04158321 0.51427484 0.02449423
-0.09959277 -0.57604986 0.00000000
-0.62461168 -0.68402165 -0.00000004
-0.14145704 -0.63121319 0.00000000
-0.25492415 -0.45848507 0.00000000
-0.52336931 -0.66686350 0.00000000
0.24514356 -0.39547020 0.14439970
-0.31276900 -0.21330722 0.00000000
-0.65213197 -0.00012243 -0.00000137
0.23032582 -0.36716330 0.13567144
-0.03110246 0.33760849 0.00000647
-0.05309336 0.10104489 0.00000968
-0.67806691 -0.27756417 -0.00000099
0.04746930 -0.07357853 0.02796138
-0.10213928 -0.13006730 0.00000000
-0.77941662 -0.58216232 -0.00000054
-0.60138750 -0.17297010 -0.00000085
0.20660070 0.54826999 0.12169573
-0.29641926 -0.08771429 0.00000000
0.21207786 -0.43122062 0.12492263
-0.09492808 -0.25087878 0.00000000
-0.19698004 0.56506658 0.00000014
-0.13316990 -0.75311798 0.00000000
-0.75294602 -0.26062649 -0.00000134
-0.43170267 -0.04749171 -0.00000034
-0.03417824 -0.62863237 0.00000000
-0.41241428 -0.29596305 0.00000000
-0.21302009 0.57521570 -0.00000034
-0.49700102 -0.46921274 0.00000000
-0.58049792 -0.29085752 -0.00000055
-0.42261884 -0.69850802 0.00000000
-0.30544168 -0.25652903 0.00000000
-0.34694299 -0.15802470 0.00000000
0.15454654 0.22145703 0.09103431
-0.18616834 -0.59048223 0.00000000
-0.30546513 -0.01243347 0.00000000
-0.60730666 -0.16047791 -0.00000089
-0.64550561 -0.17781539 -0.00000103
-0.13630609 -0.69890976 0.00000000
-0.66328973 -0.31927246 -0.00000085
-0.02705771 0.01983636 0.00001129
-0.51067555 -0.05096267 -0.00000068
0.13247059 -0.78375185 0.07803066
-0.20730200 -0.78693795 0.00000000
-0.59806442 -0.68167663 0.00000000
-0.18810667 0.21277782 0.00000597
-0.30282161 -0.47101653 0.00000000
-0.51036680 -0.01039332 -0.00000075
-0.40750051 -0.40099147 0.00000000
-0.14816280 0.18556638 0.00000698
-0.36474147 -0.55663836 0.00000000
-0.46480438 -0.06357109 -0.00000046
-0.46848762 -0.67789668 0.00000000
-0.05532709 0.64557582 0.00000148
-0.34763414 -0.07814294 0.00000000
0.10848744 0.08745494 0.06390359
-0.17689934 0.00088023 0.00000932
-0.49796981 -0.78579158 0.00000000
0.13035119 -0.25424120 0.07678224
0.05936048 0.40050477 0.03496578
-0.09180129 -0.71064496 0.00000000
-0.38582599 -0.07996170 -0.00000009
-0.66604328 -0.11547138 -0.00000122
-0.48711878 -0.41820139 0.00000000
-0.19352673 -0.18131316 0.00000000
-0.52102238 0.17240763 0.00000048
-0.25250113 0.30280152 0.00000346
-0.19092190 0.32234314 0.00000428
0.41073585 -0.49336281 0.24194041
-0.64154589 -0.10314053 -0.00000114
-0.06880015 0.68103218 0.00000067
-0.45750055 -0.51220834 0.00000000
-0.21432428 -0.47067657 0.00000000
-0.47310540 0.01214812 0.00000408
-0.44068155 0.28039709 0.00000022
-0.59507102 -0.07784580 -0.00000099
-0.42518193 -0.13472997 -0.00000016
-0.06761020 0.53631246 0.00000294
-0.21562788 -0.47246963 0.00000000
-0.31902221 0.31379056 0.00000200
0.09987434 -0.60291404 0.05883012
-0.03234269 -0.69131893 0.00000000
0.11807816 -0.27656466 0.06955292
-0.68897712 0.04961185 -0.00000070
-0.63800126 -0.77815956 0.00000000
0.28620595 0.09710691 0.16858695
-0.38331902 -0.60760891 0.00000000
-0.37886405 -0.03744890 -0.00000014
-0.37649974 -0.77102190 0.00000000
-0.04856355 -0.60193253 0.00000000
-0.26752311 -0.26983368 0.00000000
0.29456165 -0.21597806 0.17350900
-0.59857881 0.17457175 -0.00000105
-0.44401258 0.16814767 0.00000203
-0.59627080 -0.70488459 0.00000000
-0.37370065 -0.33045989 0.00000000
-0.19678596 -0.40794322 0.00000000
-0.22901027 0.15963303 0.00000615
-0.04839270 -0.24389763 0.00000000
-0.05078956 -0.24180102 0.00000000
-0.50664961 0.11394730 0.00000173
-0.20200694 -0.31112993 0.00000000
-0.32185867 -0.25851041 0.00000000
-0.28626052 0.36578819 0.00000176
-0.58241612 -0.76649457 0.00000000
-0.00670406 0.62295395 0.00000255
-0.49473155 -0.40384465 0.00000000
-0.11108205 0.64990681 0.00000037
0.13945173 -0.41448131 0.08214284
0.18050008 -0.75293088 0.10632201
-0.74315810 -0.79441851 -0.00000001
-0.71178228 -0.66645533 -0.00000033
-0.61099273 0.12704682 -0.00000049
0.34072819 0.33714333 0.20070206
-0.38123509 -0.31668186 0.00000000
-0.70735949 -0.49282151 -0.00000073
-0.31532419 -0.73639649 0.00000000
-0.20264205 0.12652646 0.00000704
-0.54637504 -0.53550744 0.00000000
-0.30823532 -0.31670240 0.00000000
-0.13186339 0.39448613 0.00000409
-0.49350497 -0.57943398 0.00000000
-0.55101746 -0.24771567 -0.00000050
-0.72264344 -0.65279686 -0.00000037
-0.33956107 0.45209470 -0.00000071
-0.21265405 -0.16522333 0.00000000
0.36946627 -0.51870239 0.21763092
-0.52072114 -0.50421226 0.00000000
-0.72072029 -0.25459349 -0.00000121
-0.08094741 0.55520105 0.00000245
-0.37946084 -0.41199744 0.00000000
-0.39753956 -0.75035447 0.00000000
-0.40248072 -0.43645966 0.00000000
-0.48399559 0.23413612 0.00000016
-0.50055337 -0.50785214 0.00000000
-0.31646860 0.44463107 -0.00000014
0.28430358 0.30662784 0.16746598
-0.53165650 -0.45168102 -0.00000006
-0.61786193 -0.70657349 0.00000000
-0.26802033 -0.38743547 0.00000000
-0.14491066 -0.43356544 0.00000000
-0.18643843 -0.41444278 0.00000000
-0.64130741 0.08210440 -0.00000032
-0.04738420 -0.58245695 0.00000000
-0.23832950 0.51719052 0.00000015
-0.34426767 0.35346836 0.00000085
-0.71736652 -0.05492040 -0.00000155
-0.13347368 -0.76524132 0.00000000
-0.22367756 0.01008679 0.00000847
-0.61644948 -0.33661905 -0.00000062
0.32955557 -0.60394853 0.19412187
-0.23110130 -0.02745719 0.00000000
-0.40542313 -0.55965930 0.00000000
-0.33491826 -0.38820931 0.00000000
-0.54304421 -0.36426163 -0.00000026
-0.07252267 -0.60670018 0.00000000
-0.53426749 -0.14124912 -0.00000062
-0.20410287 0.02421198 0.00000856
-0.31226647 -0.50999850 0.00000000
-0.37000775 -0.06491081 -0.00000005
-0.69122350 -0.40900916 -0.00000081
-0.16391051 -0.09874318 0.00000000
-0.06012215 0.10180069 0.00000957
-0.36026999 0.16637123 0.00000367
0.39370137 -0.50343049 0.23190640
-0.28560245 -0.61830544 0.00000000
-0.39535162 0.06417474 0.00000470
-0.43326846 0.26313338 0.00000065
-0.19372590 0.42411268 0.00000256
-0.54789990 -0.76861840 0.00000000
-0.52364427 0.17989036 0.00000030
-0.29935056 -0.36442071 0.00000000
-0.08419691 -0.44282353 0.00000000
-0.06471094 -0.43723494 0.00000000
-0.18461607 -0.61767679 0.00000000
-0.58248752 -0.05491272 -0.00000097
-0.03547154 -0.29037264 0.00000000
0.35458031 0.08876435 0.20886193
-0.75438076 -0.27392393 -0.00000132
-0.79904181 -0.19394547 -0.00000152
-0.10385023 -0.06838442 0.00000000
-0.04516809 -0.53482372 0.00000000
-0.46392843 -0.38984025 0.00000000
-0.20700581 0.37297589 0.00000316
-0.57315773 -0.40758273 -0.00000031
-0.09748633 -0.74186409 0.00000000
-0.06888377 0.11781200 0.00000919
0.16607292 -0.65193385 0.09782382
-0.36740416 -0.51541674 0.00000000
-0.45525274 -0.76842701 0.00000000
-0.05939970 -0.23965104 0.00000000
-0.74619210 -0.51254600 -0.00000072
-0.18445019 -0.30642256 0.00000000
-0.58942503 -0.33982253 -0.00000050
0.17230785 0.52716649 0.10149605
-0.32710370 0.30714002 0.00000195
-0.42323151 -0.27840835 0.00000000
-0.18361741 -0.45960954 0.00000000
-0.21914946 0.55161184 -0.00000006
-0.31376657 -0.37044781 0.00000000
-0.12522160 0.55165893 0.00000174
-0.66208130 -0.26771009 -0.00000094
-0.11081598 -0.62417567 0.00000000
-0.51777142 -0.07018414 -0.00000067
-0.36752686 0.41991499 -0.00000071
0.12213654 0.10890855 0.07194348
-0.36697394 -0.60784137 0.00000000
-0.18869883 0.21448894 0.00000594
-0.74653924 -0.41304630 -0.00000097
-0.74380523 -0.05186848 -0.00000167
-0.16639584 0.17963298 0.00000679
-0.09506460 -0.18076222 0.00000000
-0.52171642 -0.10985279 -0.00000062
-0.61345237 -0.28412533 -0.00000070
-0.20998678 -0.56326836 0.00000000
-0.24729244 0.00078145 0.00000826
-0.28127691 0.30536646 0.00000286
-0.37465256 -0.57070643 0.00000000
-0.34590852 -0.37302634 0.00000000
-0.29892015 -0.55527395 0.00000000
-0.54866010 -0.36814356 -0.00000028
0.36878252 0.26332137 0.21722721
-0.44842893 -0.13317041 -0.00000026
-0.03968387 0.60009980 0.00000240
-0.39018211 0.35614845 -0.00000008
0.14353754 0.43314600 0.08454948
-0.64140373 -0.18574616 -0.00000099
-0.56206781 -0.27916527 -0.00000049
-0.57045603 -0.74571097 0.00000000
-0.19657683 0.30982292 0.00000439
-0.33800116 0.01527989 0.00000662
-0.13691124 0.07450252 0.00000882
-0.27924868 0.47711217 0.00000003
-0.20748854 0.27952456 0.00000468
-0.35128841 -0.34500068 0.00000000
-0.33550131 -0.41656822 0.00000000
-0.28558257 -0.63263905 0.00000000
-0.67164731 0.00288230 0.00000042
-0.49928865 -0.47384638 0.00000000
-0.73926604 -0.77125728 -0.00000007
-0.35073823 0.31508440 0.00000136
-0.76988333 -0.17864178 -0.00000155
0.04278611 0.35980412 0.02520279
-0.69994235 -0.07447862 -0.00000144
-0.55021840 -0.31289211 -0.00000038
-0.33328229 -0.34871715 0.00000000
-0.19569771 -0.77449864 0.00000000
-0.78399712 -0.23521194 -0.00000141
-0.22167027 -0.72377759 0.00000000
-0.74022704 -0.73780972 -0.00000016
0.40932593 0.11727894 0.24110901
0.01847101 0.45856789 0.01088019
-0.71250725 -0.69699252 -0.00000026
-0.67535728 -0.67289591 -0.00000028
-0.36100540 -0.41253108 0.00000000
-0.64794588 0.09954872 -0.00000074
0.23855764 0.03375986 0.14052032
-0.29272893 -0.24085093 0.00000000
-0.42236432 -0.10918049 -0.00000020
-0.45738512 0.06803116 0.00000344
-0.20802948 0.59097409 -0.00000050
-0.13808510 -0.45755908 0.00000000
-0.30237618 -0.37102395 0.00000000
0.03426671 0.16825195 0.02018451
-0.45117277 0.06301185 0.00000365
-0.48458824 -0.33604532 -0.00000006
-0.48771706 -0.72787774 0.00000000
-0.05964383 -0.68792528 0.00000000
-0.76055819 0.00356754 -0.00000130
-0.04659163 0.50275308 0.00000376
-0.59304386 0.01752392 0.00000168
-0.72394675 -0.12453402 -0.00000146
-0.46673346 -0.18850242 -0.00000024
-0.76951951 -0.60268617 -0.00000049
-0.31137574 0.12128307 0.00000536
-0.15574802 -0.10485797 0.00000000
-0.11900298 0.42326647 0.00000386
0.04576772 -0.00544056 0.02695908
-0.06637560 -0.52114630 0.00000000
-0.55997115 -0.66490102 0.00000000
-0.62225693 -0.21577856 -0.00000086
-0.63678944 -0.35343558 -0.00000068
0.05225246 0.61104059 0.03077886
-0.37068951 -0.50347471 0.00000000
-0.09668409 -0.69872999 0.00000000
-0.13812670 -0.54145926 0.00000000
0.26256651 0.33572236 0.15466201
-0.17705756 -0.31351161 0.00000000
-0.57432681 -0.23168977 -0.00000063
-0.08758061 0.69286388 0.00000011
-0.75554311 -0.12122396 -0.00000160
-0.32612783 -0.08345710 0.00000000
-0.54009736 -0.16004254 -0.00000061
-0.05196244 -0.21287873 0.00000000
-0.46008554 0.19418207 0.00000128
-0.45774570 -0.79318684 0.00000000
0.38283905 0.00210233 0.22550751
-0.12324502 -0.33879632 0.00000000
-0.43422320 -0.48885307 0.00000000
-0.05150216 -0.67407179 0.00000000
0.03794630 0.51881689 0.02235194
-0.08758874 -0.23972119 0.00000000
-0.01162833 0.66901439 0.00000179
-0.42220494 -0.45968869 0.00000000
-0.59526038 0.07233593 0.00000072
0.17768548 0.20386679 0.10466410
-0.03551649 -0.14678240 0.00000000
-0.50690192 -0.22775410 -0.00000035
-0.22252254 -0.25406757 0.00000000
-0.11172872 -0.50246495 0.00000000
-0.12092479 0.27671379 0.00000602
-0.64737916 -0.46758935 -0.00000052
-0.07167660 -0.18117148 0.00000000
-0.05038735 0.53196865 0.00000326
-0.45765671 0.29650304 -0.00000038
0.01785090 0.70887047 0.01051492
-0.52248067 -0.46984488 0.00000000
-0.70723659 -0.54771370 -0.00000063
-0.74322522 -0.39821926 -0.00000100
-0.68549973 -0.37894747 -0.00000084
-0.70688486 -0.08753769 -0.00000145
-0.09668953 -0.25394183 0.00000000
-0.12829030 -0.19193721 0.00000000
0.07798793 0.14002410 0.04593812
-0.43565437 0.09320695 0.00000344
0.14945798 -0.70364428 0.08803693
-0.13991484 0.45185798 0.00000311
0.37527871 -0.22764935 0.22105464
-0.74342215 0.02057218 -0.00000126
-0.74216831 -0.48094481 -0.00000080
-0.37246299 -0.60664457 0.00000000
-0.57881737 0.03628313 0.00000164
-0.76391613 -0.41370174 -0.00000097
-0.54184955 -0.33127338 -0.00000031
-0.37252650 0.01634139 0.00000594
-0.40316635 0.04881291 0.00000481
-0.06159349 0.05810445 0.00001020
-0.07142200 0.21970119 0.00000763
-0.42030108 0.31628063 0.00000001
-0.20589083 -0.54289043 0.00000000
-0.09060289 0.38520283 0.00000485
-0.42736959 -0.75269061 0.00000000
-0.25476405 0.36277348 0.00000241
-0.00939372 0.70178890 0.00000133
-0.61097348 -0.77739370 0.00000000
0.28630689 -0.27718681 0.16864660
0.41571119 -0.58961886 0.24487109
-0.77286524 -0.63958359 -0.00000040
-0.12533210 0.11594786 0.00000837
-0.17318963 -0.30031618 0.00000000
-0.06698479 -0.24768107 0.00000000
-0.61336082 -0.56493348 -0.00000020
-0.59136945 -0.06587068 -0.00000099
-0.40782163 0.11217543 0.00000366
-0.67558247 -0.03443589 -0.00000141
-0.37036663 0.04556219 0.00000549
-0.36399776 -0.12908217 0.00000000
-0.64454758 -0.30512920 -0.00000080
-0.58730334 -0.56122804 -0.00000010
-0.45570737 0.11162840 0.00000275
-0.19861060 -0.69929969 0.00000000
-0.58065969 -0.24071839 -0.00000064
-0.12171458 -0.59369719 0.00000000
-0.41063607 -0.23124792 0.00000000
-0.28280458 -0.49446166 0.00000000
-0.39576581 -0.19865794 0.00000000
-0.61493456 0.04895585 0.00000074
-0.10421732 -0.07517281 0.00000000
-0.06097334 -0.34774822 0.00000000
-0.24259365 -0.20682310 0.00000000
-0.10248934 -0.26863417 0.00000000
-0.21467121 -0.23585019 0.00000000
-0.60153270 -0.50751585 -0.00000026
-0.70158118 -0.73613220 -0.00000016
-0.17559452 -0.17453264 0.00000000
-0.40680465 -0.41179207 0.00000000
-0.26238272 -0.65340716 0.00000000
-0.37121901 -0.31597203 0.00000000
-0.79272538 -0.75328761 -0.00000012
-0.53065580 -0.70786530 0.00000000
-0.59750360 -0.57528812 -0.00000012
-0.34850764 -0.18701243 0.00000000
-0.07027673 -0.34265578 0.00000000
-0.23733972 0.51459867 0.00000021
-0.34446397 -0.19100282 0.00000000
-0.13276763 -0.67755252 0.00000000
-0.40124518 -0.66648656 0.00000000
-0.25553092 -0.32717156 0.00000000
-0.53089529 -0.17615116 -0.00000054
-0.12564839 -0.39033663 0.00000000
0.01304567 -0.19784370 0.00768444
-0.48378423 -0.76520324 0.00000000
-0.35691890 -0.57844532 0.00000000
-0.63714653 -0.35358244 -0.00000068
-0.07302234 0.66689152 0.00000082
-0.76248825 -0.66969806 -0.00000033
-0.41153413 -0.02195207 -0.00000030
-0.59365910 -0.77845901 0.00000000
-0.34258801 -0.39583805 0.00000000
-0.38962743 -0.01661730 -0.00000022
-0.34859234 0.24609241 0.00000256
-0.34363365 -0.59425527 0.00000000
-0.13342689 0.65984637 -0.00000022
-0.05692662 -0.25371301 0.00000000
-0.30719209 -0.50530052 0.00000000
-0.18734051 0.10606921 0.00000758
-0.51977795 -0.25942647 -0.00000035
-0.38559133 -0.00983191 -0.00000021
-0.09965872 -0.66758668 0.00000000
-0.65935934 -0.77453810 -0.00000003
-0.34660253 0.28222600 0.00000199
0.14309864 -0.21187250 0.08429102
0.08696080 -0.69149393 0.05122351
0.22505909 0.36158934 0.13256875
-0.14127579 0.22992542 0.00000642
-0.43153018 -0.52799571 0.00000000
-0.39751840 0.25174403 0.00000152
-0.50659245 -0.18972628 -0.00000041
-0.05704618 -0.53101653 0.00000000
-0.21561824 0.17819510 0.00000607
-0.62809223 -0.49387169 -0.00000039
-0.25602049 0.19407476 0.00000521
-0.41369927 -0.17062975 -0.00000005
-0.37671912 0.14086036 0.00000378
-0.52258980 0.19985144 -0.00000001
0.07975270 0.06188059 0.04697764
-0.09085212 0.66115642 0.00000057
-0.14071241 -0.15573239 0.00000000
0.20501441 -0.44326845 0.12076197
-0.05529314 0.53825390 0.00000309
-0.16727310 -0.36051264 0.00000000
-0.75163090 -0.77534127 -0.00000006
-0.68236077 -0.61835599 -0.00000040
-0.66737747 -0.79510701 -0.00000001
-0.47749418 -0.27603459 -0.00000014
0.26002774 0.09279252 0.15316705
-0.21867853 -0.54506069 0.00000000
-0.26020926 -0.40108886 0.00000000
-0.33962414 -0.68535757 0.00000000
-0.60601056 -0.10499678 -0.00000099
-0.12010382 -0.56191814 0.00000000
-0.41106522 -0.32491559 0.00000000
-0.11778358 -0.32209432 0.00000000
-0.66924655 -0.45946392 -0.00000063
-0.64702922 0.04905739 0.00000012
-0.03401108 -0.32631990 0.00000000
-0.59386158 0.15791968 -0.00000068
-0.11717972 -0.14559427 0.00000000
-0.52326572 0.26921311 -0.00000118
-0.44444960 -0.45817098 0.00000000
-0.49410245 -0.06622120 -0.00000058
-0.22728170 -0.20908490 0.00000000
-0.36773023 -0.50069577 0.00000000
-0.58989155 -0.21898514 -0.00000072
-0.31041905 -0.63776797 0.00000000
-0.74154687 -0.45235199 -0.00000087
-0.74066389 -0.69046068 -0.00000027
-0.46859908 -0.22669628 -0.00000018
-0.67289394 -0.50286484 -0.00000057
0.13227522 0.28476983 0.07791558
0.39921564 -0.25378525 0.23515441
-0.46084020 -0.06253778 -0.00000044
-0.13503951 -0.05348357 0.00000000
-0.29412389 -0.45539361 0.00000000
-0.70824385 -0.13868050 -0.00000136
-0.17276955 -0.31758100 0.00000000
-0.68457001 0.06187963 -0.00000082
-0.33240905 -0.35942078 0.00000000
-0.24718398 -0.44196329 0.00000000
-0.71490431 0.05724005 -0.00000132
-0.47354689 -0.57795942 0.00000000
-0.45068082 0.14875650 0.00000222
-0.32091889 0.21107253 0.00000367
-0.47566223 -0.28920892 -0.00000010
-0.03332628 -0.54533488 0.00000000
-0.48479494 -0.70184815 0.00000000
-0.50403446 -0.43422571 0.00000000
0.26306990 0.45775938 0.15495829
-0.13402183 0.29815513 0.00000551
-0.31230751 0.18692142 0.00000424
-0.45871121 -0.04825830 -0.00000046
-0.07223295 0.01208549 0.00001073
-0.65732074 -0.07132526 -0.00000126
-0.29953611 0.01573015 0.00000724
-0.12489332 0.63017678 0.00000044
-0.22789297 -0.23965017 0.00000000
-0.54070437 -0.34221974 -0.00000029
-0.23426037 0.03123789 0.00000800
-0.23176003 -0.49660668 0.00000000
-0.13870852 0.22916368 0.00000647
-0.28398937 0.00137964 0.00000769
-0.37443638 0.35312226 0.00000027
-0.13357146 0.55415261 0.00000154
-0.33903775 0.08967759 0.00000535
-0.05474170 0.14620525 0.00000898
-0.45398140 0.04715599 0.00000386
-0.57899255 -0.13660480 -0.00000082
-0.60907465 -0.72620249 0.00000000
-0.67249691 0.00419406 0.00000038
-0.19325677 0.01263546 0.00000889
-0.47261289 -0.19700100 -0.00000025
-0.06784607 -0.23839973 0.00000000
-0.09903864 0.15751894 0.00000814
0.13881880 -0.08071304 0.08177002
-0.72879082 -0.75380576 -0.00000012
-0.02978912 -0.31820211 0.00000000
-0.20538723 0.43229482 0.00000220
-0.28312072 -0.50570464 0.00000000
0.11927845 -0.07814029 0.07025994
-0.71276873 -0.48169315 -0.00000078
-0.43288860 -0.20339905 -0.00000007
-0.24387138 0.13227595 0.00000634
-0.49052975 0.14320289 0.00000155
-0.14208521 -0.65472353 0.00000000
0.03279958 0.24227446 0.01932031
-0.26454911 -0.03140490 0.00000000
-0.73507386 -0.51419288 -0.00000071
-0.07012917 -0.63050836 0.00000000
-0.38914305 0.10836384 0.00000408
-0.36898565 0.20441218 0.00000286
-0.42620078 -0.61563677 0.00000000
-0.58561265 -0.34329772 -0.00000048
-0.32721269 -0.72538155 0.00000000
-0.70057577 -0.45154271 -0.00000078
-0.30649406 -0.08377342 0.00000000
-0.73160082 -0.21539146 -0.00000133
-0.57449591 -0.05347257 -0.00000094
-0.67334962 0.10498584 -0.00000132
-0.64231783 -0.32395834 -0.00000075
-0.10870102 0.33976692 0.00000526
-0.15747324 0.11283569 0.00000793
-0.28836152 0.01942666 0.00000736
-0.68023866 -0.65624058 -0.00000033
-0.72652191 -0.47590220 -0.00000081
-0.20034660 0.14323737 0.00000683
-0.19632185 0.34564325 0.00000382
-0.18493877 -0.10812630 0.00000000
-0.55862588 -0.10586276 -0.00000078
-0.50775439 -0.63989282 0.00000000
-0.01928348 0.00600865 0.00001162
-0.33830038 -0.27911207 0.00000000
-0.66734838 -0.30246207 -0.00000090
-0.71641642 0.05921334 -0.00000138
0.38834345 -0.48293114 0.22875036
-0.33428547 0.08148290 0.00000558
0.10485878 0.40416110 0.06176616
-0.34299958 -0.32702994 0.00000000
-0.29206961 -0.70732671 0.00000000
-0.57333720 0.15313102 -0.00000021
-0.74382323 -0.55260456 -0.00000062
-0.56886119 -0.07725682 -0.00000088
0.40284234 -0.10067887 0.23729037
0.14792563 0.26371837 0.08713432
-0.55600184 -0.30739585 -0.00000042
-0.22959736 -0.62245816 0.00000000
-0.29345247 -0.03929029 0.00000000
-0.68308347 0.04327599 -0.00000048
-0.26808268 0.05407093 0.00000714
-0.33766803 -0.00137766 -0.00000002
-0.05491583 -0.48479441 0.00000000
-0.22129084 -0.69740629 0.00000000
-0.31047335 0.45709991 -0.00000023
-0.45643938 0.34188798 -0.00000111
-0.10662477 -0.76949662 0.00000000
-0.43108988 0.17650262 0.00000214
-0.79484457 -0.47206989 -0.00000082
-0.03119810 -0.64972150 0.00000000
-0.76083100 -0.59977090 -0.00000050
-0.33137655 -0.73072231 0.00000000
-0.52820116 0.06594782 0.00000212
0.36769703 0.34896144 0.21658765
-0.74908197 -0.72377408 -0.00000019
-0.07320945 -0.43576100 0.00000000
-0.34999514 -0.61326212 0.00000000
0.20192233 -0.06185780 0.11894061
-0.09936531 -0.54141551 0.00000000
-0.37129620 -0.18781865 0.00000000
-0.23217574 -0.22051051 0.00000000
0.21162885 -0.28544673 0.12465815
-0.38504350 0.27040455 0.00000145
-0.02115372 -0.55589235 0.00000000
-0.09360347 -0.75785619 0.00000000
-0.67790788 -0.70274174 -0.00000024
-0.55987990 0.11513986 0.00000069
0.10672943 -0.39042157 0.06286805
-0.49503168 -0.23822027 -0.00000028
-0.33687791 -0.01982190 0.00000000
-0.21222058 -0.58495092 0.00000000
-0.15308897 0.49112922 0.00000222
-0.23763403 0.29280376 0.00000391
-0.37186965 -0.27417600 0.00000000
-0.06533474 0.62854737 0.00000159
0.17778657 -0.49007538 0.10472365
-0.59192002 0.10414782 0.00000026
-0.58008862 -0.46892673 -0.00000023
-0.06803899 0.33395511 0.00000596
-0.03846479 0.40244806 0.00000538
-0.32464394 -0.02027104 0.00000000
-0.75925654 -0.61087841 -0.00000047
-0.20559826 0.22891001 0.00000546
-0.12555259 -0.58490980 0.00000000
-0.31136674 -0.53623432 0.00000000
-0.37637794 -0.67470264 0.00000000
-0.44933671 -0.72488093 0.00000000
-0.35422334 -0.33053085 0.00000000
0.60661435 -0.74299997 0.35732067
-0.33556584 -0.09768687 0.00000000
-0.18095951 -0.55007172 0.00000000
-0.38892189 -0.77721596 0.00000000
-0.45936504 -0.33828422 0.00000000
-0.15283209 -0.01417195 0.00000000
-0.43469700 0.21122730 0.00000149
-0.49215609 -0.44535056 0.00000000
-0.08340569 0.27048066 0.00000668
-0.38149565 -0.36852798 0.00000000
-0.32838538 -0.69418609 0.00000000
-0.16839667 -0.10563623 0.00000000
-0.33767059 0.18752190 0.00000375
-0.44548869 0.26714709 0.00000035
-0.18032485 -0.70494395 0.00000000
-0.31377804 0.24814308 0.00000319
-0.75040889 -0.05923837 -0.00000168
-0.02909245 -0.07629861 0.00000000
-0.15852913 -0.58862180 0.00000000
-0.50575262 0.15172499 0.00000112
-0.09651757 -0.19334494 0.00000000
-0.30340606 -0.39679077 0.00000000
-0.15001045 -0.04578027 0.00000000
-0.20258535 -0.19649157 0.00000000
-0.69273108 -0.65861315 -0.00000035
-0.27448419 -0.01706363 0.00000000
-0.13045985 -0.13099322 0.00000000
-0.30008978 0.12634379 0.00000549
-0.06164845 -0.66395921 0.00000000
-0.26411688 0.29170981 0.00000342
0.08219226 0.48500919 0.04841464
-0.53312266 0.23692030 -0.00000083
-0.10508676 0.06442178 0.00000945
-0.47544536 0.19982018 0.00000090
-0.26069185 0.29254922 0.00000347
-0.08599305 -0.58459467 0.00000000
-0.41994834 -0.02012219 -0.00000034
-0.45562252 -0.26196840 -0.00000007
0.05986887 -0.10851297 0.03526524
-0.07544591 0.15738595 0.00000850
-0.22370677 0.32504863 0.00000364
0.49877611 -0.57798630 0.29379973
-0.12679248 -0.49879482 0.00000000
-0.43211162 0.33934614 -0.00000060
-0.04967153 0.01034482 0.00001110
-0.35192755 0.04285983 0.00000589
-0.45655257 -0.46194595 0.00000000
-0.47055829 0.12787914 0.00000219
-0.05178040 0.69564122 0.00000075
0.02147131 -0.19345744 0.01264749
-0.54722774 -0.22214311 -0.00000053
-0.77103746 -0.64822137 -0.00000038
-0.46169871 -0.19603734 -0.00000021
-0.76838201 -0.03724076 -0.00000180
-0.73400986 -0.47723472 -0.00000081
-0.67232829 -0.67105299 -0.00000027
-0.73689270 -0.15355696 -0.00000146
-0.62566411 -0.26426452 -0.00000079
-0.04666076 -0.34230754 0.00000000
-0.49854493 -0.16857389 -0.00000042
-0.66695708 -0.72667688 -0.00000015
-0.19618902 0.53815436 0.00000061
-0.73706108 -0.14455795 -0.00000148
-0.41871795 -0.17559119 -0.00000006
-0.06762045 -0.12550148 0.00000000
-0.62082797 -0.19899249 -0.00000088
-0.70015401 -0.33045346 -0.00000099
-0.13522118 -0.45916033 0.00000000
0.18545091 -0.61657488 0.10923826
-0.14194030 -0.29125670 0.00000000
-0.04407332 0.75539100 -0.00000010
-0.40013650 -0.33230126 0.00000000
-0.24678366 -0.03781710 0.00000000
-0.23126084 0.15302823 0.00000622
-0.32211632 0.02511191 0.00000676
0.09144639 -0.09144110 0.05386571
-0.48955902 0.24365567 -0.00000011
-0.21134660 0.17258447 0.00000622
-0.17053539 0.06914044 0.00000839
-0.54838437 0.10256883 0.00000112
-0.25876868 -0.32018909 0.00000000
-0.15292434 -0.20468526 0.00000000
0.06001544 -0.77536869 0.03535158
-0.47755542 0.19977471 0.00000086
-0.29817116 -0.08282721 0.00000000
0.31938529 0.39077285 0.18813021
-0.48434341 -0.13926752 -0.00000041
-0.57869774 0.04771095 0.00000145
-0.09680096 -0.12542795 0.00000000
-0.77672476 -0.59193242 -0.00000052
0.17516860 0.36301059 0.10318145
-0.55363798 0.07708946 0.00000144
-0.02856980 -0.01315300 0.00000000
-0.15220377 0.03767508 0.00000914
-0.13820773 -0.11337645 0.00000000
-0.04598626 -0.11990889 0.00000000
-0.17699654 0.37230927 0.00000374
-0.49790633 -0.36051482 -0.00000007
-0.57934654 -0.38291055 -0.00000038
-0.35874614 -0.10848222 0.00000000
-0.39036912 -0.46290946 0.00000000
-0.58994055 -0.45387161 -0.00000030
-0.71084648 -0.67404813 -0.00000031
-0.10540734 0.16459887 0.00000794
-0.73845452 0.03516594 -0.00000141
-0.04621797 0.24802563 0.00000758
-0.03361352 0.29447818 0.00000708
-0.41532326 0.12159266 0.00000336
-0.29835680 -0.19005841 0.00000000
-0.22236148 -0.05053919 0.00000000
-0.33319515 -0.40650856 0.00000000
-0.66069674 0.07401013 -0.00000056
-0.25464872 0.15973075 0.00000576
-0.03382161 0.36351329 0.00000604
-0.12412660 0.57884735 0.00000131
0.36313254 -0.42795536 0.21390009
-0.29798448 -0.11110706 0.00000000
-0.16112186 -0.43493712 0.00000000
-0.59817863 -0.08352202 -0.00000099
-0.26677582 -0.07198853 0.00000000
-0.28279164 -0.00302552 0.00000000
-0.33056378 -0.44513005 0.00000000
-0.42707828 0.30993551 -0.00000002
-0.47997314 0.26034161 -0.00000020
0.10107546 0.28037295 0.05953763
-0.43892667 -0.15486571 -0.00000019
-0.60397768 0.15908705 -0.00000089
-0.69473886 -0.62475044 -0.00000044
-0.59567302 -0.79303569 0.00000000
-0.28156495 0.51342630 -0.00000062
-0.10700736 0.38922626 0.00000455
-0.15128550 -0.70431554 0.00000000
-0.04055869 -0.47887063 0.00000000
0.22881630 0.06603245 0.13478227
0.14162049 0.52535629 0.08342009
-0.08234773 0.06558311 0.00000977
-0.43151623 -0.79143161 0.00000000
-0.27204308 -0.68178725 0.00000000
-0.73500663 -0.50168508 -0.00000075
-0.54453748 -0.61321497 0.00000000
-0.24442732 -0.56964129 0.00000000
-0.61267912 -0.56787997 -0.00000020
-0.75407940 0.02776788 -0.00000158
0.05544964 0.11736252 0.03266213
-0.11703150 -0.78621536 0.00000000
-0.12321228 -0.46693680 0.00000000
-0.33120105 0.28120908 0.00000231
-0.04514823 0.75265175 -0.00000011
-0.07457538 0.24606679 0.00000718
0.02921056 -0.12598926 0.01720623
-0.69315690 -0.41175905 -0.00000082
-0.63819641 0.03639987 0.00000050
-0.10843127 -0.58683068 0.00000000
0.08961104 0.46023035 0.05278461
-0.70390964 -0.13649178 -0.00000135
-0.49540403 0.03368103 0.00000329
-0.27176937 -0.22079173 0.00000000
-0.14716285 0.09425003 0.00000837
-0.53056586 -0.37166175 -0.00000019
-0.55351615 -0.17141205 -0.00000065
-0.23783357 -0.09333402 0.00000000
-0.04315461 -0.61818993 0.00000000
-0.08138641 0.15448289 0.00000845
-0.11350110 0.28070623 0.00000608
-0.08929780 -0.47221172 0.00000000
-0.25903061 0.52772862 -0.00000043
-0.60167795 -0.52845734 -0.00000022
-0.23502973 -0.74132681 0.00000000
-0.16646980 -0.50091147 0.00000000
-0.67794842 -0.68587238 -0.00000027
-0.53933597 -0.06926959 -0.00000077
0.14685559 -0.78633511 0.08650402
-0.46517545 -0.68925941 0.00000000
-0.51434064 -0.75571269 0.00000000
-0.58095300 -0.33084351 -0.00000048
-0.07065565 0.39851683 0.00000496
-0.03305178 -0.73015946 0.00000000
-0.44427046 -0.74391431 0.00000000
-0.09258577 0.06965620 0.00000956
-0.66991484 0.01001998 0.00000033
0.62023568 -0.29580864 0.36534324
-0.26700422 -0.00766973 0.00000000
-0.08940160 -0.06387030 0.00000000
-0.30761853 0.41313809 0.00000055
-0.68549424 -0.63105059 -0.00000040
-0.36703917 0.10474270 0.00000457
-0.30510917 0.09703602 0.00000588
-0.16016532 0.21766995 0.00000632
0.18078040 -0.68587124 0.10648713
-0.27957815 -0.72773486 0.00000000
-0.26760137 -0.05313212 0.00000000
-0.37755135 0.26699001 0.00000165
-0.16860704 -0.17039445 0.00000000
-0.49326393 -0.16224664 -0.00000040
-0.53684992 0.12759414 0.00000092
-0.60705078 0.06534655 0.00000061
-0.59370697 0.08169654 0.00000060
-0.57242024 -0.64507121 0.00000000
-0.23516628 -0.08587247 0.00000000
-0.03257678 -0.47613379 0.00000000
-0.60074514 0.12042007 -0.00000018
-0.02113402 0.22301760 0.00000834
-0.14257905 0.58480674 0.00000086
-0.13668695 0.18990062 0.00000709
-0.34209576 -0.55970085 0.00000000
-0.31733692 -0.34376708 0.00000000
-0.65428364 -0.11825052 -0.00000117
-0.22223189 -0.75449747 0.00000000
-0.06082826 -0.01688056 0.00000000
-0.24786209 -0.55022466 0.00000000
-0.24406892 -0.79794329 0.00000000
-0.73101526 -0.43529028 -0.00000091
-0.22906514 -0.12186742 0.00000000
-0.54932666 -0.11040202 -0.00000074
-0.34410542 0.11110104 0.00000490
-0.45617342 0.14230636 0.00000223
-0.71268338 -0.56069869 -0.00000060
-0.19778110 0.18044969 0.00000631
-0.51743293 -0.51478636 0.00000000
-0.42065820 -0.03875040 -0.00000031
-0.40690669 -0.26330769 0.00000000
-0.14301650 -0.57426602 0.00000000
0.51788783 -0.59782362 0.30505726
-0.12831567 0.55797476 0.00000158
-0.37236226 -0.63961107 0.00000000
0.03163457 0.08423361 0.01863407
-0.66983742 -0.58406305 -0.00000041
0.12114863 0.40565884 0.07136156
0.00714899 -0.03728434 0.00421105
-0.65528774 -0.62044102 -0.00000029
-0.45475101 0.24053231 0.00000061
-0.05441875 0.43658546 0.00000463
-0.77272010 -0.30883005 -0.00000123
-0.07436876 0.21249028 0.00000769
-0.37565380 -0.23569550 0.00000000
-0.04963304 -0.31340733 0.00000000
0.21956927 0.28251627 0.12933519
-0.57095885 -0.75303775 0.00000000
-0.55889374 -0.29496124 -0.00000045
-0.63048363 -0.74363172 0.00000000
-0.47671020 0.17958884 0.00000121
-0.32493323 -0.73741055 0.00000000
-0.45943028 -0.71495157 0.00000000
-0.59323967 -0.26487735 -0.00000065
-0.54799300 0.00241146 0.00000280
0.11610203 -0.43116885 0.06838890
-0.44507018 -0.56123602 0.00000000
-0.05783704 -0.56168503 0.00000000
-0.26900607 -0.74684501 0.00000000
-0.56806427 -0.58408058 0.00000000
-0.35195541 -0.13860901 0.00000000
-0.03553441 0.14965574 0.00000922
-0.31760177 0.25546902 0.00000300
-0.26180121 -0.68081057 0.00000000
-0.16909496 -0.48045394 0.00000000
0.22728232 0.34554559 0.13387834
-0.70933449 -0.03730142 -0.00000155
-0.07586226 0.30264017 0.00000632
