ply
format ascii 1.0
element vertex 1232
property float x
property float y
property float z
end_header
-0.22096744 0.42420009 0.00000203
-0.74129605 -0.54412222 -0.00000064
-0.72266269 -0.56289190 -0.00000059
-0.48220077 -0.65123349 0.00000000
-0.07693239 -0.54936159 0.00000000
0.03001623 -0.62989986 0.05305268
0.13352440 -0.07782438 0.23599990
-0.11844999 -0.20371363 0.00000000
-0.19179282 0.53472048 0.00000075
0.18535049 0.02178531 0.32760045
-0.09210292 -0.45253035 0.00000000
-0.76161987 -0.04505828 -0.00000176
0.30151364 -0.26496270 0.53291422
-0.40773487 -0.11132350 -0.00000013
0.04936701 0.44190091 0.08725453
0.02828743 -0.64834940 0.04999708
-0.13346305 0.63731825 0.00000015
0.05598986 0.09183500 0.09896020
-0.06269898 0.61691189 0.00000180
-0.16732293 -0.17614551 0.00000000
0.16863038 -0.73631352 0.29804853
-0.72441524 -0.38223496 -0.00000100
-0.51268923 -0.13457480 -0.00000054
-0.23638831 0.15156978 0.00000616
-0.77350110 -0.21599118 -0.00000146
-0.34363914 0.12743622 0.00000464
-0.50513470 -0.11620617 -0.00000054
-0.11101958 -0.05503880 0.00000000
-0.32082620 -0.30695286 0.00000000
0.33320513 -0.74725157 0.58892870
-0.47342712 0.25604877 -0.00000001
-0.20850171 -0.64467281 0.00000000
-0.78221220 0.01545840 -0.00000192
-0.16498718 0.22960608 0.00000607
-0.67326880 0.03547732 -0.00000016
-0.59864181 -0.07081311 -0.00000102
-0.39474848 -0.25843078 0.00000000
-0.59244740 -0.63483918 0.00000000
-0.15973291 -0.33534220 0.00000000
-0.01261514 0.20188467 0.00000878
-0.60341859 -0.17037205 -0.00000086
-0.41455904 -0.39315867 0.00000000
-0.57836521 0.21941277 -0.00000144
-0.31314856 -0.45898965 0.00000000
0.09279718 0.33062971 0.16401590
-0.27611175 0.07088314 0.00000677
-0.02141503 -0.28738523 0.00000000
-0.69710988 -0.07768040 -0.00000142
0.38240430 -0.54639339 0.67588586
-0.15653501 -0.36330733 0.00000000
-0.22907537 0.11670095 0.00000679
-0.14103568 -0.40570942 0.00000000
-0.44150138 -0.43287423 0.00000000
-0.11183596 0.35580236 0.00000498
-0.32663617 -0.38531539 0.00000000
-0.13545540 0.05466241 0.00000914
-0.13614859 -0.53220481 0.00000000
-0.21584611 -0.32372314 0.00000000
0.08784155 -0.44588909 0.15525699
-0.52129531 -0.78384680 0.00000000
-0.18678518 -0.37547457 0.00000000
-0.17908566 -0.42830813 0.00000000
-0.24514478 0.02494449 0.00000793
-0.01409695 -0.50780129 0.00000000
-0.48134261 -0.05054626 -0.00000055
-0.47208396 0.10791818 0.00000249
-0.41052377 -0.75945073 0.00000000
-0.13374320 0.57130075 0.00000125
-0.64834476 -0.43796033 -0.00000058
-0.46257886 -0.49680847 0.00000000
-0.63261175 -0.41105700 -0.00000056
-0.20254959 0.21251065 0.00000576
-0.48501453 0.28644630 -0.00000074
-0.19872673 0.26685131 0.00000500
-0.65558213 -0.46062395 -0.00000057
-0.60736340 -0.78367978 0.00000000
-0.02118824 -0.65448850 0.00000000
0.05526173 -0.64619255 0.09767325
-0.19108880 -0.73223150 0.00000000
-0.62461042 -0.65730137 -0.00000009
0.01842809 -0.67331678 0.03257103
-0.74775749 -0.26177117 -0.00000131
-0.51054937 -0.53265715 0.00000000
0.15976878 -0.06252728 0.28238595
-0.42890355 -0.27820602 0.00000000
-0.32589918 -0.75366431 0.00000000
0.28598052 -0.53326243 0.50546080
-0.78463972 -0.57141846 -0.00000057
0.04791085 0.55049354 0.08468082
0.02991091 -0.03726562 0.05286653
-0.40084919 0.38093331 -0.00000070
-0.36726841 -0.66128802 0.00000000
-0.29756212 0.31572154 0.00000238
0.01941168 -0.29452413 0.03430949
-0.16279648 -0.59960520 0.00000000
-0.02463922 -0.15764017 0.00000000
-0.16998377 -0.24025431 0.00000000
-0.41797608 0.20997766 0.00000183
-0.46539938 0.15255222 0.00000188
-0.24008396 -0.08883815 0.00000000
-0.13919047 -0.34075150 0.00000000
-0.27155817 -0.60749519 0.00000000
-0.19994813 -0.26963845 0.00000000
-0.38539773 -0.05743647 -0.00000013
-0.02761554 -0.46663189 0.00000000
-0.18037626 -0.50005656 0.00000000
-0.34809566 -0.60927778 0.00000000
0.04775526 -0.59094876 0.08440582
-0.33238059 -0.60436898 0.00000000
0.15223353 0.33295712 0.26906696
-0.07586597 -0.33933297 0.00000000
-0.06783577 0.03181619 0.00001050
0.03926828 -0.67361879 0.06940537
-0.34926695 0.10582202 0.00000489
-0.44656277 0.12615828 0.00000268
-0.14561014 -0.28657115 0.00000000
-0.45211694 -0.41743615 0.00000000
-0.01356022 0.09829587 0.00001032
0.09329579 0.05761568 0.16489717
-0.52839810 -0.37231937 -0.00000018
-0.38438192 0.08276412 0.00000460
-0.41770759 0.19778696 0.00000204
-0.26710528 -0.37443200 0.00000000
-0.18521622 -0.13306397 0.00000000
0.04301367 -0.68251699 0.07602522
-0.79940099 -0.27454099 -0.00000131
-0.45738891 -0.01162894 -0.00000052
-0.24916589 -0.76135945 0.00000000
-0.56482518 -0.76977432 0.00000000
-0.44023407 -0.41229600 0.00000000
-0.67145687 -0.73543364 -0.00000015
-0.62229747 -0.02708909 -0.00000119
-0.34994325 -0.33660898 0.00000000
-0.60172337 0.15469453 -0.00000078
-0.06752913 0.72871560 -0.00000011
-0.28039867 -0.08639987 0.00000000
-0.34310076 -0.52135760 0.00000000
-0.01524748 -0.19798195 0.00000000
-0.54575467 -0.19680753 -0.00000057
-0.25937104 0.23415682 0.00000447
-0.26518622 -0.61517429 0.00000000
-0.30622819 -0.63724744 0.00000000
-0.46927658 0.15243821 0.00000181
0.09033157 -0.19760011 0.15965801
-0.29203719 -0.39198557 0.00000000
-0.70920873 0.00139383 -0.00000028
-0.51160663 -0.02644817 -0.00000072
-0.11768774 -0.37872216 0.00000000
-0.20911138 -0.35663244 0.00000000
-0.62931406 -0.46578822 -0.00000045
-0.55347866 -0.22951692 -0.00000054
0.06267269 0.32259229 0.11077187
-0.64005983 -0.70329118 -0.00000007
-0.08030952 0.27170974 0.00000671
-0.73567539 -0.33534583 -0.00000113
-0.33304593 -0.57562029 0.00000000
-0.63740557 0.15712224 -0.00000150
-0.09832894 0.12566617 0.00000863
-0.15033497 0.31616151 0.00000499
-0.18426783 -0.33645689 0.00000000
-0.03438642 0.54829383 0.00000326
-0.25428054 0.43975526 0.00000113
-0.17370231 -0.62955427 0.00000000
-0.53318208 -0.30217817 -0.00000033
-0.59148246 -0.29813066 -0.00000058
-0.09652134 -0.30645493 0.00000000
0.18660928 -0.41594738 0.32982564
-0.25423956 -0.05945391 0.00000000
-0.10702120 0.08701801 0.00000908
-0.19296432 0.34446257 0.00000390
-0.38461161 0.36664453 -0.00000015
-0.24526443 -0.52420211 0.00000000
-0.53356576 -0.58368063 0.00000000
-0.05666823 -0.40997311 0.00000000
-0.34153184 0.00572342 0.00000671
0.03044514 -0.71635503 0.05381076
-0.48811036 -0.42476061 0.00000000
-0.51999730 -0.28742266 -0.00000030
-0.34120819 -0.17534515 0.00000000
-0.26152265 0.14636476 0.00000586
-0.19105130 -0.42328069 0.00000000
-0.08787468 -0.19259863 0.00000000
-0.61781019 0.09811879 -0.00000014
-0.35473093 -0.77045524 0.00000000
-0.01230307 0.35604349 0.00000647
0.02433881 0.17210928 0.04301803
-0.30481410 -0.21137837 0.00000000
-0.09314678 0.39311478 0.00000470
-0.23344198 0.56167758 -0.00000050
-0.29417816 0.45927992 0.00000004
-0.64867032 -0.42016545 -0.00000061
-0.28467977 0.32015684 0.00000255
-0.22395305 0.54113215 0.00000002
-0.55291384 0.04690391 0.00000196
-0.61935389 0.15318330 -0.00000109
-0.59469682 -0.11356860 -0.00000092
-0.02401226 0.66716576 0.00000163
-0.61827028 -0.06589970 -0.00000111
-0.49579427 0.30387637 -0.00000123
-0.55210805 0.08975168 0.00000126
-0.52604091 -0.33899659 -0.00000023
-0.11560345 0.05897463 0.00000937
-0.42417717 -0.70526505 0.00000000
-0.16099040 -0.59168917 0.00000000
-0.70755762 0.00258019 -0.00000027
0.09647272 -0.18875191 0.17051229
-0.17484778 -0.54935104 0.00000000
-0.70885444 -0.16674733 -0.00000132
-0.45436972 0.15900759 0.00000198
-0.62396640 -0.73723394 0.00000000
-0.61119378 0.18461558 -0.00000146
-0.57095832 0.19722579 -0.00000090
-0.29569957 -0.16518930 0.00000000
-0.61062175 0.05148573 0.00000078
-0.63100582 -0.78673130 0.00000000
0.05258540 -0.75597835 0.09294293
-0.23757470 -0.03897163 0.00000000
-0.72762072 -0.22271748 -0.00000130
-0.09759229 0.70115995 -0.00000024
-0.75704384 -0.78364009 -0.00000004
-0.17098168 -0.02006579 0.00000000
0.35879365 -0.21984223 0.63415390
-0.37942329 -0.46017122 0.00000000
-0.54668885 -0.67569596 0.00000000
-0.02942733 0.09553260 0.00001012
-0.39405623 -0.72557771 0.00000000
-0.32835358 -0.24816899 0.00000000
-0.37927616 0.21624786 0.00000247
-0.28650939 -0.78597045 0.00000000
-0.65037304 -0.30955085 -0.00000081
-0.12356583 -0.69776887 0.00000000
-0.26493171 -0.17332925 0.00000000
0.16970888 -0.31448728 0.29995474
-0.38446268 -0.70689303 0.00000000
0.09598134 -0.04843405 0.16964379
0.04204360 -0.17550096 0.07431065
-0.74683964 -0.64864534 -0.00000038
-0.18350682 0.39591411 0.00000323
-0.67672658 -0.44696838 -0.00000068
-0.05876971 -0.19227462 0.00000000
-0.42115459 0.24009877 0.00000126
0.00346311 -0.29792756 0.00612093
-0.44840831 -0.78697038 0.00000000
-0.66449130 -0.57357883 -0.00000041
-0.19815454 -0.63565832 0.00000000
-0.61915964 -0.61299878 -0.00000014
-0.73280174 -0.00066208 -0.00000171
-0.28806579 0.15990125 0.00000516
-0.74117088 -0.47579834 -0.00000081
-0.07314637 0.70883751 0.00000012
-0.32437375 -0.20991023 0.00000000
-0.45158669 0.29124245 -0.00000017
-0.31176475 -0.45954564 0.00000000
-0.64641702 -0.08780188 -0.00000119
-0.60021275 -0.59430361 -0.00000010
-0.10595275 -0.78881729 0.00000000
-0.36146578 -0.00482585 -0.00000012
-0.56268233 -0.16234228 -0.00000070
-0.30418056 0.04259565 0.00000677
0.15419647 -0.40695304 0.27253708
-0.00984229 0.14130305 0.00000973
-0.15714771 0.13101286 0.00000766
-0.36021727 0.32292947 0.00000105
-0.23094355 -0.26833579 0.00000000
0.14788942 0.15963121 0.26138937
-0.03579815 0.64694065 0.00000176
-0.50147814 -0.05122782 -0.00000064
-0.38513562 -0.01909466 -0.00000020
0.23547958 -0.12377565 0.41620168
-0.06599419 0.43045771 0.00000455
-0.31544086 -0.36508214 0.00000000
-0.08550699 0.52325171 0.00000286
-0.01882735 0.16615921 0.00000922
-0.49296370 0.23902933 -0.00000010
-0.07000704 -0.77977800 0.00000000
-0.66404802 -0.22744112 -0.00000102
-0.29592425 -0.53993046 0.00000000
-0.33742541 0.14074655 0.00000453
-0.03692344 -0.51853490 0.00000000
-0.37474608 -0.07826317 -0.00000005
-0.35401914 -0.21434942 0.00000000
-0.02745190 0.27669492 0.00000744
-0.05049772 0.30694601 0.00000663
-0.06868312 -0.63005030 0.00000000
-0.23280784 -0.62723511 0.00000000
0.31068817 0.04722938 0.54912901
-0.07838666 0.36596569 0.00000533
-0.36642864 -0.12110982 0.00000000
-0.22946329 0.53363538 0.00000004
-0.71773738 -0.40156734 -0.00000094
-0.10839572 -0.03616409 0.00000000
-0.35713753 -0.22742736 0.00000000
-0.61502880 -0.64259207 -0.00000007
-0.18041500 0.45591351 0.00000228
-0.18891291 -0.35380137 0.00000000
0.18763764 0.25823402 0.33164230
-0.04174034 0.15159065 0.00000910
-0.26574939 -0.78673208 0.00000000
-0.18089098 0.16712178 0.00000676
-0.64127457 -0.75549293 0.00000000
-0.68639398 -0.20751069 -0.00000115
-0.30945405 -0.34904635 0.00000000
-0.75251186 -0.40249035 -0.00000099
0.16513455 0.06753613 0.29186958
-0.47863278 -0.65762722 0.00000000
-0.09874515 0.08690593 0.00000921
-0.20493938 -0.59495527 0.00000000
-0.39758101 -0.62414843 0.00000000
-0.09606634 0.16446777 0.00000808
-0.55315286 -0.09877449 -0.00000077
-0.78574932 -0.20939411 -0.00000148
0.17694947 -0.36644259 0.31275225
-0.39121360 0.02218972 0.00000548
-0.26959991 -0.01327000 0.00000000
-0.21741259 -0.07152003 0.00000000
-0.31742167 -0.36428702 0.00000000
-0.51633108 -0.01064796 -0.00000077
-0.60378599 -0.65886974 0.00000000
-0.38159153 -0.61276829 0.00000000
-0.08301363 -0.74731696 0.00000000
-0.14802147 0.52392894 0.00000177
-0.21403158 0.04094467 0.00000816
-0.42456153 -0.19483913 -0.00000005
-0.49526945 -0.48369306 0.00000000
-0.48059660 0.30256179 -0.00000092
-0.08538168 0.67645556 0.00000042
-0.31817403 0.47907114 -0.00000079
-0.23327172 -0.42751342 0.00000000
-0.40582395 -0.17764188 -0.00000000
-0.42798817 0.35972315 -0.00000086
-0.71242326 -0.66546726 -0.00000034
-0.72728485 -0.08527553 -0.00000154
-0.19322473 0.10215102 0.00000755
-0.32213360 0.42057374 0.00000015
-0.13615307 0.62669909 0.00000028
-0.75327110 -0.41907912 -0.00000095
-0.28637800 -0.50628012 0.00000000
-0.13912404 0.04845867 0.00000917
0.00939051 -0.03714560 0.01659741
0.09153920 -0.43030527 0.16179246
-0.63200498 -0.75012511 0.00000000
-0.37396383 -0.05752039 -0.00000008
-0.43669558 0.28970948 0.00000014
-0.48664594 -0.05987351 -0.00000056
-0.70420569 -0.79778796 -0.00000001
0.29562768 -0.29204240 0.52251112
-0.27475554 -0.42493707 0.00000000
-0.39777401 -0.64658308 0.00000000
-0.23640382 0.26325279 0.00000443
-0.55827093 0.23780786 -0.00000133
-0.14157639 0.48792240 0.00000249
-0.41401979 -0.22294006 0.00000000
-0.21246174 0.40975749 0.00000244
-0.24277936 0.38333189 0.00000230
-0.05781266 0.44236434 0.00000449
-0.43409613 -0.76562339 0.00000000
-0.52229351 -0.46597716 0.00000000
-0.22313844 -0.57681519 0.00000000
-0.54490650 -0.56425166 0.00000000
-0.64252311 -0.21997416 -0.00000094
-0.26030859 0.32620868 0.00000292
0.09144326 -0.10084860 0.16162290
0.01521423 -0.74915642 0.02689064
-0.17856719 -0.01776667 0.00000000
-0.38302568 0.22845592 0.00000219
-0.02757184 0.33064708 0.00000662
-0.63627321 0.09812774 -0.00000049
0.11553512 -0.42537135 0.20420444
-0.77097768 -0.64446974 -0.00000039
0.02374658 0.08671879 0.04197128
-0.19838713 -0.67149574 0.00000000
-0.73148024 -0.17013173 -0.00000141
-0.50675321 -0.20251437 -0.00000039
0.24747734 -0.50007820 0.43740788
-0.11187207 -0.48646906 0.00000000
-0.10761428 0.48940662 0.00000304
-0.08971849 0.52492619 0.00000277
-0.24990053 0.25770563 0.00000426
-0.14541902 -0.69802517 0.00000000
-0.60265231 -0.18554495 -0.00000083
-0.26154506 -0.10985438 0.00000000
-0.43791926 -0.06953211 -0.00000033
-0.65952766 -0.77089739 -0.00000004
-0.06216675 0.18848766 0.00000823
-0.79501861 -0.70266980 -0.00000024
-0.19097336 0.21082716 0.00000596
-0.02408328 0.16212530 0.00000920
0.13038900 -0.11215904 0.23045819
-0.40475330 0.11970869 0.00000359
-0.60376602 0.09642311 0.00000016
-0.13358121 0.06281178 0.00000904
-0.26105654 -0.35581690 0.00000000
-0.78838670 -0.52479875 -0.00000069
-0.57638162 -0.18073477 -0.00000073
-0.60619861 0.05885089 0.00000074
-0.26645029 0.18266371 0.00000520
-0.21157473 -0.00117785 0.00000000
-0.69184864 -0.31835669 -0.00000098
-0.63093650 -0.35312712 -0.00000065
-0.65275168 0.09431337 -0.00000075
-0.29921347 -0.64489985 0.00000000
-0.14850438 0.04976754 0.00000901
-0.72507131 -0.12104491 -0.00000147
0.02782251 -0.07995648 0.04917535
-0.53239965 0.10371553 0.00000141
-0.32146508 0.10435020 0.00000545
-0.60233963 -0.39205405 -0.00000046
-0.63640964 -0.43019858 -0.00000054
-0.77628291 -0.07336840 -0.00000177
-0.38036725 -0.47698271 0.00000000
-0.04397921 0.06452220 0.00001037
-0.53321356 -0.75339592 0.00000000
-0.43859345 0.01587242 0.00000468
-0.56553674 -0.21720783 -0.00000062
-0.04388587 0.53858310 0.00000326
-0.42218125 -0.55109900 0.00000000
-0.19445926 0.50531971 0.00000119
-0.05191566 -0.04873190 0.00000000
-0.29895398 0.35480496 0.00000170
-0.01225420 -0.00979363 0.00000000
0.07432196 0.09139930 0.13136157
-0.02768730 -0.32446969 0.00000000
-0.09421663 -0.37854740 0.00000000
0.20608389 -0.09173044 0.36424607
-0.60238004 -0.75918841 0.00000000
-0.16704530 0.07287574 0.00000839
-0.17657252 -0.11026625 0.00000000
-0.38494447 -0.41208693 0.00000000
-0.55568659 -0.68784183 0.00000000
0.09786849 0.13240878 0.17297927
-0.11664140 -0.43034661 0.00000000
-0.73458987 -0.30396730 -0.00000118
-0.55105186 -0.71117330 0.00000000
-0.10617948 0.00387902 0.00001034
-0.64032286 -0.04115066 -0.00000125
0.02612423 0.54950666 0.04617370
-0.45158499 -0.39731407 0.00000000
-0.44360462 0.14808679 0.00000237
-0.72605520 -0.11565971 -0.00000148
0.07543910 -0.32750154 0.13333608
-0.33140621 -0.72857738 0.00000000
0.20996337 -0.68631917 0.37110320
-0.61534524 -0.56703383 -0.00000021
-0.30297846 0.32146829 0.00000218
0.02210111 0.37548789 0.03906297
-0.07815088 -0.30199608 0.00000000
-0.36749458 -0.59390783 0.00000000
-0.69773656 -0.29601154 -0.00000104
-0.13376714 -0.59333599 0.00000000
-0.65737796 -0.32191277 -0.00000082
-0.56330347 -0.15773670 -0.00000071
-0.04132111 -0.54364365 0.00000000
-0.45784274 0.22635865 0.00000079
-0.40133271 -0.73995692 0.00000000
-0.08893918 0.20714466 0.00000755
-0.12801763 0.38568512 0.00000428
-0.58647364 -0.53875065 -0.00000014
-0.05262181 -0.52568591 0.00000000
0.10819154 0.44490290 0.19122449
-0.53321105 -0.25204083 -0.00000042
-0.28255615 0.21940097 0.00000427
0.37323597 -0.45726937 0.65968084
-0.10173621 0.52111703 0.00000265
0.09883029 0.00784293 0.17467922
0.07634591 0.30146560 0.13493884
-0.03613854 0.46219227 0.00000452
-0.28373396 -0.59873343 0.00000000
-0.16650547 -0.78628713 0.00000000
0.06612991 -0.02673887 0.11688239
-0.13712642 0.15783407 0.00000756
-0.62656426 -0.08634133 -0.00000111
-0.25295538 0.20349997 0.00000511
-0.20100836 -0.66437644 0.00000000
-0.49298316 -0.74315774 0.00000000
-0.78436810 -0.02137998 -0.00000190
-0.64283180 -0.01513596 -0.00000130
-0.71871322 -0.50365394 -0.00000074
0.20717978 -0.52798581 0.36618331
-0.53358376 -0.64788496 0.00000000
-0.45388696 -0.35126945 0.00000000
-0.76253951 -0.12346727 -0.00000162
0.21007089 -0.48678926 0.37129325
-0.20427671 -0.50311142 0.00000000
-0.40675974 0.38423967 -0.00000087
0.11343241 0.21832581 0.20048797
0.01403474 -0.44090736 0.02480593
0.17627071 -0.36075073 0.31155255
-0.30905029 0.44798297 -0.00000005
-0.66715294 0.08921250 -0.00000094
-0.29104593 0.27271992 0.00000322
-0.03921741 0.10143116 0.00000989
-0.57351667 -0.41698015 -0.00000030
-0.19802813 -0.27507123 0.00000000
-0.56032586 -0.17552257 -0.00000067
-0.08458237 0.57342190 0.00000212
-0.27628151 0.27039024 0.00000354
-0.03559212 0.46212614 0.00000453
-0.27667323 -0.31438673 0.00000000
-0.20217863 0.32450807 0.00000406
-0.41866887 0.13619073 0.00000305
-0.20508568 0.18497097 0.00000613
-0.36914611 -0.03221936 -0.00000010
-0.53438914 -0.51005948 0.00000000
-0.46456945 -0.42190644 0.00000000
-0.22410074 -0.68928581 0.00000000
-0.29960781 0.02778229 0.00000706
-0.66191363 -0.35410243 -0.00000078
-0.14305757 -0.31053257 0.00000000
-0.19929454 -0.25427425 0.00000000
-0.37866011 -0.02166059 -0.00000016
0.08877920 0.46046412 0.15691403
-0.23644105 -0.25509894 0.00000000
-0.72560823 -0.17417486 -0.00000137
-0.16087332 0.02920203 0.00000913
-0.54252166 0.01792463 0.00000265
-0.58732557 -0.04862067 -0.00000101
-0.30302152 -0.12099648 0.00000000
-0.06871719 -0.62330663 0.00000000
-0.09646088 0.11922188 0.00000876
-0.01306898 -0.53532475 0.00000000
-0.47775838 -0.40375301 0.00000000
-0.06164522 -0.24264584 0.00000000
-0.26820499 0.39567962 0.00000160
-0.22892679 -0.20192879 0.00000000
-0.60893387 0.14065196 -0.00000068
-0.63793367 0.12584296 -0.00000099
-0.15502122 -0.57253295 0.00000000
-0.38833165 -0.68348396 0.00000000
0.14468123 -0.27161127 0.25571921
-0.37515622 -0.21774510 0.00000000
-0.18086110 0.33837396 0.00000420
-0.07690486 0.47404835 0.00000373
-0.64530677 -0.01183804 -0.00000132
-0.18601249 0.21492144 0.00000597
-0.37382293 -0.11797120 0.00000000
-0.05323703 -0.35773730 0.00000000
-0.11381337 0.10563792 0.00000870
-0.02549211 -0.54402155 0.00000000
-0.41908821 0.17610206 0.00000237
-0.28003314 -0.10152540 0.00000000
-0.47345987 -0.73737347 0.00000000
-0.08474532 -0.28669274 0.00000000
-0.49645379 0.10740122 0.00000204
-0.60827881 -0.77270937 0.00000000
0.34642151 -0.06245921 0.61228633
-0.77286398 -0.19908963 -0.00000150
-0.57324386 -0.72490591 0.00000000
-0.14303353 -0.26130933 0.00000000
-0.04654608 0.60439026 0.00000223
-0.10960347 0.07896001 0.00000916
-0.17738046 -0.42866009 0.00000000
-0.46447277 -0.05975438 -0.00000046
-0.21978772 -0.41438437 0.00000000
-0.36809412 -0.16909023 0.00000000
-0.21494688 -0.68078160 0.00000000
-0.40235838 0.32053110 0.00000028
-0.43750128 -0.35084817 0.00000000
-0.05157255 0.18106405 0.00000851
-0.06902350 -0.51920658 0.00000000
-0.78262818 -0.14310694 -0.00000164
-0.69930285 -0.69607139 -0.00000026
-0.65890455 -0.48473218 -0.00000054
-0.67470664 0.11379536 -0.00000149
-0.23967838 0.23864973 0.00000477
-0.66263473 -0.50629562 -0.00000052
-0.22215486 -0.58876824 0.00000000
-0.46276039 0.28077289 -0.00000021
-0.26352644 -0.64406514 0.00000000
0.12618096 -0.30644748 0.22302061
-0.57998699 -0.13880508 -0.00000082
-0.06793220 0.68057299 0.00000069
0.13367352 -0.44645452 0.23626345
-0.11783146 -0.26478592 0.00000000
-0.29403079 0.02764141 0.00000715
-0.77718079 0.01755018 -0.00000193
-0.01280772 -0.19061746 0.00000000
-0.06595686 -0.57818085 0.00000000
-0.38470846 -0.61096793 0.00000000
0.12184902 -0.22876470 0.21536405
-0.13925695 0.59989583 0.00000067
-0.45147163 0.03138134 0.00000417
-0.27974567 -0.28763106 0.00000000
0.21931408 -0.18073085 0.38763005
-0.07100415 0.72417700 -0.00000017
-0.12685798 0.26939082 0.00000604
-0.51418763 -0.75446224 0.00000000
-0.58169675 0.15181963 -0.00000034
-0.54242283 -0.63925022 0.00000000
-0.71962255 -0.15750308 -0.00000138
-0.03156541 0.09827374 0.00001005
-0.44993621 -0.56669295 0.00000000
-0.54863101 -0.73806137 0.00000000
-0.22803982 -0.77416182 0.00000000
-0.11030824 -0.79052836 0.00000000
0.15485062 -0.33766234 0.27369326
-0.48833334 0.26775467 -0.00000049
-0.69528610 0.09245681 -0.00000153
-0.12134286 0.30627871 0.00000557
-0.22293323 0.26153710 0.00000471
-0.68291587 -0.68230647 -0.00000029
-0.52260107 -0.50793016 0.00000000
0.02242033 -0.01326073 0.03962718
-0.14942718 0.40471545 0.00000367
-0.18574294 -0.15452182 0.00000000
-0.07250731 -0.63315648 0.00000000
-0.10271247 -0.36943877 0.00000000
-0.63558716 -0.22790232 -0.00000090
-0.52692103 0.07241623 0.00000203
-0.77171832 -0.70359033 -0.00000024
-0.20105810 0.24010801 0.00000536
0.13917923 -0.39718232 0.24599461
-0.77722716 -0.59160095 -0.00000052
-0.16382423 0.06827946 0.00000850
-0.68791753 -0.29099077 -0.00000101
-0.30202612 -0.66866285 0.00000000
-0.48693752 0.10707472 0.00000222
-0.22635558 -0.33903396 0.00000000
0.06204768 0.00651898 0.10966719
-0.16075023 0.18117660 0.00000686
-0.41140586 -0.04390726 -0.00000026
0.17737451 0.00992755 0.31350330
-0.63590991 -0.56500912 -0.00000030
-0.45855930 -0.09822510 -0.00000037
-0.75128418 -0.40559462 -0.00000099
-0.68283266 -0.36118147 -0.00000086
0.17106266 -0.55606085 0.30234751
-0.32229745 -0.08194992 0.00000000
-0.11366859 0.24190426 0.00000666
-0.47463718 -0.17421944 -0.00000030
-0.55884308 -0.30324638 -0.00000043
-0.33063123 -0.70380169 0.00000000
-0.79612130 -0.21383199 -0.00000147
0.04153277 -0.17881754 0.07340778
-0.69859147 -0.66856766 -0.00000033
0.21738480 -0.61696470 0.38422033
-0.05128882 -0.55250049 0.00000000
-0.41839620 0.17988233 0.00000232
-0.16666535 0.56816870 0.00000067
-0.08953977 -0.04230979 0.00000000
-0.34661031 -0.37023342 0.00000000
-0.65112972 -0.77626580 0.00000000
-0.71481365 -0.79518735 -0.00000001
0.11051406 -0.60907418 0.19532989
-0.69261295 -0.23192628 -0.00000113
-0.68948442 -0.24657723 -0.00000109
-0.18183766 0.60961854 -0.00000031
-0.06357393 -0.51114368 0.00000000
0.32284424 -0.59731388 0.57061589
-0.33996066 -0.17508036 0.00000000
-0.23207565 -0.52607346 0.00000000
-0.60441077 -0.27038386 -0.00000069
0.00683540 -0.25404209 0.01208134
-0.64888471 -0.03178582 -0.00000130
-0.41561717 -0.30557343 0.00000000
-0.25972345 0.43897820 0.00000104
-0.29581222 0.01518900 0.00000731
-0.40830538 -0.70198238 0.00000000
-0.36832550 -0.51734579 0.00000000
-0.07563011 -0.50670278 0.00000000
-0.57228088 -0.18323983 -0.00000070
-0.54691070 -0.48541006 -0.00000006
-0.79924172 -0.76170135 -0.00000010
-0.77175963 -0.68812692 -0.00000028
-0.21234433 -0.36522597 0.00000000
-0.36100617 -0.79458058 0.00000000
-0.19404708 0.48478886 0.00000154
-0.04597223 -0.49038127 0.00000000
0.24825798 -0.74050236 0.43878764
-0.54198825 -0.22334659 -0.00000050
-0.31463265 -0.53764510 0.00000000
-0.04889224 -0.09760462 0.00000000
-0.40861231 -0.51455569 0.00000000
-0.62899178 -0.44118145 -0.00000049
-0.19478361 -0.41641104 0.00000000
-0.31752035 0.03988565 0.00000660
0.01526601 0.10762607 0.02698216
-0.50456709 -0.64732319 0.00000000
-0.52673233 0.16188017 0.00000054
-0.35179672 -0.33444616 0.00000000
-0.18134707 -0.08325741 0.00000000
-0.16699891 0.41862077 0.00000316
0.07796322 0.53207052 0.13779709
-0.72485381 -0.72724420 -0.00000018
-0.66526198 0.10826540 -0.00000122
-0.43999770 -0.55616939 0.00000000
-0.41926894 -0.37791666 0.00000000
-0.21889541 0.16430725 0.00000623
-0.53187525 -0.50644851 0.00000000
0.21983524 0.21370602 0.38855019
-0.34223211 0.35254747 0.00000090
-0.35508499 -0.35567665 0.00000000
-0.51526564 -0.78903133 0.00000000
-0.12788710 -0.17213209 0.00000000
-0.07677082 -0.61338544 0.00000000
-0.25419241 -0.35480091 0.00000000
-0.66891968 -0.69165444 -0.00000022
-0.02381245 0.62002558 0.00000234
-0.71358484 -0.19804960 -0.00000128
0.05841642 -0.69288671 0.10324906
-0.36581925 -0.02105376 -0.00000011
0.01676803 0.08542239 0.02963693
-0.05227652 -0.39545807 0.00000000
-0.33843860 0.40505001 0.00000010
-0.06723775 -0.10876802 0.00000000
0.01356376 -0.11612761 0.02397349
0.32477874 -0.63095826 0.57403511
-0.06593572 -0.23609252 0.00000000
-0.50559771 -0.40687075 -0.00000002
-0.55426532 0.23825134 -0.00000126
-0.34327814 -0.72888553 0.00000000
-0.10320708 -0.52557105 0.00000000
-0.43172562 0.09584117 0.00000347
-0.50945884 -0.06215429 -0.00000065
-0.08594086 0.31031710 0.00000605
-0.15121490 0.31155428 0.00000505
-0.14295422 -0.32400689 0.00000000
-0.40392458 -0.08541783 -0.00000016
-0.04747122 -0.36727840 0.00000000
-0.30280346 -0.67064291 0.00000000
-0.40121230 -0.22429352 0.00000000
-0.17294954 -0.21772084 0.00000000
-0.26954517 0.50383288 -0.00000023
-0.16212700 -0.14421633 0.00000000
-0.10736933 -0.30277988 0.00000000
-0.45351613 -0.73920572 0.00000000
-0.07370907 -0.76329088 0.00000000
-0.21696527 0.09315817 0.00000733
-0.57226789 -0.47509745 -0.00000019
-0.27936062 -0.76693404 0.00000000
0.35170487 -0.03272905 0.62162435
-0.04794647 0.16125591 0.00000886
-0.51327372 -0.09928190 -0.00000060
-0.35399708 0.15913987 0.00000391
-0.20643680 -0.43083176 0.00000000
-0.23858324 0.24219981 0.00000474
-0.05603851 -0.57720709 0.00000000
-0.51779020 -0.44698709 -0.00000001
-0.30267090 0.19622219 0.00000427
-0.49980241 0.04982589 0.00000293
-0.70482081 -0.18310341 -0.00000127
-0.02132734 0.36277452 0.00000624
-0.73197424 -0.02203493 -0.00000167
-0.49218994 -0.51902461 0.00000000
-0.57003093 0.10672544 0.00000063
-0.37282622 0.40710881 -0.00000060
-0.43893147 -0.70649898 0.00000000
-0.13237512 -0.72465789 0.00000000
-0.54442322 -0.23962913 -0.00000049
-0.38555840 0.19882937 0.00000264
-0.21610373 0.43828663 0.00000189
-0.12269774 0.14464918 0.00000798
-0.73458314 -0.30445212 -0.00000118
-0.57602292 -0.44725585 -0.00000025
-0.36482984 -0.19634196 0.00000000
-0.06656119 -0.54257786 0.00000000
0.13373491 -0.20639075 0.23637196
-0.53886569 -0.31492496 -0.00000033
0.34901842 -0.55624950 0.61687750
-0.47779056 -0.50060022 0.00000000
-0.08569883 -0.43650490 0.00000000
-0.35436097 -0.32404974 0.00000000
-0.53594184 0.18203495 0.00000003
-0.14547639 -0.65534461 0.00000000
-0.32876360 -0.55717123 0.00000000
-0.78193921 -0.47265041 -0.00000082
-0.02927172 0.70694911 0.00000095
-0.16981892 0.41651919 0.00000314
0.24796116 -0.77562749 0.43826303
-0.55332059 -0.28629485 -0.00000044
-0.09731982 -0.45880324 0.00000000
-0.70987225 -0.11083233 -0.00000142
-0.69523221 -0.45842358 -0.00000074
-0.25324851 -0.45841023 0.00000000
-0.18627992 -0.17951190 0.00000000
-0.24335070 0.31327632 0.00000346
0.33702540 -0.58068097 0.59568042
-0.51266176 -0.63978052 0.00000000
-0.66283613 -0.69506055 -0.00000019
-0.44963247 -0.43158337 0.00000000
-0.72252882 -0.60534877 -0.00000049
-0.02778496 0.17277174 0.00000899
0.21033153 -0.03147504 0.37175342
-0.72518986 -0.45397463 -0.00000087
-0.19779414 -0.27594718 0.00000000
-0.49346858 -0.68055737 0.00000000
-0.18071696 0.47671032 0.00000193
-0.03771594 -0.35816261 0.00000000
0.17952308 0.26393336 0.31730017
-0.70920068 -0.49406269 -0.00000074
-0.61895835 -0.65101153 -0.00000008
-0.39062554 -0.47953856 0.00000000
-0.63124400 -0.68730009 -0.00000006
-0.50778240 0.21417911 0.00000003
-0.38584590 -0.46959075 0.00000000
-0.32816041 0.31735051 0.00000176
0.03745213 -0.44664428 0.06619538
-0.15659042 -0.68263739 0.00000000
-0.25356311 -0.76793152 0.00000000
-0.42743349 -0.77780646 0.00000000
-0.15252997 -0.59805995 0.00000000
-0.19320932 0.37118632 0.00000345
-0.07165631 -0.06401463 0.00000000
-0.61148113 -0.74321145 0.00000000
-0.19759785 0.00350089 0.00000897
-0.65939611 -0.69307923 -0.00000017
-0.53546345 -0.30239996 -0.00000034
-0.02846595 0.55381596 0.00000326
-0.01408014 0.56634194 0.00000329
-0.58664763 -0.28835550 -0.00000058
-0.57287455 -0.31452093 -0.00000047
-0.15661633 -0.04262365 0.00000000
-0.34360087 -0.12745842 0.00000000
-0.28586233 -0.75983626 0.00000000
-0.08581579 0.21202691 0.00000752
-0.78898418 -0.29535195 -0.00000126
-0.22695971 0.43289199 0.00000177
-0.12370809 -0.15806767 0.00000000
-0.02369614 0.18274620 0.00000890
-0.15262198 -0.19790833 0.00000000
-0.46833646 -0.27175191 -0.00000010
-0.31360075 -0.46386805 0.00000000
-0.73960346 -0.27881527 -0.00000125
-0.12075789 -0.74244320 0.00000000
-0.75251544 -0.32627472 -0.00000118
0.14438275 -0.32564208 0.25519165
-0.10414422 -0.27914432 0.00000000
-0.43390402 -0.35533395 0.00000000
-0.01182926 -0.37442717 0.00000000
-0.59066820 -0.76927078 0.00000000
0.00887175 0.66430515 0.01568052
-0.07251150 -0.02083428 0.00000000
-0.43149826 0.10642583 0.00000330
-0.30916187 0.37021968 0.00000124
-0.61437166 0.15229326 -0.00000098
-0.38144967 0.04225186 0.00000533
-0.20643122 -0.49128661 0.00000000
-0.06190835 0.00351855 0.00001101
-0.71298707 -0.72043741 -0.00000020
-0.34662542 0.36010313 0.00000069
-0.33685574 -0.12977640 0.00000000
-0.32968128 -0.50545126 0.00000000
-0.10695085 0.41160056 0.00000421
-0.58367187 -0.06990967 -0.00000095
-0.00447941 0.79126477 -0.00000000
-0.42265707 -0.09486807 -0.00000022
-0.65393364 0.06176767 -0.00000023
-0.57021546 -0.02536411 -0.00000097
-0.06663823 -0.71695381 0.00000000
0.02690251 -0.55068505 0.04754928
-0.54804838 -0.75941175 0.00000000
-0.28230897 0.45405334 0.00000036
-0.38191819 -0.20184977 0.00000000
-0.23961838 0.35687467 0.00000280
-0.79508173 -0.77492630 -0.00000006
-0.14188956 -0.57944566 0.00000000
-0.79053777 -0.49396366 -0.00000077
-0.10439715 0.42025903 0.00000412
-0.11173004 0.49201018 0.00000293
-0.59288359 -0.30161294 -0.00000058
-0.25478148 0.14628170 0.00000596
0.12814583 -0.57908690 0.22649345
-0.03803365 0.44636449 0.00000473
-0.30612320 0.45833358 -0.00000017
-0.12165588 0.13498668 0.00000814
-0.42533636 -0.27610618 0.00000000
-0.61144972 -0.36407733 -0.00000055
-0.19893605 0.09686833 0.00000755
-0.19001925 0.51284158 0.00000115
-0.20404059 0.23333694 0.00000542
-0.19392891 -0.04793667 0.00000000
-0.66699088 -0.18142244 -0.00000111
-0.39359468 -0.75291789 0.00000000
-0.45796719 -0.00472998 -0.00000053
-0.34532359 0.36863121 0.00000057
-0.14572614 -0.40906405 0.00000000
-0.38306302 0.21495757 0.00000242
-0.19843552 -0.68252224 0.00000000
-0.65233880 -0.18576783 -0.00000104
-0.48912105 -0.16391461 -0.00000038
-0.51148349 -0.21709807 -0.00000038
-0.14426483 -0.70198017 0.00000000
0.30130869 0.08986405 0.53255111
-0.17679425 -0.45473421 0.00000000
-0.44913945 0.23508218 0.00000081
-0.51963031 -0.65628046 0.00000000
0.09949868 0.44261095 0.17586026
-0.17876272 0.03588975 0.00000876
-0.74017072 -0.46425271 -0.00000084
-0.20708542 -0.03240138 0.00000000
-0.24728601 0.17603524 0.00000563
-0.75054175 -0.55300879 -0.00000062
-0.16158788 0.43179417 0.00000305
-0.24686481 -0.51870185 0.00000000
-0.25663874 -0.59780216 0.00000000
-0.18284577 0.28225461 0.00000501
-0.56327850 -0.64143074 0.00000000
0.36308527 -0.79209465 0.64174098
-0.02860713 0.02251575 0.00001123
-0.41673988 -0.55638254 0.00000000
-0.26699603 0.12215375 0.00000614
-0.57553768 -0.20658712 -0.00000068
-0.46447867 0.12326696 0.00000238
-0.73183566 0.01034961 -0.00000086
-0.07949710 -0.43750337 0.00000000
-0.79221362 -0.61874831 -0.00000045
-0.02699597 -0.20619988 0.00000000
-0.58058006 -0.59809005 -0.00000001
-0.36577225 -0.62299383 0.00000000
0.31729791 -0.13971044 0.56081188
-0.79605824 -0.72027850 -0.00000020
-0.09896117 -0.35000741 0.00000000
-0.05616851 0.44945681 0.00000441
-0.06781021 -0.12422795 0.00000000
-0.65958071 0.00489982 0.00000061
-0.53009152 0.25121811 -0.00000101
-0.42699626 -0.66658664 0.00000000
-0.07464679 -0.68190992 0.00000000
-0.70516515 -0.03202913 -0.00000154
-0.14736451 -0.06485492 0.00000000
-0.02849903 0.17284456 0.00000898
-0.15844335 -0.52401865 0.00000000
-0.74632376 -0.27509823 -0.00000128
-0.38936380 -0.19234356 0.00000000
-0.24531932 -0.62368071 0.00000000
-0.02450987 0.57123387 0.00000306
-0.36179227 -0.79440045 0.00000000
-0.41030651 -0.42922950 0.00000000
-0.20307526 0.37652537 0.00000317
0.01712692 0.75888264 0.03027115
-0.31484097 0.10332790 0.00000559
-0.63385552 -0.00417881 -0.00000128
-0.47029048 0.10575196 0.00000257
0.34297609 -0.51920897 0.60619783
-0.43914115 -0.51028043 0.00000000
-0.45018330 0.10168824 0.00000302
-0.79200983 -0.50715083 -0.00000073
0.12927078 0.12997904 0.22848175
-0.08332493 -0.76457369 0.00000000
-0.73160571 -0.08903976 -0.00000155
0.14812447 -0.48287031 0.26180503
-0.17042936 -0.26798281 0.00000000
-0.13222073 -0.74353731 0.00000000
-0.54259247 -0.28123999 -0.00000040
-0.45391911 0.29200634 -0.00000023
-0.11735811 0.25834322 0.00000635
-0.44840261 0.05960337 0.00000376
-0.13730699 -0.35557044 0.00000000
-0.16129445 0.24543695 0.00000588
0.10099957 -0.72693676 0.17851335
-0.46141136 -0.39463153 0.00000000
-0.38393563 -0.27931839 0.00000000
0.19627601 -0.20813712 0.34691125
-0.06705290 0.25290224 0.00000719
-0.78152114 -0.33503848 -0.00000116
-0.39537296 -0.42627996 0.00000000
0.21536990 0.06461684 0.38065827
-0.63483369 -0.08618911 -0.00000114
-0.61438626 0.09449383 -0.00000001
0.36948112 -0.41034967 0.65304410
-0.43578762 -0.72516060 0.00000000
-0.34327972 -0.55807346 0.00000000
-0.32286859 0.33177477 0.00000162
-0.10008124 0.45053783 0.00000373
-0.52632529 -0.67194474 0.00000000
-0.12042146 0.30008078 0.00000568
-0.34999356 -0.41824892 0.00000000
-0.10437854 0.18562835 0.00000764
-0.18639551 0.20733042 0.00000608
-0.63738501 -0.19478884 -0.00000096
-0.32941562 -0.68528801 0.00000000
-0.57524747 -0.17472555 -0.00000073
-0.14988586 -0.57411414 0.00000000
-0.40418455 0.36072257 -0.00000042
-0.15352257 0.20768461 0.00000657
-0.33976552 0.11355811 0.00000494
-0.25433525 0.35137448 0.00000261
-0.19411185 -0.24422927 0.00000000
-0.69464529 -0.28488386 -0.00000105
-0.14360884 -0.33320132 0.00000000
-0.37833273 -0.74315202 0.00000000
-0.22175243 0.03356672 0.00000815
-0.13010994 -0.47878933 0.00000000
-0.33676058 0.24516495 0.00000280
-0.79649264 -0.42692316 -0.00000093
0.15372068 0.13594179 0.27169591
-0.68547136 -0.30707175 -0.00000097
-0.41390601 0.14633772 0.00000297
-0.02441369 0.64439744 0.00000197
-0.05711299 -0.04670634 0.00000000
-0.20019750 0.32898059 0.00000402
0.02300575 -0.74910408 0.04066189
-0.34806496 0.09581007 0.00000508
-0.35554567 0.21927328 0.00000287
-0.15587795 -0.47192621 0.00000000
-0.20032182 -0.30696356 0.00000000
-0.10906032 -0.03601203 0.00000000
-0.21649918 -0.68022770 0.00000000
-0.27947536 -0.79265314 0.00000000
-0.48616657 0.17683630 0.00000107
-0.28739238 -0.22351921 0.00000000
-0.08248518 -0.17593841 0.00000000
-0.75684339 -0.11882358 -0.00000161
-0.10856574 0.22597411 0.00000697
-0.64964592 0.03643754 0.00000028
-0.08570306 0.58945209 0.00000187
-0.10114779 0.57986844 0.00000173
-0.35255900 0.06475814 0.00000551
-0.32989195 0.14160283 0.00000466
-0.45333615 0.19601907 0.00000138
-0.65647060 -0.67171943 -0.00000020
-0.37962723 -0.32685715 0.00000000
-0.63017368 0.02604546 0.00000083
-0.18115348 -0.15564834 0.00000000
-0.60560971 0.06215659 0.00000069
-0.40580064 0.30359775 0.00000050
-0.09785019 -0.47525370 0.00000000
0.29394045 -0.42113107 0.51952934
-0.16403215 -0.25398636 0.00000000
-0.45954773 -0.68448532 0.00000000
-0.03248350 -0.70405030 0.00000000
-0.48307812 -0.01688056 -0.00000062
-0.36724070 0.40958744 -0.00000053
-0.35303769 -0.56156403 0.00000000
-0.16382991 0.02339567 0.00000918
0.04428828 -0.01438075 0.07827805
-0.03768736 0.24239846 0.00000780
-0.61344570 -0.49024406 -0.00000034
-0.14754522 -0.25754464 0.00000000
-0.63134861 0.08706761 -0.00000022
-0.54718047 -0.16423889 -0.00000063
-0.32700643 0.14241856 0.00000470
-0.04942975 -0.50992471 0.00000000
-0.64552683 -0.45091721 -0.00000054
-0.54560095 -0.05544188 -0.00000082
-0.24781093 0.39392579 0.00000202
-0.20164850 -0.24867029 0.00000000
-0.10081377 0.02543084 0.00001010
-0.22937441 0.27730757 0.00000433
-0.67643285 -0.77707380 -0.00000006
-0.14488038 -0.41266832 0.00000000
-0.30588654 -0.57137001 0.00000000
-0.45377591 0.19581851 0.00000138
-0.32298267 0.33943906 0.00000149
-0.52385706 -0.75689006 0.00000000
-0.57784772 -0.01384450 -0.00000103
-0.17606136 -0.63859791 0.00000000
0.05637419 -0.12484161 0.09963948
-0.12138875 -0.55624288 0.00000000
-0.39321524 -0.26115665 0.00000000
-0.01409596 -0.38792980 0.00000000
-0.41441509 0.31875104 0.00000008
-0.14142725 -0.75466019 0.00000000
-0.54213816 -0.19539307 -0.00000055
-0.36285466 -0.63238001 0.00000000
-0.37420431 -0.70000523 0.00000000
-0.20734097 -0.65104896 0.00000000
-0.12869948 -0.47776589 0.00000000
-0.13199517 0.30633041 0.00000541
-0.24210493 -0.39477545 0.00000000
0.04986423 -0.68933070 0.08813335
-0.58589768 -0.35858509 -0.00000045
-0.14636441 -0.58135730 0.00000000
-0.70303315 -0.79913956 -0.00000000
-0.04395278 -0.79102939 0.00000000
-0.24752568 0.37656346 0.00000232
0.00385282 0.77620661 0.00680973
0.10647105 0.31695455 0.18818390
-0.02872165 -0.71468633 0.00000000
0.08997738 0.23497175 0.15903200
-0.75797230 -0.55353934 -0.00000062
0.32860732 0.12071321 0.58080012
-0.11227068 -0.79730052 0.00000000
-0.16700724 0.16674680 0.00000698
-0.38316655 -0.41343275 0.00000000
-0.51334488 -0.14437941 -0.00000052
-0.04842002 -0.31205380 0.00000000
-0.55793804 -0.38203144 -0.00000029
-0.03774640 -0.25277379 0.00000000
-0.02353609 -0.53597397 0.00000000
-0.15580525 0.25421214 0.00000584
-0.32951707 -0.48211116 0.00000000
-0.76834273 -0.28729364 -0.00000128
-0.22119324 0.33004323 0.00000360
-0.56687009 0.21995924 -0.00000120
-0.50425202 -0.55521810 0.00000000
-0.11363129 -0.70945269 0.00000000
-0.52092135 0.14435253 0.00000095
-0.15883559 0.47294533 0.00000241
-0.49713382 -0.13222077 -0.00000047
0.12764697 0.31900370 0.22561137
0.27411652 -0.62562442 0.48449174
-0.66721010 -0.24413615 -0.00000100
-0.26285440 -0.23877269 0.00000000
-0.30746740 -0.79433256 0.00000000
-0.13362905 0.04254120 0.00000935
0.16927645 -0.66303003 0.29919043
-0.73936230 -0.17099749 -0.00000144
-0.17283788 -0.04962962 0.00000000
-0.04346804 0.54899663 0.00000311
-0.06392778 -0.72454095 0.00000000
0.22006325 -0.03223211 0.38895380
-0.03609001 0.53862327 0.00000338
-0.37931055 -0.24950162 0.00000000
-0.27719328 -0.06730799 0.00000000
0.24580315 -0.49227467 0.43444881
-0.02233026 -0.14224623 0.00000000
-0.41676867 -0.48413622 0.00000000
-0.16173895 0.12372515 0.00000770
-0.60155624 0.13093431 -0.00000038
-0.19108018 -0.22406879 0.00000000
-0.18865094 -0.18512619 0.00000000
-0.68720043 -0.10869724 -0.00000133
-0.58608317 -0.37928894 -0.00000042
-0.71838403 -0.34191155 -0.00000105
-0.39731413 -0.01352349 -0.00000026
0.08795266 -0.79033703 0.15545337
-0.64454561 -0.79675299 0.00000000
-0.20740004 -0.42843139 0.00000000
-0.02595433 0.61660403 0.00000236
-0.62195462 0.17537491 -0.00000151
-0.63374519 -0.01195871 -0.00000127
-0.70889783 -0.53063142 -0.00000067
0.06683538 -0.00330100 0.11812929
-0.56072104 -0.17305529 -0.00000067
-0.17927320 -0.31017956 0.00000000
-0.46193069 0.00212837 0.00000446
-0.51947528 -0.55677259 0.00000000
-0.28518513 -0.67156547 0.00000000
-0.73682255 -0.06671237 -0.00000161
-0.55085498 0.00494549 0.00000270
-0.30551475 -0.13415042 0.00000000
-0.27825791 0.00556692 0.00000772
-0.75290811 -0.64998293 -0.00000038
-0.10102477 0.29625067 0.00000603
-0.14156763 0.37717032 0.00000421
0.07272825 0.52901733 0.12854452
-0.25606337 -0.72328424 0.00000000
-0.11044271 -0.68141127 0.00000000
-0.25103170 0.32090312 0.00000318
0.24996731 -0.71943122 0.44180882
-0.49078262 0.00848435 0.00000380
0.27326807 -0.62603152 0.48299214
-0.06875275 0.30605882 0.00000637
-0.01612918 0.31545511 0.00000702
0.06030657 -0.26245654 0.10658984
-0.64570940 -0.14759006 -0.00000108
-0.21809761 -0.07286541 0.00000000
-0.32401770 -0.61933082 0.00000000
-0.06677993 -0.07336634 0.00000000
-0.45893294 -0.27452439 -0.00000006
-0.79402119 -0.21813662 -0.00000145
-0.20556918 -0.17885810 0.00000000
-0.70828855 -0.76125032 -0.00000010
-0.19222794 -0.13953482 0.00000000
-0.17944469 -0.75082219 0.00000000
-0.40909177 0.25891656 0.00000118
-0.67980605 -0.48120588 -0.00000064
-0.62671334 -0.40741572 -0.00000054
-0.59923226 0.01009255 0.00000169
-0.43147036 -0.19155288 -0.00000009
-0.15679908 -0.21067391 0.00000000
-0.60712320 -0.09404416 -0.00000101
-0.48161897 0.00106846 0.00000410
-0.13394433 -0.19587559 0.00000000
0.01399179 0.57015902 0.02473002
-0.11397687 -0.38951111 0.00000000
-0.08778519 -0.16762052 0.00000000
-0.19263668 -0.33664647 0.00000000
-0.21856233 -0.09144860 0.00000000
-0.02968481 -0.61638343 0.00000000
-0.20797320 0.00405278 0.00000880
-0.54708833 0.09875210 0.00000121
-0.07952397 0.48824415 0.00000348
-0.20886210 -0.77311540 0.00000000
0.37936535 -0.58467919 0.67051476
-0.51197767 -0.57268381 0.00000000
-0.18082029 0.58833039 0.00000006
0.04413182 -0.24243216 0.07800151
-0.06759377 -0.76216942 0.00000000
-0.35382143 -0.60113704 0.00000000
-0.02581463 -0.47303072 0.00000000
-0.45132548 -0.62461126 0.00000000
-0.16936347 -0.49231756 0.00000000
-0.53298849 -0.64663851 0.00000000
0.14999130 -0.56465381 0.26510459
-0.59075141 -0.21692622 -0.00000072
-0.62088811 -0.28546777 -0.00000073
-0.23277374 -0.52182382 0.00000000
-0.22955185 -0.14400940 0.00000000
0.12268113 -0.15494794 0.21683478
-0.11677829 -0.15537611 0.00000000
-0.19684114 0.37609938 0.00000330
-0.23578222 0.56114209 -0.00000054
-0.51157683 -0.70685482 0.00000000
-0.15253314 0.01268733 0.00000951
-0.34889939 0.08239742 0.00000529
-0.03526296 -0.15141222 0.00000000
-0.23193809 -0.05465262 0.00000000
-0.12798604 -0.73344356 0.00000000
-0.21334811 0.14247189 0.00000664
-0.73743916 -0.77038264 -0.00000007
0.11342049 -0.56700426 0.20046690
-0.05718386 -0.79726344 0.00000000
-0.28060210 -0.15114474 0.00000000
-0.49496356 -0.72552657 0.00000000
-0.58717811 -0.54567665 -0.00000013
-0.16126443 -0.71558797 0.00000000
-0.16953884 0.00488657 0.00000937
0.08307430 0.27719620 0.14683104
-0.78641224 -0.54542530 -0.00000064
-0.54122436 -0.47340658 -0.00000006
-0.20964564 -0.12310249 0.00000000
0.09428804 -0.60150456 0.16665095
-0.32585487 0.09008859 0.00000560
-0.59307462 -0.04375954 -0.00000104
-0.52367651 0.23870476 -0.00000068
-0.23219770 -0.72714317 0.00000000
0.05396594 0.37086070 0.09538299
-0.24420300 0.49853161 0.00000035
-0.32631117 0.14925981 0.00000460
-0.11903192 -0.66814035 0.00000000
-0.70013672 -0.24178927 -0.00000115
-0.18877725 -0.38125727 0.00000000
-0.40935445 -0.34744561 0.00000000
-0.13133995 -0.22956286 0.00000000
-0.61700833 0.06034946 0.00000051
0.01935901 -0.35458195 0.03421640
-0.05595563 0.23849045 0.00000758
-0.03185341 0.73036754 0.00000055
-0.04786741 -0.59668732 0.00000000
-0.70429361 -0.11924343 -0.00000138
0.09809923 0.09027148 0.17338710
