ply
format ascii 1.0
element vertex 1199
property float x
property float y
property float z
end_header
-0.21892621 0.29664123 0.03152969
-0.00638769 -0.07714412 0.00000271
-0.01949364 -0.56907576 0.00000084
-0.46094126 -0.73159403 0.00000026
-0.45184034 -0.06719020 0.27996936
-0.42060721 -0.37250906 0.00000160
-0.03761751 -0.57744986 0.00000083
-0.05021866 -0.62450403 0.00000066
-0.64458841 -0.68058902 0.09462503
-0.23746373 -0.03144483 0.00000288
-0.20147520 -0.74560595 0.00000020
-0.36683494 -0.50236773 0.00000112
-0.54605150 -0.51348472 0.00601997
-0.00967479 -0.31281209 0.00000181
-0.43836263 -0.36122206 0.00000165
-0.07808514 0.06685584 0.00001032
-0.46352428 -0.23332135 0.10732048
-0.01233151 -0.74218595 0.00000020
-0.04903515 -0.73034394 0.00000019
-0.00440310 -0.18140465 0.00000231
-0.06484074 0.43547001 0.00000776
-0.24455319 0.08959348 0.00000764
-0.61654401 -0.57520306 0.14179312
-0.58334911 -0.36266994 0.30751958
-0.46040061 -0.26270792 0.06109554
-0.40165213 -0.04419073 0.15708926
-0.63088602 -0.69322592 0.03739750
-0.12169179 -0.37023339 0.00000161
-0.34546527 -0.48314813 0.00000119
-0.10565687 -0.25986752 0.00000203
-0.35537696 -0.24168135 0.00000209
-0.54346234 -0.59740347 0.00000076
-0.55882090 -0.42321762 0.15760314
-0.42669708 -0.03337361 0.24631637
-0.19978569 0.36735556 0.06220464
-0.18836427 0.21957128 0.00000751
-0.57902974 -0.54697782 0.06375549
-0.66944665 -0.70551217 0.13854875
-0.16537453 -0.19311523 0.00000228
-0.47846800 -0.57296038 0.00000085
-0.14584182 -0.64208835 0.00000059
-0.40041664 -0.68548685 0.00000043
-0.28072152 -0.24099593 0.00000210
-0.16709611 -0.16571887 0.00000238
-0.15475938 0.46059936 0.04285365
-0.13264699 0.48287892 0.00391830
-0.62902230 -0.71731359 0.00161311
-0.03472684 0.51715016 0.00000760
-0.45988268 -0.76257432 0.00000014
-0.35811424 0.06158896 0.15792841
-0.27167249 -0.72721958 0.00000027
-0.18659423 0.38588613 0.04553568
-0.60182518 -0.43103877 0.27777258
-0.17069346 -0.49126932 0.00000116
-0.26376706 -0.52916443 0.00000102
-0.54505557 -0.43798912 0.09751335
-0.19807619 -0.61850697 0.00000068
-0.22161537 0.36467180 0.12481509
-0.51534784 0.27133310 0.00000097
-0.05290332 -0.41441622 0.00000145
-0.20597824 -0.09505818 0.00000264
-0.45246336 -0.02084742 0.33986264
-0.56234145 -0.28535274 0.34081730
-0.43239000 -0.08844028 0.19458966
-0.05092213 -0.28576612 0.00000193
-0.09764476 -0.43915275 0.00000135
-0.01481899 0.62287819 0.00000710
-0.43952349 -0.04037464 0.27631441
-0.62002099 -0.59758067 0.12428898
-0.61810637 -0.67083007 0.02681145
-0.03974003 0.68382072 0.00000627
-0.48028907 -0.28616422 0.09183709
-0.56546664 -0.74903500 0.00000019
-0.28235367 -0.36076355 0.00000165
-0.39690042 -0.11585463 0.05302271
-0.04375168 -0.25586054 0.00000197
-0.47317514 -0.05854792 0.35526192
-0.32600486 0.09129815 0.09808200
-0.17115952 -0.51827133 0.00000106
-0.69647098 -0.79393440 0.10953270
-0.22123849 -0.79235083 0.00000003
-0.41031668 0.38013586 0.00000198
-0.19870895 0.40514967 0.10626020
-0.04932680 0.10886964 0.00001044
-0.04017196 -0.56400174 0.00000082
-0.01987543 -0.08333366 0.00000266
-0.43042281 -0.72754282 0.00000027
-0.25703087 -0.32961735 0.00000176
-0.36938566 -0.05451193 0.04665926
-0.33635372 0.00683786 0.02363172
-0.35168532 -0.02098835 0.03513216
-0.43765184 -0.16414522 0.11572589
-0.08995048 -0.20610401 0.00000223
-0.04293431 -0.17904165 0.00000233
-0.19061308 0.46086663 0.15153897
-0.33819509 0.00028260 0.02099070
-0.57112205 -0.47053590 0.13554595
-0.20795690 0.25541326 0.00000695
-0.06642158 0.12908301 0.00001003
-0.63578254 -0.68780905 0.05897573
-0.39224800 -0.37597391 0.00000159
-0.58247524 -0.55593193 0.06295929
-0.55074722 -0.37472862 0.19390135
-0.40582871 -0.66771930 0.00000050
-0.32804123 -0.41645974 0.00000144
-0.04485575 0.13311249 0.00001032
-0.18099312 0.12018130 0.00000837
-0.49640211 -0.63934195 0.00000060
-0.27109843 -0.52953196 0.00000101
-0.23241223 -0.46236357 0.00000127
-0.20968153 0.34931457 0.06952693
-0.11431001 -0.28842804 0.00000192
-0.54114288 -0.22531234 0.35191149
-0.14569765 -0.56470549 0.00000088
-0.38760161 -0.76541686 0.00000013
-0.63704735 -0.68117958 0.07109645
-0.17096230 0.44174469 0.06821760
-0.29014823 -0.40600908 0.00000148
-0.61276197 0.16440488 0.00000008
-0.63484836 -0.62144518 0.13922459
-0.28656182 0.10494548 0.00000689
-0.21844214 -0.71004617 0.00000034
-0.12081636 -0.54725033 0.00000095
-0.36782885 -0.01176170 0.09546806
-0.27753940 0.29573452 0.20752540
-0.51603204 -0.48594439 0.00000118
-0.29422653 -0.63266891 0.00000063
-0.07163800 -0.64806712 0.00000057
-0.56940234 -0.35160053 0.27922854
-0.02774397 -0.31313559 0.00000183
-0.14108510 0.48621669 0.03359658
-0.38515428 -0.29951200 0.00000188
-0.21156748 -0.47212255 0.00000123
-0.00654484 -0.27647722 0.00000196
-0.55706483 -0.39558995 0.18687980
-0.48258120 -0.27514136 0.11256208
-0.46309584 -0.58701807 0.00000080
-0.03298161 -0.05211361 0.00000280
-0.42722207 -0.58366001 0.00000081
-0.38739797 -0.36297569 0.00000164
-0.46905825 -0.67767680 0.00000046
-0.06146834 -0.20683834 0.00000222
-0.07273662 0.45417371 0.00000750
-0.55105835 -0.32722151 0.25430962
-0.54675162 -0.42260069 0.12190164
-0.48840928 -0.07950564 0.37506559
-0.10565651 0.02721057 0.00001020
-0.02377871 -0.04671871 0.00000282
-0.01769744 -0.76962793 0.00000009
-0.34503007 -0.17536105 0.00000234
-0.23893911 -0.52896065 0.00000102
-0.07509827 -0.70984983 0.00000034
-0.43736002 -0.07359070 0.22819744
-0.27021477 0.07350227 0.00000737
-0.30273390 0.08367730 0.01821701
-0.21706672 -0.37601230 0.00000159
-0.07474805 -0.41228032 0.00000145
-0.36072865 0.03416846 0.13150507
-0.48543486 -0.35312766 0.02356493
-0.41049355 0.07103449 0.32804373
-0.19890065 -0.65881830 0.00000053
-0.00722958 0.36788720 0.00000913
-0.27132499 0.22978394 0.10619027
-0.37032387 -0.08671374 0.00918536
-0.51353908 -0.40877825 0.03883497
-0.42769396 -0.51622772 0.00000106
-0.16957726 0.47154269 0.10133220
-0.01861469 0.25129896 0.00000983
-0.34978458 0.16787431 0.26580077
-0.38995925 -0.55948508 0.00000090
-0.10034917 0.32652235 0.00000804
-0.48867771 -0.23512857 0.18107265
-0.05314567 -0.70753580 0.00000035
-0.51001477 -0.44195044 0.00000134
-0.36623672 -0.47626522 0.00000121
-0.50855082 -0.26365638 0.20541948
-0.05330283 -0.62679899 0.00000065
-0.57471448 -0.42978501 0.19741310
-0.35450715 -0.34465766 0.00000171
-0.55794477 -0.66125578 0.00000052
-0.50004584 -0.33384579 0.09185625
-0.44097888 -0.25705165 0.00948283
-0.03530083 -0.59544009 0.00000077
-0.43999153 -0.20754284 0.06847266
-0.63113052 -0.68238038 0.05171250
-0.62430197 -0.65358615 0.06712021
-0.56843954 -0.54018754 0.04025144
-0.49681866 -0.22827546 0.21425338
-0.19354127 -0.22727017 0.00000215
-0.68750727 -0.78974682 0.08768608
-0.28890511 -0.71295106 0.00000033
-0.57447851 -0.65396774 0.00000055
-0.26910815 -0.29308507 0.00000190
-0.30602801 0.48566282 0.00000302
-0.28154495 0.09605365 0.00000703
-0.40423492 -0.15947464 0.02058555
-0.08299322 -0.14161733 0.00000247
-0.07628578 -0.27447948 0.00000197
-0.10389550 0.38596126 0.00000754
-0.27401474 -0.07308171 0.00000273
-0.27910966 -0.79589027 0.00000002
-0.40094212 -0.40577671 0.00000148
-0.08590190 0.28993693 0.00000853
-0.21164444 0.20933846 0.00000724
-0.60226727 -0.57708377 0.09629414
-0.18589742 -0.40152529 0.00000149
-0.60817045 0.17716356 0.00000005
-0.40190634 -0.14844608 0.02735377
-0.15485846 0.24316974 0.00000784
-0.01225091 0.32902762 0.00000935
-0.44729277 -0.68665510 0.00000043
-0.49833298 -0.76212794 0.00000014
-0.50364882 -0.32387191 0.11522946
-0.27997082 0.19718917 0.09151708
-0.12012474 -0.56783831 0.00000087
-0.46831107 -0.20914598 0.15204839
-0.33596340 0.00900095 0.02515984
-0.32467395 0.19418979 0.22285663
-0.01533676 -0.23389775 0.00000212
-0.27617911 -0.71653289 0.00000031
-0.19497705 -0.72108155 0.00000030
-0.34735096 -0.69574857 0.00000039
-0.07706244 0.61916333 0.00653696
-0.06357809 0.21786489 0.00000941
-0.31251049 -0.67395985 0.00000047
-0.19742201 -0.12427644 0.00000253
-0.47590521 -0.12859838 0.27582517
-0.25127083 0.26773486 0.09309194
-0.26066679 -0.10757127 0.00000260
-0.39476570 -0.70466334 0.00000036
-0.53679550 -0.25897753 0.29663253
-0.12682855 0.50673920 0.01620235
-0.55004305 -0.72469115 0.00000028
-0.03330430 -0.41629887 0.00000139
-0.04136061 -0.31704068 0.00000175
-0.26181835 -0.18133143 0.00000232
-0.49996161 -0.40510595 0.00240038
-0.30080086 -0.64574808 0.00000058
-0.02973723 -0.35235551 0.00000163
-0.45224833 -0.39043599 0.00000154
-0.36181644 -0.12331722 0.00000254
-0.27750033 0.07298671 0.00000727
-0.39875633 -0.15406626 0.01079913
-0.09659405 0.29127258 0.00000836
-0.45025659 -0.73740691 0.00000023
-0.50957680 -0.30380908 0.15825808
-0.00451682 -0.77068269 0.00000010
-0.52403855 -0.47782487 0.00000121
-0.39947206 -0.13787818 0.03322582
-0.44689396 -0.39351442 0.00000152
-0.37423435 0.42025667 0.00000231
-0.46714097 -0.09496367 0.29144225
-0.00957140 0.48871133 0.00000819
-0.53603786 -0.32139167 0.21621487
-0.11184202 0.54413831 0.01772771
-0.50670576 -0.36832783 0.06881908
-0.24174932 0.23405693 0.02216056
-0.59128606 -0.69952857 0.00000038
-0.43808749 -0.18997718 0.08470675
-0.35732210 0.14488585 0.25980312
-0.21874151 -0.39322463 0.00000153
-0.53260541 -0.21333066 0.34110945
-0.38954464 0.02703238 0.20965505
-0.06801384 -0.49684504 0.00000114
-0.16064164 -0.17079206 0.00000236
-0.64464402 -0.62442428 0.16509810
-0.31811866 -0.62383258 0.00000066
-0.11230323 -0.67078304 0.00000048
-0.06570888 0.45391718 0.00000760
-0.24219982 -0.66118222 0.00000052
-0.44863901 -0.15587647 0.15928005
-0.65712142 -0.68875575 0.12227692
-0.45236546 -0.08534154 0.25883499
-0.02295250 0.68275505 0.00000653
-0.10343730 -0.50268656 0.00000111
-0.29154417 -0.08655309 0.00000268
-0.03670124 -0.46168634 0.00000121
-0.59750813 -0.58081681 0.07723896
-0.55116785 -0.48751801 0.05398596
-0.34674859 0.10154266 0.17359392
-0.10777002 0.08350353 0.00000975
-0.27738452 0.05835613 0.00000738
-0.02267691 -0.49817473 0.00000113
-0.59814405 -0.40976515 0.29327777
-0.55793679 -0.48758614 0.07435664
-0.02573961 -0.76233119 0.00000014
-0.28798449 -0.03954770 0.00000285
-0.02300778 -0.65410846 0.00000055
-0.60217559 -0.72281885 0.00000029
-0.52299702 -0.29955384 0.20414098
-0.17508715 -0.02791047 0.00000290
-0.54165781 -0.34160945 0.20789048
-0.00368773 -0.07290692 0.00000272
-0.51770836 -0.51658654 0.00000106
-0.05918746 0.18111776 0.00000975
-0.33578253 -0.78559268 0.00000005
-0.52114451 -0.46049470 0.00000127
-0.15490474 0.41719693 0.00000653
-0.11488362 -0.62509316 0.00000066
-0.42422140 -0.62546933 0.00000065
-0.15709081 -0.09451369 0.00000265
-0.43311182 -0.01188617 0.29259914
-0.78339422 -0.01471868 -0.00000181
-0.44433650 -0.26621288 0.00816190
-0.00451753 0.17491096 0.00001062
-0.14168985 -0.44610837 0.00000133
-0.58775878 -0.58943963 0.03698241
-0.38263676 -0.14520521 0.00000246
-0.36704594 -0.01832397 0.08488759
-0.57331377 -0.39938423 0.23123489
-0.21561182 -0.56575060 0.00000088
-0.05963128 0.33602190 0.00000858
-0.29113877 0.23255795 0.16954049
-0.37010628 -0.73050344 0.00000026
-0.58791548 -0.48442051 0.16891581
-0.46497849 -0.18160711 0.17644951
-0.36283103 0.07260708 0.18597479
-0.03628866 -0.11061973 0.00000253
-0.52525604 -0.29272711 0.21951333
-0.13804865 0.49436602 0.03462145
-0.50611836 -0.41329879 0.01075061
-0.03220759 -0.33558795 0.00000169
-0.57679474 -0.45148575 0.17653532
-0.68967849 -0.79085302 0.09286286
-0.00628491 0.23481002 0.00001014
-0.21395466 0.57685161 0.00000387
-0.11294045 -0.23390038 0.00000212
-0.26294425 0.20581371 0.05085822
-0.46069559 -0.25001463 0.07787602
-0.10242549 -0.47257054 0.00000123
-0.11531081 -0.07450099 0.00000272
-0.70467561 -0.81196934 0.11175165
-0.04969796 -0.06198594 0.00000277
-0.14535207 -0.64804560 0.00000057
-0.01937797 0.30031323 0.00000946
-0.00929731 -0.00474979 0.00000298
-0.27236688 0.21723221 0.09362701
-0.07526071 0.33138415 0.00000838
-0.14892304 0.64965868 0.00000451
-0.27919811 -0.28217471 0.00000194
-0.15810393 -0.35248336 0.00000168
-0.20027998 0.23074877 0.00000725
-0.63749230 -0.68751395 0.06451201
-0.05502935 0.63624918 0.00000640
-0.52865291 -0.18356515 0.36642435
-0.37150043 -0.13038377 0.00000251
-0.40909579 0.01501581 0.25369713
-0.45217696 -0.04370776 0.31038126
-0.20697391 0.24043220 0.00000707
-0.48122296 -0.16445573 0.24701034
-0.33445746 -0.30117324 0.00000187
-0.01177286 0.27183688 0.00000978
-0.00172534 -0.47844917 0.00000121
-0.53208143 -0.37357149 0.13894117
-0.00423855 -0.70826578 0.00000034
-0.07175593 0.53737986 0.00000689
-0.04114898 0.10152822 0.00001062
-0.30009055 0.13819668 0.07847440
-0.04326648 -0.75038207 0.00000012
-0.57541561 -0.38586017 0.25451568
-0.49949956 -0.74896270 0.00000019
-0.27437437 -0.32076791 0.00000180
-0.32358721 -0.65041661 0.00000056
-0.55278254 -0.73307592 0.00000025
-0.59945530 -0.63472015 0.01564870
-0.41201547 -0.17427716 0.02556923
-0.51160121 -0.24108742 0.24288893
-0.33864620 -0.40447825 0.00000148
-0.15809155 0.31387186 0.00000726
-0.07940675 -0.67490536 0.00000047
-0.44931337 -0.17025825 0.14331530
-0.25669104 -0.39954081 0.00000150
-0.18650445 -0.32899055 0.00000177
-0.10427776 0.06168993 0.00000996
-0.35875997 -0.64227861 0.00000059
-0.09529582 0.13528956 0.00000955
-0.32629541 -0.24288599 0.00000209
-0.32476494 -0.05777229 0.00000278
-0.64849782 -0.64304209 0.15343925
-0.63438249 -0.59426045 0.17184581
-0.09273062 -0.26899412 0.00000199
-0.04956951 0.49366540 0.00000755
-0.24442638 -0.02365890 0.00000291
-0.38094062 -0.05287766 0.08362440
-0.41456568 -0.16019060 0.05090921
-0.37833050 -0.48647070 0.00000118
-0.49936312 -0.26581579 0.17495091
-0.02919511 0.53323573 0.00000756
-0.33022466 -0.35468951 0.00000167
-0.05743150 -0.71248609 0.00000033
-0.12788540 -0.05975065 0.00000278
-0.45816642 -0.03217865 0.34291336
-0.42115787 -0.08404971 0.16614188
-0.19626580 0.32820052 0.00255427
-0.16651189 -0.72497576 0.00000028
-0.48615003 -0.26604995 0.13472749
-0.57261658 -0.32861185 0.31771851
-0.52537864 -0.43578285 0.04081081
-0.45375898 -0.09498848 0.25097048
-0.24487917 -0.68309665 0.00000044
-0.48077622 -0.21543173 0.18185011
-0.38243452 -0.05239939 0.08873776
-0.50630897 -0.21280377 0.26230043
-0.18638834 0.02033878 0.00000904
-0.34157625 -0.15104955 0.00000243
-0.26227334 0.17466784 0.00984329
-0.47028965 -0.30972779 0.03212242
-0.35961968 -0.62055582 0.00000067
-0.37218207 -0.04775947 0.06356262
-0.42044148 0.03931047 0.31839550
-0.31732807 -0.35225478 0.00000168
-0.27212146 -0.43809634 0.00000136
-0.27058125 -0.38093594 0.00000157
-0.46110582 -0.12408654 0.23674873
-0.44641128 -0.21260162 0.08154095
-0.17662358 0.48032579 0.13362087
-0.57150060 -0.37535819 0.25583044
-0.02309904 -0.14370652 0.00000243
-0.56643581 -0.74557918 0.00000020
-0.22404198 -0.33830184 0.00000173
-0.36228430 0.04933330 0.15518913
-0.31316432 0.07626237 0.04045624
-0.28883028 -0.17221615 0.00000235
-0.60855067 -0.62349689 0.05718423
-0.51715702 -0.31233808 0.17048936
-0.66829348 -0.67054075 0.17883994
-0.26556483 0.31875753 0.20015749
-0.01305422 -0.28455043 0.00000193
-0.67339694 -0.74982923 0.09501201
-0.08145811 0.43906322 0.00000748
-0.10776091 0.60119194 0.07681254
-0.79833341 -0.02867838 -0.00000193
-0.38904351 -0.64215422 0.00000059
-0.53509802 -0.25469965 0.29685760
-0.50793731 -0.68916887 0.00000042
-0.02604804 -0.54048616 0.00000093
-0.38900071 -0.00602979 0.16662501
-0.42722142 -0.21934064 0.01511288
-0.57621360 -0.37840363 0.26626113
-0.07870552 0.64758056 0.04707426
-0.47426003 -0.31122094 0.04225183
-0.33902964 -0.40838632 0.00000147
-0.05774924 -0.73536760 0.00000024
-0.03321776 0.67519480 0.00000643
-0.13935889 0.25975433 0.00000795
-0.35829273 -0.17671141 0.00000234
-0.49449342 -0.09655878 0.37210542
-0.00682815 -0.15761551 0.00000241
-0.29245138 0.14008497 0.05775236
-0.52091098 -0.64363682 0.00000059
-0.28228870 0.24125639 0.15368383
-0.15617739 0.47814870 0.06910665
-0.06851702 0.15422198 0.00000981
-0.03844294 -0.71694672 0.00000031
-0.26426005 -0.66221476 0.00000052
-0.30380455 -0.23762883 0.00000211
-0.31763852 0.16928355 0.17041852
-0.16542795 0.33896142 0.00000696
-0.64017439 -0.70216197 0.05428139
-0.12219116 -0.05568579 0.00000279
-0.14143191 -0.62888950 0.00000064
-0.55671275 -0.40777877 0.17055805
-0.23392302 0.26072448 0.03189094
-0.05130384 -0.63488561 0.00000054
-0.19814260 -0.01986842 0.00000293
-0.47892031 -0.29596376 0.07543388
-0.20529780 -0.21309498 0.00000220
-0.32314906 0.05512930 0.04417667
-0.04031184 -0.45392027 0.00000130
-0.00025427 0.76605117 0.00000625
-0.32133004 -0.35421064 0.00000167
-0.60702771 -0.66159415 0.00489282
-0.50103909 -0.18436590 0.28197235
-0.31866619 -0.27007285 0.00000199
-0.12119105 -0.59522492 0.00000077
-0.30771694 -0.73995078 0.00000023
-0.38700801 -0.61457402 0.00000070
-0.25493711 -0.00034716 0.00000300
-0.03693865 0.72604859 0.01907754
-0.19204420 0.08378382 0.00000847
-0.23205571 0.18636256 0.00000710
-0.05175036 -0.71297795 0.00000033
-0.11988192 -0.28188881 0.00000194
-0.68790048 -0.76044154 0.12555775
-0.37005067 -0.06047086 0.04120980
-0.25048536 0.23336767 0.04769838
-0.11490247 0.25572833 0.00000835
-0.16772150 0.46535897 0.08798346
-0.07061208 -0.51883101 0.00000105
-0.50943363 -0.58992511 0.00000079
-0.42937109 -0.74718016 0.00000020
-0.22147043 0.25644076 0.00000673
-0.48383334 -0.79936308 0.00000000
-0.04562478 0.26384962 0.00000933
-0.48741981 -0.17327835 0.25469357
-0.13830414 -0.06654810 0.00000275
-0.60285276 0.19503023 -0.00000003
-0.38545024 -0.76022816 0.00000015
-0.32922369 0.12226814 0.14657670
-0.49674618 -0.63216799 0.00000063
-0.47618210 -0.36783022 0.00000162
-0.55084908 -0.62086904 0.00000067
-0.16921687 -0.57176250 0.00000086
-0.16993088 -0.41242704 0.00000145
-0.42821014 -0.56042403 0.00000090
-0.20821695 -0.40519425 0.00000148
-0.44841027 -0.76586443 0.00000013
-0.31889623 -0.00857770 0.00000297
-0.51707768 -0.64776981 0.00000057
-0.46155736 -0.15065548 0.20485514
-0.15263276 -0.19515298 0.00000227
-0.39592567 -0.43097782 0.00000138
-0.31493852 0.16382533 0.15542661
-0.24124540 -0.77160984 0.00000011
-0.31814834 0.06429020 0.04053162
-0.03813590 0.62418568 0.00000674
-0.10651404 0.54064488 0.00000634
-0.35584223 0.07891973 0.17275649
-0.38416708 -0.36667618 0.00000162
-0.53897637 -0.36672705 0.16834567
-0.26705632 0.12451969 0.00000704
-0.22656398 -0.45839265 0.00000128
-0.61185539 -0.54325402 0.16761670
-0.39232856 -0.19362545 0.00000227
-0.50498587 -0.21561189 0.25478670
-0.52481258 -0.46001840 0.00876292
-0.12131504 -0.13864420 0.00000248
-0.63643044 -0.75035638 0.00000019
-0.52119100 -0.48089316 0.00000120
-0.37539506 0.05985670 0.20798314
-0.15661503 -0.18039289 0.00000232
-0.38751030 -0.11540865 0.02520372
-0.24523614 -0.20244937 0.00000224
-0.59995049 -0.51653481 0.16508628
-0.46751645 -0.41214585 0.00000145
-0.02103912 -0.60265064 0.00000074
-0.08597238 -0.70123857 0.00000037
-0.21552950 -0.40667552 0.00000147
-0.11265335 -0.30454102 0.00000186
-0.25985169 0.24636348 0.09227148
-0.16487266 0.47072369 0.08608962
-0.49877214 -0.32285702 0.10176252
-0.16242880 0.49470007 0.10871710
-0.47540611 -0.50200456 0.00000112
-0.43027508 -0.50269043 0.00000111
-0.31158051 -0.01202187 0.00000295
-0.60034484 -0.56177765 0.10964420
-0.64913881 -0.79540330 0.00000002
-0.29912466 -0.75591964 0.00000017
-0.48233637 -0.52401489 0.00000103
-0.44514340 -0.72651905 0.00000028
-0.06349469 0.32533869 0.00000860
-0.50795293 -0.23604691 0.23817343
-0.47135881 -0.32995185 0.01003750
-0.01383823 0.32069895 0.00000939
-0.08356902 0.20064481 0.00000923
-0.58825338 -0.57505453 0.05648400
-0.01418461 -0.47061071 0.00000121
-0.01111866 0.24984625 0.00000996
-0.04179265 -0.46699241 0.00000119
-0.17186572 -0.60315192 0.00000074
-0.02761049 0.70257837 0.00000631
-0.48678327 -0.46727881 0.00000125
-0.26310846 -0.46321914 0.00000126
-0.12433575 0.02059144 0.00000997
-0.24905409 -0.59513366 0.00000077
-0.61570740 -0.68406999 0.00298838
-0.46981177 -0.31080392 0.02933115
-0.13905340 0.46219894 0.00000644
-0.49039090 -0.71880400 0.00000030
-0.32724330 -0.65624934 0.00000054
-0.14263345 -0.53447527 0.00000100
-0.36548159 -0.32073823 0.00000180
-0.06044524 0.17342095 0.00000979
-0.34749952 -0.00490177 0.04261929
-0.47204763 -0.71396607 0.00000032
-0.01904302 -0.23684894 0.00000211
-0.06805501 -0.03477655 0.00000287
-0.00336613 -0.68968004 0.00000041
-0.40319881 -0.21776526 0.00000218
-0.45307690 -0.12601021 0.21007720
-0.13353124 0.51282853 0.04408051
-0.27714112 -0.38402760 0.00000156
-0.43846661 -0.04556036 0.26662916
-0.23558477 0.32206786 0.11370064
-0.03164795 0.35119781 0.00000889
-0.30151534 -0.05294021 0.00000280
-0.29733235 -0.24750391 0.00000207
-0.00319414 -0.32614073 0.00000177
-0.43745068 -0.23680606 0.02416329
-0.17963959 0.17908996 0.00000795
-0.62527502 -0.58068019 0.16132222
-0.20842867 -0.24912949 0.00000207
-0.60009432 -0.71678847 0.00000031
-0.26675808 -0.73302215 0.00000025
-0.10744861 -0.32588413 0.00000178
-0.48512787 -0.23074040 0.17583793
-0.05006493 -0.69938809 0.00000030
-0.11677589 0.56574529 0.05968500
-0.22775511 -0.76551968 0.00000013
-0.50090581 -0.15544769 0.31776845
-0.24437428 -0.47124955 0.00000123
-0.25520533 -0.10856889 0.00000259
-0.61107349 -0.50287795 0.21579523
-0.05539101 -0.44794309 0.00000132
-0.46723062 0.32729036 0.00000138
-0.32178846 0.09223696 0.08651514
-0.09161754 -0.50928509 0.00000109
-0.48113650 -0.69222355 0.00000040
-0.14327265 0.03183025 0.00000960
-0.55735350 -0.60128009 0.00000075
-0.46829078 -0.14113832 0.23711702
-0.30415240 0.18934344 0.15477347
-0.48927203 -0.37711197 0.00513818
-0.24840227 -0.00553048 0.00000298
-0.50820518 -0.53328866 0.00000100
-0.00814192 -0.44859007 0.00000131
-0.46178234 -0.25293478 0.07750486
-0.48080999 -0.26663089 0.11786252
-0.14900456 0.00916195 0.00000968
-0.03115882 0.22402067 0.00000985
-0.05413407 0.55102587 0.00000705
-0.36734504 -0.02290522 0.08005679
-0.16384365 -0.74975401 0.00000019
-0.70003927 -0.78067845 0.13690931
-0.43239778 0.02589106 0.33772975
-0.02819012 -0.68308282 0.00000044
-0.63025540 -0.79124445 0.00000003
-0.37453005 0.09552070 0.25001219
-0.14820866 -0.56240088 0.00000089
-0.19914848 -0.74622089 0.00000020
-0.18926214 0.45686805 0.14245118
-0.59461218 -0.62665820 0.01110443
-0.51677597 -0.22097202 0.28370723
-0.15861002 0.46082658 0.05477480
-0.22676143 0.38511094 0.16595168
-0.38955146 -0.11201926 0.03561492
-0.21175705 -0.38743442 0.00000155
-0.15936378 -0.15362224 0.00000242
-0.43130556 -0.11387558 0.15947334
-0.44074929 -0.11635412 0.18490997
-0.18817610 0.05556366 0.00000874
-0.57103240 -0.35937038 0.27442870
-0.54498506 -0.30852610 0.25935829
-0.65007460 -0.59854788 0.21390055
-0.44854683 -0.16625056 0.14601548
-0.34717831 -0.05037990 0.00000281
-0.11666918 -0.05914037 0.00000278
-0.25150949 -0.44162822 0.00000134
-0.58014429 -0.59902555 0.00197172
-0.15249565 -0.11307562 0.00000258
-0.76944429 -0.00127690 -0.00000167
-0.66623122 -0.77536726 0.04138958
-0.62110698 -0.68105704 0.02307768
-0.19694410 0.35212487 0.03455189
-0.28075361 0.28266555 0.20087948
-0.14411850 0.45758036 0.00691752
-0.03670079 0.22937544 0.00000973
-0.59020150 -0.42020631 0.25620541
-0.62231231 -0.51648062 0.23273167
-0.36335921 -0.79537165 0.00000002
-0.10551208 -0.46535677 0.00000125
-0.03859352 -0.71665871 0.00000031
-0.56219196 -0.40972885 0.18467544
-0.00617925 0.43903255 0.00000861
-0.49130580 -0.34276175 0.05428286
-0.22710079 0.29428315 0.05328174
-0.64381230 -0.65819526 0.12031130
-0.60165215 -0.42130262 0.28943703
-0.44955808 -0.49440229 0.00000115
-0.06572120 0.63396066 0.00000625
-0.53137058 -0.21951799 0.32963264
-0.28901309 -0.77032232 0.00000011
-0.03619755 -0.35442379 0.00000167
-0.04160515 0.06073651 0.00001092
-0.25776920 0.26426932 0.10839206
-0.38714972 0.02316666 0.19757849
-0.42533702 0.02368045 0.31362474
-0.02816404 -0.05309485 0.00000280
-0.39444262 -0.23003075 0.00000214
-0.17339119 0.15417545 0.00000823
-0.02168602 -0.51811230 0.00000106
-0.49982932 -0.19462496 0.26547435
-0.06768658 -0.13821575 0.00000248
-0.29226455 -0.03348944 0.00000287
-0.45482743 -0.04588082 0.31567088
-0.62853277 -0.62083161 0.12090691
-0.31076539 0.06682778 0.02139666
-0.08219504 0.26019120 0.00000881
-0.42575237 -0.06876224 0.19916293
-0.22893898 -0.77266681 0.00000010
-0.13307989 0.44996226 0.00000662
-0.51824576 -0.20065038 0.31358698
-0.50080490 -0.19565549 0.26713264
-0.00542953 0.56494761 0.00000768
-0.05704461 0.44955206 0.00000777
-0.04717021 0.34764776 0.00000868
-0.24132550 0.23298553 0.01953867
-0.09985359 0.58314639 0.03032753
-0.01122794 -0.61468500 0.00000069
-0.21978655 -0.28207433 0.00000194
-0.29648843 -0.53091753 0.00000101
-0.45663080 -0.08094794 0.27722475
-0.51250052 -0.27264592 0.20610286
-0.02916773 0.36967042 0.00000879
-0.19106853 0.01577195 0.00000900
-0.46375373 -0.17587674 0.17992140
-0.54529315 -0.42539611 0.11399497
-0.40370208 -0.12740304 0.05912154
-0.34881952 0.00869882 0.06363322
-0.47786924 -0.31338099 0.05045514
-0.21507587 -0.36096546 0.00000165
-0.03692063 -0.45507118 0.00000129
-0.21522816 -0.67798436 0.00000046
-0.33809769 -0.54044038 0.00000097
-0.68282026 0.09674674 -0.00000064
-0.57556409 -0.53331500 0.07038486
-0.17687149 -0.11510129 0.00000257
-0.58339608 -0.55967247 0.06105973
-0.63636369 -0.68535370 0.06380536
-0.30563670 -0.61687356 0.00000069
-0.38428169 -0.02615859 0.12716737
-0.28977251 0.17712243 0.09601917
-0.36114129 -0.18982974 0.00000229
-0.60991538 -0.62631696 0.05777831
-0.36564866 -0.69251531 0.00000040
-0.49921024 -0.34178218 0.07939649
-0.12508085 0.33223978 0.00000762
-0.18927056 -0.78770626 0.00000005
-0.03107456 -0.52064610 0.00000100
-0.04508712 0.15646093 0.00001015
-0.39506769 -0.29937956 0.00000188
-0.18860903 -0.39859298 0.00000151
-0.13985045 0.20638709 0.00000834
-0.51461297 -0.36717921 0.09415279
-0.15381138 -0.49810243 0.00000113
-0.47675300 -0.29123753 0.07480035
-0.53911316 -0.59641343 0.00000076
-0.57057244 -0.48343047 0.11774391
-0.19436054 -0.14247712 0.00000247
-0.02775242 -0.76751077 0.00000008
-0.25750425 -0.73431742 0.00000025
-0.29777259 0.20706145 0.15767236
-0.21033698 0.35200232 0.07487220
-0.51820141 -0.24062079 0.26341915
-0.18652131 -0.49635407 0.00000114
-0.40693864 -0.08178936 0.12600040
-0.48878342 -0.37065771 0.01174083
-0.37896937 0.05737643 0.21568003
-0.12137750 0.24162145 0.00000836
-0.25878882 0.29073009 0.14459623
-0.10245307 0.56029499 0.00957854
-0.53054816 -0.45887011 0.02753341
-0.13959962 0.50214332 0.04904393
-0.60843426 -0.47788882 0.23909993
-0.17402118 0.35795078 0.00000669
-0.25760913 0.06626193 0.00000762
-0.44348562 -0.69555759 0.00000039
-0.00111285 -0.61734688 0.00000068
-0.62868041 -0.58243388 0.16941807
-0.03088500 0.08162568 0.00001092
-0.09560910 -0.23418261 0.00000212
-0.46580127 -0.60414779 0.00000073
-0.31352061 -0.22967416 0.00000214
-0.01748928 -0.24000871 0.00000207
-0.39893231 0.39498585 0.00000207
-0.65060508 -0.67481178 0.12003922
-0.01590929 0.13655381 0.00001074
-0.33443072 0.13864726 0.18281537
-0.24409842 0.36466280 0.19274819
-0.09843789 0.46013159 0.00000706
-0.12520285 0.51409221 0.02049373
-0.36398017 0.06792101 0.18358164
-0.03951427 -0.35806441 0.00000160
-0.09190525 0.14154644 0.00000955
-0.02727496 0.41955429 0.00000844
-0.55510604 -0.53010446 0.01257896
-0.34962249 0.08687576 0.16391934
-0.16167097 0.41107437 0.00174673
-0.01933482 -0.47589058 0.00000122
-0.07771217 -0.63964856 0.00000060
-0.42218158 0.02604237 0.30704549
-0.12547730 0.03905742 0.00000981
-0.08255943 0.07920544 0.00001016
-0.34525773 0.10309191 0.17102785
-0.23544808 -0.46186358 0.00000127
-0.67916536 -0.79109478 0.06078948
-0.37063169 -0.57976216 0.00000083
-0.29039231 -0.65881145 0.00000053
-0.00467465 -0.48941031 0.00000116
-0.67606115 -0.75277352 0.09937766
-0.33291948 -0.42970794 0.00000139
-0.35474262 -0.72419095 0.00000028
-0.14542177 0.50862968 0.07475804
-0.05637932 -0.02715002 0.00000290
-0.06438564 -0.03476913 0.00000287
-0.48776209 -0.75131822 0.00000018
-0.52078885 -0.33357826 0.15487704
-0.32411650 0.02992272 0.01554736
-0.57399112 -0.42726192 0.19838539
-0.25519234 -0.10127099 0.00000262
-0.29818982 0.09114349 0.01383056
-0.43318176 -0.13348480 0.14059705
-0.03929809 0.34342906 0.00000883
-0.30206263 -0.57236451 0.00000085
-0.07538023 -0.12172979 0.00000254
-0.41708350 -0.09236714 0.14341754
-0.39564192 -0.79559141 0.00000002
-0.03021273 0.46168682 0.00000808
-0.55064571 -0.48048630 0.06121028
-0.35304716 -0.31412959 0.00000182
-0.22479957 -0.51292074 0.00000108
-0.10077278 -0.00022188 0.00000300
-0.39443350 -0.09379259 0.07318422
-0.52610272 -0.62329525 0.00000066
-0.57814658 -0.41590783 0.22515593
-0.09831285 0.17622320 0.00000919
-0.07596933 0.57411474 0.00000655
-0.05886174 -0.27895167 0.00000195
-0.08251154 -0.02925657 0.00000289
-0.64682341 -0.75952500 0.00256960
-0.11098576 -0.68301809 0.00000044
-0.38052264 -0.02858609 0.11276871
-0.60733670 -0.46205866 0.25559887
-0.01224493 0.17712729 0.00001049
-0.23361035 -0.14061137 0.00000247
-0.33647692 -0.37853703 0.00000158
-0.03205548 0.08931522 0.00001085
-0.42377833 -0.27460495 0.00000197
-0.28334442 -0.23774503 0.00000211
-0.61779380 -0.51601189 0.21966346
-0.22833240 0.18682849 0.00000715
-0.30511415 -0.30155051 0.00000187
-0.00639859 -0.05234141 0.00000279
-0.60018551 -0.44866365 0.25075537
-0.06820967 -0.01645584 0.00000294
-0.58262563 -0.35454985 0.31549761
-0.03981323 -0.62746280 0.00000065
-0.16343731 0.17334181 0.00000823
-0.40916258 -0.72192281 0.00000029
-0.17887209 -0.64049482 0.00000060
-0.48103547 -0.74767882 0.00000020
-0.13897517 -0.49384910 0.00000115
-0.01467486 -0.77704769 0.00000009
-0.33271220 0.10854539 0.13994135
-0.05352429 -0.05669174 0.00000271
-0.20641762 0.32047182 0.02355880
-0.37523922 0.12527464 0.28940040
-0.15998647 -0.40373078 0.00000149
-0.14322668 0.10021454 0.00000909
-0.57680732 -0.58626842 0.00785633
-0.25028980 0.28106830 0.10681762
-0.41300699 -0.53779030 0.00000098
-0.29962215 -0.44267148 0.00000134
-0.46522057 -0.04310479 0.35055420
-0.14493015 -0.31678027 0.00000181
-0.00064252 -0.42000794 0.00000142
-0.40204626 -0.02215817 0.18586002
-0.33226195 0.02523430 0.03429432
-0.11791920 -0.73148566 0.00000026
-0.08118188 0.46102163 0.00000732
-0.12324961 -0.73035741 0.00000026
-0.03810221 0.28276536 0.00000930
-0.09489349 -0.07590515 0.00000272
-0.44321933 -0.03637389 0.29249141
-0.12092318 0.02484060 0.00000999
-0.15256171 0.30787671 0.00000739
-0.14604867 -0.15422504 0.00000242
-0.17418377 -0.04763388 0.00000282
-0.45024112 -0.14015272 0.18380415
-0.12755673 -0.07137072 0.00000273
-0.68211359 -0.71343398 0.16691211
-0.35171065 0.05073657 0.12499188
-0.38656050 0.39754444 0.00000228
-0.61338925 -0.67385989 0.00876373
-0.18414707 -0.17153332 0.00000236
-0.63615876 -0.55241084 0.22959962
-0.10016852 -0.15939294 0.00000240
-0.50907069 -0.26908064 0.20020057
-0.03617010 0.20921485 0.00000989
-0.40603781 -0.41115513 0.00000146
-0.22603349 -0.66243547 0.00000052
-0.39804900 -0.02945147 0.16465068
-0.44813731 -0.18390197 0.12268235
-0.54851460 -0.50162601 0.02830784
-0.52549678 -0.22692935 0.30260441
-0.00975498 -0.23180878 0.00000213
-0.00991040 0.77910459 0.00381137
-0.40361172 -0.65337008 0.00000055
-0.29835069 0.25108004 0.21452060
-0.07739634 0.37031028 0.00000805
-0.06832837 0.32395586 0.00000854
-0.04684319 -0.06525829 0.00000268
-0.12552862 -0.38621274 0.00000155
-0.45149469 -0.09864367 0.23955226
-0.23127617 0.26795691 0.03294544
-0.28979874 0.28573391 0.23205502
-0.02919499 0.19733766 0.00001008
-0.69366586 -0.81010693 0.08081139
-0.29116201 -0.62047815 0.00000067
-0.48987311 -0.13104805 0.31497008
-0.62916756 -0.55225533 0.20866677
-0.42445695 -0.02165827 0.25421152
-0.25853771 -0.25952950 0.00000203
-0.07278478 -0.79029787 0.00000004
-0.02235880 -0.65293610 0.00000052
-0.16262349 0.43960840 0.04034334
-0.63269836 0.15314250 -0.00000020
-0.49491370 -0.08408886 0.38898501
-0.16806880 -0.49990278 0.00000113
-0.30788538 -0.52746820 0.00000102
-0.03840945 -0.03744442 0.00000280
-0.62315720 -0.53176016 0.21615849
-0.20770706 -0.55651671 0.00000091
-0.06545249 0.52526522 0.00000707
-0.14925598 0.11186041 0.00000891
-0.49902675 -0.38020879 0.03074067
-0.19960539 0.30070180 0.00000673
-0.32801640 -0.22226058 0.00000217
-0.30055517 0.03879892 0.00000717
-0.56014192 -0.67544079 0.00000047
-0.17284228 0.42024481 0.04698604
-0.09563622 0.61519504 0.05770008
-0.37974748 -0.65911448 0.00000053
-0.54959643 -0.36242199 0.20582864
-0.22626662 0.16678950 0.00000733
-0.04809665 0.56807047 0.00000701
-0.19048050 0.32735220 0.00000667
-0.04192087 -0.36830387 0.00000156
-0.44766542 -0.21503310 0.08228732
-0.34104708 0.00812745 0.03942944
-0.11516938 0.57057154 0.06087144
-0.01564484 0.47147977 0.00000823
-0.09488030 0.22976346 0.00000885
-0.15493418 0.45633101 0.03803893
-0.21933787 0.31774843 0.05919507
-0.07163671 -0.54196477 0.00000097
-0.64255625 -0.63887960 0.14069414
-0.51289123 -0.41161960 0.03332041
-0.12643781 -0.38342550 0.00000156
-0.54526842 -0.25192061 0.33107153
-0.46805614 -0.32059577 0.01176840
-0.39309102 -0.37372580 0.00000160
-0.59469831 -0.57340235 0.07802885
-0.05178062 0.69783258 0.02861044
-0.63760710 -0.68868285 0.06339580
-0.06567496 0.61477578 0.00000640
-0.14455307 -0.56124103 0.00000090
-0.27489766 -0.38346902 0.00000156
-0.16319603 -0.69833064 0.00000038
-0.30518657 -0.00858119 0.00000297
-0.23030472 -0.44295296 0.00000134
-0.15634899 0.15854952 0.00000845
-0.07066807 0.55527198 0.00000677
-0.28760004 -0.74820691 0.00000019
-0.58300513 -0.40113041 0.25833663
-0.66420710 -0.75649482 0.05889643
-0.24825911 0.30743685 0.13368817
-0.23464216 0.28646693 0.06628786
-0.30382028 0.17757288 0.13903572
-0.38330427 -0.06516378 0.07538801
-0.03819523 0.72487032 0.02140000
-0.65736610 -0.73094720 0.07020250
-0.15749136 -0.14568976 0.00000245
-0.23475605 -0.04180902 0.00000284
-0.67909318 -0.80241477 0.04640137
-0.02885618 0.09630927 0.00001084
-0.41510725 -0.21690318 0.00000219
-0.46913621 -0.19256338 0.17529956
-0.41856679 -0.00902484 0.25222546
-0.20672059 0.14286982 0.00000781
-0.20473826 -0.45098382 0.00000131
-0.02430308 -0.14079417 0.00000244
-0.23225842 -0.64413744 0.00000058
-0.55883366 -0.77223873 0.00000010
-0.51009661 -0.58698428 0.00000080
-0.03141576 0.69796801 0.00000629
-0.13620116 0.38966560 0.00000702
-0.35314316 0.03849183 0.11399333
-0.43115327 -0.41726884 0.00000144
-0.59089929 -0.59147698 0.04392287
-0.63808876 -0.62192219 0.14842010
-0.00902220 -0.40081543 0.00000150
-0.35262325 -0.68657446 0.00000043
-0.26521131 0.22773097 0.08514471
-0.26786524 0.27231669 0.14897606
-0.18040508 -0.78956527 0.00000004
-0.03535158 -0.59053046 0.00000073
-0.39086643 -0.73982191 0.00000023
-0.37290350 0.05892945 0.19929281
-0.40967783 -0.21503483 0.00000219
-0.05071975 -0.69489735 0.00000039
-0.16993657 0.02551991 0.00000924
-0.58982986 -0.55642188 0.08457188
-0.62865967 -0.69937956 0.02296653
-0.55998224 -0.42081061 0.16412571
-0.01260594 -0.62365818 0.00000066
-0.00803627 -0.70644885 0.00000034
-0.05877444 0.61441201 0.00000651
-0.64532417 -0.69946158 0.07322438
-0.41089746 -0.01429195 0.22245528
-0.60823983 -0.53032547 0.17287406
-0.19136497 -0.58453941 0.00000081
-0.26503360 -0.14550817 0.00000245
-0.45951250 -0.04438733 0.33169881
-0.46135628 -0.01963832 0.36825085
-0.50218266 -0.38335595 0.03633847
-0.05838552 -0.77782589 0.00000008
-0.01501015 -0.32435897 0.00000178
-0.34823397 -0.62207693 0.00000067
-0.44055137 -0.21153291 0.06516987
-0.02080297 -0.73214215 0.00000025
-0.32779461 0.06114970 0.06575175
-0.34176892 0.09099983 0.14534800
-0.31452262 -0.30132812 0.00000187
-0.57022434 -0.37716106 0.24971692
-0.44451842 -0.17110205 0.12776861
-0.28608280 0.21901436 0.13730776
-0.01888179 -0.33243147 0.00000175
-0.27799994 -0.50422376 0.00000111
-0.02358840 -0.78204721 0.00000003
-0.20479117 -0.26102570 0.00000202
-0.25984874 -0.71110630 0.00000033
-0.51965076 -0.37768218 0.09622976
-0.25252995 -0.54212952 0.00000097
-0.13136306 0.03712257 0.00000974
-0.09834621 0.45616719 0.00000709
-0.17370272 -0.17065911 0.00000236
-0.54911196 -0.73807186 0.00000023
-0.63516712 -0.62457794 0.13626662
-0.25998881 -0.59134513 0.00000078
-0.62193578 -0.76605815 0.00000013
-0.45621401 -0.07297411 0.28594661
-0.45272076 -0.75320154 0.00000018
-0.41912532 -0.57225770 0.00000085
-0.39044040 -0.23226009 0.00000213
-0.49921969 -0.34376994 0.07693678
-0.05574083 0.16252585 0.00000994
-0.03202651 0.65773058 0.00000658
-0.38906589 0.06960837 0.26150361
-0.19457504 -0.32566410 0.00000178
-0.28309032 0.29116696 0.21858290
-0.31674933 0.23073535 0.24465488
-0.71457303 0.07157235 -0.00000102
-0.05442506 -0.26868865 0.00000191
-0.30252823 0.10241944 0.04105629
-0.58102411 -0.37720940 0.28229335
-0.40354663 -0.14050242 0.04225438
-0.35450387 -0.24243684 0.00000209
-0.51883459 -0.22960839 0.27911770
-0.65410328 -0.74366319 0.04442474
-0.52868956 -0.43439019 0.05255987
-0.28660345 -0.19738720 0.00000226
-0.36320281 -0.01752720 0.07427098
-0.46731198 -0.06733349 0.32654575
-0.44651145 -0.58360696 0.00000081
-0.58505338 -0.57448953 0.04752078
-0.42362064 -0.05644938 0.20813365
-0.01077163 -0.61640680 0.00000069
-0.44263509 -0.07578001 0.24139836
-0.20599440 0.41644022 0.14241020
-0.08938686 0.48670506 0.00000700
-0.03870620 0.27065527 0.00000939
-0.15368123 -0.41563889 0.00000144
-0.27538142 -0.25384623 0.00000205
-0.04417043 -0.50388271 0.00000104
-0.23395459 0.37136063 0.17047742
-0.07671844 0.65715694 0.05305664
-0.60428768 -0.43237647 0.28353980
-0.18928954 -0.76526916 0.00000013
-0.33881310 0.05768066 0.09470752
-0.04401370 0.69237179 0.00000614
-0.04221870 -0.70698589 0.00000029
-0.01059950 0.56399733 0.00000761
-0.27594942 -0.45789325 0.00000128
-0.31818289 -0.60813421 0.00000072
-0.25264841 -0.22223686 0.00000217
-0.37290460 -0.10021774 0.00008050
-0.03355280 0.52839833 0.00000753
-0.55872476 -0.50656003 0.05298709
-0.12821364 -0.17539097 0.00000234
-0.43744278 -0.43040603 0.00000139
-0.44015819 -0.02040585 0.30322886
-0.14317265 -0.38737679 0.00000155
-0.45926288 -0.10022299 0.26105106
-0.19428304 -0.57882875 0.00000083
-0.38382024 -0.01629560 0.13811907
-0.05201080 -0.65029579 0.00000048
-0.51400715 -0.17402238 0.33410993
-0.39484960 -0.62957406 0.00000064
-0.50655228 -0.27894258 0.18024497
-0.37579730 -0.62706465 0.00000065
-0.19139498 -0.00872236 0.00000297
-0.62268752 -0.58182859 0.15206525
-0.25422618 -0.55567539 0.00000092
-0.02774671 -0.15837270 0.00000236
-0.32829201 -0.04479453 0.00000283
-0.32643986 0.09712271 0.10668757
-0.41734159 -0.42439696 0.00000141
-0.02858030 0.43374857 0.00000832
-0.33525449 0.14559196 0.19399804
-0.16389222 -0.74487466 0.00000021
-0.37138987 -0.01058930 0.10769714
-0.37097183 -0.04260581 0.06635643
-0.28089222 -0.24413881 0.00000208
-0.39881045 -0.53558856 0.00000099
-0.35508662 0.08335703 0.17602748
-0.48036703 -0.09645728 0.32954213
-0.37845254 -0.06608855 0.05956836
-0.21364665 -0.24591713 0.00000208
-0.50886321 -0.15658303 0.34039474
-0.09986482 0.31113380 0.00000816
-0.02464049 -0.07496644 0.00000268
-0.59715450 -0.59009600 0.06455484
-0.70858151 0.06007968 -0.00000080
-0.45766109 -0.11632132 0.23605894
-0.24122882 -0.49587294 0.00000114
-0.47583276 -0.28374156 0.08140265
-0.29495707 -0.04564369 0.00000283
-0.37021142 -0.36447030 0.00000163
-0.37373582 -0.56047273 0.00000090
-0.03943483 -0.38384470 0.00000150
-0.45428514 -0.34024587 0.00000172
-0.30697694 -0.69306368 0.00000040
-0.05760423 0.17566594 0.00000981
-0.01563600 -0.03455332 0.00000287
-0.40026513 0.05772637 0.28047451
-0.09368445 -0.63248348 0.00000063
-0.37435892 -0.04859409 0.06909642
-0.02918073 -0.06036742 0.00000277
-0.24249013 -0.44814008 0.00000132
-0.50593293 -0.29977834 0.15229170
-0.17189579 -0.22937453 0.00000214
-0.36397329 -0.79306275 0.00000003
-0.22232135 -0.71633178 0.00000031
-0.39878041 -0.06623853 0.12081200
-0.05592591 0.27990702 0.00000906
-0.11234574 0.30695212 0.00000800
-0.54627424 -0.61182588 0.00000071
-0.22319253 -0.26409769 0.00000201
-0.63523346 -0.74016768 0.00000022
-0.17475279 0.44656825 0.08571053
-0.64724910 -0.62778842 0.16875964
-0.27625158 0.22510992 0.11522785
-0.21138769 -0.04692663 0.00000282
-0.02573034 -0.44159192 0.00000131
-0.57116514 -0.67263746 0.00000048
-0.21009813 -0.78029156 0.00000007
-0.12565587 -0.42094800 0.00000142
-0.10453466 -0.24497677 0.00000208
-0.60184401 -0.53880274 0.14293413
-0.32450509 0.07551186 0.07378883
-0.03255522 -0.36049590 0.00000165
-0.39249834 -0.66477638 0.00000051
-0.25984138 0.53625661 0.00000344
-0.17363037 -0.14114182 0.00000247
-0.51362032 -0.37948233 0.07575227
-0.46211040 -0.25440949 0.07665026
-0.35561505 -0.03516663 0.02925999
-0.55258334 -0.37286738 0.20177995
-0.20740326 -0.42180040 0.00000142
-0.21415830 0.31643665 0.04190027
-0.22298598 0.28790987 0.03286880
-0.19729573 0.40705696 0.10437689
-0.13884564 -0.58255154 0.00000082
-0.03399018 0.73854071 0.02580448
-0.42216453 -0.07814574 0.17657438
-0.39897037 -0.09760205 0.08212615
-0.11655422 0.05869595 0.00000980
-0.63826758 -0.71907234 0.02735108
-0.48769751 -0.13591924 0.30229777
-0.00667425 -0.12533101 0.00000252
-0.05347205 -0.32030976 0.00000180
-0.53160137 -0.71528089 0.00000032
-0.39246809 -0.31784701 0.00000181
-0.51233011 -0.62237036 0.00000067
-0.14605716 0.49160153 0.05536288
-0.29298487 0.27108532 0.22334693
-0.12718979 0.52962112 0.04593696
-0.30932906 0.21416220 0.20148487
-0.11413620 0.37779310 0.00000744
-0.04243498 -0.04113494 0.00000285
-0.53822786 -0.48555467 0.01733859
-0.51999259 -0.52881455 0.00000102
-0.16627701 0.12869319 0.00000853
-0.15084888 -0.61550593 0.00000069
-0.40724748 -0.14117561 0.05259571
-0.42021793 -0.45580757 0.00000129
-0.34817994 -0.50172007 0.00000112
-0.02572978 -0.69847727 0.00000038
-0.21940015 0.33553991 0.08165418
-0.22835355 0.30036494 0.06468059
-0.17575447 0.29612064 0.00000713
-0.44527373 -0.02923598 0.30763480
-0.04222176 -0.70832431 0.00000028
-0.08567574 -0.79591519 0.00000002
-0.04191491 -0.67247480 0.00000041
-0.02826010 -0.01456373 0.00000290
-0.13671564 -0.69838744 0.00000038
