ply
format ascii 1.0
element vertex 1248
property float x
property float y
property float z
end_header
-0.22962655 0.08493585 0.00000000
-0.17118110 0.19556764 0.00000000
-0.24553265 -0.32793796 0.00000000
-0.63380694 -0.27879208 -0.00000080
-0.29046723 -0.77099401 0.00000000
-0.76856023 -0.45729053 -0.00000086
-0.28343561 0.22241347 -0.00000019
0.41085407 -0.71978462 0.57598817
-0.16876438 0.32472497 0.00000000
-0.67404377 -0.29428145 -0.00000094
-0.62481815 -0.39544532 -0.00000055
-0.17361072 0.04818815 0.00000000
-0.04280662 -0.76583230 0.00000000
-0.00881285 0.11576931 0.00000000
-0.05323960 -0.62607008 0.00000000
-0.06977642 0.17212936 0.00000000
-0.36532831 0.25697884 -0.00000060
-0.43066338 0.19378757 -0.00000077
-0.48625669 0.23959339 -0.00000108
-0.79740083 -0.72021258 -0.00000020
-0.26765293 -0.65794337 0.00000000
-0.10885775 -0.51764768 0.00000000
-0.76372349 -0.71778029 -0.00000021
-0.26574016 0.43385857 -0.00000049
-0.35905331 0.14293547 -0.00000037
-0.09500209 0.37812203 0.00000000
-0.38291645 -0.78262562 0.00000000
-0.52889258 -0.61502200 0.00000000
-0.27103367 -0.42745006 0.00000000
-0.19359353 -0.47876045 0.00000000
-0.68763942 -0.38500625 -0.00000084
-0.35276681 -0.10645809 0.00000000
0.34945947 -0.71763366 0.48991737
0.41028765 -0.72996312 0.57519406
-0.53511798 -0.64668864 0.00000000
-0.77703398 -0.21817771 -0.00000145
-0.72277933 -0.46018556 -0.00000085
-0.76217270 -0.25390384 -0.00000137
-0.54868299 -0.52057892 -0.00000001
-0.68540579 -0.70084494 -0.00000025
-0.04800472 0.63812029 0.00000000
-0.18316920 -0.22287609 0.00000000
-0.60916311 -0.73701483 0.00000000
-0.74971098 -0.49114650 -0.00000077
-0.13222998 -0.04719115 0.00000000
-0.00009960 -0.40840980 0.00000000
-0.15465263 0.29621217 0.00000000
-0.44174248 0.05706916 -0.00000057
-0.56034815 -0.57755065 0.00000000
0.34451288 -0.67060918 0.48298261
-0.16578136 -0.01301494 0.00000000
-0.20163520 0.27945977 0.00000000
-0.73221064 -0.06966600 -0.00000159
-0.14559948 0.23962072 0.00000000
-0.71318471 0.06911419 -0.00000175
-0.25683463 -0.37398258 0.00000000
-0.43836951 0.15470040 -0.00000073
-0.08346905 0.60434461 -0.00000001
-0.37839252 0.37922138 -0.00000087
-0.13066360 0.14375392 0.00000000
-0.38763610 0.24920192 -0.00000068
-0.10326027 -0.45309776 0.00000000
-0.22296844 0.05018036 0.00000000
-0.38004023 0.03019421 -0.00000026
-0.65706778 0.04795452 -0.00000147
-0.40554792 -0.58315766 0.00000000
-0.04803467 -0.38452551 0.00000000
-0.34243605 -0.53407925 0.00000000
-0.05691108 0.23375975 0.00000000
-0.46674126 -0.77845627 0.00000000
-0.05524828 -0.56549972 0.00000000
-0.73338443 -0.35974318 -0.00000108
0.13445449 -0.78688586 0.18849565
-0.42398271 -0.78850251 0.00000000
-0.29299274 0.00002260 0.00000000
-0.07648361 -0.68613678 0.00000000
-0.22295527 0.07430130 0.00000000
-0.41568589 0.10204457 -0.00000054
-0.27608329 -0.66672808 0.00000000
-0.59686106 -0.05734779 -0.00000103
0.17885354 -0.75140274 0.25073996
-0.02641918 -0.43003225 0.00000000
-0.10369954 0.58656746 -0.00000007
-0.18871436 0.25937143 0.00000000
-0.42558005 -0.05323901 -0.00000031
-0.74224174 -0.04452937 -0.00000167
-0.51223612 0.28335425 -0.00000127
-0.77362621 -0.19114611 -0.00000152
-0.70713061 -0.70958835 -0.00000023
-0.43332592 0.01459408 -0.00000046
-0.10716787 -0.06506248 0.00000000
-0.20928787 -0.60222310 0.00000000
0.42658949 -0.68897712 0.59804809
-0.69763541 0.06605989 -0.00000168
-0.29542235 -0.75444084 0.00000000
-0.68305546 -0.00357504 -0.00000149
-0.00572665 0.74251753 0.00000000
-0.33487013 -0.22535340 0.00000000
-0.60315728 -0.26309597 -0.00000069
-0.78922290 -0.49380678 -0.00000077
-0.16546194 -0.56543875 0.00000000
-0.12422766 0.47995043 0.00000000
-0.15685657 -0.01123446 0.00000000
-0.08567662 -0.75102866 0.00000000
-0.74303192 -0.30510992 -0.00000122
0.15965140 -0.76005763 0.22381993
-0.64964610 -0.22629455 -0.00000096
-0.07959521 0.25189385 0.00000000
0.38158512 -0.79217398 0.53495526
-0.68220294 -0.47534811 -0.00000066
0.18783654 -0.75002182 0.26333350
-0.04318775 -0.50624985 0.00000000
-0.43333080 -0.47721851 0.00000000
0.34284040 -0.72759908 0.48063791
-0.01117837 -0.33484051 0.00000000
-0.33441180 -0.33015540 0.00000000
-0.07110259 0.52195936 0.00000000
-0.19107793 -0.18313767 0.00000000
0.28871495 -0.67552340 0.40475786
-0.37124440 0.41759300 -0.00000091
-0.73787999 -0.36325496 -0.00000109
-0.44267002 -0.78098881 0.00000000
-0.13768171 0.40867758 0.00000000
-0.22065297 0.25596806 0.00000000
-0.03752080 0.16220909 0.00000000
-0.22674809 -0.42913321 0.00000000
-0.30386478 -0.57866806 0.00000000
-0.61037868 -0.16261864 -0.00000090
0.28213876 -0.74058098 0.39553851
-0.14162861 0.47483134 -0.00000003
-0.61586601 -0.34186056 -0.00000061
-0.17430289 0.52565533 -0.00000026
-0.20578761 -0.32070294 0.00000000
-0.06722847 0.41848344 0.00000000
-0.16458976 0.01813617 0.00000000
-0.57642144 0.13924991 -0.00000129
-0.28858125 0.26788926 -0.00000029
-0.79158729 -0.08108252 -0.00000180
-0.21056581 -0.62666124 0.00000000
-0.42996269 -0.02231502 -0.00000038
-0.06577044 -0.40168193 0.00000000
-0.51710331 -0.39099318 -0.00000010
-0.71916473 -0.41760120 -0.00000092
-0.08800687 0.15171640 0.00000000
-0.74901265 -0.40362114 -0.00000099
-0.06742278 0.09096272 0.00000000
-0.38799763 0.33571416 -0.00000084
-0.42585012 -0.18222675 -0.00000008
-0.29954934 0.29612613 -0.00000039
-0.03098126 -0.41900000 0.00000000
-0.03062491 0.61445856 0.00000000
-0.32979867 -0.36433753 0.00000000
-0.02154647 0.58860981 0.00000000
-0.70139170 0.07363865 -0.00000171
-0.44155121 -0.23491038 -0.00000005
-0.59460819 -0.15688303 -0.00000085
-0.27365720 -0.21534668 0.00000000
-0.73492336 -0.64710730 -0.00000038
-0.72351658 -0.73545593 -0.00000016
-0.10297624 -0.04313484 0.00000000
-0.13661154 0.11879619 0.00000000
-0.69832075 -0.03853552 -0.00000150
0.20359699 -0.71419317 0.28542852
-0.31439745 -0.02794042 0.00000000
-0.27267897 -0.60593253 0.00000000
-0.52336407 0.01926405 -0.00000085
-0.60083741 0.16213402 -0.00000144
-0.64179277 0.10657910 -0.00000151
-0.79530686 -0.12664539 -0.00000168
-0.03051246 -0.05900951 0.00000000
-0.21263275 -0.54776877 0.00000000
-0.06408890 0.46446523 0.00000000
-0.15066241 -0.66488409 0.00000000
-0.46562758 -0.21401154 -0.00000019
-0.08060527 -0.38080829 0.00000000
-0.61487389 0.05237420 -0.00000130
-0.18584646 -0.73163366 0.00000000
-0.29709756 -0.55638617 0.00000000
-0.10209132 0.49435800 0.00000000
-0.26080120 -0.08827933 0.00000000
-0.04649170 0.18568587 0.00000000
-0.26136374 0.02191351 0.00000000
-0.26790157 -0.19203091 0.00000000
-0.19465338 0.13959678 0.00000000
-0.31124017 -0.23184380 0.00000000
-0.43292111 -0.11252893 -0.00000023
-0.76280987 -0.66416043 -0.00000034
-0.45617750 -0.58945388 0.00000000
-0.08147883 0.24431293 0.00000000
-0.01370613 0.41382858 0.00000000
-0.07832892 -0.57901192 0.00000000
-0.41126353 0.18186408 -0.00000066
-0.24365894 -0.68864268 0.00000000
0.41115147 -0.73707372 0.57640511
-0.59214455 -0.07385019 -0.00000098
-0.76307112 -0.78496701 -0.00000004
-0.52109832 -0.74016732 0.00000000
-0.71280044 -0.20436314 -0.00000127
-0.77220947 -0.00739437 -0.00000187
-0.21475378 -0.36621061 0.00000000
-0.64846414 0.03986694 -0.00000142
0.09272134 -0.76717138 0.12998873
-0.27138492 -0.15269145 0.00000000
-0.79755008 -0.72730899 -0.00000018
-0.34007081 -0.66002977 0.00000000
-0.27927113 -0.33108699 0.00000000
-0.03100638 -0.77922100 0.00000000
-0.11584548 -0.20713364 0.00000000
-0.32915387 -0.73639357 0.00000000
-0.73068494 -0.05379758 -0.00000161
-0.25452140 0.26651639 -0.00000014
-0.40336546 0.34239751 -0.00000091
-0.07010058 0.20913075 0.00000000
-0.79393631 -0.12259917 -0.00000169
-0.58616054 -0.09969748 -0.00000091
-0.15311001 -0.22099768 0.00000000
-0.10971587 0.63730741 -0.00000018
-0.62908691 -0.13264945 -0.00000104
-0.37162903 -0.27904448 0.00000000
-0.77411830 -0.54332495 -0.00000064
-0.72937858 -0.50288475 -0.00000074
-0.17710285 0.26161373 0.00000000
-0.10037821 0.38109881 0.00000000
-0.09279618 -0.44719887 0.00000000
-0.46061051 0.29812321 -0.00000108
-0.62719953 -0.08646439 -0.00000111
-0.64838958 -0.46136373 -0.00000054
0.45252746 -0.70372140 0.63441145
-0.45539173 -0.19739632 -0.00000018
-0.31544864 0.47065857 -0.00000076
0.45458907 -0.73774129 0.63730180
-0.78486544 -0.12483232 -0.00000169
-0.21968979 -0.70628387 0.00000000
-0.22159812 -0.08606801 0.00000000
-0.46750060 0.03308486 -0.00000064
-0.49816620 -0.41274226 0.00000000
-0.32364467 0.22041342 -0.00000036
-0.15052505 -0.52533376 0.00000000
-0.15009405 0.41024125 0.00000000
-0.37679061 0.15676257 -0.00000047
-0.51956278 0.18039121 -0.00000112
-0.54462492 -0.34957334 -0.00000029
-0.51984358 -0.21485499 -0.00000042
-0.66064912 -0.49300659 -0.00000053
-0.64544755 0.12757882 -0.00000157
-0.06181984 0.13755570 0.00000000
-0.17023817 -0.52965027 0.00000000
-0.02104654 -0.68256265 0.00000000
-0.65317142 -0.53468937 -0.00000043
-0.69413972 -0.67955482 -0.00000030
-0.61054689 -0.47974783 -0.00000034
-0.79426432 -0.04229406 -0.00000189
0.24995346 -0.71747839 0.35041702
0.28663903 -0.71216917 0.40184757
-0.13644832 -0.62760663 0.00000000
-0.03628203 -0.43112448 0.00000000
-0.14391589 -0.72561371 0.00000000
-0.26664081 0.33982837 -0.00000032
-0.11840115 -0.52457601 0.00000000
-0.59429181 0.07548636 -0.00000126
-0.00099618 0.60784525 0.00000000
-0.26055855 0.21064018 -0.00000007
-0.63181549 -0.39655393 -0.00000058
-0.60788947 -0.78076911 0.00000000
-0.71924371 -0.53213364 -0.00000067
-0.57766747 -0.75447369 0.00000000
-0.75946784 -0.44890586 -0.00000088
0.24786548 -0.70705605 0.34748983
-0.46167076 0.01829271 -0.00000059
-0.40380847 -0.25887600 0.00000000
-0.16424882 0.05059501 0.00000000
-0.39884061 0.15683328 -0.00000057
-0.40394521 -0.18852751 0.00000000
-0.43556553 -0.14388521 -0.00000019
-0.13559164 -0.08743355 0.00000000
-0.38345313 -0.70652354 0.00000000
-0.45947164 -0.31831729 0.00000000
-0.25099444 -0.49830365 0.00000000
-0.41432521 0.34298784 -0.00000096
-0.78116637 -0.50136125 -0.00000075
-0.45154405 -0.50524211 0.00000000
-0.04151841 -0.59347820 0.00000000
-0.78459555 -0.48431894 -0.00000079
-0.00566051 0.29616672 0.00000000
-0.57473624 -0.15644383 -0.00000076
-0.44466472 -0.60399336 0.00000000
-0.54300803 -0.53958261 0.00000000
-0.19752306 0.56405532 -0.00000043
-0.03447105 -0.57063019 0.00000000
-0.26428840 0.15362115 0.00000000
-0.61201388 -0.47572938 -0.00000036
-0.01778841 -0.78183889 0.00000000
-0.35298371 -0.61919129 0.00000000
-0.49778327 -0.22481869 -0.00000031
-0.05016210 0.04181503 0.00000000
-0.14597636 -0.29458624 0.00000000
-0.03051097 0.58971560 0.00000000
-0.03208108 0.63373256 0.00000000
-0.65062892 -0.14005727 -0.00000111
-0.26658240 0.38441205 -0.00000040
-0.00586558 0.50913811 0.00000000
-0.45794237 -0.66076058 0.00000000
-0.59052360 -0.62440634 -0.00000000
-0.49646407 0.04068604 -0.00000078
-0.58073038 -0.08782338 -0.00000091
-0.15582734 -0.56655556 0.00000000
-0.76235920 -0.01669246 -0.00000181
-0.00674357 -0.21265335 0.00000000
-0.51481032 -0.02568026 -0.00000074
-0.61498487 -0.62830126 -0.00000010
-0.23494385 0.42245018 -0.00000034
-0.00746456 0.42452979 0.00000000
-0.07151818 0.21350840 0.00000000
-0.34173253 -0.58603919 0.00000000
0.27473146 -0.72512060 0.38515401
-0.19267765 -0.08258826 0.00000000
-0.08701158 -0.12582621 0.00000000
-0.43850029 -0.12903447 -0.00000023
0.11879660 -0.75980031 0.16654439
-0.69657069 -0.46857366 -0.00000073
-0.24528795 -0.58081919 0.00000000
-0.18984641 -0.53217953 0.00000000
-0.21208766 -0.24066108 0.00000000
-0.78679079 -0.47870338 -0.00000080
-0.35561264 -0.50852042 0.00000000
-0.32927290 -0.13803214 0.00000000
-0.20639569 -0.20464796 0.00000000
-0.04797320 0.08240537 0.00000000
-0.11292694 -0.55632430 0.00000000
-0.68200767 -0.77833956 -0.00000005
-0.05401705 -0.47288632 0.00000000
-0.12619200 0.27052730 0.00000000
-0.39443815 -0.33924541 0.00000000
-0.71969306 -0.11769427 -0.00000145
-0.64240557 0.10719824 -0.00000152
-0.05052310 0.41127208 0.00000000
-0.21880554 0.17424190 0.00000000
-0.00479796 0.54453856 0.00000000
-0.59113467 0.13299061 -0.00000134
0.21396314 -0.72017860 0.29996115
-0.10666743 -0.16820996 0.00000000
-0.30099866 0.12178171 -0.00000009
-0.20407692 0.39191589 -0.00000015
-0.07663892 0.31744948 0.00000000
-0.69999152 -0.59123820 -0.00000052
-0.39895865 0.19588014 -0.00000063
-0.50785279 -0.50316036 0.00000000
-0.02993210 -0.39932039 0.00000000
-0.19566137 -0.44995800 0.00000000
-0.03110111 -0.46802607 0.00000000
0.31640601 -0.67809963 0.44357878
-0.42578530 -0.72628623 0.00000000
-0.22120944 0.07367618 0.00000000
-0.28513488 0.28136840 -0.00000030
-0.22931463 -0.26694548 0.00000000
-0.00564453 0.74463934 0.00000000
0.35100907 -0.66780692 0.49208981
0.16600765 -0.79187447 0.23273095
-0.66922456 -0.78846908 -0.00000003
-0.14984974 0.45907441 -0.00000004
-0.60484880 -0.65235257 -0.00000001
0.29157349 -0.75295413 0.40876535
0.40720981 -0.71285021 0.57087910
-0.51199377 -0.26128826 -0.00000031
-0.03715832 -0.37028387 0.00000000
-0.27440044 -0.55965912 0.00000000
-0.56491786 -0.68018937 0.00000000
-0.31065372 -0.64069092 0.00000000
-0.38466787 -0.75086266 0.00000000
-0.34812814 -0.48633274 0.00000000
-0.10000059 0.07375253 0.00000000
-0.07354095 0.14589363 0.00000000
-0.04967810 0.63133138 0.00000000
-0.11968300 -0.66937000 0.00000000
-0.75873744 -0.63738334 -0.00000041
-0.39475766 -0.05776780 -0.00000017
-0.45973623 -0.47552562 0.00000000
-0.35284770 0.32477742 -0.00000067
-0.33902970 -0.01128240 -0.00000001
-0.28645286 0.24907151 -0.00000025
-0.51230192 -0.36602417 -0.00000013
-0.58084619 -0.48870125 -0.00000020
0.45477787 -0.70268172 0.63756639
-0.00969730 0.02687298 0.00000000
-0.15270270 0.11998936 0.00000000
-0.11403681 -0.43959337 0.00000000
-0.68955886 -0.27553096 -0.00000104
-0.61933511 -0.49902308 -0.00000035
-0.79622746 -0.62051487 -0.00000045
-0.14785370 -0.07308548 0.00000000
-0.29279956 -0.77114129 0.00000000
-0.22041278 -0.61272681 0.00000000
-0.26891926 -0.74376655 0.00000000
-0.68470138 -0.17613420 -0.00000120
-0.26430669 -0.59181261 0.00000000
-0.34915978 -0.08288108 0.00000000
-0.01187006 0.14275818 0.00000000
-0.77294868 -0.13545145 -0.00000165
-0.67052418 -0.03725621 -0.00000138
-0.42807108 -0.70154893 0.00000000
-0.20387332 -0.24094674 0.00000000
-0.22417498 -0.47436365 0.00000000
0.22443493 -0.71816766 0.31464183
-0.25887945 0.05940009 0.00000000
-0.54098713 -0.02970419 -0.00000084
-0.75177974 -0.07400708 -0.00000166
-0.19496416 -0.00836408 0.00000000
-0.08610958 -0.27924979 0.00000000
-0.05330499 -0.63130325 0.00000000
-0.15715885 -0.26075557 0.00000000
-0.42680573 0.22967999 -0.00000081
-0.00498911 -0.59456003 0.00000000
-0.47738367 -0.77075309 0.00000000
-0.46163037 0.09242228 -0.00000072
0.43692803 -0.77043611 0.61254227
-0.19317117 -0.02305994 0.00000000
-0.28164089 -0.79297292 0.00000000
-0.10919590 0.42440987 0.00000000
-0.46035975 -0.58705842 0.00000000
0.23352416 -0.79206222 0.32738429
-0.51447171 -0.40465266 -0.00000007
-0.73766655 -0.20275724 -0.00000138
-0.26897860 0.06418625 0.00000000
-0.48621330 -0.32911843 -0.00000008
-0.42245597 0.10215184 -0.00000057
-0.11026043 0.64842319 -0.00000020
-0.52282524 -0.70863867 0.00000000
-0.41878298 -0.11454367 -0.00000017
-0.38766572 0.38646939 -0.00000092
-0.58946908 -0.58293939 -0.00000007
-0.30858210 -0.34709027 0.00000000
-0.29378936 -0.05419655 0.00000000
-0.47844699 -0.49579450 0.00000000
-0.49754432 0.26952508 -0.00000119
-0.55199546 0.18958192 -0.00000128
-0.40175995 -0.72366649 0.00000000
-0.00578109 -0.56248927 0.00000000
0.19338129 -0.73711967 0.27110687
-0.18311702 -0.46499479 0.00000000
-0.68014050 -0.06760217 -0.00000137
-0.60248268 -0.47096139 -0.00000032
-0.40592682 -0.73270100 0.00000000
-0.73630524 0.06301759 -0.00000184
-0.25543275 0.05591137 0.00000000
-0.68102044 -0.52848858 -0.00000056
-0.70888579 -0.25458863 -0.00000116
-0.57094741 -0.54636961 -0.00000006
-0.31539890 0.16191509 -0.00000022
-0.08903489 0.51961356 0.00000000
-0.04070168 0.74104643 -0.00000007
-0.69696403 -0.62757254 -0.00000043
-0.61085880 -0.63562888 -0.00000007
-0.56509346 -0.43003038 -0.00000024
-0.62500036 0.10686567 -0.00000144
-0.47919855 -0.43682045 0.00000000
-0.23094609 0.23678175 0.00000000
-0.56631446 0.01500612 -0.00000103
-0.00827285 0.34166864 0.00000000
-0.70744944 -0.47126150 -0.00000077
-0.08068020 -0.20192669 0.00000000
-0.06977071 0.24051766 0.00000000
-0.66280526 -0.44925794 -0.00000062
-0.72116125 -0.27997032 -0.00000117
-0.51410890 0.07628346 -0.00000091
-0.36508921 -0.26282394 0.00000000
-0.74259394 -0.28179097 -0.00000126
-0.79513198 -0.25526729 -0.00000136
-0.24545196 0.16835687 0.00000000
-0.69016063 0.04826999 -0.00000162
-0.76336890 0.03424554 -0.00000187
-0.70256323 -0.00830148 -0.00000157
-0.07514911 0.18934779 0.00000000
-0.00569364 0.63604087 0.00000000
-0.57094020 -0.04415487 -0.00000094
-0.04313681 0.35346138 0.00000000
-0.27932879 0.19356415 -0.00000012
-0.39817619 -0.25833669 0.00000000
-0.49018458 -0.06660276 -0.00000056
-0.08395052 0.62238801 -0.00000004
-0.40793797 0.21615449 -0.00000071
-0.26794580 0.22444944 -0.00000013
-0.19978218 -0.14816587 0.00000000
-0.43216693 -0.39549473 0.00000000
-0.51731044 -0.38796893 -0.00000011
-0.23846617 0.13906270 0.00000000
0.33402500 -0.79017580 0.46827933
-0.50168252 -0.25638402 -0.00000027
-0.69010609 -0.67470986 -0.00000031
-0.26765394 0.14425541 0.00000000
-0.29097736 -0.09897302 0.00000000
-0.34502691 -0.45374689 0.00000000
-0.39756805 -0.23337121 0.00000000
-0.06966040 0.29301077 0.00000000
-0.10918283 0.27526432 0.00000000
-0.55972004 -0.42970273 -0.00000021
-0.53791505 0.25664559 -0.00000134
-0.52762347 0.26227456 -0.00000130
-0.63499480 -0.62667024 -0.00000019
0.33560872 -0.76914150 0.47049963
-0.49860483 -0.32251143 -0.00000014
-0.64949876 -0.09114568 -0.00000120
-0.04090163 0.13420813 0.00000000
-0.44538581 0.19254002 -0.00000083
-0.57285279 -0.01050984 -0.00000101
-0.53615314 0.02653100 -0.00000092
-0.53048742 -0.74437261 0.00000000
0.42403176 -0.73332787 0.59446245
-0.62832421 0.06630671 -0.00000138
-0.34370396 -0.50648040 0.00000000
-0.41388783 -0.47506353 0.00000000
-0.29775533 0.49942371 -0.00000070
-0.25239390 -0.72296834 0.00000000
-0.06761440 0.53058416 0.00000000
0.30769658 -0.66203266 0.43136877
-0.23708023 0.26986966 -0.00000007
-0.12699080 0.22819018 0.00000000
-0.07030469 0.05190267 0.00000000
-0.36204329 -0.16074415 0.00000000
-0.42617646 -0.09953905 -0.00000023
0.18156871 -0.76834047 0.25454643
-0.49521816 -0.78768307 0.00000000
-0.50240088 0.14693429 -0.00000099
-0.51807088 0.07132353 -0.00000092
-0.17881130 0.20913978 0.00000000
-0.22873907 0.56543279 -0.00000056
0.16833831 -0.75904119 0.23599838
-0.45765090 0.21588749 -0.00000092
-0.08268357 0.35371640 0.00000000
-0.74548864 -0.64031088 -0.00000040
-0.05896871 -0.14861125 0.00000000
-0.65257674 -0.44745570 -0.00000058
-0.50277573 -0.24048588 -0.00000031
-0.27057934 0.28486359 -0.00000024
-0.27975437 -0.50073403 0.00000000
-0.73759300 -0.58339232 -0.00000054
-0.25900844 -0.16627695 0.00000000
-0.15928856 -0.27181828 0.00000000
-0.61408353 -0.43956861 -0.00000043
-0.21879476 0.12835678 0.00000000
-0.63260335 0.00210288 -0.00000129
-0.66379833 -0.62027580 -0.00000032
-0.58247775 -0.18059000 -0.00000075
-0.72781253 -0.63941091 -0.00000040
-0.16875914 -0.26359648 0.00000000
-0.45969051 -0.79741883 0.00000000
-0.20085846 0.47476363 -0.00000028
-0.08953760 -0.22237028 0.00000000
-0.01443686 -0.71202755 0.00000000
-0.03992311 -0.70601285 0.00000000
-0.07437059 0.24944314 0.00000000
-0.05463004 -0.21856128 0.00000000
-0.23976532 -0.76772934 0.00000000
-0.03221657 0.72327536 -0.00000000
-0.59279251 -0.33339998 -0.00000053
-0.19854511 0.29317814 0.00000000
-0.51423502 -0.72557908 0.00000000
0.18543714 -0.79619062 0.25996971
-0.36612749 0.00859650 -0.00000016
-0.26119369 0.39471000 -0.00000040
-0.26442790 -0.10531705 0.00000000
-0.25216532 -0.40170255 0.00000000
-0.06256047 0.36027518 0.00000000
-0.21028122 -0.42472246 0.00000000
-0.07165727 -0.11965845 0.00000000
-0.65684062 0.03474616 -0.00000145
-0.33186716 0.09328540 -0.00000017
-0.39615488 -0.55661535 0.00000000
-0.17134550 0.41423985 -0.00000005
-0.09476657 0.15556099 0.00000000
0.28399578 -0.76670766 0.39814195
-0.41800776 -0.41500691 0.00000000
-0.01368178 -0.69039619 0.00000000
-0.55251187 -0.06470348 -0.00000083
-0.04967351 -0.76840729 0.00000000
-0.14307699 -0.49280879 0.00000000
-0.13418777 0.01975021 0.00000000
-0.53636372 -0.07558082 -0.00000074
-0.48252228 -0.38504273 0.00000000
-0.06261866 -0.00309844 0.00000000
-0.34417793 -0.14094637 0.00000000
-0.46599773 -0.29611960 -0.00000005
-0.33172780 -0.05234208 0.00000000
-0.47302175 -0.60946620 0.00000000
-0.41431978 -0.58224845 0.00000000
-0.19085377 -0.60648173 0.00000000
-0.06807834 -0.31379437 0.00000000
-0.17190568 -0.60793626 0.00000000
-0.52254617 -0.03804684 -0.00000075
-0.17620508 -0.76927137 0.00000000
-0.47541502 0.01693298 -0.00000064
-0.22470561 -0.48545662 0.00000000
-0.19573051 -0.33935767 0.00000000
-0.13983229 -0.40909961 0.00000000
-0.26442206 0.41395807 -0.00000045
-0.18732089 -0.19131963 0.00000000
-0.24605693 0.05776035 0.00000000
-0.32893038 -0.72698671 0.00000000
-0.32333618 -0.23119816 0.00000000
-0.73643970 -0.56132948 -0.00000060
-0.20506237 -0.75127935 0.00000000
-0.62937486 -0.09351840 -0.00000111
-0.28649858 -0.06138153 0.00000000
-0.44384140 -0.37951660 0.00000000
-0.20506562 0.24883381 0.00000000
-0.14919606 0.39988124 0.00000000
-0.19531199 -0.36573854 0.00000000
-0.33706486 -0.08963110 0.00000000
-0.42839095 -0.43274942 0.00000000
-0.57653022 -0.55761278 -0.00000006
-0.69648069 -0.41986200 -0.00000082
-0.19147660 0.44927141 -0.00000020
-0.18755622 0.30904216 0.00000000
-0.76224989 -0.72225142 -0.00000019
-0.59094977 0.15721242 -0.00000139
-0.65645987 -0.43306565 -0.00000062
-0.72216409 -0.79489970 -0.00000001
-0.76703078 -0.78858441 -0.00000003
-0.19247988 -0.54502892 0.00000000
-0.32057539 -0.16240785 0.00000000
-0.76594073 -0.38810378 -0.00000103
-0.11855896 -0.01364040 0.00000000
-0.21662916 -0.50563741 0.00000000
-0.19532236 -0.61127895 0.00000000
-0.27109644 -0.79171419 0.00000000
-0.21440645 0.55050033 -0.00000047
-0.21476229 0.24851418 0.00000000
-0.39877772 -0.06420599 -0.00000017
-0.05253473 -0.22494423 0.00000000
-0.77610594 -0.09778638 -0.00000173
-0.32477954 0.27764755 -0.00000046
-0.74565965 -0.45805407 -0.00000085
-0.41096902 -0.00139562 -0.00000034
-0.30854824 0.27859479 -0.00000040
-0.59203410 -0.78605515 0.00000000
-0.06308524 -0.66437477 0.00000000
0.36943409 -0.67980891 0.51792026
-0.25200114 0.12265145 0.00000000
-0.65372223 -0.42180952 -0.00000063
-0.31078187 -0.62976968 0.00000000
-0.07586897 -0.69191533 0.00000000
-0.35819122 0.11619731 -0.00000032
-0.08006464 0.53475809 0.00000000
-0.46065241 -0.42507228 0.00000000
-0.41117260 -0.62323135 0.00000000
0.32633758 -0.72365123 0.45750210
-0.24319345 0.21975832 -0.00000001
0.31804192 -0.76500839 0.44587222
-0.25624749 0.20515831 -0.00000004
-0.18328778 -0.36806971 0.00000000
-0.19729002 -0.21632105 0.00000000
-0.17188822 -0.75593424 0.00000000
-0.61016327 0.13914821 -0.00000144
-0.14424910 -0.09597050 0.00000000
-0.32563782 0.42920476 -0.00000073
0.20950133 -0.79541731 0.29370600
-0.04364632 0.02701626 0.00000000
0.25856176 -0.69681144 0.36248526
-0.18383968 -0.26640406 0.00000000
0.18775088 -0.78783011 0.26321340
-0.37810564 0.00763195 -0.00000021
-0.07746237 0.12226168 0.00000000
-0.46519426 -0.07321456 -0.00000044
-0.39530343 -0.43779242 0.00000000
-0.69404823 -0.35814974 -0.00000091
-0.77501512 -0.48386458 -0.00000079
-0.22341870 -0.54377508 0.00000000
-0.48844805 -0.22759061 -0.00000027
-0.65771466 -0.10897136 -0.00000120
-0.35536230 -0.07016065 0.00000000
-0.45250186 0.03615194 -0.00000058
-0.51122236 0.25626481 -0.00000122
0.16691849 -0.78768331 0.23400787
-0.74823028 0.04211943 -0.00000185
-0.26273698 0.51074541 -0.00000061
-0.29691136 0.18525968 -0.00000018
-0.51991493 -0.26338562 -0.00000034
-0.19620331 0.19933315 0.00000000
0.28600493 -0.75949395 0.40095863
0.45791849 -0.77128321 0.64196956
-0.51281601 0.27609387 -0.00000126
-0.04811723 0.23328784 0.00000000
0.08979618 -0.78927404 0.12588789
-0.58511055 -0.38266253 -0.00000041
0.16307023 -0.73815042 0.22861288
-0.31612840 -0.39277869 0.00000000
-0.67753792 -0.60660017 -0.00000041
-0.38975152 -0.33730274 0.00000000
-0.58735979 -0.05395288 -0.00000100
-0.26590854 -0.23666929 0.00000000
-0.62932688 -0.43064275 -0.00000051
-0.75804347 -0.66127872 -0.00000035
-0.54194468 -0.20215878 -0.00000054
-0.15453298 -0.47259980 0.00000000
-0.04026887 0.63089234 0.00000000
-0.69338924 -0.19416264 -0.00000120
-0.78616500 -0.20906793 -0.00000148
-0.37952009 -0.45156020 0.00000000
-0.26595980 0.24944170 -0.00000016
-0.09027003 -0.06211194 0.00000000
-0.59410602 -0.79899418 0.00000000
-0.26479703 -0.32617211 0.00000000
-0.27678651 0.24629110 -0.00000020
0.08030864 -0.78203231 0.11258702
-0.24135846 0.06438417 0.00000000
-0.43253115 -0.50022602 0.00000000
-0.56033707 -0.73324597 0.00000000
-0.29569891 0.30751345 -0.00000039
-0.04226341 -0.41436091 0.00000000
-0.24048929 -0.33699504 0.00000000
0.15613016 -0.79193217 0.21888341
0.24288602 -0.73931658 0.34050897
-0.18882477 -0.59340775 0.00000000
-0.05954490 -0.66680288 0.00000000
-0.78695023 -0.07019989 -0.00000182
-0.27879462 -0.69810867 0.00000000
-0.60788059 -0.40329507 -0.00000047
-0.14273848 -0.15175922 0.00000000
-0.54365236 -0.05334869 -0.00000081
-0.06982441 -0.52100170 0.00000000
-0.63596720 0.12677316 -0.00000152
-0.62168813 -0.38065448 -0.00000057
-0.06872952 0.22021466 0.00000000
-0.49619612 0.28973469 -0.00000122
0.36506581 -0.72234881 0.51179636
-0.04328328 -0.27309510 0.00000000
-0.34711099 -0.48786187 0.00000000
-0.20904310 -0.32688847 0.00000000
-0.43334627 -0.42436248 0.00000000
0.33083582 -0.69634080 0.46380836
-0.39762440 -0.02297892 -0.00000024
-0.41325396 -0.61366397 0.00000000
-0.34379965 -0.59511542 0.00000000
-0.51813382 -0.04528722 -0.00000072
-0.21664575 -0.64503253 0.00000000
0.30261165 -0.66741860 0.42424005
-0.63128400 -0.56762886 -0.00000028
-0.39824212 0.39868054 -0.00000094
-0.77843428 0.01974828 -0.00000194
-0.31452572 -0.08896405 0.00000000
-0.31509012 -0.69636381 0.00000000
-0.00594277 -0.44801411 0.00000000
0.40149587 -0.78276271 0.56286877
-0.46137229 -0.65731364 0.00000000
-0.38644099 0.02091780 -0.00000027
-0.36133316 -0.76256317 0.00000000
-0.30506554 0.32344696 -0.00000046
-0.21982571 -0.04779224 0.00000000
-0.22789297 0.55692905 -0.00000054
-0.61194795 -0.33125728 -0.00000061
-0.20560578 0.05344770 0.00000000
-0.17179708 -0.45401913 0.00000000
-0.26131597 0.11152608 0.00000000
-0.31742781 -0.72009820 0.00000000
-0.25089279 0.09094412 0.00000000
-0.68807364 -0.44253200 -0.00000074
-0.21948397 0.25862089 0.00000000
-0.47375348 -0.11703369 -0.00000040
-0.46188268 -0.65855867 0.00000000
-0.28347668 -0.07018160 0.00000000
-0.67706293 -0.79452944 -0.00000001
0.44498563 -0.74331844 0.62383842
-0.04746273 0.65953958 0.00000000
-0.74248767 -0.78106749 -0.00000005
0.37746614 -0.70321864 0.52918065
-0.50451684 -0.72287565 0.00000000
-0.56666583 -0.07013102 -0.00000088
-0.27381632 -0.43452221 0.00000000
-0.61282057 -0.64388305 -0.00000006
-0.20034625 -0.38902217 0.00000000
-0.52497184 0.02597146 -0.00000087
-0.17322934 0.36160082 0.00000000
-0.34716874 -0.68720216 0.00000000
-0.29891166 -0.44166610 0.00000000
-0.40000558 -0.04095060 -0.00000022
-0.37948349 0.07893634 -0.00000034
-0.09879969 0.62561405 -0.00000011
-0.73007500 -0.73221320 -0.00000017
-0.68412977 -0.32371995 -0.00000093
-0.41855735 0.35162187 -0.00000099
-0.44473150 -0.56224257 0.00000000
-0.14567177 0.38076192 0.00000000
-0.66121179 -0.49979848 -0.00000052
-0.06945917 0.24893405 0.00000000
-0.42753983 -0.35793015 0.00000000
-0.24901450 -0.02673963 0.00000000
-0.71133190 -0.36390543 -0.00000098
-0.34752879 0.36650795 -0.00000072
-0.25080752 0.22012199 -0.00000005
-0.45881125 -0.29759181 -0.00000002
-0.11797754 0.51910585 -0.00000001
-0.28797737 0.34280547 -0.00000042
-0.32695806 0.00423995 0.00000000
-0.52929413 -0.09592549 -0.00000068
-0.24502546 -0.44857326 0.00000000
-0.36285427 0.26372534 -0.00000060
-0.77158314 -0.11152286 -0.00000168
-0.18349336 0.02216737 0.00000000
0.36947110 -0.69934201 0.51797217
-0.30153936 -0.28496292 0.00000000
-0.30886143 0.29481858 -0.00000043
-0.34557855 0.30372211 -0.00000060
-0.48893976 0.09984708 -0.00000085
-0.55925643 -0.65533543 0.00000000
-0.31798926 0.24325165 -0.00000037
-0.10230013 -0.51874924 0.00000000
-0.43430257 -0.63753796 0.00000000
-0.15853681 -0.24071670 0.00000000
-0.03867386 -0.26588005 0.00000000
-0.65703267 -0.74702948 -0.00000007
-0.17836285 0.37296373 -0.00000001
-0.55360705 0.14990857 -0.00000121
-0.37762716 0.12201484 -0.00000041
-0.03762204 -0.73551571 0.00000000
-0.13399319 -0.47053030 0.00000000
-0.10127515 0.58559436 -0.00000005
0.45855075 -0.75786883 0.64285588
-0.45307747 -0.45185104 0.00000000
-0.45435515 -0.16089799 -0.00000024
0.42917433 -0.70700860 0.60167193
-0.20760880 0.51979405 -0.00000039
-0.03101602 0.64160627 0.00000000
-0.50464350 -0.16697556 -0.00000044
-0.70685339 -0.09410871 -0.00000144
-0.35106423 -0.19338141 0.00000000
-0.41015035 -0.65902930 0.00000000
-0.15704092 -0.26259384 0.00000000
-0.33666393 -0.02954396 0.00000000
-0.50407410 0.18801922 -0.00000107
-0.33400887 0.37638411 -0.00000068
-0.69701189 -0.60304451 -0.00000049
0.44687772 -0.64586294 0.62649071
-0.06640248 -0.61268443 0.00000000
-0.17575577 -0.54912305 0.00000000
-0.72567171 -0.44896469 -0.00000088
-0.12583426 -0.60007757 0.00000000
-0.16212443 -0.38185692 0.00000000
-0.13023379 -0.36778805 0.00000000
0.46067569 -0.75878358 0.64583492
-0.16791973 -0.43770570 0.00000000
-0.32996738 -0.19307905 0.00000000
0.41313404 -0.66319704 0.57918435
-0.01762664 0.45669550 0.00000000
-0.02943654 -0.42813227 0.00000000
-0.24564742 -0.70501697 0.00000000
-0.79257768 -0.25233385 -0.00000137
-0.17766808 0.19353986 0.00000000
-0.65419436 -0.26817164 -0.00000090
-0.03557450 -0.73153305 0.00000000
-0.09320871 -0.32608739 0.00000000
-0.71002644 -0.41885123 -0.00000088
-0.60917193 -0.00902020 -0.00000117
-0.20763852 -0.25091940 0.00000000
0.40164331 -0.72330350 0.56307530
-0.04510602 -0.26322189 0.00000000
-0.03347139 -0.78000897 0.00000000
-0.63295978 -0.30168557 -0.00000075
-0.17172816 0.12744187 0.00000000
-0.61666548 0.17989612 -0.00000148
-0.28052461 0.32644433 -0.00000036
-0.52796817 -0.26825199 -0.00000036
-0.01559968 -0.19739595 0.00000000
-0.07164288 -0.52482820 0.00000000
-0.16622332 0.63060558 -0.00000041
-0.73794711 -0.23736331 -0.00000132
0.25542098 -0.74544054 0.35808209
-0.41629356 0.23934133 -0.00000079
-0.02469711 -0.13044547 0.00000000
-0.20232254 0.22146712 0.00000000
0.30320072 -0.76082569 0.42506590
-0.74997938 -0.54245055 -0.00000064
0.44605377 -0.64908755 0.62533563
-0.26827154 0.01365904 0.00000000
-0.01151659 -0.57672632 0.00000000
-0.60729903 -0.57056409 -0.00000017
-0.19426034 -0.41096234 0.00000000
-0.32162011 0.08442469 -0.00000011
-0.39026067 -0.17024606 0.00000000
0.20626538 -0.71350825 0.28916940
-0.18574107 0.21467552 0.00000000
-0.28047055 0.29680344 -0.00000031
-0.06265014 -0.41580492 0.00000000
-0.18574813 -0.06778825 0.00000000
-0.40172142 -0.31735027 0.00000000
0.29236916 -0.70297784 0.40988082
-0.14092050 0.63584858 -0.00000031
-0.31311467 -0.74371558 0.00000000
-0.72744870 -0.79086357 -0.00000002
-0.06103181 -0.28167233 0.00000000
-0.10819247 -0.45994294 0.00000000
-0.34078637 -0.14113969 0.00000000
-0.46485600 -0.44442269 0.00000000
-0.32366106 0.03454520 -0.00000003
-0.61209220 -0.36450797 -0.00000055
-0.47367114 -0.30924070 -0.00000006
0.26344973 -0.70182449 0.36933783
-0.71078867 -0.34623393 -0.00000101
-0.35481739 0.27915746 -0.00000059
-0.66563207 0.12673958 -0.00000165
-0.46210515 0.16807969 -0.00000086
-0.01203433 0.20547996 0.00000000
-0.48457268 -0.06567200 -0.00000054
0.32125488 -0.79514050 0.45037654
0.27264199 -0.75556171 0.38222471
-0.76322174 -0.35692406 -0.00000111
-0.30173588 -0.36731434 0.00000000
-0.51354712 -0.72285408 0.00000000
-0.68695778 -0.51226234 -0.00000061
-0.03612340 -0.78479588 0.00000000
-0.24091937 0.07202138 0.00000000
-0.60634631 -0.42868397 -0.00000042
-0.45675641 0.23583996 -0.00000095
-0.00534084 0.13264161 0.00000000
-0.05740220 -0.78366876 0.00000000
-0.74810654 -0.54347199 -0.00000064
-0.69864076 -0.06339857 -0.00000146
-0.43232882 -0.57394165 0.00000000
-0.22421016 -0.60632145 0.00000000
-0.30685765 -0.41463447 0.00000000
-0.35182151 0.15765691 -0.00000037
-0.00516459 -0.10712595 0.00000000
-0.02853280 0.11326768 0.00000000
-0.65774208 -0.24953191 -0.00000095
-0.65692800 -0.02357099 -0.00000135
-0.19588079 -0.69084048 0.00000000
-0.40455756 -0.42216855 0.00000000
-0.11909590 -0.24967410 0.00000000
-0.54161501 -0.05572628 -0.00000080
-0.24820516 -0.66332656 0.00000000
-0.50556600 -0.00495850 -0.00000073
-0.79025364 -0.57174182 -0.00000057
-0.48211312 -0.17037590 -0.00000034
-0.01298570 -0.33081916 0.00000000
-0.11206500 0.53238571 -0.00000001
-0.36857045 0.07244945 -0.00000029
-0.79117006 -0.09742666 -0.00000176
-0.20385389 -0.08069747 0.00000000
-0.04573492 -0.36749712 0.00000000
-0.66471165 -0.62867081 -0.00000031
-0.34703597 -0.61167163 0.00000000
-0.10089540 0.30874211 0.00000000
-0.17473346 -0.53726918 0.00000000
0.36642084 -0.78841668 0.51369601
-0.37839520 -0.04693938 -0.00000012
-0.01221905 -0.19790038 0.00000000
-0.30842835 -0.61229992 0.00000000
0.37211716 -0.67691487 0.52168173
-0.29509652 0.24229722 -0.00000027
-0.02504564 -0.78506798 0.00000000
-0.31133637 0.45965448 -0.00000073
-0.60850751 -0.58069915 -0.00000016
-0.56142908 0.15652327 -0.00000126
-0.25875020 0.27043250 -0.00000017
-0.68208438 -0.78654432 -0.00000003
-0.03095917 0.27823377 0.00000000
-0.23330456 0.15252385 0.00000000
-0.30470121 0.21166658 -0.00000026
-0.74519718 -0.18619698 -0.00000144
-0.33013207 0.18391281 -0.00000032
-0.53225935 -0.56931692 0.00000000
-0.30869919 -0.23937237 0.00000000
-0.41330120 0.03745778 -0.00000042
-0.42237952 -0.43554899 0.00000000
-0.13369767 0.01867442 0.00000000
-0.71730566 -0.69050372 -0.00000027
-0.14394879 0.43452093 0.00000000
-0.22356480 0.28199601 -0.00000004
-0.17928900 0.57022852 -0.00000036
-0.07765557 0.62897086 -0.00000003
-0.06065474 0.44659173 0.00000000
-0.60732383 -0.48398682 -0.00000032
-0.04369651 0.69977832 -0.00000001
-0.20806794 -0.79490781 0.00000000
-0.20062687 0.10345169 0.00000000
-0.08118857 0.62791437 -0.00000004
-0.15514274 0.31649300 0.00000000
-0.47210586 -0.78796363 0.00000000
-0.62391722 -0.01228006 -0.00000123
-0.46442953 -0.28163183 -0.00000007
-0.21595627 -0.04419215 0.00000000
0.34524032 -0.76669329 0.48400241
-0.70179284 -0.39590982 -0.00000088
-0.26710740 0.03480994 0.00000000
-0.44722873 -0.38559395 0.00000000
-0.38214451 -0.77955699 0.00000000
-0.34378499 -0.38420358 0.00000000
-0.07679136 0.04621504 0.00000000
-0.18473428 0.41398546 -0.00000011
-0.73279339 -0.58929139 -0.00000053
-0.37836909 0.17117029 -0.00000050
-0.43585357 -0.16215695 -0.00000016
0.29152691 -0.67644393 0.40870002
-0.29487821 -0.12684606 0.00000000
-0.32576945 -0.57284796 0.00000000
-0.24525513 -0.13600390 0.00000000
-0.27751228 -0.01335516 0.00000000
-0.21261796 0.06910435 0.00000000
-0.00365790 -0.40107587 0.00000000
-0.34426218 -0.64453703 0.00000000
-0.34254023 -0.09085619 0.00000000
-0.58157188 -0.36622718 -0.00000042
-0.18111762 0.20527054 0.00000000
-0.11655828 -0.68723845 0.00000000
-0.58683741 -0.37234157 -0.00000043
-0.17560796 0.33213472 0.00000000
-0.29342711 -0.38824368 0.00000000
-0.54876441 -0.55862951 0.00000000
-0.11344563 0.00463508 0.00000000
0.34989178 -0.64758021 0.49052343
-0.28094369 -0.76103896 0.00000000
-0.01219256 0.58378220 0.00000000
-0.54170340 0.22132002 -0.00000129
-0.47291124 -0.42667577 0.00000000
-0.34241495 -0.79170156 0.00000000
-0.01170464 -0.77588713 0.00000000
-0.10469975 0.66062981 -0.00000020
-0.03363582 -0.09385542 0.00000000
-0.14829193 -0.73929864 0.00000000
-0.20433062 -0.68803591 0.00000000
-0.20313187 -0.30906928 0.00000000
-0.19148026 0.51125395 -0.00000031
-0.12269650 -0.75413722 0.00000000
0.26691040 -0.75902295 0.37418941
-0.68896788 -0.61837107 -0.00000043
-0.05439690 -0.13858090 0.00000000
0.23599203 -0.73772520 0.33084407
-0.37769449 -0.54304016 0.00000000
0.23245700 -0.79820991 0.32588819
-0.18499663 0.11401790 0.00000000
-0.28784972 0.03286067 0.00000000
-0.01122157 0.77498102 -0.00000000
-0.20800798 -0.75939262 0.00000000
-0.50106317 0.22970510 -0.00000113
-0.72340542 -0.31366548 -0.00000112
-0.47731540 0.13488699 -0.00000086
-0.21414112 0.49869934 -0.00000038
-0.60459447 -0.01549129 -0.00000114
-0.73942661 -0.44659504 -0.00000088
-0.28773513 0.01160526 0.00000000
-0.57188523 -0.00305696 -0.00000102
-0.21653874 -0.75175142 0.00000000
-0.45908409 -0.63703781 0.00000000
-0.41431242 -0.61836725 0.00000000
-0.76639050 -0.04014609 -0.00000179
-0.52866215 -0.38497835 -0.00000016
-0.33449551 -0.56090957 0.00000000
-0.31233546 0.14813937 -0.00000018
-0.49840564 -0.52769309 0.00000000
-0.08067207 0.25479710 0.00000000
-0.65649933 0.10120474 -0.00000157
-0.53257900 0.06000957 -0.00000096
-0.63802981 -0.50914019 -0.00000041
-0.77556115 -0.56680924 -0.00000058
-0.25273377 0.32225361 -0.00000023
-0.76760107 -0.39889002 -0.00000100
-0.76887035 -0.33443812 -0.00000116
-0.17327765 0.35524619 0.00000000
-0.18648291 -0.68492359 0.00000000
-0.58830553 -0.35192695 -0.00000047
-0.08036217 -0.54666823 0.00000000
-0.31559515 0.29992211 -0.00000046
-0.11338621 -0.58303726 0.00000000
-0.08235228 0.08736620 0.00000000
-0.37230530 0.39879212 -0.00000088
-0.12553479 -0.05906655 0.00000000
-0.04503648 0.69156045 -0.00000000
-0.23153612 -0.58271861 0.00000000
-0.32917994 -0.79105657 0.00000000
-0.36498004 0.29246220 -0.00000066
-0.47231650 -0.49152076 0.00000000
-0.21844041 0.11514203 0.00000000
-0.29264426 -0.55154979 0.00000000
-0.09629158 0.56886840 -0.00000000
-0.37014252 -0.18147086 0.00000000
-0.57720256 -0.72530234 0.00000000
-0.19856519 0.02956523 0.00000000
0.20364186 -0.75680816 0.28549144
-0.59596837 0.18440899 -0.00000146
0.06796644 -0.78545594 0.09528413
-0.11606517 -0.71966279 0.00000000
-0.78802168 -0.20395695 -0.00000149
-0.14516868 0.10422895 0.00000000
-0.37664881 -0.77162832 0.00000000
0.25421482 -0.74360347 0.35639113
-0.02977466 0.48233896 0.00000000
-0.28773394 -0.77145100 0.00000000
-0.11704208 -0.16427761 0.00000000
-0.01150132 -0.22527719 0.00000000
-0.46288633 -0.44320771 0.00000000
-0.23729254 -0.33794740 0.00000000
-0.33206797 -0.52003425 0.00000000
-0.04972403 -0.31348687 0.00000000
-0.09199156 -0.63212043 0.00000000
-0.68412453 -0.16714337 -0.00000121
0.27182046 -0.68635064 0.38107300
-0.07198311 -0.48566249 0.00000000
-0.42064068 -0.70244247 0.00000000
-0.29833907 0.11999303 -0.00000007
-0.02964987 -0.00470125 0.00000000
-0.57972473 -0.37466779 -0.00000040
-0.76373601 -0.14057077 -0.00000160
-0.55403000 -0.00516159 -0.00000094
-0.25742120 -0.04226699 0.00000000
-0.08752642 -0.68103999 0.00000000
-0.23486149 -0.00715152 0.00000000
-0.19239649 0.56669259 -0.00000041
-0.77109659 -0.56840050 -0.00000058
-0.58341801 0.13492082 -0.00000131
-0.06769240 -0.26869193 0.00000000
-0.61533779 -0.32112229 -0.00000064
-0.67237329 -0.31650597 -0.00000090
-0.36031523 -0.14968958 0.00000000
-0.74236125 0.02572946 -0.00000180
-0.76657617 -0.41833603 -0.00000095
-0.12694865 0.10176369 0.00000000
0.33677131 -0.78826231 0.47212949
-0.12750246 -0.72263944 0.00000000
-0.56188434 0.06829787 -0.00000110
-0.14645627 -0.78230816 0.00000000
-0.44605431 -0.40296176 0.00000000
-0.55008411 -0.45968157 -0.00000012
-0.03699265 -0.71643186 0.00000000
0.27588210 -0.71740913 0.38676712
-0.16411416 -0.00381564 0.00000000
-0.00859284 -0.22531247 0.00000000
-0.36496803 -0.05521904 -0.00000005
-0.72510976 -0.18249004 -0.00000136
-0.29855579 0.38286689 -0.00000054
-0.10901600 0.08529326 0.00000000
-0.35743582 0.13466050 -0.00000035
-0.07613626 -0.77029753 0.00000000
-0.30438840 0.19373406 -0.00000023
-0.61480236 -0.68309325 -0.00000000
-0.44266751 0.28904718 -0.00000099
-0.56483662 0.09632980 -0.00000117
-0.24520729 0.54705828 -0.00000060
-0.77295822 -0.43477437 -0.00000091
-0.64788592 -0.45094976 -0.00000055
-0.79816198 -0.03484728 -0.00000191
-0.43675399 0.04206967 -0.00000052
0.44050905 -0.67641181 0.61756235
-0.33151418 0.01844233 -0.00000003
0.34030890 -0.69416565 0.47708890
-0.18860993 0.28786546 0.00000000
-0.13582072 -0.05970766 0.00000000
-0.30374235 -0.06748264 0.00000000
-0.61114812 0.10608529 -0.00000138
-0.02577519 0.59797817 0.00000000
-0.02882678 0.36414769 0.00000000
-0.33714825 0.16043755 -0.00000031
-0.29147696 -0.17748930 0.00000000
-0.29762042 -0.72069436 0.00000000
-0.50023180 -0.49387312 0.00000000
-0.21421444 -0.24306503 0.00000000
-0.67894256 -0.26862124 -0.00000101
0.28687230 -0.68301296 0.40217459
-0.07815148 0.49245900 0.00000000
-0.09423817 -0.08235555 0.00000000
0.26228043 -0.77994156 0.36769855
-0.29677990 -0.31437230 0.00000000
-0.05896927 0.34101897 0.00000000
-0.16632886 -0.29665250 0.00000000
-0.15055719 0.57875383 -0.00000025
-0.49208370 -0.44944069 0.00000000
-0.67795914 -0.65026069 -0.00000033
0.25758037 -0.75951791 0.36110941
-0.09576956 0.28721574 0.00000000
-0.10771285 0.66104865 -0.00000021
-0.05837221 0.68372595 -0.00000004
-0.37519717 -0.13828525 0.00000000
-0.35855234 -0.57008547 0.00000000
-0.28385836 -0.77795243 0.00000000
-0.77656293 -0.22973000 -0.00000143
-0.38690001 -0.01813741 -0.00000020
0.03651393 -0.79084277 0.05118993
-0.34438109 -0.04606180 0.00000000
-0.15014680 0.63630199 -0.00000035
-0.19646788 -0.50462121 0.00000000
-0.72281879 -0.26103604 -0.00000121
-0.05846334 -0.59855747 0.00000000
-0.46703911 -0.35743400 0.00000000
-0.40649828 -0.02953773 -0.00000027
-0.25448784 -0.52789986 0.00000000
-0.42715365 0.04690789 -0.00000049
-0.31646213 0.27428341 -0.00000042
-0.37545708 -0.53492862 0.00000000
0.29787153 -0.72565651 0.41759476
-0.24356706 -0.34732351 0.00000000
-0.47900483 -0.30025280 -0.00000010
-0.04380694 0.43651462 0.00000000
-0.05120830 -0.47508299 0.00000000
0.20733546 -0.75324941 0.29066959
-0.70310801 -0.35413304 -0.00000096
-0.66297448 -0.22035787 -0.00000103
-0.40720055 0.31422123 -0.00000088
-0.62609839 -0.55031681 -0.00000028
-0.38470405 -0.78309423 0.00000000
-0.11080705 0.47997317 0.00000000
-0.72197789 0.02868405 -0.00000172
-0.34577829 -0.14847377 0.00000000
-0.35221875 0.12698551 -0.00000031
-0.38428456 -0.69557190 0.00000000
-0.15303260 -0.03384382 0.00000000
-0.04974874 0.24121206 0.00000000
-0.18379274 -0.01759723 0.00000000
-0.61648095 -0.25769150 -0.00000076
-0.54321033 -0.20538338 -0.00000054
-0.63909185 -0.24011406 -0.00000089
-0.50577015 0.24236289 -0.00000117
-0.22683042 -0.79603130 0.00000000
0.39708775 -0.79078913 0.55668890
-0.43985012 -0.15239888 -0.00000019
0.10513802 -0.77782410 0.14739604
-0.16064379 0.60069573 -0.00000033
-0.22771183 0.01656987 0.00000000
-0.35181338 -0.46863991 0.00000000
-0.60890532 0.14794102 -0.00000145
-0.59577370 -0.63289171 -0.00000001
-0.26759219 -0.12421593 0.00000000
0.21996929 -0.77062225 0.30838132
0.34079504 -0.78973633 0.47777045
-0.03076126 -0.70546830 0.00000000
-0.11378350 -0.29281208 0.00000000
-0.66392070 -0.36744317 -0.00000077
-0.78258520 -0.45536858 -0.00000086
-0.04046144 -0.05332920 0.00000000
-0.00921884 0.37122864 0.00000000
-0.38766199 -0.72440034 0.00000000
0.19462518 -0.72692728 0.27285069
-0.59894353 -0.72268999 0.00000000
-0.13195644 -0.61062300 0.00000000
-0.08253269 -0.06630284 0.00000000
-0.63682640 -0.69010967 -0.00000008
-0.14636479 0.01392959 0.00000000
-0.48744032 -0.10028487 -0.00000049
-0.45982346 0.24640302 -0.00000098
-0.69989944 -0.66940039 -0.00000033
0.30058801 -0.79233336 0.42140305
0.34804955 -0.74632066 0.48794076
-0.53929919 0.22262822 -0.00000128
-0.28486496 -0.75118721 0.00000000
0.12840033 -0.77626556 0.18000814
-0.49890649 -0.36987871 -0.00000006
-0.48235142 -0.10681806 -0.00000046
-0.09780258 -0.02808280 0.00000000
-0.36545694 0.14201644 -0.00000040
-0.47787598 0.28760222 -0.00000113
-0.11447182 -0.64523643 0.00000000
-0.64667273 -0.72398108 -0.00000007
