ply
format ascii 1.0
element vertex 1258
property float x
property float y
property float z
end_header
-0.62861067 -0.47279057 0.00000015
-0.21851957 -0.09425103 0.00000265
-0.30410910 -0.75733602 0.00000016
-0.49004373 -0.73611844 0.00000024
-0.79961169 -0.14748187 -0.00000163
-0.04770744 -0.03862316 0.00000286
-0.24653006 -0.74402601 0.00000021
-0.50779986 0.03520681 0.31838611
-0.31951326 0.29308099 0.00000293
-0.61747557 -0.37246919 0.21972929
-0.09764504 -0.58985752 0.00000079
-0.64066452 -0.38750991 -0.00000004
-0.71619213 -0.59366822 -0.00000052
-0.70052814 -0.00897968 -0.00000093
-0.20556660 -0.29562074 0.00000189
-0.65689009 -0.73005050 0.00000002
-0.62013525 -0.54050237 0.00000028
-0.67158133 -0.29043102 -0.00000044
-0.08347997 -0.35357803 0.00000167
-0.12546568 -0.34735388 0.00000170
-0.70163804 -0.81060475 0.05751717
-0.03612086 0.75625765 0.00000564
-0.64936996 -0.01546134 -0.00000038
-0.36813068 -0.30919230 0.00000184
-0.69359505 -0.67044556 0.14087851
-0.62437350 -0.03635075 -0.00000010
-0.26435867 -0.58654964 0.00000080
-0.29796630 0.49494812 0.00000303
-0.01778280 0.18123034 -0.00000744
-0.01939058 0.00804210 -0.00001129
-0.66113871 -0.12283097 -0.00000044
-0.28385323 -0.42958182 0.00000139
-0.47862002 0.08600484 0.00000137
-0.14084435 0.07505718 -0.00000649
-0.12025239 -0.45214313 0.00000130
-0.60110623 -0.13104761 0.35912496
-0.55220085 -0.05022985 0.33340609
-0.50994706 -0.36036417 0.00000134
-0.31299666 -0.16608040 0.00000238
-0.55158770 -0.21540803 0.00000079
-0.78562176 -0.79858816 -0.00000000
-0.70340353 -0.72211969 0.12155090
-0.19823018 -0.49172205 0.00000116
-0.41445237 0.00705487 0.00000211
-0.34395364 -0.30536723 0.00000185
-0.67841846 -0.60789490 0.15876797
-0.15059689 -0.34037966 0.00000172
-0.61787987 -0.23394834 0.31603938
-0.24442241 0.24152048 0.00000377
-0.70954275 -0.28012112 -0.00000085
-0.44332045 0.31762835 0.00000159
-0.44778356 -0.37594557 0.00000159
-0.46315369 -0.66782612 0.00000050
-0.33010182 -0.77483302 0.00000009
-0.12406005 0.02267697 -0.00000812
-0.20469129 -0.38552791 0.00000155
-0.38084581 -0.56268525 0.00000089
-0.02451147 0.76359779 0.00000576
-0.55317032 -0.21267127 0.00000078
-0.39477339 -0.61544830 0.00000069
-0.62274027 -0.26706350 0.30127761
-0.44040760 -0.72200358 0.00000029
-0.60330850 -0.49645367 0.00000043
-0.63679349 -0.18268900 -0.00000014
-0.13901541 0.63084298 0.00000463
-0.64292020 -0.46929458 0.19529088
-0.40255719 -0.00125388 0.00000224
-0.27713090 -0.03459648 0.00000287
-0.31079271 0.19240385 0.00000309
-0.10692798 -0.31015167 0.00000184
-0.15506670 0.13091058 -0.00000484
-0.69402462 -0.20255040 -0.00000073
-0.11591050 0.58663774 0.00000491
-0.56192589 -0.12844367 0.29561725
-0.01644139 0.21068172 -0.00000681
-0.63616705 -0.03258226 -0.00000023
-0.60170764 -0.17403132 0.00000023
-0.11488046 0.41195276 0.00000039
-0.15371294 0.01343004 -0.00000752
-0.22503389 0.00756984 -0.00000572
-0.35752285 -0.55923617 0.00000090
-0.08180696 0.15055899 -0.00000639
-0.30259520 -0.25633577 0.00000204
-0.34989178 0.19618469 0.00000267
-0.21391809 0.14650823 -0.00000289
-0.69843948 -0.72898674 0.10853569
-0.37436366 0.30511931 0.00000234
-0.75221074 -0.40356776 -0.00000099
-0.15303031 0.56860238 0.00000452
-0.37030917 -0.18307023 0.00000231
-0.64784276 -0.04234248 -0.00000035
-0.61934668 -0.28675422 0.28202650
-0.36325774 0.09380717 0.00000260
-0.42936486 -0.60134649 0.00000074
-0.24389550 0.04465699 -0.00000437
-0.69237375 -0.69422525 -0.00000026
-0.51032835 -0.54264301 0.00000097
-0.10184731 -0.41453767 0.00000145
-0.12541424 0.12464464 -0.00000579
-0.42762342 0.04679185 0.00000194
-0.52059853 -0.03250776 0.29296580
-0.51018608 -0.77577007 0.00000009
-0.00063508 0.72921669 0.00000442
-0.03446215 -0.59998095 0.00000080
-0.32890737 -0.12439352 0.00000253
-0.63452870 -0.43334314 0.00000006
-0.20138100 0.26503453 -0.00000057
-0.37950706 -0.77266049 0.00000010
-0.33061966 -0.49341083 0.00000115
-0.52609891 -0.76868302 0.00000012
-0.37675491 -0.77348262 0.00000010
-0.04951671 -0.70290667 0.00000036
-0.37691009 -0.53308076 0.00000100
-0.61153150 -0.30563095 0.25596759
-0.55252826 -0.20533170 0.00000078
-0.59521717 -0.04604996 0.00000022
-0.30622908 -0.03412234 0.00000287
-0.38804483 0.32010499 0.00000218
-0.54457206 0.14874721 0.00000063
-0.09720015 -0.46872985 0.00000124
-0.55144191 -0.41778371 0.00000093
-0.60112119 -0.47601885 0.00000044
-0.00103091 -0.18638359 0.00000230
-0.61697274 -0.46510857 0.00000026
-0.49976808 0.18750066 0.00000108
-0.58603424 -0.22436999 0.00000043
-0.07600557 -0.19173703 0.00000228
-0.51668006 -0.38014159 0.00000128
-0.50557697 -0.70906883 0.00000034
-0.26722535 0.27867830 0.00000350
-0.73497540 -0.45777076 -0.00000086
-0.34041888 0.00257878 0.00000290
-0.44995397 0.29748535 0.00000154
-0.22099885 0.26291183 -0.00000008
-0.53133208 -0.41452226 0.00000114
-0.36595988 -0.45439512 0.00000130
-0.46086529 -0.03872422 0.00000164
-0.35304737 -0.30961546 0.00000184
-0.37303305 -0.43263942 0.00000138
-0.40943483 -0.56070632 0.00000090
-0.31095034 -0.62365556 0.00000066
-0.75513995 -0.73169047 -0.00000017
-0.76192528 -0.15279680 -0.00000149
-0.68440735 -0.65561187 0.13580588
-0.13292179 0.17715821 -0.00000440
-0.13784353 -0.56094462 0.00000090
-0.19412696 -0.27478272 0.00000197
-0.01912220 0.75240225 0.00000545
-0.04514939 -0.24544205 0.00000208
-0.35707659 0.16667512 0.00000261
-0.69963372 -0.70204967 -0.00000024
-0.61194563 -0.50351936 0.00000034
-0.50718427 -0.37277967 0.00000137
-0.02347554 0.66948026 0.00000370
-0.33657253 0.45934147 0.00000264
-0.66378701 -0.27792838 -0.00000036
-0.31199938 0.39775285 0.00000294
-0.13389768 -0.02730583 0.00000290
-0.60426366 -0.63689286 0.00000051
-0.68144852 -0.22553994 -0.00000058
-0.07051668 0.38599610 -0.00000140
-0.76595432 -0.21794926 -0.00000146
-0.29069218 -0.15763696 0.00000241
-0.32609636 -0.70362836 0.00000036
-0.64513403 0.04118790 -0.00000038
-0.51161742 0.24059904 0.00000092
-0.08609488 0.04359632 -0.00000868
-0.61139446 -0.25203428 0.00000018
-0.18100488 -0.61667579 0.00000069
-0.49181962 -0.24686770 0.00000145
-0.59889936 -0.51613003 0.00000049
-0.51308066 -0.66137189 0.00000052
-0.34634367 0.00792477 0.00000283
-0.08786410 0.07834451 -0.00000785
-0.56959110 -0.69676292 0.00000039
-0.15539558 0.37673211 0.00000070
-0.09944995 -0.26592034 0.00000200
-0.13974416 0.47441006 0.00000473
-0.33844319 -0.40751565 0.00000147
-0.74518484 -0.74734664 -0.00000013
-0.62427276 -0.44053724 0.18406393
-0.53142959 -0.33859026 0.00000109
-0.25425881 0.35326844 0.00000359
-0.69250232 -0.51526707 -0.00000051
-0.42301452 -0.39127347 0.00000153
-0.07796256 0.49509355 0.00000126
-0.02524669 0.35597512 -0.00000330
-0.28143817 0.39231417 0.00000327
-0.62170392 -0.32473764 0.25973147
-0.10179950 0.14314599 -0.00000601
-0.64759433 0.08049641 -0.00000043
-0.06758371 0.00866251 -0.00000997
-0.08338527 0.29847011 -0.00000302
-0.47643557 -0.17757154 0.00000157
-0.00003352 -0.40223783 0.00000149
-0.37920383 -0.11083460 0.00000256
-0.53717679 -0.58980590 0.00000079
-0.25390884 -0.24494068 0.00000208
-0.70146191 -0.04468139 -0.00000092
-0.78404671 -0.55305433 -0.00000062
-0.27910888 -0.33913019 0.00000173
-0.30044872 -0.33490965 0.00000174
-0.50339687 -0.22191365 0.00000131
-0.55314940 -0.12717642 0.28186363
-0.59906209 -0.15792502 0.33716133
-0.03071159 -0.78012878 0.00000012
-0.59553665 -0.38039893 0.00000044
-0.40444857 0.35870257 0.00000198
-0.30928725 0.06930380 0.00000319
-0.15312023 -0.17108266 0.00000236
-0.35693029 -0.75990421 0.00000015
-0.72129828 -0.16807683 -0.00000105
-0.09805323 0.12266220 -0.00000658
-0.02651129 0.55141038 0.00000113
-0.26656067 0.43963417 0.00000340
-0.39817098 0.03849454 0.00000226
-0.05669220 0.45395753 -0.00000025
-0.09436340 0.58101207 0.00000514
-0.59836739 0.18751524 0.00000003
-0.57429653 -0.23392697 0.24340981
-0.76613390 -0.13837446 -0.00000155
-0.54366219 0.20763633 0.00000060
-0.36591625 -0.76291412 0.00000014
-0.20535682 0.13434133 -0.00000340
-0.55100417 -0.11047739 0.00000073
-0.06394342 0.28352073 -0.00000388
-0.35800359 -0.47453496 0.00000122
-0.48896396 -0.10913737 0.00000139
-0.17084180 -0.10464882 0.00000261
-0.52397281 -0.74055302 0.00000022
-0.70460391 0.08667839 -0.00000104
-0.60458589 -0.23020351 0.00000024
-0.30113330 -0.11036339 0.00000259
-0.59390765 -0.30502877 0.00000040
-0.41539827 0.02705997 0.00000209
-0.33058026 -0.02184432 0.00000292
-0.74477142 -0.50549728 -0.00000074
-0.01661190 -0.23723103 0.00000211
-0.18905640 -0.19172119 0.00000228
-0.70356077 -0.32731551 -0.00000075
-0.43449813 -0.53776932 0.00000098
-0.62415242 -0.34613970 0.00000011
-0.43782806 -0.20749295 0.00000200
-0.48361066 0.20277195 0.00000124
-0.02237648 -0.69269383 0.00000044
-0.55284071 -0.09480813 0.00000070
-0.09307352 0.04114313 -0.00000855
-0.34171376 -0.61847281 0.00000068
-0.20891047 -0.46687299 0.00000125
-0.20107059 0.33304316 0.00000417
-0.01000377 -0.74405760 0.00000022
-0.62742788 -0.07220465 -0.00000011
-0.74659324 -0.20423622 -0.00000129
-0.21521173 -0.27023190 0.00000199
-0.66233599 -0.67640418 -0.00000008
-0.12498453 0.41909420 0.00000082
-0.32619399 -0.47914124 0.00000120
-0.49480048 0.24057144 0.00000110
-0.17697395 -0.57086539 0.00000086
-0.67771721 0.08627162 -0.00000075
-0.16797693 -0.16084440 0.00000240
-0.60605884 0.19123454 -0.00000006
-0.42516363 -0.59661126 0.00000076
-0.36468771 -0.72039741 0.00000030
-0.04060454 0.29606634 -0.00000424
-0.36015522 -0.56529224 0.00000088
-0.18484578 0.04604035 -0.00000594
-0.78029549 -0.61020976 -0.00000047
-0.43795234 0.30433446 0.00000166
-0.60719180 -0.29812917 0.25391352
-0.54306865 -0.44209325 0.00000104
-0.24965058 0.11339124 -0.00000267
-0.32807219 0.16755514 0.00000292
-0.64054757 0.02575799 -0.00000032
-0.23365740 0.40300640 0.00000377
-0.38222334 -0.09819792 0.00000252
-0.20968112 -0.24382491 0.00000209
-0.64207554 -0.33381891 0.28741673
-0.62004036 0.17686552 -0.00000017
-0.53744406 -0.04373709 0.31329161
-0.00637775 -0.26816735 0.00000200
-0.43800271 0.23064432 0.00000171
-0.02718370 -0.63255054 0.00000063
-0.23052537 -0.63484997 0.00000062
-0.58825254 -0.16808192 0.31213167
-0.63565058 -0.37079972 0.25117585
-0.25184268 -0.59256554 0.00000078
-0.16501369 0.35199133 0.00000040
-0.50842297 -0.64724499 0.00000057
-0.33413425 0.10993809 0.00000290
-0.41126183 -0.44885063 0.00000132
-0.13267566 0.46792144 0.00000213
-0.23369098 0.50419486 0.00000370
-0.39655471 0.11632806 0.00000223
-0.66848648 -0.43415034 -0.00000031
-0.34668991 -0.59139127 0.00000078
-0.22108009 0.27094337 0.00000400
-0.58760434 -0.05535146 0.00000030
-0.59460658 -0.19455037 0.30444840
-0.41988352 0.35327262 0.00000182
-0.44791874 -0.14271846 0.00000185
-0.23067351 -0.51076680 0.00000108
-0.50740242 -0.26097167 0.00000130
-0.65608323 -0.41609788 -0.00000019
-0.26062098 -0.57008350 0.00000086
-0.16241913 -0.26633105 0.00000200
-0.00927634 0.46869254 -0.00000120
-0.71761525 -0.77735782 0.10710183
-0.76780689 -0.72360581 -0.00000019
-0.60071868 -0.12792975 0.36063153
-0.34477457 0.34642050 0.00000263
-0.66402447 -0.56594986 0.16373546
-0.27412379 0.16008110 0.00000350
-0.52625704 0.14783762 0.00000082
-0.04503559 -0.23516527 0.00000212
-0.07269094 -0.35576656 0.00000167
-0.37639862 -0.32463995 0.00000178
-0.02333691 -0.01196690 0.00000299
-0.05607130 -0.40556937 0.00000148
-0.41726521 -0.51606053 0.00000106
-0.32853660 -0.72590333 0.00000028
-0.21990117 -0.62561953 0.00000065
-0.17988130 -0.74305761 0.00000021
-0.37254936 -0.42184058 0.00000142
-0.03470899 0.31849813 -0.00000389
-0.04015695 -0.30527118 0.00000186
-0.31765753 -0.52011573 0.00000105
-0.51215619 0.13986655 0.00000098
-0.32398787 -0.64429629 0.00000058
-0.76312685 -0.05097554 -0.00000157
-0.11942969 -0.56945908 0.00000086
-0.15015151 0.40878206 0.00000128
-0.50893605 -0.07681094 0.00000116
-0.51053220 -0.28980589 0.00000128
-0.59928387 -0.43067002 0.00000043
-0.25453925 -0.67062807 0.00000049
-0.19977093 -0.78946823 0.00000004
-0.09258356 -0.58538043 0.00000080
-0.31290385 0.01815911 -0.00000309
-0.42731482 -0.28756103 0.00000192
-0.18219826 -0.27378476 0.00000197
-0.33876595 -0.34900182 0.00000169
-0.59292179 0.12297979 0.00000013
-0.00550371 -0.04587377 0.00000283
-0.25433683 0.27487698 0.00000364
-0.15359552 -0.22383890 0.00000216
-0.64462274 -0.66852820 0.00000011
-0.57023257 -0.12810411 0.30969727
-0.62645566 -0.34637639 0.25271201
-0.70567715 -0.54533869 -0.00000063
-0.49054787 -0.35911191 0.00000154
-0.19847021 -0.25449693 0.00000205
-0.78685904 -0.21930066 -0.00000145
-0.06250749 0.23123126 -0.00000510
-0.23356071 0.40621176 0.00000377
-0.20250668 0.57169437 0.00000399
-0.60500026 -0.53017867 0.00000044
-0.01809992 -0.25262934 0.00000208
-0.51000828 0.18952025 0.00000097
-0.24647088 0.19765064 -0.00000086
-0.55337065 -0.36435464 0.00000088
-0.55826980 -0.10287834 0.30717385
-0.48760995 -0.36336663 0.00000158
-0.21205401 0.19290988 -0.00000190
-0.15845463 0.20888869 -0.00000300
-0.12131494 0.36736056 -0.00000044
-0.42069682 -0.37764660 0.00000158
-0.73845220 -0.03774558 -0.00000132
-0.57948637 -0.14207728 0.31547418
-0.24755763 -0.08320889 0.00000269
-0.02966787 0.53138518 0.00000076
-0.39364874 0.02648843 0.00000232
-0.21615162 0.36815012 0.00000398
-0.09179619 0.42290369 0.00000001
-0.63681018 -0.29027128 -0.00000006
-0.75125974 -0.02908075 -0.00000146
-0.50352985 -0.08605881 0.00000122
-0.40001491 0.20708835 0.00000213
-0.29581812 -0.47012141 0.00000124
-0.26919207 -0.25135872 0.00000206
-0.33762753 -0.74152428 0.00000022
-0.60866815 -0.64983827 0.00000048
-0.74161768 -0.64091533 -0.00000040
-0.55022520 -0.33479863 0.00000089
-0.08529035 -0.22907622 0.00000214
-0.69023019 -0.67371446 0.13301317
-0.17936081 0.37428886 0.00000437
-0.11925887 -0.40160650 0.00000149
-0.01137169 -0.42987105 0.00000141
-0.78897500 -0.18350275 -0.00000154
-0.06895963 -0.44962424 0.00000131
-0.34396178 -0.48820731 0.00000117
-0.73315138 -0.73797375 -0.00000016
-0.09587825 -0.56998014 0.00000086
-0.41052976 -0.59565067 0.00000077
-0.63410062 -0.47743618 0.00000009
-0.70981026 -0.77601826 0.09501734
-0.21603441 0.39113387 0.00000397
-0.69752175 -0.13052794 -0.00000082
-0.58218628 -0.53365725 0.00000068
-0.05194585 0.68875706 0.00000552
-0.13738367 -0.75315922 0.00000018
-0.77664602 -0.71721947 -0.00000021
-0.35625398 0.13824265 0.00000264
-0.59786910 -0.24984227 0.27171224
-0.07459350 -0.05690096 0.00000279
-0.20259814 -0.45311823 0.00000130
-0.58783633 -0.54944193 0.00000063
-0.59669274 -0.11646116 0.00000025
-0.51959556 -0.02711252 0.00000101
-0.16208836 0.54400837 0.00000444
-0.26725900 -0.46705568 0.00000125
-0.36804619 0.39232111 0.00000235
-0.63030624 -0.31301793 0.28216112
-0.37132990 -0.38221681 0.00000157
-0.58444548 -0.28103676 0.22780091
-0.54762036 -0.23598979 0.00000085
-0.67553693 0.05453886 -0.00000071
-0.17757659 -0.55449772 0.00000092
-0.22921079 -0.71907240 0.00000030
-0.08286169 -0.60265559 0.00000074
-0.02718302 -0.00892111 0.00000301
-0.14952432 -0.57026052 0.00000086
-0.51253837 -0.30990541 0.00000127
-0.30024609 -0.60494578 0.00000073
-0.00943077 -0.19108425 0.00000230
-0.57274842 -0.34250620 0.00000065
-0.71921927 -0.22396505 -0.00000099
-0.32413611 0.21445523 0.00000293
-0.14938718 0.53138012 0.00000459
-0.50801057 0.24912293 0.00000095
-0.54458529 0.19127356 0.00000060
-0.45661494 -0.17183749 0.00000178
-0.26413688 -0.42117748 0.00000142
-0.61721021 -0.48721462 0.00000028
-0.29983357 0.19132626 0.00000321
-0.37651092 -0.33119270 0.00000176
-0.01039814 -0.36420658 0.00000165
-0.09285678 -0.39122429 0.00000153
-0.59230000 -0.14522490 0.33465862
-0.29293570 0.05336514 -0.00000284
-0.46506006 -0.05541162 0.00000161
-0.31362984 -0.50685650 0.00000110
-0.07412135 0.70496738 0.00000527
-0.69764918 -0.66648048 0.15037344
-0.76892775 -0.38438156 -0.00000104
-0.72043800 -0.07841591 -0.00000110
-0.79739183 -0.49279022 -0.00000077
-0.47034869 -0.37105170 0.00000161
-0.76894140 -0.57890511 -0.00000055
-0.58036387 0.14626743 0.00000025
-0.20204927 -0.50368416 0.00000111
-0.16140027 -0.35728210 0.00000166
-0.02631891 0.28719133 -0.00000482
-0.19732346 -0.11927179 0.00000255
-0.12106843 -0.65978736 0.00000053
-0.55913466 -0.65336818 0.00000055
-0.20243832 -0.75893664 0.00000015
-0.28811744 -0.74093157 0.00000022
-0.24067865 0.14611268 -0.00000218
-0.29161885 -0.06799281 0.00000275
-0.32795000 -0.45483103 0.00000129
-0.11055695 -0.16953462 0.00000236
-0.58290440 -0.65261108 0.00000055
-0.02164356 -0.49442044 0.00000118
-0.53817004 -0.10481854 0.00000086
-0.06772161 0.40012798 -0.00000116
-0.03225448 0.63313246 0.00000312
-0.62648523 -0.29610923 0.28746620
-0.47145420 -0.62944078 0.00000064
-0.70682442 -0.80711251 0.06857288
-0.14261740 0.36184946 0.00000002
-0.27565649 -0.72284997 0.00000029
-0.51553243 0.01834405 0.00000102
-0.42087349 0.26586580 0.00000187
-0.28380534 0.23142183 0.00000335
-0.69742686 -0.50134319 -0.00000057
-0.70468485 -0.62191302 -0.00000045
-0.18936408 -0.45041502 0.00000131
-0.37040505 0.12155915 0.00000250
-0.11626421 0.55775696 0.00000492
-0.27878907 0.49319926 0.00000323
-0.79299754 -0.16862150 -0.00000158
-0.11808512 0.59054005 0.00000488
-0.08557261 0.69362020 0.00000516
-0.49607930 0.15988225 0.00000114
-0.58263558 0.05239010 0.00000028
-0.66823357 -0.21353465 -0.00000045
-0.45114657 0.05132945 0.00000169
-0.79519528 -0.61397105 -0.00000047
-0.50321740 0.24584454 0.00000100
-0.20554830 -0.44174299 0.00000134
-0.23089878 -0.62925345 0.00000064
-0.13476364 -0.33151051 0.00000176
-0.71421725 -0.72682047 -0.00000018
-0.48333153 -0.00587815 0.00000138
-0.79625249 -0.33337793 -0.00000117
-0.47329646 -0.21076235 0.00000163
-0.30514699 0.04066742 -0.00000280
-0.61691898 -0.29918092 0.26940057
-0.35158178 -0.27168933 0.00000198
-0.27285373 0.01120560 -0.00000434
-0.34061307 0.18456584 0.00000278
-0.05063775 -0.46716326 0.00000125
-0.05779933 0.54062808 0.00000173
-0.26936567 0.36331007 0.00000342
-0.71197170 -0.19540448 -0.00000093
-0.06311926 0.37789321 -0.00000178
-0.03013855 0.36813173 -0.00000290
-0.67901385 -0.03571133 -0.00000069
-0.78768396 -0.14822251 -0.00000163
-0.43119651 0.22132888 0.00000179
-0.74566388 0.02202233 -0.00000144
-0.15332963 -0.11297897 0.00000258
-0.41473135 -0.45065287 0.00000131
-0.52686268 0.10430554 0.00000084
-0.57144344 -0.08350464 0.34250736
-0.28790495 0.05205331 -0.00000301
-0.22632086 0.13184837 -0.00000289
-0.64026910 0.09899861 -0.00000036
-0.38049299 -0.08320932 0.00000253
-0.71084863 -0.07851875 -0.00000100
-0.45393741 -0.75563306 0.00000017
-0.35120070 -0.75889182 0.00000015
-0.70231128 -0.51152790 -0.00000062
-0.25156426 -0.70343536 0.00000036
-0.40197766 -0.61034089 0.00000071
-0.75119239 -0.04373382 -0.00000145
-0.01732840 -0.29483232 0.00000189
-0.09878363 0.41532972 0.00000003
-0.30230308 -0.50368202 0.00000111
-0.58832866 -0.43592072 0.00000055
-0.08104044 0.22638378 -0.00000471
-0.02254511 -0.70012724 0.00000037
-0.09443257 0.27720687 -0.00000320
-0.58982688 -0.25233886 0.25658396
-0.70677048 -0.29098442 -0.00000081
-0.28711686 0.34184945 0.00000324
-0.51090086 -0.74877626 0.00000019
-0.31999922 -0.32153922 0.00000179
-0.62866431 -0.45739162 0.17974728
-0.44574559 -0.26961443 0.00000196
-0.63076413 -0.25237256 -0.00000003
-0.68910247 -0.79176676 0.04962905
-0.24651533 -0.67956281 0.00000045
-0.15392192 -0.16818403 0.00000237
-0.35818809 0.41799447 0.00000243
-0.02456979 -0.39609718 0.00000155
-0.15189092 -0.77900511 0.00000008
-0.25016749 0.48290321 0.00000354
-0.46972734 -0.73875207 0.00000023
-0.68539810 -0.33862469 -0.00000055
-0.64363486 -0.59268147 0.00000007
-0.31272265 0.43906251 0.00000291
-0.56990230 -0.11123699 0.00000053
-0.14920929 -0.46926588 0.00000124
-0.04897792 -0.53863430 0.00000098
-0.26815030 -0.21367213 0.00000220
-0.07460636 -0.45176396 0.00000131
-0.17975260 -0.55597591 0.00000092
-0.26307356 0.29401281 0.00000353
-0.41091052 -0.77570927 0.00000009
-0.68998116 -0.69147885 -0.00000027
-0.51456022 0.03481327 0.00000102
-0.11128409 -0.66526401 0.00000051
-0.26178309 -0.75754684 0.00000016
-0.30084363 0.29129511 0.00000313
-0.14664409 -0.77276176 0.00000010
-0.57822198 -0.51968342 0.00000071
-0.54122853 -0.64692461 0.00000057
-0.25048509 -0.48697430 0.00000117
-0.56049919 -0.48270023 0.00000088
-0.31549671 0.15599839 0.00000306
-0.66565609 -0.49661085 0.21432738
-0.60248029 -0.13746528 0.00000020
-0.23496924 -0.54160166 0.00000097
-0.75502294 -0.28346553 -0.00000129
-0.15466647 -0.57972157 0.00000083
-0.38945916 -0.08642733 0.00000244
-0.33821872 0.00778624 0.00000292
-0.01590648 -0.27624741 0.00000199
-0.45791352 0.13331138 0.00000156
-0.42942956 -0.62742704 0.00000065
-0.62124354 -0.79455459 0.00000002
-0.48785558 -0.33211315 0.00000155
-0.34229314 -0.26582247 0.00000200
-0.56003654 -0.06752964 0.33452237
-0.11730518 0.29305524 -0.00000222
-0.61957508 -0.43958399 0.00000022
-0.59694219 -0.58036727 0.00000056
-0.31617141 -0.45142689 0.00000131
-0.78361487 -0.39735073 -0.00000101
-0.30163333 -0.17174953 0.00000236
-0.51035142 0.25367728 0.00000092
-0.61612302 -0.64462256 0.00000039
-0.48813820 -0.05567985 0.00000136
-0.78263581 -0.50063270 -0.00000075
-0.65204293 -0.47015521 0.20990241
-0.69622970 -0.29944074 -0.00000069
-0.33141512 -0.52409118 0.00000103
-0.37696278 -0.36048248 0.00000165
-0.61295009 -0.60718799 0.00000040
-0.78770864 -0.75057137 -0.00000012
-0.63866383 -0.47577679 0.18372108
-0.47779384 0.30803159 0.00000123
-0.54135102 -0.02747319 0.33103347
-0.27186400 -0.66764474 0.00000050
-0.34086987 0.23624092 0.00000274
-0.30708462 0.25468999 0.00000309
-0.68956238 -0.21803164 -0.00000068
-0.08812875 -0.19068681 0.00000228
-0.05633916 -0.78592992 0.00000005
-0.69623649 -0.64443040 0.16324238
-0.48537645 -0.29670683 0.00000156
-0.51728821 0.00885115 0.31600440
-0.06187245 0.20399794 -0.00000573
-0.60557932 -0.10481591 0.00000014
-0.32175523 0.34310606 0.00000287
-0.41242254 0.16459733 0.00000203
-0.51990783 -0.62461638 0.00000066
-0.32318297 -0.20108135 0.00000225
-0.50273985 -0.30276397 0.00000137
-0.10202129 0.31070200 -0.00000224
-0.69317955 -0.59010363 0.19565484
-0.41061381 0.13606036 0.00000206
-0.01662232 0.72618151 0.00000479
-0.49232697 -0.08293020 0.00000134
-0.04012239 -0.60345316 0.00000074
-0.54999453 -0.24428818 0.00000083
-0.17950289 -0.56182891 0.00000089
-0.61677128 0.17851879 -0.00000016
-0.54287702 0.08840561 0.00000068
-0.28714305 0.20358105 0.00000334
-0.07328041 0.10242999 -0.00000771
-0.55939704 -0.11761781 0.29887646
-0.09017836 0.25138050 -0.00000389
-0.76423228 -0.64765745 -0.00000038
-0.44381231 0.21714231 0.00000165
-0.56937015 0.10065965 0.00000039
-0.58394104 -0.26661608 0.23691627
-0.04084624 0.29432479 -0.00000427
-0.36284092 -0.39182422 0.00000153
-0.01955295 -0.77952188 0.00000008
-0.16554251 0.39898115 0.00000147
-0.03459632 0.74871963 0.00000567
-0.01032627 -0.74216348 0.00000022
-0.71543682 -0.61265457 -0.00000047
-0.50063485 -0.66153270 0.00000052
-0.27068365 -0.50938195 0.00000109
-0.16819501 -0.53330797 0.00000100
-0.70659387 -0.70686668 0.13739930
-0.23436099 -0.51050317 0.00000109
-0.12077667 -0.74470073 0.00000021
-0.31809178 -0.56101120 0.00000090
-0.11044845 0.10936900 -0.00000654
-0.70321292 -0.80052799 0.06709928
-0.63907039 -0.33039746 0.28477001
-0.48672953 0.15718514 0.00000124
-0.67548418 -0.65935743 -0.00000023
-0.05989829 -0.71005148 0.00000034
-0.38631082 -0.28168860 0.00000194
-0.17993791 -0.19320576 0.00000228
-0.32086015 0.00463405 -0.00000318
-0.31460303 0.18157208 0.00000306
-0.56749123 0.02163497 0.00000047
-0.67331773 -0.62346327 0.13951761
-0.57295537 -0.23046991 0.00000058
-0.21445104 0.53784567 0.00000389
-0.76962686 -0.10290017 -0.00000161
-0.03363924 -0.08542644 0.00000273
-0.74937272 -0.78781819 -0.00000003
-0.67568010 -0.64366174 0.12950996
-0.53806204 -0.51447618 0.00000107
-0.29587248 -0.37736624 0.00000158
-0.67113209 -0.29797757 -0.00000043
-0.56975275 -0.07761101 0.34375846
-0.08395710 0.21728393 -0.00000483
-0.32272649 -0.72047263 0.00000030
-0.16016839 -0.18125501 0.00000232
-0.41594350 0.25585213 0.00000193
-0.58728093 0.16309446 0.00000016
-0.15853535 -0.48890212 0.00000117
-0.61168319 -0.28605077 0.26973879
-0.19425049 -0.29240060 0.00000190
-0.63616180 -0.68203700 0.00000020
-0.07616534 -0.55268198 0.00000093
-0.26224497 0.53279006 0.00000338
-0.34540838 -0.56692588 0.00000087
-0.62423134 -0.34924850 0.00000011
-0.45330530 -0.16640432 0.00000181
-0.61306167 -0.53505445 0.00000035
-0.14830165 0.37879011 0.00000055
-0.62378472 -0.22311288 0.00000003
-0.28726494 -0.58748561 0.00000080
-0.22471637 0.53041196 0.00000378
-0.76376468 -0.10205460 -0.00000155
-0.08680833 -0.38333344 0.00000156
-0.25867173 0.36968949 0.00000353
-0.68144822 -0.26863873 -0.00000056
-0.67683524 -0.10319522 -0.00000062
-0.53078151 -0.38105065 0.00000113
-0.02276356 -0.33329201 0.00000178
-0.37121156 0.05146242 0.00000254
-0.61772037 -0.42221305 0.00000023
-0.57537681 -0.74405396 0.00000021
-0.47307160 -0.14806411 0.00000159
-0.43033296 -0.54062718 0.00000097
-0.43983701 0.22875705 0.00000169
-0.08822361 -0.74919307 0.00000019
-0.51109892 -0.45230907 0.00000130
-0.70290905 -0.64504081 -0.00000039
-0.50484902 -0.79478288 0.00000002
-0.44676635 -0.14750059 0.00000187
-0.06771740 -0.74146140 0.00000022
-0.64651275 -0.51617324 0.16891339
-0.31915286 -0.51863343 0.00000106
-0.57097113 -0.43385631 0.00000073
-0.00845452 0.42447108 -0.00000222
-0.06235966 0.41299975 -0.00000101
-0.76086187 -0.40369970 -0.00000099
-0.72673553 -0.38716009 -0.00000096
-0.23614788 -0.49109060 0.00000116
-0.74565589 -0.17164497 -0.00000131
-0.70351529 -0.22569120 -0.00000082
-0.44513932 -0.24052766 0.00000195
-0.17807893 0.34633726 0.00000063
-0.61107087 -0.39963454 0.00000028
-0.44073433 -0.13367844 0.00000192
-0.40057269 -0.32261464 0.00000179
-0.32441291 -0.61097682 0.00000071
-0.71345699 -0.65969914 -0.00000035
-0.13394828 -0.25899482 0.00000203
-0.16450129 -0.69778323 0.00000038
-0.11098718 0.46386996 0.00000145
-0.45388091 -0.67988193 0.00000045
-0.00198883 -0.12070637 0.00000255
-0.25177604 -0.25905317 0.00000203
-0.04654990 -0.33062074 0.00000176
-0.69574839 -0.70077229 0.12352974
-0.42852637 0.10832671 0.00000189
-0.50865149 -0.18549538 0.00000123
-0.43575099 0.26766598 0.00000171
-0.38785613 -0.07889344 0.00000245
-0.19581106 -0.71956134 0.00000030
-0.02866108 -0.07624414 0.00000271
-0.51041430 -0.03262130 0.00000111
-0.31886297 -0.48152897 0.00000119
-0.29373658 0.47939357 0.00000308
-0.37988049 -0.62626046 0.00000065
-0.70703131 -0.71617651 0.13170083
-0.39974880 -0.28213215 0.00000194
-0.39791593 -0.11761419 0.00000237
-0.01480264 -0.05016628 0.00000281
-0.10436623 0.25435728 -0.00000344
-0.38177091 0.24073660 0.00000230
-0.64154744 -0.74179441 0.00000019
-0.25992942 -0.77601928 0.00000009
-0.45828533 -0.36659047 0.00000163
-0.71779209 -0.23612407 -0.00000096
-0.27047703 -0.00592421 0.00000298
-0.42850509 -0.74174219 0.00000022
-0.37623885 0.10850691 0.00000245
-0.17806709 0.06362094 -0.00000573
-0.10007141 -0.09005869 0.00000266
-0.38404560 -0.61469096 0.00000069
-0.25383130 0.22146291 0.00000368
-0.30054060 0.13177668 0.00000324
-0.13886090 -0.51692021 0.00000106
-0.28830594 -0.59805942 0.00000076
-0.59377652 -0.13075453 0.34711018
-0.59947872 -0.26295832 0.00000032
-0.09460608 0.51864231 0.00000224
-0.48930892 -0.40304789 0.00000149
-0.00097781 -0.09612714 0.00000264
-0.42844760 -0.17233838 0.00000208
-0.56221730 -0.04317364 0.00000057
-0.12001997 -0.77567929 0.00000009
-0.59076476 0.11527863 0.00000016
-0.11810333 0.48591605 0.00000214
-0.01766918 -0.10263962 0.00000264
-0.42820600 0.33214024 0.00000174
-0.33429360 0.39177102 0.00000271
-0.02856535 0.11048226 -0.00000874
-0.28873062 0.00198783 -0.00000411
-0.41858110 -0.25602454 0.00000204
-0.31239045 0.17057911 0.00000309
-0.73103666 0.04027879 -0.00000129
-0.69010288 -0.65088028 -0.00000037
-0.48168930 -0.46551210 0.00000125
-0.33360365 -0.32113704 0.00000180
-0.03522088 -0.06693147 0.00000275
-0.04296677 0.19098169 -0.00000654
-0.62395823 -0.06077841 -0.00000008
-0.57272643 0.13657759 0.00000033
-0.44993114 -0.14965376 0.00000184
-0.77260512 -0.58644283 -0.00000053
-0.23211414 -0.55924284 0.00000090
-0.25524902 -0.50070310 0.00000112
-0.44481650 -0.19660950 0.00000192
-0.08772399 -0.29610538 0.00000189
-0.02200440 -0.45407692 0.00000133
-0.58783501 -0.78589118 0.00000005
-0.01538364 0.50994855 -0.00000011
-0.54770857 -0.14596592 0.00000079
-0.48408583 -0.51866609 0.00000106
-0.01098994 -0.13311385 0.00000250
-0.38774547 -0.03481213 0.00000242
-0.51837003 -0.43259597 0.00000129
-0.23621120 -0.08912282 0.00000267
-0.39117765 0.34336850 0.00000213
-0.61722165 -0.65511072 0.00000039
-0.59274298 -0.61438262 0.00000062
-0.08221105 -0.12388232 0.00000254
-0.22041591 -0.70000571 0.00000037
-0.32731599 -0.43134829 0.00000138
-0.05096107 0.20648295 -0.00000597
-0.07846449 0.14142302 -0.00000669
-0.62321937 -0.29142496 0.28525671
-0.29395831 -0.24656768 0.00000208
-0.18296066 -0.10880649 0.00000259
-0.49576306 -0.57213110 0.00000085
-0.29916686 -0.45643410 0.00000129
-0.19753426 0.38056758 0.00000417
-0.16293219 0.35269818 0.00000036
-0.42207184 -0.16838433 0.00000214
-0.06828893 0.59047210 0.00000314
-0.09695170 0.28075910 -0.00000305
-0.71839601 -0.60688388 -0.00000048
-0.02065378 -0.36051410 0.00000165
-0.09879623 -0.63634461 0.00000061
-0.65699035 -0.47026220 -0.00000016
-0.77904999 -0.60793197 -0.00000048
-0.39459592 -0.60814446 0.00000072
-0.39899129 0.06628250 0.00000223
-0.40784410 -0.09422251 0.00000225
-0.69331950 0.04867720 -0.00000089
-0.31441793 -0.37604412 0.00000159
-0.05434428 -0.47277090 0.00000123
-0.51038945 0.10127969 0.00000102
-0.49876180 0.18544529 0.00000109
-0.00702889 -0.67858487 0.00000047
-0.72699064 0.03480110 -0.00000124
-0.53613287 -0.10692195 0.00000089
-0.67340046 -0.02924421 -0.00000063
-0.39707008 -0.30413392 0.00000186
-0.17564455 0.52629411 0.00000431
-0.57198977 0.14479721 0.00000034
-0.12172280 -0.04181171 0.00000284
-0.02786166 -0.53840619 0.00000098
-0.27277601 -0.42090169 0.00000142
-0.28526819 0.33188391 0.00000327
-0.20103976 0.55940759 0.00000402
-0.21553911 0.44076803 0.00000394
-0.65472806 -0.45168790 0.22712788
-0.68194181 -0.61614990 0.15894131
-0.06553461 0.34701341 -0.00000241
-0.77988577 -0.38335058 -0.00000104
-0.21949463 -0.30014801 0.00000187
-0.49554408 0.13165084 0.00000116
-0.35851809 -0.07719454 0.00000271
-0.72568166 -0.08097385 -0.00000115
-0.08049112 0.50969118 0.00000165
-0.61151421 -0.27703884 0.27567908
-0.16779444 -0.40589795 0.00000148
-0.68180007 -0.75288641 -0.00000012
-0.07818395 0.02400588 -0.00000934
-0.05200254 -0.49306819 0.00000115
-0.58342922 -0.34704775 0.00000054
-0.79130262 -0.29290923 -0.00000127
-0.00679290 -0.64758623 0.00000058
-0.74029970 -0.35487360 -0.00000111
-0.76593435 -0.62933546 -0.00000043
-0.07998106 0.57467824 0.00000310
-0.09567018 0.25126883 -0.00000375
-0.59902585 -0.02281797 0.00000016
-0.40402380 0.18772155 0.00000210
-0.13239288 0.38357612 0.00000023
-0.78570837 -0.68383497 -0.00000029
-0.53173548 -0.51603937 0.00000106
-0.00939863 0.42204949 -0.00000225
-0.30035812 -0.50752378 0.00000110
-0.23129041 0.28825015 0.00000387
-0.19791788 -0.34374103 0.00000171
-0.61057931 -0.19604774 0.33003786
-0.25992197 0.23665583 0.00000360
-0.51939863 0.19679162 0.00000086
-0.38643813 -0.15440978 0.00000242
-0.28097960 0.31393445 0.00000333
-0.31667206 -0.50157422 0.00000112
-0.23051506 -0.65123278 0.00000056
-0.16392381 -0.02927991 0.00000289
-0.36588052 0.18861400 0.00000251
-0.26106849 0.28878924 0.00000356
-0.27217823 0.07839843 -0.00000284
-0.16521303 -0.43961468 0.00000135
-0.03255955 -0.78234172 0.00000012
-0.03216754 0.50770873 0.00000030
-0.56991577 0.14821893 0.00000036
-0.29394436 0.37311471 0.00000315
-0.14079446 0.23846593 -0.00000281
-0.01682818 -0.42938942 0.00000142
-0.51109326 -0.62261999 0.00000067
-0.18601924 -0.52880085 0.00000102
-0.67225313 0.11727898 -0.00000072
-0.01671018 -0.61033630 0.00000071
-0.67078120 -0.50415611 0.21766058
-0.41036907 -0.43273154 0.00000138
-0.79756647 -0.78453803 -0.00000004
-0.47741440 -0.29563716 0.00000164
-0.42068323 -0.53425109 0.00000100
-0.21340667 -0.76601070 0.00000013
-0.02296674 0.42660257 -0.00000178
-0.07182133 -0.09409864 0.00000265
-0.00641856 -0.06144315 0.00000278
-0.09218745 -0.29373050 0.00000190
-0.19541189 -0.14044961 0.00000247
-0.70044726 0.07520269 -0.00000099
-0.32662112 0.42645144 0.00000277
-0.75135082 -0.71172285 -0.00000022
-0.43920159 -0.05649045 0.00000189
-0.69900131 -0.78190863 0.07293441
-0.55784428 0.11799583 0.00000050
-0.57266957 -0.53021556 0.00000078
-0.43621832 -0.67285407 0.00000048
-0.72817206 -0.38794112 -0.00000097
-0.58203042 -0.43112716 0.00000061
-0.00492762 -0.48835996 0.00000117
-0.45678550 -0.29948354 0.00000186
-0.03182975 -0.63193464 0.00000068
-0.27375042 -0.26179552 0.00000202
-0.50962967 -0.54222560 0.00000097
-0.64501351 -0.69629568 0.00000012
-0.42007893 -0.10783122 0.00000213
-0.07743939 0.19566876 -0.00000549
-0.15209526 0.01792858 -0.00000747
-0.52433318 0.15965979 0.00000083
-0.50092894 -0.38062283 0.00000145
-0.66273880 -0.19023910 -0.00000041
-0.60901690 -0.17115168 0.34462208
-0.34385309 -0.78761125 0.00000005
-0.10646321 -0.50980729 0.00000109
-0.11821869 0.06036571 -0.00000743
-0.35926050 -0.30054769 0.00000187
-0.47673199 -0.25775796 0.00000162
-0.00548702 -0.51486146 0.00000108
-0.45648977 -0.24723183 0.00000183
-0.11685626 -0.05366644 0.00000280
-0.60459799 -0.23924962 0.29024118
-0.34261510 0.12101533 0.00000280
-0.58833981 -0.01190373 0.00000027
-0.05365452 0.63419414 0.00000373
-0.71838284 -0.28863251 -0.00000094
-0.09933057 -0.02483425 0.00000291
-0.66195428 -0.03215498 -0.00000051
-0.59572208 -0.08005232 0.00000023
-0.69164902 -0.04831349 -0.00000081
-0.62611055 -0.24678855 0.00000002
-0.36851740 0.02647638 0.00000259
-0.00448611 -0.13521481 0.00000250
-0.02105926 0.25977516 -0.00000558
-0.01309032 -0.53443325 0.00000102
-0.24649762 -0.32961556 0.00000176
-0.70133871 -0.73992312 0.10581752
-0.29090387 -0.75369763 0.00000017
-0.05214007 0.38663605 -0.00000188
-0.02998823 -0.29056334 0.00000196
-0.01437593 -0.28097031 0.00000197
-0.05033785 0.37323788 -0.00000223
-0.62252110 0.09237768 -0.00000017
-0.44789064 -0.45266625 0.00000130
-0.41194001 -0.16462950 0.00000225
-0.59452444 -0.36789033 0.00000044
-0.24364007 -0.62161595 0.00000067
-0.21446726 0.17552780 -0.00000223
-0.25492617 -0.78440773 0.00000006
-0.52202737 -0.17757113 0.00000108
-0.20127000 -0.24683508 0.00000207
-0.69986373 -0.25182661 -0.00000076
-0.68585318 -0.65123910 0.14123482
-0.08855339 -0.71281719 0.00000033
-0.53733772 0.13493526 0.00000071
-0.79015863 -0.17698793 -0.00000156
-0.15940136 0.22871900 -0.00000252
-0.56993675 -0.52683699 0.00000081
-0.48017675 -0.28303194 0.00000160
-0.59432125 -0.41275910 0.00000047
-0.47676954 -0.41385707 0.00000145
-0.45277488 -0.32443169 0.00000178
-0.31897628 -0.77545840 0.00000009
-0.45703930 -0.62234241 0.00000067
-0.68670863 -0.73717904 -0.00000016
-0.24626254 -0.74373490 0.00000021
-0.00515895 0.27499247 -0.00000567
-0.04061126 0.28521416 -0.00000448
-0.47072679 0.12669650 0.00000143
-0.18723185 0.49712968 0.00000421
-0.48416451 -0.68622744 0.00000043
-0.69612068 -0.78268892 0.06759432
-0.04758089 -0.73325801 0.00000025
-0.56725860 -0.53871357 0.00000084
-0.11220242 -0.48738500 0.00000117
-0.52610999 -0.04069821 0.29649755
-0.31283456 0.08346112 0.00000314
-0.77507043 -0.39568150 -0.00000101
-0.01730339 0.59096986 0.00000177
-0.76350820 -0.74598718 -0.00000014
-0.08979764 0.01730055 -0.00000917
-0.21724541 0.15782288 -0.00000255
-0.22268450 0.17075704 -0.00000211
-0.34689656 0.06464486 0.00000279
-0.00796177 0.75191295 0.00000513
-0.05356894 -0.00565769 0.00000298
-0.18092728 -0.60998106 0.00000071
-0.74924725 -0.58552754 -0.00000054
-0.06803972 0.29215378 -0.00000358
-0.27292666 0.37958696 0.00000337
-0.59098643 -0.22692230 0.00000038
-0.51823694 -0.14720125 0.00000110
-0.53934294 -0.02829672 0.32711762
-0.56342942 -0.26076961 0.00000070
-0.36791733 0.29224280 0.00000241
-0.18788809 -0.09762515 0.00000263
-0.26470703 -0.78787613 0.00000005
-0.16713634 -0.37942919 0.00000158
-0.31878641 -0.04181319 0.00000284
-0.69980830 0.03979156 -0.00000096
-0.26893064 -0.11961152 0.00000255
-0.58674812 0.04377531 0.00000025
-0.57239389 -0.51591128 0.00000077
-0.00884273 -0.23695810 0.00000211
-0.39810878 0.37615061 0.00000204
-0.58894283 -0.77369225 0.00000010
-0.16708621 0.38365653 0.00000117
-0.68730026 -0.63307405 0.15618809
-0.53161591 -0.58606875 0.00000080
-0.62307960 -0.36351982 0.00000013
-0.68182659 -0.68922240 -0.00000028
-0.29254371 -0.79737455 0.00000001
-0.62331671 -0.73908120 0.00000023
-0.26936391 -0.45649695 0.00000129
-0.78138077 -0.16128147 -0.00000160
-0.26413459 -0.76831245 0.00000012
-0.43521351 -0.36175764 0.00000164
-0.14286111 -0.45346075 0.00000130
-0.61261451 -0.05968902 0.00000004
-0.30759153 0.40458313 0.00000298
-0.14934725 -0.51097220 0.00000108
-0.56813318 -0.05466716 0.00000051
-0.52105057 -0.25976279 0.00000115
-0.10720833 -0.51027495 0.00000109
-0.31180340 -0.28011847 0.00000195
-0.25682780 -0.47933370 0.00000120
-0.40287250 -0.68762410 0.00000042
-0.55535322 -0.38296288 0.00000087
-0.53112340 -0.26089650 0.00000104
-0.44405916 0.35329357 0.00000158
-0.59189254 -0.37470180 0.00000047
-0.70891827 -0.76945537 -0.00000008
-0.41380787 0.05854675 0.00000208
-0.26181102 0.25690290 0.00000357
-0.25265732 0.39484423 0.00000358
-0.68700010 -0.39434144 -0.00000053
-0.41929647 -0.23484454 0.00000212
-0.69075495 0.04143252 -0.00000086
-0.66110694 -0.06817883 -0.00000047
-0.51648957 0.08879112 0.00000097
-0.04568897 0.72722185 0.00000556
-0.71521932 -0.74782777 -0.00000013
-0.35345685 -0.44982356 0.00000131
-0.00259157 -0.50084382 0.00000113
-0.54168814 -0.66672367 0.00000050
-0.60872459 -0.17954968 0.33833683
-0.15141930 -0.53782368 0.00000098
-0.46702325 -0.58007985 0.00000082
-0.42184395 -0.41995621 0.00000143
-0.33679220 0.44253722 0.00000265
-0.35987359 -0.32965329 0.00000176
-0.47638404 -0.20196591 0.00000159
-0.62626886 -0.66609031 0.00000030
-0.16901125 -0.18431649 0.00000231
-0.27316621 0.37680671 0.00000337
-0.04176817 0.67311352 0.00000428
-0.67560744 -0.60594016 0.15543215
-0.03318928 -0.27105942 0.00000203
-0.61878574 -0.52160186 0.00000028
-0.50205481 -0.48857886 0.00000117
-0.16559386 -0.68208724 0.00000044
-0.35592052 -0.46011516 0.00000127
-0.70803064 -0.36290175 -0.00000078
-0.52360654 -0.13997996 0.00000104
-0.10649886 0.55179226 0.00000503
-0.12099572 -0.47154292 0.00000123
-0.69290864 -0.66134572 0.14601704
-0.36202526 0.17363550 0.00000256
-0.53150988 -0.44190314 0.00000116
-0.10772758 -0.28161520 0.00000194
-0.57739776 -0.03299686 0.00000040
-0.40933731 -0.13707735 0.00000226
-0.18816532 0.60147709 0.00000413
-0.01381313 -0.00226990 0.00000299
-0.15909100 -0.16185568 0.00000239
-0.20558909 -0.27408168 0.00000197
-0.30796185 0.37212655 0.00000300
-0.66715705 -0.57050568 0.16581152
-0.65503222 0.11906326 -0.00000053
-0.76103354 -0.22746678 -0.00000143
-0.76685542 -0.74894559 -0.00000013
-0.23884656 0.35549334 0.00000375
-0.72246170 -0.77156752 -0.00000007
-0.70060271 -0.78756368 0.07169926
-0.00497889 -0.02834216 0.00000289
-0.02413142 0.63586068 0.00000296
-0.41277224 0.32691738 0.00000191
-0.37927049 -0.63836360 0.00000061
-0.60655230 -0.46493721 0.00000038
-0.39084262 -0.65397388 0.00000055
-0.41730276 -0.02078294 0.00000210
-0.56830233 0.02760755 0.00000045
-0.60409039 -0.10297689 0.00000016
-0.69687253 0.03805765 -0.00000093
-0.02807920 -0.77975756 0.00000008
-0.08481204 0.11181989 -0.00000718
-0.13021098 0.18643679 -0.00000427
-0.17625567 -0.06629435 0.00000275
-0.70016760 -0.46848199 -0.00000062
-0.54121405 -0.35398698 0.00000100
-0.67891103 -0.68241864 -0.00000025
-0.60151094 0.12134575 0.00000004
-0.07614010 0.31522462 -0.00000284
-0.00327650 0.79567528 0.00000597
-0.14883886 0.39460468 0.00000092
-0.19409321 0.52345937 0.00000411
-0.67117047 -0.78938931 -0.00000003
-0.33059904 -0.28124124 0.00000195
-0.40487644 0.21135262 0.00000207
-0.34357259 -0.76935601 0.00000011
-0.66960114 -0.00834244 -0.00000060
-0.01355856 0.54963154 0.00000074
-0.34646654 -0.68329281 0.00000044
-0.69452351 -0.16582574 -0.00000076
-0.79697484 -0.22649126 -0.00000143
-0.46937349 0.14491346 0.00000143
-0.05393591 -0.31761318 0.00000181
-0.04698639 -0.78956443 0.00000004
-0.32520491 0.26057550 0.00000289
-0.30543965 0.27429378 0.00000309
-0.11965812 -0.41304135 0.00000145
-0.07419042 -0.63202620 0.00000063
-0.45400047 -0.33388475 0.00000175
-0.04257549 0.00894764 -0.00001064
-0.50271720 -0.64803475 0.00000057
-0.61428690 -0.38533756 0.20553005
-0.39238012 0.33594549 0.00000212
-0.33760986 -0.68439084 0.00000043
-0.50351048 0.00043197 0.00000116
-0.19160606 -0.04662789 0.00000283
-0.39431328 0.05214737 0.00000229
-0.07159644 -0.30542400 0.00000185
-0.21946537 -0.11034403 0.00000259
-0.44601735 0.05073978 0.00000174
-0.21369369 -0.19528523 0.00000227
-0.18312129 0.47314751 0.00000426
-0.49395987 -0.06208316 0.00000131
-0.58469731 0.17511709 0.00000018
-0.23603250 -0.34270403 0.00000171
-0.50892854 0.23748803 0.00000095
-0.67231417 -0.22104576 -0.00000049
-0.23418106 0.23446335 -0.00000036
-0.73457938 -0.73840678 -0.00000015
-0.51342839 -0.17299916 0.00000117
-0.46272627 0.32694852 0.00000138
-0.09849950 0.09635363 -0.00000716
-0.76410145 -0.22236748 -0.00000144
-0.29906106 -0.25226739 0.00000205
-0.69842786 -0.36288372 -0.00000067
-0.00092181 -0.49194172 0.00000116
-0.33856103 -0.54550999 0.00000095
-0.20839061 0.41096801 0.00000404
-0.01604526 0.24421138 -0.00000607
-0.52367967 -0.53601789 0.00000099
-0.06993205 0.53925306 0.00000203
-0.51543421 -0.09313642 0.00000110
-0.05701467 -0.35268533 0.00000168
-0.60879213 -0.33134139 0.23365089
-0.40033421 0.04951262 0.00000223
-0.57499200 -0.13461687 0.31313369
-0.09824826 0.68617159 0.00000503
-0.32244006 0.07356924 0.00000305
-0.70457357 0.04448807 -0.00000101
-0.12043203 0.04850347 -0.00000764
-0.06671404 -0.59428841 0.00000077
-0.04063726 0.17425539 -0.00000698
-0.68002635 -0.60388893 0.16421369
-0.02884253 -0.48650435 0.00000122
-0.15109649 -0.08196166 0.00000269
-0.28057349 -0.53155529 0.00000101
-0.08023896 -0.64416343 0.00000058
-0.38245004 -0.56794345 0.00000087
-0.00303692 0.46583253 -0.00000144
-0.27892050 0.44109213 0.00000326
-0.15718979 -0.20883247 0.00000222
-0.31575683 -0.24632095 0.00000208
-0.35981840 0.09880919 0.00000263
-0.03062384 -0.18011132 0.00000237
-0.52852160 0.00336583 0.33094153
-0.59520227 -0.12564737 0.00000027
-0.51683348 0.02482017 0.32627240
-0.78160250 -0.67693692 -0.00000031
-0.03185444 -0.25880876 0.00000208
-0.47997227 -0.27773532 0.00000160
-0.26612666 -0.78952491 0.00000004
-0.35133225 -0.77257818 0.00000010
-0.33682412 -0.38924465 0.00000154
-0.40159801 0.27130681 0.00000207
-0.41499066 -0.77268785 0.00000010
-0.63205129 -0.42876047 0.20515986
-0.22775801 -0.73719162 0.00000024
-0.57602566 -0.14694786 0.30634320
-0.23940878 0.17109182 -0.00000165
-0.35360432 -0.59153724 0.00000078
-0.05462869 -0.11141159 0.00000258
-0.08877924 0.24986544 -0.00000397
-0.25194871 0.24989220 0.00000368
-0.52536136 0.09083722 0.00000087
-0.70859069 -0.75095445 -0.00000012
-0.33924732 -0.19995490 0.00000225
-0.68529457 -0.62034225 0.16163513
-0.09280121 -0.44807273 0.00000132
-0.65756714 -0.72960180 0.00000001
-0.51931697 -0.69309795 0.00000040
-0.66555476 -0.30863702 -0.00000036
-0.29817948 0.01572558 -0.00000355
-0.71060234 -0.62944442 -0.00000043
-0.62621665 -0.32639822 0.00000007
-0.65995842 0.02662831 -0.00000052
-0.75068611 -0.18204899 -0.00000135
-0.55963409 -0.71503478 0.00000032
-0.59887832 -0.15962939 0.00000025
-0.00681098 -0.22560918 0.00000215
-0.37247044 0.26860818 0.00000238
-0.03345628 -0.78763217 0.00000005
-0.13608968 0.33810508 -0.00000070
-0.23603746 -0.70048136 0.00000037
-0.40693212 0.10781139 0.00000212
-0.03398725 0.11091000 -0.00000858
-0.39195508 -0.12114285 0.00000243
-0.67794454 -0.79502970 -0.00000001
-0.62493712 -0.16469702 -0.00000002
-0.57818758 -0.67056382 0.00000049
-0.11560973 -0.00771247 0.00000297
-0.71908319 -0.27539590 -0.00000095
-0.52084839 0.02282337 0.00000096
-0.73887700 0.00904021 -0.00000135
-0.19740139 -0.07645752 0.00000271
-0.57550782 -0.76323974 0.00000014
-0.01119442 0.59419084 0.00000167
-0.08011472 0.21891762 -0.00000490
-0.08841116 0.35802430 -0.00000154
