ply
format ascii 1.0
element vertex 1283
property float x
property float y
property float z
end_header
-0.44466609 -0.48143995 0.00000000
-0.75856799 -0.09069899 -0.00000166
-0.31895506 -0.26740026 0.00000000
-0.53173333 -0.78407240 0.00000000
-0.06457201 -0.79511887 0.00000000
-0.59635091 -0.50136030 -0.00000024
-0.78710473 -0.22292529 -0.00000144
-0.52553141 -0.17099874 -0.00000053
-0.08158543 0.39797905 0.00000000
-0.00536648 0.69729358 0.00000000
-0.42436504 0.17388675 -0.00000070
-0.26418182 0.35532123 -0.00000034
-0.09364096 0.11629763 0.00000000
-0.33682427 -0.48603559 0.00000000
-0.46696040 0.22828664 -0.00000098
-0.45734671 0.03388213 -0.00000060
-0.21776141 0.16039355 0.00000000
-0.59575534 0.16282475 -0.00000142
0.33323967 -0.76928753 0.61374211
-0.12701687 -0.36473855 0.00000000
-0.66206628 -0.19021411 -0.00000108
-0.16915236 -0.30372459 0.00000000
-0.00433304 -0.73507011 0.00000000
-0.39403418 0.35474443 -0.00000089
-0.20589836 0.55711454 -0.00000045
-0.07327192 -0.72722381 0.00000000
-0.42365837 -0.73327434 0.00000000
-0.53991258 -0.58126998 0.00000000
-0.10395444 0.43314904 0.00000000
-0.22804898 -0.57463092 0.00000000
-0.24097219 0.03468071 0.00000000
-0.26174504 -0.37219566 0.00000000
-0.34843943 -0.23054200 0.00000000
-0.36827406 -0.39166769 0.00000000
-0.32347032 -0.68026668 0.00000000
-0.62349296 -0.41501293 -0.00000051
-0.06662270 0.19453546 0.00000000
-0.53334457 -0.07019328 -0.00000074
-0.42710194 -0.45570314 0.00000000
-0.01236677 0.29017821 0.00000000
-0.36450410 -0.43314865 0.00000000
-0.63287568 0.13228694 -0.00000152
-0.01646099 -0.15787731 0.00000000
-0.57392019 -0.50259697 -0.00000015
-0.13331825 -0.17507732 0.00000000
-0.05172622 -0.06355813 0.00000000
-0.55028069 -0.65520746 0.00000000
-0.18757506 -0.47090814 0.00000000
-0.43250525 0.25021416 -0.00000087
-0.34742591 -0.52253973 0.00000000
-0.02252865 0.16468734 0.00000000
-0.45377427 -0.18617198 -0.00000019
-0.49880040 -0.76409775 0.00000000
-0.38645822 0.07871298 -0.00000037
-0.25487584 -0.46313065 0.00000000
-0.11591382 0.58648241 -0.00000012
-0.78414291 -0.26816818 -0.00000133
0.14487544 -0.71527255 0.26682359
-0.33520073 -0.57887691 0.00000000
0.35030892 -0.64123213 0.64517874
-0.55729902 0.03624690 -0.00000103
-0.21924123 0.54955482 -0.00000049
-0.46116710 0.06994785 -0.00000068
-0.04712414 -0.78678304 0.00000000
-0.58174092 -0.75106871 0.00000000
-0.45340186 -0.60986429 0.00000000
-0.11501577 -0.64346415 0.00000000
-0.35492548 -0.24500923 0.00000000
-0.28941590 -0.40148836 0.00000000
-0.13938361 -0.12370935 0.00000000
0.03872970 -0.78895766 0.07133022
-0.69952673 -0.78057986 -0.00000005
-0.06101113 0.28628466 0.00000000
-0.71226239 -0.19521423 -0.00000128
-0.67374724 -0.44272006 -0.00000068
-0.60920769 -0.71057546 0.00000000
-0.07379461 0.08170883 0.00000000
-0.73259568 -0.29701072 -0.00000119
-0.15658347 0.36454186 0.00000000
-0.38991961 -0.22209114 0.00000000
-0.69789451 -0.76025921 -0.00000010
-0.11787046 0.51051295 0.00000000
-0.29931456 -0.53445596 0.00000000
-0.03649466 0.25626856 0.00000000
-0.61415958 -0.27246481 -0.00000073
0.31514317 -0.66118956 0.58041298
-0.75952548 -0.31182027 -0.00000122
-0.03764738 0.43260482 0.00000000
-0.38975459 -0.33795774 0.00000000
-0.59478599 0.05909814 -0.00000123
-0.05352460 -0.72264963 0.00000000
-0.68507373 0.00134785 -0.00000151
-0.71627486 0.02159763 -0.00000168
-0.74238169 -0.07849161 -0.00000162
-0.67979527 -0.14222509 -0.00000124
-0.14206707 0.62415761 -0.00000030
-0.03697857 -0.43542290 0.00000000
-0.39340323 -0.02399639 -0.00000022
-0.28613073 -0.09016641 0.00000000
-0.17067651 0.03439273 0.00000000
-0.53712416 0.11857512 -0.00000109
-0.11246934 -0.12156345 0.00000000
-0.66696334 -0.55308795 -0.00000045
-0.78114253 -0.06548801 -0.00000180
-0.09495949 -0.37505016 0.00000000
-0.73621470 -0.31313941 -0.00000117
-0.54004943 -0.41933641 -0.00000015
-0.62829357 -0.47120494 -0.00000043
-0.07930871 -0.48633257 0.00000000
-0.51030183 -0.24857502 -0.00000032
-0.31168756 -0.42388460 0.00000000
-0.07237596 0.66488361 -0.00000007
-0.03529758 0.00384224 0.00000000
-0.49939302 -0.21130195 -0.00000034
-0.13651130 0.21482235 0.00000000
-0.64089179 0.14792994 -0.00000158
-0.21069489 -0.57362330 0.00000000
-0.50013918 0.11086414 -0.00000092
-0.37618318 -0.34708819 0.00000000
-0.59116817 -0.08650371 -0.00000096
-0.02336454 0.38551903 0.00000000
-0.05909293 0.62201923 0.00000000
0.31151870 -0.66424996 0.57373768
-0.26144588 0.08307689 0.00000000
-0.48150179 -0.23437677 -0.00000023
-0.63444376 -0.62771487 -0.00000018
-0.01385832 0.70014417 0.00000000
-0.47893444 -0.49276179 0.00000000
-0.12549916 -0.65533447 0.00000000
-0.63283390 0.03297644 -0.00000134
-0.33490154 0.21710809 -0.00000040
-0.17671177 0.28368101 0.00000000
-0.40563044 -0.23839109 0.00000000
-0.06851020 0.15548614 0.00000000
-0.71618962 -0.55629140 -0.00000061
-0.03928258 0.43566558 0.00000000
-0.74071157 -0.56954050 -0.00000058
-0.29349768 -0.21119097 0.00000000
0.29119083 -0.64267522 0.53629911
-0.67593867 -0.61920470 -0.00000038
-0.00133950 0.76909584 0.00000000
-0.10522483 -0.04640685 0.00000000
-0.21600761 0.00444882 0.00000000
-0.19317907 -0.16454241 0.00000000
-0.17737786 0.06014421 0.00000000
-0.42102692 0.05961609 -0.00000049
-0.05231909 -0.04295238 0.00000000
-0.30054125 -0.33074814 0.00000000
-0.12956260 -0.03655225 0.00000000
-0.38056159 -0.45164657 0.00000000
-0.74707216 0.03319573 -0.00000183
-0.32551563 0.39091083 -0.00000067
-0.47754264 -0.04730816 -0.00000054
-0.33110374 0.25737551 -0.00000045
-0.75237560 -0.27017131 -0.00000132
0.10165495 -0.76872450 0.18722250
-0.13193491 -0.47301984 0.00000000
-0.20510279 0.04446487 0.00000000
-0.07064108 -0.34163073 0.00000000
-0.38373151 0.00407415 -0.00000023
-0.33554915 -0.23987848 0.00000000
-0.07393862 0.56446379 0.00000000
-0.28336596 -0.02563511 0.00000000
-0.42125753 -0.16483623 -0.00000009
-0.64124072 0.03043056 -0.00000138
-0.58039808 -0.14947604 -0.00000080
-0.76341969 -0.18375880 -0.00000152
-0.41338134 -0.30715096 0.00000000
-0.01867233 0.01521896 0.00000000
-0.43274590 0.13683099 -0.00000067
0.15679219 -0.79208839 0.28877121
-0.69208688 -0.63127595 -0.00000042
-0.61206490 0.09810112 -0.00000137
-0.34781295 0.24581780 -0.00000050
-0.26887700 -0.36304989 0.00000000
-0.07516993 0.10484001 0.00000000
-0.71276236 -0.10001595 -0.00000145
0.23463915 -0.71974397 0.43214548
-0.35536072 -0.64610660 0.00000000
-0.56759906 -0.20868279 -0.00000064
-0.18473509 -0.26076093 0.00000000
-0.60155171 0.16058987 -0.00000144
-0.50646144 -0.52700359 0.00000000
-0.46235159 -0.30855858 -0.00000001
-0.02415632 0.20729625 0.00000000
-0.72550184 -0.62172264 -0.00000045
-0.09891314 -0.39994949 0.00000000
-0.43750390 0.07676658 -0.00000059
-0.36638537 -0.65540212 0.00000000
-0.49933949 -0.24467786 -0.00000028
-0.10234131 -0.75458080 0.00000000
-0.59872800 0.19164611 -0.00000148
-0.00590847 -0.22739860 0.00000000
-0.50396019 -0.07061350 -0.00000061
-0.08043982 -0.51371348 0.00000000
-0.29974967 0.33388504 -0.00000046
-0.72298002 0.02975409 -0.00000172
-0.57964242 -0.71350837 0.00000000
-0.03626337 0.25328493 0.00000000
-0.42649731 -0.34449118 0.00000000
-0.67484838 -0.79430175 -0.00000001
-0.49281895 0.03955894 -0.00000076
-0.48199546 -0.74768877 0.00000000
-0.54441917 -0.55183917 0.00000000
-0.76673269 -0.66990948 -0.00000033
-0.51585633 0.02562800 -0.00000083
-0.05716696 -0.76517749 0.00000000
-0.42045274 -0.54258001 0.00000000
-0.30880475 -0.33678365 0.00000000
-0.20673594 -0.47603688 0.00000000
0.27363244 -0.64824563 0.50396115
-0.05362482 0.07828834 0.00000000
-0.36010501 -0.69021499 0.00000000
-0.27703819 -0.22721443 0.00000000
-0.75180757 -0.31603289 -0.00000121
-0.05824029 -0.74606061 0.00000000
-0.21170063 -0.45091656 0.00000000
-0.16513482 -0.67010176 0.00000000
-0.21614654 -0.50804174 0.00000000
-0.46856898 -0.25022915 -0.00000014
0.24938402 -0.74939644 0.45930174
-0.05816320 0.30216527 0.00000000
0.10798198 -0.78103328 0.19887525
-0.68319064 -0.44608766 -0.00000071
-0.19754401 -0.12125195 0.00000000
-0.10068491 -0.22331700 0.00000000
-0.45428088 0.30705392 -0.00000107
-0.77793962 -0.70904940 -0.00000023
-0.35640818 0.40850914 -0.00000083
-0.73899239 -0.44091782 -0.00000090
-0.52573085 -0.38417870 -0.00000015
-0.74316168 -0.33373037 -0.00000117
-0.51278543 0.16238856 -0.00000106
-0.26553568 -0.60488647 0.00000000
-0.78957558 0.00336565 -0.00000196
-0.52797377 0.06101047 -0.00000095
-0.46500537 -0.59955198 0.00000000
-0.77133107 -0.58763218 -0.00000053
-0.17920990 -0.72541511 0.00000000
-0.48061696 -0.43576020 0.00000000
-0.40698528 -0.38953525 0.00000000
-0.32469487 -0.66301662 0.00000000
-0.02468373 0.76679742 -0.00000005
-0.07174086 0.33070293 0.00000000
-0.65408361 -0.35149962 -0.00000076
0.24340247 -0.71883124 0.44828525
-0.47505632 0.00956909 -0.00000063
-0.11013879 -0.10057876 0.00000000
-0.35124999 0.06118253 -0.00000019
-0.47365350 -0.53445512 0.00000000
-0.57289559 -0.34949058 -0.00000041
-0.76163089 -0.72135603 -0.00000020
-0.00338629 0.75705069 0.00000000
-0.62059182 0.17595647 -0.00000149
-0.24401002 -0.12452666 0.00000000
-0.63462251 0.03312032 -0.00000135
-0.22000153 -0.07922884 0.00000000
-0.35968846 -0.34439343 0.00000000
-0.66063905 -0.76056838 -0.00000006
0.31344372 -0.67193872 0.57728308
-0.54761195 -0.63288486 0.00000000
-0.04367719 0.04209938 0.00000000
-0.15993300 -0.56684881 0.00000000
-0.58836025 0.18367556 -0.00000142
-0.29192656 -0.20945223 0.00000000
-0.73988771 -0.32928342 -0.00000116
-0.04635192 0.03213793 0.00000000
-0.76790255 -0.60212618 -0.00000049
-0.62849182 -0.77105558 0.00000000
-0.43028435 -0.75814521 0.00000000
-0.66333193 0.01335602 -0.00000144
-0.47076723 -0.44562647 0.00000000
-0.66729945 -0.52684987 -0.00000050
-0.39450681 0.24468879 -0.00000070
-0.45061797 0.10583230 -0.00000070
-0.04248142 0.01903422 0.00000000
-0.44115031 0.35858724 -0.00000110
-0.23277690 -0.28196353 0.00000000
-0.17860518 -0.46942177 0.00000000
-0.09662678 0.03762063 0.00000000
-0.47890288 -0.07710521 -0.00000049
-0.22045861 -0.33522534 0.00000000
0.32898080 -0.74371547 0.60589832
-0.17613856 -0.46652734 0.00000000
0.30237082 -0.67703909 0.55688977
0.31813401 -0.78514290 0.58592165
-0.05315424 0.72520959 -0.00000009
-0.50970727 -0.30091065 -0.00000023
-0.22266564 -0.14018382 0.00000000
-0.75713301 -0.04749631 -0.00000173
-0.26980957 0.20382604 -0.00000010
-0.28389648 -0.13112265 0.00000000
-0.33937258 -0.14392515 0.00000000
-0.06740086 0.58961570 0.00000000
-0.58674085 -0.43160290 -0.00000033
-0.66293550 -0.76591069 -0.00000006
-0.05995646 0.57286692 0.00000000
0.37390614 -0.61544067 0.68863839
-0.12320027 0.44331083 0.00000000
-0.12173346 -0.67877263 0.00000000
-0.08720913 -0.04214540 0.00000000
-0.50732380 0.23752515 -0.00000117
-0.10873190 0.25104663 0.00000000
0.16867636 -0.76993245 0.31065884
-0.17495714 0.21232970 0.00000000
-0.01823234 -0.55602711 0.00000000
-0.28808838 0.18600537 -0.00000014
-0.38123524 -0.42177936 0.00000000
-0.37609372 -0.71334356 0.00000000
-0.73050910 -0.09806855 -0.00000153
0.14470342 -0.79056305 0.26650676
-0.27328816 -0.05096330 0.00000000
-0.67995477 0.08813572 -0.00000164
-0.16413867 -0.05438999 0.00000000
-0.48353958 -0.08420783 -0.00000050
0.34050277 -0.72434896 0.62711865
-0.49816296 -0.52533770 0.00000000
-0.13246585 0.16218381 0.00000000
-0.10847900 0.02031248 0.00000000
-0.71625984 -0.19414829 -0.00000130
-0.11197476 -0.27866891 0.00000000
-0.70046151 -0.67004466 -0.00000032
0.20115083 -0.73673111 0.37046853
-0.57018971 -0.73645574 0.00000000
0.18948355 -0.68490654 0.34898034
-0.30054864 0.08249611 -0.00000001
0.37538794 -0.70349443 0.69136757
-0.71560198 -0.73889488 -0.00000015
-0.74747956 -0.52707750 -0.00000068
-0.38491285 -0.06075766 -0.00000012
-0.62326097 -0.41360608 -0.00000051
0.19231135 -0.72544622 0.35418841
-0.25129721 -0.17159522 0.00000000
-0.19568360 0.44278622 -0.00000020
-0.02677810 -0.17962535 0.00000000
-0.40703782 -0.57417452 0.00000000
-0.26904944 -0.36320889 0.00000000
-0.15899917 -0.12478921 0.00000000
0.33225116 -0.68707031 0.61192137
-0.31337145 0.42606482 -0.00000068
-0.23299637 -0.47215843 0.00000000
0.17043743 -0.72419041 0.31390226
-0.01862986 -0.26098889 0.00000000
-0.30494517 -0.16410623 0.00000000
0.11530885 -0.78887147 0.21236949
0.29707327 -0.69300926 0.54713315
0.15008441 -0.76464593 0.27641720
-0.75342548 -0.45703521 -0.00000086
-0.02810246 -0.16360538 0.00000000
-0.42167035 -0.01352556 -0.00000036
-0.07163685 -0.06258780 0.00000000
-0.42372838 0.07611410 -0.00000053
-0.13571803 -0.27365881 0.00000000
-0.10503630 -0.24808577 0.00000000
-0.52323067 -0.14006448 -0.00000057
-0.27929190 -0.01704146 0.00000000
-0.70421040 -0.24932112 -0.00000115
-0.30808482 -0.25314301 0.00000000
-0.10881052 0.53471905 0.00000000
-0.63145137 -0.01453075 -0.00000125
-0.02782879 0.38997543 0.00000000
-0.13656192 0.05317975 0.00000000
0.33220631 -0.75567311 0.61183894
0.17737351 -0.76054823 0.32667676
-0.48550743 -0.00729938 -0.00000064
-0.12648937 0.38452810 0.00000000
-0.02141559 0.13797098 0.00000000
-0.14448264 -0.75205231 0.00000000
-0.46946207 -0.17474432 -0.00000028
-0.51251423 -0.26501140 -0.00000030
-0.17145734 0.40839645 -0.00000004
-0.13604341 -0.72081691 0.00000000
-0.56980687 -0.79196113 0.00000000
-0.09462656 -0.38774842 0.00000000
-0.54638231 -0.70789838 0.00000000
-0.49262404 0.26828647 -0.00000116
-0.39590052 -0.39008519 0.00000000
-0.61468667 -0.05783235 -0.00000111
-0.46063364 0.06940677 -0.00000067
0.22858366 -0.77580029 0.42099279
0.27341068 -0.78322095 0.50355273
-0.79128283 -0.67654884 -0.00000031
-0.06410852 0.08408034 0.00000000
-0.20260318 0.50242162 -0.00000034
-0.38923439 0.05094398 -0.00000034
-0.22223271 0.17273436 0.00000000
-0.00968535 -0.40337962 0.00000000
-0.52610201 -0.20527902 -0.00000047
-0.70016551 -0.76985711 -0.00000008
-0.22216721 0.43499905 -0.00000030
-0.74278641 -0.01026426 -0.00000174
-0.76534849 -0.47798982 -0.00000081
0.02499526 -0.79584461 0.04603489
-0.66841823 -0.66805625 -0.00000026
-0.46719995 0.06701834 -0.00000070
-0.29699007 -0.09689927 0.00000000
-0.24173971 -0.41430467 0.00000000
-0.63289064 -0.16449852 -0.00000100
-0.06344248 -0.74649745 0.00000000
-0.25036445 -0.63434488 0.00000000
-0.18145144 0.50298107 -0.00000025
-0.46830416 -0.34866175 0.00000000
-0.01236470 -0.65323299 0.00000000
-0.38446462 -0.26348168 0.00000000
-0.43867567 0.02086858 -0.00000049
-0.17359874 -0.69567245 0.00000000
-0.64393234 0.13940296 -0.00000158
0.36404082 -0.64693177 0.67046916
-0.23715414 0.01305244 0.00000000
-0.47175646 0.04672772 -0.00000068
-0.07819421 0.22463791 0.00000000
0.27520943 -0.68439430 0.50686556
-0.21962507 -0.21882756 0.00000000
-0.26438698 -0.36775398 0.00000000
-0.26741976 -0.30491021 0.00000000
-0.05966412 0.63201618 0.00000000
0.32733789 -0.75913155 0.60287261
-0.41569772 0.28186601 -0.00000086
-0.26523173 -0.54036146 0.00000000
-0.79973030 -0.73810065 -0.00000015
-0.00919400 0.25631592 0.00000000
-0.36375695 0.16402365 -0.00000043
-0.61564887 -0.73834229 0.00000000
-0.21416630 -0.43374285 0.00000000
-0.45300820 -0.49657533 0.00000000
0.34394690 -0.79475385 0.63346195
-0.61329877 -0.43060535 -0.00000044
-0.25317663 0.38283408 -0.00000034
-0.01884647 0.53581512 0.00000000
-0.24234204 -0.33613601 0.00000000
-0.78435284 -0.15417598 -0.00000161
-0.48853126 0.18803068 -0.00000100
-0.34309244 -0.58354211 0.00000000
-0.35607061 0.07890084 -0.00000024
-0.72322822 -0.77877307 -0.00000005
-0.38851500 -0.74794960 0.00000000
-0.64679450 -0.12335225 -0.00000113
-0.05716631 0.45534882 0.00000000
-0.01211770 -0.76298362 0.00000000
-0.42682114 -0.43861300 0.00000000
-0.41652501 -0.02365397 -0.00000032
-0.47134534 0.04541674 -0.00000068
-0.07196631 0.30311877 0.00000000
-0.66760993 -0.21340406 -0.00000106
-0.65897924 -0.54070687 -0.00000044
-0.21080945 -0.66757172 0.00000000
-0.20090482 -0.51609069 0.00000000
-0.51161748 0.22766577 -0.00000117
-0.20496494 -0.38013059 0.00000000
-0.44768402 -0.59267730 0.00000000
-0.77316332 -0.53093028 -0.00000067
-0.73475844 -0.75937778 -0.00000010
-0.41551518 -0.17958078 -0.00000004
-0.45393521 0.04644561 -0.00000061
-0.59837860 0.16711703 -0.00000143
-0.42003894 -0.77167386 0.00000000
-0.02427827 0.60845965 0.00000000
-0.56983042 -0.13824959 -0.00000077
-0.76821113 -0.54890579 -0.00000063
-0.49574894 -0.10252035 -0.00000052
-0.77164918 -0.64141428 -0.00000040
-0.13164900 0.54119456 -0.00000010
-0.39003733 0.16544387 -0.00000054
-0.32210067 0.16443150 -0.00000025
-0.45076826 -0.39606044 0.00000000
-0.67103601 -0.37521419 -0.00000079
-0.03860616 -0.72982407 0.00000000
-0.71169937 -0.34167472 -0.00000102
-0.47199377 -0.75844175 0.00000000
0.36334166 -0.68048412 0.66918159
-0.39778700 -0.37061411 0.00000000
-0.11129561 0.61589873 -0.00000015
-0.33197773 0.23637049 -0.00000042
-0.52836055 -0.39872640 -0.00000014
-0.20724761 -0.23473206 0.00000000
-0.00756854 -0.21982373 0.00000000
-0.18765742 -0.06669547 0.00000000
-0.29833663 -0.39435875 0.00000000
-0.06238199 0.67076397 -0.00000004
-0.11350158 -0.06752852 0.00000000
-0.53019309 0.17967112 -0.00000117
-0.13788906 -0.19257824 0.00000000
-0.30922189 -0.34885785 0.00000000
-0.60550338 -0.30479842 -0.00000063
-0.49683514 -0.70274043 0.00000000
-0.19001977 -0.04885655 0.00000000
-0.39832869 -0.10541890 -0.00000010
-0.22093558 -0.05540460 0.00000000
-0.15471406 0.63008416 -0.00000036
-0.58594859 -0.20460780 -0.00000072
-0.27698740 0.23443256 -0.00000018
-0.49832851 -0.01054316 -0.00000069
-0.68897718 -0.73686433 -0.00000016
-0.64988440 -0.46117333 -0.00000054
0.35294756 -0.77455038 0.65003872
-0.23609704 -0.38642818 0.00000000
-0.40735328 -0.26734903 0.00000000
-0.16677497 0.20939884 0.00000000
0.30206278 -0.70241094 0.55632252
-0.30342001 0.22165582 -0.00000027
-0.17655566 0.21287458 0.00000000
0.22657830 -0.78247607 0.41729942
-0.26616955 0.28835818 -0.00000023
-0.61036199 0.12582862 -0.00000141
-0.13131995 0.10751360 0.00000000
-0.62666190 -0.69616300 -0.00000003
-0.31377357 0.07015277 -0.00000005
-0.63968968 -0.38347706 -0.00000064
-0.50569171 -0.51902723 0.00000000
-0.37689233 -0.20421356 0.00000000
-0.59827584 -0.02549622 -0.00000109
-0.33577660 -0.48862985 0.00000000
0.32043383 -0.73944533 0.59015715
-0.04881463 -0.49304023 0.00000000
0.33199278 -0.74645454 0.61144561
-0.35984078 -0.26882803 0.00000000
-0.55948925 0.11212350 -0.00000117
-0.52488124 -0.72339356 0.00000000
-0.70238310 -0.15198591 -0.00000131
-0.15961038 0.45890999 -0.00000008
-0.26200312 -0.50949365 0.00000000
-0.02109133 -0.12906885 0.00000000
-0.43077591 -0.20774546 -0.00000006
-0.77315980 -0.23498614 -0.00000141
-0.00807552 -0.26458716 0.00000000
-0.19879425 0.50333935 -0.00000032
-0.21010819 0.49542299 -0.00000036
-0.49599528 -0.11562371 -0.00000050
-0.48465854 -0.51237184 0.00000000
-0.23190992 -0.22349890 0.00000000
-0.46783105 -0.20016357 -0.00000023
-0.04354448 0.56852448 0.00000000
-0.37226585 0.07318824 -0.00000030
-0.53290677 -0.19997673 -0.00000051
-0.11320227 -0.21942262 0.00000000
-0.23141941 0.06687539 0.00000000
-0.12283541 -0.11039277 0.00000000
-0.41608137 0.29553306 -0.00000088
0.31176722 -0.63252330 0.57419533
-0.05551889 0.27813038 0.00000000
-0.02026019 -0.74862391 0.00000000
-0.68328863 -0.23474161 -0.00000109
-0.72388732 -0.20979594 -0.00000130
-0.23284943 -0.35796300 0.00000000
-0.05557168 -0.15542902 0.00000000
0.37642798 -0.67615670 0.69328302
-0.61079174 -0.27049175 -0.00000071
-0.35848400 -0.65915108 0.00000000
-0.50176346 -0.46353358 0.00000000
-0.30358699 0.08411953 -0.00000003
-0.03775937 -0.75059533 0.00000000
-0.14199995 -0.73188758 0.00000000
-0.28270972 -0.29014152 0.00000000
-0.35913530 0.17728923 -0.00000043
-0.22149742 0.46695897 -0.00000036
-0.00253930 0.60873204 0.00000000
-0.18254840 -0.22286302 0.00000000
0.25809392 -0.66086018 0.47534314
-0.54104006 0.20952204 -0.00000127
-0.13111924 0.02666704 0.00000000
-0.32377830 -0.76163977 0.00000000
-0.37775385 -0.37269560 0.00000000
-0.74390680 -0.72033286 -0.00000020
-0.51713657 -0.05973983 -0.00000069
-0.74312425 -0.62352645 -0.00000044
-0.30658928 -0.77092886 0.00000000
-0.01538788 0.10219286 0.00000000
-0.15737508 0.50343496 -0.00000015
-0.33805630 0.15424722 -0.00000030
-0.66883314 -0.73448956 -0.00000014
-0.31522146 0.32987332 -0.00000051
-0.22150667 0.15330911 0.00000000
-0.54747015 0.04370471 -0.00000100
-0.00785235 -0.51947963 0.00000000
-0.05230357 0.73035139 -0.00000010
0.10636727 -0.73722976 0.19590138
-0.06447601 0.70681763 -0.00000011
-0.14327644 -0.60502964 0.00000000
-0.75047964 -0.27964261 -0.00000129
-0.71337956 -0.41850185 -0.00000089
-0.07069267 0.22509865 0.00000000
-0.49078274 -0.21531057 -0.00000030
-0.30998594 -0.42588332 0.00000000
-0.29989597 -0.74044889 0.00000000
-0.01578279 -0.76060140 0.00000000
-0.26793522 -0.04344056 0.00000000
-0.12448664 0.43549708 0.00000000
0.16119128 -0.77233690 0.29687324
-0.32491559 -0.39058688 0.00000000
-0.29389670 -0.48543423 0.00000000
-0.42570901 -0.73901427 0.00000000
-0.46080035 -0.41966256 0.00000000
-0.63560182 -0.26735139 -0.00000083
0.29576156 -0.73824555 0.54471737
-0.35321185 -0.66974604 0.00000000
-0.35260537 -0.59121239 0.00000000
-0.08479256 0.19231339 0.00000000
-0.77030951 -0.40860718 -0.00000098
-0.20600916 0.13266432 0.00000000
-0.21046479 0.37380379 -0.00000014
-0.58601367 -0.64701891 0.00000000
-0.35180166 -0.18772338 0.00000000
-0.39764774 -0.26745969 0.00000000
-0.50949335 -0.42224696 -0.00000001
-0.54061598 -0.36787707 -0.00000024
-0.79827631 -0.13787508 -0.00000166
-0.03171937 0.64532268 0.00000000
0.12098157 -0.79696763 0.22281718
-0.51425946 -0.29648975 -0.00000026
-0.42106205 -0.75171256 0.00000000
-0.71980286 -0.27033979 -0.00000118
-0.34683090 -0.63284934 0.00000000
-0.04060651 0.64224929 0.00000000
-0.25478587 -0.64122814 0.00000000
-0.40319809 -0.32549688 0.00000000
0.34539691 -0.59407425 0.63613206
-0.43714818 -0.07279783 -0.00000032
-0.25090244 0.20058703 -0.00000001
-0.05863507 0.01707954 0.00000000
-0.46291697 -0.73605287 0.00000000
0.33706066 -0.77128047 0.62077934
-0.08656994 -0.47081015 0.00000000
-0.34862366 -0.30963704 0.00000000
-0.22499406 -0.13963942 0.00000000
0.35471481 -0.58952230 0.65329307
0.34918207 -0.70616990 0.64310354
-0.22843406 -0.02814633 0.00000000
-0.54099780 -0.34016821 -0.00000029
-0.20352308 -0.09732358 0.00000000
-0.23909064 0.32977784 -0.00000019
-0.46402699 -0.23933148 -0.00000014
-0.23109992 -0.28440508 0.00000000
-0.48829639 0.03844039 -0.00000074
-0.02370023 0.14069089 0.00000000
-0.10647730 0.51232183 0.00000000
-0.13451232 -0.77533847 0.00000000
-0.31364340 0.19933803 -0.00000028
-0.20048440 0.14056481 0.00000000
-0.15653984 -0.37899411 0.00000000
-0.19587786 0.46164507 -0.00000024
-0.41996545 0.03498169 -0.00000044
-0.73918855 -0.69336665 -0.00000027
-0.42494687 0.27572653 -0.00000089
-0.49309409 -0.45308325 0.00000000
-0.21298411 0.31713614 -0.00000006
-0.24207181 -0.65512443 0.00000000
-0.21046124 -0.76865935 0.00000000
-0.24970070 0.50098073 -0.00000054
-0.41893166 -0.18380331 -0.00000005
-0.41620040 -0.17699419 -0.00000005
-0.48456895 -0.57342541 0.00000000
-0.24153405 -0.18065809 0.00000000
-0.25197947 0.38600266 -0.00000034
0.27892736 -0.66358459 0.51371300
-0.05838348 0.04956556 0.00000000
-0.04117545 0.00984643 0.00000000
0.25674742 -0.75285161 0.47286326
-0.00913940 0.51982862 0.00000000
-0.77264559 -0.18612717 -0.00000153
-0.28876790 -0.08248434 0.00000000
-0.40113738 -0.16505222 -0.00000001
-0.58139503 0.01482144 -0.00000109
-0.12013740 0.18264171 0.00000000
0.34896308 -0.76909602 0.64270037
-0.25169569 -0.28087714 0.00000000
-0.78238958 -0.38933623 -0.00000103
-0.17290772 0.20858283 0.00000000
-0.01176614 0.55678576 0.00000000
-0.38733801 0.11339047 -0.00000044
-0.54305953 -0.66565859 0.00000000
-0.75908482 -0.57045460 -0.00000057
-0.58981735 -0.13061842 -0.00000087
-0.59152400 0.10885915 -0.00000130
-0.26053160 -0.77628857 0.00000000
-0.01423314 0.49332395 0.00000000
-0.30658358 -0.66052908 0.00000000
-0.06351501 -0.24107544 0.00000000
-0.48835525 0.14116368 -0.00000092
-0.69026989 -0.28638622 -0.00000103
-0.26956519 0.02802305 0.00000000
-0.21793221 -0.64813441 0.00000000
-0.48185635 -0.63336885 0.00000000
-0.20725366 -0.75395495 0.00000000
-0.67986083 -0.10483575 -0.00000130
-0.60556597 -0.76683950 0.00000000
-0.50147057 -0.31260830 -0.00000017
-0.44167417 -0.73501283 0.00000000
-0.13540028 0.55766827 -0.00000015
-0.02171761 -0.37725568 0.00000000
-0.06132686 0.59071732 0.00000000
-0.32467833 0.41102758 -0.00000070
-0.72198266 -0.63305026 -0.00000042
-0.18054958 0.45418516 -0.00000016
-0.08743050 0.36787137 0.00000000
-0.04904033 -0.21215113 0.00000000
-0.70855415 0.06636157 -0.00000173
-0.50982857 -0.13331494 -0.00000053
-0.25983420 -0.02225012 0.00000000
-0.67966360 -0.41319892 -0.00000076
-0.31960511 -0.42316964 0.00000000
-0.05609135 -0.01235205 0.00000000
-0.39087486 -0.62024194 0.00000000
-0.35113314 -0.70859230 0.00000000
-0.19865610 0.06408971 0.00000000
-0.14282402 -0.46220937 0.00000000
-0.32420862 0.39540607 -0.00000067
-0.03621963 0.05331658 0.00000000
-0.20441236 0.10065286 0.00000000
-0.35437357 -0.30638391 0.00000000
-0.01673812 -0.01400281 0.00000000
-0.44303063 -0.12032970 -0.00000026
-0.67460841 0.02273750 -0.00000151
-0.41433129 -0.47643620 0.00000000
-0.76890481 -0.31466612 -0.00000121
-0.07851809 0.03389146 0.00000000
-0.44085962 0.21473387 -0.00000085
-0.06321964 -0.54451758 0.00000000
-0.73487020 0.04545452 -0.00000180
-0.56886536 -0.35860562 -0.00000038
-0.42338854 0.25021082 -0.00000084
-0.20971589 -0.16989598 0.00000000
-0.10760854 0.12178786 0.00000000
-0.50292850 0.19188979 -0.00000107
-0.17886414 0.56772578 -0.00000035
-0.70705992 -0.43073913 -0.00000084
-0.53876334 -0.18000351 -0.00000057
-0.63831562 -0.28467444 -0.00000081
-0.73669827 -0.39085910 -0.00000102
-0.10175501 0.44535547 0.00000000
-0.13042912 0.28634962 0.00000000
-0.30596113 -0.18069050 0.00000000
-0.48011571 -0.74456978 0.00000000
0.27291948 -0.72330934 0.50264806
-0.56495613 -0.65503979 0.00000000
0.33656967 -0.63877791 0.61987472
-0.25129455 -0.17551199 0.00000000
-0.14386320 0.37260804 0.00000000
-0.70634019 0.04379308 -0.00000168
-0.47940767 0.03214061 -0.00000069
-0.18375830 -0.54488856 0.00000000
-0.59848452 0.00747624 -0.00000115
-0.67246509 -0.09770006 -0.00000128
-0.22673747 -0.77139062 0.00000000
-0.60086268 -0.23742335 -0.00000073
-0.72182024 -0.04688574 -0.00000158
-0.20859088 0.46087971 -0.00000029
-0.26360634 -0.10953709 0.00000000
-0.37770796 -0.60401052 0.00000000
0.21513645 -0.71618438 0.39622647
-0.04105619 -0.72377259 0.00000000
-0.24273743 -0.46220651 0.00000000
-0.44197702 -0.36059630 0.00000000
-0.27960163 0.20887430 -0.00000015
0.19595718 -0.71511894 0.36090314
0.22572811 -0.72938937 0.41573358
-0.34363729 -0.39544690 0.00000000
-0.22059189 -0.16528130 0.00000000
-0.74508172 -0.07420989 -0.00000163
-0.73780084 -0.40498719 -0.00000099
-0.28739062 -0.58325005 0.00000000
-0.44032598 -0.43011886 0.00000000
-0.00791674 -0.77659553 0.00000000
-0.18264271 -0.42277604 0.00000000
-0.00328092 0.27997059 0.00000000
-0.06222279 0.59125829 0.00000000
-0.71517766 -0.59406006 -0.00000051
0.23104733 -0.74285316 0.42553025
-0.68649828 0.06790485 -0.00000164
-0.72629559 -0.25189683 -0.00000124
0.26352674 -0.70078909 0.48534903
-0.63910681 0.02147135 -0.00000135
-0.18754862 -0.21275097 0.00000000
-0.65485853 -0.77334917 -0.00000001
-0.00118472 0.26801011 0.00000000
-0.73446375 0.04012630 -0.00000179
-0.35285911 -0.76886064 0.00000000
-0.64292395 -0.21607234 -0.00000095
-0.35553700 -0.75241053 0.00000000
-0.77556270 -0.27323279 -0.00000132
-0.21952657 -0.42577517 0.00000000
-0.08357158 -0.39315876 0.00000000
-0.72607404 -0.16043343 -0.00000140
0.37258455 -0.64317119 0.68620437
-0.36413589 -0.43345726 0.00000000
-0.65145224 -0.73518091 -0.00000007
-0.19333494 0.42892182 -0.00000017
-0.19097669 0.26993552 0.00000000
-0.28917924 -0.14113989 0.00000000
-0.59183866 -0.21703835 -0.00000073
-0.25039378 0.09583899 0.00000000
-0.76260501 -0.01478109 -0.00000181
-0.25375500 0.40329319 -0.00000038
-0.79829097 -0.34232980 -0.00000114
-0.17096028 -0.32262713 0.00000000
-0.29030973 -0.47660157 0.00000000
-0.54948908 -0.40971765 -0.00000021
-0.37026429 -0.20138492 0.00000000
-0.59364974 -0.12904757 -0.00000089
-0.50193048 0.05404372 -0.00000082
-0.06925696 -0.55296224 0.00000000
-0.10269366 -0.04134171 0.00000000
-0.04787984 0.37087393 0.00000000
-0.79829198 -0.44099191 -0.00000090
-0.37869552 0.31306630 -0.00000076
-0.64631307 -0.34160903 -0.00000074
-0.01800214 -0.27955902 0.00000000
-0.67774034 0.04491202 -0.00000156
-0.02509616 -0.44744858 0.00000000
-0.08308864 -0.41577858 0.00000000
-0.07084095 0.12714183 0.00000000
0.24107246 -0.75254214 0.44399396
-0.13438235 -0.61726636 0.00000000
-0.20534778 0.45176566 -0.00000026
-0.59621263 -0.59950846 -0.00000007
-0.05045934 0.33057517 0.00000000
-0.76766658 -0.28457990 -0.00000129
-0.42135948 0.36050177 -0.00000102
-0.26112437 -0.46973681 0.00000000
-0.70843542 -0.36793864 -0.00000096
-0.62327582 -0.69877774 -0.00000001
-0.05573844 -0.40272567 0.00000000
-0.24740577 0.00881893 0.00000000
-0.03313133 0.54400402 0.00000000
-0.11187310 -0.32664728 0.00000000
-0.74022692 -0.14155997 -0.00000149
-0.16997474 0.10807672 0.00000000
-0.65548486 -0.45337346 -0.00000058
-0.45670146 -0.77012855 0.00000000
-0.09652562 0.42576343 0.00000000
-0.42976037 0.04039700 -0.00000049
-0.19923751 -0.49952647 0.00000000
-0.45963556 -0.38497141 0.00000000
-0.78322536 -0.16879247 -0.00000158
-0.70061749 -0.11449401 -0.00000137
0.25933838 -0.75003093 0.47763512
-0.39837229 -0.55758846 0.00000000
-0.78761750 -0.03634510 -0.00000188
-0.15576318 -0.59866291 0.00000000
-0.37431377 -0.22075757 0.00000000
-0.10527095 -0.73568004 0.00000000
0.29614243 -0.65029001 0.54541868
-0.16210447 0.53569800 -0.00000022
-0.06417924 -0.07335812 0.00000000
-0.09095251 0.25853345 0.00000000
-0.49803659 -0.22265983 -0.00000032
-0.19392698 -0.02899981 0.00000000
-0.72754914 -0.59233737 -0.00000052
-0.44121331 0.01033540 -0.00000049
-0.03951677 0.75233001 -0.00000008
-0.24548724 -0.70169610 0.00000000
-0.18131116 -0.33373594 0.00000000
-0.14015114 0.46427131 -0.00000000
-0.31106985 -0.21967632 0.00000000
-0.51505601 -0.22555546 -0.00000039
-0.76089954 -0.09885050 -0.00000166
-0.02255902 0.56492317 0.00000000
-0.79110134 -0.02959683 -0.00000191
-0.00238342 -0.38825828 0.00000000
-0.72631407 -0.01846374 -0.00000165
-0.41933516 -0.18047550 -0.00000006
-0.70832676 -0.13514230 -0.00000137
-0.43725035 0.23535655 -0.00000087
-0.06437635 -0.06099007 0.00000000
-0.52987576 0.09545245 -0.00000102
0.35179174 -0.76674408 0.64791000
-0.46004704 -0.13775876 -0.00000031
-0.71319807 -0.71931088 -0.00000020
-0.34170422 0.13503207 -0.00000028
-0.34593374 -0.32031509 0.00000000
-0.60991740 -0.78213447 0.00000000
-0.10191542 0.45682678 0.00000000
-0.25489593 -0.48365334 0.00000000
-0.60451704 -0.50963187 -0.00000026
-0.02871063 0.49780449 0.00000000
-0.78615344 -0.13522094 -0.00000166
-0.07099067 -0.29437825 0.00000000
-0.06253446 -0.64300978 0.00000000
-0.78534138 -0.69805914 -0.00000025
-0.78297335 -0.28109092 -0.00000130
-0.08120557 0.42141172 0.00000000
-0.03092075 -0.56613821 0.00000000
-0.70856375 0.06170470 -0.00000172
-0.75649172 -0.70251900 -0.00000024
-0.20893733 -0.11620542 0.00000000
-0.42520449 -0.02164721 -0.00000036
-0.31069279 0.42851764 -0.00000067
-0.48521763 -0.08985838 -0.00000050
-0.56911194 -0.36747792 -0.00000037
-0.13442291 -0.21599007 0.00000000
-0.68352187 -0.63364482 -0.00000038
0.14725633 -0.71621490 0.27120858
-0.43924662 0.23330973 -0.00000087
-0.36241823 -0.31612736 0.00000000
-0.10372152 0.47364879 0.00000000
-0.60955387 -0.12689647 -0.00000096
-0.25927010 0.35364291 -0.00000032
-0.66307938 -0.32221815 -0.00000085
-0.24033718 0.02461918 0.00000000
-0.27537546 -0.64324647 0.00000000
-0.76502138 -0.18300334 -0.00000153
-0.44701767 -0.74044639 0.00000000
-0.27494687 -0.10043382 0.00000000
-0.21937163 -0.56386119 0.00000000
-0.22862336 0.34928980 -0.00000018
-0.25295156 0.06528880 0.00000000
-0.00818597 0.35889196 0.00000000
-0.22152460 0.54157698 -0.00000049
-0.14535554 0.43055078 0.00000000
-0.45857853 -0.26484895 -0.00000007
0.24131674 -0.71901023 0.44444388
-0.23046902 -0.24955684 0.00000000
0.10965592 -0.77348900 0.20195824
-0.33144096 -0.36430371 0.00000000
-0.40566239 -0.63954496 0.00000000
-0.33638009 0.07348579 -0.00000015
-0.22015037 -0.40790191 0.00000000
-0.00998918 -0.74567926 0.00000000
-0.12188426 -0.73373383 0.00000000
-0.33052549 -0.50925070 0.00000000
-0.10433177 0.09577871 0.00000000
-0.23809849 0.28918022 -0.00000011
-0.01692852 -0.59348118 0.00000000
-0.07139071 0.52453274 0.00000000
-0.23706838 0.05281332 0.00000000
-0.37955713 -0.71395534 0.00000000
-0.25170135 -0.69779545 0.00000000
-0.48060307 0.12047775 -0.00000085
-0.71660990 -0.29602796 -0.00000112
-0.28712472 0.40468451 -0.00000053
-0.49929294 -0.41908690 0.00000000
-0.10552957 -0.45932439 0.00000000
-0.34347382 -0.53974009 0.00000000
-0.39247322 0.24728930 -0.00000070
-0.33864984 0.03180509 -0.00000009
-0.72271287 -0.33628258 -0.00000108
-0.17728902 0.56152654 -0.00000034
-0.38424760 -0.08175313 -0.00000008
-0.21038030 -0.30155623 0.00000000
-0.17860305 0.22125095 0.00000000
-0.22246322 -0.07549230 0.00000000
-0.22552770 -0.30159268 0.00000000
-0.39059061 -0.13052247 -0.00000002
0.37319857 -0.78799063 0.68733555
-0.15716590 -0.04961775 0.00000000
-0.11374281 -0.42260623 0.00000000
-0.46384710 -0.42068857 0.00000000
-0.06283439 -0.20560133 0.00000000
-0.74264514 -0.77633041 -0.00000006
-0.34427726 -0.37779188 0.00000000
-0.09234109 0.26578549 0.00000000
-0.37210926 0.17186780 -0.00000048
-0.05658257 0.58075446 0.00000000
-0.10168578 -0.21976414 0.00000000
-0.75426829 -0.33166376 -0.00000117
-0.27539533 0.20289943 -0.00000012
-0.42779359 0.18496174 -0.00000074
-0.26583782 -0.51334423 0.00000000
-0.10855602 -0.27248010 0.00000000
0.05306495 -0.77829647 0.09773211
-0.74517989 -0.59284067 -0.00000052
-0.25350082 -0.47426388 0.00000000
-0.14440054 0.01987507 0.00000000
-0.09480347 0.30083355 0.00000000
-0.52622157 0.27339020 -0.00000131
-0.47560689 -0.26727453 -0.00000014
-0.04486783 0.75470370 -0.00000011
0.34320715 -0.78319383 0.63209951
-0.75361389 -0.30459937 -0.00000124
-0.08162139 -0.24294698 0.00000000
-0.15271315 -0.47780168 0.00000000
-0.62093300 -0.14166065 -0.00000099
-0.12512164 0.17899255 0.00000000
-0.35744420 0.35372734 -0.00000074
-0.17877541 0.10756591 0.00000000
-0.11063753 -0.55375785 0.00000000
-0.18152834 -0.60693735 0.00000000
-0.61762601 -0.22032996 -0.00000083
-0.46761030 -0.74639064 0.00000000
0.15967564 -0.70966774 0.29408181
-0.36024630 -0.56952804 0.00000000
-0.73914033 -0.62508327 -0.00000044
-0.08975524 -0.24662308 0.00000000
-0.61732268 -0.01367720 -0.00000120
-0.09749338 -0.42531180 0.00000000
-0.24886423 -0.63428950 0.00000000
-0.35859883 0.08593198 -0.00000027
-0.26391265 0.10476011 0.00000000
-0.79143286 -0.39126062 -0.00000102
-0.48713699 0.19176555 -0.00000100
-0.29881629 -0.06315194 0.00000000
-0.34129721 -0.43325606 0.00000000
-0.08483124 0.30150393 0.00000000
-0.04467709 -0.49566594 0.00000000
-0.26595882 -0.03752669 0.00000000
-0.10792869 -0.69707960 0.00000000
0.24797875 -0.69794565 0.45671359
-0.06005643 0.39680609 0.00000000
-0.35294074 -0.52908760 0.00000000
-0.56696659 0.07360453 -0.00000114
-0.24009837 0.28032902 -0.00000011
-0.59227890 -0.71281666 0.00000000
-0.78254670 -0.07518895 -0.00000179
0.14059311 -0.79944229 0.25893664
-0.56950945 0.21740253 -0.00000140
-0.18612109 -0.47351930 0.00000000
-0.45709994 -0.70472616 0.00000000
-0.19271176 0.15695201 0.00000000
-0.25582430 -0.14305347 0.00000000
-0.48263681 -0.55072260 0.00000000
-0.37251118 0.35225973 -0.00000080
0.36232713 -0.64458477 0.66731298
-0.55722874 0.16450530 -0.00000125
-0.10869993 -0.74101025 0.00000000
-0.14456400 -0.40019739 0.00000000
-0.49353930 -0.25593835 -0.00000024
-0.50682485 -0.42053279 -0.00000001
-0.43115443 -0.52715844 0.00000000
-0.11975497 -0.44005802 0.00000000
-0.16350886 -0.59256220 0.00000000
-0.33954471 0.14221241 -0.00000029
-0.38378567 -0.19113223 0.00000000
0.09501492 -0.77078235 0.17499325
-0.07387719 -0.62979966 0.00000000
0.26188084 -0.74798483 0.48231769
-0.33747113 -0.68315339 0.00000000
-0.23012996 -0.45266974 0.00000000
-0.56202477 -0.31753382 -0.00000042
-0.05038214 0.26617765 0.00000000
-0.37773660 -0.45655993 0.00000000
-0.19831876 -0.10909522 0.00000000
-0.00776463 0.36294505 0.00000000
-0.34125879 -0.06396335 0.00000000
-0.12249931 -0.36373863 0.00000000
-0.14621155 0.04357388 0.00000000
-0.61077285 0.06919847 -0.00000131
-0.65013373 -0.13629469 -0.00000112
-0.56954050 -0.22474594 -0.00000062
-0.09394306 -0.34026483 0.00000000
-0.57380080 -0.20743062 -0.00000067
-0.32449967 -0.28640491 0.00000000
-0.06118678 -0.73271674 0.00000000
-0.06695218 -0.30690631 0.00000000
-0.75541359 -0.26717955 -0.00000133
-0.05008826 -0.46750301 0.00000000
-0.48511201 -0.52071369 0.00000000
-0.24769042 0.50719255 -0.00000054
-0.64060217 -0.10956369 -0.00000113
-0.78227097 -0.29656437 -0.00000126
-0.22183904 -0.13043195 0.00000000
-0.44994798 0.05575750 -0.00000060
-0.48183858 0.27065361 -0.00000112
-0.69477719 0.03599276 -0.00000161
-0.10638420 -0.25284612 0.00000000
-0.18188411 -0.69181561 0.00000000
-0.25487086 -0.29678664 0.00000000
0.11431348 -0.78180903 0.21053627
-0.39495850 -0.12046511 -0.00000006
-0.04042815 0.37628910 0.00000000
-0.01227339 -0.71056914 0.00000000
-0.79963785 -0.23330805 -0.00000142
-0.46159399 0.30482021 -0.00000109
-0.10416471 0.22674581 0.00000000
-0.30915344 -0.74619550 0.00000000
-0.45638847 -0.57854754 0.00000000
0.28637373 -0.72437036 0.52742732
0.37636846 -0.77955139 0.69317365
-0.37811491 -0.34264746 0.00000000
-0.10499527 0.67287773 -0.00000022
-0.04875553 0.70682311 -0.00000004
-0.70164758 -0.62826717 -0.00000043
-0.14835268 0.53876328 -0.00000017
-0.49229404 -0.23898469 -0.00000026
-0.43786919 0.18173829 -0.00000078
-0.23488688 -0.71464860 0.00000000
-0.12746121 -0.79018134 0.00000000
-0.00362858 0.26355261 0.00000000
-0.22546563 0.09189842 0.00000000
0.18480736 -0.78137529 0.34036800
-0.08209175 -0.62546366 0.00000000
0.04593376 -0.78027308 0.08459826
-0.01347558 -0.20242174 0.00000000
-0.27022296 -0.66292357 0.00000000
-0.51122558 -0.62437338 0.00000000
-0.08341784 -0.46138340 0.00000000
0.18165579 -0.76879966 0.33456364
-0.43234476 -0.59409904 0.00000000
-0.14206250 -0.39063951 0.00000000
-0.43906257 -0.24612989 -0.00000002
-0.35182768 -0.56946462 0.00000000
0.24383587 -0.73829859 0.44908345
-0.44296589 -0.40804246 0.00000000
-0.79031873 -0.00668266 -0.00000195
-0.08743331 0.67838585 -0.00000016
0.30239084 -0.64337826 0.55692661
-0.61603087 0.14469136 -0.00000147
-0.32856137 -0.15080482 0.00000000
-0.65679860 -0.04796470 -0.00000130
-0.00344944 -0.02353633 0.00000000
-0.28160569 -0.02579731 0.00000000
0.18093662 -0.69961149 0.33323908
-0.45277932 -0.71298051 0.00000000
0.30621186 -0.73073053 0.56396407
-0.41383892 -0.24220137 0.00000000
-0.28872967 -0.14247958 0.00000000
-0.07516362 -0.67657471 0.00000000
-0.21632449 -0.44339082 0.00000000
-0.67057776 -0.37387595 -0.00000079
-0.13652557 -0.59045351 0.00000000
-0.79334855 -0.28394660 -0.00000129
0.27412549 -0.66534138 0.50486922
-0.28778908 -0.74592203 0.00000000
-0.15587163 -0.44344872 0.00000000
-0.40366268 -0.24406658 0.00000000
-0.44819203 0.33574885 -0.00000109
-0.09357866 -0.06624815 0.00000000
-0.33741316 -0.18197601 0.00000000
-0.76526481 -0.49593601 -0.00000076
-0.08096650 0.06267889 0.00000000
-0.58276451 -0.45690444 -0.00000027
-0.61876529 -0.45700490 -0.00000042
-0.03798660 0.32414341 0.00000000
0.20836863 -0.75865495 0.38376185
-0.11963515 -0.10361564 0.00000000
-0.07292222 0.14532523 0.00000000
-0.10535429 0.48959762 0.00000000
-0.20207419 0.54396266 -0.00000041
-0.35908410 -0.11566126 0.00000000
0.36716387 -0.74167407 0.67622119
-0.05381092 0.48054934 0.00000000
-0.25738278 -0.07559302 0.00000000
0.13265996 -0.76175743 0.24432580
-0.18522628 -0.40831074 0.00000000
-0.76541430 -0.55003113 -0.00000062
-0.14678577 -0.11133783 0.00000000
0.31381950 -0.67251897 0.57797515
-0.67027253 0.10150703 -0.00000163
-0.45325619 0.03489570 -0.00000058
-0.25533023 0.28100783 -0.00000017
-0.37102529 0.28626063 -0.00000068
-0.27649859 0.48686105 -0.00000063
-0.02089395 0.05456636 0.00000000
-0.49483797 -0.68690473 0.00000000
0.35680881 -0.68030924 0.65714985
-0.09117381 -0.29507267 0.00000000
0.25735980 -0.74946046 0.47399110
-0.30510589 0.06807552 -0.00000001
-0.19639958 0.47461241 -0.00000026
-0.40730485 -0.56589204 0.00000000
0.14263922 -0.78756911 0.26270506
-0.60058039 -0.73115802 0.00000000
-0.20292751 -0.46851894 0.00000000
-0.42184874 0.12640248 -0.00000061
-0.63024068 -0.28838301 -0.00000077
-0.79370093 0.00019264 -0.00000197
-0.62327945 -0.51693004 -0.00000033
-0.14300200 0.34216511 0.00000000
-0.33943129 -0.73696429 0.00000000
-0.34500948 -0.67505741 0.00000000
-0.40672970 0.06358943 -0.00000043
-0.52415121 0.08357018 -0.00000097
-0.73920256 -0.73408222 -0.00000016
-0.66059113 -0.34446645 -0.00000080
-0.06584182 -0.13066746 0.00000000
-0.12687358 -0.59375674 0.00000000
-0.01372634 -0.72780979 0.00000000
-0.00447709 0.37955832 0.00000000
-0.09512671 -0.77102447 0.00000000
-0.36282030 0.04196128 -0.00000021
-0.08363175 -0.29652441 0.00000000
-0.11668513 0.52036184 -0.00000000
-0.59052879 -0.39584115 -0.00000041
-0.22643770 -0.35060146 0.00000000
-0.76310253 -0.38203099 -0.00000104
-0.57215303 -0.47378439 -0.00000019
0.12637509 -0.72399127 0.23275070
-0.33141389 0.36713785 -0.00000065
-0.24181609 -0.23800087 0.00000000
-0.04436820 -0.24201067 0.00000000
-0.44820130 -0.29779580 0.00000000
-0.64276737 -0.05199702 -0.00000124
-0.36866546 -0.15984039 0.00000000
-0.04929450 0.38279420 0.00000000
-0.52761400 0.11837993 -0.00000105
-0.68538684 -0.63528478 -0.00000039
0.15819450 -0.76143605 0.29135391
-0.48376226 -0.34552181 -0.00000004
0.03208182 -0.79600739 0.05908653
-0.39986891 -0.24908364 0.00000000
-0.69972056 -0.13110393 -0.00000134
-0.12084816 -0.68510789 0.00000000
-0.20697857 -0.06988789 0.00000000
-0.24967244 -0.43376774 0.00000000
-0.77710420 -0.62434065 -0.00000044
-0.38553265 -0.36420509 0.00000000
-0.02974328 0.66325921 0.00000000
-0.15126535 0.54737836 -0.00000020
-0.47738487 -0.21186043 -0.00000025
-0.03712987 0.27587107 0.00000000
-0.36251342 -0.32419625 0.00000000
-0.61256790 -0.23913684 -0.00000078
-0.33419803 -0.24162368 0.00000000
-0.22160549 -0.24953319 0.00000000
-0.31567806 -0.12009674 0.00000000
-0.02929838 -0.68499064 0.00000000
0.25104678 -0.77768576 0.46236414
-0.23815210 0.12630865 0.00000000
-0.52939391 -0.59150612 0.00000000
0.29103208 -0.71327507 0.53600687
-0.59791166 -0.68195176 0.00000000
-0.47845250 -0.55898839 0.00000000
-0.26495236 -0.78276223 0.00000000
-0.70366800 0.04642781 -0.00000167
-0.56734878 -0.27555346 -0.00000052
-0.69100177 -0.01401302 -0.00000151
-0.54021573 -0.43450224 -0.00000012
-0.50201625 -0.12695684 -0.00000050
-0.10956916 0.28506529 0.00000000
-0.29551551 0.36610785 -0.00000049
-0.21256538 0.04256563 0.00000000
-0.25564864 -0.34742504 0.00000000
-0.31612527 -0.34277406 0.00000000
-0.20687799 -0.15023789 0.00000000
0.32102194 -0.78866696 0.59124041
-0.16963506 0.60621530 -0.00000038
-0.33832538 -0.60081822 0.00000000
-0.42100957 -0.47078064 0.00000000
-0.03195468 -0.52892488 0.00000000
-0.40670741 -0.30546290 0.00000000
-0.50008082 -0.49655363 0.00000000
-0.18390827 -0.16605014 0.00000000
-0.46369681 -0.38894030 0.00000000
-0.03211204 0.41634226 0.00000000
-0.09235669 -0.57918638 0.00000000
-0.17028522 0.13370562 0.00000000
-0.01662398 -0.58631182 0.00000000
-0.66701114 -0.60489595 -0.00000036
-0.26542193 -0.63095051 0.00000000
0.21030995 -0.72248369 0.38733727
-0.46586424 -0.67893970 0.00000000
-0.24094892 -0.61443305 0.00000000
-0.05910173 0.14313114 0.00000000
-0.10436449 -0.67857152 0.00000000
-0.07785111 -0.30686778 0.00000000
-0.33672392 -0.38227394 0.00000000
-0.05043208 0.06642013 0.00000000
-0.69026887 -0.43083838 -0.00000077
-0.10545420 -0.01423760 0.00000000
-0.17237787 -0.18105876 0.00000000
0.24843507 -0.78320807 0.45755401
0.26905215 -0.71295589 0.49552542
0.36986607 -0.62206513 0.68119764
-0.36923882 -0.39580652 0.00000000
-0.15984619 0.18738443 0.00000000
-0.07078304 -0.20521750 0.00000000
-0.62175953 0.00176843 -0.00000124
-0.64446235 -0.17695467 -0.00000102
-0.00334890 0.44661775 0.00000000
-0.06385116 -0.40902549 0.00000000
-0.05410311 0.53291094 0.00000000
-0.10056538 -0.79270130 0.00000000
-0.02766052 -0.62823987 0.00000000
-0.55836636 -0.52833915 -0.00000003
-0.39610904 -0.02969620 -0.00000022
-0.27555567 -0.39132237 0.00000000
-0.16903992 0.45710376 -0.00000012
-0.59686571 -0.16436905 -0.00000084
-0.15740892 -0.35481834 0.00000000
-0.20619446 0.14855836 0.00000000
-0.60097748 -0.65027040 -0.00000000
-0.54466212 0.02872784 -0.00000096
-0.33051512 0.07588321 -0.00000013
-0.33386153 -0.58667070 0.00000000
-0.45496234 -0.00608021 -0.00000052
-0.03710516 -0.50681800 0.00000000
-0.24949332 0.50217801 -0.00000054
-0.01825783 -0.17417440 0.00000000
-0.25642231 -0.05600539 0.00000000
-0.06687542 -0.66379982 0.00000000
-0.21678109 -0.04664197 0.00000000
0.31286985 -0.64052063 0.57622606
-0.78775197 -0.27891439 -0.00000130
-0.08515671 0.35143828 0.00000000
-0.68428057 -0.60400510 -0.00000044
