ply
format ascii 1.0
element vertex 1044
property float x
property float y
property float z
end_header
-0.37135828 -0.48364362 0.00000300
-0.20716308 -0.34893814 0.00000184
-0.36591277 -0.07810579 -0.00991120
-0.26244649 -0.51915216 0.00000216
-0.28122556 -0.35087004 0.00000240
-0.02918290 -0.67661715 0.00000030
-0.19877455 -0.23195900 0.00000185
-0.11944084 0.36074504 0.00000380
-0.52038825 -0.30307421 -0.28823116
-0.07876076 -0.05770703 0.00000106
-0.57073987 -0.56837893 -0.01783818
-0.19843814 -0.53677559 0.00000166
-0.23938417 -0.20367965 0.00000218
-0.59775919 -0.60945350 -0.06327374
-0.18718553 -0.74921316 0.00000144
-0.03161155 -0.43597531 0.00000047
-0.20977229 -0.59798497 0.00000171
-0.33361974 -0.06250858 0.00000298
-0.41485289 -0.09834062 -0.19409195
-0.41516921 -0.17181958 -0.05731240
-0.00268961 -0.05544595 0.00000049
-0.13681646 -0.24470238 0.00000138
-0.27190375 -0.03746789 0.00000253
-0.34558746 -0.03434138 0.35255888
-0.49330893 -0.32128334 -0.13100876
-0.33753720 0.05896267 -0.13887788
-0.34726202 -0.00928221 -0.05466524
-0.06630942 0.28165087 0.00000633
-0.24342309 -0.36487624 0.00000211
-0.09944191 -0.19866617 0.00000113
-0.16446352 0.34109136 0.00000284
-0.05424520 -0.29505900 0.00000072
-0.31860936 -0.41707444 0.00000264
-0.07477090 -0.22635195 0.00000092
-0.11626066 -0.32986084 0.00000117
-0.57941955 -0.77351671 0.00000439
-0.26638559 -0.23373143 0.00000236
-0.01338182 -0.35622016 0.00000038
-0.26028416 0.17299707 -0.00256164
-0.40285611 -0.50122249 0.00000323
-0.27455044 -0.17276049 0.00000246
-0.24359865 0.30951166 -0.18358628
-0.04597016 0.62043142 0.00000222
-0.32316712 0.04589893 -0.04904528
-0.50122094 -0.22695000 -0.34438190
-0.19473733 -0.11470161 0.00000190
-0.48703334 -0.27891752 -0.18220191
-0.53356111 -0.30442211 -0.34551615
-0.22205263 0.32523754 -0.11532205
-0.37996256 -0.25025800 0.00000321
-0.26198116 0.22762872 -0.11303589
-0.17928924 -0.37025994 0.00000162
-0.01220324 -0.02508272 0.00000058
-0.55202645 -0.60330719 0.00000429
-0.26915553 0.20795496 -0.10860835
-0.38372427 -0.23743591 0.00000325
-0.04891207 -0.05443353 0.00000083
-0.48825490 -0.23146968 -0.27699998
-0.32253718 -0.53234524 0.00000260
-0.02981410 -0.75395358 0.00000025
-0.38370910 -0.02216812 -0.19594134
-0.39962700 -0.23734938 0.00000337
-0.15340739 -0.30076450 0.00000147
-0.43677905 -0.68942738 0.00000336
-0.43134093 -0.42942354 0.00000349
-0.44047403 -0.11180100 -0.28512141
-0.69225407 -0.81858283 -0.09901108
-0.48013729 -0.26271862 -0.18135668
-0.22355466 -0.03527862 0.00000216
-0.35886484 -0.05410007 -0.02306118
-0.03378641 -0.79663944 0.00000026
-0.41812825 -0.45683625 0.00000337
-0.13511831 -0.57328075 0.00000116
-0.35781074 -0.46434951 0.00000291
-0.42453223 -0.38368765 0.00000346
-0.32065073 -0.15610842 0.00000282
-0.45157877 -0.42735809 0.00000364
-0.35946500 -0.01262029 -0.10380292
-0.14494760 0.48465356 -0.06504554
-0.19684812 -0.67943263 0.00000156
-0.09915802 -0.52240527 0.00000092
-0.31920737 -0.75325316 0.00000244
-0.10349249 -0.21884444 0.00000114
-0.40346852 -0.02872893 -0.27333257
-0.07490959 -0.16231297 0.00000096
-0.41307235 -0.59877419 0.00000324
-0.31940508 -0.36387122 0.00000268
-0.25260288 -0.58428591 0.00000204
-0.25690308 -0.57355094 0.00000208
-0.04453474 0.49581897 0.00000397
-0.34766600 -0.03935495 0.29670960
-0.00003672 0.38851726 0.00000666
-0.28192213 -0.64415669 0.00000222
-0.20154199 -0.67298013 0.00000160
-0.32543144 -0.54985011 0.00000261
-0.41187176 -0.19435205 0.00774408
-0.34979603 -0.58067447 0.00000278
-0.18261918 -0.39992428 0.00000163
-0.07697447 -0.16857538 0.00000098
-0.33866867 0.02923379 -0.08809315
-0.02190746 -0.62523848 0.00000027
-0.47370517 -0.24277464 -0.18966287
-0.31957448 -0.02854123 0.00000289
-0.22244769 0.35585248 -0.17470604
-0.27375510 -0.16543701 0.00000246
-0.14204326 -0.10491059 0.00000151
-0.25798789 -0.04769773 0.00000242
-0.41432545 -0.70856154 0.00000318
-0.11225036 0.53197777 -0.00558040
-0.20081636 0.37585509 -0.11409937
-0.08825730 0.41780260 0.00000386
-0.21082067 -0.32900736 0.00000188
-0.31017399 0.09842253 -0.08884232
-0.13732184 0.09038204 0.00000703
-0.45558739 -0.28970322 -0.01911378
-0.45343196 -0.13830177 -0.29411626
-0.21177688 0.38565171 -0.18230240
-0.18007530 0.41734624 -0.09795781
-0.46110475 -0.11391824 -0.37482420
-0.30458418 -0.78386486 0.00000231
-0.29842144 -0.44079739 0.00000248
-0.37843770 -0.71570146 0.00000291
-0.25058126 0.30035129 -0.19806457
-0.26991779 0.22832771 -0.15039316
-0.26068693 -0.28006944 0.00000229
-0.31441972 -0.26298502 0.00000271
-0.59742951 -0.51493949 -0.23956174
-0.28456363 -0.19746642 0.00000252
-0.19817781 -0.41442218 0.00000174
-0.31098202 -0.39221531 0.00000260
-0.06789743 -0.79906148 0.00000051
-0.11684401 0.57171512 -0.10119142
-0.08833300 0.35487634 0.00000472
-0.38465717 -0.04778869 -0.15205918
-0.12020970 -0.27872041 0.00000123
-0.43284154 -0.13689923 -0.20325084
-0.07190759 0.62639564 0.07399033
-0.15488029 0.43576741 -0.01819263
-0.22243477 0.04853169 0.00000529
-0.46916530 -0.27183437 -0.11438450
-0.54671323 -0.50182569 -0.03391877
-0.49190378 -0.31611657 -0.13434666
-0.13983411 -0.34585994 0.00000134
-0.18161587 -0.10409411 0.00000181
-0.04021576 -0.30307350 0.00000061
-0.23301254 -0.49277878 0.00000195
-0.18596081 0.43845829 -0.16439939
-0.05643998 -0.08925766 0.00000087
-0.49553171 -0.24650630 -0.28176051
-0.38910669 -0.09864183 -0.07660880
-0.22117326 -0.36574015 0.00000194
-0.11874601 0.35995001 0.00000383
-0.03075971 -0.01285346 0.00000072
-0.05858976 0.67438865 -0.02978280
-0.45739886 -0.59982085 0.00000358
-0.46234259 -0.12034389 -0.36835983
-0.17881924 -0.25244173 0.00000169
-0.22443008 0.18525524 0.00000336
-0.42100173 -0.21037956 -0.01126619
-0.39606285 -0.09558202 -0.11395310
-0.44170004 -0.55939466 0.00000348
-0.02826901 0.30512783 0.00000704
-0.17014688 -0.63626707 0.00000139
-0.15092298 0.47980052 -0.08305227
-0.58721507 -0.66697299 0.00000451
-0.47588947 -0.29082906 -0.10919027
-0.39968804 -0.04001570 -0.23493278
-0.26314363 0.25485790 -0.16953588
-0.08382249 -0.77064341 0.00000065
-0.12019036 -0.33319473 0.00000120
-0.27620882 -0.42536408 0.00000232
-0.20512775 -0.75600582 0.00000158
-0.41942933 -0.49079177 0.00000336
-0.16056326 -0.78855520 0.00000122
-0.18944524 0.41363281 -0.13352379
-0.14754161 0.00425645 0.00000793
-0.05663456 0.12374873 0.00000876
-0.51313269 -0.29529619 -0.26991352
-0.63103437 -0.63892728 -0.15894093
-0.32485861 0.05645932 -0.07659189
-0.30300149 -0.07992673 0.00000274
-0.15879022 0.42521560 -0.01609964
-0.19413780 -0.16226050 0.00000186
-0.18980344 0.00156841 0.00000682
-0.39855161 -0.33675951 0.00000330
-0.37731111 -0.07944151 -0.05915990
-0.58508027 -0.49230891 -0.22605032
-0.33677793 0.14088564 -0.28953528
-0.61662114 -0.70114660 0.00000471
-0.42655686 -0.38308665 0.00000348
-0.25082520 -0.57389492 0.00000203
-0.61623806 -0.61238235 -0.14167984
-0.05159498 -0.50182223 0.00000058
-0.27741414 -0.67149127 0.00000217
-0.50918418 -0.30069423 -0.24182890
-0.24206793 0.10811671 0.00000394
-0.34900674 0.08581714 -0.24148013
-0.47818008 -0.23873600 -0.21758072
-0.39117318 0.02431824 -0.31728330
-0.18473741 -0.03263216 0.00000187
-0.29755890 0.18278265 -0.19024388
-0.36873409 -0.09021771 0.30164260
-0.13200915 -0.41912538 0.00000123
-0.28451419 -0.16760752 0.00000254
-0.25359806 -0.49009815 0.00000211
-0.40383729 -0.16569200 -0.01737894
-0.45767674 -0.41207933 0.00000370
-0.15096408 0.49797001 -0.11741754
-0.00121785 -0.32902175 0.00000030
-0.07479409 0.08570465 0.00000879
-0.13361196 -0.07602971 0.00000146
-0.03801862 -0.77915186 0.00000030
-0.27915516 -0.36219180 0.00000238
-0.47062114 -0.12756321 -0.39237392
-0.03568686 -0.66784620 0.00000035
-0.09822385 -0.40023673 0.00000099
-0.09888943 0.45528227 0.00000305
-0.32214710 0.09668696 -0.13995060
-0.06539827 0.66434103 -0.04180147
-0.27372256 -0.66504902 0.00000215
-0.21473688 -0.32698748 0.00000192
-0.22700247 0.33077624 -0.14821947
-0.35259303 0.00210752 -0.10030006
-0.16263391 0.41185877 -0.00842930
-0.03037709 -0.12999377 0.00000065
-0.01699843 0.37006354 0.00000645
-0.40646401 -0.04745104 -0.25171769
-0.06908646 -0.13976976 0.00000093
-0.11880248 0.45320499 0.00000254
-0.02552745 -0.20218688 0.00000057
-0.13956487 0.48104584 -0.03381463
-0.01966047 -0.08690846 0.00000059
-0.36129278 -0.78034312 0.00000274
-0.28281063 -0.55694336 0.00000229
-0.48445442 -0.76469386 0.00000368
-0.34529531 -0.61488879 0.00000272
-0.17890510 0.45031944 -0.15466955
-0.24730241 -0.20008445 0.00000224
-0.47085181 -0.49580130 0.00000374
-0.14589906 0.24272230 0.00000470
-0.35654587 -0.05155493 -0.01731791
-0.49095601 -0.37907580 -0.01161450
-0.01565840 -0.54340017 0.00000028
-0.06320751 0.42753896 0.00000440
-0.14858855 0.44127697 0.02709504
-0.19082698 0.42473626 -0.16068539
-0.44241285 -0.67920852 0.00000341
-0.41605303 -0.05576815 -0.27961862
-0.02370173 -0.06618291 0.00000064
-0.04778524 -0.01908770 0.00000085
-0.28410035 -0.32745501 0.00000244
-0.59741044 -0.57148874 -0.13310280
-0.25034049 -0.36441162 0.00000216
-0.39639553 -0.52944124 0.00000316
-0.01945472 0.53764397 0.00000408
-0.67786276 -0.79461998 -0.07873236
-0.59603781 -0.56965786 -0.13031349
-0.03255279 -0.65309638 0.00000034
-0.30924553 -0.55749506 0.00000248
-0.28944957 -0.18666016 0.00000257
-0.55726391 -0.44449821 -0.18966547
-0.06470444 0.27463740 0.00000647
-0.08346446 0.10548073 0.00000828
-0.37620252 -0.07317538 -0.06591245
-0.41356131 -0.19843166 0.02222641
-0.01232858 -0.01688560 0.00000058
-0.35860372 -0.51670802 0.00000288
-0.30345157 -0.34573185 0.00000257
-0.14002028 0.46195847 0.07689914
-0.18583493 -0.25125405 0.00000174
-0.37923241 -0.55194813 0.00000302
-0.45177501 -0.25168458 -0.07331543
-0.24783701 -0.04409393 0.00000234
-0.53117663 -0.37499270 -0.20194170
-0.44454926 -0.11342980 -0.30056369
-0.09745827 0.59385419 -0.05480145
-0.45489293 -0.09300458 -0.38595542
-0.08852141 -0.00215415 0.00000117
-0.62174934 -0.61780846 -0.15650114
-0.62947649 -0.61452216 -0.19777369
-0.01233042 -0.19400416 0.00000047
-0.18157563 0.20959798 0.00000419
-0.33160949 -0.19583772 0.00000288
-0.42576399 -0.15282042 -0.14116257
-0.13580965 -0.16131514 0.00000142
-0.01510116 0.46044654 0.00000526
-0.29690906 -0.55743158 0.00000239
-0.15023762 -0.29056987 0.00000145
-0.29127330 -0.21089771 0.00000257
-0.00868366 -0.46850872 0.00000027
-0.24849579 0.10330967 0.00000383
-0.59403557 -0.49620941 -0.25938141
-0.41552737 -0.18993503 -0.02486317
-0.35580438 -0.77920604 0.00000270
-0.20891151 0.34520197 -0.09319991
-0.14046971 -0.12850326 0.00000148
-0.60494626 -0.64745146 -0.02443582
-0.08144107 -0.40877444 0.00000086
-0.49971882 -0.19730300 -0.39332777
-0.29156619 -0.67853951 0.00000228
-0.31713954 -0.43045434 0.00000262
-0.02780417 -0.41431221 0.00000045
-0.04963519 -0.64350706 0.00000047
-0.41060734 -0.21165667 0.00000347
-0.32819518 -0.42166105 0.00000271
-0.00241388 -0.21981359 0.00000035
-0.51711893 -0.27094451 -0.33382171
-0.36688277 -0.22523248 0.00000313
-0.47984937 -0.35847110 0.13575529
-0.45655379 -0.29186586 -0.01943427
-0.49244109 -0.51502025 0.00000389
-0.05440022 -0.03246279 0.00000089
-0.15436172 -0.21230973 0.00000153
-0.12230071 -0.30437276 0.00000123
-0.36519876 -0.08168683 0.35334381
-0.56700087 -0.51408201 -0.10299299
-0.29601216 -0.75328135 0.00000226
-0.39905310 -0.40409234 0.00000326
-0.17289270 0.03247221 0.00000686
-0.54249221 -0.43155095 -0.14693952
-0.66444802 -0.79537654 -0.01638960
-0.45851263 -0.67494130 0.00000354
-0.21122459 -0.77444571 0.00000161
-0.48238489 -0.36459875 0.27777264
-0.44634941 -0.73950201 0.00000341
-0.45382631 -0.20642343 -0.16776823
-0.48617277 -0.19674578 -0.33286139
-0.19637582 0.38011983 -0.10195607
-0.04571706 -0.56563985 0.00000049
-0.31329954 0.16584909 -0.22987252
-0.02017865 0.57501054 0.00000355
-0.09847018 -0.67075872 0.00000082
-0.44114900 -0.15081558 -0.21479890
-0.17862391 -0.01531767 0.00000184
-0.47206005 -0.17416529 -0.31124830
-0.43635973 -0.20409790 -0.09282465
-0.56026322 -0.55260438 0.04708579
-0.01721092 0.10432071 0.00001010
-0.09589432 -0.32818788 0.00000102
-0.47027162 -0.14786157 -0.35260493
-0.38044971 0.01589893 -0.25274765
-0.21310189 0.34718135 -0.11595298
-0.30656371 -0.67194170 0.00000239
-0.67514277 -0.76670337 -0.11889303
-0.44091776 -0.12092538 -0.26997319
-0.02834635 -0.09688551 0.00000065
-0.08032154 -0.52989841 0.00000077
-0.02579473 0.38915035 0.00000595
-0.46236983 -0.67174113 0.00000357
-0.43737552 -0.75471085 0.00000333
-0.40941203 -0.13197812 -0.10611120
-0.14906171 0.20855068 0.00000508
-0.11923789 0.40790385 0.00000315
-0.50992388 -0.76969266 0.00000387
-0.40239757 -0.32830852 0.00000333
-0.45270368 -0.79118156 0.00000342
-0.32358861 -0.06444134 0.00000290
-0.22361763 0.27476880 -0.02749231
-0.04956552 -0.76730388 0.00000039
-0.44186908 -0.06191743 -0.38528875
-0.48232830 -0.35702035 -0.01392203
-0.34362319 0.09613551 -0.23644190
-0.34753728 -0.66639078 0.00000271
-0.19630347 -0.31018731 0.00000179
-0.15572511 -0.62069315 0.00000129
-0.14386907 0.46511894 -0.02340100
-0.05498374 -0.05381941 0.00000088
-0.13215211 -0.73045164 0.00000104
-0.25265986 0.24750537 -0.10809539
-0.59708786 -0.56894600 -0.13642097
-0.09001320 0.36002100 0.00000461
-0.65824962 -0.76010436 -0.05459023
-0.16033620 0.44177860 -0.05427707
-0.34862301 0.09150178 -0.25043082
-0.45093343 -0.16763498 -0.22759350
-0.26329249 0.17296883 -0.01617022
-0.18334281 0.35737228 0.04378743
-0.23698501 -0.73561805 0.00000183
-0.05977545 0.10303482 0.00000896
-0.20018232 0.25280115 0.00000309
-0.20211805 0.38358635 -0.13455398
-0.41793931 -0.15868057 -0.09460662
-0.36068809 -0.03459579 -0.06802890
-0.37994519 -0.11729019 0.38741496
-0.32102367 -0.16234235 0.00000282
-0.34027192 -0.40491417 0.00000281
-0.05217764 0.10928932 0.00000908
-0.41333407 -0.04698764 -0.28378811
-0.17461941 0.37842846 0.09175737
-0.67293108 -0.79948115 -0.04719220
-0.34610042 -0.00067388 -0.06558325
-0.44232953 -0.08081900 -0.35182390
-0.16469423 -0.07771791 0.00000169
-0.21829739 -0.55359745 0.00000180
-0.13910291 -0.29065385 0.00000137
-0.37469706 -0.12529482 0.00000325
-0.18286692 0.41098031 -0.09866030
-0.22287343 0.27219704 -0.01927499
-0.28989589 0.22892889 -0.24224986
-0.66643155 -0.80891645 0.07808335
-0.56529957 -0.67171019 0.00000434
-0.66714948 -0.80159283 -0.01696441
-0.38306043 -0.12480230 0.17239682
-0.64194947 -0.71715516 -0.06135753
-0.36383995 0.01673887 -0.17889833
-0.06840024 -0.19586200 0.00000089
-0.15685020 -0.38179702 0.00000144
-0.01427059 -0.66809076 0.00000019
-0.41033930 -0.19066978 0.39889917
-0.60749388 -0.66077900 -0.01093543
-0.01739904 0.14403079 0.00000955
-0.34126374 0.06174232 -0.16102982
-0.19567351 0.37350991 -0.08633278
-0.46432036 -0.57529497 0.00000364
-0.05461540 0.14071159 0.00000858
-0.16428591 -0.01026759 0.00000173
-0.21657036 0.11660222 0.00000451
-0.42219916 -0.71798402 0.00000324
-0.33040774 -0.68428171 0.00000257
-0.42279428 -0.07279708 -0.27819923
-0.46997067 -0.51362926 0.00000372
-0.19535673 -0.09432123 0.00000191
-0.42598495 -0.13981903 -0.16662194
-0.26678598 -0.44974449 0.00000223
-0.26648286 -0.44978261 0.00000223
-0.42851886 -0.36061743 0.00000351
-0.42594558 -0.27280176 0.00000354
-0.48965609 -0.39674589 0.00000395
-0.13224880 0.22702283 0.00000529
-0.13998932 0.26402736 0.00000457
-0.42570168 -0.53016984 0.00000338
-0.09926741 -0.31742600 0.00000105
-0.49220687 -0.32538202 -0.11829438
-0.03879439 0.33395168 0.00000635
-0.60878634 -0.59770757 -0.13544405
-0.10843922 -0.11206319 0.00000125
-0.32021382 -0.07004291 0.00000287
-0.03245298 0.47303787 0.00000461
-0.05347453 0.55320162 0.00000294
-0.40057892 -0.20778540 0.00000339
-0.35240856 -0.34395480 0.00000294
-0.26683074 -0.01081300 0.00000251
-0.32629097 0.04363780 -0.05897804
-0.02235723 0.24408524 0.00000804
-0.37402394 -0.07972749 -0.04369461
-0.31519732 0.15280403 -0.21395175
-0.36008593 0.08969751 -0.29909301
-0.08716573 0.24693792 0.00000624
-0.30074847 -0.29681736 0.00000258
-0.44320425 -0.20421208 -0.12369169
-0.00138604 0.41853127 0.00000621
-0.29525414 0.21901804 -0.24793980
-0.01174419 0.55173200 0.00000409
-0.15621220 0.43332452 -0.01964587
-0.50416547 -0.53047001 0.00000397
-0.13403741 0.04191107 0.00000778
-0.20250539 -0.27147216 0.00000186
-0.05945496 -0.22999966 0.00000080
-0.48170450 -0.16551626 -0.37131411
-0.46334454 -0.18403979 -0.25309592
-0.30165282 0.13577218 -0.12040387
-0.28564119 0.12047421 -0.01891385
-0.45405510 -0.47627354 0.00000363
-0.17722788 0.33699954 0.00000255
-0.09865944 -0.28916302 0.00000106
-0.42275161 -0.32566458 0.00000349
-0.36508340 -0.48101929 0.00000295
-0.22240588 -0.25882569 0.00000202
-0.30819216 -0.68692791 0.00000240
-0.51782924 -0.49956337 0.00000409
-0.00337721 0.14975631 0.00000985
-0.27374727 0.16823030 -0.05473439
-0.06651032 -0.23011343 0.00000086
-0.24451482 -0.68136805 0.00000192
-0.02129003 0.28079736 0.00000756
-0.07669486 0.17582069 0.00000750
-0.39654085 -0.32036263 0.00000329
-0.12155120 0.06457065 0.00000781
-0.17282178 -0.75085193 0.00000133
-0.06947060 -0.05032683 0.00000099
-0.50681508 -0.71420234 0.00000388
-0.36403176 -0.58152086 0.00000288
-0.31957451 0.09928376 -0.13315262
-0.49849597 -0.73756540 0.00000380
-0.32504964 -0.45073903 0.00000267
-0.23781800 0.26692396 -0.07722302
-0.44945183 -0.39486504 0.00000364
-0.34583139 0.11385079 -0.27979410
-0.67589182 -0.77512628 -0.10645067
-0.59236777 -0.60958779 -0.03853802
-0.29511881 -0.76224518 0.00000225
-0.01156420 -0.62799215 0.00000019
-0.00251939 -0.17048867 0.00000041
-0.01836069 -0.23902547 0.00000049
-0.30669117 0.13077322 -0.13388079
-0.59509861 -0.49861625 -0.25968161
-0.62855595 -0.59884447 -0.22308405
-0.64826000 -0.69843912 -0.12522110
-0.19274925 0.23924914 0.00000348
-0.52725464 -0.40339410 -0.13070768
-0.36486530 0.00969769 -0.17030959
-0.24331114 -0.58799499 0.00000197
-0.30670911 -0.74646598 0.00000235
-0.32912454 -0.50940323 0.00000266
-0.48283023 -0.24976797 -0.21794617
-0.20970459 0.25738025 0.00000277
-0.30194670 -0.72778451 0.00000232
-0.25473821 -0.01561992 0.00000241
-0.29037443 -0.36337608 0.00000246
-0.10930447 -0.53023738 0.00000099
-0.05409873 -0.74937832 0.00000044
-0.13187984 -0.15476902 0.00000140
-0.33313492 -0.74762392 0.00000255
-0.22703147 0.32759234 -0.14236195
-0.25804552 -0.37332645 0.00000221
-0.01951437 0.37055123 0.00000637
-0.22631092 0.29564017 -0.07898443
-0.23463985 -0.75139689 0.00000180
-0.48100990 -0.23271260 -0.24176148
-0.15142137 -0.01945343 0.00000163
-0.26890516 0.05489604 0.00000394
-0.21836345 -0.03943835 0.00000212
-0.41968435 -0.42756972 0.00000340
-0.53964877 -0.40789226 -0.17852981
-0.15728055 0.35852218 0.00000280
-0.60834289 -0.63312918 -0.06680091
-0.01389830 -0.47845122 0.00000031
-0.34021196 0.00078186 -0.04158059
-0.42506197 -0.05928537 -0.31391436
-0.55975562 -0.69331694 0.00000429
-0.33261526 0.08689375 -0.16906725
-0.45307261 -0.16868991 -0.23532335
-0.04033665 0.71332413 -0.02013219
-0.34722844 0.03935418 -0.14600274
-0.55713636 -0.37465364 -0.32046723
-0.15594433 -0.28286660 0.00000150
-0.29591760 -0.10834074 0.00000266
-0.29474199 -0.25162432 0.00000257
-0.25573710 0.06061321 0.00000422
-0.25997746 -0.36873150 0.00000223
-0.16228680 -0.47689754 0.00000143
-0.04730354 0.70406079 -0.03434542
-0.24299404 0.21335077 0.19784658
-0.14785349 -0.75670260 0.00000114
-0.25736326 0.25056237 -0.13520534
-0.13025506 -0.35316938 0.00000126
-0.10930872 -0.54863703 0.00000098
-0.34543711 0.03906500 -0.13732384
-0.13044839 0.06385075 0.00000758
-0.34781486 -0.73229665 0.00000267
-0.24310340 -0.17390904 0.00000223
-0.21591513 -0.33174676 0.00000192
-0.35982150 -0.19164887 0.00000309
-0.31737527 0.14217596 -0.20384990
-0.34292981 -0.58687478 0.00000272
-0.36979112 -0.64124709 0.00000289
-0.45837516 -0.60968608 0.00000358
-0.28478023 -0.42253068 0.00000238
-0.04324238 0.25853807 0.00000727
-0.37176111 -0.67283672 0.00000288
-0.24409536 -0.01750984 0.00000233
-0.39453048 -0.10553833 -0.08826632
-0.03114604 0.52593797 0.00000392
-0.45260808 -0.25221187 -0.07610670
-0.27798918 -0.00133965 0.00000260
-0.45054668 -0.28773394 0.27400818
-0.43990237 -0.20615757 -0.10503790
-0.29237154 -0.71572816 0.00000226
-0.52906191 -0.58375078 0.00000413
-0.40177363 -0.07842132 -0.17216629
-0.02279378 -0.28316382 0.00000049
-0.16598618 -0.28207189 0.00000158
-0.52076757 -0.70075065 0.00000399
-0.33592701 -0.58449811 0.00000267
-0.50704539 -0.32907057 -0.17873973
-0.00192658 -0.79484087 -0.00000001
-0.48943663 -0.34865791 -0.06193181
-0.00692042 -0.19059189 0.00000043
-0.29660293 -0.30455288 0.00000255
-0.38355297 -0.10928448 -0.03136944
-0.33309045 0.09750397 -0.19118416
-0.03366347 -0.67603725 0.00000033
-0.37816179 -0.09972112 -0.02487645
-0.12203030 0.54491407 -0.07432818
-0.52127761 -0.36817387 -0.16981554
-0.09409747 -0.60955745 0.00000083
-0.22427586 0.34890413 -0.16993763
-0.20555541 -0.32151532 0.00000185
-0.04821951 0.39490074 0.00000526
-0.08387721 0.10081712 0.00000834
-0.03853324 0.08167273 0.00000983
-0.39249563 -0.77035093 0.00000298
-0.27277294 -0.16877201 0.00000245
-0.64795530 -0.75766730 -0.01242596
-0.46763095 -0.25659785 -0.13607721
-0.54671234 -0.61934811 0.00000424
-0.55520403 -0.64856857 0.00000428
-0.34959006 -0.04399037 0.17447887
-0.06686636 0.46135160 0.00000384
-0.04155967 -0.56734353 0.00000046
-0.45155513 -0.56755608 0.00000355
-0.45252410 -0.17066395 -0.22911923
-0.12319524 -0.04432643 0.00000140
-0.11631808 0.15118983 0.00000676
-0.11692779 0.25290671 0.00000535
-0.42705816 -0.47858459 0.00000342
-0.41554600 -0.58805889 0.00000327
-0.06949637 -0.41354883 0.00000077
-0.23059610 -0.17666580 0.00000213
-0.39403778 -0.19899194 0.00000335
-0.58886272 -0.70057124 0.00000450
-0.33328727 0.03172056 -0.06833262
-0.08089281 -0.76007926 0.00000064
-0.04961007 -0.11231948 0.00000080
-0.29550409 -0.25245249 0.00000257
-0.52258509 -0.31263018 -0.28023228
-0.15255480 0.00801245 0.00000775
-0.09252566 -0.45126349 0.00000092
-0.24168149 0.18928103 0.00000283
-0.07691753 0.64486307 -0.05747347
-0.42230061 -0.77271932 0.00000320
-0.40659034 -0.70772290 0.00000313
-0.35084727 -0.68484026 0.00000272
-0.29967123 0.07651408 0.28937483
-0.23216733 0.26141399 -0.04119703
-0.39916623 -0.69281507 0.00000308
-0.13350542 0.26428318 0.00000474
-0.20326711 0.38296020 -0.13859428
-0.15979636 -0.77312177 0.00000122
-0.47864535 -0.57425064 0.00000375
-0.51146191 -0.41092122 -0.04483229
-0.42713937 -0.73323327 0.00000326
-0.19566756 -0.67827803 0.00000155
-0.32273388 0.06724579 -0.08723342
-0.12026390 -0.16661642 0.00000130
-0.57679123 -0.59250736 0.06095793
-0.54254138 -0.35002977 -0.30050692
-0.01633248 0.35373962 0.00000669
-0.06685532 -0.55177462 0.00000066
-0.16619407 -0.74911648 0.00000129
-0.47462150 -0.21895051 -0.23863786
-0.20015858 -0.46798763 0.00000172
-0.48582593 -0.35329399 -0.03681453
-0.43782470 -0.75058818 0.00000333
-0.00510184 -0.31188959 0.00000034
-0.36887962 -0.68052334 0.00000286
-0.30178168 -0.45755726 0.00000249
-0.59638727 -0.63981885 0.19472884
-0.35254821 0.03895805 -0.16941611
-0.01424574 0.70751339 0.00000188
-0.09737755 -0.22762278 0.00000109
-0.19224687 0.08035226 0.00000567
-0.00158629 -0.30748832 0.00000030
-0.29776654 -0.72884357 0.00000229
-0.18027788 -0.45580173 0.00000158
-0.30769253 -0.62246811 0.00000243
-0.30137932 -0.68519980 0.00000235
-0.01330718 -0.06498286 0.00000056
-0.28442371 -0.25766128 0.00000248
-0.08698419 0.53182471 0.00000232
-0.27342001 0.16365623 -0.04464398
-0.05856919 0.32930961 0.00000588
-0.52181852 -0.39934954 -0.11362946
-0.56296653 -0.50874323 -0.09471488
-0.29950279 -0.63771898 0.00000236
-0.55552632 -0.37973261 -0.30360177
-0.11234854 0.15858217 0.00000677
-0.53218865 -0.66941059 0.00000410
-0.37249705 -0.71321070 0.00000286
-0.21539710 -0.08975554 0.00000207
-0.49473533 -0.29249784 -0.19163252
-0.19690660 0.15980072 0.00000445
-0.31790766 0.06063163 -0.05287439
-0.35005414 0.09191523 -0.25770769
-0.29295942 -0.67077518 0.00000229
-0.41221455 -0.27554515 0.00000344
-0.02327808 -0.48980266 0.00000037
-0.28122160 -0.13037473 0.00000254
-0.56090844 -0.78926682 0.00000424
-0.48358092 -0.45305371 0.00000387
-0.19040738 0.42450473 -0.15834431
-0.28854200 0.22489490 -0.22851315
-0.32895458 -0.71661991 0.00000253
-0.02087893 0.19751836 0.00000872
-0.02647402 0.51422173 0.00000421
-0.30030727 0.01517826 0.00000364
-0.46670932 -0.26812920 -0.11020111
-0.45923176 -0.34314647 0.00000375
-0.68404007 -0.81014484 -0.07758177
-0.14302738 0.46285874 -0.01532705
-0.15201543 -0.10691336 0.00000158
-0.37228143 -0.78645074 0.00000282
-0.33320042 0.13047829 -0.25371158
-0.00398981 -0.28362453 0.00000030
-0.27247638 -0.51906729 0.00000223
-0.17585167 -0.18090780 0.00000171
-0.26979589 0.23883282 -0.16960075
-0.46329266 -0.68942440 0.00000356
-0.15391967 0.50010055 -0.13484745
-0.28055778 0.22115187 -0.18521364
-0.35577479 -0.28930151 0.00000300
-0.42034674 -0.19643760 -0.03451696
-0.00135207 -0.23826247 0.00000034
-0.00978279 0.64951205 0.00000280
-0.08752074 -0.65533876 0.00000075
-0.55924070 -0.42159751 -0.24171919
-0.41100860 -0.07789913 -0.21508566
-0.14320581 0.21022281 0.00000522
-0.00220600 0.10446207 0.00001050
-0.41886571 -0.63377666 0.00000326
-0.51789027 -0.43214059 -0.03411000
-0.54260635 -0.41422507 -0.18004835
-0.04174586 0.09663224 0.00000954
-0.44241861 -0.11719300 -0.28380945
-0.39344916 -0.28659865 0.00000329
-0.17971326 0.36613232 0.07402890
-0.46929452 -0.24400911 -0.16731142
-0.09866961 0.56627125 -0.00841610
-0.09222224 -0.68951708 0.00000076
-0.56734443 -0.51410067 -0.10451808
-0.35744795 0.06562258 -0.24182580
-0.18936335 -0.76668411 0.00000145
-0.24723929 0.00336298 0.00000524
-0.17443241 0.03953802 0.00000672
-0.43922129 -0.19943732 -0.11458602
-0.02010148 0.58805680 0.00000337
-0.18192585 -0.00362588 0.00000187
-0.50806540 -0.50051987 0.00000402
-0.42866853 -0.73761719 0.00000327
-0.58100110 -0.71638447 0.00000444
-0.25596383 0.29032019 -0.20363867
-0.38476464 -0.08500896 -0.08253485
-0.14428316 0.01629501 0.00000786
-0.11447990 0.01803185 0.00000864
-0.15089114 0.12331609 0.00000621
-0.17871694 -0.64677876 0.00000144
-0.47547349 -0.21479402 -0.25032538
-0.04212036 0.55080146 0.00000328
-0.24228474 -0.64855361 0.00000192
-0.21611622 0.34312421 -0.12200993
-0.62760949 -0.74548721 0.00000477
-0.36614466 -0.12139044 0.00000319
-0.47926259 -0.35705975 0.25383255
-0.23123015 -0.52434057 0.00000192
-0.19613479 0.35503531 -0.05367494
-0.14022882 0.25842431 0.00000464
-0.15508804 -0.65943259 0.00000126
-0.11292766 -0.43390706 0.00000108
-0.59300858 -0.60846752 -0.04355525
-0.51589459 -0.33134043 -0.21465538
-0.11749782 -0.31239370 0.00000119
-0.18276852 0.43482506 -0.14306784
-0.21563873 -0.07030491 0.00000208
-0.32371384 -0.52203995 0.00000262
-0.04674809 -0.07644126 0.00000080
-0.64263195 -0.72524428 -0.04924070
-0.50339347 -0.48035362 0.00000400
-0.07998783 -0.12070059 0.00000103
-0.24894969 -0.07080030 0.00000233
-0.06681228 -0.33120683 0.00000080
-0.38239950 0.00599299 -0.24296810
-0.36076149 0.02273749 -0.17620222
-0.04497699 -0.41961479 0.00000058
-0.37180489 -0.29184207 0.00000312
-0.46417645 -0.13755517 -0.34431267
-0.53910536 -0.37452927 -0.23881878
-0.26643074 -0.22189192 0.00000237
-0.33721259 0.04943173 -0.11947507
-0.55060571 -0.74162275 0.00000419
-0.13652003 -0.50391155 0.00000122
-0.31550980 0.06333992 -0.04707966
-0.06713400 -0.75564671 0.00000053
-0.11478881 -0.68619978 0.00000094
-0.33473626 0.09379955 -0.19168974
-0.12589543 0.06388012 0.00000770
-0.15429194 -0.35038781 0.00000145
-0.36813372 -0.63999796 0.00000288
-0.05307609 -0.44184977 0.00000062
-0.49205720 -0.48227200 0.00000391
-0.17950714 0.37616491 -0.01791132
-0.35756901 -0.63453060 0.00000280
-0.07270232 -0.60823447 0.00000067
-0.41785794 -0.03704649 -0.32303259
-0.11466752 0.23146318 0.00000570
-0.32047057 0.02982288 -0.00655887
-0.03590355 -0.69078726 0.00000034
-0.40130645 -0.30892780 0.00000333
-0.33769214 -0.29333913 0.00000286
-0.01501724 0.28021735 0.00000774
-0.33025077 0.00720433 -0.00842555
-0.57726043 -0.53055918 -0.11858888
-0.61589873 -0.56734729 -0.22485270
-0.02924632 -0.23844534 0.00000057
-0.40594199 -0.28732705 0.00000338
-0.30015385 -0.04055885 0.00000274
-0.66944516 -0.78737640 -0.05413156
-0.42871180 -0.25284770 0.00000358
-0.06873730 0.25340620 0.00000665
-0.37941879 0.01320420 -0.24299686
-0.49342656 -0.38749817 -0.00699090
-0.38104919 -0.63110596 0.00000298
-0.23359638 0.29948458 -0.11930138
-0.49656588 -0.58356524 0.00000388
-0.20839319 -0.23637664 0.00000192
-0.32851434 -0.02568166 0.00000296
-0.39519566 -0.07083089 -0.15657274
-0.19372796 -0.16451515 0.00000186
-0.32107130 -0.53285003 0.00000259
-0.24865463 0.24426620 -0.08381346
-0.45191392 -0.29102966 0.15945938
-0.11246533 0.15356737 0.00000683
-0.13748357 0.52325577 -0.10376404
-0.25827730 -0.28982055 0.00000227
-0.39609122 -0.28981498 0.00000331
-0.23514931 -0.30811125 0.00000208
-0.11563722 -0.28311008 0.00000120
-0.04899335 0.58019984 0.00000269
-0.14361534 0.34485519 0.00000336
-0.39027387 -0.03111154 -0.20893024
-0.10331416 -0.58498663 0.00000091
-0.28615955 -0.36506233 0.00000243
-0.00091803 0.38357562 0.00000670
-0.23901998 0.14060210 0.00000358
-0.52505451 -0.34088409 -0.23829979
-0.44228342 -0.10525626 -0.30564892
-0.22633608 0.27504188 -0.04035114
-0.01998333 0.75235730 -0.00112778
-0.29764134 0.12699004 -0.08566659
-0.64905614 -0.67931503 -0.16481021
-0.19925375 -0.27576491 0.00000183
-0.57633334 -0.46317315 -0.24113463
-0.28883317 -0.07469060 0.00000263
-0.24833849 0.10929796 0.00000375
-0.07701530 -0.55182743 0.00000074
-0.12679155 0.49390021 0.01247908
-0.15085922 -0.12214415 0.00000156
-0.14142084 -0.73651922 0.00000111
-0.11347635 0.22802337 0.00000578
-0.38835236 -0.07003757 -0.12698872
-0.40256542 -0.05195662 -0.22553767
-0.59617907 -0.63931620 0.15614748
-0.14021038 -0.23324543 0.00000141
-0.02006934 -0.72423589 0.00000020
-0.03135010 -0.24425502 0.00000058
-0.04053340 0.53953755 0.00000348
-0.37220839 -0.09860476 0.29463351
-0.18946484 -0.60334432 0.00000155
-0.28939825 0.19274029 -0.17191553
-0.57728112 -0.53914040 -0.10254125
-0.41221282 -0.33978716 0.00000340
-0.45570371 -0.28996390 -0.01915165
-0.65764403 -0.71926707 -0.12865773
-0.36368012 -0.48734730 0.00000294
-0.39705718 -0.11346257 -0.08483462
-0.67903078 -0.80639732 -0.06188265
-0.07190392 0.53634197 0.00000267
-0.22612937 0.28397810 -0.05622239
-0.18153475 -0.58275777 0.00000151
-0.06142433 -0.28857291 0.00000078
-0.14460072 -0.22288308 0.00000145
-0.01475028 -0.48181567 0.00000031
-0.38963318 -0.37743908 0.00000320
-0.48288187 -0.22728452 -0.26047271
-0.11330547 0.23223940 0.00000573
-0.46756282 -0.20599820 -0.23094726
-0.35096353 0.05185040 -0.18647151
-0.18046115 0.43728581 -0.13721839
-0.42203379 -0.21888527 0.00313943
-0.43896094 -0.56726867 0.00000346
-0.12695211 0.18225053 0.00000605
-0.08226394 0.22056744 0.00000673
-0.02453085 -0.42209339 0.00000042
-0.04798462 0.64936680 0.00000177
-0.22364214 0.19686425 0.00000322
-0.47293708 -0.14153583 -0.37660798
-0.28779784 0.05038768 0.00000349
-0.10930931 0.16793010 0.00000672
-0.69080013 -0.82422173 -0.08180135
-0.25795001 0.02585691 0.00000464
-0.05797387 -0.64646918 0.00000053
-0.05231338 0.02882303 0.00001018
-0.28342310 0.20665598 -0.17095757
-0.49140877 -0.56572151 0.00000385
-0.40015218 -0.04678351 -0.22430962
-0.50674838 -0.29266682 -0.24586746
-0.18383951 -0.57174850 0.00000153
-0.04531808 -0.11880773 0.00000077
-0.32486463 -0.42265230 0.00000269
-0.37635192 -0.10861187 0.34306148
-0.15128008 -0.68436044 0.00000121
-0.16443321 -0.03460102 0.00000172
-0.36759728 -0.71539694 0.00000283
-0.00576500 -0.61429304 0.00000016
-0.34049523 -0.38677117 0.00000283
-0.28290117 -0.49397886 0.00000233
-0.23237541 0.30889946 -0.13146698
-0.04993549 0.68793792 -0.01596901
-0.47052804 -0.31533211 -0.03875236
-0.18847542 -0.01222548 0.00000191
-0.53129315 -0.31173918 -0.32145292
-0.50321537 -0.22866581 -0.35021138
-0.03078673 -0.19869763 0.00000061
-0.29238424 -0.31257951 0.00000251
-0.14098491 0.10380887 0.00000674
-0.51820725 -0.35191026 -0.18646500
-0.16166802 -0.30753735 0.00000153
-0.20563582 0.32669401 -0.04350876
-0.50218093 -0.29562280 -0.21956590
-0.08941563 0.62409580 -0.07516522
-0.61459625 -0.65478069 -0.05447108
-0.42010197 -0.14903839 -0.12256477
-0.03117036 0.21169908 0.00000824
-0.50974309 -0.68711048 0.00000392
-0.06779324 -0.27595621 0.00000084
-0.35003841 -0.25318560 0.00000298
-0.51848686 -0.69398344 0.00000398
-0.48909941 -0.71517509 0.00000374
-0.00807071 -0.44827113 0.00000028
-0.24711686 0.22052464 -0.03216975
-0.03390628 0.11207577 0.00000954
-0.23944704 -0.34314600 0.00000209
-0.34526911 0.04526056 -0.14821544
-0.07231188 0.42706203 0.00000416
-0.16287945 0.24277684 0.00000424
-0.11938749 0.00731733 0.00000866
-0.19049405 -0.43813926 0.00000166
-0.42565706 -0.34872192 0.00000349
-0.41820362 -0.20964009 0.04131135
-0.64943850 -0.76666552 -0.00223540
-0.41745672 -0.46230012 0.00000336
-0.10383705 -0.61015564 0.00000090
-0.28126785 -0.70698017 0.00000218
-0.21996598 0.10778043 0.00000454
-0.55111420 -0.35808206 -0.32429129
-0.28696418 0.10720352 0.13463339
-0.41671056 -0.74605674 0.00000318
-0.43202525 -0.24301608 0.20812102
-0.28179839 -0.70694101 0.00000218
-0.50198299 -0.32353324 -0.16616660
-0.23861477 -0.06106644 0.00000226
-0.32372525 0.02211324 -0.00683656
-0.44026318 -0.22543466 -0.07041571
-0.62163478 -0.64727771 -0.10054734
-0.56262290 -0.46362907 -0.17801552
-0.18735380 -0.06797363 0.00000187
-0.64569551 -0.65432352 -0.19655932
-0.44618100 -0.74634546 0.00000340
-0.06206266 -0.13610218 0.00000088
-0.30360830 0.09562213 -0.05375788
-0.21173953 0.17825381 0.00000380
-0.36583668 -0.31223884 0.00000306
-0.35497075 -0.05527499 -0.00316760
-0.40575147 -0.44367096 0.00000328
-0.43187714 -0.47027493 0.00000346
-0.27616158 0.01410501 0.00000431
-0.13102674 0.51509899 -0.05909821
-0.09307895 -0.12693721 0.00000112
-0.25635517 0.27379763 -0.17433526
-0.03860258 0.06784141 0.00001002
-0.37284163 0.03688900 -0.25768182
-0.32554349 -0.17248309 0.00000285
-0.00150854 -0.78718954 0.00000002
-0.35498250 -0.01623049 -0.07665550
-0.04399311 -0.59890217 0.00000046
-0.58348560 -0.46063256 -0.27839375
-0.44014591 -0.63564420 0.00000342
-0.20989369 0.01523776 0.00000609
-0.46682850 -0.45646575 0.00000374
-0.45268860 -0.64908671 0.00000351
-0.07196124 0.64058149 -0.02691155
-0.44020763 -0.08071444 -0.34238458
-0.61009949 -0.58981597 -0.15625192
-0.27115831 -0.36445415 0.00000232
-0.00087543 -0.05000339 0.00000046
-0.37000638 -0.72830015 0.00000284
-0.36936820 0.04838404 -0.26353136
-0.33837715 0.03675035 -0.10090867
-0.05094004 -0.20125809 0.00000076
-0.06654042 0.65059149 -0.02112397
-0.30122229 0.19839577 -0.23625016
-0.45545495 -0.17117944 -0.24145900
-0.47069567 -0.19748323 -0.26119080
-0.31411022 -0.14578550 0.00000278
-0.57777965 -0.45902267 -0.25550994
-0.34882694 -0.25728971 0.00000297
-0.39009604 -0.01758704 -0.23356359
-0.03272693 -0.43019333 0.00000048
-0.12480927 0.54202604 -0.08151557
-0.31066433 -0.06532081 0.00000280
-0.57659245 -0.48723578 -0.19704802
-0.29003909 -0.41044927 0.00000243
-0.02949688 0.20490405 0.00000838
-0.28883567 0.10267957 0.20813724
-0.37730390 -0.03706408 -0.13883279
-0.38246718 0.02746283 -0.28366238
-0.40971303 -0.70381796 0.00000315
-0.56313288 -0.62196255 0.00000436
-0.53777570 -0.56132770 0.00000421
-0.15687080 0.17183340 0.00000538
-0.37374210 0.04020450 -0.26800787
-0.27311474 0.22528315 -0.15918420
-0.20635420 0.32564539 -0.04479851
-0.59254366 -0.70170313 0.00000453
-0.39168245 -0.03629682 -0.20557296
-0.23655534 -0.65412796 0.00000188
-0.50406545 -0.38997537 -0.05064373
-0.38976297 -0.33363783 0.00000323
-0.03428856 -0.27309290 0.00000059
-0.43929192 -0.08216920 -0.33548957
-0.29562092 -0.25499618 0.00000257
-0.42117685 -0.09378978 -0.23137011
-0.16963618 0.05967273 0.00000657
-0.19724853 -0.23946273 0.00000184
-0.13641924 0.29280594 0.00000427
-0.08028745 0.38536614 0.00000452
-0.26077184 0.03080114 0.00000449
-0.11881259 -0.02131848 0.00000138
-0.44059673 -0.14724495 -0.21900745
-0.40738657 -0.03606303 -0.27732930
-0.15141004 0.20580690 0.00000506
-0.19753025 0.17071827 0.00000429
-0.30004275 -0.75769329 0.00000229
-0.34012598 -0.74576879 0.00000260
-0.00711062 -0.34010398 0.00000034
-0.14909244 0.49915698 -0.11115072
-0.62159616 -0.70067692 0.07452497
-0.57533193 -0.45677838 -0.24861597
-0.08999240 0.15851513 0.00000738
-0.45267659 -0.16913198 -0.23269351
-0.19800757 0.36017096 -0.07184039
-0.12751429 -0.36903781 0.00000123
-0.28648719 0.13068688 -0.04196685
-0.04239887 -0.18179238 0.00000071
-0.14875220 0.49218982 -0.09649968
-0.14069781 -0.52330267 0.00000123
-0.29954347 0.17903651 -0.19220941
-0.11373100 -0.76469547 0.00000088
-0.10136870 -0.59972864 0.00000089
-0.25660586 0.08992657 0.00000379
-0.16545954 -0.05324802 0.00000171
-0.57047135 -0.70433247 0.00000436
-0.16084190 0.01993820 0.00000736
-0.53480792 -0.40982121 -0.15291841
-0.04723304 -0.34802765 0.00000064
