ply
format ascii 1.0
element vertex 894
property float x
property float y
property float z
end_header
-0.00876686 -0.41374502 0.00000031
-0.00056695 -0.12504026 0.00000043
-0.30219567 -0.09387651 0.00000272
-0.24603954 0.20599800 0.15329196
-0.03749393 -0.03608499 0.00000076
-0.41629007 -0.59201998 0.00000327
-0.12594245 0.09523917 0.00000689
-0.28870839 -0.12793604 0.00000260
-0.16132762 0.17287436 0.00000475
-0.23310947 -0.21485473 0.00000212
-0.41767213 -0.13498455 -0.19972409
-0.19921914 -0.51487166 0.00000168
-0.45446843 -0.36325631 0.00000370
-0.43239546 -0.24390188 0.02955140
-0.45248982 -0.13755029 -0.42162687
-0.55255443 -0.47210678 -0.16842532
-0.57472116 -0.51498413 -0.19739109
-0.26023799 -0.17880853 0.00000235
-0.19130071 0.33815566 0.02514838
-0.06728406 0.58707631 0.00000190
-0.02741884 0.07467981 0.00001015
-0.11103314 -0.42213872 0.00000107
-0.46277282 -0.24681930 -0.19167957
-0.36302403 -0.48085517 0.00000294
-0.59992510 -0.64835972 0.20350374
-0.55625671 -0.54293579 0.13728616
-0.23957339 -0.45348227 0.00000202
-0.24282980 0.21374905 0.10824240
-0.53930897 -0.50202036 0.14322561
-0.29847601 0.07940157 0.21848144
-0.18151659 0.36177060 0.16286841
-0.16564643 0.27018470 0.00000329
-0.48920834 -0.30261800 -0.21352158
-0.00171266 -0.26316765 0.00000033
-0.60469431 -0.60375065 -0.15271632
-0.21332112 0.18703954 0.00000299
-0.40397266 -0.74634326 0.00000308
-0.42554563 -0.14533456 -0.22330029
-0.01164449 0.36703575 0.00000660
-0.00199430 0.65517783 0.00000293
-0.42961258 -0.58175999 0.00000338
-0.26281601 -0.24594066 0.00000233
-0.18781300 -0.06927091 0.00000187
-0.29663748 -0.73821902 0.00000228
-0.30871493 0.05467897 0.29814133
-0.57019866 -0.52843738 -0.13102543
-0.16075975 0.29285607 0.00000312
-0.32531506 -0.47136271 0.00000266
-0.02494521 -0.09823096 0.00000063
-0.34605858 0.05709874 -0.25199389
-0.02977134 -0.03481949 0.00000070
-0.20434444 -0.20848139 0.00000191
-0.34989727 0.05258940 -0.26495039
-0.18156403 -0.10715248 0.00000180
-0.41840631 -0.32953092 0.00000345
-0.66056311 -0.79474914 0.06401988
-0.57437718 -0.53604585 -0.13777636
-0.24437903 -0.35292235 0.00000212
-0.48281854 -0.49669355 0.00000383
-0.17041910 -0.61177987 0.00000140
-0.05286085 -0.65488815 0.00000049
-0.26459762 -0.08650789 0.00000244
-0.49552444 -0.72618210 0.00000378
-0.19696039 0.32449302 0.00006190
-0.32777223 0.00867627 0.16466434
-0.16330090 -0.47635058 0.00000143
-0.09878767 -0.35326329 0.00000102
-0.38866931 -0.02114193 -0.31906077
-0.34298283 -0.02804412 0.13228953
-0.21626146 -0.49772397 0.00000182
-0.32281065 0.02066091 0.02414030
-0.03779707 -0.28353024 0.00000061
-0.02066617 -0.66789025 0.00000024
-0.17124344 -0.20418683 0.00000166
-0.46948746 -0.33345166 0.05865156
-0.46931115 -0.20030291 -0.36132962
-0.45620570 -0.30138856 0.10522429
-0.07956364 0.27652034 0.00000580
-0.01147372 -0.43527514 0.00000031
-0.29615325 0.17593834 -0.24752922
-0.58170033 -0.70272171 0.00000445
-0.21669461 0.19093870 0.00000284
-0.34941363 -0.52484423 0.00000281
-0.04030442 0.27264595 0.00000703
-0.42019638 -0.21446446 0.34161410
-0.31450272 -0.63099772 0.00000248
-0.41614893 -0.41326094 0.00000338
-0.44327703 -0.54855257 0.00000350
-0.35888785 0.01402126 -0.21902806
-0.08748940 -0.32869267 0.00000095
-0.05464411 0.07358742 0.00000934
-0.44006649 -0.31577510 0.00000362
-0.38573116 -0.13125017 0.17515399
-0.22315581 -0.16001379 0.00000208
-0.12349768 -0.25486401 0.00000127
-0.29080263 -0.56382692 0.00000234
-0.23141582 0.24130550 0.09636040
-0.14077593 -0.60136265 0.00000119
-0.19218795 0.33600867 0.13698030
-0.42605397 -0.22859454 0.08463879
-0.00627048 -0.46004930 0.00000026
-0.09972578 -0.46217030 0.00000096
-0.40637738 -0.09347455 -0.23850764
-0.11796798 -0.74205768 0.00000093
-0.10051779 -0.66806334 0.00000084
-0.10625445 0.40265685 0.00000326
-0.44940212 -0.19793209 -0.23690470
-0.14577688 -0.49586934 0.00000129
-0.10966031 0.21329533 0.00000576
-0.07609432 -0.65094316 0.00000067
-0.05972945 -0.44855556 0.00000067
-0.23080568 0.24278001 0.06290216
-0.18980467 -0.25665623 0.00000177
-0.26295796 -0.01762355 0.00000247
-0.40964696 -0.18898195 0.03205115
-0.19793402 -0.16668902 0.00000189
-0.32816803 -0.35080066 0.00000276
-0.37693030 -0.01482277 -0.25909474
-0.24736489 0.16970634 0.00000247
-0.02450384 0.26186642 0.00000766
-0.34840757 -0.29903579 0.00000294
-0.59009016 -0.56931025 -0.15049136
-0.57447344 -0.63321519 0.00000444
-0.14322630 -0.24776697 0.00000143
-0.15828712 -0.62732118 0.00000130
-0.08578047 0.21169870 0.00000650
-0.28295764 0.11686884 0.16469187
-0.52674407 -0.47168130 0.04106688
-0.20831680 -0.43290013 0.00000180
-0.09121969 0.38527387 0.00000395
-0.25861791 -0.21051136 0.00000232
-0.05665666 0.16210479 0.00000806
-0.48724708 -0.73840284 0.00000371
-0.27847573 -0.17362882 0.00000249
-0.18753178 -0.71510476 0.00000147
-0.29856828 0.07917833 0.22936901
-0.20154351 0.31341907 0.20771438
-0.14072269 -0.46536925 0.00000127
-0.24973975 -0.77427638 0.00000190
-0.11230564 0.37189645 0.00000350
-0.35371247 -0.52582622 0.00000284
-0.32021853 -0.55667984 0.00000257
-0.13289489 0.08200634 0.00000686
-0.00214148 0.66599673 0.00000278
-0.18325102 0.03315440 0.00000601
-0.40673739 -0.37397772 0.00000333
-0.06722388 -0.55157769 0.00000066
-0.29141498 -0.45330080 0.00000242
-0.48895428 -0.38044694 0.01344994
-0.12579128 0.28818071 0.00000424
-0.08821098 0.45027295 0.00000315
-0.01548732 0.75834608 0.00000111
-0.66127098 -0.75159723 -0.12205634
-0.29128888 0.05640767 0.00000273
-0.06812230 0.27363336 0.00000618
-0.65756035 -0.78750002 0.10281463
-0.48463774 -0.27910933 -0.24749041
-0.32525778 -0.18243013 0.00000284
-0.11880023 -0.17012785 0.00000129
-0.22875199 0.02169806 0.00000480
-0.37053457 0.01509258 -0.29851291
-0.35596365 -0.76983804 0.00000270
-0.50619364 -0.36597556 -0.15265490
-0.47287810 -0.47412717 0.00000377
-0.18085477 -0.60852545 0.00000148
-0.14821772 -0.60386997 0.00000124
-0.22172745 -0.78029209 0.00000169
-0.48825064 -0.31598616 -0.17082329
-0.06922881 -0.45369944 0.00000074
-0.01307039 0.09195244 0.00001034
-0.34787336 0.07319718 -0.30776349
-0.20588952 -0.65158993 0.00000165
-0.38694954 -0.73595250 0.00000296
-0.09755350 0.24919030 0.00000563
-0.44006321 -0.42218769 0.00000356
-0.23485182 0.23301362 0.02027948
-0.10021053 -0.30638263 0.00000106
-0.06883931 0.14860471 0.00000788
-0.24830046 0.28496221 -0.22982834
-0.47520030 -0.59104675 0.00000372
-0.16155483 -0.16990533 0.00000161
-0.11737054 -0.34871978 0.00000117
-0.09420897 -0.17443125 0.00000110
-0.06562854 -0.67530257 0.00000057
-0.27880225 -0.36060825 0.00000238
-0.12786907 0.21885897 0.00000513
-0.37510008 -0.03002677 -0.20565936
-0.34825969 0.06704398 -0.29354700
-0.11241188 0.52860719 0.11390076
-0.26193559 -0.42813963 0.00000221
-0.21956217 0.33935273 -0.18901312
-0.29759562 0.08152910 0.17200196
-0.36881220 -0.31366152 0.00000309
-0.10430218 -0.14216055 0.00000120
-0.45229322 -0.20584232 -0.23437048
-0.12601361 0.49577206 0.05753166
-0.35012802 -0.04529658 0.18501097
-0.02210215 0.20070980 0.00000857
-0.12490054 0.48988590 0.00000175
-0.02196986 0.40153331 0.00000582
-0.43724409 -0.61745119 0.00000341
-0.09178532 -0.07167705 0.00000115
-0.14737484 0.39599842 0.00000211
-0.06666923 -0.17127647 0.00000090
-0.02783938 0.45260039 0.00000494
-0.52570349 -0.35770422 -0.30343604
-0.17445101 0.37882924 0.14640930
-0.31768611 0.03303012 0.08214979
-0.12007384 0.28506240 0.00000446
-0.02194170 -0.06767766 0.00000062
-0.33969778 0.07501588 -0.25896847
-0.27622223 0.13312368 0.29855275
-0.12725705 0.49277198 0.01567661
-0.38974553 -0.67650229 0.00000302
-0.22007561 0.21326198 0.00000243
-0.12514585 0.30000356 0.00000410
-0.10726144 0.44396517 0.00000266
-0.43776456 -0.17056549 -0.23492113
-0.02987106 -0.74395901 0.00000026
-0.32639709 0.01198852 0.33605686
-0.09121888 -0.63701272 0.00000079
-0.04070789 -0.64321071 0.00000041
-0.50557733 -0.33525178 -0.23226632
-0.48944542 -0.27424952 -0.29232946
-0.00722956 -0.67147928 0.00000013
-0.21005373 0.29287922 0.07895634
-0.10727492 -0.34763300 0.00000109
-0.29253259 -0.79606932 0.00000221
-0.25823301 -0.02392361 0.00000243
-0.04702970 -0.24811596 0.00000070
-0.14358351 -0.05416596 0.00000155
-0.26153529 -0.14977315 0.00000238
-0.46064353 -0.31210396 0.13833737
-0.16050524 -0.14649521 0.00000162
-0.50707078 -0.30086905 -0.33571154
-0.39872485 -0.05232859 -0.30024076
-0.06286774 0.11147558 0.00000857
-0.66512811 -0.77611613 -0.08064440
-0.01594822 -0.71516418 0.00000017
-0.23486745 -0.26427653 0.00000211
-0.07265297 0.49712947 0.00000297
-0.06384557 -0.56843060 0.00000063
-0.09460434 -0.74899733 0.00000075
-0.22878057 -0.22708860 0.00000208
-0.03667759 -0.28763089 0.00000060
-0.42809972 -0.79619217 0.00000323
-0.15683047 -0.09826281 0.00000162
-0.28975123 -0.22688679 0.00000254
-0.05485697 -0.58312261 0.00000055
-0.25601324 -0.06087406 0.00000239
-0.23629589 0.02604097 0.00000451
-0.03470197 0.43412831 0.00000498
-0.16011053 0.26106602 0.00000358
-0.15384705 0.06051184 0.00000653
-0.05965477 -0.76441795 0.00000047
-0.19470784 0.32992965 0.03461320
-0.36898479 -0.39183554 0.00000304
-0.26229632 0.16674708 0.22904269
-0.48224825 -0.72647965 0.00000368
-0.26016802 0.17189275 0.06178705
-0.39238581 -0.14731354 0.11952720
-0.53658015 -0.53881854 0.00000421
-0.52756536 -0.42236304 -0.13960426
-0.44060183 -0.79791182 0.00000333
-0.51289839 -0.62073928 0.00000398
-0.02115557 -0.28856719 0.00000048
-0.22319540 -0.60952216 0.00000180
-0.49416903 -0.39304835 0.31127569
-0.33507958 -0.00896627 0.18568353
-0.00232032 -0.05085629 0.00000049
-0.14277112 0.05715165 0.00000691
-0.46793863 -0.49733537 0.00000372
-0.19339786 0.31220385 0.00000215
-0.18380797 -0.74157315 0.00000142
-0.12970762 -0.51211238 0.00000116
-0.45041436 -0.69198132 0.00000347
-0.11464394 -0.31844839 0.00000117
-0.33873090 -0.74630350 0.00000259
-0.15934370 -0.26256549 0.00000154
-0.53474027 -0.50563508 0.00000422
-0.32508159 -0.58288980 0.00000259
-0.06000544 -0.76258081 0.00000048
-0.33368456 -0.00559391 0.08535548
-0.10855709 0.49801317 0.00000188
-0.55315828 -0.47294602 -0.17010982
-0.13911584 -0.26957852 0.00000138
-0.54032016 -0.62420839 0.00000419
-0.48543862 -0.30155364 -0.19163789
-0.19976604 -0.04900023 0.00000198
-0.32475775 -0.14337157 0.00000286
-0.13941950 -0.04815954 0.00000152
-0.43016443 -0.67566997 0.00000332
-0.00895114 -0.36722258 0.00000034
-0.25553420 0.18307161 0.24561749
-0.11575986 0.52052641 0.06926063
-0.09677969 0.34747824 0.00000430
-0.04675573 -0.31884983 0.00000065
-0.01594396 -0.71495301 0.00000017
-0.15496556 0.21707454 0.00000434
-0.20169432 -0.05151771 0.00000199
-0.06391379 -0.20677926 0.00000085
-0.01982068 -0.11994412 0.00000057
-0.41922569 -0.09219361 -0.32645714
-0.47890320 -0.26341769 -0.25252134
-0.54101813 -0.72989321 0.00000413
-0.45896989 -0.72130030 0.00000351
-0.16284683 0.19972177 0.00000434
-0.65513742 -0.78165066 0.03412973
-0.21764602 0.27454486 0.18738596
-0.59150422 -0.76372886 0.00000449
-0.46451694 -0.32145920 0.22691548
-0.33099669 -0.61559325 0.00000261
-0.04839722 0.29940167 0.00000642
-0.11498826 -0.01796426 0.00000136
-0.54985356 -0.71311289 0.00000420
-0.33135316 0.00002321 0.34154731
-0.36418918 0.03852976 -0.32062089
-0.13329677 -0.71783781 0.00000106
-0.46073958 -0.68348795 0.00000355
-0.19870755 -0.09643511 0.00000194
-0.43392360 -0.15921979 -0.24056607
-0.33824655 -0.06596112 0.00000301
-0.11088846 0.53228492 0.11757154
-0.50240159 -0.42241380 0.00000403
-0.37199005 -0.78209400 0.00000282
-0.19187120 -0.62142581 0.00000156
-0.18671118 -0.68578070 0.00000148
-0.47483295 -0.79727864 0.00000358
-0.02274986 0.41501650 0.00000561
-0.09654173 0.31099218 0.00000481
-0.27771074 -0.25684670 0.00000243
-0.38378873 -0.12656362 0.24028251
-0.04915314 0.06206936 0.00000966
-0.15165257 0.39375171 0.00000201
-0.53052598 -0.59627026 0.00000413
-0.41562650 -0.12342811 -0.21774521
-0.30449781 -0.34342268 0.00000258
-0.16927174 -0.09028276 0.00000172
-0.10225482 -0.43533570 0.00000100
-0.45989564 -0.39835444 0.00000372
-0.43806213 -0.18270913 -0.20380943
-0.32297942 -0.37425911 0.00000270
-0.44588873 -0.18118192 -0.25941974
-0.14351201 0.45352641 0.06972484
-0.19926181 -0.21729508 0.00000187
-0.47147432 -0.60796446 0.00000368
-0.43751717 -0.69594795 0.00000337
-0.12701602 0.36492908 0.00000315
-0.07894305 0.00701708 0.00000952
-0.16039272 -0.32047728 0.00000151
-0.11701068 -0.36564162 0.00000115
-0.17878857 0.36835995 0.08876937
-0.53513932 -0.71247268 0.00000409
-0.18675645 0.16291684 0.00000412
-0.21951216 -0.15020964 0.00000206
-0.46496078 -0.23222153 -0.24581395
-0.43600026 -0.10697324 -0.39648837
-0.03124258 -0.66532809 0.00000032
-0.39841279 -0.05923288 -0.27938768
-0.16819064 -0.64705575 0.00000136
-0.21222819 -0.53648651 0.00000177
-0.18064588 0.08404776 0.00000539
-0.51793402 -0.64554900 0.00000400
-0.13306154 0.10158363 0.00000659
-0.49240711 -0.75438291 0.00000374
-0.36557484 -0.65734041 0.00000285
-0.14219297 -0.76782775 0.00000109
-0.05950513 -0.26660651 0.00000078
-0.45973799 -0.30992296 0.25474045
-0.17318411 0.16210173 0.00000454
-0.44146428 -0.34309229 0.00000362
-0.03532783 -0.13250992 0.00000068
-0.50299299 -0.41434687 0.17724901
-0.14286648 -0.68855047 0.00000115
-0.05873025 0.31932729 0.00000584
-0.13611484 0.12274947 0.00000620
-0.41150662 -0.19348843 0.40939477
-0.22313255 0.13612379 0.00000339
-0.08110602 -0.12927940 0.00000103
-0.38353607 -0.46469000 0.00000310
-0.31093872 0.04930979 0.30803430
-0.27190244 -0.19040385 0.00000243
-0.02791627 0.02780932 0.00001078
-0.24078956 -0.76018322 0.00000184
-0.16321938 0.40594634 0.11508239
-0.38987225 -0.14124839 0.19026171
-0.04316498 -0.08922067 0.00000077
-0.32206681 -0.04950247 0.00000290
-0.16607282 -0.51860255 0.00000143
-0.34086999 0.06758280 -0.24643330
-0.52766424 -0.68386680 0.00000405
-0.21939193 0.01152322 0.00000522
-0.09861709 0.56191289 0.07007517
-0.15464523 -0.52538604 0.00000134
-0.21420179 0.01236641 0.00000537
-0.15099506 -0.50387418 0.00000132
-0.34770077 0.06766418 -0.29156160
-0.10979000 0.27944943 0.00000484
-0.28953496 -0.24007501 0.00000253
-0.21037093 -0.63994765 0.00000169
-0.44622731 -0.16396005 -0.30854195
-0.45139992 -0.16647707 -0.33569235
-0.29909116 -0.31704047 0.00000256
-0.37892509 -0.11482592 0.33538109
-0.41140595 -0.09776118 -0.25989246
-0.22277179 -0.27749231 0.00000201
-0.33541241 -0.00977491 0.30015066
-0.06290398 -0.75501287 0.00000050
-0.21096420 0.29068217 0.05543826
-0.25342974 -0.19671740 0.00000229
-0.07942365 0.36951032 0.00000452
-0.38026896 -0.01550509 -0.27918559
-0.64340448 -0.77147585 0.00000487
-0.34547493 -0.67298466 0.00000269
-0.03789019 0.43649387 0.00000485
-0.07314288 -0.67428958 0.00000063
-0.52645582 -0.76375389 0.00000399
-0.12822829 0.45311493 0.00000190
-0.45647988 -0.38089821 0.00000371
-0.40924886 -0.18802747 0.18061788
-0.62834531 -0.63895690 -0.21233360
-0.22430070 -0.16681100 0.00000209
-0.02735488 -0.77773011 0.00000022
-0.36634186 -0.66383070 0.00000285
-0.63184261 -0.67055035 -0.14929049
-0.03361191 -0.78243524 0.00000026
-0.02959187 0.29718095 0.00000702
-0.18601047 0.31521097 0.00000205
-0.39512140 -0.44530892 0.00000320
-0.52879477 -0.78298527 0.00000400
-0.22977288 0.24527512 0.02515925
-0.04134951 0.31105831 0.00000648
-0.26399431 0.16265057 0.16568767
-0.07349636 -0.55377215 0.00000071
-0.12833865 -0.31721258 0.00000127
-0.26644558 -0.71335763 0.00000206
-0.43851018 -0.47443214 0.00000351
-0.13172808 -0.66152239 0.00000108
-0.20308283 0.30970988 0.04908939
-0.07758282 -0.34610963 0.00000087
-0.13964599 0.38076052 0.00000255
-0.16930155 -0.11728199 0.00000170
-0.12598877 -0.63814437 0.00000105
-0.32156128 -0.37819991 0.00000269
-0.11324337 0.52659941 0.12238104
-0.08751815 0.51494759 0.00000228
-0.30692157 -0.69835675 0.00000238
-0.05730041 0.16134270 0.00000805
-0.40758723 -0.18402313 0.34209821
-0.24102809 0.15026161 0.00000266
-0.10025470 0.25380975 0.00000548
-0.24826694 -0.76779890 0.00000189
-0.08368957 -0.46082065 0.00000084
-0.06661464 0.28311032 0.00000610
-0.26732042 -0.71835339 0.00000207
-0.34321049 -0.79466879 0.00000259
-0.47552627 -0.53516853 0.00000375
-0.08112042 0.59195155 0.00000141
-0.56443739 -0.64142340 0.00000436
-0.12563729 0.49668306 0.00167210
-0.15780365 0.37272939 0.00000211
-0.57346219 -0.48397958 -0.27354625
-0.09721776 -0.09435555 0.00000117
-0.13404176 0.41217273 0.00000229
-0.20728287 -0.34148851 0.00000185
-0.59320819 -0.57513422 -0.15513070
-0.16085882 -0.70935309 0.00000127
-0.25591931 -0.17427845 0.00000232
-0.12638956 0.14701515 0.00000616
-0.22749598 0.32862061 -0.21194583
-0.57392395 -0.53878766 -0.12733074
-0.14704490 -0.30872527 0.00000142
-0.03114153 -0.73682845 0.00000027
-0.01334106 -0.54984123 0.00000026
-0.02910916 0.27713716 0.00000731
-0.11216658 -0.55261654 0.00000100
-0.06568491 0.63839412 0.00000139
-0.29973838 0.04571433 0.00000279
-0.61442238 -0.63925290 -0.11999236
-0.07178959 -0.64404017 0.00000064
-0.32472664 0.01603168 0.10462906
-0.62330240 -0.72245783 0.00000475
-0.45050746 -0.29946241 0.00000371
-0.57382500 -0.53853565 -0.12736642
-0.03830022 0.62894213 0.00000220
-0.33942074 -0.30779833 0.00000287
-0.12553164 -0.26945463 0.00000128
-0.17468616 0.35060170 0.00000204
-0.05967726 0.15264075 0.00000810
-0.11497590 0.50179499 0.00000163
-0.09083231 0.27409866 0.00000549
-0.17446551 -0.32993686 0.00000161
-0.39215052 -0.41491270 0.00000320
-0.11582568 -0.65268177 0.00000097
-0.19423954 0.25943229 0.00000257
-0.42998108 -0.61413747 0.00000336
-0.38317272 -0.32921371 0.00000319
-0.12465192 -0.30935198 0.00000125
-0.20116131 -0.02783632 0.00000200
-0.05309407 -0.05841974 0.00000086
-0.18759015 0.34711260 0.05168034
-0.09140764 -0.58205843 0.00000083
-0.39845389 -0.56528819 0.00000315
-0.33033910 -0.01667351 0.00000298
-0.49857450 -0.79851544 0.00000376
-0.51573080 -0.73048615 0.00000393
-0.30813852 -0.24109896 0.00000267
-0.03138046 -0.58640897 0.00000037
-0.46100408 -0.41663551 0.00000372
-0.12264509 -0.63061613 0.00000103
-0.08233534 0.50128299 0.00000262
-0.35522124 -0.05759180 0.16336361
-0.21722466 0.27556261 0.17664647
-0.14182240 -0.16786885 0.00000147
-0.20316637 -0.39862385 0.00000178
-0.10113248 0.02912600 0.00000855
-0.26717889 -0.35946068 0.00000229
-0.35139471 -0.04835844 0.26979861
-0.29883844 0.07852484 0.25768247
-0.52279919 -0.50150925 0.00000413
-0.16060548 -0.72011340 0.00000126
-0.27542263 0.13506477 0.05918431
-0.57126296 -0.51889020 -0.16401967
-0.30146116 0.01691768 0.00000278
-0.40432030 -0.45667106 0.00000326
-0.47551936 -0.34802517 0.30925161
-0.11055204 0.06686046 0.00000774
-0.22882923 -0.36563993 0.00000200
-0.03936610 0.52254361 0.00000363
-0.02736881 0.14768690 0.00000914
-0.00664723 -0.64092898 0.00000015
-0.10280093 -0.62001461 0.00000089
-0.09041246 0.06418629 0.00000839
-0.02599877 -0.63183689 0.00000030
-0.20798165 -0.51948452 0.00000174
-0.14434718 0.19171128 0.00000501
-0.44420454 -0.14940844 -0.33486944
-0.46905589 -0.20362099 -0.35061622
-0.39386383 -0.20987450 0.00000334
-0.38367254 -0.66735017 0.00000298
-0.01667494 0.11812463 0.00000987
-0.06365625 0.46634665 0.00000367
-0.37627721 -0.76988757 0.00000286
-0.45882463 -0.39044538 0.00000372
-0.03672297 -0.05018279 0.00000075
-0.23567121 0.23102646 0.22178496
-0.32754144 -0.09270182 0.00000291
-0.08235833 -0.28964218 0.00000094
-0.17080513 -0.01124636 0.00000178
-0.19557112 -0.13689861 0.00000189
-0.51944423 -0.45406210 0.13684389
-0.54297978 -0.39737931 -0.30897367
-0.40446052 -0.35619316 0.00000333
-0.14823268 -0.17959917 0.00000151
-0.24557915 0.28956372 -0.22446875
-0.32362339 -0.65684050 0.00000253
-0.30448186 -0.14140749 0.00000271
-0.10653525 0.38632730 0.00000347
-0.36867526 -0.09007757 0.26930591
-0.00088839 -0.04437600 0.00000048
-0.57635260 -0.65007818 0.00000444
-0.25811574 0.15530783 0.00000254
-0.06274857 -0.34282190 0.00000076
-0.51790637 -0.58155739 0.00000404
-0.43650797 -0.25383061 0.03423091
-0.19977631 0.29389733 0.00000219
-0.38066164 -0.28754306 0.00000319
-0.16507640 -0.54125404 0.00000141
-0.13239338 0.25390553 0.00000451
-0.01675631 0.22508346 0.00000840
-0.37490556 -0.14196452 0.00000324
-0.33674863 -0.10627054 0.00000297
-0.44539729 -0.71425372 0.00000341
-0.23689871 0.08677281 0.00000366
-0.06949731 0.08104024 0.00000879
-0.28759259 -0.14536303 0.00000258
-0.25469095 -0.64246678 0.00000202
-0.27269655 -0.77853656 0.00000207
-0.23053129 -0.52946180 0.00000191
-0.07456915 0.46473214 0.00000336
-0.11026735 0.09643124 0.00000735
-0.45830411 -0.41223472 0.00000370
-0.00493066 -0.31736147 0.00000034
-0.19829655 -0.34483844 0.00000178
-0.35235465 -0.76310110 0.00000268
-0.23240675 0.20032930 0.00000238
-0.14100003 0.07375186 0.00000673
-0.09881940 -0.38946882 0.00000100
-0.16882616 -0.45793185 0.00000149
-0.29933053 0.06983683 0.00000280
-0.32191977 -0.12387205 0.00000285
-0.44402695 -0.70692670 0.00000341
-0.31546056 -0.04665686 0.00000285
-0.07271529 0.12887070 0.00000803
-0.07370640 -0.46364993 0.00000077
-0.35521805 0.03948746 -0.26425117
-0.10214368 0.55340135 0.01502374
-0.08681181 0.29178038 0.00000537
-0.12023538 0.50972319 0.03092794
-0.45343348 -0.29469940 0.18576492
-0.10112036 -0.07322784 0.00000122
-0.21983270 0.26927263 0.03277271
-0.15558176 -0.41105908 0.00000142
-0.40441266 -0.17635721 0.30211824
-0.37826428 -0.11322173 0.13689843
-0.13333303 -0.54388309 0.00000117
-0.00951554 -0.28049096 0.00000040
-0.44292638 -0.72158384 0.00000339
-0.53625834 -0.38508606 -0.29826137
-0.27433053 0.13769388 0.22640321
-0.21481350 0.05278087 0.00000479
-0.22085090 -0.63110185 0.00000177
-0.07044667 -0.14459209 0.00000094
-0.01010516 0.77560365 0.00468463
-0.16273452 -0.79173601 0.00000123
-0.46777555 -0.18867321 -0.38290322
-0.44963485 -0.64234316 0.00000349
-0.40677685 -0.59830183 0.00000319
-0.42237219 -0.21971083 0.19520278
-0.55910385 -0.54981095 0.21856251
-0.58327967 -0.60816979 0.01312105
-0.37126440 -0.37860563 0.00000306
-0.09022655 0.58216876 0.08799441
-0.52010894 -0.60797858 0.00000404
-0.02626983 -0.45540929 0.00000041
-0.29275042 -0.72000563 0.00000226
-0.47309121 -0.34215108 0.03923710
-0.53280365 -0.52620214 0.00000419
-0.20182998 0.29238272 0.00000221
-0.21667480 -0.32418245 0.00000193
-0.43889347 -0.52130282 0.00000349
-0.43144789 -0.42070240 0.00000349
-0.58767688 -0.67430508 0.00000451
-0.22419257 0.25874013 0.18451731
-0.16170293 -0.09475867 0.00000166
-0.28712487 -0.34580192 0.00000245
-0.34456205 0.06910674 -0.27485543
-0.21625315 0.27790731 0.19355869
-0.13849363 -0.79761082 0.00000105
-0.00331333 0.14968237 0.00000984
-0.38589770 -0.53161198 0.00000308
-0.63237810 -0.72670621 0.08716785
-0.20320773 -0.40805429 0.00000178
-0.39256951 -0.19459805 0.00000334
-0.12876786 0.14034744 0.00000618
-0.20469759 -0.08921646 0.00000199
-0.01905904 -0.19654745 0.00000052
-0.04485814 0.36686599 0.00000560
-0.32540804 0.01438448 0.15307932
-0.21138985 0.27393767 0.00000227
-0.05129626 0.24175107 0.00000713
-0.49123117 -0.28208134 -0.28274229
-0.03146505 0.00450116 0.00001099
-0.07281483 0.34758362 0.00000502
-0.41692522 -0.38954154 0.00000340
-0.37528244 -0.10603488 0.40547815
-0.36257279 -0.26397645 0.00000307
-0.00046945 -0.04674454 0.00000047
-0.46000847 -0.20144720 -0.29705840
-0.29864365 -0.11816872 0.00000268
-0.39164951 -0.41877809 0.00000319
-0.29024479 -0.51856458 0.00000237
-0.19196469 0.33655247 0.02933985
-0.18348242 -0.09560529 0.00000182
-0.07012287 0.21186683 0.00000697
-0.15118282 -0.15269324 0.00000155
-0.43859896 -0.25888476 0.16920447
-0.45491195 -0.29826185 0.03118522
-0.29766312 0.08136261 0.25143319
-0.04785154 -0.73741853 0.00000040
-0.44925582 -0.34177381 0.00000368
-0.33364549 -0.57516712 0.00000266
-0.30869663 -0.77335823 0.00000235
-0.25638324 0.12411289 0.00000251
-0.02705507 -0.42070630 0.00000044
-0.35606614 -0.05963650 0.27400860
-0.02574557 -0.50445324 0.00000038
-0.44101635 -0.37547445 0.00000359
-0.22714528 0.22684102 0.00000236
-0.16124304 -0.19304734 0.00000160
-0.16431405 0.27363673 0.00000328
-0.01248718 -0.49989271 0.00000028
-0.25176039 0.19218519 0.18400075
-0.53204811 -0.48448482 0.00476018
-0.20373221 -0.23675667 0.00000189
-0.13248140 -0.11199900 0.00000143
-0.43733892 -0.18553980 -0.19134694
-0.49950799 -0.53748101 0.00000393
-0.01851165 -0.79289049 0.00000014
-0.20410630 0.08802185 0.00000463
-0.35030055 -0.57161319 0.00000279
-0.49344388 -0.25325367 -0.37578967
-0.32148686 -0.56608808 0.00000257
-0.04383797 0.34103781 0.00000599
-0.08284217 -0.07511507 0.00000108
-0.22066909 0.09689956 0.00000401
-0.16948909 -0.32382691 0.00000158
-0.53096175 -0.52221549 0.00000418
-0.18874989 0.24505886 0.00000293
-0.03481597 0.65587986 0.00000193
-0.42914125 -0.32539925 0.00000353
-0.19054133 0.29587588 0.00000218
-0.21752770 0.23688456 0.00000229
-0.11448262 -0.58676106 0.00000100
-0.21244304 0.28710854 0.13150257
-0.47807607 -0.28448677 -0.18971115
-0.44502208 -0.18863700 -0.23342171
-0.22660257 -0.63759822 0.00000181
-0.38725746 -0.76753408 0.00000294
-0.26160508 -0.06240598 0.00000243
-0.30998272 -0.45689619 0.00000255
-0.45936859 -0.17543955 -0.36367249
-0.46942836 -0.33331776 0.25528160
-0.36961776 -0.42214853 0.00000302
-0.12413325 -0.42716548 0.00000117
-0.09534773 0.56980836 0.01406706
-0.07312830 0.62344962 0.04759007
-0.02085466 -0.58066219 0.00000029
-0.15739100 -0.69119692 0.00000126
-0.30347517 0.06732991 0.27580813
-0.17856297 0.36890784 0.01606514
-0.18687074 -0.61154294 0.00000153
-0.40523297 -0.75127989 0.00000309
-0.26259255 -0.42157513 0.00000222
-0.07410751 0.28245381 0.00000588
-0.02015858 -0.01229141 0.00000064
-0.16291530 -0.12118022 0.00000165
-0.06023914 -0.07318410 0.00000091
-0.14850421 -0.35615036 0.00000140
-0.12296093 -0.61129194 0.00000105
-0.55072027 -0.52957171 0.22453207
-0.00586626 0.63439411 0.00000310
-0.22710119 0.06605705 0.00000424
-0.19975090 -0.06904108 0.00000196
-0.52348024 -0.46381009 0.24747710
-0.25889537 -0.13829587 0.00000237
-0.38554221 -0.13078652 0.00721941
-0.23411801 -0.25668463 0.00000211
-0.33023211 0.00273429 0.23800616
-0.43579054 -0.66674733 0.00000337
-0.00211758 -0.62266904 0.00000013
-0.48770034 -0.79717296 0.00000368
-0.05030409 0.06194318 0.00000963
-0.37904382 -0.14716315 0.00000327
-0.02218040 0.24561955 0.00000795
-0.05742517 0.56451458 0.00000251
-0.39125276 -0.07105622 -0.20012590
-0.10052731 0.23278736 0.00000577
-0.47273991 -0.34130809 0.15457454
-0.15040889 0.13582489 0.00000559
-0.35997069 -0.06905157 0.01816767
-0.08702785 0.01839914 0.00000912
-0.16912986 -0.02727216 0.00000176
-0.58111757 -0.51149440 -0.24894702
-0.18117939 0.21423790 0.00000359
-0.04738923 0.20981687 0.00000768
-0.40852743 -0.71002132 0.00000314
-0.14314879 0.42077848 0.00000189
-0.09173673 -0.03939483 0.00000117
-0.12777773 0.12253159 0.00000646
-0.21684773 -0.64757806 0.00000173
-0.09921930 -0.16255569 0.00000115
-0.23868524 -0.64020890 0.00000190
-0.15609705 -0.36388460 0.00000145
-0.42253020 -0.08377471 -0.37110773
-0.10753946 -0.22590831 0.00000117
-0.16112135 0.14565077 0.00000514
-0.33928084 -0.23825492 0.00000291
-0.41645932 -0.20543297 0.13134687
-0.13898292 0.18962225 0.00000520
-0.59469664 -0.73169255 0.00000453
-0.44249916 -0.14278065 -0.34170628
-0.10211091 -0.11459341 0.00000120
-0.12331232 0.13056079 0.00000648
-0.55888164 -0.49128586 -0.15779412
-0.64340293 -0.75332189 0.16000623
-0.38157579 -0.12121271 0.05247261
-0.48682332 -0.29429308 -0.22051188
-0.32080320 0.02549935 0.20385662
-0.43220022 -0.17506649 -0.18608500
-0.37066698 -0.42761904 0.00000303
-0.18247576 0.35945740 0.10770222
-0.38266936 -0.02379424 -0.27239338
-0.39749447 -0.30123928 0.00000331
-0.16479200 -0.12878796 0.00000166
-0.27178603 0.14384045 0.14639966
-0.27140161 -0.35791710 0.00000232
-0.24818876 -0.78411007 0.00000188
-0.22365412 -0.24531271 0.00000203
-0.28472561 -0.00015296 0.00000265
-0.40288648 -0.58023936 0.00000318
-0.58292753 -0.60732496 0.20167261
-0.21816242 0.09522005 0.00000411
-0.02185811 -0.61769480 0.00000028
-0.28939927 -0.66577846 0.00000227
-0.04184014 0.38512334 0.00000544
-0.18464810 0.26565728 0.00000278
-0.38451824 -0.56440431 0.00000305
-0.18631282 -0.69349802 0.00000147
-0.15883096 -0.76513904 0.00000122
-0.21178813 0.35863623 -0.19041768
-0.28795120 -0.35214415 0.00000245
-0.48086241 -0.36091477 0.09031082
-0.34395164 -0.11989393 0.00000302
-0.10707058 -0.59464079 0.00000094
-0.13621108 0.47115198 0.08148108
-0.00186110 0.22518083 0.00000885
-0.53570712 -0.52476925 0.00000421
-0.54189283 -0.50826091 0.22531845
-0.57193685 -0.67324251 0.00000439
-0.42827076 -0.23395593 0.29889581
-0.37993348 -0.75782955 0.00000289
-0.09117616 -0.15076736 0.00000109
-0.32788518 -0.65015233 0.00000257
-0.03352867 0.63559127 0.00000225
-0.21856008 -0.78697592 0.00000166
-0.39868230 -0.29089642 0.00000333
-0.00049423 0.36367729 0.00000698
-0.09459184 -0.15531822 0.00000112
-0.04364224 -0.67911094 0.00000040
-0.16277972 0.30178946 0.00000294
-0.22262853 -0.36533684 0.00000195
-0.05575611 -0.16359437 0.00000082
-0.08734552 -0.53117585 0.00000083
-0.08270325 -0.63202065 0.00000073
-0.09499180 -0.31801054 0.00000102
-0.64846021 -0.69981122 -0.17885777
-0.02870944 0.72262943 0.00000117
-0.20533310 -0.23801807 0.00000190
-0.33595148 -0.01107798 0.33702537
-0.29144579 -0.78224057 0.00000221
-0.60308123 -0.61675173 -0.10670739
-0.36009291 -0.63295156 0.00000282
-0.38411424 -0.52456903 0.00000307
-0.45264196 -0.77648991 0.00000343
-0.49372488 -0.49055585 0.00000392
-0.23755234 -0.03268659 0.00000227
-0.61973125 -0.64925236 -0.12766431
-0.00082274 0.41419795 0.00000628
-0.06254541 0.28353092 0.00000621
-0.00975261 0.69408470 0.00000216
-0.17625777 0.03577887 0.00000619
-0.35640752 -0.06045183 0.07518662
-0.26084846 -0.19079295 0.00000235
-0.43177453 -0.16059376 -0.22269677
-0.16234344 -0.76034409 0.00000125
-0.22285958 0.26195604 0.23518249
-0.07332558 0.19403133 0.00000712
-0.05048479 0.28755859 0.00000652
-0.11336329 -0.46856797 0.00000106
-0.49870095 -0.29954129 -0.28430352
-0.14541312 -0.49191752 0.00000129
-0.40820000 -0.10365983 -0.22275415
-0.55736589 -0.60627025 0.00000433
-0.60231340 -0.78786111 0.00000455
-0.24105790 -0.71515906 0.00000187
-0.09493603 0.57080084 0.04710313
-0.05448788 -0.11037368 0.00000084
-0.38852829 -0.77195126 0.00000295
-0.07147466 -0.35543326 0.00000082
-0.53995275 -0.52327067 0.00000425
-0.42462125 -0.41417539 0.00000344
-0.02950777 0.52038330 0.00000395
-0.17582446 -0.35125238 0.00000161
-0.55535942 -0.54077131 0.18367772
-0.54887354 -0.52992052 0.00000431
-0.19071074 -0.20216344 0.00000181
-0.29745504 -0.66012824 0.00000233
-0.20524926 -0.31723759 0.00000185
-0.22858791 0.20600089 0.00000227
-0.17879695 0.36833599 0.17237881
-0.20793547 0.04184666 0.00000515
-0.12511794 -0.14418013 0.00000135
-0.21896805 -0.66432220 0.00000174
-0.17158101 0.38575912 0.12274816
-0.42326877 -0.13127825 -0.24660853
-0.48605806 -0.41141164 0.00000391
-0.33524942 -0.53547341 0.00000269
-0.43191037 -0.11253795 -0.35444710
-0.31249118 -0.64645994 0.00000245
-0.38054261 -0.15254907 0.00000328
-0.59441066 -0.78489536 0.00000449
-0.01467596 -0.52556002 0.00000028
-0.18356891 0.35682097 0.04757800
-0.15764420 -0.00500650 0.00000169
-0.62786502 -0.71581095 0.17828721
-0.42500412 -0.25963104 0.00000354
-0.46297964 -0.31773967 0.04382083
-0.34039882 -0.15210515 0.00000297
-0.25564507 -0.29863074 0.00000224
-0.14448327 -0.04706391 0.00000156
-0.05280786 0.62934417 0.00000175
-0.09170944 0.11639647 0.00000763
-0.00367748 0.64419705 0.00000303
