ply
format ascii 1.0
element vertex 1269
property float x
property float y
property float z
end_header
-0.00119768 0.36991748 0.00000921
-0.59590518 -0.00280603 -0.13766284
-0.26857242 0.15159675 0.11321142
-0.02662353 -0.24657471 0.00000220
-0.21524285 -0.23295856 0.00000310
-0.68870699 -0.33421198 -0.11441915
-0.34732780 0.02828625 -0.01445709
-0.05884480 0.65792727 0.03833959
-0.27659464 0.13222256 0.29296538
-0.62543565 -0.42934293 -0.06074908
-0.42683688 -0.27544910 0.00000390
-0.44110465 0.24662194 -0.11075207
-0.60325027 -0.06675811 -0.12765735
-0.55492538 -0.56946212 0.00000338
-0.49034166 0.20020442 -0.12643898
-0.38580814 -0.73779601 0.00000198
-0.30288377 0.31371486 -0.05302769
-0.40847936 -0.12772535 -0.01264753
-0.50687629 0.23437767 -0.14248145
-0.08528528 0.40178466 0.00000770
-0.25018916 0.27929711 -0.01803048
-0.20303279 0.47593018 -0.03595672
-0.45372662 -0.29541111 0.26397350
-0.25024980 0.38114542 -0.04011497
-0.03357224 -0.21240446 0.00000236
-0.05525243 0.63260275 0.00000642
-0.03501972 0.30408871 0.00000919
-0.13000585 0.41311392 0.00000694
-0.59050947 -0.50652421 -0.02578180
-0.53427035 0.01826818 -0.11000776
-0.17221352 0.33887216 0.00000686
-0.36791119 -0.77342182 0.00000177
-0.00629188 -0.77478087 0.00000012
-0.11837745 0.04102758 0.00000991
-0.00709874 0.45446572 0.00000848
-0.35938337 -0.59174371 0.00000241
-0.34461236 -0.03197842 0.07027247
-0.03894735 0.36747223 0.00000866
-0.00296142 -0.31396648 0.00000184
-0.55053097 0.12384413 -0.14136757
-0.13719450 -0.58847082 0.00000141
-0.48465329 -0.37006488 0.00375349
-0.44939360 -0.28494889 0.22726355
-0.00969798 0.20251752 0.00001033
-0.54644465 -0.15082306 -0.07976297
-0.13689168 -0.75963736 0.00000077
-0.51813203 -0.02635673 -0.09191233
-0.43676886 -0.25447240 0.28985536
-0.34899643 -0.04256137 0.04043998
-0.16449662 0.40285587 0.17424828
-0.49735117 -0.49178493 0.00000341
-0.20195895 0.15682197 0.00000778
-0.07431370 0.59750462 0.00000640
-0.72861445 -0.17029653 -0.17076941
-0.28537351 0.00421326 0.00000766
-0.59533793 -0.30629784 -0.07165763
-0.04226024 0.69796723 0.00532400
-0.05721514 0.42074811 0.00000798
-0.18783741 0.10717839 0.00000836
-0.23401944 0.23501502 0.11501544
-0.00239545 0.65589327 0.00000704
-0.02570344 -0.30801541 0.00000196
-0.09233928 0.57706553 0.00851980
-0.21141239 -0.13404480 0.00000345
-0.14280634 -0.42405498 0.00000206
-0.72700226 -0.29897177 -0.14206643
-0.58660901 -0.67207330 0.00000314
-0.16674089 0.16778921 0.00000823
-0.26429275 0.16192910 0.10569655
-0.62820935 -0.17698459 -0.11683818
-0.56389326 -0.14238368 -0.09071085
-0.66367882 -0.34961823 -0.09800087
-0.12695953 0.43210611 0.00000684
-0.33191487 -0.75367576 0.00000168
-0.12676343 -0.32312775 0.00000236
-0.09779463 0.61226797 -0.01046659
-0.38940638 -0.14013258 0.37943786
-0.10535940 -0.70929861 0.00000082
-0.50715643 -0.64140695 0.00000289
-0.50871354 0.05423535 -0.10443638
-0.76714545 -0.58076882 -0.10203500
-0.22767520 -0.70923811 0.00000137
-0.50423336 -0.50805694 0.00000338
-0.18593454 0.58979654 -0.05167410
-0.25135538 0.49270406 -0.06484821
-0.22054718 -0.46319908 0.00000226
-0.25470188 0.18272410 0.00000679
-0.37367484 -0.10214875 0.26101461
-0.22163318 -0.19494893 0.00000327
-0.55884141 -0.22992457 -0.06911628
-0.41191399 -0.71390295 0.00000219
-0.19221281 0.41586637 -0.01729547
-0.49264631 -0.62457716 0.00000289
-0.35840526 0.02614049 -0.01978296
-0.70012140 -0.74985516 -0.03039209
-0.14452238 0.23596537 0.00000805
-0.18742557 0.08746481 0.00000852
-0.52174103 0.19682652 -0.14212087
-0.08961267 -0.14126211 0.00000288
-0.69983608 -0.65872622 -0.04997391
-0.52685815 0.03848618 -0.11051095
-0.13689087 0.56441510 -0.02054186
-0.70631629 -0.50694823 -0.08622359
-0.33981809 -0.46335980 0.00000280
-0.40269181 0.21454662 -0.08372752
-0.58831930 -0.19032373 -0.09309897
-0.22832310 0.24876632 0.13873367
-0.07549353 -0.66756469 0.00000084
-0.69796944 0.03339052 -0.19885205
-0.02920672 -0.77879381 0.00000021
-0.10577736 0.51073575 0.00000657
-0.43822467 -0.53689879 0.00000297
-0.26061118 -0.45336068 0.00000248
-0.40192387 0.19458607 -0.07900412
-0.02538693 -0.19402631 0.00000239
-0.36212581 -0.07426298 0.15758760
-0.07127255 0.62792349 0.05204483
-0.72719151 -0.62801945 -0.07092086
-0.24445917 0.20695545 0.00000676
-0.31027177 -0.59882194 0.00000216
-0.06435320 0.69753253 -0.01144784
-0.42562819 -0.18000455 -0.01029225
-0.05682771 0.35122028 0.00000851
-0.59663129 -0.45135579 -0.04092651
-0.22832035 -0.75952107 0.00000119
-0.20937207 -0.67568815 0.00000141
-0.48446307 -0.12977059 -0.05192247
-0.10243633 0.67007339 -0.02540930
-0.31274867 -0.03687903 0.00000428
-0.15464795 0.38261503 0.00000680
-0.22836286 -0.46979880 0.00000227
-0.00106408 0.79344279 0.00000597
-0.16508646 -0.13003968 0.00000326
-0.73692435 -0.68872213 -0.06286498
-0.27038133 -0.02159689 0.00000414
-0.34468621 -0.61192560 0.00000227
-0.34299204 0.15576404 -0.03979292
-0.28347701 0.29372761 -0.03855549
-0.40385792 -0.19425526 0.00000410
-0.64065313 -0.64019895 -0.02305009
-0.34639111 -0.26385960 0.00000358
-0.42076436 -0.16224764 -0.01159448
-0.30464661 -0.68597573 0.00000181
-0.21792673 -0.04073223 0.00000383
-0.46131435 -0.75982654 0.00000224
-0.71677512 -0.61222500 -0.06889611
-0.18867463 -0.57269031 0.00000171
-0.70519906 -0.63669711 -0.05754678
-0.23365974 -0.74386895 0.00000127
-0.07553727 0.68673223 -0.01495551
-0.21254741 0.28275791 0.00000667
-0.60178936 -0.27882153 -0.08097888
-0.23420092 0.10745420 0.00000766
-0.11816163 0.27118248 0.00000818
-0.24584645 0.38038743 -0.03764909
-0.73726892 -0.38952860 -0.12782562
-0.47176075 -0.33894098 0.04251958
-0.55816954 -0.74578357 0.00000273
-0.31257382 0.27412540 -0.04952080
-0.63096446 -0.20283981 -0.11268027
-0.16197570 -0.19356187 0.00000301
-0.71493363 -0.13335052 -0.17161763
-0.37323436 -0.30795288 0.00000353
-0.57016850 -0.31629375 -0.05633694
-0.55363923 -0.13867718 -0.08615342
-0.18578376 0.56572711 -0.04638356
-0.47557208 -0.29658276 -0.01115777
-0.56473523 0.15325323 -0.15516035
-0.26172018 -0.57809567 0.00000202
-0.41471517 -0.20121986 0.02137293
-0.46761417 0.06732937 -0.08578783
-0.66461259 -0.01422124 -0.17110634
-0.69222951 -0.05519729 -0.17667116
-0.14980114 0.43834046 0.00229417
-0.14625798 0.27502975 0.00000773
-0.27191114 -0.66375631 0.00000174
-0.34273994 -0.02746746 0.31968418
-0.35337871 -0.32497981 0.00000338
-0.23527195 -0.02235635 0.00000398
-0.04816927 -0.55958736 0.00000112
-0.07570730 0.29946458 0.00000861
-0.24190193 0.11414264 0.00000749
-0.53509784 -0.01209262 -0.10386898
-0.26569092 -0.72716081 0.00000148
-0.41380563 -0.54799849 0.00000282
-0.17175382 0.05840240 0.00000897
-0.31630024 0.15803976 -0.02633314
-0.70230997 -0.74676049 -0.03220606
-0.35929981 0.14924608 -0.04690611
-0.22427209 0.52434200 -0.05754148
-0.07230774 -0.52577567 0.00000136
-0.24865662 -0.27047366 0.00000311
-0.56522316 0.05032530 -0.13312882
-0.33595568 -0.37260997 0.00000312
-0.28096417 0.37687773 -0.05524612
-0.77005833 -0.72309178 -0.07274219
-0.17182218 0.44207218 -0.01231097
-0.36713186 -0.52501279 0.00000269
-0.61707622 -0.40792942 -0.06101581
-0.39775920 0.28994739 -0.09747533
-0.54767680 -0.66697311 0.00000298
-0.27124825 -0.03455717 0.00000410
-0.00706035 0.24963669 0.00001002
-0.10837719 -0.31816429 0.00000230
-0.24376212 -0.26029432 0.00000313
-0.60839736 -0.11420656 -0.12007454
-0.52226454 -0.66426033 0.00000287
-0.11626914 0.51928955 0.11690876
-0.05166726 -0.09373112 0.00000288
-0.52874428 0.19293103 -0.14493819
-0.24185903 0.30408990 -0.01904438
-0.05727098 0.27610037 0.00000907
-0.67062104 -0.72277939 -0.02083486
-0.45949915 -0.53517985 0.00000307
-0.69980735 -0.60811329 -0.06091746
-0.57153416 -0.57981962 0.22341993
-0.51145941 -0.38096914 -0.01164570
-0.74138170 -0.75606394 -0.05061414
-0.69724715 -0.61380261 -0.05834742
-0.21982661 -0.44667947 0.00000232
-0.48420036 0.07942032 -0.09707589
-0.12570845 0.49650067 0.12664668
-0.46537226 -0.00985364 -0.06790719
-0.53785175 -0.17013977 -0.07108898
-0.06370127 -0.43327615 0.00000166
-0.06176061 0.06526428 0.00001058
-0.62068343 -0.54380411 -0.03348250
-0.04652224 0.45356280 0.00000790
-0.28671366 0.41340122 -0.06615981
-0.28983101 0.31918344 -0.04738875
-0.26229632 0.16674876 0.10945288
-0.56927639 -0.50424302 -0.01517689
-0.08867710 -0.27364045 0.00000238
-0.03119364 -0.78304070 0.00000020
-0.21411861 0.28305575 0.22470003
-0.38878798 0.28535172 -0.09179075
-0.21093699 -0.08682038 0.00000363
-0.21939465 0.32196766 -0.01117265
-0.09104234 -0.09517172 0.00000306
-0.44319507 -0.26998442 0.23022319
-0.59028894 -0.62509316 0.03180901
-0.40004763 -0.16581397 0.14578599
-0.44180781 0.19117630 -0.09911422
-0.20933460 0.29460821 0.15069477
-0.55106741 -0.10700646 -0.09166628
-0.20992260 -0.46118283 0.00000222
-0.72429383 -0.31875187 -0.13636801
-0.07340602 -0.07134814 0.00000306
-0.49165234 -0.03558548 -0.07607285
-0.19673835 0.12819007 0.00000807
-0.40043718 -0.54886478 0.00000275
-0.37514690 0.30832645 -0.08963483
-0.14868240 -0.69169211 0.00000108
-0.11445474 -0.35284880 0.00000219
-0.31970507 -0.43451872 0.00000282
-0.05825372 0.00856943 0.00001106
-0.01310371 -0.36017799 0.00000171
-0.55757928 -0.54612899 0.13687152
-0.34461057 -0.37767193 0.00000314
-0.02830219 -0.22778083 0.00000227
-0.53174067 0.15566961 -0.13843641
-0.12121094 -0.22223046 0.00000272
-0.39079261 0.23915058 -0.08283489
-0.06031014 0.37035412 0.00000831
-0.32293966 0.34197989 -0.06963154
-0.59041923 -0.48364556 -0.03068819
-0.10772533 -0.30424577 0.00000235
-0.48680589 -0.37526813 0.17301425
-0.02951348 0.48203510 0.00000794
-0.50057101 -0.40849885 0.13948852
-0.60519236 -0.62617922 -0.00754969
-0.69516838 -0.67315876 -0.04440926
-0.24180982 0.09436281 0.00000764
-0.61516440 -0.68514973 0.17647219
-0.63840586 -0.28654453 -0.09844670
-0.03726691 0.19660701 0.00000996
-0.65595305 -0.19249456 -0.12798208
-0.17338766 -0.29161271 0.00000269
-0.30327633 -0.39881375 0.00000288
-0.39020205 0.03652403 -0.03865230
-0.42322028 -0.22175889 0.17619292
-0.39611641 0.26432893 -0.09106954
-0.21158195 -0.12082447 0.00000350
-0.26387790 0.28345218 -0.02608562
-0.35900754 -0.69176966 0.00000203
-0.00205017 -0.47116733 0.00000124
-0.41907623 -0.78480220 0.00000195
-0.71426743 -0.06152205 -0.18682128
-0.54758608 -0.17303894 -0.07554955
-0.04975901 0.67986268 0.02927942
-0.18157277 -0.25933516 0.00000285
-0.62381792 -0.16602653 -0.11691530
-0.44322661 -0.27005759 0.15260357
-0.10575157 0.01158189 0.00001032
-0.58114296 -0.39523000 -0.04498261
-0.75342488 -0.39341834 -0.13542800
-0.61129040 0.10759299 -0.16960935
-0.06198675 -0.53580040 0.00000127
-0.71749884 -0.19037086 -0.16061273
-0.42971313 -0.52421641 0.00000298
-0.09942153 -0.21906690 0.00000263
-0.06106478 0.47414681 0.00000752
-0.51810998 -0.00030767 -0.09753818
-0.41975641 -0.21339619 0.17126291
-0.46796995 -0.32979059 0.07968085
-0.26233685 -0.10082716 0.00000381
-0.55339354 -0.53601897 0.01171062
-0.23718032 -0.14068459 0.00000355
-0.41489410 -0.20165738 0.16727023
-0.32005560 0.34772220 -0.06936734
-0.20057516 -0.34483573 0.00000261
-0.19338290 0.40937617 -0.01650181
-0.27749529 -0.04835152 0.00000407
-0.43461969 -0.72703874 0.00000224
-0.14033246 0.16904771 0.00000861
-0.32516807 0.14985085 -0.02919549
-0.27735689 0.49009264 -0.07787452
-0.15003406 -0.44539559 0.00000201
-0.01988585 0.75198370 0.00878027
-0.28349981 -0.33977276 0.00000301
-0.03269342 0.35799518 0.00000882
-0.17362663 -0.70259935 0.00000115
-0.12959737 0.29681233 0.00000782
-0.61482489 -0.72258538 0.00000307
-0.23309736 -0.29012364 0.00000297
-0.37291902 -0.42862242 0.00000308
-0.36784509 -0.08807478 0.26889324
-0.46022379 -0.31109935 0.34666407
-0.25132903 -0.06327567 0.00000390
-0.56995666 -0.28109562 -0.06384711
-0.08934269 -0.55030990 0.00000134
-0.56994075 -0.36919007 -0.04476507
-0.36578691 0.34615195 -0.09293230
-0.08514553 -0.66212857 0.00000090
-0.59905183 -0.28602311 -0.07798869
-0.43034503 -0.70790482 0.00000229
-0.12233546 -0.53031653 0.00000157
-0.70260614 -0.47432387 -0.09134808
-0.16475146 -0.75430125 0.00000092
-0.15740380 0.51732326 -0.02106791
-0.35351393 -0.33718213 0.00000334
-0.75653225 -0.45556289 -0.12359681
-0.02601854 -0.65743804 0.00000065
-0.40411270 -0.09986463 -0.01639725
-0.45231906 -0.67413831 0.00000252
-0.70690596 -0.67415744 -0.05032816
-0.25064033 0.46600562 -0.05869353
-0.74879807 -0.07726016 -0.20146327
-0.33609927 0.11735860 -0.02787410
-0.15361582 0.55656487 -0.02758465
-0.29704785 -0.40978134 0.00000281
-0.06803577 0.20235187 0.00000946
-0.00902510 -0.01199623 0.00000300
-0.07500039 0.65390825 -0.00756763
-0.65418696 -0.46792471 -0.06742429
-0.28385979 -0.60045362 0.00000203
-0.32421568 0.41568017 -0.08625658
-0.49830583 -0.10268959 -0.06502170
-0.38566378 -0.13108528 0.06749034
-0.68579078 -0.25687072 -0.12964030
-0.51078653 -0.37278271 -0.01306645
-0.00373646 -0.00274192 0.00000301
-0.19372272 0.40075839 -0.01481348
-0.36916095 -0.02000691 -0.01541784
-0.27142677 0.07380775 0.00000735
-0.18315004 -0.66727495 0.00000133
-0.61807549 -0.74344349 0.00000301
-0.61980587 -0.69635481 0.06833542
-0.38997471 -0.14149135 0.02897296
-0.22672340 -0.65926766 0.00000155
-0.29171875 -0.67104888 0.00000180
-0.51011223 -0.60131979 0.00000305
-0.25396323 -0.00735019 0.00000412
-0.64465219 -0.35801953 -0.08623638
-0.27477160 -0.11566015 0.00000381
-0.23764139 -0.70141810 0.00000145
-0.64844793 -0.04446730 -0.15610911
-0.01068226 0.78699690 -0.00276396
-0.25371855 0.40247765 -0.04654715
-0.09208672 0.64411753 -0.01437916
-0.07365407 0.10375262 0.00001011
-0.59038424 -0.64216566 0.00000326
-0.73244160 -0.37818000 -0.12775958
-0.02971461 -0.06058945 0.00000291
-0.21748458 -0.42642415 0.00000239
-0.57773089 -0.52097273 -0.01597393
-0.25649717 -0.47207350 0.00000239
-0.08568933 0.55840921 0.00000652
-0.04170268 0.43858120 0.00000808
-0.32990655 -0.31941357 0.00000330
-0.55554366 0.18513791 -0.15725951
-0.20804872 -0.22238061 0.00000311
-0.13642932 -0.55374706 0.00000154
-0.46975800 -0.28879017 -0.00980586
-0.72369170 -0.47240269 -0.10278527
-0.32445967 0.38296276 -0.07929994
-0.22160873 0.26497480 0.17740485
-0.29550779 -0.76994753 0.00000145
-0.36424366 -0.45869905 0.00000293
-0.19367188 0.33242080 0.16617541
-0.41675869 -0.20616512 0.33131662
-0.52995509 -0.10789811 -0.08043751
-0.47586077 -0.67615855 0.00000262
-0.09172037 0.25867733 0.00000868
-0.29935801 -0.55400896 0.00000228
-0.03824215 -0.60645646 0.00000090
-0.26081949 0.17031266 0.14804065
-0.26258859 0.22694203 -0.01317576
-0.67302781 -0.01233057 -0.17591459
-0.34011292 -0.79256231 0.00000157
-0.28082356 -0.05545099 0.00000406
-0.21781436 0.02344480 0.00000854
-0.55532777 -0.13608658 -0.08759695
-0.43809915 -0.18142585 -0.01650326
-0.10796892 0.51071543 0.00000654
-0.16023697 -0.76137125 0.00000087
-0.58247888 -0.02404857 -0.12604709
-0.71610063 -0.11228910 -0.17678770
-0.14378041 -0.32849991 0.00000242
-0.25567439 -0.42912209 0.00000255
-0.50672555 -0.49686423 0.00000343
-0.14733610 0.44429076 0.02426936
-0.24616490 0.38565585 -0.03895630
-0.23669824 -0.72755289 0.00000134
-0.58501166 -0.72875059 0.00000292
-0.67499691 -0.08380314 -0.16146983
-0.59582990 -0.44454440 -0.04198239
-0.48273972 0.02428988 -0.08437519
-0.26149726 0.01965716 0.00000791
-0.41574559 0.09429012 -0.06451244
-0.10008885 0.14776012 0.00000938
-0.40616217 -0.11986445 -0.01313829
-0.25052837 -0.56523228 0.00000201
-0.20370841 -0.32482550 0.00000270
-0.09958123 -0.54542238 0.00000141
-0.21396618 -0.59876257 0.00000172
-0.18060555 -0.39540878 0.00000233
-0.49549016 -0.19625273 -0.04329214
-0.56195682 -0.66133469 0.00000306
-0.03343321 0.46664014 0.00000800
-0.28272432 0.11743164 0.09659718
-0.21720658 0.27560699 0.05989045
-0.27647787 0.13250454 0.29071787
-0.29043618 -0.28667653 0.00000324
-0.05398076 -0.47917101 0.00000145
-0.29776195 0.08113080 0.01150986
-0.48993459 -0.38282073 0.15210316
-0.69106805 -0.54398268 -0.07023491
-0.11043264 0.18932351 0.00000891
-0.16233635 0.54550934 -0.02974929
-0.53177065 -0.25432003 -0.04968404
-0.19404490 -0.60023105 0.00000163
-0.00127519 0.47363609 0.00000843
-0.68896401 -0.12286340 -0.16031355
-0.08793955 -0.34071255 0.00000212
-0.46189749 -0.02589050 -0.06261867
-0.26894203 0.11858726 0.00000705
-0.69657499 -0.21901777 -0.14347307
-0.10446599 0.06838802 0.00000991
-0.50205076 0.04852484 -0.09971710
-0.39032593 -0.14234588 0.20263715
-0.16134968 -0.78299075 0.00000079
-0.12985283 0.48649502 0.13222340
-0.36647147 -0.08475281 0.11769982
-0.39941356 -0.16429302 0.40458801
-0.71638542 -0.58694685 -0.07416557
-0.04448585 0.69259399 0.00936511
-0.54001468 0.11833579 -0.13467771
-0.45233244 -0.03221314 -0.05624993
-0.56113392 -0.18466213 -0.08011459
-0.32869160 0.00644896 0.30100358
-0.06394910 0.68338495 -0.00817329
-0.11249246 0.48868749 0.00000664
-0.45396519 -0.05201256 -0.05281654
-0.66052103 -0.28953031 -0.10936017
-0.72297949 -0.44001195 -0.10942613
-0.09511177 0.59624678 -0.00559519
-0.34288895 -0.02782356 0.22381605
-0.69677806 -0.77190083 -0.02387127
-0.00947294 -0.48955378 0.00000121
-0.34981892 0.10851908 -0.03313175
-0.46931642 -0.46876958 0.00000337
-0.09945136 -0.48487759 0.00000163
-0.06596623 0.17226574 0.00000971
-0.23383908 0.01756707 0.00000834
-0.02919921 -0.52415079 0.00000117
-0.56963927 -0.11401669 -0.09985624
-0.73900610 -0.14081685 -0.18258399
-0.32832405 -0.62983650 0.00000212
-0.52361691 -0.46413344 0.05609107
-0.05661589 -0.20790333 0.00000248
-0.22207581 -0.09814046 0.00000364
-0.03263747 0.35384393 0.00000885
-0.27639574 -0.10881599 0.00000384
-0.23365423 -0.35836998 0.00000271
-0.22537521 -0.31817403 0.00000283
-0.29265523 -0.05148164 0.00000413
-0.05226742 -0.45141810 0.00000154
-0.12318725 0.12023327 0.00000924
-0.14946146 0.53853267 -0.02150862
-0.02915022 0.00652347 0.00001151
-0.30268440 0.28685060 -0.04710666
-0.49688077 -0.31993198 -0.01724067
-0.34741980 -0.62560540 0.00000223
-0.51348293 -0.43967137 0.14949401
-0.75231248 -0.55334991 -0.10021862
-0.61854291 0.02586951 -0.15570518
-0.21770705 0.44475165 -0.03687640
-0.40182719 -0.06071695 -0.02367864
-0.27180934 0.01495311 0.00000779
-0.26259139 -0.79668593 0.00000120
-0.54928809 -0.57583386 0.00000333
-0.19681378 0.32484147 0.01120627
-0.45387405 0.18163829 -0.10335635
-0.08470623 -0.32278514 0.00000217
-0.73307675 -0.30129603 -0.14473826
-0.25252730 -0.73583609 0.00000138
-0.00185272 -0.20788057 0.00000223
-0.37178922 0.04261408 -0.03034608
-0.29220694 0.20412990 -0.02371864
-0.34894186 -0.40862113 0.00000305
-0.55661935 -0.43676749 -0.02317028
-0.29202664 0.45955676 -0.07893093
-0.05354335 0.11692010 0.00001032
-0.70736855 -0.40134916 -0.10963762
-0.15643719 -0.50639945 0.00000181
-0.03595170 0.50213277 0.00000769
-0.01161192 -0.17980687 0.00000238
-0.26132214 -0.71617204 0.00000150
-0.59444714 -0.26813996 -0.07945373
-0.13960792 -0.51161540 0.00000171
-0.20160510 0.31327361 0.02618458
-0.75496787 -0.47539178 -0.11848584
-0.00467809 0.78810596 0.00000602
-0.15223189 -0.45820227 0.00000197
-0.51426035 -0.21977016 -0.04801171
-0.53290045 0.03841066 -0.11365305
-0.50906819 -0.32503822 -0.02250562
-0.64044172 -0.30326948 -0.09588968
-0.07142977 -0.76668632 0.00000045
-0.43817797 -0.44422263 0.00000332
-0.35104525 -0.12521526 0.00000412
-0.00086441 -0.00194535 0.00000299
-0.48026228 -0.15301736 -0.04469339
-0.60079652 -0.20880307 -0.09561993
-0.25367364 -0.50100422 0.00000227
-0.45145696 0.15255043 -0.09579459
-0.20167002 -0.28015259 0.00000286
-0.63622487 -0.44444838 -0.06311819
-0.31449565 -0.21381417 0.00000362
-0.04201522 -0.53956276 0.00000117
-0.30247638 -0.51530737 0.00000244
-0.00758059 -0.34797984 0.00000165
-0.18932670 0.06091558 0.00000869
-0.66006273 -0.41839710 -0.08121908
-0.18218920 0.59916466 -0.05174469
-0.24778150 -0.77044100 0.00000123
-0.60629249 0.07422894 -0.15977260
-0.26832038 -0.23175143 0.00000335
-0.06010167 -0.04787821 0.00000309
-0.04224767 -0.69590384 0.00000058
-0.73374248 -0.71776003 -0.05491462
-0.47862741 -0.35552457 0.19981673
-0.19451639 -0.75209451 0.00000106
-0.43664977 -0.03132358 -0.04824498
-0.56156975 -0.06076354 -0.10716825
-0.08823421 -0.65386140 0.00000095
-0.33142385 -0.00014055 0.12406790
-0.64654571 -0.71181118 -0.01062510
-0.37935233 -0.37699330 0.00000330
-0.02464205 0.01013229 0.00001155
-0.69664109 -0.01654453 -0.18734543
-0.62004173 -0.78738487 0.00000285
-0.09394138 0.62760878 -0.01177407
-0.06082634 0.65314347 0.03726002
-0.32730362 -0.08193670 0.00000417
-0.44523081 -0.18105848 -0.02031063
-0.24123065 -0.25113374 0.00000315
-0.19128487 -0.36270198 0.00000251
-0.10732661 -0.75412035 0.00000066
-0.70921493 -0.30663997 -0.13110866
-0.77325433 -0.68331903 -0.08302420
-0.16471250 -0.25516996 0.00000279
-0.59448314 -0.33152702 -0.06574833
-0.45365945 0.29346207 -0.12745690
-0.51215613 -0.05658731 -0.08224326
-0.01256292 0.12640122 0.00001086
-0.74268502 -0.74206191 -0.05432705
-0.29016939 -0.29408538 0.00000321
-0.17879052 0.31546953 0.00000694
-0.34592578 -0.43403816 0.00000294
-0.36167076 0.33027878 -0.08734374
-0.57274711 -0.05443678 -0.11438065
-0.41521889 -0.23085612 0.00000401
-0.66133195 -0.56695813 -0.04971690
-0.36567575 -0.49161071 0.00000281
-0.29927284 0.07747135 0.32348129
-0.34939450 -0.65890193 0.00000211
-0.60807258 -0.35193253 -0.06843363
-0.06632836 0.05276363 0.00001060
-0.04366981 0.15784593 0.00001016
-0.23068751 -0.00147001 0.00000404
-0.74390328 -0.45749199 -0.11657808
-0.36141309 -0.74965268 0.00000182
-0.42148256 -0.11824283 -0.02149758
-0.31955844 -0.09089805 0.00000411
-0.43198922 -0.16648388 -0.01654467
-0.35634637 0.40441787 -0.10061361
-0.23198701 -0.53201514 0.00000206
-0.16484804 -0.08994566 0.00000341
-0.03039974 -0.39993653 0.00000164
-0.69116753 0.00222195 -0.18854769
-0.55424696 -0.33152008 -0.04471779
-0.20679252 -0.29711980 0.00000282
-0.05782077 0.02369826 0.00001095
-0.69571811 -0.15899710 -0.15602051
-0.23239617 0.34511143 -0.02298011
-0.50190699 -0.59318125 0.00000305
-0.57100290 -0.14514005 -0.09383036
-0.32524952 -0.49525329 0.00000262
-0.32858267 0.22909147 -0.04813804
-0.39258355 -0.40184936 0.00000327
-0.34214631 0.40197536 -0.09266194
-0.13221809 0.33866620 0.00000746
-0.45099312 -0.28880733 0.14447723
-0.60527807 -0.30077705 -0.07804882
-0.31152505 0.02982689 0.00000708
-0.03553605 0.03551562 0.00001120
-0.18993460 0.42775232 -0.01867820
-0.36741167 0.14582339 -0.05040529
-0.09561404 0.15509082 0.00000939
-0.13378064 0.20356315 0.00000845
-0.22058623 0.37259731 -0.02275814
-0.52045006 0.10136687 -0.12077655
-0.53411406 -0.71198612 0.00000275
-0.30328244 -0.79788756 0.00000138
-0.32693452 -0.73581892 0.00000172
-0.58571285 -0.27582768 -0.07322369
-0.74671167 -0.24013998 -0.16510645
-0.35993519 0.25973645 -0.07116226
-0.72012222 -0.23765010 -0.15174738
-0.42871135 -0.78041798 0.00000201
-0.13298540 -0.08322919 0.00000329
-0.04509783 0.23880365 0.00000953
-0.45626152 -0.30152228 0.03689983
-0.22367980 -0.72345084 0.00000130
-0.44102976 -0.26475140 0.08625256
-0.10300329 0.36076561 0.00000774
-0.26646599 0.09027477 0.00000730
-0.48901248 0.07793006 -0.09926863
-0.39225310 -0.08223791 -0.01401451
-0.30365255 -0.44888276 0.00000269
-0.18921717 -0.31615677 0.00000267
-0.54164678 0.04165512 -0.11892750
-0.28276941 0.11732379 0.07035951
-0.57292372 0.12581654 -0.15349992
-0.43830234 -0.69994342 0.00000236
-0.32125416 0.33148181 -0.06647738
-0.09305404 -0.59655452 0.00000118
-0.46747562 -0.02634544 -0.06543594
-0.05781234 -0.15182158 0.00000269
-0.19214319 -0.52585793 0.00000190
-0.61738032 -0.03623503 -0.14165202
-0.03770747 0.29566374 0.00000921
-0.58118320 -0.20262347 -0.08670575
-0.09388477 0.31649804 0.00000821
-0.03339056 -0.79379630 0.00000017
-0.24044470 0.21949978 0.20115300
-0.59529454 -0.41962755 -0.04709742
-0.29667705 -0.54800785 0.00000229
-0.06000002 -0.24545413 0.00000235
-0.36045250 -0.54612386 0.00000258
-0.00013534 -0.11872585 0.00000256
-0.39102566 -0.57592404 0.00000261
-0.08365593 -0.10303983 0.00000299
-0.10238803 0.04266154 0.00001014
-0.73056221 -0.58445632 -0.08211487
-0.38668016 -0.13354377 0.19233675
-0.31104130 0.04906200 0.26419407
-0.37894627 0.06495988 -0.03892570
-0.02046185 0.47868183 0.00000810
-0.12045376 0.04642510 0.00000983
-0.14057195 0.46061608 0.15011752
-0.03478876 0.28506184 0.00000934
-0.41420028 -0.58371592 0.00000269
-0.56473905 -0.20394824 -0.07782331
-0.19595522 -0.08325572 0.00000357
-0.41843262 -0.74634302 0.00000210
-0.18820661 0.23260361 0.00000742
-0.28469434 -0.78190857 0.00000136
-0.20693351 -0.52550089 0.00000197
-0.11070675 -0.41429818 0.00000195
-0.39910907 -0.03232640 -0.02840480
-0.39485571 -0.75765890 0.00000195
-0.30257717 -0.63819212 0.00000198
-0.51078397 -0.22775428 -0.04446590
-0.21431223 0.05899771 0.00000832
-0.58801490 -0.19195008 -0.09258771
-0.18043508 0.17674214 0.00000795
-0.36034757 -0.70888495 0.00000197
-0.28029072 0.41934583 -0.06408954
-0.07416025 -0.34883279 0.00000203
-0.41348013 0.27513626 -0.10248609
-0.05493502 0.47769675 0.00000759
-0.28248724 -0.43159750 0.00000266
-0.20460805 -0.58806872 0.00000172
-0.70931375 -0.54860884 -0.07877010
-0.56967115 -0.64298379 0.00000317
-0.42965063 0.07888191 -0.06844470
-0.38473240 -0.42219639 0.00000316
-0.70220745 -0.49157158 -0.08740523
-0.16956864 0.54534727 -0.03349472
-0.46042484 -0.31157538 0.08799181
-0.73634386 -0.08378555 -0.19354057
-0.67860770 0.03752153 -0.18962561
-0.51109660 -0.08453248 -0.07563891
-0.04860584 0.63784665 0.00000648
-0.69208002 0.02742277 -0.19448131
-0.26583201 -0.09508066 0.00000385
-0.30171621 -0.52811641 0.00000239
-0.61408609 -0.74006301 0.00000300
-0.15680180 0.50986028 -0.01913730
-0.54271603 -0.51024288 0.05724813
-0.50245690 -0.41304666 0.00441357
-0.20869142 0.19453973 0.00000739
-0.50643384 -0.46800059 0.00000354
-0.50038213 0.14770928 -0.12032084
-0.55803484 -0.56643128 0.00000340
-0.34860602 -0.19579637 0.00000384
-0.04044135 -0.05826553 0.00000296
-0.30144241 -0.48125023 0.00000256
-0.04774488 -0.29865590 0.00000210
-0.40819520 -0.18548124 0.07385063
-0.02908477 -0.44328141 0.00000147
-0.32193884 -0.39142790 0.00000299
-0.30376875 -0.33358940 0.00000312
-0.33171365 -0.00084722 0.30925521
-0.58866239 -0.33921522 -0.06104113
-0.23958603 0.22157799 0.06504712
-0.11523303 -0.02612575 0.00000342
-0.11716626 0.35615626 0.00000756
-0.43218809 -0.28234726 0.00000390
-0.08858979 -0.60982209 0.00000111
-0.45598254 -0.40562287 0.00000354
-0.18193117 0.14008006 0.00000820
-0.06778018 -0.03246857 0.00000319
-0.40043974 -0.16677111 0.42223671
-0.64909977 -0.22271284 -0.11785708
-0.09837913 0.10207740 0.00000975
-0.51640004 -0.44671348 0.13815473
-0.27761000 -0.50193441 0.00000237
-0.39662832 -0.42404819 0.00000321
-0.01934461 0.54410940 0.00000763
-0.54807591 -0.19508979 -0.07103126
-0.22732148 -0.41029459 0.00000249
-0.27135628 0.14487390 0.16624087
-0.31386992 -0.62581915 0.00000207
-0.20914397 0.07028901 0.00000832
-0.00122265 -0.08411806 0.00000268
-0.44164652 -0.09460247 -0.03715606
-0.51996106 -0.40515870 -0.01085224
-0.00419470 0.79300725 -0.00067414
-0.71828860 -0.73486972 -0.04313251
-0.53036070 0.15256795 -0.13704348
-0.55688709 0.16913112 -0.15449588
-0.56462318 0.13874134 -0.15195955
-0.74450386 -0.10295307 -0.19365574
-0.00103068 -0.05594409 0.00000278
-0.33392739 -0.58953738 0.00000230
-0.67328089 -0.68645978 -0.03008892
-0.36769366 -0.24942990 0.00000373
-0.14830039 0.00169119 0.00000975
-0.40084371 -0.16773264 0.06023658
-0.43985489 -0.13880302 -0.02664948
-0.62051374 0.08726251 -0.17002854
-0.31699148 -0.28212905 0.00000338
-0.31658506 -0.55910879 0.00000234
-0.02097492 0.73503774 0.00000617
-0.48829719 0.15611365 -0.11582349
-0.01370727 0.46705753 0.00000829
-0.16182233 0.40931612 0.06981622
-0.59009069 -0.25251615 -0.08055935
-0.03256173 0.28893691 0.00000934
-0.00691671 -0.70364094 0.00000032
-0.61300468 -0.63985896 -0.00867146
-0.10250535 -0.44907475 0.00000178
-0.18694457 0.18279377 0.00000781
-0.67250448 -0.00147847 -0.17799079
-0.56263286 0.14457773 -0.15218289
-0.07781463 0.59295464 0.00000638
-0.65311164 -0.65121520 -0.02717714
-0.38261360 -0.46605197 0.00000298
-0.48304942 -0.30717194 -0.01277356
-0.01444067 -0.32641771 0.00000184
-0.11092756 0.25069401 0.00000845
-0.72595066 -0.79075044 -0.03503827
-0.55517846 -0.65613216 0.00000305
-0.58573598 -0.50064820 -0.02455888
-0.40181535 -0.40917867 0.00000328
-0.15062541 0.43634799 0.06779195
-0.58021158 -0.73141330 0.00000288
-0.64805144 -0.58746618 -0.03833469
-0.21030819 0.29226041 0.08009992
-0.03044386 0.41280609 0.00000844
-0.42445284 -0.09234323 -0.02865783
-0.32128462 0.02434135 0.02873236
-0.10622361 0.18349311 0.00000902
-0.64673603 -0.61910915 -0.03079594
-0.42690054 0.07145353 -0.06539873
-0.22348577 0.26044565 0.11297827
-0.13055573 0.05399711 0.00000963
-0.54453546 0.08199992 -0.12917317
-0.63919872 -0.19578615 -0.11851168
-0.54272842 -0.40873477 -0.02197878
-0.49558058 -0.24771301 -0.03219751
-0.50608242 -0.46382463 0.00000355
-0.52255255 -0.14768648 -0.06795333
-0.58381766 -0.24376327 -0.07917546
-0.11113810 -0.25550291 0.00000254
-0.05662796 -0.54863411 0.00000120
-0.36882052 0.11980431 -0.04550793
-0.01755940 -0.63208246 0.00000071
-0.48390347 0.04553422 -0.08958347
-0.10901954 0.39319971 0.00000741
-0.24350680 0.37877810 -0.03607763
-0.02490180 0.76579779 -0.00560674
-0.05299655 -0.56522620 0.00000112
-0.16150540 0.35240757 0.00000692
-0.29417419 -0.50737584 0.00000243
-0.39422578 0.31257746 -0.10052832
-0.67942309 -0.65763348 -0.03954084
-0.27100801 0.07805172 0.00000733
-0.11085604 -0.27896553 0.00000246
-0.04572096 0.52206886 0.00000739
-0.10376281 -0.70972991 0.00000081
-0.08552368 0.15761533 0.00000953
-0.06433982 0.51705033 0.00000715
-0.00446892 0.30262122 0.00000966
-0.67190522 -0.59187740 -0.04984832
-0.27410415 -0.69638753 0.00000163
-0.72956055 -0.64863735 -0.06769503
-0.00066521 -0.24388072 0.00000209
-0.24732599 -0.15908325 0.00000352
-0.35495862 -0.12080995 0.00000415
-0.13198657 0.27219406 0.00000797
-0.49982208 0.23319159 -0.13853723
-0.25748044 -0.73544765 0.00000141
-0.14976832 0.39386448 0.00000679
-0.07775194 -0.75215828 0.00000053
-0.41258377 -0.38416585 0.00000343
-0.35505959 -0.07956376 0.00000431
-0.52929664 -0.15339768 -0.07024201
-0.55964494 -0.18615773 -0.07901246
-0.57835716 -0.59629118 0.13427639
-0.23793572 0.19603705 0.00000694
-0.19268955 -0.03398196 0.00000374
-0.53932452 -0.50430638 0.00000355
-0.53851759 -0.50405329 0.00000355
-0.69748420 -0.23582168 -0.14031005
-0.41398877 -0.19946559 0.00589733
-0.08660074 0.33733028 0.00000816
-0.08188779 -0.11596067 0.00000294
-0.04970719 -0.25692004 0.00000226
-0.38441318 -0.56268871 0.00000263
-0.60331148 -0.10752357 -0.11886303
-0.55016071 -0.31785953 -0.04553955
-0.22434470 0.15609562 0.00000744
-0.65640301 -0.27863455 -0.10956671
-0.60044402 -0.35866973 -0.06298737
-0.27520663 -0.41571811 0.00000269
-0.17559080 0.00629935 0.00000930
-0.21903034 -0.45997295 0.00000227
-0.17828181 -0.65921724 0.00000133
-0.61649191 -0.46875516 -0.04754076
-0.39706197 -0.15860589 0.14375073
-0.08660202 0.52220124 0.00000678
-0.68056303 -0.16065395 -0.14774001
-0.22668041 0.25272954 0.20695002
-0.61610907 -0.32836708 -0.07773668
-0.45772874 -0.30506650 0.09007006
-0.20448282 0.30632487 0.06022288
-0.13268830 -0.37823936 0.00000218
-0.01838782 0.46661276 0.00000822
-0.39258245 -0.52404082 0.00000281
-0.07540780 -0.41885117 0.00000177
-0.77002788 -0.75395578 -0.06604369
-0.35772765 0.10355727 -0.03619149
-0.24698375 0.36287677 -0.03445208
-0.38750282 -0.23744766 0.00000386
-0.40131927 -0.61238724 0.00000252
-0.65055376 0.04437858 -0.17644580
-0.74562955 -0.46432352 -0.11600125
-0.29686356 0.02927092 0.00000730
-0.10721137 0.54116106 0.00959260
-0.10525352 -0.19610669 0.00000274
-0.54170191 -0.06706176 -0.09541940
-0.34547535 0.05074186 -0.01835099
-0.18983521 -0.36214954 0.00000250
-0.75439751 -0.21010906 -0.17562596
-0.16961192 0.39050728 0.15177113
-0.27337238 0.14001250 0.01094320
-0.55119252 -0.66665596 0.00000300
-0.07588088 0.42940074 0.00000763
-0.51627260 -0.02678179 -0.09084833
-0.17147428 -0.70184022 0.00000114
-0.02850826 -0.61941183 0.00000081
-0.58707350 -0.56059802 -0.01227799
-0.60327435 -0.26583847 -0.08456613
-0.75112599 -0.18479064 -0.17939785
-0.43871444 -0.73286378 0.00000224
-0.18714885 -0.60765219 0.00000157
-0.20438449 0.50870317 -0.04375950
-0.21465234 0.28177100 0.12460317
-0.02590374 -0.12709147 0.00000264
-0.02761473 -0.02539605 0.00000303
-0.18663928 -0.40648052 0.00000232
-0.63660872 -0.05922460 -0.14672542
-0.07656680 0.08890380 0.00001018
-0.37218329 -0.71473098 0.00000200
-0.56327355 -0.20526229 -0.07677278
-0.50634015 -0.28010222 -0.03080895
-0.04890890 0.67359960 0.00000621
-0.44499254 -0.49198905 0.00000317
-0.14105487 0.45945531 0.01581346
-0.37560236 -0.10680748 0.39981872
-0.11058257 0.53301919 0.09047087
-0.48386645 -0.67485732 0.00000266
-0.34820047 0.23715912 -0.06013964
-0.26006097 -0.44178808 0.00000252
-0.03775159 -0.78165203 0.00000024
-0.56502974 0.09026082 -0.14167482
-0.44184265 -0.26672390 0.35003102
-0.01735151 -0.28466693 0.00000201
-0.31219941 -0.19062221 0.00000370
-0.00077418 -0.50392389 0.00000111
-0.21654037 -0.16714893 0.00000335
-0.44945556 0.29684752 -0.12599246
-0.32459077 -0.03315616 0.00000434
-0.48439547 -0.19697677 -0.03733602
-0.15950736 -0.26354375 0.00000273
-0.24020655 0.22007903 0.08761640
-0.05249271 0.10145027 0.00001045
-0.31055203 -0.54798633 0.00000235
-0.17357855 0.38093603 0.01882917
-0.73572206 -0.78671992 -0.04101834
-0.09281993 -0.21705367 0.00000261
-0.77781498 -0.79151291 -0.06198218
-0.49516490 -0.13957332 -0.05539403
-0.22027232 -0.34399432 0.00000271
-0.05719078 -0.33114427 0.00000202
-0.03426738 0.23110703 0.00000975
-0.09062368 0.66679490 -0.01852463
-0.09357787 -0.35181069 0.00000210
-0.36087060 -0.44948733 0.00000295
-0.53492063 -0.00387460 -0.10555322
-0.16295978 0.15947670 0.00000835
-0.22529256 -0.66712391 0.00000152
-0.43448246 -0.74116260 0.00000219
-0.09872270 0.34974962 0.00000789
-0.26919413 -0.62036651 0.00000189
-0.68924654 -0.47493440 -0.08423271
-0.32814592 -0.14530508 0.00000394
-0.30752403 -0.24810115 0.00000346
-0.30808169 0.05621204 0.13532272
-0.19904752 0.21249345 0.00000740
-0.35781798 -0.55857503 0.00000253
-0.20449996 0.30627978 0.15794083
-0.35450897 -0.45788041 0.00000289
-0.65639395 -0.29427463 -0.10617568
-0.17269941 0.58806676 -0.04438113
-0.61069334 -0.35567757 -0.06899269
-0.27039298 -0.12581512 0.00000375
-0.08227282 0.21387286 0.00000915
-0.33235857 -0.33324903 0.00000325
-0.28789282 -0.01379652 0.00000425
-0.29748207 -0.76075745 0.00000149
-0.24817607 -0.74436098 0.00000133
-0.40090454 -0.58135796 0.00000263
-0.39047924 0.15387891 -0.06420757
-0.38845953 -0.36381286 0.00000339
-0.54001915 -0.00899104 -0.10711051
-0.65151268 -0.32807902 -0.09630503
-0.32871500 0.00640212 0.04710323
-0.73977262 -0.26340666 -0.15644182
-0.70924151 -0.31959063 -0.12831856
-0.25532997 0.29817826 -0.02480596
-0.69208807 -0.79292220 -0.01686837
-0.72164977 -0.69426697 -0.05368055
-0.77190202 -0.62490523 -0.09496493
-0.14483021 0.44604102 0.00000647
-0.34904543 0.27598032 -0.06898711
-0.30586830 -0.54503345 0.00000234
-0.12791228 -0.68812597 0.00000100
-0.57704020 -0.39523730 -0.04283646
-0.46154982 0.22784813 -0.11737429
-0.22663392 -0.35861915 0.00000268
-0.29724139 0.39410931 -0.06748574
-0.03695366 -0.32170600 0.00000196
-0.01157599 -0.54008538 0.00000103
-0.36984792 -0.45109889 0.00000298
-0.19515274 0.18625219 0.00000766
-0.13896102 -0.06029448 0.00000340
-0.17098764 -0.00364270 0.00000376
-0.02770184 0.49719065 0.00000785
-0.07553413 0.09298035 0.00001016
-0.32054132 -0.36908236 0.00000307
-0.65348315 -0.09575554 -0.14763641
-0.23366080 0.11487272 0.00000761
-0.41635782 -0.20797113 0.00000410
-0.26888692 0.00014959 0.00000794
-0.69016492 -0.60675728 -0.05617105
-0.23242766 0.15889157 0.00000730
-0.16535719 -0.64434707 0.00000133
-0.08183490 0.44301555 0.00000744
-0.00822048 -0.46473801 0.00000121
-0.62067318 -0.55620307 -0.03079258
-0.50448304 -0.34331015 -0.01615276
-0.35315433 -0.34628776 0.00000330
-0.74157226 -0.13437928 -0.18531913
-0.35948461 -0.61509281 0.00000232
-0.58062595 0.01551685 -0.13364334
-0.14804234 0.43021736 0.00000654
-0.41722226 0.29649165 -0.10906621
-0.51851302 -0.31763786 -0.02904488
-0.50523794 0.14978155 -0.12330781
-0.46937704 0.17230889 -0.10944012
-0.08126760 -0.46971515 0.00000161
-0.45028695 -0.34320837 0.00000375
-0.17051926 0.35909310 0.00000673
-0.64140093 0.07997551 -0.17936902
-0.16460370 -0.73118824 0.00000100
-0.36956015 -0.54939604 0.00000261
-0.35363552 -0.57783449 0.00000243
-0.11062629 -0.19718035 0.00000276
-0.06156519 -0.68824172 0.00000070
-0.22326271 -0.53785849 0.00000199
-0.25885585 0.37286633 -0.04282094
-0.00841445 -0.16011301 0.00000235
-0.52033049 -0.26208553 -0.04202277
-0.44551069 -0.36832342 0.00000364
-0.01518523 -0.49591267 0.00000121
-0.67697215 0.01466830 -0.18382235
-0.43781877 0.28018466 -0.11630166
-0.75166816 -0.14460263 -0.18838261
-0.09473770 0.01145892 0.00001048
-0.23695695 -0.45357543 0.00000237
-0.47780332 -0.26977673 -0.01812795
-0.18965644 0.43885237 -0.02093624
-0.48302075 -0.43737409 0.00000355
-0.37803495 -0.57703173 0.00000255
-0.30312192 -0.68028015 0.00000182
-0.04243119 0.14441186 0.00001028
-0.18478878 0.35386723 0.14751174
-0.64430815 -0.24408896 -0.11072418
-0.67829782 -0.48768356 -0.07574928
-0.05319479 0.08862035 0.00001053
-0.01372378 0.68663335 0.00000664
-0.56105196 -0.44372621 -0.02398063
-0.15982983 0.31975719 0.00000719
-0.29928565 0.34921411 -0.05883337
-0.70254695 -0.59764397 -0.06461622
-0.55163395 -0.53177643 0.15608697
-0.32650504 -0.25313127 0.00000353
-0.53231138 -0.11319257 -0.08052284
-0.04254971 -0.56564665 0.00000107
-0.38865536 -0.13831633 0.29694673
-0.73046410 -0.08997922 -0.18912610
-0.04687468 -0.00992386 0.00000317
-0.41387719 0.07907536 -0.06024138
-0.04094656 -0.12916014 0.00000270
-0.21251075 -0.04584853 0.00000379
-0.52089614 -0.05625512 -0.08688371
-0.18835743 -0.64368898 0.00000144
-0.31263620 -0.11946476 0.00000397
-0.22196762 -0.20072176 0.00000325
-0.15720896 0.59974658 -0.03881285
-0.13563515 -0.18074732 0.00000294
-0.15596205 0.03582773 0.00000938
-0.25350180 -0.11887826 0.00000370
-0.33443615 -0.47741443 0.00000272
-0.71702433 -0.52238792 -0.08847763
-0.25560540 -0.57374442 0.00000201
-0.47493255 -0.76647961 0.00000228
-0.41683948 0.30129567 -0.10990630
-0.49160364 -0.40639633 0.00000370
-0.44575158 -0.19726677 -0.01707351
-0.45633730 0.06288985 -0.07893183
-0.31697279 -0.12617202 0.00000396
-0.36172143 -0.23026776 0.00000377
-0.30442950 0.23708715 -0.03724380
-0.72083318 -0.36047316 -0.12552580
-0.45367789 -0.13696791 -0.03427228
-0.72943467 -0.62403506 -0.07295606
-0.03323842 -0.41163719 0.00000161
-0.46059206 -0.77205288 0.00000219
-0.07450528 -0.40688592 0.00000181
-0.07298192 0.10850149 0.00001009
-0.03091811 -0.32025960 0.00000194
-0.51913601 -0.29622641 -0.03400642
-0.09515270 -0.47009289 0.00000167
-0.24309860 0.31592390 -0.02225470
-0.61889333 -0.66010416 -0.00736616
-0.67512590 -0.29980806 -0.11476906
-0.16016114 0.46266380 -0.01067405
-0.28615996 -0.13200551 0.00000380
-0.55137885 -0.49560696 -0.00769140
-0.12014098 0.50994337 0.08413975
-0.24695976 0.48750517 -0.06142481
-0.50069338 0.06853936 -0.10334122
-0.36548826 0.38174000 -0.10048192
-0.34207922 -0.02586343 0.08499245
-0.26931128 -0.72036117 0.00000152
-0.41133592 -0.19307631 0.40831444
-0.30451125 -0.23897400 0.00000348
-0.02496448 -0.56465971 0.00000100
-0.30238289 0.17583857 -0.02291209
-0.56911933 -0.57398981 0.15343115
-0.57839161 -0.32266656 -0.05925549
-0.28001544 -0.49118680 0.00000243
-0.38281646 0.34122622 -0.10076756
-0.32230231 0.02187737 0.21446846
-0.04880699 0.11535784 0.00001040
-0.37093458 -0.78585535 0.00000173
-0.72350061 -0.11896357 -0.17921066
-0.37560254 -0.10679811 0.14159404
-0.67372996 -0.21940780 -0.13144723
-0.37812689 -0.11289251 0.14371295
-0.12600945 -0.54258966 0.00000154
-0.71973234 -0.22262615 -0.15479648
-0.58874714 -0.10173718 -0.11250289
-0.46865827 -0.51662278 0.00000318
-0.02574951 0.05300589 0.00001121
-0.07599824 0.56779093 0.00000659
-0.07486465 0.57452589 0.00000656
-0.00766619 0.07144721 0.00001135
-0.34921774 -0.67677724 0.00000204
-0.57317865 -0.15013531 -0.09388609
-0.30575371 0.06182661 0.28460908
-0.28045514 -0.71377528 0.00000159
-0.32475165 0.42276475 -0.08807073
-0.52868944 -0.07367267 -0.08718623
-0.73552746 -0.55882841 -0.09025906
-0.26817226 -0.26002830 0.00000324
-0.06462803 -0.30128479 0.00000216
-0.56636256 -0.53480297 -0.00703710
-0.15889286 0.15252033 0.00000846
-0.39137900 0.16689637 -0.06749650
-0.40848213 -0.54131824 0.00000282
-0.04162384 0.73806602 -0.00834315
-0.53103215 0.16319188 -0.13969482
-0.43451726 -0.03008870 -0.04739766
-0.35286558 0.22267060 -0.05944107
-0.06138799 0.26801604 0.00000906
-0.27207643 -0.22835711 0.00000338
-0.55715656 -0.48868424 -0.01221037
-0.73219311 -0.63238925 -0.07258905
-0.02082392 -0.29046333 0.00000201
-0.15317138 -0.35376957 0.00000237
-0.56000191 0.05529555 -0.13147575
-0.16273138 -0.26576856 0.00000274
-0.72693032 -0.21791615 -0.15957874
-0.03076323 0.72572249 0.03193293
-0.46029308 0.02585429 -0.07298048
-0.27253163 -0.42988509 0.00000262
-0.52068514 -0.46646106 0.00000361
-0.62519252 -0.31345257 -0.08571395
-0.02174306 0.23957270 0.00000988
-0.46806923 -0.53392893 0.00000312
-0.72702640 -0.16669533 -0.17071903
-0.34672043 -0.42953941 0.00000296
-0.20305488 0.18739924 0.00000753
-0.44218481 -0.07039064 -0.04267964
-0.16344681 0.09958884 0.00000879
-0.14253063 -0.05710600 0.00000343
-0.30735999 0.15547810 -0.02110518
-0.69005954 -0.39949435 -0.10099157
-0.76381993 -0.37137398 -0.14563437
-0.15277611 0.61898500 -0.04066128
-0.41008550 -0.24338987 0.00000394
-0.40360272 -0.17439999 0.23156604
-0.66990173 -0.79884607 -0.00398917
-0.24176227 -0.45881256 0.00000237
-0.22683279 -0.62420887 0.00000169
-0.06183269 -0.32180485 0.00000207
-0.39542672 -0.15466365 0.29179674
-0.65546292 -0.66740704 -0.02490041
-0.03579117 0.68098724 0.00000635
-0.21902364 0.27121860 0.10201649
-0.06778524 0.52284032 0.00000706
-0.29004738 -0.49779212 0.00000245
-0.42100430 0.00887399 -0.04876650
-0.40903640 -0.18752444 0.39968371
-0.67455542 0.01548578 -0.18273608
-0.74573320 -0.39808661 -0.13039684
-0.19203618 -0.30771026 0.00000272
-0.22497359 -0.63034618 0.00000165
-0.24103332 -0.47217560 0.00000232
-0.08232183 0.28567716 0.00000862
-0.21897635 0.02109886 0.00000854
-0.37615284 0.34667993 -0.09846518
-0.04094912 -0.50911635 0.00000128
-0.39396247 0.26578644 -0.09025922
-0.17653376 -0.33848643 0.00000253
-0.46670404 -0.12849548 -0.04291566
-0.20425095 -0.68179882 0.00000137
-0.24224737 -0.69997793 0.00000147
-0.03290743 -0.01537852 0.00000309
-0.10157831 -0.19299962 0.00000274
-0.19860063 -0.76859516 0.00000102
-0.54970843 -0.38440314 -0.03089550
-0.36870024 0.27899700 -0.07991439
-0.47193751 -0.47185320 0.00000337
-0.20604345 -0.21670239 0.00000312
-0.26700315 0.15538763 0.05255951
-0.32824868 -0.16856752 0.00000385
-0.39995500 -0.16560119 0.43116859
-0.36192909 -0.07378401 0.05135411
-0.59795785 -0.65013176 0.00000327
-0.24448480 -0.52633756 0.00000213
-0.40564767 -0.52174598 0.00000288
-0.02274156 -0.41191429 0.00000156
-0.51042533 -0.46727094 0.00000356
-0.07485434 0.01070375 0.00001079
-0.15660518 0.22410394 0.00000796
-0.68990946 -0.46457955 -0.08682120
-0.44098675 -0.26465511 0.28462318
-0.01283934 -0.25006399 0.00000212
-0.23959611 0.50885046 -0.06219744
-0.64215416 -0.30151105 -0.09716554
-0.55215281 -0.70768738 0.00000285
-0.10026333 0.07744368 0.00000991
-0.26334113 0.05943238 0.00000758
-0.48634031 -0.03587671 -0.07323311
-0.49471706 -0.55176038 0.00000317
-0.14308386 -0.04442396 0.00000348
-0.27527320 -0.38551691 0.00000280
-0.59510422 -0.60262436 -0.00737645
-0.69328934 -0.02832601 -0.18304317
-0.33650991 -0.17520832 0.00000387
-0.64458400 -0.72036445 -0.00774781
-0.28600532 0.28835863 -0.03871460
-0.33499745 0.16853392 -0.03837894
-0.43481439 -0.36330906 0.00000361
-0.35476962 -0.30236834 0.00000347
-0.45565739 -0.65314972 0.00000261
-0.61957759 -0.69580382 0.17401864
-0.27647132 -0.43170178 0.00000263
-0.63976467 -0.09368739 -0.14091337
-0.70343947 -0.31775320 -0.12568359
-0.00763982 -0.12372901 0.00000257
-0.17629054 -0.46697885 0.00000205
-0.18247624 0.49918377 -0.03024627
-0.49162415 -0.04131713 -0.07481712
-0.61012197 -0.08701947 -0.12686241
-0.10015307 0.19158766 0.00000905
-0.55274749 0.05945792 -0.12858494
-0.34031308 0.17555545 -0.04267790
-0.17184885 0.03401571 0.00000915
-0.01802655 -0.23116067 0.00000221
-0.29023814 -0.03614597 0.00000418
-0.10362269 -0.24454047 0.00000255
-0.24883042 -0.19028617 0.00000341
-0.02237893 0.68390775 0.00000653
-0.71672243 -0.60296679 -0.07087312
-0.07328920 0.26508245 0.00000891
-0.58393663 -0.27571794 -0.07231899
-0.02532611 -0.55415577 0.00000104
-0.20756824 0.29887143 0.18056495
-0.36555436 -0.49051997 0.00000282
