ply
format ascii 1.0
element vertex 1293
property float x
property float y
property float z
end_header
-0.07858575 0.58426809 0.00000643
-0.01756410 -0.17792615 0.00000239
-0.51393646 -0.71966356 0.00000185
-0.70422518 -0.24934503 -0.07141416
-0.08303630 0.64598125 -0.00509190
-0.01537834 -0.27061066 0.00000203
-0.24224006 -0.71077013 0.00000107
-0.38275152 -0.00514230 -0.01304437
-0.41314417 0.22141787 -0.04595656
-0.64220530 -0.24456061 -0.05550837
-0.38840753 -0.13771644 0.24400140
-0.54868156 0.23011208 -0.08281946
-0.17499617 -0.79250771 0.00000056
-0.29500777 0.49647671 -0.04484374
-0.41810641 -0.10098335 -0.01189376
-0.03427896 -0.49133557 0.00000126
-0.40923595 -0.24727350 0.00000331
-0.00984055 -0.10045668 0.00000265
-0.35511273 0.29544201 -0.03870556
-0.24249256 -0.54014105 0.00000171
-0.67496914 -0.38175079 -0.04913386
-0.41838163 -0.32056585 0.00000306
-0.59803146 -0.27691036 -0.04025558
-0.31488559 0.03978093 0.24842761
-0.24100702 -0.45074436 0.00000204
-0.26875269 -0.65498281 0.00000135
-0.13288377 0.47917700 0.10534081
-0.48336235 0.21897313 -0.06429161
-0.18414213 0.02719049 0.00000902
-0.77829802 -0.33020359 -0.08216471
-0.04409763 0.68974692 0.00000616
-0.63670111 -0.46260747 -0.03012280
-0.49407530 -0.10667487 -0.03139548
-0.53858989 -0.06501849 -0.04775981
-0.18301053 -0.50627732 0.00000165
-0.36012012 -0.66562515 0.00000159
-0.50795496 -0.21163957 -0.02355429
-0.56966275 -0.57530177 0.21475480
-0.76062292 -0.18541163 -0.09337118
-0.54259473 0.14899112 -0.07230437
-0.47167861 0.07647406 -0.04555787
-0.74250627 -0.70324272 -0.03174684
-0.27838975 -0.11220507 0.00000342
-0.31429970 -0.17109777 0.00000331
-0.42266604 -0.05236204 -0.01843719
-0.46017149 -0.03655073 -0.03010849
-0.09538387 0.58769912 -0.00196716
-0.36604789 -0.77707940 0.00000119
-0.73860866 -0.38657802 -0.06546392
-0.06292236 0.24340943 0.00000922
-0.22530901 0.34050661 -0.00926138
-0.34363899 -0.47557390 0.00000225
-0.31194931 0.04687842 0.00506201
-0.29309267 -0.36279002 0.00000252
-0.00240855 0.65680653 0.00000704
-0.09060365 -0.49700403 0.00000141
-0.01041759 -0.10893739 0.00000262
-0.25568390 -0.30645409 0.00000262
-0.22703990 0.16178326 0.00000736
-0.05308129 -0.73415387 0.00000041
-0.12072275 -0.74843949 0.00000056
-0.53707278 -0.01162690 -0.05321680
-0.38428807 0.10598117 -0.02564315
-0.28472722 -0.20611089 0.00000309
-0.01916617 0.31878385 0.00000932
-0.06753868 -0.09175807 0.00000286
-0.63796598 -0.10427107 -0.06977992
-0.24456441 0.46754768 -0.02830471
-0.39349511 -0.41897568 0.00000262
-0.00589527 -0.64569706 0.00000054
-0.36330447 -0.18656440 0.00000340
-0.35925227 -0.06732703 0.17501678
-0.16489811 0.54864311 -0.01609787
-0.01455305 0.69343579 0.00000658
-0.10631827 0.26438248 0.00000841
-0.38691121 0.09255153 -0.02486430
-0.05976972 0.15802477 0.00000991
-0.38985473 -0.53132814 0.00000218
-0.43862152 -0.58990693 0.00000211
-0.58228397 0.08539766 -0.07584055
-0.56845695 0.13785964 -0.07793461
-0.51316470 -0.29899701 -0.01534833
-0.55727148 0.06740132 -0.06723887
-0.16359733 -0.70886117 0.00000084
-0.68654144 -0.50980377 -0.03814781
-0.10763776 -0.23156431 0.00000246
-0.11400984 -0.10338552 0.00000296
-0.18497115 -0.28032464 0.00000251
-0.17471868 0.12862360 0.00000840
-0.75815964 -0.45755842 -0.06285423
-0.65857953 -0.34430054 -0.04890141
-0.08097802 -0.02167526 0.00000316
-0.64544338 0.09706261 -0.09385392
-0.12593848 0.41161233 0.00000701
-0.10488499 -0.62771612 0.00000096
-0.47954619 -0.35774425 0.23716632
-0.39232093 -0.14716820 0.35469699
-0.40893427 -0.57594407 0.00000207
-0.44758198 -0.01015749 -0.02966943
-0.02995501 0.52266610 0.00000763
-0.12238372 -0.42174396 0.00000179
-0.50162846 -0.41104856 0.04265720
-0.48641589 -0.02316698 -0.03853003
-0.56509155 -0.67174077 0.00000219
-0.48159897 -0.06745130 -0.03239435
-0.17483518 0.31639114 0.00000699
-0.48404661 -0.57061768 0.00000232
-0.54145825 -0.17756291 -0.03616964
-0.27680081 0.08644171 0.00000718
-0.56480175 -0.75535703 0.00000187
-0.19683547 0.54504609 -0.02416449
-0.73284262 -0.79199755 -0.01944714
-0.13868625 0.43792120 0.00000662
-0.09592175 0.39173743 0.00000761
-0.47422779 -0.34490713 0.31411025
-0.00651878 0.78241020 0.00000603
-0.50815159 0.12553613 -0.06060512
-0.52799362 -0.66957092 0.00000208
-0.63234693 -0.24426344 -0.05292923
-0.48664096 -0.37486622 0.06085679
-0.36657241 -0.58655882 0.00000191
-0.23176746 0.24045090 0.10297704
-0.42458537 -0.36825985 0.00000290
-0.23471472 0.35972896 -0.01386281
-0.60333729 -0.31348509 -0.03764773
-0.12261371 -0.33876964 0.00000210
-0.27810058 0.42970946 -0.03303718
-0.06554754 0.48362455 0.00000738
-0.02730951 0.31267357 0.00000924
-0.73083824 -0.00103417 -0.10571268
-0.17746995 0.54140204 -0.01863395
-0.76019305 -0.57234192 -0.05079700
-0.24863124 0.19973756 0.11991180
-0.55004609 -0.36107382 -0.01830725
-0.41344553 0.34088695 -0.05914730
-0.77306831 -0.37939176 -0.07538154
-0.45885092 -0.59855837 0.00000214
-0.03626929 -0.73046643 0.00000037
-0.30692682 0.05899867 0.14854535
-0.71019053 0.01925913 -0.10246939
-0.48046026 -0.06654001 -0.03219267
-0.51470357 0.06352646 -0.05553584
-0.72646958 -0.48745239 -0.05117847
-0.63837367 -0.74117917 0.00579365
-0.59477484 -0.48461774 -0.01660005
-0.32197386 0.02266674 0.29296497
-0.77806062 -0.46387282 -0.06743345
-0.15964743 0.19771649 0.00000811
-0.12852001 -0.46944088 0.00000163
-0.47574660 0.12524036 -0.05198740
-0.38511693 -0.42187777 0.00000258
-0.00682119 -0.24675012 0.00000210
-0.71919841 -0.04431782 -0.09787963
-0.56391346 -0.65457737 0.00000225
-0.35188723 -0.04954941 0.26394504
-0.64906865 -0.13018140 -0.06987807
-0.44357228 0.33948192 -0.06697482
-0.07039204 -0.68371350 0.00000065
-0.07202748 -0.29943037 0.00000209
-0.22733855 -0.05408385 0.00000348
-0.38443801 -0.12813771 0.37004238
-0.53997248 -0.04163859 -0.05069168
-0.52669972 -0.64851481 0.00000216
-0.35417613 -0.32768542 0.00000284
-0.10171891 0.42337573 0.00000729
-0.11681496 0.50456762 0.00000645
-0.06183443 -0.04721074 0.00000301
-0.07637160 -0.12133493 0.00000278
-0.32961851 -0.41120532 0.00000245
-0.30204076 0.07079014 0.27493328
-0.01475600 -0.26841491 0.00000204
-0.18100064 -0.39669126 0.00000206
-0.04710704 -0.26249883 0.00000216
-0.53944927 -0.14580159 -0.03912275
-0.27893317 0.48941609 -0.03981014
-0.36314344 -0.65305579 0.00000165
-0.30790082 0.35734987 -0.03299138
-0.06591331 0.39318302 0.00000806
-0.13817328 -0.02954650 0.00000331
-0.00110964 -0.74573952 0.00000021
-0.28821883 0.10416120 0.21902443
-0.60331434 -0.62194562 -0.00379273
-0.66713297 -0.33439782 -0.05225412
-0.46735033 -0.27503479 -0.00584032
-0.44694266 -0.27902934 0.15113220
-0.70569044 -0.64432579 -0.02845898
-0.05742176 -0.76058328 0.00000032
-0.55261624 -0.47252366 -0.00675820
-0.40704322 0.17987078 -0.03978069
-0.18636559 -0.23428258 0.00000268
-0.00798086 -0.34609580 0.00000173
-0.42178014 -0.21827774 0.04091379
-0.72783703 -0.00323286 -0.10467625
-0.04128288 0.15981159 0.00001018
-0.27116057 0.14534581 0.15251774
-0.41598472 -0.30000195 0.00000313
-0.64421356 -0.75527883 0.09922975
-0.34871730 -0.65374148 0.00000160
-0.34492442 0.27321520 -0.03356707
-0.10386964 -0.01075069 0.00000327
-0.29877773 -0.09930304 0.00000353
-0.12259338 0.24858357 0.00000829
-0.21554497 0.11320474 0.00000790
-0.45630774 -0.61399955 0.00000207
-0.24671113 0.06645379 0.00000778
-0.18454526 -0.60213041 0.00000130
-0.17428026 -0.43891227 0.00000188
-0.54036170 0.03626460 -0.05934181
-0.22246116 -0.73836684 0.00000090
-0.06075464 -0.60776997 0.00000090
-0.00069007 -0.53533125 0.00000099
-0.45252502 -0.29250559 0.13009578
-0.08321711 -0.72543108 0.00000053
-0.24475887 -0.06370576 0.00000350
-0.19942532 -0.78964412 0.00000064
-0.35538402 -0.54315543 0.00000204
-0.48914528 -0.64017206 0.00000208
-0.64543521 -0.58912820 -0.01855295
-0.50605792 -0.42174265 0.05441218
-0.59148026 -0.62797254 0.14389770
-0.01383441 0.77676284 -0.00111018
-0.00330825 -0.48851737 0.00000118
-0.20655300 -0.75837344 0.00000078
-0.03706661 -0.41438490 0.00000156
-0.64196277 -0.08665681 -0.07277169
-0.40945247 -0.42314360 0.00000265
-0.61261290 -0.42668164 -0.02768347
-0.28298584 -0.63688809 0.00000147
-0.49432972 -0.03938703 -0.03884672
-0.00043667 -0.32442352 0.00000178
-0.25823840 0.32608500 -0.01640289
-0.06018029 0.01328920 0.00001099
-0.61390311 -0.27289334 -0.04490124
-0.76332074 -0.65353882 -0.04271532
-0.43150046 -0.08618711 -0.01706588
-0.14742559 -0.03826764 0.00000330
-0.23667611 -0.36170760 0.00000236
-0.22988530 -0.30923581 0.00000253
-0.47556514 -0.34812599 0.03713579
-0.04310104 0.20062310 0.00000984
-0.66229969 -0.16438299 -0.06963022
-0.39337334 -0.17266349 0.00000354
-0.11459047 0.43654791 0.00000700
-0.15529704 -0.03191171 0.00000335
-0.53326905 0.16433021 -0.07151702
-0.31452999 -0.54523832 0.00000190
-0.21351939 0.28450567 0.10114673
-0.15317012 -0.74796748 0.00000066
-0.30102766 -0.16467360 0.00000329
-0.35994518 -0.00305498 -0.00723139
-0.00255846 0.66039819 0.00000701
-0.74472862 -0.29081810 -0.07759356
-0.08726112 0.23248897 0.00000894
-0.55928284 -0.38507873 -0.01812013
-0.45738783 -0.30424309 0.06400351
-0.50227553 0.13407435 -0.05998534
-0.08674474 0.25968480 0.00000874
-0.32587367 -0.02268054 0.00000390
-0.49501443 -0.33002385 -0.00713509
-0.31411102 0.22690701 -0.02032148
-0.33900091 -0.74856639 0.00000122
-0.67657083 -0.36551854 -0.05133945
-0.74108416 -0.17852318 -0.08895077
-0.40371928 0.13574727 -0.03405780
-0.15501757 0.42574129 0.10666356
-0.37283179 0.01474714 -0.01259566
-0.60812169 0.04679064 -0.07844905
-0.40147638 0.18862554 -0.03926661
-0.36287200 -0.07606302 0.09679761
-0.49512267 -0.51120007 0.00000258
-0.00119373 -0.24362244 0.00000208
-0.46713984 -0.67671329 0.00000187
-0.63641179 -0.07391693 -0.07269908
-0.33743846 0.09175663 -0.01166994
-0.42190552 0.01534343 -0.02566251
-0.47879961 0.30361643 -0.07237179
-0.38699850 0.32617033 -0.05052548
-0.52858633 -0.41285437 -0.00693982
-0.73863393 -0.08106686 -0.09899599
-0.04995229 0.65792710 0.00000631
-0.24049670 -0.09787057 0.00000336
-0.23377337 0.23560320 0.24381126
-0.09313612 0.57513785 0.06091952
-0.06931064 0.36425096 0.00000822
-0.10774451 0.44426066 0.00000704
-0.18272460 0.35885081 0.10192875
-0.12538958 -0.00299121 0.00000337
-0.63904643 -0.20351879 -0.05917522
-0.33844391 0.23786700 -0.02797092
-0.66910821 -0.29630232 -0.05695783
-0.17070962 0.05178891 0.00000904
-0.42331842 -0.16965410 -0.00573898
-0.02431763 0.24557501 0.00000979
-0.78434587 -0.75344521 -0.03732192
-0.01797094 -0.78220040 0.00000012
-0.38339293 -0.40445778 0.00000264
-0.65340012 0.04951389 -0.09074381
-0.38162190 -0.04220562 -0.00867796
-0.38811377 0.20280965 -0.03728297
-0.14863850 -0.65311921 0.00000100
-0.09766456 -0.74880689 0.00000049
-0.45300642 -0.21840422 -0.00825457
-0.41392577 0.30646944 -0.05549745
-0.36900339 -0.39676064 0.00000263
-0.18607530 -0.18097746 0.00000288
-0.28645474 -0.73004597 0.00000113
-0.36373606 -0.15416133 0.00000352
-0.63201064 -0.24685577 -0.05255566
-0.37294301 0.23173250 -0.03643777
-0.13593915 -0.08782151 0.00000308
-0.43685824 -0.53409159 0.00000232
-0.09686068 -0.32634771 0.00000207
-0.09318828 0.57501113 0.08314208
-0.58764392 -0.14304198 -0.05219368
-0.03343205 -0.35432312 0.00000177
-0.27055651 0.14680050 0.25483352
-0.63098830 -0.19422510 -0.05806024
-0.33620688 -0.65617168 0.00000155
-0.50364304 -0.74239194 0.00000174
-0.20460786 -0.42252249 0.00000203
-0.49403474 0.23425268 -0.06879594
-0.28344741 0.11568282 0.15152968
-0.16188873 -0.33778825 0.00000222
-0.22285444 -0.53721762 0.00000166
-0.20604089 0.08156370 0.00000828
-0.71480328 -0.55184078 -0.04102210
-0.70275825 -0.12719227 -0.08442995
-0.63415575 -0.43658403 -0.03230414
-0.69016659 -0.01099941 -0.09384448
-0.19062582 0.44139424 -0.01114425
-0.58029324 -0.26127779 -0.03727168
-0.37753177 0.02508075 -0.01497490
-0.26162189 -0.69691300 0.00000118
-0.34595868 -0.33260721 0.00000280
-0.59888643 0.05279783 -0.07666154
-0.34118041 -0.29556331 0.00000292
-0.44231081 -0.56000000 0.00000223
-0.46476382 -0.48726743 0.00000258
-0.77435076 -0.46893147 -0.06589552
-0.58433896 -0.18669671 -0.04652765
-0.69269210 -0.10908378 -0.08375029
-0.04589944 0.68917763 0.04889105
-0.32842213 -0.47317314 0.00000222
-0.08066618 -0.41125515 0.00000170
-0.62457657 -0.72838330 0.00000215
-0.47456667 0.26813388 -0.06735636
-0.08901979 -0.05351194 0.00000307
-0.31763926 0.03313069 0.31278601
-0.36276323 -0.57859021 0.00000193
-0.48486015 -0.18028045 -0.02087703
-0.56958723 -0.03447550 -0.05932350
-0.18607181 -0.61460507 0.00000126
-0.09547689 0.47001085 0.00000703
-0.05195447 0.74655789 -0.00789478
-0.17119525 0.10628990 0.00000862
-0.58649200 -0.53948134 -0.00838525
-0.57751423 0.14415991 -0.08102563
-0.00116997 -0.78974539 0.00000003
-0.78345722 -0.73366630 -0.03925696
-0.15054569 -0.57134062 0.00000131
-0.56341177 -0.34471023 -0.02364384
-0.52031732 -0.24241476 -0.02345231
-0.00533937 0.09190485 0.00001123
-0.52751976 -0.68338096 0.00000203
-0.19708304 -0.23274182 0.00000272
-0.55062342 -0.63968033 0.00000226
-0.56911463 -0.12472131 -0.04929517
-0.56599271 -0.32974166 -0.02597018
-0.32120034 -0.67757303 0.00000143
-0.60257709 -0.77941459 0.00000190
-0.00515069 0.79018319 -0.00028234
-0.44279870 -0.11837725 -0.01652671
-0.31028643 -0.54343301 0.00000190
-0.73723459 -0.12583975 -0.09371212
-0.42079270 0.00792120 -0.02455315
-0.16940475 -0.25942433 0.00000254
-0.26219568 -0.00885101 0.00000376
-0.11979277 0.24457718 0.00000836
-0.31076422 0.36378554 -0.03445626
-0.11772760 -0.16477984 0.00000274
-0.75056130 -0.10225006 -0.09983135
-0.35428604 -0.05533805 0.19088988
-0.50140440 -0.41051093 0.13399737
-0.24428363 0.00857405 0.00000825
-0.17746763 -0.77435130 0.00000063
-0.43626800 -0.20015462 -0.00582272
-0.26228219 -0.56956184 0.00000166
-0.26098150 0.16991772 0.22321032
-0.08603077 0.40931052 0.00000763
-0.47206375 -0.65678936 0.00000196
-0.19312045 0.33375213 0.12678520
-0.26233566 0.35792181 -0.02098227
-0.04863544 -0.01599579 0.00000309
-0.60082191 0.08249293 -0.08043316
-0.24829377 0.20055395 0.07304870
-0.37376654 -0.63643104 0.00000174
-0.07242141 -0.65909743 0.00000075
-0.62559825 -0.15707220 -0.06070923
-0.62727803 -0.55619341 -0.01735670
-0.60127032 -0.30239955 -0.03831659
-0.24274451 -0.02597994 0.00000364
-0.56818789 -0.12848368 -0.04863679
-0.02994335 -0.11540387 0.00000266
-0.43428373 -0.48971695 0.00000247
-0.45178548 -0.72062039 0.00000166
-0.63520002 -0.09652000 -0.06989770
-0.69948041 -0.34008923 -0.06019932
-0.15270273 -0.30473179 0.00000232
-0.29277363 -0.08525209 0.00000356
-0.02297504 0.34515837 0.00000906
-0.01098727 -0.09271853 0.00000269
-0.18155046 0.52563179 -0.01798435
-0.13858849 -0.49375102 0.00000157
-0.05046837 -0.18878537 0.00000244
-0.09853554 -0.53300035 0.00000130
-0.43982407 -0.26184273 0.12740993
-0.08864670 0.50367326 0.00000688
-0.66432261 -0.11033256 -0.07609737
-0.50061017 0.27831921 -0.07537401
-0.35207340 -0.04999418 0.13271295
-0.45279995 -0.16302612 -0.01427679
-0.27823311 -0.76990998 0.00000095
-0.34146208 0.33896935 -0.03986583
-0.33788753 -0.69666564 0.00000141
-0.39900005 -0.00549079 -0.01731082
-0.66209018 -0.43295908 -0.04010253
-0.10143413 0.55510545 0.03997173
-0.45164281 -0.40709552 0.00000284
-0.35118744 -0.73429590 0.00000131
-0.41695410 -0.28878981 0.00000318
-0.20338427 0.50632441 -0.02165007
-0.70815265 -0.43195903 -0.05241552
-0.70613605 -0.11154793 -0.08704155
-0.77555668 -0.77728146 -0.03237778
-0.72455460 -0.28931257 -0.07241414
-0.67006856 -0.50160408 -0.03468346
-0.16243106 -0.42279577 0.00000190
-0.30005938 0.34902644 -0.03000045
-0.61633795 -0.68798286 0.15710647
-0.28760338 0.34538090 -0.02630033
-0.62167495 -0.02578573 -0.07407656
-0.62005132 -0.47578135 -0.02426616
-0.51420736 -0.31194374 -0.01420386
-0.38463238 -0.29986495 0.00000304
-0.01868215 -0.27664122 0.00000202
-0.50413847 0.15413341 -0.06268025
-0.13757344 0.35683411 0.00000725
-0.32853693 0.07100203 -0.00703393
-0.11897315 -0.10013768 0.00000298
-0.14370815 0.45304519 0.09047877
-0.29068011 -0.14656352 0.00000333
-0.63918418 -0.32713401 -0.04564680
-0.00387606 -0.37236661 0.00000158
-0.72403306 -0.71967554 -0.02504967
-0.31155995 -0.72910964 0.00000121
-0.54546535 -0.02532333 -0.05393726
-0.34002855 0.09493236 -0.01270467
-0.11506544 -0.73230231 0.00000060
-0.67487478 -0.66340142 -0.01820194
-0.52513796 -0.58117419 0.00000241
-0.56501603 -0.20346417 -0.03956849
-0.38675365 0.14153826 -0.03019852
-0.75010508 -0.34822294 -0.07271850
-0.15816557 -0.48733819 0.00000165
-0.20929629 0.02749768 0.00000864
-0.05303306 0.15665089 0.00001002
-0.57928574 -0.79980516 0.00000175
-0.34826201 -0.44151470 0.00000240
-0.33084428 0.21995518 -0.02399181
-0.41379666 -0.61995488 0.00000192
-0.72589481 -0.79335552 -0.01745751
-0.45210806 -0.32043523 0.00000316
-0.38231078 0.14890327 -0.02982970
-0.64169323 -0.74919438 0.13144282
-0.16779716 0.39488718 0.14737019
-0.35722339 -0.47140837 0.00000231
-0.63416976 -0.22885372 -0.05510313
-0.06730961 -0.42560431 0.00000161
-0.48478103 0.28340963 -0.07173893
-0.44811451 -0.06590083 -0.02369352
-0.20147914 -0.05090174 0.00000342
-0.44244564 -0.56665772 0.00000221
-0.06563254 -0.51052558 0.00000128
-0.52639258 -0.28625557 -0.02025094
-0.10331138 -0.32632494 0.00000209
-0.00256028 0.74230605 0.00000639
-0.31524596 0.03891938 0.01202875
-0.33485442 0.44904673 -0.05019545
-0.46608523 0.14843734 -0.05197345
-0.03323938 0.08405020 0.00001087
-0.13688236 0.56413406 -0.01037551
-0.08147517 0.01867509 0.00001063
-0.60695755 -0.54507560 -0.01319325
-0.65806961 -0.13605301 -0.07161836
-0.38839045 -0.47498402 0.00000239
-0.00220911 -0.49379739 0.00000115
-0.27798516 0.12887412 0.03246553
-0.26899227 0.15058590 0.00283487
-0.65712929 -0.03106987 -0.08288955
-0.16439180 -0.75272518 0.00000067
-0.27139562 -0.69938707 0.00000120
-0.26531863 0.21196258 -0.00575455
-0.01632150 0.63870323 0.00000696
-0.09480717 -0.35166824 0.00000197
-0.33691847 0.09469185 -0.01185430
-0.18076709 -0.51064676 0.00000163
-0.70465827 -0.08675390 -0.08937082
-0.09622085 -0.17450634 0.00000264
-0.01689146 0.72822988 0.00000628
-0.48189053 -0.36340454 0.25253850
-0.67776811 -0.60942614 -0.02489145
-0.72219998 -0.64268398 -0.03301282
-0.24312627 0.06363453 0.00000785
-0.15772180 0.61332440 -0.02129493
-0.20169136 0.58693534 -0.03004810
-0.19315016 0.31101778 0.00000675
-0.07583981 0.28919721 0.00000869
-0.04983161 -0.72182781 0.00000044
-0.22074641 -0.54049891 0.00000164
-0.03285858 -0.55796504 0.00000101
-0.14954679 0.26538810 0.00000775
-0.22230126 -0.48402628 0.00000186
-0.41375232 -0.24589753 0.00000333
-0.40752459 -0.32744989 0.00000300
-0.47095734 -0.34463358 0.00000313
-0.56846642 -0.67624044 0.00000218
-0.31434122 0.04109863 0.15131661
-0.54489952 0.11517400 -0.06920381
-0.77727705 -0.10735298 -0.10634906
-0.78446603 -0.54013032 -0.06076215
-0.52007681 -0.15300737 -0.03319971
-0.70191747 -0.47320005 -0.04623805
-0.04716697 0.36037466 0.00000859
-0.11025299 0.01228270 0.00001024
-0.31635189 -0.28305638 0.00000289
-0.74436396 -0.42702076 -0.06255058
-0.49727622 0.22659720 -0.06881459
-0.05113822 0.02375650 0.00001105
-0.46835053 -0.33071038 0.09270502
-0.26872960 -0.48707065 0.00000198
-0.70607877 -0.12271159 -0.08580133
-0.52976155 0.05672364 -0.05877868
-0.65126836 0.03979461 -0.08911240
-0.04763051 -0.31159288 0.00000198
-0.02606381 0.18039498 0.00001025
-0.43027797 -0.24346621 0.00000339
-0.11835468 0.19347925 0.00000876
-0.39576477 -0.24896102 0.00000326
-0.10910220 0.14988787 0.00000923
-0.43693662 0.20456453 -0.05041051
-0.17347518 0.38118169 0.07926144
-0.43601039 0.34433752 -0.06550423
-0.35619816 -0.62304670 0.00000174
-0.14325906 -0.10120179 0.00000305
-0.17886211 0.36817348 0.16330060
-0.10476796 0.33488125 0.00000791
-0.61956519 -0.00302021 -0.07601445
-0.52771974 0.12449625 -0.06567531
-0.10828087 0.53857553 0.05225589
-0.42177913 0.35776612 -0.06320755
-0.41127646 -0.19292885 0.29870370
-0.00627395 -0.18265201 0.00000228
-0.58448756 -0.33880946 -0.02987494
-0.56195557 0.19369471 -0.08233967
-0.65337592 -0.36505353 -0.04524549
-0.53641832 0.12096288 -0.06759211
-0.46737462 -0.53647232 0.00000240
-0.48879930 0.29091924 -0.07362769
-0.63359290 -0.02274842 -0.07756726
-0.14413282 0.25225171 0.00000793
-0.76403224 -0.73132277 -0.03436808
-0.67783368 -0.71673393 -0.01313339
-0.31235230 -0.28903544 0.00000286
-0.58117563 0.03047072 -0.06951907
-0.53604692 0.08688144 -0.06375351
-0.31527603 -0.70206726 0.00000132
-0.62598646 -0.31893042 -0.04305058
-0.19833520 -0.28469992 0.00000253
-0.23341936 -0.39615497 0.00000222
-0.22029585 -0.36528850 0.00000229
-0.01511709 -0.51905912 0.00000110
-0.67046195 -0.06318155 -0.08289797
-0.55104268 -0.53034741 0.11088650
-0.05626405 0.11652821 0.00001028
-0.47233188 0.08534229 -0.04670418
-0.05140118 0.25827736 0.00000929
-0.18153933 -0.51831031 0.00000160
-0.48574671 -0.37271091 0.16166586
-0.16352792 0.40519443 0.13633320
-0.42706469 0.26835951 -0.05479613
-0.24331577 -0.20039313 0.00000298
-0.03465098 0.63418341 0.00000672
-0.32347888 0.29435936 -0.03020579
-0.51349586 -0.60284966 0.00000229
-0.59073251 -0.69235700 0.00000219
-0.48475423 -0.26100597 -0.01199055
-0.33099541 -0.24037291 0.00000310
-0.08528124 0.59410328 0.00273851
-0.29788485 -0.62874389 0.00000154
-0.05172116 -0.59215128 0.00000094
-0.45922130 -0.30867907 0.33225048
-0.17561819 -0.36816782 0.00000215
-0.65870535 -0.62371582 -0.01827311
-0.09645636 -0.57631856 0.00000113
-0.61946547 -0.34955025 -0.03796293
-0.00115983 -0.31470343 0.00000181
-0.12063592 -0.27677563 0.00000233
-0.53767955 0.04129478 -0.05918324
-0.58280724 -0.01738255 -0.06470154
-0.38360286 -0.46269426 0.00000242
-0.57066154 -0.60263342 0.00000246
-0.26393628 -0.43602857 0.00000216
-0.34067771 0.25869644 -0.03084862
-0.49594936 -0.67300463 0.00000197
-0.15090545 0.27156010 0.00000769
-0.55866164 0.01698728 -0.06207458
-0.01871876 -0.03758017 0.00000292
-0.30148718 0.14119352 -0.00757050
-0.15519965 0.30597404 0.00000736
-0.57368743 -0.19510435 -0.04278315
-0.39473024 -0.15298374 0.32556823
-0.07855788 -0.71230036 0.00000057
-0.08565200 0.27295810 0.00000866
-0.71485353 -0.52982998 -0.04345079
-0.07322169 -0.41547510 0.00000166
-0.33417484 -0.53842360 0.00000199
-0.78112882 -0.55262691 -0.05850672
-0.62573659 -0.37618133 -0.03670195
-0.18181360 0.54964113 -0.02068893
-0.24357855 0.21193869 0.03960486
-0.34500170 -0.07354181 0.00000377
-0.40404248 -0.17546746 0.38164166
-0.54596835 -0.28375632 -0.02571138
-0.41478801 -0.31774053 0.00000306
-0.46037528 -0.04655043 -0.02906516
-0.01259233 -0.42494145 0.00000144
-0.00632218 -0.35261944 0.00000164
-0.61822438 -0.35782722 -0.03672585
-0.71091533 -0.55342650 -0.03981811
-0.00737416 0.11406646 0.00001103
-0.02855988 0.36701921 0.00000882
-0.31862503 0.41645062 -0.04231850
-0.22905506 0.42989883 -0.02006401
-0.08260212 -0.48727989 0.00000142
-0.70641327 -0.10898426 -0.08739632
-0.76403385 -0.36146766 -0.07495506
-0.62877023 -0.75048667 0.00000208
-0.19900945 -0.16506141 0.00000298
-0.42732283 -0.31827196 0.00000310
-0.33580026 0.04958526 -0.00660791
-0.28494042 -0.78265315 0.00000092
-0.19142945 0.33783528 0.10653331
-0.27822277 0.12830164 0.00001996
-0.65019929 -0.26835307 -0.05501535
-0.59366953 0.14030018 -0.08488218
-0.01966358 0.19408169 0.00001025
-0.27593687 0.07168987 0.00000730
-0.17437370 -0.60368145 0.00000126
-0.51125723 -0.65172505 0.00000210
-0.32757673 -0.59696668 0.00000175
-0.01562224 -0.22103840 0.00000222
-0.53767318 -0.41294733 -0.00933697
-0.67321575 -0.06036382 -0.08393673
-0.10307631 -0.44611990 0.00000164
-0.62694991 -0.55251640 -0.01767328
-0.20529459 0.30435860 0.19833875
-0.31093737 -0.14767405 0.00000338
-0.04449772 0.28449684 0.00000919
-0.50153720 -0.31273288 -0.01076058
-0.47129530 -0.50736845 0.00000252
-0.13586795 0.02588975 0.00000976
-0.34291598 0.37504405 -0.04420997
-0.30537352 0.06274323 0.29995722
-0.17298026 0.14470620 0.00000830
-0.12954482 -0.25433537 0.00000244
-0.51322764 -0.76194483 0.00000169
-0.69375974 -0.69621420 -0.01960425
-0.67533469 -0.83041000 0.07958041
-0.25777972 0.46879745 -0.03194308
-0.22487259 -0.32720527 0.00000245
-0.24090658 0.21838997 0.02381324
-0.00401565 0.49197334 0.00000825
-0.57709813 -0.44398180 -0.01637618
-0.26010895 0.45414525 -0.03095220
-0.73653066 -0.25537327 -0.07931127
-0.10319476 -0.10041544 0.00000293
-0.16299018 -0.49767989 0.00000163
-0.23529948 -0.41247615 0.00000216
-0.60194856 0.16185939 -0.08944156
-0.24128862 -0.76645470 0.00000085
-0.66870725 -0.65608168 -0.01737123
-0.16436535 0.01547005 0.00000940
-0.32692683 -0.65105361 0.00000155
-0.64025831 -0.31312296 -0.04746887
-0.16769096 -0.28180042 0.00000245
-0.17938572 0.36691454 0.01873265
-0.43125767 -0.25825265 0.00000333
-0.51456952 -0.15449437 -0.03157750
-0.32875502 -0.59963858 0.00000174
-0.44766492 -0.58809179 0.00000215
-0.23530804 -0.09534492 0.00000335
-0.51529753 -0.06902394 -0.04114947
-0.07329078 0.54206878 0.00000683
-0.21694173 -0.68611091 0.00000108
-0.54540318 -0.60255927 0.00000239
-0.35391468 -0.79461807 0.00000109
-0.63674212 -0.33581421 -0.04404731
-0.66141242 0.06439636 -0.09449981
-0.15202338 0.60416394 -0.01877992
-0.10072480 0.61247855 -0.00610153
-0.18593003 0.55467290 -0.02233172
-0.00460776 0.58906639 0.00000751
-0.61933517 -0.05226327 -0.07055117
-0.33593339 0.12416368 -0.01482765
-0.00458946 -0.23704007 0.00000212
-0.11814264 -0.77897614 0.00000044
-0.58081657 -0.61380708 0.00000245
-0.66851497 -0.56110811 -0.02774221
-0.54744178 -0.04660365 -0.05212567
-0.17208162 -0.77937937 0.00000060
-0.40795988 -0.31463969 0.00000305
-0.68479776 0.04104746 -0.09813305
-0.04471752 0.51459837 0.00000747
-0.27836835 -0.28069827 0.00000279
-0.64465797 -0.60013455 -0.01713925
-0.35084182 -0.42134100 0.00000248
-0.59701484 -0.02834701 -0.06726235
-0.49697459 -0.08241376 -0.03482588
-0.56254816 -0.55812603 0.17628977
-0.35110041 0.37596574 -0.04647947
-0.25873148 0.17534824 0.26536319
-0.28028819 -0.19922721 0.00000310
-0.34066418 -0.76493818 0.00000116
-0.48292229 -0.14622951 -0.02410021
-0.00472157 -0.07790615 0.00000272
-0.24950273 0.49912736 -0.03307870
-0.51416737 -0.66547537 0.00000206
-0.57871407 -0.59715027 0.06178677
-0.10246823 0.12356679 0.00000953
-0.60177273 -0.62000382 -0.00359741
-0.15491685 0.04727737 0.00000931
-0.04876876 -0.57598150 0.00000099
-0.08256525 0.27316311 0.00000871
-0.43774617 0.03515074 -0.03203299
-0.53158718 -0.19692861 -0.03142944
-0.64409155 -0.66778445 -0.00956564
-0.44755286 -0.28050941 0.34430692
-0.43694159 -0.25487998 0.02080975
-0.63837951 -0.43231308 -0.03389180
-0.45624158 -0.07931826 -0.02437424
-0.20575850 0.50414073 -0.02203944
-0.51828420 -0.25047529 -0.02202916
-0.70585918 -0.46998367 -0.04763527
-0.28649127 -0.30344740 0.00000273
-0.29564533 0.14839514 -0.00681311
-0.50646085 -0.75977588 0.00000168
-0.40002719 -0.16577511 0.42095199
-0.54543757 -0.73503888 0.00000189
-0.32899925 -0.15985312 0.00000339
-0.33582291 -0.38586712 0.00000257
-0.01789934 0.48570195 0.00000809
-0.25187293 0.19191295 0.07818253
-0.45751610 0.08267052 -0.04248573
-0.00142158 -0.26961470 0.00000198
-0.59879643 0.06999379 -0.07852483
-0.62446922 -0.32332891 -0.04216596
-0.20945457 -0.61005694 0.00000134
-0.24799921 -0.39236698 0.00000228
-0.25330463 0.35374683 -0.01813145
-0.15346025 0.42950240 0.06710724
-0.54363602 -0.24785852 -0.02903271
-0.19047382 0.34013888 0.20382857
-0.16490509 0.56967384 -0.01840770
-0.41097361 -0.33887446 0.00000297
-0.70256013 -0.69273388 -0.02231755
-0.03855917 -0.49496874 0.00000126
-0.71844620 -0.74106032 -0.02122292
-0.18856996 0.34474036 0.05972057
-0.03496297 0.38296205 0.00000860
-0.46047953 -0.31171370 0.24833804
-0.01475445 -0.10357856 0.00000266
-0.23018903 -0.62312073 0.00000136
-0.72698778 -0.15182512 -0.08814594
-0.57930750 -0.60786617 0.00000247
-0.75312835 -0.26664820 -0.08247113
-0.63419741 -0.16760167 -0.06183195
-0.32193881 0.33037001 -0.03374969
-0.37367868 -0.55883688 0.00000203
-0.18193457 -0.69433790 0.00000095
-0.73845363 -0.63735318 -0.03790370
-0.55826896 -0.20143314 -0.03800388
-0.44770131 -0.28086805 0.35170338
-0.00652777 -0.75711691 0.00000012
-0.11908414 -0.30754805 0.00000221
-0.06382688 0.16396421 0.00000981
-0.30268028 -0.46579495 0.00000217
-0.49298698 0.21440652 -0.06634037
-0.31369516 -0.62403023 0.00000161
-0.41709355 -0.30650979 0.00000311
-0.76009810 -0.22706121 -0.08866168
-0.60275960 0.05029385 -0.07741290
-0.52826601 -0.22401135 -0.02757765
-0.37102455 -0.71098584 0.00000145
-0.05026102 -0.48850653 0.00000132
-0.60314059 -0.71824861 0.00000213
-0.15740015 -0.47618255 0.00000169
-0.22003619 -0.44203129 0.00000201
-0.39493528 -0.01556230 -0.01512875
-0.21221556 -0.52148402 0.00000168
-0.20949531 0.29422221 0.05819795
-0.21071441 0.29127896 0.06005531
-0.16991036 -0.14853559 0.00000296
-0.31022799 -0.78417653 0.00000100
-0.22893427 0.14714833 0.00000744
-0.26998258 0.51445109 -0.04018629
-0.38478416 0.30890188 -0.04804373
-0.15785289 -0.36586699 0.00000210
-0.32579190 0.01344891 0.30128479
-0.05127857 0.72184569 -0.00500372
-0.43256035 -0.69542843 0.00000170
-0.61840051 -0.01692670 -0.07418122
-0.20366275 -0.28505871 0.00000255
-0.32074285 -0.13429840 0.00000346
-0.53950721 -0.32802090 -0.01914226
-0.24118567 0.27420309 -0.00619132
-0.38421449 -0.30191869 0.00000303
-0.23076423 -0.04464344 0.00000353
-0.08006976 0.62919682 -0.00246398
-0.42436850 -0.74868393 0.00000147
-0.46749982 0.27947521 -0.06672873
-0.48477969 0.18313713 -0.06073436
-0.02200682 0.63653463 0.00000689
-0.53952295 -0.69600803 0.00000202
-0.74343228 -0.77114064 -0.02454131
-0.56954604 -0.37471977 -0.02197589
-0.48145181 -0.11333557 -0.02732025
-0.23261890 0.06338565 0.00000801
-0.76212054 -0.24805781 -0.08689338
-0.01562191 -0.22220644 0.00000221
-0.03210668 -0.13141996 0.00000260
-0.72395808 -0.44392827 -0.05528930
-0.23303692 0.23738839 0.04093763
-0.32378650 0.37773702 -0.03943741
-0.66525209 -0.61599678 -0.02085458
-0.03745328 0.59272009 0.00000699
-0.79168290 -0.79390156 -0.03482610
-0.61223119 -0.25843704 -0.04604467
-0.06663334 0.63912219 0.03222322
-0.63808280 -0.74047732 0.01604496
-0.03255160 0.52086139 0.00000760
-0.32138377 0.32810649 -0.03335423
-0.03878949 -0.36954030 0.00000173
-0.27959996 0.34257463 -0.02387196
-0.09665728 0.14627025 0.00000944
-0.37234414 0.00026302 -0.01087693
-0.64956385 -0.06718635 -0.07692201
-0.47896150 0.25838831 -0.06745121
-0.38517192 0.39368394 -0.05745070
-0.24054462 0.26488486 -0.00499887
-0.39989752 0.22277722 -0.04259622
-0.60470116 -0.02159991 -0.07003907
-0.44430771 0.14226726 -0.04552668
-0.39007500 -0.14174208 0.24391153
-0.29724720 0.08237103 0.04473716
-0.01594448 0.16202137 0.00001054
-0.22270484 -0.07330846 0.00000340
-0.04895328 -0.02912702 0.00000304
-0.48699927 0.18245915 -0.06124800
-0.74745637 -0.66647971 -0.03709246
-0.46305043 -0.31791151 0.00016529
-0.51968718 0.15081239 -0.06643520
-0.15619142 0.58008754 -0.01724197
-0.09144713 0.64757746 -0.00749540
-0.12843564 0.56086767 -0.00777920
-0.57430804 -0.31036806 -0.03029911
-0.31171611 -0.39565706 0.00000246
-0.07632332 -0.78577530 0.00000028
-0.25129786 -0.29961085 0.00000263
-0.00618035 -0.36469311 0.00000165
-0.21076216 0.29116479 0.02978876
-0.44546697 -0.27546769 0.17898989
-0.23380004 0.23554552 0.05578918
-0.35462174 -0.58970737 0.00000186
-0.09266549 -0.41597018 0.00000172
-0.30407441 0.06588655 0.10473573
-0.55754137 -0.59902030 0.00000244
-0.13210924 -0.49360624 0.00000155
-0.01624144 -0.28327182 0.00000199
-0.45136514 0.33035034 -0.06803727
-0.29593691 -0.59690255 0.00000165
-0.66321713 -0.64946073 -0.01664329
-0.78222680 -0.55772913 -0.05823770
-0.54721993 -0.01112143 -0.05596053
-0.15173990 0.14621451 0.00000861
-0.43822894 -0.16760266 -0.00991431
-0.54604644 -0.17425044 -0.03774869
-0.49068323 -0.32739034 -0.00627662
-0.00819073 -0.77425015 0.00000012
-0.38359860 -0.03092963 -0.01043902
-0.59158307 -0.54354453 -0.00928814
-0.48477948 0.25977561 -0.06914484
-0.00362679 -0.37038738 0.00000159
-0.16157925 0.33212799 0.00000707
-0.72908264 -0.00134604 -0.10521334
-0.30896115 0.35647857 -0.03317667
-0.24033897 -0.42476079 0.00000213
-0.36795145 -0.26626077 0.00000311
-0.56954104 -0.57500368 0.03575804
-0.45121607 -0.05713208 -0.02547745
-0.22086763 0.26676679 0.06439208
-0.20662794 0.56781709 -0.02925783
-0.17067251 0.47907290 -0.00999287
-0.21163839 -0.68554002 0.00000107
-0.20300785 0.30890840 0.00000662
-0.74535644 -0.42947069 -0.06254466
-0.49466136 -0.03215159 -0.03972856
-0.20258227 0.15842287 0.00000776
-0.55740714 -0.70492154 0.00000204
-0.00376916 0.25174433 0.00001006
-0.73941284 -0.34098643 -0.07068003
-0.56733215 0.06853554 -0.07002877
-0.23238645 0.03024068 0.00000827
-0.68381083 -0.29470292 -0.06102847
-0.06812008 -0.63249391 0.00000083
-0.24108779 0.34842229 -0.01431043
-0.12014632 0.49697134 0.00000646
-0.73393297 -0.05767188 -0.10031782
-0.26137900 -0.04118159 0.00000363
-0.07620051 -0.37113979 0.00000184
-0.59683782 -0.29844743 -0.03757599
-0.61687165 0.13437521 -0.09037903
-0.28747740 -0.35687876 0.00000253
-0.42141935 -0.08299535 -0.01474536
-0.10417756 0.05842017 0.00000999
-0.08651630 0.69079518 -0.01093189
-0.26572040 -0.64790148 0.00000137
-0.19486853 -0.22599640 0.00000274
-0.63504273 0.03388530 -0.08416514
-0.76713294 -0.48507366 -0.06221199
-0.55591583 0.02940132 -0.06270947
-0.72937441 -0.26611322 -0.07623682
-0.15163501 -0.50750476 0.00000155
-0.42051515 -0.21522807 0.16018878
-0.15517791 0.17610636 0.00000834
-0.16312917 -0.60875171 0.00000121
-0.16898815 -0.48043302 0.00000171
-0.37754554 -0.45500889 0.00000243
-0.39656299 -0.15739685 0.00278283
-0.09180468 0.42428404 0.00000743
-0.67895895 -0.03921678 -0.08777885
-0.76718450 -0.27406964 -0.08538047
-0.18183070 -0.11153643 0.00000313
-0.46824804 -0.62548196 0.00000207
-0.45436132 -0.19904625 -0.01073777
-0.26627332 0.37960956 -0.02440559
-0.25699407 -0.23453611 0.00000290
-0.29778123 -0.66993958 0.00000139
-0.08463012 -0.55465263 0.00000118
-0.07478320 0.48995385 0.00000720
-0.16770647 -0.07815027 0.00000321
-0.23659594 -0.22137342 0.00000288
-0.11935183 -0.55460554 0.00000128
-0.25965470 -0.10409653 0.00000339
-0.04224905 -0.56859946 0.00000100
-0.01558059 -0.14197785 0.00000251
-0.44390634 -0.27169430 0.01912235
-0.02673566 -0.47500649 0.00000130
-0.20810986 -0.67229283 0.00000111
-0.48530123 -0.17461631 -0.02161544
-0.00829005 0.30020630 0.00000962
-0.09819056 0.69191605 -0.01414783
-0.56558025 0.02169543 -0.06442425
-0.59157121 -0.06567510 -0.06172399
-0.24646989 -0.69524640 0.00000114
-0.32962859 0.00419396 0.08755980
-0.40110913 0.06400030 -0.02549255
-0.47707641 -0.35177451 0.03703408
-0.51460540 -0.44238490 0.28321570
-0.17145948 0.34834921 0.00000680
-0.17235506 -0.16030988 0.00000292
-0.01245343 -0.11768335 0.00000260
-0.00843592 0.61942136 0.00000723
-0.50929946 -0.61817092 0.00000222
-0.23215823 0.11081268 0.00000767
-0.24397780 -0.29528069 0.00000263
-0.46337897 -0.15415528 -0.01805290
-0.60827821 -0.66852540 0.14261524
-0.51622999 0.09850921 -0.05977936
-0.41313767 0.10655431 -0.03334936
-0.31670237 0.03540366 0.00192628
-0.24772218 0.25086039 -0.00536138
-0.03650222 0.54914123 0.00000733
-0.02967516 0.41084203 0.00000847
-0.25249588 -0.52349287 0.00000180
-0.12736253 0.41564980 0.00000696
-0.09919211 0.23595648 0.00000873
-0.56558639 -0.68543786 0.00000214
-0.56119335 -0.75371361 0.00000187
-0.63758147 -0.77626282 0.00000201
-0.05259057 -0.18731947 0.00000246
-0.25911528 -0.66654074 0.00000128
-0.29760599 -0.31366834 0.00000272
-0.03596279 0.65862948 0.00000652
-0.42974252 -0.39248550 0.00000283
-0.30070966 0.21744113 -0.01573216
-0.29561460 0.08630300 0.30944726
-0.39994374 -0.48409459 0.00000239
-0.76953816 -0.11149715 -0.10384412
-0.05241888 0.64724517 0.00000635
-0.45878479 -0.30762294 0.26851866
-0.19034126 0.27893317 0.00000704
-0.42910680 -0.36766401 0.00000292
-0.61451262 -0.12977266 -0.06076806
-0.74035043 -0.76884240 -0.02397705
-0.48540896 -0.67014837 0.00000195
-0.43710694 -0.54471660 0.00000228
-0.33883718 0.44935057 -0.05128400
-0.61608189 -0.15874456 -0.05800457
-0.36197299 -0.00857711 -0.00716264
-0.59155160 -0.45372099 -0.01913659
-0.13466492 -0.52403963 0.00000144
-0.34644598 0.38244420 -0.04595731
-0.03240923 0.09777475 0.00001078
-0.19167210 0.02506080 0.00000892
-0.14700702 0.00624633 0.00000973
-0.70665157 -0.46847630 -0.04801060
-0.27945739 0.12531073 0.28685844
-0.22380590 0.37438232 -0.01258077
-0.74362248 -0.40301535 -0.06498841
-0.47411978 0.05513653 -0.04386298
-0.66538411 -0.40082294 -0.04450164
-0.04837718 0.15189779 0.00001013
-0.08713175 -0.30436617 0.00000212
-0.02139968 -0.49987763 0.00000119
-0.02397388 -0.06292183 0.00000284
-0.22304203 -0.68167394 0.00000112
-0.36233747 0.23890071 -0.03441464
-0.61231339 0.02834862 -0.07753570
-0.05470606 0.66413182 0.00000619
-0.46197322 -0.69302440 0.00000180
-0.15957445 -0.68368906 0.00000092
-0.37695301 -0.11006354 0.26433393
-0.36042291 -0.07015274 0.16276801
-0.14888550 0.41298103 0.00000666
-0.04092117 -0.44504920 0.00000145
-0.23472948 -0.43928561 0.00000206
-0.22335868 -0.26003203 0.00000270
-0.44611329 -0.27703160 0.27776334
-0.03978779 -0.50463301 0.00000123
-0.07427781 0.16670845 0.00000963
-0.34021616 -0.23138829 0.00000316
-0.13653138 0.47037312 0.04283774
-0.17050038 -0.28536469 0.00000244
-0.34976748 -0.52314115 0.00000209
-0.09387457 0.61194384 -0.00422798
-0.47024867 -0.33812630 0.00000315
-0.72994334 -0.07256741 -0.09762629
-0.26631466 0.07704643 0.00000740
-0.16046606 -0.13857433 0.00000296
-0.57927388 -0.02675131 -0.06273737
-0.22442649 0.25817013 0.19887251
-0.28711852 0.28545389 -0.01959530
-0.16342612 -0.76311564 0.00000063
-0.17726746 0.55393982 -0.01995624
-0.25274378 0.33942738 -0.01641140
-0.23665220 -0.01644711 0.00000365
-0.55066985 -0.74889135 0.00000185
-0.50861031 -0.11573970 -0.03425148
-0.20273347 0.31054866 0.00371137
-0.14276737 0.00353528 0.00000982
-0.24997985 -0.25401258 0.00000280
-0.34927559 -0.04323894 0.11214604
-0.05724778 0.30146486 0.00000888
-0.63849330 -0.68986148 -0.00565989
-0.37884727 -0.49077868 0.00000230
-0.29876345 0.18433800 -0.01158370
-0.24624674 0.20549464 0.10880939
-0.31816694 -0.42997876 0.00000235
-0.78915548 -0.51061916 -0.06524291
-0.61265773 -0.13664442 -0.05952257
-0.67438608 -0.41453379 -0.04538196
-0.51003176 -0.06487307 -0.04020991
-0.08290368 -0.12620410 0.00000278
-0.35381937 -0.45413271 0.00000236
-0.59120303 -0.68538386 0.00000221
-0.36536872 0.06805140 -0.01646820
-0.16319086 -0.11235134 0.00000307
-0.09663080 -0.50719470 0.00000139
-0.09388135 -0.28517157 0.00000221
-0.74383259 -0.60745221 -0.04260992
-0.51106644 -0.61709386 0.00000223
-0.62916583 -0.60686314 -0.01229659
-0.40901375 -0.75594181 0.00000140
-0.06888920 0.07123027 0.00001043
-0.06763470 -0.07442156 0.00000293
-0.42047423 -0.30403495 0.00000313
-0.01123441 -0.73702186 0.00000027
-0.32457331 0.01639572 0.16443807
-0.27865058 0.12726840 0.01129946
-0.01950078 0.01772506 0.00001157
-0.29462808 -0.46266752 0.00000215
-0.04945489 -0.11234350 0.00000273
-0.27422571 -0.24465574 0.00000291
-0.11201202 0.63883537 -0.01198441
-0.15467671 -0.50528091 0.00000157
-0.02887377 -0.47735569 0.00000130
-0.59731084 -0.64204848 0.15215094
-0.34220392 0.04801337 -0.00813197
-0.43819344 -0.16671336 -0.01000249
-0.48527017 0.08290645 -0.04986468
-0.54093850 -0.50595701 0.24915211
-0.45487976 -0.77287817 0.00000147
-0.64397919 -0.75471300 0.05733594
-0.51706761 -0.25767341 -0.02091696
-0.48594525 0.03856282 -0.04517713
-0.01717603 -0.00167075 0.00000305
-0.15492912 0.54492229 -0.01304839
-0.42633638 -0.03575545 -0.02123189
-0.00746474 0.00913796 0.00001182
-0.09214760 0.25677213 0.00000868
-0.68951440 -0.06692125 -0.08753512
-0.55892599 -0.58473384 0.00000249
-0.34464994 -0.07602977 0.00000375
-0.23731431 -0.25393227 0.00000276
-0.10578964 -0.77905077 0.00000040
-0.15853404 -0.37443256 0.00000207
-0.06752250 0.37952968 0.00000813
-0.16981524 -0.71834517 0.00000082
-0.31613040 -0.73609298 0.00000119
-0.00929654 -0.26914808 0.00000193
-0.13798849 0.46685198 0.13741843
-0.29579920 0.08585829 0.28283215
-0.00293703 -0.34380597 0.00000169
-0.18890700 -0.63361883 0.00000119
-0.72666794 -0.26426232 -0.07572291
-0.74896693 -0.00882737 -0.10966069
-0.36055157 -0.42532787 0.00000249
-0.10610242 -0.35660309 0.00000198
-0.00741599 -0.48974326 0.00000112
-0.02953501 -0.44915965 0.00000140
-0.60601592 -0.29920369 -0.03992454
-0.17849095 0.36907440 0.02720235
-0.44422582 0.24401373 -0.05667095
-0.01241429 -0.24775510 0.00000211
-0.43667322 -0.25424334 0.33554965
-0.38874516 0.33593968 -0.05206035
-0.00308723 -0.75452691 0.00000018
-0.36752674 -0.24152280 0.00000320
-0.45524922 0.10066641 -0.04386008
-0.47012490 -0.39146802 0.00000295
-0.57509613 -0.58841878 0.22262891
-0.48814118 -0.37849224 0.17707142
-0.14816082 -0.09145369 0.00000310
-0.77430546 -0.18105704 -0.09747381
-0.23420525 -0.18585661 0.00000301
-0.43809536 0.15052426 -0.04478695
-0.22317240 0.23159577 0.00000690
-0.65303499 -0.08784780 -0.07557433
-0.16386895 -0.02647232 0.00000340
-0.38286412 -0.62960154 0.00000179
-0.29783922 -0.24291904 0.00000299
-0.28845254 0.31233031 -0.02289823
-0.12557872 -0.40824986 0.00000185
-0.67695397 -0.49987623 -0.03669721
-0.26494852 -0.15135059 0.00000323
-0.16486923 0.30071357 0.00000726
-0.22672738 0.06655158 0.00000808
-0.26031139 0.44275084 -0.02975537
-0.43564183 -0.25174487 0.09890310
-0.21813188 0.17424934 0.00000740
-0.05436258 0.04626638 0.00001083
-0.51602787 -0.44581324 0.08285267
-0.58983135 -0.62399185 0.16236763
-0.40100077 0.18413371 -0.03864765
-0.25160599 -0.36196977 0.00000240
-0.71736354 -0.61421186 -0.03485598
-0.42466688 -0.13759053 -0.00961472
-0.59571582 -0.63819557 0.04776643
-0.32017127 -0.76199222 0.00000111
-0.67074883 -0.72280431 -0.01059030
-0.69120568 -0.34055015 -0.05795653
-0.03823566 0.69090569 0.00000624
-0.53042281 -0.15714604 -0.03548650
-0.78808641 -0.71458650 -0.04257708
-0.45720384 -0.11349386 -0.02087892
-0.07170410 0.62688071 0.02124275
-0.77401149 -0.76971906 -0.03279831
-0.61990982 -0.54709005 -0.01640362
-0.61937356 -0.39277166 -0.03319567
-0.54787809 -0.03347360 -0.05368208
-0.68297362 -0.17596242 -0.07383665
-0.01258074 -0.69346255 0.00000044
-0.11855928 -0.22188126 0.00000253
-0.14909440 -0.75331634 0.00000062
-0.71569192 -0.36872381 -0.06135199
-0.07693354 -0.03493527 0.00000310
-0.76653475 -0.62985831 -0.04616538
-0.75215763 -0.38020682 -0.06975245
-0.52499497 0.05797847 -0.05765354
-0.44598988 -0.52349085 0.00000238
-0.12197890 -0.49578926 0.00000151
-0.60924417 0.00297525 -0.07393800
-0.28838634 -0.48537341 0.00000205
-0.05470726 0.33139682 0.00000869
-0.04588967 0.51832116 0.00000742
-0.19893984 0.06066958 0.00000854
-0.62188959 -0.38030744 -0.03523000
-0.26331574 0.14254616 0.00000696
-0.07778984 0.69080096 -0.00862057
-0.32975093 0.44786692 -0.04871388
-0.28978980 0.10036577 0.29671806
-0.29146540 0.45775536 -0.03965584
-0.32334453 -0.61366212 0.00000167
-0.25024661 0.38198620 -0.02042035
-0.00833284 0.23237559 0.00001013
-0.40617839 -0.57074809 0.00000209
-0.41891608 0.31365192 -0.05760780
-0.32209983 -0.77699113 0.00000106
-0.39031038 -0.66811556 0.00000167
-0.04938017 0.30286449 0.00000898
-0.03873721 -0.69129598 0.00000052
-0.03115395 -0.26073337 0.00000212
-0.09448714 0.57187796 0.01174929
-0.48644251 -0.79308122 0.00000149
-0.60544056 -0.75434738 0.00000200
-0.09830952 -0.08761256 0.00000297
-0.23960881 0.22152343 0.01327845
-0.26861376 -0.32514870 0.00000259
-0.73874635 -0.57078809 -0.04528586
-0.01046129 -0.24383023 0.00000212
-0.44140911 -0.26567242 0.21380195
-0.21552154 0.46364340 -0.02018173
-0.53498805 -0.59851426 0.00000237
-0.52343315 0.09600684 -0.06141312
-0.21967024 0.26965511 0.13248815
-0.22741616 -0.70304090 0.00000105
-0.63420063 0.13438091 -0.09497074
-0.43060139 -0.64341444 0.00000189
-0.63939971 0.06394924 -0.08861877
-0.05338474 0.33221567 0.00000870
-0.14267655 -0.12206591 0.00000297
-0.39238194 -0.25426662 0.00000323
-0.49561036 -0.01634857 -0.04171411
-0.04104108 0.59936541 0.00000689
-0.55103749 -0.37638390 -0.01688985
-0.34644225 -0.03639574 0.03040877
-0.39008060 -0.66599143 0.00000168
-0.32030079 0.42836142 -0.04406960
-0.08003755 -0.07533507 0.00000296
-0.62138247 -0.01962964 -0.07467461
-0.00524551 -0.29546732 0.00000191
-0.20842309 -0.11959115 0.00000318
-0.16105169 0.59543079 -0.02021344
-0.59481674 -0.30110282 -0.03674916
-0.35021219 0.12539349 -0.01874559
-0.78317761 -0.13255268 -0.10514689
-0.45449254 -0.64993513 0.00000193
-0.71691513 -0.02674930 -0.09920261
-0.34707901 0.43184999 -0.05154697
-0.03159915 -0.31575456 0.00000191
-0.03401854 0.59976977 0.00000699
-0.14083952 0.55019152 -0.00989380
-0.50549269 -0.42038524 0.25544131
-0.50082058 -0.53782982 0.00000249
-0.28674030 0.10773606 0.06804318
-0.40064874 -0.62888455 0.00000185
-0.09882646 -0.18288468 0.00000261
-0.26158306 -0.45938200 0.00000207
-0.31953853 -0.60100043 0.00000171
-0.17088898 0.54693037 -0.01749710
-0.63590342 -0.57144868 -0.01796777
-0.66800845 -0.55185163 -0.02862377
-0.45484501 -0.47709072 0.00000258
-0.43397731 0.04204192 -0.03179074
-0.15498883 -0.49158555 0.00000162
-0.40412763 -0.45998693 0.00000249
-0.50616097 -0.76717472 0.00000165
-0.28257915 0.11777396 0.29213458
-0.76329356 -0.49746042 -0.05983559
-0.45191398 -0.68343961 0.00000180
-0.20776241 0.29840720 0.01902113
-0.51064509 -0.03076567 -0.04411518
-0.50409073 -0.18691793 -0.02524338
-0.00467928 0.09523640 0.00001122
-0.43598214 0.27697375 -0.05810404
-0.22792038 0.43031782 -0.01980938
-0.58699107 -0.56467909 -0.00575238
-0.14420652 0.26076382 0.00000787
-0.65791535 -0.42766517 -0.03957743
-0.41951799 0.17367271 -0.04240551
-0.65785074 -0.15427878 -0.06956037
-0.35995054 -0.31902760 0.00000289
-0.27570191 -0.44082963 0.00000218
