ply
format ascii 1.0
element vertex 1217
property float x
property float y
property float z
end_header
-0.34772927 0.31118926 -0.03470261
-0.01730473 -0.43892062 0.00000138
-0.03960300 -0.12527725 0.00000259
-0.19010796 0.23689710 0.00000735
-0.39350384 -0.78141493 0.00000066
-0.11812560 -0.04088636 0.00000302
-0.67427868 -0.14844127 -0.06723991
-0.13754596 -0.18576235 0.00000251
-0.74380958 -0.21514437 -0.07725200
-0.28119659 0.12111357 0.24112637
-0.19141503 0.02512877 0.00000892
-0.47312832 -0.43365473 0.00000209
-0.69971693 -0.36657763 -0.05172929
-0.08578758 -0.01301968 0.00000308
-0.23010692 0.15569028 0.00000736
-0.71653444 -0.67044008 -0.02567404
-0.03988813 0.43813723 0.00000811
-0.61523479 -0.49912938 -0.01842463
-0.70424747 -0.30785516 -0.05862354
-0.62055749 -0.48215148 -0.02137672
-0.53455281 -0.28914276 -0.01992880
-0.10411812 0.34813160 0.00000782
-0.24555434 0.14849006 0.00000718
-0.27428433 -0.23251893 0.00000254
-0.15112109 -0.11923178 0.00000278
-0.33542046 -0.03287665 0.00000338
-0.08117453 -0.43434486 0.00000149
-0.55018020 -0.75327784 0.00000101
-0.00773914 -0.74523735 0.00000016
-0.18550424 0.35213894 0.13596819
-0.49070343 -0.38467285 0.03156822
-0.31873617 0.35588992 -0.03219915
-0.62932533 -0.45427501 -0.02623063
-0.76031762 -0.18158990 -0.08451727
-0.44751185 0.19592895 -0.04713721
-0.65396506 -0.31326991 -0.04607321
-0.50662768 -0.12996989 -0.02900962
-0.30871290 0.00213871 0.00000733
-0.20270936 0.09223040 0.00000825
-0.47566774 -0.54239291 0.00000168
-0.22676614 -0.63540709 0.00000096
-0.21800101 -0.20184329 0.00000257
-0.58163071 -0.60419422 0.18668276
-0.43330857 -0.61364198 0.00000135
-0.45932344 -0.30892429 0.29453799
-0.55343187 -0.38672471 -0.01478211
-0.40461475 -0.61129749 0.00000132
-0.00152061 0.02560633 0.00001179
-0.21947427 -0.54672289 0.00000128
-0.06215173 0.13563593 0.00001004
-0.46153557 -0.12555939 -0.01867186
-0.08490210 0.53681439 0.00000669
-0.09398920 -0.40885648 0.00000161
-0.65097404 -0.54549521 -0.02237534
-0.71903419 -0.25190464 -0.06769405
-0.76532418 -0.43776226 -0.06035959
-0.42750835 -0.58313674 0.00000146
-0.35841087 -0.06530297 0.37860572
-0.57212341 0.17163052 -0.07450792
-0.72713053 0.05497672 -0.10000044
-0.54217786 0.20264444 -0.07042220
-0.77310425 -0.78200662 -0.02814791
-0.44414735 -0.55388975 0.00000159
-0.71925980 -0.09014443 -0.08375726
-0.58254743 -0.34217736 -0.02614779
-0.25281101 -0.04165738 0.00000323
-0.75403404 -0.38550404 -0.06283422
-0.45368272 -0.72101104 0.00000098
-0.41485339 0.14789210 -0.03457892
-0.59424013 -0.22137719 -0.04089714
-0.60242498 -0.33197433 -0.03190709
-0.21507849 0.14666690 0.00000765
-0.68657070 -0.26418495 -0.05872188
-0.16319200 0.40600869 0.04432782
-0.69461370 -0.62257314 -0.02517414
-0.20396356 -0.42856666 0.00000170
-0.30145243 0.20039821 -0.01267891
-0.00338799 -0.58184421 0.00000080
-0.34657088 0.21295235 -0.02470248
-0.43973228 -0.14131637 -0.01190274
-0.46247464 -0.31652543 0.11173887
-0.45796791 -0.06720383 -0.02359482
-0.44170919 -0.50049400 0.00000179
-0.17596567 0.21675991 0.00000772
-0.65815574 -0.43765324 -0.03476438
-0.76160741 -0.23515207 -0.07952428
-0.26437357 0.13508286 0.00000700
-0.33048522 -0.49174452 0.00000165
-0.44717413 -0.27959546 0.36378035
-0.18240072 -0.25955838 0.00000230
-0.14167503 0.53115106 -0.00723774
-0.37560907 0.31606165 -0.04184670
-0.43438676 -0.75470096 0.00000083
-0.43059459 0.04939407 -0.02859108
-0.66357160 -0.23570091 -0.05604553
-0.04132367 -0.01971184 0.00000299
-0.40299019 -0.52386916 0.00000164
-0.19705546 0.14309059 0.00000795
-0.63645655 -0.59370220 -0.01413553
-0.62179786 -0.43023759 -0.02681098
-0.20440815 0.30650184 0.10957322
-0.06434127 0.71920902 -0.00737264
-0.31471968 -0.54709256 0.00000142
-0.41145149 -0.53969431 0.00000160
-0.43405530 0.30484816 -0.05470244
-0.24353437 0.21204013 0.18586604
-0.01132799 -0.08297437 0.00000271
-0.05324730 0.14324734 0.00001012
-0.65152293 -0.16338214 -0.06032398
-0.42368686 -0.22289360 0.39808875
-0.56373042 -0.04000373 -0.05155760
-0.06656285 -0.67315608 0.00000058
-0.07459084 0.04766714 0.00001052
-0.04683344 -0.41943485 0.00000150
-0.27857918 0.48703226 -0.03558396
-0.28337142 -0.45670760 0.00000171
-0.67075425 -0.17029871 -0.06423456
-0.21413331 0.28302282 0.12182291
-0.01877908 -0.56918192 0.00000089
-0.12780754 0.49143112 0.13251632
-0.15935338 -0.64235401 0.00000083
-0.56441754 0.12358318 -0.06791097
-0.39014116 -0.60077000 0.00000134
-0.46662524 -0.49701673 0.00000184
-0.32854572 -0.32816824 0.00000227
-0.61856419 -0.52724612 -0.01643746
-0.40493378 -0.62606764 0.00000126
-0.21070492 -0.29666162 0.00000221
-0.66417414 -0.36369199 -0.04352231
-0.48698756 -0.37570274 0.05387680
-0.28779042 -0.79967421 0.00000044
-0.01274035 -0.60754639 0.00000074
-0.15010598 0.25408295 0.00000783
-0.43713260 0.10846926 -0.03600049
-0.16540609 -0.78208810 0.00000032
-0.31570950 -0.75246435 0.00000065
-0.15530974 -0.70994979 0.00000057
-0.64013964 -0.67084938 -0.00738036
-0.09223003 -0.30960390 0.00000198
-0.17342699 -0.04278208 0.00000310
-0.49256822 0.23759951 -0.06202784
-0.67193961 0.08234515 -0.08952152
-0.41167718 -0.47836867 0.00000183
-0.33796921 0.24785283 -0.02610152
-0.12500726 -0.03845023 0.00000304
-0.32293725 -0.42276546 0.00000190
-0.40198424 -0.56931508 0.00000147
-0.26457858 0.16123581 0.16177116
-0.63860309 -0.48164088 -0.02573907
-0.47772500 -0.30801728 -0.00448241
-0.30915016 0.05363601 0.00993497
-0.50333947 -0.14087018 -0.02714514
-0.36845788 -0.08955141 0.17763481
-0.15556543 0.58083677 -0.01547464
-0.30749109 0.40409383 -0.03428330
-0.19178694 0.54225665 -0.02031111
-0.27554962 -0.23094422 0.00000255
-0.42224652 -0.21941638 0.40114483
-0.60910630 0.03609193 -0.06992953
-0.37751639 -0.72017074 0.00000087
-0.74009949 -0.22518244 -0.07537205
-0.75158757 -0.46131751 -0.05474629
-0.55269402 -0.74421877 0.00000104
-0.20732933 0.17581145 0.00000755
-0.64410287 -0.45394689 -0.02979403
-0.47410277 -0.19631277 -0.01467223
-0.46361169 0.10910218 -0.04239027
-0.77026790 -0.37743589 -0.06751138
-0.13241184 0.30230272 0.00000773
-0.65251768 -0.77532625 0.11925852
-0.54902166 -0.44769117 -0.00769453
-0.44826570 -0.77631962 0.00000077
-0.47928712 -0.35711449 0.11669306
-0.17464662 0.37835136 0.14110009
-0.36268631 -0.48769248 0.00000172
-0.21469140 0.28167573 0.11445365
-0.56957358 -0.65321118 0.00000141
-0.21505722 -0.26848364 0.00000232
-0.02102328 0.37039232 0.00000890
-0.17674138 0.27809238 0.00000725
-0.46583727 -0.63418680 0.00000132
-0.41061893 -0.19133821 0.20858318
-0.37330854 -0.32567459 0.00000234
-0.26908115 -0.49094388 0.00000156
-0.00784695 -0.67823827 0.00000041
-0.20274156 -0.62823224 0.00000095
-0.56040299 0.15643284 -0.07020310
-0.28442645 0.02482681 0.00000752
-0.02586685 0.08393303 0.00001098
-0.40947071 -0.18857323 0.40635407
-0.05107310 0.06938707 0.00001071
-0.45883334 -0.48511341 0.00000187
-0.49431124 -0.23227160 -0.01594201
-0.63914800 -0.74304980 0.15021196
-0.44918761 -0.28445470 0.30706069
-0.35030046 -0.20872045 0.00000275
-0.39848074 -0.16202970 0.08669472
-0.40004912 0.38168612 -0.05418201
-0.45102334 -0.47270972 0.00000191
-0.09864742 0.05614955 0.00001009
-0.58309871 -0.63670558 0.00000149
-0.22024873 -0.12969558 0.00000285
-0.54304856 -0.45088172 -0.00595156
-0.00216251 -0.72961825 0.00000025
-0.54593790 0.20418552 -0.07147317
-0.43994802 -0.55836052 0.00000157
-0.78462422 -0.51196432 -0.05762689
-0.15399224 -0.44652906 0.00000156
-0.68062699 -0.02173069 -0.08129724
-0.38750744 0.15321909 -0.02857190
-0.43202460 -0.24301440 0.16279279
-0.19042289 -0.74963939 0.00000048
-0.17135891 -0.54438102 0.00000122
-0.63250208 -0.23184951 -0.04900298
-0.35643753 -0.39686385 0.00000205
-0.63060009 0.13299589 -0.08465684
-0.45297039 0.10895427 -0.03983291
-0.06269698 0.43121555 0.00000782
-0.10370623 -0.13746616 0.00000264
-0.02314327 -0.02414463 0.00000294
-0.01693938 -0.13321362 0.00000253
-0.77317047 -0.20138846 -0.08562861
-0.27753332 0.30832958 -0.01764635
-0.21262604 -0.65102655 0.00000088
-0.41093194 -0.60911912 0.00000134
-0.03158101 -0.39361578 0.00000157
-0.40599945 -0.04292266 -0.01358061
-0.43020537 -0.23863029 0.38469750
-0.12695687 0.25373352 0.00000818
-0.59930569 -0.71073830 0.00000124
-0.36005086 0.30485544 -0.03701992
-0.51619548 -0.49897042 0.00000191
-0.01012408 -0.48350701 0.00000113
-0.32145715 0.40663788 -0.03787227
-0.51064330 -0.16452923 -0.02654879
-0.46139461 -0.14810309 -0.01640704
-0.47832674 0.01299266 -0.03639364
-0.22871307 0.39354375 -0.01441519
-0.58501881 -0.13955861 -0.04679134
-0.18555155 0.13553058 0.00000818
-0.31629795 -0.37392849 0.00000208
-0.09529417 -0.61176544 0.00000085
-0.09230528 -0.36338624 0.00000178
-0.10441678 0.47537556 0.00000686
-0.59324282 -0.30976751 -0.03191091
-0.36297542 -0.39946669 0.00000205
-0.67147869 -0.33056670 -0.04854605
-0.57667750 -0.36337939 -0.02264688
-0.45401260 0.18927740 -0.04803220
-0.31396750 -0.15237527 0.00000290
-0.64686751 -0.21220125 -0.05438003
-0.53075475 -0.70623684 0.00000115
-0.03365860 -0.71197695 0.00000038
-0.54069769 -0.50537568 0.27926958
-0.13628298 -0.22698520 0.00000235
-0.39529803 -0.24876925 0.00000266
-0.34242031 -0.48239332 0.00000171
-0.13169350 0.31882116 0.00000762
-0.09523792 0.57006574 0.00281169
-0.22987008 -0.04014678 0.00000320
-0.18855187 0.34478113 0.14092049
-0.08424242 0.07409727 0.00001017
-0.64500517 -0.03047891 -0.07191998
-0.57485116 0.14469665 -0.07249384
-0.63276792 0.05272472 -0.07722972
-0.67470527 -0.13459930 -0.06871176
-0.00391193 -0.77122062 0.00000011
-0.32016376 -0.27086666 0.00000247
-0.59641618 -0.64421904 0.00000148
-0.12524064 0.49261254 0.00000642
-0.17766449 0.29393789 0.00000711
-0.08969837 -0.10113260 0.00000276
-0.19205935 0.09851914 0.00000836
-0.63752460 -0.36702961 -0.03682438
-0.52518302 -0.41548964 -0.00518552
-0.14659648 -0.05718652 0.00000301
-0.52677429 -0.09670965 -0.03711518
-0.32046494 -0.58333677 0.00000130
-0.07668771 -0.08809471 0.00000279
-0.71341729 -0.49718684 -0.04207647
-0.01899790 -0.40316537 0.00000152
-0.27780005 -0.61348802 0.00000112
-0.05875659 -0.64140642 0.00000068
-0.11705865 -0.07090299 0.00000291
-0.05204785 -0.68549848 0.00000051
-0.04278455 -0.77795690 0.00000015
-0.36292484 -0.19489513 0.00000282
-0.53444481 -0.67984259 0.00000126
-0.41535625 -0.35964149 0.00000228
-0.00127030 -0.51363075 0.00000108
-0.05774292 -0.48574877 0.00000127
-0.53099996 -0.48195946 0.09481506
-0.47412232 -0.63834667 0.00000132
-0.30327672 0.06780999 0.17029026
-0.73930842 -0.77734947 -0.02053424
-0.14217767 0.50910056 -0.00517532
-0.47039580 0.08329950 -0.04145742
-0.45652723 0.02422916 -0.03229686
-0.31741473 0.39427507 -0.03568269
-0.01227095 -0.19479512 0.00000220
-0.54146653 -0.18459129 -0.03192814
-0.56461573 0.01960697 -0.05766693
-0.11518594 0.33999398 0.00000771
-0.73105252 -0.10124940 -0.08547596
-0.38176978 0.06053971 -0.01802764
-0.12609521 -0.55505306 0.00000111
-0.71306813 0.01507178 -0.09269050
-0.19898801 -0.52351946 0.00000134
-0.63506073 -0.35312209 -0.03761208
-0.17985339 0.44420195 -0.00775432
-0.13579649 -0.35128373 0.00000189
-0.12315486 -0.26221052 0.00000220
-0.33377832 0.10439951 -0.01090134
-0.77755988 -0.50764686 -0.05636636
-0.57391387 -0.01249057 -0.05671378
-0.48505586 0.22490238 -0.05897603
-0.33206591 -0.10580566 0.00000310
-0.14197077 -0.73234868 0.00000047
-0.72063106 -0.37396058 -0.05599581
-0.25743949 -0.12001891 0.00000294
-0.36615404 -0.62137139 0.00000122
-0.26436806 -0.27184439 0.00000238
-0.08623725 0.52188337 0.00000678
-0.29175308 -0.68835962 0.00000086
-0.49613434 0.09341835 -0.04860914
-0.50326747 -0.75861758 0.00000091
-0.41255170 0.08644721 -0.02794722
-0.16971518 -0.60409033 0.00000099
-0.64484555 0.07046838 -0.08187189
-0.53406817 -0.74274021 0.00000102
-0.06232737 0.36500201 0.00000832
-0.51135719 0.03766464 -0.04672820
-0.19008453 0.44058248 -0.00984078
-0.05869520 -0.28026396 0.00000204
-0.09793459 -0.49927753 0.00000128
-0.33568907 0.41653463 -0.04225253
-0.33371043 -0.58770454 0.00000130
-0.50577468 -0.17259876 -0.02458686
-0.00256650 -0.03386673 0.00000286
-0.33763230 -0.61238992 0.00000121
-0.22060972 -0.50959021 0.00000142
-0.29151458 0.09620806 0.12111307
-0.36985117 -0.09292223 0.37687978
-0.23475240 0.11889763 0.00000757
-0.47764972 -0.65551049 0.00000126
-0.08573643 0.44578916 0.00000736
-0.17394567 -0.27911273 0.00000222
-0.63931185 -0.55543870 -0.01860469
-0.39707518 0.00024657 -0.01571713
-0.15222806 -0.64445072 0.00000081
-0.31844214 -0.56887710 0.00000135
-0.22188763 0.26430577 0.02269790
-0.06606892 -0.78600204 0.00000015
-0.62756777 -0.78157049 0.00000102
-0.22084992 -0.51464486 0.00000140
-0.63598520 -0.28106156 -0.04496476
-0.45202574 0.23252836 -0.05183835
-0.11890695 0.26236090 0.00000824
-0.46662733 -0.32655159 0.13106638
-0.49720329 0.15205649 -0.05466847
-0.58265591 -0.10813440 -0.04933678
-0.06810477 -0.09198611 0.00000276
-0.24820717 -0.16096367 0.00000277
-0.05254098 0.44752195 0.00000785
-0.15989269 0.14005366 0.00000854
-0.18790986 -0.07944041 0.00000299
-0.04930936 0.74199617 -0.00603622
-0.50072843 -0.19255470 -0.02140609
-0.21601765 0.05328877 0.00000834
-0.03167912 -0.51935232 0.00000110
-0.12399492 -0.35416707 0.00000186
-0.07202319 -0.68015468 0.00000056
-0.79009926 -0.45784241 -0.06429156
-0.24569468 -0.25036246 0.00000243
-0.36714366 0.02257847 -0.01077542
-0.02700404 -0.41939723 0.00000147
-0.20292391 -0.48149258 0.00000150
-0.39453283 -0.15250878 0.37100029
-0.38842884 0.03858779 -0.01744605
-0.40102300 0.04230999 -0.02082382
-0.18126778 -0.79737920 0.00000028
-0.14032520 0.59614229 -0.01334793
-0.75855637 -0.63098967 -0.03961853
-0.49085566 -0.38504738 0.22770876
-0.40602979 -0.18025906 0.20863315
-0.47221303 -0.69921386 0.00000109
-0.25807816 0.06201268 0.00000764
-0.08056417 0.60548991 0.04110160
-0.14731488 -0.01809445 0.00000315
-0.44543096 -0.27538246 0.22572449
-0.72998607 -0.50460696 -0.04530075
-0.17275396 0.34525856 0.00000680
-0.76048648 -0.63493752 -0.03968894
-0.59249836 -0.54139173 -0.00880934
-0.16551431 -0.59209377 0.00000103
-0.51274097 0.18623146 -0.06176377
-0.78495377 -0.74115914 -0.03502179
-0.76983845 -0.73309052 -0.03220897
-0.59643781 -0.17581077 -0.04593193
-0.03933819 0.52002329 0.00000751
-0.39388865 0.05538452 -0.02041318
-0.07557078 -0.39064345 0.00000165
-0.45606747 -0.57528323 0.00000153
-0.23981971 -0.13278481 0.00000286
-0.70598131 -0.66773903 -0.02341997
-0.17498995 -0.43438464 0.00000164
-0.06834699 -0.53951395 0.00000108
-0.46609020 -0.18374494 -0.01400155
-0.38224065 -0.12282744 0.21948725
-0.23484904 -0.02175662 0.00000327
-0.43574890 -0.64518076 0.00000124
-0.00905159 -0.68259984 0.00000039
-0.26053911 -0.42104515 0.00000181
-0.33815524 0.32134852 -0.03342045
-0.22408281 0.56544346 -0.03032315
-0.04833433 0.74199611 -0.00580323
-0.33156314 -0.00047717 0.10718821
-0.47772536 0.02144100 -0.03708615
-0.00219748 0.61886090 0.00000733
-0.49045599 -0.21508563 -0.01672172
-0.33079582 0.16317753 -0.01600643
-0.28887323 0.10258759 0.04418718
-0.42389616 -0.62032491 0.00000131
-0.59056342 -0.62575638 0.04204419
-0.07114023 -0.71240532 0.00000044
-0.39512044 -0.15391533 0.03395409
-0.40417847 -0.17579536 0.37039170
-0.38881588 -0.44669744 0.00000191
-0.66373843 -0.13271466 -0.06627788
-0.15421121 -0.79280794 0.00000026
-0.11370467 -0.56817681 0.00000104
-0.11541154 -0.58334476 0.00000099
-0.38708606 -0.45120451 0.00000189
-0.35581499 -0.64490861 0.00000112
-0.01557700 -0.35748756 0.00000168
-0.26225740 -0.17863487 0.00000273
-0.04090048 -0.78341007 0.00000012
-0.00044721 0.79939091 -0.00004153
-0.27215445 -0.75767452 0.00000057
-0.26943636 -0.54526472 0.00000136
-0.25700635 -0.28444260 0.00000232
-0.27492359 -0.32359302 0.00000220
-0.10146333 0.50987351 0.00000664
-0.48438939 -0.79788297 0.00000074
-0.63622731 -0.48500031 -0.02483892
-0.01961786 -0.41906869 0.00000146
-0.43951759 -0.55921417 0.00000157
-0.22093792 0.26659769 0.04744493
-0.10637441 0.57535505 -0.00317795
-0.49313593 0.06055359 -0.04463978
-0.16324334 0.40588018 0.17204981
-0.18998586 0.08115217 0.00000852
-0.42358983 -0.52257162 0.00000168
-0.09170292 0.12593628 0.00000967
-0.00703378 -0.47279024 0.00000118
-0.36323568 -0.67151093 0.00000103
-0.15367816 0.42897296 0.16070631
-0.21520641 0.28043285 0.10116589
-0.19234176 -0.48760888 0.00000146
-0.48599356 -0.44149673 0.00000208
-0.19043556 -0.57527483 0.00000113
-0.39713335 -0.15877669 0.08322247
-0.61819172 -0.44487146 -0.02450103
-0.35912946 0.38279852 -0.04451443
-0.13815214 -0.16688848 0.00000258
-0.29102534 0.03673367 0.00000733
-0.72040302 -0.14770475 -0.07833371
-0.20944554 -0.07075395 0.00000305
-0.73846018 -0.07095847 -0.09024381
-0.78379297 -0.19622239 -0.08867787
-0.34826249 -0.14882657 0.00000297
-0.34609389 0.12115117 -0.01550217
-0.20022017 0.25266987 0.00000708
-0.16203728 -0.55122346 0.00000118
-0.54443991 -0.30772233 -0.02045240
-0.60875005 -0.49741036 -0.01704530
-0.10971388 -0.10246370 0.00000278
-0.50110376 0.05568582 -0.04606187
-0.35107437 0.43812606 -0.04806591
-0.19267891 0.33481839 0.11851488
-0.77973187 -0.68178201 -0.03965082
-0.70606941 -0.12717493 -0.07694068
-0.15184803 -0.78432542 0.00000029
-0.30476305 0.36722368 -0.02998210
-0.19365658 0.17038047 0.00000780
-0.33409575 -0.00659214 0.12750828
-0.56797028 0.14466842 -0.07084687
-0.63184911 0.12565768 -0.08422897
-0.33071417 -0.05237251 0.00000330
-0.28630352 0.27508354 -0.01645134
-0.10866347 -0.16434693 0.00000255
-0.10441991 -0.69007486 0.00000057
-0.06940175 0.63243830 0.04281355
-0.61141008 0.01800355 -0.06868966
-0.63149863 -0.48787248 -0.02342480
-0.27836615 0.12795001 0.15303947
-0.41607419 0.06431997 -0.02659879
-0.10177354 -0.36297646 0.00000179
-0.50044698 -0.06583864 -0.03387984
-0.23150483 0.24108206 0.18438269
-0.01839324 -0.75583291 0.00000019
-0.17055096 0.38824359 0.01749712
-0.55378556 -0.40572613 -0.01298607
-0.03188669 0.24778792 0.00000966
-0.31684718 -0.74158573 0.00000070
-0.37136462 0.25123060 -0.03441563
-0.39237237 -0.55713409 0.00000150
-0.32016689 -0.24208835 0.00000258
-0.28198129 -0.47137815 0.00000166
-0.12125544 0.54215533 -0.00344770
-0.76225382 -0.21946491 -0.08123132
-0.35146588 0.01511980 -0.00629099
-0.00419589 -0.63603407 0.00000062
-0.13283256 -0.36491105 0.00000183
-0.55457097 -0.69064629 0.00000125
-0.07665045 -0.42864764 0.00000151
-0.16936307 0.12578972 0.00000850
-0.28688699 0.50096744 -0.03894837
-0.29767996 0.19643721 -0.01138544
-0.00596152 0.20840204 0.00001035
-0.25634253 -0.70533019 0.00000074
-0.67716682 0.10167870 -0.09268416
-0.76330417 -0.33809632 -0.06974110
-0.73550886 -0.31035000 -0.06584619
-0.77769572 0.00056610 -0.10669745
-0.00552948 -0.54354233 0.00000093
-0.28161371 0.09915032 0.00000701
-0.67155021 -0.56701136 -0.02516236
-0.22607280 0.34710217 -0.00918759
-0.39259472 -0.67620164 0.00000106
-0.07093181 0.39002916 0.00000800
-0.64095169 -0.76171583 0.00000111
-0.59606284 -0.71827406 0.00000121
-0.33109906 -0.74413866 0.00000071
-0.27032146 0.14736795 0.25487420
-0.45201522 0.10877950 -0.03958738
-0.27928525 0.22189157 -0.00950948
-0.24977040 0.19698247 0.25698581
-0.13430160 -0.37858570 0.00000178
-0.05876344 0.11766861 0.00001023
-0.65342915 -0.72295731 -0.00539865
-0.24046002 0.14656618 0.00000727
-0.52951336 -0.47836807 0.02690522
-0.04788624 -0.66030353 0.00000060
-0.12068531 0.50426233 0.00000640
-0.63079882 -0.12034302 -0.05963173
-0.65156078 -0.40473190 -0.03644679
-0.51921803 -0.08551364 -0.03641776
-0.40434787 -0.07922631 -0.00959303
-0.59507477 -0.76998055 0.00000101
-0.45618263 0.23351057 -0.05292885
-0.76854795 -0.37417912 -0.06742277
-0.24151708 -0.21506739 0.00000256
-0.07277964 -0.69003087 0.00000052
-0.28428182 0.11366288 0.30513081
-0.55161500 -0.12424143 -0.04032579
-0.19664495 0.01509004 0.00000892
-0.24120665 0.21765712 0.25924215
-0.47494301 0.05903968 -0.04014277
-0.29187012 0.40075228 -0.03021995
-0.39419895 -0.15170377 0.40020320
-0.30735084 0.40805367 -0.03464173
-0.51455331 -0.10401593 -0.03347202
-0.00008038 0.78797239 0.00000609
-0.51860857 0.04702358 -0.04938725
-0.15882626 -0.23177761 0.00000237
-0.46036536 -0.25877303 -0.00520818
-0.01769189 -0.72272271 0.00000032
-0.24529891 0.40404370 -0.01941762
-0.61756074 -0.52259237 -0.01665828
-0.58693624 -0.73501194 0.00000113
-0.53468400 0.25047410 -0.07336567
-0.17095275 -0.03750808 0.00000312
-0.40609595 -0.18042263 0.31617871
-0.07411821 0.44787613 0.00000752
-0.08143094 0.49956024 0.00000702
-0.17504577 -0.29334229 0.00000216
-0.38141742 -0.26549476 0.00000258
-0.12240865 -0.12337616 0.00000272
-0.48396054 -0.52546149 0.00000176
-0.14552048 -0.60922790 0.00000093
-0.04801033 -0.44024605 0.00000142
-0.10820059 0.48801202 0.00000671
-0.55447406 -0.58359963 0.00000165
-0.20439561 0.47190532 -0.01636067
-0.24407914 0.07192851 0.00000778
-0.14517270 0.36826998 0.00000705
-0.65712613 -0.70900500 -0.00766286
-0.50858581 -0.77532613 0.00000086
-0.04703954 0.42401785 0.00000811
-0.22565676 0.25520220 0.13702258
-0.21162497 0.28908038 0.06898374
-0.02480021 0.10700171 0.00001082
-0.46183026 -0.68291062 0.00000114
-0.01816050 0.19399042 0.00001027
-0.45884821 -0.58450431 0.00000150
-0.75000280 -0.74824941 -0.02596947
-0.73498052 -0.04638319 -0.09184458
-0.61804569 -0.38698199 -0.03019543
-0.25776491 0.13452180 0.00000710
-0.52121013 -0.68031931 0.00000124
-0.33139145 -0.52202201 0.00000154
-0.07330375 0.70997858 -0.00860059
-0.50113678 0.05820911 -0.04631952
-0.23511837 -0.42885846 0.00000175
-0.38097349 0.13134860 -0.02484592
-0.32556525 0.40071037 -0.03826721
-0.56423378 -0.72292536 0.00000114
-0.24540304 0.20752683 0.24018113
-0.32525271 0.20005083 -0.01833157
-0.35595393 -0.07165334 0.00000327
-0.76931894 -0.35477582 -0.06952736
-0.34751266 -0.03898971 0.30362517
-0.14009084 -0.36739102 0.00000183
-0.06329759 0.13754383 0.00001001
-0.27838528 -0.33094609 0.00000218
-0.02574647 0.52570862 0.00000767
-0.18720894 0.08046887 0.00000857
-0.33368534 -0.59005755 0.00000129
-0.60021394 -0.04588318 -0.05969305
-0.20940864 0.29443172 0.05053928
-0.43620867 -0.63365072 0.00000128
-0.24511725 -0.75130355 0.00000055
-0.29215819 0.38636500 -0.02886476
-0.45396212 -0.29597989 0.26535460
-0.46652725 -0.21728083 -0.01078695
-0.72722578 -0.75943106 -0.01942084
-0.61481518 -0.53050947 -0.01521871
-0.59938848 -0.08965723 -0.05516352
-0.11702540 0.12636273 0.00000929
-0.18657193 0.60372150 -0.02514874
-0.14588797 -0.62875885 0.00000086
-0.29374424 0.28767535 -0.01947560
-0.14915960 -0.74026918 0.00000045
-0.05454949 0.53126782 0.00000719
-0.26440999 0.16164428 0.12099094
-0.16325647 0.54204243 -0.01347260
-0.31944126 0.16763920 -0.01373488
-0.20130908 0.14123279 0.00000790
-0.00151661 -0.74390757 0.00000021
-0.09895609 0.10771707 0.00000970
-0.25044462 -0.11038681 0.00000296
-0.40006703 -0.18603593 0.00000291
-0.35073793 -0.25120929 0.00000259
-0.18762881 0.31750995 0.00000679
-0.24042331 -0.52626175 0.00000139
-0.61141312 0.01461721 -0.06835521
-0.43744907 -0.72765321 0.00000093
-0.31932104 0.14146717 -0.01111569
-0.78032804 -0.12670645 -0.09473014
-0.43346179 0.12472984 -0.03673280
-0.56218690 -0.55725187 0.10991752
-0.29151255 -0.62068778 0.00000111
-0.05421317 0.44267949 0.00000786
-0.43647531 -0.06051555 -0.01912132
-0.01979795 0.08731537 0.00001105
-0.52201462 -0.70550019 0.00000114
-0.35040459 -0.56792873 0.00000140
-0.22792803 0.24971920 0.12860960
-0.17610323 -0.59969437 0.00000102
-0.28447101 0.03750796 0.00000743
-0.40438211 -0.17627916 0.15095283
-0.04938262 0.07090101 0.00001072
-0.19127747 0.33820134 0.13024455
-0.71412843 -0.20122088 -0.07153800
-0.76107889 -0.54597515 -0.04863526
-0.09242585 -0.71124274 0.00000047
-0.11694268 0.32223976 0.00000782
-0.34309942 -0.16343781 0.00000290
-0.41991356 -0.05443541 -0.01576582
-0.06603530 -0.36423159 0.00000173
-0.01322303 -0.64520550 0.00000060
-0.26078370 -0.62791789 0.00000104
-0.29386112 -0.21191114 0.00000265
-0.23849767 0.05041031 0.00000802
-0.78585565 -0.05711447 -0.10293846
-0.29019237 0.27737162 -0.01760704
-0.55912673 0.22491956 -0.07667685
-0.30737996 -0.47050744 0.00000170
-0.43055990 -0.74179524 0.00000087
-0.17131898 0.17959954 0.00000807
-0.09084728 -0.16986880 0.00000250
-0.75480026 -0.74681312 -0.02725784
-0.24358130 0.38424614 -0.01704767
-0.28209224 0.11895222 0.21499649
-0.59382093 -0.34412122 -0.02864909
-0.04746329 -0.49404258 0.00000122
-0.50525874 -0.67853528 0.00000122
-0.07209552 -0.36338639 0.00000175
-0.46810168 -0.03158356 -0.02954149
-0.09246695 0.54808432 0.00000649
-0.34205896 -0.50469077 0.00000162
-0.46409601 -0.32044432 0.23943879
-0.01043566 -0.10776919 0.00000261
-0.32024494 -0.39861581 0.00000199
-0.26788279 -0.51227438 0.00000148
-0.18792158 0.22984233 0.00000744
-0.73838729 0.03674898 -0.10088606
-0.62193573 -0.54378605 -0.01560611
-0.31668088 -0.60541677 0.00000121
-0.34765992 -0.64253235 0.00000112
-0.32161051 0.02354640 0.22472088
-0.26848698 -0.06039151 0.00000318
-0.47840375 -0.65438122 0.00000127
-0.19231610 0.04782237 0.00000874
-0.40523186 -0.17833745 0.34144667
-0.45806959 -0.16355009 -0.01408378
-0.25125435 -0.73719424 0.00000061
-0.30818522 0.12878662 -0.00719970
-0.53191364 -0.03965426 -0.04398990
-0.71840036 -0.14596806 -0.07802707
-0.44085771 -0.09135436 -0.01711635
-0.61676198 -0.27181083 -0.04128710
-0.24768825 -0.21361426 0.00000257
-0.69321889 -0.53505749 -0.03350231
-0.60198158 -0.01345314 -0.06332499
-0.19233233 -0.13727707 0.00000278
-0.06511020 -0.26226512 0.00000211
-0.68136978 -0.63392663 -0.02088608
-0.02672203 0.04879419 0.00001123
-0.48751241 -0.58836347 0.00000153
-0.06955713 -0.72513962 0.00000039
-0.34219393 -0.55164862 0.00000145
-0.51778334 0.03733187 -0.04823079
-0.21839803 -0.06156392 0.00000310
-0.06204119 -0.17217340 0.00000245
-0.00535755 -0.67958796 0.00000042
-0.06346313 0.42361814 0.00000787
-0.50348246 -0.03007159 -0.03814498
-0.20843223 0.01487885 0.00000874
-0.14831176 -0.00663722 0.00000320
-0.18442814 0.35473755 0.11708553
-0.04799598 0.24934931 0.00000941
-0.01107441 -0.35320279 0.00000161
-0.24209931 -0.69426495 0.00000076
-0.15640543 0.06507471 0.00000915
-0.60290939 -0.22342479 -0.04276592
-0.27913359 -0.62860113 0.00000106
-0.62564218 -0.38796788 -0.03191295
-0.34403390 0.30334106 -0.03304280
-0.06998916 -0.29342335 0.00000201
-0.45050851 0.26962391 -0.05514747
-0.77792835 -0.54235482 -0.05301930
-0.42530587 -0.22679526 0.19849066
-0.53527117 0.07475159 -0.05611322
-0.74877518 -0.55896741 -0.04440975
-0.47464162 0.15113483 -0.04918618
-0.35660845 0.26244915 -0.03200005
-0.73713160 -0.29075846 -0.06817290
-0.65440995 -0.71675342 -0.00624701
-0.01672563 -0.47748783 0.00000123
-0.52129382 -0.15762459 -0.02977697
-0.54186451 -0.45927510 -0.00483795
-0.61458927 -0.68376124 0.12396776
-0.70903623 -0.18143533 -0.07227945
-0.17041861 0.11195151 0.00000859
-0.50480318 0.18823211 -0.06006507
-0.16569896 -0.51132303 0.00000133
-0.32058665 0.32536662 -0.02962017
-0.16972432 -0.69517970 0.00000065
-0.05191601 0.16181028 0.00001000
-0.38064885 0.24457197 -0.03597501
-0.24236114 0.43653241 -0.02193132
-0.13945803 -0.06841659 0.00000295
-0.46680063 -0.61184746 0.00000141
-0.16046327 0.41259760 0.01161229
-0.21030162 -0.12951718 0.00000283
-0.36590880 -0.34582120 0.00000226
-0.17429835 -0.53620034 0.00000125
-0.03733969 -0.31724456 0.00000187
-0.29485458 -0.31203431 0.00000227
-0.46079621 -0.18642102 -0.01247176
-0.49778101 -0.04175449 -0.03562643
-0.70736170 -0.74006939 -0.01659112
-0.58842462 -0.54736501 -0.00724478
-0.71068323 0.00153419 -0.09078071
-0.37952149 0.14484870 -0.02583519
-0.44501182 -0.46677402 0.00000192
-0.23497280 -0.48006612 0.00000155
-0.19902906 -0.21580604 0.00000249
-0.64700842 0.02393350 -0.07778276
-0.62002558 -0.55307162 -0.01423072
-0.57229668 -0.48484898 -0.00957836
-0.20810714 -0.23841967 0.00000242
-0.37187544 0.35309714 -0.04462027
-0.48951820 0.11557418 -0.04922118
-0.31398004 0.04197172 0.11943739
-0.05832020 -0.67460275 0.00000056
-0.71469611 -0.58516139 -0.03367501
-0.38570160 -0.26464078 0.00000259
-0.09586690 0.45160359 0.00000717
-0.65984845 -0.17312942 -0.06134859
-0.49753973 -0.40118286 0.19234759
-0.39303496 0.35488725 -0.04985348
-0.29200327 -0.66546428 0.00000095
-0.47461882 -0.34585115 0.32341772
-0.10466020 0.03451437 0.00001016
-0.47233707 0.24780701 -0.05820396
-0.35677513 -0.35572278 0.00000220
-0.15295935 0.58500296 -0.01526428
-0.32535690 0.40876874 -0.03901502
-0.42366567 -0.22283107 0.07565206
-0.32510293 -0.03410234 0.00000336
-0.23076506 -0.37793174 0.00000193
-0.00710868 -0.67751974 0.00000042
-0.11123178 0.18730295 0.00000892
-0.00710200 0.08068114 0.00001129
-0.66794670 -0.14662869 -0.06590633
-0.62882876 -0.75243747 0.00000113
-0.35304132 -0.74962491 0.00000072
-0.37136471 0.40545791 -0.04968081
-0.16141607 -0.66989625 0.00000073
-0.25845212 0.49221849 -0.03128796
-0.27257517 -0.73999894 0.00000064
-0.48688710 -0.32144487 -0.00534267
-0.44881085 0.28860915 -0.05662094
-0.33183727 -0.00428657 0.00000348
-0.00254303 -0.73285842 0.00000026
-0.08233606 -0.40167528 0.00000162
-0.10786104 -0.44258112 0.00000150
-0.37112981 0.20193003 -0.02947982
-0.26912588 0.41102535 -0.02580207
-0.35308513 -0.37051389 0.00000214
-0.41062850 -0.05228936 -0.01375965
-0.65597475 -0.17438278 -0.06029897
-0.40581554 -0.17974482 0.29280338
-0.12848821 0.30445042 0.00000778
-0.75436956 -0.75764948 -0.02608244
-0.04458335 0.03602406 0.00001106
-0.57001930 -0.05407525 -0.05166760
-0.47240195 0.03502755 -0.03715890
-0.15869448 -0.03080999 0.00000312
-0.37509087 -0.42309776 0.00000198
-0.21379133 -0.13100445 0.00000283
-0.43923676 -0.41670951 0.00000210
-0.50879186 0.05169521 -0.04750395
-0.41969055 0.26035973 -0.04686662
-0.11519983 -0.60565060 0.00000090
-0.52049780 -0.10512021 -0.03478309
-0.41171914 -0.40255105 0.00000211
-0.00598409 -0.33456647 0.00000171
-0.25813702 0.17678870 0.11725374
-0.40354046 0.00780058 -0.01800968
-0.19547249 0.32807803 0.00819496
-0.08257835 0.52859068 0.00000679
-0.15033081 0.54470390 -0.01064747
-0.31662643 0.09616169 -0.00598756
-0.13448629 0.20762014 0.00000841
-0.17764705 0.36473203 0.00000658
-0.58730954 -0.47358739 -0.01428007
-0.44705567 0.32024625 -0.05933293
-0.25757015 -0.29889461 0.00000227
-0.26737547 -0.07620310 0.00000312
-0.16677131 -0.63471419 0.00000087
-0.24957745 -0.70224184 0.00000074
-0.10800262 0.67108816 -0.01304252
-0.19799319 -0.47592095 0.00000151
-0.75978321 -0.13783468 -0.08872002
-0.00503939 -0.11390527 0.00000258
-0.46912932 -0.13680314 -0.01937352
-0.74308473 -0.16944228 -0.08160192
-0.66996771 -0.45496795 -0.03587310
-0.51545322 -0.67210460 0.00000126
-0.01678012 0.67693472 0.00000667
-0.34406778 -0.15856507 0.00000292
-0.02059206 0.07421655 0.00001113
-0.02414478 -0.55696255 0.00000095
-0.31809500 0.03203554 0.17002070
-0.12878485 -0.05349847 0.00000299
-0.14188109 0.27639860 0.00000779
-0.36293903 -0.77010417 0.00000066
-0.10722842 -0.76822048 0.00000028
-0.57659847 -0.41467014 -0.01755178
-0.22630087 0.25365025 0.05200842
-0.09574665 -0.55146712 0.00000108
-0.18705790 -0.62265486 0.00000095
-0.25471759 0.32221764 -0.01356919
-0.41735950 -0.03789055 -0.01679299
-0.01586660 0.56952846 0.00000749
-0.10317593 0.62228858 -0.00705909
-0.34730667 -0.27780747 0.00000248
-0.34339321 -0.36978450 0.00000213
-0.57848412 -0.36658904 -0.02276090
-0.38275689 -0.12406667 0.02232463
-0.58359706 -0.51578438 -0.00921681
-0.64931750 -0.72865462 -0.00385237
-0.18725154 -0.51523775 0.00000135
-0.22029689 0.54935116 -0.02782572
-0.34728363 0.10828987 -0.01451347
-0.48057917 -0.61960775 0.00000140
-0.47963035 -0.26981443 -0.00871857
-0.03162488 -0.16542269 0.00000243
-0.26574123 -0.49321824 0.00000155
-0.43449563 -0.24898724 0.36563957
-0.27525285 -0.46266669 0.00000168
-0.14386418 -0.54068714 0.00000119
-0.03534165 -0.38281846 0.00000162
-0.47949928 0.20699556 -0.05587591
-0.49618378 -0.11345725 -0.02814841
-0.42204362 -0.77904171 0.00000072
-0.70512849 -0.06866901 -0.08250614
-0.47859883 -0.49594957 0.00000186
-0.45292848 -0.09234114 -0.01990288
-0.16261540 0.46765515 -0.00595669
-0.43800151 -0.13697624 -0.01191873
-0.11816434 0.22134855 0.00000856
-0.70955086 -0.72012699 -0.01908789
-0.38400897 -0.78406847 0.00000064
-0.31341285 -0.00803347 0.00000344
-0.33450592 -0.62151933 0.00000117
-0.29595605 0.04339573 0.00000721
-0.06910740 -0.22571467 0.00000226
-0.32905939 -0.57545239 0.00000134
-0.08212228 0.22866341 0.00000905
-0.39846474 -0.31823081 0.00000241
-0.39709735 -0.15869983 0.36420417
-0.44227004 -0.26774737 0.11572081
-0.07870992 -0.26043737 0.00000214
-0.56139052 -0.55533135 0.25032237
-0.18092038 -0.55333984 0.00000120
-0.09033507 -0.43699050 0.00000150
-0.21881111 0.14683910 0.00000760
-0.61073828 0.06063329 -0.07274856
-0.15574539 0.42398357 0.12341156
-0.16077812 -0.34039992 0.00000197
-0.10784056 -0.50021422 0.00000129
-0.72635686 -0.15304534 -0.07922777
-0.20570810 -0.76090026 0.00000046
-0.24447796 0.20976128 0.20903718
-0.38006836 -0.11757665 0.04040850
-0.04167138 0.21978045 0.00000972
-0.60775155 -0.66725338 0.07576668
-0.67353827 -0.71182632 -0.01130515
-0.68212754 0.10076222 -0.09377881
-0.30524421 -0.41260728 0.00000191
-0.26886991 -0.57876706 0.00000124
-0.17997245 -0.09464625 0.00000292
-0.10192670 0.26317549 0.00000849
-0.06731720 -0.56487447 0.00000098
-0.39573207 -0.43342617 0.00000197
-0.79420364 -0.64234436 -0.04701168
-0.16729178 -0.25167182 0.00000231
-0.30777383 -0.36240041 0.00000211
-0.15504783 -0.58805078 0.00000103
-0.27728888 0.13055077 0.15274984
-0.19875230 0.32015744 0.07684364
-0.71025670 -0.24349952 -0.06642862
-0.27892998 -0.71077043 0.00000076
-0.37638575 0.33762708 -0.04416680
-0.21178399 0.03497436 0.00000854
-0.31163883 0.34432039 -0.02935812
-0.30374989 0.06666414 0.26874113
-0.24502105 -0.17422833 0.00000272
-0.53366929 -0.37222254 -0.01149533
-0.74334991 -0.69986731 -0.02916841
-0.47341874 0.02334556 -0.03624560
-0.34991965 0.21556067 -0.02576083
-0.63125545 -0.59822440 -0.01244522
-0.17810202 0.46367025 -0.00926277
-0.24248049 -0.73972350 0.00000059
-0.29382369 -0.25037587 0.00000250
-0.14372587 -0.57970256 0.00000104
-0.22440328 -0.17398444 0.00000269
-0.31706449 0.03452159 0.22038107
-0.32040781 0.02645541 0.07256131
-0.47881955 -0.46494049 0.00000198
-0.37528250 -0.45592847 0.00000186
-0.01210911 -0.38262558 0.00000158
-0.39599779 -0.72578490 0.00000088
-0.42325005 0.35731050 -0.05731318
-0.23939502 0.47828200 -0.02535488
-0.49597967 0.15614697 -0.05478097
-0.09168858 0.40838775 0.00000755
-0.73713279 -0.29187045 -0.06806313
-0.09431811 0.17861585 0.00000924
-0.11813765 -0.42146653 0.00000160
-0.14275888 -0.05462021 0.00000301
-0.60563177 -0.69505811 0.00000131
-0.52894264 -0.72296536 0.00000109
-0.23454459 -0.17932303 0.00000268
-0.32739350 -0.28895709 0.00000241
-0.49088398 -0.20143682 -0.01817480
-0.19203185 -0.79156584 0.00000032
-0.78872871 -0.73552114 -0.03648172
-0.40468681 0.26400915 -0.04364271
-0.68836290 -0.57372928 -0.02851471
-0.18089730 -0.23979008 0.00000237
-0.40322700 -0.76991689 0.00000072
-0.27093607 -0.41397867 0.00000186
-0.07694499 0.36332399 0.00000811
-0.49417177 -0.11194213 -0.02781761
-0.55624914 -0.46701953 -0.00750855
-0.77269006 -0.51563853 -0.05441191
-0.39107493 0.05268747 -0.01947390
-0.13043091 -0.49510762 0.00000134
-0.40839413 -0.58423471 0.00000143
-0.38740641 -0.64488155 0.00000117
-0.26511103 -0.24937195 0.00000246
-0.34767026 0.21078546 -0.02475070
-0.49393302 -0.39247590 0.20349240
-0.42272797 0.08133092 -0.02987242
-0.63529128 -0.76083148 0.00000111
-0.26099995 0.16987509 0.17039473
-0.21571982 0.27919376 0.09038106
-0.25221306 0.19108562 0.25030956
-0.17660904 0.43711293 -0.00627743
-0.77122784 -0.04194995 -0.10094424
-0.32808095 0.44875297 -0.04362350
-0.68286443 -0.35002154 -0.04934111
-0.48590621 0.03819329 -0.04069907
-0.56638354 0.15365665 -0.07135737
-0.14816301 0.21159434 0.00000818
-0.09781252 0.67413938 -0.01090962
-0.39237261 -0.14728107 0.02229055
-0.45350644 0.00533474 -0.02970491
-0.07596984 -0.09858738 0.00000274
-0.78595656 -0.26206318 -0.08267841
-0.51708031 -0.61165035 0.00000149
-0.25247687 -0.02472294 0.00000329
-0.22941843 -0.03928574 0.00000320
-0.42009404 -0.29525483 0.00000253
-0.41188443 0.01487256 -0.02070343
-0.46357566 -0.10980917 -0.02071810
-0.17431965 0.00672226 0.00000932
-0.11230648 0.03275876 0.00001006
-0.37043935 -0.67470151 0.00000103
-0.05482052 -0.54642946 0.00000103
-0.50068653 -0.00025993 -0.04042476
-0.32830763 0.00737565 0.29419124
-0.31035653 -0.51539850 0.00000154
-0.32974693 -0.41705006 0.00000193
-0.25163049 0.28621662 -0.00926820
-0.50299364 -0.43798742 0.00000212
-0.58834249 -0.17203248 -0.04437158
-0.53477550 -0.49107435 0.09361160
-0.59789860 -0.22744647 -0.04117062
-0.55541092 -0.28515646 -0.02530714
-0.04097268 -0.54805630 0.00000101
-0.73597050 -0.44605571 -0.05252551
-0.22103350 -0.42008570 0.00000176
-0.62301719 -0.75949115 0.00000109
-0.41065979 -0.19144042 0.30785283
-0.64926976 -0.25888944 -0.05033332
-0.29794639 -0.32204035 0.00000224
-0.13018557 0.45814890 0.00000660
-0.53984910 -0.50332189 0.05895926
-0.06462831 -0.04701378 0.00000292
-0.58614951 -0.47036663 -0.01432165
-0.27494383 -0.76630825 0.00000054
-0.09990476 -0.45436424 0.00000145
-0.45058364 -0.16814102 -0.01184073
-0.73178118 -0.14373568 -0.08144522
-0.29643479 -0.00423351 0.00000343
-0.32717916 -0.05164545 0.00000330
-0.34708700 0.16024944 -0.01960936
-0.53044432 -0.75045294 0.00000099
-0.47337613 0.19214571 -0.05294298
-0.60710573 -0.23513620 -0.04260952
-0.68003780 -0.13375504 -0.07006948
-0.51454687 -0.75264513 0.00000095
-0.09166915 0.57868004 0.04352163
-0.45436499 0.03078918 -0.03242949
-0.29721034 -0.35497171 0.00000212
-0.73598117 -0.00802446 -0.09588001
-0.36776754 -0.55666071 0.00000147
-0.34279370 -0.10988266 0.00000311
-0.37005830 -0.75018972 0.00000075
-0.20685785 -0.10823661 0.00000291
-0.65452188 -0.78016472 0.12088387
-0.65351725 -0.13911594 -0.06320211
-0.13249367 0.47765136 0.00000642
-0.35531151 0.03850065 -0.00952410
-0.47311863 -0.46546385 0.00000197
-0.21286871 -0.75131541 0.00000050
-0.68334490 -0.40043816 -0.04446621
-0.30235374 0.07003316 0.31302619
-0.28637215 0.49775606 -0.03850750
-0.13115408 -0.52950805 0.00000121
-0.52039236 -0.65000713 0.00000135
-0.00792134 0.53534925 0.00000787
-0.61734486 -0.61833328 -0.00713128
-0.65213162 -0.79188883 0.00000101
-0.27468735 0.13682626 0.29703042
-0.23468585 0.04959028 0.00000809
-0.05972086 -0.42529204 0.00000150
-0.08166185 -0.20709807 0.00000235
-0.73578638 -0.28099847 -0.06881741
-0.69863480 -0.30004048 -0.05805586
-0.48830292 0.07197382 -0.04461529
-0.70757443 -0.17484905 -0.07258200
-0.44720757 -0.29357201 0.00000257
-0.64241230 -0.53286487 -0.02157963
-0.09020340 0.26930442 0.00000862
-0.79271936 -0.69472557 -0.04147279
-0.17137758 0.28770980 0.00000726
-0.41856322 -0.21052125 0.31622359
-0.49706745 -0.19515422 -0.02027405
-0.29970425 0.17375439 -0.00962403
-0.55146688 0.20324719 -0.07270144
-0.75495529 -0.17487791 -0.08390029
-0.27345443 -0.22920187 0.00000255
-0.22803780 0.43604818 -0.01846086
-0.32275790 0.02077502 0.26211819
-0.41865435 0.11387703 -0.03212040
-0.53995949 -0.57973683 0.00000164
-0.14133751 0.09302765 0.00000917
-0.75796825 -0.16800551 -0.08530037
-0.55809021 -0.30816448 -0.02367024
-0.44583938 -0.53946394 0.00000165
-0.26006910 -0.74078643 0.00000061
-0.27621397 -0.19032632 0.00000270
-0.07964033 0.49669135 0.00000707
-0.19499770 -0.29461789 0.00000219
-0.60631019 0.08063723 -0.07367043
-0.26059496 0.17085528 0.10075162
-0.01071803 -0.34714323 0.00000163
-0.63218933 -0.39248979 -0.03302980
-0.26059037 0.33742857 -0.01647803
-0.43465415 -0.27906275 0.00000261
-0.47618237 -0.42560279 0.00000212
-0.43834412 -0.16113909 -0.00960921
-0.04283444 -0.18327224 0.00000238
-0.20930944 0.02989904 0.00000862
-0.38052791 -0.11869274 0.22562182
-0.67324489 -0.10595792 -0.07119744
-0.33800349 0.43860263 -0.04498981
-0.00913675 -0.35250238 0.00000169
-0.17309260 -0.71783394 0.00000057
-0.20425656 0.48665038 -0.01778689
-0.71768886 -0.21728811 -0.07079857
-0.61551404 -0.12526853 -0.05549213
-0.00523910 -0.50768977 0.00000106
-0.50323176 -0.05005086 -0.03610774
-0.57600892 -0.61645335 0.00000156
-0.70452744 -0.65920341 -0.02391740
-0.39682162 0.25654870 -0.04102491
-0.68876004 -0.13387826 -0.07214136
-0.15810014 -0.08882132 0.00000291
-0.71193564 -0.49045014 -0.04238922
-0.07594020 -0.23418251 0.00000224
-0.23679344 -0.50669354 0.00000146
-0.46961868 -0.05100563 -0.02798177
-0.48956740 -0.65169835 0.00000129
-0.71177369 -0.35264289 -0.05598924
-0.19785979 0.32231030 0.12822591
-0.29196876 -0.13948090 0.00000292
-0.27918988 -0.07839441 0.00000313
-0.01495686 0.70119113 0.00000652
-0.47374824 -0.54936874 0.00000165
-0.33628416 -0.56497210 0.00000139
-0.46349874 -0.31899816 0.12142027
-0.37309167 -0.10074425 0.34285852
-0.23548491 0.23147704 0.07921363
-0.30711693 -0.26309171 0.00000248
-0.28394705 -0.40176320 0.00000192
-0.03542700 -0.41222784 0.00000151
-0.54802179 -0.28245404 -0.02380904
-0.43116441 0.08807591 -0.03255590
-0.05752465 0.10244149 0.00001036
-0.12488463 0.35011071 0.00000749
-0.07760453 -0.66227257 0.00000063
-0.35069251 -0.04666784 0.34002951
-0.25463438 -0.06107916 0.00000316
-0.47923878 -0.79211837 0.00000075
-0.38503957 -0.34725186 0.00000228
-0.50645059 -0.42269260 0.10930424
-0.08363060 0.14375727 0.00000966
-0.54120308 -0.53043723 0.00000183
-0.21715204 -0.55091065 0.00000126
-0.32681900 0.14636354 -0.01339195
-0.53656757 0.17130569 -0.06597976
-0.30321252 0.00939196 0.00000735
-0.18454216 -0.13921978 0.00000276
-0.62075281 -0.69864100 0.18309355
-0.05828473 0.65927732 0.03766406
-0.42957664 0.08143828 -0.03151952
-0.12460396 0.53717923 -0.00375530
-0.01546715 0.24994405 0.00000989
-0.15016994 0.43744600 0.06415268
-0.27208278 -0.32500720 0.00000219
-0.19293271 0.54755276 -0.02110909
-0.78758752 -0.15650228 -0.09351565
-0.04713262 -0.18641485 0.00000237
-0.68865240 -0.51419842 -0.03447561
-0.24674372 0.44296142 -0.02361487
-0.61244893 -0.41532212 -0.02605333
-0.55600679 0.06135644 -0.05974213
-0.15117744 0.03914381 0.00000943
-0.59432745 -0.29664788 -0.03346851
-0.78691399 -0.50483805 -0.05887928
-0.44867766 0.07397289 -0.03534477
-0.59257597 -0.49513695 -0.01340568
-0.49757233 0.19324766 -0.05883370
-0.08226442 0.61762607 -0.00160083
-0.25173217 -0.70233619 0.00000075
-0.17831142 0.09846078 0.00000857
-0.52664649 -0.26618561 -0.02031172
-0.38593245 0.34876603 -0.04755048
-0.46047515 -0.31170192 0.21521376
-0.62497294 -0.42249772 -0.02833564
-0.55086792 -0.71466708 0.00000115
-0.06252288 0.37524226 0.00000824
-0.18430462 0.24766938 0.00000736
-0.07021443 0.24681246 0.00000909
-0.71219623 -0.61255962 -0.03036609
-0.27004889 0.26772773 -0.01183925
-0.00817692 -0.64603341 0.00000059
-0.39475748 -0.31463695 0.00000242
-0.13421854 0.38039663 0.00000712
-0.73136628 -0.31313208 -0.06458103
-0.67147636 0.10576683 -0.09172906
-0.20852812 0.58055645 -0.02810224
-0.43812072 -0.25772974 0.10679988
-0.63131380 -0.48741639 -0.02342576
-0.61582977 -0.27881998 -0.04037068
-0.21352063 0.40375328 -0.01179550
-0.52773553 0.06861683 -0.05370538
