ply
format ascii 1.0
element vertex 1241
property float x
property float y
property float z
end_header
-0.37091920 -0.00498735 -0.23167744
-0.25313351 0.11802693 -0.00000244
-0.35654584 -0.04576600 -0.03839715
-0.28954503 0.11371011 -0.03257150
-0.28718266 0.18185832 -0.19247706
-0.41976592 -0.35435972 -0.00000225
-0.66841531 -0.77870649 -0.08952437
-0.13662471 -0.27999926 -0.00000050
-0.07984187 -0.70994562 -0.00000043
-0.51267159 -0.41867259 -0.04865808
-0.41124618 -0.11335914 -0.20346902
-0.63735408 -0.73871905 0.10969778
-0.36533919 -0.34084710 -0.00000192
-0.14009325 -0.43630293 -0.00000062
-0.43953490 -0.22081617 -0.10318193
-0.28628603 -0.35030037 -0.00000145
-0.65631157 -0.73342609 -0.13065059
-0.48051491 -0.38921866 -0.00000264
-0.60069805 -0.65807629 -0.00000354
-0.09294243 0.42780176 -0.00000224
-0.02124699 -0.32753077 0.00000017
-0.40897968 -0.08540778 -0.26103362
-0.10066257 0.08183147 -0.00000763
-0.10065134 0.30335099 -0.00000403
-0.10952857 -0.48065037 -0.00000046
-0.61290818 -0.67207950 -0.01941655
-0.42384052 -0.21129911 -0.03052917
-0.10729294 0.09385584 -0.00000724
-0.22196364 -0.54564577 -0.00000118
-0.39682969 -0.03352772 -0.31877291
-0.35045269 -0.01913730 -0.06891814
-0.08013126 0.38998955 -0.00000324
-0.17647910 -0.59674549 -0.00000094
-0.19173247 -0.23585574 -0.00000080
-0.49081293 -0.29670650 -0.22584987
-0.09438367 0.08805190 -0.00000772
-0.02290148 -0.54378641 0.00000002
-0.13905163 -0.40984240 -0.00000060
-0.51963562 -0.40055257 -0.13811038
-0.00030828 -0.08960854 0.00000044
-0.62154973 -0.61420959 -0.22103404
-0.56632078 -0.54549229 -0.05556772
-0.06322421 0.27318266 -0.00000565
-0.67163461 -0.79244465 -0.07424656
-0.48074776 -0.39779416 -0.00000265
-0.45584920 -0.28339472 -0.04379046
-0.02001761 -0.22381206 0.00000024
-0.53202677 -0.40407595 -0.20569077
-0.02213921 0.74761140 -0.00271110
-0.31499675 0.04594853 -0.01639566
-0.54297721 -0.48164916 -0.07474241
-0.06632100 -0.26470575 -0.00000007
-0.19392087 0.38276327 -0.13039307
-0.49877495 -0.35025674 -0.13794336
-0.51484263 -0.39108655 -0.13272010
-0.40981707 -0.14423962 -0.11555736
-0.19451730 0.03644182 -0.00000554
-0.53257042 -0.42760807 -0.14879201
-0.26133898 0.25727478 -0.22583194
-0.11275899 0.43266249 -0.00000157
-0.55134267 -0.65822780 -0.00000324
-0.46736705 -0.29436761 -0.08689564
-0.65379584 -0.74733174 -0.07948717
-0.35619152 -0.47002414 -0.00000194
-0.06983067 -0.10559065 0.00000001
-0.12293673 0.53001881 -0.06864868
-0.01350607 0.12605879 -0.00000954
-0.55645138 -0.43844479 -0.26867694
-0.02966560 -0.10842065 0.00000025
-0.47351497 -0.72609675 -0.00000281
-0.24903151 0.20817447 -0.02401353
-0.50081170 -0.29427236 -0.29389602
-0.43464983 -0.71177858 -0.00000257
-0.14737992 0.34135878 -0.00000201
-0.05470130 -0.56754446 -0.00000018
-0.05681996 0.14763144 -0.00000789
-0.32233438 0.05134825 -0.07558456
-0.42033097 -0.13752794 -0.19774158
-0.36083570 -0.29098994 -0.00000186
-0.13095473 -0.16945021 -0.00000040
-0.23737244 -0.37753576 -0.00000117
-0.11396826 0.44288358 -0.00000136
-0.59926116 -0.55601293 -0.23227014
-0.34094647 0.05171699 -0.19158949
-0.36042446 -0.19078916 -0.00000179
-0.62826657 -0.71678042 0.17932419
-0.34058729 -0.00616338 -0.04115259
-0.34955722 -0.34853882 -0.00000183
-0.09186872 -0.67174792 -0.00000047
-0.44493273 -0.36286712 -0.00000241
-0.21829934 0.13429959 -0.00000323
-0.36643827 -0.04328443 -0.10590743
-0.04408786 0.48182353 -0.00000284
-0.53592634 -0.39443824 -0.25447774
-0.48900720 -0.24470215 -0.34785634
-0.34200320 -0.11664414 -0.00000164
-0.32421419 -0.69558913 -0.00000189
-0.33487439 0.02348395 -0.08175436
-0.29149365 -0.64592850 -0.00000166
-0.29552424 0.13427210 -0.12218919
-0.43012661 -0.16474876 -0.18859348
-0.23533297 0.24255027 -0.02735585
-0.03252693 -0.49420679 -0.00000001
-0.05139981 0.02630092 -0.00001002
-0.07596891 0.08839085 -0.00000827
-0.34783712 -0.25578311 -0.00000176
-0.04402209 -0.04625652 0.00000021
-0.05218504 -0.07098102 0.00000014
-0.32954267 -0.16906510 -0.00000159
-0.44900474 -0.62247962 -0.00000260
-0.34477723 0.00481375 -0.09516453
-0.62879294 -0.68165123 -0.09310724
-0.02198192 -0.19301216 0.00000025
-0.00290220 -0.44649795 0.00000020
-0.18098596 0.30670300 -0.00000155
-0.17547049 -0.47003403 -0.00000085
-0.62356114 -0.65850866 -0.12002673
-0.49012458 -0.24741787 -0.34780982
-0.21272521 -0.72035301 -0.00000123
-0.23244505 0.23337679 -0.00000119
-0.13767588 0.30086631 -0.00000296
-0.32578900 -0.32854354 -0.00000167
-0.35764313 0.03763701 -0.25875399
-0.03517566 -0.53559732 -0.00000005
-0.16955708 0.43163341 -0.10491857
-0.43441963 -0.19406585 -0.14005956
-0.47844362 -0.21162222 -0.36726087
-0.40361691 -0.13733000 -0.09492142
-0.58066648 -0.59808308 -0.00958225
-0.10459639 0.55021942 -0.00699616
-0.55683154 -0.64623827 -0.00000326
-0.40142635 -0.63197827 -0.00000232
-0.19702999 0.18110289 -0.00000311
-0.46636066 -0.27544662 -0.12912592
-0.06501533 -0.07006717 0.00000006
-0.44534835 -0.16561079 -0.28048742
-0.53193837 -0.42048034 -0.16313703
-0.56747347 -0.71899557 -0.00000337
-0.67090553 -0.80680764 -0.03295783
-0.13590159 -0.43671104 -0.00000059
-0.14742076 -0.48273513 -0.00000069
-0.55189335 -0.63823271 -0.00000323
-0.28379318 0.11931723 -0.01137174
-0.00922265 -0.57051229 0.00000009
-0.25755078 0.22071286 -0.10878757
-0.22341952 -0.65967053 -0.00000126
-0.54266316 -0.59480357 -0.00000315
-0.39205977 -0.08643018 -0.15381572
-0.41055518 -0.26227802 -0.00000214
-0.37777635 -0.03649426 -0.19338779
-0.34184182 -0.40763602 -0.00000182
-0.53104693 -0.38180041 -0.25667536
-0.38388395 -0.10015556 -0.06812527
-0.60627651 -0.64733231 -0.04179051
-0.35784781 0.00753590 -0.18293823
-0.30066863 -0.42711055 -0.00000158
-0.18021932 0.36835727 -0.00879948
-0.46860158 -0.17799295 -0.39253253
-0.45452523 -0.53597313 -0.00000258
-0.07163694 0.57939923 -0.00000042
-0.47027329 -0.52942127 -0.00000267
-0.67839795 -0.83780521 0.12522575
-0.41017330 -0.18306665 -0.01833368
-0.44052804 -0.74150354 -0.00000262
-0.40802079 -0.72193301 -0.00000241
-0.33212358 0.01971932 -0.05510832
-0.08366732 -0.42670405 -0.00000027
-0.13813621 -0.46253830 -0.00000062
-0.63003743 -0.72105551 0.08050364
-0.64932019 -0.76760703 0.05272438
-0.11667090 0.52994359 -0.02972042
-0.18000881 -0.76892477 -0.00000107
-0.62315255 -0.70443439 0.18854465
-0.07585309 0.01060969 -0.00000954
-0.49382862 -0.28412062 -0.27672222
-0.19607407 -0.70390189 -0.00000112
-0.27553293 -0.56623304 -0.00000152
-0.18017583 -0.00210747 -0.00000059
-0.14637259 -0.29743004 -0.00000057
-0.47885048 -0.35525078 -0.00198097
-0.03997706 0.71023446 -0.01727305
-0.54643512 -0.46078107 -0.14955699
-0.00253314 0.75431138 0.00000033
-0.26570347 0.19247127 -0.08686863
-0.16365109 0.38716212 -0.00000077
-0.12184008 -0.72182214 -0.00000069
-0.39439127 -0.43420944 -0.00000215
-0.13648675 0.07639857 -0.00000664
-0.21757916 -0.20735675 -0.00000094
-0.08373176 -0.11106943 -0.00000007
-0.24024507 -0.54267442 -0.00000129
-0.23634353 -0.56579173 -0.00000128
-0.18286838 -0.16594173 -0.00000071
-0.56399763 -0.52992779 -0.08106273
-0.30499837 -0.67227525 -0.00000176
-0.00580064 0.08663465 -0.00001042
-0.05287753 -0.66153002 -0.00000023
-0.41182727 -0.06461141 -0.33189154
-0.12136775 0.39129603 -0.00000198
-0.07059376 -0.66026288 -0.00000034
-0.10016585 0.56287909 -0.01202454
-0.42749068 -0.10220244 -0.33246270
-0.64113885 -0.74785602 0.12931463
-0.45182124 -0.27578723 -0.03837029
-0.00443571 0.31113875 -0.00000681
-0.05158336 0.62077045 -0.00000036
-0.04068556 -0.27607569 0.00000008
-0.61059994 -0.73592603 -0.00000365
-0.65431756 -0.77967131 0.04765480
-0.34622508 -0.52002555 -0.00000191
-0.39760768 -0.29386812 -0.00000208
-0.00092493 -0.26001495 0.00000033
-0.22767839 0.01069159 -0.00000496
-0.31659481 -0.54285640 -0.00000175
-0.34138680 -0.08595741 -0.00000161
-0.13636102 -0.33076513 -0.00000053
-0.55451125 -0.42293423 -0.29640242
-0.14231037 0.49563769 -0.10037626
-0.23936765 0.16335985 -0.00000212
-0.27509606 -0.72220445 -0.00000161
-0.00286749 -0.64782566 0.00000008
-0.48398966 -0.21502841 -0.39282510
-0.18855153 0.35923296 -0.03694468
-0.56050777 -0.55320019 0.24010263
-0.28971410 0.20284145 -0.26185849
-0.17004800 0.08191565 -0.00000554
-0.12669782 0.13399886 -0.00000600
-0.28057274 -0.37283191 -0.00000143
-0.29686704 0.18963857 -0.27226925
-0.29035679 0.19001278 -0.23298104
-0.62241024 -0.70264232 0.14707798
-0.23311794 0.26088339 -0.06060876
-0.21010590 0.31258419 -0.05073951
-0.30515498 -0.36576399 -0.00000157
-0.13676269 -0.61078101 -0.00000071
-0.36326072 0.02056303 -0.24976020
-0.61835217 -0.67187476 -0.05359591
-0.12642235 0.42127681 -0.00000134
-0.04477687 0.62337911 -0.00000052
-0.35776851 0.05891070 -0.31400549
-0.57740432 -0.58359611 -0.02651313
-0.13951281 0.01648495 -0.00000752
-0.19223075 -0.21705478 -0.00000080
-0.38682061 -0.42562059 -0.00000210
-0.31355348 -0.41136369 -0.00000165
-0.40481821 -0.51986855 -0.00000227
-0.43560526 -0.66937798 -0.00000255
-0.62903923 -0.64192748 -0.19635597
-0.11390919 -0.13306734 -0.00000027
-0.46961558 -0.21063322 -0.31521797
-0.64955199 -0.76267958 -0.01394736
-0.26415804 -0.32624155 -0.00000130
-0.41986632 -0.17098190 -0.10920233
-0.47267607 -0.31065455 -0.07800960
-0.40884560 -0.52051222 -0.00000229
-0.25825953 -0.12120514 -0.00000113
-0.33340076 -0.41394576 -0.00000177
-0.42164230 -0.09796946 -0.30714729
-0.13391504 0.52504599 -0.12378293
-0.22145133 0.27545670 -0.02580364
-0.11462985 -0.02992060 -0.00000021
-0.46755186 -0.30087459 -0.07137553
-0.05094265 -0.00039896 0.00000019
-0.48320082 -0.24088578 -0.32173374
-0.11231905 0.56045198 -0.08094100
-0.51353496 -0.42855451 -0.02869034
-0.51132429 -0.30437016 -0.33302790
-0.45760524 -0.51349956 -0.00000258
-0.33110705 0.11541272 -0.29386988
-0.04093044 0.12673581 -0.00000871
-0.57298189 -0.51077831 -0.18564075
-0.31665009 -0.41319090 -0.00000167
-0.45206666 -0.28443822 -0.01773460
-0.21418232 0.06769436 -0.00000444
-0.57221115 -0.65373886 -0.00000336
-0.04848861 0.15814307 -0.00000797
-0.59306014 -0.60008752 -0.08106764
-0.24276929 0.23711263 -0.05940311
-0.31043983 0.06913413 -0.04759674
-0.51963657 -0.34230086 -0.28728381
-0.28834495 -0.47128704 -0.00000153
-0.31338760 0.09850257 -0.14102495
-0.36133343 -0.30852580 -0.00000187
-0.64709401 -0.72237557 -0.10196294
-0.07382630 0.05695792 -0.00000885
-0.46772537 -0.40725914 -0.00000258
-0.36718643 -0.42751405 -0.00000198
-0.49533504 -0.35604590 -0.10185305
-0.29105434 0.13457666 -0.09533605
-0.15065843 -0.35080698 -0.00000063
-0.19871417 -0.30606586 -0.00000089
-0.11789435 -0.29882750 -0.00000040
-0.40833852 -0.09804426 -0.22471105
-0.08901152 -0.07030719 -0.00000008
-0.48689538 -0.31766632 -0.14795879
-0.32086301 -0.24100222 -0.00000159
-0.41708991 -0.14671218 -0.15418674
-0.00629262 -0.05153528 0.00000043
-0.52542061 -0.40739459 -0.15635297
-0.64805794 -0.71179593 -0.13501468
-0.41504076 -0.57698828 -0.00000237
-0.07950433 0.06876541 -0.00000848
-0.13743544 -0.61118680 -0.00000071
-0.05357093 0.68044084 -0.02501737
-0.30734220 -0.10604608 -0.00000142
-0.62071735 -0.69855529 0.11185327
-0.28945714 0.14246356 -0.10565834
-0.02526009 -0.78877705 -0.00000015
-0.29421932 -0.66314036 -0.00000169
-0.23199394 -0.00207286 -0.00000090
-0.23712884 -0.40766132 -0.00000119
-0.27237359 -0.36671072 -0.00000137
-0.62350410 -0.66583967 -0.10090038
-0.11733444 0.39796919 -0.00000199
-0.57857484 -0.58079243 -0.04092860
-0.64139646 -0.74847788 0.07443234
-0.16821149 -0.66575128 -0.00000093
-0.10539097 -0.74060571 -0.00000060
-0.11825784 0.44292790 -0.00000123
-0.52881765 -0.36512357 -0.28559878
-0.29503134 0.15378815 -0.16911761
-0.09770888 -0.42152902 -0.00000035
-0.43207052 -0.09053950 -0.39064121
-0.23018335 0.26148885 -0.04401747
-0.37271529 -0.52786815 -0.00000208
-0.11929899 -0.28998259 -0.00000040
-0.58912480 -0.52376813 -0.25217703
-0.19978058 -0.56774282 -0.00000106
-0.04817748 -0.78235227 -0.00000028
-0.42624453 -0.20311746 -0.06634206
-0.11002285 0.40257272 -0.00000214
-0.27947444 0.20482634 -0.20363948
-0.34772322 -0.02008204 -0.04962535
-0.45551112 -0.17901261 -0.30899557
-0.00861867 -0.51593977 0.00000013
-0.29457682 0.11829265 -0.07541301
-0.14717399 0.21036208 -0.00000414
-0.39637688 -0.10460959 -0.13395165
-0.26174095 -0.37931591 -0.00000132
-0.20249017 -0.09858322 -0.00000078
-0.29882777 0.14275415 -0.16433206
-0.23045820 -0.37120482 -0.00000112
-0.43861613 -0.19127041 -0.17316099
-0.47813115 -0.70268679 -0.00000282
-0.42758608 -0.27095029 -0.00000225
-0.14743815 -0.27327287 -0.00000056
-0.04760652 -0.52989239 -0.00000012
-0.01530270 -0.63726872 0.00000001
-0.39677271 -0.11299724 -0.11492003
-0.02501025 0.24691704 -0.00000723
-0.43054238 -0.15499434 -0.21614227
-0.36811298 -0.45543995 -0.00000201
-0.31939894 -0.10638376 -0.00000149
-0.03907812 -0.34516868 0.00000005
-0.11542771 0.32280222 -0.00000327
-0.46001118 -0.15809560 -0.39037827
-0.18664935 0.39439842 -0.11523481
-0.06133808 -0.13661137 0.00000004
-0.00049896 0.60362613 -0.00000218
-0.57446194 -0.58688766 0.20349379
-0.46347964 -0.22610173 -0.23767450
-0.15268093 -0.44809130 -0.00000070
-0.17299815 0.43411759 -0.13255267
-0.37247387 -0.77196974 -0.00000223
-0.40020469 -0.16279887 -0.00860793
-0.64292109 -0.72763968 -0.06268362
-0.22915597 0.02945225 -0.00000461
-0.30849227 -0.44721523 -0.00000164
-0.35230646 0.02545264 -0.19456136
-0.42559767 -0.70642245 -0.00000251
-0.37012652 -0.04928711 -0.11333701
-0.26411244 0.23184928 -0.17786954
-0.49943599 -0.39591944 -0.02509968
-0.56749696 -0.47439227 -0.24490944
-0.14353776 0.50139290 -0.12270162
-0.62215638 -0.66351765 -0.09851447
-0.40924320 -0.05740140 -0.33437958
-0.64236891 -0.71968824 -0.07963215
-0.41056949 -0.18371007 -0.01913536
-0.19548967 -0.68862343 -0.00000111
-0.62337625 -0.62392122 -0.20745647
-0.41552928 -0.31689239 -0.00000221
-0.26643297 0.05217093 -0.00000311
-0.39427081 -0.05555839 -0.24653912
-0.26972535 -0.48931837 -0.00000143
-0.67813796 -0.83717757 0.10532079
-0.07190102 0.30886659 -0.00000481
-0.03018528 -0.75377679 -0.00000015
-0.20846948 0.35337555 -0.14507903
-0.15909874 -0.43680364 -0.00000073
-0.02335314 -0.38716599 0.00000012
-0.39894325 -0.15098345 -0.03106577
-0.21665752 0.30886215 -0.08171076
-0.35504511 0.03978114 -0.24818337
-0.11522951 -0.67712396 -0.00000062
-0.61966670 -0.66731054 -0.07341029
-0.21653271 0.28771940 -0.02679817
-0.06174594 0.42060021 -0.00000330
-0.18931355 0.38756040 -0.11419458
-0.01918084 -0.19711167 0.00000026
-0.26536530 -0.09539678 -0.00000116
-0.28859240 0.16799580 -0.16569380
-0.05996619 -0.18233992 0.00000002
-0.43928936 -0.16650689 -0.24073584
-0.17912185 0.33014777 -0.00000123
-0.37022173 -0.09866905 -0.00000180
-0.46376789 -0.15735506 -0.41549873
-0.10580001 0.12965415 -0.00000670
-0.54918128 -0.50403178 -0.05578015
-0.36496776 -0.18999930 -0.00000182
-0.56511110 -0.53051066 -0.08645368
-0.18217145 -0.22219172 -0.00000074
-0.54924929 -0.40651876 -0.30590868
-0.18791898 -0.73369545 -0.00000109
-0.14832333 0.45991063 -0.04606107
-0.56851143 -0.53948933 -0.08448246
-0.31618509 -0.75496906 -0.00000188
-0.07576706 0.62845016 -0.02910035
-0.06184311 -0.36807668 -0.00000010
-0.11174883 0.16993956 -0.00000587
-0.25293779 0.11812851 -0.00000245
-0.47670519 -0.27170843 -0.20264874
-0.67641240 -0.83301181 0.10658105
-0.54456306 -0.42762792 -0.22288042
-0.40855861 -0.47428399 -0.00000226
-0.44580248 -0.11491596 -0.41311103
-0.15108185 -0.38670510 -0.00000065
-0.67739463 -0.80212784 -0.08505982
-0.56019032 -0.52912354 -0.05958502
-0.13265274 0.39674774 -0.00000155
-0.40069771 -0.54312205 -0.00000226
-0.24741164 0.25701693 -0.13907215
-0.33221421 0.11036521 -0.28778905
-0.60697991 -0.62184155 -0.11141408
-0.48842466 -0.22739783 -0.38856769
-0.26122984 0.24527465 -0.19442794
-0.24682063 -0.52706176 -0.00000132
-0.01453423 -0.24441735 0.00000026
-0.45602825 -0.28969428 -0.02876574
-0.43716136 -0.77219969 -0.00000262
-0.46276566 -0.51240581 -0.00000261
-0.31328419 0.06707891 -0.05991787
-0.63024741 -0.65917838 -0.15964872
-0.21861821 -0.14172705 -0.00000091
-0.37115741 -0.00374068 -0.23634243
-0.52761728 -0.58804780 -0.00000305
-0.44589588 -0.19456939 -0.20971689
-0.26289076 -0.31265256 -0.00000128
-0.13789138 0.48331764 -0.04150953
-0.58417219 -0.51009774 -0.25656581
-0.20882599 -0.55395240 -0.00000111
-0.62293762 -0.70391542 0.15995117
-0.15431120 0.47577211 -0.12369539
-0.23632383 0.13699958 -0.00000264
-0.21024190 0.33794013 -0.11651012
-0.01893204 -0.42154589 0.00000012
-0.45890585 -0.18553184 -0.31328788
-0.40882745 -0.20278899 -0.00000209
-0.50582010 -0.45356062 -0.00000284
-0.40229109 -0.15544523 -0.04033685
-0.26191950 -0.37016824 -0.00000131
-0.64627326 -0.70498067 -0.14143398
-0.03021739 0.23400566 -0.00000729
-0.14035986 0.45731902 -0.00000033
-0.39403221 -0.24663907 -0.00000203
-0.25970620 0.12449090 -0.00000214
-0.28400889 -0.53912556 -0.00000155
-0.49714023 -0.38943681 -0.02750762
-0.23872055 0.11356649 -0.00000295
-0.07098064 0.64470053 -0.04112344
-0.09049662 0.31839290 -0.00000410
-0.10892895 -0.08322915 -0.00000021
-0.42204186 -0.25944376 -0.00000221
-0.41098049 -0.24161315 -0.00000213
-0.16260272 -0.43613374 -0.00000075
-0.56637472 -0.59205866 -0.00000329
-0.13122310 -0.20025633 -0.00000042
-0.06211286 0.14989768 -0.00000769
-0.14705609 0.44850293 -0.00901482
-0.11375442 -0.49584505 -0.00000050
-0.38374692 -0.78082973 -0.00000230
-0.44116223 -0.58791035 -0.00000253
-0.49834824 -0.34346840 -0.15268850
-0.17682683 0.21029466 -0.00000325
-0.39103287 -0.56513643 -0.00000221
-0.32131478 -0.52621877 -0.00000177
-0.45116937 -0.19019128 -0.25352907
-0.29524139 0.19410989 -0.27366948
-0.04281568 0.17089763 -0.00000793
-0.17110389 0.39841649 -0.02942134
-0.32266539 -0.40282011 -0.00000170
-0.15966903 0.47126892 -0.14528634
-0.44795981 -0.26013663 -0.05457571
-0.22834079 0.28553683 -0.09420721
-0.35746810 0.03687332 -0.25571626
-0.29224896 -0.73346913 -0.00000172
-0.43583983 -0.14726518 -0.26868364
-0.34287733 -0.20550770 -0.00000170
-0.00769351 -0.01761906 0.00000044
-0.44633117 -0.14523174 -0.33874866
-0.19025341 0.39293277 -0.13376202
-0.02526233 0.57244402 -0.00000194
-0.31253621 -0.08538658 -0.00000144
-0.61296380 -0.63037318 -0.12656021
-0.41637886 -0.12405929 -0.20779914
-0.47301117 -0.24853855 -0.23914406
-0.13923027 -0.55446988 -0.00000069
-0.15904276 -0.03413786 -0.00000048
-0.61465442 -0.60066837 -0.21308163
-0.04294853 0.09763870 -0.00000912
-0.40368181 -0.06196193 -0.28832045
-0.31141418 -0.77352273 -0.00000186
-0.64352858 -0.75362515 0.16455355
-0.06670208 -0.22864802 -0.00000005
-0.41484582 -0.06457380 -0.35064861
-0.26934037 0.15297695 -0.00821748
-0.17737223 -0.01442940 -0.00000058
-0.19820277 -0.48551789 -0.00000100
-0.44163778 -0.19188935 -0.19025598
-0.17684612 -0.20265479 -0.00000069
-0.23860832 -0.15246955 -0.00000104
-0.08958291 -0.76098567 -0.00000052
-0.43243438 -0.14112014 -0.26336691
-0.06853963 -0.12186531 0.00000001
-0.19484966 0.36377180 -0.08750264
-0.42363998 -0.16458131 -0.14892150
-0.66756690 -0.75624096 -0.14181018
-0.02093764 0.26135272 -0.00000712
-0.49085966 -0.70742959 -0.00000290
-0.29848960 -0.53433716 -0.00000164
-0.25814658 0.20221579 -0.06510461
-0.39406103 -0.09384042 -0.14721186
-0.65332532 -0.77727592 0.07219757
-0.43717796 -0.09914077 -0.40019006
-0.16473101 0.45996571 -0.14763492
-0.22550111 -0.59565765 -0.00000123
-0.34153965 0.05357439 -0.20001300
-0.20185411 -0.74322224 -0.00000118
-0.08444109 -0.05283809 -0.00000004
-0.53312331 -0.41471294 -0.18523115
-0.48173076 -0.26856390 -0.24176930
-0.43886769 -0.15801926 -0.25986356
-0.58476627 -0.57756460 -0.08746974
-0.65026993 -0.70667922 -0.16179323
-0.66486371 -0.74182862 -0.16200557
-0.49569884 -0.32144302 -0.19271103
-0.21328165 -0.70571440 -0.00000123
-0.42539492 -0.53182971 -0.00000240
-0.36933917 -0.02347510 -0.17456740
-0.22279546 -0.58556139 -0.00000121
-0.20490111 0.37270620 -0.17252000
-0.27193800 0.15236154 -0.02270032
-0.44492355 -0.27078587 -0.00853564
-0.57311094 -0.53485554 -0.12478297
-0.41463774 -0.19001170 -0.02814872
-0.09654489 0.53404474 -0.00000041
-0.57974195 -0.79089355 -0.00000349
-0.10325497 0.25402671 -0.00000476
-0.34651470 -0.02510863 -0.02928237
-0.23640431 -0.20435004 -0.00000105
-0.09292826 0.26192304 -0.00000494
-0.31642511 -0.65648544 -0.00000182
-0.29115787 0.16666368 -0.17814238
-0.59533697 -0.63728333 0.21909520
-0.43541592 -0.15529965 -0.24548881
-0.42946509 -0.79264075 -0.00000259
-0.22734147 0.30691734 -0.14277931
-0.17868651 -0.18284902 -0.00000069
-0.31705293 0.13405824 -0.25473288
-0.48415941 -0.25284162 -0.29704401
-0.50820023 -0.31458271 -0.28756276
-0.08286819 -0.63803124 -0.00000040
-0.15848917 0.12547573 -0.00000518
-0.35465583 -0.01232768 -0.11233995
-0.06947489 0.01046960 -0.00000973
-0.50985342 -0.39018226 -0.10419225
-0.59432352 -0.55696362 -0.19930919
-0.43090284 -0.11970051 -0.30874881
-0.19758004 -0.11845876 -0.00000077
-0.36862156 -0.63591611 -0.00000212
-0.66858774 -0.81412184 0.10827358
-0.32758227 0.12522550 -0.29720750
-0.38236895 -0.08840482 -0.08885012
-0.20359954 0.35950372 -0.13066544
-0.36035982 0.05996198 -0.33271685
-0.36476552 -0.20840944 -0.00000183
-0.52357650 -0.38351634 -0.20609850
-0.22816545 0.27608174 -0.06891129
-0.26776922 0.21121100 -0.14762665
-0.21956491 -0.02973823 -0.00000084
-0.43082273 -0.46967450 -0.00000239
-0.16332637 -0.70638198 -0.00000093
-0.13073958 -0.11476898 -0.00000036
-0.12309198 -0.47948191 -0.00000054
-0.11370374 -0.11591989 -0.00000026
-0.67445260 -0.81231612 -0.04078066
-0.36567414 -0.05169380 -0.07964930
-0.21782932 0.28194001 -0.02001427
-0.46456900 -0.22561863 -0.24564604
-0.60084671 -0.65058458 0.14559560
-0.04332562 0.49944010 -0.00000258
-0.48081362 -0.25352237 -0.27461690
-0.36146793 -0.02430791 -0.12377436
-0.56079549 -0.45936465 -0.24196161
-0.58778578 -0.57177043 -0.12097405
-0.01142656 0.08547418 -0.00001027
-0.24379195 -0.26191881 -0.00000114
-0.47768208 -0.35309052 -0.00028957
-0.55059654 -0.61054993 -0.00000320
-0.64472693 -0.74290001 -0.03476873
-0.29217210 0.18558095 -0.23285455
-0.17178924 -0.48118746 -0.00000084
-0.08333575 -0.69841087 -0.00000044
-0.04570250 0.25921834 -0.00000641
-0.20295382 0.06754246 -0.00000478
-0.03803676 -0.38193661 0.00000003
-0.16615368 0.42304859 -0.06189527
-0.61483377 -0.60646057 -0.19935761
-0.04963889 0.54855257 -0.00000159
-0.44177729 -0.25718322 -0.02391798
-0.39712107 -0.04620896 -0.28810093
-0.50436890 -0.32078332 -0.24799930
-0.33039370 -0.24794589 -0.00000165
-0.11063831 0.17254259 -0.00000586
-0.35789418 -0.37102222 -0.00000189
-0.51935619 -0.78834367 -0.00000313
-0.46797794 -0.22468372 -0.26911435
-0.63479900 -0.65455514 -0.19962783
-0.39774492 -0.15324011 -0.01787881
-0.50443363 -0.42847309 -0.00000281
-0.53348678 -0.36764547 -0.30800688
-0.07124148 0.47481349 -0.00000213
-0.24359244 -0.50825673 -0.00000129
-0.29249838 -0.77610499 -0.00000175
-0.05916395 -0.38366112 -0.00000010
-0.08359898 0.00984662 -0.00000932
-0.54731876 -0.52135986 0.26131213
-0.37373370 -0.09446853 -0.01993903
-0.49954763 -0.48901698 -0.00000282
-0.00128401 -0.70186782 0.00000007
-0.04196348 0.63085222 -0.00000048
-0.31039393 0.11161950 -0.15610686
-0.12679353 0.52832085 -0.08814356
-0.22358237 -0.58232516 -0.00000121
-0.58803707 -0.61966020 0.20733248
-0.45891333 -0.41753072 -0.00000253
-0.05413746 -0.49572659 -0.00000014
-0.47562608 -0.30163985 -0.11933113
-0.33414862 0.06659718 -0.18766919
-0.35342735 0.02487699 -0.20001681
-0.42516464 -0.22060345 -0.01488900
-0.44458151 -0.50422317 -0.00000250
-0.46580327 -0.27440965 -0.12833545
-0.22951847 -0.52094495 -0.00000121
-0.29563856 0.11922331 -0.08435994
-0.09421371 0.44851846 -0.00000187
-0.36427936 -0.03312692 -0.11857167
-0.44564089 -0.77204001 -0.00000267
-0.52107650 -0.38865387 -0.17748749
-0.26918030 0.05212621 -0.00000303
-0.02170166 0.75311971 -0.01411157
-0.41853172 -0.68819553 -0.00000246
-0.31663844 0.09495605 -0.15204005
-0.01229705 -0.67614359 0.00000000
-0.65300292 -0.77649760 0.02795580
-0.17409788 0.07961599 -0.00000545
-0.63727278 -0.72264582 -0.04055284
-0.14602835 0.13833641 -0.00000535
-0.07144001 0.39596650 -0.00000341
-0.45993170 -0.19424760 -0.29731110
-0.40255523 -0.07211038 -0.25536838
-0.12421447 -0.06984351 -0.00000029
-0.22810110 0.28700063 -0.09647382
-0.61155003 -0.67642409 0.16813354
-0.01915449 0.58377552 -0.00000194
-0.23877797 -0.07074437 -0.00000099
-0.49628103 -0.32882550 -0.17740569
-0.57361090 -0.78818113 -0.00000345
-0.21742760 0.32390347 -0.12498820
-0.25748807 -0.72977161 -0.00000151
-0.30446753 -0.32216048 -0.00000154
-0.17489737 -0.31330460 -0.00000075
-0.42926633 -0.21822925 -0.04632556
-0.09814538 0.23844659 -0.00000516
-0.43196750 -0.61659515 -0.00000249
-0.58080286 -0.51840001 -0.21447451
-0.39486873 -0.05800423 -0.24397232
-0.59178632 -0.62871140 0.20165414
-0.54270154 -0.41732419 -0.23775762
-0.51170003 -0.41967684 -0.04008029
-0.08686149 -0.57563245 -0.00000038
-0.37494653 -0.67252642 -0.00000218
-0.60651970 -0.66428000 0.17835005
-0.61795604 -0.79573059 -0.00000373
-0.09866759 -0.45461622 -0.00000038
-0.35944158 -0.03031112 -0.09587469
-0.51428378 -0.45311797 -0.00000289
-0.52326506 -0.63484418 -0.00000305
-0.08684249 0.61976534 -0.07532969
-0.56682414 -0.54780024 -0.05276960
-0.20326556 0.11703503 -0.00000396
-0.42108330 -0.09015659 -0.32369825
-0.36996704 0.00178286 -0.24312793
-0.48261476 -0.66236472 -0.00000283
-0.26718831 -0.32009715 -0.00000131
-0.48241416 -0.26560530 -0.25357044
-0.61678517 -0.62076807 -0.17478265
-0.11845964 -0.10327056 -0.00000028
-0.19597206 -0.42317927 -0.00000095
-0.00700763 -0.19977963 0.00000033
-0.43647662 -0.21203344 -0.10676570
-0.24515343 -0.19515829 -0.00000110
-0.55458367 -0.51429600 -0.06289384
-0.40850568 -0.69885135 -0.00000240
-0.49530587 -0.62032861 -0.00000288
-0.22518468 0.27964678 -0.05961317
-0.06898759 0.49382415 -0.00000189
-0.45716974 -0.52216190 -0.00000259
-0.01656996 0.58967084 -0.00000192
-0.39899576 -0.17745610 -0.00000202
-0.35143805 -0.67609847 -0.00000204
-0.29381993 0.19753768 -0.27365956
-0.41959009 -0.18407919 -0.07395602
-0.31071231 -0.06598242 -0.00000142
-0.13170123 0.32150158 -0.00000280
-0.16248628 -0.08375681 -0.00000053
-0.17036401 -0.05536990 -0.00000056
-0.30503038 -0.16726336 -0.00000145
-0.46508929 -0.20353578 -0.30541086
-0.04419096 0.39687529 -0.00000422
-0.03095467 -0.60264647 -0.00000006
-0.04460647 0.20473066 -0.00000733
-0.24711010 -0.22031978 -0.00000113
-0.46110761 -0.29409125 -0.04890725
-0.31866896 0.12332689 -0.23724319
-0.47700468 -0.19317950 -0.40559280
-0.23738530 -0.77639174 -0.00000142
-0.42857364 -0.07988409 -0.39630893
-0.33906636 -0.68834239 -0.00000198
-0.11140099 -0.46897534 -0.00000047
-0.14614563 0.03068043 -0.00000709
-0.39000136 -0.01841199 -0.31526721
-0.37702867 -0.04047307 -0.17857677
-0.56623298 -0.61993915 -0.00000330
-0.53147417 -0.43292823 -0.12839150
-0.12928572 -0.20759273 -0.00000041
-0.48399776 -0.29859018 -0.17889468
-0.37316528 0.00868970 -0.28058624
-0.20379384 0.22662003 -0.00000217
-0.27744004 0.14205752 -0.03032814
-0.14174241 0.47182098 -0.03587678
-0.11786421 0.25024185 -0.00000438
-0.16984946 -0.68772054 -0.00000095
-0.20780078 -0.15153944 -0.00000085
-0.53872168 -0.49631166 -0.01088781
-0.05605917 0.06215958 -0.00000930
-0.32087791 0.07778452 -0.13427699
-0.60110003 -0.65119612 0.18356647
-0.23302351 -0.03971326 -0.00000093
-0.28417414 0.15389432 -0.10226967
-0.52029890 -0.35729915 -0.25297150
-0.02663098 0.38093272 -0.00000501
-0.33129469 0.04965434 -0.12663992
-0.10729769 0.18006930 -0.00000584
-0.48055524 -0.28522947 -0.19182594
-0.36999840 -0.08886151 -0.01120534
-0.41337746 -0.24136795 -0.00000215
-0.22040515 -0.23263028 -0.00000098
-0.36832801 0.01776407 -0.27391896
-0.57240522 -0.47321844 -0.27825990
-0.41874576 -0.19948360 -0.02928956
-0.21497510 0.31970444 -0.09907432
-0.13547052 -0.17454785 -0.00000043
-0.24820898 -0.08322167 -0.00000105
-0.61385667 -0.63060772 -0.13147989
-0.28495449 0.17354472 -0.15741333
-0.29950187 0.09658987 -0.05028473
-0.15010633 0.31990421 -0.00000227
-0.41733044 -0.08058299 -0.32501337
-0.22501296 0.26617163 -0.02404523
-0.60439581 -0.58345902 -0.19372949
-0.12195670 0.46403760 -0.00000078
-0.07376439 -0.71603417 -0.00000039
-0.34504122 0.04334379 -0.19546199
-0.27073959 0.14867744 -0.00585763
-0.59810990 -0.76579767 -0.00000359
-0.42442954 -0.45044026 -0.00000234
-0.06719454 -0.73060149 -0.00000036
-0.38597378 -0.52659124 -0.00000216
-0.61477339 -0.68420571 0.11918793
-0.57937586 -0.59875071 0.18655577
-0.22828054 -0.71059215 -0.00000132
-0.36250368 -0.37060946 -0.00000192
-0.45621699 -0.44789815 -0.00000253
-0.09439624 -0.19120835 -0.00000019
-0.35254085 -0.73640108 -0.00000209
-0.25841132 -0.52282530 -0.00000139
-0.43906957 -0.35286132 -0.00000237
-0.16602917 -0.43117273 -0.00000077
-0.42475888 -0.07862001 -0.37596288
-0.17646362 0.38999391 -0.04098729
-0.23807207 -0.52927285 -0.00000127
-0.10394832 -0.34442770 -0.00000034
-0.14856394 0.14102995 -0.00000522
-0.16203047 -0.04855440 -0.00000051
-0.09314004 0.32014605 -0.00000399
-0.02570274 0.40560874 -0.00000463
-0.64013386 -0.74542981 0.14457776
-0.41680503 -0.20059495 -0.01444613
-0.55959004 -0.63462949 -0.00000327
-0.09794793 0.58662683 -0.05912491
-0.27830675 -0.69734716 -0.00000162
-0.42977688 -0.08843643 -0.38184711
-0.37382647 -0.72197652 -0.00000221
-0.46355581 -0.15771271 -0.41327181
-0.48181996 -0.31488189 -0.12371262
-0.07992001 -0.46749392 -0.00000027
-0.49563804 -0.30177018 -0.24271215
-0.54299355 -0.51091814 0.27112296
-0.67364383 -0.82632798 0.11113028
-0.57827735 -0.59513652 -0.00235810
-0.52312565 -0.33492658 -0.32773837
-0.55296105 -0.47067216 -0.16457202
-0.18997233 -0.73316789 -0.00000110
-0.04901375 -0.30303833 0.00000001
-0.18065616 -0.79541832 -0.00000109
-0.62289512 -0.65022385 -0.13712525
-0.54743850 -0.47485986 -0.11970807
-0.20260356 0.18091363 -0.00000295
-0.26480833 -0.31508765 -0.00000130
-0.36006325 -0.02062522 -0.12452100
-0.48613435 -0.22600667 -0.37797073
-0.48953155 -0.31058371 -0.18239252
-0.60510504 -0.63311994 -0.07094251
-0.47636235 -0.79677612 -0.00000287
-0.64003688 -0.71759874 -0.07056574
-0.39322901 -0.29108313 -0.00000206
-0.08023252 0.62908834 -0.05834032
-0.15920350 -0.51071113 -0.00000078
-0.53963363 -0.52004993 -0.00000308
-0.06229665 0.55672520 -0.00000107
-0.38816562 -0.36967060 -0.00000207
-0.46731940 -0.22042662 -0.27594459
-0.33499673 0.06263876 -0.18277574
-0.03372367 0.51743585 -0.00000257
-0.16337273 -0.11530984 -0.00000056
-0.50145131 -0.27524945 -0.34656292
-0.51370978 -0.42492974 -0.03905318
-0.37265700 -0.04772425 -0.13298263
-0.35658592 -0.25741899 -0.00000181
-0.32221842 0.02498304 -0.00735316
-0.17379498 -0.77261454 -0.00000103
-0.44061956 -0.21600384 -0.12221056
-0.17029826 0.22685345 -0.00000317
-0.53384405 -0.44000560 -0.12491901
-0.03453440 -0.40629673 0.00000004
-0.05779400 -0.39726883 -0.00000010
-0.55131018 -0.41163576 -0.30554587
-0.67308581 -0.82498091 0.09718460
-0.03893943 -0.37065312 0.00000003
-0.66152543 -0.78704053 -0.02558640
-0.25446746 -0.17961359 -0.00000115
-0.16121706 -0.79884624 -0.00000097
-0.51188284 -0.30166814 -0.34340069
-0.37720677 -0.06245900 -0.12337775
-0.51237643 -0.57558239 -0.00000295
-0.26691216 0.21280420 -0.14640801
-0.02515226 -0.13264738 0.00000027
-0.62628239 -0.63308567 -0.20195460
-0.43664771 -0.22050790 -0.08612263
-0.36124322 0.01180769 -0.21486785
-0.46631262 -0.32073376 -0.01286040
-0.16238628 -0.10501718 -0.00000055
-0.15080678 0.01838337 -0.00000715
-0.31120792 -0.30899453 -0.00000157
-0.19537741 0.36663100 -0.09808697
-0.16241352 -0.37672552 -0.00000072
-0.23462512 -0.22694322 -0.00000106
-0.39912471 -0.17122692 -0.00000202
-0.21889228 -0.61180341 -0.00000120
-0.04544738 -0.37407619 -0.00000001
-0.52652270 -0.52550828 -0.00000301
-0.60850668 -0.58308709 -0.22009666
-0.58816385 -0.52346194 -0.24702018
-0.26788321 -0.42303452 -0.00000138
-0.55694950 -0.45397145 -0.23199522
-0.28899533 0.10779517 -0.01402660
-0.42170131 -0.67118973 -0.00000246
-0.01991232 0.72458345 0.00000038
-0.17315064 -0.49032599 -0.00000085
-0.25178263 0.21166600 -0.04996199
-0.38388580 -0.01764354 -0.27942842
-0.11997112 0.51705724 -0.01712394
-0.19680074 -0.79616147 -0.00000119
-0.12605686 0.13518445 -0.00000600
-0.12402544 -0.32312191 -0.00000045
-0.16252100 -0.31936607 -0.00000068
-0.53010720 -0.36095110 -0.30425632
-0.37230605 0.00863172 -0.27512583
-0.16438507 0.44159248 -0.09844747
-0.11869078 -0.28061017 -0.00000039
-0.55372238 -0.55730516 -0.00000319
-0.40099472 -0.56387883 -0.00000227
-0.66353196 -0.76305717 -0.09940941
-0.17151532 0.42550534 -0.10133206
-0.30166203 0.10767250 -0.09201872
-0.38603866 -0.65270245 -0.00000224
-0.59866238 -0.59982800 -0.11636561
-0.45954701 -0.24801213 -0.15725598
-0.00737551 0.47802413 -0.00000401
-0.10043217 0.58856428 -0.07944388
-0.03615418 -0.08391298 0.00000023
-0.32023707 0.07761731 -0.12988704
-0.04511936 -0.76809663 -0.00000025
-0.57477474 -0.58015352 -0.01907214
-0.34137911 -0.66518724 -0.00000198
-0.23155698 -0.39594480 -0.00000115
-0.46997076 -0.25872737 -0.19425727
-0.25174159 -0.40006718 -0.00000127
-0.21367452 -0.38537785 -0.00000103
-0.34770295 -0.18164656 -0.00000171
-0.10101687 -0.44390410 -0.00000039
-0.09194676 -0.49935818 -0.00000037
-0.25672266 -0.12585607 -0.00000113
-0.50858819 -0.39009413 -0.09659627
-0.37259790 -0.63628274 -0.00000215
-0.22508200 -0.79924870 -0.00000136
-0.32436785 -0.68914533 -0.00000189
-0.50128078 -0.26649517 -0.36792725
-0.14420123 0.15371914 -0.00000515
-0.34534952 0.05033557 -0.21527191
-0.14502022 0.50187749 -0.13310719
-0.07550059 -0.17466047 -0.00000006
-0.31204471 -0.52510184 -0.00000171
-0.19666810 0.22069247 -0.00000248
-0.44358179 -0.43703982 -0.00000245
-0.09664102 -0.26063052 -0.00000025
-0.01757634 -0.30450895 0.00000020
-0.50232637 -0.33275378 -0.20471875
-0.30692828 -0.29564539 -0.00000154
-0.19421083 0.38806385 -0.14575903
-0.41485441 -0.09073108 -0.28371981
-0.62471694 -0.68067253 -0.07041459
-0.07572776 -0.00169329 0.00000004
-0.50685614 -0.74751443 -0.00000303
-0.23038654 0.25728902 -0.03451890
-0.00281882 -0.30672967 0.00000033
-0.17633393 0.41111237 -0.09426443
-0.61203402 -0.62118614 -0.14433880
-0.50954282 -0.40517005 -0.06389224
-0.27385539 -0.15321310 -0.00000125
-0.18404868 0.23770609 -0.00000258
-0.05812880 0.25112435 -0.00000617
-0.32274184 0.10752716 -0.22196293
-0.41580328 -0.07793518 -0.32235277
-0.20371525 -0.20518233 -0.00000086
-0.12822813 -0.12259779 -0.00000035
-0.01680504 -0.67129737 -0.00000002
-0.00748748 -0.17383118 0.00000035
-0.51895553 -0.38064387 -0.18488729
-0.67189187 -0.75951207 -0.16017184
-0.40791222 -0.07876420 -0.27144685
-0.08003560 -0.28392005 -0.00000016
-0.15294442 0.37569705 -0.00000128
-0.17914261 -0.29373255 -0.00000076
-0.19573672 0.01877889 -0.00000579
-0.42514405 -0.15718925 -0.17714894
-0.10316770 0.25389469 -0.00000476
-0.51800799 -0.79631239 -0.00000312
-0.42369190 -0.45284760 -0.00000234
-0.38954806 -0.33632153 -0.00000206
-0.47705844 -0.32316011 -0.07307819
-0.56802249 -0.51580489 -0.14210959
-0.23398793 0.31342295 -0.20052713
-0.39853635 -0.11773793 -0.11368329
-0.41900197 -0.08618448 -0.32100290
-0.31218776 -0.78861344 -0.00000188
-0.11684012 -0.54994327 -0.00000055
-0.20403434 0.32152772 -0.03610697
-0.36905873 -0.25769612 -0.00000189
-0.39526054 -0.10994117 -0.11339755
-0.03967733 -0.28669828 0.00000008
-0.59167176 -0.53276795 -0.24487618
-0.50950670 -0.37705755 -0.13565753
-0.63713914 -0.72347969 -0.03759119
-0.19815445 -0.26806667 -0.00000086
-0.39015320 -0.30168143 -0.00000204
-0.40811738 -0.04720248 -0.35353658
-0.41467610 -0.05472391 -0.37482235
-0.48215169 -0.31949812 -0.11394229
-0.44125077 -0.77523887 -0.00000265
-0.44986171 -0.16000739 -0.32273814
-0.12871762 0.53355318 -0.11343663
-0.10126383 0.33904538 -0.00000343
-0.01768549 -0.27605778 0.00000022
-0.15712023 -0.30123806 -0.00000064
-0.56644434 -0.46782792 -0.25521204
-0.01398877 -0.64807928 0.00000001
-0.19251895 0.00325371 -0.00000614
-0.21481195 0.34240767 -0.15620266
-0.03218094 -0.10425879 0.00000024
-0.12113135 0.40917966 -0.00000170
-0.14324646 0.47654969 -0.05728385
-0.14881179 -0.10568774 -0.00000046
-0.26003385 -0.58527792 -0.00000144
-0.21688507 0.34059897 -0.16438714
-0.01427053 -0.73208368 -0.00000004
-0.04128162 -0.03069354 0.00000023
-0.41032290 -0.08861523 -0.26112399
-0.24271211 -0.01131113 -0.00000097
-0.64762521 -0.76351511 0.12589197
-0.09621906 -0.02593844 -0.00000010
-0.44095698 -0.63887119 -0.00000256
-0.00066367 -0.64015120 0.00000010
-0.18462969 0.40383852 -0.12692288
-0.25399297 -0.65655065 -0.00000144
-0.38856784 -0.09218485 -0.11749224
-0.48421997 -0.72312307 -0.00000287
-0.42491499 -0.72921824 -0.00000252
-0.18024465 -0.45589212 -0.00000087
-0.58036256 -0.51559210 -0.21894293
-0.44870347 -0.64549118 -0.00000261
-0.35313699 0.03298410 -0.21898188
-0.38490769 -0.79161435 -0.00000232
-0.36075503 -0.20546484 -0.00000181
-0.18863054 0.36380681 -0.04914549
-0.19683890 0.37449944 -0.12727097
-0.20136809 0.23756339 -0.00000206
-0.03479742 0.21224967 -0.00000750
-0.16517925 0.45505339 -0.13782713
-0.59177929 -0.55156124 -0.19741458
-0.36370167 -0.37235788 -0.00000193
-0.41443187 -0.23922037 -0.00000215
-0.14480841 0.07831192 -0.00000636
-0.38708708 -0.24127357 -0.00000199
-0.37782791 -0.37106892 -0.00000201
-0.53555006 -0.42415598 -0.17605209
-0.13345809 -0.31132284 -0.00000050
-0.44924530 -0.18014804 -0.26735258
-0.49954498 -0.34813941 -0.14812572
-0.12514716 0.16167882 -0.00000560
-0.05090036 0.44776943 -0.00000319
-0.66550696 -0.75260311 -0.13839062
-0.26608938 -0.12301852 -0.00000118
-0.00217156 -0.27199289 0.00000035
-0.01141057 -0.06370871 0.00000039
-0.37546927 -0.05344027 -0.13573106
-0.34595260 -0.50508147 -0.00000190
-0.23085959 0.24860519 -0.01520639
-0.07435433 -0.28579202 -0.00000013
-0.43797681 -0.23799711 -0.04955395
-0.12378970 -0.22808726 -0.00000039
-0.06291873 -0.16847663 0.00000001
-0.06472360 -0.49809420 -0.00000020
-0.11809096 0.22236185 -0.00000482
-0.14542483 0.14391825 -0.00000527
-0.17750125 0.41067699 -0.10036593
-0.27961221 -0.19965550 -0.00000131
-0.11913580 -0.60564417 -0.00000060
-0.39330393 -0.00976385 -0.35782954
-0.22446489 -0.66673023 -0.00000127
-0.41701296 -0.18776685 -0.04858096
-0.63366508 -0.70108354 -0.07346574
-0.37383917 -0.09749222 -0.01284821
-0.52439946 -0.43748689 -0.07298170
-0.28887275 -0.79371625 -0.00000174
-0.01486370 -0.44066563 0.00000013
-0.16914722 0.25172755 -0.00000281
-0.43993920 -0.24537356 -0.04279624
-0.09233487 0.45126680 -0.00000188
-0.40773481 -0.75802684 -0.00000243
-0.00621068 0.74918461 0.00000036
-0.16112763 -0.66028541 -0.00000089
-0.06496107 0.12616511 -0.00000799
-0.01646808 0.20676877 -0.00000814
-0.02479931 -0.30574033 0.00000016
-0.50159097 -0.33908066 -0.18397093
-0.08966952 -0.26440027 -0.00000021
-0.58204061 -0.78030074 -0.00000350
-0.28139883 -0.25109044 -0.00000136
-0.13856328 -0.64386612 -0.00000074
-0.11201927 -0.54509324 -0.00000052
-0.14217401 -0.33461356 -0.00000057
-0.03393763 0.16971762 -0.00000822
-0.40059009 -0.16066037 -0.01646651
-0.32012132 -0.18119457 -0.00000155
-0.34071583 0.00476643 -0.06993568
-0.46908870 -0.25028309 -0.21042784
-0.25758862 -0.32016265 -0.00000125
-0.45292205 -0.66066092 -0.00000265
-0.26180258 -0.17351305 -0.00000119
-0.54707175 -0.68158978 -0.00000323
-0.31216857 0.05137726 -0.01281328
-0.33979243 -0.50936741 -0.00000187
-0.31803551 0.06567508 -0.08569597
-0.40174326 -0.45019856 -0.00000221
-0.66602552 -0.77995902 -0.07154234
-0.09083771 -0.42353007 -0.00000031
-0.30117178 -0.59915066 -0.00000169
-0.40117675 -0.11685082 -0.13227797
-0.02712881 -0.66005093 -0.00000008
-0.30895165 -0.49141967 -0.00000167
-0.33618400 -0.00235205 -0.02369114
-0.57348400 -0.74888837 -0.00000343
-0.04880783 -0.64832145 -0.00000020
-0.05548741 -0.74855852 -0.00000030
-0.62522060 -0.70226902 -0.01822510
-0.08933550 -0.48488560 -0.00000034
-0.03756915 0.12826177 -0.00000878
-0.21529023 0.30517685 -0.06382108
-0.32670864 0.07666665 -0.16746011
-0.55046564 -0.72014165 -0.00000327
-0.10857530 -0.35974282 -0.00000038
-0.40667349 -0.06717905 -0.29345551
-0.54228657 -0.67609340 -0.00000320
-0.03025742 0.18075132 -0.00000815
-0.23001964 -0.64179146 -0.00000129
-0.52331668 -0.61355788 -0.00000304
-0.09012841 0.60939592 -0.06909000
-0.49617496 -0.27510944 -0.31430259
-0.30979472 -0.07595976 -0.00000142
-0.02283092 -0.01121309 0.00000036
-0.28814241 0.18588258 -0.20871522
-0.68805957 -0.81016153 -0.13042150
-0.14266936 -0.46899250 -0.00000065
-0.05300953 -0.40193418 -0.00000007
-0.30374771 -0.00813567 -0.00000134
-0.05620692 -0.48667040 -0.00000014
-0.35631153 0.05611948 -0.29785082
-0.64385879 -0.75442231 0.07826876
-0.16717950 0.43695840 -0.10385617
-0.49977317 -0.38125178 -0.06474431
-0.43640512 -0.76784796 -0.00000261
-0.41233173 -0.16762573 -0.07121749
-0.18397111 0.37068745 -0.03796011
-0.42882776 -0.47341695 -0.00000238
-0.59659249 -0.61283433 -0.07026369
-0.32856119 0.04633680 -0.10124590
-0.04319372 0.53331679 -0.00000203
-0.51148844 -0.30167189 -0.34095255
-0.17898624 -0.72603661 -0.00000103
-0.03541485 -0.27660733 0.00000011
-0.28949541 0.15174891 -0.12967223
-0.65448052 -0.78006476 0.05649973
-0.25023738 0.22548883 -0.07580583
-0.28785959 -0.66658533 -0.00000165
-0.41478166 -0.46122295 -0.00000229
-0.38587275 -0.02757977 -0.26626775
-0.53595811 -0.59334135 -0.00000311
-0.08605962 0.60514945 -0.03306246
-0.21619773 0.33211985 -0.13842517
-0.63149446 -0.65177411 -0.18631952
-0.42621058 -0.11218719 -0.29898065
-0.05187760 0.51514232 -0.00000206
-0.31615427 -0.16050418 -0.00000151
-0.07863538 0.29961386 -0.00000476
-0.56753337 -0.76166779 -0.00000340
-0.35664427 -0.04571874 -0.03912674
-0.01414665 -0.78274119 -0.00000007
-0.26990709 -0.08297798 -0.00000118
-0.12864695 -0.54209304 -0.00000062
-0.01209672 0.73686182 0.00000034
-0.05240206 -0.72100860 -0.00000027
-0.06998434 0.65336698 -0.05715674
-0.43143561 -0.61613131 -0.00000249
-0.14883129 -0.34610409 -0.00000061
-0.29655614 0.14757870 -0.16264313
-0.15774556 0.03743350 -0.00000663
-0.40564731 -0.64821905 -0.00000235
-0.08764846 0.06248564 -0.00000834
-0.00056081 -0.31647658 0.00000030
-0.24308932 -0.48195305 -0.00000127
-0.22484156 0.28315455 -0.06647452
-0.09604286 -0.37936351 -0.00000032
-0.40912455 -0.10833010 -0.20323114
-0.19118799 -0.27369958 -0.00000082
-0.41920379 -0.60883099 -0.00000241
-0.40541291 -0.10045555 -0.20045014
-0.55103105 -0.53032202 0.26709977
-0.13620964 0.48751077 -0.04185036
-0.09200647 0.60657072 -0.07346565
-0.32036039 -0.46256927 -0.00000172
-0.08217538 0.31195030 -0.00000445
-0.21408290 0.31642845 -0.08516959
-0.42403093 -0.29959863 -0.00000225
-0.56173837 -0.54809654 -0.02057036
-0.41036206 -0.42122108 -0.00000224
-0.08164616 0.47883505 -0.00000176
-0.47545266 -0.77393746 -0.00000285
-0.11599236 -0.15750384 -0.00000030
-0.61220109 -0.67799574 0.10445272
-0.21832983 0.28553987 -0.03232679
-0.38972461 -0.08768871 -0.13615684
-0.38729528 -0.21162017 -0.00000197
-0.54897910 -0.40711576 -0.30270940
-0.11946169 0.09702965 -0.00000682
-0.64255083 -0.68628889 -0.16628732
-0.39253542 -0.12621385 -0.05488073
-0.14246419 -0.34612250 -0.00000058
-0.01156398 -0.51381654 0.00000011
-0.66689235 -0.81002879 0.03264919
-0.67062658 -0.81904387 0.05131432
-0.16484836 -0.57673216 -0.00000086
-0.46564510 -0.16708854 -0.40217888
-0.42048860 -0.13047440 -0.21677834
-0.11400395 0.30400062 -0.00000362
-0.44072622 -0.12519898 -0.35539728
-0.20425828 0.30905366 -0.00554844
-0.25394833 -0.38788357 -0.00000128
-0.50198972 -0.32192010 -0.23038004
-0.37176189 -0.00552085 -0.23552094
-0.17990243 0.37932134 -0.03491662
-0.54835790 -0.52386856 0.24009965
-0.17650285 0.39257529 -0.04784014
-0.63982767 -0.74469066 0.15106630
-0.22812705 -0.44265381 -0.00000115
-0.50907272 -0.62525511 -0.00000296
-0.14106734 0.12566575 -0.00000570
-0.23933575 -0.63890016 -0.00000134
-0.59601295 -0.56325185 -0.19365072
-0.69280368 -0.82913953 -0.11115191
-0.44391936 -0.12027001 -0.38775930
-0.69465667 -0.82585561 -0.13101722
-0.09946206 0.10261020 -0.00000733
-0.29577002 0.13158189 -0.11681963
-0.46643463 -0.28771946 -0.09815559
-0.28244370 0.16369104 -0.11665878
-0.56332070 -0.49128124 -0.17584141
-0.10139606 0.15505929 -0.00000642
-0.39290309 -0.02681806 -0.31168026
-0.36976182 0.00416398 -0.24795666
-0.00074683 -0.42929897 0.00000024
-0.57724792 -0.70264173 -0.00000342
-0.19592656 0.22558096 -0.00000242
-0.11759468 0.41413596 -0.00000172
-0.03901816 -0.60036439 -0.00000011
-0.43243247 -0.24351877 -0.00113889
-0.23160078 -0.20845442 -0.00000103
-0.25854826 -0.66829282 -0.00000148
-0.40181065 -0.16756731 -0.00632524
-0.20986748 0.31881544 -0.06522215
