ply
format ascii 1.0
element vertex 184
property float x
property float y
property float z
end_header
0.20914301 0.08664130 0.24049443
0.26659909 0.25123575 0.13458346
0.49418485 0.17843632 0.06075469
0.44475320 0.09130394 0.12589194
0.54442000 0.14520639 0.05264367
0.45851064 0.17887411 0.07756148
0.46292883 0.17813537 0.07580649
0.05743368 0.41446358 0.15649351
0.05351274 0.42590716 0.15290543
0.14284372 0.07411319 0.27809241
0.20482957 0.49434340 0.04809022
0.13840273 0.15820795 0.24010003
0.47370020 0.10571079 0.10521336
0.29250747 0.40406284 0.04933162
0.27571249 0.07032404 0.21652593
0.20624411 0.22824931 0.17433450
0.39784738 0.34827459 0.02569685
0.10084807 0.10831899 0.28180778
0.04617115 0.42805421 0.15538304
0.13900325 0.37007684 0.13875875
0.18768862 0.49913123 0.05398231
0.25090745 0.51570988 0.01592113
0.05002667 0.47417846 0.13154426
0.42632708 0.07086703 0.14442852
0.21430266 0.26900917 0.15104967
0.18824290 0.20609315 0.19348826
0.50201470 0.03543645 0.12522703
0.18633404 0.26963684 0.16409035
0.11757581 0.60397303 0.03741755
0.61362505 0.04197711 0.06887228
0.12411019 0.32269770 0.16846059
0.11260736 0.10558386 0.27750358
0.19869030 0.59687370 0.00211438
0.03289966 0.49826464 0.12822489
0.31133392 0.41128054 0.03690928
0.07667280 0.65123206 0.03438590
0.45210871 0.10956262 0.11367468
0.10335746 0.17585216 0.24839967
0.39897716 0.29507774 0.05053140
0.30384168 0.40863934 0.04174265
0.30105111 0.39292461 0.05056916
0.30916831 0.36696407 0.05907994
0.08260228 0.26267073 0.21688943
0.20115283 0.45486042 0.06867620
0.19481774 0.17251956 0.20636584
0.46794367 0.15423971 0.08481211
0.48120779 0.07196476 0.11772836
0.08028721 0.12359677 0.28432757
0.23473482 0.37285769 0.09177156
0.27687588 0.22338752 0.14296451
0.18385635 0.10892077 0.24192868
0.05097483 0.39215100 0.17021656
0.12613495 0.22810873 0.21261084
0.06139743 0.27002087 0.22349761
0.22922421 0.21859691 0.16797769
0.04841119 0.68131626 0.03351651
0.26443294 0.42792052 0.05134294
0.04717471 0.49127921 0.12474802
0.05649590 0.23244043 0.24376017
0.53217906 0.23811182 0.01416895
0.20334812 0.43726599 0.07602117
0.01749753 0.65100390 0.06271931
0.35982823 0.09260265 0.16577934
0.11709325 0.36109564 0.15349281
0.48020044 0.28801334 0.01515967
0.21651423 0.13331191 0.21471819
0.33747983 0.24005520 0.10610813
0.29328391 0.24685302 0.12394599
0.19611914 0.44726712 0.07469893
0.36439487 0.13834052 0.14178549
0.27186856 0.39856204 0.06179953
0.26843393 0.14186290 0.18587574
0.29431608 0.31353557 0.09164795
0.39231756 0.27865073 0.06154307
0.39288723 0.29135627 0.05521116
0.16310614 0.53530681 0.04845272
0.11002332 0.52741867 0.07753402
0.22943991 0.15996760 0.19583915
0.08860167 0.36210060 0.16660297
0.24193987 0.54651493 0.00550527
0.49571818 0.04691789 0.12275397
0.13195139 0.25236008 0.19826947
0.05292601 0.49330348 0.12103934
0.49720398 0.19730987 0.05031249
0.28150684 0.40520921 0.05403182
0.03817213 0.47320589 0.13766235
0.32079586 0.16953681 0.14770123
0.07521487 0.30957291 0.19804208
0.07426325 0.23531348 0.23391540
0.10822388 0.20567606 0.23185349
0.31045297 0.48936841 0.00008373
0.46692264 0.07825006 0.12154407
0.57687402 0.15570001 0.03215884
0.24598713 0.26076648 0.13986878
0.38862687 0.11623435 0.14077152
0.13621023 0.12327925 0.25780568
0.13889179 0.27011299 0.18649155
0.38791400 0.37223145 0.01900804
0.09254490 0.24940488 0.21847454
0.11710436 0.07346857 0.29067665
0.40231156 0.15498406 0.11576177
0.36604834 0.41398293 0.00952306
0.61868006 0.07366795 0.05134554
0.06827862 0.20986176 0.24890955
0.08349168 0.21959156 0.23701262
0.37613809 0.17877078 0.11690018
0.59230101 0.16138329 0.02208983
0.16249809 0.39226553 0.11696921
0.10626051 0.48785189 0.09820087
0.32768854 0.15579979 0.15096579
0.54363906 0.22301678 0.01590276
0.14920339 0.36406556 0.13676083
0.07745359 0.53548455 0.08922148
0.46676859 0.13964196 0.09233531
0.10300178 0.23767157 0.21908338
0.22331826 0.54985303 0.01279508
0.09471048 0.62228221 0.03959071
0.24157558 0.51628816 0.02009635
0.40052071 0.18225928 0.10360643
0.13425386 0.24864170 0.19894482
0.05567614 0.39586273 0.16620383
0.13325137 0.38697872 0.13344052
0.18096305 0.14614475 0.22555400
0.09908571 0.16496599 0.25562951
0.57662135 0.03610434 0.08932316
0.42626128 0.27936697 0.04501123
0.18797708 0.21312603 0.19026057
0.38092801 0.20037299 0.10431187
0.12828936 0.42852578 0.11599058
0.24407437 0.48394293 0.03433227
0.37952906 0.08955117 0.15783806
0.10143966 0.59136903 0.05112580
0.19909719 0.17875154 0.20135222
0.25805068 0.18029916 0.17249529
0.24400969 0.11107280 0.21221118
0.23307955 0.50395358 0.03003198
0.34339726 0.06663150 0.18600386
0.23295872 0.14586481 0.20088740
0.51890445 0.26261950 0.00881109
0.35011309 0.12698860 0.15401204
0.32193524 0.39760470 0.03837574
0.64016414 0.12266385 0.01772855
0.23977961 0.13862965 0.20108502
0.02672693 0.56635350 0.09869281
0.08602513 0.23241846 0.22968623
0.08047899 0.21043731 0.24281587
0.19737482 0.15771654 0.21220678
0.27334383 0.48863605 0.01813307
0.22806235 0.47055599 0.04835476
0.24611264 0.07700102 0.22745931
0.06438693 0.22249556 0.24473982
0.26383817 0.41643006 0.05710725
0.31025359 0.12503618 0.17395504
0.56994879 0.19744132 0.01555254
0.34382221 0.24787277 0.09935423
0.32373348 0.12134231 0.16928746
0.49140215 0.21045861 0.04680822
0.16259541 0.22399475 0.19718271
0.16625854 0.26349565 0.17659482
0.49200043 0.12036865 0.08949326
0.16562411 0.37455854 0.12392389
0.23346029 0.20470767 0.17258196
0.05976306 0.51321304 0.10828207
0.27386051 0.21802613 0.14695996
0.40861779 0.16591480 0.10754021
0.45698437 0.09006979 0.12064666
0.06968631 0.25220230 0.22804300
0.07406200 0.60957283 0.05550135
0.36427498 0.08631949 0.16665526
0.05505254 0.64783710 0.04631733
0.67386097 0.08449136 0.01986331
0.50534284 0.28134879 0.00634625
0.17422301 0.19117866 0.20728900
0.37489155 0.14881352 0.13178353
0.27437630 0.45426834 0.03403305
0.34478554 0.11848376 0.16060971
0.35360095 0.17088372 0.13141169
0.33550632 0.31910455 0.06934510
0.50210893 0.16934171 0.06131300
0.33840689 0.23959289 0.10588646
0.03979427 0.69735616 0.02997595
0.14736100 0.18094860 0.22498067
0.26610669 0.15629803 0.18010065
0.15118280 0.26256436 0.18422963
