ply
format ascii 1.0
element vertex 382
property float x
property float y
property float z
end_header
-0.29125524 0.06327676 0.03589615
-0.43076012 0.32390293 0.00365226
-0.70413488 0.02854623 0.00542291
-0.03416732 0.20173147 0.04545499
-0.31492260 0.41187790 0.00589780
-0.09232440 0.37759537 0.02659786
-0.52924055 0.00530044 0.02139004
-0.05821694 0.42723915 0.02534587
-0.08043035 0.71342003 0.00049534
-0.25208557 0.27459756 0.02202397
-0.02696801 0.40637541 0.02954501
-0.29483941 0.30100244 0.01645086
-0.22218227 0.18418303 0.03171931
-0.15855753 0.52470446 0.00940666
-0.56265068 0.15371671 0.00673788
-0.35755873 0.26525569 0.01427717
-0.02748070 0.54048210 0.01869747
-0.02358367 0.06054994 0.05768411
-0.07676690 0.21197215 0.04119725
-0.05606306 0.33518776 0.03293687
-0.08039112 0.28282553 0.03519590
-0.33904314 0.40327859 0.00464699
-0.05791842 0.48463690 0.02074485
-0.73617214 0.03001407 0.00272290
-0.19226003 0.38765174 0.01773482
-0.34751615 0.11202823 0.02743395
-0.26239976 0.08947542 0.03611018
-0.02236825 0.64743680 0.01049108
-0.09461723 0.24395224 0.03718198
-0.17709441 0.17912030 0.03576032
-0.55179340 0.11019382 0.01112002
-0.49906304 0.26829007 0.00262948
-0.29672679 0.10153296 0.03237257
-0.14199340 0.29781356 0.02902443
-0.12718900 0.54479796 0.01031531
-0.04894133 0.09088421 0.05319655
-0.45055252 0.02789001 0.02591082
-0.47604001 0.18777032 0.01097330
-0.42425191 0.28786021 0.00708114
-0.02626554 0.56440395 0.01686778
-0.22339800 0.44471675 0.01062710
-0.55819494 0.09832542 0.01156053
-0.29291144 0.42683741 0.00646610
-0.15578254 0.19265620 0.03638685
-0.07800744 0.52947277 0.01551329
-0.40944377 0.19069144 0.01610459
-0.62028050 0.07355449 0.00855346
-0.41732082 0.37983900 0.00022778
-0.01220251 0.22494134 0.04535462
-0.30524054 0.25201237 0.01956044
-0.38776413 0.25245377 0.01287467
-0.24052437 0.17022006 0.03136648
-0.36020479 0.00152106 0.03531640
-0.48589721 0.24636886 0.00545692
-0.09842712 0.66904622 0.00262083
-0.00557720 0.71810609 0.00614956
-0.22680433 0.10145476 0.03801307
-0.06133559 0.26920843 0.03782860
-0.01220324 0.67177802 0.00934875
-0.04928881 0.71550739 0.00283669
-0.16001393 0.34138829 0.02406116
-0.17859860 0.28013232 0.02749963
-0.44508970 0.20474812 0.01209933
-0.19411719 0.48474714 0.00976094
-0.23229659 0.04694015 0.04196327
-0.22676331 0.39571708 0.01430443
-0.70515978 0.03276666 0.00500023
-0.07491280 0.65448922 0.00568878
-0.37378466 0.20407444 0.01789976
-0.37321603 0.15563378 0.02184906
-0.68568909 0.01838927 0.00772785
-0.32965964 0.00163699 0.03776853
-0.68685633 0.08454770 0.00230256
-0.05591048 0.01014546 0.05914087
-0.36483678 0.15643860 0.02245945
-0.09292549 0.26709846 0.03545319
-0.03259949 0.60771281 0.01286761
-0.53328079 0.10187591 0.01328214
-0.41301212 0.32206905 0.00523027
-0.62945962 0.15783738 0.00102201
-0.10532574 0.49794737 0.01585236
-0.01160937 0.55374223 0.01890785
-0.18854107 0.19158845 0.03383330
-0.14584398 0.02531420 0.05067199
-0.44007355 0.33221310 0.00223207
-0.27642661 0.12429137 0.03217449
-0.38180527 0.12232283 0.02384118
-0.13480321 0.50936592 0.01255693
-0.35425794 0.16369410 0.02272728
-0.00332493 0.37687680 0.03382709
-0.06696379 0.66889310 0.00516866
-0.08729249 0.63140327 0.00655149
-0.01158783 0.55677366 0.01866531
-0.68056524 0.11048229 0.00071965
-0.42062733 0.24087191 0.01115968
-0.09317629 0.44157836 0.02137350
-0.38233861 0.05098596 0.02954672
-0.31899893 0.38281795 0.00791104
-0.57451493 0.02574157 0.01609439
-0.19468723 0.16689779 0.03532762
-0.28542879 0.34066004 0.01401350
-0.16819283 0.13951051 0.03966931
-0.14231804 0.63901693 0.00150371
-0.78524286 0.00356296 0.00090002
-0.13604593 0.17151125 0.03968102
-0.17282057 0.41077709 0.01743785
-0.52680600 0.09193173 0.01460525
-0.12535042 0.42860976 0.01982600
-0.08004871 0.03978317 0.05480769
-0.14057048 0.45943707 0.01611557
-0.19569173 0.41456252 0.01528973
-0.22879317 0.03158751 0.04348267
-0.60495102 0.10121101 0.00756015
-0.44130892 0.02558412 0.02684153
-0.00432755 0.32987252 0.03753387
-0.14049368 0.08851314 0.04601057
-0.25436321 0.42935336 0.00936978
-0.24154291 0.34001762 0.01760183
-0.00682064 0.15302959 0.05158288
-0.12847842 0.07393230 0.04815364
-0.17351335 0.24287821 0.03091130
-0.04093644 0.36541387 0.03172013
-0.53895605 0.03200499 0.01845519
-0.23017520 0.15331507 0.03356258
-0.24431796 0.22454423 0.02668336
-0.09541294 0.30014592 0.03258982
-0.34654912 0.08076097 0.03003148
-0.33870861 0.33758193 0.00996797
-0.19587860 0.32159731 0.02276603
-0.66303134 0.07440146 0.00504011
-0.16109870 0.18737100 0.03638437
-0.23349921 0.17225344 0.03176870
-0.02600927 0.32778031 0.03595541
-0.54511184 0.18189159 0.00588085
-0.17691717 0.48726961 0.01094375
-0.63045782 0.14397056 0.00205899
-0.33159709 0.17096928 0.02396716
-0.28590298 0.19062269 0.02606571
-0.25602028 0.12844466 0.03348410
-0.02458584 0.53350735 0.01949275
-0.64548421 0.04552996 0.00878070
-0.43342435 0.32281038 0.00352560
-0.42505407 0.18085650 0.01563916
-0.26387888 0.11358761 0.03404805
-0.34495246 0.29098371 0.01321982
-0.14010927 0.63611591 0.00191548
-0.27224496 0.36504346 0.01311104
-0.04536143 0.66820365 0.00696497
-0.05127130 0.19194254 0.04486559
-0.20793489 0.45316356 0.01119253
-0.44674936 0.30546409 0.00384961
-0.46202809 0.33380604 0.00033450
-0.17637695 0.24310808 0.03066203
-0.19862805 0.07805727 0.04216879
-0.48072970 0.11500030 0.01645939
-0.41656980 0.36501634 0.00148276
-0.17071593 0.62815291 0.00009071
-0.00472330 0.58413434 0.01701373
-0.11483896 0.41709396 0.02160092
-0.12665470 0.53040659 0.01151807
-0.03842679 0.60215956 0.01284553
-0.02987810 0.70345533 0.00537202
-0.00521116 0.17747939 0.04974242
-0.02564974 0.14643900 0.05059675
-0.39745677 0.04220516 0.02903600
-0.24160124 0.25564662 0.02439598
-0.60564226 0.00263753 0.01544777
-0.04542650 0.45752782 0.02393585
-0.17848533 0.45963621 0.01304415
-0.10743280 0.40521798 0.02315465
-0.19188443 0.21091369 0.03200669
-0.10040412 0.18239868 0.04167564
-0.09329057 0.30612424 0.03227910
-0.59374779 0.13517806 0.00572581
-0.55235064 0.17921752 0.00551299
-0.12284362 0.50236034 0.01408522
-0.08275584 0.54000843 0.01428172
-0.44364056 0.13097902 0.01816062
-0.27489683 0.05003227 0.03828150
-0.23297101 0.43705815 0.01047280
-0.45842513 0.05167264 0.02335993
-0.42329645 0.06760623 0.02490681
-0.15783794 0.36606333 0.02224820
-0.33656654 0.37059644 0.00748019
-0.55853313 0.19273116 0.00392580
-0.50882924 0.02286863 0.02161920
-0.54790473 0.14099711 0.00895117
-0.12559417 0.51361859 0.01295635
-0.24949104 0.02502321 0.04234384
-0.53169394 0.17117560 0.00782566
-0.57169920 0.10825472 0.00967216
-0.30931389 0.39884585 0.00739994
-0.32265297 0.31117868 0.01338946
-0.73188716 0.01817007 0.00402263
-0.51967955 0.11420592 0.01338461
-0.37707829 0.20321251 0.01770379
-0.49702781 0.17414403 0.01038004
-0.06145091 0.43952742 0.02409511
-0.06163841 0.50673401 0.01866453
-0.04340366 0.11014209 0.05209097
-0.09960339 0.12029461 0.04674447
-0.44247144 0.19060025 0.01345039
-0.48959607 0.27780786 0.00262541
-0.22219868 0.50463581 0.00589530
-0.27670810 0.23385864 0.02332261
-0.40354747 0.01627469 0.03063473
-0.21040197 0.11379910 0.03834003
-0.08917759 0.67143029 0.00317410
-0.49830177 0.23153889 0.00565234
-0.03238297 0.50865453 0.02086710
-0.22773719 0.50007254 0.00581670
-0.23594895 0.01911367 0.04391122
-0.35863653 0.14344035 0.02400654
-0.09638181 0.59340930 0.00888069
-0.01684810 0.27253267 0.04114541
-0.47098085 0.09943984 0.01849891
-0.23635340 0.31048432 0.02039990
-0.12295157 0.06033640 0.04969453
-0.05173985 0.16807041 0.04675143
-0.05553710 0.48783866 0.02067874
-0.04000812 0.72451133 0.00285902
-0.23873761 0.33880034 0.01792599
-0.41901019 0.02751590 0.02848281
-0.07752863 0.39821273 0.02612872
-0.04120028 0.61895752 0.01126848
-0.39882088 0.03973530 0.02912510
-0.02470657 0.53967398 0.01898612
-0.44326410 0.10225212 0.02050585
-0.12287971 0.24886227 0.03450902
-0.22427921 0.01391522 0.04527042
-0.53980303 0.13388950 0.01017680
-0.50715470 0.08098717 0.01707080
-0.01576226 0.76191872 0.00179848
-0.07184599 0.14943361 0.04663308
-0.18254814 0.03930067 0.04658745
-0.17005204 0.58127284 0.00392193
-0.35267338 0.12047003 0.02633809
-0.50302881 0.28667277 0.00082857
-0.15953375 0.25161758 0.03133352
-0.06875707 0.24060781 0.03953521
-0.16045533 0.42963043 0.01691505
-0.03794977 0.59101200 0.01378223
-0.28801882 0.29552406 0.01744196
-0.61802799 0.12204673 0.00482734
-0.10511733 0.28155798 0.03330567
-0.41852662 0.31845438 0.00507716
-0.17369013 0.58490998 0.00333567
-0.07753407 0.03318986 0.05554160
-0.00689726 0.36496314 0.03449923
-0.23518790 0.52069122 0.00355477
-0.48759747 0.29021719 0.00178649
-0.21311340 0.00216056 0.04711731
-0.10910345 0.62081879 0.00564678
-0.32574704 0.02410554 0.03627327
-0.53855807 0.21604656 0.00365669
-0.06796091 0.10559461 0.05047865
-0.31212965 0.01947729 0.03774349
-0.00310443 0.76492578 0.00257612
-0.75250268 0.01160759 0.00289014
-0.20182593 0.58435529 0.00111303
-0.30087543 0.18614191 0.02522022
-0.04328774 0.03875735 0.05785244
-0.54055178 0.23170459 0.00223425
-0.12984315 0.29419968 0.03029467
-0.21452816 0.26308280 0.02597836
-0.37168464 0.39128000 0.00298345
-0.17966805 0.18354757 0.03519619
-0.09173875 0.67272347 0.00286349
-0.31771249 0.34684333 0.01091364
-0.28762963 0.28839421 0.01804787
-0.42548990 0.26304027 0.00898144
-0.41596076 0.19146430 0.01551714
-0.14270605 0.56395745 0.00752094
-0.33764535 0.39126951 0.00572736
-0.10921183 0.29722923 0.03171296
-0.33772773 0.44600558 0.00130994
-0.33697316 0.10069197 0.02919707
-0.10345436 0.04088995 0.05283254
-0.04191044 0.20222259 0.04479150
-0.16319709 0.58496445 0.00417686
-0.07886790 0.42542240 0.02382827
-0.22732042 0.40923497 0.01317023
-0.12893058 0.32239518 0.02809623
-0.01898350 0.21349412 0.04573064
-0.07146525 0.60045439 0.01032079
-0.35176620 0.19298916 0.02056740
-0.32473180 0.01404286 0.03716594
-0.36086997 0.01537499 0.03414641
-0.04263181 0.66511774 0.00743358
-0.25230229 0.47866964 0.00556182
-0.64655381 0.01632010 0.01104832
-0.30264589 0.23861425 0.02084919
-0.38004372 0.01461673 0.03266239
-0.21573040 0.57856715 0.00045896
-0.53364128 0.12091634 0.01171876
-0.46216777 0.24262410 0.00767093
-0.21065798 0.28099492 0.02484687
-0.33439398 0.40472218 0.00490532
-0.02361432 0.48092517 0.02380807
-0.23315214 0.21458597 0.02838554
-0.21779883 0.13151103 0.03631679
-0.27468514 0.24175783 0.02284909
-0.40639842 0.20619151 0.01510096
-0.40368405 0.01437488 0.03077682
-0.22344726 0.10292102 0.03816542
-0.70745951 0.05743765 0.00282685
-0.43290648 0.33991113 0.00218931
-0.65281224 0.11554954 0.00254780
-0.34181845 0.30417043 0.01240975
-0.36012813 0.07586196 0.02933199
-0.57757193 0.04627144 0.01419369
-0.11738828 0.16330913 0.04184533
-0.33987492 0.12102145 0.02732502
-0.02236208 0.29787487 0.03865905
-0.35782999 0.41166672 0.00245711
-0.12250879 0.13092963 0.04404185
-0.32472175 0.41087556 0.00518890
-0.19611344 0.32247254 0.02267658
-0.07121809 0.51302242 0.01738592
-0.68598968 0.10934872 0.00037386
-0.63705564 0.10499869 0.00466777
-0.06913854 0.72263968 0.00066235
-0.41201395 0.24293999 0.01168714
-0.55547684 0.18262455 0.00498652
-0.47050670 0.09239533 0.01910479
-0.06034857 0.58192396 0.01270971
-0.34178218 0.31315926 0.01168833
-0.63469213 0.05024885 0.00927012
-0.10930969 0.25508443 0.03510108
-0.70290047 0.01788936 0.00638115
-0.31755969 0.47938174 0.00024564
-0.35452664 0.25105503 0.01566584
-0.11259339 0.34266490 0.02777931
-0.42271900 0.30969942 0.00544481
-0.23313832 0.32612279 0.01939880
-0.28057486 0.18695700 0.02679047
-0.10777567 0.43714714 0.02055419
-0.26472965 0.43898901 0.00775793
-0.18015565 0.46815556 0.01222303
-0.15931685 0.17186129 0.03777771
-0.41256493 0.24943490 0.01111936
-0.19763353 0.33153307 0.02182399
-0.39646620 0.31721991 0.00695438
-0.07158680 0.69419307 0.00275737
-0.01846593 0.42606929 0.02864317
-0.32032180 0.36989948 0.00884544
-0.20286955 0.44696513 0.01210021
-0.43541801 0.02674228 0.02722292
-0.24362206 0.22121805 0.02700748
-0.04087481 0.08919598 0.05398256
-0.09280275 0.69796824 0.00074346
-0.56613284 0.23147941 0.00019094
-0.03623161 0.66824120 0.00769760
-0.23203550 0.01078545 0.04489763
-0.58698297 0.10363058 0.00881314
-0.09794380 0.52882558 0.01395902
-0.44420889 0.15099023 0.01650226
-0.01161978 0.72317111 0.00525453
-0.31607452 0.46128145 0.00182390
-0.41275758 0.00840680 0.03052655
-0.30020595 0.16721424 0.02679942
-0.56836617 0.12227213 0.00881119
-0.33355239 0.44021112 0.00211334
-0.12966032 0.30223969 0.02966154
-0.79261577 0.00584012 0.00012237
-0.00303706 0.51160878 0.02299367
-0.10308196 0.16177131 0.04312201
-0.29461029 0.32551178 0.01449429
-0.17700592 0.50846601 0.00922853
-0.03016607 0.45310727 0.02552170
-0.23165493 0.26644683 0.02432719
-0.27979261 0.29849431 0.01786552
-0.19641003 0.57312733 0.00245425
-0.60062200 0.03506554 0.01323919
-0.37057328 0.15059908 0.02246774
-0.09829999 0.37945336 0.02596664
-0.11195573 0.09495920 0.04779066
-0.13270839 0.59667683 0.00568999
-0.33784503 0.43095219 0.00251353
-0.49796683 0.19730633 0.00843788
-0.35660446 0.30382398 0.01124613
-0.40670863 0.14315188 0.02015587
