ply
format ascii 1.0
element vertex 1152
property float x
property float y
property float z
end_header
0.43192565 -0.11871926 0.30243471
0.58126646 -0.22199529 0.40700275
0.47695497 0.03643596 0.33396703
0.00616485 -0.58716846 0.00431665
0.11053063 0.20132674 0.07740247
0.65213561 -0.52165943 0.45662561
0.10090651 -0.79059851 0.07065502
0.55746108 -0.01817079 0.39033386
0.06649078 -0.64197898 0.04655704
0.08966275 0.22967282 0.06279067
0.39839333 -0.12751155 0.27895555
0.04134906 -0.06442484 0.02895273
0.50856572 -0.08152014 0.35609770
0.61232275 -0.52226377 0.42874891
0.47739410 -0.42941761 0.33427227
0.30193108 -0.20980956 0.21141300
0.04517800 0.11008593 0.03164558
0.37591681 -0.55514359 0.26321802
0.61245108 -0.48479339 0.42883867
0.04676866 0.62497634 0.03274973
0.13963719 -0.76661152 0.09777436
0.53054452 -0.58236319 0.37148836
0.25953889 -0.70422411 0.18172985
0.38119379 -0.26536858 0.26691285
0.13927364 0.10931758 0.09752946
0.49743858 -0.51407617 0.34830755
0.13498656 0.14631981 0.09452704
0.03632425 0.26007837 0.02544356
0.52268869 -0.46937004 0.36598745
0.61774302 -0.64381385 0.43254441
0.52119499 -0.54626399 0.36494178
0.18515189 -0.08823004 0.12964389
0.26326206 -0.11535167 0.18433684
0.13477147 0.18044439 0.09437581
0.08814189 0.16670829 0.06172697
0.43074706 -0.04513420 0.30160928
0.47293815 -0.60055918 0.33115265
0.19178464 -0.70522833 0.13428815
0.28626025 -0.07667073 0.20044024
0.12078861 -0.50020576 0.08457653
0.00380680 0.37230533 0.00267341
0.05620174 -0.57753199 0.03935262
0.19344965 -0.10353940 0.13545400
0.49453503 -0.73724228 0.34627485
0.15742925 -0.38347235 0.11023241
0.19854297 0.30853802 0.13902472
0.03443546 0.24748196 0.02412131
0.03947140 -0.49790642 0.02763799
0.24699408 -0.64349735 0.17294596
0.60112584 -0.54942304 0.42090896
0.53030461 0.11886560 0.37131929
0.04191672 -0.56429625 0.02935021
0.04054836 -0.45568416 0.02839208
0.14809684 -0.05683269 0.10369783
0.24029838 -0.13360126 0.16825759
0.44569352 -0.57367015 0.31207588
0.65246618 -0.30024409 0.45685661
0.09081223 0.53263456 0.06358987
0.02629142 -0.47859961 0.01840932
0.22653294 -0.29691562 0.15861902
0.62711400 0.00956991 0.43910494
0.63281602 -0.10045043 0.44309723
0.12452864 -0.32547501 0.08719531
0.62079334 -0.44510618 0.43467981
0.12523769 0.46994790 0.08769496
0.13797928 0.19496430 0.09662158
0.62771964 -0.66103554 0.43953001
0.45620722 0.11161118 0.31943843
0.48981467 -0.66919899 0.34296963
0.38963345 0.15258840 0.27282441
0.28137106 0.40665534 0.19701669
0.43176803 0.03098448 0.30232847
0.05873760 0.17344700 0.04113855
0.04434586 -0.59589076 0.03105110
0.11485023 -0.78778279 0.08041846
0.11998813 -0.79164302 0.08401603
0.00064347 -0.59322417 0.00045056
0.39593890 0.12641434 0.27723986
0.26356706 -0.62518191 0.18455042
0.03790106 0.33918616 0.02654614
0.32770863 -0.10793524 0.22946239
0.28118765 -0.31156355 0.19688840
0.13942128 0.54332483 0.09762440
0.62932974 -0.17051020 0.44065636
0.09486983 0.51328880 0.06643128
0.04616475 0.33980113 0.03233220
0.44458348 0.12557162 0.31129953
0.01586884 0.16739348 0.01112283
0.42137560 -0.67991269 0.29504839
0.54662508 -0.09189362 0.38274670
0.36779961 -0.53515214 0.25753433
0.25713807 -0.56279141 0.18004881
0.07283189 -0.65631044 0.05099710
0.33816880 -0.51914835 0.23678675
0.23106875 -0.74930555 0.16179499
0.24066737 -0.42378062 0.16851600
0.24239834 -0.72416425 0.16972800
0.01769161 0.11619221 0.01240004
0.60346025 -0.13498800 0.42254254
0.59547919 -0.31030300 0.41695467
0.04504895 -0.39057353 0.03154340
0.51426047 -0.70671505 0.36008665
0.31581947 0.01223436 0.22114478
0.43374732 -0.43927926 0.30371103
0.34619957 0.37570676 0.24240851
0.42344606 -0.51001644 0.29649815
0.60667527 -0.51657593 0.42479458
0.50726050 -0.16594416 0.35518399
0.37057081 -0.58570087 0.25947472
0.41813371 -0.45067173 0.29277840
0.53904814 -0.36938748 0.37744203
0.07701165 -0.73946524 0.05392378
0.32948306 0.28407460 0.23070598
0.43900034 0.22172441 0.30738834
0.03991051 0.47574514 0.02795058
0.38471776 -0.40356493 0.26938048
0.35099193 0.07213870 0.24577034
0.27387467 0.00025868 0.19177639
0.31571031 0.27860203 0.22106279
0.43732423 -0.35516909 0.30621535
0.62439430 -0.54335129 0.43720138
0.19201840 -0.50389802 0.13445184
0.63756096 -0.19368091 0.44641986
0.26711577 -0.10569603 0.18703523
0.05088351 -0.36751553 0.03562878
0.43347925 0.18360116 0.30352342
0.04468527 0.24595387 0.03129805
0.35614476 -0.69818211 0.24937357
0.65296948 -0.28309327 0.45720899
0.05766332 -0.50451362 0.04037602
0.17696533 -0.12955932 0.12391163
0.08907637 0.30471286 0.06237870
0.62799770 -0.05966080 0.43972340
0.22775225 0.33028480 0.15947583
0.57612133 -0.10839581 0.40339991
0.02689173 0.57028806 0.01883333
0.23803505 -0.33450902 0.16667283
0.32515511 0.32134050 0.22767489
0.51207596 0.05852653 0.35855737
0.64034188 -0.78784132 0.44836828
0.15524389 -0.78286988 0.10870221
0.61613488 -0.30287054 0.43141770
0.37769169 0.13724078 0.26446345
0.51656318 -0.12971149 0.36169758
0.07418883 0.43429548 0.05195233
0.23122396 0.24018452 0.16190851
0.56809115 -0.71547675 0.39777863
0.42458487 -0.64535016 0.29729554
0.52817786 -0.03858980 0.36982992
0.52567822 -0.41817522 0.36808059
0.33274242 -0.44831404 0.23298720
0.09101247 -0.24061580 0.06372719
0.27693421 -0.31103957 0.19391014
0.05110219 0.22699428 0.03579140
0.14845546 -0.07288311 0.10394894
0.21912244 -0.23178083 0.15343016
0.33502886 -0.25577071 0.23458816
0.01322905 -0.68370330 0.00926302
0.57438475 -0.17407392 0.40218413
0.01369734 0.12042988 0.00960326
0.39951080 -0.39866424 0.27973861
0.62008762 -0.14530014 0.43418500
0.20008381 -0.49118769 0.14009926
0.22716738 -0.64233297 0.15906326
0.34020624 -0.68057185 0.23821338
0.11193193 -0.02550297 0.07837506
0.44491652 0.13987049 0.31153241
0.36111313 -0.38914350 0.25285244
0.35502696 -0.79692799 0.24859090
0.29756629 0.31170860 0.20835814
0.43217477 -0.33835730 0.30260968
0.44073990 -0.05150027 0.30860627
0.14824343 0.52926761 0.10380172
0.25318319 -0.70876038 0.17727961
0.47184071 -0.67756456 0.33038422
0.52710789 -0.39246875 0.36908159
0.14810637 -0.64935595 0.10370451
0.50124770 0.07786591 0.35097530
0.51726502 -0.78460181 0.36219043
0.48272842 -0.51709336 0.33800754
0.04725465 -0.41931808 0.03308784
0.65423948 -0.53986353 0.45809877
0.42773303 -0.41928568 0.29949978
0.13777828 0.36632258 0.09647765
0.25199619 -0.54426867 0.17644846
0.37067986 0.01438918 0.25955650
0.35922205 -0.70632535 0.25152829
0.57697469 0.01163819 0.40399867
0.23785859 -0.01170154 0.16654927
0.24555844 0.48770908 0.17193995
0.22438629 -0.56556231 0.15711592
0.17634596 -0.57286263 0.12347795
0.54671282 -0.64388591 0.38280946
0.42454436 -0.32591426 0.29726687
0.13087557 -0.32249108 0.09163945
0.41826329 -0.14348359 0.29286844
0.44488838 -0.37139201 0.31151178
0.53638518 -0.20390975 0.37557706
0.14291577 -0.16478337 0.10007003
0.03710790 0.12409950 0.02599479
0.39127001 -0.11028133 0.27396780
0.23902410 -0.30490863 0.16736537
0.14279532 -0.12573089 0.09998569
0.18714990 -0.06981723 0.13104290
0.13188161 0.17731847 0.09235244
0.07921410 -0.61089092 0.05546594
0.32672855 0.31210703 0.22877675
0.05909027 0.61056715 0.04137735
0.50521499 0.11484073 0.35375229
0.24723247 -0.72553331 0.17311287
0.22386192 0.44613242 0.15674952
0.29418322 -0.75165170 0.20598793
0.26174358 -0.22205605 0.18327360
0.40637836 -0.35510874 0.28454718
0.32997364 0.13687015 0.23105253
0.19462651 -0.51239741 0.13627803
0.10653013 -0.29917982 0.07459270
0.29392105 -0.40386671 0.20580436
0.38810757 0.07408886 0.27175766
0.28385162 -0.01293324 0.19875365
0.05622550 -0.74766469 0.03936926
0.36645687 -0.74030244 0.25659415
0.06171174 0.11806729 0.04322202
0.19353655 -0.64189136 0.13551486
0.57760602 -0.70311749 0.40444085
0.60295004 -0.38427603 0.42218593
0.51632828 0.07929698 0.36153430
0.40177840 -0.15664832 0.28132582
0.34030947 0.03288550 0.23829158
0.38888228 0.18888006 0.27229771
0.06738453 -0.14762029 0.04718284
0.15227026 -0.61389041 0.10662007
0.53466040 0.10652419 0.37436938
0.08859446 -0.13946727 0.06203409
0.29770982 0.04995584 0.20846410
0.63656014 -0.39197770 0.44571951
0.56986588 -0.30621526 0.39902034
0.35227701 -0.23823646 0.24666537
0.10017633 -0.16976444 0.07014375
0.18500592 -0.34519047 0.12954168
0.38969591 -0.24635136 0.27286592
0.03392583 -0.04739117 0.02375497
0.57786411 -0.50590712 0.40462112
0.29673910 -0.06430851 0.20777754
0.34129825 -0.40747771 0.23897800
0.37815565 0.18769276 0.26478723
0.33139211 -0.75650871 0.23204169
0.11849171 -0.36988088 0.08296823
0.12949832 0.22880971 0.09068275
0.65241033 -0.35257572 0.45681763
0.36487564 -0.07302163 0.25548649
0.60336554 -0.75700068 0.42247763
0.04497319 -0.60172254 0.03149036
0.16176666 0.51753533 0.11327058
0.20793626 -0.70042741 0.14559755
0.32725108 -0.45815587 0.22914214
0.35102922 -0.79853636 0.24579167
0.00766203 0.24750847 0.00537509
0.42414653 -0.28236198 0.29698819
0.04670272 0.60476208 0.03270394
0.17880636 -0.57941979 0.12520073
0.25073579 0.49064541 0.17556494
0.54763579 -0.73850060 0.38345596
0.36585322 -0.31839833 0.25617146
0.61161172 -0.44036797 0.42825088
0.10450462 0.08904695 0.07318527
0.20172925 -0.33239865 0.14125140
0.07319618 -0.59897995 0.05125217
0.28073415 -0.64087105 0.19657084
0.46653435 -0.43576315 0.32666835
0.18029663 0.05614092 0.12625392
0.50988841 0.01571187 0.35702658
0.14566873 -0.31028467 0.10199766
0.00036053 -0.27004650 0.00025245
0.40923247 -0.43908477 0.28654575
0.52914947 -0.78544915 0.37051195
0.24071756 -0.23707682 0.16855112
0.25402483 0.02250888 0.17787753
0.18219277 -0.00038804 0.12757190
0.12563045 -0.79967153 0.08796680
0.47008947 -0.20636947 0.32915708
0.06193781 0.02692863 0.04338200
0.62693924 -0.18670338 0.43898258
0.48698026 0.08079777 0.34098554
0.09268670 0.17697805 0.06490896
0.13162290 -0.67359078 0.09216272
0.01178560 -0.68297148 0.00825231
0.36876556 0.13322330 0.25821367
0.60442394 0.05078863 0.42321709
0.35808352 -0.44700229 0.25073111
0.04008636 0.40859649 0.02807495
0.05535793 0.23848403 0.03877096
0.25686824 -0.07126170 0.17985988
0.48822552 -0.72752130 0.34185690
0.01231282 0.06979677 0.00863479
0.01220126 -0.23921441 0.00854336
0.40081283 0.03027049 0.28065449
0.24713539 -0.22939458 0.17304491
0.58564949 -0.48524782 0.41007239
0.19824719 0.07712751 0.13882215
0.41469195 0.24371405 0.29036781
0.16419040 0.18478510 0.11497427
0.21003667 -0.45561430 0.14706828
0.15851346 -0.02444888 0.11099158
0.22149941 -0.28321087 0.15509452
0.05311431 -0.10579967 0.03719079
0.13288301 0.31009886 0.09305113
0.57524902 -0.15613692 0.40278921
0.57025623 -0.01219375 0.39929295
0.34083921 -0.09792911 0.23865633
0.49437571 -0.09635653 0.34616193
0.23452850 0.11866996 0.16422479
0.15069088 0.22352161 0.10552146
0.52619487 0.12950787 0.36844158
0.14213081 -0.61950374 0.09952039
0.33362770 0.32676429 0.23360705
0.12405882 -0.00335477 0.08686634
0.37784088 -0.63310850 0.26456526
0.03009703 0.67686337 0.02107563
0.51323527 0.13312201 0.35936752
0.57500005 0.08585317 0.40261453
0.39312518 -0.22631928 0.27526706
0.59594363 -0.01710557 0.41727918
0.47406423 0.09618200 0.33194175
0.33726281 0.30021387 0.23615281
0.08613662 -0.23226893 0.06031311
0.57255000 -0.12775818 0.40089932
0.21361317 -0.43619326 0.14957254
0.46826112 -0.50483525 0.32787761
0.19175690 -0.59342420 0.13426873
0.12202431 0.13549545 0.08545134
0.39277035 0.08700587 0.27502215
0.16776219 -0.15038465 0.11746756
0.40897274 -0.73873562 0.28636387
0.23198009 -0.20304143 0.16243312
0.11182777 0.49852544 0.07830510
0.61728603 -0.06608698 0.43222314
0.26232591 0.31417224 0.18368372
0.16659001 0.38081464 0.11665060
0.54572934 -0.62244707 0.38212082
0.17593165 -0.42757118 0.12318785
0.26744032 -0.29107890 0.18726248
0.20125999 -0.41961706 0.14092281
0.44762006 -0.67601013 0.31342483
0.61798203 -0.24174684 0.43271089
0.38664454 0.07236216 0.27073333
0.25421953 0.07125542 0.17801291
0.12924980 0.16571347 0.09050991
0.20399176 0.18746965 0.14284232
0.16697541 -0.02676382 0.11691666
0.46237689 -0.14747144 0.32375661
0.19697517 -0.45139509 0.13792259
0.12144168 -0.67287773 0.08503381
0.43132639 -0.30645704 0.30201557
0.16437328 -0.34354043 0.11509464
0.55196881 -0.16572832 0.38648856
0.57171869 -0.35176757 0.40031776
0.06956278 -0.46896365 0.04870806
0.11974215 0.30984649 0.08385017
0.19469155 0.12125248 0.13633174
0.14035384 -0.64509678 0.09827617
0.13767868 0.05731204 0.09641367
0.48003012 -0.52863336 0.33611825
0.04441421 -0.49073049 0.03109896
0.21035238 -0.04048743 0.14728934
0.10934868 0.06207644 0.07657748
0.59572870 -0.57364708 0.41712999
0.29340872 0.12407280 0.20545103
0.26005104 0.16583325 0.18209399
0.14053461 0.57244092 0.09840332
0.47364798 -0.06949373 0.33164841
0.01778584 -0.08343470 0.01245369
0.58460253 -0.44870439 0.40933922
0.13932082 -0.17855370 0.09755284
0.13215275 0.45327547 0.09253705
0.54859656 -0.24342453 0.38412750
0.50246382 -0.75016117 0.35182661
0.34253466 -0.52462304 0.23984374
0.51733011 -0.26053184 0.36223489
0.37779546 0.21924900 0.26453438
0.22989121 -0.39930698 0.16097048
0.37042600 0.23347905 0.25937420
0.63670045 -0.42827880 0.44581783
0.02931459 -0.10239481 0.02052616
0.38687527 -0.22515540 0.27089089
0.43490764 -0.40093821 0.30452338
0.06752220 -0.46506482 0.04727924
0.26556140 0.07220419 0.18595417
0.05101457 -0.02420488 0.03572055
0.40529752 -0.73685551 0.28379047
0.09162977 -0.29504916 0.06415943
0.59699118 -0.50089675 0.41801378
0.31955063 -0.66355199 0.22375026
0.21623605 -0.18350513 0.15140910
0.61252826 -0.51110727 0.42889279
0.21363951 0.09718959 0.14959916
0.60908943 -0.66308731 0.42648524
0.02533557 0.30208987 0.01774873
0.37190652 0.23950733 0.26041070
0.61734229 -0.14652483 0.43226275
0.50031668 -0.52925485 0.35032284
0.17508449 -0.53581423 0.12259465
0.08536870 0.52432275 0.05977858
0.22631493 0.51280475 0.15846565
0.58148670 -0.30403599 0.40715718
0.20737237 -0.24901664 0.14520273
0.13859294 0.41766086 0.09704704
0.01261718 0.29507729 0.00884370
0.38157934 -0.54171526 0.26718292
0.02939019 -0.58426470 0.02057909
0.07056320 0.10331367 0.04941991
0.39490426 0.16768698 0.27651459
0.17605147 -0.79239380 0.12327174
0.25293785 -0.07617800 0.17710781
0.52084786 -0.46115062 0.36469850
0.13723506 0.20473623 0.09610031
0.22778621 -0.76473206 0.15949656
0.46306515 -0.29679447 0.32423890
0.35050198 -0.09114803 0.24542215
0.24487253 -0.60248619 0.17146043
0.03133415 -0.54839349 0.02194026
0.16584164 -0.25882235 0.11612279
0.60333163 -0.36770624 0.42245308
0.65402710 -0.50609064 0.45795000
0.46450764 -0.56345618 0.32524958
0.62648827 -0.03702892 0.43866643
0.01767749 0.32788271 0.01238622
0.27662620 -0.56969517 0.19369446
0.17437929 -0.73086119 0.12210088
0.64732546 -0.63967025 0.45325783
0.48800474 -0.58072054 0.34170219
0.42931277 -0.16043070 0.30060530
0.29990625 -0.26273891 0.20999521
0.61663240 -0.54817182 0.43176654
0.38902512 -0.10889859 0.27239594
0.56169462 -0.02687081 0.39329818
0.10745291 -0.56328660 0.07523883
0.21878223 0.47320774 0.15319228
0.34121361 -0.57007074 0.23891874
0.02278274 -0.21547498 0.01595254
0.46946234 -0.20788755 0.32871798
0.05532453 -0.76483434 0.03873839
0.17799848 -0.07565769 0.12463505
0.61849374 -0.24397752 0.43306920
0.50260937 -0.57241213 0.35192826
0.27859804 -0.78965980 0.19507514
0.10813352 0.20640112 0.07572397
0.14666925 0.35006857 0.10270323
0.10767680 0.33236793 0.07540183
0.03625502 -0.50244218 0.02538587
0.17810906 -0.06116195 0.12471247
0.21043341 0.28916284 0.14735049
0.41028333 -0.17664973 0.28728101
0.10148162 0.49908891 0.07106099
0.09295148 -0.58759302 0.06508489
0.17796412 0.12853894 0.12461939
0.45424932 -0.31685680 0.31806612
0.21449827 -0.45263413 0.15019231
0.29661512 -0.48138633 0.20769076
0.14426760 0.61352074 0.10101620
0.29380399 0.14943063 0.20572726
0.08382456 0.25175196 0.05870248
0.42908868 -0.53435653 0.30044910
0.56471521 0.07490406 0.39541361
0.37836745 0.22402146 0.26493478
0.52206397 -0.63634944 0.36555043
0.34631541 -0.71529341 0.24249104
0.31463486 -0.37474427 0.22030821
0.59553510 -0.13502133 0.41699341
0.06246689 0.25659832 0.04374818
0.50779301 0.15999836 0.35555640
0.05623414 -0.19110242 0.03937530
0.01311927 -0.50635129 0.00918615
0.33439660 0.18826641 0.23414829
0.48198590 -0.09579582 0.33748665
0.58607620 -0.40224054 0.41037095
0.02196174 0.29543719 0.01538657
0.16955186 0.24268650 0.11872717
0.33612853 -0.05506106 0.23535784
0.04692987 0.53885424 0.03286421
0.22987899 -0.57904947 0.16096193
0.04863381 0.49722973 0.03405805
0.40293884 0.26625836 0.28213811
0.02515287 -0.69146693 0.01761211
0.57864529 -0.57394910 0.40516827
0.14453581 -0.08033646 0.10120439
0.16127482 0.11214809 0.11293418
0.05260431 0.64902449 0.03683528
0.19645403 -0.42249310 0.13755769
0.14260370 -0.45727780 0.09985151
0.33488718 -0.44094476 0.23448896
0.10865518 -0.09562290 0.07608067
0.08904936 -0.31571284 0.06235262
0.23877905 0.45601925 0.16719387
0.26418799 -0.14417925 0.18498518
0.41877258 -0.67268199 0.29322574
0.30282745 -0.59087640 0.21204063
0.19494453 -0.19262217 0.13650072
0.41928396 -0.44665283 0.29358384
0.00420655 -0.70816934 0.00294544
0.44470429 -0.72827399 0.31138322
0.13531938 -0.76255590 0.09475101
0.31823507 -0.51435947 0.22282910
0.12827176 0.23182458 0.08982388
0.08618911 -0.28225860 0.06034986
0.18527585 -0.51226264 0.12973069
0.51897228 -0.25676283 0.36338475
0.05026377 0.48450768 0.03519955
0.19204594 0.14453121 0.13447890
0.59329987 -0.63660920 0.41542944
0.42660323 -0.77660620 0.29870880
0.51296669 -0.70649028 0.35918072
0.33285967 0.17859256 0.23307240
0.26254633 0.25021848 0.18383937
0.14482288 -0.61854863 0.10140539
0.43353882 -0.68451911 0.30356511
0.02827010 0.41370922 0.01980135
0.06845245 -0.54619312 0.04793060
0.60899198 -0.52421170 0.42641672
0.29844242 -0.78782970 0.20897023
0.54781336 -0.17033069 0.38357893
0.21391177 -0.21477748 0.14978163
0.32589328 0.30615216 0.22819205
0.38035703 -0.71796757 0.26632708
0.30803996 -0.35501444 0.21569046
0.41700146 -0.50557357 0.29198560
0.04508261 -0.42721230 0.03156697
0.34576666 0.21873859 0.24210869
0.46607241 -0.74801648 0.32634521
0.14121635 0.28046480 0.09888652
0.08303790 -0.40959144 0.05814337
0.23016821 -0.61182344 0.16116443
0.24415725 -0.56349123 0.17095961
0.24078612 -0.02269806 0.16859913
0.08157094 0.35594371 0.05712260
0.49957591 -0.24709271 0.34980345
0.17873947 -0.10278937 0.12515388
0.02454969 -0.03575235 0.01718976
0.26017240 -0.20824414 0.18217345
0.32817757 0.15221524 0.22979467
0.03702910 0.49118507 0.02593278
0.07698832 -0.59846115 0.05390744
0.57519847 -0.38075852 0.40275437
0.34412324 -0.43405598 0.24095608
0.28465322 -0.24879912 0.19931500
0.43937263 -0.03416076 0.30764887
0.15163074 -0.16281980 0.10617228
0.23537619 -0.03291838 0.16481109
0.59851056 -0.68186533 0.41907805
0.40199235 -0.26914915 0.28147593
0.53210908 -0.06150833 0.37258261
0.07887139 0.19337292 0.05523545
0.14985502 -0.70687526 0.10492891
0.14365713 0.43968144 0.10059240
0.56839144 -0.01067155 0.39798725
0.39634037 -0.42866102 0.27751866
0.64528823 -0.30821642 0.45183066
0.08290779 -0.27105075 0.05805227
0.20871712 -0.75491047 0.14614433
0.05721886 -0.40123501 0.04006481
0.09662606 -0.59219080 0.06765785
0.18138561 -0.18048538 0.12700672
0.17534862 -0.49726942 0.12277961
0.65044540 -0.55167723 0.45544219
0.35418066 -0.32496727 0.24799830
0.33699656 0.14747217 0.23596957
0.05116956 0.02261597 0.03584237
0.02134705 0.64237380 0.01494971
0.18543620 0.34145111 0.12984703
0.51892102 0.03854277 0.36335048
0.07117293 -0.09608209 0.04983549
0.53697699 -0.01685755 0.37599099
0.05349674 -0.75274515 0.03745857
0.44931254 -0.41320300 0.31460965
0.11132493 -0.31812140 0.07795004
0.08080705 -0.49688852 0.05658133
0.20269589 0.50452471 0.14192840
0.07048038 -0.72260702 0.04935056
0.16150559 -0.62462157 0.11308667
0.61526895 -0.19597860 0.43081111
0.37149355 -0.04862515 0.26012024
0.41767570 -0.30745584 0.29245743
0.32420290 0.19354849 0.22701085
0.26258633 0.31843254 0.18386596
0.00106027 0.23868908 0.00075284
0.50841808 0.12616031 0.35599479
0.08356400 0.09172558 0.05852302
0.54526079 0.12328431 0.38179111
0.52556241 -0.63027501 0.36800000
0.43811712 -0.47052303 0.30677083
0.05716030 0.71844035 0.04002381
0.58917433 -0.75423217 0.41254103
0.16700302 0.23360777 0.11694270
0.54191452 -0.24055079 0.37944877
0.04342536 -0.66746122 0.03040656
0.33637705 0.05968758 0.23553763
0.51132518 -0.64139903 0.35803121
0.11709555 -0.08319468 0.08199064
0.22966620 0.15806969 0.16081952
0.02751947 0.45947012 0.01927492
0.48562130 -0.29688680 0.34003261
0.17842282 0.38987908 0.12493544
0.07327758 -0.03857462 0.05130917
0.25313938 -0.67628276 0.17724892
0.16289447 -0.10984956 0.11405917
0.15186729 0.59391445 0.10633770
0.65161657 -0.16305055 0.45626146
0.20278217 -0.00700102 0.14198866
0.16578326 -0.72363579 0.11608191
0.40158474 -0.19246167 0.28119034
0.27064013 -0.27089980 0.18950298
0.46445566 -0.35489520 0.32521266
0.48885429 -0.54910022 0.34229693
0.00853380 -0.61981857 0.00597539
0.26853690 0.16123173 0.18803567
0.13575511 -0.27774021 0.09505611
0.00814682 -0.67107278 0.00570443
0.16519319 -0.20218781 0.11566874
0.57264638 -0.08496260 0.40096670
0.62558895 -0.66800082 0.43803814
0.34817699 0.04241731 0.24380001
0.17669088 -0.59587371 0.12371946
0.02869459 -0.58409405 0.02009203
0.43824995 -0.70564771 0.30686387
0.57216120 0.07477869 0.40062708
0.42097148 0.08630907 0.29476783
0.11801007 0.04164533 0.08264239
0.06217619 -0.10733252 0.04353594
0.42984778 -0.78286517 0.30098063
0.14296196 -0.44242015 0.10010238
0.56181085 -0.57784462 0.39338088
0.47314388 0.19393229 0.33129534
0.40555623 0.10324690 0.28397417
0.08003024 -0.69597048 0.05603740
0.57875067 -0.34553412 0.40524152
0.22233608 0.25500593 0.15568516
0.62834001 -0.11492918 0.43996322
0.29168633 -0.38007176 0.20423961
0.31656614 -0.09441237 0.22166041
0.23214404 0.51464534 0.16254699
0.52187079 -0.50108379 0.36541486
0.23097165 -0.16776438 0.16172701
0.24641269 0.42505825 0.17253938
0.11083291 -0.77865589 0.07760552
0.32748422 -0.14257088 0.22930533
0.26683548 0.27851322 0.18684195
0.31151628 0.39668366 0.21812378
0.61486334 -0.05146709 0.43052676
0.49090320 -0.00339438 0.34373027
0.03352993 0.34756869 0.02348541
0.40966213 0.27518928 0.28684542
0.63381338 -0.65617138 0.44379681
0.63332582 -0.78360713 0.44345567
0.61251318 -0.32135731 0.42888185
0.09076110 0.46916845 0.06355525
0.22804873 -0.78957278 0.15968037
0.03338038 -0.05660346 0.02337304
0.37980920 -0.05238732 0.26594284
0.10663340 -0.59164059 0.07466501
0.01452448 0.61657315 0.01017317
0.25606486 -0.06770702 0.17929734
0.59906906 -0.21331763 0.41946805
0.16727363 0.59039229 0.11712488
0.30333683 0.24090315 0.21239999
0.16057678 -0.32477969 0.11243632
0.02947254 -0.33987358 0.02063676
0.58545125 -0.09349415 0.40993264
0.20853311 -0.64963007 0.14601548
0.21458052 0.28316766 0.15025432
0.19366874 -0.34097925 0.13560741
0.47219786 -0.73736721 0.33063430
0.00642640 0.56781280 0.00450396
0.43633461 0.12541743 0.30552390
0.56672949 -0.48527038 0.39682466
0.50555450 0.07380486 0.35399088
0.01070789 0.70574772 0.00749921
0.64264345 -0.00943074 0.44997817
0.06521708 0.42633784 0.04567064
0.22180349 -0.06644653 0.15530743
0.09877171 0.64206696 0.06916061
0.38708952 -0.51061565 0.27104118
0.47518018 -0.32897025 0.33272186
0.27893367 0.40621328 0.19531012
0.30762205 -0.68310970 0.21539783
0.08659768 0.18463752 0.06064541
0.02591963 0.06975098 0.01816201
0.41621026 0.28606054 0.29143000
0.05419219 0.20618598 0.03795534
0.26055330 0.05442255 0.18244800
0.06484758 -0.28134748 0.04540646
0.12461521 -0.13395651 0.08725593
0.38142198 -0.61561167 0.26707277
0.22990327 -0.17033374 0.16097891
0.28901064 -0.63551730 0.20236608
0.45208505 -0.57630974 0.31655124
0.31889281 -0.03373178 0.22328939
0.19235218 -0.41283911 0.13468555
0.62809312 -0.60765517 0.43979138
0.07357686 0.59256375 0.05152087
0.63346523 -0.53546399 0.44355276
0.05480218 -0.36767986 0.03837264
0.03869213 -0.70498508 0.02709234
0.23596640 0.14937940 0.16523093
0.52446693 -0.48204654 0.36723262
0.51317328 0.06819437 0.35932547
0.47152686 -0.18801382 0.33016348
0.41904655 -0.70348352 0.29341760
0.26760188 0.02978235 0.18738373
0.53552908 -0.49519229 0.37497833
0.60027176 -0.27995601 0.42031032
0.26859006 -0.21206467 0.18806753
0.20926420 0.53372198 0.14652675
0.58790088 0.04151048 0.41164827
0.25588328 -0.25917500 0.17917021
0.01325834 -0.77908915 0.00928353
0.05381234 -0.45601979 0.03767956
0.12436233 0.44186601 0.08708264
0.29893136 -0.00310136 0.20931239
0.01709503 -0.46462011 0.01196999
0.59324247 -0.38947850 0.41538873
0.55248654 -0.78423911 0.38685253
0.09198330 0.47493064 0.06441090
0.10035109 0.47489351 0.07026986
0.08799746 -0.29057881 0.06161607
0.35568091 -0.71435952 0.24904878
0.53746974 -0.08923229 0.37633619
0.26809713 -0.30906904 0.18772237
0.04907052 -0.34021217 0.03435932
0.00664703 -0.15492056 0.00465427
0.43450168 0.10056608 0.30424106
0.30558255 0.08494938 0.21397564
0.09984991 0.67166448 0.06991491
0.38341641 -0.30640438 0.26846921
0.17957455 -0.50349140 0.12573862
0.49473760 -0.64889032 0.34641665
0.42501342 -0.26220715 0.29759514
0.12088535 0.44830465 0.08464803
0.47535059 0.07508815 0.33284289
0.63907367 -0.09342535 0.44747880
0.13022575 0.55388647 0.09118572
0.15983634 -0.24866857 0.11191786
0.61035055 -0.10049781 0.42736706
0.39410090 0.00893768 0.27595541
0.58016962 -0.32839265 0.40623501
0.44434449 -0.62383765 0.31113127
0.19161543 -0.46436581 0.13416967
0.51132393 -0.47299305 0.35802993
0.04824820 0.01499998 0.03379704
0.18648005 -0.27858219 0.13057385
0.14720167 0.48528439 0.10307323
0.06094595 -0.28236118 0.04267453
0.00385563 0.61532301 0.00270307
0.34642893 0.10895886 0.24257468
0.26120520 0.45766535 0.18289603
0.40066412 -0.49888107 0.28054616
0.26920605 0.35363978 0.18850020
0.07616875 -0.58642781 0.05333358
0.29772311 -0.76829606 0.20846657
0.36834016 0.34206295 0.25791147
0.11799019 0.59663665 0.08261781
0.48483652 -0.28038666 0.33948308
0.15038911 -0.22068207 0.10530288
0.57176453 -0.75975287 0.40035078
0.36388153 -0.01007007 0.25479025
0.00973037 -0.29091722 0.00681323
0.20381089 -0.64182812 0.14270896
0.35158670 0.11034794 0.24618597
0.65112644 -0.17167976 0.45591828
0.02307730 -0.23768418 0.01615879
0.09803323 -0.06859812 0.06864315
0.13135752 -0.69279116 0.09197691
0.46470338 -0.50790364 0.32538649
0.40961391 -0.65382683 0.28681281
0.42448446 0.03657993 0.29722860
0.26184386 -0.43921009 0.18334381
0.44172549 -0.01361641 0.30929628
0.38434643 -0.39587477 0.26912048
0.49444625 -0.15997639 0.34621149
0.45227528 -0.62082511 0.31668445
0.09833821 0.33208519 0.06886314
0.42810512 -0.55280596 0.29976043
0.39371607 0.23398168 0.27568126
0.03469514 -0.79675877 0.02429363
0.34192422 -0.18598337 0.23941627
0.30722824 -0.10253774 0.21512209
0.27340281 0.41598514 0.19143733
0.36906609 -0.56804699 0.25842112
0.31812856 -0.44739786 0.22275452
0.19209440 -0.57738727 0.13450505
0.24769780 -0.38323522 0.17343870
0.15382066 -0.61138427 0.10770567
0.12762001 0.33376041 0.08936564
0.37386906 0.01975688 0.26178938
0.47537991 -0.01300096 0.33286095
0.20363835 -0.78504795 0.14258815
0.07824670 0.10192845 0.05479976
0.25076309 -0.13417162 0.17558502
0.14615120 -0.35398176 0.10233548
0.22980984 0.35884190 0.16091590
0.06868180 -0.66204792 0.04809119
0.00132224 0.77498358 0.00092627
0.09861911 0.49755344 0.06905674
0.32897982 0.24659424 0.23035441
0.39931321 -0.74394828 0.27960026
0.51574498 -0.14530101 0.36112472
0.36038408 0.05449765 0.25234684
0.35525444 -0.02134243 0.24874961
0.39709729 0.20557025 0.27804929
0.51417023 -0.06605972 0.36002189
0.32542726 -0.77507907 0.22786510
0.27714849 -0.64878142 0.19406018
0.12727112 0.08074641 0.08912606
0.61227697 -0.63722187 0.42871708
0.10716844 -0.65742671 0.07503965
0.54972166 -0.63434100 0.38491622
0.44967255 -0.06181395 0.31486091
0.09376694 -0.35527951 0.06565588
0.02055544 -0.00072218 0.01439298
0.41273350 -0.39712304 0.28899711
0.05634248 0.24786353 0.03946015
0.24010518 -0.77191800 0.16812234
0.43125170 0.05756199 0.30196640
0.08875481 -0.48568806 0.06214637
0.10629172 0.29674450 0.07443269
0.37404871 -0.46413404 0.26190999
0.29489261 0.34260356 0.20648545
0.28350791 0.21445526 0.19851686
0.19545467 -0.67460781 0.13685793
0.31041124 -0.12615190 0.21735084
0.28631645 -0.39082807 0.20047960
0.24383365 -0.77698630 0.17073300
0.04900276 0.64360118 0.03431366
0.27327231 0.21797663 0.19135010
0.06191617 -0.72969896 0.04335388
0.59182423 -0.36363238 0.41439563
0.41020396 -0.65757012 0.28722599
0.49248406 -0.61643517 0.34483865
0.54349053 -0.67580748 0.38055331
0.26255518 -0.07366328 0.18384188
0.09177062 -0.64459372 0.06425805
0.59703344 0.04647856 0.41804257
0.50967640 -0.19187340 0.35687566
0.58739483 -0.63597733 0.41129476
0.10064391 -0.27170929 0.07047115
0.49798229 -0.42016307 0.34868801
0.31749144 -0.76112479 0.22230843
0.04759096 0.13050760 0.03333470
0.30515203 0.30926570 0.21366952
0.58016825 -0.46953040 0.40623438
0.01630766 -0.43964583 0.01141867
0.42035875 0.27082720 0.29433498
0.36098522 0.28942844 0.25276285
0.58203566 -0.03941048 0.40754092
0.36840564 -0.39763439 0.25795868
0.14853726 0.08468238 0.10401612
0.25821203 -0.34377882 0.18080080
0.18699700 -0.35973877 0.13093583
0.41939133 -0.46091348 0.29365900
0.14041509 -0.04922575 0.09831904
0.37274486 -0.73290712 0.26099700
0.06566787 -0.44445354 0.04598083
0.27618361 0.08481091 0.19339129
0.20390509 -0.41574511 0.14277492
0.03357086 -0.57532024 0.02350641
0.36046553 0.14957441 0.25240189
0.29560775 -0.10696352 0.20698538
0.36174965 -0.44435042 0.25329813
0.15175821 -0.13931765 0.10626153
0.34283543 -0.68830657 0.24005435
0.27408439 0.03809029 0.19192246
0.48895788 0.12729038 0.34236926
0.10428803 -0.70382798 0.07302278
0.40067470 0.08276659 0.28055668
0.08540293 0.10277179 0.05981040
0.21574804 0.16816279 0.15107419
0.22260648 -0.09672894 0.15586969
0.30414400 -0.31678468 0.21296249
0.31752989 -0.24913594 0.22233532
0.22275323 -0.63174701 0.15597244
0.62776285 -0.09331373 0.43955904
0.05170605 -0.47345841 0.03620473
0.15985297 -0.46300223 0.11192950
0.20964496 -0.65006018 0.14679401
0.24158342 0.07068054 0.16916542
0.04237117 0.49980333 0.02967303
0.62431276 -0.71247816 0.43714464
0.36736208 0.34941959 0.25722650
0.24243435 0.45849079 0.16975316
0.20647883 -0.64851338 0.14457707
0.28433195 0.02422796 0.19909780
0.10948397 0.42199978 0.07666551
0.58556521 -0.78265268 0.41001400
0.20493235 -0.20351420 0.14349420
0.10575775 0.46572414 0.07405567
0.11976164 -0.49514550 0.08385744
0.55326766 -0.52053970 0.38739884
0.01004818 0.29912996 0.00704487
0.10458755 0.47839853 0.07323608
0.01782958 -0.60487121 0.01248433
0.33819652 0.21161854 0.23680842
0.55100882 -0.55723691 0.38581729
0.16863179 0.01180385 0.11808726
0.27360785 -0.10038982 0.19158100
0.04810601 -0.78348696 0.03368397
0.03311482 -0.61821419 0.02318709
0.42861953 -0.76159447 0.30012062
0.25389040 -0.71480006 0.17777479
0.34587476 -0.54135132 0.24218249
0.05219134 0.34452850 0.03655181
0.25322339 -0.12724246 0.17730772
0.63713843 -0.59655309 0.44612485
0.40367338 -0.18793076 0.28265277
0.34560814 0.15956940 0.24199893
0.06050390 -0.43745118 0.04236500
0.49987984 -0.48319182 0.35001683
0.29247653 -0.12278745 0.20479292
0.21819976 -0.07018434 0.15278409
0.00927183 0.55054718 0.00649659
0.48560193 0.12574083 0.34001952
0.10018422 0.45464480 0.07015340
0.20741415 -0.67905325 0.14523198
0.45965320 0.05719375 0.32185236
0.61900336 -0.76366186 0.43342713
0.21919340 -0.76462787 0.15347984
0.52780670 -0.55612904 0.36957127
0.01169074 -0.72480500 0.00818589
0.64422727 -0.37304217 0.45108792
0.08219309 -0.06751368 0.05755184
0.45223129 -0.64774030 0.31665364
0.18562248 -0.73931819 0.12997340
0.03613768 0.31004998 0.02531200
0.17885031 0.07528609 0.12524088
0.18076114 0.32880124 0.12657395
0.08420632 0.09054606 0.05897278
0.26416686 0.05910013 0.18497802
0.04607467 -0.47041386 0.03226162
0.51177090 -0.76376867 0.35834342
0.18152834 -0.05924688 0.12710667
0.64116049 -0.38014835 0.44894063
0.04319658 0.72485107 0.03024665
0.09167538 0.26772505 0.06419917
0.24053960 -0.01779772 0.16842651
0.38879803 -0.75546014 0.27223748
0.00763574 0.14536031 0.00535859
0.51061630 -0.78189147 0.35753497
0.46685708 -0.78471500 0.32689467
0.18038303 0.15394817 0.12631258
0.24418905 0.32291001 0.17098460
0.42561868 0.21941236 0.29801890
0.00883777 0.39469966 0.00619558
0.30060986 -0.25476295 0.21048789
0.54007882 -0.17244682 0.37816325
0.22068290 -0.17000775 0.15452279
0.37635478 -0.26061127 0.26352456
0.32105029 -0.41951448 0.22480033
0.63908732 -0.70811963 0.44748968
0.16547653 -0.22086994 0.11586714
0.24068172 -0.08060654 0.16852602
0.02645495 0.53365827 0.01852818
0.32963541 -0.72447473 0.23081166
0.11018557 -0.12622949 0.07715225
0.22055957 -0.33918077 0.15443644
0.15333682 -0.01568508 0.10736688
0.33108741 -0.41590914 0.23182835
0.62394589 -0.67474866 0.43688768
0.10952211 -0.13952802 0.07668769
0.16673198 -0.68351132 0.11674622
0.31678709 0.09217875 0.22182061
0.12557569 0.10121160 0.08793858
0.05154145 -0.53216124 0.03608947
0.48084122 -0.18126160 0.33668533
0.54342574 -0.66956806 0.38050792
0.16893312 0.31223917 0.11829263
0.04875155 -0.65744501 0.03413598
0.21264786 -0.48987117 0.14889663
0.17317186 -0.05603590 0.12125543
0.15422644 -0.34047145 0.10798979
0.06459177 0.05933694 0.04523965
0.24715520 0.36607784 0.17306051
0.54604006 -0.30807421 0.38233760
0.64869744 -0.67193204 0.45421857
0.25144652 0.21753542 0.17606828
0.44562203 -0.42387542 0.31202561
0.04289450 -0.12069958 0.03003485
0.24832004 -0.78215444 0.17387441
0.65174389 -0.01343116 0.45635024
0.57441449 -0.49285161 0.40220571
0.07166286 0.11891388 0.05018957
0.54226547 -0.79893667 0.37969583
0.35047820 -0.64045793 0.24540584
0.15139391 -0.77972060 0.10600645
0.06207711 0.10732153 0.04347804
0.26944774 0.31249249 0.18867028
0.04180741 -0.28183767 0.02927367
0.61893952 -0.52112633 0.43338194
0.57688659 -0.04421327 0.40393555
0.04507276 -0.21215294 0.03156008
0.20015317 -0.22942489 0.14014782
0.33041316 0.15509273 0.23135990
0.60206735 -0.56757736 0.42156824
0.27209002 -0.62780386 0.19051822
0.61860168 -0.00284181 0.43314421
0.22322480 0.10160644 0.15631051
0.54151046 0.05007633 0.37916678
0.01097759 0.55112612 0.00769092
0.31832331 0.28279191 0.22289225
0.03921852 0.61323029 0.02746349
0.17467716 -0.62814820 0.12230945
0.60327321 -0.69245106 0.42241284
0.11639312 -0.54365575 0.08149879
0.40820584 -0.40603656 0.28582689
0.03150270 -0.56466162 0.02205828
0.33372974 -0.36910179 0.23367850
0.20266506 0.13806210 0.14191432
0.21016335 0.41379103 0.14715882
0.06669804 0.06452935 0.04671432
0.17241946 0.01041761 0.12073933
0.24051474 -0.60230833 0.16840911
0.54626906 -0.50852609 0.38249841
0.64201248 -0.26696819 0.44953695
0.01069221 0.77170187 0.00748699
0.23721074 -0.57269925 0.16609563
0.08104420 -0.45056930 0.05674738
0.60786194 -0.40352964 0.42562523
0.38324639 0.00139138 0.26835552
0.36379498 -0.45705462 0.25473028
0.09276482 0.13098373 0.06496452
0.55076778 0.12241599 0.38564700
0.26021111 0.43524051 0.18220048
0.31996423 -0.25174442 0.22403987
0.28185698 -0.52421802 0.19735707
0.17997125 0.13213311 0.12602468
0.41499391 -0.09251488 0.29057914
0.21881121 -0.77259278 0.15321223
0.23058604 0.22777019 0.16146210
0.42016333 -0.06932395 0.29419866
0.04573508 -0.45264563 0.03202383
0.33685425 0.38743886 0.23586491
0.25980023 0.07717002 0.18192025
0.28254122 0.29638889 0.19783831
0.01521981 0.59928644 0.01066034
0.43486032 -0.41526335 0.30449027
0.33975524 -0.16551276 0.23789750
0.07402747 -0.39511168 0.05183425
0.18234289 0.16703440 0.12768461
0.30226955 -0.31556654 0.21165001
0.57638997 -0.46678704 0.40358886
0.08752480 -0.70766586 0.06128512
0.51227844 -0.34009430 0.35869795
0.18912984 0.36580312 0.13243271
0.11163363 -0.11204979 0.07816619
0.18389355 -0.55412573 0.12876278
0.38172141 -0.13871090 0.26728195
0.62536985 -0.15169957 0.43788359
0.25794914 -0.17550828 0.18061674
0.50319970 -0.33266601 0.35234103
0.51299465 -0.52780479 0.35919988
0.11549708 -0.27881023 0.08087138
0.34719443 -0.02516190 0.24310607
0.34059310 0.19069903 0.23848689
0.03457595 0.67935628 0.02421163
0.58344752 -0.30684453 0.40853015
0.63116622 -0.43631321 0.44194278
0.02500195 -0.06548497 0.01750644
0.31494486 -0.16975324 0.22052529
0.48420712 -0.45452011 0.33904278
0.11095153 0.63887250 0.07768865
0.44744512 -0.49590167 0.31330228
0.49811515 -0.21459670 0.34878057
0.28136867 -0.34975454 0.19701515
0.43766427 -0.69925410 0.30645376
0.29078197 -0.03845269 0.20360631
0.22781889 0.43789059 0.15952024
0.58445424 -0.74646229 0.40923601
0.00745544 -0.10600279 0.00522032
0.43702751 -0.49315992 0.30600789
0.59505975 -0.53224504 0.41666150
0.39492863 -0.59635049 0.27653015
0.26155409 -0.31535050 0.18314093
0.62583047 -0.76229936 0.43820742
0.56486171 -0.31882074 0.39551646
0.61327773 -0.17599118 0.42941681
0.37019083 -0.74561542 0.25920868
0.13440256 0.48679906 0.09411161
0.45841774 -0.02609793 0.32098415
0.37444654 -0.66896844 0.26218855
0.59021419 -0.38747409 0.41326833
0.15761565 0.12720308 0.11037182
0.03178815 -0.65335834 0.02225815
0.09862058 0.57522094 0.06905618
0.48830926 0.18618774 0.34191388
0.18800619 -0.78981233 0.13164248
0.45767191 -0.15727437 0.32046223
0.37601614 -0.71116871 0.26328757
0.49319813 -0.62012476 0.34533867
0.41449618 -0.15734030 0.29023078
0.26266661 -0.53396028 0.18391992
0.45645231 -0.68871325 0.31960922
0.21066146 0.17249760 0.14751258
0.05512921 0.32275864 0.03860925
0.53771436 -0.78976727 0.37650913
0.23109300 -0.44472051 0.16181196
0.28715169 0.18642437 0.20106871
0.21457893 -0.28213528 0.15024877
0.15569595 0.28767720 0.10902470
0.12692733 -0.47267643 0.08887488
0.30302721 -0.31591210 0.21218051
0.41991866 0.24222529 0.29402745
0.35233545 0.15939063 0.24670921
0.12179874 0.32007003 0.08528996
0.25582251 0.27549905 0.17913102
0.49934313 -0.19786888 0.34964034
0.08058799 0.70064890 0.05642761
0.45168737 -0.55981612 0.31627280
0.45206407 -0.01653702 0.31653532
0.19193460 -0.44115886 0.13439316
0.30223948 -0.75022388 0.21162894
0.07545044 -0.76553428 0.05283061
0.27146059 -0.47850183 0.19007748
0.25860998 -0.39482775 0.18107945
0.36443663 -0.73614496 0.25517955
0.36338159 -0.14840929 0.25444052
0.09968969 0.22618428 0.06981140
0.21337540 -0.36199674 0.14940608
0.31094044 -0.25336507 0.21772137
0.46316090 -0.21916929 0.32430577
0.46010730 -0.01545440 0.32216713
0.43256086 0.04053093 0.30288336
0.57969850 -0.31970403 0.40590513
0.43365926 -0.42968699 0.30364934
0.02342739 0.47571063 0.01640942
0.22722627 -0.08980198 0.15910448
0.14247467 0.57303506 0.09976168
0.16803218 -0.14935860 0.11765661
0.13598210 -0.69897556 0.09521505
0.39764115 -0.46972811 0.27842948
0.00980660 -0.47641125 0.00686661
0.10537650 -0.69104362 0.07378492
0.35092971 -0.75141078 0.24572200
0.05939554 -0.10409294 0.04158892
0.08452522 -0.53636235 0.05918480
0.14094898 -0.19260973 0.09869288
0.44782314 0.22829863 0.31356570
0.53858310 -0.27672824 0.37711620
0.20156099 -0.38157502 0.14113358
0.15052806 -0.11737939 0.10540018
0.38502753 -0.22725418 0.26959711
0.25432992 0.23419753 0.17808682
0.10800213 0.15497327 0.07563293
0.18670201 -0.55347317 0.13072929
0.04528160 -0.00978416 0.03170631
0.20058493 -0.73624897 0.14045013
