ply
format ascii 1.0
element vertex 70
property float x
property float y
property float z
end_header
0.39732561 0.75395232 0.03270142
0.55557156 0.43782863 0.01800422
0.46521312 0.36161992 0.00249797
0.20387444 0.75666481 0.01494505
0.08601621 0.79549062 0.00758769
0.51007849 0.70854449 0.03897078
0.73893309 0.29135320 0.02143806
0.48333520 0.73333925 0.03878937
0.71167427 0.57111079 0.04494388
0.27563769 0.69541973 0.01592425
0.41288477 0.47924486 0.00857663
0.56876993 0.65965319 0.03988313
0.56544155 0.34326589 0.01011991
0.58025008 0.71954298 0.04652711
0.22630523 0.68494225 0.01035637
0.60032743 0.56464529 0.03397642
0.33186054 0.51588792 0.00444505
0.61084199 0.44046992 0.02339540
0.33130625 0.68233424 0.01988843
0.73632663 0.43356323 0.03443419
0.48178875 0.49215478 0.01619294
0.11489355 0.77746022 0.00859747
0.26442459 0.58126420 0.00425331
0.50314248 0.40146509 0.00973824
0.60831398 0.26211232 0.00655620
0.70024800 0.73136371 0.05879845
0.43639272 0.50022346 0.01271802
0.28570306 0.72640473 0.01974572
0.34234485 0.73824811 0.02612118
0.76062608 0.32170877 0.02628342
0.61231560 0.25920230 0.00665782
0.70717055 0.12517010 0.00301069
0.76616484 0.48834687 0.04231189
0.70204514 0.12048866 0.00209774
0.49931288 0.41531080 0.01067067
0.64798510 0.32949212 0.01652190
0.59119207 0.58297849 0.03483266
0.66530889 0.57097477 0.04061494
0.74663299 0.12610593 0.00677149
0.19074947 0.65243024 0.00401973
0.68207937 0.49530396 0.03513178
0.67551643 0.14672884 0.00207088
0.40330958 0.69726127 0.02798100
0.13867056 0.73444325 0.00680639
0.32486635 0.72576767 0.02333223
0.30796468 0.63980806 0.01375662
0.63951033 0.58192140 0.03923233
0.57779408 0.32941818 0.00998072
0.20425592 0.79443651 0.01849681
0.35570624 0.46678287 0.00209358
0.36490771 0.78643078 0.03270704
0.07854174 0.73806906 0.00154635
0.46601796 0.67918938 0.03213634
0.31491566 0.70386404 0.02036684
0.76192170 0.66356748 0.05822853
0.57015932 0.31231073 0.00767739
0.69981021 0.21147358 0.01035975
0.26223570 0.65215498 0.01064898
0.39843839 0.56036353 0.01478336
0.60979676 0.23028409 0.00373125
0.18930732 0.71659541 0.00985881
0.59605038 0.23208845 0.00261953
0.40479028 0.65748096 0.02441561
0.11843257 0.71719921 0.00331707
0.28610110 0.68702537 0.01611687
0.57339001 0.30768004 0.00754706
0.59141952 0.30619353 0.00908710
0.67934042 0.54516178 0.03951819
0.10425293 0.79907799 0.00961935
0.40317684 0.79531163 0.03709635
