ply
format ascii 1.0
element vertex 370
property float x
property float y
property float z
end_header
-0.20930448 0.24190171 0.27877885
-0.42171833 0.35044372 0.02224940
-0.38063797 0.18702725 0.18569721
-0.19070831 0.57326561 0.02879464
-0.59976184 0.11688157 0.06662308
-0.09648460 0.40150213 0.24138889
-0.37821087 0.39705920 0.01976541
-0.07804215 0.43872458 0.22637872
-0.25963959 0.47365400 0.05331621
-0.29396531 0.49203795 0.01118700
-0.25859594 0.41860354 0.09815042
-0.49816197 0.15028936 0.12112711
-0.10104286 0.62254286 0.06107591
-0.68644440 0.10956270 0.00318997
-0.47857898 0.28541145 0.02878054
-0.26336595 0.42345867 0.09045737
-0.42469841 0.35208768 0.01855356
-0.31268090 0.25803471 0.18325932
-0.19130148 0.26369801 0.27574700
-0.28313765 0.25062829 0.21279188
-0.58302063 0.12668826 0.07216565
-0.41222537 0.24891141 0.11098831
-0.47240213 0.10939410 0.17440245
-0.42502856 0.12174192 0.20239754
-0.39439243 0.21869655 0.14939143
-0.40993601 0.37925175 0.00864135
-0.35539627 0.43285024 0.00939384
-0.23220852 0.20161696 0.29267061
-0.26817265 0.22951676 0.24162652
-0.23748372 0.39536759 0.13359655
-0.10386355 0.41831377 0.22205421
-0.14568537 0.24473786 0.32736042
-0.33251175 0.29823387 0.13527924
-0.22996958 0.44290984 0.10160341
-0.52408260 0.21721299 0.04691962
-0.43032405 0.11220210 0.20578989
-0.05876388 0.61708361 0.09923131
-0.06427666 0.65073061 0.06793237
-0.33878720 0.35776514 0.08268207
-0.37228110 0.42001972 0.00615331
-0.38749504 0.38381779 0.02292828
-0.16625306 0.58063877 0.04244790
-0.29202634 0.37776652 0.10407020
-0.47176760 0.10678050 0.17699857
-0.09336168 0.68419063 0.01794223
-0.11944831 0.39350870 0.22942369
-0.46644416 0.12096490 0.16991630
-0.19274575 0.45883253 0.11862884
-0.77269959 0.01025479 0.01362230
-0.25926828 0.48932379 0.04108865
-0.25706989 0.25078934 0.23349816
-0.03100342 0.75030136 0.01494319
-0.18787944 0.52493191 0.06968724
-0.55604917 0.09827890 0.11642985
-0.53137982 0.21665186 0.04153569
-0.54089212 0.19963630 0.04753273
-0.21583904 0.32407817 0.20787540
-0.28383231 0.40725145 0.08705310
-0.29298943 0.12962662 0.30162990
-0.62246341 0.13190466 0.03647092
-0.22309482 0.23813678 0.27076590
-0.29229605 0.28269094 0.17984542
-0.08229171 0.40878451 0.24691220
-0.38902691 0.17595351 0.18784305
-0.24439050 0.14849308 0.32539394
-0.23613440 0.35998306 0.16295661
-0.51846516 0.24788222 0.02689657
-0.24457213 0.16242892 0.31411037
-0.27216336 0.25652304 0.21685176
-0.17870592 0.51661062 0.08367031
-0.16645530 0.58263940 0.04068721
-0.10542949 0.34991378 0.27547222
-0.27585718 0.17223637 0.28126666
-0.25199136 0.19938187 0.27864531
-0.50937957 0.21159662 0.06316029
-0.36125222 0.41200778 0.02137207
-0.08039422 0.40483975 0.25158167
-0.25790367 0.19296940 0.27904510
-0.70871586 0.03145205 0.04782037
-0.22717880 0.31836203 0.20338064
-0.09947731 0.60139191 0.07923237
-0.40092471 0.34864974 0.04030302
-0.16699253 0.51796347 0.09195117
-0.10657125 0.27701378 0.33282596
-0.54266191 0.13940990 0.09425522
-0.36778477 0.18946694 0.19402044
-0.51103944 0.14326993 0.11644494
-0.08497040 0.54089558 0.13917968
-0.41618806 0.32342023 0.04826858
-0.54924798 0.21812920 0.02607339
-0.09848378 0.34243280 0.28700292
-0.05359681 0.61439019 0.10551395
-0.20501733 0.34154850 0.20256139
-0.19250272 0.28352690 0.25893837
-0.47094524 0.23076409 0.07855982
-0.15307242 0.32367247 0.25836670
-0.13745742 0.25641391 0.32460448
-0.22198902 0.50942576 0.05481801
-0.06091480 0.58907396 0.11989928
-0.42965585 0.33813971 0.02573935
-0.24935134 0.54053074 0.00808690
-0.15743151 0.53821242 0.08340869
-0.41162357 0.17806458 0.16809487
-0.12576479 0.19115040 0.38611269
-0.62332189 0.03916567 0.10990799
-0.11730422 0.33493277 0.27795497
-0.46510330 0.29613090 0.03098354
-0.34197298 0.25844145 0.15952195
-0.07124229 0.57295126 0.12453115
-0.18166946 0.27122977 0.27742565
-0.42384160 0.27353531 0.08202273
-0.40726534 0.17093039 0.17728041
-0.54407543 0.09468694 0.12887104
-0.42532098 0.14305797 0.18512659
-0.70517009 0.06463727 0.02413053
-0.37530419 0.30949169 0.09207848
-0.48485637 0.13689391 0.14246842
-0.38201046 0.13857776 0.22332431
-0.13137998 0.27172887 0.31722125
-0.36530477 0.27461964 0.12794285
-0.40539032 0.24077553 0.12295414
-0.42848659 0.14177574 0.18362127
-0.37223336 0.32158703 0.08486551
-0.11507297 0.39289597 0.23341045
-0.23312272 0.12462583 0.35347608
-0.52492481 0.13174710 0.11455659
-0.21123475 0.41538411 0.13857797
-0.37118873 0.36452800 0.05137913
-0.19451773 0.54382974 0.04927706
-0.50266308 0.24522962 0.04164686
-0.09429282 0.47841722 0.18166530
-0.56860447 0.22138035 0.00800378
-0.18024907 0.26732418 0.28168252
-0.28915489 0.38634264 0.09951064
-0.15547076 0.42243579 0.17751192
-0.39059204 0.33730641 0.05762796
-0.13101843 0.51770359 0.12091170
-0.09845260 0.52588570 0.14040072
-0.52674615 0.20315018 0.05603067
-0.05262424 0.72410423 0.01860080
-0.12021254 0.32218689 0.28581774
-0.51218504 0.15937154 0.10265981
-0.20881563 0.18506084 0.32460037
-0.69038266 0.05941979 0.04011984
-0.30413935 0.16602278 0.26362807
-0.23974732 0.25388765 0.24486709
-0.31251243 0.44510865 0.03387189
-0.32937467 0.27678016 0.15493388
-0.47580290 0.25765535 0.05318392
-0.19324082 0.23246297 0.29916197
-0.08863241 0.43899140 0.21770103
-0.23033974 0.35111809 0.17467351
-0.36680666 0.33794135 0.07613143
-0.18104772 0.48086250 0.11037088
-0.10861742 0.48482385 0.16509558
-0.32496554 0.10737961 0.29385379
-0.05970635 0.59749526 0.11413431
-0.03025404 0.74136001 0.02268868
-0.29266688 0.35100615 0.12494693
-0.50401986 0.12450108 0.13705681
-0.26832181 0.15501913 0.30105051
-0.24187668 0.40539148 0.12207360
-0.70288455 0.05088373 0.03695002
-0.05703786 0.73940039 0.00284740
-0.17777926 0.49525833 0.10147715
-0.21460880 0.56020504 0.02013057
-0.33697808 0.29955178 0.13065608
-0.26704136 0.43216082 0.08056437
-0.71395200 0.03924866 0.03740368
-0.51270026 0.20649607 0.06458288
-0.07170690 0.66060799 0.05409902
-0.24332903 0.39244828 0.13125788
-0.24210413 0.38286987 0.13989262
-0.34385923 0.28021768 0.14060929
-0.11680541 0.42903829 0.20313856
-0.19964576 0.52654582 0.05899284
-0.44634590 0.31691936 0.02936024
-0.33054328 0.15669657 0.24997848
-0.30656993 0.39956048 0.07502672
-0.36728546 0.11197833 0.25635344
-0.46434867 0.27438143 0.04897032
-0.36949632 0.13160565 0.23889898
-0.03482638 0.72676712 0.03069773
-0.41712534 0.13970380 0.19435801
-0.35727513 0.11092778 0.26519400
-0.51542050 0.23942976 0.03608584
-0.33592728 0.15237942 0.24912576
-0.20270182 0.32779500 0.21540476
-0.28970808 0.41618213 0.07521878
-0.27671394 0.17779797 0.27613670
-0.37507683 0.38650700 0.03070439
-0.03247984 0.76713079 0.00031188
-0.74051106 0.05588628 0.00287791
-0.63480711 0.03405203 0.10481535
-0.59857446 0.10119818 0.08010732
-0.35529855 0.18620411 0.20660818
-0.03402603 0.75491577 0.00883915
-0.29208785 0.47555131 0.02586483
-0.19935825 0.26578799 0.26763707
-0.13026606 0.58919257 0.06437449
-0.33115605 0.43205357 0.02940508
-0.19013008 0.26590985 0.27491540
-0.23212536 0.25109181 0.25319365
-0.27557665 0.47933453 0.03603793
-0.16434129 0.13136634 0.40306309
-0.17195235 0.14285982 0.38779354
-0.68077087 0.11805732 0.00093519
-0.09871567 0.32415748 0.30142438
-0.44938856 0.21035096 0.11210499
-0.36995536 0.18971018 0.19209114
-0.17007148 0.61349553 0.01313461
-0.48512530 0.07348580 0.19293351
-0.15720166 0.24652176 0.31673008
-0.17452624 0.16792782 0.36570042
-0.11552146 0.61827481 0.05291495
-0.39272365 0.20552361 0.16125394
-0.50163335 0.15197837 0.11700259
-0.18788682 0.40676162 0.16413073
-0.44290775 0.26137742 0.07650112
-0.18037742 0.21142802 0.32625568
-0.28008541 0.31405190 0.16453923
-0.05176888 0.62525916 0.09828774
-0.29953316 0.24083805 0.20751253
-0.11031142 0.60198820 0.07009650
-0.30645880 0.27313587 0.17616263
-0.17827618 0.56598753 0.04454844
-0.11490524 0.44674981 0.19050114
-0.47974971 0.22574151 0.07553705
-0.23539147 0.18465322 0.30368507
-0.46951914 0.13732143 0.15438534
-0.11309940 0.63668525 0.04013595
-0.33928037 0.30359098 0.12558752
-0.00729975 0.76955932 0.01849648
-0.16846623 0.26134846 0.29587629
-0.08920474 0.57450676 0.10893117
-0.14335509 0.47500446 0.14517935
-0.08894628 0.69207782 0.01516736
-0.24362862 0.33269265 0.17877898
-0.14931852 0.47986382 0.13652907
-0.34785911 0.44425991 0.00629870
-0.73081136 0.03242313 0.02938394
-0.19042315 0.31287649 0.23714247
-0.32346413 0.11156956 0.29170492
-0.34642884 0.26403260 0.15149170
-0.10609425 0.53517860 0.12686557
-0.59729904 0.06278304 0.11183072
-0.73738444 0.02832697 0.02740418
-0.50695693 0.20423862 0.07097764
-0.51362395 0.14269909 0.11483542
-0.43268785 0.32477891 0.03399484
-0.14608961 0.38730362 0.21308975
-0.09585494 0.54567999 0.12665609
-0.55634421 0.22155824 0.01766085
-0.68924832 0.08234499 0.02270312
-0.18671207 0.60308713 0.00815336
-0.59431362 0.12503295 0.06446257
-0.60813665 0.06215568 0.10366995
-0.47690791 0.21711516 0.08470316
-0.14877298 0.61264402 0.03083846
-0.09008206 0.56685555 0.11434531
-0.04487192 0.63855183 0.09317589
-0.25724500 0.43727800 0.08430431
-0.34826747 0.39543167 0.04499910
-0.35495704 0.33622444 0.08697475
-0.32435566 0.23178875 0.19490559
-0.07333274 0.51529908 0.16893961
-0.51242912 0.07519185 0.16974679
-0.12039282 0.46153718 0.17429613
-0.30516982 0.42934024 0.05234379
-0.40886000 0.19156420 0.15951394
-0.73614460 0.01614700 0.03813018
-0.25957996 0.36834094 0.13753720
-0.51590401 0.17794560 0.08484171
-0.14877863 0.28965554 0.28898704
-0.18071526 0.29608285 0.25832415
-0.09268647 0.64332688 0.05114295
-0.27666241 0.32195064 0.16096193
-0.52208167 0.15999611 0.09425051
-0.12210565 0.64184880 0.02881042
-0.50837642 0.17681639 0.09176083
-0.35555199 0.41982511 0.01967993
-0.16646966 0.44994709 0.14673214
-0.65795064 0.03145452 0.08839353
-0.17426458 0.46486694 0.12857707
-0.50690848 0.08365727 0.16739312
-0.74807817 0.04495654 0.00556550
-0.16650267 0.58194333 0.04120571
-0.20222549 0.52623886 0.05717627
-0.06051123 0.58433694 0.12400795
-0.13985544 0.54156876 0.09477407
-0.16257609 0.19769034 0.35146362
-0.40225348 0.16753428 0.18400066
-0.05242422 0.73632616 0.00899210
-0.09492859 0.41241130 0.23391323
-0.30236045 0.14780430 0.27961123
-0.31154996 0.22499266 0.21057259
-0.44267669 0.09029530 0.21342617
-0.32731467 0.17845806 0.23516582
-0.08110260 0.53406233 0.14773268
-0.16585606 0.33666056 0.23776831
-0.45752299 0.25169435 0.07255893
-0.14888906 0.55051416 0.08040406
-0.55107212 0.18501253 0.05108446
-0.41646302 0.32800233 0.04438650
-0.49092963 0.16338676 0.11643938
-0.44285417 0.20575307 0.12100269
-0.48633766 0.12546140 0.15042213
-0.56660563 0.16730314 0.05282354
-0.08820753 0.65985501 0.04151245
-0.16444577 0.55907869 0.06112466
-0.74892402 0.02027140 0.02461949
-0.68273872 0.04280131 0.05951202
-0.32353401 0.42712381 0.03943733
-0.08518300 0.38944179 0.26006120
-0.25320992 0.16916469 0.30182287
-0.24243407 0.22187914 0.26830289
-0.11452506 0.27493775 0.32812804
-0.23496287 0.55245197 0.01005896
-0.14755723 0.60343575 0.03917003
-0.46714765 0.17413776 0.12685470
-0.26922286 0.26331592 0.21377270
-0.18566494 0.57002711 0.03541413
-0.23563668 0.26496190 0.23930132
-0.35853341 0.39926267 0.03373187
-0.51496488 0.19690377 0.07043965
-0.01740902 0.73973179 0.03425659
-0.08423661 0.48394722 0.18528292
-0.02812733 0.68428349 0.07000763
-0.74683213 0.02856382 0.01966359
-0.43959069 0.24994572 0.08828935
-0.51428241 0.26826876 0.01394542
-0.37011796 0.13588962 0.23497812
-0.71506011 0.06472219 0.01615781
-0.37012833 0.12539068 0.24336125
-0.46317485 0.15136871 0.14822862
-0.53604048 0.07420390 0.15166456
-0.62752408 0.09993888 0.05797526
-0.10351652 0.42641586 0.21585590
-0.74038887 0.04391048 0.01254742
-0.68715435 0.06748271 0.03625570
-0.08978836 0.46514329 0.19587490
-0.27853137 0.23142201 0.23182438
-0.07873506 0.71455830 0.00536093
-0.12290239 0.60225439 0.05982013
-0.34960300 0.28626764 0.13118291
-0.08181011 0.41326037 0.24371974
-0.18136322 0.15812141 0.36807376
-0.25942388 0.24679464 0.23480952
-0.02661678 0.73973989 0.02689068
-0.14015569 0.56524551 0.07561008
-0.48994333 0.08728191 0.17805582
-0.16097394 0.21780238 0.33666936
-0.57303149 0.15695044 0.05596209
-0.38955501 0.41041222 0.00002575
-0.06386633 0.62520909 0.08865876
-0.34589288 0.21064256 0.19459300
-0.61036837 0.10862936 0.06474130
-0.21553370 0.55867207 0.02061657
-0.35721585 0.28045341 0.12974532
-0.39453939 0.13602041 0.21535431
-0.31836146 0.23540445 0.19680667
-0.24205405 0.41926631 0.11084215
-0.05430502 0.56082690 0.14775904
-0.45650122 0.13159125 0.16937013
-0.41789207 0.12347982 0.20671248
-0.45340779 0.27089182 0.06050420
-0.30732444 0.20021433 0.23375429
-0.28301433 0.25260288 0.21131223
-0.36164287 0.13810216 0.23998354
-0.39981750 0.27988490 0.09614947
