ply
format ascii 1.0
element vertex 1154
property float x
property float y
property float z
end_header
-0.27033451 -0.63246489 -0.00000100
-0.50194275 -0.52059257 -0.00000198
-0.36780077 -0.61439103 -0.00000152
-0.35686940 0.19740999 -0.05606678
-0.49724782 -0.72754943 -0.00000273
-0.44586968 -0.36857307 -0.00000107
-0.16922396 -0.44124755 0.00000032
-0.68870699 -0.33421198 -0.11441915
-0.40756872 0.32048982 -0.10921662
-0.11888338 0.00616395 -0.00000827
-0.62543565 -0.42934293 -0.06074908
-0.34910870 -0.00644984 -0.00787155
-0.11828459 0.31860983 -0.00000126
-0.10794084 0.38822210 -0.00000001
-0.28790098 -0.12658983 0.00000079
-0.50790012 -0.54766488 -0.00000212
-0.09682807 0.42948806 0.00000059
-0.41327056 0.00619302 -0.04414723
-0.44805291 -0.45841199 -0.00000142
-0.33649316 -0.42218682 -0.00000061
-0.16473836 -0.34718412 0.00000070
-0.09130462 -0.66596419 -0.00000005
-0.60325027 -0.06675811 -0.12765735
-0.16401443 -0.04393565 0.00000185
-0.15091091 0.43775520 -0.00044759
-0.12960796 -0.15970466 0.00000162
-0.04009062 -0.31267479 0.00000159
-0.16827045 -0.49527201 0.00000013
-0.33768842 -0.21278711 0.00000016
-0.40847936 -0.12772535 -0.01264753
-0.14387357 0.34642109 0.00000014
-0.28750220 0.44870532 -0.07421666
-0.23085168 -0.05530142 0.00000140
-0.34863740 0.21199723 -0.05492215
-0.17647308 0.00888305 -0.00000647
-0.21511164 0.52965337 -0.05390351
-0.25900909 -0.27163750 0.00000042
-0.49781522 -0.48398727 -0.00000182
-0.01805423 0.48155004 -0.00000062
-0.22122183 0.18143223 -0.00000124
-0.59050947 -0.50652421 -0.02578180
-0.15408270 0.19610201 -0.00000294
-0.07220778 -0.05625579 0.00000235
-0.00629188 -0.77478087 0.00000012
-0.54298013 0.15017393 -0.14312223
-0.34344366 0.33550137 -0.07894776
-0.28060812 0.47859612 -0.07708481
-0.32841909 -0.59782130 -0.00000122
-0.04478104 -0.49063039 0.00000089
-0.00296142 -0.31396648 0.00000184
-0.36341336 -0.20888573 0.00000002
-0.03175095 -0.76453996 -0.00000006
-0.27726692 -0.74081594 -0.00000145
-0.30411285 -0.45091465 -0.00000053
-0.37453756 0.28395149 -0.08403968
-0.14133395 0.09549119 -0.00000559
-0.26175287 0.23022474 -0.01345289
-0.43243170 -0.73134273 -0.00000235
-0.54644465 -0.15082306 -0.07976297
-0.09992946 -0.77428842 -0.00000051
-0.51813203 -0.02635673 -0.09191233
-0.06997834 -0.15324502 0.00000200
-0.31870165 -0.27634665 0.00000004
-0.72861445 -0.17029653 -0.17076941
-0.04965279 0.21244878 -0.00000572
-0.23527110 0.46497035 -0.05043633
-0.59533793 -0.30629784 -0.07165763
-0.33674145 -0.50065333 -0.00000091
-0.36046350 0.17429346 -0.05294042
-0.39084280 -0.27259079 -0.00000038
-0.36891809 0.14062752 -0.05007058
-0.16728950 -0.51576185 0.00000006
-0.72700226 -0.29897177 -0.14206643
-0.45063022 -0.31461757 -0.00000090
-0.10804868 -0.64190584 -0.00000006
-0.62820935 -0.17698459 -0.11683818
-0.31051528 0.02728094 -0.00000202
-0.56389326 -0.14238368 -0.09071085
-0.66367882 -0.34961823 -0.09800087
-0.50197756 0.09832677 -0.11046395
-0.05595803 -0.72631043 -0.00000006
-0.04561687 -0.76169336 -0.00000013
-0.03819076 0.14648806 -0.00000755
-0.03947223 0.45572102 -0.00000056
-0.38723499 -0.11309440 -0.00471060
-0.76714545 -0.58076882 -0.10203500
-0.20877555 0.26124066 0.00000018
-0.18593454 0.58979654 -0.05167410
-0.18660860 -0.11960007 0.00000143
-0.26459289 -0.01857267 0.00000133
-0.45363125 -0.38163871 -0.00000117
-0.02258309 -0.08203304 0.00000256
-0.57904267 -0.69976699 -0.00000312
-0.15179443 -0.03750345 0.00000194
-0.55884141 -0.22992457 -0.06911628
-0.20355663 -0.10381085 0.00000138
-0.21150354 -0.49072111 -0.00000012
-0.70012140 -0.74985516 -0.03039209
-0.62020254 -0.70278078 -0.00000338
-0.55141544 -0.51081520 -0.00441773
-0.69983608 -0.65872622 -0.04997391
-0.06443479 -0.38575968 0.00000116
-0.47165030 -0.64914620 -0.00000228
-0.70631629 -0.50694823 -0.08622359
-0.05015999 0.72693014 -0.01039422
-0.39513507 0.30767992 -0.09994384
-0.54427266 -0.69175595 -0.00000288
-0.02038395 -0.11075707 0.00000246
-0.54115152 0.09155258 -0.12947403
-0.58831930 -0.19032373 -0.09309897
-0.35053110 0.18521561 -0.05011340
-0.69796944 0.03339052 -0.19885205
-0.16957143 0.14023063 -0.00000373
-0.08378254 0.51363546 0.00000209
-0.07755232 -0.35962397 0.00000118
-0.29392838 0.04352042 -0.00000215
-0.72719151 -0.62801945 -0.07092086
-0.39585698 0.24182384 -0.08606239
-0.39889008 0.29626933 -0.09943608
-0.06067674 -0.29900944 0.00000151
-0.45444185 0.26056874 -0.12074408
-0.17868423 -0.10006508 0.00000155
-0.42562819 -0.18000455 -0.01029225
-0.25965330 -0.56071717 -0.00000067
-0.32342955 -0.52329636 -0.00000091
-0.07019946 0.66091716 -0.00657637
-0.19036017 0.37132582 -0.00668535
-0.59663129 -0.45135579 -0.04092651
-0.19381621 -0.36461076 0.00000046
-0.48446307 -0.12977059 -0.05192247
-0.37923732 -0.67832196 -0.00000183
-0.12411525 -0.22735018 0.00000140
-0.38140756 -0.32752758 -0.00000053
-0.43498880 -0.72764301 -0.00000235
-0.24981762 -0.69182110 -0.00000110
-0.29279098 -0.14809392 0.00000068
-0.30273199 0.09415976 -0.00541322
-0.31113547 -0.33133858 -0.00000012
-0.18222421 0.02135750 -0.00000602
-0.35759261 0.16081452 -0.04852137
-0.73692435 -0.68872213 -0.06286498
-0.25047541 -0.28109884 0.00000043
-0.64065313 -0.64019895 -0.02305009
-0.19750068 -0.19685340 0.00000107
-0.42076436 -0.16224764 -0.01159448
-0.26116797 -0.61594009 -0.00000089
-0.21447031 -0.32028374 0.00000050
-0.33064070 0.09829411 -0.02089664
-0.71677512 -0.61222500 -0.06889611
-0.36750990 0.19488558 -0.06108216
-0.70519906 -0.63669711 -0.05754678
-0.31049466 -0.50822103 -0.00000078
-0.15919927 -0.01323653 0.00000199
-0.65921712 -0.79149973 0.09322791
-0.45890740 -0.29807013 -0.00212485
-0.60178936 -0.27882153 -0.08097888
-0.73726892 -0.38952860 -0.12782562
-0.38258684 -0.17808814 0.00000002
-0.14561804 -0.00569749 0.00000210
-0.09574360 0.47093648 0.00000149
-0.63096446 -0.20283981 -0.11268027
-0.71493363 -0.13335052 -0.17161763
-0.12618124 -0.23427249 0.00000136
-0.57016850 -0.31629375 -0.05633694
-0.32996899 -0.74839401 -0.00000180
-0.55363923 -0.13867718 -0.08615342
-0.47557208 -0.29658276 -0.01115777
-0.43880883 0.05348532 -0.06773591
-0.25625890 0.16108803 -0.00000064
-0.49520978 -0.45563847 -0.00000170
-0.43247333 0.05773960 -0.06534538
-0.08529827 0.04466569 -0.00000842
-0.22584334 0.51145291 -0.05557246
-0.69222951 -0.05519729 -0.17667116
-0.10991566 0.18237694 -0.00000458
-0.08230548 -0.13870344 0.00000198
-0.37700281 0.11720297 -0.04922482
-0.40026674 -0.57135737 -0.00000156
-0.03644484 0.25689715 -0.00000512
-0.46184731 -0.65896177 -0.00000226
-0.53509784 -0.01209262 -0.10386898
-0.17306097 0.33813643 0.00000083
-0.24212866 -0.07491243 0.00000126
-0.26649693 -0.66982806 -0.00000112
-0.70230997 -0.74676049 -0.03220606
-0.66129774 -0.79652262 0.07076397
-0.29507026 -0.79939586 -0.00000178
-0.00958044 -0.74134988 0.00000016
-0.40937498 -0.24626963 -0.00000039
-0.45345938 0.16763481 -0.10010899
-0.45156431 -0.41180661 -0.00000127
-0.08386396 -0.06325968 0.00000226
-0.36859834 -0.55191553 -0.00000129
-0.17560750 0.18552072 -0.00000253
-0.25029933 -0.61971313 -0.00000083
-0.29231164 -0.59859687 -0.00000101
-0.29696098 -0.76049489 -0.00000164
-0.77005833 -0.72309178 -0.07274219
-0.19096954 -0.43575829 0.00000021
-0.09228994 0.40497056 -0.00000010
-0.03093003 0.75787467 -0.00704239
-0.01734352 0.42347223 -0.00000195
-0.61707622 -0.40792942 -0.06101581
-0.54153436 -0.49747244 -0.00214165
-0.30350950 -0.08521520 0.00000085
-0.66234422 -0.79904896 0.08610128
-0.60839736 -0.11420656 -0.12007454
-0.09772856 0.34595609 -0.00000127
-0.06211545 0.66686994 -0.00363961
-0.67062104 -0.72277939 -0.02083486
-0.25195947 -0.54347235 -0.00000056
-0.69980735 -0.60811329 -0.06091746
-0.02203421 -0.38444901 0.00000143
-0.09060702 0.45547730 0.00000098
-0.16360858 0.45426112 -0.01065861
-0.20887123 0.25047305 -0.00000006
-0.21726622 0.53102553 -0.05532683
-0.46803781 -0.40398347 -0.00000134
-0.29486534 -0.58819687 -0.00000099
-0.51145941 -0.38096914 -0.01164570
-0.21892181 -0.16840303 0.00000105
-0.74138170 -0.75606394 -0.05061414
-0.69724715 -0.61380261 -0.05834742
-0.48912126 -0.40033853 -0.00000145
-0.46537226 -0.00985364 -0.06790719
-0.53785175 -0.17013977 -0.07108898
-0.12282951 -0.19817908 0.00000152
-0.62068343 -0.54380411 -0.03348250
-0.41431862 -0.16550940 -0.00751899
-0.41384414 -0.47590470 -0.00000128
-0.21603832 -0.22744025 0.00000084
-0.58143789 -0.59783953 -0.00126886
-0.56927639 -0.50424302 -0.01517689
-0.06159688 0.00504390 -0.00001003
-0.29732671 -0.10953282 0.00000079
-0.16796324 -0.51643854 0.00000005
-0.28259027 -0.15361446 0.00000072
-0.46708232 -0.74200296 -0.00000260
-0.29816797 -0.23695233 0.00000031
-0.26113576 -0.62914062 -0.00000094
-0.32629117 -0.60155636 -0.00000123
-0.30123246 -0.66759914 -0.00000132
-0.55106741 -0.10700646 -0.09166628
-0.72429383 -0.31875187 -0.13636801
-0.49165234 -0.03558548 -0.07607285
-0.34796011 -0.52180910 -0.00000106
-0.24292830 -0.58624303 -0.00000066
-0.12546144 -0.39575502 0.00000076
-0.14641504 -0.58464134 -0.00000008
-0.13327403 -0.42821759 0.00000059
-0.31224066 -0.21367113 0.00000031
-0.26922089 0.44078478 -0.06294584
-0.03848982 0.55097139 0.00000156
-0.35089073 0.24730583 -0.06374483
-0.31587863 0.20163895 -0.03555596
-0.23409186 0.12567960 -0.00000211
-0.11394310 0.42503369 0.00000100
-0.39613134 -0.45493171 -0.00000110
-0.20493180 0.24729633 -0.00000025
-0.08566534 -0.44930255 0.00000080
-0.58597773 0.06170747 -0.14644341
-0.59041923 -0.48364556 -0.03068819
-0.08217072 0.32964817 -0.00000210
-0.29122052 -0.76081014 -0.00000161
-0.13683321 -0.32763553 0.00000095
-0.60519236 -0.62617922 -0.00754969
-0.69516838 -0.67315876 -0.04440926
-0.07700752 -0.54722506 0.00000048
-0.03238120 0.34475225 -0.00000327
-0.09193222 0.50282747 0.00000209
-0.63840586 -0.28654453 -0.09844670
-0.14647809 -0.34042323 0.00000084
-0.46495166 -0.47519827 -0.00000159
-0.47055453 0.02555385 -0.07828228
-0.65595305 -0.19249456 -0.12798208
-0.06700067 -0.35029587 0.00000128
-0.07087489 -0.29636008 0.00000146
-0.08200303 -0.43400639 0.00000088
-0.11824827 -0.64362872 -0.00000013
-0.19272517 -0.67961764 -0.00000071
-0.19420330 0.05881815 -0.00000482
-0.23896310 0.52999997 -0.06644605
-0.04114635 0.59789175 0.00000269
-0.00205017 -0.47116733 0.00000124
-0.71426743 -0.06152205 -0.18682128
-0.11919802 -0.40371153 0.00000077
-0.54758608 -0.17303894 -0.07554955
-0.05454777 0.70970589 -0.00895848
-0.37350848 0.05911533 -0.03482147
-0.48501670 0.08371406 -0.09843439
-0.62381792 -0.16602653 -0.11691530
-0.58114296 -0.39523000 -0.04498261
-0.75342488 -0.39341834 -0.13542800
-0.71749884 -0.19037086 -0.16061273
-0.34449252 -0.08706522 0.00000059
-0.41506717 0.16079792 -0.07856055
-0.02301147 0.09396156 -0.00000919
-0.32302862 0.08619460 -0.01429799
-0.09557340 -0.23829357 0.00000153
-0.22310309 0.34999037 -0.01918110
-0.29487872 0.11616882 -0.00607349
-0.13866840 0.06816315 -0.00000628
-0.48950741 -0.52769762 -0.00000193
-0.01443717 -0.45593086 0.00000120
-0.41953850 -0.24930589 -0.00000047
-0.12024969 -0.66708523 -0.00000023
-0.50722528 0.17414729 -0.12962325
-0.33018857 -0.69163769 -0.00000159
-0.27735689 0.49009264 -0.07787452
-0.32777134 -0.06871011 0.00000076
-0.50633144 -0.78465348 -0.00000300
-0.49635527 0.13758054 -0.11602410
-0.47919664 -0.73880225 -0.00000266
-0.03353547 0.11170030 -0.00000847
-0.49979594 0.12811764 -0.11577372
-0.11372860 -0.16382451 0.00000170
-0.39253798 0.10597028 -0.05491324
-0.52976394 0.11545638 -0.12869707
-0.30020997 -0.74828279 -0.00000162
-0.06203299 0.57189596 0.00000274
-0.23731942 -0.34454507 0.00000028
-0.18675049 -0.46823025 0.00000012
-0.56995666 -0.28109562 -0.06384711
-0.23343125 0.38204971 -0.03152109
-0.56994075 -0.36919007 -0.04476507
-0.59905183 -0.28602311 -0.07798869
-0.70260614 -0.47432387 -0.09134808
-0.45262668 -0.36585462 -0.00000110
-0.33351585 -0.30148980 -0.00000014
-0.27377677 -0.68990546 -0.00000124
-0.75653225 -0.45556289 -0.12359681
-0.33756942 -0.07230683 0.00000069
-0.40411270 -0.09986463 -0.01639725
-0.18587604 0.43684360 -0.01852698
-0.70690596 -0.67415744 -0.05032816
-0.74879807 -0.07726016 -0.20146327
-0.35128036 -0.55908054 -0.00000122
-0.26456681 -0.52229840 -0.00000056
-0.24970831 0.40525529 -0.04505369
-0.65418696 -0.46792471 -0.06742429
-0.13438958 0.15438700 -0.00000447
-0.49830583 -0.10268959 -0.06502170
-0.68579078 -0.25687072 -0.12964030
-0.51078653 -0.37278271 -0.01306645
-0.00373646 -0.00274192 0.00000301
-0.36916095 -0.02000691 -0.01541784
-0.45088384 -0.58251297 -0.00000191
-0.17530140 0.32830709 0.00000068
-0.03699552 0.64605433 0.00000365
-0.02672866 -0.79402208 -0.00000014
-0.35636556 0.32771501 -0.08401635
-0.24701954 -0.04077462 0.00000136
-0.31689429 0.04892581 -0.00302225
-0.64465219 -0.35801953 -0.08623638
-0.45972088 -0.76013553 -0.00000263
-0.64844793 -0.04446730 -0.15610911
-0.01068226 0.78699690 -0.00276396
-0.36739036 0.13265488 -0.04754582
-0.27908415 -0.61351252 -0.00000099
-0.33707181 -0.24323140 0.00000005
-0.73244160 -0.37818000 -0.12775958
-0.57773089 -0.52097273 -0.01597393
-0.25155625 0.11696863 -0.00000178
-0.53957403 -0.63479954 -0.00000264
-0.55554366 0.18513791 -0.15725951
-0.46975800 -0.28879017 -0.00980586
-0.72369170 -0.47240269 -0.10278527
-0.39990020 0.01086826 -0.03817060
-0.66913795 -0.81545007 0.07996691
-0.23098120 -0.77450758 -0.00000130
-0.33806080 -0.09232406 0.00000061
-0.52995509 -0.10789811 -0.08043751
-0.57685405 0.02930196 -0.13465808
-0.52277440 -0.50446528 -0.00000205
-0.29557481 -0.56555063 -0.00000090
-0.28411448 -0.43730715 -0.00000035
-0.72141188 -0.01324237 -0.20100904
-0.15575612 0.55421352 -0.02819516
-0.55532777 -0.13608658 -0.08759695
-0.07617072 -0.16677915 0.00000191
-0.43809915 -0.18142585 -0.01650326
-0.58247888 -0.02404857 -0.12604709
-0.71610063 -0.11228910 -0.17678770
-0.30546939 -0.46041924 -0.00000057
-0.10128082 0.27081725 -0.00000285
-0.29689875 -0.78716505 -0.00000174
-0.19832300 0.06127203 -0.00000464
-0.11586806 0.41934454 0.00000093
-0.60389704 -0.68584627 -0.00000322
-0.46332017 -0.43229204 -0.00000142
-0.67499691 -0.08380314 -0.16146983
-0.59582990 -0.44454440 -0.04198239
-0.41377613 -0.44477090 -0.00000117
-0.17755312 -0.22879247 0.00000107
-0.40616217 -0.11986445 -0.01313829
-0.38082016 -0.20343046 -0.00000006
-0.34412283 -0.05644718 0.00000071
-0.09669295 -0.03351696 0.00000229
-0.09573626 -0.76035905 -0.00000043
-0.00853660 -0.06296838 0.00000271
-0.14880542 -0.36842254 0.00000072
-0.36011735 0.30632401 -0.08134601
-0.46090519 -0.50739658 -0.00000168
-0.33006352 -0.54599994 -0.00000104
-0.38463947 -0.31357983 -0.00000050
-0.49549016 -0.19625273 -0.04329214
-0.04400178 -0.56073511 0.00000063
-0.40770882 -0.20720384 -0.00000024
-0.69243407 0.01101892 -0.19111487
-0.42438939 0.22718821 -0.09780787
-0.31280020 -0.42010498 -0.00000046
-0.01583068 -0.13480932 0.00000240
-0.37693000 -0.72688925 -0.00000200
-0.10789710 0.06670925 -0.00000724
-0.42637625 -0.49842680 -0.00000144
-0.18097991 -0.09141728 0.00000156
-0.06310902 -0.02320032 0.00000253
-0.69106805 -0.54398268 -0.07023491
-0.53177065 -0.25432003 -0.04968404
-0.52721888 0.09249644 -0.12239558
-0.27434525 0.24410607 -0.02304063
-0.38804632 0.02950486 -0.03600951
-0.68896401 -0.12286340 -0.16031355
-0.12789971 0.43143359 0.00000157
-0.46189749 -0.02589050 -0.06261867
-0.01406627 -0.02714391 0.00000281
-0.16158560 -0.67536926 -0.00000051
-0.10570187 -0.25206834 0.00000142
-0.69657499 -0.21901777 -0.14347307
-0.38171098 -0.39150310 -0.00000077
-0.46355891 -0.34149265 -0.00000108
-0.25727618 -0.69151407 -0.00000115
-0.71638542 -0.58694685 -0.07416557
-0.18610041 -0.04787899 0.00000170
-0.51758361 0.04052882 -0.10610735
-0.22899806 -0.15132281 0.00000105
-0.19537126 0.22992538 -0.00000093
-0.45233244 -0.03221314 -0.05624993
-0.42728916 -0.74412411 -0.00000237
-0.56113392 -0.18466213 -0.08011459
-0.45396519 -0.05201256 -0.05281654
-0.66052103 -0.28953031 -0.10936017
-0.72297949 -0.44001195 -0.10942613
-0.39499187 -0.64955294 -0.00000182
-0.02575845 -0.14188583 0.00000231
-0.03718835 -0.65330553 0.00000033
-0.69677806 -0.77190083 -0.02387127
-0.32265127 -0.11631521 0.00000062
-0.56963927 -0.11401669 -0.09985624
-0.73900610 -0.14081685 -0.18258399
-0.22496507 0.48369929 -0.04910432
-0.32001638 0.09806229 -0.01529297
-0.49128115 -0.51139718 -0.00000188
-0.07263020 0.28451037 -0.00000341
-0.19433001 -0.45716652 0.00000011
-0.13857196 -0.08802789 0.00000183
-0.72294027 -0.01412881 -0.20161602
-0.23643275 0.43291551 -0.04410321
-0.39930388 -0.54909700 -0.00000147
-0.16617706 -0.58089143 -0.00000018
-0.27870905 -0.00630395 0.00000129
-0.49688077 -0.31993198 -0.01724067
-0.01002572 0.42706108 -0.00000209
-0.75231248 -0.55334991 -0.10021862
-0.39337635 0.25353324 -0.08730099
-0.40182719 -0.06071695 -0.02367864
-0.34533635 -0.30925274 -0.00000024
-0.14133522 -0.58171099 -0.00000003
-0.05737955 0.10818429 -0.00000783
-0.29988566 -0.09165837 0.00000085
-0.11824653 0.28021592 -0.00000213
-0.73307675 -0.30129603 -0.14473826
-0.60651767 0.11501590 -0.16872197
-0.25499019 -0.12297568 0.00000100
-0.36611325 -0.52681231 -0.00000119
-0.00185272 -0.20788057 0.00000223
-0.21806943 -0.29500541 0.00000058
-0.24945664 -0.37680498 0.00000008
-0.55661935 -0.43676749 -0.02317028
-0.18860269 -0.25881621 0.00000089
-0.70736855 -0.40134916 -0.10963762
-0.43535417 -0.00495657 -0.05327659
-0.23506138 0.18698797 -0.00000070
-0.66084814 -0.79543734 0.12995365
-0.40260351 -0.26930001 -0.00000044
-0.59444714 -0.26813996 -0.07945373
-0.25038850 -0.44510171 -0.00000018
-0.48781368 0.20734142 -0.12666354
-0.75496787 -0.47539178 -0.11848584
-0.29619452 -0.14940058 0.00000065
-0.45883995 -0.46835414 -0.00000153
-0.31369072 -0.48675916 -0.00000072
-0.51426035 -0.21977016 -0.04801171
-0.64212233 -0.00487501 -0.16137491
-0.19027618 0.47900936 -0.02995649
-0.01400306 -0.32824874 0.00000168
-0.50906819 -0.32503822 -0.02250562
-0.64044172 -0.30326948 -0.09588968
-0.29240659 -0.40440860 -0.00000028
-0.29173493 -0.19710927 0.00000050
-0.55168945 -0.68616802 -0.00000290
-0.20743822 -0.12680173 0.00000127
-0.05448243 -0.54189569 0.00000064
-0.23176861 -0.22491544 0.00000076
-0.10342932 -0.24484946 0.00000146
-0.00086441 -0.00194535 0.00000299
-0.48026228 -0.15301736 -0.04469339
-0.01348066 -0.12077445 0.00000247
-0.21049073 0.13989983 -0.00000250
-0.42049828 -0.26564243 -0.00000053
-0.16306525 -0.29782981 0.00000090
-0.47209412 -0.79746252 -0.00000284
-0.21614850 -0.57496041 -0.00000046
-0.60079652 -0.20880307 -0.09561993
-0.56826109 0.03411985 -0.13120955
-0.02087323 0.04041335 -0.00001046
-0.41615188 0.22009224 -0.09196562
-0.15556699 -0.38872230 0.00000060
-0.63622487 -0.44444838 -0.06311819
-0.21680377 0.43323681 -0.03391243
-0.05609561 -0.27813447 0.00000162
-0.36691815 0.33660540 -0.09145725
-0.41628301 0.10290320 -0.06666103
-0.06636856 -0.53989655 0.00000057
-0.45650172 0.04298051 -0.07470980
-0.00758059 -0.34797984 0.00000165
-0.09259146 0.19074579 -0.00000491
-0.29850486 -0.48078054 -0.00000060
-0.66006273 -0.41839710 -0.08121908
-0.18218920 0.59916466 -0.05174469
-0.35199758 0.18389015 -0.05059297
-0.73374248 -0.71776003 -0.05491462
-0.20555338 -0.77786559 -0.00000116
-0.43664977 -0.03132358 -0.04824498
-0.56156975 -0.06076354 -0.10716825
-0.57676893 0.03734485 -0.13635498
-0.64654571 -0.71181118 -0.01062510
-0.21244437 0.25786200 0.00000021
-0.22887567 0.08285375 -0.00000323
-0.12845051 0.64787310 -0.03420079
-0.31847009 -0.38955209 -0.00000038
-0.19412339 0.19286089 -0.00000180
-0.14485897 -0.33168480 0.00000088
-0.39664391 -0.11361259 -0.00951658
-0.01155086 0.26354620 -0.00000572
-0.29095510 -0.16423017 0.00000063
-0.44523081 -0.18105848 -0.02031063
-0.43384826 -0.48062724 -0.00000142
-0.01487402 -0.26110214 0.00000193
-0.15520257 -0.20322932 0.00000130
-0.23421471 -0.33563694 0.00000033
-0.11743953 0.40299809 0.00000061
-0.44430220 -0.34010163 -0.00000096
-0.29508412 0.37587300 -0.06241058
-0.70921493 -0.30663997 -0.13110866
-0.77325433 -0.68331903 -0.08302420
-0.24753805 -0.48027810 -0.00000030
-0.59448314 -0.33152702 -0.06574833
-0.45365945 0.29346207 -0.12745690
-0.04978343 -0.67234415 0.00000018
-0.15323640 0.09203913 -0.00000530
-0.53255266 -0.66580009 -0.00000271
-0.15298963 -0.35275859 0.00000075
-0.04655293 0.19733161 -0.00000616
-0.51215613 -0.05658731 -0.08224326
-0.38209507 0.23697382 -0.07781876
-0.74268502 -0.74206191 -0.05432705
-0.20773128 0.10044750 -0.00000347
-0.15908369 -0.50791627 0.00000014
-0.37656549 -0.11902486 0.00000028
-0.57274711 -0.05443678 -0.11438065
-0.66133195 -0.56695813 -0.04971690
-0.30149391 -0.20224407 0.00000042
-0.03318017 -0.05918146 0.00000258
-0.15786670 -0.45198715 0.00000035
-0.60807258 -0.35193253 -0.06843363
-0.28077260 -0.30124363 0.00000018
-0.26257837 -0.52337742 -0.00000055
-0.20222817 -0.52635545 -0.00000019
-0.74390328 -0.45749199 -0.11657808
-0.42148256 -0.11824283 -0.02149758
-0.15681903 -0.54693580 0.00000000
-0.56367123 0.11868118 -0.14711913
-0.58465737 0.00569240 -0.13362516
-0.37389782 0.26420483 -0.07942984
-0.05656999 0.18546484 -0.00000612
-0.43198922 -0.16648388 -0.01654467
-0.41929150 -0.34283903 -0.00000082
-0.57347256 0.10551786 -0.14939237
-0.16288149 -0.59146440 -0.00000020
-0.60394555 0.07110223 -0.15786955
-0.35634637 0.40441787 -0.10061361
-0.37447715 0.31039384 -0.08973326
-0.17563906 -0.27654704 0.00000090
-0.08027620 -0.30341312 0.00000138
-0.04048974 -0.01450939 0.00000270
-0.24088001 -0.35528758 0.00000021
-0.55424696 -0.33152008 -0.04471779
-0.22007988 0.13966423 -0.00000222
-0.23756230 0.22808677 -0.00034524
-0.45117515 -0.40460888 -0.00000124
-0.69571811 -0.15899710 -0.15602051
-0.57100290 -0.14514005 -0.09383036
-0.23318866 -0.79658478 -0.00000139
-0.04625287 -0.33580390 0.00000146
-0.05035094 0.59188020 0.00000284
-0.39202458 -0.52883142 -0.00000135
-0.13872924 -0.21867388 0.00000134
-0.60527807 -0.30077705 -0.07804882
-0.11828853 0.04084405 -0.00000751
-0.40512300 -0.44512856 -0.00000111
-0.06012069 -0.61713827 0.00000032
-0.34119496 -0.00929697 -0.00311847
-0.49362639 0.02364328 -0.08992861
-0.29648089 0.46312252 -0.08203149
-0.32997924 -0.55170870 -0.00000106
-0.05293241 -0.19424462 0.00000195
-0.58571285 -0.27582768 -0.07322369
-0.74671167 -0.24013998 -0.16510645
-0.72012222 -0.23765010 -0.15174738
-0.41219473 -0.79683220 -0.00000248
-0.34714723 0.08221913 -0.02604438
-0.12902267 -0.42882356 0.00000061
-0.15998223 0.48799956 -0.01606793
-0.36790937 0.05666354 -0.03136389
-0.29899579 -0.57476813 -0.00000096
-0.23740847 -0.77353495 -0.00000133
-0.45340559 0.10839553 -0.08725470
-0.21297212 0.47558433 -0.04107842
-0.39225310 -0.08223791 -0.01401451
-0.22631302 -0.47733283 -0.00000016
-0.15782720 -0.05484088 0.00000184
-0.46747562 -0.02634544 -0.06543594
-0.61738032 -0.03623503 -0.14165202
-0.58118320 -0.20262347 -0.08670575
-0.26191807 -0.30144039 0.00000029
-0.39788353 -0.33692467 -0.00000066
-0.43942785 -0.68621588 -0.00000223
-0.20955420 0.00145630 -0.00000564
-0.59529454 -0.41962755 -0.04709742
-0.09738691 -0.10728562 0.00000201
-0.00388385 0.46370170 -0.00000145
-0.18865401 -0.46419743 0.00000012
-0.23258463 -0.43701747 -0.00000004
-0.30593619 -0.61444718 -0.00000115
-0.54152936 -0.65125519 -0.00000271
-0.00013534 -0.11872585 0.00000256
-0.24391592 -0.03268884 0.00000141
-0.22218262 0.45348951 -0.04110903
-0.11558204 0.29456753 -0.00000188
-0.73056221 -0.58445632 -0.08211487
-0.34000185 -0.40553951 -0.00000057
-0.16776843 -0.40292478 0.00000048
-0.56473905 -0.20394824 -0.07782331
-0.15936854 0.09084941 -0.00000515
-0.49234724 -0.00267206 -0.08356231
-0.26988012 -0.26799822 0.00000037
-0.58034700 -0.00370584 -0.12933722
-0.50400853 0.07571208 -0.10662915
-0.39910907 -0.03232640 -0.02840480
-0.07127135 -0.38040349 0.00000114
-0.51078397 -0.22775428 -0.04446590
-0.58801490 -0.19195008 -0.09258771
-0.17904298 -0.30975819 0.00000076
-0.29526302 -0.35058558 -0.00000010
-0.34127736 -0.10943067 0.00000053
-0.10401659 0.20807774 -0.00000418
-0.70931375 -0.54860884 -0.07877010
-0.51871401 -0.69946843 -0.00000275
-0.19592351 -0.70109564 -0.00000081
-0.70220745 -0.49157158 -0.08740523
-0.14337572 0.25909942 -0.00000184
-0.22906029 0.01833861 -0.00000467
-0.53240514 -0.52136403 -0.00000217
-0.73634386 -0.08378555 -0.19354057
-0.52907604 -0.65338594 -0.00000264
-0.28770950 -0.70991045 -0.00000140
-0.51109660 -0.08453248 -0.07563891
-0.51893079 0.04632660 -0.10806683
-0.06299332 0.40266249 -0.00000104
-0.08938762 -0.18174733 0.00000178
-0.19692071 0.13938040 -0.00000292
-0.15980980 0.33906141 0.00000045
-0.20343532 0.05551291 -0.00000461
-0.35036156 0.03944179 -0.01846264
-0.39159572 -0.00068097 -0.03132916
-0.36720270 0.04913382 -0.02936420
-0.10448236 0.00255498 -0.00000879
-0.49838227 -0.71466994 -0.00000269
-0.26378495 -0.08479779 0.00000109
-0.44309774 0.05676673 -0.07068826
-0.11379844 0.59416902 -0.01491424
-0.15338604 -0.02329250 0.00000199
-0.28114665 -0.78564382 -0.00000164
-0.36640280 0.38323462 -0.10128377
-0.46419153 -0.49550250 -0.00000166
-0.36949250 -0.04981945 -0.00913630
-0.15296848 0.48785487 -0.01237041
-0.58866239 -0.33921522 -0.06104113
-0.45396063 0.28394383 -0.12555359
-0.30559701 -0.58938634 -0.00000105
-0.19018959 0.34670264 -0.00126490
-0.51840836 -0.69230896 -0.00000273
-0.04052140 -0.34448737 0.00000146
-0.38967189 0.28029922 -0.09115984
-0.29565284 -0.75553197 -0.00000162
-0.64909977 -0.22271284 -0.11785708
-0.05772927 -0.78738290 -0.00000030
-0.10752845 -0.52349520 0.00000039
-0.09816784 -0.16852808 0.00000178
-0.40520313 -0.36066920 -0.00000080
-0.63585454 0.06947376 -0.17419624
-0.25218758 -0.31106234 0.00000031
-0.30435717 0.37300834 -0.06663749
-0.02613868 0.01760439 -0.00001082
-0.54807591 -0.19508979 -0.07103126
-0.13021447 -0.76892239 -0.00000067
-0.00122265 -0.08411806 0.00000268
-0.44164652 -0.09460247 -0.03715606
-0.17438054 0.51722908 -0.02992275
-0.51996106 -0.40515870 -0.01085224
-0.18767288 0.22165337 -0.00000135
-0.00419470 0.79300725 -0.00067414
-0.71828860 -0.73486972 -0.04313251
-0.23108928 -0.21997231 0.00000078
-0.31312481 0.21316567 -0.03661221
-0.31663671 -0.62874120 -0.00000127
-0.74450386 -0.10295307 -0.19365574
-0.48846117 -0.75688940 -0.00000279
-0.28888699 -0.32455871 0.00000004
-0.00103068 -0.05594409 0.00000278
-0.19794257 -0.63709122 -0.00000058
-0.36449981 -0.46576607 -0.00000095
-0.67328089 -0.68645978 -0.03008892
-0.24510112 -0.47092250 -0.00000025
-0.11781861 -0.46005651 0.00000056
-0.43985489 -0.13880302 -0.02664948
-0.20757405 -0.52065301 -0.00000021
-0.09141456 -0.61653799 0.00000014
-0.36681250 -0.48064440 -0.00000102
-0.17380796 0.33547303 0.00000079
-0.41053906 -0.55787343 -0.00000157
-0.55183178 -0.63520008 -0.00000271
-0.59009069 -0.25251615 -0.08055935
-0.40308928 0.19689600 -0.08011530
-0.00691671 -0.70364094 0.00000032
-0.61300468 -0.63985896 -0.00867146
-0.13886926 0.07550134 -0.00000611
-0.05663258 0.20636204 -0.00000565
-0.33093700 -0.61568272 -0.00000131
-0.65311164 -0.65121520 -0.02717714
-0.22022322 -0.56259423 -0.00000044
-0.02289442 -0.74478883 0.00000007
-0.40384045 0.04012747 -0.04656527
-0.20958433 -0.61564726 -0.00000057
-0.32698917 -0.79662246 -0.00000196
-0.38102490 -0.37221614 -0.00000070
-0.48304942 -0.30717194 -0.01277356
-0.14569946 -0.23369822 0.00000124
-0.44983366 -0.67747515 -0.00000226
-0.37712386 -0.40782380 -0.00000081
-0.72595066 -0.79075044 -0.03503827
-0.18874444 -0.04117491 0.00000171
-0.58573598 -0.50064820 -0.02455888
-0.29774740 -0.54789817 -0.00000085
-0.64805144 -0.58746618 -0.03833469
-0.42536077 -0.56845754 -0.00000170
-0.42445284 -0.09234323 -0.02865783
-0.64673603 -0.61910915 -0.03079594
-0.34194252 -0.32952157 -0.00000030
-0.10361315 -0.21599846 0.00000156
-0.63919872 -0.19578615 -0.11851168
-0.63038874 0.05337476 -0.16785350
-0.54272842 -0.40873477 -0.02197878
-0.49558058 -0.24771301 -0.03219751
-0.32967708 -0.39241242 -0.00000046
-0.52255255 -0.14768648 -0.06795333
-0.58381766 -0.24376327 -0.07917546
-0.05378983 0.27930740 -0.00000409
-0.41897225 -0.49463749 -0.00000138
-0.02490180 0.76579779 -0.00560674
-0.30529618 -0.32946092 -0.00000008
-0.15798885 0.12752394 -0.00000436
-0.57523596 -0.00301521 -0.12681513
-0.39297560 -0.56991094 -0.00000151
-0.39599943 0.34123245 -0.10766026
-0.67942309 -0.65763348 -0.03954084
-0.14323068 0.41792184 0.00000173
-0.48937222 -0.74081951 -0.00000273
-0.35096830 0.38460472 -0.09351257
-0.30920905 0.21154937 -0.03421543
-0.14559843 0.02276453 -0.00000709
-0.67190522 -0.59187740 -0.04984832
-0.19925021 0.44072416 -0.02635805
-0.01455095 0.21255192 -0.00000678
-0.72956055 -0.64863735 -0.06769503
-0.03822282 -0.66082621 0.00000029
-0.00066521 -0.24388072 0.00000209
-0.10207699 -0.12440882 0.00000192
-0.50852662 0.12451396 -0.11955713
-0.00928168 0.59951258 0.00000177
-0.68987519 0.02432848 -0.19265901
-0.52929664 -0.15339768 -0.07024201
-0.55964494 -0.18615773 -0.07901246
-0.48864159 0.23219582 -0.13247763
-0.15187971 -0.17119819 0.00000144
-0.24379641 -0.03990117 0.00000138
-0.25125837 -0.34983140 0.00000017
-0.69748420 -0.23582168 -0.14031005
-0.24755418 -0.67139572 -0.00000101
-0.29351234 -0.32855535 -0.00000000
-0.23069407 0.31010780 -0.01451386
-0.51124454 -0.64269882 -0.00000250
-0.12224715 0.40609905 0.00000083
-0.40314308 0.22853512 -0.08699374
-0.31932414 0.11705084 -0.01904242
-0.38819638 -0.68277508 -0.00000190
-0.12350554 0.04326372 -0.00000730
-0.60331148 -0.10752357 -0.11886303
-0.55016071 -0.31785953 -0.04553955
-0.65640301 -0.27863455 -0.10956671
-0.39784989 -0.41126618 -0.00000094
-0.60044402 -0.35866973 -0.06298737
-0.07723796 -0.74197966 -0.00000025
-0.19661462 -0.10272616 0.00000143
-0.10959106 0.44050750 0.00000122
-0.61649191 -0.46875516 -0.04754076
-0.07003878 -0.18245491 0.00000189
-0.24667981 -0.71792704 -0.00000118
-0.68056303 -0.16065395 -0.14774001
-0.33152354 -0.59061265 -0.00000122
-0.44427273 0.25571686 -0.11437805
-0.61610907 -0.32836708 -0.07773668
-0.02353050 -0.28244096 0.00000180
-0.57679570 0.11796175 -0.15382369
-0.36763176 0.01447558 -0.02208446
-0.77002788 -0.75395578 -0.06604369
-0.21966541 -0.26213220 0.00000069
-0.13116670 -0.66871285 -0.00000030
-0.74562955 -0.46432352 -0.11600125
-0.05917918 0.55899346 0.00000236
-0.02494764 0.32480749 -0.00000394
-0.54170191 -0.06706176 -0.09541940
-0.75439751 -0.21010906 -0.17562596
-0.18915844 0.48405761 -0.03046525
-0.51627260 -0.02678179 -0.09084833
-0.28788337 0.44449374 -0.07350403
-0.39997205 -0.26014045 -0.00000039
-0.29618987 0.40895465 -0.07015123
-0.34639856 -0.61302745 -0.00000139
-0.34437057 0.17436868 -0.04454470
-0.58707350 -0.56059802 -0.01227799
-0.12137527 -0.18153749 0.00000159
-0.60327435 -0.26583847 -0.08456613
-0.75112599 -0.18479064 -0.17939785
-0.04004928 0.24198498 -0.00000535
-0.16163139 0.20553605 -0.00000250
-0.44201130 0.01477264 -0.06102803
-0.63660872 -0.05922460 -0.14672542
-0.43202800 0.07005456 -0.06777897
-0.47756034 -0.35856077 -0.00000123
-0.20526254 0.14273167 -0.00000259
-0.17687950 0.27316532 -0.00000052
-0.56327355 -0.20526229 -0.07677278
-0.50634015 -0.28010222 -0.03080895
-0.15686977 0.52738905 -0.02296939
-0.46831575 0.14887302 -0.10381243
-0.37391314 -0.19508979 0.00000001
-0.13344535 -0.76350188 -0.00000067
-0.00077418 -0.50392389 0.00000111
-0.18953994 0.03377143 -0.00000552
-0.20741527 0.53799349 -0.05168627
-0.44945556 0.29684752 -0.12599246
-0.09093114 0.61004114 -0.00639772
-0.48439547 -0.19697677 -0.03733602
-0.19693285 0.43918878 -0.02481430
-0.45528355 -0.28260612 -0.00357880
-0.08601275 -0.18482503 0.00000179
-0.19832198 -0.71293890 -0.00000087
-0.73572206 -0.78671992 -0.04101834
-0.77781498 -0.79151291 -0.06198218
-0.49516490 -0.13957332 -0.05539403
-0.03269299 0.17275949 -0.00000713
-0.45203283 -0.65791285 -0.00000220
-0.04862729 -0.33556515 0.00000145
-0.57524496 0.10291657 -0.14975561
-0.06352786 0.49573302 0.00000107
-0.09202323 0.39152730 -0.00000041
-0.01562560 -0.62334204 0.00000057
-0.20931330 -0.39442798 0.00000026
-0.29009664 0.41159183 -0.06753720
-0.42291361 -0.25509039 -0.00000051
-0.68924654 -0.47493440 -0.08423271
-0.44492865 -0.35415897 -0.00000101
-0.25919086 0.07117002 -0.00000258
-0.21815296 0.15215068 -0.00000199
-0.24192508 -0.52561861 -0.00000043
-0.14010772 -0.30819708 0.00000100
-0.24075986 0.04463231 -0.00000373
-0.38672283 0.19388188 -0.07090772
-0.24355552 0.44320863 -0.05005499
-0.34976274 -0.79770988 -0.00000210
-0.31688771 -0.32902288 -0.00000015
-0.65639395 -0.29427463 -0.10617568
-0.00882404 -0.40376237 0.00000143
-0.11425088 0.62053663 -0.02085970
-0.61069334 -0.35567757 -0.06899269
-0.04195207 0.24294432 -0.00000527
-0.37307525 -0.26283005 -0.00000024
-0.35885498 -0.32765791 -0.00000039
-0.18147089 0.41878387 -0.01231415
-0.65151268 -0.32807902 -0.09630503
-0.16346741 0.26701534 -0.00000106
-0.27500719 0.22394314 -0.01902105
-0.73977262 -0.26340666 -0.15644182
-0.70924151 -0.31959063 -0.12831856
-0.69208807 -0.79292220 -0.01686837
-0.65632266 -0.78451198 0.09888547
-0.72164977 -0.69426697 -0.05368055
-0.77190202 -0.62490523 -0.09496493
-0.54724538 -0.74815434 -0.00000311
-0.37800810 -0.74659842 -0.00000208
-0.21128716 -0.35394272 0.00000040
-0.36577514 -0.29707462 -0.00000032
-0.32509094 0.09889911 -0.01812669
-0.23299943 -0.15233490 0.00000102
-0.57704020 -0.39523730 -0.04283646
-0.51216245 0.04151584 -0.10348733
-0.32013440 -0.46830735 -0.00000069
-0.24079615 -0.49528486 -0.00000031
-0.23644221 -0.47730595 -0.00000022
-0.01222109 0.46652511 -0.00000113
-0.08259342 -0.04855873 0.00000232
-0.31947014 0.01805946 -0.00000195
-0.07340006 0.21214448 -0.00000501
-0.32804289 -0.00738544 0.00000099
-0.65348315 -0.09575554 -0.14763641
-0.69016492 -0.60675728 -0.05617105
-0.33754641 -0.71563053 -0.00000172
-0.28052384 0.40691662 -0.06152110
-0.12054752 -0.27146664 0.00000125
-0.55041146 0.09667375 -0.13542314
-0.28627753 0.05748984 -0.00000207
-0.06330060 -0.17600103 0.00000196
-0.00822048 -0.46473801 0.00000121
-0.56015241 0.06459685 -0.13356973
-0.08452332 -0.40905151 0.00000096
-0.13583890 -0.18923195 0.00000147
-0.62067318 -0.55620307 -0.03079258
-0.65053356 0.03390433 -0.17416786
-0.50448304 -0.34331015 -0.01615276
-0.74157226 -0.13437928 -0.18531913
-0.29640561 -0.73106104 -0.00000153
-0.51851302 -0.31763786 -0.02904488
-0.01688376 -0.41276613 0.00000135
-0.35356829 -0.45968592 -0.00000086
-0.53708506 -0.00827701 -0.10573387
-0.35154453 0.23113009 -0.06058430
-0.16249013 0.35069931 0.00000079
-0.17111687 0.11068199 -0.00000435
-0.00726459 0.37753677 -0.00000329
-0.09746511 0.29054165 -0.00000252
-0.13013832 -0.42078301 0.00000064
-0.09875585 0.66091120 -0.02150191
-0.20929569 -0.72100765 -0.00000097
-0.24061511 0.17674430 -0.00000076
-0.13167866 0.09110321 -0.00000598
-0.03940664 0.50300330 0.00000051
-0.36132699 0.06158449 -0.02898863
-0.39360011 -0.13036345 -0.00429874
-0.00841445 -0.16011301 0.00000235
-0.52033049 -0.26208553 -0.04202277
-0.04827042 0.66387057 0.00000439
-0.75166816 -0.14460263 -0.18838261
-0.22524571 -0.49978581 -0.00000023
-0.06541815 -0.58139205 0.00000042
-0.55454206 0.07598259 -0.13310230
-0.13441963 -0.64155060 -0.00000022
-0.11498444 0.52829069 -0.00127055
-0.47780332 -0.26977673 -0.01812795
-0.04866692 0.69163102 -0.00197100
-0.36836618 0.17215624 -0.05660852
-0.08005406 -0.65432578 0.00000006
-0.22198951 0.12936413 -0.00000239
-0.64430815 -0.24408896 -0.11072418
-0.05396727 -0.08211313 0.00000237
-0.55737895 -0.63240612 -0.00000274
-0.23032612 -0.09461450 0.00000126
-0.67829782 -0.48768356 -0.07574928
-0.56105196 -0.44372621 -0.02398063
-0.23441614 -0.14747173 0.00000103
-0.01033125 0.51633728 -0.00000007
-0.16566046 -0.33773285 0.00000073
-0.70254695 -0.59764397 -0.06461622
-0.53231138 -0.11319257 -0.08052284
-0.73046410 -0.08997922 -0.18912610
-0.24480212 -0.74344766 -0.00000127
-0.01901467 -0.28922114 0.00000180
-0.59355515 0.13648047 -0.16659369
-0.31801948 -0.61349910 -0.00000122
-0.22357042 -0.78376544 -0.00000129
-0.28576589 0.17729734 -0.01454529
-0.52089614 -0.05625512 -0.08688371
-0.07075965 0.33382833 -0.00000235
-0.03613161 0.64983165 0.00000371
-0.08914491 0.42841265 0.00000033
-0.27221262 0.34957913 -0.04476231
-0.56270331 -0.62365013 -0.00000273
-0.71702433 -0.52238792 -0.08847763
-0.35945833 -0.45337024 -0.00000087
-0.44575158 -0.19726677 -0.01707351
-0.33179656 -0.07924633 0.00000070
-0.25180483 -0.53508395 -0.00000053
-0.72083318 -0.36047316 -0.12552580
-0.16293405 -0.18586317 0.00000132
-0.45367789 -0.13696791 -0.03427228
-0.72943467 -0.62403506 -0.07295606
-0.20187628 0.12244522 -0.00000315
-0.18969978 0.02090296 -0.00000581
-0.09002553 -0.51478505 0.00000053
-0.51913601 -0.29622641 -0.03400642
-0.61889333 -0.66010416 -0.00736616
-0.02795829 -0.07248438 0.00000256
-0.65834999 0.01436661 -0.17402343
-0.67512590 -0.29980806 -0.11476906
-0.38612098 0.07417420 -0.04467466
-0.06275489 0.64005089 0.00000429
-0.55137885 -0.49560696 -0.00769140
-0.22092059 -0.06699164 0.00000142
-0.08817536 -0.76232511 -0.00000039
-0.37136832 -0.16363417 0.00000014
-0.16682595 -0.75191867 -0.00000083
-0.48667845 0.20135468 -0.12477391
-0.57839161 -0.32266656 -0.05925549
-0.15314513 -0.05900610 0.00000185
-0.19853869 -0.65419656 -0.00000065
-0.45548758 0.07897724 -0.08197351
-0.72350061 -0.11896357 -0.17921066
-0.67372996 -0.21940780 -0.13144723
-0.71973234 -0.22262615 -0.15479648
-0.25838053 -0.62206829 -0.00000089
-0.58874714 -0.10173718 -0.11250289
-0.26147780 -0.44775033 -0.00000026
-0.39116111 -0.58971089 -0.00000157
-0.57317865 -0.15013531 -0.09388609
-0.41849241 -0.30549720 -0.00000067
-0.03546109 0.17326607 -0.00000703
-0.36618808 0.18547124 -0.05835289
-0.52868944 -0.07367267 -0.08718623
-0.73552746 -0.55882841 -0.09025906
-0.29247591 0.03842575 -0.00000231
-0.04060152 0.51667643 0.00000085
-0.55547863 0.18153916 -0.15644643
-0.11567081 -0.55504447 0.00000022
-0.56636256 -0.53480297 -0.00703710
-0.18911228 0.03312065 -0.00000555
-0.43451726 -0.03008870 -0.04739766
-0.55715656 -0.48868424 -0.01221037
-0.06920947 0.60356361 0.00000367
-0.73219311 -0.63238925 -0.07258905
-0.72693032 -0.21791615 -0.15957874
-0.34753731 -0.63206029 -0.00000147
-0.33514351 0.09676978 -0.02292029
-0.03231453 -0.41519046 0.00000125
-0.36172903 -0.38920695 -0.00000064
-0.23549606 -0.73787886 -0.00000119
-0.21036062 -0.49481922 -0.00000013
-0.21227734 0.33799094 -0.01092428
-0.62519252 -0.31345257 -0.08571395
-0.72702640 -0.16669533 -0.17071903
-0.44218481 -0.07039064 -0.04267964
-0.69005954 -0.39949435 -0.10099157
-0.32082999 -0.76267868 -0.00000180
-0.03608287 -0.43907225 0.00000114
-0.42643639 -0.48889971 -0.00000141
-0.76381993 -0.37137398 -0.14563437
-0.66990173 -0.79884607 -0.00398917
-0.22186837 0.54598927 -0.06097231
-0.38229895 -0.47970349 -0.00000111
-0.38432777 -0.18774296 -0.00000002
-0.43418157 -0.79445350 -0.00000260
-0.09028257 -0.31111532 0.00000129
-0.65546292 -0.66740704 -0.02490041
-0.50844467 -0.70616692 -0.00000272
-0.19103763 -0.39115575 0.00000038
-0.41695452 -0.20845930 -0.00000030
-0.27492434 -0.20966493 0.00000055
-0.74573320 -0.39808661 -0.13039684
-0.03345441 -0.77526480 -0.00000011
-0.41348508 -0.58877695 -0.00000170
-0.05547363 0.56741166 0.00000244
-0.54385465 0.01210854 -0.11368619
-0.11222892 0.22405012 -0.00000357
-0.13055483 0.60215938 -0.02540306
-0.33522230 -0.48687172 -0.00000085
-0.31280601 -0.75556672 -0.00000172
-0.46670404 -0.12849548 -0.04291566
-0.09805423 -0.58801484 0.00000020
-0.18896222 -0.73101246 -0.00000088
-0.28779694 0.33037186 -0.04874980
-0.43592295 -0.33559394 -0.00000089
-0.17466633 0.46990368 -0.01982550
-0.56862652 -0.76351160 -0.00000330
-0.48818219 -0.63106811 -0.00000231
-0.58323675 -0.66348678 -0.00000301
-0.49549177 0.00983580 -0.08791414
-0.54970843 -0.38440314 -0.03089550
-0.18751293 0.52289003 -0.03801291
-0.35010147 -0.58967423 -0.00000132
-0.45542958 -0.40304875 -0.00000126
-0.14714088 0.09090252 -0.00000551
-0.63200516 -0.74101794 -0.00000359
-0.19322395 -0.72113031 -0.00000087
-0.37641326 -0.75295871 -0.00000210
-0.54879522 0.12560637 -0.14084265
-0.38187748 -0.68320435 -0.00000187
-0.40780717 -0.14721304 -0.00807679
-0.07514254 -0.00032625 0.00000255
-0.44114476 -0.43737304 -0.00000130
-0.68990946 -0.46457955 -0.08682120
-0.64215416 -0.30151105 -0.09716554
-0.31266117 -0.50280857 -0.00000077
-0.43969521 -0.21913613 -0.00917273
-0.48634031 -0.03587671 -0.07323311
-0.53751564 -0.74280256 -0.00000303
-0.30112031 -0.16072959 0.00000058
-0.59510422 -0.60262436 -0.00737645
-0.69328934 -0.02832601 -0.18304317
-0.35296658 -0.79100251 -0.00000210
-0.64458400 -0.72036445 -0.00774781
-0.36842373 -0.79159141 -0.00000219
-0.46332663 -0.48649603 -0.00000162
-0.35957867 -0.36108235 -0.00000052
-0.52321196 0.01048655 -0.10254478
-0.18579081 0.14875542 -0.00000305
-0.51844424 0.07254855 -0.11348994
-0.35912392 0.29326275 -0.07799878
-0.12293872 0.46954536 0.00000227
-0.63976467 -0.09368739 -0.14091337
-0.70343947 -0.31775320 -0.12568359
-0.00763982 -0.12372901 0.00000257
-0.49162415 -0.04131713 -0.07481712
-0.61012197 -0.08701947 -0.12686241
-0.37965235 0.27229658 -0.08418980
-0.10198141 -0.42882320 0.00000078
-0.03932316 0.70310682 0.00000501
-0.07637349 0.50448406 0.00000166
-0.71672243 -0.60296679 -0.07087312
-0.58393663 -0.27571794 -0.07231899
-0.21029009 0.38717252 -0.02053404
-0.02501447 -0.68094528 0.00000030
-0.05700051 -0.49115026 0.00000081
-0.06716816 -0.34668425 0.00000129
-0.15474685 -0.59433031 -0.00000016
