ply
format ascii 1.0
element vertex 1102
property float x
property float y
property float z
end_header
-0.76692790 -0.10325052 -0.00000168
-0.14918244 -0.59677291 0.00000000
-0.49074727 -0.57861853 0.00000000
-0.66060162 -0.22177261 -0.00000101
-0.26804164 0.52088159 -0.00000065
-0.24503464 0.07999882 0.00000000
-0.23060204 0.39999485 -0.00000028
-0.52230418 0.24088164 -0.00000124
-0.39970630 -0.48515636 0.00000000
-0.32057840 -0.34213683 0.00000000
-0.61881846 -0.44402063 -0.00000044
-0.57777619 -0.38566655 -0.00000037
-0.54651457 -0.07446618 -0.00000079
-0.64081073 -0.31858960 -0.00000076
-0.20224093 -0.04565642 0.00000000
-0.48722756 -0.44248345 0.00000000
-0.37805980 -0.17996871 0.00000000
-0.25488174 -0.73897415 0.00000000
-0.08581813 -0.10921670 0.00000000
-0.28842255 -0.79213405 0.00000000
-0.40681154 -0.79108131 0.00000000
-0.51558900 -0.24484508 -0.00000035
-0.25269955 0.35657164 -0.00000029
-0.38478258 -0.79950714 0.00000000
-0.03983875 -0.34230652 0.00000000
-0.04345355 0.29269266 0.00000000
-0.29726309 -0.47701198 0.00000000
-0.44495639 0.13592084 -0.00000073
-0.29238155 0.10422050 -0.00000002
-0.44756153 -0.35650921 0.00000000
-0.67936683 0.01584730 -0.00000151
-0.01887769 0.77535748 -0.00000004
-0.57906955 -0.11539085 -0.00000085
-0.26295778 0.45585129 -0.00000051
-0.60691833 -0.17571966 -0.00000087
-0.64516699 -0.75781345 0.00000000
-0.18326946 -0.66646892 0.00000000
-0.33925584 -0.50856680 0.00000000
-0.35465708 0.21271738 -0.00000048
-0.06743638 0.14364776 0.00000000
-0.63876736 -0.49992341 -0.00000043
-0.58422196 -0.25504562 -0.00000063
-0.50904977 -0.09959930 -0.00000058
-0.20188177 -0.53601217 0.00000000
-0.72157860 -0.11566984 -0.00000146
-0.13269778 0.37092265 0.00000000
-0.72216350 -0.35220492 -0.00000105
-0.24060152 -0.64267588 0.00000000
-0.02842238 0.37208807 0.00000000
-0.18407567 -0.45254534 0.00000000
-0.03072257 0.18075283 0.00000000
-0.00405537 0.47829810 0.00000000
-0.64719379 -0.75317353 -0.00000002
-0.19872466 -0.66746473 0.00000000
-0.23526824 -0.37632540 0.00000000
-0.62193811 -0.05198150 -0.00000115
-0.00273826 -0.62385255 0.00000000
-0.21172903 0.43532333 -0.00000026
-0.56314075 -0.17677997 -0.00000068
-0.06134167 -0.43163347 0.00000000
-0.40242282 0.33822185 -0.00000090
-0.43688893 -0.23826408 -0.00000003
-0.38526973 -0.50857073 0.00000000
-0.45891374 0.11425487 -0.00000075
-0.22288327 -0.01126726 0.00000000
-0.42833090 -0.67153054 0.00000000
-0.02432856 -0.48368841 0.00000000
-0.45069197 -0.11011214 -0.00000031
-0.13075633 0.00840658 0.00000000
-0.27692196 -0.47697899 0.00000000
-0.22070837 -0.55942911 0.00000000
-0.06116054 -0.71525490 0.00000000
-0.07418821 0.48932567 0.00000000
-0.51813185 -0.77837139 0.19890122
-0.26820594 0.17351574 -0.00000004
-0.58943862 0.19041757 -0.00000144
-0.69681710 -0.71012145 -0.00000022
-0.42782873 -0.67564464 0.00000000
-0.37723041 -0.46179855 0.00000000
-0.16694589 -0.20197503 0.00000000
-0.75587016 0.04087088 -0.00000188
-0.31612602 -0.41045511 0.00000000
-0.30359328 -0.39954469 0.00000000
-0.16693875 0.19433364 0.00000000
-0.04247243 0.63111377 0.00000000
-0.03264918 0.71871442 0.00000000
-0.07434456 0.55798048 0.00000000
-0.74744564 -0.78293878 -0.00000004
-0.50856858 -0.07866359 -0.00000062
-0.06884382 0.02085696 0.00000000
-0.21907625 0.11317082 0.00000000
-0.00723126 -0.66694188 0.00000000
-0.21414091 0.02939865 0.00000000
-0.30264005 -0.40149364 0.00000000
-0.12299874 -0.66070950 0.00000000
-0.45497811 0.26259321 -0.00000099
-0.46592045 0.20219897 -0.00000093
-0.18100750 0.37486640 -0.00000002
-0.17971376 0.62001574 -0.00000044
-0.60134619 0.19062310 -0.00000149
-0.70134312 -0.75369310 -0.00000012
-0.21851243 -0.52731192 0.00000000
-0.09379781 -0.51572210 0.00000000
-0.25744396 0.52153599 -0.00000061
-0.75172019 -0.31409231 -0.00000121
-0.68091083 -0.22202311 -0.00000110
-0.13517052 -0.59688765 0.00000000
-0.08482198 0.05868796 0.00000000
-0.59585875 0.12839951 -0.00000136
-0.50118208 -0.51333588 0.00000000
-0.40907046 -0.40692401 0.00000000
-0.08361653 0.03161233 0.00000000
-0.07437026 0.36970094 0.00000000
-0.28968027 0.09071378 0.00000000
-0.33789772 0.13584626 -0.00000027
-0.07344748 -0.21803488 0.00000000
-0.20976108 -0.43208691 0.00000000
-0.76952392 -0.17510177 -0.00000156
-0.52106750 -0.47647491 0.00000000
-0.01465379 -0.40596521 0.00000000
-0.26343450 -0.33509049 0.00000000
-0.35586363 -0.17047387 0.00000000
-0.65773821 -0.06793541 -0.00000127
-0.07421674 -0.38280267 0.00000000
-0.03949801 -0.54305047 0.00000000
-0.11681907 -0.03222439 0.00000000
-0.01278180 -0.33072722 0.00000000
-0.09065472 -0.04934470 0.00000000
-0.48557594 -0.55282885 0.00000000
-0.79846579 -0.49708647 -0.00000076
-0.67051047 -0.22455946 -0.00000105
-0.09411564 0.58791971 -0.00000003
-0.43819809 -0.64689869 0.00000000
-0.65286708 -0.25694865 -0.00000092
-0.53445017 -0.38836256 -0.00000018
-0.67788482 -0.78103983 0.26022750
-0.46366784 -0.63283324 0.00000000
-0.19524781 0.32376808 0.00000000
-0.60972100 -0.48859742 -0.00000032
-0.35917875 -0.64691603 0.00000000
-0.04033432 0.37441388 0.00000000
-0.05453132 0.03920373 0.00000000
-0.15791121 0.44164932 -0.00000004
-0.74993140 -0.11555940 -0.00000158
-0.00181110 0.35290167 0.00000000
-0.50318152 -0.61951828 0.00000000
-0.25416717 -0.30165067 0.00000000
-0.68092495 0.11561253 -0.00000164
-0.26707405 0.37121120 -0.00000038
-0.36740571 0.10218360 -0.00000033
-0.53943837 -0.16884349 -0.00000059
-0.36171550 0.34003627 -0.00000073
-0.03187105 -0.02288024 0.00000000
-0.58442599 -0.41250354 -0.00000035
-0.02572195 0.36072189 0.00000000
-0.78715020 -0.44156629 -0.00000090
-0.70547074 -0.24744970 -0.00000116
-0.12837733 -0.68018323 0.00000000
-0.38473716 -0.49566001 0.00000000
-0.02465110 0.43696734 0.00000000
-0.22550885 -0.57542127 0.00000000
-0.04825825 -0.26042902 0.00000000
-0.18937723 -0.32964617 0.00000000
-0.35342062 -0.53856677 0.00000000
-0.00532811 0.37871835 0.00000000
-0.06465163 -0.33428141 0.00000000
-0.23886016 -0.43301898 0.00000000
-0.27591303 -0.50006825 0.00000000
-0.40516043 -0.15237363 -0.00000005
-0.27264011 -0.01468058 0.00000000
-0.48071820 -0.69078040 0.00000000
-0.39862159 0.28969830 -0.00000080
-0.00931929 0.25830004 0.00000000
-0.75017649 -0.17944650 -0.00000147
-0.11121290 -0.42214197 0.00000000
-0.56266177 -0.45095959 -0.00000019
-0.74357533 -0.36928234 -0.00000108
-0.33389100 -0.01591091 0.00000000
-0.61631936 -0.12059770 -0.00000100
-0.56932187 0.04401690 -0.00000109
-0.40063632 0.02196934 -0.00000033
-0.79257613 -0.40618867 -0.00000098
-0.23636118 -0.39579943 0.00000000
-0.21904309 0.54216319 -0.00000048
-0.21494246 -0.46791267 0.00000000
-0.21446005 0.55338681 -0.00000048
-0.12141892 0.15494256 0.00000000
-0.29316273 0.43757549 -0.00000061
-0.02524517 -0.46720681 0.00000000
-0.21285114 0.25931734 0.00000000
-0.70518118 -0.46065927 -0.00000078
-0.49106243 -0.79809773 0.18850978
-0.11460805 -0.29430327 0.00000000
-0.47125325 -0.14785624 -0.00000034
-0.55939436 -0.58907378 0.00000000
-0.16422333 -0.15200716 0.00000000
-0.06424365 -0.20710699 0.00000000
-0.64420801 -0.77898741 0.24729960
-0.79894143 -0.69934934 -0.00000025
-0.41318566 -0.36302924 0.00000000
-0.29977801 -0.60519844 0.00000000
-0.46796408 -0.77988327 0.17964274
-0.10780226 0.28849876 0.00000000
-0.41215816 -0.70464897 0.00000000
-0.56901926 -0.28824791 -0.00000050
-0.06459410 -0.72273970 0.00000000
-0.47528505 -0.02844798 -0.00000056
-0.26079634 0.06048880 0.00000000
-0.22185729 -0.39589477 0.00000000
-0.78318095 -0.00405151 -0.00000192
-0.19541754 -0.01965629 0.00000000
-0.36850628 -0.71495765 0.00000000
-0.63214815 -0.63544959 -0.00000016
-0.31498298 -0.70351523 0.00000000
-0.21575740 0.34287819 -0.00000011
-0.75271827 -0.64945292 -0.00000038
-0.13784710 -0.56655592 0.00000000
-0.27371383 0.29399654 -0.00000027
-0.68813062 -0.74328464 -0.00000014
-0.60133022 -0.52713758 -0.00000022
-0.79388070 -0.29712826 -0.00000126
-0.22036365 0.34921324 -0.00000014
-0.73211789 0.03647917 -0.00000177
-0.16029786 -0.14822753 0.00000000
-0.42361948 -0.09886832 -0.00000022
-0.27834091 -0.00818482 0.00000000
-0.13526134 0.64268094 -0.00000030
-0.31202927 -0.14456619 0.00000000
-0.31722376 -0.49715409 0.00000000
-0.17357908 -0.70801246 0.00000000
-0.28437370 0.06864668 0.00000000
-0.53762859 -0.43799403 -0.00000011
-0.50547528 -0.04628897 -0.00000066
-0.72312886 -0.70766211 -0.00000023
-0.43477535 0.20260328 -0.00000080
-0.19725332 0.16742697 0.00000000
-0.73859352 -0.70037574 -0.00000025
-0.14735195 0.22549351 0.00000000
-0.21989778 0.52155221 -0.00000045
-0.14839628 0.16479430 0.00000000
-0.52714974 -0.27248737 -0.00000035
-0.65595430 -0.16815495 -0.00000109
-0.41763949 0.07947610 -0.00000051
-0.69178826 -0.04350861 -0.00000146
-0.71336830 -0.18802693 -0.00000130
-0.31386894 -0.08067631 0.00000000
-0.18831508 -0.36727187 0.00000000
-0.20557646 -0.54530042 0.00000000
-0.78057665 -0.21209048 -0.00000147
-0.52580386 0.05159460 -0.00000092
-0.20895717 -0.25676987 0.00000000
-0.43592581 -0.25806674 0.00000000
-0.69212776 -0.51877934 -0.00000062
-0.06195978 0.15995024 0.00000000
-0.04077484 0.75721920 -0.00000010
-0.48556927 -0.75120413 0.00000000
-0.32892647 -0.17674398 0.00000000
-0.64513141 0.07904366 -0.00000148
-0.37556633 0.03996044 -0.00000026
-0.27470201 -0.01220606 0.00000000
-0.05053991 0.01500426 0.00000000
-0.33085674 0.16297808 -0.00000029
-0.29235369 -0.17908159 0.00000000
-0.31813744 -0.37543929 0.00000000
-0.26701874 -0.05020826 0.00000000
-0.40603584 -0.45330733 0.00000000
-0.03206384 0.01951244 0.00000000
-0.70309120 -0.51611066 -0.00000067
-0.32022136 -0.04905556 0.00000000
-0.79547513 -0.15172005 -0.00000162
-0.04074853 0.15468416 0.00000000
-0.66682613 -0.05727097 -0.00000133
-0.60576552 -0.20511499 -0.00000081
-0.58813274 -0.64139813 0.00000000
-0.32739490 -0.03837532 0.00000000
-0.31893942 -0.21743758 0.00000000
-0.58263499 -0.50928271 -0.00000017
-0.06906853 0.62501198 0.00000000
-0.10710722 0.22745885 0.00000000
-0.26546165 0.48864168 -0.00000058
-0.79740745 -0.15422665 -0.00000161
-0.71800661 -0.62212092 -0.00000044
-0.11367495 -0.39511147 0.00000000
-0.27258673 0.50086284 -0.00000063
-0.62195921 -0.74191713 0.00000000
-0.39042041 0.14866185 -0.00000051
-0.67077720 -0.76728106 0.25749904
-0.42617413 0.07990271 -0.00000055
-0.19816332 -0.33749208 0.00000000
-0.07299705 0.55752581 0.00000000
-0.07703246 0.15292394 0.00000000
-0.16296032 -0.03276356 0.00000000
-0.46240216 -0.06744869 -0.00000044
-0.33908641 -0.13957123 0.00000000
-0.79201949 -0.31278378 -0.00000122
-0.63007802 -0.15328576 -0.00000100
-0.08164729 0.43361339 0.00000000
-0.35197857 -0.73115051 0.00000000
-0.67365146 -0.68888140 -0.00000024
-0.05092538 -0.44016221 0.00000000
-0.30779877 0.42992702 -0.00000066
-0.42905354 -0.56980610 0.00000000
-0.22966786 -0.49418789 0.00000000
-0.52711684 -0.53575236 0.00000000
-0.44100904 -0.66257936 0.00000000
-0.56895018 -0.55812556 -0.00000003
-0.03387919 0.65784383 0.00000000
-0.72860605 -0.79528123 -0.00000001
-0.73323137 -0.06839451 -0.00000159
-0.60150206 -0.19956128 -0.00000080
-0.26969522 0.05789858 0.00000000
-0.79199284 -0.50689423 -0.00000073
-0.05522894 0.21030380 0.00000000
-0.36797953 0.20222892 -0.00000051
-0.02223257 0.59669590 0.00000000
-0.10375570 0.52541155 0.00000000
-0.30812424 0.08501947 -0.00000005
-0.69347268 -0.05744488 -0.00000144
-0.08536319 -0.20813091 0.00000000
-0.33065733 -0.02286331 0.00000000
-0.59180868 -0.05623404 -0.00000101
-0.48128074 -0.21049692 -0.00000027
-0.21618287 0.29643768 -0.00000003
-0.40957651 0.21808363 -0.00000072
-0.20949040 -0.03061122 0.00000000
-0.56335795 -0.02767902 -0.00000094
-0.09539981 -0.71694827 0.00000000
-0.15864028 -0.28358608 0.00000000
-0.17447866 -0.21223918 0.00000000
-0.22813138 -0.07550623 0.00000000
-0.45484892 -0.68479657 0.00000000
-0.30086267 0.04585868 0.00000000
-0.05033998 -0.54537469 0.00000000
-0.38270393 -0.78814417 0.14691295
-0.04431288 -0.47050214 0.00000000
-0.43747616 -0.32795811 0.00000000
-0.50102991 -0.31666857 -0.00000016
-0.00878119 -0.51903832 0.00000000
-0.53221530 0.07287804 -0.00000099
-0.08364935 -0.43227828 0.00000000
-0.34524488 -0.09470638 0.00000000
-0.38408396 -0.02927830 -0.00000017
-0.04558865 -0.26081142 0.00000000
-0.38847741 0.06301081 -0.00000036
-0.52617943 -0.23529951 -0.00000042
-0.08300118 -0.15720057 0.00000000
-0.09851973 -0.39682132 0.00000000
-0.73739755 -0.10316328 -0.00000155
-0.06317889 -0.15280092 0.00000000
-0.21017163 -0.27960101 0.00000000
-0.30397379 -0.67149496 0.00000000
-0.66107321 -0.79484004 -0.00000000
-0.12594990 -0.07020596 0.00000000
-0.10358335 0.69382215 -0.00000022
-0.37168884 -0.13608135 0.00000000
-0.11270004 -0.74902761 0.00000000
-0.33414426 -0.75335813 0.00000000
-0.05167154 -0.32453811 0.00000000
-0.59336269 -0.08371114 -0.00000097
-0.67254037 -0.70158392 -0.00000022
-0.17157921 0.01467125 0.00000000
-0.20280518 0.48236966 -0.00000030
-0.46469119 0.01583465 -0.00000060
-0.23089138 -0.69450450 0.00000000
-0.33551458 -0.30680671 0.00000000
-0.53311187 -0.62985063 0.00000000
-0.21868488 0.06021611 0.00000000
-0.15894768 -0.32915381 0.00000000
-0.09704566 0.49428132 0.00000000
-0.66803145 -0.74669307 -0.00000012
-0.71974367 0.06488418 -0.00000177
-0.72799343 -0.66522110 -0.00000034
-0.65330482 0.00917502 -0.00000139
-0.33614403 -0.72846806 0.00000000
-0.34077886 -0.40891623 0.00000000
-0.00545229 0.53088915 0.00000000
-0.26557851 0.32359186 -0.00000029
-0.55386168 -0.44464540 -0.00000016
-0.28451931 0.50753301 -0.00000070
-0.29936078 -0.07213171 0.00000000
-0.22393835 -0.36775938 0.00000000
-0.19641986 -0.70581394 0.00000000
-0.46027750 -0.69118392 0.00000000
-0.09995995 0.67200005 -0.00000020
-0.54158664 -0.43082583 -0.00000014
-0.05604591 0.47518271 0.00000000
-0.63227618 -0.03985533 -0.00000121
-0.39247242 -0.57483619 0.00000000
-0.26415530 -0.55572879 0.00000000
-0.05488561 0.37193239 0.00000000
-0.02052222 -0.31108457 0.00000000
-0.00012454 0.34518409 0.00000000
-0.71039093 -0.66500080 -0.00000034
-0.58394223 -0.13817224 -0.00000083
-0.74836111 -0.24216080 -0.00000135
-0.71347374 -0.06075340 -0.00000152
-0.71425557 -0.76681751 -0.00000008
-0.21450976 -0.75343752 0.00000000
-0.04567029 0.09208339 0.00000000
-0.62759113 -0.42598072 -0.00000051
-0.17487951 -0.39471045 0.00000000
-0.65880734 -0.24349622 -0.00000097
-0.05338910 -0.71516645 0.00000000
-0.70233059 -0.36489618 -0.00000094
-0.37336040 -0.57705855 0.00000000
-0.48158336 0.23281059 -0.00000105
-0.25067335 0.49228424 -0.00000053
-0.60418755 -0.33941129 -0.00000056
-0.22612187 0.20645212 0.00000000
-0.26731133 0.00993375 0.00000000
-0.21704535 0.51885575 -0.00000043
-0.07249330 0.01090707 0.00000000
-0.39919582 -0.30403668 0.00000000
-0.38039699 -0.27805856 0.00000000
-0.23495024 -0.12602523 0.00000000
-0.00779619 -0.63217741 0.00000000
-0.29083827 0.05036099 0.00000000
-0.50054091 0.18817551 -0.00000105
-0.05280017 0.66752785 0.00000000
-0.70329320 -0.17499441 -0.00000128
-0.26892599 -0.34495726 0.00000000
-0.32474026 0.27904296 -0.00000046
-0.18983072 -0.03027573 0.00000000
-0.08673413 0.04161232 0.00000000
-0.69930100 -0.00905347 -0.00000155
-0.23914947 -0.22432394 0.00000000
-0.56393051 -0.35202590 -0.00000037
-0.44775090 -0.79866362 0.17188329
-0.09251833 -0.33535495 0.00000000
-0.75108838 -0.29213360 -0.00000127
-0.00019794 0.02296997 0.00000000
-0.60367054 -0.22800790 -0.00000076
-0.10851979 -0.45802087 0.00000000
-0.16931470 -0.13896792 0.00000000
-0.45874515 -0.45663536 0.00000000
-0.39446804 -0.66058034 0.00000000
-0.04627728 0.66110295 0.00000000
-0.28495798 -0.59430569 0.00000000
-0.27554768 -0.24480073 0.00000000
-0.32329679 -0.59870899 0.00000000
-0.78416675 -0.16880824 -0.00000158
-0.04076624 0.30904305 0.00000000
-0.32881087 -0.58288556 0.00000000
-0.29581898 -0.51691908 0.00000000
-0.05261720 -0.73463070 0.00000000
-0.33707950 -0.44906640 0.00000000
-0.17162661 0.29015931 0.00000000
-0.72500527 -0.01795249 -0.00000165
-0.10710847 -0.45074135 0.00000000
-0.53561026 -0.54141659 0.00000000
-0.06876886 -0.11744067 0.00000000
-0.55170804 0.14700527 -0.00000120
-0.09568119 0.53448671 0.00000000
-0.10740709 0.65690398 -0.00000021
-0.18450969 0.47076619 -0.00000021
-0.28015837 -0.62233561 0.00000000
-0.01501930 -0.33689025 0.00000000
-0.18642133 0.43634436 -0.00000015
-0.32725260 0.45451400 -0.00000079
-0.21184957 -0.45244655 0.00000000
-0.69731647 -0.25051120 -0.00000112
-0.02517432 -0.05728594 0.00000000
-0.70731252 0.00663003 -0.00000162
-0.63403088 -0.79260665 0.24339274
-0.66217130 -0.00470943 -0.00000140
-0.61734718 0.03149157 -0.00000128
-0.03802084 -0.31184092 0.00000000
-0.00426873 0.29314971 0.00000000
-0.62538856 -0.76375771 0.24007522
-0.37031567 0.32965326 -0.00000075
-0.28616187 0.24936751 -0.00000025
-0.23039736 0.45654008 -0.00000038
-0.19643568 -0.30907351 0.00000000
-0.79237074 -0.63299096 -0.00000042
-0.02525001 -0.54608625 0.00000000
-0.23822302 -0.53897089 0.00000000
-0.44949567 -0.71231049 0.00000000
-0.72323292 -0.62075812 -0.00000045
-0.43734288 -0.61557221 0.00000000
-0.03548579 -0.72080845 0.00000000
-0.22761431 0.15009443 0.00000000
-0.19749624 0.21323949 0.00000000
-0.64690793 -0.09510123 -0.00000118
-0.72718388 -0.74867380 0.27915260
-0.55844641 -0.77472615 0.00000000
-0.74664348 -0.18578303 -0.00000144
-0.13873844 0.65509546 -0.00000034
-0.34791929 -0.51700842 0.00000000
-0.49270573 -0.38753486 -0.00000000
-0.72673905 -0.08689981 -0.00000153
-0.00484051 0.08457826 0.00000000
-0.68999445 -0.78642040 0.26487616
-0.23989785 -0.57189059 0.00000000
-0.05136074 0.20196646 0.00000000
-0.02654413 0.58602029 0.00000000
-0.77073741 -0.17670044 -0.00000156
-0.12433796 -0.23393379 0.00000000
-0.04462345 -0.34877852 0.00000000
-0.68397963 -0.13929597 -0.00000126
-0.43622223 -0.47209194 0.00000000
-0.40388882 -0.66411757 0.00000000
-0.21568339 0.06567251 0.00000000
-0.47119811 -0.28259766 -0.00000010
-0.48058107 -0.46605465 0.00000000
-0.36454824 -0.00457880 -0.00000013
-0.71522200 -0.69732475 -0.00000026
-0.39353254 0.03683587 -0.00000033
-0.50210124 -0.14838657 -0.00000047
-0.67950875 -0.50436908 -0.00000059
-0.04473770 0.46489376 0.00000000
-0.44940817 -0.74472648 0.00000000
-0.05503739 -0.01478226 0.00000000
-0.64417887 -0.73619092 -0.00000003
-0.56801414 -0.59314734 0.00000000
-0.45664224 -0.32557461 0.00000000
-0.10852804 0.12050799 0.00000000
-0.44534671 -0.18613932 -0.00000016
-0.39436886 -0.77558953 0.00000000
-0.47516161 0.18871462 -0.00000095
-0.31864870 -0.57497293 0.00000000
-0.09825801 -0.59352601 0.00000000
-0.79148841 -0.07505347 -0.00000181
-0.78956425 -0.20287304 -0.00000149
-0.75060850 -0.68905848 -0.00000028
-0.39862442 -0.66194087 0.00000000
-0.30359542 0.41354111 -0.00000061
-0.25174889 -0.33142373 0.00000000
-0.64077628 0.04469545 -0.00000140
-0.01871718 -0.10492889 0.00000000
-0.69032800 0.09672317 -0.00000170
-0.74650139 -0.16286127 -0.00000148
-0.71214676 -0.71448505 -0.00000021
-0.26387733 0.52476412 -0.00000064
-0.12850139 0.21432279 0.00000000
-0.37875792 0.19097146 -0.00000054
-0.20740812 -0.08136036 0.00000000
-0.65536827 -0.22363727 -0.00000099
-0.31239149 0.05686587 -0.00000002
-0.60751200 0.02080361 -0.00000122
-0.72621024 -0.55909801 -0.00000060
-0.52989572 0.16389678 -0.00000114
-0.39533111 -0.45547086 0.00000000
-0.06723392 0.09309926 0.00000000
-0.10929290 -0.38879722 0.00000000
-0.43472633 -0.42966676 0.00000000
-0.67873627 -0.01769325 -0.00000145
-0.22308233 0.40464926 -0.00000025
-0.50041878 -0.79145932 0.00000000
-0.37322158 -0.51608998 0.00000000
-0.11761303 -0.23313566 0.00000000
-0.03445695 -0.11378303 0.00000000
-0.14478081 0.01506645 0.00000000
-0.63514650 -0.51499116 -0.00000039
-0.40576160 -0.00484154 -0.00000031
-0.52672279 0.07425974 -0.00000096
-0.77189654 -0.40867478 -0.00000098
-0.16077387 -0.39084938 0.00000000
-0.14161082 0.08351914 0.00000000
-0.22938471 -0.05432748 0.00000000
-0.77097082 -0.21598575 -0.00000146
-0.43618453 -0.09225776 -0.00000028
-0.13611837 0.64467108 -0.00000031
-0.71650642 -0.29033503 -0.00000113
-0.11698489 -0.74438584 0.00000000
-0.34407949 -0.06529053 0.00000000
-0.39195463 -0.08530205 -0.00000011
-0.17235883 0.10220468 0.00000000
-0.13648736 -0.23855422 0.00000000
-0.50120074 0.08559992 -0.00000088
-0.62887508 -0.42864302 -0.00000051
-0.52642953 -0.55026484 0.00000000
-0.78571737 -0.02344410 -0.00000190
-0.23993450 -0.21677770 0.00000000
-0.69608593 -0.25162548 -0.00000111
-0.41066736 0.09248201 -0.00000050
-0.37115976 -0.70519203 0.00000000
-0.49817604 -0.48799714 0.00000000
-0.18300065 0.01474246 0.00000000
-0.25009245 0.38354304 -0.00000033
-0.36710265 -0.62846506 0.00000000
-0.66342556 -0.06411720 -0.00000130
-0.63181818 -0.16143778 -0.00000100
-0.25833809 0.29431847 -0.00000021
-0.48951691 0.11994082 -0.00000089
-0.69969416 -0.67187232 -0.00000032
-0.25100270 -0.59032273 0.00000000
-0.55687541 -0.24622387 -0.00000053
-0.25819507 -0.03148757 0.00000000
-0.49615997 -0.50595415 0.00000000
-0.06899739 -0.27699831 0.00000000
-0.54923946 0.01184166 -0.00000095
-0.31638774 -0.63288867 0.00000000
-0.20874140 0.19554473 0.00000000
-0.20576102 0.36154172 -0.00000010
-0.28930640 -0.18368787 0.00000000
-0.16107760 0.02822629 0.00000000
-0.14214046 -0.68720824 0.00000000
-0.71625876 -0.64315456 -0.00000039
-0.45861134 -0.29712656 -0.00000002
-0.36806920 -0.08006510 -0.00000002
-0.63537842 -0.55704635 -0.00000031
-0.52789521 -0.63348597 0.00000000
-0.46602753 -0.77532142 0.17889933
-0.42334273 -0.52046943 0.00000000
-0.22550292 0.04175850 0.00000000
-0.32235035 -0.42126501 0.00000000
-0.03007769 -0.16573176 0.00000000
-0.75164384 -0.56314278 -0.00000059
-0.21012837 -0.28000695 0.00000000
-0.75665087 0.03972987 -0.00000183
-0.33211797 -0.00969950 0.00000000
-0.50167054 0.00413894 -0.00000073
-0.35192388 -0.44209960 0.00000000
-0.13457814 0.16282435 0.00000000
-0.79793054 -0.79691744 -0.00000001
-0.34843943 -0.26604268 0.00000000
-0.31263497 -0.24322043 0.00000000
-0.74246019 -0.59549844 -0.00000051
-0.30577365 -0.22536044 0.00000000
-0.21737148 0.14554654 0.00000000
-0.52239823 -0.60935414 0.00000000
-0.59597427 0.20094016 -0.00000144
-0.41290984 -0.14243229 -0.00000010
-0.18451948 0.04579454 0.00000000
-0.19472112 -0.58071667 0.00000000
-0.28526768 -0.75255924 0.00000000
-0.21581437 -0.76150692 0.00000000
-0.11510104 0.57789510 -0.00000010
-0.58080035 -0.50654334 -0.00000017
-0.45543945 -0.37201917 0.00000000
-0.16243550 -0.55516768 0.00000000
-0.32219204 0.19890799 -0.00000031
-0.16158542 0.19579130 0.00000000
-0.12945023 -0.23438276 0.00000000
-0.30354530 0.42262736 -0.00000063
-0.55021411 -0.73529357 0.00000000
-0.56577176 -0.72527826 0.00000000
-0.56750441 -0.21462353 -0.00000063
-0.09815067 0.26196429 0.00000000
-0.44915959 0.27030414 -0.00000098
-0.49336982 -0.57366520 0.00000000
-0.10458746 -0.32190639 0.00000000
-0.51589632 -0.01693733 -0.00000076
-0.24264789 0.43382314 -0.00000039
-0.32943803 -0.57970452 0.00000000
-0.03585762 0.30761433 0.00000000
-0.04450003 -0.02144024 0.00000000
-0.27238920 -0.32904759 0.00000000
-0.02081148 -0.40288404 0.00000000
-0.26951385 -0.41133073 0.00000000
-0.34646100 -0.17094038 0.00000000
-0.09991965 -0.72124410 0.00000000
-0.10235620 -0.56845802 0.00000000
-0.19209671 -0.23259962 0.00000000
-0.13072778 -0.32438099 0.00000000
-0.67362189 -0.15293850 -0.00000119
-0.46045259 -0.23285364 -0.00000014
-0.19615398 -0.08451519 0.00000000
-0.35183400 -0.33194327 0.00000000
-0.14529252 0.10794257 0.00000000
-0.29831311 -0.46280825 0.00000000
-0.18962526 0.31431812 0.00000000
-0.34002191 -0.71193039 0.00000000
-0.21056867 -0.32716602 0.00000000
-0.24725983 -0.05698127 0.00000000
-0.06713010 -0.70915753 0.00000000
-0.49359921 0.19924247 -0.00000104
-0.38945451 0.04871758 -0.00000033
-0.56123734 -0.77898014 0.21544862
-0.40376648 -0.26171491 0.00000000
-0.30142781 -0.64794129 0.00000000
-0.66093731 -0.79717499 0.00000000
-0.49677268 -0.42812261 0.00000000
-0.32856861 -0.72811878 0.00000000
-0.74336803 0.04290431 -0.00000183
-0.19438633 -0.20390202 0.00000000
-0.63985729 -0.04114333 -0.00000124
-0.30217218 0.21655606 -0.00000026
-0.03636136 -0.66746396 0.00000000
-0.43948507 -0.78941554 0.00000000
-0.59125721 -0.33025461 -0.00000053
-0.76089329 -0.04513841 -0.00000175
-0.10412173 -0.62968177 0.00000000
-0.73477459 -0.48209542 -0.00000079
-0.08809004 0.43703389 0.00000000
-0.03876213 -0.53363925 0.00000000
-0.32450148 -0.52861124 0.00000000
-0.63463211 -0.74806398 0.00000000
-0.15558118 -0.36557388 0.00000000
-0.70111811 -0.41590774 -0.00000084
-0.32299793 -0.61139804 0.00000000
-0.14660855 0.51041615 -0.00000011
-0.24255408 -0.74500906 0.00000000
-0.12046058 -0.03029515 0.00000000
-0.09521345 0.34373727 0.00000000
-0.12729195 -0.62358785 0.00000000
-0.21247344 -0.06087361 0.00000000
-0.19979504 -0.03241587 0.00000000
-0.77209216 -0.15481724 -0.00000161
-0.48147851 -0.53895783 0.00000000
-0.01639188 -0.74849051 0.00000000
-0.59690344 -0.78185856 0.00000000
-0.22826149 0.52117062 -0.00000048
-0.66291100 -0.34454083 -0.00000081
-0.12824158 0.30886102 0.00000000
-0.32246235 0.18514104 -0.00000029
-0.24510016 0.33794245 -0.00000023
-0.50083637 -0.50817513 0.00000000
-0.76452905 -0.49784955 -0.00000076
-0.30739349 -0.64266181 0.00000000
-0.72981477 -0.76248616 0.28016251
-0.22792332 -0.65406293 0.00000000
-0.02695077 0.23131952 0.00000000
-0.54536468 0.07931850 -0.00000105
-0.24531114 -0.18893035 0.00000000
-0.03023933 -0.33380798 0.00000000
-0.03500861 0.00981130 0.00000000
-0.28663164 -0.05898944 0.00000000
-0.16281527 -0.58613771 0.00000000
-0.06335274 -0.47313401 0.00000000
-0.11104842 -0.17676443 0.00000000
-0.60710889 -0.02646530 -0.00000113
-0.50392836 -0.30091423 -0.00000020
-0.72290486 -0.71512955 -0.00000021
-0.55420625 -0.62714326 0.00000000
-0.11139464 -0.39440241 0.00000000
-0.33484653 0.12753323 -0.00000024
-0.00320959 0.30674273 0.00000000
-0.42484611 0.07396250 -0.00000053
-0.19317479 -0.68018585 0.00000000
-0.35656625 -0.73355889 0.00000000
-0.18806222 -0.22030599 0.00000000
-0.28781241 0.50948656 -0.00000071
-0.34573761 -0.61444730 0.00000000
-0.52087456 -0.78142375 0.00000000
-0.34704775 -0.13767593 0.00000000
-0.01216870 -0.44749153 0.00000000
-0.32188296 -0.39708164 0.00000000
-0.18134952 -0.77700084 0.00000000
-0.35041288 -0.03471418 -0.00000002
-0.02889819 -0.06692605 0.00000000
-0.48801863 0.07700801 -0.00000080
-0.12666069 0.43618158 0.00000000
-0.40679955 0.23611324 -0.00000074
-0.51553541 0.10858069 -0.00000098
-0.47715345 0.16386317 -0.00000091
-0.75755215 -0.02035837 -0.00000178
-0.03255842 -0.74163407 0.00000000
-0.29164785 0.24984252 -0.00000027
-0.64105076 -0.08104292 -0.00000118
-0.12236381 0.37480184 0.00000000
-0.75817549 -0.45518729 -0.00000086
-0.26571214 0.36154550 -0.00000036
-0.48619187 -0.44692668 0.00000000
-0.48832700 -0.59133381 0.00000000
-0.64666665 0.14939359 -0.00000155
-0.28682843 -0.74557596 0.00000000
-0.21615253 0.16982165 0.00000000
-0.16602357 -0.16412152 0.00000000
-0.45751044 -0.58110476 0.00000000
-0.61283106 -0.08635431 -0.00000105
-0.31792185 -0.14613315 0.00000000
-0.32439303 -0.51102275 0.00000000
-0.08586291 -0.28271952 0.00000000
-0.69633019 -0.52581787 -0.00000063
-0.05449493 -0.43320379 0.00000000
-0.34467971 0.33867067 -0.00000066
-0.26989689 -0.66747558 0.00000000
-0.34278363 -0.21674569 0.00000000
-0.41908637 0.09050761 -0.00000053
-0.04568108 -0.21740128 0.00000000
-0.54513270 0.15478329 -0.00000119
-0.56544012 0.21708424 -0.00000138
-0.42319646 -0.77054709 0.16245729
-0.18980861 0.06040720 0.00000000
-0.56134158 -0.11572938 -0.00000078
-0.09069962 -0.22665110 0.00000000
-0.46352679 -0.68587071 0.00000000
-0.68180722 -0.74006850 -0.00000015
-0.16582716 -0.68185806 0.00000000
-0.48711178 -0.15015389 -0.00000040
-0.23777394 -0.32828957 0.00000000
-0.53093481 -0.37584156 -0.00000019
-0.10730412 -0.41706088 0.00000000
-0.69942379 0.01065396 -0.00000159
-0.64240724 -0.26911438 -0.00000085
-0.28669900 -0.23091032 0.00000000
-0.11435773 -0.42744088 0.00000000
-0.55361378 -0.06340885 -0.00000084
-0.08818733 -0.20812041 0.00000000
-0.03714409 -0.75786728 0.00000000
-0.04097393 -0.28630868 0.00000000
-0.00945761 -0.73707139 0.00000000
-0.21114624 -0.23717821 0.00000000
-0.74137837 -0.06606450 -0.00000163
-0.68705434 -0.16011904 -0.00000123
-0.36655128 0.07866617 -0.00000029
-0.69183075 -0.71620685 -0.00000021
-0.33747670 -0.26391676 0.00000000
-0.18153943 -0.06236368 0.00000000
-0.02507736 -0.62884569 0.00000000
-0.38608715 -0.58688170 0.00000000
-0.33090430 -0.14195322 0.00000000
-0.55787104 -0.53609717 -0.00000002
-0.17985047 -0.54561132 0.00000000
-0.18496633 -0.24269095 0.00000000
-0.52396911 -0.78081298 0.20114204
-0.15434144 -0.24513885 0.00000000
-0.06228844 -0.47392398 0.00000000
-0.21975948 0.27346495 -0.00000001
-0.38339910 -0.59178537 0.00000000
-0.60273075 -0.61261982 -0.00000008
-0.26847237 -0.54165131 0.00000000
-0.75228930 -0.64101899 -0.00000040
-0.07328093 0.06286328 0.00000000
-0.17436910 0.49474740 -0.00000020
-0.61011642 0.16271587 -0.00000148
-0.31481278 0.42983240 -0.00000069
-0.17914268 0.55878979 -0.00000034
-0.56023997 0.14969148 -0.00000124
-0.60103953 0.08637920 -0.00000130
-0.16479573 0.54551667 -0.00000025
-0.32092169 0.29874551 -0.00000048
-0.38479647 -0.01742495 -0.00000020
-0.18051475 0.57788461 -0.00000038
-0.56388867 -0.25205180 -0.00000055
-0.62998503 -0.55687344 -0.00000029
-0.03390135 0.01148741 0.00000000
-0.74109566 0.05474171 -0.00000185
-0.74479425 -0.07704853 -0.00000163
-0.19333011 0.03785127 0.00000000
-0.11122456 -0.36980692 0.00000000
-0.03406129 0.26437497 0.00000000
-0.11125871 0.42435548 0.00000000
-0.56764859 0.03804633 -0.00000108
-0.66191345 -0.10180193 -0.00000123
-0.70328027 -0.49081379 -0.00000072
-0.24907468 -0.52177083 0.00000000
-0.61303014 -0.71531862 0.00000000
-0.16332737 0.30001205 0.00000000
-0.05488389 0.04963037 0.00000000
-0.29938534 0.45216975 -0.00000066
-0.74344355 0.02339050 -0.00000180
-0.44746169 0.05337867 -0.00000059
-0.51958489 -0.63879991 0.00000000
-0.26629713 -0.79539490 0.00000000
-0.54843974 -0.07255029 -0.00000080
-0.24330565 -0.78812778 0.09340053
-0.75550193 -0.77071446 -0.00000007
-0.00942556 0.74449706 0.00000000
-0.07364936 -0.19050917 0.00000000
-0.07909418 -0.71045697 0.00000000
-0.02888940 -0.79014200 0.00000000
-0.36678344 -0.56074321 0.00000000
-0.45754409 -0.58250856 0.00000000
-0.01199736 -0.26672420 0.00000000
-0.43303272 -0.33342910 0.00000000
-0.04281947 0.47493330 0.00000000
-0.56783932 0.10810078 -0.00000120
-0.67366552 -0.76496738 -0.00000009
-0.75689775 -0.64856082 -0.00000038
-0.23332474 0.43018192 -0.00000034
-0.77356541 -0.37225583 -0.00000107
-0.49503154 -0.55224478 0.00000000
-0.50127012 -0.71620858 0.00000000
-0.13745613 -0.25608379 0.00000000
-0.33860439 -0.44749731 0.00000000
-0.37684453 -0.19400504 0.00000000
-0.29336020 0.00615346 0.00000000
-0.02113548 -0.60817933 0.00000000
-0.36947128 0.34452906 -0.00000077
-0.31057981 -0.43709773 0.00000000
-0.07867002 -0.76888806 0.00000000
-0.54568648 -0.07532520 -0.00000078
-0.03034517 -0.25449309 0.00000000
-0.54544854 0.02563541 -0.00000096
-0.18646736 -0.16121663 0.00000000
-0.12681675 -0.62505871 0.00000000
-0.40903559 -0.32842937 0.00000000
-0.55676848 -0.42563540 -0.00000021
-0.00972826 0.53448081 0.00000000
-0.39195803 -0.65558743 0.00000000
-0.61349487 -0.18612611 -0.00000088
-0.60818720 -0.01629659 -0.00000115
-0.76148498 -0.05213109 -0.00000174
-0.10189705 -0.02991478 0.00000000
-0.22537299 -0.08522338 0.00000000
-0.47130889 -0.49561447 0.00000000
-0.63184017 0.14061365 -0.00000153
-0.14868475 -0.71115386 0.00000000
-0.27154195 0.38305795 -0.00000042
-0.70296055 -0.17403840 -0.00000128
-0.68769795 0.07491299 -0.00000165
-0.57877994 -0.58023292 -0.00000003
-0.67097902 -0.76519948 0.25757653
-0.37419540 -0.73826331 0.00000000
-0.26312214 -0.78518432 0.10100771
-0.35836014 0.37018690 -0.00000077
-0.45845082 -0.35958251 0.00000000
-0.63857228 -0.07854264 -0.00000117
-0.21120954 -0.23644641 0.00000000
-0.55802643 -0.11928050 -0.00000076
-0.67291766 -0.49397668 -0.00000058
-0.01583692 0.14633162 0.00000000
-0.02732614 0.69566762 0.00000000
-0.16175376 -0.03413728 0.00000000
-0.13623381 -0.29660070 0.00000000
-0.13327260 -0.31595379 0.00000000
-0.11904202 -0.61320233 0.00000000
-0.19930619 0.02302865 0.00000000
-0.44726905 0.23603316 -0.00000091
-0.25795120 -0.32479066 0.00000000
-0.20032100 0.33751127 -0.00000004
-0.58200216 0.13083217 -0.00000130
-0.10841321 -0.66000116 0.00000000
-0.04796509 0.27196282 0.00000000
-0.01852417 -0.69883686 0.00000000
-0.42901394 -0.15709032 -0.00000014
-0.62344331 -0.33892763 -0.00000065
-0.31063434 0.31106201 -0.00000046
-0.38201299 -0.31439838 0.00000000
-0.08166085 0.19210994 0.00000000
-0.41257340 0.28331846 -0.00000085
-0.08301831 -0.05458029 0.00000000
-0.63854009 0.08854816 -0.00000147
-0.17358685 -0.28770316 0.00000000
-0.09094635 0.09783159 0.00000000
-0.34220612 -0.74317127 0.00000000
-0.29061413 0.26664111 -0.00000030
-0.50615841 0.26941076 -0.00000122
-0.42823449 0.28081477 -0.00000091
-0.09436994 0.20077451 0.00000000
-0.26971021 -0.78165674 0.10353675
-0.50097042 -0.11667116 -0.00000052
-0.23961149 -0.08204679 0.00000000
-0.07667221 0.32728457 0.00000000
-0.01640052 0.49861413 0.00000000
-0.06071662 0.25860193 0.00000000
-0.31810880 -0.64791965 0.00000000
-0.06366194 0.41682792 0.00000000
-0.31644189 -0.24689624 0.00000000
-0.78609478 -0.65522939 -0.00000036
-0.31896144 -0.54883611 0.00000000
-0.18537451 -0.67125583 0.00000000
-0.28643531 0.10499514 0.00000000
-0.13273098 -0.35589191 0.00000000
-0.09271618 0.30296010 0.00000000
-0.13864142 0.62021720 -0.00000027
-0.38079476 0.20368841 -0.00000057
-0.38536391 -0.36469594 0.00000000
-0.34023044 -0.52676541 0.00000000
-0.13558500 0.28567025 0.00000000
-0.43846518 -0.03249969 -0.00000040
-0.27547097 0.51930964 -0.00000060
-0.11750702 -0.45645609 0.00000000
-0.71216315 -0.51606971 -0.00000071
-0.37954518 0.09990296 -0.00000038
-0.05640160 0.38873544 0.00000000
-0.29873484 -0.46099746 0.00000000
-0.62535310 -0.39048359 -0.00000056
-0.60370332 -0.62463576 -0.00000006
-0.40146667 -0.50907201 0.00000000
-0.57264674 -0.48899746 -0.00000017
-0.27522114 -0.71132463 0.00000000
-0.54872519 -0.39544421 -0.00000023
-0.14739653 0.20293187 0.00000000
-0.74974877 -0.35195482 -0.00000112
-0.55855316 -0.50242740 -0.00000008
-0.24669321 -0.20660830 0.00000000
-0.39211175 -0.04045195 -0.00000019
-0.46815357 -0.74482101 0.00000000
-0.00144018 -0.34124315 0.00000000
-0.53956139 -0.39253041 -0.00000019
-0.40303209 -0.18849336 0.00000000
-0.06777604 0.36840510 0.00000000
-0.19361952 -0.57733262 0.00000000
-0.21787924 -0.74743080 0.00000000
-0.16887847 0.32712439 0.00000000
-0.05192485 0.05216381 0.00000000
-0.00058768 -0.43633616 0.00000000
-0.15798166 -0.10603843 0.00000000
-0.42199272 0.16302966 -0.00000067
-0.44306457 0.21873339 -0.00000086
-0.66483349 -0.53450960 -0.00000048
-0.31727776 0.22874816 -0.00000034
-0.11468827 -0.74581015 0.00000000
-0.43837374 0.24459991 -0.00000089
-0.76512957 -0.21921699 -0.00000145
-0.18200840 0.27001899 0.00000000
-0.02242240 -0.40470785 0.00000000
-0.60054821 0.15194601 -0.00000142
-0.18814722 0.12763619 0.00000000
-0.31029701 0.30688351 -0.00000045
-0.70724452 -0.26637006 -0.00000113
-0.51851594 -0.57198203 0.00000000
-0.46017957 0.10087786 -0.00000073
-0.72173172 0.00432074 -0.00000167
-0.62385041 -0.58729172 -0.00000021
-0.25477427 -0.41970390 0.00000000
-0.67632872 0.10299304 -0.00000165
-0.67529553 -0.26956841 -0.00000099
-0.14146405 -0.36433768 0.00000000
-0.55836368 0.00779463 -0.00000098
-0.20117632 0.29106173 0.00000000
-0.50205827 0.24415840 -0.00000116
-0.69697869 -0.78809625 0.26755726
-0.52097541 -0.36090457 -0.00000017
-0.20987310 -0.51614261 0.00000000
-0.35009089 0.33005074 -0.00000066
-0.53998226 0.02198537 -0.00000093
-0.02690707 0.24790435 0.00000000
-0.34579352 -0.72355860 0.00000000
-0.20280728 -0.10794396 0.00000000
-0.19836693 0.57403028 -0.00000045
-0.11609466 0.54760331 -0.00000005
-0.28477442 0.07460819 0.00000000
-0.16227223 -0.78404921 0.00000000
-0.20695686 0.41408607 -0.00000020
-0.58979386 -0.76569718 0.22641094
-0.29585761 0.12673958 -0.00000007
-0.36021778 0.12779009 -0.00000035
-0.54624456 -0.64161450 0.00000000
-0.60234404 0.00442780 -0.00000116
-0.44772261 -0.14162074 -0.00000025
-0.56818724 -0.27796760 -0.00000052
-0.34564844 -0.03695196 0.00000000
-0.20683709 -0.19941974 0.00000000
-0.12725116 -0.53477556 0.00000000
-0.68069065 -0.79071432 -0.00000002
-0.42713210 0.06558186 -0.00000052
-0.01816417 0.65212077 0.00000000
-0.11333542 -0.26037958 0.00000000
-0.70983720 0.01601638 -0.00000164
-0.16481145 -0.64156157 0.00000000
-0.67278779 -0.33729216 -0.00000086
-0.03350487 -0.73844886 0.00000000
-0.52451867 -0.03066135 -0.00000077
-0.63996798 -0.41210303 -0.00000059
-0.62028724 -0.19726321 -0.00000088
-0.13048036 -0.79653686 0.05008900
-0.17667627 0.39058033 -0.00000003
-0.11900234 0.24457701 0.00000000
-0.65375614 -0.33524230 -0.00000078
-0.28046605 0.06609337 0.00000000
-0.37444845 -0.66251928 0.00000000
-0.18795714 -0.07418129 0.00000000
-0.44325492 -0.07124692 -0.00000035
-0.79863644 -0.01690131 -0.00000196
-0.51068974 0.06732570 -0.00000088
-0.04138785 -0.67556906 0.00000000
-0.17922965 0.24472976 0.00000000
-0.01794847 -0.29227501 0.00000000
-0.10629830 0.15418141 0.00000000
-0.71880269 -0.10710283 -0.00000146
-0.72669023 -0.13918139 -0.00000144
-0.48762640 -0.00581950 -0.00000066
-0.21126802 0.19810531 0.00000000
-0.26729906 -0.34867051 0.00000000
-0.69497192 -0.75853080 -0.00000010
-0.49628025 -0.08608147 -0.00000055
-0.17067957 -0.14149807 0.00000000
-0.30436122 -0.69254833 0.00000000
-0.62416196 -0.44779387 -0.00000046
-0.18960114 0.44307354 -0.00000018
-0.56192374 -0.71165437 0.00000000
-0.05366795 0.06507657 0.00000000
-0.24723475 -0.58060449 0.00000000
-0.73220015 -0.34707585 -0.00000110
-0.54891270 -0.40698084 -0.00000021
-0.47227094 -0.34076411 0.00000000
-0.30806479 -0.56586152 0.00000000
-0.15331380 0.06840241 0.00000000
-0.63198149 0.16405112 -0.00000157
-0.09697864 -0.32388818 0.00000000
-0.32411349 -0.71169734 0.00000000
-0.79802209 -0.04335846 -0.00000189
-0.36830616 -0.01574981 -0.00000013
-0.49619043 0.01606747 -0.00000073
-0.69014019 -0.02667278 -0.00000148
-0.54622287 0.00714059 -0.00000093
-0.55782884 -0.79143572 0.00000000
-0.41213053 0.30545345 -0.00000088
-0.08913856 -0.65731549 0.00000000
-0.22910240 0.37659121 -0.00000023
-0.46097621 -0.73446369 0.00000000
-0.07817370 -0.77881980 0.00000000
-0.34485686 0.01540943 -0.00000008
-0.52926838 0.26514989 -0.00000123
-0.00143944 0.11644956 0.00000000
-0.76856458 -0.21682893 -0.00000146
-0.38298160 -0.48770353 0.00000000
-0.41229177 -0.58125067 0.00000000
-0.07439278 -0.57111895 0.00000000
-0.02927653 -0.67269439 0.00000000
-0.62739700 -0.33097890 -0.00000068
-0.22982724 -0.25057098 0.00000000
-0.67215049 -0.51657581 -0.00000054
-0.28902784 -0.01385746 0.00000000
-0.15585771 0.52544785 -0.00000018
-0.60388321 0.14006233 -0.00000141
-0.52936292 -0.39207840 -0.00000015
-0.46733329 0.07128945 -0.00000071
