ply
format ascii 1.0
element vertex 1166
property float x
property float y
property float z
end_header
-0.07942823 0.61491239 0.00011366
-0.43105781 -0.41945446 0.00000739
-0.16812307 0.32206371 0.00000503
-0.31896222 -0.79141033 0.00000530
-0.65272033 -0.50197554 0.00458685
-0.21181467 0.20675106 0.00000596
-0.30931664 0.48944759 0.00729497
-0.00121071 0.52941126 0.00000470
-0.68918663 0.02287418 0.01482915
-0.34448650 -0.42283192 0.00000595
-0.51703411 -0.55201375 0.00000874
-0.16942696 0.54000324 0.00249408
-0.77507102 -0.40009463 0.01122714
-0.25039944 -0.16234390 0.00000455
-0.27606192 0.43147498 0.00498411
-0.39532396 -0.65822655 0.00000665
-0.25337446 0.28997460 0.00170392
-0.67435247 0.03972022 0.01451198
-0.61514074 -0.26767486 0.00698552
-0.60693896 -0.47666714 0.00316211
-0.28992578 -0.70113122 0.00000487
-0.18611461 0.52757734 0.00295992
-0.61302674 0.17256224 0.01425685
-0.03854674 0.68614984 0.00000198
-0.04002585 0.45718184 0.00000511
-0.13364914 0.62957895 0.00254701
-0.75543076 0.02904484 0.01760577
-0.02078855 -0.52535295 0.00000052
-0.60341012 0.11905961 0.01297468
-0.63939029 -0.64001757 0.00174210
-0.75410980 -0.66995811 0.00587154
-0.09237154 0.01107478 0.00001045
-0.07136240 0.67150337 0.00073381
-0.01335504 0.65886050 0.00000274
-0.40665996 -0.74022728 0.00000679
-0.27826169 0.32371688 0.00327218
-0.21562721 0.35597986 0.00128349
-0.64430398 0.07989873 0.01397068
-0.42424735 -0.54255342 0.00000720
-0.39199886 -0.01284603 0.00223824
-0.14180207 0.46709919 0.00016091
-0.49615973 0.01792316 0.00695617
-0.73388863 -0.74731976 0.00376270
-0.41752854 -0.37944043 0.00000719
-0.26731303 -0.36897093 0.00000471
-0.69656265 -0.18016870 0.01173386
-0.24430290 -0.57673824 0.00000419
-0.44166201 -0.68370885 0.00000740
-0.01257626 0.09288788 0.00001053
-0.47619581 0.16665474 0.00863586
-0.20060115 0.21088360 0.00000607
-0.62491900 0.14596035 0.01429227
-0.41113463 0.01357213 0.00345199
-0.62198108 -0.54229522 0.00267250
-0.43525007 -0.68213350 0.00000730
-0.37890580 -0.41526097 0.00000653
-0.06410088 -0.32336679 0.00000136
-0.08977139 0.08739309 0.00000944
-0.63086194 -0.08405762 0.01068836
-0.01986498 0.41291127 0.00000602
-0.78549314 -0.15496974 0.01574401
-0.14184780 0.48392856 0.00044398
-0.75458020 -0.72574401 0.00495829
-0.27254593 0.02000356 0.00000761
-0.64116728 -0.57734692 0.00286108
-0.13145134 -0.54944551 0.00000234
-0.77839178 -0.12707496 0.01592358
-0.79981780 -0.37876463 -0.00000105
-0.46499449 -0.38575396 0.00000798
-0.67161930 0.09771502 0.01537080
-0.10197909 -0.16782856 0.00000209
-0.07870903 -0.37652433 0.00000157
-0.09946493 0.19416776 0.00000783
-0.63898385 -0.42213556 0.00536665
-0.49042061 0.29668030 0.01138276
-0.22975697 -0.42174572 0.00000405
-0.11258710 0.00178100 0.00001028
-0.62846446 0.02450791 0.01240581
-0.37549666 -0.71825016 0.00000628
-0.70883977 -0.75721985 0.00258637
-0.13612905 -0.43484756 0.00000249
-0.06079835 -0.32506639 0.00000131
-0.16571602 -0.15665139 0.00000315
-0.50426096 -0.25719202 0.00268577
-0.06425363 -0.26046026 0.00000140
-0.72761714 -0.27494869 0.01140333
-0.44953814 -0.66563112 0.00000755
-0.22485155 0.53545904 0.00465498
-0.62173468 -0.26816085 0.00724352
-0.52440494 -0.64118713 0.00000880
-0.06409838 -0.00260958 0.00000156
-0.43143064 0.05506593 0.00496449
-0.20731732 -0.21013805 0.00000381
-0.21999989 -0.01122341 0.00000414
-0.07491731 0.58704972 0.00000280
-0.00488885 -0.44936916 0.00000022
-0.21385704 0.34338260 0.00100154
-0.33213142 -0.12824728 0.00000593
-0.13945705 0.51101059 0.00080005
-0.21275447 0.57502371 0.00482792
-0.42846200 -0.42984328 0.00000734
-0.39468265 -0.38073540 0.00000681
-0.71435684 -0.60963064 0.00527538
-0.02346070 -0.00515424 0.00000089
-0.51021552 -0.36112684 0.00118926
-0.41776210 -0.69522399 0.00000700
-0.00788017 0.24186417 0.00000856
-0.11556478 -0.77733606 0.00000193
-0.07976543 -0.14642315 0.00000173
-0.11652408 0.52297717 0.00007449
-0.11678129 0.23586370 0.00000699
-0.16974968 -0.10507035 0.00000325
-0.49350938 -0.06574588 0.00545104
-0.18740606 0.50682181 0.00266520
-0.14263333 0.59738696 0.00237165
-0.78104591 -0.49242809 0.00992529
-0.04640281 -0.44653025 0.00000099
-0.39544600 -0.24213712 0.00000691
-0.71719301 -0.76205927 0.00284261
-0.35584810 -0.21045099 0.00000627
-0.31566590 -0.75429040 0.00000527
-0.14847811 0.01527108 0.00000955
-0.12320462 0.18723501 0.00000757
-0.22840630 -0.02843570 0.00000427
-0.42140394 -0.62060398 0.00000711
-0.20208530 -0.76830333 0.00000337
-0.22639591 0.18115766 0.00000609
-0.25207344 0.35067442 0.00266574
-0.31510216 0.46341848 0.00709351
-0.30734411 -0.46561503 0.00000531
-0.01100292 0.74997884 0.00000152
-0.71279627 -0.64581376 0.00460774
-0.27825165 -0.64312106 0.00000472
-0.31328785 -0.34145448 0.00000549
-0.01239644 0.06979104 0.00001085
-0.66955429 -0.32116118 0.00828777
-0.58116996 -0.47847244 0.00209195
-0.69831133 -0.32042304 0.00946069
-0.06654841 0.17548554 0.00000858
-0.55895931 -0.74720776 0.00000931
-0.42317712 -0.29861057 0.00000734
-0.44409865 -0.38371110 0.00000763
-0.66540331 -0.48788950 0.00533410
-0.68438011 -0.18888213 0.01109658
-0.76411498 -0.28063923 0.01278121
-0.59778243 -0.33197320 0.00521050
-0.23465824 -0.34810403 0.00000418
-0.51294494 0.19595741 0.01060866
-0.02419349 -0.58149624 0.00000054
-0.04568311 -0.56020236 0.00000091
-0.07766674 -0.06928491 0.00000175
-0.31844804 -0.68740100 0.00000536
-0.70115048 -0.31075701 0.00973680
-0.12913321 -0.12951854 0.00000256
-0.50281703 -0.72486550 0.00000839
-0.58473128 -0.59027570 0.00036737
-0.24308677 -0.44546887 0.00000426
-0.60968632 0.17035337 0.01408513
-0.53177601 -0.56786221 0.00000897
-0.65237063 -0.26623616 0.00851210
-0.12248642 0.53540850 0.00052285
-0.66812581 -0.60686797 0.00345577
-0.26804274 0.39475885 0.00404692
-0.11550709 0.07147948 0.00000927
-0.12999640 -0.11961279 0.00000258
-0.72090960 -0.38165119 0.00934955
-0.69014084 -0.60508788 0.00437400
-0.46117893 -0.51349056 0.00000783
-0.40783820 0.32425877 0.00851073
-0.04541917 -0.26335275 0.00000109
-0.79370070 -0.69059879 0.00712437
-0.04723685 -0.32098457 0.00000108
-0.22429375 0.43348250 0.00292838
-0.01112468 0.44917339 0.00000566
-0.08133897 0.48519713 0.00000410
-0.13348100 -0.10267451 0.00000265
-0.33707318 -0.24859768 0.00000594
-0.15984111 -0.73765439 0.00000269
-0.10433864 -0.76267380 0.00000176
-0.55124283 -0.38099572 0.00251304
-0.54228657 -0.35394520 0.00260361
-0.00144030 -0.71758950 0.00000008
-0.70379323 -0.09864897 0.01338792
-0.25994933 -0.52903765 0.00000448
-0.18820684 -0.73985654 0.00000316
-0.50559872 -0.32102567 0.00167306
-0.36675543 -0.07246913 0.00022311
-0.50853890 -0.51405579 0.00000862
-0.35882983 0.14643097 0.00356121
-0.03320308 0.27019504 0.00000778
-0.22699675 0.50327480 0.00420374
-0.21958309 0.47186342 0.00337963
-0.34376067 0.11228023 0.00238236
-0.78650969 -0.26041257 0.01402299
-0.50576788 0.10472340 0.00879443
-0.10891690 -0.10366179 0.00000224
-0.60342115 -0.41530883 0.00404547
-0.11336465 0.57692665 0.00084851
-0.14535993 0.21975064 0.00000679
-0.74523282 -0.62645328 0.00624030
-0.31683326 0.35659078 0.00537821
-0.07386224 -0.70554250 0.00000128
-0.22311231 0.54391998 0.00472618
-0.61644679 -0.09010535 0.01000553
-0.12279171 0.11993666 0.00000850
-0.44700667 0.14714988 0.00713190
-0.14478152 -0.63356340 0.00000251
-0.05779659 0.07950798 0.00001003
-0.44266289 0.09728224 0.00612327
-0.75318563 -0.04831772 0.01622238
-0.13178055 -0.12286985 0.00000261
-0.75624090 -0.48494613 0.00904927
-0.54378742 -0.52229977 0.00000920
-0.07888142 0.13911894 0.00000890
-0.26746863 -0.63677365 0.00000454
-0.61503923 -0.46852818 0.00362503
-0.23880285 -0.54692608 0.00000412
-0.25496793 -0.78921914 0.00000424
-0.69944668 -0.09048193 0.01334898
-0.01815357 0.71022338 0.00000196
-0.41468352 -0.24869172 0.00000723
-0.19344954 0.05677893 0.00000830
-0.11643162 -0.28619382 0.00000225
-0.18813625 0.55095625 0.00343218
-0.20869911 0.56342065 0.00447036
-0.21930245 0.49132004 0.00369344
-0.62701076 -0.32084757 0.00657602
-0.04061115 -0.74665523 0.00000071
-0.22747956 0.33062339 0.00133811
-0.05882261 -0.06810870 0.00000143
-0.44854087 -0.27588814 0.00012457
-0.06968747 -0.76672351 0.00000118
-0.78153640 -0.59185547 0.00828355
-0.08194953 0.46045345 0.00000443
-0.29349706 0.12363770 0.00054360
-0.45723507 -0.41256654 0.00000783
-0.49784219 0.29873779 -0.00000081
-0.06726316 0.69597703 0.00097734
-0.65885800 -0.38293666 0.00682377
-0.20136398 0.14432511 0.00000698
-0.42855364 0.21962827 0.00759832
-0.11695674 0.43860573 0.00000420
-0.53530806 -0.66089261 0.00000897
-0.54562974 -0.65359342 0.00000915
-0.25435576 -0.19063343 0.00000460
-0.05535020 -0.55948085 0.00000107
-0.54553574 -0.54942387 0.00000921
-0.10861042 0.24081440 0.00000705
-0.68968254 0.07611248 0.01573882
-0.35203230 0.31467950 0.00609842
-0.17260623 0.58376807 0.00335372
-0.02475066 -0.46861443 0.00000062
-0.39051265 0.31628111 0.00767819
-0.38314015 -0.11883258 0.00010961
-0.65542233 0.07476496 0.01433361
-0.18351918 -0.36037838 0.00000332
-0.74458623 -0.50799853 0.00819370
-0.00065839 -0.27553225 0.00000034
-0.32798609 -0.32565352 0.00000574
-0.03051020 -0.32349393 0.00000080
-0.64679778 -0.77537417 0.00001075
-0.25446221 -0.06674612 0.00000468
-0.17112386 -0.16089647 0.00000324
-0.28726989 -0.15589775 0.00000517
-0.45881638 -0.78761059 0.00000762
-0.36627063 -0.07481361 0.00016437
-0.06949869 -0.25957564 0.00000149
-0.38700739 -0.38220307 0.00000668
-0.68413329 -0.24218705 0.01019586
-0.16517742 -0.43140215 0.00000297
-0.53880078 0.23234303 0.01226019
-0.18919089 -0.62578702 0.00000325
-0.35868216 -0.79887867 0.00000595
-0.15891163 0.10094987 0.00000821
-0.73723400 -0.37451491 0.01012763
-0.66419333 -0.29840302 0.00845171
-0.35500586 -0.10625041 0.00000633
-0.18280689 0.33229345 0.00000467
-0.39654019 0.01193024 0.00283554
-0.31105337 -0.76229811 0.00000519
-0.17271434 -0.17946048 0.00000325
-0.13064355 0.13724345 0.00000814
-0.15846367 -0.00611901 0.00000313
-0.09773626 0.60204726 0.00063755
-0.07523315 -0.21779294 0.00000161
-0.11740043 0.37253553 0.00000511
-0.33716008 -0.63155407 0.00000570
-0.22044922 -0.35740012 0.00000394
-0.73274392 -0.15289082 0.01364990
-0.05719832 0.17004459 0.00000880
-0.79131222 -0.49543506 0.01028935
-0.08527177 -0.44296119 0.00000164
-0.37581509 -0.34983772 0.00000652
-0.13539174 -0.13434719 0.00000266
-0.12222339 0.06456626 0.00000927
-0.49667543 -0.68124008 0.00000832
-0.18649796 -0.37665766 0.00000336
-0.18197255 0.53766960 0.00296140
-0.12538436 -0.02219520 0.00000257
-0.25675049 0.13338761 0.00000629
-0.44842902 -0.68814552 0.00000751
-0.09510978 -0.04190769 0.00000205
-0.74846894 -0.30082217 0.01181251
-0.23197269 0.33185980 0.00154011
-0.70629781 -0.00768326 0.01500910
-0.44668496 0.29930827 0.00966158
-0.08512318 -0.12858215 0.00000183
-0.76651055 -0.70316833 0.00581702
-0.74719429 -0.77161556 0.00389366
-0.34774223 -0.68769252 0.00000584
-0.25975496 0.03827756 0.00000755
-0.62690359 -0.70830536 0.00009702
-0.44878483 -0.30545112 0.00000776
-0.69686747 -0.38983178 0.00824255
-0.06522372 -0.08620758 0.00000153
-0.24872328 -0.44535866 0.00000435
-0.28577623 -0.06085799 0.00000521
-0.39336422 -0.32963458 0.00000682
-0.09631667 0.02428076 0.00001021
-0.41698658 0.00940393 0.00361851
-0.49191248 -0.79985815 0.00000816
-0.51143992 -0.04572621 0.00650923
-0.38476852 -0.55266899 0.00000654
-0.01822762 -0.46639773 0.00000051
-0.10682837 0.09923490 0.00000902
-0.03788700 0.48059464 0.00000482
-0.76607388 -0.03193879 0.01701623
-0.32307631 -0.38049302 0.00000562
-0.17397711 0.31661993 0.00000502
-0.16382079 0.29340985 0.00000549
-0.62540168 -0.49151182 0.00365917
-0.77921849 0.01609074 0.01834926
-0.25419492 -0.03555654 0.00000470
-0.15384369 -0.71876448 0.00000260
-0.17545991 -0.08510682 0.00000336
-0.25427115 -0.48678091 0.00000442
-0.30016899 -0.47957030 0.00000518
-0.06750469 0.08672628 0.00000979
-0.72507465 -0.23546092 0.01196058
-0.24097221 0.32794297 0.00183786
-0.44746640 0.32944068 0.01019665
-0.30024189 -0.46330622 0.00000519
-0.55036521 -0.02105554 0.00849245
-0.37903011 -0.53912181 0.00000645
-0.09868373 0.46097806 0.00000417
-0.67551398 0.06516410 0.01498404
-0.02941143 -0.57202744 0.00000063
-0.49542138 -0.30347261 0.00155564
-0.50585985 0.10346203 0.00877706
-0.72762430 -0.38460547 0.00957118
-0.20806326 -0.54231179 0.00000361
-0.29400495 -0.65704715 0.00000497
-0.50409961 -0.54414684 0.00000853
-0.56871152 -0.27131629 0.00505086
-0.28680155 -0.14167763 0.00000517
-0.47501421 -0.19443601 0.00255411
-0.71206546 -0.77147549 0.00247832
-0.07032196 -0.24339198 0.00000152
-0.00372522 -0.71754742 0.00000005
-0.74599266 -0.14034151 0.01439431
-0.13600154 -0.41416323 0.00000250
-0.66122419 0.12627429 0.01542852
-0.15804051 -0.67550987 0.00000270
-0.56711531 0.02339586 0.00991127
-0.57566595 0.01859054 0.01017606
-0.56963301 0.09136870 0.01114875
-0.17561179 0.46120584 0.00142693
-0.71428496 -0.24405427 0.01138153
-0.04534280 0.32850942 0.00000680
-0.67657429 0.05466483 0.01485138
-0.13295192 -0.77632868 0.00000222
-0.62113613 -0.01636604 0.01142702
-0.22641049 0.18581477 0.00000603
-0.25665644 0.19399662 0.00023252
-0.70174575 -0.78710926 0.00180060
-0.04065903 0.65201283 0.00000242
-0.00667270 0.40502754 0.00000633
-0.17526528 -0.38046825 0.00000317
-0.41051418 0.22873323 0.00702243
-0.26092246 -0.25888231 0.00000467
-0.05628256 0.57486790 0.00000325
-0.35238123 0.21459150 0.00443996
-0.02556565 -0.61464274 0.00000054
-0.51630259 0.03361866 0.00803138
-0.08708858 -0.46997017 0.00000165
-0.08877276 0.28051665 0.00000680
-0.28244385 0.47458786 0.00596212
-0.51517111 -0.64281654 0.00000865
-0.27047783 0.45829308 0.00520689
-0.25693280 0.47779265 0.00498609
-0.52739400 -0.04509312 0.00716369
-0.66493833 -0.24265774 0.00941332
-0.11996756 0.16269907 0.00000795
-0.08493920 0.71086991 0.00193958
-0.32954293 0.00246979 0.00000699
-0.77714539 -0.54074305 0.00896049
-0.69978148 -0.43098128 0.00767252
-0.48062336 -0.14142299 0.00366637
-0.46961105 -0.53440589 0.00000796
-0.05857602 0.69846231 0.00066827
-0.17990769 -0.54211396 0.00000315
-0.12410893 0.09804125 0.00000878
-0.07834609 -0.11243347 0.00000173
-0.12269165 -0.55499101 0.00000219
-0.74200791 -0.09474594 0.01499542
-0.28528610 -0.16315889 0.00000513
-0.68362361 -0.55038458 0.00502511
-0.24127539 -0.39780164 0.00000426
-0.01145677 -0.42487004 0.00000042
-0.10099053 -0.52195019 0.00000185
-0.24705487 -0.30969921 0.00000441
-0.68093765 -0.52078921 0.00541126
-0.66008025 0.13653004 0.01555373
-0.53762501 0.05553221 0.00925811
-0.11732203 -0.08244252 0.00000240
-0.38445854 0.35084268 0.00801140
-0.68108940 -0.73445326 0.00184691
-0.59899396 -0.14381695 0.00840361
-0.69673544 -0.11878355 0.01276662
-0.26198989 -0.21632820 0.00000471
-0.03083244 -0.07325857 0.00000097
-0.39893231 -0.59044707 0.00000675
-0.58436882 -0.64392573 0.00000980
-0.71442181 -0.78590256 0.00233233
-0.32971680 -0.63598728 0.00000558
-0.48300180 -0.07523089 0.00486847
-0.78873694 -0.08566857 0.01703301
-0.72736108 -0.26707029 0.01152465
-0.41900581 -0.01276398 0.00332956
-0.50587696 -0.56436551 0.00000854
-0.42182907 0.32628572 0.00910925
-0.61915821 -0.10061373 0.00993936
-0.72591442 -0.14480495 0.01350940
-0.13428769 -0.11080206 0.00000266
-0.79639751 -0.32113063 0.01340737
-0.28694433 -0.31629515 0.00000506
-0.08180617 -0.74935812 0.00000139
-0.40408549 0.01564888 0.00320220
-0.34178019 0.35237330 0.00631455
-0.61186057 -0.28655002 0.00653772
-0.47125199 -0.57012087 0.00000797
-0.28897777 -0.28644049 0.00000512
-0.00093055 -0.09441928 0.00000044
-0.68988383 -0.15105508 0.01195082
-0.56983393 0.12201782 0.01166903
-0.23418637 0.12634683 0.00000673
-0.20756593 -0.24147902 0.00000379
-0.42939439 0.22130118 0.00766021
-0.24443899 0.38129488 0.00286932
-0.53569353 -0.38726279 0.00178077
-0.63702881 0.16193639 0.01504797
-0.08587527 -0.40239242 0.00000167
-0.05866372 0.14117727 0.00000917
-0.08237015 -0.55068004 0.00000152
-0.66955662 0.08968747 0.01515341
-0.31935272 -0.48778468 0.00000550
-0.59175044 -0.79918349 0.00000982
-0.25943235 0.22211865 0.00081448
-0.04683289 0.26071316 0.00000771
-0.50704032 0.05872776 0.00807717
-0.03421925 -0.23750967 0.00000092
-0.29117137 -0.05648985 0.00000530
-0.75450158 -0.51285762 0.00851265
-0.16442537 0.34670341 0.00000475
-0.37392741 -0.58944815 0.00000634
-0.15002154 0.61395848 0.00294675
-0.37381494 -0.51052976 0.00000639
-0.15114455 -0.71423709 0.00000256
-0.38615528 0.39330420 0.00878944
-0.01794124 -0.46399277 0.00000051
-0.49850437 -0.03102387 0.00623286
-0.56182712 -0.63009769 0.00000943
-0.48716080 -0.30856967 0.00113708
-0.58308595 0.12433890 0.01224265
-0.03138410 -0.04893231 0.00000099
-0.35019502 -0.78874218 0.00000582
-0.36948475 0.14092395 0.00389920
-0.41667607 0.19355322 0.00668324
-0.69287944 -0.74524420 0.00214239
-0.14023298 0.28624755 0.00000595
-0.49834406 -0.42037034 0.00000851
-0.50693953 -0.17974973 0.00408798
-0.18823959 -0.38371727 0.00000338
-0.19041824 -0.69800103 0.00000322
-0.01711925 -0.35427111 0.00000056
-0.04591505 0.22196485 0.00000826
-0.02568869 0.22343592 0.00000854
-0.23183276 0.39527261 0.00259413
-0.79724890 -0.42486602 0.01170821
-0.49987689 0.03337806 0.00736445
-0.64349931 -0.14541909 0.01017300
-0.53250217 -0.28657594 0.00333451
-0.09623604 -0.69683832 0.00000166
-0.62686878 -0.65768915 0.00094145
-0.02240816 -0.57183319 0.00000051
-0.36107916 0.30358446 0.00627813
-0.27546430 -0.43201521 0.00000480
-0.78609043 -0.35462168 0.01243174
-0.33570242 -0.13270885 0.00000599
-0.08361392 -0.47209471 0.00000159
-0.61054975 -0.43499005 0.00400429
-0.25391859 -0.14399335 0.00000462
-0.50639027 -0.25234914 0.00285263
-0.71382517 -0.52603728 0.00665084
-0.04550778 -0.73123348 0.00000080
-0.26780865 -0.43744263 0.00000467
-0.57471412 -0.35318422 0.00392505
-0.14420797 0.17316827 0.00000744
-0.00239575 -0.02369060 0.00000049
-0.43332744 -0.10428799 0.00237813
-0.01930823 0.57472914 0.00000381
-0.50114703 -0.28171384 0.00215032
-0.59803110 -0.03879977 0.01011965
-0.12233046 -0.03864348 0.00000251
-0.13874869 0.25711766 0.00000637
-0.22628526 0.38809574 0.00225031
-0.29411218 -0.24836382 0.00000523
-0.54383194 -0.19208729 0.00537073
-0.49975464 -0.29634640 0.00184960
-0.14052892 -0.36388510 0.00000261
-0.25374097 -0.56970662 0.00000436
-0.34210524 -0.50671178 0.00000586
-0.43805996 -0.08389154 0.00290997
-0.08664722 0.35060269 0.00000587
-0.18640691 -0.14794569 0.00000350
-0.22500695 -0.72699994 0.00000378
-0.63076437 -0.73756790 0.00001051
-0.79967332 -0.43536660 0.01163058
-0.60407537 -0.17725441 0.00804992
-0.00875447 -0.08154340 0.00000059
-0.37602893 0.04070364 0.00248857
-0.21861264 -0.45433053 0.00000384
-0.32038450 0.47886279 0.00756478
-0.30196649 0.34722811 0.00462175
-0.52634734 -0.63017833 0.00000884
-0.26707137 0.39512649 0.00401386
-0.38343912 -0.00367852 0.00204597
-0.60192984 0.04602143 0.01169442
-0.65588921 -0.32027176 0.00775113
-0.39919680 -0.01832602 0.00243716
-0.29109195 -0.69514740 0.00000490
-0.06992717 -0.46094635 0.00000137
-0.02430394 -0.32004169 0.00000070
-0.00080219 -0.58140028 0.00000015
-0.00400785 0.70443344 0.00000225
-0.05666280 -0.55003625 0.00000110
-0.07505305 0.62364542 0.00008302
-0.54384953 0.09405422 0.01015305
-0.21816729 -0.18323658 0.00000401
-0.60209954 -0.11346014 0.00903623
-0.00319295 -0.71626735 0.00000011
-0.11542864 -0.28593436 0.00000224
-0.75356370 -0.05268569 0.01616465
-0.10291197 -0.36517078 0.00000198
-0.16573213 0.47788331 0.00130689
-0.22953168 -0.30283365 0.00000412
-0.45515501 -0.61550367 0.00000767
-0.31590530 -0.52497715 0.00000542
-0.36478066 -0.57627463 0.00000619
-0.31469083 0.10616619 0.00110698
-0.34479579 -0.32869387 0.00000602
-0.38953128 -0.50361454 0.00000665
-0.36496443 -0.16582026 0.00000645
-0.31500646 -0.12613243 0.00000565
-0.06017389 -0.01169511 0.00000149
-0.63728219 -0.79846233 0.00001058
-0.28202647 -0.71436709 0.00000473
-0.02914111 0.64736706 0.00000266
-0.69928247 -0.38340706 0.00844738
-0.72754037 -0.76542753 0.00320390
-0.11647636 -0.42726713 0.00000217
-0.78168613 -0.02136011 0.01782310
-0.78979129 -0.32625541 0.01305512
-0.07108049 0.13042404 0.00000913
-0.25110570 0.26411048 0.00118015
-0.69364578 -0.61086094 0.00441899
-0.14944325 0.07217119 0.00000875
-0.15237115 -0.04969139 0.00000300
-0.11752151 -0.66830122 0.00000203
-0.55027866 0.23493820 0.01276679
-0.00019208 0.51410657 0.00000493
-0.37327513 0.22657092 0.00548339
-0.31864962 -0.19137222 0.00000567
-0.50402921 -0.74636650 0.00000840
-0.47650579 0.09513553 0.00745324
-0.19087626 -0.36194867 0.00000344
-0.78484231 -0.56183141 0.00891870
-0.25045455 0.20649849 0.00019113
-0.69032073 -0.31057996 0.00930269
-0.20813172 0.11758314 0.00000724
-0.03879890 0.14181133 0.00000946
-0.04362369 -0.76983184 0.00000074
-0.09139667 -0.12528431 0.00000194
-0.00726402 -0.29963684 0.00000043
-0.64788967 0.06594190 0.01388217
-0.76379353 -0.35097888 0.01159279
-0.24890423 0.06995178 0.00000728
-0.39184037 0.37454855 0.00870546
-0.69094300 -0.53390235 0.00559593
-0.38969177 -0.43313628 0.00000670
-0.35958061 -0.11380575 0.00000640
-0.56321102 -0.10726020 0.00757035
-0.64876443 -0.44097081 0.00544662
-0.40797427 -0.39376718 0.00000703
-0.41341510 -0.49432805 0.00000705
-0.75689787 -0.72897726 0.00499779
-0.44734967 -0.28591111 0.00000775
-0.21956979 -0.30254441 0.00000396
-0.19572867 -0.55364412 0.00000340
-0.59800261 -0.47969517 0.00275085
-0.44644934 -0.42324370 0.00000765
-0.20700806 0.33312085 0.00055365
-0.51270151 0.17868659 0.01031023
-0.27378079 0.01335487 0.00000769
-0.58643752 -0.60843676 0.00013275
-0.31276861 -0.78007853 0.00000520
-0.39421305 -0.47418934 0.00000675
-0.57688487 -0.63237232 0.00000968
-0.46372515 0.33488831 -0.00000074
-0.17656684 -0.70462680 0.00000299
-0.24852242 -0.42848197 0.00000436
-0.03577386 -0.78536266 0.00000060
-0.73816007 0.00171054 0.01645198
-0.30557844 -0.72164637 0.00000512
-0.04021004 0.65547007 0.00000238
-0.02777869 0.19728552 0.00000887
-0.64216942 -0.00160638 0.01252253
-0.50433105 -0.42440897 0.00000861
-0.28882554 -0.46248394 0.00000500
-0.27210847 -0.51577657 0.00000469
-0.07867204 -0.70905060 0.00000136
-0.09601833 -0.13192038 0.00000201
-0.54573500 0.21641815 0.01227393
-0.34834224 0.01683172 0.00097226
-0.37470484 -0.06544122 0.00066138
-0.53373200 -0.20038611 0.00482443
-0.00456462 -0.47867015 0.00000020
-0.06545018 -0.60121518 0.00000121
-0.25400978 -0.24911065 0.00000456
-0.19902547 -0.75768191 0.00000333
-0.79926920 -0.16558884 -0.00000159
-0.65236938 -0.10920854 0.01113608
-0.50778985 -0.66035086 0.00000852
-0.67532581 -0.40922037 0.00704917
-0.07696494 0.66548628 0.00085936
-0.10702033 0.69223690 0.00000061
-0.67690158 -0.42573109 0.00683686
-0.10694538 0.37407631 0.00000524
-0.57270676 -0.10300386 0.00802471
-0.21157679 0.19882312 0.00000607
-0.05077198 -0.20325835 0.00000122
-0.55657268 -0.23367427 0.00518998
-0.24831872 -0.00202766 0.00000462
-0.04107840 0.04214561 0.00001080
-0.68095452 -0.32545543 0.00867610
-0.35416025 -0.65178627 0.00000597
-0.18843502 -0.42423561 0.00000336
-0.28239924 -0.32987693 0.00000498
-0.04862520 -0.71868467 0.00000086
-0.42714480 -0.14645836 0.00142392
-0.54186571 0.25359440 0.01273901
-0.11699165 -0.04457560 0.00000241
-0.71859694 -0.72994900 0.00343586
-0.54400605 -0.53760350 0.00000919
-0.49044403 -0.36591244 0.00031135
-0.73928195 -0.46019986 0.00877840
-0.49498314 -0.60318065 0.00000834
-0.54961246 -0.64463073 0.00000922
-0.29283810 -0.13481089 0.00000528
-0.16517398 -0.09134534 0.00000318
-0.10094150 -0.15376186 0.00000208
-0.22308943 -0.48773029 0.00000390
-0.29294661 -0.58358765 0.00000500
-0.77428305 -0.19082886 0.01469237
-0.14043780 0.38623244 0.00000457
-0.66074753 0.13423236 0.01554227
-0.28285038 -0.74403840 0.00000473
-0.28524393 -0.34754351 0.00000502
-0.33603945 -0.55713171 0.00000573
-0.47831509 -0.43898869 0.00000816
-0.00936365 0.46322796 0.00000549
-0.33418432 0.39843169 0.00677766
-0.25196597 -0.54907650 0.00000434
-0.69213706 -0.15543503 0.01196856
-0.72698671 -0.77229893 0.00306673
-0.08226089 -0.53747827 0.00000153
-0.72735572 -0.01570965 0.01572483
-0.51616496 -0.52161497 0.00000874
-0.28869176 0.18705007 0.00140933
-0.03460283 -0.03485049 0.00000105
-0.49010083 -0.11163092 0.00454671
-0.36461359 -0.09810227 0.00000649
-0.18184468 -0.38600633 0.00000328
-0.44407222 -0.50143278 0.00000756
-0.20932601 -0.08274869 0.00000392
-0.48402172 -0.00773480 0.00603754
-0.02281101 0.26336634 0.00000803
-0.43549487 0.35419548 0.01012717
-0.23710866 -0.74292290 0.00000397
-0.49344203 -0.37800288 0.00023030
-0.65436327 -0.72622603 0.00090578
-0.26114023 0.15286155 0.00000596
-0.08196560 -0.39958832 0.00000161
-0.37705344 0.25647759 0.00613564
-0.15063268 -0.49781734 0.00000269
-0.24767485 -0.78043127 0.00000412
-0.00878115 -0.62493080 0.00000026
-0.25202629 0.27817985 0.00145241
-0.45042452 -0.56746870 0.00000762
-0.48944208 -0.75550318 0.00000815
-0.74720222 0.05150047 0.01764892
-0.59225887 0.05153978 0.01139633
-0.50923866 0.27341783 0.01175350
-0.42027232 0.05701006 0.00454665
-0.10285934 -0.24076816 0.00000206
-0.70809585 -0.33111992 0.00967682
-0.06059431 0.35979736 0.00000614
-0.59357435 -0.79254925 0.00000986
-0.36333978 0.23543800 0.00523059
-0.04123025 -0.29310572 0.00000100
-0.33105570 -0.34368119 0.00000578
-0.76485050 0.03431439 -0.00000186
-0.45570821 -0.56469434 0.00000771
-0.04004373 -0.10987881 0.00000110
-0.09234440 -0.62200987 0.00000164
-0.10192194 -0.06285767 0.00000215
-0.24220873 -0.04860599 0.00000449
-0.75227976 -0.34794110 0.01117890
-0.70486706 -0.12663850 0.01296353
-0.05156739 0.70378691 0.00047439
-0.11374547 0.65466082 0.00216287
-0.43792984 0.36071914 0.01033445
-0.54163766 -0.40287527 0.00175977
-0.18815410 -0.42720145 0.00000336
-0.27098569 -0.74591774 0.00000453
-0.04765772 0.67349589 0.00000202
-0.47248185 0.10035977 0.00737814
-0.38881284 0.10988342 0.00416054
-0.17547622 0.22021523 0.00000632
-0.00516394 -0.22134247 0.00000045
-0.34751695 -0.13253592 0.00000619
-0.24748304 -0.27061167 0.00000444
-0.66344643 0.00180280 0.01343820
-0.15027332 0.02323795 0.00000941
-0.61881530 -0.79284769 0.00001028
-0.15639003 -0.41105229 0.00000284
-0.21987315 0.15383789 0.00000657
-0.04662675 0.01027850 0.00001116
-0.00553985 -0.33577615 0.00000038
-0.43727711 0.35836142 0.01026864
-0.20699163 -0.06378753 0.00000390
-0.42115456 -0.49170944 0.00000718
-0.06507909 0.41475064 0.00000532
-0.32604629 -0.65681541 0.00000550
-0.30298987 -0.75831819 0.00000506
-0.64669973 -0.69563591 0.00110768
-0.40139207 0.30617720 0.00794842
-0.44190818 0.25718415 0.00876488
-0.24108954 -0.60405707 0.00000412
-0.38879719 -0.75828624 0.00000648
-0.18040520 0.11257312 0.00000773
-0.01619879 -0.04184992 0.00000074
-0.69348693 0.00039425 0.01462705
-0.23694246 -0.46854231 0.00000414
-0.74152285 -0.48465580 0.00846015
-0.62355560 -0.59312069 0.00188671
-0.01824179 -0.76796383 0.00000032
-0.78296947 -0.59040743 0.00836559
-0.65309125 -0.07241107 0.01178012
-0.03534532 -0.56736428 0.00000073
-0.08379381 -0.25303423 0.00000173
-0.56976038 -0.32695496 0.00416343
-0.38563198 -0.43927637 0.00000663
-0.41962644 -0.42682368 0.00000720
-0.50861043 -0.51997119 0.00000862
-0.26627675 -0.03612752 0.00000490
-0.22669180 -0.65781230 0.00000385
-0.19170693 0.06185843 0.00000826
-0.64592117 -0.16873644 0.00988109
-0.13552044 0.02368001 0.00000963
-0.07642289 0.27647060 0.00000705
-0.13911588 0.06286930 0.00000904
-0.07198304 -0.47116715 0.00000140
-0.40690014 0.18319751 0.00611564
-0.02028467 0.13985848 0.00000977
-0.08572153 0.30718943 0.00000648
-0.05305070 -0.19852333 0.00000126
-0.47470632 -0.77804846 0.00000789
-0.18934080 -0.20647083 0.00000351
-0.49152967 0.02121061 0.00682424
-0.52098966 -0.71905214 0.00000870
-0.63844877 -0.67641956 0.00109580
-0.28224853 -0.56201768 0.00000483
-0.34604940 -0.67761314 0.00000582
-0.22797033 -0.45959279 0.00000400
-0.25413203 -0.35969156 0.00000449
-0.35747132 0.28530076 0.00582699
-0.08328535 -0.46532038 0.00000159
-0.50985634 -0.15327740 0.00464807
-0.24694061 0.45178837 0.00414827
-0.34151837 -0.00937946 0.00025885
-0.16301174 0.43043068 0.00040414
-0.08274107 -0.03311043 0.00000185
-0.22947909 -0.56315410 0.00000396
-0.16008531 0.14015859 0.00000766
-0.37596938 0.28161663 0.00651198
-0.29198375 -0.33329555 0.00000514
-0.27462590 -0.48557037 0.00000475
-0.76593775 -0.29306975 0.01264704
-0.56968158 -0.48404181 0.00153523
-0.51040137 0.16385287 0.00996952
-0.28291100 0.44496170 0.00548590
-0.03163703 -0.60020316 0.00000065
-0.13323051 -0.40041646 0.00000246
-0.03518448 -0.72073030 0.00000063
-0.69894677 -0.48404244 0.00675215
-0.26912135 0.23870637 0.00148271
-0.63591689 -0.07570615 0.01103193
-0.53953815 -0.61509871 0.00000907
-0.05831737 -0.75758386 0.00000099
-0.08480815 -0.73149353 0.00000145
-0.20153339 -0.52869028 0.00000351
-0.22347683 -0.02033368 0.00000420
-0.49182367 -0.55604523 0.00000832
-0.46480119 -0.71394753 0.00000777
-0.56267291 -0.35857886 0.00334894
-0.17218417 -0.00911915 0.00000335
-0.60463488 -0.00710668 0.01091578
-0.30721605 -0.21372265 0.00000547
-0.53427047 -0.76205826 0.00000889
-0.53646493 -0.58238828 0.00000904
-0.32852051 -0.45992306 0.00000567
-0.76882422 -0.31242508 0.01244008
-0.13078716 0.12610129 0.00000829
-0.19876932 0.26019996 0.00000542
-0.62894905 -0.25841209 0.00769759
-0.16178368 0.08670954 0.00000837
-0.46604446 0.30238074 0.01049424
-0.30026427 0.15085417 0.00127152
-0.43801355 0.06675872 0.00542556
-0.36265656 0.20467515 0.00468895
-0.00104338 -0.28253576 0.00000034
-0.15238446 -0.30175930 0.00000284
-0.76270151 -0.09466042 0.01583201
-0.20035304 0.40837401 0.00154259
-0.34569335 -0.57787442 0.00000588
-0.29693618 0.27987742 0.00329326
-0.13142708 0.23243155 0.00000682
-0.46643317 -0.10946645 0.00362769
-0.38206494 -0.16590458 0.00000674
-0.25858256 -0.32167625 0.00000459
-0.47769350 0.07119875 0.00710117
-0.57573295 -0.03727223 0.00924526
-0.09420942 0.41842970 0.00000483
-0.53826135 -0.18551534 0.00525573
-0.54319370 -0.20231441 0.00517407
-0.35225329 -0.42052716 0.00000608
-0.25882825 -0.78099531 0.00000431
-0.21207269 -0.73184431 0.00000356
-0.72327149 -0.47379416 0.00790510
-0.25556508 -0.36749667 0.00000451
-0.02566227 0.37412915 0.00000647
-0.25039136 -0.03744048 0.00000463
-0.16502865 0.01525239 0.00000930
-0.14313498 -0.08531833 0.00000282
-0.61900979 -0.18249483 0.00856508
-0.47719240 -0.43644938 0.00000815
-0.08109411 -0.37707436 0.00000161
-0.68979800 -0.01772696 0.01417535
-0.00802164 0.02538351 0.00001153
-0.16679142 -0.16906337 0.00000316
-0.36018005 -0.26458856 0.00000631
-0.53983593 -0.37235633 0.00219704
-0.23113279 -0.45075539 0.00000405
-0.06799585 -0.15733846 0.00000153
-0.09511407 0.21095021 0.00000766
-0.23039158 -0.38826752 0.00000408
-0.69551647 -0.71442527 0.00276382
-0.43429404 -0.34904689 0.00000749
-0.39710173 -0.49039742 0.00000678
-0.30942765 -0.71308792 0.00000519
-0.20682074 0.18044996 0.00000640
-0.71709031 -0.32683265 0.01011147
-0.38492006 0.35829619 0.00815458
-0.77296066 -0.50272149 0.00942698
-0.30029634 0.46401000 0.00650585
-0.41607833 0.28103057 0.00812092
-0.72241688 -0.06551195 0.01469328
-0.08486079 0.00254969 0.00001068
-0.35930848 -0.22220457 0.00000632
-0.58776277 -0.78463423 0.00000977
-0.55099499 -0.38338581 0.00246310
-0.74820071 -0.34848672 0.01100516
-0.22920588 0.12122703 0.00000687
-0.30304870 -0.42941561 0.00000526
-0.61437440 0.14457265 0.01384352
-0.27514690 0.29431960 0.00265522
-0.39222234 -0.08025224 0.00112085
-0.12662308 0.67192096 0.00297101
-0.28748077 -0.54974461 0.00000493
-0.08536764 -0.53234625 0.00000158
-0.19033889 0.13852529 0.00000722
-0.58599174 -0.47374362 0.00236557
-0.66844249 -0.11296028 0.01172207
-0.16141857 -0.53384817 0.00000285
-0.48192635 0.28392321 0.01082677
-0.30165222 0.14682205 0.00126015
-0.20837446 0.51632249 0.00367021
-0.28977960 -0.13643529 0.00000522
-0.18520308 0.25554258 0.00000569
-0.47528189 -0.56941193 0.00000803
-0.16586635 0.60790545 0.00348507
-0.01996993 -0.45717350 0.00000055
-0.16108003 0.33477256 0.00000497
-0.60621351 -0.41865370 0.00410227
-0.16651689 -0.01549942 0.00000325
-0.06960279 -0.07648561 0.00000161
-0.48471951 -0.28342786 0.00145869
-0.64593172 0.05741450 0.01366065
-0.05369967 0.43734646 0.00000518
-0.51792341 -0.50665587 0.00000878
-0.65060049 -0.18417025 0.00981203
-0.23687153 -0.07228443 0.00000439
-0.46473542 -0.18522632 0.00229318
-0.34720972 -0.51900589 0.00000594
-0.40150616 -0.73308671 0.00000671
-0.43079457 -0.55362791 0.00000730
-0.37437600 0.13505271 0.00399849
-0.23414493 0.30590683 0.00119408
-0.32832804 -0.75952506 0.00000547
-0.08765178 -0.78970385 0.00000146
-0.46051967 -0.41787538 0.00000788
-0.72715080 -0.09800202 0.01434140
-0.44980451 -0.43628189 0.00000769
-0.15419205 0.61785215 0.00318013
-0.72912085 -0.09324021 0.01450048
-0.02463003 0.52405030 0.00000442
-0.72244781 -0.25982103 0.01144750
-0.08200393 -0.02138384 0.00000185
-0.30108351 -0.48662582 0.00000519
-0.13059197 -0.09684266 0.00000261
-0.27342841 -0.59414619 0.00000467
-0.42806509 0.01500286 0.00415918
-0.24886070 0.03473394 0.00000777
-0.19868454 0.36387867 0.00073171
-0.75941336 -0.06741120 0.01615466
-0.36646810 0.16094780 0.00411207
-0.18215276 0.35156605 0.00000442
-0.40323564 -0.15613259 0.00029732
-0.54739892 -0.51268780 0.00015724
-0.26805696 0.33724478 0.00308639
-0.42776489 -0.10618582 0.00212192
-0.09487099 0.50747722 0.00000359
-0.18151627 -0.41283402 0.00000325
-0.18676443 0.08743209 0.00000798
-0.63754892 0.16066483 -0.00000136
-0.35899180 -0.70290905 0.00000602
-0.22593360 0.26017690 0.00009851
-0.55296123 -0.15763734 0.00631485
-0.09335455 0.12482852 0.00000887
-0.39662617 -0.20991053 0.00000695
-0.48360246 0.02641150 0.00659123
-0.19193213 0.45413879 0.00196750
-0.41457465 0.08417177 0.00477059
-0.57156998 -0.62166780 0.00000960
-0.63787544 -0.70564842 0.00058423
-0.61630052 -0.50917399 0.00299671
-0.68265468 -0.47895366 0.00617966
-0.26496243 0.19940642 0.00065813
-0.25189838 0.32921576 0.00230009
-0.58873165 -0.45418328 0.00280301
-0.32459441 -0.77881479 0.00000540
-0.75427091 -0.36595839 0.01095817
-0.56179148 -0.61416864 0.00000944
-0.06200443 0.62087446 0.00000253
-0.71938193 -0.16017558 0.01298890
-0.04756284 -0.71174079 0.00000084
-0.62311167 -0.75617248 0.00001037
-0.55166918 -0.46393639 0.00114425
-0.43366733 -0.37485531 0.00000746
-0.07263038 0.33041996 0.00000636
-0.35695821 0.29946351 0.00604295
-0.47733539 -0.13264389 0.00368038
-0.36474997 -0.39558449 0.00000631
-0.67477214 -0.36784530 0.00771823
-0.38090599 0.28590670 0.00678290
-0.50809509 -0.04030471 0.00646484
-0.12222929 0.44467083 0.00000404
-0.58605403 0.04655482 0.01106261
-0.45266882 -0.08905985 0.00341319
-0.22174852 -0.08771232 0.00000413
-0.46843413 -0.24240695 0.00148692
-0.58266717 0.04408685 0.01088468
-0.07325526 -0.14544524 0.00000162
-0.14997618 0.00579690 0.00000966
-0.64419770 0.09741437 0.01425909
-0.56831497 -0.72155142 0.00000948
-0.64948249 -0.29467362 0.00792033
-0.00377757 0.54873300 0.00000440
-0.07300450 -0.69633096 0.00000128
-0.58420116 -0.57756990 0.00055830
-0.17129385 0.17612205 0.00000699
-0.68247992 -0.17373687 0.01127298
-0.68234277 0.11362788 0.01606950
-0.64825034 -0.74581635 0.00033171
-0.01298953 -0.74501401 0.00000025
-0.54306835 -0.57609177 0.00000915
-0.21441671 0.42141071 0.00232803
-0.47632912 -0.00045568 0.00584872
-0.03087195 -0.70790112 0.00000057
-0.78105712 -0.13309598 0.01593052
-0.10622974 -0.44133550 0.00000199
-0.18496837 -0.15258346 0.00000347
-0.71310657 -0.47007218 0.00755706
-0.53849155 0.20889719 0.01185591
-0.31142256 0.10915318 0.00102500
-0.51676476 -0.17840813 0.00450693
-0.19239707 0.17706496 0.00000666
-0.58710569 0.10593609 0.01209735
-0.76760250 -0.08029964 0.01626978
-0.22938366 -0.73847544 0.00000385
-0.44886902 -0.27584350 0.00013856
-0.20533557 0.58394247 0.00467754
-0.64000803 -0.79405951 0.00001063
-0.15204126 -0.71605843 0.00000258
-0.06158898 -0.32737955 0.00000132
-0.12950020 -0.01779898 0.00000264
-0.52114737 -0.56637096 0.00000880
-0.44254348 0.33054101 0.01001636
-0.37839612 0.42119443 0.00894235
-0.61948043 -0.50750601 0.00315292
-0.77041668 -0.64037997 0.00702391
-0.65453744 -0.30341741 0.00797822
-0.03553738 -0.03238132 0.00000107
-0.65147531 -0.24319066 0.00886107
-0.22076046 -0.73626322 0.00000370
-0.00260968 -0.46568349 0.00000021
-0.47050482 0.09925287 0.00727985
-0.41284752 -0.10945077 0.00146532
-0.24948682 0.26072413 0.00105822
-0.50206208 -0.71168154 0.00000839
-0.06324437 -0.25182465 0.00000139
-0.37511450 -0.23904224 0.00000658
-0.04788128 -0.71032876 0.00000085
-0.78815734 -0.35732478 0.01246999
-0.45639503 -0.48920214 0.00000777
-0.00186630 0.11836520 0.00001034
-0.10307888 -0.18798909 0.00000209
-0.01692975 0.42355487 0.00000592
-0.55340135 0.16785672 0.01177184
-0.18036930 0.61584294 0.00420302
-0.36564708 0.32164282 0.00676425
-0.17839220 -0.63045758 0.00000307
-0.57385308 0.14272948 0.01217734
-0.37951535 0.31885004 0.00727728
-0.09034552 0.20300984 0.00000785
-0.04199544 -0.14642987 0.00000111
-0.41373533 -0.68450958 0.00000694
-0.32734939 -0.24831322 0.00000578
-0.66369253 0.05109766 0.01427189
-0.13203645 -0.23193145 0.00000255
-0.51208413 0.21444531 0.01088287
-0.26574317 -0.43103629 0.00000464
-0.18288203 -0.02040568 0.00000352
-0.78781873 -0.44875526 0.01092843
-0.30677131 0.39236933 0.00557001
-0.17601424 0.60136056 0.00378525
-0.63569611 -0.30643457 0.00716740
-0.49045622 -0.06562501 0.00532984
-0.09995470 0.45854071 0.00000419
-0.67145181 -0.65485501 0.00278810
-0.74653989 -0.75498492 0.00414517
-0.16204730 -0.06585421 0.00000315
-0.64090782 -0.40085807 0.00579985
-0.44477010 -0.09919819 0.00292499
-0.06371123 -0.16502176 0.00000145
-0.05238468 -0.56519812 0.00000102
-0.02071425 -0.40353000 0.00000059
-0.00850538 -0.77098137 0.00000016
-0.51242906 -0.45794678 0.00000872
-0.31894216 -0.12107508 0.00000572
-0.54256809 0.04220712 0.00923494
-0.21519464 0.37189379 0.00153196
-0.65618199 0.05897160 0.01410035
-0.75190902 -0.34170178 0.01126820
-0.28880498 0.18771484 0.00142500
-0.58354521 -0.06548313 0.00908913
-0.06800308 -0.30574200 0.00000144
-0.36907521 0.10571987 0.00329439
-0.62945658 -0.15553842 0.00943716
-0.41007897 -0.26320395 0.00000714
-0.64609712 0.06939951 0.01386760
-0.70397544 -0.04533250 0.01428623
-0.03085350 -0.69061452 0.00000058
-0.18603389 0.24748869 0.00000579
-0.00517472 -0.55513972 0.00000024
-0.15542120 -0.44859415 0.00000280
-0.11285059 -0.08153046 0.00000232
-0.34917819 0.09884843 0.00237655
-0.56158805 -0.63760918 0.00000942
-0.64491141 -0.44332033 0.00525186
-0.28485611 -0.25484496 0.00000507
-0.35494629 0.16001773 0.00363152
-0.04949080 0.43869412 0.00000522
-0.40233776 -0.14846160 0.00038927
-0.77517366 -0.29807487 0.01293613
-0.53949523 -0.78909165 0.00000896
-0.50453103 -0.27780500 0.00235221
-0.52770686 0.04857056 0.00874150
-0.04291842 -0.30707681 0.00000102
-0.13479172 0.04617060 0.00000933
-0.76073498 -0.71409535 0.00540133
-0.35750791 0.15422811 0.00363816
-0.00188178 -0.01291461 0.00000049
-0.05356052 -0.79839146 0.00000089
-0.55961382 -0.59582371 0.00000942
-0.29646280 -0.03202043 0.00000540
-0.04543656 0.42799479 0.00000543
-0.09578861 -0.44492969 0.00000181
-0.56449592 -0.39870211 0.00275202
-0.44785830 -0.79492652 0.00000744
-0.01578852 -0.29040647 0.00000058
-0.65452826 -0.72527105 0.00092840
-0.71529424 -0.52465683 0.00673320
-0.11688141 0.00841613 0.00001012
-0.06811702 -0.51371181 0.00000131
-0.30533296 0.28650540 0.00374290
-0.21685097 -0.55240458 0.00000375
-0.58880502 -0.19735554 0.00709773
-0.35850483 -0.23293902 0.00000630
-0.61687517 -0.72922993 0.00001028
-0.24272078 -0.68491542 0.00000410
-0.33010477 0.46920419 0.00779566
-0.25840443 -0.01885560 0.00000478
-0.20778809 0.45143312 0.00256220
-0.22802548 0.07533062 0.00000752
-0.07752825 -0.12093511 0.00000171
-0.44997674 -0.21518373 0.00119693
-0.24222413 0.12431675 0.00000664
-0.36174941 0.43817478 -0.00000036
-0.18912789 -0.52973723 0.00000331
-0.68134981 0.11599401 0.01606893
-0.16547123 0.43682593 0.00061027
-0.68424892 -0.66746968 0.00309377
-0.34611139 -0.60786927 0.00000586
-0.76232976 -0.53121150 0.00852186
-0.50785691 -0.14100403 0.00477247
-0.07336726 -0.31398699 0.00000152
-0.07841206 0.55797172 0.00000314
-0.65572304 -0.29994366 0.00808412
-0.78871757 -0.13668400 0.01617971
-0.72445858 -0.26903018 0.01137476
-0.55643415 -0.79151422 0.00000924
-0.46843040 -0.78407395 0.00000778
-0.28522861 -0.22878788 0.00000509
-0.29988840 -0.24961516 0.00000532
-0.35287565 -0.71806228 0.00000591
-0.27736095 0.07104206 0.00000684
-0.35321948 0.36869854 0.00704903
-0.55651158 -0.10865028 0.00727675
-0.37780175 -0.79379630 0.00000627
-0.59256250 -0.52372169 0.00179559
-0.43282315 -0.12219034 0.00205862
-0.55133426 -0.62269807 0.00000926
-0.17270228 0.36365446 0.00000439
-0.47761732 -0.41276839 0.00000817
