ply
format ascii 1.0
element vertex 1238
property float x
property float y
property float z
end_header
-0.70647860 -0.28745282 -0.00000109
-0.06161321 -0.51465118 0.00000000
-0.37400517 -0.57253772 0.00000000
-0.11958739 0.58088052 0.00000136
-0.52475083 0.25177652 -0.00000092
-0.19776504 0.56882089 0.00000006
-0.05755930 0.04207395 0.09771899
-0.74798894 -0.11913757 -0.00000157
-0.51893556 0.06061329 0.00000239
-0.74365652 -0.50232291 -0.00000074
-0.29563722 -0.70218545 0.50190622
-0.77858442 -0.37708604 -0.00000106
-0.23708554 0.00549448 0.00000834
-0.34170204 -0.09028866 0.00000000
-0.63609874 -0.22419114 -0.00000090
-0.22552954 -0.20232835 0.00000000
-0.24183187 0.20845371 0.00000522
-0.37047458 -0.78086156 0.00000000
-0.08569294 0.21217926 0.00000752
-0.55235606 -0.51433909 -0.00000003
-0.19943963 -0.09337957 0.00000000
-0.21740903 -0.70053351 0.00000000
-0.50220138 -0.78456342 0.00000000
-0.06939055 0.29163101 0.00000658
-0.45864722 -0.58177894 0.00000000
-0.48220596 -0.69200653 0.00000000
-0.44367406 -0.14327472 -0.00000023
-0.17073001 -0.47446072 0.00000000
-0.50302011 -0.16012651 -0.00000045
-0.68273365 -0.69759578 -0.00000026
-0.61795324 -0.48474279 -0.00000037
-0.30806118 -0.67785478 0.00000000
-0.13587967 -0.51059437 0.00000000
-0.51592219 -0.71231806 0.00000000
-0.24643871 -0.50714058 0.00000000
-0.01394444 0.48757866 0.02367361
-0.43603584 -0.18720642 -0.00000012
-0.15975428 0.51689947 0.00000166
-0.53967559 0.15309452 0.00000044
-0.11133381 0.45692050 0.18901297
-0.15389088 -0.13451447 0.26126206
-0.17782615 0.57995683 0.00000026
-0.24635603 0.27816424 0.00000399
-0.58942336 -0.39365807 -0.00000041
-0.13060866 0.36339083 0.00000458
-0.55058283 -0.01610114 -0.00000091
-0.04642881 0.44632018 0.00000460
-0.19114183 -0.14297712 0.00000000
-0.39216554 0.24064448 0.00000181
-0.06736713 -0.22992694 0.00000000
-0.68373257 0.05518891 -0.00000069
-0.67266262 -0.08804218 -0.00000130
-0.51574266 -0.02209693 -0.00000075
-0.76347381 -0.50218779 -0.00000074
-0.20007806 0.24311604 0.00000533
-0.39527348 -0.33084163 0.00000000
-0.31850019 -0.55158532 0.00000000
-0.75783765 -0.09466257 -0.00000165
-0.78353888 -0.23093507 -0.00000142
-0.72492909 -0.74443555 -0.00000014
-0.56151354 -0.78028673 0.00000000
-0.41719291 0.01415893 0.00000512
-0.20765287 -0.12224406 0.00000000
-0.34808749 -0.40423647 0.59095269
-0.45603105 -0.24441512 -0.00000010
-0.16627742 -0.69097513 0.00000000
-0.61621410 -0.48387080 -0.00000036
-0.75252581 -0.51769274 -0.00000071
-0.76492584 -0.48680854 -0.00000078
-0.29954606 -0.63678735 0.50854230
-0.04405853 0.22297128 0.00000799
-0.62946165 -0.40211555 -0.00000056
-0.52212298 -0.04808267 -0.00000073
-0.19980855 -0.64992249 0.00000000
-0.37544048 0.19456597 0.00000290
-0.04812210 0.37806761 0.00000560
-0.36023572 0.39218587 -0.00000011
-0.13764793 -0.04185613 0.00000000
-0.02763343 -0.74793154 0.00000000
-0.23472112 -0.02369149 0.00000000
-0.34887761 0.05648080 0.00000572
-0.75745320 -0.59741807 -0.00000051
-0.15986972 -0.39147687 0.00000000
-0.29915485 0.17945161 0.00000462
-0.03630482 0.76169389 -0.00000009
-0.33991671 0.36539260 0.00000073
-0.18627755 -0.48478442 0.00000000
-0.50749558 -0.12388951 -0.00000053
-0.33262631 -0.37550217 0.00000000
-0.48433968 -0.51866072 0.00000000
-0.22874863 0.05509469 0.00000772
-0.34333575 -0.11052203 0.00000000
-0.47245425 -0.79253024 0.00000000
-0.28597334 0.10307602 0.00000614
-0.06767315 0.63116455 0.00000151
-0.15540491 0.27675298 0.00000550
-0.03318161 0.60164905 0.00000247
-0.76775432 -0.09643008 -0.00000169
-0.24107084 0.27871856 0.00000408
-0.77912563 -0.78286916 -0.00000004
-0.42060226 0.34110343 -0.00000041
-0.68302947 0.08988544 -0.00000126
-0.24588653 -0.71762401 0.00000000
-0.11669024 -0.78845817 0.19810617
-0.43326426 0.34637630 -0.00000074
-0.00626312 -0.15707102 0.01063296
-0.19879714 0.12545343 0.00000712
-0.08630720 0.07473023 0.00000958
-0.38862941 -0.46178806 0.65978098
-0.10603155 0.08639574 0.18001081
-0.47899860 0.01991082 0.00000383
-0.04182849 0.71299714 0.00000065
-0.46453726 -0.24514320 -0.00000013
-0.32685429 -0.31038052 0.00000000
-0.39112219 0.05049300 0.00000501
-0.38842401 -0.38608542 0.00000000
-0.72934234 -0.57439440 -0.00000056
-0.17546609 0.39399615 0.29789159
-0.06919376 0.69152701 0.00000048
-0.43721327 0.35541201 -0.00000097
-0.76023138 -0.37956402 -0.00000105
-0.16554284 -0.28712088 0.28104371
-0.69483948 -0.52740806 -0.00000062
-0.48583940 -0.09058652 -0.00000050
-0.25589296 0.29733360 0.00000348
-0.01308048 -0.44673395 0.02220686
-0.39608538 -0.36914572 0.67243940
-0.47241426 -0.56506187 0.00000000
-0.28784138 -0.50192952 0.00000000
-0.36976656 0.06325142 0.00000521
-0.14361696 -0.41422138 0.00000000
-0.12547477 0.45776105 0.00000324
-0.44299117 -0.43689063 0.00000000
-0.13310616 0.05591342 0.00000915
-0.29754052 -0.49685618 0.00000000
-0.64964056 -0.75998223 -0.00000001
-0.27381364 0.43340409 0.00000087
-0.34128070 -0.67416447 0.00000000
-0.07209176 -0.08674482 0.12239089
-0.68267512 -0.43368450 -0.00000073
-0.20579182 -0.23488194 0.00000000
-0.40429211 -0.49884480 0.00000000
-0.67852694 -0.12313797 -0.00000126
-0.13072087 0.40617633 0.00000393
-0.39675653 -0.43289497 0.00000000
-0.43536946 0.07905319 0.00000368
-0.02961909 -0.07495582 0.05028462
-0.69757974 -0.35619128 -0.00000093
-0.38394347 -0.77893043 0.00000000
-0.69536746 -0.40678024 -0.00000083
-0.05228194 0.64037627 0.00000161
-0.67328507 -0.57482702 -0.00000044
-0.41725156 -0.32458878 0.00000000
-0.74937892 -0.04530907 -0.00000170
-0.66537035 -0.04333406 -0.00000135
-0.50248063 0.22534497 -0.00000005
-0.46203715 -0.51646471 0.00000000
-0.68966335 -0.44360077 -0.00000074
-0.50439006 0.01104031 0.00000349
-0.35767120 -0.45812696 0.00000000
-0.17621683 -0.41306925 0.00000000
-0.56616843 -0.45893124 -0.00000019
-0.23949642 -0.35810748 0.40659544
-0.07966349 0.70306075 0.00000009
-0.05406310 0.60198182 0.00000215
-0.25585112 -0.07867288 0.00000000
-0.73957431 -0.79608238 -0.00000001
-0.11298100 -0.10574821 0.00000000
-0.33923787 -0.53561258 0.00000000
-0.49702972 -0.61577797 0.00000000
-0.24193095 0.30111191 0.00000369
-0.48383155 -0.48971397 0.00000000
-0.64580566 -0.45236501 -0.00000054
-0.03413396 -0.07838518 0.00000000
-0.36436757 0.13488695 0.00000411
-0.48285544 0.05919971 0.00000310
-0.74534792 -0.77186418 -0.00000007
-0.78253633 -0.65819967 -0.00000035
-0.23728380 0.49424985 0.00000055
-0.38718888 -0.76570612 0.65733409
-0.44408399 -0.31251067 0.00000000
-0.40916789 -0.03951968 -0.00000026
-0.24725874 -0.04943843 0.41977441
-0.11655818 -0.26827589 0.00000000
-0.72470802 -0.08680424 -0.00000153
-0.12453548 -0.17724594 0.00000000
-0.65353614 0.01083633 0.00000063
-0.54219037 -0.19319305 -0.00000056
-0.64529449 -0.56248063 -0.00000035
-0.35248169 -0.67305970 0.00000000
-0.28813234 0.00203914 0.00000762
-0.45782989 -0.01559951 -0.00000051
-0.49623507 -0.70093423 0.00000000
-0.71305555 -0.49689585 -0.00000075
-0.19302271 -0.51759952 0.00000000
-0.68239802 -0.63693357 -0.00000037
-0.72541487 -0.32376125 -0.00000111
-0.74710268 -0.31316647 -0.00000122
-0.79009497 -0.44543719 -0.00000089
-0.02709000 0.24883828 0.00000786
-0.07302235 0.18986513 0.00000805
-0.28581253 0.23238385 0.00000399
-0.23634969 0.00809535 0.40125403
-0.29200765 -0.70385814 0.00000000
-0.70839107 -0.73376995 -0.00000017
-0.03856848 0.43648231 0.00000487
-0.56335360 -0.36887306 -0.00000034
-0.11838919 0.52928597 0.20099123
-0.37263608 -0.75520229 0.00000000
-0.32557508 0.40451497 0.00000035
-0.16176777 -0.57626384 0.00000000
-0.71837163 -0.10361632 -0.00000147
-0.04297733 -0.35290805 0.07296304
-0.77273345 -0.28921002 -0.00000128
-0.15813451 -0.78930813 0.00000000
-0.11863564 -0.73697901 0.20140889
-0.21172372 0.21822436 0.00000553
-0.60025311 -0.43818510 -0.00000037
-0.70832181 -0.01888499 -0.00000158
-0.59927046 -0.18057020 -0.00000082
-0.07793111 0.41536662 0.00000459
-0.76806557 0.00803091 -0.00000152
-0.04358741 0.22893842 0.07399877
-0.24191563 -0.72823578 0.00000000
-0.26540130 -0.43804997 0.00000000
-0.45576113 -0.49252319 0.00000000
-0.02488235 -0.66637403 0.04224301
-0.79447377 -0.07883791 -0.00000180
-0.11790768 -0.42569110 0.00000000
-0.50515842 -0.49843866 0.00000000
-0.06224114 -0.53612179 0.10566740
-0.67330152 -0.56190926 -0.00000047
-0.57634819 -0.31895936 -0.00000048
-0.03995406 -0.54920572 0.00000000
-0.56353480 0.10840880 0.00000073
-0.64008224 -0.68514609 -0.00000011
-0.32483274 0.24897359 0.00000297
-0.21935125 -0.64449584 0.37239477
-0.23800625 -0.33296922 0.00000000
-0.24501193 0.47254330 0.00000076
-0.13641144 0.34076437 0.00000483
-0.52625328 -0.39101955 -0.00000014
-0.74468362 -0.70975208 -0.00000023
-0.24341784 -0.76012123 0.00000000
-0.78596473 -0.17381316 -0.00000157
-0.31541207 -0.73482364 0.00000000
-0.46574527 -0.71560436 0.00000000
-0.70805645 -0.12235110 -0.00000139
-0.38781258 -0.25201771 0.00000000
-0.77159023 -0.69983882 -0.00000025
-0.25645098 -0.08226557 0.00000000
-0.16045696 0.33134925 0.27241009
-0.16008694 -0.72661835 0.00000000
-0.51865882 -0.57719970 0.00000000
-0.24337640 -0.28180349 0.00000000
-0.40161520 -0.10507722 -0.00000011
-0.22414067 -0.41427585 0.00000000
-0.36851412 0.00193238 0.00000625
-0.63134688 -0.09319311 -0.00000112
-0.03126627 0.02708233 0.05308105
-0.52066797 -0.63519537 0.00000000
-0.54764003 -0.64938176 0.00000000
-0.45791703 -0.15830877 -0.00000026
-0.66835862 -0.20572153 -0.00000107
-0.26320794 -0.61087775 0.00000000
-0.08584290 0.10653286 0.14573634
-0.71499652 0.01190003 -0.00000057
-0.33146286 0.21810389 0.00000335
-0.09415584 -0.54267812 0.00000000
-0.29102585 0.12945862 0.00000561
-0.07968488 0.34879181 0.00000557
-0.36785087 -0.04156345 -0.00000008
-0.66634333 -0.38634995 -0.00000075
-0.07628814 0.37353167 0.00000525
-0.22717512 0.25375026 0.00000476
-0.08318781 0.28780779 0.00000643
-0.11383014 0.26707676 0.00000628
-0.54086131 -0.17976131 -0.00000058
-0.09779170 -0.68062603 0.00000000
-0.58965713 -0.51261389 -0.00000020
-0.13381004 0.57851440 0.00000113
-0.28950870 0.36828643 0.00000165
-0.56805021 -0.55479622 -0.00000003
-0.05576726 0.02028076 0.09467663
-0.46620637 0.15707512 0.00000179
-0.05912971 0.00932548 0.10038509
-0.05706650 0.63234812 0.09688262
-0.15627824 0.35442999 0.00000433
-0.49994236 -0.06941065 -0.00000060
-0.05602873 -0.16043936 0.00000000
-0.37794578 -0.28813878 0.64164406
-0.32679832 -0.15162413 0.00000000
-0.10491469 -0.26961195 0.17811470
-0.04934775 0.64405113 0.08377836
-0.03614945 -0.21560165 0.00000000
-0.12921813 0.01534282 0.00000982
-0.17788064 0.06384690 0.00000836
-0.27365407 -0.52752590 0.00000000
-0.25516778 -0.07256875 0.00000000
-0.48123866 -0.13500600 -0.00000040
-0.59929883 -0.62968677 -0.00000003
-0.05085132 -0.07440197 0.08633079
-0.65806985 -0.32771191 -0.00000081
-0.08978694 0.65595406 0.00000068
-0.44537717 -0.70965201 0.00000000
-0.43462226 -0.43787020 0.00000000
-0.52729380 -0.50654256 0.00000000
-0.45995134 0.21411982 0.00000095
-0.74800730 -0.48896134 -0.00000078
-0.28480959 0.06355481 0.00000675
-0.07881467 -0.68626302 0.13380444
-0.33876285 -0.76193762 0.00000000
-0.27170840 -0.72930276 0.00000000
-0.26756358 -0.67209911 0.00000000
-0.09851963 -0.66768563 0.00000000
-0.01438832 -0.57730043 0.00000000
-0.11684608 -0.75298429 0.00000000
-0.05354871 -0.36218408 0.00000000
-0.04535116 -0.15390012 0.07699311
-0.11181617 0.36610878 0.00000482
-0.11766630 0.66411531 0.00000001
-0.34461093 0.26648808 0.00000229
-0.07425839 -0.61116594 0.00000000
-0.17801988 0.46549100 0.00000217
-0.23265617 0.37984213 0.00000255
-0.08402633 0.17338324 0.00000813
-0.73803782 -0.72611934 -0.00000018
-0.20353737 -0.38851646 0.00000000
-0.05030272 0.03651199 0.00001069
-0.25510585 -0.16257709 0.43309635
-0.57621437 -0.18823355 -0.00000071
-0.53653884 -0.77457100 0.00000000
-0.38067248 0.20071264 0.00000270
-0.05979031 -0.63359368 0.00000000
-0.49375948 -0.24503620 -0.00000026
-0.16466467 -0.37558615 0.00000000
-0.26445359 0.11387696 0.00000630
-0.03225781 -0.01390097 0.05476440
-0.02280522 -0.78688896 0.00000000
-0.49425897 0.08117935 0.00000252
-0.53175730 -0.15610842 -0.00000058
-0.17648868 -0.09639517 0.00000000
-0.68089122 0.02828998 -0.00000019
-0.57393366 -0.48182419 -0.00000018
-0.07075320 0.52658212 0.00000303
-0.15111344 -0.44615999 0.25654677
-0.24789004 0.53990972 -0.00000042
-0.05861208 0.56262827 0.00000268
-0.09406710 0.20185754 0.00000755
-0.41364849 0.19807650 0.00000211
-0.64285046 -0.23963785 -0.00000091
-0.43663651 -0.34626046 0.00000000
-0.05995347 0.52311581 0.00000325
-0.33245593 -0.67733139 0.00000000
-0.62724859 -0.41499904 -0.00000053
-0.63341480 -0.51767671 -0.00000037
-0.10899972 -0.17983077 0.00000000
-0.12317782 0.08986391 0.00000879
-0.48369488 -0.75084031 0.00000000
-0.50916618 -0.38221079 -0.00000008
-0.24928717 -0.34921390 0.00000000
-0.13987043 0.61377567 0.00000042
-0.26981905 -0.44000712 0.00000000
-0.59163117 0.17616019 -0.00000094
-0.21832816 0.09999058 0.00000721
-0.69965440 -0.49393409 -0.00000070
-0.39561468 -0.39754504 0.00000000
-0.29655805 -0.15883252 0.00000000
-0.18630876 -0.34489936 0.00000000
-0.42865309 -0.28999895 0.00000000
-0.30575553 0.27987337 0.00000282
-0.27224794 -0.42729455 0.00000000
-0.42752150 -0.05799122 -0.00000031
-0.17791355 0.44747248 0.00000247
-0.19045319 0.18954784 0.32333499
-0.60033149 -0.02943396 -0.00000110
-0.01150970 0.35785651 0.01954013
-0.35841683 0.26882216 0.00000199
-0.31867418 0.23018944 0.00000340
-0.55041218 -0.72130948 0.00000000
-0.47793210 -0.02706503 -0.00000058
-0.34452373 0.40672886 -0.00000005
-0.18343867 -0.07381126 0.00000000
-0.71472961 -0.07449005 -0.00000150
-0.16304047 -0.05052095 0.27679542
-0.03801459 -0.39678189 0.00000000
-0.30899757 -0.72292721 0.00000000
-0.70003653 -0.59738821 -0.00000051
-0.01462100 0.49639934 0.00000433
-0.65167075 -0.23686521 -0.00000095
-0.68065852 0.08635704 -0.00000115
-0.37562588 0.31133336 0.00000095
-0.53365517 -0.40364301 -0.00000015
-0.08962116 -0.35228994 0.00000000
-0.05148316 0.38226780 0.00000549
-0.51030177 -0.06148250 -0.00000065
-0.03714831 -0.08053298 0.00000000
-0.63118345 -0.73259968 0.00000000
-0.34448662 -0.12912625 0.00000000
-0.76875269 -0.48728168 -0.00000078
-0.42569572 -0.12361971 -0.00000018
-0.35304558 0.15505844 0.00000399
-0.10894157 0.01832832 0.00001008
-0.25716716 0.35254523 0.00000254
-0.27301303 -0.79600024 0.00000000
-0.18996048 0.36817962 0.00000357
-0.46789613 -0.79716039 0.00000000
-0.35150841 -0.70618188 0.59675956
-0.00059436 0.01538010 0.00100905
-0.21988431 0.08204777 0.00000745
-0.19187598 -0.17815332 0.00000000
-0.07632886 0.53646439 0.12958451
-0.04058281 -0.75576794 0.00000000
-0.41438121 0.11901610 0.00000342
-0.32411060 0.19907698 0.00000381
-0.15477571 -0.13001515 0.26276425
-0.32618055 -0.62961650 0.00000000
-0.06021135 0.29061460 0.10222140
-0.70703179 -0.71625721 -0.00000021
-0.10624198 -0.48495170 0.00000000
-0.30361965 0.31151831 0.00000233
-0.29449835 -0.42597145 0.00000000
-0.06546841 -0.37523708 0.11114636
-0.23124415 -0.46820372 0.00000000
-0.55492365 -0.51304746 -0.00000005
-0.48186925 0.31681466 -0.00000120
-0.76277345 -0.57830483 -0.00000055
-0.32216704 -0.06641936 0.00000000
-0.52152163 -0.45192119 -0.00000001
-0.02477976 -0.12685654 0.00000000
-0.34115633 -0.46480536 0.00000000
-0.38057709 0.31054825 0.00000087
-0.16142055 -0.08545327 0.00000000
-0.60781187 -0.55261254 -0.00000020
-0.00551808 -0.30422619 0.00936810
-0.58525103 -0.56271309 -0.00000009
-0.40358222 -0.21723984 0.68516743
-0.11002539 0.35457930 0.00000502
-0.41802675 -0.18120521 -0.00000005
-0.29606217 -0.51938105 0.00000000
-0.36133066 -0.06435724 -0.00000001
-0.11948306 -0.45335275 0.20284757
-0.01557271 0.54353172 0.00000361
-0.01296556 0.38166723 0.00000608
-0.02393280 0.04939259 0.00001090
-0.11947576 -0.68384314 0.20283517
-0.27300137 -0.57152361 0.00000000
-0.62540585 -0.61841160 -0.00000016
-0.09031483 -0.20023467 0.00000000
-0.07463435 -0.25005537 0.00000000
-0.20510383 0.21281751 0.00000571
-0.01230774 0.10980109 0.02089497
-0.64018160 -0.03862602 -0.00000125
-0.07324710 0.58703667 0.00000209
-0.11518618 -0.36760700 0.19555271
-0.41550955 -0.02807194 -0.00000031
-0.44231647 -0.14618699 -0.00000022
-0.03109280 -0.03418437 0.05278655
-0.23429544 -0.07129857 0.00000000
-0.62827945 -0.23588935 -0.00000085
-0.74103421 -0.14532705 -0.00000149
-0.29901224 -0.16315456 0.00000000
-0.01399281 -0.39473185 0.00000000
-0.49013314 0.30670339 -0.00000117
-0.77556759 -0.70516771 -0.00000024
-0.65136367 -0.07488202 -0.00000123
-0.16182637 0.24669191 0.00000586
-0.60393488 0.18142852 -0.00000127
-0.42281193 0.24065474 0.00000122
-0.05327647 0.53920132 0.09044799
-0.11134717 0.43164247 0.00000385
-0.23056792 -0.33144799 0.00000000
-0.07181984 -0.36215401 0.12192925
-0.32871085 -0.76610661 0.00000000
-0.01943536 0.69825161 0.03299560
-0.17787796 -0.47502640 0.00000000
-0.61349159 -0.51871639 -0.00000029
-0.05259087 -0.34903887 0.00000000
-0.31752008 0.11914850 0.00000528
-0.34053212 -0.16127501 0.00000000
-0.67975450 0.11731344 -0.00000169
-0.61264712 -0.47292733 -0.00000036
-0.17922597 -0.55923033 0.00000000
-0.11931254 0.35938990 0.00000481
-0.03031730 -0.17120761 0.05146998
-0.22101365 0.54172260 0.00000007
-0.76947397 -0.49399957 -0.00000077
-0.01118952 -0.22441119 0.01899656
-0.10002249 0.24683227 0.16980916
-0.70950234 -0.79105264 -0.00000002
-0.62225991 -0.76057994 0.00000000
-0.20768797 -0.73724473 0.00000000
-0.02705910 -0.06132585 0.00000000
-0.37349954 0.30332619 0.00000112
-0.63973969 -0.60560489 -0.00000025
-0.49071094 -0.41789714 0.00000000
-0.19159275 0.36466557 0.00000359
-0.59011322 0.08385197 0.00000063
-0.23719512 -0.03799046 0.00000000
-0.04411189 -0.29733053 0.00000000
-0.16654064 -0.39484209 0.00000000
-0.78658581 -0.46711096 -0.00000083
-0.47698441 0.22810385 0.00000039
-0.28059372 0.30573356 0.00000287
-0.43589786 -0.09800770 -0.00000027
-0.07776004 0.05177417 0.00001005
-0.71349347 -0.39632905 -0.00000093
-0.11719203 -0.29595327 0.00000000
-0.13703619 -0.48067814 0.23264769
-0.62209272 0.17375833 -0.00000155
-0.57481784 -0.47200876 -0.00000020
-0.02869406 0.36982679 0.00000602
-0.79392517 -0.76092583 -0.00000010
-0.15513635 -0.17476138 0.00000000
-0.22406951 -0.41691911 0.00000000
-0.32636353 -0.78633839 0.00000000
-0.11929437 0.22523636 0.00000682
-0.11258305 0.24140041 0.00000668
-0.56213677 -0.63075542 0.00000000
-0.53767836 0.10703776 0.00000125
-0.12375201 0.42413637 0.00000377
-0.05313503 0.58245677 0.00000246
-0.52942091 -0.15137389 -0.00000058
-0.49960348 0.23697051 -0.00000019
-0.15205726 0.23790182 0.00000614
-0.29831642 0.21687786 0.00000401
-0.12041074 -0.00941718 0.00000000
-0.79472637 -0.65209800 -0.00000037
-0.49092215 -0.26501605 -0.00000021
-0.54216909 -0.70285273 0.00000000
-0.50223088 -0.25898325 -0.00000027
-0.06513434 0.17994171 0.00000832
-0.01731545 -0.54836828 0.00000000
-0.31271225 -0.00239972 0.00000000
-0.41883156 0.06491407 0.00000424
-0.45723584 -0.24014163 -0.00000011
-0.35890028 0.16605698 0.00000370
-0.10591455 0.42761064 0.00000399
-0.47150308 -0.15045393 -0.00000033
-0.41289747 -0.25947091 0.00000000
-0.17479222 -0.26756418 0.29674646
-0.53339535 0.06579830 0.00000202
-0.35813183 -0.45066664 0.00000000
-0.61330056 -0.42003399 -0.00000046
-0.12188295 -0.74018449 0.00000000
-0.58550262 -0.41507626 -0.00000035
-0.27940446 -0.15880036 0.47434863
-0.45052624 0.24194598 0.00000067
-0.18618684 -0.62006295 0.00000000
-0.43100488 -0.12660080 -0.00000020
-0.21190608 -0.13039623 0.00000000
-0.67426527 -0.31273547 -0.00000091
-0.71118867 -0.00485828 -0.00000161
-0.31207508 -0.71555507 0.00000000
-0.04783709 -0.23809616 0.08121350
-0.39543325 0.39145133 -0.00000077
-0.00986590 0.12664300 0.00000995
-0.63510549 -0.59144896 -0.00000025
-0.44664046 -0.06076132 -0.00000038
-0.18217316 -0.57106465 0.00000000
-0.51660436 -0.65127915 0.00000000
-0.34762380 0.12828217 0.00000454
-0.27599779 -0.34705898 0.00000000
-0.42326167 0.22243281 0.00000152
-0.43357995 0.13208456 0.00000283
-0.24707010 0.48877305 0.00000045
-0.02711023 0.63452166 0.00000207
-0.24090768 0.51006138 0.00000022
-0.16076019 -0.16616285 0.00000000
-0.52846426 0.14697748 0.00000076
-0.27668926 -0.12976359 0.00000000
-0.11250426 0.07595220 0.00000916
-0.09411068 -0.42006722 0.00000000
-0.66339797 -0.41344136 -0.00000069
-0.08114648 -0.42377672 0.00000000
-0.75596088 -0.26417732 -0.00000134
-0.22894663 -0.32833347 0.00000000
-0.03877258 -0.54361367 0.06582459
-0.02768545 0.54756910 0.00000337
-0.50791049 -0.73711234 0.00000000
-0.45225412 -0.69863623 0.00000000
-0.14099666 0.29690534 0.00000542
-0.19353344 0.43831632 0.00000233
-0.33530873 0.11902983 0.00000494
-0.59881693 -0.63770872 -0.00000001
-0.32326353 -0.09607965 0.00000000
-0.17314275 0.48030379 0.00000202
-0.06876864 0.35830978 0.00000559
-0.03652088 -0.26055217 0.00000000
-0.17435585 0.14075251 0.00000726
-0.21067613 0.30517682 0.35766822
-0.40086782 -0.33725697 0.00000000
-0.52550381 -0.65143764 0.00000000
-0.51179880 0.17592393 0.00000060
-0.24933968 -0.48526597 0.42330644
-0.51107085 -0.73644757 0.00000000
-0.78977823 -0.12786624 -0.00000168
-0.55116481 -0.15859245 -0.00000066
-0.63253319 -0.23214060 -0.00000087
-0.31800899 -0.75885642 0.00000000
-0.25810257 -0.68714595 0.00000000
-0.22270727 -0.36351603 0.00000000
-0.04191154 0.41739801 0.00000511
-0.09566187 -0.38745669 0.16240610
-0.75213969 -0.03824251 -0.00000173
-0.01491694 0.78321606 -0.00000003
-0.34999537 -0.71838409 0.00000000
-0.22592154 0.57146227 -0.00000052
-0.26093301 -0.33275887 0.00000000
-0.29016376 -0.55814308 0.00000000
-0.42100742 -0.76664770 0.00000000
-0.09236785 0.49186257 0.00000323
-0.51067424 -0.18328001 -0.00000044
-0.63575166 -0.60474670 -0.00000023
-0.54707950 -0.22745194 -0.00000052
-0.63270378 -0.43591419 -0.00000052
-0.69440603 -0.65073675 -0.00000037
-0.73687100 0.00124933 -0.00000081
-0.24866363 0.08459011 0.00000698
-0.63751775 -0.54077941 -0.00000035
-0.20260881 0.17550179 0.00000631
-0.25555408 0.00392425 0.00000809
-0.55686307 -0.71071339 0.00000000
-0.74516916 -0.67523623 -0.00000031
-0.13780139 0.10232847 0.00000839
-0.05444503 0.24596369 0.00000749
-0.20205064 0.29035348 0.00000460
-0.76557159 -0.39478689 -0.00000101
-0.31579202 -0.30190653 0.00000000
-0.53300023 0.01111702 0.00000294
-0.34203991 0.04240526 0.00000609
-0.07636842 -0.36076215 0.00000000
-0.42029533 -0.38577643 0.00000000
-0.69336313 -0.41854131 -0.00000081
-0.30097875 -0.79729033 0.51097459
-0.53423089 -0.19385140 -0.00000052
-0.45300743 -0.10610182 -0.00000033
-0.04198569 0.43482655 0.00000484
-0.06340086 -0.53807288 0.00000000
-0.14806271 0.42540428 0.25136834
-0.07652331 0.67723924 0.00000058
-0.26545510 -0.16652676 0.00000000
-0.22508417 -0.57765675 0.38212761
-0.20217605 0.28184718 0.00000472
-0.14600125 -0.02215778 0.00000000
-0.11244345 -0.73849374 0.19089635
-0.08312174 -0.10665920 0.00000000
-0.33168495 -0.01802591 0.00000000
-0.13981952 0.33896706 0.23737349
-0.29186147 -0.17371090 0.00000000
-0.17650075 0.10156237 0.29964742
-0.28607294 0.27505112 0.00000328
-0.32656118 -0.61844635 0.00000000
-0.48100001 -0.26825443 -0.00000016
-0.08911959 -0.00207823 0.00000000
-0.71616679 0.05578392 -0.00000132
-0.15022831 -0.22306694 0.25504407
-0.19962279 -0.04586845 0.00000000
-0.79280853 -0.73423016 -0.00000016
-0.21499471 -0.34629357 0.00000000
-0.49988285 -0.35116908 -0.00000010
-0.38939983 0.11752519 0.00000392
-0.08980660 -0.37203425 0.00000000
-0.06663875 -0.08131290 0.00000000
-0.10367992 0.30746964 0.00000582
-0.24958889 -0.70521212 0.00000000
-0.35073024 -0.73734522 0.00000000
-0.39605632 -0.27527028 0.00000000
-0.53533369 -0.60769546 0.00000000
-0.04659971 -0.05011599 0.07911278
-0.00299844 0.51577586 0.00509048
-0.49633217 -0.24697436 -0.00000027
-0.24127793 -0.61639476 0.00000000
-0.24306807 -0.13667221 0.00000000
-0.30702516 -0.35060868 0.00000000
-0.11172863 0.53026348 0.00000236
-0.60369903 -0.43991202 -0.00000038
-0.23287858 0.01794362 0.00000822
-0.26819760 -0.49835739 0.45532170
-0.10787885 0.13750343 0.18314698
-0.20557511 0.48980659 0.00000123
-0.77291256 -0.19373322 -0.00000152
-0.10770431 -0.74773800 0.00000000
-0.62496400 -0.78998566 0.00000000
-0.60992026 -0.54197884 -0.00000023
-0.12815188 -0.67909241 0.00000000
-0.31544745 0.02211648 0.00000691
-0.59934175 -0.74729770 0.00000000
-0.04807604 -0.29588562 0.00000000
-0.17561249 -0.38546565 0.00000000
-0.49821684 -0.51118475 0.00000000
-0.48862293 -0.38914794 0.00000000
-0.70735109 -0.27837747 -0.00000111
-0.19723800 -0.55959022 0.00000000
-0.20460895 0.00622429 0.00000882
-0.57710946 0.12557244 0.00000018
-0.21711116 0.28390867 0.00000445
-0.55411053 -0.13566250 -0.00000071
-0.32682574 -0.47157302 0.00000000
-0.53116399 -0.04352647 -0.00000078
-0.07691206 -0.27525863 0.00000000
-0.26873443 -0.25766546 0.00000000
-0.47077173 0.19498007 0.00000107
-0.76634979 -0.27186117 -0.00000132
-0.04754086 -0.49844882 0.00000000
-0.31359097 -0.71202075 0.53238648
-0.08168796 -0.59826660 0.00000000
-0.03795890 0.02890211 0.06444320
-0.74089557 -0.33601129 -0.00000115
-0.01140338 -0.79796433 0.01935963
-0.35438442 -0.35122117 0.00000000
-0.64408922 -0.78141004 0.00000000
-0.01992655 0.17594916 0.00000906
-0.39032656 0.17359509 0.00000297
-0.27785686 -0.40079194 0.00000000
-0.08167929 -0.49605837 0.00000000
-0.04822056 -0.19074658 0.08186452
-0.60897088 -0.74207222 0.00000000
-0.09430823 -0.19849440 0.00000000
-0.38031429 -0.65613341 0.00000000
-0.50415182 -0.04008448 -0.00000067
-0.27178043 -0.42123368 0.00000000
-0.67000157 -0.39657569 -0.00000074
-0.25942054 0.05783904 0.00000722
-0.33906305 -0.23495470 0.00000000
-0.56174099 -0.64160180 0.00000000
-0.68271548 -0.22689836 -0.00000110
-0.37595034 0.39157942 -0.00000040
-0.50921112 -0.71906954 0.00000000
-0.23130874 -0.78940076 0.39269513
-0.40187865 -0.05122379 -0.00000021
-0.05951353 -0.52998841 0.00000000
-0.74295855 -0.12714642 -0.00000153
-0.59140795 -0.56396872 -0.00000011
-0.66627300 -0.14516409 -0.00000117
-0.68082863 -0.58752555 -0.00000045
-0.59390891 -0.54413885 -0.00000016
-0.42067802 -0.78971934 0.00000000
-0.13760540 -0.30162892 0.00000000
-0.18947661 -0.22536969 0.00000000
-0.58255672 -0.57851297 -0.00000005
-0.16581361 -0.27426296 0.00000000
-0.69962162 -0.77622712 -0.00000006
-0.07879014 -0.04102859 0.00000000
-0.05095676 0.36390817 0.00000577
-0.39515239 0.09030136 0.00000427
-0.03499310 0.23826827 0.00000790
-0.60789102 -0.64926922 -0.00000003
-0.30735359 -0.46067744 0.00000000
-0.57134444 -0.10805602 -0.00000083
-0.20631598 0.00568641 0.00000880
-0.51064044 -0.49628624 0.00000000
-0.18203378 -0.64675689 0.00000000
-0.79174185 -0.24226944 -0.00000139
-0.55176234 -0.62813914 0.00000000
-0.12185656 0.50905704 0.20687781
-0.57168144 0.13246869 0.00000017
-0.22454134 0.03962326 0.38120681
-0.73905015 -0.16966119 -0.00000144
-0.19768722 -0.25691262 0.00000000
-0.23473977 -0.14560242 0.39852044
-0.77242291 -0.34782082 -0.00000113
-0.48974591 -0.05319179 -0.00000058
-0.01186523 -0.61304146 0.02014372
-0.36090067 -0.73476839 0.00000000
-0.51691091 -0.53663003 0.00000000
-0.25646290 0.26552647 0.43540132
-0.23877351 0.01392214 0.00000819
-0.55742359 -0.63657862 0.00000000
-0.59282029 -0.48211461 -0.00000026
-0.08207873 0.16474968 0.00000829
-0.12775840 -0.31732544 0.00000000
-0.19628820 -0.31530577 0.00000000
-0.08415900 0.45724252 0.00000387
-0.46002695 -0.21388154 -0.00000017
-0.11820249 -0.69955897 0.20067354
-0.40001398 -0.55180150 0.67910820
-0.01790693 0.10531542 0.00001015
-0.67070687 -0.38632166 -0.00000077
-0.07217803 -0.57444417 0.00000000
-0.01354435 0.39087763 0.00000593
-0.54086429 -0.12227061 -0.00000068
-0.08918721 -0.02874247 0.15141401
-0.65555114 -0.75725234 -0.00000004
-0.21923254 -0.46627149 0.37219325
-0.12045892 0.59147662 0.00000117
-0.12675790 -0.63489491 0.21519814
-0.36673099 0.37680277 0.00000003
-0.05972211 0.41911137 0.00000481
-0.20524457 0.48146722 0.00000138
-0.20053685 0.14507551 0.34045413
-0.19309767 0.35937807 0.32782501
-0.59550226 -0.72818255 0.00000000
-0.20192546 -0.12013692 0.00000000
-0.33641571 -0.15438336 0.00000000
-0.37037325 0.33825064 0.00000060
-0.14706363 0.37120903 0.00000421
-0.02004630 -0.00342123 0.03403280
-0.16130885 0.04807288 0.00000884
-0.05450796 -0.47551364 0.09253870
-0.70128459 -0.27400261 -0.00000109
-0.41704264 -0.29516271 0.00000000
-0.39020109 0.39082086 -0.00000066
-0.11371967 0.03530404 0.00000975
-0.56859559 -0.31267878 -0.00000046
-0.72008103 -0.19909884 -0.00000131
-0.47131643 -0.22397611 -0.00000020
-0.09091265 0.25889856 0.00000674
-0.60016108 -0.25792351 -0.00000069
-0.12592368 -0.58503079 0.00000000
-0.59464490 0.09931414 0.00000028
-0.18728742 -0.14138108 0.00000000
-0.08406105 -0.53459507 0.00000000
-0.36093232 0.43010020 -0.00000075
-0.45000553 -0.76534033 0.00000000
-0.77988833 -0.07768600 -0.00000178
-0.55229706 0.14550906 0.00000033
-0.63645947 -0.74072731 0.00000000
-0.43910593 -0.23529480 -0.00000004
-0.27498105 -0.29046354 0.00000000
-0.76152313 -0.47015175 -0.00000082
-0.42322746 -0.22140442 -0.00000000
-0.27183959 0.20235316 0.00000476
-0.71639013 -0.04628070 -0.00000156
-0.13713118 -0.62550825 0.00000000
-0.35464033 0.00850644 0.00000641
-0.32585698 -0.40831444 0.00000000
-0.70955431 -0.13776296 -0.00000137
-0.27002653 0.08940908 0.00000658
-0.56531972 -0.59502715 0.00000000
-0.54734296 -0.29090419 -0.00000041
-0.59935427 -0.11068601 -0.00000095
-0.27532154 0.19653684 0.00000479
-0.29903251 -0.17672016 0.00000000
-0.39046261 -0.02477816 -0.00000021
-0.21491215 -0.04744252 0.00000000
-0.06763056 0.32800013 0.00000606
-0.46496406 -0.46401241 0.00000000
-0.05934885 0.58335608 0.10075729
-0.46168181 0.01855748 0.00000419
-0.04832115 0.47580409 0.00000413
-0.11010843 0.53029549 0.18693280
-0.05256751 0.48283613 0.08924438
-0.16891624 0.05060899 0.00000869
-0.36501172 -0.11073858 0.00000000
-0.43169507 0.11874648 0.00000309
-0.08451494 -0.71934944 0.00000000
-0.28656167 -0.78458166 0.48649856
-0.57129478 -0.00475495 -0.00000102
-0.68255883 -0.07314639 -0.00000137
-0.04032672 0.24998771 0.00000764
-0.62538111 -0.32949239 -0.00000067
-0.22693793 -0.62142861 0.00000000
-0.22810735 -0.10968188 0.00000000
-0.30548087 -0.28077060 0.00000000
-0.03067192 0.65315217 0.00000174
-0.29437408 0.17968404 0.00000471
-0.28394273 -0.64790535 0.00000000
-0.36031964 -0.20570476 0.00000000
-0.23236710 0.11928891 0.00000670
-0.45286176 -0.51678097 0.00000000
-0.05727177 0.65410370 0.00000132
-0.21805225 0.56757528 -0.00000031
-0.34926873 -0.34036115 0.00000000
-0.35381207 -0.55667210 0.60067105
-0.15462551 -0.19285356 0.00000000
-0.07081858 -0.20769742 0.12022940
-0.29504016 -0.32585377 0.00000000
-0.33146924 -0.38793716 0.00000000
-0.28513068 -0.75485075 0.00000000
-0.34642360 -0.69511652 0.00000000
-0.30281562 -0.05996053 0.00000000
-0.14542496 -0.33819431 0.00000000
-0.49009019 0.20776235 0.00000048
-0.09369054 -0.21715955 0.15905935
-0.18995367 0.17503484 0.00000651
-0.09225583 -0.61428773 0.15662363
-0.54604238 -0.48764929 -0.00000005
-0.53474462 -0.15008606 -0.00000060
-0.01126980 -0.21223056 0.00000000
-0.24794208 -0.02736698 0.42093459
-0.34955809 0.24707186 0.00000252
-0.35001940 0.44613510 -0.00000087
-0.11549210 -0.40161729 0.19607207
-0.19927265 -0.26637697 0.00000000
-0.35785028 0.12202384 0.00000445
-0.52991873 -0.15048549 -0.00000058
-0.41479188 -0.25166130 0.00000000
-0.74364382 -0.47061062 -0.00000082
-0.29124510 0.04871636 0.00000687
-0.67623335 -0.54505587 -0.00000051
-0.18080504 0.60101157 -0.00000015
-0.60091639 -0.71206540 0.00000000
-0.40109321 -0.68721086 0.00000000
-0.42280096 -0.35135701 0.00000000
-0.36603817 -0.02934709 0.62142891
-0.08414980 -0.30296218 0.00000000
-0.70220232 -0.23089696 -0.00000117
-0.06010986 -0.73222023 0.00000000
-0.25836569 0.48691651 0.00000027
-0.78798997 -0.03404612 -0.00000189
-0.63986719 -0.67382884 -0.00000013
-0.24581395 0.16167127 0.00000587
-0.79399002 -0.27703673 -0.00000131
-0.12315188 -0.48382568 0.20907617
-0.28327596 -0.18532470 0.48092130
-0.20945497 0.09170050 0.35559449
-0.29312548 -0.52476126 0.00000000
-0.05665322 0.47014797 0.00000409
-0.69184625 -0.04538512 -0.00000146
-0.07552634 -0.29055256 0.00000000
-0.78929871 -0.35743263 -0.00000111
-0.62050325 -0.11816451 -0.00000103
-0.02577000 -0.78550440 0.00000000
-0.50840640 -0.35765526 -0.00000012
-0.09392461 -0.18382034 0.00000000
-0.26751050 0.02039079 0.00000766
-0.05309782 -0.71145582 0.00000000
-0.45629379 0.05494958 0.00000368
-0.19213948 -0.67296231 0.00000000
-0.07403078 0.52570927 0.00000300
-0.05192988 0.16861406 0.00000869
-0.41178891 -0.43116605 0.00000000
-0.17611717 0.13960660 0.00000725
-0.70048076 -0.53041810 -0.00000064
-0.31814945 -0.31032482 0.00000000
-0.03129595 0.11577176 0.00000979
-0.15212601 -0.16911726 0.00000000
-0.02106644 -0.56707478 0.03576470
-0.44586146 0.32558364 -0.00000064
-0.67576844 -0.28848901 -0.00000096
-0.33716229 -0.21295193 0.57240522
-0.45351422 0.13385165 0.00000242
-0.07936917 0.15821885 0.00000843
-0.40984827 -0.34020782 0.00000000
-0.29552388 0.11738376 0.00000573
-0.18433148 0.61313635 -0.00000042
-0.11864348 -0.00302322 0.00000000
-0.70088971 -0.77142185 -0.00000007
-0.62225795 -0.79851848 0.00000000
-0.66282094 -0.47348660 -0.00000058
-0.53656274 -0.11883718 -0.00000067
-0.45006680 0.00398801 0.00000465
-0.23180439 -0.29729879 0.00000000
-0.27774432 -0.62848562 0.00000000
-0.29922029 -0.30520210 0.00000000
-0.07534155 -0.50250852 0.00000000
-0.22709425 0.03106954 0.00000811
-0.26270446 0.00295160 0.00000799
-0.58553761 -0.44709113 -0.00000029
-0.47159946 -0.12823772 -0.00000037
-0.10647208 -0.67602229 0.00000000
-0.73322493 -0.19784123 -0.00000137
-0.02794236 -0.33728838 0.00000000
-0.07342731 -0.07175569 0.12465827
-0.23362194 -0.12000282 0.39662275
-0.16155382 0.31886029 0.00000478
-0.00182798 0.71508807 0.00000125
-0.45785826 0.09210113 0.00000303
-0.39368820 0.27651188 0.00000118
-0.34464252 0.13185029 0.00000454
-0.26565224 -0.24143776 0.00000000
-0.03157971 0.43767667 0.00000496
-0.28701931 -0.04646970 0.00000000
-0.05202760 0.10014423 0.00000971
-0.10048496 -0.34349030 0.00000000
-0.48213083 0.27461219 -0.00000048
-0.43177915 0.08867193 0.00000359
-0.15993594 0.04040684 0.27152482
-0.25112280 0.41613472 0.00000159
-0.00608629 0.40614125 0.00000582
-0.61523211 -0.64113480 -0.00000008
-0.47488126 -0.53319192 0.00000000
-0.17974161 0.29417339 0.30514997
-0.12489528 -0.08258450 0.00000000
-0.56031036 -0.59689981 0.00000000
-0.20533676 0.55768222 0.00000010
-0.53487372 -0.73386168 0.00000000
-0.07162050 0.50340778 0.12159094
-0.29110727 -0.49179408 0.49421591
-0.54614717 0.00134828 0.00000285
-0.22334625 -0.79578084 0.37917712
-0.64169985 -0.45779943 -0.00000052
-0.40692133 0.36894384 -0.00000061
-0.18463647 -0.67247719 0.31345916
-0.74032050 -0.56605464 -0.00000058
-0.52547407 -0.63035285 0.00000000
-0.14643586 0.06769951 0.00000877
-0.11114988 0.29661608 0.00000587
-0.12033371 0.44833380 0.00000346
-0.39133519 -0.57472599 0.00000000
-0.66482991 -0.37721366 -0.00000076
-0.24702150 -0.35108247 0.00000000
-0.15277629 -0.27314651 0.00000000
-0.05958168 -0.13083234 0.00000000
-0.24467933 0.08514583 0.00000703
-0.38189083 -0.62473929 0.00000000
-0.49004978 -0.40831453 0.00000000
-0.16202664 0.14610203 0.00000736
-0.03490638 0.06499180 0.00001050
-0.73758674 -0.70166326 -0.00000025
-0.73185635 -0.55249023 -0.00000062
-0.08396351 0.03013063 0.00001028
-0.41686377 0.02163146 0.00000500
-0.42168540 0.37678683 -0.00000103
-0.45302650 0.23030242 0.00000082
-0.23143771 -0.46347439 0.00000000
-0.40657640 0.12561043 0.00000346
-0.11626420 -0.55739671 0.00000000
-0.46253306 -0.02819447 -0.00000051
-0.15724640 -0.11627341 0.00000000
-0.29184398 -0.01939088 0.00000000
-0.29081702 0.44282371 0.00000038
-0.50393403 -0.43931216 0.00000000
-0.14345230 -0.79096454 0.00000000
-0.24465241 -0.31684577 0.00000000
-0.59250867 0.06352384 0.00000092
-0.36594486 -0.59960902 0.00000000
-0.68400270 -0.57635957 -0.00000049
-0.24750949 -0.66474557 0.42019930
-0.66536486 -0.36160049 -0.00000079
-0.10902792 -0.68825132 0.00000000
-0.63886088 0.00019713 0.00000109
-0.43770683 -0.61076772 0.00000000
-0.49344364 0.22303759 0.00000016
-0.03114677 0.49514124 0.00000410
-0.30430222 -0.04593685 0.00000000
-0.46395731 0.02537994 0.00000403
-0.28571305 -0.54039723 0.00000000
-0.15582433 0.35219261 0.00000437
-0.62261713 0.15859950 -0.00000124
-0.52983409 0.00493444 0.00000311
-0.14761405 -0.08481616 0.00000000
-0.44940424 -0.34997275 0.00000000
-0.19121255 0.07808897 0.00000794
-0.68138319 -0.11311102 -0.00000129
-0.03719036 0.03862281 0.00001086
-0.22122453 -0.74130398 0.37557507
-0.48500928 0.21012560 0.00000054
-0.23068643 0.54452819 -0.00000016
-0.65924388 -0.76704216 -0.00000004
-0.46665558 -0.18725298 -0.00000025
-0.12666306 -0.54115295 0.21503712
-0.43938577 0.35928005 -0.00000108
-0.40235093 -0.59710127 0.00000000
-0.14987080 0.42550445 0.00000336
-0.16186795 -0.15991889 0.00000000
-0.13520211 0.49490935 0.22953480
-0.14672281 0.10746720 0.00000817
-0.68767154 -0.53526938 -0.00000057
-0.69988531 -0.20967288 -0.00000120
-0.50016910 -0.71994466 0.00000000
-0.25364190 -0.28236118 0.00000000
-0.58013016 0.19160520 -0.00000098
-0.02273687 0.33817339 0.03860061
-0.26437205 -0.67334390 0.00000000
-0.56134123 -0.69456035 0.00000000
-0.70253158 -0.59271193 -0.00000052
-0.72847879 -0.02569900 -0.00000165
-0.11688333 0.12966801 0.00000829
-0.62558830 -0.48750299 -0.00000039
-0.26284012 -0.14357270 0.00000000
-0.40427759 0.22157080 0.00000190
-0.74421024 -0.21966849 -0.00000137
-0.01231861 0.26874530 0.00000778
-0.18742347 -0.08736898 0.00000000
-0.42982808 0.02962684 0.00000461
-0.34554890 -0.24285051 0.58664328
-0.22400504 -0.23844121 0.38029563
-0.11899396 -0.10751152 0.20201722
-0.61757016 0.14246786 -0.00000088
-0.11033265 0.20768075 0.00000722
-0.13992646 -0.06966057 0.23755454
-0.11317404 0.14482237 0.00000812
-0.58419043 -0.77109933 0.00000000
-0.59946519 -0.53670728 -0.00000020
-0.27669388 -0.32316858 0.00000000
-0.56709665 -0.55077803 -0.00000003
-0.39717993 -0.23039050 0.00000000
-0.44826004 -0.15016524 -0.00000023
-0.06011390 0.43076354 0.00000463
-0.65266693 -0.00741960 -0.00000136
-0.23297873 0.26079339 0.00000453
-0.54815286 -0.14600094 -0.00000067
-0.43862176 -0.50324231 0.00000000
-0.39241102 -0.58737916 0.00000000
-0.40883088 -0.54998058 0.00000000
-0.23650403 -0.03271195 0.40151596
-0.12847787 -0.26590493 0.21811815
-0.71608323 -0.19724318 -0.00000129
-0.34143096 -0.66873419 0.00000000
-0.24103443 -0.09721118 0.00000000
-0.61203229 0.09031221 0.00000010
-0.13815556 -0.76127195 0.23454806
-0.35620236 -0.34906676 0.00000000
-0.21316212 -0.12341439 0.00000000
-0.10921916 0.01171664 0.18542245
-0.10348224 -0.55514199 0.00000000
-0.20099317 0.02810668 0.00000855
-0.09313485 -0.20448732 0.00000000
-0.71696305 -0.65676206 -0.00000036
-0.29502648 -0.77921653 0.00000000
-0.02440763 0.38306138 0.00000589
-0.09993159 -0.72689253 0.00000000
-0.57620460 0.02173766 0.00000193
-0.31806526 -0.35848925 0.00000000
-0.44879022 -0.19098151 -0.00000016
-0.29739216 -0.20827626 0.00000000
-0.04747096 0.28724229 0.08059192
-0.72546196 -0.34637767 -0.00000107
-0.51555234 -0.73223060 0.00000000
-0.01580801 -0.48234847 0.00000000
-0.13717850 0.04399631 0.00000927
-0.70733064 -0.29747620 -0.00000108
-0.24624690 0.54235148 -0.00000043
-0.37002283 -0.52405763 0.00000000
-0.32820421 -0.36452290 0.00000000
-0.13362150 -0.57490128 0.00000000
-0.72368544 -0.70991141 -0.00000023
-0.01044299 0.42037809 0.00000554
-0.57143402 -0.04447545 -0.00000095
-0.39829537 -0.47495192 0.00000000
-0.53224474 -0.04137362 -0.00000078
-0.01627839 -0.32290953 0.00000000
-0.08339710 -0.61403328 0.00000000
-0.03943839 0.54606682 0.06695494
-0.64285338 -0.59805179 -0.00000027
-0.01592870 0.07417481 0.00001065
-0.79179633 -0.45382327 -0.00000087
-0.41823575 0.20255953 0.00000195
-0.02361445 -0.00280040 0.00000000
-0.19426098 -0.54564923 0.00000000
-0.16515844 -0.33509368 0.00000000
-0.56567019 -0.24178481 -0.00000057
-0.31074148 -0.48447287 0.00000000
-0.42402285 -0.47134161 0.00000000
-0.54780239 -0.69948971 0.00000000
-0.07404166 -0.59323180 0.00000000
-0.26417440 -0.71233231 0.00000000
-0.21702169 0.42694205 0.00000206
-0.57558918 0.00661532 0.00000220
-0.23274010 0.47960863 0.00000088
-0.27648652 0.36451486 0.00000196
-0.38752642 -0.38349229 0.00000000
-0.02907491 0.71559024 0.00000083
-0.12020482 -0.11220657 0.20407291
-0.30841777 0.42007089 0.00000042
-0.23735256 -0.32245633 0.00000000
-0.65043432 -0.41966921 -0.00000062
-0.77435470 -0.54260713 -0.00000064
-0.39118654 -0.64096719 0.66412145
-0.39249089 -0.74573159 0.00000000
-0.53771031 -0.67023653 0.00000000
-0.35641152 -0.11964517 0.00000000
-0.28947613 0.19068021 0.00000462
-0.02714561 -0.14380541 0.04608537
-0.18580003 -0.59232545 0.00000000
-0.02173177 -0.08137140 0.00000000
-0.47783250 -0.10669283 -0.00000044
-0.11272401 0.62723035 0.00000072
-0.51306343 -0.32345641 -0.00000020
-0.33743736 -0.55494022 0.00000000
-0.32905346 -0.22026573 0.00000000
-0.29434368 -0.60647696 0.00000000
-0.73479110 -0.29939255 -0.00000119
-0.12935469 -0.35441917 0.00000000
-0.59397244 -0.77540284 0.00000000
-0.56227237 -0.04659984 -0.00000090
-0.71540564 -0.05898187 -0.00000153
-0.45291770 -0.12556553 -0.00000030
-0.04874743 0.47879222 0.08275899
-0.32115123 -0.71855211 0.00000000
-0.57175487 -0.78928292 0.00000000
-0.25169948 0.02788083 0.00000778
-0.10306798 -0.19399595 0.17497952
-0.04108499 -0.10398907 0.00000000
-0.48648095 0.11478219 0.00000210
-0.01286825 -0.73779899 0.00000000
-0.75416756 -0.06784820 -0.00000168
-0.22806819 0.24197391 0.00000493
-0.20046633 0.15504339 0.00000665
-0.13924003 0.14627016 0.00000770
-0.09062276 0.48106354 0.00000342
-0.66772842 0.08329283 -0.00000085
-0.34123781 -0.40675443 0.00000000
-0.52678907 -0.09249399 -0.00000067
-0.32832113 -0.69795907 0.00000000
-0.33353984 -0.51565605 0.56625456
-0.38333887 -0.41544941 0.00000000
-0.53624362 -0.51737189 0.00000000
-0.08218973 -0.31590083 0.00000000
-0.72246236 -0.48702934 -0.00000078
-0.09301305 0.35723442 0.00000524
-0.31403330 -0.27905646 0.00000000
-0.07199472 0.42586806 0.00000453
-0.46833363 -0.59436363 0.00000000
-0.01788406 -0.00109601 0.00000000
-0.04368507 0.08557814 0.00001006
-0.06340288 0.64051455 0.10764006
-0.47551936 -0.09584888 -0.00000045
-0.61394566 -0.17353664 -0.00000090
-0.69449902 -0.56196564 -0.00000056
-0.46967113 0.05533082 0.00000342
-0.42292392 -0.11804673 -0.00000018
-0.13627750 -0.61803675 0.23135965
-0.54376030 -0.09867762 -0.00000073
-0.16042566 -0.18976846 0.00000000
-0.11072044 0.35053161 0.00000507
-0.57316148 0.20391715 -0.00000105
-0.20803013 -0.74796110 0.00000000
-0.43077788 -0.45977280 0.00000000
-0.17708717 -0.41792309 0.00000000
-0.71747935 -0.64367533 -0.00000039
-0.20919985 0.03700350 0.35516122
-0.73032266 -0.43843868 -0.00000090
-0.22249208 0.12889406 0.00000671
-0.52248740 -0.30418852 -0.00000028
-0.33988050 -0.09413048 0.00000000
-0.09858910 0.22440755 0.16737568
-0.45136666 -0.04952995 -0.00000042
-0.12555665 -0.63186598 0.00000000
-0.55413914 0.20760515 -0.00000075
-0.02131961 -0.15013281 0.00000000
-0.46685669 -0.65612972 0.00000000
-0.46534425 -0.00289677 -0.00000057
-0.16013788 -0.71261001 0.00000000
-0.79677618 -0.44428191 -0.00000089
-0.65976614 -0.53076392 -0.00000046
-0.53314114 -0.28431612 -0.00000036
-0.16444372 -0.68259484 0.00000000
-0.41402864 0.21924879 0.00000175
-0.70072639 -0.27831772 -0.00000108
-0.77956372 -0.04011920 -0.00000184
-0.13202503 -0.16296060 0.22414020
-0.21950556 0.33960673 0.00000348
-0.03459717 0.29232961 0.00000709
-0.61828077 -0.34286538 -0.00000062
-0.08249479 -0.34902740 0.14005221
