ply
format ascii 1.0
element vertex 329
property float x
property float y
property float z
end_header
-0.53499651 0.20869771 0.03912587
-0.52617449 0.08733681 0.12958971
-0.13231511 0.56986779 0.06797318
-0.20784706 0.29719788 0.20496298
-0.04709807 0.60225838 0.10468178
-0.37514308 0.21937430 0.14278901
-0.29227000 0.36896366 0.09642825
-0.13720278 0.59923041 0.04417272
-0.20036246 0.44904628 0.10464564
-0.57875204 0.07166556 0.10394344
-0.48600218 0.11689781 0.13696361
-0.22871612 0.36499396 0.14335035
-0.05482704 0.55726105 0.13057928
-0.34606719 0.35770509 0.06686809
-0.24584185 0.29985991 0.17671096
-0.20245726 0.47729328 0.08356117
-0.18595202 0.61069983 0.00232677
0.31026852 0.24327745 -0.00000034
-0.51049501 0.14997116 0.09696092
-0.62138206 0.08612095 0.06427478
-0.44899720 0.18125997 0.11795328
-0.40167022 0.12277394 0.19148265
-0.20605949 0.53574437 0.04044048
-0.55190271 0.12266874 0.08715907
-0.06843048 0.71122652 0.01413680
-0.52774900 0.22051676 0.03594912
-0.60969377 0.15322366 0.02576747
-0.35223758 0.43364766 0.00980797
-0.59421122 0.09740593 0.07531393
-0.39974132 0.16706553 0.16204491
-0.22321902 0.18225691 0.27415270
-0.64092100 0.11342551 0.03172330
-0.53539431 0.25281706 0.00819097
-0.34870413 0.11464418 0.23393792
-0.23425287 0.41669810 0.10357385
-0.16014688 0.25694057 0.26608387
-0.30390304 0.22916630 0.18548925
-0.38050732 0.18926144 0.15998673
-0.69046199 0.05208989 0.03991919
-0.37268344 0.18064544 0.17141080
-0.39848360 0.09014771 0.21636891
-0.21124774 0.22834972 0.25044191
-0.08081186 0.33732501 0.26535445
-0.27955779 0.42484528 0.06642996
-0.19167195 0.39923280 0.14529966
-0.46659863 0.25402644 0.05515677
-0.28420171 0.36798242 0.10271678
-0.29801863 0.35631827 0.10122077
-0.27436221 0.49409479 0.02191903
-0.10599767 0.63504082 0.04097260
-0.52082759 0.27001068 0.00636561
-0.09461886 0.52017325 0.12870035
-0.27698249 0.46874779 0.03771178
-0.48682356 0.13087569 0.12667964
-0.28847387 0.24365848 0.18614031
-0.17839620 0.13332906 0.33929920
-0.08061424 0.37895903 0.23656063
-0.64794165 0.13056868 0.01493188
-0.73431003 0.05247994 0.00917812
-0.28455457 0.40205786 0.07879263
-0.18142574 0.46533480 0.10648591
-0.69867074 0.04963281 0.03592235
-0.58021986 0.05842767 0.11212243
-0.12967052 0.45247439 0.15138669
-0.12919296 0.54016644 0.09078205
-0.04069160 0.66124183 0.06814645
-0.57276499 0.15675224 0.04897732
-0.72664291 0.01998126 0.03708930
-0.18389583 0.52883744 0.06064161
-0.09642368 0.62033015 0.05784799
-0.24969853 0.14328696 0.28283226
-0.23907977 0.10325572 0.31802851
-0.50033283 0.27910098 0.01429062
-0.19718719 0.40828782 0.13517493
-0.18383272 0.46462521 0.10530639
-0.17473976 0.15503874 0.32675415
-0.54503024 0.15638947 0.06850229
-0.18962947 0.38776869 0.15468527
-0.13974504 0.25189170 0.28376931
-0.53256845 0.09774942 0.11791082
-0.12374041 0.47762915 0.13802761
-0.14123999 0.32672918 0.23072651
-0.69592601 0.07610314 0.01943549
-0.50580561 0.20570767 0.06148843
-0.47642708 0.12573440 0.13747682
-0.38334680 0.32375494 0.06455435
-0.62146556 0.15043595 0.01952443
-0.15561377 0.44958487 0.13536689
-0.03000391 0.66736114 0.07132096
-0.10797442 0.44396824 0.17237395
-0.47343999 0.18420596 0.09892080
-0.12554133 0.59222710 0.05714286
-0.44324186 0.34128717 0.01075012
-0.15956618 0.18905459 0.31366077
-0.37677717 0.14910026 0.19048673
-0.57040590 0.20554601 0.01670995
-0.16902474 0.45884231 0.11961483
-0.17520918 0.45858973 0.11549283
-0.20027500 0.27817664 0.22344245
-0.15807194 0.19093820 0.31339023
-0.15903582 0.19467004 0.31012720
-0.03733274 0.71555418 0.03273928
-0.09169218 0.29549456 0.28686148
-0.33138803 0.22871336 0.16670473
-0.63299030 0.15484720 0.00845050
-0.15029220 0.34356657 0.21273604
-0.68849647 0.04607211 0.04546680
-0.54173332 0.08163683 0.12273876
-0.47158155 0.31510076 0.00925373
-0.12070657 0.48993886 0.13158190
-0.30878136 0.37160212 0.08312103
-0.21805459 0.25495610 0.22722334
-0.19236059 0.32222301 0.19833460
-0.73607600 0.05249092 0.00794333
-0.11427968 0.33095223 0.24652639
-0.30496803 0.23957106 0.17751901
-0.46994439 0.06081890 0.18709129
-0.24152935 0.30080450 0.17905131
-0.06024519 0.69553435 0.03072923
-0.42305744 0.32689130 0.03477995
-0.21217391 0.29339921 0.20459595
-0.16215317 0.50929892 0.08932788
-0.15185578 0.60041976 0.03316386
-0.19615655 0.43775573 0.11541410
-0.25778544 0.16214027 0.26411176
-0.24377128 0.39056921 0.11511639
-0.61398673 0.10951323 0.05315859
-0.55895847 0.08909055 0.10558944
-0.10379717 0.46105835 0.16340090
-0.56362987 0.13512479 0.07035418
-0.56939209 0.15160733 0.05489633
-0.08238798 0.66736656 0.03491590
-0.31029743 0.47958988 0.00702707
-0.49793923 0.10947413 0.13382724
-0.11994356 0.49674284 0.12738407
-0.07439015 0.68119192 0.03086641
-0.49336046 0.16941310 0.09535756
-0.28877118 0.46635947 0.03117945
-0.55781549 0.15884794 0.05790942
-0.30605328 0.36275446 0.09116501
-0.44459486 0.11247770 0.16880910
-0.26000220 0.35005477 0.13199091
-0.57115632 0.05533569 0.12056930
-0.32220748 0.47145984 0.00440031
-0.66439992 0.09464256 0.02846000
-0.37219772 0.19935144 0.15874957
-0.43777627 0.08227803 0.19453304
-0.36664212 0.22899111 0.14201362
-0.38206014 0.21642847 0.14002937
-0.27447274 0.37545237 0.10428659
-0.39658004 0.17438401 0.15915608
-0.03211412 0.65296137 0.07986089
-0.12230750 0.33193865 0.24026248
-0.16309422 0.54712480 0.06238883
-0.17837779 0.15012658 0.32763955
-0.18220806 0.37745622 0.16700841
-0.22771525 0.47596952 0.06692925
-0.10787307 0.42330983 0.18679973
-0.09455514 0.64647788 0.04097646
-0.14628236 0.11261041 0.37601200
-0.05921753 0.69521266 0.03166686
-0.23790167 0.55031651 0.00818713
-0.55352080 0.17679474 0.04842264
-0.63254791 0.09374684 0.05121642
-0.35849327 0.43064758 0.00754563
-0.58291054 0.14590891 0.04946219
-0.26871654 0.27215046 0.18007064
-0.09232467 0.66798198 0.02758325
-0.25936845 0.17855962 0.25160205
-0.17871955 0.27514362 0.24052873
-0.26140496 0.48830917 0.03494345
-0.24208315 0.28973415 0.18635917
-0.55754054 0.21578433 0.01853553
-0.32213774 0.23882742 0.16610453
-0.15869936 0.60546917 0.02489946
-0.37792718 0.38665777 0.02460941
-0.12028787 0.38458705 0.20508097
-0.07505238 0.71938056 0.00386902
-0.27901134 0.17524076 0.24025865
-0.05169877 0.72872543 0.01360371
-0.13019054 0.20052066 0.32610595
-0.12977561 0.61955762 0.03520854
-0.36182460 0.08230610 0.24729209
-0.22416101 0.54023111 0.02474385
-0.19817223 0.26089290 0.23691396
-0.43850625 0.31138355 0.03482085
-0.20462969 0.23374832 0.25128931
-0.21195528 0.22683084 0.25100571
-0.38930425 0.09136563 0.22190133
-0.66105396 0.07777410 0.04250698
-0.63406724 0.07410151 0.06381212
-0.10127763 0.61507654 0.05812569
-0.24162836 0.36217302 0.13633795
-0.13808843 0.49145684 0.11844859
-0.34545654 0.43026298 0.01687213
-0.50250924 0.12410852 0.12048213
-0.15644257 0.48077214 0.11311919
-0.41859061 0.15867738 0.15477543
-0.36083090 0.30403388 0.09390477
-0.43504196 0.09305923 0.18894129
-0.37872675 0.26310641 0.10990936
-0.47695416 0.28134608 0.02897633
-0.26033780 0.42060196 0.08273462
-0.17673305 0.48341161 0.09718534
-0.08435133 0.57536542 0.09748256
-0.34321573 0.44710389 0.00672656
-0.11611723 0.51997054 0.11390222
-0.35597673 0.13714699 0.21324722
-0.30562618 0.20848846 0.19866070
-0.13895486 0.61576712 0.03146390
-0.56246018 0.05311827 0.12815316
-0.37396103 0.26290485 0.11336112
-0.41016367 0.14836165 0.16779970
-0.13951591 0.42831272 0.16133498
-0.19324861 0.23122798 0.26094925
-0.24989636 0.44374666 0.07390719
-0.30067575 0.48801857 0.00785610
-0.04289020 0.56923002 0.13055693
-0.10461793 0.56675947 0.08937972
-0.18582968 0.57789731 0.02520618
-0.22279125 0.29136226 0.19863354
-0.50577068 0.12726159 0.11602467
-0.11566184 0.12240483 0.39048386
-0.29188237 0.16723645 0.23687685
-0.13903373 0.60912400 0.03602536
-0.17379279 0.25041798 0.26113391
-0.27133718 0.51559180 0.00908290
-0.04317323 0.63726389 0.08308404
-0.24096508 0.27424717 0.19789787
-0.13138591 0.51134938 0.10928294
-0.30059242 0.43576235 0.04422673
-0.52685463 0.07915640 0.13480163
-0.25235933 0.46422929 0.05796234
-0.16542016 0.36847419 0.18491568
-0.11831496 0.40986174 0.18888874
-0.45661378 0.12888804 0.14905363
-0.43937334 0.18399300 0.12274173
-0.47370729 0.26765916 0.04074362
-0.14314678 0.55810684 0.06861893
-0.34290713 0.44575587 0.00787774
-0.43025041 0.16489363 0.14235336
-0.61704117 0.12189630 0.04243108
-0.39968938 0.35186008 0.03366768
-0.13562232 0.50533497 0.11051845
-0.25044522 0.48708579 0.04340952
-0.03391240 0.67537332 0.06303738
-0.05756228 0.69758874 0.03116599
-0.39966047 0.38024798 0.01396108
-0.61897886 0.12325264 0.04014204
-0.28533554 0.19290131 0.22359186
-0.22585075 0.14417283 0.29878828
-0.59146196 0.16098540 0.03304316
-0.21709614 0.19615582 0.26874921
-0.35938334 0.39926261 0.02873646
-0.26121259 0.47785529 0.04234152
-0.07509872 0.67293036 0.03611494
-0.61852354 0.07405056 0.07464886
-0.21806315 0.42634106 0.10812323
-0.13443817 0.16844150 0.34544584
-0.37926307 0.34070441 0.05561399
-0.77994931 0.01459784 0.00378757
-0.46043923 0.27681318 0.04360249
-0.49827948 0.22311641 0.05462104
-0.19102371 0.55004001 0.04095484
-0.20308813 0.22737443 0.25678968
-0.02961960 0.71135432 0.04101750
-0.52254397 0.04903061 0.15873145
-0.24710099 0.43051523 0.08504418
-0.74359787 0.03906845 0.01204360
-0.72341830 0.07262524 0.00274787
-0.36519015 0.24567004 0.13143244
-0.19660974 0.44499794 0.11006659
-0.14387199 0.27673051 0.26364124
-0.45690948 0.31318840 0.02077826
-0.35215819 0.37755826 0.04883953
-0.17792276 0.53210217 0.06252365
-0.36840609 0.34414846 0.06076524
-0.44290692 0.12928917 0.15829980
-0.54027426 0.12000311 0.09709201
-0.11500237 0.52935433 0.10815619
-0.45825124 0.12995763 0.14717253
-0.37166616 0.10192148 0.22682272
-0.57167619 0.17247424 0.03880875
-0.15565076 0.24113882 0.28018868
-0.05672969 0.62286961 0.08366627
-0.20248434 0.41222492 0.12875813
-0.15072566 0.56910455 0.05571005
-0.15381560 0.53255659 0.07895996
-0.34370950 0.16425279 0.20293601
-0.17613907 0.16290662 0.32031447
-0.10349754 0.26892230 0.29712290
-0.32274213 0.42290461 0.03776969
-0.14448562 0.26235065 0.27320728
-0.43263030 0.27005160 0.06762553
-0.43596417 0.20906231 0.10769014
-0.24416050 0.19003084 0.25419864
-0.35655400 0.12330141 0.22246727
-0.35775417 0.09624051 0.24043770
-0.15890774 0.39416844 0.17158636
-0.10238817 0.59868020 0.06874768
-0.02586118 0.68900812 0.05915740
-0.23488201 0.29476836 0.18786493
-0.12803046 0.62582147 0.03206851
-0.45640647 0.30045781 0.02997426
-0.10656419 0.49186316 0.14007212
-0.53305191 0.18089777 0.05979528
-0.05617103 0.58145207 0.11283521
-0.12180610 0.26426110 0.28763947
-0.37047777 0.35638198 0.05082458
-0.54774565 0.24949670 0.00191537
-0.13074175 0.66598481 0.00227504
-0.27567545 0.39669102 0.08869213
-0.18311384 0.59037036 0.01842593
-0.20955858 0.33996144 0.17405763
-0.30392888 0.37785500 0.08214792
-0.20134634 0.41978806 0.12429335
-0.50559193 0.11184730 0.12686025
-0.63790798 0.11036635 0.03594283
-0.09798407 0.27556002 0.29634163
-0.53187948 0.07573472 0.13368759
-0.35042080 0.16670784 0.19656631
-0.60225528 0.04921771 0.10320999
-0.33539480 0.23518001 0.15942675
-0.15594114 0.54283696 0.07033909
-0.31338683 0.39162284 0.06600833
-0.19285817 0.13086721 0.33096045
-0.43891343 0.18309335 0.12368648
-0.64263475 0.08040459 0.05347859
-0.67495221 0.02749355 0.06778891
