ply
format ascii 1.0
element vertex 384
property float x
property float y
property float z
end_header
-0.60761786 0.13224719 0.07831705
-0.11712735 0.49993703 0.23825125
-0.18199018 0.44868156 0.22052944
-0.36279240 0.16456440 0.35508367
-0.13781075 0.47626555 0.24214286
-0.39842239 0.19130516 0.27385381
-0.15236133 0.48388320 0.21327160
0.09571744 0.49971387 0.00000306
-0.13985401 0.59216803 0.08853375
-0.48368081 0.18163560 0.17540821
-0.27654713 0.19205469 0.43160450
-0.23570658 0.42753962 0.17810537
-0.64912874 0.07308169 0.10130987
-0.16247748 0.40726590 0.29988074
-0.34983417 0.27605301 0.22676063
-0.19539358 0.27351099 0.43121025
-0.41502407 0.29460314 0.11769908
-0.52898180 0.20158523 0.09042693
-0.38510987 0.29175287 0.16037092
-0.09813621 0.54386652 0.20577230
-0.15287694 0.42206341 0.29311237
-0.25414127 0.49204138 0.07009073
-0.23007575 0.51438308 0.07233596
-0.29663569 0.19344176 0.40363529
-0.17722413 0.31908217 0.39552307
-0.16894326 0.32563850 0.39776906
-0.34226677 0.39922693 0.07619713
-0.77705032 0.00965760 0.01730915
-0.37580800 0.23140217 0.25108495
-0.13671421 0.54585117 0.15294464
-0.28152835 0.39254323 0.16400658
-0.36023474 0.18960956 0.32579663
-0.45295343 0.29969659 0.06166690
-0.61664510 0.10814784 0.09794665
-0.30239493 0.26370722 0.30462289
-0.17085551 0.38595673 0.31672192
-0.55690271 0.21250691 0.03983909
-0.14952528 0.56380343 0.11287936
-0.62083739 0.10116311 0.10158344
-0.44938058 0.28524706 0.08513888
-0.29740652 0.28317299 0.28576800
-0.25715199 0.49132112 0.06710767
-0.09875920 0.53878254 0.21158218
-0.20147888 0.40159115 0.25647703
-0.21687362 0.31969312 0.34308901
-0.16664155 0.40156591 0.30188107
-0.56813157 0.19242841 0.05136459
-0.24195230 0.30035523 0.33561239
-0.61846477 0.10009624 0.10606300
-0.06530767 0.67536157 0.07727196
-0.18375172 0.38723579 0.29826042
-0.30173460 0.34553060 0.19891852
-0.70891094 0.04747916 0.05679470
-0.14527734 0.57838160 0.09942562
-0.40119573 0.24490979 0.20042840
-0.50210136 0.18064082 0.15271316
-0.53646636 0.23576757 0.03616083
-0.39627320 0.28406328 0.15584677
-0.17016521 0.53851271 0.11893642
-0.26817578 0.48181325 0.06513333
-0.39757150 0.30954123 0.12097397
-0.16118065 0.36500296 0.35661173
-0.27872351 0.19450083 0.42558426
-0.34793192 0.30974531 0.18535788
-0.47129312 0.25498971 0.09600689
-0.52327180 0.23671234 0.05211481
-0.21056829 0.43857285 0.19647539
-0.36125448 0.20617719 0.30289131
-0.25938284 0.35223967 0.24533853
-0.68159437 0.04506454 0.09551611
-0.13919444 0.63423920 0.03460013
-0.52340955 0.16570400 0.14441517
-0.54218024 0.18117270 0.09982236
-0.36224943 0.32464859 0.14730132
-0.53169167 0.10742445 0.20953070
-0.15955709 0.57742316 0.08207623
-0.25226599 0.24878339 0.38934574
-0.29851332 0.46109548 0.05260461
-0.17649479 0.60133433 0.02887542
-0.19811004 0.35432410 0.32242379
-0.07307345 0.63832670 0.11539113
-0.08887431 0.67788249 0.04329618
-0.20480402 0.36202839 0.30367187
-0.38951179 0.18635330 0.29190788
-0.22256508 0.46938983 0.14071594
-0.15286566 0.46509558 0.23708321
-0.03960229 0.69292796 0.08787192
-0.14331134 0.44111049 0.28076395
-0.36977941 0.18186840 0.32344776
-0.42919567 0.20270388 0.21892987
-0.28077161 0.21897525 0.39104214
-0.35884240 0.41370061 0.03575910
-0.49193192 0.16116641 0.19132073
-0.28952610 0.21824241 0.38059494
-0.52411842 0.15635261 0.15567094
-0.14988352 0.59699911 0.06917961
-0.33698410 0.22202337 0.31386277
-0.05576161 0.73679435 0.00969606
-0.19431871 0.47060308 0.17592312
-0.13218258 0.52260447 0.18912236
-0.41708347 0.28275070 0.13045333
-0.32974407 0.24222884 0.29697698
-0.45636994 0.13950092 0.26585275
-0.21155100 0.56319487 0.03289080
-0.65000200 0.13794266 0.01569899
-0.52919161 0.21952891 0.06678423
-0.22870328 0.29268384 0.36285850
-0.31885678 0.38907668 0.11990540
-0.40272743 0.39222860 0.00656864
-0.06196074 0.64988202 0.11481472
-0.58967638 0.17940651 0.04026445
-0.04226709 0.73243624 0.03294697
-0.16224602 0.38565424 0.32832858
-0.35472488 0.31457391 0.17022221
-0.64750713 0.13707161 0.02008273
-0.33482468 0.22637697 0.31100515
-0.23635785 0.20749295 0.46383953
-0.46871191 0.26176715 0.09054182
-0.50199735 0.19305529 0.13668029
-0.50302958 0.20722507 0.11688150
-0.10809880 0.56580967 0.16421919
-0.32842824 0.37052748 0.13159776
-0.50055808 0.24340595 0.07297914
-0.34597117 0.21770348 0.30778438
-0.47211573 0.25049111 0.10079444
-0.17844729 0.39872432 0.29020640
-0.27754608 0.33236614 0.24756594
-0.14657798 0.62118226 0.04198900
-0.63324314 0.11079048 0.07288789
-0.19218774 0.29167798 0.41172528
-0.22255929 0.40034333 0.23064767
-0.34491464 0.32996652 0.16295189
-0.07145719 0.65817034 0.09165234
-0.24035527 0.25288674 0.39951387
-0.30149564 0.47115493 0.03561927
-0.58541632 0.13113689 0.10867802
-0.23284227 0.46466503 0.13348459
-0.24103145 0.51453406 0.05787075
-0.45796397 0.28716376 0.07146375
-0.02923265 0.71827579 0.06836482
-0.43865106 0.34519050 0.02104375
-0.58413231 0.10047850 0.15027913
-0.12137697 0.63156903 0.06128294
-0.69576514 0.07978910 0.03183580
-0.06572616 0.68884587 0.05916532
-0.18994270 0.53729475 0.09476483
-0.41596928 0.25617206 0.16651987
-0.23223090 0.30380732 0.34377733
-0.44827026 0.18309198 0.21962956
-0.31393301 0.34424853 0.18470126
-0.14987472 0.56628978 0.10918614
-0.31740978 0.45215824 0.03963386
-0.72479260 0.03220199 0.05600738
-0.21721935 0.41395050 0.21988064
-0.67582536 0.09329322 0.04021758
-0.44418177 0.34954640 0.00816763
-0.41295046 0.31950036 0.08797408
-0.55133247 0.20365125 0.05862705
-0.39892471 0.25254652 0.19344024
-0.49325496 0.22389618 0.10789971
-0.08848802 0.61442208 0.12644829
-0.61042577 0.07112375 0.15426596
-0.42566499 0.24834359 0.16408800
-0.61248958 0.12527016 0.08105898
-0.17978624 0.54609829 0.09652690
-0.14792348 0.39190257 0.33884424
-0.41729060 0.36456618 0.02362878
-0.46759006 0.14399323 0.24538913
-0.33881864 0.34652171 0.14933006
-0.39085054 0.28700978 0.15907168
-0.52615029 0.13899851 0.17562628
-0.25463367 0.47394234 0.09302128
-0.12120248 0.52016580 0.20659855
-0.30499321 0.35657552 0.18028989
-0.52554810 0.13049182 0.18748948
-0.02781833 0.76861829 0.00464206
-0.49212751 0.14532161 0.21170194
-0.32009485 0.22586209 0.33085942
-0.19363089 0.46144357 0.18874802
-0.35907653 0.38186955 0.07691027
-0.13938481 0.65546685 0.00670578
-0.21476151 0.21725202 0.47925606
-0.19474787 0.49844515 0.13910352
0.23888874 0.31377992 -0.00000016
-0.44788858 0.14698786 0.26714790
-0.38134849 0.36320457 0.07221252
-0.61614770 0.18045998 0.00441666
-0.63792372 0.13822265 0.03106489
-0.24762121 0.52055424 0.04144782
-0.38855380 0.38931584 0.02882169
-0.46541464 0.28363338 0.06635798
-0.22477968 0.42643163 0.19377923
-0.21891388 0.56184727 0.02505662
-0.25401899 0.33699116 0.27218348
-0.20464292 0.31129402 0.36995667
-0.51143575 0.21540396 0.09528140
-0.05574844 0.68916202 0.07174831
-0.30797994 0.46943277 0.02941714
-0.35769573 0.27329096 0.22011907
-0.36974749 0.30694452 0.16059338
-0.11649988 0.56292295 0.15703745
-0.22910336 0.35693276 0.27866152
-0.09745463 0.58637142 0.15130286
-0.30267471 0.48438331 0.01685533
-0.14250469 0.42153740 0.30730596
-0.18991016 0.38155699 0.29763573
-0.52606994 0.13863344 0.17620645
-0.46624658 0.13654293 0.25684199
-0.71744972 0.05943130 0.03010773
-0.39034560 0.34340054 0.08628718
-0.19527115 0.29048777 0.40925965
-0.13261668 0.57631218 0.11860965
-0.08286630 0.65727293 0.07796222
-0.61133623 0.16701025 0.02819963
-0.14884108 0.56867981 0.10741959
-0.19810233 0.57219326 0.03868679
-0.52410221 0.09990383 0.22920974
-0.44481391 0.26329130 0.11968113
-0.56620407 0.16313398 0.09202742
-0.15259996 0.55189157 0.12438869
-0.40396097 0.20104699 0.25395301
-0.13680319 0.57128632 0.11970275
-0.16273814 0.58734399 0.06501256
-0.20540632 0.56170911 0.04282855
-0.24164999 0.20814815 0.45609388
-0.20190820 0.37442562 0.29129750
-0.63263619 0.08240122 0.11065194
-0.18593845 0.28940341 0.42282653
-0.25653094 0.32185659 0.28862280
-0.45770398 0.29456404 0.06216440
-0.03296571 0.73182428 0.04585779
-0.68437535 0.04685170 0.08956664
-0.37284362 0.31914163 0.14067577
-0.56988084 0.17098805 0.07700985
-0.52550435 0.18385720 0.11804456
-0.41095233 0.16519961 0.29153427
-0.35751688 0.26617798 0.22961576
-0.62449235 0.07274891 0.13382933
-0.55272126 0.20418991 0.05611677
-0.32337397 0.27827233 0.25833121
-0.41546959 0.16895588 0.28075907
-0.72017503 0.06686318 0.01687924
-0.34717074 0.33066297 0.15910655
-0.65776223 0.12070151 0.02804669
-0.69535565 0.09957956 0.00659445
-0.26978710 0.43442059 0.12475801
-0.36051807 0.17269067 0.34746230
-0.10646423 0.54329330 0.19567271
-0.21039097 0.26470488 0.42314690
-0.55581516 0.10034524 0.18733244
-0.49261561 0.25178310 0.07241304
-0.15534523 0.64444363 0.00027563
-0.26735753 0.50020885 0.04224097
-0.33113229 0.16631949 0.39403114
-0.26246738 0.36253220 0.22791664
-0.43437532 0.13904466 0.29509228
-0.43908355 0.15426271 0.26914081
-0.43268642 0.18655294 0.23541822
-0.22148316 0.35445908 0.29180753
-0.26569545 0.33129472 0.26439524
-0.58677185 0.19366322 0.02547962
-0.45660695 0.33276463 0.01384148
-0.38834167 0.37852797 0.04314785
-0.55724245 0.15302698 0.11686197
-0.35350487 0.37053448 0.09892926
-0.41569930 0.37775353 0.00852632
-0.69038928 0.10550610 0.00534396
-0.10076494 0.55902261 0.18260992
-0.25120685 0.47258595 0.09925084
-0.26428846 0.30078483 0.30596286
-0.13619287 0.48667929 0.23068739
-0.11747698 0.67359143 0.01163309
-0.15308762 0.60999608 0.04807965
-0.24766091 0.33933669 0.27740929
-0.64020467 0.09994716 0.07794343
-0.10624577 0.67778611 0.02079736
-0.64781851 0.07858099 0.09585418
-0.25816521 0.23571216 0.39868638
-0.61204219 0.11628311 0.09334618
-0.09598758 0.57026058 0.17419574
-0.48131514 0.11892950 0.26015630
-0.42411900 0.20503710 0.22250287
-0.09433327 0.68276685 0.02982523
-0.00942712 0.78050512 0.01311329
-0.54271698 0.13427787 0.16019820
-0.52299464 0.22732346 0.06470363
-0.22041699 0.32202742 0.33543408
-0.12276929 0.49587172 0.23619790
-0.05893394 0.69521612 0.05971489
-0.50461853 0.16039084 0.17580804
-0.31835812 0.17385408 0.40085500
-0.48639047 0.26534256 0.06286103
-0.05549866 0.70816278 0.04732760
-0.28256297 0.36397704 0.19986302
-0.35489339 0.37722129 0.08841216
-0.13758276 0.64125574 0.02756102
-0.39346734 0.25739828 0.19422901
-0.28391609 0.24146438 0.35765764
-0.68629205 0.05256213 0.07963327
-0.13089859 0.51901835 0.19546504
-0.22031996 0.39576700 0.23952420
-0.35379872 0.16875927 0.36133352
-0.09455219 0.64875370 0.07383804
-0.36170438 0.16723490 0.35302269
-0.13621832 0.41639000 0.32219696
-0.39220601 0.17531092 0.30278027
-0.62751120 0.08418080 0.11500898
-0.20870204 0.48521101 0.13816576
-0.19563554 0.32433960 0.36469746
-0.29749203 0.22178008 0.36561301
-0.14670007 0.51481229 0.18036354
-0.33019489 0.34591514 0.16135155
-0.22332996 0.51650649 0.07835605
-0.18244992 0.37128526 0.32072935
-0.39259562 0.18302184 0.29223037
-0.62356025 0.11724253 0.07709575
-0.13086998 0.57795358 0.11874681
-0.15534312 0.39089984 0.33048701
-0.23305517 0.48297647 0.10935888
-0.38983592 0.28162545 0.16740555
-0.39532673 0.28018641 0.16212858
-0.17694287 0.34060487 0.36785880
-0.42954400 0.15159667 0.28503710
-0.51436716 0.27471325 0.01422046
-0.39364728 0.29572061 0.14408448
-0.40317354 0.23160443 0.21518119
-0.38387987 0.27182961 0.18792053
-0.23178114 0.32001376 0.32325628
-0.15506075 0.62314767 0.02838150
-0.35040629 0.30148613 0.19289193
-0.22907327 0.40846261 0.21158974
-0.47778425 0.22118551 0.13157883
-0.43691003 0.24172011 0.15806890
-0.50288677 0.21748807 0.10370119
-0.50968349 0.27837345 0.01555340
-0.41052806 0.32054338 0.08977057
-0.44764650 0.34040779 0.01555715
-0.31411055 0.18104886 0.39701667
-0.64636868 0.08860659 0.08468522
-0.27413422 0.19742636 0.42775109
-0.41584730 0.18899629 0.25416705
-0.20292832 0.38025644 0.28237504
-0.44487041 0.14405800 0.27489448
-0.44593617 0.20856409 0.18949509
-0.60813981 0.18090552 0.01426574
-0.37036639 0.23332201 0.25567162
-0.49294445 0.14329001 0.21328387
-0.18099691 0.36815014 0.32670480
-0.20372885 0.23202845 0.47438028
-0.44394836 0.18799280 0.21887559
-0.22157452 0.24851787 0.42966327
-0.31198555 0.29476789 0.25167981
-0.29294768 0.32451928 0.23772690
-0.16145916 0.58037996 0.07574806
-0.44077060 0.21869096 0.18303362
-0.32349524 0.42072675 0.07264399
-0.41691104 0.33813775 0.05854296
-0.21915644 0.37181345 0.27223596
-0.48967862 0.28943932 0.02719546
-0.18473168 0.60956109 0.00743350
-0.44827515 0.24895974 0.13383843
-0.49729416 0.22713576 0.09841992
-0.18231168 0.34012556 0.36149085
-0.05742927 0.65516269 0.11383894
-0.34426144 0.18057323 0.35836843
-0.37682167 0.25874409 0.21415529
-0.10233563 0.61372131 0.10932626
-0.27241787 0.29806039 0.29892358
-0.22580577 0.30910334 0.34524783
-0.07473709 0.59333146 0.17182498
-0.13815281 0.61578697 0.05998859
-0.14135557 0.62028337 0.04996135
-0.18868767 0.33337709 0.36197597
-0.19675916 0.51536137 0.11445280
-0.11203745 0.67786372 0.01315335
-0.28877324 0.24198107 0.35065889
-0.11792994 0.49758285 0.24027202
-0.35647804 0.21313290 0.30005312
-0.33469483 0.16650838 0.38914540
-0.48093185 0.22522174 0.12222275
-0.49050504 0.21102197 0.12824821
-0.51245087 0.12821241 0.20751579
-0.29184499 0.21646903 0.37988448
-0.62854534 0.15095808 0.02669278
