ply
format ascii 1.0
element vertex 89
property float x
property float y
property float z
end_header
-0.49649787 -0.29918963 0.10459164
-0.44064894 -0.03895056 0.23644777
-0.32257539 0.12385932 0.10790949
-0.40217909 0.00551558 0.18554676
-0.40465164 -0.00951322 0.17602006
-0.23717111 0.29194492 0.06785285
-0.62193638 -0.52280992 0.18788259
-0.26194200 0.29040459 0.12911628
-0.29012015 0.12960050 0.03155600
-0.67827433 -0.75272608 0.08914467
-0.23403367 0.38733891 0.16019946
-0.13688128 0.53144103 0.06509938
-0.18627572 0.44016591 0.09451160
-0.29111525 0.27914611 0.19133645
-0.23251192 0.26908085 0.03198241
-0.43381882 0.03266903 0.29442024
-0.43347067 -0.10777174 0.14586972
-0.55310476 -0.39458218 0.14798361
-0.49599746 -0.31192097 0.08993473
-0.40065786 -0.06527525 0.10725949
-0.41593021 -0.08957521 0.12047707
-0.27635854 0.13636135 0.00373025
-0.54813945 -0.34861490 0.18371260
-0.28083101 0.25511804 0.13996230
-0.38164645 0.09251126 0.22490285
-0.16231377 0.43592590 0.02922343
-0.22634877 0.29575241 0.04438309
-0.38126048 0.03897950 0.16763185
-0.50596666 -0.39151511 0.03155031
-0.34085819 0.16059288 0.19294915
-0.56858939 -0.41787666 0.16279729
-0.65529656 -0.73536861 0.04906689
-0.17990294 0.44142991 0.07966287
-0.40734065 -0.00874299 0.18365628
-0.50788838 -0.14332370 0.29739437
-0.41271529 -0.04704329 0.15703715
-0.20138477 0.38248521 0.07221332
-0.66936237 -0.77442956 0.04370110
-0.15927598 0.52454239 0.11469614
-0.37956059 -0.01053187 0.11125296
-0.60473984 -0.53283018 0.13369364
-0.61871076 -0.66738462 0.02767825
-0.29309320 0.20424896 0.11759976
-0.53222197 -0.42430106 0.06372496
-0.45859241 -0.07016844 0.24917905
-0.33408517 0.18905143 0.20568071
-0.43251246 0.05798301 0.31772280
-0.36880064 -0.05944442 0.03252211
-0.12525946 0.55344176 0.05873113
-0.39603791 -0.06801687 0.09264918
-0.12561931 0.54598725 0.05180587
-0.18626978 0.35648996 0.00650728
-0.22616062 0.28123030 0.02863475
-0.31650615 0.26175997 0.23751122
-0.38186574 -0.08073388 0.04330211
-0.17138709 0.47649288 0.09491497
-0.64914519 -0.74336571 0.02504304
-0.60075027 -0.63327628 0.01795015
-0.59273571 -0.41267011 0.22956634
-0.47283050 -0.21465476 0.13339885
-0.54924059 -0.44528919 0.08485766
-0.40867949 -0.02677140 0.16809732
-0.47019354 -0.14762695 0.19718273
-0.50711226 -0.40317789 0.02219531
-0.68238437 -0.77365261 0.07757422
-0.12325619 0.50591731 0.00367145
-0.57049304 -0.28778189 0.30442044
-0.45929533 -0.04604174 0.27632663
-0.42675799 -0.18673000 0.04580761
-0.33869717 0.19003007 0.21841778
-0.38294798 -0.03710594 0.09192282
-0.69181937 -0.75199908 0.12429294
-0.22319002 0.36514753 0.10933658
-0.38873798 0.03042368 0.17761730
-0.40583599 -0.14918245 0.03217803
-0.42250368 -0.02987326 0.19992955
-0.45540410 -0.13847236 0.16926612
-0.24010424 0.33212507 0.11755019
-0.44590679 -0.12071096 0.16383313
-0.38177520 0.08410539 0.21639051
-0.54075658 -0.21203221 0.30858409
-0.25662950 0.19593853 0.01629447
-0.40941185 0.05493006 0.25586945
-0.63976657 -0.52886188 0.22678079
-0.42055148 0.01156135 0.23854417
-0.64919037 -0.61883557 0.15609790
-0.37350926 -0.04773088 0.05679118
-0.27371246 0.21412072 0.07878056
-0.28833261 0.16034767 0.05935027
