ply
format ascii 1.0
element vertex 1146
property float x
property float y
property float z
end_header
-0.24332927 0.43632466 0.17356975
-0.05380865 -0.09568417 0.03838255
-0.51679075 0.14281411 0.36863574
-0.28340608 -0.73587972 0.20215797
-0.62899810 -0.77894741 0.44867417
-0.41113088 -0.75433773 0.29326603
-0.27264115 0.21127763 0.19447424
-0.38190380 -0.65694606 0.27241790
-0.28252658 -0.58572745 0.20153061
-0.31236720 -0.36825556 0.22281638
-0.50995970 -0.60675222 0.36376235
-0.10264724 -0.33332956 0.07321988
-0.24117035 0.44734994 0.17202993
-0.06022301 0.24310943 0.04294923
-0.06146253 -0.40339491 0.04384218
-0.04742815 -0.25138107 0.03383124
-0.29702112 0.16343869 0.21186453
-0.40342966 -0.46970811 0.28777263
-0.51704431 -0.64826667 0.36881587
-0.14126649 -0.17355952 0.10076759
-0.40126514 -0.31170443 0.28622878
-0.36682472 -0.32287338 0.26166177
-0.13703792 0.30270493 0.09774476
-0.15577240 -0.70936769 0.11111487
-0.50538605 -0.63494480 0.36049983
-0.14104301 -0.23274826 0.10060817
-0.02352961 -0.14932275 0.01678404
-0.32534453 0.04103610 0.23206618
-0.16810910 0.30932832 0.11990896
-0.10024537 -0.56422925 0.07150658
-0.31050086 -0.52977043 0.22148509
-0.11147425 -0.79435182 0.07951632
-0.30131981 -0.13823417 0.21493611
-0.45913181 -0.57363772 0.32750586
-0.41370648 0.02559612 0.29509842
-0.27149993 -0.04471638 0.19366512
-0.44737247 -0.20100661 0.31911823
-0.50047058 -0.66914099 0.35699347
-0.20001215 0.14455041 0.14266349
-0.26443860 -0.09012509 0.18862817
-0.59375685 -0.53681743 0.42353654
-0.33949384 -0.21302928 0.24216624
-0.48298785 -0.16857219 0.34452346
-0.29188588 0.16666400 0.20820139
-0.20510416 -0.07213502 0.14630398
-0.13202170 0.36385572 0.09416760
-0.03228920 -0.73121947 0.02303239
-0.49101126 -0.21453489 0.35024664
-0.40213129 0.30026031 0.28684741
-0.15846512 -0.48696420 0.11303564
-0.21470378 0.40332779 0.15314916
-0.23411550 -0.52936125 0.16699822
-0.06971427 0.40747964 0.04972251
-0.46814328 0.21296290 0.33393484
-0.26552907 -0.09713823 0.18940602
-0.30750707 -0.10663192 0.21934958
-0.40906903 -0.21604398 0.29179558
-0.14118460 0.52832639 0.10070736
-0.20602757 -0.60949868 0.14696267
-0.37869969 -0.43425336 0.27013236
-0.36370158 0.04118889 0.25942802
-0.12476846 0.62040907 0.08899902
-0.01358237 0.73448944 0.00968759
-0.32091275 0.31559405 0.22891088
-0.11327234 0.50341362 0.08079572
-0.27384242 -0.76063889 0.19533604
-0.19121258 -0.08262027 0.13639490
-0.18227769 -0.15832619 0.13002151
-0.16297936 -0.54379630 0.11625572
-0.01802397 -0.04694284 0.01285678
-0.46141538 0.18195093 0.32913482
-0.29956028 0.04666123 0.21367322
-0.12003457 0.58081681 0.08562124
-0.43805680 -0.52819026 0.31247273
-0.53199202 -0.61951023 0.37947839
-0.14270306 -0.43066272 0.10179231
-0.45758155 -0.75829905 0.32640004
-0.00802726 0.77056199 0.00572558
-0.22288953 -0.77462459 0.15899058
-0.21139224 -0.63692695 0.15078937
-0.29991049 -0.63825828 0.21393082
-0.33002537 -0.65834647 0.23541223
-0.52977973 -0.58313769 0.37790042
-0.04308353 0.57168186 0.03072884
-0.39086777 -0.22007556 0.27881226
-0.02304646 -0.78871125 0.01643940
-0.46246585 -0.18313763 0.32988468
-0.37676191 -0.62842286 0.26875013
-0.12933484 -0.69565082 0.09225655
-0.30220479 -0.27232289 0.21556737
-0.00437739 -0.78577197 0.00312246
-0.62228441 -0.62191564 0.44388554
-0.41457701 -0.56098300 0.29572424
-0.21462575 -0.51019526 0.15309589
-0.33908436 0.01392536 0.24186683
-0.27895397 -0.56415272 0.19898219
-0.25767332 -0.14562713 0.18380240
-0.14954540 -0.76696205 0.10667306
-0.25555843 0.30640408 0.18229048
-0.28264189 -0.39098182 0.20161286
-0.24830735 -0.39150602 0.17712149
-0.20858745 0.43544269 0.14878681
-0.63043684 -0.74221927 0.44970053
-0.06441721 0.45334876 0.04594476
-0.55185986 0.09104198 0.39365098
-0.19273549 -0.03719694 0.13748123
-0.31150195 0.33879244 0.22219826
-0.15347378 0.27463511 0.10946849
-0.31287560 -0.72544032 0.22317904
-0.57362318 -0.78766346 0.40917435
-0.31057265 0.28507212 0.22153413
-0.42639688 0.05555914 0.30415174
-0.07058248 0.26893684 0.05033941
-0.06495613 -0.44127297 0.04633421
-0.30574524 -0.48519284 0.21809283
-0.02432272 -0.35317367 0.01734977
-0.38773844 -0.53694302 0.27657986
-0.12469514 -0.30083820 0.08894698
-0.00111358 -0.38435334 0.00079433
-0.25152141 -0.35818094 0.17941412
-0.21919975 -0.02109202 0.15635858
-0.58311325 -0.70010591 0.41594398
-0.25054443 -0.18237312 0.17871726
-0.05668583 -0.52685577 0.04043488
-0.43911567 -0.75859606 0.31322804
-0.44477570 0.01139783 0.31726122
-0.55700725 -0.44099805 0.39732257
-0.14596862 0.20235468 0.10411354
-0.43516895 -0.79589856 0.31041279
-0.50296241 -0.46992207 0.35877123
-0.51739585 -0.59367502 0.36906675
-0.00858614 -0.22311945 0.00612462
-0.27553445 -0.64565074 0.19654299
-0.14713739 0.11508187 0.10494575
-0.10049223 0.18065080 0.07167343
-0.01693898 -0.12102639 0.01208283
-0.24056350 -0.64002764 0.17159767
-0.25301328 -0.56706482 0.18047830
-0.21985470 -0.02781277 0.15682578
-0.30925378 -0.56822759 0.22059554
-0.54948205 -0.50853735 0.39195457
-0.19802126 0.10414905 0.14124262
-0.61850125 -0.27058306 0.44118768
-0.23786321 0.19295909 0.16966514
-0.37676376 -0.25867677 0.26875153
-0.16592181 -0.71184307 0.11835461
-0.03204253 0.42120892 0.02285032
-0.34586412 -0.13732176 0.24671039
-0.31244439 -0.53741944 0.22287145
-0.35004312 -0.01475652 0.24969155
-0.35647199 -0.39451450 0.25427702
-0.10537127 0.28896376 0.07515570
-0.28558397 -0.53996271 0.20371149
-0.37895188 -0.75032485 0.27031225
-0.01455138 0.65728414 0.01037746
-0.40465406 -0.58643156 0.28864601
-0.08687268 -0.33303162 0.06196763
-0.02195096 0.40206370 0.01565135
-0.04488735 -0.19235907 0.03201884
-0.29708111 -0.09966108 0.21191257
-0.05205993 -0.24816538 0.03713516
-0.18690024 0.38560545 0.13331524
-0.13328648 0.50607848 0.09507277
-0.44421032 -0.19606106 0.31686261
-0.46466085 0.03623368 0.33144674
-0.01976136 -0.39415687 0.01409609
-0.43183747 -0.22759201 0.30803677
-0.19432180 0.40270531 0.13860974
-0.08366330 -0.51227915 0.05967833
-0.12340253 0.33414721 0.08801876
-0.42564490 0.03366755 0.30361483
-0.19678566 0.44530734 0.14036827
-0.62237531 -0.70935267 0.44395018
-0.31522325 0.41208243 0.22485448
-0.05379343 -0.56741315 0.03837169
-0.58774531 0.03070331 0.41924834
-0.15540753 0.51730222 0.11085297
-0.32151294 -0.51788372 0.22934018
-0.42333627 0.23425150 0.30197242
-0.48841965 -0.21715087 0.34839800
-0.04669358 -0.23392768 0.03330726
-0.13015801 -0.03103102 0.09284373
-0.09392626 0.12976284 0.06698883
-0.27226609 0.05922355 0.19420332
-0.18599813 -0.19334590 0.13267535
-0.12901148 -0.75262934 0.09202590
-0.00389004 -0.21871506 0.00277482
-0.40637833 -0.65240771 0.28987598
-0.31255814 0.31406200 0.22295113
-0.07495930 -0.40825912 0.05346963
-0.17926209 0.27781940 0.12786420
-0.15154400 0.05905594 0.10808815
-0.35384181 -0.06709587 0.25240114
-0.13536415 -0.24627399 0.09655735
-0.43137357 -0.19781218 0.30770588
-0.35647255 -0.70742524 0.25427741
-0.26886570 0.09919069 0.19177856
-0.19457637 -0.34655234 0.13879435
-0.17957690 0.07818395 0.12808523
-0.40904105 -0.24641582 0.29177558
-0.58729130 -0.46615905 0.41892472
-0.45397770 -0.74943066 0.32382935
-0.56651735 -0.02491644 0.40410694
-0.54622024 0.02394781 0.38962650
-0.57044524 -0.53878796 0.40690798
-0.39210159 0.06012404 0.27968746
-0.22471873 -0.08984690 0.16029537
-0.19706491 -0.62988734 0.14056946
-0.07973142 -0.01770829 0.05687366
-0.05532834 -0.31714070 0.03946656
-0.19992146 -0.61951590 0.14260709
-0.27152944 -0.66278529 0.19368619
-0.10615212 -0.33256215 0.07571996
-0.30729607 -0.55311489 0.21919906
-0.00928437 0.57848138 0.00661896
-0.23510718 -0.71420163 0.16770561
-0.09831347 -0.21776885 0.07012853
-0.20366064 -0.34440890 0.14527430
-0.38425872 -0.76943547 0.27409774
-0.12497803 -0.47347087 0.08914877
-0.09635858 -0.04496884 0.06873407
-0.35717326 -0.64592975 0.25477725
-0.13892101 -0.05708734 0.09909452
-0.51341665 -0.56097001 0.36622831
-0.57602984 -0.71649909 0.41089121
-0.31555817 0.37561128 0.22509255
-0.30862716 -0.75030744 0.22014856
-0.35380372 0.13815458 0.25236955
-0.22378533 -0.77202630 0.15962955
-0.61990917 -0.41395569 0.44219166
-0.61477482 -0.20466037 0.43852964
-0.32577223 -0.17187057 0.23237839
-0.39904207 -0.57766390 0.28464293
-0.62004465 -0.71326965 0.44228765
-0.64407063 -0.47894624 0.45942628
-0.24605817 -0.32677436 0.17551713
-0.42643416 -0.38744897 0.30418223
-0.18914771 0.23951948 0.13491520
-0.24568614 -0.16530105 0.17525175
-0.10160734 -0.56114382 0.07247810
-0.44321460 -0.79959667 0.31615186
-0.06578894 0.60579598 0.04692593
-0.43288893 -0.00318976 0.30878714
-0.05019029 0.56807607 0.03579825
-0.13712427 -0.63424039 0.09781287
-0.60338336 -0.32595980 0.43040374
-0.19440974 0.24079911 0.13866888
-0.21378683 0.06438042 0.15248799
-0.06393441 -0.00039527 0.04560541
-0.41078407 0.07651663 0.29301488
-0.14144208 -0.44908759 0.10089284
-0.40053383 0.02882435 0.28570187
-0.24420530 -0.49647582 0.17419542
-0.35846341 0.01157690 0.25569072
-0.58396381 -0.41345501 0.41655123
-0.63533759 -0.75699586 0.45319626
-0.14294758 -0.54984564 0.10196673
-0.36842167 0.21578562 0.26279894
-0.49124971 -0.62153012 0.35041612
-0.14447252 -0.13948287 0.10305450
-0.44253516 -0.20235965 0.31566766
-0.06055934 0.44736162 0.04319271
-0.13703264 -0.53715533 0.09774752
-0.47786453 -0.63042408 0.34086820
-0.63093698 -0.79032117 0.45005721
-0.16732256 -0.41649312 0.11935379
-0.42322803 0.18233521 0.30189407
-0.36867830 0.11000713 0.26297966
-0.07717252 -0.12012560 0.05504836
-0.04303958 -0.03746253 0.03070080
-0.34618813 -0.78052723 0.24694137
-0.20271935 0.32323340 0.14459834
-0.22983180 0.21180424 0.16393641
-0.39590052 -0.59347838 0.28240201
-0.49513397 0.03047339 0.35318446
-0.42287832 -0.45213503 0.30164570
-0.30217555 0.07246778 0.21553940
-0.27989277 0.11986650 0.19964512
-0.19696419 -0.43296596 0.14049762
-0.53840029 -0.32945099 0.38405001
-0.20661351 -0.25153896 0.14738064
-0.41363165 -0.67298603 0.29504988
-0.24886426 -0.09792368 0.17751876
-0.56880271 -0.44044736 0.40573651
-0.13239335 0.57345414 0.09443715
-0.23483405 -0.02894820 0.16751076
-0.09265904 -0.68595839 0.06609514
-0.10808563 0.18404168 0.07709010
-0.59234309 -0.39824182 0.42252836
-0.12393358 0.55774647 0.08840208
-0.61747473 -0.61369777 0.44045472
-0.01876191 -0.09250916 0.01338316
-0.52324909 0.12832730 0.37324241
-0.63112432 -0.67238432 0.45019105
-0.14613716 0.02895952 0.10423075
-0.63104606 -0.15575895 0.45013636
-0.45169199 -0.65908110 0.32219890
-0.29935002 0.23151544 0.21352735
-0.21939392 0.31380734 0.15649286
-0.05123104 0.20594268 0.03653432
-0.56969595 -0.53460550 0.40637353
-0.00640971 0.51669532 0.00456729
-0.15489163 -0.49870500 0.11048661
-0.54960304 -0.22554716 0.39204130
-0.18553621 -0.11971173 0.13234586
-0.53178477 -0.24373072 0.37933117
-0.42464143 -0.70703584 0.30290332
-0.54454976 -0.51996195 0.38843626
-0.25908968 -0.18366262 0.18481269
-0.50308937 -0.34194192 0.35886201
-0.45740098 -0.71738517 0.32627124
-0.02761393 0.72246456 0.01969655
-0.14428827 0.32005224 0.10291697
-0.11713294 0.26785907 0.08354530
-0.10766038 0.39692876 0.07679049
-0.13459931 0.47762331 0.09600864
-0.38647953 -0.03095681 0.27568233
-0.10426892 -0.51354277 0.07437664
-0.31076133 -0.31997770 0.22167090
-0.05927930 -0.66804850 0.04228485
-0.48205513 -0.12713124 0.34385818
-0.00610584 0.49518228 0.00435015
-0.54236281 -0.45814598 0.38687637
-0.26977208 0.36148319 0.19243094
-0.04308666 0.58552271 0.03073132
-0.64146537 -0.13167192 0.45756865
-0.64776558 -0.52821076 0.46206182
-0.46115392 -0.21005625 0.32894880
-0.51698744 0.08839736 0.36877483
-0.02547171 0.39712539 0.01816272
-0.02180281 0.06817901 0.01553983
-0.42285794 0.09678301 0.30162817
-0.26873669 -0.38124216 0.19169407
-0.14332922 -0.39559793 0.10223896
-0.29543358 -0.70976394 0.21073736
-0.30873388 -0.75252008 0.22022466
-0.13306244 -0.16483809 0.09491550
-0.12028511 -0.46091288 0.08580124
-0.57275474 -0.36316010 0.40855569
-0.01500008 0.56550783 0.01069592
-0.53168833 -0.21382713 0.37926242
-0.38848677 0.23926166 0.27711281
-0.07116728 0.11040401 0.05075380
-0.10262884 0.10478313 0.07319622
-0.46152148 0.16040684 0.32921004
-0.15773109 0.18834275 0.11250384
-0.12147279 -0.24498381 0.08664843
-0.35883993 0.32190922 0.25596622
-0.12262286 -0.22747327 0.08746880
-0.41018865 -0.13968734 0.29259434
-0.38539043 -0.26175341 0.27490509
-0.22876965 0.10327280 0.16317640
-0.46400237 -0.70456415 0.33098009
-0.42117271 -0.52653956 0.30042902
-0.09237883 -0.69261992 0.06589525
-0.03617447 -0.27886161 0.02580381
-0.62257564 -0.06321832 0.44409436
-0.13685712 -0.19608928 0.09762231
-0.40389410 0.22661866 0.28810328
-0.25194439 0.20853052 0.17971024
-0.23987596 0.10028874 0.17109887
-0.19698086 0.31606695 0.14050466
-0.03045727 -0.25803453 0.02172564
-0.03119247 -0.21369532 0.02225007
-0.54299170 -0.16653956 0.38732538
-0.51197904 0.13476065 0.36520314
-0.33651966 -0.59405458 0.24004470
-0.48180559 -0.30323961 0.34367993
-0.49665540 -0.27812526 0.35427263
-0.48759672 -0.78992027 0.34781030
-0.19053996 -0.07601601 0.13591512
-0.62007523 -0.63471586 0.44230965
-0.11929582 -0.25896555 0.08509556
-0.31672528 0.23670813 0.22592200
-0.43230870 -0.28972429 0.30837280
-0.07158080 0.24629457 0.05105115
-0.41182864 -0.15608218 0.29376417
-0.24534814 0.01821615 0.17500088
-0.40176111 -0.56157666 0.28658244
-0.23173942 0.25968441 0.16529825
-0.40132424 -0.51457036 0.28627083
-0.20770009 -0.06259005 0.14815570
-0.47833732 -0.51726800 0.34120560
-0.10087030 -0.21266344 0.07195235
-0.27183551 0.21737377 0.19389968
-0.15229265 0.35062483 0.10862730
-0.27710471 0.28560197 0.19765995
-0.15435763 -0.22799850 0.11010570
-0.22628120 -0.77842927 0.16140988
-0.03231295 -0.11463797 0.02304933
-0.17018461 0.43406084 0.12139229
-0.31629688 -0.53447223 0.22561949
-0.28886020 -0.57628489 0.20604847
-0.06911607 -0.55162227 0.04930157
-0.53416598 0.13958132 0.38103020
-0.46176893 -0.26727444 0.32938740
-0.48061076 -0.18719172 0.34282780
-0.12337018 -0.06730962 0.08800187
-0.13764788 0.21129501 0.09817826
-0.19234820 -0.32491896 0.13720496
-0.40482318 -0.14340940 0.28876704
-0.20021416 -0.11892350 0.14281587
-0.05799193 -0.14776812 0.04136654
-0.32428667 -0.65687650 0.23131873
-0.24354450 -0.02647725 0.17372409
-0.56114048 -0.71121293 0.40027040
-0.16241352 -0.60433322 0.11585209
-0.20127197 0.26052946 0.14356445
-0.37804526 -0.76410156 0.26966557
-0.54355121 0.01705624 0.38772240
-0.42550671 -0.00963223 0.30352122
-0.18319197 -0.49609685 0.13067368
-0.01966208 -0.46765020 0.01402527
-0.13858034 -0.22190225 0.09885151
-0.50912726 -0.76122737 0.36316839
-0.46459955 -0.30530024 0.33140650
-0.64474857 -0.49639818 0.45990983
-0.23351939 -0.40061396 0.16657300
-0.02120560 -0.54351801 0.01512629
-0.17820366 -0.20881522 0.12711543
-0.33074090 0.19754271 0.23591913
-0.38667613 0.30978152 0.27582279
-0.52672583 -0.66120857 0.37572187
-0.18461592 0.04253916 0.13167909
-0.58434039 -0.35603657 0.41681993
-0.00827841 -0.53687352 0.00590512
-0.13502838 0.20062764 0.09630950
-0.01325248 0.67063928 0.00945115
-0.41357332 -0.32350686 0.29500842
-0.02464869 0.65781200 0.01758020
-0.47184092 -0.31372434 0.33657190
-0.24808948 -0.29989249 0.17696609
-0.41253018 -0.45452413 0.29426417
-0.16740902 -0.37458950 0.11941546
-0.09196536 0.24284610 0.06559204
-0.03717618 0.51803887 0.02651401
-0.55102611 -0.55338454 0.39305589
-0.49141988 0.07161688 0.35053596
-0.58170968 -0.19228704 0.41494367
-0.10521779 -0.65821850 0.07505349
-0.15715960 0.20988069 0.11209655
-0.35860416 -0.09506649 0.25579819
-0.11613712 -0.67913193 0.08284242
-0.06235314 -0.77113432 0.04447746
-0.13129121 0.16540372 0.09364305
-0.08406047 -0.72620648 0.05996164
-0.06932244 0.33605203 0.04944176
-0.37816066 -0.26355290 0.26974797
-0.03999450 0.72866094 0.02852831
-0.02860884 0.47929054 0.02040198
-0.11095766 -0.74767441 0.07914782
-0.58803219 -0.12381494 0.41945371
-0.63775933 -0.30029917 0.45492473
-0.37425402 0.08275371 0.26695645
-0.01351090 -0.38156143 0.00963753
-0.03434153 0.66848707 0.02449459
-0.18635814 -0.32897031 0.13293216
-0.49564672 0.03075770 0.35355023
-0.15349691 0.54389721 0.10949063
-0.40803459 -0.29712638 0.29105759
-0.06128998 -0.59612447 0.04371909
-0.01881619 -0.61278272 0.01342188
-0.09000129 -0.05208258 0.06419932
-0.18772644 -0.10327932 0.13390820
-0.20332117 -0.05798298 0.14503217
-0.54874223 -0.28837648 0.39142719
-0.03368003 -0.44801176 0.02402449
-0.26811674 -0.02130091 0.19125184
-0.41928935 -0.22513458 0.29908594
-0.10709015 0.30575848 0.07638213
-0.27251482 -0.19031186 0.19438906
-0.02789145 -0.57563490 0.01989541
-0.39291754 -0.47823396 0.28027418
-0.43622813 -0.67146987 0.31116831
-0.10492632 0.41764116 0.07484056
-0.37151366 -0.31695384 0.26500645
-0.43197373 -0.59552056 0.30813357
-0.17255665 0.37781972 0.12308312
-0.30249807 -0.74604136 0.21577659
-0.10645562 0.14743075 0.07592673
-0.05293330 0.07713916 0.03774634
-0.01618953 0.05187432 0.01153541
-0.14728665 0.24260896 0.10505445
-0.48060960 0.13386671 0.34282586
-0.01416852 0.07607938 0.01009419
-0.29230785 0.10368803 0.20850100
-0.51584536 0.12632573 0.36796096
-0.42861426 0.02332882 0.30573279
-0.44751385 -0.10229406 0.31921923
-0.07619843 -0.56447482 0.05435352
-0.57490748 -0.18241818 0.41009152
-0.38044667 -0.23784646 0.27137867
-0.03822590 -0.76526284 0.02726713
-0.27645829 -0.41590181 0.19720200
-0.07161635 0.05423158 0.05107315
-0.17964399 -0.48375314 0.12814285
-0.24660210 -0.60141641 0.17590512
-0.15310103 0.13539349 0.10920015
-0.23657046 -0.64248288 0.16874939
-0.10696554 -0.39577085 0.07630018
-0.32923785 0.03500002 0.23484331
-0.63091403 -0.46089822 0.45004150
-0.11153612 0.52664101 0.07955771
-0.20694657 -0.04990321 0.14761820
-0.32522073 -0.58655560 0.23198500
-0.15922099 -0.55985582 0.11357480
-0.47565866 0.05154107 0.33929232
-0.61700267 -0.78933322 0.44011763
-0.53326577 -0.15082794 0.38038772
-0.50975877 0.05922214 0.36361766
-0.05088350 -0.17646952 0.03629599
-0.11372224 -0.38678595 0.08111985
-0.46982595 -0.00665223 0.33513504
-0.25561175 0.04891619 0.18232280
-0.32346627 -0.52133709 0.23073351
-0.12075659 -0.23239838 0.08613756
-0.41468754 -0.60107982 0.29580307
-0.51165551 -0.53655404 0.36497211
-0.20080946 -0.53113031 0.14324051
-0.40567082 -0.53752667 0.28937131
-0.38748416 -0.16937709 0.27639875
-0.09801970 -0.50213802 0.06991898
-0.04649784 0.49781415 0.03316308
-0.20200726 0.16324149 0.14408700
-0.55261552 -0.57294196 0.39418963
-0.06653803 -0.73676503 0.04746261
-0.45821342 0.00933574 0.32684690
-0.10638974 -0.57221949 0.07588946
-0.21566056 -0.30470404 0.15383403
-0.60479206 -0.22938462 0.43140876
-0.20391251 0.20522329 0.14544685
-0.59114289 -0.15528025 0.42167261
-0.63656992 -0.60808212 0.45407566
-0.03626284 0.31891784 0.02585901
-0.39375013 -0.49952933 0.28086808
-0.14520562 -0.60924953 0.10357743
-0.60239947 -0.16263406 0.42970213
-0.13373171 0.05243859 0.09538196
-0.17373133 0.32040796 0.12391980
-0.45084554 -0.44308552 0.32159528
-0.55684328 -0.07650242 0.39720616
-0.26164952 -0.54489887 0.18663865
-0.40725186 -0.20407361 0.29049939
-0.52440059 -0.26935336 0.37406382
-0.37596366 -0.08604366 0.26818106
-0.18166056 -0.35855383 0.12958132
-0.17657606 0.38383868 0.12595049
-0.17106614 -0.53078651 0.12202413
-0.22952345 -0.58457524 0.16372265
-0.52505010 -0.41406542 0.37452695
-0.21908934 -0.59200913 0.15627983
-0.32084635 0.00056422 0.22885653
-0.45252219 -0.20453335 0.32279161
-0.29240429 -0.03576941 0.20857657
-0.18358012 -0.49361008 0.13095054
-0.15356709 0.47108889 0.10953907
-0.44447482 -0.12506464 0.31705141
-0.13725770 -0.16278018 0.09790805
-0.26349059 -0.10366514 0.18795195
-0.53388286 -0.23715416 0.38082775
-0.25910294 -0.73708880 0.18482216
-0.32892805 0.23272605 0.23462673
-0.58668929 -0.52085692 0.41849518
-0.39513496 -0.18106361 0.28185621
-0.29632059 -0.55213690 0.21137010
-0.36369884 -0.31403878 0.25943205
-0.56306607 -0.56720138 0.40164423
-0.38097611 0.12414679 0.27175257
-0.31984603 -0.05001947 0.22815131
-0.02138354 -0.35417968 0.01525321
-0.02021796 0.63183421 0.01441917
-0.56273764 -0.32202399 0.40141031
-0.10231210 -0.62157547 0.07298082
-0.01336740 0.18949528 0.00952471
-0.29404333 -0.54543674 0.20974569
-0.60433787 -0.41353023 0.43108445
-0.55533189 -0.55885285 0.39612731
-0.13808049 -0.11720784 0.09849497
-0.27882972 0.35753500 0.19889209
-0.09759401 -0.43660286 0.06961532
-0.27735552 0.11130591 0.19783500
-0.60414082 -0.51703393 0.43094364
-0.60448110 -0.32187125 0.43118677
-0.40022182 0.26883194 0.28548461
-0.04910328 -0.66341758 0.03502613
-0.23608422 0.11498899 0.16839439
-0.27769142 0.06132261 0.19807351
-0.38235864 -0.36597994 0.27274236
-0.00138769 0.14199714 0.00097837
-0.01677029 0.24105799 0.01195300
-0.29100573 0.29057103 0.20757629
-0.30635947 -0.37947372 0.21853098
-0.36975256 -0.58733571 0.26375026
-0.49410576 0.11599920 0.35245290
-0.51852298 -0.45989338 0.36987093
-0.22983585 0.45826530 0.16394477
-0.57433820 -0.61746854 0.40968475
-0.34206450 0.21485876 0.24399716
-0.39213166 -0.61878377 0.27971360
-0.21140090 0.28745931 0.15079048
-0.46318033 -0.74622256 0.33039373
-0.18425062 0.47654974 0.13142715
-0.33604419 -0.31041294 0.23970553
-0.21044181 -0.42503828 0.15011142
-0.09895088 0.03929023 0.07057147
-0.28151968 0.38604590 0.20081159
-0.00088101 0.22690015 0.00061843
-0.25482634 -0.39309469 0.18177161
-0.10024531 0.34348747 0.07150015
-0.01485373 0.52664852 0.01059085
-0.44975904 -0.14153935 0.32082072
-0.40046093 -0.41698259 0.28565499
-0.11631273 0.03742536 0.08295619
-0.01392052 -0.55925202 0.00992972
-0.35689333 -0.48712018 0.25457755
-0.24348742 -0.19859777 0.17368336
-0.31992704 -0.36830881 0.22820894
-0.53180635 -0.56926537 0.37934604
-0.64171398 -0.57925427 0.45774505
-0.18602538 -0.51211685 0.13269480
-0.59114623 -0.75492841 0.42167389
-0.54221374 -0.58935797 0.38676983
-0.51274544 -0.55213910 0.36574954
-0.34730750 -0.53904629 0.24773985
-0.37070498 -0.71803135 0.26442963
-0.43584940 -0.77906257 0.31089815
-0.05720176 -0.23357300 0.04080290
-0.17644364 0.29779947 0.12585410
-0.21748395 -0.35956252 0.15513468
-0.34781283 -0.77022493 0.24810031
-0.21190251 0.11934921 0.15114483
-0.09133795 -0.61490542 0.06515278
-0.36038652 0.21983054 0.25706720
-0.31342649 -0.67519456 0.22357199
-0.50639373 -0.15047851 0.36121935
-0.02759602 -0.63825494 0.01968467
-0.02340998 -0.51400948 0.01669870
-0.02735892 -0.08507054 0.01951554
-0.61802250 -0.51799768 0.44084567
-0.08522271 -0.77196729 0.06079069
-0.47162154 -0.75928515 0.33641499
-0.23865169 -0.08266654 0.17023396
-0.13022615 0.11227575 0.09288238
-0.57963103 -0.15401660 0.41346097
-0.26010799 -0.39052925 0.18553908
-0.05942486 -0.15222797 0.04238867
-0.13814534 0.03710558 0.09853007
-0.00788927 -0.35163802 0.00562754
-0.17569639 -0.78201628 0.12532696
-0.06702039 -0.24008471 0.04780668
-0.20658512 -0.40094337 0.14736038
-0.61219734 -0.25832129 0.43669102
-0.50815177 -0.36661145 0.36247307
-0.62081605 -0.34882838 0.44283870
-0.10050946 -0.42077613 0.07169496
-0.59373593 -0.29579902 0.42352206
-0.34887585 0.00952950 0.24885145
-0.20106722 -0.36242828 0.14342438
-0.35931236 -0.75898999 0.25630310
-0.38765240 -0.09657898 0.27651888
-0.25635865 0.45936862 0.18286473
-0.03606875 -0.75043005 0.02572840
-0.63600451 -0.67243326 0.45367220
-0.48637778 -0.68920159 0.34694085
-0.48910663 0.15592243 0.34888768
-0.40500960 -0.10063095 0.28890011
-0.62565863 -0.49872595 0.44629267
-0.34659514 -0.34773886 0.24723171
-0.20475841 0.42811245 0.14605521
-0.58751088 -0.50845826 0.41908127
-0.20640118 0.17985371 0.14722160
-0.21224178 -0.39650491 0.15139537
-0.59633470 -0.60316449 0.42537522
-0.29220706 -0.73328692 0.20843583
-0.27998894 0.36494845 0.19971916
-0.10554522 -0.51701504 0.07528705
-0.52521229 -0.28607622 0.37464279
-0.06752826 -0.50251865 0.04816896
-0.21875153 0.48886058 0.15603851
-0.01284137 -0.79542077 0.00915995
-0.47565413 -0.56553167 0.33929157
-0.20632677 -0.26627746 0.14717609
-0.23328967 -0.18646739 0.16640915
-0.44882619 -0.21973769 0.32015517
-0.59699464 -0.38786918 0.42584643
-0.03319141 0.03318883 0.02366306
-0.45108503 -0.22131985 0.32176644
-0.50462127 -0.43973407 0.35995457
-0.14101680 -0.72486687 0.10058947
-0.29660016 -0.45529154 0.21156950
-0.30010474 -0.57048738 0.21406937
-0.49714920 -0.46017680 0.35462457
-0.50207984 0.03851178 0.35813946
-0.22435799 0.14745957 0.16003026
-0.04254233 -0.15711370 0.03034610
-0.10934473 0.39971858 0.07799203
-0.63721532 -0.19453789 0.45453691
-0.15420911 -0.22253612 0.10999976
-0.40932670 -0.69298983 0.29197910
-0.52149010 -0.52332574 0.37198731
-0.03783327 0.48584765 0.02698217
-0.53380263 -0.21776864 0.38077059
-0.05196515 -0.52151871 0.03706755
-0.07195047 0.47398114 0.05131883
-0.52323461 -0.77038479 0.37323135
-0.03185052 0.10582790 0.02270784
-0.37021866 -0.75844866 0.26408273
-0.63011920 -0.05171108 0.44947535
-0.07138307 0.20444372 0.05090937
-0.30041564 -0.26973107 0.21429116
-0.04076629 0.59903020 0.02907636
-0.30482712 0.11378651 0.21743180
-0.10038874 -0.13918994 0.07160885
-0.45058689 -0.35080543 0.32141092
-0.21808428 -0.17667370 0.15556289
-0.50526440 -0.41049698 0.36041340
-0.07588120 0.05082449 0.05411534
-0.29018626 0.11470040 0.20698783
-0.57118362 -0.19483703 0.40743521
-0.39544019 0.13154332 0.28207061
-0.63209110 -0.02630611 0.45088199
-0.37633145 -0.09350070 0.26844341
-0.57449597 -0.49786216 0.40979752
-0.14937089 0.31330469 0.10654245
-0.22315687 0.31208825 0.15917709
-0.24160025 -0.40464747 0.17233720
-0.01172486 0.51202708 0.00835868
-0.16759123 -0.27584156 0.11954543
-0.26074898 -0.78137535 0.18599629
-0.30408213 0.14418118 0.21690103
-0.09926608 0.34590933 0.07080167
-0.52809685 -0.37058362 0.37670031
-0.57986641 -0.46031809 0.41362843
-0.29028761 -0.00768351 0.20706674
-0.04148035 -0.08537100 0.02958858
-0.27064499 0.21854712 0.19305044
-0.23939671 -0.30280587 0.17076540
-0.06267113 -0.04549853 0.04470429
-0.08285076 0.30702561 0.05909143
-0.27113926 0.05199705 0.19339933
-0.08712345 -0.20498402 0.06214651
-0.19395402 -0.07545972 0.13835043
-0.06075411 0.55474067 0.04333353
-0.60290998 -0.64691359 0.43006542
-0.16984287 -0.59718239 0.12115156
-0.32846785 -0.72757334 0.23430122
-0.08248802 0.53876787 0.05883673
-0.39289671 -0.36726147 0.28025934
-0.43189958 -0.51227176 0.30808070
-0.15188125 -0.17612188 0.10833926
-0.35522282 -0.55702609 0.25338596
-0.12283047 -0.36141804 0.08761689
-0.32974213 0.30447736 0.23520905
-0.00411203 -0.23204517 0.00293317
-0.60073137 -0.71629345 0.42851120
-0.52746058 -0.65032727 0.37624598
-0.43963483 0.21095449 0.31359842
-0.37168738 -0.58998656 0.26513037
-0.35913706 -0.06278009 0.25617835
-0.39548630 -0.54328239 0.28210652
-0.28925180 -0.68880689 0.20632780
-0.00962461 0.53578734 0.00686091
-0.38008523 -0.10112766 0.27112105
-0.32445958 -0.40564674 0.23144206
-0.38206357 -0.51055455 0.27253187
-0.29194388 -0.66140252 0.20824809
-0.03468777 -0.68430209 0.02474333
-0.00619076 0.71889567 0.00441465
-0.13974503 0.53466403 0.09968058
-0.10308050 0.28123146 0.07352149
-0.64348733 -0.57792658 0.45901003
-0.01809701 -0.19569939 0.01290888
-0.47611436 -0.55073136 0.33961987
-0.16992889 -0.15908127 0.12121292
-0.00793998 -0.37091699 0.00566371
-0.18991299 -0.01463282 0.13546789
-0.30355656 -0.79066217 0.21653162
-0.18212187 0.12717050 0.12990148
-0.54342937 -0.64901716 0.38763687
-0.12252979 -0.65447021 0.08740240
-0.61973405 -0.46872148 0.44206661
-0.00016724 0.15647373 0.00010804
-0.29054272 0.34380487 0.20724720
-0.42437333 -0.30649239 0.30271232
-0.30295363 0.37144428 0.21610107
-0.10117142 0.61954743 0.07216617
-0.03142876 -0.47720447 0.02241863
-0.43362001 -0.40467867 0.30930802
-0.36926064 -0.69165951 0.26339936
-0.09898876 -0.13915733 0.07061022
-0.30808696 -0.06431636 0.21976329
-0.45994076 -0.42638102 0.32808310
-0.01659661 -0.58594590 0.01183862
-0.01891143 -0.48327228 0.01348982
-0.38061064 -0.45454073 0.27149549
-0.25249374 -0.39673349 0.18010771
-0.43332577 0.04735250 0.30909425
-0.24616703 0.07641802 0.17558604
-0.45590374 -0.54847378 0.32520324
-0.49113250 -0.68154210 0.35033244
-0.04987706 -0.32600945 0.03557808
-0.02955913 -0.79389215 0.02108499
-0.47698978 -0.52589566 0.34024435
-0.12640253 -0.75516582 0.09016488
-0.29213539 0.25268129 0.20838130
-0.21579058 -0.03496637 0.15392677
-0.33470762 -0.62175083 0.23875216
-0.64596534 -0.20226903 0.46077839
-0.35470939 -0.47080693 0.25301972
-0.14970769 0.49771020 0.10678658
-0.45653713 0.12964649 0.32565379
-0.03406136 -0.00127455 0.02429650
-0.64568055 -0.58077222 0.46057445
-0.33400813 -0.49713114 0.23825321
-0.44861579 0.01335776 0.32000056
-0.10076697 0.41790000 0.07187356
-0.14065146 -0.40380219 0.10032888
-0.63144314 -0.50078815 0.45041886
-0.02961845 0.15037139 0.02111640
-0.10469046 0.36351219 0.07467136
-0.40163422 -0.09768681 0.28649238
-0.13459614 0.14567447 0.09600021
-0.55810255 -0.68818027 0.39810345
-0.50605184 -0.78290105 0.36097461
-0.07979136 0.22931471 0.05690770
-0.39111063 -0.29384726 0.27898538
-0.16924413 -0.50972944 0.12072446
-0.11095157 -0.10044925 0.07914348
-0.47403803 -0.05700934 0.33813953
-0.40872115 0.13755615 0.29154465
-0.32146040 -0.36403528 0.22930270
-0.05384964 0.45850268 0.03840667
-0.62395740 -0.29021928 0.44507962
-0.50999510 -0.39409578 0.36378789
-0.24619123 0.45307738 0.17561169
-0.15248971 0.13732991 0.10876411
-0.63642180 -0.65476751 0.45396990
-0.29230604 -0.40039656 0.20850645
-0.33652213 0.06033947 0.24004009
-0.09389359 0.53391951 0.06697266
-0.64415860 -0.21866001 0.45948958
-0.13428608 -0.70510358 0.09578834
-0.04618226 0.53512377 0.03293862
-0.47069201 -0.54716122 0.33575201
-0.28728321 -0.16423661 0.20492359
-0.57836014 -0.53175396 0.41255385
-0.02085182 -0.76898837 0.01487393
-0.33763185 0.13905318 0.24083348
-0.37988904 -0.25765568 0.27098086
-0.33664170 -0.48288485 0.24013177
-0.20411997 0.22819602 0.14559534
-0.57651955 -0.78566456 0.41124037
-0.18537302 -0.23412350 0.13222945
-0.34588790 -0.58533096 0.24672721
-0.13338731 -0.18434837 0.09514724
-0.49138543 -0.50011528 0.35051310
-0.14958000 -0.18914181 0.10669774
-0.02281619 0.23521163 0.01626563
-0.08920946 0.55699527 0.06363176
-0.18582699 0.42085007 0.13255040
-0.61004096 -0.56782109 0.43515223
-0.49154881 -0.24930029 0.35063002
-0.47785884 -0.05711882 0.34086499
-0.14227799 -0.58206612 0.10148910
-0.01921409 -0.30618173 0.01370571
-0.16862717 0.55254126 0.12028394
-0.14574413 -0.15677264 0.10396155
-0.11570074 0.32341072 0.08252464
-0.32216138 0.37474695 0.22980291
-0.43545565 -0.02669048 0.31061798
-0.48664394 -0.33798966 0.34713113
-0.37542641 0.05567704 0.26779217
-0.12785523 0.00108832 0.09118918
-0.12886943 -0.22293594 0.09192457
-0.50245196 -0.26592124 0.35840741
-0.42246941 0.22865178 0.30135393
-0.18937089 0.02462000 0.13507065
-0.28627381 -0.14756010 0.20420356
-0.00992739 -0.36383709 0.00708137
-0.47900969 0.21073367 0.34168631
-0.43999687 -0.06748769 0.31385726
-0.10028143 0.10819580 0.07152180
-0.15766989 0.25725052 0.11246140
-0.52558708 -0.45364603 0.37490988
-0.27106133 0.29139274 0.19334906
-0.47589764 -0.62180275 0.33946520
-0.25172883 -0.36922890 0.17956209
-0.07380313 0.52818483 0.05264134
-0.62251592 -0.48888013 0.44405094
-0.31003663 0.31893334 0.22115253
-0.04665150 0.70175624 0.03327646
-0.61260265 -0.18713591 0.43698022
-0.53511620 -0.42636326 0.38170725
-0.34642580 -0.42273575 0.24711090
-0.52042109 0.01773654 0.37122262
-0.52468359 0.12938970 0.37426579
-0.38415134 -0.05625634 0.27402154
-0.16512010 0.48438272 0.11778066
-0.33953232 -0.26480079 0.24219368
-0.07064298 0.48244298 0.05038630
-0.59829450 -0.04623824 0.42677417
-0.28101406 -0.06017509 0.20045169
-0.11410345 0.42153952 0.08138696
-0.01900528 0.30247235 0.01354836
-0.04809417 -0.17869151 0.03430632
-0.53050631 -0.54921430 0.37841874
-0.22013251 0.33718595 0.15702024
-0.14228022 -0.05076120 0.10149070
-0.27028280 -0.33567491 0.19279693
-0.32753685 0.23240773 0.23363431
-0.12026713 0.39128131 0.08578318
-0.49227214 -0.67348838 0.35114539
-0.16263182 0.58401942 0.11600788
-0.15993015 0.35627103 0.11407559
-0.33172908 -0.40686825 0.23662750
-0.03326615 -0.06937662 0.02372926
-0.60035264 -0.28986448 0.42824191
-0.30385724 -0.16657615 0.21674611
-0.21796978 0.30023053 0.15547664
-0.24872653 0.24683286 0.17741565
-0.19311549 -0.41638389 0.13775228
-0.28901911 0.00413177 0.20615278
-0.49959460 0.05811570 0.35636705
-0.00951087 -0.22467722 0.00678425
-0.61741608 -0.76364517 0.44041258
-0.14214960 0.22058564 0.10138964
-0.14117728 -0.10596415 0.10070395
-0.38437802 -0.70665878 0.27418283
-0.54772198 0.02027646 0.39069766
-0.56360990 -0.56311560 0.40203217
-0.31987914 -0.15095766 0.22817475
-0.17600267 0.28381386 0.12553923
-0.00068656 -0.77654660 0.00048974
-0.42745024 0.22736569 0.30490696
-0.01690813 0.18592708 0.01205036
-0.37979516 0.25941947 0.27091312
-0.43345425 -0.12717588 0.30919021
-0.02488315 -0.20266542 0.01774954
-0.47785708 0.14588982 0.34086266
-0.07492982 -0.45807695 0.05344860
-0.19804648 0.09964386 0.14126052
-0.62740356 -0.75083441 0.44753683
-0.01566757 0.42362270 0.01116959
-0.37078196 -0.11623820 0.26448482
-0.06569056 -0.35655299 0.04685810
-0.52744347 -0.79626960 0.37623361
-0.37784180 0.13818806 0.26951703
-0.34243289 -0.38799813 0.24426271
-0.26741302 -0.17393067 0.19074985
-0.43627292 -0.06093707 0.31120092
-0.51085812 -0.79710054 0.36440304
-0.50888282 0.16163354 0.36299506
-0.54358566 -0.72329313 0.38774821
-0.23863062 -0.01659559 0.17021894
-0.57343483 -0.07605738 0.40904120
-0.30658847 -0.63521695 0.21869431
-0.18191919 -0.12961045 0.12976578
-0.17354669 -0.64631999 0.12379355
-0.20298354 0.19463725 0.14478394
-0.10236397 -0.04641263 0.07301781
-0.60500211 -0.59814584 0.43155786
-0.16969691 -0.27403298 0.12104744
-0.25221804 0.12577567 0.17990361
-0.21173072 -0.56113535 0.15103081
-0.10338333 -0.14327110 0.07374494
-0.32136345 -0.49997604 0.22923356
-0.05074323 0.72960156 0.03619589
-0.51601017 -0.38127625 0.36807859
-0.48444149 0.10216728 0.34555864
-0.20913249 -0.69903201 0.14917746
-0.13367328 0.53405184 0.09534932
-0.31647396 -0.75818080 0.22574580
-0.09403951 -0.35924548 0.06707984
-0.63071519 -0.66283381 0.44989926
-0.54648662 -0.68318897 0.38981763
-0.34692335 0.27804336 0.24746460
-0.19921595 -0.23274948 0.14210384
-0.51568824 -0.44717968 0.36784887
-0.52439594 -0.18053117 0.37406063
-0.54689002 -0.73182940 0.39010528
-0.04918331 0.27136871 0.03507475
-0.40016425 -0.08364101 0.28544384
-0.24979642 0.30636042 0.17818017
-0.15240750 -0.14825282 0.10871463
-0.07499524 0.48996928 0.05349104
-0.01346048 -0.32888755 0.00960157
-0.30145705 -0.11007427 0.21503399
-0.08128377 -0.03409276 0.05798098
-0.21516970 -0.26925984 0.15348390
-0.12073049 -0.36663938 0.08611894
-0.06208025 0.04712799 0.04427062
-0.28164586 -0.22209722 0.20090237
-0.53527647 -0.24769396 0.38182184
-0.01462489 0.59540874 0.01042881
-0.05454379 -0.17825554 0.03890693
-0.01086217 -0.66209328 0.00774815
-0.01584942 -0.45225894 0.01130564
-0.02233154 -0.51524121 0.01592943
-0.26758257 0.42314062 0.19087043
-0.13306987 -0.51507950 0.09492080
-0.04046656 -0.07609307 0.02886542
-0.04807292 -0.49388418 0.03429116
-0.10294973 -0.11599346 0.07343565
-0.35659406 -0.58479655 0.25436410
-0.21770152 0.04761080 0.15528017
-0.51884329 0.16252127 0.37010035
-0.40761417 0.05914177 0.29075325
-0.47205579 -0.33825105 0.33672512
-0.55418068 -0.58344918 0.39530608
-0.14415778 -0.72854137 0.10282998
-0.43128824 -0.17684761 0.30764505
-0.23195706 -0.05397894 0.16545859
-0.33803421 -0.01158788 0.24112535
-0.36473179 0.05481335 0.26016322
-0.18261354 0.46591094 0.13025913
-0.30240777 -0.59471983 0.21571217
-0.42639166 -0.59681547 0.30415180
-0.21968022 0.38051295 0.15669857
-0.14438282 -0.18548957 0.10299051
-0.38609967 -0.06671473 0.27541131
-0.06233069 0.21509904 0.04445221
-0.45770144 -0.10292941 0.32648623
-0.65050203 -0.57081670 0.46401370
-0.32239431 -0.72279316 0.22996888
-0.23483622 -0.21230097 0.16751233
-0.09330183 -0.33119139 0.06655365
-0.04914732 0.22317900 0.03504824
-0.19949710 -0.57876146 0.14230439
-0.20583571 0.20905276 0.14681885
-0.00281271 -0.74472833 0.00200635
-0.16356750 -0.19418605 0.11667524
-0.03178031 0.44644171 0.02266371
-0.56646651 -0.17287128 0.40407047
-0.41216111 -0.07727800 0.29400146
-0.46525103 -0.13459235 0.33187148
-0.27461052 -0.45273483 0.19588396
-0.33225018 0.14272603 0.23699456
-0.29224095 0.34646288 0.20845868
-0.54144692 -0.08107647 0.38622358
-0.64966148 -0.62592906 0.46341401
-0.11531315 -0.46695983 0.08225467
-0.10785479 -0.30353868 0.07693450
-0.27465147 -0.60126239 0.19591317
-0.22104423 0.06965811 0.15766503
-0.34326205 -0.46302742 0.24485415
-0.10167792 0.42117742 0.07252343
-0.39426205 -0.38695583 0.28123325
-0.31236747 -0.49156630 0.22281657
-0.21875601 -0.58845764 0.15604205
-0.40318844 -0.54348904 0.28760058
-0.50743049 -0.52985847 0.36195832
-0.05383203 -0.51212168 0.03839922
-0.50707173 -0.25516298 0.36170286
-0.59476888 -0.78790706 0.42425793
-0.18755808 -0.56664813 0.13378809
-0.27055073 0.38298622 0.19298686
-0.11299222 0.27893028 0.08059179
-0.10143950 0.37969509 0.07235263
-0.21371774 0.15825649 0.15244035
-0.21502361 0.20214020 0.15337282
-0.51154250 -0.10006982 0.36489213
-0.57806969 -0.41302475 0.41234684
-0.33124164 -0.37165582 0.23627982
-0.62262255 -0.12286462 0.44412774
-0.26102179 -0.66544640 0.18619089
-0.30754030 0.14923812 0.21936803
-0.35107124 -0.02995369 0.25042489
-0.06340960 0.13715608 0.04522047
-0.16468786 0.51948011 0.11747311
-0.12624077 -0.39136845 0.09004950
-0.48802403 -0.00207719 0.34811610
-0.35815266 -0.78401911 0.25547588
-0.39713690 -0.49238062 0.28328392
-0.09072610 -0.33453766 0.06471634
-0.13434620 -0.57057589 0.09583123
-0.03775300 0.70087117 0.02692873
-0.19389877 -0.55015469 0.13831100
-0.13671362 -0.79720473 0.09751996
-0.27787706 -0.70750648 0.19821402
-0.03088079 -0.77095461 0.02202775
-0.17666835 -0.00789622 0.12602027
-0.59031558 -0.25329289 0.42108235
-0.14345296 0.14561139 0.10231806
-0.13747445 -0.05673991 0.09806267
-0.46040750 -0.70282513 0.32841584
-0.02630815 -0.33016530 0.01876601
-0.07195880 0.16857241 0.05131943
-0.39686382 0.24079023 0.28308859
-0.33611590 -0.57560080 0.23975670
-0.55402988 -0.17306337 0.39519912
-0.31464174 0.40243301 0.22443943
-0.02005555 -0.28766859 0.01430594
-0.09087103 -0.74846864 0.06481972
-0.20843410 -0.75092453 0.14867929
-0.45575398 -0.47104815 0.32509652
-0.16676855 0.01432058 0.11894750
-0.04938701 0.46961176 0.03522353
-0.00375150 0.26857418 0.00266677
-0.15607280 -0.46477926 0.11132915
-0.55417848 -0.02082697 0.39530534
-0.11672958 0.14271854 0.08325539
-0.51036799 -0.62658620 0.36405355
-0.35117540 0.11166062 0.25049409
-0.23851857 0.33402634 0.17013578
-0.38009590 -0.37438840 0.27112830
-0.47720549 -0.47637138 0.34039831
-0.13245028 0.48467690 0.09447580
-0.39434457 -0.13024953 0.28129247
-0.20144241 0.22464368 0.14368525
-0.02869498 -0.02234267 0.02046858
-0.36423290 -0.41349036 0.25981301
-0.16291545 -0.12989739 0.11621012
-0.15179908 0.14087868 0.10827153
-0.15967108 0.18157740 0.11388759
-0.14312142 0.58433038 0.10209022
-0.23561285 0.07883525 0.16805746
-0.10606287 0.11191336 0.07564594
-0.64902508 -0.37305385 0.46296060
-0.18741924 0.14571072 0.13368058
-0.14838368 0.13130903 0.10583504
-0.29620618 -0.08519352 0.21128848
-0.28733259 -0.05840476 0.20495880
-0.62055284 -0.42410600 0.44265077
-0.58799553 -0.14649543 0.41942754
-0.06609175 -0.49053016 0.04714427
-0.31807360 -0.19716701 0.22688685
-0.40349567 0.23558760 0.28781927
-0.62365139 -0.72589445 0.44486040
-0.01645377 0.16338891 0.01172586
-0.18831667 0.22415113 0.13432214
-0.48466417 -0.00717875 0.34571946
-0.21987565 -0.46062198 0.15684073
-0.21806610 0.17505065 0.15554258
-0.64246154 -0.73190147 0.45827794
-0.59391552 -0.10421027 0.42365047
-0.09651491 0.60036469 0.06884404
-0.41421014 -0.66596013 0.29546252
-0.16509244 0.55099213 0.11776241
-0.02095117 -0.44429845 0.01494479
-0.15866983 -0.40564311 0.11318166
-0.29911542 -0.73420084 0.21336368
-0.17154232 -0.32202056 0.12236380
-0.15561619 -0.55587697 0.11100345
-0.47534356 -0.16499864 0.33907062
-0.50576282 -0.74077040 0.36076850
-0.01943126 -0.16933338 0.01386062
