ply
format ascii 1.0
element vertex 231
property float x
property float y
property float z
end_header
-0.26121035 0.19010650 -0.18154426
-0.24519387 0.20805073 0.06147888
-0.43247509 -0.21375354 -0.26571608
-0.33947557 0.00490814 -0.21438380
-0.41232154 -0.15157087 -0.38430738
-0.35798571 -0.04151599 -0.19914883
-0.21807337 0.27740690 -0.03392232
-0.48613659 -0.37365282 0.20198894
-0.18997689 0.35922295 -0.15654075
-0.39015475 -0.14193016 0.18487670
-0.28518569 0.12285465 -0.09938545
-0.41223967 -0.17922767 -0.14013752
-0.18026592 0.36479974 0.05334666
-0.37580046 -0.10726836 0.02125955
-0.40256789 -0.17189091 0.01935782
-0.23748571 0.22665195 0.15959404
-0.32236356 0.02479473 -0.02656168
-0.06458180 0.64408571 0.02052872
-0.26659054 0.16713133 -0.09399483
-0.63837570 -0.72400600 -0.15024681
-0.26486546 0.16285291 -0.01997730
-0.48240706 -0.36157590 -0.02659593
-0.52035487 -0.42821467 -0.24551164
-0.27259830 0.16593792 -0.21068197
-0.40771416 -0.16249484 -0.19104552
-0.61782634 -0.69157606 0.16920337
-0.16847427 0.39854294 -0.04616233
-0.48531857 -0.37167791 0.20106012
-0.57021862 -0.56710827 -0.08321666
-0.29978439 0.10350879 -0.23875567
-0.30994254 0.05173906 0.01218850
-0.24592504 0.21756944 -0.09880275
-0.61479634 -0.68426114 0.14170958
-0.32533726 0.01457335 0.01144976
-0.62281734 -0.70362508 0.17869286
-0.37564930 -0.10690296 0.01055096
-0.36610192 -0.08386026 0.16423161
-0.30162096 0.10530421 -0.29336509
-0.60788929 -0.66758651 0.18957473
-0.65337682 -0.77740031 0.08105492
-0.64236736 -0.75082183 0.10477806
-0.19012924 0.34826580 -0.06370687
-0.58511978 -0.61261612 0.09985969
-0.05591534 0.66851228 -0.03068694
-0.64868164 -0.76606548 0.15152629
-0.18838434 0.35937446 -0.12416412
-0.39446777 -0.15234755 0.29199159
-0.45981321 -0.31009519 0.04460091
-0.20303507 0.31125778 -0.01240984
-0.08882124 0.58556199 0.08530911
-0.21057563 0.31005356 -0.16144253
-0.46365109 -0.31936511 0.14310350
-0.21463785 0.28181750 0.07751690
-0.63020718 -0.70640934 -0.13162707
-0.28589353 0.11233538 -0.02214670
-0.31762242 0.03319293 0.08123150
-0.08914169 0.59328449 -0.07439536
-0.62305373 -0.70419574 0.08993020
-0.42094600 -0.21626878 0.21980187
-0.54865938 -0.51090765 -0.11962228
-0.23149058 0.24112678 0.14108758
-0.50809926 -0.42436248 -0.01992165
-0.24586125 0.22643004 -0.17513095
-0.35552588 -0.05832437 0.09831409
-0.33503798 -0.00886832 0.29409751
-0.39466989 -0.15283768 0.34034672
-0.01907241 0.75422400 -0.00234610
-0.32927647 0.00505800 0.07920194
-0.61178148 -0.66674423 -0.08938462
-0.29137468 0.09655647 0.12525041
-0.24018498 0.22014076 0.09176239
-0.12838963 0.49004242 0.00911858
-0.29186034 0.09537899 0.18874924
-0.22965360 0.25219762 -0.05800610
-0.62261510 -0.69007832 -0.11411197
-0.35367468 -0.05385695 0.24472719
-0.33141157 0.03439215 -0.30219361
-0.44178897 -0.24544689 -0.18499838
-0.11359970 0.52574182 0.08877972
-0.08238688 0.61007375 -0.07862195
-0.41751739 -0.18173040 -0.22988784
-0.36079279 -0.07104084 0.23754744
-0.25768849 0.17787762 0.17205593
-0.46480528 -0.32214925 0.09111115
-0.40400335 -0.17535684 0.02807796
-0.54739964 -0.51070350 -0.09475258
-0.60265887 -0.64545429 -0.08295448
-0.18263666 0.35906991 0.13448977
-0.13094473 0.48386595 0.11012269
-0.35468563 -0.05629186 0.00932772
-0.62188852 -0.70138276 0.14128932
-0.38847965 -0.13285796 -0.04379219
-0.11188066 0.52989721 0.02150833
-0.59720755 -0.61987096 -0.19186541
-0.53227353 -0.48503813 0.20846519
-0.23853722 0.22411416 0.14988697
-0.54457855 -0.49925360 -0.13542069
-0.25054276 0.19512372 0.23602279
-0.51526940 -0.42722470 -0.14656904
-0.46409976 -0.31832042 -0.01834414
-0.29493248 0.08796696 0.12901244
-0.17807013 0.37009257 0.15757620
-0.46192005 -0.27621067 -0.34134716
-0.32743904 0.04778135 -0.33549750
-0.42413214 -0.18067665 -0.37910867
-0.37256795 -0.09947776 0.35730797
-0.50664681 -0.41456819 -0.07504054
-0.49568316 -0.39669827 0.15358512
-0.37605903 -0.06388465 -0.38555655
-0.33733839 0.00855741 -0.20114419
-0.22398444 0.28566262 -0.23140091
-0.38614061 -0.11615202 -0.14073558
-0.15426017 0.44338325 -0.13843456
-0.53484744 -0.46995223 -0.18634073
-0.36469355 -0.08045798 0.23694377
-0.12712058 0.49310431 0.03217432
-0.38732004 -0.13509265 0.32168260
-0.62013501 -0.69714803 0.03753615
-0.49705437 -0.37121192 -0.25209934
-0.23212245 0.25323001 -0.11930800
-0.31416237 0.07856212 -0.32435367
-0.45034364 -0.26607227 -0.18523502
-0.27450427 0.13728704 0.09720383
-0.30210796 0.07062938 0.31446135
-0.46528676 -0.28266740 -0.35599682
-0.61565053 -0.68632329 0.08511016
-0.63341892 -0.72921890 0.11650630
-0.37567112 -0.10696471 0.21424381
-0.28347865 0.14142449 -0.22605376
-0.41626692 -0.16371745 -0.36132503
-0.65106612 -0.75393492 -0.15645643
-0.46777576 -0.32932270 0.13603242
-0.40739393 -0.13539004 -0.42186740
-0.49721202 -0.40038496 0.05684022
-0.50499886 -0.41243634 -0.05885354
-0.13328637 0.47959176 -0.01197044
-0.37717965 -0.08336164 -0.23852450
-0.48672369 -0.34692532 -0.24637197
-0.42259642 -0.19440229 -0.22629151
-0.58307099 -0.59473705 -0.11301180
-0.23738404 0.22689730 0.16091932
-0.24916720 0.19844373 0.24671996
-0.21423551 0.28278035 0.18457387
-0.17346929 0.39936584 -0.15909202
-0.17881906 0.36829159 0.06783072
-0.24778862 0.22202440 -0.17729926
-0.52494687 -0.45635572 -0.09600701
-0.45561415 -0.29104087 -0.07789879
-0.38540596 -0.12580661 -0.04055709
-0.17038725 0.38864818 0.06004611
-0.17475443 0.39728287 -0.16803011
-0.12556241 0.49686691 0.02096826
-0.37370586 -0.09725629 -0.04322521
-0.47293594 -0.34178582 0.25447106
-0.28668830 0.10786305 0.21685968
-0.44166023 -0.23765744 -0.25055563
-0.14779522 0.45838147 -0.13309400
-0.50176823 -0.39955685 -0.10338640
-0.24698395 0.20372730 0.08475090
-0.16076475 0.41188201 0.01824266
-0.15890963 0.41635126 0.13700713
-0.21895532 0.27139732 0.03895417
-0.16969486 0.40802979 -0.15516353
-0.29237217 0.09414820 0.12723309
-0.33152822 0.01952136 -0.17429440
-0.52596056 -0.46979117 0.07334873
-0.43150216 -0.24176054 0.37213808
-0.24875338 0.19945663 0.07093551
-0.36963773 -0.06907435 -0.20415826
-0.15111595 0.44426036 -0.07957905
-0.24575929 0.21494696 -0.07230430
-0.16142499 0.41028744 0.02612863
-0.37798038 -0.10452011 -0.07001005
-0.45635518 -0.30175713 0.27741858
-0.09032753 0.58192581 0.08155680
-0.37042892 -0.07881399 -0.13554101
-0.48774761 -0.37754607 0.32759553
-0.49048796 -0.38416091 0.26655138
-0.46347564 -0.31894881 0.30575645
-0.38515946 -0.12986273 0.01279677
-0.41536835 -0.19990906 -0.02505619
-0.44801769 -0.28162593 0.21933995
-0.29185539 0.11739539 -0.19268464
-0.48806462 -0.35469973 -0.20659930
-0.19223993 0.35519770 -0.16914797
-0.41647413 -0.20547327 0.23336637
-0.52624691 -0.47048926 0.26155856
-0.44511306 -0.25731689 -0.15129265
-0.34409073 -0.02632257 -0.03829802
-0.55608493 -0.54252058 0.12619036
-0.52355158 -0.46397775 0.12692206
-0.41243827 -0.17504951 -0.18096574
-0.37975025 -0.09235950 -0.21406370
-0.26618367 0.15738182 0.00504358
-0.52031583 -0.42516702 -0.27140412
-0.47077388 -0.33655933 0.10267808
-0.68160158 -0.83057529 -0.13084039
-0.63489246 -0.71604806 -0.14629017
-0.38534385 -0.08525987 -0.39467195
-0.24570608 0.21274309 -0.05185742
-0.16819245 0.39779246 -0.03361846
-0.40011489 -0.16598064 0.28425619
-0.20630385 0.32511330 -0.20305835
-0.31386566 0.04224731 0.27332595
-0.36907211 -0.09103368 0.30086315
-0.02641722 0.73921734 -0.02623400
-0.39365762 -0.15039018 0.25858974
-0.49410450 -0.38765025 -0.04557597
-0.38788891 -0.12691957 -0.08334620
-0.22561333 0.25532609 0.00786340
-0.43952957 -0.25022063 -0.09533783
-0.39488173 -0.15334287 0.20103107
-0.62607569 -0.71148914 0.01494103
-0.29622173 0.08484172 0.29062513
-0.24490033 0.20876192 0.02940109
-0.37634423 -0.10859159 0.32120955
-0.55742979 -0.53208345 -0.11959956
-0.38533843 -0.10871549 -0.18894742
-0.17476495 0.37807086 0.17075390
-0.27765054 0.14221282 -0.10961750
-0.14082322 0.46001878 0.09272648
-0.49023578 -0.37889114 -0.04048620
-0.39791912 -0.13183147 -0.25255194
-0.57193416 -0.58077937 0.01751138
-0.39006999 -0.12632813 -0.13468760
-0.10906334 0.53906244 -0.02067197
-0.23670514 0.23708411 -0.07475039
-0.14048347 0.46084225 0.05142169
-0.23887859 0.22328515 0.21172345
-0.20853145 0.29957035 -0.02627602
-0.59973496 -0.64790064 0.10915827
