ply
format ascii 1.0
element vertex 208
property float x
property float y
property float z
end_header
-0.20305137 0.30977866 0.21401607
-0.36580580 -0.08314114 0.06939546
-0.32490405 0.01559657 0.29820547
-0.31455970 0.04058459 0.11086297
-0.29664376 0.08382978 0.20294331
-0.42132950 -0.20531805 -0.01245260
-0.20402101 0.30744088 0.17471220
-0.11962191 0.51120871 0.01718260
-0.32962418 0.14434844 -0.14732307
-0.40814626 -0.18535969 0.04893415
-0.52734584 -0.44709632 -0.02734503
-0.60036135 -0.53028381 -0.12521854
-0.46411547 -0.30120870 -0.02023559
-0.38946214 -0.14025488 0.11378786
-0.61591274 -0.60032547 -0.09104881
-0.51470113 -0.19143865 -0.26405808
-0.41687226 -0.20643115 0.15918250
-0.48706511 -0.10434667 -0.28547999
-0.47488132 -0.15075779 -0.20575425
-0.49829268 -0.36430234 -0.04065062
-0.50912982 -0.26373798 -0.17389724
-0.47779047 -0.35350442 0.22445334
-0.29069054 0.09820779 0.12937665
-0.14344202 0.45370278 0.01305042
-0.27421564 0.21854088 -0.08468434
-0.30289081 0.06874089 0.29609811
-0.34039709 -0.02179659 0.02080243
-0.44523716 -0.27490941 0.13624175
-0.59749514 -0.64249116 0.05802917
-0.47644651 -0.35026178 0.26928681
-0.55060315 -0.52928174 0.02339638
-0.16754858 0.39550543 0.00739472
-0.39192298 -0.14619665 0.13040665
-0.41370058 -0.19441552 -0.00455097
-0.43243182 -0.14980277 -0.09900571
-0.48349461 -0.02743265 -0.35728741
-0.48407546 -0.36867717 0.21060561
-0.29753339 0.08167980 0.23137876
-0.30118534 0.07858196 -0.00598207
-0.50492090 -0.41900104 0.17132780
-0.36689708 -0.08577707 0.22886974
-0.37791038 -0.06560954 -0.04913452
-0.16362464 0.40497097 0.10351746
-0.61193120 -0.67734122 0.01585046
-0.41515410 -0.13644086 -0.06919774
-0.47228473 -0.34021631 0.33631095
-0.49153960 -0.13097568 -0.26883897
-0.66257656 -0.69126713 -0.11387923
-0.44445094 0.02153537 -0.30966678
-0.22589281 0.25464207 0.12568174
-0.14256693 0.45580754 0.11283903
-0.07704982 0.61398262 0.05740291
-0.27644417 0.19032630 -0.06067450
-0.64860141 -0.55855846 -0.21794121
-0.58353853 -0.55036753 -0.06139902
-0.63594824 -0.66878080 -0.06992936
-0.58035833 -0.60112250 0.16504079
-0.50961876 -0.43033561 0.01160512
-0.46962601 -0.19115420 -0.14993969
-0.38616389 0.04851150 -0.19007467
-0.20447221 0.30635619 0.11632597
-0.45750982 -0.26864767 -0.03770412
-0.36569169 -0.08287119 0.19360055
-0.13962279 0.46291631 0.09925200
-0.16948432 0.47177747 -0.08510341
-0.40003398 -0.13922261 -0.02789238
-0.27493447 0.13624266 0.17076240
-0.47472149 -0.22317466 -0.12920617
-0.64510596 -0.62225705 -0.14209256
-0.24629796 0.35900813 -0.16151473
-0.56884712 -0.26251078 -0.32677245
-0.14465901 0.45076555 0.00271263
-0.31333497 0.17217270 -0.13523068
-0.48083758 -0.36085689 0.13625458
-0.49477759 -0.39451277 0.17073880
-0.30561429 0.19552951 -0.14019138
-0.12975183 0.50158393 -0.01558649
-0.44970211 -0.27940539 -0.00657411
-0.39086726 -0.14364946 0.16547348
-0.55984652 -0.39380845 -0.16587315
-0.44227344 -0.26775315 0.11048103
-0.57359469 -0.44929489 -0.14243019
-0.20447449 0.39923191 -0.09764354
-0.35643992 -0.05420587 -0.00662482
-0.45652282 -0.30216172 0.27473709
-0.17124608 0.38657483 0.05971038
-0.47067454 -0.10644473 -0.24166863
-0.35799053 -0.06427576 0.23866063
-0.34492147 -0.00381228 -0.03036746
-0.35854253 -0.06561265 0.29265499
-0.20888510 0.43071038 -0.14193814
-0.41479561 -0.20141251 0.04447847
-0.35023570 -0.04554657 0.14299352
-0.46557164 -0.32400334 0.17859320
-0.10437673 0.54801047 0.05510223
-0.19852060 0.42996883 -0.11484902
-0.13994142 0.46215272 0.02771337
-0.57006651 -0.57627648 0.19642465
-0.63648367 -0.73661733 0.03609531
-0.33907792 -0.01860355 0.06649071
-0.49276152 -0.20747434 -0.19150652
-0.45462701 -0.09003954 -0.21818316
-0.54910237 -0.52566308 0.12595287
-0.07865796 0.61010265 0.02719541
-0.44743761 -0.23802061 -0.04433979
-0.38839778 0.06151563 -0.20941867
-0.44375402 -0.27132440 0.03840782
-0.09800718 0.62706441 -0.06694431
-0.42190519 -0.17548674 -0.04527991
-0.57103407 -0.57860559 0.00042710
-0.62000704 -0.65021533 -0.04898521
-0.31083521 0.04956905 0.20155014
-0.21093537 0.38297874 -0.09695420
-0.47675729 -0.35101232 0.27479756
-0.38671142 -0.13362128 0.27660233
-0.52525741 -0.46809247 0.04788341
-0.16543724 0.40059081 0.15703510
-0.48814631 -0.37849760 0.04194189
-0.48191208 -0.36345461 0.21799713
-0.31185684 0.04711669 0.02362378
-0.30802733 0.05636322 0.00621328
-0.62655425 -0.64078909 -0.07551566
-0.18163326 0.48141739 -0.12607855
-0.52637309 -0.47079116 0.16413409
-0.49506131 -0.21187353 -0.19271873
-0.48823634 -0.37872502 0.26773226
-0.45101264 -0.26879838 -0.02105340
-0.33617738 0.23071875 -0.25477356
-0.47935861 -0.19788769 -0.16756476
-0.49583948 -0.14851381 -0.26131329
-0.48367384 -0.36771137 0.32192862
-0.43286422 -0.08761464 -0.16549072
-0.34960729 0.18352629 -0.23924281
-0.49401212 -0.39265972 0.05819034
-0.59549421 -0.63765985 0.04426423
-0.30041081 0.15131152 -0.08048890
-0.45338213 -0.04146863 -0.26609105
-0.12725313 0.49278539 0.01858507
-0.34532708 -0.03370044 0.05980889
-0.31215087 0.24918696 -0.21320309
-0.24375488 0.21151973 0.12473821
-0.23797067 0.22547562 0.22989587
-0.37196496 -0.09801748 0.29964316
-0.48315629 -0.04752127 -0.33530605
-0.33559668 0.08366192 -0.09867374
-0.20959657 0.29398766 0.08270702
-0.42036226 -0.21485856 0.19860283
-0.29471692 0.11194314 -0.02464082
-0.56716770 -0.56927508 0.08550525
-0.45310777 -0.05043543 -0.25596631
-0.09053345 0.58143359 0.01924999
-0.60289693 -0.52128363 -0.14111799
-0.47377187 -0.34379604 0.07775201
-0.60626644 -0.51134634 -0.16011959
-0.41362128 -0.15097682 -0.05002309
-0.24177188 0.29619089 -0.08397524
-0.38778475 -0.13621601 0.35454544
-0.37324798 -0.10110795 0.06263556
-0.40052631 0.01744347 -0.19386537
-0.22326137 0.26099399 0.13687073
-0.38285032 -0.12429918 0.32987627
-0.09341900 0.57446545 0.04308649
-0.44137520 -0.26558092 0.02819964
-0.47105852 -0.25574479 -0.08566246
-0.34973767 -0.02298760 -0.02243632
-0.10792084 0.60209662 -0.06585641
-0.43616074 -0.23898621 -0.01469961
-0.44444564 -0.13223279 -0.14797515
-0.34267870 -0.02731199 0.26278469
-0.62860245 -0.71759123 0.15579851
-0.35604736 -0.05958719 0.27176800
-0.15015209 0.45295426 -0.01623818
-0.51017618 -0.15652198 -0.28928503
-0.66725200 -0.78317910 -0.02910660
-0.27462953 0.13698196 0.13116781
-0.37202516 -0.06566231 -0.03414016
-0.37449661 -0.10413740 0.40143967
-0.16537587 0.47073856 -0.07358210
-0.55395609 -0.53737694 0.03320738
-0.57505924 -0.35973364 -0.24031651
-0.41314450 -0.19743082 0.14422309
-0.13175291 0.48191369 0.12491987
-0.33800867 -0.01602960 0.00299226
-0.42944226 -0.15627883 -0.08460787
-0.25372651 0.18744110 0.19100329
-0.25122869 0.19346708 0.24454182
-0.27347308 0.13977273 0.14544748
-0.37449694 -0.10413444 0.35404354
-0.28832310 0.10393256 0.01120092
-0.10049566 0.55737835 0.07741550
-0.16116992 0.47494310 -0.06732658
-0.42435631 -0.22450793 0.35202339
-0.16010174 0.52300990 -0.11515589
-0.21897712 0.27133793 0.12470841
-0.32217124 0.02221656 0.01354509
-0.53234410 -0.48520884 0.27005476
-0.29078329 0.27567029 -0.18680973
-0.46366552 -0.31940210 0.19153196
-0.68158656 -0.75713038 -0.09288227
-0.23883720 0.22338948 0.15605748
-0.17723033 0.37211952 0.16371948
-0.26011074 0.19848619 -0.02779336
-0.36729085 -0.08673616 0.33584446
-0.59528142 -0.60045093 -0.03854691
-0.34952900 -0.02978120 -0.01476352
-0.48674810 -0.37513250 0.27712095
-0.18406704 0.40680662 -0.05380554
-0.60105121 -0.65107471 0.02178799
