ply
format ascii 1.0
element vertex 29
property float x
property float y
property float z
end_header
-0.73838782 -0.70785648 0.01013729
-0.68825114 -0.52279937 0.01249593
-0.30516276 0.20891055 0.00536769
-0.36430705 0.40475202 0.01785138
-0.72159654 0.03022247 0.03584105
-0.50127363 -0.08783890 0.01188710
-0.16865586 0.60829002 0.00794298
-0.58910209 -0.29160750 0.01219314
-0.50334066 -0.08623138 0.01213026
-0.17336246 0.54278928 0.00594704
-0.50404501 -0.19733974 0.00809859
-0.38683128 0.10206268 0.00869673
-0.26478696 0.41242293 0.00927727
-0.65148664 0.03429758 0.02975177
-0.73044199 -0.55925000 0.01490665
-0.47117618 -0.10654884 0.00851959
-0.09899749 0.65047181 0.00329876
-0.69442797 -0.12363696 0.02775467
-0.54286945 0.11209470 0.02295339
-0.64691991 -0.44332629 0.01174689
-0.36609060 0.38871217 0.01741877
-0.57653713 -0.27329296 0.01175001
-0.72706932 -0.15118821 0.02964381
-0.72396624 -0.32027510 0.02313685
-0.37728700 -0.05479172 0.00207265
-0.67162913 -0.34910262 0.01741764
-0.62225246 -0.10824313 0.02189981
-0.44571021 0.27231497 0.02021341
-0.78025019 -0.25133574 0.03068520
