ply
format ascii 1.0
element vertex 36
property float x
property float y
property float z
end_header
-0.71668714 -0.52642351 0.02035686
-0.35298780 0.02630787 0.00395431
-0.31002364 0.26937428 0.01097747
-0.45155156 0.02108238 0.01568300
-0.29541421 0.38269275 0.01491121
-0.63429791 0.14068371 0.04394528
-0.36220321 0.10764174 0.00917475
-0.30420965 0.26208073 0.00990250
-0.65923983 -0.53633440 0.01286892
-0.62486839 -0.45162377 0.01295563
-0.72210139 -0.41987991 0.02638361
-0.18586402 0.54731733 0.00987952
-0.18030107 0.58691627 0.01119847
-0.73061550 -0.59392756 0.01865016
-0.54272962 -0.46244678 0.00241797
-0.65953904 -0.10231310 0.03477308
-0.42753172 -0.07304172 0.00802372
-0.74380535 -0.34394011 0.03285010
-0.45778698 -0.20940675 0.00483371
-0.72619903 -0.37163961 0.02931264
-0.75422746 -0.07373074 0.04773222
-0.21212660 0.39266592 0.00528042
-0.56345612 -0.43405491 0.00636989
-0.71944737 -0.08327005 0.04302052
-0.45352224 0.20608591 0.02524693
-0.73841709 -0.72080427 0.01320669
-0.75697011 -0.46284932 0.02846051
-0.53961045 -0.10829929 0.01988191
-0.67591804 -0.16312914 0.03370146
-0.28156179 0.29624864 0.00886904
-0.76565969 -0.32835338 0.03629406
-0.31533566 0.35993013 0.01618778
-0.55654621 -0.34588450 0.00997167
-0.24108480 0.34740797 0.00652271
-0.72348052 -0.37819579 0.02865160
-0.79553020 -0.68843389 0.02178560
