ply
format ascii 1.0
element vertex 218
property float x
property float y
property float z
end_header
-0.30073828 0.07395362 0.09181729
-0.64610362 -0.75984174 0.14410034
-0.43958256 -0.26125607 0.09482028
-0.57408381 -0.25884786 -0.29489499
-0.25264308 0.19006206 0.12312550
-0.36278513 -0.07585060 0.23571017
-0.21875955 0.27186111 0.15116255
-0.43028873 -0.23882189 0.16730738
-0.43164289 -0.16660142 -0.06803147
-0.64604694 -0.75970489 0.14100561
-0.16329801 0.48477861 -0.07122842
-0.57414031 -0.40704659 -0.16140643
-0.09948112 0.55983233 0.01782557
-0.59709543 -0.56029618 -0.07320419
-0.46601775 -0.32507524 0.06402359
-0.35986251 -0.06880014 0.30304924
-0.54766959 -0.09917892 -0.38135582
-0.44933289 -0.28480065 0.20824167
-0.23161414 0.29157183 -0.04573083
-0.60997188 -0.35376540 -0.28743225
-0.43557581 -0.25159296 0.32083717
-0.37433577 -0.10374204 0.24058092
-0.40224916 -0.17112294 0.05351058
-0.46549544 -0.21442169 -0.09860000
-0.43077710 -0.24000463 0.24997281
-0.37710547 -0.11042597 0.17835827
-0.46924403 0.02782752 -0.32516342
-0.16161418 0.40983084 0.02460153
-0.24486597 0.20883767 0.12061507
-0.49479148 -0.39454919 0.23590989
-0.60156327 -0.37083742 -0.25373900
-0.23503180 0.23258702 0.02174502
-0.36887962 0.17057922 -0.23541524
-0.44245672 -0.26819959 0.19895218
-0.48056886 -0.36021215 0.22625577
-0.28840140 0.18282250 -0.07128577
-0.30110410 0.30470908 -0.20882624
-0.24723719 0.24252315 -0.03551388
-0.39590451 0.12838264 -0.25619319
-0.52969921 -0.47882363 0.23876888
-0.46087641 -0.14208534 -0.15376273
-0.35633180 -0.06026669 0.18078274
-0.13814700 0.46648616 0.01066635
-0.15136817 0.46039838 -0.02328106
-0.50521982 -0.41972014 0.11441068
-0.38891920 -0.13895269 0.30605724
-0.32168162 0.02337535 0.30827597
-0.22083303 0.27545124 -0.00773062
-0.47883147 -0.35602114 0.32062003
-0.30167532 0.07169661 0.02600507
-0.57218987 -0.58140260 0.18998212
-0.23334904 0.23664957 0.02117204
-0.51944494 -0.45406827 0.25527081
-0.25776455 0.18208534 -0.00393738
-0.48706228 -0.11192202 -0.23795201
-0.14577530 0.44807062 0.00271271
-0.41472232 0.09982309 -0.27140275
-0.28140053 0.12062718 0.23647875
-0.13085873 0.48407596 0.07959319
-0.39524171 -0.15420316 0.00400024
-0.21671578 0.27680627 0.01030154
-0.46001223 -0.31058493 0.25222734
-0.13878828 0.46493679 0.02554591
-0.39314961 -0.14916344 0.25195199
-0.66605932 -0.60181326 -0.18587671
-0.16662991 0.39771026 0.17223167
-0.35513750 0.06804858 -0.11306354
-0.38778964 -0.12512481 -0.00997663
-0.38352135 -0.12591562 0.18458919
-0.37105104 -0.09580470 0.07743391
-0.49985769 -0.20258357 -0.18406416
-0.35530838 0.06436512 -0.11011450
-0.37564903 -0.03444669 -0.06530466
-0.51242763 -0.13225375 -0.27483055
-0.27129447 0.14503869 0.06431671
-0.56130028 -0.55510765 0.03768901
-0.29274032 0.09326798 0.01874431
-0.27709490 0.24286439 -0.10080946
-0.15343781 0.42955959 0.15837058
-0.37720302 -0.11066423 0.24074274
-0.13952726 0.46314985 0.06251984
-0.63724768 -0.57523692 -0.14712743
-0.48958218 -0.38197011 0.17607646
-0.35020426 -0.04548419 0.31441623
-0.16450028 0.40840483 -0.00498730
-0.58598554 -0.28862634 -0.29395235
-0.44929871 -0.28472453 0.36357066
-0.60764539 -0.43319681 -0.21075574
-0.26141396 0.36421528 -0.17608748
-0.40676668 0.04088496 -0.20094848
-0.59203196 -0.32397339 -0.27524483
-0.39061108 -0.14303844 0.33239448
-0.31821969 0.04131810 -0.00860872
-0.50144547 -0.41060847 0.12437999
-0.45646292 -0.30201578 0.24490725
-0.15659642 0.47273308 -0.04578168
-0.24535763 0.33574867 -0.11547422
-0.17922947 0.43940139 -0.06499291
-0.27789727 0.12908170 0.27489132
-0.42788771 -0.23303489 0.38270149
-0.42663869 -0.23000461 0.04916662
-0.47362286 -0.32844022 -0.01349405
-0.58722740 -0.37109229 -0.22230650
-0.08113679 0.60411918 0.01579470
-0.46670145 -0.32672775 0.10672008
-0.15975209 0.41432646 0.02242459
-0.62612200 -0.53923458 -0.15537050
-0.50065833 -0.40870383 0.02787299
-0.44849783 -0.28278208 0.15129882
-0.32292014 0.05259427 -0.02900616
-0.33847961 -0.01716757 0.17381956
-0.14632265 0.48342121 -0.03305624
-0.49004287 -0.38308612 0.26155087
-0.39953232 -0.16457506 0.30392620
-0.14251542 0.45593050 0.13046460
-0.38032147 -0.11818459 0.05432780
-0.42239675 -0.21977761 0.36349800
-0.33222422 -0.00206584 0.17330757
-0.49255130 -0.38914287 0.28008747
-0.37846148 -0.11370062 0.19975615
-0.58351231 -0.60873628 0.12174490
-0.42313519 -0.19398029 -0.02483004
-0.25193778 0.19177124 0.04135497
-0.17275691 0.38291836 0.17431749
-0.16995941 0.38967830 0.09525776
-0.37635407 -0.10860732 0.07567409
-0.42432821 -0.01803883 -0.18604748
-0.32722732 0.19218977 -0.16423926
-0.48965532 -0.08016980 -0.27222276
-0.30863637 0.05487109 0.28239018
-0.40409440 -0.17558172 0.14206862
-0.27690777 0.31001678 -0.16094621
-0.23923278 0.23345886 -0.00991930
-0.67889899 -0.76849121 -0.06355123
-0.32501546 0.03003396 -0.01322660
-0.56988192 -0.57582992 0.13278159
-0.54710859 -0.14469212 -0.33910143
-0.39664370 -0.15760024 0.28101507
-0.42631140 -0.22921620 0.08805928
-0.41574731 -0.06033825 -0.12923762
-0.35320339 -0.05272634 0.33574271
-0.53614664 -0.43533254 -0.05320942
-0.52565730 -0.25650385 -0.19160543
-0.47890437 -0.28202379 -0.06683720
-0.47560143 -0.34821075 0.02676607
-0.39617434 -0.11909384 -0.03366372
-0.66270536 -0.56438804 -0.21231809
-0.55305290 -0.53520304 0.24590653
-0.31863993 0.03073508 0.09865435
-0.24510881 0.20825854 0.03014899
-0.46784705 -0.32950202 0.29817152
-0.28203759 0.11910562 0.02850371
-0.30220026 0.07042937 0.02528864
-0.14464736 0.45078534 0.10841595
-0.09898949 0.58973056 -0.02587909
-0.29679373 0.08345898 0.31388488
-0.44259688 0.03348027 -0.27226004
-0.34852833 -0.04142244 0.11501125
-0.43024763 0.08634570 -0.29304385
-0.31017077 0.25895578 -0.18730985
-0.37835130 -0.11343081 0.11410720
-0.48744974 -0.17025653 -0.18620268
-0.18645796 0.48892990 -0.12538084
-0.30011743 0.07544912 0.13414669
-0.31578323 0.03763888 0.00764712
-0.30206773 0.25840163 -0.16917326
-0.55966473 -0.55116498 0.21239869
-0.40471923 -0.17709853 0.32829446
-0.14614597 0.44717437 0.02025114
-0.34508854 0.23632751 -0.24290998
-0.28986907 0.26817107 -0.15142986
-0.35194317 -0.04967105 0.01252843
-0.22476794 0.25736475 0.03669435
-0.55372453 -0.53682387 0.16737820
-0.16893005 0.48668858 -0.08520907
-0.49482888 -0.20178996 -0.17383417
-0.33878845 -0.01790818 0.11050813
-0.13901159 0.52439940 -0.05408868
-0.18911873 0.49151722 -0.13350494
-0.03703536 0.71058857 0.01353920
-0.49958783 -0.40612197 0.08542183
-0.12188327 0.59633797 -0.08166661
-0.41698071 -0.20669217 0.14147598
-0.55436647 -0.15527911 -0.34535366
-0.38749802 -0.01013780 -0.11300685
-0.58187771 -0.34499264 -0.23419327
-0.44703189 -0.01455262 -0.23860715
-0.33728337 -0.01427806 0.15378356
-0.50687754 -0.42372090 0.08360563
-0.41195983 -0.19457507 0.24116863
-0.48075578 -0.01089348 -0.31530920
-0.61195433 -0.39647144 -0.25324473
-0.35362843 -0.05374035 0.02799372
-0.40679562 -0.18210223 0.12306263
-0.61388373 -0.68205506 0.01568355
-0.29676697 0.09082091 -0.00654631
-0.66351998 -0.63119733 -0.15385799
-0.31337968 0.15232515 -0.09815703
-0.42294157 0.03635894 -0.23207390
-0.31357884 0.06499693 -0.01985614
-0.48191562 -0.33107215 -0.02917082
-0.09155263 0.57897460 0.00022791
-0.37194085 -0.09796268 0.34263855
-0.24090730 0.34799567 -0.11682947
-0.03957653 0.73110795 -0.02402627
-0.29886016 0.26071277 -0.16427542
-0.32933879 0.00489289 0.26520619
-0.11571360 0.52064407 0.01778011
-0.30121613 0.12952676 -0.05112716
-0.46907344 0.03982782 -0.33561149
-0.44567600 -0.27596977 0.15675603
-0.57272494 -0.39760321 -0.16683966
-0.41257834 -0.12879460 -0.06062198
-0.62405103 -0.69738281 -0.00828126
-0.17758292 0.41722971 -0.04141925
-0.35230920 0.05781472 -0.09768073
-0.20113978 0.37223205 -0.05212330
-0.08391395 0.59741086 0.06322562
