ply
format ascii 1.0
element vertex 145
property float x
property float y
property float z
end_header
-0.40068409 -0.15918104 -0.00029792
-0.75341356 -0.17210853 -0.03120345
-0.39951056 -0.16452529 0.34331250
-0.09294643 0.59357631 -0.00065558
-0.11492812 0.52252930 0.05417325
-0.20030507 0.31641012 0.12671815
-0.25022814 0.19589269 0.07392103
-0.23974764 0.22119826 0.02605296
-0.17132260 0.38638148 0.08868823
-0.34077883 -0.02272280 0.21888742
-0.39943823 0.01265237 -0.00651573
-0.66126603 -0.79644608 0.04370417
-0.50781578 -0.42599127 0.18378273
-0.65369010 -0.21638624 -0.02069964
-0.06548098 0.64190280 0.04774696
-0.19232854 0.33566946 0.09405725
-0.10004239 0.55846739 0.03451892
-0.34241530 0.15209632 -0.00658135
-0.68926132 -0.55782020 -0.01128322
-0.37892115 -0.11481190 0.30970010
-0.22351980 0.26036590 0.13050441
-0.36368766 -0.07802859 0.22300661
-0.19107299 0.33869791 0.12548652
-0.21807982 0.27349210 0.21030407
-0.37057444 0.05854066 -0.00563878
-0.25870970 0.50875270 -0.01227839
-0.23511571 0.23236904 0.16095574
-0.25540993 0.18337455 0.17440753
-0.34442019 -0.03150843 0.15765746
-0.31271064 0.04504036 0.19209205
-0.58204585 -0.60519648 0.20411707
-0.21100968 0.29056036 0.21188045
-0.10234648 0.55290145 0.07612137
-0.38345090 -0.12574738 0.14899573
-0.20101255 0.31469479 0.21379167
-0.44780776 -0.28111699 0.11131836
-0.24420573 0.21042609 0.14029031
-0.66205686 -0.33618283 -0.01702976
-0.23527080 0.23200557 0.03170683
-0.60091418 -0.05940483 -0.02178868
-0.27329403 0.14020225 0.14287193
-0.54518855 -0.01570048 -0.01844126
-0.33808678 -0.01622519 0.03647881
-0.23172621 0.24055743 0.09438375
-0.37118748 -0.09614243 0.19376692
-0.37840059 -0.11355509 0.15450573
-0.36409354 -0.07900982 0.23935673
-0.49081811 -0.38495114 0.05791586
-0.63808542 -0.74048460 0.15717278
-0.36204782 -0.07406742 0.19542481
-0.25517192 0.18394186 0.26019570
-0.32895890 0.00581639 0.17074290
-0.40714410 -0.18295144 0.25986171
-0.39966670 0.11840598 -0.01043370
-0.24939644 0.21236853 -0.00052623
-0.61196071 -0.30451354 -0.01373972
-0.39731207 -0.15921679 0.31710616
-0.29180098 0.09552511 0.12577178
-0.39409974 -0.15146483 0.42194980
-0.55786318 -0.54681575 0.18816766
-0.04232969 0.69779742 0.00204135
-0.21144472 0.28951529 0.15065202
-0.47556999 -0.34814742 0.31937423
-0.13591672 0.47185972 0.05257807
-0.08123077 0.60388112 0.03931027
-0.45199895 -0.29123300 0.03996635
-0.32369518 0.01851036 0.32955101
-0.44505268 -0.27447373 0.35192540
-0.41896158 -0.21147583 0.09721765
-0.18252270 0.35934508 0.06076965
-0.59508139 -0.63666463 0.06454911
-0.55972481 -0.55131006 0.25050083
-0.37548581 -0.10652105 0.34047961
-0.25884426 0.17508835 0.11780622
-0.65294224 -0.77635121 0.14641576
-0.49515939 -0.39543334 0.10124353
-0.19863550 0.32044211 0.11029610
-0.19560356 0.32775593 0.17818747
-0.34503096 -0.03299429 0.29193985
-0.28838605 0.10377736 0.03025622
-0.08631648 0.59160507 0.01986453
-0.46325475 -0.31840828 0.08272113
-0.59745038 -0.64238530 0.12398145
-0.38668504 -0.13356099 0.31882429
-0.23744440 0.22673967 0.25002035
-0.23230709 0.23916131 0.02093545
-0.49206555 -0.38796493 0.12372153
-0.10874974 0.53744733 0.02483027
-0.52944469 -0.29437640 -0.00677191
-0.41035369 -0.05291687 -0.00507383
-0.44189021 -0.26682824 0.03521626
-0.42504331 -0.22616126 0.18211977
-0.11800251 0.59441972 -0.00291607
-0.38505948 -0.10847290 -0.00077631
-0.17689563 0.43655446 -0.00233792
-0.45910025 -0.30837822 0.07603066
-0.22650529 0.51380372 -0.00959911
-0.73807740 -0.60808855 -0.01377357
-0.26569310 0.21593454 -0.00210768
-0.37335491 -0.10137216 0.28622532
-0.41202730 -0.19474421 0.37070471
-0.39334214 0.20445272 -0.01304229
-0.42153296 -0.21769375 0.40100384
-0.73709643 -0.31397438 -0.02452427
-0.68755382 0.00258322 -0.03178018
-0.15081242 0.43589863 0.05979170
-0.39656442 -0.15740494 0.11226335
-0.35038689 -0.04591196 0.14601219
-0.23650035 0.22903556 0.05156375
-0.15427487 0.42754054 0.05055846
-0.16769268 0.39513871 0.15901060
-0.21409576 0.28311211 0.18825319
-0.24073325 0.21880636 0.17353238
-0.13779563 0.46731979 0.09959053
-0.52549225 -0.05324030 -0.01530564
-0.22643054 0.25334269 0.08638881
-0.15269484 0.43134925 0.11814234
-0.56350487 -0.56043285 0.07926364
-0.73173124 -0.49876586 -0.01723755
-0.49239460 -0.38875762 0.07324832
-0.27888554 0.20615539 -0.00292108
-0.44030195 -0.26299986 0.21416819
-0.63389623 0.15211356 -0.03251698
-0.09782702 0.56381506 0.04133409
-0.43087652 -0.24024956 0.35289401
-0.48227194 -0.36432552 0.25506422
-0.63445240 -0.16296314 -0.02095662
-0.22402821 0.25914073 0.10438311
-0.45770058 -0.30500737 0.32156992
-0.17318247 0.38189542 0.04186177
-0.44294748 -0.26938909 0.28536493
-0.48162270 -0.36275357 0.11999400
-0.23467986 0.23343012 0.05606253
-0.20444061 0.30643597 0.01268456
-0.15526679 0.42514941 0.00887225
-0.20662108 0.30115777 0.18051291
-0.45361200 -0.29512995 0.12085538
-0.31404960 0.04180553 0.22019991
-0.56306988 -0.55938238 0.07067589
-0.56166589 -0.55599123 0.02212675
-0.43966863 -0.26146674 0.09090182
-0.43591732 -0.25240830 0.03091778
-0.41874033 -0.21095128 0.38292149
-0.68140894 -0.68787664 -0.00579229
-0.41727328 -0.20739947 0.08346483
