ply
format ascii 1.0
element vertex 507
property float x
property float y
property float z
end_header
-0.22493441 0.27367309 0.18334614
-0.66552049 -0.80018622 0.07157144
-0.19578487 0.33544081 0.08901555
-0.37824777 -0.09325687 0.21842052
-0.47034606 -0.30923653 0.28818640
-0.42283747 -0.21919905 0.01788591
-0.30862403 0.07865433 0.26035452
-0.57365239 -0.56612450 0.20611976
-0.25129622 0.20510367 0.12934002
-0.38629499 -0.11346124 0.20990567
-0.14603385 0.45488682 0.08174768
-0.53820002 -0.48917848 0.11138272
-0.30302161 0.09621540 0.30459407
-0.48749414 -0.35604882 0.22884496
-0.59836745 -0.62411648 0.22447114
-0.45707953 -0.29623407 0.07962673
-0.50890762 -0.40217575 0.28989482
-0.25518972 0.19279647 0.09746780
-0.28605348 0.12478055 0.16867158
-0.41423330 -0.17288448 0.29788196
-0.16211306 0.42140505 0.14024843
-0.15495250 0.42762670 0.01894921
-0.52656162 -0.46512246 0.06708081
-0.56213868 -0.54426819 0.14101402
-0.37171525 -0.08224194 0.16628635
-0.55122864 -0.51180583 0.20813519
-0.36833882 -0.06942380 0.21744324
-0.27079943 0.15857013 0.13538162
-0.28115731 0.14367080 0.24617197
-0.40855736 -0.17009246 0.17827685
-0.53687543 -0.47496018 0.23218663
-0.26586512 0.17786703 0.21633117
-0.44335386 -0.24868430 0.23762517
-0.17894433 0.38470036 0.18332319
-0.40530619 -0.14305334 0.38863990
-0.38563314 -0.10537270 0.28105730
-0.43777028 -0.22741927 0.32296601
-0.40393180 -0.16285308 0.13522182
-0.42536479 -0.19873966 0.30904675
-0.54097939 -0.50486082 0.01302769
-0.16860749 0.40075722 0.08577868
-0.35686329 -0.03730843 0.26579782
-0.23760714 0.23409273 0.08484329
-0.21191142 0.29643711 0.08823854
-0.50914413 -0.41460016 0.15996152
-0.24779218 0.22166547 0.21815854
-0.19865257 0.33908144 0.20481704
-0.36200202 -0.05207010 0.23997448
-0.49863330 -0.39538404 0.09244411
-0.25201595 0.21478669 0.25453299
-0.35677883 -0.02853946 0.35968924
-0.58275187 -0.59855926 0.09139245
-0.30995998 0.06113620 0.10367501
-0.61939257 -0.67843676 0.18543118
-0.50564069 -0.41452742 0.06804219
-0.48929602 -0.36566436 0.17112580
-0.22568230 0.27336246 0.19973372
-0.03362677 0.72194856 0.03448120
-0.29912058 0.09598720 0.19885308
-0.24059851 0.22450221 0.05887687
-0.27733734 0.15111297 0.22665983
-0.47892302 -0.32879868 0.30073151
-0.38774016 -0.12313989 0.14205395
-0.50550610 -0.40300229 0.19081941
-0.43951249 -0.25095910 0.11102798
-0.12989022 0.49088436 0.04911923
-0.30659413 0.07093249 0.12198650
-0.31933087 0.03754583 0.09307371
-0.37323999 -0.06757458 0.36742237
-0.57967097 -0.59113175 0.09127926
-0.28208140 0.13187507 0.14132211
-0.45466191 -0.27598333 0.23763505
-0.18065457 0.37062949 0.07433813
-0.59490949 -0.62051684 0.17242830
-0.22541136 0.26770747 0.13057321
-0.03580959 0.71669388 0.03464501
-0.44927996 -0.27712542 0.08268403
-0.59254694 -0.62870991 0.02010261
-0.32148153 0.03067895 0.07471433
-0.37565941 -0.08834353 0.20378108
-0.21044464 0.29644197 0.04947392
-0.57127386 -0.56275779 0.18008599
-0.11610003 0.52869314 0.09862858
-0.41751549 -0.20560063 0.02610781
-0.16300344 0.41689324 0.11435377
-0.37000224 -0.08500770 0.09063369
-0.22421543 0.26071060 0.02222338
-0.47129482 -0.33013883 0.08416290
-0.47341290 -0.31754777 0.27824128
-0.18247294 0.36089569 0.01575862
-0.23595855 0.23535198 0.05501779
-0.07677577 0.61589605 0.01384988
-0.46331811 -0.29610184 0.24617802
-0.03342294 0.72216171 0.03142141
-0.50291991 -0.41405070 0.00126315
-0.55141348 -0.52472472 0.07141206
-0.44297746 -0.23963211 0.32689384
-0.45430470 -0.28064740 0.17705353
-0.40770027 -0.15481231 0.32309574
-0.40191531 -0.14514729 0.27594766
-0.10890384 0.54724425 0.11154243
-0.22238213 0.27438575 0.12361332
-0.16132531 0.42198166 0.12572163
-0.15086892 0.44316524 0.08121284
-0.20603909 0.31634045 0.15101054
-0.25252166 0.20160525 0.12342064
-0.34007111 0.00015916 0.23212099
-0.34103751 -0.00927226 0.15430927
-0.35356718 -0.04642566 0.07862488
-0.24789418 0.20950124 0.08751253
-0.55888236 -0.54001546 0.10145492
-0.04206518 0.70142192 0.03278632
-0.12352042 0.50625950 0.04908765
-0.44175768 -0.25689515 0.10537527
-0.29749590 0.09072666 0.09819063
-0.35816547 -0.03453048 0.33071226
-0.38842231 -0.12407742 0.14982979
-0.61943495 -0.68430787 0.12220681
-0.61162633 -0.67254221 0.04453957
-0.50873333 -0.42241681 0.06340407
-0.60216278 -0.64195347 0.12940045
-0.23701589 0.23946007 0.12803306
-0.38786197 -0.13637643 0.00017785
-0.42902800 -0.22621433 0.10481343
-0.41180289 -0.18583426 0.09160650
-0.49065217 -0.37732190 0.07922513
-0.28928831 0.11777704 0.17750709
-0.21833527 0.28013176 0.07950282
-0.12077573 0.51677644 0.09173818
-0.11672063 0.52606988 0.08629628
-0.63837034 -0.73215103 0.09886262
-0.36740583 -0.07180289 0.16667250
-0.51961929 -0.43425649 0.22170775
-0.48583716 -0.35497409 0.19677505
-0.34648889 -0.01262693 0.26180321
-0.23255670 0.25364861 0.16555795
-0.58466381 -0.60471141 0.07455102
-0.42772245 -0.21245608 0.22108129
-0.42504352 -0.20787451 0.20040812
-0.25902951 0.17665063 0.02209494
-0.48556727 -0.36360368 0.09503477
-0.37420848 -0.09267737 0.11787543
-0.14914364 0.45364490 0.15043238
-0.64415646 -0.74185127 0.14564429
-0.31050402 0.06612474 0.17275800
-0.43923032 -0.25142315 0.09847343
-0.50811261 -0.40302652 0.25953275
-0.60378253 -0.63774437 0.21838811
-0.13389932 0.48859194 0.13008848
-0.51318836 -0.42759183 0.12457503
-0.40638730 -0.14738677 0.36974791
-0.24528173 0.22647022 0.20439012
-0.30526572 0.07348535 0.11481527
-0.43406931 -0.23277426 0.16631965
-0.34044281 0.00619604 0.30813459
-0.33620909 0.01813370 0.32695189
-0.30313656 0.06910171 0.01041440
-0.21716632 0.27780637 0.02307602
-0.08699988 0.59071064 0.00834378
-0.40659487 -0.15266357 0.31739625
-0.22544961 0.27296177 0.18918295
-0.47981218 -0.33898512 0.21259797
-0.45238182 -0.27764773 0.15904784
-0.12075875 0.51892710 0.11486437
-0.27917668 0.13220721 0.06809077
-0.28343377 0.13768259 0.24077462
-0.29963949 0.09584346 0.21101026
-0.21926150 0.27208036 0.01575544
-0.29873976 0.10715819 0.31123129
-0.35955569 -0.04758112 0.22444189
-0.62026876 -0.68408000 0.14676560
-0.49863032 -0.39694214 0.07528524
-0.23560934 0.24706320 0.17415529
-0.44565520 -0.25928974 0.18227211
-0.59049129 -0.61221439 0.14652133
-0.67892313 -0.83054441 0.09347061
-0.58204579 -0.59500504 0.11166866
-0.61595160 -0.67640948 0.11660594
-0.61470020 -0.67892981 0.05586650
-0.17333911 0.38769174 0.06777492
-0.42359817 -0.20623048 0.18017952
-0.20015334 0.32845163 0.12800951
-0.25606477 0.18630193 0.04943235
-0.63494456 -0.71766526 0.16698194
-0.61525762 -0.66864789 0.18330973
-0.62051040 -0.69438672 0.04019231
-0.40576112 -0.17753942 0.02264164
-0.46861437 -0.30993369 0.23471551
-0.54328352 -0.48857155 0.25255945
-0.25385678 0.20398678 0.18486106
-0.29374576 0.11434265 0.25782359
-0.31953496 0.03776857 0.10091624
-0.37944916 -0.08395468 0.35218576
-0.29653364 0.11078040 0.29255477
-0.58102053 -0.60198087 0.00806701
-0.40930089 -0.14941117 0.42466301
-0.42629418 -0.21849851 0.11704524
-0.11793412 0.52222806 0.07629697
-0.44554111 -0.25760153 0.19775856
-0.30683839 0.08775561 0.31286687
-0.20904650 0.29977703 0.04903147
-0.27533942 0.15553062 0.22221158
-0.63051456 -0.71858293 0.03970865
-0.03867487 0.70845205 0.02012782
-0.50085992 -0.40209565 0.07779831
-0.64702046 -0.75877261 0.03596746
-0.32299891 0.03898847 0.20596053
-0.20016550 0.33331028 0.18159223
-0.17022111 0.39668342 0.08382488
-0.55299228 -0.52433211 0.11749865
-0.43506727 -0.21656746 0.37038979
-0.21735042 0.28982431 0.15968983
-0.34975830 -0.02054959 0.26147860
-0.48638177 -0.35411388 0.22061788
-0.33839980 0.01252056 0.32339653
-0.11954959 0.51749611 0.06717729
-0.56979418 -0.55375677 0.23958357
-0.58702886 -0.60313004 0.15447247
-0.46386752 -0.29730481 0.24753097
-0.24586092 0.22832666 0.24006829
-0.13823693 0.47910923 0.14093000
-0.53599221 -0.46855444 0.27902314
-0.19178793 0.34265760 0.06234933
-0.47232771 -0.30687037 0.36656100
-0.43388718 -0.21683609 0.33621481
-0.34726143 -0.00543253 0.36111265
-0.19590552 0.33503360 0.08774476
-0.53136766 -0.46403950 0.20614122
-0.40486246 -0.16929764 0.08920574
-0.23424932 0.24656589 0.13271143
-0.32002792 0.03083689 0.03797662
-0.23053929 0.24749608 0.04472383
-0.26349604 0.17077535 0.07589496
-0.25621292 0.20583113 0.26743284
-0.64662230 -0.74938148 0.12835804
-0.65107328 -0.76648301 0.05869618
-0.59796929 -0.64155734 0.02276894
-0.36989307 -0.07697658 0.17578198
-0.49940363 -0.38107511 0.26968643
-0.14596994 0.44852084 0.01027174
-0.33657923 0.01382125 0.28947419
-0.33525121 0.01816727 0.30197012
-0.44166589 -0.25560433 0.11709628
-0.31614420 0.05320324 0.18037669
-0.37279478 -0.07259297 0.30062768
-0.39223164 -0.12393823 0.25216812
-0.51386684 -0.42507407 0.17012997
-0.19348574 0.35112652 0.20011754
-0.19218978 0.35270518 0.18312603
-0.24081635 0.22619072 0.08315187
-0.41211054 -0.18289401 0.13197929
-0.16337810 0.42080754 0.16717771
-0.29806525 0.08083795 0.00485710
-0.07924870 0.61280316 0.04539090
-0.49034655 -0.35226312 0.34582269
-0.53563422 -0.47026923 0.25075814
-0.37168986 -0.09647296 0.00961308
-0.43943211 -0.22847672 0.35535392
-0.47809505 -0.32864583 0.28049508
-0.14554752 0.44970033 0.01202215
-0.40324840 -0.14020732 0.36537984
-0.35740644 -0.05773698 0.05623383
-0.16745038 0.41135252 0.17130236
-0.45856860 -0.29505870 0.13191850
-0.44025612 -0.23359089 0.32109919
-0.38816679 -0.10317270 0.37222585
-0.39106011 -0.12167967 0.24592239
-0.26714286 0.15799221 0.03227709
-0.31822035 0.04598530 0.15619776
-0.55044526 -0.52040392 0.09315382
-0.33551738 -0.00315926 0.07523164
-0.38817015 -0.13688178 0.00279413
-0.51665783 -0.41897583 0.31083116
-0.59220791 -0.61193925 0.19495699
-0.53655189 -0.48494175 0.11420858
-0.53947926 -0.48267776 0.21649861
-0.41500202 -0.16517772 0.40270773
-0.27994844 0.14204577 0.19636619
-0.40860799 -0.14810967 0.42059305
-0.37330887 -0.06629895 0.38322839
-0.48386222 -0.34759098 0.22544286
-0.60891891 -0.65172362 0.20108207
-0.65436941 -0.77183676 0.08723317
-0.20102175 0.32780254 0.14387643
-0.40903762 -0.17147928 0.17578378
-0.39233041 -0.11457771 0.35739177
-0.16826981 0.39374909 0.00001868
-0.52317822 -0.44441971 0.20448366
-0.13302645 0.49111187 0.13460959
-0.39979258 -0.16155016 0.03996142
-0.11740338 0.52313119 0.07215143
-0.29690805 0.10707012 0.26179054
-0.15641406 0.42542592 0.03350372
-0.35544974 -0.05213754 0.06583225
-0.36708084 -0.06625233 0.21891727
-0.37623537 -0.07284931 0.38887221
-0.55745250 -0.54098850 0.05294811
-0.30917680 0.05910480 0.06068028
-0.41681966 -0.19185217 0.15840454
-0.20403945 0.32125208 0.15193282
-0.48276770 -0.35927218 0.06842748
-0.19705081 0.34219962 0.19660875
-0.10053738 0.56668001 0.10318354
-0.33034870 0.00881584 0.06971662
-0.44733468 -0.25565609 0.26655063
-0.43617752 -0.23138721 0.23731714
-0.54679322 -0.51317012 0.07580160
-0.46021706 -0.30296448 0.08888087
-0.39622703 -0.14132658 0.16729236
-0.58872533 -0.60878503 0.13738133
-0.28726959 0.12597789 0.21398044
-0.36000171 -0.06541466 0.04075392
-0.40721408 -0.17249197 0.11642417
-0.60934579 -0.66585928 0.05744486
-0.16670619 0.40678668 0.10155680
-0.40380254 -0.13646291 0.42109090
-0.16618761 0.41296354 0.15554403
-0.35576805 -0.05818671 0.00794441
-0.63502204 -0.72006273 0.14275651
-0.29209140 0.11217788 0.19031128
-0.43336588 -0.22113635 0.27527916
-0.54335737 -0.50973320 0.02254920
-0.30842930 0.07829250 0.25123447
-0.50805956 -0.40685791 0.21612987
-0.17432092 0.39520133 0.17607827
-0.36479992 -0.05115945 0.32400250
-0.27389842 0.14480662 0.06651920
-0.30736816 0.06514869 0.07906891
-0.67551452 -0.82127690 0.10485315
-0.20546626 0.32214513 0.19948208
-0.36754727 -0.08125871 0.06676078
-0.37904572 -0.10775445 0.08061510
-0.41683328 -0.20092484 0.05930973
-0.28957215 0.11023691 0.10236322
-0.50370258 -0.39054778 0.27961618
-0.47670507 -0.33750105 0.14663824
-0.57481480 -0.57418263 0.14855833
-0.23225521 0.24995902 0.11713344
-0.15869284 0.41920710 0.02563965
-0.57092983 -0.56395733 0.15783601
-0.53774345 -0.49433696 0.04275284
-0.44583949 -0.25935844 0.18639560
-0.32542521 0.03402582 0.21577150
-0.34147736 0.00684001 0.34257287
-0.42327410 -0.20767747 0.15574075
-0.39382905 -0.14595047 0.05314347
-0.42936942 -0.21884342 0.19464920
-0.27943167 0.14396083 0.20368326
-0.42208093 -0.18804938 0.33932844
-0.32562011 0.02627784 0.13599518
-0.04714899 0.68632603 0.00184550
-0.47544044 -0.32567862 0.24276812
-0.07684092 0.61669481 0.02433046
-0.51121420 -0.42036399 0.15156093
-0.50918663 -0.42559192 0.04059351
-0.34814584 -0.01684696 0.25939351
-0.23381647 0.25193608 0.18012442
-0.27649581 0.13443615 0.02157668
-0.34385306 -0.02747675 0.02926326
-0.51624441 -0.43570268 0.11654012
-0.25524214 0.20019618 0.17997126
-0.49198106 -0.36267954 0.27490386
-0.49459371 -0.36893737 0.27544791
-0.29483172 0.11025235 0.24172533
-0.43748179 -0.22165211 0.37855130
-0.34358484 -0.01961468 0.10834871
-0.44422403 -0.25979546 0.13885237
-0.19248593 0.34475580 0.10382212
-0.25581515 0.18328676 0.00977382
-0.49138224 -0.37487009 0.12542240
-0.42281514 -0.21367891 0.07780634
-0.33566487 0.00779257 0.19918942
-0.38805702 -0.13550167 0.01492958
-0.26934755 0.16675965 0.18673238
-0.42782223 -0.22630771 0.07187994
-0.53441805 -0.47577223 0.15825409
-0.27200535 0.15609957 0.14021350
-0.30120179 0.08147796 0.09488023
-0.12124948 0.51217228 0.05380451
-0.28831673 0.11359460 0.10594653
-0.23812912 0.24021584 0.16577940
-0.47136486 -0.31668732 0.23347293
-0.43369883 -0.23303509 0.15365604
-0.09683990 0.56843758 0.02459729
-0.09769962 0.57328969 0.10053758
-0.20634992 0.31869170 0.18501136
-0.44888529 -0.25255662 0.34156394
-0.20758659 0.30333400 0.04938712
-0.59001130 -0.61397505 0.11452284
-0.43859068 -0.23989262 0.20794435
-0.36252451 -0.06590043 0.10219352
-0.46466520 -0.29799291 0.26109764
-0.59776139 -0.63464475 0.09304379
-0.33943006 -0.01929838 0.00186175
-0.25099647 0.21760891 0.25848809
-0.42239881 -0.19469708 0.27486858
-0.57120073 -0.56160289 0.19080719
-0.31262413 0.07441584 0.31975275
-0.55437058 -0.52743435 0.11996795
-0.26156411 0.18494055 0.18004625
-0.29242423 0.09939802 0.05902634
-0.29694012 0.10979180 0.29247493
-0.03855696 0.70949554 0.02844620
-0.36031386 -0.04568511 0.26529074
-0.41415921 -0.18907090 0.11848519
-0.37241054 -0.09571698 0.03697330
-0.51956779 -0.43077153 0.25854677
-0.58633846 -0.59396404 0.23666227
-0.23487547 0.23715989 0.04617325
-0.27839476 0.14088324 0.14250435
-0.19225425 0.34654844 0.11734145
-0.30485585 0.08848620 0.26840851
-0.61564565 -0.66779590 0.20291361
-0.42916712 -0.20334712 0.35916683
-0.23750421 0.24321412 0.18210830
-0.53866315 -0.49084282 0.10539426
-0.44410890 -0.25488630 0.18962067
-0.58078229 -0.58292079 0.21068506
-0.42446369 -0.20607542 0.20478451
-0.12246676 0.50894332 0.05062317
-0.56967360 -0.56565487 0.10598070
-0.38473850 -0.10601283 0.25036353
-0.53165686 -0.47266036 0.11929256
-0.43033019 -0.21989612 0.20853621
-0.30370921 0.08058681 0.15146938
-0.67511487 -0.82353693 0.06950937
-0.31835029 0.05462846 0.25438341
-0.43359908 -0.21667475 0.33035919
-0.55504912 -0.52975488 0.11248756
-0.39012656 -0.12433997 0.19205365
-0.35280859 -0.04407921 0.08427061
-0.10980942 0.53551537 0.00693570
-0.42284119 -0.21926720 0.01723673
-0.57831097 -0.58986974 0.06912090
-0.23288392 0.24077299 0.03307415
-0.50979191 -0.40234298 0.31145945
-0.37967098 -0.10857900 0.08812388
-0.28018966 0.13950555 0.17490426
-0.28292006 0.13596080 0.20830512
-0.36976886 -0.07161753 0.23124100
-0.49656793 -0.39549142 0.03660833
-0.46948141 -0.31161824 0.23919527
-0.43268770 -0.20910172 0.38925540
-0.26638225 0.16133872 0.04883274
-0.43674031 -0.25385991 0.00586477
-0.30200335 0.08754540 0.18260472
-0.55407333 -0.52482831 0.14066891
-0.28961700 0.11054040 0.10687710
-0.46328464 -0.28562900 0.36009321
-0.29380369 0.11725275 0.29125729
-0.25352874 0.18795896 0.00048163
-0.19491643 0.33385724 0.04867368
-0.39781266 -0.13204502 0.31100050
-0.34443763 -0.02550598 0.06633741
-0.53197575 -0.48175806 0.02800336
-0.43734005 -0.25543839 0.00443345
-0.39858034 -0.12863269 0.36872271
-0.02441894 0.29065397 -0.00000436
-0.62372720 -0.69214869 0.14984062
-0.26450080 0.17758042 0.17708278
-0.16950274 0.39936963 0.09425990
-0.11781396 0.51850408 0.03229440
-0.18897162 0.34388742 0.00129816
-0.25515097 0.18498433 0.01080554
-0.24068755 0.22383653 0.05393642
-0.38035521 -0.08916603 0.31903732
-0.32216269 0.05143866 0.32030997
-0.43549699 -0.24259713 0.09642412
-0.48529485 -0.36761650 0.04383682
-0.41885284 -0.18794796 0.25500947
-0.19019248 0.34502047 0.04602818
-0.44367310 -0.26823968 0.03170697
-0.45903343 -0.30555612 0.02914673
-0.43784752 -0.22583491 0.34237808
-0.38931176 -0.11780277 0.24215181
-0.19266541 0.33697060 0.02323002
-0.41693193 -0.17384207 0.35880333
-0.41181010 -0.19410884 0.00109089
-0.42730525 -0.19365250 0.41616467
-0.24972656 0.21645543 0.21223816
-0.06911571 0.63917488 0.06631345
-0.34525958 -0.02583977 0.08443040
-0.41939229 -0.17368354 0.42565268
-0.31387493 0.06893213 0.29274240
-0.19146985 0.34079251 0.03348604
-0.37164447 -0.08266225 0.15980566
-0.56029344 -0.54685056 0.06387166
-0.42728633 -0.20319426 0.31106833
-0.68164939 -0.83461642 0.12097524
-0.33554327 0.01760969 0.30358723
-0.44775522 -0.26326719 0.19424713
-0.38576743 -0.12747578 0.04231632
-0.12854984 0.49762976 0.08758973
-0.52041894 -0.43767235 0.20542683
-0.21356000 0.29777440 0.14652662
-0.23591225 0.23484311 0.04821453
-0.54415435 -0.50807756 0.06178965
-0.35108939 -0.03213973 0.16965355
-0.66414589 -0.79742020 0.06551699
-0.55730772 -0.52603948 0.21298353
-0.48867065 -0.37858695 0.01291687
-0.58662653 -0.59518725 0.23087937
-0.54375470 -0.51132900 0.01557005
-0.40069380 -0.13942415 0.30635834
-0.39232501 -0.14174300 0.05946253
-0.50085509 -0.39023092 0.20773190
-0.30362263 0.08559560 0.20408463
