ply
format ascii 1.0
element vertex 1148
property float x
property float y
property float z
end_header
0.10350737 -0.48360616 0.24988420
0.19321907 0.06329193 0.46646127
0.18241023 -0.31798339 0.44036883
0.21668237 -0.63383216 0.52310771
0.15828350 0.05376307 0.38212192
0.10968344 -0.62345266 0.26479429
0.00358878 0.21602739 0.00866392
0.07440139 0.34105629 0.17961743
0.04366359 -0.49067265 0.10541125
0.06787157 -0.53071851 0.16385341
0.22176880 -0.29616955 0.53538591
0.21939370 -0.43913940 0.52965266
0.11161122 0.40467417 0.26944694
0.20242813 -0.78745311 0.48869556
0.04483109 -0.72318017 0.10822980
0.03897076 -0.70471388 0.09408196
0.11123694 0.22441080 0.26854414
0.21098080 -0.59807861 0.50934315
0.09862295 -0.05038444 0.23809239
0.08006891 -0.53195220 0.19329982
0.09118429 0.38980496 0.22013350
0.19842781 -0.29972163 0.47903746
0.13906123 0.07804861 0.33571652
0.01447460 0.50241870 0.03494413
0.24245159 -0.75306046 0.58531892
0.07854878 -0.03805381 0.18962997
0.09431243 -0.11180362 0.22768608
0.25130516 -0.67251813 0.60669243
0.29592946 -0.74673587 0.71442139
0.01372414 -0.59783351 0.03313238
0.16127875 -0.12097953 0.38935366
0.04788906 0.22267260 0.11561225
0.07682759 -0.61900640 0.18547472
0.30325115 -0.62655789 0.73209649
0.12640287 0.30271244 0.30515650
0.12944581 -0.15925044 0.31250393
0.16604827 -0.10918845 0.40086785
0.28340027 -0.65625376 0.68417412
0.26981628 -0.00302239 0.65137804
0.12817106 -0.61548299 0.30942649
0.28127742 0.05668948 0.67904663
0.25395122 -0.70393544 0.61308050
0.13907763 0.25279540 0.33575538
0.26977319 0.04017375 0.65127385
0.14035679 -0.43147528 0.33884493
0.10873901 -0.14307941 0.26251426
0.12991089 -0.46475646 0.31362674
0.09742230 -0.76836073 0.23519382
0.00800006 0.42647120 0.01931350
0.03988540 0.57704520 0.09628995
0.00655338 0.57660514 0.01582096
0.26660955 -0.34266141 0.64363801
0.24545147 -0.16927767 0.59255862
0.04102634 -0.16533487 0.09904449
0.23444664 -0.39826098 0.56599247
0.28892234 -0.18436942 0.69750357
0.24794950 -0.11928593 0.59858900
0.09332729 0.48345789 0.22530662
0.11984408 0.02286009 0.28932378
0.12600276 0.24958731 0.30419081
0.22587170 -0.11805478 0.54529011
0.07987504 0.46783659 0.19283105
0.07425925 -0.64412534 0.17927432
0.27246365 -0.45350739 0.65777111
0.20526488 -0.55173004 0.49554396
0.12379063 0.39458787 0.29884979
0.17070794 -0.42343926 0.41211769
0.13111182 -0.61659670 0.31652597
0.21293364 0.13777104 0.51405472
0.21619686 -0.31509927 0.52193457
0.00949770 -0.15404734 0.02292905
0.22259465 -0.26117492 0.53737944
0.04491307 0.03518986 0.10842771
0.01471505 -0.64735752 0.03552462
0.06102594 -0.63723439 0.14732687
0.26214027 0.11444042 0.63284653
0.08442846 -0.28844810 0.20382451
0.08043797 -0.07629636 0.19419079
0.04417777 0.46734384 0.10665257
0.01714314 0.30061522 0.04138643
0.24166699 -0.59474820 0.58342421
0.05809737 -0.32804501 0.14025684
0.09960743 0.41637543 0.24046806
0.21114327 -0.26193398 0.50973421
0.10974544 0.33599591 0.26494297
0.08808362 0.31291413 0.21264838
0.19690397 -0.25982913 0.47535855
0.09072078 -0.13146912 0.21901523
0.02881729 0.06381960 0.06956979
0.07787414 0.16486613 0.18800128
0.12947562 -0.25435627 0.31257594
0.11434319 -0.74548888 0.27604371
0.17786437 0.23935661 0.42939213
0.29213148 -0.66732562 0.70525235
0.09784732 -0.19021282 0.23621990
0.07526683 -0.18704113 0.18170679
0.16780514 0.07759026 0.40510836
0.18914129 -0.77941906 0.45661888
0.02096489 0.64781392 0.05061276
0.06239177 -0.18732972 0.15062423
0.01204396 0.40441576 0.02907615
0.08828677 0.45999599 0.21313818
0.08387051 -0.63374817 0.20247751
0.16931587 -0.79641783 0.40875697
0.10822003 -0.56105161 0.26126137
0.04531881 -0.26650214 0.10940724
0.08092750 0.34565845 0.19537234
0.01898685 0.40668163 0.04583745
0.15415391 -0.64578778 0.37215346
0.17461550 0.30179831 0.42154860
0.27907416 -0.42739215 0.67372966
0.08209033 -0.36465505 0.19817986
0.22235055 0.11563942 0.53678852
0.09032205 0.30570409 0.21805231
0.19583727 -0.08480616 0.47278264
0.10453335 -0.54523969 0.25236109
0.10558665 0.15396152 0.25490385
0.11778018 0.28777564 0.28434017
0.10799723 0.06502877 0.26072347
0.01171326 0.35641050 0.02827778
0.16296469 -0.28917226 0.39342418
0.25161701 -0.64969516 0.60744518
0.19076888 0.28380629 0.46054521
0.14522080 -0.54563379 0.35058743
0.03404899 -0.40486693 0.08220000
0.14570054 -0.58367634 0.35174561
0.08465776 -0.20604876 0.20437808
0.00885035 0.17263730 0.02136623
0.06992295 0.21634234 0.16880576
0.06203677 -0.54859138 0.14976721
0.18110317 -0.72050029 0.43721351
0.00432242 0.10097963 0.01043505
0.06054505 0.08238921 0.14616594
0.11198108 0.34074342 0.27034011
0.24359141 0.13210285 0.58806694
0.14228646 -0.02404753 0.34350315
0.14268342 0.40661648 0.34445962
0.21221317 -0.56106532 0.51231831
0.02714928 -0.03368967 0.06554292
0.29444781 -0.56440341 0.71084392
0.02376545 -0.14914949 0.05737380
0.16592588 -0.28557780 0.40057296
0.07045602 0.24882990 0.17009267
0.12009248 -0.09292254 0.28992343
0.02772781 -0.79555678 0.06693960
0.14474031 -0.01102922 0.34942704
0.18940738 0.24960157 0.45725852
0.06552299 0.35777044 0.15818352
0.02836214 -0.78825545 0.06847098
0.20300658 -0.65627849 0.49009204
0.23407079 0.06197273 0.56508315
0.00582309 -0.40792784 0.01405793
0.05154386 -0.49583083 0.12443554
0.23061068 -0.50960648 0.55673236
0.28338027 -0.37348214 0.68412495
0.19187129 -0.11133598 0.46320826
0.14655386 -0.09892091 0.35380557
0.04362472 -0.35638687 0.10531741
0.06370195 -0.02665978 0.15378723
0.01993535 0.44733676 0.04812728
0.25909677 -0.79903990 0.62550294
0.13664380 -0.38120198 0.32988113
0.24876031 -0.40771586 0.60054767
0.07011102 -0.33069846 0.16925979
0.26358327 -0.12624720 0.63633120
0.07426384 -0.63084835 0.17928539
0.24838097 -0.01039947 0.59963024
0.13427515 -0.33241516 0.32416281
0.08942452 0.25508165 0.21588574
0.03645471 0.19899398 0.08800779
0.14442389 0.21820717 0.34866214
0.25299868 -0.73441017 0.61078113
0.01536892 0.04823247 0.03710315
0.14967652 -0.32767466 0.36134428
0.21707360 -0.72019899 0.52405220
0.03318493 0.23852694 0.08011401
0.07412353 -0.73385525 0.17894667
0.20655821 0.25796741 0.49866304
0.15497600 -0.57504004 0.37413815
0.20051710 0.06754044 0.48407972
0.12436287 0.18467115 0.30023217
0.02097957 -0.29929987 0.05064821
0.15929943 0.28402126 0.38457352
0.17763162 -0.31247535 0.42883256
0.20341294 -0.22748715 0.49107194
0.09531302 -0.52992809 0.23010166
0.13752370 0.24580862 0.33200398
0.30512273 -0.52116239 0.73661435
0.16911577 -0.06244831 0.40827301
0.05335739 -0.24619381 0.12881373
0.05120971 -0.56403333 0.12362886
0.28091148 -0.43580401 0.67816520
0.24535590 -0.13428415 0.59232777
0.13064764 0.22659291 0.31540433
0.12356906 0.18589234 0.29831579
0.00645808 -0.78844410 0.01559088
0.01737365 0.42536262 0.04194291
0.10211588 -0.13983326 0.24652492
0.18194684 -0.72228080 0.43925029
0.18594131 -0.75163805 0.44889361
0.08125691 -0.47399813 0.19616784
0.05714041 0.31630975 0.13794655
0.15237345 0.02634545 0.36785433
0.25652215 -0.50219089 0.61928630
0.13250358 0.34549513 0.31988430
0.12049986 -0.20518129 0.29090694
0.00182029 0.30780947 0.00439450
0.04032291 -0.10982052 0.09734628
0.25783291 -0.63758445 0.62245119
0.22942589 -0.27116111 0.55387110
0.03973030 -0.15574118 0.09591563
0.10551109 0.30121392 0.25472078
0.19440261 -0.68661529 0.46932057
0.25813976 -0.00653289 0.62318927
0.07208282 -0.31777710 0.17402005
0.28124076 -0.73666549 0.67896104
0.12231814 -0.09375090 0.29529655
0.03648793 -0.52634472 0.08808799
0.13758473 -0.04515412 0.33215258
0.09949575 0.07492305 0.24019948
0.05827089 0.60250998 0.14067499
0.12546948 -0.78747547 0.30290440
0.05332229 0.36295265 0.12872899
0.18932720 -0.46205837 0.45706770
0.06587295 0.23365703 0.15902837
0.08725559 -0.36804706 0.21064967
0.01802024 -0.42923674 0.04350390
0.01799250 0.74885732 0.04343665
0.26531625 -0.31471470 0.64051563
0.08152712 -0.30057877 0.19682018
0.10641823 -0.34828001 0.25691152
0.14701715 0.41154858 0.35492200
0.11611490 -0.18869476 0.28032091
0.21494354 -0.64398348 0.51890987
0.25104555 -0.04104372 0.60606301
0.09983259 0.28144673 0.24101219
0.10244210 0.45760611 0.24731116
0.15581109 0.01876379 0.37615332
0.04932628 -0.07401537 0.11908195
0.15938435 -0.32077786 0.38478065
0.03760691 -0.36472481 0.09078941
0.22282875 -0.17757313 0.53794426
0.05028215 -0.35987833 0.12138956
0.29155847 -0.10535570 0.70386720
0.04048963 -0.71651810 0.09774878
0.19659448 -0.76330632 0.47461212
0.01274378 0.18130745 0.03076563
0.16708013 -0.54655445 0.40335956
0.11794004 -0.58706021 0.28472710
0.08669982 0.01449090 0.20930794
0.02416975 -0.04876477 0.05834985
0.12397922 0.19649458 0.29930592
0.16587611 -0.40324354 0.40045285
0.14213639 -0.67583591 0.34314117
0.25839090 -0.01493634 0.62379557
0.25163755 -0.65789634 0.60749483
0.21748269 -0.15043388 0.52503800
0.17187276 -0.76257128 0.41492978
0.29839209 -0.67479324 0.72036624
0.22809900 -0.42552885 0.55066848
0.08019769 0.51767898 0.19360976
0.14441904 0.11492855 0.34865090
0.09116409 -0.37574860 0.22008546
0.27279666 -0.64354748 0.65857565
0.02596516 -0.00503559 0.06268425
0.10196786 -0.66401720 0.24616757
0.08641349 -0.09141789 0.20861670
0.16878860 -0.21005051 0.40748382
0.09601574 -0.20291884 0.23179816
0.00588684 -0.34134462 0.01421182
0.29681426 -0.66491246 0.71655720
0.29761305 -0.29521045 0.71848434
0.08268771 0.45449343 0.19962128
0.01264157 0.56964570 0.03051887
0.02316834 -0.03805267 0.05593226
0.12540855 0.10007615 0.30275694
0.04561473 0.30119744 0.11012163
0.06922549 0.01897112 0.16712199
0.09260621 0.22811703 0.22356690
0.00299576 -0.22045092 0.00723228
0.23138016 -0.37885973 0.55858940
0.27536523 -0.46310368 0.66477597
0.12277772 -0.79895544 0.29640606
0.18832685 -0.11753747 0.45465153
0.23245889 -0.62320822 0.56119466
0.04865391 -0.67812210 0.11745873
0.02123529 0.06642468 0.05126556
0.20914969 -0.56350416 0.50492251
0.05132317 -0.29848278 0.12390277
0.05084805 -0.75598907 0.12275575
0.04413992 -0.04186908 0.10656119
0.23786101 -0.75751984 0.57423651
0.23646300 -0.40724492 0.57086021
0.23508027 -0.36573282 0.56752193
0.22538187 -0.57548350 0.54410952
0.14831010 -0.18509713 0.35804555
0.23770301 -0.08574607 0.57385242
0.25990623 -0.38948727 0.62745541
0.01202467 0.76684970 0.02902938
0.06797237 -0.66573131 0.16409674
0.11044059 -0.19170462 0.26662216
0.20506527 -0.31779149 0.49506128
0.25404921 -0.06237920 0.61331433
0.20814665 -0.43824631 0.50250071
0.04709816 -0.46133962 0.11370289
0.12577128 -0.53014183 0.30363303
0.07111777 -0.77912474 0.17169026
0.01173751 -0.52288270 0.02833632
0.28335324 -0.20509125 0.68405908
0.07312729 0.60884070 0.17654040
0.05426026 -0.02133308 0.13099338
0.20050976 -0.29372269 0.48406354
0.14899027 -0.60843873 0.35968757
0.18078890 -0.37577450 0.43645483
0.09084832 0.56097227 0.21932176
0.06508545 0.22367866 0.15712722
0.13402621 -0.18901159 0.32356185
0.29826525 -0.72004592 0.72006017
0.22841316 0.00840711 0.55142504
0.16017380 -0.03298607 0.38668573
0.03457830 0.07196470 0.08347783
0.15195264 0.17250721 0.36683780
0.15575022 0.36463755 0.37600487
0.01035171 0.33705282 0.02499076
0.19251780 -0.08922411 0.46476895
0.08908693 0.26389933 0.21507072
0.22775403 0.14220390 0.54983318
0.02570046 -0.11813117 0.06204522
0.06207301 0.14877509 0.14985467
0.02033202 0.65004975 0.04908492
0.01589258 -0.05601007 0.03836735
0.23129623 0.08168877 0.55838484
0.11924274 -0.04143110 0.28787205
0.02823649 -0.12750158 0.06816765
0.16518402 0.19852202 0.39878014
0.08646394 0.15842406 0.20873849
0.07700555 -0.42183146 0.18590434
0.14925005 -0.22757863 0.36031470
0.10023642 -0.30720901 0.24198759
0.15465485 0.26807928 0.37336090
0.12583476 -0.52017647 0.30378628
0.20202740 -0.07207133 0.48772639
0.08950078 0.56048632 0.21606854
0.17115372 -0.07720019 0.41319302
0.26975986 -0.19740719 0.65124267
0.03325272 0.63840574 0.08027746
0.23055616 -0.13785850 0.55659914
0.13329853 0.11280553 0.32180440
0.03777528 0.06734318 0.09119588
0.09410814 0.34683254 0.22719227
0.05265282 -0.77755332 0.12711276
0.14509426 0.31540030 0.35028011
0.21161287 0.11149177 0.51086628
0.27669102 -0.25202939 0.66797566
0.00124010 0.01995820 0.00299381
0.16576348 0.34328070 0.40017840
0.00009331 -0.62192321 0.00022527
0.12211572 -0.48577625 0.29480788
0.11151242 -0.67575663 0.26920974
0.02660980 -0.29707572 0.06424053
0.20009317 -0.47877318 0.48305854
0.06670376 0.14466949 0.16103411
0.03228093 0.30115935 0.07793159
0.00582925 0.61165309 0.01407280
0.00310599 -0.25909835 0.00749838
0.20668443 -0.49825174 0.49897093
0.00295689 -0.01614874 0.00713844
0.05568460 -0.54422414 0.13443197
0.04429950 -0.57246590 0.10694646
0.26738763 -0.60147786 0.64551753
0.26035696 -0.20164765 0.62854278
0.25494784 -0.13449495 0.61548412
0.02780231 0.16017596 0.06711945
0.12528947 -0.10485104 0.30246985
0.20095733 0.17800231 0.48514202
0.14272778 -0.70520031 0.34456882
0.11341298 -0.50461280 0.27379802
0.01670087 0.44408351 0.04031871
0.04941546 -0.53913862 0.11929724
0.25487730 -0.69509882 0.61531621
0.17228608 -0.03701135 0.41592649
0.26411641 -0.23867260 0.63761878
0.26540777 -0.56849694 0.64073771
0.00900523 0.55324382 0.02174014
0.19146211 0.25080669 0.46221894
0.11806056 -0.12364167 0.28501806
0.22879577 0.04183477 0.55234849
0.17969933 -0.64460242 0.43382439
0.25925896 -0.79082638 0.62589443
0.28245601 -0.02764604 0.68189222
0.21044713 -0.00035995 0.50805253
0.07771474 -0.49263448 0.18761645
0.19397724 0.14028145 0.46829125
0.00780502 0.47903806 0.01884262
0.24404471 -0.75937176 0.58916497
0.00774771 -0.60407639 0.01870428
0.26405117 -0.47434348 0.63746226
0.27821395 -0.36129481 0.67165273
0.12306904 0.40248349 0.29710773
0.04969923 -0.20713419 0.11998230
0.29107004 -0.47960970 0.70268935
0.13098472 -0.77374291 0.31621918
0.21990748 -0.63903892 0.53089362
0.19237906 0.02719798 0.46443349
0.12985519 0.34447306 0.31349069
0.11571492 0.28376371 0.27935436
0.14202006 -0.56061244 0.34286031
0.01377617 0.51953667 0.03325800
0.09964082 -0.33383226 0.24054968
0.10719353 0.20945689 0.25878286
0.07939659 -0.53930438 0.19167672
0.29288998 -0.61173493 0.70708328
0.05258059 -0.66069567 0.12693839
0.11931420 0.16562703 0.28804404
0.19189255 0.06666283 0.46325883
0.07642068 0.36263877 0.18449217
0.19192749 -0.16362584 0.46334419
0.01232707 0.53889650 0.02975961
0.06022974 -0.35163563 0.14540473
0.11979968 -0.38055068 0.28921658
0.14233640 -0.42200977 0.34362400
0.09110870 0.10393819 0.21995173
0.16925919 -0.49944645 0.40862015
0.01231660 -0.15530775 0.02973434
0.09927645 -0.44616488 0.23967004
0.16513774 -0.37588832 0.39867029
0.17363364 -0.23549308 0.41918057
0.23286235 -0.41864091 0.56216782
0.10903028 0.17533188 0.26321715
0.28482482 -0.72269273 0.68761337
0.24676900 0.12523548 0.59573805
0.17173068 -0.42743748 0.41458675
0.19939224 0.25904569 0.48136336
0.25271320 -0.03762519 0.61008888
0.19430535 -0.10168827 0.46908438
0.24000096 0.12703684 0.57939905
0.00798878 -0.02276229 0.01928626
0.20065396 -0.25034153 0.48441145
0.16145012 -0.74087888 0.38976774
0.08272969 -0.69110507 0.19972338
0.23328687 -0.34182760 0.56319237
0.00345181 -0.73670983 0.00833324
0.20962845 -0.09997727 0.50607651
0.15705363 -0.78399402 0.37915388
0.08989293 -0.69671893 0.21701667
0.05442304 0.05644268 0.13138637
0.02207446 0.40501052 0.05329145
0.00110906 -0.30435225 0.00267746
0.28858599 0.04027259 0.69669056
0.08475757 0.15124868 0.20461902
0.07668931 0.09094752 0.18514089
0.05777364 0.51905012 0.13947491
0.16398345 -0.51564133 0.39588362
0.08200095 -0.11645647 0.19796409
0.05827188 0.15214945 0.14067812
0.04748498 -0.14098454 0.11463674
0.15410519 0.31257072 0.37203377
0.29933661 -0.66046292 0.72264642
0.16120997 -0.35731167 0.38918799
0.02178246 0.53124642 0.05258652
0.01071171 -0.35899958 0.02585986
0.00944690 -0.69960934 0.02280640
0.03680819 -0.23126677 0.08886115
0.26149434 -0.03875685 0.63128787
0.29288116 -0.35784343 0.70706123
0.02338243 0.30892226 0.05644912
0.15884688 -0.08318604 0.38348258
0.16429359 0.27957061 0.39663014
0.15697525 -0.50965863 0.37896466
0.30249766 -0.55133170 0.73027724
0.00922118 0.74330926 0.02226148
0.18112709 -0.64338392 0.43727124
0.08312125 0.39175144 0.20066819
0.21906343 -0.57222986 0.52885592
0.04701776 -0.05580608 0.11350877
0.25581858 -0.27227575 0.61758673
0.00045102 -0.41026756 0.00108885
0.07850092 -0.10002907 0.18951444
0.05901839 0.63973558 0.14247940
0.15894207 -0.72201413 0.38371289
0.27170163 -0.05613056 0.65592974
0.09522314 -0.63069546 0.22988467
0.06447736 -0.14723298 0.15565918
0.08321895 0.12937263 0.20090453
0.13802591 0.27642521 0.33321628
0.04326834 -0.34891394 0.10445704
0.06419826 -0.10630232 0.15498541
0.00332430 0.01614711 0.00802543
0.04046467 -0.50871336 0.09768851
0.26719362 0.03907359 0.64504641
0.06671558 -0.28542981 0.16106263
0.01222046 -0.71411979 0.02950225
0.27192274 -0.59846938 0.65646577
0.19122043 -0.61601847 0.46163827
0.13892822 -0.74829429 0.33539608
0.23900461 -0.51192552 0.57699651
0.06467988 -0.04314109 0.15614811
0.10422138 0.44975027 0.25160661
0.23799154 -0.01605064 0.57454866
0.09620060 -0.47959277 0.23224445
0.29333416 -0.54203182 0.70815539
0.23368643 -0.72385663 0.56415832
0.26756844 -0.16467784 0.64595217
0.09958273 -0.12218498 0.24040945
0.20170237 0.24598877 0.48694035
0.04350204 -0.15472881 0.10502124
0.03226656 0.46366808 0.07789689
0.12220596 0.22557074 0.29502490
0.22698849 -0.40853724 0.54798746
0.15757287 0.37001523 0.38040498
0.22039871 -0.73611856 0.53207958
0.11973499 -0.57872778 0.28906041
0.19256648 0.26172984 0.46488500
0.24340387 -0.12553176 0.58761525
0.25574064 -0.24593061 0.61739850
0.10486491 -0.49534601 0.25316152
0.05128125 -0.65120643 0.12380155
0.15685731 -0.29420656 0.37867993
0.07292170 -0.74962187 0.17604525
0.13478085 -0.40418300 0.32538363
0.28606424 0.00018530 0.69060290
0.08594720 -0.77533585 0.20749100
0.13205934 -0.75110334 0.31881344
0.14262389 0.15233368 0.34431696
0.23939949 -0.65956110 0.57795048
0.01511401 -0.16261677 0.03648775
0.22944023 -0.05031757 0.55390471
0.25950518 -0.71881437 0.62648863
0.18978806 -0.27722475 0.45817977
0.01706141 -0.52838355 0.04118912
0.24425732 -0.76748699 0.58967823
0.19785170 -0.20339935 0.47764623
0.00672636 0.19218808 0.01623856
0.03189380 -0.66729748 0.07699699
0.18508753 0.10794188 0.44683039
0.03019287 -0.40385300 0.07289066
0.12239126 -0.35551807 0.29547310
0.28845549 -0.73995018 0.69637829
0.05952115 -0.52573001 0.14369407
0.02073887 -0.07312479 0.05006711
0.25539830 -0.64326400 0.61657375
0.19632594 -0.44208926 0.47396386
0.16250546 0.23676720 0.39231357
0.05706495 0.11749082 0.13776438
0.10342942 -0.56295675 0.24969602
0.07583206 0.30158865 0.18307136
0.16082412 -0.01622539 0.38825563
0.05457656 -0.66446322 0.13175701
0.10558960 0.03585001 0.25491104
0.07865791 -0.16360459 0.18989342
0.04781817 -0.66707271 0.11544110
0.15290014 0.03397000 0.36912584
0.15796497 -0.15594831 0.38135386
0.08739060 0.40950575 0.21097492
0.09585095 -0.61853993 0.23140030
0.12701662 0.22132432 0.30663854
0.21665111 0.12222143 0.52302927
0.20058678 -0.05383926 0.48424846
0.26632836 0.07549428 0.64295733
0.11079749 -0.09563250 0.26748377
0.04555128 -0.76619893 0.10996846
0.04042668 0.40675774 0.09759681
0.14201742 -0.08636703 0.34285390
0.04781052 0.06825368 0.11542263
0.18009599 0.28358737 0.43477935
0.14510971 -0.66990799 0.35031927
0.23838036 0.16571876 0.57548654
0.18557455 -0.24227346 0.44800761
0.06208222 -0.21817018 0.14987694
0.15418166 -0.19947086 0.37222046
0.29786792 -0.33802715 0.71909982
0.03523693 -0.11334937 0.08506788
0.02778657 -0.58761573 0.06708145
0.26903433 -0.70988321 0.64949310
0.11263891 0.02915296 0.27192926
0.26469773 0.01530157 0.63902104
0.21600020 0.09648331 0.52145797
0.24184540 -0.09306723 0.58385277
0.07200182 0.52788782 0.17382371
0.04914497 -0.76119506 0.11864423
0.11933510 0.30367059 0.28809392
0.04589163 -0.66899782 0.11079011
0.21609233 -0.62469012 0.52168328
0.02844085 0.03911300 0.06866100
0.03906602 0.69067246 0.09431137
0.17576303 -0.56793338 0.42432153
0.08850117 -0.39814436 0.21365671
0.16221526 0.21863984 0.39161304
0.03017791 -0.79376209 0.07285454
0.25117084 0.12507337 0.60636473
0.04365712 -0.63543296 0.10539563
0.23546012 -0.25702527 0.56843847
0.13671432 -0.29604766 0.33005139
0.21552509 -0.55556625 0.52031380
0.11790730 -0.49166965 0.28464806
0.05636410 -0.56897700 0.13607241
0.21031472 -0.40276963 0.50773460
0.19287404 0.20850660 0.46562770
0.06081038 -0.06200995 0.14680648
0.29505441 -0.73855293 0.71230882
0.06697080 0.14507926 0.16167878
0.05085174 0.17927359 0.12276465
0.22390833 -0.13204689 0.54055035
0.17066287 -0.73006219 0.41200885
0.09245606 -0.36439741 0.22320448
0.07502978 -0.62260610 0.18113451
0.28334087 -0.61367625 0.68403059
0.10006764 0.04022074 0.24158011
0.02399192 0.67024660 0.05792045
0.06176409 -0.64552212 0.14910890
0.03933196 0.08130544 0.09495397
0.07039665 -0.49124843 0.16994934
0.14253725 -0.44522405 0.34410891
0.10379819 -0.25430873 0.25058630
0.10148394 -0.57745588 0.24499930
0.17746571 0.17533658 0.42842996
0.04870805 -0.50410628 0.11758942
0.28387636 0.00502547 0.68532097
0.30384555 -0.15994313 0.73353004
0.11465297 0.20240831 0.27679101
0.22639968 -0.51909715 0.54656643
0.24468850 -0.40461031 0.59071773
0.18733528 -0.35952964 0.45225880
0.00623031 -0.02323883 0.01504102
0.17218216 -0.23416112 0.41567647
0.26322439 -0.39598534 0.63546598
0.07947306 0.23229322 0.19186133
0.17249312 -0.06797044 0.41642645
0.00920416 -0.73788404 0.02222039
0.04370241 0.42757595 0.10550497
0.10340203 -0.15737510 0.24962990
0.01463121 0.26453885 0.03532221
0.28922582 -0.67609429 0.69823778
0.07811831 0.42829877 0.18859021
0.16338135 -0.00375454 0.39442909
0.16725761 -0.45725095 0.40378800
0.06198064 0.52082801 0.14963122
0.06401134 -0.55991185 0.15453415
0.12352052 0.01316976 0.29819930
0.09952778 -0.75520235 0.24027680
0.21927591 -0.17977597 0.52936715
0.04040427 -0.04659070 0.09754270
0.10084590 0.50555545 0.24345750
0.24205209 -0.04207419 0.58435154
0.00310530 0.57297832 0.00749671
0.00238968 -0.03376472 0.00576908
0.24959771 -0.15902855 0.60256821
0.05486733 -0.55567205 0.13245896
0.21425039 -0.68088204 0.51723647
0.12879631 -0.68918568 0.31093594
0.27789867 -0.79659051 0.67089301
0.23750122 -0.74687701 0.57336789
0.22716703 -0.03700483 0.54841685
0.14136694 -0.19897915 0.34128359
0.05266539 -0.50283319 0.12714311
0.26088491 -0.24749382 0.62981749
0.03556722 -0.30494842 0.08586524
0.04161089 -0.50893402 0.10045568
0.25837591 0.10188485 0.62375891
0.06805848 0.10434078 0.16430461
0.25741202 -0.12681793 0.62143290
0.11806342 -0.75416297 0.28502494
0.11266621 -0.28497499 0.27199519
0.08189752 0.31709105 0.19771424
0.09935101 -0.27524537 0.23985004
0.17196842 -0.35313332 0.41516069
0.27859229 -0.39395967 0.67256624
0.23364671 -0.16679765 0.56406027
0.24178433 -0.01097600 0.58370501
0.12603556 -0.52460670 0.30427101
0.07960918 -0.28948063 0.19218996
0.03275073 0.46349892 0.07906578
0.22181658 -0.33940595 0.53550142
0.23333941 -0.14712574 0.56331837
0.21768565 0.23029208 0.52552634
0.16035230 -0.44521415 0.38711745
0.09774132 0.09691575 0.23596399
0.10549673 0.08492061 0.25468686
0.16949788 -0.11584340 0.40919572
0.29045501 -0.65614516 0.70120513
0.18599936 -0.68225515 0.44903374
0.00280908 0.08030421 0.00678158
0.18103288 -0.74769980 0.43704382
0.20244001 -0.05804322 0.48872244
0.17051524 -0.59838474 0.41165248
0.14501889 -0.54955542 0.35009998
0.28398845 -0.48462075 0.68559355
0.28645918 -0.44819471 0.69155806
0.22515850 -0.00304592 0.54356784
0.25674185 -0.71669960 0.61981761
0.05098571 0.03118660 0.12308807
0.01678663 0.13676015 0.04052575
0.16073041 -0.78908682 0.38803023
0.28148893 -0.65346062 0.67955989
0.27164882 -0.14718907 0.65580267
0.18446581 -0.75086761 0.44533151
0.14836922 0.37429014 0.35818607
0.00741235 0.00014772 0.01789465
0.07551414 0.14772755 0.18230383
0.25325713 -0.54383820 0.61140418
0.05577497 -0.01272040 0.13465016
0.15588279 -0.17690748 0.37632725
0.05935907 -0.20170319 0.14330278
0.22043364 -0.37874830 0.53216296
0.28055811 -0.70937192 0.67731297
0.19002379 -0.05312259 0.45874792
0.01468880 -0.01280435 0.03546124
0.26040202 -0.45989367 0.62865263
0.25025314 -0.42432538 0.60415167
0.04947586 0.31797686 0.11944306
0.08894630 -0.01512214 0.21473132
0.19094718 -0.13933633 0.46097746
0.23501374 0.08058597 0.56735945
0.01627385 -0.50881547 0.03928781
0.14584877 0.41881612 0.35210112
0.06172268 -0.79535955 0.14900891
0.10245623 -0.33460471 0.24734657
0.21378294 -0.72120112 0.51610798
0.05641668 0.42994601 0.13619937
0.24780601 0.12392037 0.59824157
0.12795356 -0.35842592 0.30890140
0.10403731 -0.59973311 0.25116357
0.09664306 -0.08278503 0.23331261
0.23068549 -0.30846539 0.55691206
0.22720644 -0.46474755 0.54851383
0.05272772 0.09436951 0.12729359
0.00758434 0.52708292 0.01830987
0.06130939 0.41852114 0.14801115
0.11446820 -0.20016550 0.27634549
0.14644656 -0.70403671 0.35354659
0.00302131 -0.69278204 0.00729395
0.12730023 -0.18680638 0.30732417
0.15367924 0.38789934 0.37100512
0.21051039 -0.32671645 0.50820661
0.04050355 0.09442145 0.09778237
0.24941467 -0.59386116 0.60212821
0.03849236 -0.66865820 0.09292703
0.19284035 -0.00957754 0.46554732
0.02982076 0.62711060 0.07199227
0.06200689 -0.59350574 0.14969505
0.17228027 0.18886049 0.41591150
0.07050625 0.03231169 0.17021395
0.23803750 -0.02865626 0.57465965
0.08948201 -0.75057352 0.21602461
0.17317010 -0.76587832 0.41806176
0.20591170 -0.53503644 0.49710548
0.04055059 -0.78627056 0.09789595
0.04008672 -0.65439594 0.09677608
0.18463495 -0.78906256 0.44573984
0.18270288 0.30055487 0.44107267
0.05479951 -0.22668663 0.13229522
0.12570521 0.40303162 0.30347183
0.19017822 -0.31000313 0.45912182
0.11124249 -0.64347184 0.26855808
0.25097385 -0.10306359 0.60589021
0.01155685 -0.61372286 0.02790018
0.19186470 -0.20993233 0.46319279
0.08395812 -0.53877991 0.20268904
0.12522040 -0.36455482 0.30230314
0.22752103 -0.68037134 0.54927403
0.27475837 -0.60077399 0.66331136
0.27070954 -0.02186364 0.65353453
0.19045971 -0.70298779 0.45980179
0.25696880 -0.75904721 0.62036562
0.26630741 -0.77398324 0.64291024
0.22389904 -0.00536862 0.54052728
0.01452485 -0.75756276 0.03506543
0.19122262 -0.63798904 0.46164358
0.04165628 -0.37431151 0.10056527
0.03538322 0.38236356 0.08542103
0.13599329 -0.25097656 0.32831070
0.27841166 -0.03301801 0.67212862
0.07809441 -0.69259328 0.18853305
0.13140966 0.17018867 0.31724417
0.11279571 0.09880571 0.27230778
0.07429555 -0.24158919 0.17936195
0.27446476 -0.19248962 0.66260087
0.21492638 0.19269533 0.51886517
0.25409770 -0.73356175 0.61343426
0.00346807 0.65566230 0.00837250
0.09536694 0.05574437 0.23023184
0.01161110 -0.59199196 0.02803116
0.00453122 -0.79499179 0.01093912
0.22563770 -0.28748378 0.54472595
0.09457436 -0.17571332 0.22831841
0.26361895 -0.24309771 0.63641787
0.05835378 0.10164995 0.14087585
0.09879308 -0.54041469 0.23850311
0.22764441 -0.66199303 0.54957193
0.02476773 -0.77944243 0.05979347
0.16123056 -0.63663435 0.38923773
0.01452225 -0.00717552 0.03505916
0.25705874 -0.45469403 0.62058145
0.03190182 -0.12801015 0.07701635
0.03544775 -0.38268426 0.08557683
0.13322218 0.07508369 0.32162026
0.19616759 -0.61088228 0.47358155
0.03804947 0.08203663 0.09185783
0.29256669 -0.39961508 0.70630217
0.10010521 0.28440642 0.24167033
0.00132611 0.53627467 0.00320144
0.29333845 -0.74194819 0.70816630
0.17987309 0.23407349 0.43424147
0.27785203 -0.63527864 0.67077988
0.01826259 0.31798664 0.04408895
0.06013404 -0.64371800 0.14517370
0.03178719 -0.24462847 0.07673963
0.24556267 -0.61703384 0.59282905
0.22894181 -0.00363941 0.55270129
0.27766085 -0.49928650 0.67031795
0.18246081 -0.37659135 0.44049111
0.18552707 -0.34442556 0.44789344
0.15135074 -0.69144392 0.36538616
0.14570391 -0.66624761 0.35175377
0.03765372 -0.27155188 0.09090242
0.30421788 -0.44667360 0.73442972
0.12941980 -0.66297436 0.31244117
0.22301707 -0.46490732 0.53840011
0.30354148 -0.35369852 0.73279655
0.05404405 0.35616872 0.13047144
0.14567891 0.14429662 0.35169226
0.19199441 -0.77297771 0.46350679
0.00583287 0.52461374 0.01408153
0.17188609 -0.39165616 0.41496193
0.02347691 0.58261156 0.05667721
0.05835774 0.44313884 0.14088535
0.18732581 -0.29890278 0.45223564
0.12661090 -0.40585297 0.30566001
0.02457285 0.54919368 0.05932299
0.20864069 -0.62027973 0.50369376
0.01040170 -0.05461128 0.02511146
0.08469896 -0.64082670 0.20447753
0.04824570 0.61949468 0.11647271
0.11292300 0.20069520 0.27261463
0.07080641 -0.65428042 0.17093858
0.15963992 0.35058278 0.38539523
0.17440394 -0.35742384 0.42104045
0.17738613 -0.28161561 0.42823979
0.07518484 -0.21208386 0.18150885
0.03839261 -0.09162654 0.09268622
0.14265165 -0.52034032 0.34438509
0.27876139 -0.62732440 0.67297518
0.28477681 -0.49160504 0.68749672
0.17147569 -0.35231009 0.41397119
0.00561876 0.41942307 0.01356463
0.05318540 -0.69079429 0.12839849
0.12497641 -0.46217185 0.30171409
0.11018215 -0.33804831 0.26599824
0.05646074 0.37622395 0.13630572
0.12726471 0.05314241 0.30723819
0.27117595 -0.52562463 0.65466267
0.27480051 -0.22075564 0.66341156
0.07877395 -0.08509303 0.19017357
0.09767736 -0.67634356 0.23580958
0.16623674 0.29590967 0.40132111
0.18311995 -0.53399611 0.44208235
0.06897939 0.32948428 0.16652784
0.22257669 -0.64282471 0.53733760
0.01277468 -0.58436948 0.03084022
0.01981831 0.28963506 0.04784473
0.12679991 -0.24004842 0.30611631
0.10243901 0.47103089 0.24730363
0.08276284 0.51630968 0.19980238
0.14032100 -0.16301344 0.33875850
0.09369253 0.37078583 0.22618884
0.09641466 -0.33968157 0.23276120
0.08920669 -0.47329646 0.21535997
0.03476259 -0.65013546 0.08392275
0.13376607 -0.32818145 0.32293379
0.08411269 -0.76751524 0.20306218
0.23436984 -0.47168115 0.56580734
0.07296074 -0.40975377 0.17613950
0.21571162 -0.64444900 0.52076417
0.27666587 -0.33307657 0.66791534
0.06369461 0.26020423 0.15376949
0.08462270 -0.62626678 0.20429343
0.28459385 -0.74403268 0.68705583
0.13416535 -0.74502784 0.32389769
0.24744456 0.05401734 0.59736925
0.06747151 -0.33373591 0.16288757
0.12673289 -0.59020805 0.30595449
0.27242276 -0.71339750 0.65767324
0.12820584 -0.27739662 0.30951047
0.11750982 -0.79691857 0.28368846
0.20351833 -0.71187401 0.49132749
0.21761517 -0.66200036 0.52535963
0.08302151 -0.53052121 0.20042789
0.23554999 0.13920453 0.56865376
0.14904413 -0.10473522 0.35981742
0.12775835 -0.46882728 0.30843017
0.29282781 -0.46451497 0.70693278
0.10307829 -0.60955399 0.24884833
0.24274227 0.14806445 0.58601689
0.24500866 0.15062562 0.59148824
0.25513375 -0.49939406 0.61593443
0.27082974 -0.03932246 0.65382487
0.28484976 -0.12631389 0.68767148
0.17256312 -0.01552741 0.41659522
0.06814084 -0.47590607 0.16450346
0.07045414 -0.06910551 0.17008816
0.05447280 0.47301140 0.13150643
0.09825308 -0.05100242 0.23719946
0.22925520 0.14485881 0.55345720
0.14503817 -0.39338306 0.35014653
0.04951956 -0.67023653 0.11954855
0.09052545 -0.66925079 0.21854366
0.12855399 -0.24305268 0.31035095
0.09669307 0.10713148 0.23343334
0.08379338 0.11542334 0.20229129
0.09749564 0.06344775 0.23537087
0.00941340 -0.70764065 0.02272554
0.20564672 -0.46467033 0.49646565
0.17281681 0.09922837 0.41720721
0.16465399 -0.65380394 0.39750239
0.09680723 0.41360420 0.23370796
0.03993650 -0.73387337 0.09641342
0.08475616 -0.55805326 0.20461562
0.09756792 -0.30545917 0.23554537
0.12425851 -0.65365595 0.29998094
0.25650588 -0.12109456 0.61924529
0.06197774 0.36429489 0.14962468
0.01403926 -0.09580064 0.03389315
0.11410396 -0.58726668 0.27546614
0.29520017 -0.49845582 0.71266007
0.17009154 0.31882322 0.41062704
0.26218295 -0.59858322 0.63295269
0.10847320 0.35296404 0.26187152
0.21222661 0.08544881 0.51234806
0.14495657 0.29097775 0.34994784
0.19732872 -0.59129244 0.47638473
0.22837952 -0.14804260 0.55134445
0.26846936 -0.47787228 0.64812839
0.07132341 -0.57224190 0.17218672
0.07878088 -0.02674258 0.19019030
0.21952643 0.14077429 0.52997059
0.01401894 0.66527832 0.03384409
0.26291794 -0.43603981 0.63472629
0.05703571 0.43638998 0.13769379
0.18356536 -0.35725966 0.44315767
0.13168758 -0.57152849 0.31791595
0.22537723 0.00720330 0.54409581
0.10841069 -0.60336715 0.26172164
0.17599770 -0.14783572 0.42488736
0.28815225 -0.39263871 0.69564521
0.02479236 -0.28628337 0.05985292
0.05338892 0.09744723 0.12888983
0.23663586 -0.17812873 0.57127655
0.15695225 -0.28872910 0.37890911
0.23266961 -0.39986625 0.56170243
0.05852104 -0.15919694 0.14127964
0.17850932 0.15905541 0.43094945
0.13873626 -0.29092941 0.33493268
0.23350319 -0.29442188 0.56371439
0.26249361 -0.48152646 0.63370216
0.09951983 -0.27388653 0.24025762
0.26129279 -0.52191955 0.63080335
0.13647228 -0.70823741 0.32946703
0.13135502 -0.79514343 0.31711310
0.09001500 -0.40848359 0.21731137
0.28363326 -0.09435908 0.68473458
0.04715037 -0.77813685 0.11382894
0.16127993 -0.38973594 0.38935688
0.27662161 -0.59495097 0.66780943
0.16405912 -0.05567149 0.39606553
0.13293125 0.22051518 0.32091728
0.01285913 -0.68393558 0.03104411
0.08074415 -0.70777690 0.19492997
0.22864164 -0.12633678 0.55197722
0.02834533 0.17013790 0.06843039
0.28639299 -0.48744529 0.69139838
0.13278849 -0.17224914 0.32057375
0.25129247 0.13901405 0.60665834
0.18862823 -0.02671015 0.45537871
0.05087320 -0.25435326 0.12281647
0.22871847 -0.71392483 0.55216485
0.18771800 0.09635968 0.45318076
0.21485169 0.22537883 0.51868474
0.02102223 0.21807864 0.05075120
0.26320359 -0.06773617 0.63541430
0.29806238 -0.19852161 0.71956885
0.21282859 -0.21348971 0.51380259
0.25597918 -0.08599882 0.61797369
0.02078650 -0.72927374 0.05018212
0.11763832 -0.48713553 0.28399870
0.08531702 -0.09519121 0.20596965
0.11190237 -0.07431886 0.27015114
0.03775121 -0.25885043 0.09113778
0.11729410 0.32095855 0.28316656
0.02927439 -0.78421509 0.07067330
0.16450973 -0.78710455 0.39715418
0.01465662 0.35380360 0.03538354
0.06633956 -0.24282666 0.16015486
0.21061058 -0.46036008 0.50844908
0.16736184 -0.62108582 0.40403962
0.05867649 -0.02154252 0.14165492
0.23092379 -0.26309329 0.55748719
0.14228651 -0.73500395 0.34350356
0.03751423 -0.79746312 0.09056567
0.04498769 -0.23301297 0.10860784
0.09772084 -0.64493245 0.23591454
0.05435866 0.04109530 0.13123097
0.13297495 0.43712363 0.32102185
0.16575818 -0.54099548 0.40016815
0.10877031 -0.49337980 0.26258984
0.08538686 0.44700781 0.20613743
0.01395050 -0.61607355 0.03367886
0.04802039 -0.79625481 0.11592931
0.02129532 0.35909808 0.05141048
0.21399251 -0.61343086 0.51661390
0.15307668 0.39469931 0.36955068
0.28093827 -0.71726704 0.67823070
0.10188806 -0.14479478 0.24597491
0.06390722 0.33798084 0.15428276
0.01591256 -0.42176199 0.03841561
0.04731477 -0.52600849 0.11422581
0.12706620 -0.77695036 0.30675915
0.18638365 -0.09475283 0.44996026
0.17533246 -0.54946750 0.42328206
0.06584863 0.36187223 0.15896967
0.03708027 -0.56498897 0.08951801
0.04274424 -0.39641106 0.10319179
0.29908022 -0.56424189 0.72202718
0.14207694 -0.77164555 0.34299764
0.10270876 0.38096473 0.24795523
0.04589691 0.45547622 0.11080287
0.17774454 -0.34932196 0.42910522
0.00162686 0.44096795 0.00392751
0.11091939 -0.29951671 0.26777807
0.12846224 -0.64992362 0.31012946
0.07534583 -0.77439749 0.18189751
0.23761731 0.02354810 0.57364506
0.09612588 -0.16272420 0.23206402
0.11084845 -0.02021980 0.26760682
0.09745576 -0.27525148 0.23527458
0.16430469 -0.45832393 0.39665914
0.28110817 -0.30994076 0.67863959
0.03428269 0.42401108 0.08276418
0.08643485 -0.16793495 0.20866828
0.24652293 -0.01698296 0.59514463
0.25628507 -0.10387196 0.61871219
0.19279130 -0.42106628 0.46543065
0.15302397 -0.31611508 0.36942562
0.05268417 -0.48830757 0.12718844
0.08054605 -0.32010689 0.19445170
0.27931213 0.05469856 0.67430210
0.01813310 -0.79615813 0.04377635
0.30462787 -0.62331349 0.73542005
0.23761263 -0.38151538 0.57363552
0.20722842 -0.45623088 0.50028402
0.02745313 0.40349150 0.06627647
0.09220404 0.38356739 0.22259535
0.18917976 -0.78648990 0.45671177
0.28304237 -0.09325470 0.68330806
0.08153805 -0.41343409 0.19684656
0.21180964 -0.42728272 0.51134360
0.13082267 -0.47260737 0.31582797
0.08201485 0.47103268 0.19799682
0.22298443 0.20273007 0.53831846
0.19552076 -0.11920100 0.47201866
0.14553230 -0.13298203 0.35133943
0.28861141 -0.63649750 0.69675440
0.11023266 -0.44878364 0.26612020
0.21234511 -0.03789251 0.51263463
0.15126173 0.31668562 0.36516923
0.06779354 -0.33770257 0.16366501
0.16164401 -0.18303517 0.39023569
0.15511192 -0.20656735 0.37446627
0.14294131 -0.31363392 0.34508437
0.07332060 -0.23390003 0.17700827
0.02741883 0.53823262 0.06619368
0.20701174 -0.24299943 0.49976006
0.17710981 -0.44512242 0.42757285
0.06662468 -0.18752579 0.16084318
0.07175170 -0.09031067 0.17322068
0.06440448 0.60582519 0.15548234
0.21238977 0.03980597 0.51274210
0.13307025 0.18644360 0.32125300
0.09269767 0.30915812 0.22378735
0.25691882 -0.30785933 0.62024307
0.14989737 -0.66664362 0.36187744
0.14189902 -0.13808464 0.34256810
0.00103094 -0.38600904 0.00248887
0.26262602 0.06155851 0.63401943
0.03358715 -0.71795583 0.08108503
0.12447504 0.45239159 0.30050179
0.07500750 -0.00280002 0.18108071
0.07667725 -0.43674406 0.18511178
0.17981240 -0.26570335 0.43409708
0.11311490 0.13734418 0.27307817
0.09791888 -0.58692986 0.23639265
0.13679808 0.29669249 0.33025205
0.22365125 0.13414286 0.53992856
0.12347351 -0.15473492 0.29808581
0.29093298 -0.35417691 0.70235807
0.16365981 -0.47287121 0.39510232
0.03193456 0.64430606 0.07709521
0.08754906 0.42766511 0.21135738
0.20221509 -0.42534125 0.48818102
0.11479171 -0.66865897 0.27712649
0.19167662 0.15435772 0.46273717
0.04683271 0.15690047 0.11306204
0.23026571 -0.58492845 0.55589986
0.15325461 0.15066978 0.36998108
0.17673123 0.25296110 0.42665648
0.12915801 -0.52580416 0.31180912
0.27668163 -0.03555107 0.66795206
0.06962758 -0.06732530 0.16809268
0.09763901 -0.04541730 0.23571700
0.01818359 0.28813782 0.04389825
0.07082176 0.56613314 0.17097472
0.18736231 -0.45947260 0.45232415
0.16792808 -0.55413485 0.40540662
0.07798861 -0.50389844 0.18827762
0.05337476 0.44262955 0.12885566
0.06096404 0.39368057 0.14717744
0.04790965 -0.74241239 0.11566196
0.24956058 -0.13333504 0.60247844
0.16787612 -0.60145181 0.40528119
0.29923972 -0.69391590 0.72241259
0.03347182 -0.22501369 0.08080660
0.03029980 -0.04764663 0.07314880
0.07057663 0.25612509 0.17038386
0.17897090 -0.34117594 0.43206587
0.20104966 -0.12306004 0.48536617
0.11193835 0.01835050 0.27023801
0.07288441 0.05446434 0.17595521
0.16598801 -0.67866921 0.40072298
0.20486645 0.26288497 0.49457884
0.19575493 -0.39098430 0.47258514
0.08193985 0.10788242 0.19781658
0.01595063 0.61277080 0.03850750
0.05892197 -0.52437603 0.14224754
0.09563100 -0.04276932 0.23086932
0.04725656 -0.33912709 0.11408529
0.22084294 0.04835476 0.53314924
0.12192432 -0.72790301 0.29434580
0.27145883 -0.11991055 0.65534389
0.08377519 0.27077287 0.20224740
0.25875005 0.05434005 0.62466234
0.05024359 0.31988999 0.12129647
0.20582227 -0.21326573 0.49688840
0.21050994 -0.68252087 0.50820643
0.16642749 0.10063139 0.40178248
0.00955725 -0.00520501 0.02307280
0.17531508 0.09734205 0.42323837
0.02214782 0.23643187 0.05346856
0.25064087 -0.01761290 0.60508591
0.09747030 0.43912405 0.23530862
