ply
format ascii 1.0
element vertex 960
property float x
property float y
property float z
end_header
-0.46816513 -0.33026299 0.06745661
-0.28752297 0.11659592 -0.00021155
-0.45406121 -0.29621327 0.06750839
-0.60529339 -0.66131967 0.19377734
-0.47992367 -0.35865435 0.18978712
-0.51861221 -0.45205304 0.08445117
-0.04299642 0.72598219 -0.00059109
-0.62677860 -0.47496921 -0.00477712
-0.07039845 0.63002723 0.06424261
-0.43101391 -0.24057451 0.13492955
-0.70051658 -0.62110424 -0.00541727
-0.43287152 -0.24505931 0.14078048
-0.43651447 0.12472548 -0.00759018
-0.28401029 0.11432074 0.18637738
-0.36381108 0.22018117 -0.00598365
-0.16177896 0.40941450 0.11321186
-0.37719125 0.36386135 -0.00951329
-0.27072573 0.14639100 0.23101105
-0.58562768 -0.51509154 -0.00197951
-0.15667617 0.42173645 0.02347545
-0.54873830 -0.35438833 -0.00341603
-0.55019838 -0.52831036 0.14316645
-0.53608537 0.15293448 -0.01297811
-0.47997230 -0.35876778 0.06271897
-0.43802863 -0.25751188 0.21325038
-0.50453126 -0.41806096 0.15242048
-0.28051168 0.12276910 0.12130760
-0.61236984 -0.58223683 -0.00192795
-0.51916671 -0.34344715 -0.00220333
-0.68252569 -0.32593372 -0.01046597
-0.23627354 0.52472484 -0.00591499
-0.41028529 -0.19053701 0.31629124
-0.21577750 0.27905050 0.12684178
-0.23091954 0.24249077 0.24672931
-0.64834607 -0.74175054 -0.00047106
-0.19987556 0.31744006 0.15834750
-0.45687923 -0.30302212 0.24502167
-0.17876348 0.36840993 0.12693609
-0.33520976 0.45082480 -0.00922428
-0.46850327 0.11356636 -0.00891558
-0.24356285 0.21196702 0.25459030
-0.49740407 0.10510139 -0.01014545
-0.41562259 -0.20342222 0.31170934
-0.15726270 0.52013475 -0.00199647
-0.18720964 0.37547937 -0.00054559
-0.56004494 -0.19780143 -0.00710411
-0.36086601 0.33939832 -0.00823204
-0.55832160 -0.54792249 0.20192440
-0.10399614 0.54891610 0.04614339
-0.38984773 -0.14119215 0.17474099
-0.42731330 -0.23164840 0.39086714
-0.28421211 0.11383695 0.07632002
-0.48840058 -0.37911493 0.04803672
-0.31825742 0.20904393 -0.00355414
-0.15578356 0.42389148 0.02029530
-0.43210182 -0.24319968 0.09500423
-0.40876666 -0.08775735 -0.00198482
-0.37367758 -0.10215232 0.11790984
-0.15579017 0.42387459 0.05023961
-0.30381367 0.34833223 -0.00564820
-0.76047748 -0.31446025 -0.01447112
-0.66372865 -0.80239129 0.13746451
-0.53157699 -0.48335686 0.27919367
-0.28827292 0.10402975 0.18945774
-0.41288728 -0.19681756 0.27697015
-0.37480602 0.29988560 -0.00811468
-0.60461861 -0.65969062 0.15889120
-0.23854089 0.22409441 0.14742909
-0.75853032 -0.12067259 -0.01826355
-0.14731692 0.49903202 -0.00109157
-0.59926349 -0.64675921 0.00096919
-0.73274070 -0.49839571 -0.00943880
-0.17036527 0.38868514 0.11969634
-0.47486374 -0.34644055 0.24968599
-0.41604659 -0.20444568 0.30716944
-0.31671634 0.03536046 0.22379968
-0.13305394 0.47876403 0.06553593
-0.73178220 -0.21278606 -0.01512073
-0.24863248 0.19972949 0.20312203
-0.40762568 -0.18411347 0.22904651
-0.38350084 -0.12587619 0.38901159
-0.49362081 -0.39172488 0.29519212
-0.50176215 -0.41137442 0.10965187
-0.29861906 0.17746444 -0.00196971
-0.72124422 0.02630667 -0.01940561
-0.22572108 0.33453190 -0.00158943
-0.37653589 -0.10906079 0.37134254
-0.25836048 0.17624170 0.27933475
-0.36255050 -0.07528876 0.10097853
-0.73188174 -0.20165728 -0.01534875
-0.52674091 -0.42445353 -0.00094548
-0.70800376 -0.60271591 -0.00614862
-0.06715041 0.63786882 0.06785802
-0.75777632 -0.42853868 -0.01205220
-0.31799462 0.03228070 0.02455284
-0.69809198 0.07323942 -0.01922565
-0.52752233 -0.47356832 0.25778258
-0.02303424 0.74437571 0.01513621
-0.63441974 -0.66903019 -0.00125509
-0.62334663 -0.66149288 -0.00087000
-0.07735308 0.61323929 0.00188603
-0.54817897 -0.27391568 -0.00500290
-0.57310706 -0.52431220 -0.00118821
-0.26099011 0.16990140 0.01831420
-0.43229064 0.04094813 -0.00570539
-0.26561284 0.15873791 0.12340216
-0.41242817 0.25400856 -0.00901659
-0.58851391 -0.62080842 0.03009271
-0.55278736 -0.53456169 0.17451841
-0.23228349 0.23920207 0.11475013
-0.66317415 -0.80105263 0.14077578
-0.49802399 -0.21162282 -0.00382326
-0.15443191 0.42715248 0.08925140
-0.45974621 -0.30993760 0.05431242
-0.44956392 -0.28535736 0.11490448
-0.38960189 0.40898266 -0.01101928
-0.46967617 -0.33391014 0.04085991
-0.15973306 0.41435486 0.07641022
-0.47076997 -0.33655861 0.28930500
-0.57117563 -0.57895410 0.23207805
-0.33969736 -0.02011652 0.09827773
-0.42450303 -0.22485261 0.03090527
-0.47565848 -0.34835503 0.11693043
-0.54738718 -0.52152187 0.08680221
-0.29733959 0.42155272 -0.00680317
-0.63587403 0.12420341 -0.01723459
-0.70997417 -0.29972190 -0.01232099
-0.15069333 0.59273618 -0.00313442
-0.57319266 -0.30792800 -0.00553215
-0.59943694 -0.64717853 0.02240562
-0.27274558 0.14152005 0.05752777
-0.27674273 0.13186279 0.29198533
-0.50377411 -0.41623095 0.08734522
-0.40307093 -0.17311260 0.07770736
-0.63369793 -0.72989249 0.06847348
-0.34300548 0.26274189 -0.00582964
-0.71467847 -0.49142554 -0.00870402
-0.69573170 -0.38606042 -0.00989963
-0.13964450 0.46285218 0.09398086
-0.54966909 0.20368499 -0.01465381
-0.43479994 -0.24971996 0.30188459
-0.23887061 0.26072541 -0.00074600
-0.22088410 0.45921120 -0.00385575
-0.11234460 0.52876049 0.07009641
-0.44965798 0.18956536 -0.00952714
-0.43805769 -0.25758499 0.30823964
-0.48829514 -0.37886524 0.20430540
-0.25920707 0.17419814 0.27130425
-0.72233808 0.05695990 -0.02007337
-0.10662990 0.61417639 -0.00143045
-0.57813430 -0.59575099 0.06325232
-0.65813285 -0.04236466 -0.01497189
-0.33768630 -0.01526115 0.09130676
-0.76685053 -0.55205804 -0.01001408
-0.68821406 -0.63342273 -0.00457447
-0.59986264 -0.64820820 0.08151283
-0.45265189 -0.29280993 0.03804594
-0.69062376 -0.15763693 -0.01423351
-0.51190287 -0.43585315 0.01114264
-0.48061281 0.07183540 -0.00866508
-0.25156045 0.19265883 0.26363948
-0.49202004 -0.38785839 0.21880125
-0.67948228 -0.56226218 -0.00557879
-0.41288698 -0.19681920 0.35346526
-0.25796059 0.45051160 -0.00547686
-0.24583048 0.31145424 -0.00210048
-0.39035586 -0.14242058 0.22897698
-0.62687713 -0.71342599 0.12082538
-0.06677762 0.66064304 -0.00043236
-0.79475689 -0.77731699 -0.00684718
-0.53942901 -0.50231016 0.11761627
-0.36605293 -0.08374880 0.24386016
-0.32144579 0.02394238 0.22964524
-0.67449546 -0.25025406 -0.01159490
-0.44318584 0.32971904 -0.01202462
-0.41747704 -0.20789969 0.32491988
-0.49809065 -0.40251362 0.20566502
-0.25238425 0.19067089 0.23636048
-0.32854238 0.00680643 0.33597130
-0.77536494 -0.32830036 -0.01491438
-0.38857722 -0.13812537 0.18973731
-0.60943204 -0.67131090 0.09962924
-0.38971254 -0.14086477 0.14371651
-0.17158189 0.38575089 0.02705382
-0.37362456 -0.01059002 -0.00183057
-0.55299819 0.11930272 -0.01312267
-0.47587606 -0.34888133 0.15050471
-0.34288412 -0.02780994 0.09738014
-0.36425924 -0.07013060 -0.00018287
-0.65318793 -0.77694440 0.10133206
-0.37300578 -0.10052921 0.07897528
-0.49973828 -0.40648970 0.15202893
-0.62764865 0.14465789 -0.01724648
-0.29571286 0.08607315 0.03297968
-0.26403871 0.51180464 -0.00700051
-0.39325434 -0.14941235 0.04665612
-0.35653728 -0.06077511 0.21279445
-0.49583548 -0.31354436 -0.00167314
-0.34478778 -0.03240605 0.10534067
-0.41068363 -0.10724297 -0.00168685
-0.39358479 -0.15020958 0.02782955
-0.76657373 -0.44270942 -0.01219394
-0.68936270 -0.05289722 -0.01627310
-0.62006122 -0.46866372 -0.00457826
-0.71907693 -0.61808443 -0.00637654
-0.64793783 -0.26461256 -0.01002076
-0.52709216 -0.20870271 -0.00528959
-0.38429743 0.00492195 -0.00265856
-0.49733168 0.29016098 -0.01385350
-0.56038529 -0.55290371 0.14303127
-0.52001745 -0.21337016 -0.00485335
-0.48162133 0.26092473 -0.01250629
-0.44473335 -0.02844374 -0.00491626
-0.29915056 0.07776572 0.29089114
-0.63024247 -0.72155052 0.17319307
-0.54500532 -0.51577502 0.23700787
-0.67629361 -0.37573177 -0.00916541
-0.56256157 -0.55815530 0.06408209
-0.31058109 0.19346470 -0.00286992
-0.28034246 0.12317502 0.20472836
-0.46560195 -0.32407919 0.20099324
-0.62355042 -0.48689789 -0.00438154
-0.39428490 0.24363036 -0.00792978
-0.51595592 -0.08488628 -0.00723352
-0.30334744 0.06763262 0.32307634
-0.39007348 -0.14173561 0.12723269
-0.62749082 -0.69119924 -0.00047491
-0.24537939 0.20758642 0.09706273
-0.55160338 -0.41118434 -0.00241569
-0.47987759 -0.35854474 0.24278641
-0.11384190 0.56427133 -0.00077883
-0.38593805 -0.13175532 0.23699263
-0.28286391 0.42086419 -0.00608831
-0.79110837 -0.41357756 -0.01396623
-0.65320253 -0.41230407 -0.00731363
-0.46143505 0.08843205 -0.00806917
-0.44625401 -0.27736756 0.14663602
-0.11782992 0.51551843 0.04912243
-0.20267040 0.31069443 0.10542933
-0.55884695 -0.26462629 -0.00570585
-0.21294634 0.42895678 -0.00286454
-0.45327437 -0.29431331 0.05573637
-0.56470805 -0.25973818 -0.00608774
-0.17562614 0.37598473 0.10642929
-0.61817509 -0.61606121 -0.00153072
-0.49830046 -0.00847245 -0.00791103
-0.54523867 0.03097944 -0.01097547
-0.53593040 -0.14420907 -0.00701110
-0.64266980 -0.55791730 -0.00388312
-0.72897822 -0.27122101 -0.01381296
-0.61533517 -0.65705103 -0.00057109
-0.62554216 -0.71020323 0.14760810
-0.64384037 -0.09675219 -0.01318892
-0.26357982 0.52445728 -0.00723205
-0.67127639 -0.19654153 -0.01251626
-0.21165788 0.28899598 0.13137196
-0.72514117 -0.31622076 -0.01272462
-0.57632005 -0.48820901 -0.00206790
-0.73747325 -0.54672331 -0.00869862
-0.31268227 0.04509682 0.31064218
-0.43422276 -0.24832766 0.33694890
-0.54479915 -0.21973538 -0.00592586
-0.28162917 0.12006766 0.23601094
-0.62007219 -0.37258324 -0.00650578
-0.77030772 -0.27896512 -0.01565905
-0.63419574 -0.73109311 0.00832486
-0.74815392 -0.23398429 -0.01548845
-0.77915305 -0.58120555 -0.01002515
-0.67946810 -0.84038877 0.11238423
-0.45428887 0.04072162 -0.00676621
-0.43342915 0.17226303 -0.00839417
-0.58607703 -0.07125621 -0.01090282
-0.30965739 0.05240631 0.09238998
-0.25162438 0.19251181 0.03103821
-0.35430565 -0.05538512 0.13714944
-0.08640244 0.59139204 0.00932073
-0.31601363 0.26930708 -0.00465411
-0.11175085 0.53019279 0.10607509
-0.16117959 0.41086414 0.02805698
-0.35162610 -0.04891414 0.07435151
-0.19465919 0.33003742 0.03191111
-0.15294245 0.43074897 0.06968105
-0.34569675 -0.03460842 0.35818329
-0.42970830 -0.23742388 0.18095610
-0.23586690 0.23055425 0.01053176
-0.69395959 -0.15988894 -0.01434990
-0.71110731 -0.67385477 -0.00487203
-0.45790651 -0.30550510 0.36251390
-0.29229328 0.43439832 -0.00681641
-0.64740396 -0.76298088 0.15104958
-0.49425802 -0.25446308 -0.00278168
-0.40677273 -0.18205908 0.38287941
-0.63542336 -0.73405790 0.05125687
-0.69723511 -0.55154532 -0.00665348
-0.46831417 -0.33062378 0.09725888
-0.46433857 -0.32103148 0.27763948
-0.76365870 -0.05450644 -0.01983894
-0.49389994 -0.13420610 -0.00517621
-0.49410367 -0.39289004 0.26157653
-0.41926527 -0.21221571 0.29001206
-0.45957965 -0.30953455 0.02464919
-0.47218516 -0.22148824 -0.00237404
-0.30938381 0.05306708 0.08297688
-0.54046285 -0.03035387 -0.00951408
-0.61125231 -0.67570496 0.07556394
-0.16810311 0.39414600 0.13396683
-0.50539452 -0.03526494 -0.00771724
-0.47728756 -0.26883307 -0.00167160
-0.35949963 0.37943465 -0.00896883
-0.27849603 0.39063057 -0.00527041
-0.12014645 0.50992632 0.03381103
-0.27603868 0.13356723 0.14186229
-0.16568550 0.39998192 0.15544643
-0.41164392 -0.19382007 0.41717815
-0.39212397 -0.14668462 0.08507970
-0.54188925 0.14011347 -0.01300205
-0.47634917 -0.35002401 0.16455285
-0.58246928 -0.60621864 0.17714833
-0.29014176 0.09951998 0.12701295
-0.18237332 0.35969448 0.14432912
-0.21325029 0.46026689 -0.00350722
-0.28375888 0.51243490 -0.00796819
-0.60145515 -0.65205353 0.14891519
-0.32456535 0.01641678 0.05101848
-0.51208931 -0.43631059 0.25655362
-0.41417658 -0.19992787 0.20269945
-0.43091673 -0.24034165 0.19108336
-0.03013411 0.72723526 0.01119920
-0.19511604 0.49782005 -0.00338215
-0.31249532 0.04554750 0.33527100
-0.36745223 0.21910463 -0.00613840
-0.56883699 -0.57330829 0.22887506
-0.48813090 -0.08110846 -0.00596174
-0.54357952 -0.51233202 0.17106295
-0.43646833 -0.25373957 0.03920904
-0.66242003 -0.58328635 -0.00433081
-0.78804272 -0.61493999 -0.00977896
-0.49431840 0.07109579 -0.00931400
-0.68354565 -0.65061891 -0.00400349
-0.36673829 -0.08539672 0.03081250
-0.44140163 -0.26565537 0.22535744
-0.73476213 0.01940489 -0.01992186
-0.60761470 -0.66692352 0.10306950
-0.08545396 0.67434692 -0.00161169
-0.78636634 -0.73351097 -0.00731955
-0.61717474 -0.69000292 0.13223052
-0.44993028 -0.15658821 -0.00259788
-0.59507209 -0.43312576 -0.00408080
-0.38651732 -0.13315792 0.36835039
-0.60214162 -0.65371042 0.09169514
-0.18162167 0.50555992 -0.00288386
-0.24757501 0.20228228 0.20733143
-0.39205551 -0.14651953 0.09115795
-0.63704783 -0.73797965 0.08270546
-0.39588758 -0.15576965 0.04958341
-0.28782636 0.10511298 0.02551749
-0.11004376 0.53431606 0.04235813
-0.61490530 -0.45680797 -0.00456634
-0.61320376 -0.33143505 -0.00699841
-0.61228377 -0.67819428 0.05004147
-0.40209740 0.02090061 -0.00384107
-0.23620686 0.22973309 0.02294072
-0.64521384 -0.75769371 0.05471826
-0.55958706 -0.55097747 0.17034610
-0.44869015 0.04122617 -0.00650518
-0.65940899 -0.13088390 -0.01325836
-0.57806259 -0.59557879 0.09511082
-0.15965860 0.41453159 0.17253749
-0.53867310 -0.50048572 0.13387208
-0.16159543 0.40985596 0.17067754
-0.66440362 -0.80402076 0.05167561
-0.62579888 -0.26755425 -0.00888958
-0.45967934 -0.23894943 -0.00141819
-0.32690993 0.29333740 -0.00566376
-0.45010692 -0.28666785 0.10121352
-0.72432071 -0.02641616 -0.01849720
-0.47894758 -0.35629246 0.01632879
-0.42797792 0.12904575 -0.00726341
-0.08448109 0.59603035 0.01654218
-0.54970771 -0.52712631 0.15732870
-0.32408267 0.43734863 -0.00841513
-0.70549631 -0.12945156 -0.01551907
-0.15557793 0.42438510 0.11081046
-0.40298358 -0.17290416 0.15485440
-0.44585231 -0.27639559 0.07725728
-0.33719116 -0.01406701 0.12951998
-0.43405303 -0.24791469 0.23512639
-0.10966156 0.64839643 -0.00226359
-0.35100144 -0.04740564 0.05993746
-0.31061900 0.05008004 0.24417259
-0.47200528 -0.33954170 0.34958360
-0.31878194 0.03037726 0.10913038
-0.35739511 -0.06283988 0.01650189
-0.43507618 0.02599017 -0.00554029
-0.40143940 0.03050448 -0.00400182
-0.44277424 -0.26896724 0.16448469
-0.27350417 0.40969878 -0.00541109
-0.60352623 -0.56996179 -0.00174585
-0.38526583 -0.13012737 0.07417738
-0.47835085 -0.35485998 0.27633455
-0.74191123 -0.29708239 -0.01392063
-0.22030421 0.26812103 0.16051657
-0.17129934 0.46722031 -0.00161501
-0.33808640 0.04942187 -0.00131307
-0.62664247 -0.54310989 -0.00340390
-0.72794408 -0.11512402 -0.01689356
-0.33440572 -0.00734660 0.26402634
-0.33517098 -0.00918900 0.10230684
-0.36707768 -0.08622432 0.29294351
-0.15161639 0.43394795 0.14682724
-0.57311416 -0.58363402 0.15509419
-0.60227579 -0.33961028 -0.00630521
-0.66927165 -0.72673267 -0.00178567
-0.25407019 0.18660566 0.07855885
-0.48465115 -0.24633577 -0.00247942
-0.37814602 0.11802080 -0.00462896
-0.11266476 0.52798688 0.09139089
-0.38384655 -0.12670825 0.30901355
-0.56725270 -0.07464600 -0.00992318
-0.44700584 -0.27918088 0.09037816
-0.14703916 0.44499990 0.09588856
-0.44759911 0.35098037 -0.01266477
-0.33593959 -0.01104787 0.20760192
-0.36509642 -0.08143622 0.13554008
-0.59217894 -0.27290431 -0.00715408
-0.22518250 0.54064018 -0.00569705
-0.74380267 -0.12518032 -0.01745989
-0.76665050 0.00577909 -0.02119292
-0.67422491 -0.25051749 -0.01157652
-0.48462898 -0.12140213 -0.00498401
-0.48095715 -0.36114794 0.14265548
-0.38458583 -0.12849510 0.37470102
-0.43459931 0.24075317 -0.00982448
-0.10122595 0.58363146 -0.00055613
-0.77835673 -0.50937009 -0.01142743
-0.65589982 -0.70623976 -0.00154909
-0.32081777 0.40656841 -0.00763968
-0.50179243 0.28783396 -0.01402286
-0.61483914 -0.68436378 0.06072444
-0.15412137 0.42790157 0.10919920
-0.24289484 0.21358281 0.15548950
-0.07950084 0.60805345 0.02397872
-0.35789049 0.14279348 -0.00414483
-0.53836936 -0.02529167 -0.00951422
-0.54381597 -0.51290369 0.23482575
-0.52247095 -0.46137053 0.13802090
-0.58286184 -0.09909402 -0.01018879
-0.51439565 -0.44187438 0.11231132
-0.53083152 -0.10443856 -0.00756180
-0.27400541 0.13847257 0.25043410
-0.57642508 -0.59162700 0.18615441
-0.63361084 -0.72968227 0.06767692
-0.34775573 -0.03957722 0.29590359
-0.57870877 -0.59714019 0.20720918
-0.62198412 -0.70161349 0.09471812
-0.54616266 -0.51856893 0.24989127
-0.28463545 0.11280929 0.25530997
-0.53783375 -0.13348405 -0.00731838
-0.54834878 0.02777368 -0.01106180
-0.32712927 0.01022386 0.14901198
-0.12564060 0.49665993 0.11098742
-0.09654521 0.56690502 0.01958476
-0.66140288 -0.44407189 -0.00707363
-0.53425121 0.05965534 -0.01101848
-0.25551289 0.18311648 0.27562127
-0.40613595 0.33464536 -0.01032911
-0.28671443 0.10779432 0.12539957
-0.66693532 -0.81013256 0.02887412
-0.30362189 0.06697160 0.27211589
-0.37835804 -0.11344972 0.04868289
-0.21385302 0.28369865 0.06180727
-0.72934175 -0.30356207 -0.01318194
-0.10072360 0.55681491 0.10666085
-0.38719863 -0.01543165 -0.00239085
-0.57544446 -0.58925962 0.16388658
-0.37393913 -0.10278781 0.24852385
-0.32001746 0.02739016 0.24597301
-0.26779273 0.42329788 -0.00540723
-0.51204228 -0.43619302 0.11882161
-0.35660642 0.36481896 -0.00853558
-0.64644891 0.10123219 -0.01728602
-0.04271231 0.74219114 -0.00090241
-0.26217228 0.16704139 0.21159606
-0.39837387 -0.16177528 0.15130389
-0.65731180 -0.45051780 -0.00674622
-0.65353149 -0.31727031 -0.00923555
-0.06632823 0.63985425 0.04359257
-0.29366463 0.09101716 0.05926631
-0.58425242 -0.61052346 0.20155673
-0.70390159 -0.53698325 -0.00726839
-0.46107188 -0.31314471 0.26730114
-0.27920997 0.42517382 -0.00599779
-0.72299731 -0.04554588 -0.01804944
-0.55296946 -0.02107632 -0.01030584
-0.49192047 -0.38761625 0.16295935
-0.47702622 0.13169962 -0.00969202
-0.38154846 0.29906774 -0.00842481
-0.41151330 -0.19349249 0.02159911
-0.40889388 -0.18717024 0.07233343
-0.39072630 -0.14331307 0.17121282
-0.26099646 0.25300413 -0.00166268
-0.55732632 -0.54551518 0.03152279
-0.27141210 0.16076103 -0.00031708
-0.49397039 -0.39256096 0.02831734
-0.41127539 -0.19292864 0.35887343
-0.20208199 0.46299335 -0.00302102
-0.43458751 -0.24920560 0.25332835
-0.61486685 -0.53047019 -0.00308711
-0.26414776 0.16227442 0.13912940
-0.16141444 0.41029373 0.13743308
-0.02095146 0.75498021 -0.00010504
-0.52677369 -0.47175467 0.02441571
-0.18494464 0.35348982 0.04773102
-0.50595689 -0.42150506 0.22761127
-0.76061803 0.00748650 -0.02093501
-0.15726559 0.42031318 0.03259113
-0.24068150 0.21893056 0.01851993
-0.01778702 0.77147287 -0.00028257
-0.48052728 -0.36011028 0.14648968
-0.07124003 0.62799692 0.01824323
-0.33464283 -0.00791586 0.16353980
-0.49884537 -0.40433243 0.09980119
-0.47891173 -0.35621491 0.30302170
-0.59549290 -0.16117334 -0.00955545
-0.29526415 0.50392938 -0.00835480
-0.11596667 0.64794064 -0.00255980
-0.60154212 -0.21170057 -0.00883504
-0.55234444 0.21146604 -0.01493943
-0.31674543 0.03529609 0.03585642
-0.30771685 0.05708662 0.23786265
-0.79388356 -0.65209830 -0.00931647
-0.37960145 -0.11645568 0.18018922
-0.14111803 0.48810270 -0.00057216
-0.45419067 -0.26660442 -0.00059773
-0.71087360 -0.58099931 -0.00672316
-0.49586770 0.20505556 -0.01207573
-0.42065746 0.09520801 -0.00623023
-0.60987765 -0.46270198 -0.00420464
-0.47279933 0.28386638 -0.01253916
-0.65232122 -0.42418545 -0.00703265
-0.30314273 0.06813571 0.04013650
-0.34882641 -0.04216081 0.25445846
-0.53622437 -0.49457633 0.27493867
-0.46193916 -0.31523201 0.05938412
-0.25658542 0.25375116 -0.00146404
-0.71772301 -0.57781315 -0.00711872
-0.46008593 -0.26654863 -0.00088435
-0.51676881 -0.31680217 -0.00262159
-0.73931217 -0.26879090 -0.01436217
-0.51871115 -0.45229650 0.22975218
-0.48484439 -0.37053281 0.15163498
-0.22854660 0.34482014 -0.00193261
-0.32038900 0.02649961 0.04236951
-0.78557384 -0.60883379 -0.00978189
-0.20931263 0.29466110 0.02849818
-0.23605666 0.23008963 0.21797898
-0.39292568 -0.14861879 0.04255911
-0.38348594 -0.12582880 0.02576505
-0.33685213 -0.01324944 0.15959130
-0.21886580 0.44150892 -0.00340296
-0.61616021 -0.61610931 -0.00143217
-0.31952730 0.02857810 0.09991321
-0.17181101 0.38519475 0.12137502
-0.49738848 0.24246849 -0.01289973
-0.64361912 -0.75384378 0.09211755
-0.48077840 -0.36071500 0.09741208
-0.49017081 -0.38339606 0.32373559
-0.29953462 0.07684577 0.05985025
-0.27149022 0.14454909 0.11213615
-0.23173440 0.46817186 -0.00456094
-0.47991019 -0.06767371 -0.00583306
-0.48381916 -0.36805671 0.12068429
-0.79209995 -0.42177969 -0.01384973
-0.55766064 -0.38464132 -0.00324138
-0.31069905 0.10714406 -0.00114439
-0.46022877 -0.04405076 -0.00535368
-0.21539268 0.27998000 0.11218560
-0.37020025 -0.09375471 0.03539062
-0.50580251 -0.42112657 0.04069817
-0.49957314 -0.40609452 0.26393455
-0.46555436 0.04301443 -0.00735777
-0.66618919 -0.13216583 -0.01356101
-0.71457452 -0.19706191 -0.01460273
-0.20840713 0.29684255 0.17494898
-0.18815076 0.34574533 0.18339184
-0.68299156 -0.55296803 -0.00593514
-0.57285869 0.11438704 -0.01398592
-0.38025203 -0.03921433 -0.00157745
-0.22314186 0.26126823 0.22915415
-0.28558442 0.11051867 0.24400322
-0.41579831 -0.11968952 -0.00168493
-0.35221273 -0.05033107 0.09631673
-0.21986672 0.27214667 -0.00005471
-0.65884626 -0.08948882 -0.01406132
-0.24762234 0.20216686 0.24480850
-0.77423012 -0.28311259 -0.01576578
-0.42255384 -0.22015730 0.36409494
-0.58505476 -0.33565810 -0.00555047
-0.46812245 -0.33015862 0.02348088
-0.70324427 -0.59183043 -0.00613650
-0.19874135 0.57508677 -0.00510738
-0.63837254 0.08552799 -0.01657992
-0.72579217 -0.68493909 -0.00536075
-0.34398463 -0.03046727 0.11093477
-0.22724773 0.25135806 0.15819678
-0.54807389 -0.52318078 0.11929356
-0.59390658 -0.63383007 0.19469132
-0.47600302 -0.34919101 0.25025481
-0.20744942 0.29915491 0.16826898
-0.56507075 -0.56421602 0.18796010
-0.59137952 0.17310056 -0.01606043
-0.58608091 -0.14164902 -0.00949121
-0.78479397 -0.65236819 -0.00887094
-0.64717269 0.14165309 -0.01813175
-0.35251692 -0.05106954 0.22693473
-0.15464735 0.60166425 -0.00350497
-0.31422710 0.26800385 -0.00454145
-0.27057630 0.14675093 0.25618365
-0.32886976 0.00602268 0.12596293
-0.42437485 -0.22454935 0.22812247
-0.25028124 0.19574779 0.24318565
-0.25817388 0.17669992 0.03383198
-0.50964886 -0.24723710 -0.00367197
-0.44561443 -0.06486269 -0.00422851
-0.54659551 -0.01012006 -0.01021689
-0.32602423 0.13482094 -0.00244167
-0.75324380 -0.09805211 -0.01846120
-0.50378370 -0.35159597 -0.00129491
-0.50108337 -0.28137010 -0.00257258
-0.30455959 0.06471470 0.05273429
-0.72505230 -0.18979935 -0.01525582
-0.62011671 -0.69040656 -0.00013368
-0.16294579 0.40660068 0.01191490
-0.28287843 0.11705575 0.10815394
-0.32788566 0.21017887 -0.00404319
-0.24394646 0.21104486 0.12614135
-0.49041563 0.28671440 -0.01344943
-0.34908673 -0.04278507 0.12113265
-0.75563473 -0.62745637 -0.00795870
-0.21489806 0.28117695 0.02257135
-0.25164631 0.19245806 0.05645829
-0.06003698 0.65504324 0.02359533
-0.41562310 -0.10253081 -0.00202058
-0.38821888 0.22508152 -0.00726399
-0.07875006 0.60986465 0.06711623
-0.44837937 -0.28250170 0.24558756
-0.67710263 -0.07898979 -0.01515604
-0.36112273 -0.07184361 0.15809304
-0.47124767 -0.33771074 0.25271437
-0.54274893 -0.51032764 0.24778119
-0.43298376 -0.24533097 0.16178323
-0.32197872 0.02265982 0.10110776
-0.63744813 -0.73894608 0.09321830
-0.77929825 -0.56353378 -0.01038663
-0.43567103 -0.25182182 0.26506284
-0.39541078 -0.15462241 0.17198724
-0.31444865 0.04083595 0.19776525
-0.50607324 0.05949555 -0.00965063
-0.49702159 -0.39992654 0.00704644
-0.23869516 0.22372270 0.12312706
-0.11378633 0.52528024 0.05788407
-0.43482015 0.07428205 -0.00649643
-0.44166493 -0.26628804 0.13030046
-0.59017622 -0.62482440 0.21731932
-0.59072018 -0.62613767 0.17067762
-0.53731382 -0.39782375 -0.00199161
-0.49128473 -0.38608521 0.33116069
-0.64856374 -0.35407379 -0.00825684
-0.40413010 -0.04453579 -0.00262712
-0.41363886 -0.19862543 0.06797431
-0.71840310 -0.26028439 -0.01352016
-0.11721923 0.51699322 0.03458879
-0.48563221 -0.37243626 0.19971415
-0.35570937 -0.00257219 -0.00112375
-0.56297022 -0.40475687 -0.00309509
-0.17419498 0.37944221 0.03117656
-0.62081283 -0.69878590 0.15364663
-0.36144108 -0.07261380 0.20994513
-0.51897657 -0.16959678 -0.00568086
-0.24620607 0.52707052 -0.00644306
-0.48608178 0.12917256 -0.01007989
-0.70113182 -0.46234784 -0.00863114
-0.40656129 -0.11262183 -0.00137933
-0.50228381 -0.41263786 0.23696148
-0.50378686 -0.41626412 0.16404974
-0.34912395 -0.04288007 0.28585747
-0.37222472 -0.09864379 0.08625312
-0.60869825 -0.66953737 0.02751271
-0.36324143 0.27101842 -0.00697565
-0.15103582 0.43534914 0.16097438
-0.55265558 0.18169679 -0.01435745
-0.44338691 -0.27044642 0.16573723
-0.54000533 -0.39609748 -0.00215658
-0.50864142 -0.42798701 0.30123979
-0.63750279 -0.36468500 -0.00750834
-0.51664621 0.09890961 -0.01095316
-0.77786630 -0.26926297 -0.01621964
-0.66154385 -0.79711676 0.01929071
-0.52730918 -0.47305328 0.21007796
-0.38767722 -0.13594818 0.05021061
-0.48267138 -0.36528519 0.10392460
-0.63573545 -0.38435388 -0.00702827
-0.48416743 0.15902393 -0.01058588
-0.33629176 -0.01190098 0.29852268
-0.71533650 -0.37227422 -0.01112558
-0.47585157 -0.34881872 0.03632597
-0.32327214 0.41536832 -0.00793504
-0.66567701 0.03399113 -0.01686864
-0.66443473 -0.80409586 0.11028850
-0.75894374 -0.78029275 -0.00505341
-0.61878407 -0.69388813 0.12759721
-0.50126553 0.04502975 -0.00912767
-0.57184345 -0.58056629 0.22225729
-0.79053479 -0.05165863 -0.02119765
-0.58867121 -0.42182916 -0.00399737
-0.67436367 -0.51608801 -0.00625696
-0.39813542 -0.09401042 -0.00134454
-0.22429180 0.25849369 0.17689469
-0.41168049 -0.19390158 0.19712225
-0.50511259 -0.41946679 0.23131517
-0.73874694 -0.51242983 -0.00944814
-0.30779594 0.40763956 -0.00703052
-0.47598174 -0.27848822 -0.00141472
-0.53678071 -0.49591446 0.04773095
-0.61561304 -0.60470462 -0.00163441
-0.34339488 0.19006389 -0.00439087
-0.28277603 0.29829597 -0.00362583
-0.55725211 -0.53463238 -0.00021338
-0.36166978 -0.07316406 0.15066943
-0.61829031 -0.55538779 -0.00275316
-0.41804546 0.02574430 -0.00471057
-0.54999155 0.09457337 -0.01248109
-0.18053919 0.36412197 0.15947486
-0.32655415 0.01160910 0.25054419
-0.16997142 0.38963881 0.02982780
-0.18199903 0.36060086 0.05593956
-0.33293846 0.22092757 -0.00450347
-0.43842310 -0.25846693 0.29980934
-0.69870025 0.08549776 -0.01950096
-0.65720963 -0.65577102 -0.00262472
-0.22651269 0.25313500 0.08118698
-0.31923768 0.02927102 0.30035242
-0.18131046 0.36225981 0.16506153
-0.40826130 -0.18564987 0.28984380
-0.24233291 0.21494077 0.11211654
-0.25259572 0.19016305 0.15147027
-0.11190799 0.52981317 0.11318627
-0.68990976 0.06380720 -0.01864021
-0.50062674 -0.40863824 0.27340102
-0.39350814 -0.15003297 0.29803500
-0.75072694 -0.29950398 -0.01429898
-0.35719159 -0.06235538 0.23278894
-0.06125382 0.66510534 -0.00025434
-0.34897029 -0.04250891 0.27850276
-0.34570941 -0.03463835 0.33987951
-0.23204897 0.23976402 0.24902850
-0.73274010 0.01303220 -0.01969612
-0.38246036 -0.12336490 0.41064534
-0.32322398 0.18350600 -0.00328248
-0.04104433 0.71984863 -0.00037353
-0.05698566 0.66240972 0.02418949
-0.15262517 0.52734804 -0.00191655
-0.67102844 0.11921877 -0.01883713
-0.27236032 0.27802739 -0.00271490
-0.56796676 -0.57120734 0.17738102
-0.78636485 -0.23170657 -0.01738443
-0.34879661 0.38929754 -0.00864830
-0.52536500 -0.27382633 -0.00389982
-0.61523426 0.01217165 -0.01398811
-0.39688307 -0.01520474 -0.00286442
-0.56577480 -0.44092092 -0.00250561
-0.46794292 -0.32973450 0.32962871
-0.17466301 0.42447400 -0.00092059
-0.33245829 0.33935794 -0.00685545
-0.56015790 -0.51659232 -0.00071592
-0.62700814 -0.35034531 -0.00728769
-0.66007876 -0.62487561 -0.00338331
-0.76488513 0.01877397 -0.02136805
-0.39153162 -0.14525768 0.18351461
-0.71815729 -0.41906521 -0.01032375
-0.22173060 0.26468077 0.05484256
-0.52050585 -0.45662504 0.09393973
-0.05565335 0.66562557 0.04400921
-0.26214468 0.16710696 0.24510653
-0.41900787 -0.21159060 0.17193235
-0.52725220 -0.47291008 0.03190755
-0.43255740 0.33918622 -0.01169976
-0.29561368 0.31090447 -0.00450043
-0.30507636 0.06346774 0.03212930
-0.77092332 -0.74137491 -0.00641406
-0.51675779 0.08756123 -0.01073096
-0.62222809 -0.21222451 -0.00982634
-0.55252814 -0.53393501 0.14433692
-0.17145500 0.62452334 -0.00477741
-0.26845497 0.52336973 -0.00744634
-0.41727415 -0.20740329 0.11692289
-0.72920567 -0.53273267 -0.00857892
-0.40530089 -0.17850621 0.39723259
-0.74895215 -0.78781760 -0.00441868
-0.39390731 0.08094023 -0.00464858
-0.55750531 0.09836390 -0.01292100
-0.47477666 0.02126261 -0.00736815
-0.41897246 -0.21150628 0.20908137
-0.33207220 -0.00171473 0.31864747
-0.65952367 -0.79223973 0.06857797
-0.58297718 -0.60744214 0.04587078
-0.43178183 -0.24242827 0.12989871
-0.48739403 -0.28458467 -0.00184514
-0.41082895 -0.19184104 0.04454465
-0.33174092 -0.00091258 0.24291174
-0.58386147 0.17822680 -0.01579914
-0.59089357 -0.60938042 -0.00034348
-0.59481388 -0.41059512 -0.00452017
-0.77179766 -0.43346494 -0.01263231
-0.60932010 -0.66168147 -0.00018692
-0.17195486 0.38484809 0.10322306
-0.43869060 -0.25911391 0.33680931
-0.52383202 -0.18065557 -0.00569421
-0.27335384 0.17433809 -0.00068342
-0.45866081 -0.30731744 0.06103998
-0.23815192 0.53719050 -0.00625597
-0.38714761 0.28827500 -0.00847951
-0.50106502 -0.25639820 -0.00307253
-0.40815282 0.20366675 -0.00779988
-0.47528219 -0.34745160 0.27669516
-0.56643879 -0.28817016 -0.00560133
-0.47266346 -0.34112874 0.25471437
-0.39145893 0.11348991 -0.00518282
-0.62610155 0.10458289 -0.01636781
-0.17806910 0.37008774 0.08175833
-0.40629393 -0.18089432 0.10105854
-0.37297729 -0.04126660 -0.00118397
-0.23586315 0.41298500 -0.00365406
-0.20469621 0.30580148 0.17571715
-0.44103554 -0.26477295 0.26927999
-0.23323397 0.23690335 0.24390672
-0.66211879 -0.19743769 -0.01205479
-0.08507128 0.59460360 0.07873277
-0.60526472 -0.66125035 0.10271128
-0.29583520 0.10908851 -0.00046354
-0.23591807 0.51471758 -0.00569707
-0.54322565 -0.51147389 0.04829771
-0.57190973 -0.58072633 0.20381804
-0.37452355 -0.10419920 0.26367596
-0.73792011 -0.65102607 -0.00662820
-0.22101182 0.57615000 -0.00620725
-0.43749526 -0.25622711 0.30429736
-0.54232419 -0.50930142 0.17328940
-0.41467372 0.06868108 -0.00540842
-0.65020233 -0.50079477 -0.00539356
-0.75798309 -0.42365253 -0.01216021
-0.21624330 0.27792686 0.09958657
-0.28586292 0.16047011 -0.00101110
-0.60527569 -0.49798149 -0.00327421
-0.79731053 -0.15056749 -0.01954187
-0.79896545 -0.69132805 -0.00877569
-0.47571012 -0.34847948 0.10930754
-0.06133904 0.65189976 0.02473199
-0.50516164 -0.27484521 -0.00290095
-0.50717813 -0.12103574 -0.00608341
-0.46580979 -0.32458380 0.29138497
-0.55168414 -0.53189874 0.25187358
-0.68739128 -0.76066470 -0.00198250
-0.54040706 -0.23873954 -0.00533200
-0.19963333 0.31802318 0.21228404
-0.22253726 0.36327597 -0.00201173
-0.53210241 0.14946124 -0.01271556
-0.43300164 -0.24537759 0.27247235
-0.38064697 -0.11897713 0.09491725
-0.67978358 -0.43339214 -0.00817799
-0.24134392 0.21732666 0.16866961
-0.67032951 -0.22132145 -0.01197342
-0.37754166 0.27471048 -0.00774225
-0.34007239 -0.00812069 -0.00025518
-0.43158287 -0.24194805 0.13557737
-0.35114861 -0.04776369 0.14798281
-0.07836953 0.61078304 0.08178961
-0.22897103 0.24719495 0.24445248
-0.54784346 -0.52262366 0.09271071
-0.44163299 -0.26621148 0.14673766
-0.33223638 -0.00211079 0.31067619
-0.26410577 0.16237529 0.15558948
-0.55426127 0.10288509 -0.01285457
-0.65637410 -0.48117015 -0.00608605
-0.46933690 0.03343401 -0.00734882
-0.52322167 -0.46318588 0.29169694
-0.62102556 -0.69929940 0.12643823
-0.79311448 -0.69137114 -0.00849152
-0.67498076 -0.46788165 -0.00725367
-0.34888303 -0.04229392 0.14073236
-0.45387799 -0.09989903 -0.00392602
-0.61431742 -0.26047891 -0.00847544
-0.30689922 0.05906641 0.05208864
-0.54434925 -0.51419115 0.25518978
-0.29462433 0.12801230 -0.00078443
-0.30179322 0.07139079 0.13133498
-0.16317448 0.40604427 0.14985120
-0.56647772 -0.56761247 0.15537243
-0.76387316 -0.07766397 -0.01938488
-0.19419298 0.33116013 0.12150915
-0.77774692 -0.79438901 -0.00568113
-0.53548849 -0.49279392 0.02001685
-0.28002462 0.12394339 0.17223619
-0.73264569 -0.34115168 -0.01258805
-0.47157648 0.27197254 -0.01224140
-0.50495321 -0.41907910 0.13818754
-0.50393105 0.27535853 -0.01387622
-0.16824694 0.39380118 0.05785332
-0.33695656 -0.01350569 0.29205123
-0.57018816 0.08422691 -0.01325169
-0.53010559 -0.47980276 0.15569849
-0.03511143 0.71561474 -0.00000129
-0.46310174 0.03039065 -0.00698581
-0.72193736 -0.49895406 -0.00890450
-0.57356149 -0.21206796 -0.00747258
-0.10644496 0.54300517 0.01331500
-0.50419694 -0.08045092 -0.00675300
-0.49312139 0.23009737 -0.01244496
-0.62013906 -0.24984466 -0.00897066
-0.49220738 0.17883646 -0.01137261
-0.37116772 0.01292203 -0.00218314
-0.27728143 0.20990199 -0.00158690
-0.20258301 0.31090513 0.11346564
-0.74897057 -0.62356913 -0.00771399
-0.46501276 -0.32265264 0.07132698
-0.39367151 -0.15041962 0.05013781
-0.34995809 -0.04489399 0.28988197
-0.73534483 -0.18567479 -0.01583701
-0.62592834 -0.71113551 0.13318582
-0.62574291 -0.71068788 0.11687073
-0.57752943 -0.59429312 0.14449228
-0.10025862 0.61606264 -0.00115972
-0.49279165 -0.38971826 0.12447983
-0.56682914 -0.56846100 0.25002915
-0.38403460 -0.12716018 0.24267820
-0.52591002 -0.46967039 0.04914876
-0.41891924 0.15228084 -0.00729070
-0.62541670 -0.56894988 -0.00282629
-0.62569618 -0.71057349 0.01509177
-0.36714521 -0.06769831 -0.00037142
-0.53747100 -0.49758279 0.10847138
-0.64052016 -0.74636233 0.09460234
-0.39719439 -0.13712098 -0.00043434
-0.47417551 -0.34477618 0.15862000
-0.38093832 -0.11968425 0.21457765
-0.47742546 0.22409476 -0.01156443
-0.51636714 -0.44663122 0.02543657
-0.38272700 -0.12399612 0.01212326
-0.53603411 -0.49411646 0.19093265
-0.77027959 -0.06607913 -0.01992749
-0.11100412 0.53199697 0.06151777
-0.79087734 -0.03598973 -0.02152850
-0.03505494 0.71535534 0.01283635
-0.54270327 0.14292517 -0.01309786
-0.30048099 0.07455876 0.13424221
-0.61070412 0.16918278 -0.01691773
-0.29071283 0.14266093 -0.00088879
-0.39605382 -0.15617026 0.02738587
-0.55588019 -0.31809148 -0.00448988
-0.37992656 -0.11724459 0.30836689
