ply
format ascii 1.0
element vertex 329
property float x
property float y
property float z
end_header
0.33816051 0.20896955 0.23303203
0.10269539 0.56621861 0.12080080
0.20849675 0.57199407 0.01797690
0.31965861 0.16496596 0.29063371
0.13761224 0.62876141 0.03098670
0.09619986 0.50247675 0.18552786
0.21560897 0.53596240 0.04462785
0.31492189 0.47281724 0.01129717
0.55727416 0.08900916 0.14165686
0.17913161 0.15356261 0.43064398
0.21571849 0.17975228 0.37279260
0.56381094 0.22774678 0.00777813
0.15164331 0.20276593 0.41063234
0.10792513 0.50351876 0.17376229
0.27735525 0.15064786 0.34281284
0.24104556 0.30480468 0.23421082
0.31631225 0.41488707 0.06340187
0.24654888 0.49635443 0.05261598
0.13606849 0.61142087 0.04838963
0.20417631 0.52300900 0.06710102
0.26721895 0.43221712 0.09267353
0.21261553 0.25611594 0.30527931
0.15597005 0.25823110 0.35553125
0.19937091 0.46467015 0.12529203
0.63023436 0.08784073 0.07549662
0.15652528 0.30263191 0.31410211
0.25379881 0.44975996 0.08887422
0.41269395 0.29147768 0.08830946
0.23668794 0.52609551 0.03429525
0.20544036 0.56543732 0.02683601
0.33065054 0.22809799 0.22232501
0.65276605 0.09843967 0.04496480
0.45685375 0.09466933 0.22898386
0.35993612 0.29468477 0.13397329
0.28653353 0.32365453 0.17492069
0.09882314 0.51112151 0.17514382
0.25526693 0.50723237 0.03455716
0.25184888 0.34727055 0.18512078
0.27368554 0.20067760 0.30008987
0.44490448 0.34043181 0.01351155
0.27786517 0.35132396 0.15741013
0.15748233 0.43204567 0.19395916
0.11419588 0.48162699 0.18815786
0.12774900 0.60828996 0.05894184
0.13067248 0.45695376 0.19571155
0.05312124 0.60134625 0.13411364
0.31634697 0.39619416 0.08059645
0.28956410 0.19663087 0.28918633
0.45567381 0.10979263 0.21613424
0.60076767 0.09806349 0.09323099
0.43753180 0.15835334 0.18810166
0.23117565 0.15757892 0.37898201
0.36350942 0.39688584 0.03649614
0.60848355 0.10484203 0.07987357
0.66337460 0.07895298 0.05314654
0.27801928 0.34010214 0.16760965
0.72097206 0.02573740 0.04910838
0.26582301 0.42032197 0.10492204
0.10288031 0.44216093 0.23495549
0.04502494 0.63104147 0.11420915
0.24682888 0.47054499 0.07614282
0.22483070 0.43802407 0.12638529
0.13521796 0.33434030 0.30451688
0.35882127 0.43672043 0.00410666
0.29559839 0.42909312 0.06939920
0.15011106 0.27253285 0.34775078
0.46041274 0.12596768 0.19686079
0.28059080 0.12660097 0.36199155
0.02245884 0.74915874 0.02615400
0.47822055 0.11054083 0.19466662
0.10578119 0.63205469 0.05728590
0.61854863 0.15356709 0.02569503
0.58910435 0.18525802 0.02362461
0.03501495 0.66183621 0.09505495
0.10314949 0.66971457 0.02500543
0.23235540 0.53207910 0.03277371
0.62789762 0.14468959 0.02526054
0.72503203 0.06800961 0.00641063
0.21592917 0.23606455 0.32070398
0.16226278 0.37549588 0.24166711
0.35129297 0.30560744 0.13187258
0.61332840 0.07772672 0.10039707
0.15168755 0.49394062 0.14226012
0.76162302 0.03360332 0.00439730
0.40053445 0.26844379 0.12074217
0.45316714 0.15812874 0.17389977
0.15422769 0.28149259 0.33570033
0.23336938 0.38400537 0.16829751
0.03232667 0.68182403 0.07911257
0.15402295 0.62764144 0.01689539
0.43297848 0.24988918 0.10794228
0.15044025 0.39853099 0.23133411
0.49024081 0.14464322 0.15216196
0.40343788 0.13082641 0.24488880
0.54662067 0.17241219 0.07461394
0.21187402 0.29133365 0.27350783
0.42103127 0.28542191 0.08620685
0.38380164 0.12183446 0.27127102
0.44328898 0.30455345 0.04806429
0.25694984 0.21469685 0.30259308
0.37311745 0.37990785 0.04328799
0.40751719 0.33273664 0.05505760
0.21765286 0.42379591 0.14611205
0.21945290 0.36456057 0.19904146
0.16898566 0.24592595 0.35487661
0.43719018 0.13589716 0.20911115
0.33455557 0.31761056 0.13623549
0.56826752 0.15178587 0.07367350
0.36300096 0.43430325 0.00248242
0.11008093 0.68099332 0.00822368
0.43540457 0.20750307 0.14476775
0.20656486 0.39892113 0.17925341
0.23328289 0.43710649 0.11944172
0.38380888 0.30826598 0.09945732
0.03942084 0.70922488 0.04732376
0.11454913 0.45928830 0.20841849
0.43219090 0.17622805 0.17655104
0.56625628 0.09964202 0.12358050
0.17388897 0.44357270 0.16821703
0.10769660 0.51269364 0.16551779
0.14217988 0.60081899 0.05252789
0.34856167 0.24898922 0.18656656
0.51548547 0.22828630 0.05181562
0.33892635 0.33258003 0.11841235
0.05515455 0.70360041 0.03800773
0.33551714 0.15881887 0.28168428
0.46526688 0.32549822 0.00850858
0.63629490 0.04153400 0.11258577
0.79096699 0.00322380 0.00535162
0.25479785 0.19534671 0.32240829
0.16498867 0.33836785 0.27337039
0.33290100 0.40521643 0.05702644
0.32008061 0.29635540 0.16916287
0.15940967 0.57588363 0.05962906
0.13625798 0.24617572 0.38480636
0.13281375 0.45532319 0.19524093
0.15796518 0.33232296 0.28541344
0.49290216 0.10297027 0.18811338
0.51373082 0.26005566 0.02415534
0.36844751 0.35675398 0.06892922
0.23495923 0.34657919 0.20132244
0.24435599 0.41544160 0.12920266
0.12910450 0.40486592 0.24515796
0.35084182 0.37849987 0.06511380
0.12497622 0.64492506 0.02773578
0.33640647 0.13475296 0.30304262
0.53570735 0.13519509 0.11896890
0.09935769 0.63392979 0.06147749
0.43704557 0.33704838 0.02387201
0.46603692 0.20152152 0.12205061
0.20519198 0.27033415 0.29901764
0.29743394 0.26298919 0.22078156
0.38980851 0.11048648 0.27619314
0.69795144 0.07690873 0.02316588
0.46512777 0.20825893 0.11667953
0.57822412 0.12126304 0.09262642
0.14683232 0.23583376 0.38459226
0.26930463 0.47126997 0.05476199
0.32952183 0.42396662 0.04286113
0.29793864 0.21490192 0.26463121
0.21535082 0.22933325 0.32744017
0.21179962 0.43209341 0.14385949
0.42271507 0.29958102 0.07160673
0.50104231 0.10954615 0.17455170
0.31154406 0.14211079 0.31917378
0.29850134 0.24404214 0.23725852
0.16369829 0.31618690 0.29500031
0.20760028 0.47258058 0.11041831
0.61146545 0.09604367 0.08523372
0.36177653 0.39883474 0.03629705
0.28031129 0.29773894 0.20453724
0.19961408 0.17002349 0.39659902
0.20512246 0.24547844 0.32198745
0.25507775 0.45408484 0.08370999
0.09207230 0.62598872 0.07550939
0.52290255 0.22101672 0.05167971
0.52693635 0.18342812 0.08260237
0.13161428 0.46213013 0.19007336
0.25261328 0.34348628 0.18790375
0.33721071 0.44743156 0.01415111
0.21956593 0.39111128 0.17446955
0.52876562 0.07268767 0.18297029
0.51099026 0.22548547 0.05853934
0.51956463 0.12611759 0.14221078
0.24942464 0.47750136 0.06733998
0.11603869 0.62065601 0.05833757
0.14177766 0.58701938 0.06561571
0.50962681 0.26375705 0.02452638
0.31114742 0.48183817 0.00646226
0.38971972 0.20236672 0.19160236
0.29660189 0.35289413 0.13869616
0.63554972 0.09308908 0.06576155
0.41304618 0.12967128 0.23709875
0.67767417 0.11927424 0.00281030
0.54280263 0.10708133 0.13833863
0.59947604 0.17355745 0.02484927
0.11968222 0.46326149 0.20002668
0.13869520 0.37708664 0.26191965
0.26063880 0.32532313 0.19724610
0.43528762 0.14248244 0.20479573
0.16412193 0.40173852 0.21576998
0.22813581 0.20294832 0.33997324
0.30208752 0.22270957 0.25361270
0.50535089 0.19784497 0.08920867
0.19740105 0.51416081 0.08149894
0.37198913 0.36112505 0.06163723
0.46292615 0.19171138 0.13395797
0.46572825 0.10222115 0.21384604
0.41929644 0.20744389 0.15966682
0.30359447 0.36132273 0.12448467
0.22605433 0.16234553 0.37930882
0.25034773 0.41210440 0.12675636
0.51223451 0.09027906 0.18199319
0.32309532 0.14186800 0.30875254
0.61587065 0.08071415 0.09530112
0.23275781 0.22232357 0.31785867
0.61395478 0.07288370 0.10428294
0.26430407 0.47662315 0.05443704
0.36670220 0.19479705 0.21979024
0.39663163 0.36219531 0.03794144
0.14354755 0.47553933 0.16671914
0.53431773 0.25373414 0.01100895
0.09162664 0.51807857 0.17536446
0.29733381 0.37771973 0.11514343
0.56124860 0.08838944 0.13856529
0.13268416 0.62550056 0.03853330
0.16820531 0.28638500 0.31831080
0.17474543 0.42781273 0.18195134
0.58054781 0.09506429 0.11462871
0.25622371 0.21731369 0.30085069
0.29908180 0.14031748 0.33231086
0.63534993 0.14699256 0.01627052
0.19305246 0.29947150 0.28335327
0.10429328 0.59232485 0.09527008
0.59059298 0.20610154 0.00304427
0.12448606 0.56365150 0.10308547
0.30427077 0.46966401 0.02401868
0.08627555 0.62081593 0.08561829
0.15919729 0.37449485 0.24541457
0.35920921 0.22669227 0.19730218
0.27577785 0.42432240 0.09206143
0.29742962 0.34212929 0.14785378
0.56991071 0.14913584 0.07460133
0.12465499 0.42925990 0.22677812
0.18560079 0.42166564 0.17761251
0.34423140 0.36300141 0.08548838
0.31837490 0.41247347 0.06372527
0.29510409 0.47857127 0.02425777
0.32354116 0.17787755 0.27515715
0.37232968 0.23522663 0.17734601
0.49808285 0.13111871 0.15739866
0.24128497 0.49320644 0.06036801
0.26304373 0.32733664 0.19317430
0.14981467 0.48889461 0.14863621
0.14262643 0.37124488 0.26368031
0.10349373 0.67276263 0.02187924
0.33172008 0.41393131 0.05008348
0.62262297 0.06951499 0.09939916
0.19494402 0.16036043 0.40980765
0.47481874 0.32430840 0.00080248
0.47624829 0.21637854 0.09894864
0.49966985 0.11038023 0.17504784
0.18396445 0.20893319 0.37516367
0.21154314 0.28150097 0.28287405
0.25784355 0.32570073 0.19947410
0.65073287 0.09141729 0.05331005
0.29903638 0.41172394 0.08223760
0.28557423 0.25271246 0.24118128
0.13192748 0.61612517 0.04787058
0.19633503 0.39139733 0.19561417
0.40003309 0.35872719 0.03800285
0.15240465 0.50730497 0.12928335
0.07837005 0.70999914 0.01071655
0.28062198 0.25228965 0.24613465
0.19836782 0.49930069 0.09430243
0.09725383 0.47458342 0.21026164
0.20934804 0.49109131 0.09174895
0.07767333 0.69831705 0.02212433
0.28719285 0.25074899 0.24149911
0.13803940 0.34212828 0.29473984
0.58335602 0.10029956 0.10721613
0.67362303 0.06699319 0.05472366
0.69958925 0.09372640 0.00615812
0.39821005 0.17984408 0.20453396
0.36986253 0.25903964 0.15767457
0.44753119 0.16889071 0.16917585
0.24088372 0.35534680 0.18778297
0.62155312 0.05728108 0.11165931
0.41040871 0.32488060 0.05963269
0.30909356 0.19855972 0.26941162
0.31957823 0.42773804 0.04854917
0.14047380 0.39266017 0.24592887
0.44114476 0.25503263 0.09567660
0.51995826 0.16187286 0.10889749
0.41642454 0.23805757 0.13410120
0.13202621 0.50616759 0.14911109
0.11156897 0.62153292 0.06164854
0.14748065 0.25779659 0.36375502
0.25330767 0.50265747 0.04057876
0.39610332 0.25326461 0.13881421
0.19944997 0.51049453 0.08298940
0.60126770 0.08023045 0.10920438
0.67062181 0.10354123 0.02380830
0.34905246 0.41496810 0.03315520
0.27938768 0.48661637 0.03132733
0.66134161 0.05000575 0.08169659
0.26272863 0.22566427 0.28716069
0.62686616 0.13833961 0.03206295
0.20777103 0.57223952 0.01841951
0.69269961 0.02908067 0.07208206
0.14537270 0.41801709 0.21804667
0.31309012 0.48600498 0.00083202
0.62685204 0.06842666 0.09650480
0.58851600 0.12198399 0.08247752
0.12273334 0.61250144 0.05968296
0.45204309 0.17542188 0.15899903
0.06137334 0.70669967 0.02942067
0.17517781 0.45791829 0.15380916
0.37269515 0.24341874 0.16945970
0.14348498 0.44672331 0.19333214
0.71487242 0.04142175 0.04027554
0.16752964 0.18269084 0.41449261
0.36227375 0.42011768 0.01622539
0.60921991 0.10982633 0.07460163
0.37387839 0.18347615 0.22360982
0.35961282 0.36325440 0.07108038
0.02933439 0.68906993 0.07519260
0.22183219 0.24020860 0.31144518
0.45224714 0.30261889 0.04159162
