ply
format ascii 1.0
element vertex 382
property float x
property float y
property float z
end_header
0.53896660 0.39491925 0.30964670
0.62425512 0.27126217 0.22090925
0.29998076 0.52546662 0.05885551
0.16304097 0.70292634 0.15256916
0.66804022 0.19999772 0.15735652
0.34036899 0.45991316 0.00065476
0.39060926 0.49632084 0.20104937
0.39430979 0.43712267 0.07269752
0.29784688 0.53883237 0.08483186
0.31983513 0.52738506 0.10921048
0.70151156 0.15132087 0.12219022
0.52928227 0.43389821 0.37739921
0.33156449 0.61536282 0.33981106
0.57177323 0.30214944 0.17096651
0.44553146 0.41937912 0.15012380
0.23018098 0.65878838 0.20576742
0.53816807 0.42148656 0.36924452
0.37033781 0.52817541 0.22783890
0.12381723 0.68153024 0.01236954
0.30052367 0.57574540 0.17639361
0.37747407 0.51272160 0.20860215
0.48611313 0.51300752 0.46052173
0.29907143 0.58161163 0.18660229
0.52190757 0.39698929 0.27498046
0.15222353 0.70197380 0.12534776
0.34697285 0.59267479 0.32297462
0.69954848 0.11163659 0.02587056
0.21343595 0.60671312 0.04660194
0.30355847 0.61064923 0.26413769
0.38703692 0.48140764 0.15829700
0.35397527 0.59445179 0.34327939
0.43841118 0.54774821 0.43054560
0.47124296 0.52274752 0.44865695
0.24042413 0.62477922 0.15080152
0.39954537 0.48999172 0.20707877
0.27575931 0.60498941 0.18675432
0.73232841 0.11332704 0.10559155
0.51514804 0.28983626 0.01152975
0.51317042 0.40305564 0.26880357
0.35158616 0.56056738 0.25938636
0.42623630 0.49625105 0.28328553
0.59112120 0.37311217 0.37983361
0.71942019 0.09387008 0.03073930
0.44874999 0.38215542 0.07147859
0.73109835 0.07727244 0.01936186
0.24747454 0.58016890 0.06393444
0.49407068 0.33311921 0.06288549
0.31526318 0.58976310 0.24290287
0.49247757 0.31240466 0.01129362
0.46696216 0.35794336 0.05760234
0.44122618 0.50092191 0.32875654
0.64741123 0.24102800 0.20453943
0.47431144 0.51300132 0.43321276
0.64362502 0.17273302 0.03783424
0.41444430 0.53848076 0.35368177
0.34376228 0.60585773 0.34603861
0.52550077 0.30957165 0.08111573
0.22834034 0.65537685 0.19362032
0.46422836 0.52189916 0.43047160
0.66125786 0.14111950 0.00550047
0.18544906 0.67508906 0.14001240
0.38762346 0.53902483 0.29290929
0.48416537 0.50028068 0.42658246
0.27619615 0.57453078 0.11732068
0.61477506 0.21676524 0.07294690
0.23334572 0.57315546 0.01503784
0.53162563 0.33342564 0.15044910
0.54943758 0.44335493 0.44588548
0.05518026 0.76396376 0.04427782
0.23572627 0.61534911 0.11812652
0.68950427 0.14911456 0.08931772
0.32213947 0.55804676 0.18545294
0.36747822 0.56125003 0.29772016
0.51448745 0.34114438 0.12866443
0.39966774 0.53173095 0.30389592
0.38940132 0.45243239 0.09675289
0.53181928 0.44765076 0.41507348
0.67558318 0.20954122 0.19687314
0.28223974 0.61920172 0.23461229
0.59272182 0.37740833 0.39347163
0.41081047 0.43394879 0.10351894
0.21722633 0.64423943 0.14215744
0.21785219 0.61321616 0.07185537
0.53310031 0.32165530 0.12663794
0.40335456 0.50189972 0.24342924
0.36319038 0.58592898 0.34488046
0.32525253 0.61665523 0.32820204
0.27146003 0.57529902 0.10814399
0.49372271 0.51286215 0.47778487
0.65374428 0.14950384 0.00751431
0.55345517 0.41969877 0.40046543
0.28475350 0.59287864 0.17954630
0.04850830 0.75230807 0.00189029
0.30533957 0.60415602 0.25323957
0.47293305 0.39380488 0.15434995
0.59425133 0.23708995 0.07248666
0.22059916 0.65006059 0.16342124
0.47022775 0.51391488 0.42588082
0.69706237 0.15016118 0.10921818
0.62363219 0.31540710 0.32156461
0.32391801 0.53134644 0.12781481
0.53014594 0.44239637 0.39905116
0.45648828 0.45715338 0.26282698
0.31742638 0.58052564 0.22654156
0.46115193 0.52779752 0.43699816
0.56888640 0.37384015 0.33009309
0.43415222 0.46351945 0.22589190
0.66636640 0.17044033 0.08512673
0.16287929 0.64806652 0.02531709
0.24173991 0.59200585 0.07804753
0.71269464 0.11645671 0.06742191
0.48720407 0.43180582 0.27524227
0.27438509 0.55163729 0.06018532
0.57233483 0.39666703 0.39086229
0.36012954 0.47833934 0.08897092
0.73948395 0.08400443 0.05432492
0.62659198 0.21269947 0.09087333
0.66496134 0.18602800 0.11792753
0.06949060 0.74331236 0.02961218
0.63839537 0.25103542 0.20683268
0.47924259 0.49042067 0.39239299
0.29363987 0.63009584 0.28617412
0.48789752 0.47139773 0.36841387
0.41014284 0.45415926 0.14871649
0.51049060 0.49455962 0.47423542
0.41426823 0.41146532 0.05951735
0.45763603 0.51004708 0.38781360
0.22575599 0.61913949 0.10383395
0.04139433 0.75945026 0.00195555
0.10756691 0.70254779 0.02339496
0.41968367 0.50139433 0.28002611
0.47660962 0.33602723 0.02922809
0.39087889 0.42492867 0.03656108
0.45658171 0.48702142 0.33212155
0.69237036 0.11772199 0.02334326
0.44870245 0.53527975 0.42551014
0.60753393 0.30883399 0.26913148
0.52719396 0.38472897 0.25885123
0.67461264 0.13803770 0.02925928
0.46853021 0.35690787 0.05883403
0.46858826 0.38439178 0.12253146
0.60904253 0.31123734 0.27817869
0.43765503 0.55687284 0.44990021
0.52556735 0.36173588 0.20191228
0.51830447 0.40374452 0.28227064
0.73047441 0.07465511 0.01186563
0.19192724 0.62089956 0.02966734
0.19089706 0.61682320 0.01785722
0.34738177 0.56398702 0.25757149
0.33529583 0.48079541 0.03721724
0.58144635 0.26380467 0.10465628
0.19346489 0.63104385 0.05668475
0.17832512 0.65794599 0.08388806
0.15906104 0.67076933 0.06899231
0.67474675 0.20728707 0.18972543
0.56635952 0.41639295 0.42266476
0.11469056 0.71891582 0.07772561
0.50369942 0.45748526 0.37278363
0.24149320 0.64606851 0.20251174
0.25536039 0.64159089 0.22422773
0.52149582 0.41121820 0.30693674
0.61681128 0.24367157 0.13988356
0.48477331 0.45849156 0.33133897
0.54933256 0.36204237 0.25758389
0.28896105 0.62686658 0.26788449
0.35281348 0.49719396 0.11565664
0.71154332 0.11637356 0.06456691
0.43697593 0.53021860 0.38668385
0.08765836 0.72069234 0.01931534
0.44489035 0.55509108 0.46251309
0.50076044 0.42776823 0.29725701
0.63539559 0.21863650 0.12496463
0.53542191 0.35413137 0.20711605
0.53029317 0.41981173 0.34715810
0.33506727 0.55409783 0.20621909
0.09649487 0.73328471 0.06887531
0.53968453 0.36560661 0.24351357
0.36424777 0.57160318 0.31419331
0.32202423 0.56830126 0.20890290
0.27221635 0.57754147 0.11507939
0.40295225 0.43347013 0.08423786
0.70075458 0.13145310 0.07449030
0.12785824 0.69070780 0.04294070
0.44993898 0.42739603 0.17885827
0.73242640 0.09800120 0.07037355
0.42346314 0.54083771 0.37999156
0.33766916 0.61462700 0.35222802
0.22676720 0.57742375 0.00969491
0.27870139 0.64006925 0.27469116
0.37868026 0.42725760 0.01373500
0.49585721 0.45387861 0.34630489
0.54953641 0.28816047 0.08718547
0.40551078 0.44419760 0.11496494
0.17154218 0.63568407 0.01671477
0.23728368 0.59676284 0.07874304
0.63984919 0.26750556 0.24828617
0.72207457 0.11600004 0.08805909
0.39240694 0.52376974 0.26869065
0.65137494 0.18849565 0.09221266
0.40533862 0.55563337 0.37229270
0.17408112 0.66488892 0.09012997
0.50441593 0.41982317 0.28733608
0.23455960 0.60876948 0.10021124
0.53571135 0.33710012 0.16839652
0.56031865 0.25711542 0.04032276
0.27974808 0.62028521 0.23135550
0.41560403 0.48815995 0.23998243
0.48356804 0.51940835 0.46943930
0.21269935 0.59314811 0.01352602
0.19769305 0.66558903 0.14635850
0.19328628 0.67682493 0.16215292
0.18752515 0.62496412 0.02888677
0.43145707 0.38683504 0.04230719
0.39395654 0.50362831 0.22569154
0.41959766 0.42804632 0.11019062
0.32959309 0.53753215 0.15524574
0.25313640 0.61557937 0.15892489
0.57182038 0.23959947 0.02641345
0.54854977 0.32994869 0.18154907
0.71028852 0.15875414 0.15968020
0.18564464 0.66042417 0.10654796
0.26140398 0.59526181 0.13105580
0.50699455 0.45344323 0.37105608
0.09862367 0.71271622 0.02622853
0.54053098 0.29033783 0.07139385
0.17981428 0.68715823 0.15489389
0.60638064 0.34228989 0.34383988
0.55460471 0.41361061 0.38904348
0.37641200 0.44848007 0.05757120
0.64092964 0.26505458 0.24511652
0.51778626 0.46016482 0.41156068
0.46534681 0.36613536 0.07281246
0.52059042 0.49271137 0.49331939
0.48540220 0.42079186 0.24560191
0.19453628 0.64283490 0.08643229
0.59992415 0.20851649 0.01952330
0.06607750 0.75379372 0.04595952
0.77800679 0.02348618 0.00345517
0.20913701 0.65549958 0.14949107
0.20462903 0.63352329 0.08823875
0.51358235 0.39785656 0.25773188
0.27259439 0.54356146 0.03736655
0.21198724 0.59435433 0.01466876
0.21172982 0.68286282 0.21877310
0.21343309 0.61231315 0.05954669
0.48160416 0.52682292 0.48204562
0.55335939 0.29119974 0.10305609
0.67975402 0.21758541 0.22512336
0.42226008 0.44391540 0.15304919
0.43854111 0.49631429 0.31189013
0.56434381 0.42386794 0.43529096
0.68751395 0.19385965 0.18819849
0.55969024 0.39684057 0.36201954
0.74139535 0.05923636 0.00146327
0.68124604 0.13561350 0.03899402
0.39200667 0.57291818 0.38143498
0.30620417 0.54693085 0.12288984
0.49972841 0.33842927 0.08825121
0.20742255 0.66410255 0.16542283
0.16197465 0.69018662 0.12063879
0.52696818 0.36547682 0.21380381
0.16314863 0.66037387 0.05440371
0.40984997 0.55643094 0.38457105
0.27321854 0.56152958 0.08036570
0.71644753 0.10645878 0.05297876
0.21511045 0.65291995 0.15734020
0.29276696 0.54313159 0.08302641
0.75284100 0.07546029 0.06545592
0.64305216 0.26210850 0.24321188
0.45656791 0.39356458 0.11594590
0.08002422 0.72248662 0.00580916
0.47354829 0.32720283 0.00173938
0.26586482 0.60023713 0.15287954
0.18525293 0.69522762 0.18613516
0.48190278 0.34513286 0.06252873
0.44426441 0.46716082 0.25770095
0.55716336 0.27809304 0.08154128
0.73730820 0.07732267 0.03383980
0.33487192 0.58686990 0.28156215
0.56409466 0.29540864 0.13761815
0.36322200 0.53440303 0.22578475
0.53991497 0.36736840 0.24812117
0.29851377 0.62323719 0.28158385
0.53726113 0.33201283 0.16021509
0.45346892 0.48777652 0.32666886
0.45617318 0.38284820 0.09024873
0.55373871 0.26915446 0.05294836
0.29738119 0.63521451 0.30666536
0.59603214 0.32338664 0.27618733
0.19870019 0.67040694 0.15983054
0.51708502 0.40765682 0.28849876
0.75053191 0.05060177 0.00262416
0.68095815 0.19338343 0.17193522
0.49968228 0.37321118 0.16858613
0.18928997 0.66043037 0.11499314
0.49813336 0.40393409 0.23605809
0.57933801 0.26454717 0.10149740
0.52685994 0.35150599 0.18124256
0.42046791 0.44668660 0.15531345
0.32566354 0.57075357 0.22299159
0.34893200 0.59764576 0.33900240
0.50871170 0.35156524 0.13940729
0.28149420 0.55682778 0.08863126
0.45874447 0.45348725 0.25956607
0.48698953 0.50558519 0.44538242
0.56265718 0.37943164 0.32861814
0.62361270 0.27447963 0.22686465
0.38799942 0.53141290 0.27617395
0.32545498 0.47830346 0.00869464
0.59474087 0.29677606 0.21165746
0.09555722 0.73418200 0.06878191
0.51802570 0.31444746 0.07510432
0.41326293 0.44424567 0.13300493
0.18386322 0.62871176 0.02908497
0.52393830 0.45800793 0.42080051
0.31288883 0.52746940 0.09334045
0.36026394 0.59850794 0.36720473
0.53729308 0.46947494 0.47820801
0.09851440 0.71252525 0.02553418
0.41311967 0.52501196 0.31946757
0.47897172 0.42745924 0.24614991
0.49335626 0.36791372 0.14170405
0.38072947 0.52615023 0.24718881
0.42566401 0.53169370 0.36393335
0.45474792 0.39602131 0.11741847
0.64538670 0.21503285 0.13973719
0.39336392 0.43689844 0.06999130
0.58797354 0.34621587 0.31034827
0.49109364 0.36271775 0.12445421
0.23852175 0.65506613 0.21644913
0.38774803 0.53276497 0.27871969
0.41927645 0.40165535 0.04841213
0.08344546 0.73449701 0.04149854
0.66340834 0.14542598 0.02043383
0.53481716 0.33777145 0.16788112
0.50033599 0.42398605 0.28752801
0.25177270 0.62556452 0.17886449
0.21117128 0.62511086 0.08391354
0.55828065 0.37513101 0.30854982
0.36933950 0.43882233 0.01887851
0.30340320 0.54571790 0.11360676
0.49476713 0.43982249 0.31127489
0.37722760 0.55205214 0.29899544
0.64818168 0.25952101 0.24909092
0.55921948 0.30639914 0.15176123
0.27484134 0.62876046 0.23960882
0.41451749 0.40667537 0.04901586
0.10823036 0.69866776 0.01595587
0.56856620 0.37874717 0.34070152
0.64036071 0.25754833 0.22644080
0.47163448 0.45890680 0.30191207
0.61917764 0.27877143 0.22653329
0.55584872 0.36424416 0.27774626
0.41181993 0.38951978 0.00310068
0.69133198 0.18852688 0.18469533
0.12509710 0.72029227 0.10497715
0.51799178 0.39857331 0.26958767
0.31403619 0.53888369 0.12239234
0.33938709 0.60176724 0.32645932
0.15828264 0.71016753 0.15831155
0.29096803 0.58005702 0.16426538
0.49217123 0.48650557 0.41323936
0.55875623 0.35617602 0.26581097
0.46455345 0.54180634 0.47726467
0.28119177 0.61163020 0.21467721
0.14713866 0.69748819 0.10321328
0.52307165 0.40087569 0.28666109
0.18433616 0.67136419 0.12882362
0.35436729 0.52687061 0.18788491
0.58418095 0.25735793 0.09607106
0.24527100 0.63966715 0.19644395
0.40357620 0.48917499 0.21451223
0.48852038 0.33054376 0.04409274
0.38384748 0.44693649 0.07119773
0.45868450 0.44987857 0.25108123
0.28481525 0.55736202 0.09754747
0.33000448 0.50994170 0.09238753
0.75356197 0.04985888 0.00791391
0.56168836 0.29128632 0.12251915
0.56325793 0.36944515 0.30691096
0.75541043 0.07025822 0.05936725
0.14103240 0.66872770 0.02257483
