ply
format ascii 1.0
element vertex 1383
property float x
property float y
property float z
end_header
-0.18884817 -0.12397054 0.00000339
-0.00618375 -0.09252229 0.00000262
-0.54728609 0.12552305 -0.15167509
-0.14603296 0.44743824 0.07883793
-0.34664443 -0.03687931 0.17422529
-0.19119336 0.33841711 0.03472203
-0.09511722 -0.10219808 0.00000305
-0.48677135 -0.10863513 -0.06250198
-0.51998627 0.14989649 -0.14193477
-0.25818521 -0.11081722 0.00000375
-0.19099487 0.23678280 0.00000734
-0.29553020 -0.49832085 0.00000247
-0.23999034 0.22059926 0.20202211
-0.21624422 -0.34730592 0.00000268
-0.36087757 0.00875613 -0.01875062
-0.55379128 -0.75546879 0.00000267
-0.29304269 -0.44787139 0.00000265
-0.09453241 -0.58712375 0.00000123
-0.44329649 -0.50231177 0.00000312
-0.48835209 0.05208345 -0.10108482
-0.17791300 0.50032169 -0.03044412
-0.67554754 -0.47175434 -0.08422433
-0.57954168 -0.59914762 0.04813067
-0.45031041 -0.28715545 0.04862491
-0.16104881 0.41118434 0.11659737
-0.54365915 -0.28642884 -0.05301505
-0.64045560 0.03166853 -0.18241432
-0.45671099 -0.30261585 0.25885412
-0.42939013 -0.23665905 0.30266362
-0.07672896 0.61475486 0.01647037
-0.54720330 -0.62844783 0.00000312
-0.21346895 0.28463233 0.12896398
-0.09902773 0.51783907 0.00000662
-0.52042234 0.04572401 -0.11775078
-0.26946032 0.14945737 0.15870593
-0.49319187 -0.34248909 -0.01129563
-0.40173054 -0.76695985 0.00000194
-0.64803845 -0.00083761 -0.17908411
-0.19650593 -0.00984796 0.00000385
-0.48635283 -0.10217791 -0.06377932
-0.39481258 -0.15317294 0.07955639
-0.73114485 -0.68991834 -0.06453809
-0.71555179 -0.48572671 -0.10359605
-0.59165281 0.12057381 -0.17563374
-0.37335724 -0.10137621 0.10895640
-0.35410926 -0.05491095 0.29938456
-0.54858148 -0.24763116 -0.06490040
-0.62586397 -0.71098006 0.07046772
-0.31353313 -0.38305339 0.00000298
-0.00615348 -0.60476583 0.00000076
-0.31452882 -0.61033231 0.00000214
-0.68266124 -0.30697060 -0.12689552
-0.46492848 -0.69929498 0.00000248
-0.31126913 0.17208070 -0.02896695
-0.13212132 -0.07000649 0.00000334
-0.41512620 -0.20222655 0.40021577
-0.43449903 -0.42365685 0.00000338
-0.61680734 -0.47042036 -0.05128071
-0.27882323 0.12685022 0.20116930
-0.61253774 -0.56344318 -0.02704848
-0.31954953 0.14097627 -0.02636040
-0.29945347 -0.46157783 0.00000262
-0.32548091 -0.33301210 0.00000322
-0.40928459 0.33085436 -0.12169702
-0.69122434 -0.37161013 -0.11658491
-0.27808014 0.12866014 0.00718607
-0.15204453 -0.68464899 0.00000112
-0.27594754 -0.05700594 0.00000404
-0.45927969 -0.72253305 0.00000237
-0.28562385 -0.45951480 0.00000257
-0.36009383 -0.02849735 -0.00957517
-0.35132235 -0.04817242 0.17215493
-0.15887552 0.51007688 -0.02195340
-0.52553397 -0.69411057 0.00000278
-0.21600956 0.11170624 0.00000790
-0.57315081 -0.13219373 -0.10588201
-0.42975810 -0.17909183 -0.01370034
-0.11468908 0.21759447 0.00000864
-0.18796153 0.34621590 0.07571680
-0.33357435 0.34374851 -0.08185570
-0.63140321 -0.56390798 -0.03762040
-0.29704309 -0.63324118 0.00000197
-0.00116988 -0.26460636 0.00000201
-0.65176672 -0.58019781 -0.04532930
-0.12026657 0.34831029 0.00000757
-0.68164295 -0.75628048 -0.02095036
-0.48640198 -0.37429503 0.22589745
-0.27094722 0.00053010 0.00000791
-0.32090950 0.02525804 0.06623230
-0.51449347 -0.14529476 -0.06960011
-0.25943804 -0.36398527 0.00000281
-0.20093985 0.03660710 0.00000869
-0.27999428 -0.34675455 0.00000297
-0.28414044 -0.21184348 0.00000349
-0.26977375 0.48595607 -0.07908436
-0.50394881 -0.41665822 0.30678543
-0.20677921 0.30077896 0.17172635
-0.33538574 -0.50828212 0.00000261
-0.20164745 0.35174865 -0.00903815
-0.65215242 -0.22200584 -0.12954776
-0.15404996 -0.55875921 0.00000160
-0.11537334 -0.59626549 0.00000129
-0.31432393 0.04113569 0.32126051
-0.16098566 0.41134331 0.03757433
-0.60833490 -0.65136945 -0.00404929
-0.19336332 0.53222650 -0.04667415
-0.03219453 -0.14327380 0.00000261
-0.37259036 -0.20317405 0.00000392
-0.66926354 -0.29716998 -0.12160861
-0.24238499 0.00898392 0.00000828
-0.09220828 -0.34677657 0.00000212
-0.25870273 0.30777031 -0.03102751
-0.25260016 0.31850132 -0.03008906
-0.53703696 -0.25064561 -0.05765738
-0.01339056 0.56531841 0.00000756
-0.45301908 0.04458414 -0.07932139
-0.36555144 -0.34012389 0.00000338
-0.12331254 -0.31220108 0.00000239
-0.07029135 -0.37096632 0.00000193
-0.01814103 0.05066889 0.00001135
-0.24921174 -0.73034233 0.00000139
-0.73880810 -0.47361442 -0.11960279
-0.59268737 -0.63088447 0.05680784
-0.00372728 -0.13208599 0.00000252
-0.04783391 0.63985175 0.00000648
-0.44182983 0.01778155 -0.06670046
-0.17527495 -0.44571906 0.00000212
-0.14521746 -0.10013597 0.00000328
-0.24715801 0.20330757 0.05321683
-0.45195001 -0.29111212 0.00330383
-0.02078933 -0.09863387 0.00000272
-0.07694915 -0.45321941 0.00000165
-0.49757448 -0.18741091 -0.05014449
-0.61908263 -0.19980210 -0.11603192
-0.48948801 -0.46655393 0.00000347
-0.20221309 0.56722867 -0.05989349
-0.45103800 -0.28891367 0.09186295
-0.53157496 0.12228143 -0.14201963
-0.27021503 0.14763609 0.14967062
-0.17813131 0.24761447 0.00000746
-0.38668063 -0.13354370 0.15962328
-0.59840679 -0.21525654 -0.10070183
-0.41496128 -0.20181613 0.07747333
-0.28167102 -0.42609277 0.00000268
-0.04921339 -0.02501394 0.00000313
-0.03890429 0.70920265 -0.00072826
-0.40027812 -0.06559819 -0.02362543
-0.08968965 -0.33545116 0.00000215
-0.12946644 0.48742905 0.12183902
-0.19416241 -0.75502288 0.00000105
-0.31208339 0.04655222 0.23037998
-0.42439133 0.30158243 -0.12338512
-0.76994765 -0.77620238 -0.06627100
-0.60439146 0.09502439 -0.17685413
-0.59040415 -0.08830190 -0.12594333
-0.18076631 0.57686913 -0.05001176
-0.23142105 0.24128684 0.20314224
-0.44498768 -0.27431470 0.29669970
-0.33849138 0.12534548 -0.03341902
-0.10934958 0.53600138 0.03867102
-0.27505508 0.13596196 0.02120563
-0.63954121 -0.66972882 -0.01741164
-0.46021980 -0.31108224 0.13771540
-0.18518144 0.17047969 0.00000793
-0.61366814 0.01908497 -0.16429679
-0.19983897 -0.03358945 0.00000378
-0.44793168 -0.28142276 0.31371993
-0.31442147 -0.49135441 0.00000258
-0.03043000 0.03511967 0.00001128
-0.40199688 -0.29267827 0.00000372
-0.67719746 -0.50820690 -0.07660993
-0.56717509 0.05728079 -0.14693139
-0.32630071 -0.61092615 0.00000219
-0.56531960 -0.12682281 -0.10270782
-0.45454770 -0.29739627 0.34017569
-0.40363616 -0.17448477 0.33884710
-0.63546425 0.07654239 -0.19011231
-0.28325555 0.11615334 0.15885343
-0.42443019 -0.22467341 0.00505023
-0.46170041 -0.11773491 -0.04617376
-0.49674216 -0.68870246 0.00000267
-0.48795614 -0.37803993 0.03711069
-0.10716321 0.55704582 -0.00369047
-0.14565755 0.14492083 0.00000872
-0.34957096 0.05022836 -0.02207530
-0.05909748 -0.44325829 0.00000161
-0.53845823 -0.35946769 -0.03294204
-0.46750346 -0.32867169 0.27259028
-0.29063261 -0.67235810 0.00000179
-0.14875861 0.00910478 0.00000969
-0.70630234 -0.56206471 -0.08045724
-0.58161187 -0.09620583 -0.11911190
-0.23369741 0.43345317 -0.04634567
-0.57212955 0.09817041 -0.15932605
-0.33616862 0.32514992 -0.07896272
-0.13738471 0.55010641 -0.01917368
-0.02900823 0.56456465 0.00000733
-0.03309809 -0.04048441 0.00000300
-0.08869694 0.02832040 0.00001045
-0.14383756 -0.79306680 0.00000068
-0.51746976 -0.44929990 0.26470518
-0.52815151 -0.58718956 0.00000319
-0.16018614 0.41327336 0.03917041
-0.18472378 0.35403711 0.01832357
-0.42819536 -0.19705802 -0.00860229
-0.54036832 -0.25415131 -0.05872137
-0.37254021 0.10987057 -0.04906741
-0.10254110 -0.52780825 0.00000148
-0.10164311 -0.17846759 0.00000279
-0.28806829 0.27590168 -0.04017963
-0.37369487 -0.10219559 0.22091009
-0.64102960 -0.58334547 -0.03851218
-0.38592187 -0.52819753 0.00000277
-0.26649898 -0.66631484 0.00000171
-0.21858646 -0.69639218 0.00000138
-0.33463177 0.40723312 -0.09734302
-0.17666572 -0.00825414 0.00000377
-0.23631261 -0.76391000 0.00000121
-0.11973477 0.51092774 0.06360572
-0.38477483 -0.42009273 0.00000317
-0.40749055 -0.18378119 0.10356510
-0.62644470 -0.40271690 -0.07261421
-0.36565834 0.18122329 -0.06190494
-0.37681589 0.03909383 -0.03488940
-0.71338296 -0.31194502 -0.14312240
-0.16277646 -0.24505080 0.00000282
-0.21282654 0.28618205 0.14348122
-0.56183505 -0.52235460 -0.00797831
-0.40846112 -0.66815442 0.00000234
-0.10693552 0.03934953 0.00001009
-0.15782809 -0.55901492 0.00000162
-0.27235231 -0.57278389 0.00000208
-0.33099893 0.00088854 0.21105152
-0.28140968 -0.11017298 0.00000386
-0.55806446 -0.54729766 0.06683803
-0.20964716 -0.37561190 0.00000254
-0.65559548 -0.62009281 -0.03814121
-0.07579464 0.31141710 0.00000852
-0.06099446 0.26827732 0.00000907
-0.09919291 -0.33692810 0.00000219
-0.27956134 0.12507361 0.13666864
-0.17414841 -0.45688269 0.00000208
-0.42286119 0.12280854 -0.08059216
-0.01369869 0.35748923 0.00000911
-0.04777103 0.17294072 0.00000998
-0.28769276 -0.45189208 0.00000261
-0.57113343 -0.63503736 0.00000320
-0.69543195 -0.45902491 -0.09846732
-0.19679148 -0.14311646 0.00000335
-0.03856207 0.56282872 0.00000720
-0.56186736 -0.79226828 0.00000257
-0.09528919 0.56994307 0.06811919
-0.27661943 -0.35915938 0.00000291
-0.03441847 0.57688260 0.00000715
-0.16867419 -0.58903885 0.00000155
-0.17019668 -0.42771518 0.00000217
-0.24711198 -0.05699239 0.00000390
-0.06879006 0.20939422 0.00000939
-0.68354291 -0.44514492 -0.09499122
-0.55371094 0.05915058 -0.13974681
-0.11187956 -0.41413489 0.00000195
-0.31655616 -0.59023225 0.00000222
-0.34032306 -0.29748109 0.00000342
-0.34700730 -0.03776002 0.06255932
-0.03157135 0.67759895 0.00000644
-0.52537310 -0.03012293 -0.10276885
-0.72713184 -0.20437753 -0.17613222
-0.47465169 -0.46881506 0.00000339
-0.51442111 -0.63488662 0.00000295
-0.01871520 0.02829592 0.00001151
-0.21687931 0.27640522 0.05543607
-0.65885717 -0.52613842 -0.06202119
-0.55148596 -0.64060998 0.00000309
-0.57779211 -0.31777853 -0.06498798
-0.50498241 -0.73735934 0.00000252
-0.21374732 0.52674323 -0.05692912
-0.53057557 -0.77205682 0.00000251
-0.38609242 -0.00127122 -0.03067500
-0.60141730 0.09630114 -0.17546965
-0.27735564 0.13039292 0.20491827
-0.70280701 -0.13695092 -0.17817283
-0.17984432 0.50080174 -0.03165018
-0.52986830 -0.47922522 0.04491379
-0.20809247 -0.08831504 0.00000361
-0.16653024 0.39795843 0.02987590
-0.62002450 -0.51476079 -0.04270380
-0.24026634 0.21994206 0.09135365
-0.08700789 -0.77808559 0.00000048
-0.03854251 0.72763693 -0.00484669
-0.54847020 -0.75893384 0.00000264
-0.44141251 -0.26568162 0.24872983
-0.13789751 0.18557505 0.00000853
-0.13504410 -0.62898225 0.00000125
-0.61831731 0.02196319 -0.16760403
-0.43513498 -0.44969770 0.00000328
-0.39347288 -0.65104544 0.00000234
-0.68229449 -0.76118708 -0.02016855
-0.13142174 0.15901399 0.00000882
-0.15311010 0.30510947 0.00000740
-0.43102908 -0.24061738 0.34276614
-0.00489833 -0.51540577 0.00000109
-0.16490029 -0.56588876 0.00000162
-0.66714102 -0.65646780 -0.03614748
-0.24294148 0.21347617 0.18425232
-0.28169659 0.24935821 -0.03034708
-0.01456925 0.20337443 0.00001025
-0.53284693 -0.48642272 0.26394472
-0.10246070 0.02375282 0.00001028
-0.47611266 -0.33301738 -0.00384724
-0.21052468 0.29174784 0.03754929
-0.19657955 -0.53351700 0.00000189
-0.40408888 -0.00391065 -0.04024515
-0.39860684 -0.16234441 0.37821645
-0.12824728 0.65103680 -0.03767089
-0.65109396 -0.77188891 0.01363176
-0.33649847 -0.01238610 0.18445770
-0.35331190 -0.05298883 0.33376059
-0.26094368 -0.77986789 0.00000126
-0.56450421 -0.17036887 -0.09203412
-0.75004894 -0.53085101 -0.11254388
-0.53130996 0.09335658 -0.13508603
-0.03242797 0.10116773 0.00001075
-0.34976631 0.11877489 -0.03826165
-0.32703856 0.01044033 0.32284826
-0.38337457 0.17554370 -0.07060343
-0.39869076 -0.72844750 0.00000207
-0.48620838 -0.24578312 -0.03002048
-0.00929373 0.66437083 0.00000688
-0.00429177 -0.09281330 0.00000263
-0.22293758 0.05810886 0.00000820
-0.02543905 0.16507307 0.00001038
-0.64846146 -0.49737853 -0.06288007
-0.59693301 -0.79591775 0.00000272
-0.69390363 -0.27723268 -0.14023441
-0.01934170 0.61619043 0.00000709
-0.08741480 0.02517987 0.00001049
-0.23388954 0.04173305 0.00000816
-0.39334023 -0.14962018 0.12717792
-0.46612462 -0.69975162 0.00000249
-0.00953561 0.48249635 0.00000824
-0.21951550 0.27002934 0.19695064
-0.09961715 -0.69020033 0.00000086
-0.41869366 -0.50351596 0.00000301
-0.06150982 -0.24754418 0.00000235
-0.65367895 -0.71243805 -0.01540011
-0.63665038 -0.08352895 -0.15324549
-0.51348978 -0.52284455 0.00000336
-0.54116064 -0.15352564 -0.08276782
-0.25692487 0.26071614 -0.01898563
-0.20226753 -0.29145768 0.00000282
-0.37226757 -0.65151405 0.00000224
-0.29682097 0.08339359 0.28708261
-0.51301318 -0.00860070 -0.10081550
-0.23719776 0.05781278 0.00000799
-0.39216265 -0.13548927 -0.00264051
-0.47400892 0.23083292 -0.13488498
-0.48551017 -0.29319754 -0.01850597
-0.57571119 -0.08933372 -0.11738275
-0.11692709 0.44128624 0.00000693
-0.60151929 0.03190302 -0.16042453
-0.57330781 -0.50725263 -0.01801532
-0.49966028 -0.40630507 0.29888472
-0.23144512 -0.16478376 0.00000343
-0.00301409 0.03549912 0.00001169
-0.13077430 0.37988004 0.00000718
-0.37974301 -0.11679194 0.08554776
-0.48909569 -0.31335157 -0.01580959
-0.62647152 -0.35229683 -0.08445351
-0.15871251 -0.01212845 0.00000367
-0.15774515 -0.26825014 0.00000271
-0.28532523 0.15449630 -0.01015420
-0.56281757 -0.55877382 0.09580495
-0.62440699 -0.70746237 0.05494358
-0.50376558 -0.41621590 0.31803766
-0.45103508 -0.09705089 -0.04498610
-0.45520124 -0.47968510 0.00000326
-0.70519114 -0.77812904 -0.02915807
-0.04553206 -0.64966160 0.00000077
-0.24227326 0.21510050 0.04931841
-0.55127800 -0.38458902 -0.03430888
-0.05757241 -0.08288835 0.00000295
-0.17443335 -0.03169631 0.00000367
-0.57607275 -0.49092266 -0.02341029
-0.51236051 0.13610975 -0.13438393
-0.66515583 -0.60075277 -0.04808935
-0.04023072 -0.63447547 0.00000080
-0.09194780 -0.42490041 0.00000182
-0.46154431 0.13571614 -0.10552073
-0.44279867 0.05226696 -0.07533664
-0.63435525 -0.00775521 -0.16971466
-0.15350528 0.42940074 0.05564226
-0.28319615 -0.56169689 0.00000218
-0.05229147 -0.18438981 0.00000255
-0.59146196 -0.32767981 -0.07040536
-0.37214553 0.17261896 -0.06355990
-0.37522149 -0.10588321 0.27478084
-0.35822380 -0.17084906 0.00000398
-0.39046711 -0.56909722 0.00000263
-0.66143292 0.04909902 -0.19837902
-0.18954805 -0.59467965 0.00000163
-0.32694232 -0.30614004 0.00000333
-0.14720763 0.63486558 -0.04461319
-0.63114715 -0.60341793 -0.02820990
-0.73329556 -0.68235552 -0.06752926
-0.35968402 -0.06836915 0.29698181
-0.35392922 0.13022262 -0.04330335
-0.26363024 -0.65687025 0.00000173
-0.36740255 -0.03847066 -0.01137424
-0.12545297 -0.38590735 0.00000212
-0.14389858 0.45259160 0.07164988
-0.57264584 -0.57940489 -0.00072001
-0.38660258 -0.13335530 0.16125412
-0.22063334 -0.34463447 0.00000271
-0.25254074 0.47863844 -0.06761129
-0.72211903 -0.42716444 -0.12104764
-0.14467572 0.16629948 0.00000857
-0.62443143 -0.70752174 0.13473724
-0.29620814 -0.51576489 0.00000241
-0.15823507 0.41798076 0.07343249
-0.28132692 0.12080072 0.26373804
-0.09666810 0.56661326 0.07896878
-0.45768371 -0.58284140 0.00000289
-0.12817644 0.49054459 0.10687938
-0.68385005 -0.50354427 -0.08146979
-0.14702116 -0.51420498 0.00000174
-0.62442589 0.05916956 -0.17978834
-0.39224312 -0.14696816 0.03926339
-0.03901290 -0.20241983 0.00000242
-0.28224596 0.31754211 -0.04664883
-0.41682413 -0.39245579 0.00000342
-0.01617449 -0.71679026 0.00000039
-0.74180776 -0.28147402 -0.16636059
-0.00520069 -0.18692540 0.00000227
-0.34651005 -0.17245889 0.00000392
-0.41356406 -0.46841291 0.00000312
-0.21865316 -0.17855135 0.00000332
-0.04658518 0.19373061 0.00000984
-0.37188244 -0.09781337 0.04670859
-0.18028302 0.36474690 0.15107884
-0.47695315 -0.35148057 0.14867806
-0.41109887 0.08383526 -0.06479249
-0.74533725 -0.35604867 -0.15087001
-0.29899278 -0.34788924 0.00000305
-0.05688525 -0.60590720 0.00000099
-0.46552280 -0.28656077 -0.00874626
-0.02138453 -0.35848472 0.00000175
-0.35065442 -0.04656802 0.27026141
-0.34646988 -0.03646277 0.23350000
-0.39913273 -0.16360123 0.04152224
-0.48936665 -0.19406886 -0.04393616
-0.49252528 -0.38907573 0.16648862
-0.73777843 -0.42549410 -0.13030475
-0.40111005 -0.37965983 0.00000339
-0.41450787 -0.76334256 0.00000201
-0.00448196 0.62736964 0.00000723
-0.04037786 -0.39347968 0.00000171
-0.54161274 -0.33998969 -0.03929583
-0.66551125 -0.80669469 0.03801764
-0.54973674 -0.08809194 -0.10296821
-0.00298689 -0.60688156 0.00000074
-0.62194395 -0.30163911 -0.09376999
-0.35635209 -0.20958786 0.00000383
-0.70750064 -0.02460483 -0.20717660
-0.45683011 -0.52443069 0.00000310
-0.21012801 -0.46547726 0.00000221
-0.36585653 -0.08327581 0.36001137
-0.36741945 -0.05228142 -0.00814502
-0.34899628 0.33831322 -0.08931253
-0.19708441 0.21096538 0.00000744
-0.42386165 -0.61025923 0.00000263
-0.28863919 -0.64821017 0.00000188
-0.15029107 -0.10406659 0.00000329
-0.43129030 -0.24124701 0.31747699
-0.69295877 0.00932724 -0.20690081
-0.00225670 0.54780549 0.00000786
-0.25742161 -0.24282527 0.00000325
-0.03695593 0.57833523 0.00000710
-0.63213539 -0.18782540 -0.12623058
-0.59877396 0.01542225 -0.15500507
-0.33642074 -0.66698331 0.00000202
-0.29139182 -0.16420139 0.00000370
-0.35761055 -0.40196896 0.00000311
-0.09728166 -0.60244673 0.00000118
-0.15016273 0.43868327 -0.00027697
-0.19512846 -0.38000914 0.00000246
-0.35596943 -0.05939643 0.05959972
-0.38399401 -0.12706147 0.26181090
-0.04611986 0.57571679 0.00000699
-0.29233146 0.34808779 -0.05952267
-0.42381024 -0.22318333 0.17961305
-0.03277883 -0.19012971 0.00000244
-0.64408094 -0.75495863 0.04340452
-0.55975157 -0.04138558 -0.11959141
-0.55687428 -0.54442650 0.12517045
-0.39858606 -0.03373438 -0.03013988
-0.35960206 -0.06816667 0.06664233
-0.27054557 -0.34101334 0.00000295
-0.30623224 0.06068725 0.11635245
-0.31847268 0.43240133 -0.09409667
-0.49302629 -0.33742088 -0.01239043
-0.02109183 -0.47967142 0.00000130
-0.27742624 -0.02231157 0.00000417
-0.45954362 0.04765691 -0.08373606
-0.06206798 -0.78516656 0.00000034
-0.31114396 0.30878687 -0.06095685
-0.32262403 0.02111794 0.07755762
-0.02057068 0.16565157 0.00001045
-0.35997024 -0.06906255 0.32614008
-0.34313095 -0.16496935 0.00000393
-0.39749187 -0.15965411 0.41614115
-0.33555436 0.23061948 -0.05644535
-0.05035203 0.61767966 0.00000661
-0.07118330 0.62814224 0.02560226
-0.33981577 0.26750237 -0.06750796
-0.12182349 -0.31069213 0.00000239
-0.15000996 0.43784079 0.03414119
-0.45321345 0.00706691 -0.07063276
-0.14419807 0.45187011 0.05290159
-0.12236578 0.55696058 -0.01227780
-0.57671928 -0.72206128 0.00000290
-0.25778791 -0.75583649 0.00000133
-0.37536430 -0.10161910 -0.00107285
-0.28903329 -0.14639278 0.00000376
-0.35531288 0.33718428 -0.09262408
-0.51440734 0.01274350 -0.10661054
-0.12851271 -0.13280118 0.00000308
-0.75741720 -0.68807250 -0.07984471
-0.02015605 -0.09531530 0.00000273
-0.19998094 0.31720036 0.05966288
-0.39300343 0.20754769 -0.08356074
-0.51999432 0.02710891 -0.11314278
-0.35884473 -0.06633852 0.07286033
-0.40441403 0.03072055 -0.04855107
-0.25177664 -0.69845623 0.00000152
-0.01967391 -0.29435071 0.00000199
-0.31239054 0.44998357 -0.09477656
-0.23476145 0.44210365 -0.04897684
-0.68393785 0.01689391 -0.20356792
-0.64961439 -0.28096971 -0.11428314
-0.71916342 -0.61866713 -0.07446435
-0.28515640 0.11155774 0.23923162
-0.57471251 -0.05186901 -0.12560323
-0.49426317 -0.27468893 -0.02780206
-0.34110579 -0.50752574 0.00000264
-0.02674995 -0.43092394 0.00000151
-0.38722378 -0.12214465 -0.00297378
-0.29185146 0.09539199 0.27298203
-0.21738099 -0.12299993 0.00000352
-0.18940562 0.51216745 -0.03972908
-0.57259530 -0.45580870 -0.02967611
-0.32524693 0.06093080 -0.01081360
-0.23325604 0.34989592 -0.02649966
-0.74392098 -0.39403343 -0.14116026
-0.69712299 -0.08066794 -0.18815376
-0.13743004 0.46820876 0.05904081
-0.21375403 -0.67827106 0.00000142
-0.48023668 -0.52352500 0.00000321
-0.63678122 -0.28645512 -0.10573109
-0.47046331 -0.33581269 0.14786048
-0.01630542 0.02578757 0.00001156
-0.07417412 -0.09493887 0.00000298
-0.71875739 -0.56166589 -0.08760207
-0.32775000 0.00874607 0.04017031
-0.34501320 -0.03293443 0.09141543
-0.36057231 -0.07051469 0.30979630
-0.77083969 -0.58976161 -0.11049896
-0.19144845 0.19280148 0.00000767
-0.29920343 -0.04389714 0.00000419
-0.39222363 -0.14692570 0.16053019
-0.19080152 -0.59357744 0.00000164
-0.01018968 0.74024111 0.00000629
-0.13901015 -0.60761440 0.00000135
-0.25471565 -0.30335474 0.00000302
-0.69122171 -0.14397463 -0.16996655
-0.02719542 -0.75815409 0.00000028
-0.49854770 -0.38832232 -0.00357948
-0.35295218 -0.65894926 0.00000213
-0.17057323 0.38818574 0.17813326
-0.72282898 -0.68267250 -0.06152940
-0.30730778 -0.79224342 0.00000142
-0.74342811 -0.39145714 -0.14148538
-0.74751514 -0.60340750 -0.09409389
-0.37630984 -0.29712206 0.00000359
-0.39197508 0.15349634 -0.07030221
-0.74984533 -0.40959880 -0.14086394
-0.71337092 -0.60245609 -0.07498671
-0.35140467 -0.04838376 0.32549542
-0.34439912 0.08569948 -0.02746593
-0.73710090 -0.64465749 -0.07852432
-0.30026895 0.15145427 -0.01790153
-0.20866667 -0.77331722 0.00000104
-0.21491604 0.41222167 -0.03073284
-0.24521007 0.23589416 -0.00653167
-0.64977592 -0.04346639 -0.17007181
-0.58537847 -0.22166777 -0.09182218
-0.21687005 0.40488958 -0.03011962
-0.20974213 -0.68423963 0.00000138
-0.26348469 -0.04713914 0.00000402
-0.28891343 0.10249126 0.19558977
-0.60010362 -0.28920066 -0.08432174
-0.66408414 -0.13535942 -0.15662262
-0.53380781 0.05379740 -0.12722272
-0.02561260 -0.69415134 0.00000051
-0.64462340 -0.34789890 -0.09576176
-0.17476021 0.37808925 0.03779390
-0.48877329 -0.50200742 0.00000333
-0.08751923 -0.62094259 0.00000107
-0.11211827 -0.43350470 0.00000188
-0.48640296 -0.70173383 0.00000257
-0.21485987 0.48195294 -0.04705465
-0.67050523 -0.07729839 -0.17387396
-0.66908681 -0.81532669 0.09848049
-0.07357995 -0.62404609 0.00000099
-0.29033935 0.09904113 0.28893134
-0.55480117 0.13118301 -0.15725735
-0.36612439 -0.08392143 0.34733710
-0.23562782 0.23113205 0.19091132
-0.74369383 -0.14523096 -0.19937927
-0.29324943 0.09203831 0.01468582
-0.20986775 0.13108969 0.00000785
-0.47219867 0.11107482 -0.10577401
-0.52154136 -0.45912933 0.26422074
-0.06420283 -0.59004265 0.00000108
-0.33247501 -0.11480850 0.00000407
-0.35853288 -0.32986516 0.00000339
-0.36911160 0.08517412 -0.04133432
-0.41469514 -0.69940251 0.00000225
-0.69254649 -0.13141717 -0.17366144
-0.11662124 -0.03894954 0.00000338
-0.16103892 0.41120940 0.10228374
-0.64177972 -0.72465521 -0.00579815
-0.61289525 -0.29874310 -0.08932609
-0.41351655 -0.34151435 0.00000359
-0.29880023 0.07861884 0.24447499
-0.44776824 -0.45440122 0.00000332
-0.04569598 -0.41855612 0.00000164
-0.05347784 -0.55486298 0.00000116
-0.30953789 -0.47258097 0.00000263
-0.12658507 0.09198340 0.00000940
-0.16949715 0.32942083 0.00000697
-0.48057532 -0.36022425 0.12123652
-0.44290483 -0.26928186 0.18234028
-0.25565475 -0.39830568 0.00000266
-0.44935578 -0.28484914 0.00514040
-0.66643250 -0.23950987 -0.13352771
-0.29358277 -0.14078625 0.00000380
-0.00460961 0.73259467 0.00000644
-0.65492958 -0.50212562 -0.06542881
-0.73828995 -0.63480633 -0.08150772
-0.40999141 -0.18981832 0.09095164
-0.07077160 -0.12384226 0.00000286
-0.19810446 0.20324776 0.00000749
-0.17344826 0.38125262 0.08480739
-0.03806531 -0.41307324 0.00000162
-0.38329422 -0.06216116 -0.01481582
-0.65349156 -0.42443103 -0.08283494
-0.28841314 0.10369369 0.26029828
-0.36879697 -0.09037085 0.21653444
-0.30180052 0.21785322 -0.03434077
-0.24621771 0.20557712 0.05881430
-0.40992144 0.14993674 -0.07962820
-0.27135798 -0.39199427 0.00000276
-0.19075017 0.33948535 0.05524675
-0.50278324 0.11415552 -0.12381274
-0.43062124 0.17510357 -0.09725012
-0.20516843 0.04672151 0.00000855
-0.42996818 0.30166206 -0.12656128
-0.55677509 -0.32128111 -0.05226753
-0.40466669 0.16414391 -0.07998500
-0.40193197 0.31027538 -0.11270790
-0.54166067 0.00022296 -0.11910434
-0.53454620 -0.49052501 0.22793093
-0.04491000 0.74951696 -0.01358319
-0.61605799 -0.34257737 -0.08083708
-0.22483654 0.12786283 0.00000765
-0.11180458 0.67389041 -0.03372109
-0.41530189 0.22672959 -0.10068418
-0.31707498 0.03451721 0.04161858
-0.13991705 0.00510014 0.00000985
-0.37991852 -0.00658122 -0.02593875
-0.05835155 0.22281992 0.00000945
-0.36489707 -0.08095754 0.33590332
-0.44833201 -0.28238657 0.24328566
-0.00519824 -0.08280863 0.00000266
-0.55340958 0.17028846 -0.16564062
-0.75650889 -0.49111322 -0.12552015
-0.19345301 -0.38877928 0.00000242
-0.37269759 -0.00639678 -0.02189378
-0.19312622 0.33374360 0.12293398
-0.21988273 0.26915532 0.04501709
-0.31987262 0.33184212 -0.07130581
-0.49238083 -0.38872582 0.13507526
-0.25857067 0.26063895 -0.01989935
-0.38353100 -0.12594527 0.30390036
-0.32007399 0.02728026 0.00346621
-0.67789310 -0.83658642 0.12337461
-0.65834755 0.05450809 -0.19790070
-0.34049481 0.17683114 -0.04662791
-0.22110291 -0.02882590 0.00000389
-0.21189801 -0.78939563 0.00000100
-0.29804429 0.31399310 -0.05476113
-0.08203794 0.47638145 0.00000719
-0.25559989 -0.08574539 0.00000384
-0.31771317 0.29458556 -0.06134564
-0.38587543 -0.35355395 0.00000342
-0.49067694 -0.38461289 0.15153076
-0.24460383 0.46522069 -0.05997084
-0.55779845 -0.23265395 -0.07363102
-0.39058408 0.20285793 -0.08109111
-0.23159482 -0.45324728 0.00000235
-0.14083274 0.23392594 0.00000812
-0.45138186 0.06042526 -0.08210954
-0.44544888 -0.54973084 0.00000295
-0.70060843 -0.19436032 -0.16346493
-0.61727023 -0.64194614 -0.01131803
-0.23812012 0.02354412 0.00000823
-0.20396645 -0.18378516 0.00000323
-0.32467049 0.25284198 -0.05549488
-0.36016864 0.33638734 -0.09518639
-0.32243788 0.35337538 -0.07780824
-0.43755582 -0.25637183 0.27735332
-0.11252038 0.67038858 -0.03330513
-0.19669393 -0.50206620 0.00000201
-0.14742851 0.51600844 -0.01686348
-0.31277400 -0.29306284 0.00000332
-0.00457422 -0.13483973 0.00000247
-0.05742339 -0.19906110 0.00000251
-0.62547332 -0.26197723 -0.10506931
-0.57099074 -0.63894546 0.00000319
-0.09563968 -0.71796441 0.00000074
-0.62244028 -0.19738311 -0.11850018
-0.21446745 0.15217148 0.00000762
-0.42540559 0.30485740 -0.12472743
-0.46765891 -0.25372446 -0.01765614
-0.47993565 -0.47301212 0.00000340
-0.22101866 0.39374289 -0.02985429
-0.22779836 0.25003770 0.14176656
-0.18287450 0.35849157 0.13986880
-0.05944282 -0.15363553 0.00000269
-0.19493917 0.32936296 0.17010227
-0.59187192 -0.17442445 -0.10657760
-0.31347027 0.04322163 0.01695348
-0.03256444 -0.57429993 0.00000099
-0.01343424 -0.37847543 0.00000164
-0.32202652 0.02255849 0.10111860
-0.20618136 0.56452101 -0.06150521
-0.59678292 -0.57854313 -0.01458760
-0.54532737 -0.08593851 -0.10097681
-0.13786852 -0.76038510 0.00000077
-0.26586145 -0.18447974 0.00000351
-0.43358439 -0.56822991 0.00000283
-0.23200859 -0.55694973 0.00000196
-0.49554077 0.11680557 -0.12033373
-0.26427805 0.16196012 0.25672427
-0.63349742 -0.24954362 -0.11252809
-0.49095780 -0.11801614 -0.06267224
-0.08821351 -0.75082117 0.00000058
-0.00576895 -0.69288158 0.00000037
-0.72010869 -0.28841081 -0.15244918
-0.46765545 -0.56621265 0.00000299
-0.32847932 0.24212185 -0.05513721
-0.05925039 0.65695107 0.01613312
-0.37950724 -0.23081806 0.00000385
-0.64008945 -0.52501178 -0.05165984
-0.35670763 0.01310556 -0.01740973
-0.40924284 0.19051589 -0.08876073
-0.36133325 -0.65591246 0.00000218
-0.22558443 -0.32001513 0.00000282
-0.65428430 -0.46565107 -0.07361717
-0.26770738 0.15368178 0.24929325
-0.02796853 0.43289885 0.00000833
-0.32173312 -0.74803275 0.00000165
-0.66439974 -0.53251171 -0.06366460
-0.45799911 -0.38755184 0.00000362
-0.35053456 0.36351010 -0.09609271
-0.42985466 -0.23777838 0.24637128
-0.44226736 -0.40419039 0.00000349
-0.00690571 0.62660170 0.00000720
-0.47723836 -0.10460485 -0.05804991
-0.47872329 -0.24370646 -0.02626970
-0.57857192 -0.35285947 -0.05720261
-0.17886347 0.09721062 0.00000857
-0.14161661 0.07644130 0.00000929
-0.45651299 -0.30213341 0.14294714
-0.44646910 -0.27789342 0.35734013
-0.65612125 -0.51177275 -0.06384115
-0.39452043 -0.55682307 0.00000270
-0.36053610 -0.07042307 0.25859764
-0.39036247 -0.14243963 0.34892565
-0.01050114 0.28036013 0.00000974
-0.40233445 -0.26545310 0.00000383
-0.25034973 -0.45452902 0.00000243
-0.08544323 -0.32491878 0.00000217
-0.73954713 -0.24519803 -0.17358801
-0.04873994 -0.34892294 0.00000191
-0.37204257 -0.09820301 0.27577391
-0.56023854 -0.02957296 -0.12263730
-0.62743276 -0.09316466 -0.14576715
-0.34151173 -0.02449287 0.23216356
-0.41034174 -0.58142364 0.00000268
-0.59710854 -0.00232906 -0.14989907
-0.40644172 0.30047998 -0.11296395
-0.28846392 0.13353516 -0.00701537
-0.10725776 0.65623122 -0.02700528
-0.20871042 0.38941374 -0.02187037
-0.42281771 -0.32844830 0.00000368
-0.31210950 -0.52924705 0.00000243
-0.47543734 -0.18846744 -0.03736351
-0.16716729 0.24971323 0.00000760
-0.72016644 -0.41065624 -0.12381363
-0.72987092 -0.78123069 -0.04240286
-0.73464608 -0.57168239 -0.09424822
-0.13572963 0.36012384 0.00000725
-0.35696739 -0.47196889 0.00000285
-0.21649987 -0.10987013 0.00000357
-0.14703260 0.29671991 0.00000756
-0.35737580 -0.37300164 0.00000322
-0.03582108 -0.45235366 0.00000147
-0.27584690 0.13403061 0.26135057
-0.09344973 0.68705285 -0.02641591
-0.23609503 0.23000067 0.23264231
-0.11112251 0.53172076 0.04421271
-0.44670618 -0.27846503 0.33718234
-0.24456611 -0.45391896 0.00000240
-0.14012998 0.46168840 0.08659634
-0.19415668 0.33126423 0.02171643
-0.53578067 -0.68625104 0.00000285
-0.25102791 0.43369007 -0.05621334
-0.70782065 -0.61712253 -0.06840500
-0.04305253 0.16470009 0.00001012
-0.10508049 0.54911864 -0.00065217
-0.28103459 0.12908567 -0.00176555
-0.16837040 -0.62067378 0.00000143
-0.36604357 -0.56335056 0.00000254
-0.33816737 0.20649862 -0.05226787
-0.14222018 0.20168874 0.00000834
-0.37528947 0.36325112 -0.11004760
-0.16439271 -0.62754279 0.00000139
-0.22785147 0.32198018 -0.01689283
-0.18367672 -0.33384216 0.00000258
-0.55533272 -0.00024532 -0.12673531
-0.44407591 0.27788457 -0.12897237
-0.56515247 -0.11217046 -0.10604934
-0.17010285 -0.40005118 0.00000227
-0.31720561 0.03419847 0.08277683
-0.19972086 -0.23216660 0.00000303
-0.02152353 0.39278182 0.00000873
-0.46683514 0.04676320 -0.08765474
-0.33392388 0.19375350 -0.04687629
-0.11498600 0.60940909 -0.02039995
-0.71536940 -0.56926990 -0.08390076
-0.22904839 -0.48246768 0.00000223
-0.68972653 -0.05537890 -0.18989673
-0.61247593 -0.33406106 -0.08080621
-0.59974074 -0.52961439 -0.02773656
-0.60052651 -0.45201978 -0.04637824
-0.48519263 -0.37137455 0.20369479
-0.26148984 -0.20159054 0.00000343
-0.00275380 0.49400243 0.00000825
-0.00187432 -0.66294682 0.00000050
-0.55056530 -0.27652887 -0.05924671
-0.01853025 -0.52227020 0.00000113
-0.07213929 0.70662600 -0.01894081
-0.33994079 -0.02068736 0.07431751
-0.26230541 -0.66653335 0.00000169
-0.47531807 -0.20242342 -0.03402314
-0.49852175 -0.40355363 0.19672537
-0.22339019 -0.72563863 0.00000129
-0.34376520 -0.21737708 0.00000374
-0.65333891 0.05327082 -0.19477478
-0.62446064 0.06136251 -0.18032227
-0.22019964 0.09942581 0.00000793
-0.45260349 -0.38500094 0.00000361
-0.52385873 0.19656672 -0.15507250
-0.53664750 0.01944378 -0.12077372
-0.43012738 -0.23843321 0.15232252
-0.18106809 0.58549601 -0.05220582
-0.36644822 -0.04369578 -0.00960858
-0.06227065 -0.56100172 0.00000118
-0.61556393 -0.46563891 -0.05169803
-0.63579017 -0.00052775 -0.17222209
-0.30966103 0.07221974 -0.00463676
-0.39223063 0.02454880 -0.04020569
-0.14028452 0.46131086 0.14023511
-0.15244697 0.55777311 -0.02949959
-0.06949099 -0.16750988 0.00000269
-0.24797446 0.20133649 0.05349320
-0.61115831 -0.72233009 0.00000306
-0.20793538 -0.66376275 0.00000145
-0.09623257 -0.29357162 0.00000233
-0.39381325 -0.15077034 0.34269747
-0.12256602 -0.69222862 0.00000096
-0.07091718 -0.10923970 0.00000291
-0.26892439 0.23010714 -0.01860094
-0.47529966 0.23912653 -0.13756081
-0.43911681 -0.66136247 0.00000251
-0.32960641 0.00424563 0.26764041
-0.43205383 -0.16369949 -0.01860976
-0.75948042 -0.79705942 -0.05545385
-0.58958822 -0.39697367 -0.05309433
-0.07255245 -0.72007817 0.00000063
-0.65207571 -0.72602713 -0.01130563
-0.15494171 -0.62337881 0.00000136
-0.43907440 -0.15350637 -0.02497495
-0.12190800 -0.39426774 0.00000207
-0.63870203 -0.66491550 -0.01806533
-0.01018429 -0.10632742 0.00000265
-0.69256616 -0.52379900 -0.08165453
-0.26463437 0.35774797 -0.04610678
-0.33529919 -0.48550147 0.00000270
-0.19516699 -0.41707706 0.00000232
-0.55747592 0.10575756 -0.15280889
-0.11238583 0.66854244 -0.03279601
-0.00261526 -0.53475684 0.00000101
-0.10079040 0.68417293 -0.02989660
-0.35805938 -0.06444998 0.33290040
-0.54974711 0.14546295 -0.15774484
-0.20792112 -0.11726743 0.00000350
-0.39049858 0.09873722 -0.05662396
-0.40572175 -0.02018115 -0.03735822
-0.42906600 -0.23587479 0.25631133
-0.10844702 -0.00146335 0.00000349
-0.36599973 0.26570794 -0.08191184
-0.25643557 -0.34721553 0.00000286
-0.05179148 0.46397349 0.00000774
-0.03338363 -0.08144062 0.00000285
-0.48733512 -0.37654057 0.03507110
-0.21004803 -0.78964061 0.00000099
-0.57428247 -0.79896122 0.00000260
-0.10034936 -0.26863185 0.00000245
-0.07128338 0.22348636 0.00000925
-0.23864380 0.22384866 0.21861827
-0.26531616 0.00768075 0.00000794
-0.41668493 -0.20598459 0.26739034
-0.72284675 -0.24348551 -0.16453490
-0.29504436 -0.15168859 0.00000377
-0.25295153 -0.20262811 0.00000339
-0.18406369 -0.77039295 0.00000094
-0.31935704 0.02900367 0.09364387
-0.14506549 0.19525705 0.00000835
-0.03763739 -0.17874369 0.00000250
-0.67925644 -0.27435806 -0.13261583
-0.31912538 0.26662347 -0.05558745
-0.34359381 -0.59932894 0.00000231
-0.36898443 -0.09081989 0.12371572
-0.52504289 -0.34890100 -0.02782479
-0.50944710 -0.25094202 -0.04196754
-0.54143810 -0.76376653 0.00000259
-0.62430000 -0.62519598 -0.01922613
-0.46531463 0.15780970 -0.11283685
-0.29086709 0.09778296 0.09643036
-0.05378454 -0.47202608 0.00000147
-0.49800414 -0.15637727 -0.05766548
-0.44937518 0.01151147 -0.06950199
-0.19137280 -0.37287325 0.00000247
-0.17334493 0.04143340 0.00000907
-0.10939193 0.22930795 0.00000863
-0.15133031 0.43465447 0.01926690
-0.13072284 -0.02117221 0.00000351
-0.20412821 -0.44156685 0.00000227
-0.36249200 -0.07514625 0.13743396
-0.02895695 0.27333644 0.00000951
-0.26902187 0.15052795 0.01164871
-0.36575133 -0.35969487 0.00000331
-0.16940199 0.57493049 -0.04312291
-0.22538994 0.25585130 0.15061040
-0.20748763 0.31033286 -0.00263176
-0.64569354 -0.64362085 -0.02701749
-0.01860674 0.65284395 0.00000682
-0.23116755 0.44845921 -0.04843259
-0.45672810 0.04202401 -0.08082092
-0.62189084 -0.70138663 0.02259427
-0.47472781 -0.79616106 0.00000216
-0.44063577 -0.26380795 0.28955138
-0.67916799 -0.74069840 -0.02320340
-0.55720395 -0.52592736 -0.00451847
-0.35769683 -0.06356568 0.22337912
-0.58172554 -0.42324311 -0.04248230
-0.42252120 -0.76995134 0.00000203
-0.35114542 -0.19959506 0.00000384
-0.22406822 -0.08008108 0.00000371
-0.07992038 0.66530192 -0.01365483
-0.42293555 0.24758513 -0.10989728
-0.06878021 0.69831645 -0.01509021
-0.44887459 0.13518594 -0.09822310
-0.46325913 -0.31841865 0.10575382
-0.57372475 -0.58510458 0.05658380
-0.18999970 -0.28029004 0.00000281
-0.36603507 -0.08369586 0.22625588
-0.66688049 -0.21427798 -0.13969851
-0.71544451 -0.21348137 -0.16738044
-0.75136691 -0.43695685 -0.13530952
-0.10506736 -0.39962822 0.00000198
-0.17404720 -0.18571594 0.00000309
-0.50018394 0.14771162 -0.13021076
-0.28664204 0.10798956 0.01567528
-0.11288156 0.36747348 0.00000754
-0.43754408 0.23354280 -0.11487502
-0.30232275 0.07012827 0.08186265
-0.09798168 0.28769064 0.00000836
-0.02954719 0.40378189 0.00000853
-0.29066890 0.09826623 0.03770097
-0.42497364 0.23222317 -0.10744847
-0.30730042 0.05809667 0.26011521
-0.37911662 0.01467741 -0.03046579
-0.40251878 -0.17178349 0.24134700
-0.10331287 0.55057228 0.07160886
-0.68324864 -0.73677027 -0.02643483
-0.31891459 -0.43910477 0.00000280
-0.01968931 -0.64407665 0.00000067
-0.33098820 0.28166994 -0.06583262
-0.36655405 -0.08495387 0.16191959
-0.39563024 -0.46006322 0.00000307
-0.66565776 -0.47511679 -0.07783660
-0.65694934 -0.00227980 -0.18379101
-0.21154401 0.51265579 -0.05237782
-0.30577832 0.41598627 -0.08305972
-0.42840344 -0.23428012 0.39145404
-0.70139372 -0.33859000 -0.13008603
-0.21294266 -0.79236811 0.00000099
-0.37157750 -0.09708086 0.14384417
-0.14890829 -0.56125611 0.00000157
-0.23177637 0.24044140 0.05318536
-0.06567571 -0.29707471 0.00000218
-0.31695420 0.15109289 -0.02726357
-0.42816556 -0.23370200 0.28542230
-0.73927218 -0.53616530 -0.10519647
-0.42807508 -0.23347969 0.18376562
-0.19496776 0.32930467 0.03984295
-0.16780064 0.39488733 0.08003897
-0.74738342 -0.79306799 -0.04954131
-0.26320019 0.16457739 0.07284480
-0.46678454 -0.10280943 -0.05255239
-0.56721342 -0.56938440 0.04502109
-0.41649431 -0.20551462 0.00902696
-0.18581606 0.35138583 0.19217680
-0.11094867 -0.43214247 0.00000188
-0.27144092 0.48982370 -0.08093532
-0.67732382 0.01003790 -0.19821531
-0.00859651 -0.63998115 0.00000055
-0.03352412 -0.35027835 0.00000184
-0.24432936 0.01313712 0.00000821
-0.68319374 -0.36602679 -0.11334766
-0.45603788 -0.49624005 0.00000320
-0.64963359 -0.76836360 0.07842971
-0.36950916 -0.66026831 0.00000220
-0.14265579 -0.27284685 0.00000262
-0.43929365 -0.46616220 0.00000324
-0.43778104 -0.04590185 -0.04947719
-0.11876438 0.54521090 -0.00748320
-0.50537568 0.20329525 -0.14618586
-0.44085726 -0.26433921 0.19764923
-0.62929827 -0.45731992 -0.06142479
-0.17995694 -0.70789939 0.00000116
-0.29251823 0.09379651 0.10047077
-0.52845103 -0.11769809 -0.08397408
-0.64241678 -0.67622703 -0.01751577
-0.16285624 -0.61859959 0.00000142
-0.22486006 0.25713611 0.08276156
-0.01961711 -0.65645635 0.00000063
-0.04272451 0.63475031 0.00000659
-0.00545187 0.13244446 0.00001092
-0.52827710 -0.41734165 -0.01360579
-0.09320807 0.51246369 0.00000675
-0.19503596 -0.63815951 0.00000149
-0.20303375 0.13118793 0.00000795
-0.16862161 0.31027412 0.00000713
-0.03043662 0.63541991 0.00000678
-0.15150169 -0.24239020 0.00000278
-0.63283461 -0.69256467 -0.00825938
-0.15017831 0.02914795 0.00000952
-0.45179743 -0.67236227 0.00000252
-0.53081965 -0.74743801 0.00000260
-0.43435749 -0.44982561 0.00000328
-0.19903508 0.31947801 0.13062230
-0.41850510 -0.33473709 0.00000364
-0.59539193 -0.68762869 0.00000312
-0.30539569 -0.39889282 0.00000289
-0.06083107 -0.04713479 0.00000310
-0.08004164 -0.76207173 0.00000050
-0.12664691 -0.66003889 0.00000110
-0.20723896 -0.16026962 0.00000334
-0.26655319 0.15648112 0.09235238
-0.71877939 -0.37438577 -0.13153428
-0.21024011 -0.40360662 0.00000244
-0.36107901 -0.07173650 0.17669432
-0.12158901 -0.69475371 0.00000095
-0.19709404 0.32416373 0.13373823
-0.51583970 -0.44536462 0.24205317
-0.57600200 -0.38951638 -0.04715117
-0.24526443 -0.15066849 0.00000355
-0.02461148 -0.49668196 0.00000125
-0.47912034 -0.20194153 -0.03628886
-0.22352754 0.14364663 0.00000755
-0.38552159 0.05841612 -0.04434988
-0.19524114 0.32864469 0.03974677
-0.56730521 -0.31280771 -0.06021642
-0.18565744 0.35177952 0.06187862
-0.62849617 -0.34518275 -0.08726812
-0.53160346 -0.74359542 0.00000262
-0.22655368 0.43770385 -0.04329795
-0.05939309 -0.17996924 0.00000259
-0.25219166 0.19114074 0.23182821
-0.67136484 -0.71288544 -0.02530829
-0.29520437 0.08729803 0.26619127
-0.08627650 0.59170181 0.06122447
-0.42815715 -0.44534159 0.00000327
-0.30129406 0.07260024 0.22090004
-0.22690751 0.34439692 -0.02161563
-0.65903842 -0.51397294 -0.06497676
-0.39892700 -0.64131635 0.00000240
-0.30945972 -0.37738296 0.00000299
-0.09656684 0.39482605 0.00000758
-0.32184324 0.19806273 -0.04104714
-0.07932339 0.41368213 0.00000770
-0.73161507 -0.11535174 -0.19954810
-0.35889962 -0.06647372 0.14340687
-0.06539153 -0.08344377 0.00000298
-0.29623252 -0.68259114 0.00000178
-0.56088030 -0.00941182 -0.12772647
-0.10490921 0.15013760 0.00000929
-0.49137390 0.13626882 -0.12253913
-0.25463361 -0.53961277 0.00000213
-0.13594267 0.47179657 0.09508710
-0.68548262 -0.62866217 -0.05305240
-0.16200516 0.40887105 0.17173983
-0.24864262 0.46821547 -0.06295985
-0.38892365 -0.76060110 0.00000191
-0.03693402 -0.49729609 0.00000130
-0.24092945 0.52576703 -0.07209003
-0.10072054 -0.13925403 0.00000293
-0.01237475 -0.57132733 0.00000091
-0.47571567 -0.57503468 0.00000300
-0.40920877 0.14191408 -0.07734320
-0.45257881 -0.39226842 0.00000358
-0.01623672 0.64129633 0.00000695
-0.65720898 -0.78665173 0.02688543
-0.15291594 0.43082109 0.08478263
-0.56080228 -0.50798500 -0.01076342
-0.23981091 0.48170212 -0.06112248
-0.01017500 0.52164292 0.00000793
-0.19473234 0.51391983 -0.04315592
-0.69131368 -0.54995561 -0.07481138
-0.09861229 0.62668544 -0.01518126
-0.46608862 -0.32525063 0.13157228
-0.45897302 -0.30807981 0.36170542
-0.33804214 0.24438013 -0.06108106
-0.23921125 -0.52212876 0.00000212
-0.66551876 -0.04796009 -0.17793101
-0.13573956 -0.19528036 0.00000288
-0.25750783 -0.63803089 0.00000177
-0.55427361 -0.53814512 0.05154373
-0.06014976 -0.03308629 0.00000315
-0.34419045 -0.03095657 0.19377479
-0.24963185 0.21660568 -0.00451158
-0.44424105 -0.27250874 0.20700873
-0.43671715 0.21564071 -0.11020837
-0.62443519 -0.00771305 -0.16410805
-0.22726396 0.25132489 0.17767155
-0.58003819 -0.35151511 -0.05834801
-0.16703852 -0.24589214 0.00000283
-0.14018483 -0.28236493 0.00000258
-0.59948760 -0.30547348 -0.08015683
-0.39267412 -0.77787024 0.00000186
-0.56117386 -0.07316723 -0.11294350
-0.30121204 -0.19130163 0.00000365
-0.27293536 0.00726066 0.00000783
-0.10253306 0.55245328 0.09134831
-0.42261341 -0.34834149 0.00000361
-0.54702443 -0.28763485 -0.05463751
-0.25126195 0.02787978 0.00000800
-0.05716908 -0.20117921 0.00000250
-0.15184827 -0.72603655 0.00000096
-0.06594528 0.64078635 0.04191258
-0.24958059 -0.19741616 0.00000339
-0.19224566 0.33586398 0.18889564
-0.03339007 -0.20331354 0.00000239
-0.01522115 -0.28437361 0.00000200
-0.33907405 -0.01861844 0.36007679
-0.40870386 -0.04143521 -0.03406226
-0.33948058 -0.01959292 0.27566832
-0.10310295 -0.23938443 0.00000257
-0.33532381 -0.00954090 0.07070318
-0.11187805 -0.75276583 0.00000068
-0.52075571 -0.57345301 0.00000321
-0.43309498 -0.22858015 -0.00398397
-0.15819995 0.05955161 0.00000917
-0.33681750 0.01114542 -0.00568873
-0.60874337 -0.66964835 0.12262513
-0.12591590 -0.74200571 0.00000079
-0.43955195 -0.68899620 0.00000241
-0.54464811 -0.37108383 -0.03372241
-0.03473001 -0.51996177 0.00000121
-0.33998308 -0.56963879 0.00000240
-0.44866988 -0.28320137 0.21921614
-0.26009852 0.47217047 -0.07037344
-0.66045487 0.06029645 -0.20045133
-0.27110544 -0.25418353 0.00000327
-0.38053054 0.20786279 -0.07657280
-0.30786687 0.12272114 -0.01546471
-0.50724840 -0.08003782 -0.08080172
-0.25024995 -0.56724679 0.00000201
-0.29671502 0.08365832 0.17834340
-0.20399532 0.42805365 -0.02826276
-0.39231980 0.01112129 -0.03710712
-0.22678155 -0.17982750 0.00000335
-0.26688763 0.15567440 0.08385725
-0.18336257 0.35731527 0.11588495
-0.03123245 0.49638098 0.00000781
-0.42010489 0.26400954 -0.11214654
-0.42859620 -0.23474407 0.34828085
-0.16457532 0.18811917 0.00000811
-0.37544018 -0.10641104 0.27125737
-0.54209697 0.05090568 -0.13123764
-0.40474275 -0.42332155 0.00000324
-0.18288890 -0.24559133 0.00000291
-0.58369184 -0.60916525 0.00352993
-0.02858892 0.37653720 0.00000874
-0.55999035 -0.55194610 0.03874375
-0.30905482 -0.61680037 0.00000209
-0.44566679 0.10745036 -0.08990229
-0.71177036 -0.30802569 -0.14312856
-0.49504566 -0.39515647 0.06036395
-0.60778141 0.06115925 -0.17083128
-0.37582001 -0.10732763 0.26033789
-0.15052350 -0.32612443 0.00000246
-0.07990768 -0.52655286 0.00000139
-0.71599901 -0.30984560 -0.14509580
-0.56301188 -0.31471747 -0.05733784
-0.39333749 -0.76609933 0.00000191
-0.56817436 -0.57170850 0.15550190
-0.68171918 -0.17484625 -0.15734683
-0.44035128 -0.05604465 -0.04855375
-0.35270673 -0.68174392 0.00000204
-0.35732445 -0.06267686 0.34643230
-0.21312490 -0.76364124 0.00000110
-0.32246754 0.02149596 0.07494888
-0.52324790 -0.43620956 -0.00633370
-0.11726807 -0.40335611 0.00000202
-0.15178688 0.15982971 0.00000851
-0.43607861 -0.63905519 0.00000258
-0.09698125 0.03090166 0.00001030
-0.09776046 0.48152584 0.00000691
-0.42355812 -0.60957468 0.00000263
-0.19240662 0.16297933 0.00000787
-0.47331652 -0.75734234 0.00000230
-0.68870449 -0.20824897 -0.15346833
-0.55000240 -0.23820546 -0.06791530
-0.15184821 -0.24861234 0.00000276
-0.60965264 -0.21779428 -0.10647366
-0.64575553 -0.46388423 -0.06920287
-0.37147233 -0.08998518 -0.00159765
-0.02971718 -0.19807778 0.00000239
-0.31969413 0.29122427 -0.06167891
-0.16071311 -0.60392022 0.00000146
-0.06136893 0.45817366 0.00000764
-0.21369530 0.28408867 0.09518210
-0.02624155 0.01313480 0.00001151
-0.25321454 0.18868394 0.07909994
-0.57835221 0.12420901 -0.16895582
-0.16595827 -0.24917991 0.00000282
-0.22285341 -0.60289687 0.00000175
-0.45966393 -0.24261715 -0.01573448
-0.63082528 -0.54357272 -0.04206205
-0.09590413 0.39633515 0.00000758
-0.01577423 -0.14079162 0.00000254
-0.18536533 -0.34399697 0.00000255
-0.14985116 0.51670951 -0.01839953
-0.00590815 0.65594858 0.00000699
-0.11561147 0.18584035 0.00000886
-0.19800290 -0.60403037 0.00000163
-0.01875668 0.54575992 0.00000762
-0.43252069 -0.24421214 0.17788512
-0.42797691 -0.23324905 0.35019839
-0.44426307 -0.27255413 0.00188663
-0.18821388 -0.20790774 0.00000307
-0.41495466 -0.74648291 0.00000208
-0.73085552 -0.76681405 -0.04634117
-0.13015108 0.56719518 -0.01908589
-0.16511104 -0.28658539 0.00000267
-0.55120134 0.17057472 -0.16445749
-0.63063824 -0.34304959 -0.08898111
-0.33702242 -0.14194651 0.00000399
-0.44285864 0.29148734 -0.13147333
-0.59118694 -0.52162606 -0.02476706
-0.40319124 -0.49958232 0.00000295
-0.03831412 0.62877178 0.00000671
-0.34462324 -0.14632951 0.00000401
-0.16079122 0.41181317 0.03213055
-0.40088090 -0.16782333 0.08390036
-0.03471051 0.34594744 0.00000888
-0.72275656 -0.12766927 -0.19164418
-0.09534724 0.56980014 0.10214037
-0.22432412 -0.74212229 0.00000123
-0.23442052 -0.59829289 0.00000182
-0.55992848 -0.71169692 0.00000287
-0.05525481 0.53381914 0.00000716
-0.50548333 -0.73981780 0.00000251
-0.23159856 -0.13801938 0.00000353
-0.33717746 -0.20732442 0.00000375
-0.50305527 -0.41449779 0.17609006
-0.08601710 0.34726053 0.00000810
-0.51312774 -0.05904134 -0.08905429
-0.36037955 -0.07004608 0.27036661
-0.69757563 -0.79249507 -0.02147764
-0.05845211 0.10099367 0.00001036
-0.11727712 -0.38999882 0.00000207
-0.33783701 -0.65540147 0.00000207
-0.24175806 0.21634014 0.09902488
-0.06658397 0.21635139 0.00000937
-0.01410993 0.07186399 0.00001125
-0.29331434 -0.19841284 0.00000358
-0.57870394 -0.58680868 -0.00241359
-0.17914458 -0.03411356 0.00000368
-0.22156195 -0.26867047 0.00000300
-0.03003367 -0.52618510 0.00000116
-0.22508185 -0.04328023 0.00000386
-0.30820781 -0.61381507 0.00000209
-0.23372808 -0.64331609 0.00000165
-0.74457008 -0.60654408 -0.09169101
-0.17412297 0.48575017 -0.02488095
-0.35091296 -0.33511162 0.00000333
-0.24188226 0.21602871 0.23983331
-0.28514892 -0.70804435 0.00000164
-0.32799146 0.00814428 0.26916376
-0.62554020 0.02478597 -0.17235549
-0.37987858 0.37462440 -0.11531314
-0.71254885 -0.26016197 -0.15479389
-0.14954790 0.30859998 0.00000743
-0.25084522 -0.79989034 0.00000114
-0.64048356 -0.46964434 -0.06486725
-0.61548603 -0.31859326 -0.08613779
-0.21797714 -0.12131897 0.00000353
-0.05174812 -0.47779253 0.00000144
-0.04363509 0.39413387 0.00000839
-0.51496983 0.08703633 -0.12435238
-0.66297525 -0.66152978 -0.03260187
-0.47720811 -0.35209253 0.05426087
-0.65488380 -0.39521664 -0.09047428
-0.16155569 -0.65538651 0.00000127
-0.00808055 -0.38552594 0.00000159
-0.55464691 -0.63086069 0.00000314
-0.60579562 -0.73315471 0.00000299
-0.21308735 0.28555864 0.06770061
-0.18103701 0.36292520 0.16884468
-0.39798465 -0.01936386 -0.03316943
-0.42485291 -0.17812742 -0.01114936
-0.15187339 0.37831587 0.00000687
-0.09510867 -0.25871971 0.00000246
-0.10254312 0.44003701 0.00000715
-0.26365131 -0.12059101 0.00000374
-0.17025582 -0.23901320 0.00000287
-0.47138789 0.03975427 -0.08858863
-0.60476846 0.07670049 -0.17277020
-0.00644863 -0.72856379 0.00000023
-0.66940260 -0.42066842 -0.09272554
-0.33736396 -0.76364505 0.00000166
-0.41546378 0.19339281 -0.09295759
-0.58275717 0.02240142 -0.14757353
-0.40506715 -0.37321952 0.00000343
-0.14861050 0.44122064 0.01809298
-0.69800985 -0.44814250 -0.10247891
-0.01809812 0.05738291 0.00001130
-0.54083896 -0.17502634 -0.07754352
-0.25305152 0.18908244 0.01924378
-0.69266367 -0.20497587 -0.15647744
-0.06903021 0.09266126 0.00001026
-0.33182639 -0.00110310 0.13831963
-0.14179838 0.45766300 0.05769590
-0.03290109 0.01775209 0.00001137
-0.56425291 -0.01242891 -0.12892838
-0.65235585 -0.47857228 -0.06949519
-0.22749394 0.25078130 0.03625546
-0.71147722 -0.16934365 -0.17548510
-0.64750320 -0.45133829 -0.07313450
-0.14882731 0.13081212 0.00000877
-0.51016611 -0.13276187 -0.07008921
-0.02581860 0.44074032 0.00000830
-0.00587757 -0.19771442 0.00000222
-0.66660523 -0.73725343 -0.01689899
-0.19582383 0.32723564 0.06777969
-0.20773678 -0.59876716 0.00000169
-0.21562594 0.07034250 0.00000822
