ply
format ascii 1.0
element vertex 1186
property float x
property float y
property float z
end_header
-0.28127956 -0.74067694 0.00000170
-0.32338336 0.03707854 -0.25986218
-0.16246036 -0.27532661 0.00000098
-0.14785029 0.44660285 -0.05169537
-0.12444172 0.50466728 -0.07439198
-0.39504686 -0.45765960 0.00000238
-0.42950192 -0.77394593 0.00000259
-0.25670415 -0.72468972 0.00000155
-0.02979119 0.66076183 0.00000119
-0.22557513 0.25540051 0.23323886
-0.10032926 -0.30633116 0.00000061
-0.26826560 0.17128091 -0.27652213
-0.37815961 -0.11031370 -0.03838150
-0.36677435 -0.08548116 0.10823284
-0.02134041 -0.19014560 0.00000013
-0.40717807 -0.18303040 0.23104978
-0.25083470 0.19442078 0.21253151
-0.39109704 -0.36645198 0.00000236
-0.13758942 0.13089141 0.00000588
-0.17883140 -0.60876828 0.00000108
-0.13856694 0.46984658 -0.06386276
-0.14321285 -0.38136184 0.00000086
-0.38865092 -0.13830660 0.34224084
-0.20373784 -0.72579217 0.00000123
-0.41050088 -0.17610748 -0.21792510
-0.32334483 0.01936404 0.25740254
-0.15481828 0.42623755 0.02294100
-0.19818150 -0.49452230 0.00000120
-0.40944302 -0.16373259 -0.36147630
-0.48426357 -0.36913505 0.33195591
-0.53894937 -0.50115496 0.22934370
-0.21624398 -0.57681030 0.00000131
-0.29826018 0.08633649 -0.09330457
-0.23632090 0.23164228 -0.03153717
-0.00144602 -0.41438073 -0.00000001
-0.37957004 -0.09464007 -0.31723657
-0.43384352 -0.23808157 -0.13576241
-0.00111839 0.12529694 0.00001009
-0.06642485 -0.52291393 0.00000040
-0.31327033 0.04368253 0.29908347
-0.42608762 -0.22867426 0.05055654
-0.45534030 -0.29930019 0.12570934
-0.38310492 -0.12490470 0.05990412
-0.11034402 0.15661022 0.00000632
-0.13881026 0.35841161 0.00000243
-0.40399560 -0.17534673 0.22087069
-0.30943257 -0.54102916 0.00000187
-0.62783140 -0.71572977 0.13395302
-0.36216184 -0.06177755 -0.18327563
-0.03104053 0.64369637 0.00000141
-0.30595151 -0.71731830 0.00000185
-0.02523712 -0.63030761 0.00000015
-0.59881997 -0.75407737 0.00000361
-0.47201538 -0.31721997 -0.32599595
-0.36941016 -0.21027450 0.00000223
-0.17080048 -0.18169624 0.00000103
-0.25578132 -0.00150234 0.00000154
-0.26062956 -0.57432532 0.00000157
-0.32359084 0.02217203 -0.04926762
-0.22864909 0.25021785 -0.03233602
-0.12580571 0.49627662 0.05845265
-0.00102534 -0.24673758 -0.00000001
-0.04036117 -0.44297990 0.00000024
-0.02536565 -0.71110737 0.00000015
-0.18312128 0.36375922 -0.08540597
-0.63597131 -0.72891337 -0.09393963
-0.51981336 -0.44391397 -0.16080022
-0.01272473 -0.67660278 0.00000008
-0.27857611 0.14459655 -0.25030720
-0.39133909 -0.66233969 0.00000236
-0.43260723 -0.24054010 -0.05620149
-0.07948142 0.60991669 -0.02627092
-0.05851097 -0.01450189 0.00000035
-0.08617826 0.06272557 0.00000846
-0.25946075 -0.37716097 0.00000157
-0.11552977 -0.67437601 0.00000070
-0.58180904 -0.60462481 0.22731894
-0.48388273 -0.35488513 -0.19421960
-0.53799570 -0.47994015 -0.27583274
-0.25011280 0.20356669 -0.10785043
-0.06770729 -0.18403658 0.00000041
-0.12945795 0.41944438 0.00000180
-0.07089086 -0.50673908 0.00000043
-0.41194594 -0.18420961 -0.15048987
-0.44520614 -0.25126991 -0.34394681
-0.37961036 -0.11647113 0.12931362
-0.42248380 -0.60814714 0.00000255
-0.36233059 -0.59723550 0.00000219
-0.43038711 -0.22318660 -0.23151132
-0.14395781 0.45751888 -0.07390137
-0.25602818 0.19543128 -0.19768690
-0.18007788 -0.68489265 0.00000109
-0.21494395 -0.01310190 0.00000130
-0.38397986 -0.11044956 -0.24177627
-0.23590443 0.23046672 0.19429991
-0.23304842 -0.46657595 0.00000141
-0.17396130 0.39028084 -0.14984660
-0.37854660 -0.40669194 0.00000228
-0.53066522 -0.47392431 -0.10507829
-0.30796900 -0.14972588 0.00000186
-0.42945737 -0.36460146 0.00000259
-0.33042186 0.01973777 -0.25476405
-0.43778163 -0.52230442 0.00000264
-0.28449586 0.12418921 -0.16089556
-0.11038304 -0.67048728 0.00000067
-0.36132026 -0.74472827 0.00000218
-0.36750859 -0.06098514 -0.38355908
-0.45210132 -0.29148331 0.18741941
-0.55153054 -0.51620430 -0.22336943
-0.44271469 -0.72355890 0.00000267
-0.01313100 -0.34390858 0.00000008
-0.62037963 -0.69726449 -0.00634459
-0.11331021 0.36923212 0.00000304
-0.44350418 -0.27072889 0.20946325
-0.08791056 0.23307516 0.00000585
-0.30613774 0.07963962 -0.27342138
-0.12619594 0.50057477 -0.07647379
-0.15590093 -0.47757000 0.00000094
-0.23403549 0.24565838 -0.15578033
-0.47801760 -0.42859101 0.00000289
-0.31027520 -0.15453681 0.00000187
-0.30299810 -0.12033888 0.00000183
-0.34400097 -0.03051090 0.34803659
-0.48872247 -0.37746966 -0.03488857
-0.35550788 -0.73889393 0.00000215
-0.04469282 0.28623465 0.00000636
-0.12504825 0.49810940 0.00592585
-0.20447099 0.22688036 0.00000243
-0.48910645 -0.38082096 0.16202360
-0.18212950 -0.20438156 0.00000110
-0.56398207 -0.55955476 -0.02909931
-0.47650966 -0.78711587 0.00000288
-0.44626799 -0.67838311 0.00000269
-0.20291352 -0.30234498 0.00000122
-0.24104974 -0.20710759 0.00000145
-0.23819095 0.22879498 -0.05591109
-0.21146028 -0.67084247 0.00000128
-0.04638424 0.69127935 -0.04762921
-0.05698757 -0.17949095 0.00000034
-0.35367334 -0.62618029 0.00000213
-0.35471037 -0.04628171 -0.14682794
-0.33180419 -0.00104231 0.05281835
-0.05930787 -0.01834447 0.00000036
-0.44068962 -0.36999336 0.00000266
-0.25661841 0.19895820 -0.27007806
-0.02974614 -0.16548550 0.00000018
-0.14072891 -0.21882278 0.00000085
-0.02623614 0.53237194 0.00000322
-0.17925046 0.04938052 0.00000585
-0.19590071 0.32704493 0.17310905
-0.27511185 0.13580935 0.23516575
-0.49949610 -0.40590844 0.26299375
-0.37658826 -0.10918438 0.36805689
-0.04291996 -0.19925871 0.00000026
-0.11124703 0.41071165 0.00000248
-0.13884836 0.46479207 0.02144261
-0.37492841 -0.10516399 0.04274407
-0.28942853 -0.63144791 0.00000175
-0.15421437 -0.31101677 0.00000093
-0.32850492 -0.75835884 0.00000198
-0.44247806 -0.25494111 -0.19401944
-0.25576884 0.18385160 -0.01925206
-0.25476307 -0.19148348 0.00000154
-0.05043620 0.14269464 0.00000834
-0.49214306 -0.38815734 0.28837943
-0.27440485 0.13752715 0.09588534
-0.28683871 0.12367660 -0.23608676
-0.06186134 0.55263883 0.00000184
-0.30434334 0.06693582 -0.02437625
-0.16334634 0.06707975 0.00000606
-0.29478154 -0.66900426 0.00000178
-0.01708761 -0.40535623 0.00000010
-0.28875586 0.11370642 -0.15799433
-0.06152466 0.65237010 -0.01315797
-0.37592247 -0.10111763 -0.09385546
-0.22268683 -0.39081481 0.00000134
-0.32640934 0.02290318 -0.15942717
-0.10282717 -0.51961029 0.00000062
-0.04744438 0.55977285 0.00000217
-0.47309667 -0.33308366 -0.13227598
-0.20185906 0.32668841 -0.20477051
-0.29526737 -0.77907139 0.00000178
-0.12398828 -0.03838343 0.00000075
-0.45890263 -0.30468792 -0.04646050
-0.26361269 0.16468705 -0.01591426
-0.08945327 0.19513592 0.00000637
-0.15478212 -0.77415681 0.00000093
-0.49471390 -0.39435482 0.07685788
-0.27062529 -0.35005933 0.00000163
-0.47284138 -0.61527073 0.00000285
-0.45260569 -0.29269648 0.08625199
-0.26234829 -0.28244227 0.00000158
-0.20134133 -0.02071768 0.00000122
-0.38457361 -0.12845428 0.14541230
-0.14649257 0.44700804 -0.00970149
-0.11222478 0.52905923 0.11316122
-0.00253772 0.57618940 0.00000328
-0.24382293 -0.60848069 0.00000147
-0.14597279 0.28314185 0.00000335
-0.26214999 -0.66514605 0.00000158
-0.59522343 -0.63700515 0.02248401
-0.19338284 0.34397736 -0.15837145
-0.38390255 -0.10123469 -0.37373507
-0.33636728 -0.13223961 0.00000203
-0.21784006 -0.60960901 0.00000131
-0.02312730 -0.00783315 0.00000014
-0.21032839 0.29826829 -0.08820161
-0.01227456 0.20518316 0.00000855
-0.42495671 -0.55143034 0.00000256
-0.62135798 -0.69687968 -0.04649297
-0.47037783 -0.32569206 -0.14437687
-0.56016600 -0.54401135 -0.12163493
-0.17492791 0.37788537 -0.00275199
-0.44655329 -0.27689168 -0.01697727
-0.03307655 -0.59500545 0.00000020
-0.49947149 -0.79083705 0.00000301
-0.34145766 -0.02310040 -0.01804605
-0.41816175 -0.20937340 -0.00201616
-0.38243768 -0.10879945 -0.21147606
-0.50806195 -0.42657930 0.06028952
-0.48823807 -0.37872773 0.23482005
-0.29152620 0.10396043 -0.11328970
-0.28060505 0.12254728 0.24091271
-0.05131578 0.01519217 0.00001022
-0.38254690 -0.12355993 0.11398072
-0.59006256 -0.60908782 -0.22541869
-0.27175173 0.14559092 -0.02399559
-0.50926363 -0.41110852 -0.26803967
-0.41842374 -0.21017949 0.22040512
-0.47203383 -0.57787728 0.00000285
-0.35976630 -0.05254039 -0.23376884
-0.07978691 -0.45571181 0.00000048
-0.01250978 -0.00780764 0.00000008
-0.22469732 -0.10085564 0.00000136
-0.25847277 0.17599267 0.06518462
-0.10693174 -0.52562612 0.00000065
-0.02492922 0.60406530 0.00000219
-0.52556092 -0.45162794 -0.25086588
-0.17332400 0.38620254 -0.06773439
-0.01826099 -0.11796428 0.00000011
-0.13949446 -0.63239050 0.00000084
-0.00559576 0.78683543 -0.00503514
-0.37780783 -0.10307794 -0.13173150
-0.43039319 -0.22379430 -0.22284327
-0.48907527 -0.38075122 0.29433441
-0.23434840 0.24169303 -0.10885444
-0.24157368 0.21678807 0.09300220
-0.61063790 -0.66916269 -0.07334360
-0.28670713 0.10783365 0.01327356
-0.60957390 -0.66824245 -0.04924842
-0.01526474 -0.32336044 0.00000009
-0.05430417 0.66889781 0.02101746
-0.10733404 0.54086643 0.11272403
-0.15290231 0.06386390 0.00000643
-0.12974259 -0.69009137 0.00000078
-0.20143846 0.31565905 -0.02868941
-0.03547754 0.71434885 0.02097374
-0.47412255 -0.33375287 -0.15869440
-0.25054613 -0.59012973 0.00000151
-0.42922714 -0.77758086 0.00000259
-0.00648624 -0.69988102 0.00000004
-0.13735062 -0.15784173 0.00000083
-0.28747493 0.11072811 -0.06924701
-0.33050236 -0.09645908 0.00000199
-0.23394597 0.23519339 0.21230514
-0.32154286 0.02371199 0.28739277
-0.36017925 -0.04606350 -0.34302759
-0.41681689 -0.67662126 0.00000252
-0.25966889 -0.08678368 0.00000157
-0.29023272 -0.07694813 0.00000175
-0.42070800 -0.46411297 0.00000254
-0.16913028 0.19756915 0.00000393
-0.15333451 -0.74769920 0.00000093
-0.04760650 -0.66850060 0.00000029
-0.52823329 -0.45876393 -0.24086039
-0.13839218 0.46589062 0.05678123
-0.16001926 -0.11805861 0.00000097
-0.15340395 -0.55396295 0.00000093
-0.36814982 -0.08881043 0.34331718
-0.58751065 -0.72416598 0.00000355
-0.26460382 0.16117664 0.24878459
-0.18398425 -0.61997867 0.00000111
-0.04985706 -0.43300357 0.00000030
-0.25258124 -0.13440190 0.00000152
-0.37248120 -0.09926930 0.36960328
-0.35368478 -0.03576444 -0.26438382
-0.20253763 -0.12928917 0.00000122
-0.01643322 0.30884886 0.00000687
-0.14447182 0.45352542 -0.03366170
-0.07096291 0.44581753 0.00000317
-0.16784719 0.14475407 0.00000476
-0.55690771 -0.54450279 0.03313650
-0.22891656 0.25161153 -0.06214927
-0.02836230 0.48420468 0.00000388
-0.19021197 0.34078228 0.12676568
-0.13060050 0.06922325 0.00000702
-0.36577320 -0.05881885 -0.35398194
-0.06479951 -0.67143607 0.00000039
-0.12386048 -0.20433792 0.00000075
-0.39915565 -0.16365629 0.09342123
-0.53831184 -0.49808538 -0.02175044
-0.16778758 0.03989215 0.00000634
-0.53819841 -0.65072370 0.00000325
-0.36188668 -0.04923975 -0.35685369
-0.15469608 0.43079337 -0.06218162
-0.26770955 0.15369613 0.02938601
-0.13472173 -0.06371962 0.00000081
-0.36934748 -0.08287132 -0.12854427
-0.45173442 -0.26431397 -0.38365558
-0.52035236 -0.45625126 0.06323362
-0.32199070 -0.34394929 0.00000194
-0.36575893 -0.08304099 0.37613842
-0.07751529 -0.15724611 0.00000047
-0.48717561 -0.37616351 0.25236437
-0.22516350 -0.05319960 0.00000136
-0.02516379 0.63712054 0.00000168
-0.18283898 0.35858449 0.09632832
-0.50174642 -0.41134131 0.26847479
-0.06965151 0.53978950 0.00000180
-0.04212527 -0.19244076 0.00000025
-0.24958545 -0.74055713 0.00000151
-0.25873870 0.17535135 0.05627514
-0.03012745 0.30925968 0.00000645
-0.12132541 0.11027815 0.00000668
-0.28743836 0.11875496 -0.18530045
-0.45335779 -0.28410435 -0.15166309
-0.25695828 0.19558306 -0.23273149
-0.12562552 -0.04437181 0.00000076
-0.29674694 -0.47405669 0.00000179
-0.54396218 -0.76232469 0.00000328
-0.20466352 0.09204652 0.00000444
-0.25736845 0.18343067 -0.06955210
-0.32558799 -0.55620754 0.00000197
-0.21782823 0.28271288 -0.12548515
-0.39432684 -0.15200765 0.29944876
-0.57276899 -0.58279788 0.08607975
-0.37000629 -0.06755191 -0.37570977
-0.41912803 -0.21188544 0.34636390
-0.08308398 0.60535681 -0.08675350
-0.48683146 -0.37532741 0.13548312
-0.07021504 -0.54335105 0.00000042
-0.24942280 0.19783744 0.11026389
-0.15450282 -0.28431696 0.00000093
-0.38356939 -0.24665649 0.00000231
-0.44008750 -0.26248366 0.28610113
-0.21877120 -0.03526185 0.00000132
-0.40413648 -0.28207636 0.00000244
-0.45861235 -0.30720827 0.31838393
-0.48620421 -0.36047620 -0.19441462
-0.45384285 -0.29569420 0.33170730
-0.10927335 -0.05256929 0.00000066
-0.36697206 -0.07741183 -0.12452226
-0.40185153 -0.15266272 -0.25539938
-0.24197963 0.21580704 0.10555411
-0.15465041 -0.52539295 0.00000093
-0.51590204 -0.44550484 0.01055310
-0.14988825 0.09102053 0.00000611
-0.44503367 -0.25113833 -0.33978459
-0.01352671 -0.27560347 0.00000008
-0.06306513 0.32930654 0.00000516
-0.52471906 -0.56450170 0.00000317
-0.45841005 -0.30671793 0.27439210
-0.00992406 -0.24936000 0.00000006
-0.10992370 0.31081823 0.00000402
-0.42604014 -0.38474736 0.00000257
-0.09659956 0.37290129 0.00000349
-0.44121179 -0.26518676 0.03556546
-0.06550702 0.08620566 0.00000873
-0.04020145 -0.69365412 0.00000024
-0.25619727 0.18566234 -0.06084354
-0.32410631 0.03686495 -0.28225416
-0.05770766 0.07984163 0.00000906
-0.36261499 -0.07543575 0.02383610
-0.00800698 0.55221599 0.00000348
-0.42257351 -0.64575970 0.00000255
-0.22142135 0.26542947 0.22160871
-0.34829795 -0.04087264 0.05620403
-0.23223528 -0.40133792 0.00000140
-0.37507474 -0.08404534 -0.31347072
-0.36438072 -0.07971158 0.34903407
-0.09849121 -0.33012372 0.00000059
-0.30855602 0.05507687 0.13261783
-0.07887752 -0.55213195 0.00000048
-0.13133845 0.49059924 -0.11213382
-0.59171915 -0.69996566 0.00000357
-0.26532635 0.15945114 0.01028896
-0.12784041 0.49135834 0.13550563
-0.01573846 -0.30339462 0.00000009
-0.19985235 0.15316384 0.00000367
-0.13578036 0.47219309 0.09382076
-0.16191652 0.41030547 -0.01749695
-0.12012680 0.50998646 0.05981716
-0.12697981 0.49344134 0.06771194
-0.25046736 0.21262643 -0.25280771
-0.17390323 0.19785102 0.00000378
-0.45579764 -0.46532097 0.00000275
-0.10345939 -0.41779548 0.00000062
-0.17056906 0.39055523 -0.03413769
-0.01058751 0.07390118 0.00001057
-0.30717468 0.05841162 0.13355398
-0.30632591 0.07300339 -0.18304764
-0.00162966 -0.14398009 0.00000001
-0.10153674 -0.28621194 0.00000061
-0.11888565 0.25114700 0.00000465
-0.14161107 0.27650240 0.00000358
-0.48031521 -0.56512111 0.00000290
-0.19896324 -0.78246081 0.00000120
-0.20064662 -0.60327613 0.00000121
-0.38494503 -0.12376919 -0.08114501
-0.35329118 -0.05292904 0.21847963
-0.00854012 0.24146153 0.00000812
-0.30007917 0.09273826 -0.25108805
-0.53833765 -0.71099520 0.00000325
-0.27602008 -0.34521037 0.00000167
-0.06430125 0.37938040 0.00000437
-0.28827667 -0.26848298 0.00000174
-0.42573810 -0.50695491 0.00000257
-0.36758503 -0.06179656 -0.37439501
-0.19105947 0.24121527 0.00000262
-0.34839052 -0.56233770 0.00000210
-0.26276955 -0.50833219 0.00000159
-0.18054675 -0.15996699 0.00000109
-0.24861266 0.21382917 -0.20493348
-0.28262165 0.11767573 0.27980718
-0.23742519 0.22680901 0.02077182
-0.16240610 -0.69245613 0.00000098
-0.28023598 -0.39299136 0.00000169
-0.46912220 -0.33257565 0.18877275
-0.31148356 0.04801658 0.03944855
-0.18239374 0.35966527 0.02142806
-0.14281578 0.00571901 0.00000760
-0.08767259 0.58833605 0.07252455
-0.46118072 -0.31339952 0.10854869
-0.40857551 -0.18639508 0.02907373
-0.41058868 -0.68846983 0.00000248
-0.48302227 -0.34331369 -0.33299878
-0.27795818 0.13352548 -0.06665175
-0.27999255 -0.03879698 0.00000169
-0.37724257 -0.09408055 -0.24329744
-0.27770171 -0.00243483 0.00000168
-0.25406894 -0.30029616 0.00000153
-0.22673911 -0.34067732 0.00000137
-0.14183393 0.45758054 0.06989686
-0.14042896 0.26907754 0.00000373
-0.22891603 -0.78771245 0.00000138
-0.50336027 -0.41522980 0.09194545
-0.18749225 -0.73607522 0.00000113
-0.18728763 0.34784541 0.08615923
-0.47571281 -0.66938686 0.00000287
-0.40429699 -0.45652124 0.00000244
-0.32856107 -0.76688510 0.00000198
-0.18365315 -0.08821820 0.00000111
-0.11727848 0.52431077 -0.10875081
-0.13943356 0.32862312 0.00000286
-0.10650899 0.09112520 0.00000742
-0.19653597 -0.15488975 0.00000119
-0.46873575 -0.32360905 -0.11687900
-0.02949922 -0.38628525 0.00000018
-0.26507300 0.17645331 -0.23946306
-0.56587452 -0.56615639 0.23985304
-0.37103817 -0.09577748 0.16451788
-0.57774282 -0.77823687 0.00000349
-0.57723510 -0.69827193 0.00000348
-0.50422883 -0.41732788 0.11875959
-0.14033625 -0.22285151 0.00000085
-0.11554191 -0.61204886 0.00000070
-0.43070328 -0.50978309 0.00000260
-0.29859617 -0.31713668 0.00000180
-0.07847771 -0.21511005 0.00000047
-0.52255070 -0.69414079 0.00000315
-0.10954884 0.53552151 0.08702226
-0.35883901 -0.49645326 0.00000217
-0.50553155 -0.40681791 -0.19905810
-0.06555347 0.50565153 0.00000244
-0.23171571 0.24058478 0.12233370
-0.40910223 -0.16298886 -0.36032197
-0.21187001 0.29152697 -0.04405821
-0.18363677 -0.01380165 0.00000111
-0.12204767 0.50960726 -0.06211741
-0.43904480 -0.25996315 0.21438789
-0.48309496 -0.75469333 0.00000292
-0.01879572 0.69117957 0.00000107
-0.04475137 -0.06794554 0.00000027
-0.13048001 0.48498690 0.12255754
-0.24888635 -0.00163943 0.00000150
-0.41290236 -0.17280608 -0.35092193
-0.35588500 -0.05919286 0.13182795
-0.06943739 0.31905499 0.00000512
-0.04834589 0.10249629 0.00000900
-0.05679662 0.34222880 0.00000515
-0.15843125 -0.78787440 0.00000096
-0.42025274 -0.21459046 0.11631086
-0.35291195 -0.39350328 0.00000213
-0.33745068 -0.01468025 0.13204092
-0.33335811 -0.00056496 -0.06158665
-0.31189778 -0.07259963 0.00000188
-0.27810261 0.13715278 -0.12477597
-0.39663595 -0.37618682 0.00000239
-0.28481799 -0.12067147 0.00000172
-0.16219734 0.23969647 0.00000351
-0.12895840 -0.30943814 0.00000078
-0.14080378 0.36348489 0.00000230
-0.34207639 -0.02585944 0.28244066
-0.15592752 0.28960371 0.00000295
-0.47148117 -0.33827639 0.34607771
-0.23073019 0.25319690 -0.14933354
-0.42389491 -0.21004052 -0.19457214
-0.05621673 0.54273003 0.00000216
-0.49285841 -0.63869882 0.00000297
-0.02022663 -0.73152679 0.00000012
-0.13852590 0.19545785 0.00000489
-0.26363504 -0.19510701 0.00000159
-0.11921008 -0.53143722 0.00000072
-0.19267321 -0.03136802 0.00000116
-0.25781775 -0.10533775 0.00000156
-0.57585406 -0.59024310 0.02237505
-0.29492426 0.09149350 -0.05096202
-0.32537732 -0.52074707 0.00000196
-0.12976731 0.48671094 0.07873429
-0.35274294 -0.05160069 0.15787150
-0.02660289 0.73577338 0.02812716
-0.13136198 0.48286051 0.08655270
-0.11798837 -0.64906573 0.00000071
-0.51499158 -0.42648765 -0.24536911
-0.04852635 0.61914754 0.00000125
-0.61631161 -0.68055820 -0.10699398
-0.27355301 0.13958187 0.11875914
-0.38201594 -0.11625883 -0.08756255
-0.01408095 0.12433949 0.00000971
-0.38859233 -0.11076571 -0.39991534
-0.30375409 0.06666268 0.22110233
-0.36798191 -0.08840709 0.36879489
-0.17930961 -0.00071494 0.00000108
-0.25278285 0.19444108 -0.06867597
-0.20949332 -0.61523122 0.00000126
-0.22411600 0.26170781 -0.04032344
-0.38807756 -0.74173516 0.00000234
-0.00366271 -0.44303432 0.00000002
-0.35423362 -0.23657775 0.00000214
-0.35597366 -0.04784204 -0.16860218
-0.07840987 0.61385643 -0.04604839
-0.25818536 0.18546385 -0.12810621
-0.34873149 -0.25054541 0.00000210
-0.39667612 -0.14324471 -0.21043359
-0.51394117 -0.42649689 -0.20816758
-0.08036891 0.60596913 0.06468078
-0.47599030 -0.34222120 -0.10082305
-0.39292866 -0.14862192 0.07066448
-0.66016686 -0.78602242 -0.11299888
-0.50996459 -0.43117812 0.18224640
-0.34709686 -0.63456386 0.00000209
-0.16439778 -0.44347116 0.00000099
-0.42834508 -0.23412722 0.11656912
-0.38272318 -0.50290102 0.00000231
-0.49039802 -0.38256690 -0.01950823
-0.34094340 -0.69448996 0.00000206
-0.51645654 -0.59676647 0.00000312
-0.40934923 -0.17265135 -0.22780353
-0.32345310 0.03607444 -0.24764469
-0.46838298 -0.32757193 -0.04650652
-0.10456205 0.19372281 0.00000594
-0.32461718 -0.30869466 0.00000196
-0.38890293 -0.13422041 -0.06804577
-0.38077492 -0.43881357 0.00000230
-0.08103477 0.60834849 -0.05816707
-0.14163107 0.19760026 0.00000476
-0.25621843 -0.78060019 0.00000155
-0.54078478 -0.75871766 0.00000326
-0.06303479 0.53602511 0.00000206
-0.45041832 -0.28742498 0.29518819
-0.36011812 -0.36991593 0.00000217
-0.00719848 -0.28272966 0.00000004
-0.51059842 -0.68571770 0.00000308
-0.34582153 -0.01575186 -0.27943385
-0.26297149 0.02603735 0.00000367
-0.53573704 -0.49057493 -0.04067120
-0.37135810 -0.09654406 0.03415969
-0.41737798 -0.71360475 0.00000252
-0.48944935 -0.45226905 0.00000295
-0.24535476 0.20765702 0.12857166
-0.56231952 -0.55728865 -0.00355604
-0.26847646 0.15756598 -0.08346628
-0.01931944 -0.26317137 0.00000012
-0.13500874 0.20583285 0.00000484
-0.02526685 0.74017638 -0.01716907
-0.14609179 0.44757527 -0.00384916
-0.28019184 0.12355628 0.09620545
-0.28770027 0.10543321 0.04899737
-0.65955496 -0.78642130 -0.08556959
-0.53869599 -0.50053871 0.10313235
-0.08620971 0.08044149 0.00000819
-0.64757288 -0.75345570 -0.14461391
-0.33399493 -0.00633803 0.13975871
-0.00336022 0.21550523 0.00000867
-0.12701499 -0.26779473 0.00000077
-0.51726502 -0.66778731 0.00000312
-0.40836951 -0.18589954 0.06905008
-0.38134041 -0.11475924 -0.08564441
-0.01502763 0.72079700 0.00000073
-0.48333827 -0.36197093 -0.07143563
-0.20917754 -0.40373421 0.00000126
-0.46329114 -0.31849012 0.00922063
-0.19896129 0.31965867 0.14077561
-0.20143388 0.11749046 0.00000416
-0.32009143 0.03842242 -0.16332830
-0.34177995 -0.60172611 0.00000206
-0.06027989 -0.53932202 0.00000036
-0.23284087 0.23982361 -0.02832098
-0.54303360 -0.74068868 0.00000328
-0.13314790 -0.14627878 0.00000080
-0.59867477 -0.64308059 -0.03243305
-0.40696684 -0.18251824 0.18260702
-0.47426212 -0.34498978 0.30560508
-0.17472465 -0.34728688 0.00000105
-0.45552659 -0.45634416 0.00000275
-0.29636282 0.08451513 0.11308713
-0.13669966 0.38593051 0.00000209
-0.36187658 -0.71372646 0.00000218
-0.16009149 -0.32142535 0.00000097
-0.12957457 0.48717681 0.07171150
-0.53656298 -0.49539107 0.14601684
-0.03223332 -0.16726772 0.00000019
-0.40220562 -0.14218943 -0.42097908
-0.55303550 -0.51979995 -0.22391927
-0.46876645 -0.33171898 0.23816019
-0.44291618 -0.61202598 0.00000267
-0.33564794 0.00077752 -0.16202600
-0.31679919 -0.43918160 0.00000191
-0.06701204 0.34984037 0.00000473
-0.32086664 0.04839089 -0.33641568
-0.46330872 -0.29844809 -0.29314563
-0.40048096 -0.14409082 -0.33232901
-0.43002510 -0.40128312 0.00000260
-0.19897316 0.32384169 -0.06130494
-0.38600081 -0.13189773 0.09804054
-0.17227648 0.38408312 0.11191897
-0.00973614 -0.23968233 0.00000006
-0.34392351 -0.01657605 -0.20039950
-0.55863607 -0.76425010 0.00000337
-0.20504819 -0.25866663 0.00000124
-0.44013691 -0.25488377 -0.11224510
-0.65473944 -0.78018415 -0.00679235
-0.34225351 -0.02627533 0.13387987
-0.27948177 0.14257301 -0.25268808
-0.49883574 -0.56442428 0.00000301
-0.12116152 0.23914786 0.00000476
-0.27202085 0.01370466 0.00000359
-0.24595384 -0.08427921 0.00000148
-0.50402433 -0.41684055 0.28080270
-0.46671027 -0.32649556 -0.00321371
-0.28803027 0.10463430 0.07740582
-0.56694448 -0.56457072 -0.06031731
-0.02351253 0.40817896 0.00000517
-0.38142884 -0.60221142 0.00000230
-0.10110778 -0.73093629 0.00000061
-0.19174285 0.33708090 0.19740035
-0.24531348 0.22188194 -0.20622084
-0.24935041 0.19801421 0.08448093
-0.45480564 -0.40139207 0.00000274
-0.36169371 -0.07052085 -0.03898772
-0.48086950 -0.75784433 0.00000290
-0.06330539 -0.59043527 0.00000038
-0.33955598 -0.01976657 0.03432009
-0.49435106 -0.70580304 0.00000298
-0.24447884 0.20977458 0.09154762
-0.33992592 -0.00279797 -0.26073560
-0.15481667 0.43162975 -0.07866437
-0.45248410 -0.29240230 0.07203203
-0.54617435 -0.51859361 0.11316872
-0.11540914 0.08685566 0.00000721
-0.20974062 -0.27083936 0.00000127
-0.32102907 0.02496018 0.18841790
-0.05632639 0.00705965 0.00001019
-0.18719217 0.34807265 0.12691884
-0.31346223 -0.29585654 0.00000189
-0.21321718 0.29827821 -0.19029874
-0.04333813 0.30002987 0.00000619
-0.49683502 -0.39332443 -0.08941277
-0.33786872 -0.47176972 0.00000204
-0.55643588 -0.54336292 0.01560157
-0.35294774 -0.48054734 0.00000213
-0.18018997 -0.04254979 0.00000109
-0.21779419 -0.68027163 0.00000131
-0.29131109 -0.42070597 0.00000176
-0.32384232 0.01816093 0.28413516
-0.41627544 -0.18489406 -0.29326165
-0.34433806 -0.28295451 0.00000208
-0.46664384 -0.32283449 -0.05438308
-0.09137833 0.35597229 0.00000390
-0.21165980 -0.47604340 0.00000128
-0.19853063 0.32312152 -0.03515848
-0.32854137 0.00750204 -0.00952314
-0.13152920 -0.31937698 0.00000079
-0.11035035 0.38750392 0.00000286
-0.09561041 -0.71085531 0.00000058
-0.13522410 -0.46381414 0.00000082
-0.03483921 -0.44586220 0.00000021
-0.24217404 0.21534401 0.02527549
-0.17724024 -0.30819616 0.00000107
-0.48617923 -0.35353148 -0.29504263
-0.46347788 -0.31895277 0.27350250
-0.00926832 -0.33654344 0.00000006
-0.35707468 -0.06207306 0.34451377
-0.12834775 0.49293897 -0.04078939
-0.10347645 0.05943975 0.00000799
-0.36372730 -0.05692446 -0.30947134
-0.12813288 -0.33125445 0.00000077
-0.09166480 0.10224555 0.00000770
-0.11100697 -0.01311086 0.00000067
-0.45331749 -0.71248388 0.00000274
-0.35015669 -0.39678451 0.00000211
-0.33248693 -0.10958389 0.00000201
-0.46712539 -0.52070987 0.00000282
-0.07500910 -0.09688616 0.00000045
-0.08900640 0.34637982 0.00000412
-0.34855431 -0.02393632 -0.25623217
-0.19683561 -0.70523632 0.00000119
-0.21945095 -0.57743299 0.00000132
-0.21008852 -0.52404863 0.00000127
-0.07106547 -0.19526909 0.00000043
-0.15047127 0.36954638 0.00000192
-0.22769374 0.25030226 0.02469338
-0.46565178 -0.32031968 -0.05613441
-0.13375594 -0.06540158 0.00000081
-0.04418907 -0.50244546 0.00000027
-0.15405202 0.06781975 0.00000633
-0.13572061 0.47233403 0.13600057
-0.02339707 -0.44250581 0.00000014
-0.23514906 0.23230006 0.07098330
-0.06152831 -0.33951768 0.00000037
-0.13846138 0.46571800 0.12706830
-0.33527693 -0.52478659 0.00000202
-0.23379958 -0.03470400 0.00000141
-0.34235805 -0.02654296 0.32706314
-0.55224395 -0.53224754 -0.01403628
-0.13002767 -0.42613554 0.00000078
-0.22405668 0.26634187 -0.10597485
-0.24853036 0.19998471 0.20225812
-0.37295491 -0.10041239 0.36311135
-0.31817204 -0.67382222 0.00000192
-0.30449328 0.06487260 0.29116055
-0.36221406 -0.25482228 0.00000219
-0.21168926 0.28893530 0.08540158
-0.43688789 -0.55538470 0.00000264
-0.43401331 -0.24296907 -0.07031403
-0.27880961 0.13700104 -0.14750995
-0.21368310 -0.74272704 0.00000129
-0.56872153 -0.68229413 0.00000343
-0.36595440 -0.69605964 0.00000221
-0.20323171 -0.37177002 0.00000123
-0.46325949 -0.30516732 -0.19319496
-0.55400413 -0.52515912 -0.17975789
-0.29145023 0.10600682 -0.14052489
-0.04508254 0.17809948 0.00000797
-0.37741947 -0.09064239 -0.29978025
-0.42831859 -0.20689416 -0.39666116
-0.39772373 -0.13547936 -0.36090562
-0.48286116 -0.34760052 -0.26464850
-0.03770357 -0.52310652 0.00000023
-0.59834641 -0.64228326 -0.03250040
-0.26167908 -0.12394934 0.00000158
-0.10440054 0.55433321 -0.09315438
-0.53859466 -0.48949209 -0.15733679
-0.31814167 -0.70190746 0.00000192
-0.23993795 0.23358853 -0.18764354
-0.31052855 0.05991918 -0.14009088
-0.22398916 0.25923067 0.21653803
-0.00728383 0.78253180 -0.00169717
-0.40209153 -0.17074805 0.18019828
-0.49225447 -0.38842630 0.31196442
-0.28348508 -0.79439932 0.00000171
-0.20486477 0.31767809 -0.17912818
-0.21456055 0.28200263 0.09620424
-0.12963998 -0.24499355 0.00000078
-0.14261329 0.09990556 0.00000620
-0.24665757 0.22047596 -0.23310272
-0.50491428 -0.76523411 0.00000305
-0.07918758 -0.35678220 0.00000048
-0.18531442 -0.08748153 0.00000112
-0.04937581 0.68079531 0.02729194
-0.39802921 -0.15897806 -0.02821034
-0.56993729 -0.56011432 -0.23107979
-0.04828662 0.14025863 0.00000844
-0.17093971 0.39330113 -0.08736147
-0.12107720 0.50768757 0.11611186
-0.21972255 0.26954129 0.08688022
-0.37842405 -0.10305414 -0.15382372
-0.12200671 -0.56056160 0.00000074
-0.61507964 -0.68494487 0.07484691
-0.20097436 -0.26943836 0.00000121
-0.49709430 -0.38289005 -0.25107893
-0.27449822 -0.52101713 0.00000166
-0.54339278 -0.51187545 0.04958205
-0.18685441 -0.01097178 0.00000113
-0.02526519 0.07715030 0.00001008
-0.49064311 -0.36513752 -0.28291821
-0.57961977 -0.78284717 0.00000350
-0.50442183 -0.41381842 -0.05757437
-0.09599777 -0.13159610 0.00000058
-0.65542692 -0.78234959 0.10852866
-0.18481568 0.20334728 0.00000337
-0.11391098 -0.02387300 0.00000069
-0.21729062 0.28706896 -0.17019314
-0.55285764 -0.69623554 0.00000334
-0.52324170 -0.64841032 0.00000316
-0.30420303 0.07098048 -0.07855342
-0.35932466 -0.44796264 0.00000217
-0.35329050 -0.05292526 0.04459324
-0.37289873 -0.07937780 -0.30490887
-0.24664098 -0.58023608 0.00000149
-0.35534152 -0.05673454 -0.01634720
-0.45463979 -0.29761872 0.34411868
-0.37842181 -0.11360675 0.24231321
-0.22993588 0.24488328 0.10100174
-0.06491959 -0.45265144 0.00000039
-0.37652433 -0.10290691 -0.08894061
-0.46554652 -0.31329623 -0.15507959
-0.50812536 -0.42432949 -0.03462398
-0.37533453 -0.33729544 0.00000227
-0.07722623 -0.15020111 0.00000047
-0.07819598 -0.20135835 0.00000047
-0.10881281 -0.06577902 0.00000066
-0.33395016 -0.00354219 -0.03895779
-0.07547453 -0.22821246 0.00000046
-0.40914366 -0.17795496 -0.14302789
-0.49631506 -0.38371727 -0.21148995
-0.19701920 0.03493587 0.00000553
-0.46641368 -0.31147602 -0.21228474
-0.02164486 0.70344299 0.00000080
-0.18776809 -0.60802722 0.00000113
-0.04217418 -0.53786981 0.00000025
-0.38948032 -0.14030270 0.20193449
-0.36277413 -0.05481903 -0.30661094
-0.11909118 0.24687967 0.00000470
-0.13019617 0.17601719 0.00000543
-0.45993462 -0.30334014 -0.10257739
-0.27223206 0.14275798 0.28277212
-0.21996522 0.27058548 -0.02361459
-0.05428032 -0.59772617 0.00000033
-0.29208234 -0.79070956 0.00000176
-0.40064189 -0.55765152 0.00000242
-0.00512273 -0.54049271 -0.00000003
-0.04719015 -0.31488404 0.00000028
-0.47413531 -0.33100557 -0.19930173
-0.21939027 -0.55281472 0.00000132
-0.30646998 0.06812766 -0.11685427
-0.58212990 -0.60287541 -0.03627917
-0.25251463 0.19036463 0.21851289
-0.04710659 -0.71270657 0.00000028
-0.04327372 0.38076532 0.00000498
-0.39366910 -0.15042312 0.39796507
-0.26169205 0.16820371 0.28081888
-0.49859145 -0.40086591 -0.04116007
-0.24559166 0.20722391 -0.00175321
-0.34481341 -0.03247248 0.35037252
-0.55779123 -0.68390411 0.00000337
-0.38887429 -0.44081876 0.00000235
-0.41733488 -0.20754339 0.05553295
-0.15537596 0.42488191 0.14082849
-0.46424064 -0.62962109 0.00000280
-0.30172271 -0.12792595 0.00000182
-0.36771598 -0.68766117 0.00000222
-0.24509449 0.20827833 0.21748686
-0.27821898 0.12831400 0.16064776
-0.26238623 -0.01825270 0.00000158
-0.03769576 -0.06175240 0.00000023
-0.40990523 -0.18961912 0.33851448
-0.56054521 -0.54677659 -0.09459714
-0.49093246 -0.38522819 0.13563095
-0.61657631 -0.68147647 -0.10291174
-0.37463456 -0.10186991 -0.03741288
-0.47485754 -0.34006253 -0.09240345
-0.22077800 0.26699975 0.00429123
-0.32768852 -0.51003277 0.00000198
-0.48486146 -0.35449666 -0.23443446
-0.19964892 -0.69203919 0.00000120
-0.42894956 -0.22196326 -0.19866528
-0.22077276 -0.49467269 0.00000133
-0.36705670 -0.07755282 -0.12544791
-0.20267485 -0.49966848 0.00000122
-0.23635752 0.22938053 0.09683843
-0.03500215 0.04501439 0.00001027
-0.50201786 -0.40403771 -0.11570677
-0.40831828 -0.52751416 0.00000246
-0.62114990 -0.69959772 0.02657870
-0.47492817 -0.33033684 -0.23705369
-0.08520434 -0.43214592 0.00000051
-0.04523122 -0.03396948 0.00000027
-0.38153204 -0.12111792 0.29552975
-0.33344311 -0.00315844 -0.02667216
-0.16147901 0.41015819 0.01176338
-0.16932248 0.07135702 0.00000582
-0.24253914 -0.03145119 0.00000146
-0.26992467 -0.57047504 0.00000163
-0.00836580 0.27429146 0.00000763
-0.20324261 0.30933061 0.04114750
-0.12870480 0.49135092 -0.03017505
-0.38480428 -0.12901500 0.23179963
-0.16588382 0.19800304 0.00000402
-0.48880273 -0.38009116 0.23914918
-0.45550299 -0.29970229 0.33431759
-0.25479189 0.18940936 -0.06602115
-0.10504587 0.04616520 0.00000814
-0.05206761 0.59194779 0.00000155
-0.40946248 -0.54233062 0.00000247
-0.34689340 -0.45497298 0.00000209
-0.07945764 0.60983670 -0.02426214
-0.12754789 -0.41151243 0.00000077
-0.37783879 -0.51228797 0.00000228
-0.27292874 -0.65603471 0.00000165
-0.17847207 0.36913109 0.04514080
-0.38817903 -0.12509945 -0.17581978
-0.34327579 -0.36496776 0.00000207
-0.27715439 0.13684042 -0.08674515
-0.39714202 -0.37505496 0.00000240
-0.30693814 0.06871427 -0.14195213
-0.14493419 -0.61665976 0.00000087
-0.37168074 -0.09733418 0.33571747
-0.00345258 -0.46075812 0.00000002
-0.28996113 0.11389160 -0.20323791
-0.38496178 -0.12939958 0.32852551
-0.59761953 -0.64279109 0.04932838
-0.07438145 -0.38242573 0.00000045
-0.28725079 -0.35221037 0.00000173
-0.45600253 -0.30089790 0.10096570
-0.04015429 0.26076397 0.00000688
-0.35001767 -0.04502482 0.06521018
-0.05130743 -0.54750168 0.00000031
-0.22207828 0.26384774 0.16814663
-0.05573138 0.27933326 0.00000613
-0.06454389 0.64417428 0.05773266
-0.06462330 0.32165509 0.00000523
-0.28585628 0.12900300 -0.27928084
-0.58168548 -0.72408473 0.00000351
-0.12090366 -0.54463202 0.00000073
-0.66389030 -0.79371506 -0.13195308
-0.03864400 0.32087940 0.00000602
-0.05305613 0.67416185 -0.03285588
-0.13913146 0.12024519 0.00000600
-0.20199318 -0.40826324 0.00000122
-0.16680811 0.15552431 0.00000463
-0.25015786 0.19884820 -0.04046154
-0.40749845 -0.18381169 0.40666944
-0.20769584 0.30436400 -0.08440554
-0.24359971 0.22368871 -0.17215073
-0.36809996 -0.08868846 0.32293475
-0.39739829 -0.15941539 0.13270028
-0.18921182 0.34319690 0.12609398
-0.14307459 0.45458132 0.12109981
-0.33304185 0.01473624 -0.27411219
-0.26374570 -0.23983069 0.00000159
-0.19998291 -0.37432989 0.00000121
-0.43458301 -0.58357733 0.00000262
-0.59792155 -0.63806021 -0.07923587
-0.39488435 -0.13699009 -0.23862949
-0.46039689 -0.31151146 0.20448388
-0.33063206 0.00177172 0.25204584
-0.13529284 -0.67841691 0.00000082
-0.16845335 0.39331618 0.07043746
-0.29214001 0.11558660 -0.30491480
-0.06094413 0.65286416 0.06586050
-0.16525987 -0.29396248 0.00000100
-0.21588615 -0.01003949 0.00000130
-0.51969796 -0.44775498 -0.10058507
-0.33813509 -0.59487140 0.00000204
-0.53797680 -0.61975765 0.00000325
-0.67722803 -0.83498085 0.11705109
-0.15692461 0.42114833 0.07567563
-0.22159614 -0.15877108 0.00000134
-0.48070267 -0.36052990 0.10748345
-0.32829568 -0.73831284 0.00000198
-0.48418894 -0.34950367 -0.28368479
-0.40913621 -0.18776308 0.35025454
-0.14710875 0.44484839 0.04106031
-0.52366978 -0.46426767 0.27714136
-0.39850730 -0.29574397 0.00000241
-0.39621332 -0.15571482 -0.01183059
-0.63378888 -0.73011208 0.16315155
-0.27729306 -0.72592413 0.00000167
-0.25619543 0.18148194 0.17460637
-0.02179785 0.74755645 -0.00262830
-0.23211280 0.24824204 -0.12569378
-0.42559090 -0.22748329 0.23514181
-0.20559990 0.30363846 0.05650115
-0.50434142 -0.66822743 0.00000304
-0.42025873 -0.20496863 -0.14039592
-0.29323289 -0.25087249 0.00000177
-0.51091975 -0.66093457 0.00000308
-0.12355464 0.36233488 0.00000284
-0.31940025 0.03445589 -0.08094838
-0.60096264 -0.65086448 0.19797394
-0.36710420 -0.08627843 0.12917805
-0.35692680 -0.06170866 0.14709261
-0.06383422 -0.56958979 0.00000039
-0.07562849 0.62273782 -0.07772347
-0.00025730 -0.16726667 -0.00000000
-0.39002070 -0.14160001 0.03878041
-0.38186157 -0.37415385 0.00000230
-0.24075970 -0.63607639 0.00000145
-0.01335575 -0.72198671 0.00000008
-0.00889358 -0.73193353 0.00000005
-0.32616359 -0.72213858 0.00000197
-0.19022998 -0.17408010 0.00000115
-0.06667257 -0.56056422 0.00000040
-0.23459387 0.23363671 0.11764210
-0.22282593 -0.35291842 0.00000134
-0.23160644 0.24507420 -0.06151292
-0.21462360 0.28185034 0.09727000
-0.38193449 -0.11471909 -0.10719444
-0.05974829 -0.45661101 0.00000036
-0.37983766 -0.48977947 0.00000229
-0.19537200 -0.50494635 0.00000118
-0.63227201 -0.72644937 0.03523607
-0.04147512 -0.66490120 0.00000025
-0.28844756 -0.63159192 0.00000174
-0.21420063 -0.21026339 0.00000129
-0.02479815 -0.75857967 0.00000015
-0.41739091 -0.20768614 0.22290455
-0.26398787 0.17838019 -0.22933520
-0.05336539 0.67144889 -0.00410980
-0.39165679 -0.14556350 0.34395030
-0.07350422 0.37499157 0.00000416
-0.15663280 -0.35836112 0.00000095
-0.13149917 0.48252603 0.12781873
-0.01115199 0.06017457 0.00001076
-0.44788653 -0.28130296 0.07717011
-0.18111493 0.36917952 -0.09383602
-0.55268556 -0.61882252 0.00000334
-0.23942989 -0.16854370 0.00000145
-0.01914395 0.71777356 0.00000066
-0.57546210 -0.58930224 0.16401827
-0.28581342 0.10999195 0.00416979
-0.21888094 0.27206409 -0.00696368
-0.06309027 0.57620549 0.00000145
-0.55563915 -0.54144663 0.25410059
-0.16869815 -0.10265543 0.00000102
-0.34997159 -0.51338160 0.00000211
-0.44087484 -0.26437351 0.04051948
-0.05777395 -0.47535196 0.00000035
-0.29510573 0.10079113 -0.19328795
-0.01354669 0.25952679 0.00000770
-0.16508193 -0.50599843 0.00000100
-0.49171120 -0.38711062 0.18897440
-0.39968735 -0.16493928 0.07864433
-0.39063090 -0.14307651 0.11338705
-0.35558236 -0.05799115 -0.00647862
-0.04449948 -0.21893625 0.00000027
-0.44197208 -0.39448032 0.00000267
-0.15076853 -0.35514775 0.00000091
-0.42965704 -0.22948921 -0.11362560
-0.44157833 -0.25299504 -0.19071592
-0.57897025 -0.59777147 0.18356583
-0.39454663 -0.15253282 0.17715053
-0.22235522 -0.30924347 0.00000134
-0.29714787 0.08261889 0.12531644
-0.00396534 0.05221976 0.00001110
-0.09546848 -0.50073016 0.00000058
-0.03766362 0.19391112 0.00000795
-0.59122992 -0.61744082 -0.14449981
-0.41213802 -0.18237484 -0.18408649
-0.61219144 -0.73400211 0.00000369
-0.15614346 0.42302728 0.16313030
-0.35520393 -0.04067119 -0.24626672
-0.40698627 -0.17846428 -0.05945493
-0.54707855 -0.52077180 0.00689747
-0.37407246 -0.08988521 -0.19275559
-0.21033500 -0.04279545 0.00000127
-0.34583357 -0.02936010 -0.08092095
-0.47850251 -0.35128465 -0.05699339
-0.35139105 -0.04027130 -0.11754674
-0.51595563 -0.71669501 0.00000311
-0.16605707 0.39909837 0.10708032
-0.01153759 -0.10538718 0.00000007
-0.18890101 0.08241282 0.00000506
-0.08070663 -0.66492343 0.00000049
-0.40019262 -0.14107908 -0.36617562
-0.56932276 -0.57448095 0.18214668
-0.45503649 -0.29857099 0.22129171
-0.23312309 -0.44512668 0.00000141
-0.11347826 0.48023894 0.00000137
-0.22793888 -0.43988395 0.00000138
-0.00797686 0.50466752 0.00000419
-0.15719482 0.42363334 -0.04569629
-0.39552158 -0.14817429 -0.09763898
-0.34902021 -0.04261503 0.02734251
-0.20081329 0.18034577 0.00000323
-0.03004542 0.22016071 0.00000779
-0.13455659 0.11477634 0.00000622
-0.34021834 -0.00275611 -0.27166808
-0.43220562 -0.24345443 0.27372104
-0.42386925 -0.22332624 0.22165363
-0.34691450 -0.71808207 0.00000209
-0.23293713 -0.62182885 0.00000141
-0.44912344 -0.28429988 0.31807631
-0.17963281 0.36631742 0.18976946
-0.00893189 -0.16555505 0.00000005
-0.12443468 -0.53745043 0.00000075
-0.17361455 0.38084722 0.18262400
-0.32025090 -0.36482418 0.00000193
-0.40675426 -0.15795442 -0.35105541
-0.03812627 0.18743736 0.00000804
-0.37073854 -0.08939602 -0.08226065
-0.15768266 -0.06859688 0.00000095
-0.47066590 -0.59977347 0.00000284
-0.12739304 0.49244031 0.11149604
-0.14732961 0.13251793 0.00000557
-0.27520835 -0.62792343 0.00000166
-0.39704397 -0.12989612 -0.41852745
-0.18262535 -0.26733512 0.00000110
-0.25040257 0.20772928 -0.17892975
-0.12893872 -0.08104780 0.00000078
-0.36774740 -0.07626676 -0.16861932
-0.38043118 -0.11845387 0.15390293
-0.33972654 -0.00556417 -0.21326031
-0.38852298 -0.69457293 0.00000234
-0.24091621 -0.38846338 0.00000145
-0.51795608 -0.45046464 0.03100145
-0.06223385 -0.38412413 0.00000038
-0.28705600 -0.57308203 0.00000173
-0.07116642 0.63260627 -0.06451263
-0.26173401 0.17879695 -0.15588352
-0.11859639 -0.26809743 0.00000072
-0.02315933 0.63261312 0.00000181
-0.51082295 -0.75857675 0.00000308
-0.00498995 -0.47636592 0.00000003
-0.65341771 -0.76674461 -0.15662611
-0.03665952 0.38541734 0.00000511
-0.24750546 0.21409523 -0.16974767
-0.51636362 -0.68662435 0.00000312
-0.34230363 -0.00228814 -0.35210419
-0.48483983 -0.36372212 -0.09882470
-0.31303436 0.04533050 -0.01525618
-0.23993388 0.12157373 0.00000294
-0.34615067 -0.01329360 -0.32698709
-0.22123420 0.26588815 0.13451564
-0.31239384 -0.68615353 0.00000189
-0.29676580 -0.38958177 0.00000179
-0.06003287 -0.72461486 0.00000036
-0.00405779 -0.68096191 0.00000002
-0.48599577 -0.37331185 0.17967375
-0.52051967 -0.53019720 0.00000314
-0.26026374 -0.16045929 0.00000157
-0.35295314 -0.37612733 0.00000213
-0.30065957 -0.28596029 0.00000181
-0.24999531 0.19644515 0.23878989
-0.36969951 -0.09254492 0.14748536
-0.01246187 -0.07144424 0.00000008
-0.41369778 -0.19522730 -0.05126469
-0.03303271 0.62290812 0.00000166
-0.43824145 -0.71155512 0.00000264
-0.50943398 -0.42989981 0.24224448
-0.07217779 0.62638527 -0.00926178
-0.06956406 0.40376997 0.00000384
-0.20637777 -0.48478952 0.00000125
-0.39786971 -0.15145493 -0.13254578
-0.12455080 0.49930757 0.04087022
-0.55132508 -0.77446359 0.00000333
-0.02920332 -0.23925813 0.00000018
-0.39673275 -0.15782093 0.41751581
-0.23752403 -0.50861150 0.00000143
-0.39775354 -0.15529411 -0.07233024
-0.52678144 -0.66011834 0.00000318
-0.21521798 0.04247856 0.00000487
-0.14609295 0.44729519 0.11127829
-0.25282645 0.18961245 0.21092564
-0.10055285 -0.16219389 0.00000061
-0.32006124 0.02730845 0.03964894
-0.05872011 0.29134345 0.00000586
-0.31436387 0.04913101 -0.11773735
-0.37493297 -0.29942340 0.00000226
-0.30336067 0.07994237 -0.17983758
-0.05053948 -0.46767789 0.00000031
-0.23510312 -0.61114687 0.00000142
-0.39603257 -0.15612607 0.30828777
-0.02276641 -0.33098611 0.00000014
-0.03876776 -0.70572025 0.00000023
-0.13843779 -0.71385556 0.00000084
-0.34872517 -0.02797569 -0.20321065
-0.32216761 -0.15419015 0.00000194
-0.59706271 -0.64144480 0.00459970
-0.38193840 -0.12209766 0.26665732
-0.35426328 -0.36983880 0.00000214
-0.15086493 -0.40197551 0.00000091
-0.26156801 -0.09961561 0.00000158
-0.11592548 0.25887796 0.00000462
-0.29511449 0.08753043 0.09301935
