ply
format ascii 1.0
element vertex 466
property float x
property float y
property float z
end_header
-0.31095663 0.46174556 0.04826433
-0.68598092 -0.37703845 0.05606204
-0.32902947 0.31531677 0.03623500
-0.21106543 0.57738465 0.03357726
-0.68133539 -0.43933100 0.04746140
-0.76550454 -0.07665951 0.11367088
-0.44298676 -0.04411145 0.02637416
-0.65865195 0.03462290 0.09650603
-0.49195358 -0.04676924 0.03989535
-0.24228173 0.44690806 0.02712763
-0.56780481 0.02304281 0.06948690
-0.34406206 0.20109303 0.02711539
-0.73522007 -0.25078014 0.08474363
-0.46282992 0.23070246 0.06413180
-0.70165193 -0.33790800 0.06506714
-0.74502581 -0.23113565 0.08981200
-0.04683146 0.70972621 0.00266806
-0.66677064 -0.19049831 0.07246112
-0.74211133 -0.58531165 0.04754919
-0.63608211 -0.64742512 0.01033078
-0.48763394 -0.18433243 0.02257995
-0.32301125 0.19683494 0.02067032
-0.33362845 0.02214458 0.00322768
-0.12121367 0.52381104 0.00192532
-0.77730334 -0.59701079 0.05612130
-0.52212936 0.19416234 0.07660785
-0.44902164 0.11067783 0.04618592
-0.27665117 0.26814419 0.01591824
-0.62298965 -0.66649377 0.00440135
-0.43953630 0.20633647 0.05470015
-0.19064419 0.47610104 0.01595629
-0.11481332 0.53013611 0.00085739
-0.77772284 -0.20054576 0.10262727
-0.76854891 -0.28993249 0.08957736
-0.62681687 -0.21540913 0.05826034
-0.48116657 0.18061590 0.06345080
-0.74112397 -0.29440379 0.08130729
-0.31546655 0.08242957 0.00515145
-0.26885876 0.47370386 0.03777115
-0.28577566 0.13940212 0.00343069
-0.78354424 -0.14442636 0.11083780
-0.69510335 -0.30681801 0.06685489
-0.33954874 0.11322326 0.01555802
-0.28189015 0.15731287 0.00442893
-0.52236199 0.04534348 0.05925903
-0.65051740 -0.57018757 0.02344543
-0.31672770 0.45192358 0.04874530
-0.40248761 -0.12418515 0.00556515
-0.26794970 0.31076437 0.01844744
-0.49771500 0.24608558 0.07578684
-0.72551817 -0.51039016 0.05162803
-0.49793088 -0.37359598 0.00334439
-0.72995430 -0.48985329 0.05528400
-0.33438206 0.06446548 0.00839289
-0.77139980 -0.06719733 0.11644328
-0.75048488 -0.68222022 0.03857597
-0.21086480 0.36140990 0.00824758
-0.63590086 -0.46193948 0.03198181
-0.54761302 0.10299841 0.07313906
-0.47740215 0.21031316 0.06586249
-0.69710165 -0.39037019 0.05764359
-0.60795271 0.03868460 0.08265894
-0.40072888 0.18930219 0.04174385
-0.43498331 -0.16349292 0.01014545
-0.22047870 0.48513052 0.02544106
-0.65368533 -0.46686670 0.03642907
-0.72532874 -0.75209671 0.02329420
-0.62823135 -0.25484675 0.05404562
-0.63672858 -0.38524166 0.04118943
-0.21446560 0.55013311 0.03134887
-0.09225536 0.58544368 0.00095684
-0.60872579 -0.31610242 0.04136864
-0.42053613 -0.16515055 0.00587046
-0.44564536 0.17027158 0.05220569
-0.74659258 -0.29326028 0.08298585
-0.47094029 0.09407698 0.05043527
-0.32492632 0.08544634 0.00817682
-0.58663255 -0.33677554 0.03270893
-0.37473252 -0.04179209 0.00736505
-0.56169069 -0.41004008 0.01709123
-0.49119446 -0.03756421 0.04075792
-0.40589148 0.34457704 0.06137228
-0.60670674 -0.05307096 0.07157355
-0.56643158 -0.34012899 0.02661020
-0.74878883 -0.33780059 0.07839490
-0.41774711 -0.06566726 0.01672238
-0.70294720 -0.09574239 0.09376693
-0.45040995 -0.17215554 0.01348963
-0.50014722 -0.22869042 0.02092472
-0.59273756 -0.07297933 0.06529821
-0.74457800 -0.32949999 0.07817663
-0.58602703 0.18317126 0.09337258
-0.28462067 0.45186773 0.03966862
-0.35283816 0.43111798 0.05651175
-0.54692024 -0.12843731 0.04586701
-0.61262292 -0.10261502 0.06744798
-0.40101463 0.21343724 0.04464882
-0.52457672 -0.45492867 0.00135521
-0.23493160 0.25668892 0.00279211
-0.35342661 -0.04639640 0.00080783
-0.74822438 -0.55118269 0.05326917
-0.66192597 -0.19506636 0.07055812
-0.69310421 0.01242766 0.10364144
-0.63629299 -0.18485598 0.06451194
-0.65493649 -0.71525580 0.00772044
-0.40937534 0.34959781 0.06294398
-0.15010542 0.63334697 0.02290487
-0.36794174 0.17825063 0.03118835
-0.48760453 0.27994192 0.07689247
-0.76323587 -0.04544982 0.11668163
-0.67755365 -0.51477224 0.03756635
-0.40151927 0.20834535 0.04419553
-0.31075335 0.44288608 0.04600000
-0.64404702 -0.37126940 0.04489153
-0.40979737 0.29521003 0.05669883
-0.58198619 -0.32300773 0.03300729
-0.72926903 -0.22184806 0.08644769
-0.72264433 -0.68547922 0.03033035
-0.51542193 -0.03523238 0.04787454
-0.76149148 -0.59272224 0.05215658
-0.72410738 -0.37217641 0.06740088
-0.62621570 -0.15798917 0.06480878
-0.76181626 -0.74263895 0.03470767
-0.59582657 0.10910303 0.08747359
-0.26742640 0.25606337 0.01189859
-0.68961859 -0.64593911 0.02562764
-0.55707443 -0.10451894 0.05153387
-0.50888026 -0.01415668 0.04849255
-0.28115454 0.17807950 0.00665121
-0.58351249 -0.15135476 0.05352221
-0.32308283 0.40152672 0.04464324
-0.69316936 -0.57929403 0.03442829
-0.25260547 0.23261288 0.00496759
-0.29318428 0.46925813 0.04412281
-0.30381370 0.15600511 0.01046924
-0.72204411 0.04758485 0.11593091
-0.31371266 0.32630113 0.03319342
-0.49621400 -0.18994559 0.02434690
-0.78492731 -0.75501853 0.03978756
-0.55608964 -0.50357533 0.00456522
-0.58963555 -0.12470208 0.05837027
-0.60304183 0.16241995 0.09575093
-0.47325793 0.21190690 0.06487825
-0.11984315 0.51087356 0.00002423
-0.76959699 -0.34622481 0.08328706
-0.52442032 -0.08607299 0.04446794
-0.25219411 0.34595427 0.01811440
-0.52632529 -0.20703405 0.03085336
-0.41089946 0.34590811 0.06294277
-0.48949590 0.16972890 0.06452983
-0.24555954 0.45304087 0.02877125
-0.34079909 0.27137148 0.03441748
-0.36083516 0.34722364 0.04895371
-0.48048887 -0.17927772 0.02115302
-0.66170377 -0.23212317 0.06615963
-0.47649026 0.01818639 0.04312253
-0.47557735 -0.24100801 0.01254304
-0.49705538 -0.22164284 0.02087592
-0.34497479 0.14644189 0.02097805
-0.42919493 -0.06334168 0.02022826
-0.08982753 0.58757508 0.00052039
-0.33937323 0.33774197 0.04178124
-0.46540707 0.02264963 0.04051384
-0.66381186 0.04780970 0.09950679
-0.69047117 0.02643079 0.10453623
-0.57481658 0.10676733 0.08126501
-0.75172460 -0.30419311 0.08315635
-0.52323854 -0.29541990 0.01964007
-0.49433523 0.26333377 0.07685042
-0.34442797 0.40149248 0.05066917
-0.61234146 -0.07974944 0.07004380
-0.55820704 -0.26951250 0.03254920
-0.68260336 0.01346381 0.10079623
-0.67111057 -0.75608915 0.00751170
-0.12146751 0.66407079 0.01840999
-0.46258527 0.00542862 0.03770152
-0.72466147 -0.74081564 0.02442563
-0.65353894 -0.18284331 0.06961907
-0.74340165 -0.77378124 0.02586223
-0.72325170 -0.30060384 0.07553332
-0.34748375 0.00985175 0.00570327
-0.46775451 -0.27877855 0.00591400
-0.47846237 -0.29118136 0.00748760
-0.65387005 -0.09335457 0.08018298
-0.63269359 -0.70936769 0.00212618
-0.38152179 0.26586685 0.04527738
-0.17166676 0.49869996 0.01323971
-0.49746552 -0.30399811 0.01135604
-0.76055670 -0.45109791 0.06846295
-0.38548848 0.09973172 0.02695710
-0.45368168 0.15184304 0.05231945
-0.53148711 0.22109112 0.08240255
-0.60400939 -0.20506470 0.05302800
-0.64616060 -0.22517733 0.06258167
-0.37467557 0.27184713 0.04404315
-0.36390224 0.37423274 0.05298070
-0.33950713 0.43955624 0.05373321
-0.13914485 0.58296996 0.01391351
-0.34112626 0.09635192 0.01402940
-0.39384082 0.22884290 0.04442498
-0.32777569 0.29905984 0.03397846
-0.31597310 0.27438575 0.02775694
-0.32106593 0.42097425 0.04634919
-0.69981503 -0.64159143 0.02901659
-0.55452174 -0.38269475 0.01826561
-0.07775317 0.66502988 0.00617306
-0.44165879 0.30862963 0.06726993
-0.67112005 -0.17379345 0.07564424
-0.55366385 -0.07477112 0.05405100
-0.51568896 0.15440550 0.07013618
-0.52301705 -0.18127374 0.03293285
-0.50541395 -0.01585230 0.04731499
-0.34299418 0.03667181 0.00757343
-0.73805732 -0.49341449 0.05715625
-0.57645673 -0.02327203 0.06651505
-0.44348773 0.31341857 0.06834699
-0.66426241 -0.32883874 0.05556646
-0.71637648 -0.55968076 0.04327858
-0.55344647 0.05150431 0.06876123
-0.22855417 0.47986433 0.02710612
-0.61199671 -0.35353652 0.03791274
-0.29845104 0.30065802 0.02588135
-0.22292183 0.29495353 0.00387705
-0.23722027 0.53817075 0.03637719
-0.56762719 -0.48288468 0.01024521
-0.59088373 -0.54143381 0.00996435
-0.41065449 0.26224437 0.05308338
-0.51155531 -0.04499946 0.04563952
-0.71263921 -0.03794085 0.10326764
-0.66899186 -0.13364445 0.07974060
-0.72648531 -0.76849610 0.02170214
-0.22764410 0.51642239 0.03112699
-0.62775737 -0.05529571 0.07725964
-0.19690166 0.41407692 0.01046605
-0.77458382 -0.31483647 0.08836825
-0.74441433 -0.38613057 0.07150446
-0.68940943 -0.13524102 0.08532135
-0.26753971 0.51884687 0.04268108
-0.63804078 -0.57098693 0.01982751
-0.23148762 0.44113353 0.02340259
-0.36322415 0.27602518 0.04129706
-0.57327396 0.13201529 0.08378370
-0.36386818 0.35637087 0.05088091
-0.60813868 -0.48486042 0.02145774
-0.15992223 0.52520669 0.01302369
-0.44823587 -0.21832816 0.00747320
-0.49505472 -0.36040080 0.00407579
-0.70514584 -0.21536258 0.08039218
-0.40197930 -0.12257492 0.00560997
-0.26274547 0.31620434 0.01761383
-0.60157341 -0.57271528 0.00932397
-0.40841508 0.27353260 0.05377168
-0.34864354 0.33501503 0.04408098
-0.65298289 -0.08388233 0.08104065
-0.42428985 0.09204526 0.03701891
-0.48396483 0.29358220 0.07746043
-0.39564303 -0.05000422 0.01231102
-0.55690140 0.05461211 0.07010091
-0.76798809 -0.01088710 0.12206796
-0.22322933 0.35393941 0.01086634
-0.57016790 -0.09709656 0.05610095
-0.62432617 -0.35421851 0.04131577
-0.54646820 -0.18348424 0.03929871
-0.49018344 -0.12641326 0.03007680
-0.63809443 -0.71421468 0.00308470
-0.59943175 0.12485040 0.09033477
-0.67595649 -0.70386386 0.01499106
-0.33566591 0.01362663 0.00280650
-0.68823195 -0.38610560 0.05563703
-0.28577590 0.50465775 0.04617236
-0.41382393 0.04532895 0.02859566
-0.02553365 0.77188784 0.00392554
-0.60732585 0.06532349 0.08559909
-0.47554836 -0.05077321 0.03479273
-0.33659896 0.09481910 0.01257109
-0.53791308 0.04943677 0.06413116
-0.44069991 0.21362393 0.05588164
-0.63660163 -0.66103959 0.00888462
-0.30495614 0.35927936 0.03457879
-0.77681756 -0.49372330 0.06806898
-0.67583573 -0.37318155 0.05364749
-0.70328695 -0.12153059 0.09084563
-0.36340401 0.11616297 0.02264106
-0.52484858 -0.15218727 0.03685341
-0.61251193 0.07753574 0.08849320
-0.45754904 -0.18081243 0.01449341
-0.62078726 0.08726945 0.09196998
-0.44080293 0.26558450 0.06199108
-0.53639901 0.12721255 0.07280463
-0.46331394 -0.02017213 0.03491714
-0.75778502 -0.30609766 0.08464544
-0.53738332 -0.15896650 0.03960104
-0.75374252 -0.63876307 0.04458078
-0.69414461 -0.72867405 0.01722592
-0.57637602 -0.11534715 0.05571926
-0.41325462 0.34928855 0.06400367
-0.65095490 -0.51895487 0.02956335
-0.46266189 -0.25462532 0.00730142
-0.60865867 -0.47748360 0.02246773
-0.24839436 0.42988536 0.02686246
-0.58628207 -0.02039358 0.06962731
-0.33181775 0.43376771 0.05088362
-0.23387502 0.41260600 0.02073878
-0.38953242 0.32864991 0.05488712
-0.47514850 0.07641900 0.04955777
-0.75826186 -0.13969015 0.10425025
-0.65735781 -0.23617628 0.06445776
-0.28324738 0.18801741 0.00840534
-0.34674400 0.07285091 0.01286635
-0.27737862 0.41121688 0.03286587
-0.25904253 0.20488521 0.00354139
-0.30487493 0.38392287 0.03743959
-0.76211947 -0.29219514 0.08749645
-0.34502047 0.11479689 0.01728791
-0.28590125 0.29453290 0.02161932
-0.43979371 -0.20751895 0.00635315
-0.68056881 -0.30931681 0.06245681
-0.55354428 -0.52327234 0.00154162
-0.59174883 -0.11076623 0.06059776
-0.69420791 -0.43647200 0.05143215
-0.68266118 -0.57232934 0.03227482
-0.15100946 0.55902606 0.01446335
-0.57836360 -0.49058458 0.01237712
-0.45832732 -0.18054403 0.01474466
-0.30327877 0.12593207 0.00679903
-0.43236431 -0.05701195 0.02186414
-0.35654849 -0.05162851 0.00107754
-0.60705286 0.15108272 0.09555737
-0.44402409 0.18195657 0.05311504
-0.69258314 -0.11419008 0.08868087
-0.63824242 0.11913306 0.10062964
-0.19264460 0.59544599 0.03048695
-0.30949199 0.28063321 0.02665711
-0.54138923 -0.19258131 0.03679962
-0.38509014 0.06726657 0.02304555
-0.64384449 -0.06992482 0.08009229
-0.77136159 -0.38474548 0.07927850
-0.47626674 0.07741620 0.04999036
-0.77603257 -0.45181099 0.07275110
-0.64257461 0.06904510 0.09599226
-0.49589697 -0.07153469 0.03811168
-0.49595097 -0.17107967 0.02647995
-0.57123232 -0.23375516 0.04041228
-0.60925978 0.10970014 0.09133831
-0.12549651 0.66473335 0.01962570
-0.52314526 0.02846501 0.05750521
-0.47186989 -0.02216644 0.03710069
-0.75298226 -0.30554262 0.08335371
-0.59904617 0.17061414 0.09558104
-0.64517277 -0.26262170 0.05792155
-0.30408043 0.16291481 0.01135315
-0.67389667 -0.19026849 0.07450097
-0.64208716 0.00248545 0.08806585
-0.70932615 -0.46423283 0.05245468
-0.43556494 0.01633342 0.03134442
-0.56276393 -0.36290011 0.02290989
-0.54196978 0.09010397 0.07003597
-0.64493006 -0.18313697 0.06715288
-0.26579607 0.21447274 0.00657116
-0.65617114 -0.15260930 0.07390006
-0.77131307 -0.58606684 0.05570965
-0.36625144 -0.04310292 0.00481594
-0.35100877 0.05185763 0.01161454
-0.43761218 -0.09711628 0.01865427
-0.75217658 -0.37208137 0.07534091
-0.53580821 0.04328468 0.06281662
-0.37537009 0.28383768 0.04564246
-0.70958698 0.04827062 0.11249205
-0.52983308 0.04896393 0.06179324
-0.45320022 -0.14726324 0.01719028
-0.42985353 -0.00838796 0.02684401
-0.46233276 -0.11974985 0.02298917
-0.61854219 -0.18609460 0.05935277
-0.52333862 -0.08468526 0.04432476
-0.35496479 0.24037644 0.03479226
-0.46396631 0.16668485 0.05696160
-0.62080497 -0.35639682 0.04006624
-0.58331978 0.08549207 0.08117755
-0.63580066 -0.22848925 0.05926768
-0.57746005 -0.55936390 0.00407456
-0.72527850 -0.02141009 0.10877212
-0.54880559 -0.17525549 0.04092175
-0.51581979 -0.20508955 0.02811327
-0.64692461 -0.20668977 0.06496058
-0.57456297 0.01947146 0.07097815
-0.77290159 -0.41319123 0.07638529
-0.78319097 -0.33885455 0.08798938
-0.60710204 0.15546076 0.09608358
-0.26650566 0.50308841 0.04054494
-0.64886212 -0.18601996 0.06792629
-0.35659862 -0.03635728 0.00287847
-0.75021482 -0.75028485 0.03053594
-0.76431090 -0.62754983 0.04887808
-0.65836108 -0.04568537 0.08702901
-0.69195503 0.03919106 0.10644860
-0.41953596 0.31187811 0.06140043
-0.42398518 0.10428100 0.03836465
-0.61203879 -0.28652912 0.04576464
-0.44340628 0.07687894 0.04064451
-0.52198136 -0.21235879 0.02900327
-0.61739731 -0.06278557 0.07345679
-0.55108064 -0.30093202 0.02685999
-0.42985439 0.25646424 0.05783091
-0.53427082 -0.41322628 0.00897288
-0.58903456 -0.08832567 0.06245663
-0.67184663 -0.57201886 0.02925625
-0.41203809 -0.00517858 0.02218700
-0.33928329 0.39729309 0.04872441
-0.14590162 0.57021952 0.01433023
-0.13618657 0.50408095 0.00384634
-0.70646203 -0.03888895 0.10141178
-0.51636523 0.22329827 0.07838894
-0.72648567 -0.26309624 0.08083531
-0.59621906 -0.13131569 0.05945619
-0.66141957 -0.05817654 0.08643147
-0.46750242 0.07155395 0.04682847
-0.07751268 0.70547372 0.01083779
-0.59856117 -0.60390192 0.00482416
-0.18943185 0.56819791 0.02639082
-0.42518011 -0.14523982 0.00951189
-0.74665266 -0.32378304 0.07943157
-0.44732547 -0.09548586 0.02158884
-0.68089157 0.01995662 0.10107244
-0.61065680 -0.25561118 0.04899171
-0.68130803 0.04716688 0.10437418
-0.78511381 -0.30086198 0.09297778
-0.52409500 0.11768950 0.06821441
-0.45536259 -0.17813520 0.01418902
-0.67929769 0.03209408 0.10204246
-0.50929642 0.18693116 0.07213640
-0.41960162 -0.07548820 0.01609717
-0.34475738 0.28848916 0.03753877
-0.68265039 -0.24559429 0.07050048
-0.63700253 -0.34179819 0.04634980
-0.30161220 0.23648880 0.01926539
-0.21962304 0.47383890 0.02387802
-0.29778889 0.18720019 0.01241764
-0.38903227 0.36733055 0.05927218
-0.77547985 -0.52067536 0.06453766
-0.49620089 -0.14996186 0.02902138
-0.55086029 -0.41167223 0.01384090
-0.40565735 0.03398810 0.02496153
-0.33069187 0.19015419 0.02205831
-0.46910790 -0.02405694 0.03609929
-0.43778920 0.25017485 0.05933649
-0.75869638 -0.06794874 0.11276689
-0.42744234 0.14989813 0.04467933
-0.52815723 -0.32539204 0.01752270
-0.50234598 0.07223138 0.05675094
-0.43333283 -0.09765316 0.01738262
-0.66092467 -0.14768326 0.07581920
-0.61566687 0.16186005 0.09925195
-0.21007003 0.45672813 0.01917704
-0.59302795 -0.14956275 0.05641980
-0.19639242 0.41805249 0.01078740
-0.50258386 -0.01121180 0.04705850
-0.61651224 -0.44969866 0.02793711
-0.55688143 -0.08065483 0.05427150
-0.53041846 -0.32004973 0.01878651
-0.18261030 0.39255458 0.00391027
-0.65315372 0.04665840 0.09636116
-0.46547681 -0.09700946 0.02653798
-0.54259515 -0.47953263 0.00356634
-0.73404551 -0.08732292 0.10353668
-0.63756442 0.00415146 0.08698315
-0.71584499 0.05290829 0.11480262
