ply
format ascii 1.0
element vertex 376
property float x
property float y
property float z
end_header
0.23594590 0.45672375 0.09714234
0.10408242 0.52605021 0.15374307
0.77475607 0.00799917 0.01560626
0.45709014 0.26587069 0.06972592
0.53514117 0.24555974 0.01746566
0.28227055 0.27054128 0.22372639
0.21492583 0.40237778 0.16535538
0.31222320 0.13355874 0.32059759
0.14532512 0.32281825 0.30035722
0.21542592 0.30467552 0.25333145
0.37163031 0.28426784 0.13042407
0.19207376 0.38034889 0.20597619
0.55261976 0.15973893 0.07932189
0.30979851 0.37159482 0.10734851
0.50242716 0.15251601 0.13128844
0.54356349 0.20805262 0.04379017
0.35813093 0.24861588 0.17491075
0.24669079 0.36970073 0.16618118
0.23030408 0.26682511 0.27412337
0.13266231 0.61746532 0.04513741
0.38483408 0.38058347 0.03129855
0.29092771 0.26861313 0.21763617
0.52122909 0.16507287 0.10290573
0.56497765 0.19977906 0.03189664
0.52979589 0.26800847 0.00198537
0.26630402 0.45877087 0.06781251
0.49755415 0.20343676 0.08961081
0.11377684 0.55941200 0.11477375
0.10432994 0.58289230 0.10207226
0.56798941 0.07354642 0.14342333
0.13270088 0.26301634 0.36590880
0.10919422 0.48497891 0.18628949
0.17370196 0.27812171 0.31512815
0.38518956 0.10152093 0.28355449
0.49486515 0.13220493 0.15651625
0.12953618 0.30245042 0.33308196
0.13942063 0.24084575 0.37989315
0.28383335 0.15644883 0.32557511
0.42604297 0.21822636 0.14094926
0.37466466 0.24384828 0.16426127
0.53855884 0.09490619 0.15072820
0.62129295 0.10366065 0.06792231
0.29917467 0.36411288 0.12373595
0.59709245 0.14978966 0.04807487
0.72165656 0.02742486 0.04608427
0.23753896 0.17243838 0.35300311
0.27784216 0.21980308 0.27365670
0.21617284 0.30186927 0.25519532
0.37014022 0.15928116 0.24489745
0.09548889 0.51209837 0.17414847
0.07827656 0.48824909 0.21131249
0.16647363 0.47487807 0.14358945
0.28734440 0.49203995 0.01865723
0.46277013 0.15455541 0.16533597
0.13134129 0.29410627 0.33900037
0.14568572 0.27785218 0.34072888
0.32322976 0.16159198 0.28526345
0.16775177 0.37247771 0.23511349
0.57741320 0.17997542 0.03856545
0.29440245 0.31496298 0.17254066
0.19396800 0.14774559 0.41478711
0.20555884 0.22950529 0.33029723
0.31875104 0.40942320 0.06500730
0.20004234 0.21023872 0.35272792
0.18300477 0.56030285 0.05131014
0.24183208 0.52481449 0.03018618
0.04800810 0.67680931 0.06804499
0.16928451 0.61218351 0.01677134
0.44805765 0.08654573 0.24020746
0.05825994 0.73780984 0.00355534
0.49226093 0.29740813 0.00934860
0.21745302 0.42706442 0.14072463
0.27469429 0.43981838 0.07737231
0.14649834 0.64030236 0.01194473
0.15710853 0.63942015 0.00313998
0.65731013 0.11359913 0.02632804
0.24367341 0.44776440 0.09825729
0.11055277 0.43067104 0.23421304
0.17214468 0.26620117 0.32732669
0.12517515 0.60849458 0.06003336
0.37401229 0.26858830 0.14245966
0.19897385 0.48332214 0.10653150
0.05323037 0.72490597 0.01978683
0.24360859 0.16301961 0.35603440
0.72545785 0.02739834 0.04266777
0.50493824 0.14247805 0.13810100
0.55460328 0.20384306 0.03760818
0.13438396 0.41086909 0.23056646
0.24109891 0.29234478 0.24125580
0.23400906 0.25151503 0.28462699
0.63692552 0.05818093 0.09493683
0.26163682 0.49998182 0.03473691
0.54598296 0.22736453 0.02412121
0.34945887 0.43255776 0.01627478
0.08867831 0.42821789 0.25623137
0.52050179 0.18274374 0.08757019
0.14324775 0.39006343 0.24137492
0.40420702 0.36894956 0.02429398
0.14059286 0.32745484 0.30044377
0.13506125 0.33028984 0.30288440
0.27855736 0.21082433 0.28113592
0.11242297 0.49070290 0.17818655
0.21307772 0.30752349 0.25287911
0.53983426 0.15401903 0.09607104
0.13603765 0.64738882 0.01499876
0.32739094 0.37767783 0.08591997
0.39802077 0.27534714 0.11461225
0.33179599 0.16736481 0.27228549
0.16983695 0.50219196 0.11582404
0.27106065 0.31608045 0.19265546
0.34825683 0.40454414 0.04271775
0.39648724 0.13721493 0.24102315
0.37682518 0.35261151 0.06386465
0.67296708 0.08610261 0.03704399
0.66438848 0.04987050 0.07760197
0.38454935 0.10070453 0.28487286
0.13784423 0.32984203 0.30077088
0.36299545 0.34584984 0.08250184
0.26666281 0.20363104 0.29841191
0.34930021 0.14478232 0.27688187
0.18360487 0.41098797 0.18591025
0.45694274 0.28226778 0.05501838
0.15948661 0.51170588 0.11658102
0.14034884 0.28822196 0.33617365
0.40164250 0.34793103 0.04563888
0.53482443 0.09048992 0.15810537
0.56407344 0.21741834 0.01674984
0.27015173 0.33291852 0.17823823
0.14172438 0.40696800 0.22745365
0.34315705 0.16707309 0.26226687
0.22517721 0.50300896 0.06499651
0.47591725 0.24280810 0.07355943
0.26464316 0.24273883 0.26484403
0.10564679 0.35684344 0.30547345
0.17785743 0.22277775 0.36145803
0.17344148 0.15337318 0.42827171
0.07648132 0.67188644 0.04673021
0.09528229 0.68156523 0.02095333
0.09569364 0.53522694 0.15302984
0.40880278 0.25032291 0.12750287
0.24238911 0.23668930 0.29046091
0.29180893 0.19280100 0.28545487
0.10154362 0.45770335 0.21790051
0.03585080 0.66020125 0.09407995
0.40342671 0.38226002 0.01295298
0.23027629 0.45236677 0.10621737
0.29385671 0.18155465 0.29378036
0.11773055 0.43318507 0.22544122
0.16287521 0.61884207 0.01654573
0.43366316 0.22944479 0.12389853
0.14774463 0.60655671 0.04135975
0.24163294 0.51049024 0.04333121
0.33290470 0.46300203 0.00370290
0.16394386 0.56067127 0.06822861
0.44654706 0.32636553 0.02451483
0.25719407 0.40728447 0.12265801
0.22926950 0.40599325 0.14910097
0.23353185 0.19671880 0.33465406
0.45247042 0.30478457 0.03868643
0.34022906 0.15996343 0.27135178
0.23881219 0.37103456 0.17210466
0.58251071 0.11905757 0.08908825
0.45831603 0.11671736 0.20361443
0.17959493 0.36910242 0.22744945
0.08700856 0.67750698 0.03211494
0.17669789 0.19861522 0.38437659
0.22469349 0.14701208 0.38764215
0.35999656 0.43382189 0.00559299
0.36293623 0.17675883 0.23559885
0.20578425 0.43090358 0.14781098
0.39311507 0.38195664 0.02256061
0.29227850 0.48555011 0.02006534
0.30678561 0.13085704 0.32796431
0.73636091 0.05407931 0.00865061
0.09008465 0.70278627 0.00645063
0.05078279 0.71769506 0.02852869
0.43036002 0.24122386 0.11622699
0.36815041 0.33494821 0.08770315
0.56118065 0.09486695 0.13028882
0.40403402 0.23404218 0.14655466
0.14459889 0.36124730 0.26623303
0.06983347 0.66049707 0.06305536
0.10867259 0.38007230 0.28171080
0.02076965 0.73002535 0.04453288
0.26209486 0.30204028 0.21347770
0.18933818 0.53138554 0.07175076
0.17447183 0.44370493 0.16456474
0.39288208 0.10152255 0.27659073
0.22161628 0.29983169 0.25211275
0.15702315 0.18788365 0.41189668
0.10296795 0.40184590 0.26716700
0.28171629 0.45414492 0.05804984
0.26483917 0.39549890 0.12640552
0.14779536 0.29619655 0.32221630
0.19946340 0.31961232 0.25425965
0.08667292 0.70784211 0.00496251
0.19987874 0.51798427 0.07433996
0.32122177 0.39609805 0.07483160
0.43885532 0.12980124 0.20938605
0.38838112 0.36604807 0.04124405
0.09699835 0.61468422 0.07993358
0.19688997 0.44331744 0.14462540
0.16187218 0.49027702 0.13381676
0.36757225 0.29330945 0.12591349
0.38309565 0.28581163 0.11864956
0.01677942 0.78218889 0.00093190
0.27868885 0.20260166 0.28845912
0.07635161 0.57269537 0.13662380
0.34034181 0.12541002 0.30252343
0.36072537 0.19628850 0.21992382
0.42211562 0.26567546 0.10155792
0.39733213 0.34166145 0.05521475
0.25153187 0.23884027 0.28023925
0.42119521 0.29877195 0.07243549
0.17230317 0.56402725 0.05762517
0.25722525 0.14279607 0.36201429
0.18740684 0.21981835 0.35549361
0.40444231 0.22096211 0.15802383
0.13457803 0.48103723 0.16688278
0.06833829 0.65571135 0.06874011
0.25289327 0.31227008 0.21254700
0.49789533 0.07267783 0.20765136
0.20637080 0.38724506 0.18679470
0.33673182 0.41178200 0.04659804
0.45568326 0.19818689 0.13225962
0.34196281 0.19196455 0.24081892
0.16361587 0.46492648 0.15518294
0.08264335 0.47540569 0.21898457
0.22721177 0.20917059 0.32910427
0.62351203 0.12351776 0.04794121
0.06192378 0.72825700 0.00888544
0.47823244 0.07883605 0.21987440
0.17874588 0.18787619 0.39224273
0.16659783 0.57624274 0.05173287
0.39885503 0.13998009 0.23637734
0.16357297 0.27444980 0.32761902
0.28515747 0.16752239 0.31435418
0.39945146 0.16151783 0.21634379
0.23131645 0.51448727 0.04905096
0.75761747 0.04134003 0.00094167
0.45304066 0.26859871 0.07092198
0.49169755 0.26507124 0.03912650
0.35228282 0.10751309 0.30791414
0.40378115 0.36117846 0.03171300
0.19314304 0.33944228 0.24203230
0.14558625 0.33707064 0.28722128
0.09626124 0.40506849 0.27032036
0.31097716 0.23473188 0.23015526
0.21258000 0.30484027 0.25575808
0.11423174 0.41608140 0.24408814
0.08443093 0.49832034 0.19662701
0.15745935 0.33518243 0.27818421
0.17808039 0.58756578 0.03109164
0.37835261 0.36068097 0.05517854
0.39790750 0.36192635 0.03635231
0.11943835 0.34734097 0.30159158
0.24058416 0.18459623 0.33924311
0.06126712 0.69673872 0.03800686
0.09710376 0.63995653 0.05696454
0.26487941 0.20434482 0.29938000
0.18682382 0.29446283 0.28846183
0.17409670 0.54673332 0.07165452
0.30312222 0.40557387 0.08263689
0.34868836 0.26772630 0.16616040
0.29637045 0.34283364 0.14553380
0.24115068 0.33722550 0.20058817
0.52003437 0.24088608 0.03536882
0.03286837 0.76141310 0.00517393
0.49535194 0.17824382 0.11440604
0.72054535 0.03507679 0.04016429
0.24848977 0.34464470 0.18723077
0.18139033 0.17462239 0.40184510
0.72332907 0.06178513 0.01347116
0.34999731 0.21376882 0.21381237
0.35813805 0.31596041 0.11395105
0.36229289 0.24108908 0.17795625
0.57555205 0.05708635 0.15147641
0.16323765 0.25714520 0.34358460
0.39599866 0.22509100 0.16192910
0.18919115 0.18795449 0.38271812
0.11515365 0.52351600 0.14601648
0.19591929 0.46701798 0.12405297
0.16003299 0.36563644 0.24829148
0.50539201 0.17890318 0.10472202
0.21885283 0.55193305 0.02643968
0.48133394 0.21288460 0.09574046
0.15068769 0.20788458 0.39952824
0.45733899 0.15226720 0.17232274
0.45446420 0.13845962 0.18742189
0.09019045 0.45734441 0.22850084
0.43648782 0.11875322 0.22152841
0.14845902 0.54876763 0.09301782
0.15490454 0.22983041 0.37584886
0.19460846 0.51654094 0.08041643
0.08492575 0.47938707 0.21331534
0.43819943 0.10929935 0.22853589
0.65044785 0.13570142 0.01253436
0.16924652 0.30986190 0.29043314
0.17030029 0.31513610 0.28470582
0.18351158 0.37668881 0.21703827
0.26317948 0.32541806 0.19133720
0.61096376 0.18880074 0.00021128
0.57046282 0.21233571 0.01556706
0.54586327 0.19309074 0.05525058
0.19897482 0.42728218 0.15725169
0.16024373 0.20272446 0.39554963
0.13520797 0.46991631 0.17637803
0.12728506 0.30265310 0.33493596
0.48756692 0.10300134 0.18955389
0.15474148 0.41295311 0.21025516
0.09447173 0.62700325 0.07107058
0.18350492 0.14675561 0.42515299
0.66372269 0.06977112 0.06019258
0.36311260 0.29687837 0.12671968
0.26961580 0.34934056 0.16385993
0.14778464 0.57792890 0.06723446
0.26890811 0.19854331 0.30098456
0.42568097 0.31571642 0.05303907
0.56813806 0.22313435 0.00789743
0.56500858 0.20014524 0.03153720
0.20605709 0.47353089 0.10898253
0.18409091 0.55694962 0.05336208
0.29229087 0.21055035 0.26895404
0.21640159 0.36977971 0.19352369
0.13946305 0.41012040 0.22664711
0.36348104 0.22527677 0.19119249
0.06055936 0.68818349 0.04639064
0.25887525 0.37653205 0.14897025
0.19143698 0.16815582 0.39860493
0.25039285 0.27589819 0.24772964
0.24127226 0.42319897 0.12266462
0.13487627 0.58508706 0.07243894
0.11170930 0.54725897 0.12764452
0.61621886 0.13892366 0.04059843
0.19965138 0.16367143 0.39522901
0.45445395 0.10847114 0.21457359
0.62751311 0.08020292 0.08352395
0.22581837 0.43903193 0.12232152
0.33871254 0.42153302 0.03597968
0.26742119 0.35746524 0.15849265
0.55249792 0.22462298 0.02070588
0.54011440 0.15350087 0.09628648
0.25969619 0.19536878 0.31219524
0.19348875 0.37313789 0.21122210
0.29273021 0.23572464 0.24577156
0.47956946 0.08978590 0.20875359
0.34769639 0.33665100 0.10467481
0.31520405 0.36614540 0.10738822
0.29670620 0.23917890 0.23904663
0.14843020 0.25479957 0.35910946
0.20034198 0.38730237 0.19219936
0.16655898 0.43509746 0.17951696
0.41944322 0.10318286 0.25104806
0.35459837 0.22363485 0.20071827
0.22650929 0.56624526 0.00655596
0.06272068 0.67742491 0.05417188
0.55744588 0.20480952 0.03416061
0.77822429 0.01899697 0.00251315
0.47887334 0.17262428 0.13440698
0.47903049 0.20667671 0.10344403
0.57741326 0.16778879 0.04959550
0.16224070 0.23957084 0.36039320
0.37000090 0.14232595 0.26036942
0.41007584 0.24404860 0.13202947
0.08639192 0.62531602 0.07991051
0.17679241 0.54667670 0.06926591
0.23775977 0.29297197 0.24371032
0.15963572 0.63647485 0.00351839
0.00932573 0.76826745 0.02027821
0.15519102 0.38667661 0.23363072
0.27239868 0.16624151 0.32706115
0.40216479 0.37827033 0.01770619
0.43349209 0.11399484 0.22854663
0.01750473 0.72734314 0.04991552
0.18450031 0.20003106 0.37603337
0.39901733 0.25897530 0.12852836
