ply
format ascii 1.0
element vertex 982
property float x
property float y
property float z
end_header
-0.45733833 -0.28134596 -0.12448041
-0.13690898 0.46946499 0.13726419
-0.35085148 0.01733847 -0.35220659
-0.17708693 0.38394478 -0.06272452
-0.44693613 -0.26550007 -0.07376192
-0.32333183 0.02806834 -0.04729579
-0.58512175 -0.56753886 -0.24652828
-0.39269370 -0.14806464 0.29514414
-0.44509128 -0.23968022 -0.19070233
-0.11846850 0.52178991 -0.04264329
-0.39460567 -0.11762943 -0.19163409
-0.33817446 0.02898947 -0.24846625
-0.60785258 -0.66749781 0.19445071
-0.37808490 -0.11279834 0.37775135
-0.20340019 0.30894721 0.07850320
-0.17598896 0.37512678 0.03239157
-0.57594454 -0.54874903 -0.22810505
-0.44305509 -0.26227647 -0.04012467
-0.42128462 -0.21707971 0.07207177
-0.21694362 0.29075527 -0.07931271
-0.59508294 -0.63666981 0.10945126
-0.09695041 0.56593603 0.09334500
-0.60291588 -0.64020377 -0.08392604
-0.43724093 -0.19556592 -0.32842013
-0.14509359 0.46833470 -0.10187678
-0.52213818 -0.46056816 0.18654767
-0.40189400 -0.17028065 0.39238602
-0.35953736 -0.02006711 -0.26224163
-0.48249647 -0.36486784 0.27066460
-0.48485824 -0.31257787 -0.31716767
-0.43356556 -0.24436179 -0.01278821
-0.32410625 0.01751885 0.34589568
-0.48681077 -0.33459190 -0.22247985
-0.39102405 -0.14402100 0.00892421
-0.36647049 -0.08474737 0.23110704
-0.14244494 0.45609987 0.14043652
-0.47633481 -0.28230831 -0.37021980
-0.53104246 -0.43203416 -0.27360401
-0.11926113 0.51208103 0.00058057
-0.06739701 0.63728827 0.03320048
-0.44928667 -0.21367987 -0.38844165
-0.12753028 0.50223297 -0.05533955
-0.42598763 -0.16204105 -0.36321625
-0.26538417 0.15930510 0.09232536
-0.06989215 0.63654685 -0.02888410
-0.54417324 -0.51376015 0.06058875
-0.52647817 -0.47103867 0.02540640
-0.39070967 -0.10244845 -0.22324400
-0.48654303 -0.34319106 -0.17187746
-0.25934136 0.22154652 -0.26073667
-0.46309575 -0.31741673 -0.00313210
-0.49598426 -0.39742565 0.16363768
-0.43788719 -0.25716847 0.21652022
-0.32382864 0.01821455 0.02274490
-0.44238055 -0.21302353 -0.30078211
-0.65640163 -0.78470266 0.07302687
-0.38830680 -0.07656494 -0.33315641
-0.48862976 -0.31963047 -0.32840198
-0.64421844 -0.75318313 -0.01130675
-0.43654576 -0.25393528 0.33546159
-0.20403032 0.34398371 -0.20002387
-0.22005872 0.26872048 0.20418440
-0.24984705 0.19682004 0.02362746
-0.12261368 0.50604254 -0.01122395
-0.56823796 -0.53935164 -0.17770337
-0.47344837 -0.32746586 -0.08492239
-0.24187970 0.26045066 -0.24294263
-0.54992557 -0.52318114 -0.02424260
-0.19585133 0.34572983 -0.10150502
-0.62971073 -0.70947069 -0.05885994
-0.32950857 0.00448720 0.21210141
-0.26359621 0.16361794 0.13822439
-0.50132084 -0.41030493 0.06456409
-0.44300652 -0.26951993 0.04215099
-0.41265190 -0.19624254 0.16561066
-0.41224113 -0.19525473 0.25339413
-0.61491412 -0.68454546 0.18069415
-0.55085415 -0.52989024 0.08000005
-0.27052203 0.14689569 0.16337860
-0.42614710 -0.22883253 0.37975597
-0.16020051 0.43812644 -0.13615265
-0.45286185 -0.26867938 -0.13465852
-0.39043406 -0.12404385 -0.10140686
-0.32872817 0.04786107 -0.22693779
-0.54566443 -0.51735789 0.00815999
-0.37892786 -0.11483024 0.33792388
-0.41215271 -0.19504537 0.34442863
-0.45154196 -0.23372076 -0.30855343
-0.67431080 -0.82793820 0.09551581
-0.60885626 -0.63691396 -0.18043154
-0.66508681 -0.80567002 0.13103199
-0.22572015 0.28669596 -0.17306587
-0.46707112 -0.25749040 -0.38364977
-0.54965037 -0.52698720 0.15217423
-0.63405132 -0.73074561 0.09190568
-0.13987271 0.46231979 0.01270167
-0.33404753 -0.00063036 -0.03180937
-0.38216957 -0.12265557 0.26140255
-0.19176760 0.33702928 0.09385235
-0.29072827 0.10498013 -0.03745317
-0.17681696 0.39495164 -0.11940288
-0.58264983 -0.60365903 -0.01616319
-0.66271919 -0.79398525 -0.03244611
-0.44391266 -0.27171400 0.18624730
-0.22744974 0.25088403 0.11709388
-0.52389425 -0.45783377 -0.03794473
-0.37153101 -0.06386665 -0.18098728
-0.24363989 0.21180239 0.06110975
-0.23923896 0.22795792 -0.03019920
-0.58390439 -0.60509735 -0.02486745
-0.25035778 0.19558185 0.08969944
-0.24166064 0.21657614 0.11830005
-0.44413024 -0.26649737 -0.03122911
-0.63355356 -0.70924383 -0.11088391
-0.51197565 -0.39153212 -0.24334341
-0.50084835 -0.37067747 -0.21045780
-0.47283515 -0.34153390 0.06209598
-0.25609633 0.18591292 -0.02281685
-0.37455314 -0.10426432 0.18485604
-0.44172990 -0.26644748 0.25760436
-0.33954987 -0.01975309 0.19499411
-0.36991635 -0.09307241 0.30850407
-0.57249874 -0.58214736 0.13009946
-0.45996258 -0.25010937 -0.33011854
-0.10353692 0.55004179 0.00615688
-0.20762052 0.32374993 -0.13671465
-0.37994516 -0.11601130 -0.00677888
-0.31662887 0.03558155 0.20821674
-0.58544737 -0.61340511 0.05663706
-0.12823698 0.49041146 0.00258655
-0.50749856 -0.42424658 -0.00513448
-0.58714211 -0.61749625 0.05067398
-0.19216087 0.33608559 0.02134004
-0.07324841 0.62700027 -0.02098001
-0.11408369 0.52458000 0.00441728
-0.15777113 0.41909969 0.13871530
-0.01153735 0.77214652 0.00178415
-0.17462619 0.38850266 -0.05515596
-0.42919084 -0.23616579 0.04241230
-0.30955660 0.05266393 0.09919626
-0.32641333 0.01195642 0.25369462
-0.60497886 -0.66055888 0.06556895
-0.29109019 0.09889953 -0.00895333
-0.11281778 0.53243512 -0.02624214
-0.66411483 -0.78711820 -0.08847798
-0.14152630 0.45832571 0.03844073
-0.23958892 0.24912129 -0.15066119
-0.21444580 0.30142692 -0.10471800
-0.49586254 -0.33319098 -0.34975436
-0.50829172 -0.39049962 -0.20031811
-0.60884017 -0.66697651 -0.01567204
-0.33003184 0.05103839 -0.26155534
-0.53637022 -0.49492708 0.17803062
-0.43332630 -0.24615276 0.11079302
-0.05692748 0.66649973 -0.02151746
-0.56647038 -0.56759012 0.05179982
-0.14039102 0.46517706 -0.02245436
-0.30791515 0.08224291 -0.14010626
-0.38060156 -0.05219657 -0.36472055
-0.20814186 0.29749632 0.12417271
-0.54156649 -0.48107806 -0.14423034
-0.41882366 -0.21115044 0.34328517
-0.52441168 -0.46605068 0.04870973
-0.27243450 0.14227533 0.20585363
-0.43332911 -0.22466391 -0.11747404
-0.48585686 -0.37297660 0.18254648
-0.15720206 0.44207013 -0.11811733
-0.19998769 0.31717539 0.20835835
-0.59826255 -0.62553304 -0.10273642
-0.62726116 -0.70769137 -0.03623228
-0.13187893 0.48161405 0.06666121
-0.30735606 0.05795968 0.31168321
-0.25726223 0.17946643 -0.00293832
-0.37430751 -0.03653085 -0.36729822
-0.46706465 -0.28226545 -0.24796347
-0.38356888 -0.12602878 0.14821932
-0.44190654 -0.19612254 -0.38702095
-0.41297823 -0.19703861 0.35066724
-0.42475563 -0.15858717 -0.36584127
-0.16798721 0.39748326 -0.01658471
-0.58429372 -0.59832603 -0.06707260
-0.62318677 -0.70451593 0.04355313
-0.42720109 -0.23137173 0.25966811
-0.57158774 -0.53905010 -0.22362033
-0.51306707 -0.43866342 0.07502307
-0.27567467 0.13444880 0.25851557
-0.50581902 -0.42116833 0.15073545
-0.42223307 -0.21937922 0.29009521
-0.52508533 -0.44993472 -0.09691518
-0.43124315 -0.20919701 -0.17456502
-0.29208523 0.09484143 0.12089891
-0.39694163 -0.15831263 0.12644573
-0.45993847 -0.31040314 0.16939782
-0.51266909 -0.43770355 0.09572438
-0.04464375 0.69221920 0.02991016
-0.31490451 0.08131299 -0.22737269
-0.44139597 -0.26034805 -0.02875684
-0.36836699 -0.05300351 -0.19863755
-0.25943449 0.18515334 -0.06276926
-0.12978362 0.50332546 -0.09109449
-0.16761428 0.41240102 -0.09330921
-0.48324823 -0.36668321 0.28101176
-0.62714183 -0.71406507 0.09192941
-0.53000301 -0.45936170 -0.11029777
-0.24382320 0.22645639 -0.08255602
-0.35773811 -0.06366625 0.12153632
-0.41664296 -0.20587873 0.18526250
-0.66123080 -0.79636097 0.00457939
-0.43040118 -0.23909594 0.22432233
-0.65455562 -0.75678259 -0.12820488
-0.24756125 0.24319845 -0.22358777
-0.22659989 0.25293240 0.15919618
-0.50944281 -0.42751649 -0.01292757
-0.16692051 0.40744367 -0.05700789
-0.38649938 -0.13311069 0.30692643
-0.15952349 0.42009944 -0.02853576
-0.18045858 0.39746395 -0.18127407
-0.19452655 0.36491743 -0.18902339
-0.16480733 0.40212366 0.00313754
-0.45996496 -0.30311450 -0.04004341
-0.57015634 -0.53238952 -0.24116336
-0.29131392 0.09669581 0.21804765
-0.42557207 -0.22742908 0.03912852
-0.41989210 -0.15405861 -0.32636431
-0.37661719 -0.10924838 0.20647296
-0.45135349 -0.26068109 -0.15850426
-0.33340505 -0.00492970 0.33975023
-0.36206213 -0.07410360 0.21636797
-0.59314626 -0.63199455 0.13334559
-0.27716497 0.15389739 -0.12597822
-0.39240336 -0.11862846 -0.15706673
-0.36991471 -0.09306487 0.15744774
-0.54738390 -0.50813180 -0.07302701
-0.39066663 -0.14317235 0.32825768
-0.35392401 -0.05446555 0.32924160
-0.55029368 -0.50364506 -0.13603084
-0.46998984 -0.28046614 -0.29646239
-0.44432464 -0.27271524 0.33403775
-0.31583133 0.03751136 0.15212506
-0.64451098 -0.72978300 -0.14325698
-0.58791089 -0.61935556 0.21615387
-0.66515785 -0.77839828 -0.14999197
-0.49043402 -0.36858445 -0.08430693
-0.33599350 -0.00258583 -0.04682005
-0.06469917 0.64379901 0.06313195
-0.45774680 -0.30510864 0.09444450
-0.21145420 0.29360768 -0.02238897
-0.36011276 -0.06735882 -0.01101396
-0.33018532 0.00285169 0.23349489
-0.51491743 -0.42321122 -0.10882808
-0.53279710 -0.48629487 0.04602357
-0.54484731 -0.51539141 0.14971010
-0.26296791 0.18204214 -0.09243051
-0.44283745 -0.20598762 -0.34532788
-0.17977397 0.36598650 0.06451612
-0.51581132 -0.44529170 0.14222182
-0.38014695 -0.11590897 -0.01000518
-0.31759459 0.03326380 0.03483314
-0.10518740 0.56077754 -0.08054746
-0.43434715 -0.19491546 -0.29374400
-0.49732006 -0.34917304 -0.28153548
-0.29232106 0.09428042 0.01471291
-0.39457917 -0.15261018 0.15130247
-0.46755958 -0.27917600 -0.27141222
-0.49635389 -0.36368439 -0.18934616
-0.58914232 -0.61979079 -0.01365750
-0.28440452 0.13408628 -0.11320463
-0.49157530 -0.34839684 -0.20987733
-0.61561328 -0.68623340 0.17991111
-0.27681983 0.14900491 -0.09463853
-0.29284504 0.09300210 0.18382990
-0.25917375 0.18152528 -0.03946565
-0.31646329 0.03599463 0.03845661
-0.13348018 0.49402267 -0.08902153
-0.49503303 -0.33768666 -0.31418428
-0.44659340 -0.27818221 0.10340944
-0.45745179 -0.30440584 0.30559450
-0.62588853 -0.71103823 0.03652627
-0.53346616 -0.47296131 -0.08162375
-0.16903986 0.39189404 0.14881270
-0.42709836 -0.18385175 -0.25851828
-0.07001509 0.63212377 -0.00629877
-0.45398784 -0.29603264 0.07207320
-0.23527123 0.23200105 0.12247876
-0.54680133 -0.48278290 -0.20406806
-0.07509461 0.63122880 -0.06852055
-0.44084957 -0.22274669 -0.22733648
-0.41721958 -0.20727859 0.36065704
-0.40283096 -0.17253809 0.28925112
-0.60224503 -0.65395993 0.09091681
-0.64187485 -0.74963278 0.12889598
-0.35300347 -0.05224172 0.31059736
-0.43434060 -0.24860103 0.10050513
-0.38579819 -0.09215033 -0.21471106
-0.04308840 0.70021272 -0.02317767
-0.38048306 -0.11859034 0.40786362
-0.67514831 -0.81869793 -0.06142220
-0.55228847 -0.53335762 0.21746515
-0.43917447 -0.19307806 -0.36758491
-0.46456468 -0.32156852 0.09315035
-0.14504182 0.46115929 -0.06191804
-0.18836014 0.34524891 0.17814037
-0.16153364 0.41001901 0.10417480
-0.06686517 0.65004987 -0.06279473
-0.46986127 -0.27840447 -0.30604765
-0.36225763 -0.05545135 -0.10452634
-0.48504323 -0.37101513 0.24556763
-0.48092794 -0.31549287 -0.24928150
-0.02472553 0.74078941 -0.00262992
-0.49810582 -0.40254384 0.08033075
-0.59230077 -0.60480648 -0.13740332
-0.25612590 0.18165869 0.06204041
-0.20925747 0.32744387 -0.17856392
-0.55938989 -0.54057831 -0.05407816
-0.60253286 -0.64292878 -0.06395079
-0.12905385 0.51066428 -0.12162071
-0.47621465 -0.30258682 -0.25764111
-0.19631889 0.32689330 -0.00458189
-0.25678119 0.22277975 -0.23365690
-0.65331298 -0.77724546 0.00031415
-0.51567268 -0.44154990 -0.01843623
-0.56371033 -0.56092525 0.01974936
-0.46896434 -0.26722625 -0.35537666
-0.24808864 0.20105562 0.14497772
-0.36483654 -0.04232012 -0.21046232
-0.25841436 0.17612042 0.23324387
-0.17253491 0.38777271 -0.02352694
-0.46626413 -0.29870090 -0.14743166
-0.48111141 -0.36152166 0.21929587
-0.10386597 0.56315327 -0.07608977
-0.34578589 -0.01614027 -0.10202516
-0.14211924 0.47728866 -0.11158365
-0.01055723 0.77614772 -0.00894539
-0.48859796 -0.37959179 0.12721035
-0.40949491 -0.18862031 0.15476872
-0.32718253 0.01010863 0.13646419
-0.28280240 0.11998548 -0.01485374
-0.24707469 0.20350717 0.09796795
-0.50290555 -0.39828330 -0.08654817
-0.55592656 -0.54213506 0.05490113
-0.23925175 0.22238661 0.18224618
-0.32543367 0.07207416 -0.31593505
-0.34116882 -0.02366938 0.29445985
-0.22698087 0.25200969 0.19705322
-0.39519173 -0.15409765 0.34260979
-0.39661640 -0.14073220 -0.09175652
-0.50599200 -0.37364635 -0.26217210
-0.37872601 -0.11183261 -0.01354053
-0.40556464 -0.17914318 0.41029844
-0.57916284 -0.59823281 0.05742812
-0.53605527 -0.49416816 0.26625708
-0.51495546 -0.44322294 0.08517303
-0.22299650 0.28805414 -0.14450996
-0.60610282 -0.64392018 -0.10569482
-0.55360609 -0.53653508 0.10434248
-0.34912241 -0.04286438 0.08551648
-0.43987015 -0.19616392 -0.35988733
-0.12045562 0.52931052 -0.11006501
-0.38195917 -0.12213805 0.04837483
-0.54381335 -0.48508096 -0.15200990
-0.39989224 -0.10278519 -0.34272802
-0.66824633 -0.81329757 0.03653169
-0.33145621 0.02328883 -0.12848961
-0.11284368 0.54569465 -0.09916025
-0.55236220 -0.53353560 0.22885916
-0.40916827 -0.18783748 0.28320068
-0.23643252 0.22919482 0.15618493
-0.25313461 0.23540756 -0.25458995
-0.53786141 -0.46632263 -0.17603365
-0.43755937 -0.25637779 0.23380847
-0.56304687 -0.51250291 -0.25606832
-0.61510754 -0.65518546 -0.16302638
-0.11721607 0.51701045 0.09819304
-0.37413260 -0.05440740 -0.26713946
-0.27681589 0.16006427 -0.15511996
-0.47792095 -0.35381424 0.10798582
-0.47586107 -0.31280625 -0.19703658
-0.57938576 -0.59877032 0.04191724
-0.49953380 -0.40224117 -0.02033436
-0.17426686 0.39784649 -0.10155133
-0.04130844 0.70470417 -0.02424163
-0.47846922 -0.32701820 -0.15371408
-0.60327238 -0.63928723 -0.09365241
-0.44671950 -0.20464294 -0.40398243
-0.21658128 0.27713025 0.01923864
-0.33108130 0.00068141 0.32474026
-0.62686807 -0.71340418 0.09535058
-0.29609373 0.12661155 -0.22675101
-0.49292377 -0.33719939 -0.28898081
-0.25548428 0.21543048 -0.17629385
-0.23864836 0.24926060 -0.13899507
-0.30761889 0.09832435 -0.22421311
-0.28785494 0.10504796 0.19879417
-0.46007738 -0.27448022 -0.19824937
-0.23492905 0.23281719 0.24851339
-0.37819949 -0.07757684 -0.19407193
-0.35308564 -0.05243047 0.18871196
-0.50668532 -0.42326039 0.16358666
-0.60605705 -0.65145779 -0.06383540
-0.61388755 -0.66774857 -0.07813835
-0.33484179 0.00263696 -0.06018834
-0.52144909 -0.45889819 0.04534131
-0.31389782 0.04218847 0.03526871
-0.31629869 0.03638284 0.15510020
-0.47092685 -0.33510941 -0.00977078
-0.25450942 0.21411507 -0.15621229
-0.65412617 -0.75220388 -0.14759240
-0.44426322 -0.27256191 0.22276492
-0.45520735 -0.29898378 0.22676416
-0.43504781 -0.22906040 -0.11612046
-0.67697096 -0.81856334 -0.08624524
-0.12504973 0.51583034 -0.09698711
-0.44728377 -0.23990241 -0.21845619
-0.63676524 -0.73712873 -0.00069518
-0.27000517 0.16206513 -0.07607581
-0.46636325 -0.32590809 0.03547897
-0.35603407 -0.05939100 -0.00073084
-0.20686050 0.31103924 -0.05709999
-0.25278649 0.18971486 0.13578831
-0.24469475 0.20925705 0.04386797
-0.38065657 -0.05847985 -0.33105570
-0.31822279 0.04813951 -0.08964522
-0.43656084 -0.25396559 0.19854988
-0.17083316 0.38756520 0.14232244
-0.22792917 0.26160049 -0.06489578
-0.35454902 -0.05597436 0.32862407
-0.30522078 0.07930691 -0.08843315
-0.59546709 -0.63759732 0.14118989
-0.11310505 0.52693582 0.09081516
-0.58103341 -0.60275233 0.23382218
-0.32577601 0.01351162 0.04333819
-0.64026219 -0.74573958 0.08742867
-0.08474784 0.61025482 -0.08127572
-0.46714222 -0.32779485 0.17361455
-0.03902494 0.70916319 -0.01847414
-0.39753842 -0.13773239 -0.12035792
-0.32047281 0.08126195 -0.30067229
-0.45332533 -0.29444376 0.30804774
-0.33450314 -0.00757647 0.28551131
-0.41318288 -0.19752042 0.07562662
-0.47877422 -0.29332107 -0.34217471
-0.21448413 0.28218746 0.09186677
-0.20233160 0.31153190 0.01617671
-0.20835151 0.29699197 0.10215871
-0.52208149 -0.43719006 -0.12697922
-0.21653868 0.27722567 0.11351739
-0.35117397 -0.04782939 0.36698067
-0.02240722 0.74666178 -0.00413827
-0.44730589 -0.22743788 -0.28696901
-0.30913529 0.08440458 -0.16806081
-0.18686090 0.34886965 0.16158824
-0.44014785 -0.21599700 -0.25500664
-0.50042391 -0.39677191 -0.06202967
-0.24923863 0.23587011 -0.20564066
-0.41524476 -0.19867809 -0.02074769
-0.37947708 -0.04618386 -0.38277242
-0.49003300 -0.33917364 -0.23997875
-0.43524697 -0.25079933 0.32721263
-0.32380781 0.02071404 -0.01333169
-0.12765180 0.49181667 0.09797733
-0.28672683 0.14576422 -0.20781019
-0.19248591 0.34514874 -0.05385441
-0.38349420 -0.07028518 -0.30393556
-0.41438001 -0.20041119 0.09018199
-0.33315948 0.01945003 -0.12998460
-0.51817709 -0.45100060 0.08289030
-0.40490004 -0.17752796 0.16910656
-0.27654698 0.13234983 0.16946356
-0.34331641 -0.00868632 -0.11019273
-0.47330162 -0.31248194 -0.16499314
-0.48435369 -0.36935037 0.24435587
-0.47666961 -0.35079625 0.17590602
-0.09286900 0.59001237 -0.07779059
-0.02677705 0.73649508 -0.00623304
-0.64784312 -0.74100685 -0.12585360
-0.53416252 -0.48959699 0.17323741
-0.36462754 -0.07949155 -0.00426375
-0.31894448 0.03000737 0.00353951
-0.14234339 0.45671564 -0.00193908
-0.36103889 -0.07163369 0.09088542
-0.27472413 0.13674147 0.28509596
-0.58203048 -0.57054377 -0.18922977
-0.44746003 -0.27509204 -0.02818579
-0.43166301 -0.24213412 0.04152069
-0.47491938 -0.34150764 -0.02750571
-0.51494962 -0.40826711 -0.19104537
-0.42548597 -0.22721960 0.00283284
-0.66854066 -0.79595846 -0.09857418
-0.34172189 -0.02498991 0.10872333
-0.60022604 -0.62454373 -0.13409680
-0.36304167 -0.06551794 -0.05978959
-0.47986642 -0.35851470 0.18959031
-0.29175270 0.13959742 -0.24046765
-0.40431011 -0.17611054 0.32282305
-0.18255220 0.35928077 0.04658294
-0.34156653 0.02340993 -0.26274899
-0.32596010 0.01306127 0.11845901
-0.39686543 -0.14370915 -0.07875348
-0.49383357 -0.39223808 0.26982576
-0.33925435 -0.01904176 0.22204687
-0.11804405 0.51501083 0.10775724
-0.54251933 -0.46694991 -0.23414777
-0.28902176 0.10223638 0.13180164
-0.46872348 -0.26164386 -0.38275009
-0.43237066 -0.18627378 -0.31492582
-0.54665262 -0.49853095 -0.11591137
-0.44832277 -0.28236118 0.18954155
-0.48152819 -0.30158928 -0.33330983
-0.41444606 -0.19779529 -0.01502605
-0.40554592 -0.11415196 -0.35521922
-0.25602877 0.18187837 0.24932548
-0.27046338 0.15787108 -0.05917410
-0.34382668 0.01115970 -0.22556272
-0.38028023 -0.11249250 -0.03046498
-0.23657456 0.22885945 0.06040772
-0.46387377 -0.29312536 -0.14636359
-0.35760641 -0.06334905 0.24668427
-0.20303962 0.31757951 -0.04240948
-0.48951098 -0.38179690 0.14674483
-0.40332788 -0.17373222 0.16614220
-0.65234172 -0.77490151 0.13303024
-0.16088787 0.42921332 -0.09644953
-0.52009082 -0.45561895 0.04248091
-0.23918444 0.24572568 -0.12673049
-0.51367462 -0.42250028 -0.09629774
-0.59473318 -0.62310678 -0.06938173
-0.26705679 0.15677018 -0.00813436
-0.62287509 -0.68803513 -0.08586176
-0.53917384 -0.48256442 -0.10448115
-0.44911349 -0.22285849 -0.33591694
-0.17618008 0.37466383 0.05204489
-0.66905951 -0.81526077 0.10844245
-0.31037351 0.09096726 -0.22034343
-0.37850899 -0.11381354 0.16034545
-0.49179941 -0.35833010 -0.15847205
-0.59825903 -0.61358792 -0.16807298
-0.33581564 0.04372276 -0.29793963
-0.29747063 0.10057263 -0.10242152
-0.19025680 0.35631901 -0.08553977
-0.39299187 -0.14877883 0.16756451
-0.35124645 -0.04799741 0.27855536
-0.56658393 -0.56786847 0.14637849
-0.34427518 0.01712162 -0.26412141
-0.48965457 -0.38213962 0.05896366
-0.26657680 0.16777267 -0.06201393
-0.28102109 0.15241344 -0.16880988
-0.43786591 -0.20618603 -0.27855235
-0.44242483 -0.25067589 -0.09528868
-0.20240392 0.34740755 -0.19727315
-0.35160455 -0.04458867 -0.02321884
-0.66694146 -0.81014752 0.13662551
-0.48303729 -0.31834084 -0.26156545
-0.56271899 -0.55853844 0.22397617
-0.14617196 0.45181045 -0.02568069
-0.34712994 0.00577088 -0.23971581
-0.38324800 -0.12526289 0.37590015
-0.55873209 -0.52405614 -0.13581587
-0.09009670 0.59182113 -0.05105782
-0.48282605 -0.32149231 -0.24152540
-0.24686947 0.21692710 -0.07065043
-0.53165829 -0.48354569 0.04772257
-0.31114033 0.04882622 0.27981323
-0.40577775 -0.17965530 0.35706913
-0.47795323 -0.35389739 0.22600964
-0.29576296 0.08595737 0.18794116
-0.43210474 -0.24320896 0.22974381
-0.32291761 0.02039574 0.25347558
-0.63223910 -0.71280104 -0.07404208
-0.23078154 0.28255811 -0.21729803
-0.17946331 0.36673421 0.09347483
-0.42157069 -0.21777304 0.13334116
-0.44613203 -0.27706602 0.05163983
-0.52782226 -0.47429192 0.21085455
-0.35706311 -0.01666178 -0.24818605
-0.41951895 -0.15290084 -0.32777035
-0.22609258 0.25415781 0.15099590
-0.26791364 0.15320016 0.07077665
-0.47409275 -0.34458086 0.30490687
-0.24780558 0.20173480 0.19782384
-0.61308861 -0.65582073 -0.13286962
-0.28737772 0.10619883 0.21436991
-0.34881628 -0.04212452 0.06761347
-0.46610376 -0.25626254 -0.37758744
-0.32771131 0.01317203 -0.02363096
-0.28886679 0.10261640 0.05636630
-0.45838895 -0.24518754 -0.33626395
-0.52595425 -0.42943317 -0.22060567
-0.26578715 0.17251387 -0.07753040
-0.40192702 -0.11182880 -0.32011542
-0.24706931 0.20352411 0.04778222
-0.34877416 0.01514931 -0.31277516
-0.30020639 0.12445339 -0.26928282
-0.47194502 -0.33939600 0.31051180
-0.39975205 -0.11808630 -0.25713357
-0.45483181 -0.29806986 0.06538463
-0.33285585 0.00841528 -0.06557389
-0.09764381 0.56426120 0.10378823
-0.43705738 -0.25517181 0.36571968
-0.31940621 0.04181036 -0.07064026
-0.66551071 -0.80669338 0.02178082
-0.26094651 0.17002209 0.04625182
-0.58359653 -0.60893995 0.14165151
-0.28865731 0.12500295 -0.11968294
-0.25721249 0.19122431 -0.06663778
-0.23918261 0.25548315 -0.18011390
-0.39697909 -0.15841176 0.32201892
-0.48674718 -0.36124191 -0.07577912
-0.43515965 -0.22053438 -0.16426297
-0.44638067 -0.23031063 -0.25902069
-0.28858548 0.10329775 0.02890428
-0.29434866 0.14339115 -0.29553542
-0.26359946 0.16361007 0.13808732
-0.24863128 0.19974281 0.17992468
-0.60873038 -0.62982112 -0.21759214
-0.29776886 0.08111500 0.18537071
-0.56809539 -0.56492972 -0.03582588
-0.45290503 -0.29341921 0.08707822
-0.37855509 -0.09192867 -0.12022010
-0.50164241 -0.40152228 -0.05213026
-0.64783263 -0.73435748 -0.16211174
-0.25839379 0.18922754 -0.07131806
-0.46727911 -0.29565614 -0.17750727
-0.40750366 -0.17242368 -0.06215823
-0.30364668 0.08385861 -0.09254679
-0.37692070 -0.04565654 -0.35187894
-0.40449762 -0.17655554 0.14976622
-0.36258250 -0.01852833 -0.31090200
-0.21581091 0.27898404 0.09604429
-0.63730210 -0.73859358 0.15460382
-0.64051437 -0.74634850 0.16914780
-0.34781039 -0.02352262 -0.08836903
-0.58616769 -0.61514717 0.15228921
-0.14956623 0.43962309 -0.00382478
-0.37131083 -0.05785711 -0.21097112
-0.16647045 0.39810169 0.09015272
-0.49760854 -0.35375047 -0.26029441
-0.31902117 0.02980727 0.19328889
-0.28770986 0.10539955 0.18179959
-0.32776076 0.06303660 -0.29721770
-0.60381323 -0.63566607 -0.12061998
-0.42877406 -0.22947732 -0.03094255
-0.35521567 -0.05757153 0.01004045
-0.46957901 -0.29512918 -0.21078050
-0.33063200 0.06123219 -0.32528168
-0.23845528 0.22469246 -0.00197024
-0.61714488 -0.68992907 0.03467241
-0.43259901 -0.19285443 -0.28192610
-0.23176157 0.28093034 -0.22133844
-0.47103378 -0.33719525 0.29259107
-0.31691289 0.03489983 0.15763611
-0.63939077 -0.74363524 0.02444488
-0.29307541 0.13924327 -0.25600708
-0.37952167 -0.11625753 0.14124614
-0.19510822 0.32896662 0.06598016
-0.58791715 -0.59897983 -0.11137138
-0.45092505 -0.25079775 -0.20693690
-0.58039689 -0.58361024 -0.09612584
-0.50672561 -0.40858260 -0.08065334
-0.57189739 -0.57292122 -0.04232326
-0.49688521 -0.38552552 -0.07682604
-0.52093393 -0.42753330 -0.16466902
-0.03322139 0.71979553 0.02208531
-0.25484750 0.18473972 0.12835406
-0.25756171 0.17818090 0.20773961
-0.48430556 -0.36923075 0.16616456
-0.48393419 -0.36833739 0.23859784
-0.38957894 -0.09754564 -0.23513737
-0.41869870 -0.21084085 0.16479789
-0.50601363 -0.37344137 -0.26358041
-0.24371660 0.22663154 -0.08210614
-0.05125023 0.67627168 0.00768485
-0.31233647 0.04594780 0.16207395
-0.28115714 0.13466619 -0.07346821
-0.33967993 -0.02006916 0.22158369
-0.34427187 -0.03116247 0.31655389
-0.49185142 -0.38744643 0.12789717
-0.56260473 -0.55825663 0.03192106
-0.49341136 -0.36854082 -0.12388598
-0.38533294 -0.13029747 0.39057150
-0.32177177 0.05983723 -0.20056818
-0.49577129 -0.39690751 0.07524853
-0.30391246 0.06628853 0.11726714
-0.35539800 -0.05801213 0.01899508
-0.32613975 0.07215242 -0.32569319
-0.33854228 0.01765976 -0.19131310
-0.51029450 -0.43196687 0.00895403
-0.62965900 -0.70621049 -0.07602184
-0.50794208 -0.42629492 0.17198361
-0.51015371 -0.38292131 -0.26639831
-0.31249717 0.05843022 -0.07031378
-0.39785987 -0.16053741 0.30507839
-0.42446011 -0.22475938 0.37038240
-0.45825696 -0.25134271 -0.30083156
-0.10281496 0.55210334 -0.00172012
-0.33306122 0.00149026 -0.03038360
-0.48026839 -0.33322188 -0.14353250
-0.36090076 -0.04809602 -0.12685469
-0.12220404 0.51154387 -0.03592252
-0.66341871 -0.77920878 -0.12257277
-0.59152609 -0.60145622 -0.14550442
-0.29208565 0.13121067 -0.19896224
-0.43437999 -0.18408613 -0.35344899
-0.27201256 0.17416871 -0.16884992
-0.44019774 -0.20147049 -0.33517200
-0.42728701 -0.23157027 0.05999507
-0.20874558 0.29604226 0.08092537
-0.64715153 -0.76237154 0.12404703
-0.39845797 -0.13925701 -0.12416348
-0.12419528 0.50016308 0.07608379
-0.48493019 -0.30957600 -0.33454898
-0.24096718 0.23936966 -0.11549780
-0.56276387 -0.53169775 -0.14726435
-0.43849549 -0.19069678 -0.37164646
-0.16966693 0.39037833 0.17224507
-0.10576681 0.55037028 -0.03123950
-0.19350284 0.34321353 -0.05669954
-0.18713453 0.37116885 -0.12556304
-0.19721875 0.32386610 0.13352534
-0.43162945 -0.24206775 0.37019587
-0.20939989 0.33215895 -0.20625429
-0.06076266 0.65330321 0.05393910
-0.27881992 0.12686260 0.16900294
-0.44092137 -0.26448947 0.12237396
-0.34500864 -0.03293268 0.08215710
-0.38310090 -0.12490014 0.17468137
-0.61022943 -0.67323595 0.14455846
-0.20296034 0.32757142 -0.09605263
-0.35675269 -0.06128469 0.06562432
-0.30492541 0.06383165 0.26185700
-0.34881651 0.00971295 -0.28357887
-0.48932895 -0.37550166 -0.03184645
-0.34316683 -0.02849843 0.36402035
-0.29564095 0.08624497 0.27645782
-0.49529013 -0.36396360 -0.17376252
-0.29278588 0.09315679 0.03370595
-0.52682114 -0.47187367 0.18123280
-0.31293184 0.04449710 0.33207953
-0.44347861 -0.27066755 0.21870092
-0.41816363 -0.15885960 -0.27724913
-0.33985153 0.02878166 -0.26948929
-0.16741906 0.39581710 0.02017689
-0.13844864 0.46575171 0.08946120
-0.47146589 -0.33823952 0.33863768
-0.11904325 0.51927441 -0.03646943
-0.41831255 -0.20991573 0.32590538
-0.15249996 0.43183127 0.06291349
-0.37283230 -0.07126742 -0.15768668
-0.21354412 0.31651115 -0.17536673
-0.35304853 -0.05154165 -0.00424354
-0.24873362 0.23116858 -0.17323384
-0.42174336 -0.21819942 0.34646115
-0.30915263 0.10781186 -0.29640979
-0.34311834 -0.02836655 0.02604764
-0.42032331 -0.19343957 -0.11652293
-0.22879072 0.24763639 0.24739608
-0.38742006 -0.13533646 0.39357656
-0.18407334 0.38856685 -0.18034108
-0.44318751 -0.23689330 -0.18080078
-0.44406092 -0.23661610 -0.19385865
-0.31573007 0.09136048 -0.29327649
-0.34012321 -0.02112763 0.07361773
-0.56206828 -0.55696756 0.18947142
-0.34677908 -0.03720704 0.21112625
-0.19612786 0.32649881 0.14460517
-0.28896305 0.12951656 -0.14842787
-0.44617042 -0.27716312 0.15029410
-0.33991128 0.02442168 -0.24641432
-0.31334701 0.04349824 0.28826505
-0.52756858 -0.43291506 -0.22287861
-0.45111513 -0.24508458 -0.24071760
-0.40095201 -0.16800523 0.36472470
-0.56819087 -0.57174844 0.24748074
-0.42298469 -0.21080267 -0.05665648
-0.52423632 -0.46563542 0.25279883
-0.40305698 -0.17308719 0.36693516
-0.36288857 -0.07610047 0.23774500
-0.27265820 0.14172997 0.27252668
-0.48808214 -0.37835062 0.21924856
-0.29278719 0.09368451 -0.00283319
-0.43379799 -0.17146954 -0.41481203
-0.43876991 -0.25930354 0.30540720
-0.30648819 0.06006786 0.14707734
-0.42386687 -0.21143734 -0.06483924
-0.27007115 0.19209495 -0.24131556
-0.37018877 -0.09372121 0.03853886
-0.52320617 -0.46314853 0.28641534
-0.07806430 0.62224072 -0.05856505
-0.58711398 -0.61743164 0.16366433
-0.21281441 0.28620815 0.22323038
-0.37910163 -0.06002537 -0.30204970
-0.65946251 -0.78082514 -0.06144499
-0.23751968 0.22657198 0.13359857
-0.57455134 -0.56328225 -0.13014592
-0.29599872 0.08540073 0.02921258
-0.21224988 0.29258180 -0.02728771
-0.41240808 -0.19565640 0.22142534
-0.45180738 -0.29077727 0.26811010
-0.25309116 0.18898129 0.11032969
-0.45381832 -0.29563478 0.32677069
-0.21121240 0.32335418 -0.18201117
-0.39989927 -0.11926752 -0.25261366
-0.47439206 -0.34530330 0.30161029
-0.34846869 -0.02978950 -0.06278286
-0.51871175 -0.45229819 0.28281197
-0.47806633 -0.35417125 0.24320267
-0.32231227 0.06390208 -0.22995943
-0.14221933 0.45664769 0.10003367
-0.58431828 -0.61068243 0.14961682
-0.48368415 -0.36773622 0.33861664
-0.52089119 -0.45755973 0.29243961
-0.23551133 0.25250080 -0.11527831
-0.21678391 0.27663353 0.11493120
-0.51011682 -0.43154600 0.19029689
-0.51663584 -0.42364416 -0.12916422
-0.23234473 0.23907529 0.00685651
-0.15252936 0.44795483 -0.08858282
-0.51749748 -0.39021641 -0.32351115
-0.50474799 -0.41858763 0.30385494
-0.14982788 0.43827510 0.15265162
-0.44472122 -0.27367058 0.28862685
-0.36370474 -0.07807398 0.27705538
-0.23118597 0.25383672 -0.06543568
-0.43767864 -0.21815041 -0.21059462
-0.46263912 -0.25541654 -0.33643726
-0.45643386 -0.30194974 0.33640078
-0.33034644 0.00247053 0.13493747
-0.15040810 0.43687743 0.11335335
-0.16554093 0.40035161 0.01569689
-0.24968080 0.19720861 0.18585815
-0.58023399 -0.60081935 0.06821207
-0.52534521 -0.46831068 0.18895537
-0.18956526 0.34234828 0.06706851
-0.15919410 0.41566890 0.08096465
-0.26263654 0.16592880 0.21403284
-0.30618310 0.08282935 -0.12042923
-0.06709286 0.63802290 0.02853719
-0.39264226 -0.12126914 -0.14577048
-0.43181896 -0.24252561 0.37779549
-0.17041776 0.39547047 -0.03768463
-0.11126394 0.53138751 0.00319820
-0.47858295 -0.35541636 0.19569816
-0.41060257 -0.17663661 -0.08004672
-0.15247314 0.43189463 0.08100812
-0.28544331 0.11088041 0.06876723
-0.67166805 -0.80820829 -0.07284932
-0.17832635 0.36948535 0.01333307
-0.30826309 0.10619443 -0.27580243
-0.53228509 -0.44860631 -0.19931784
-0.58858263 -0.62097728 0.17606042
-0.66202760 -0.79828465 0.12100887
-0.55981469 -0.55152708 0.22440545
-0.32707658 0.01035255 0.28699163
-0.28432149 0.11357747 0.21085490
-0.61498290 -0.68471152 0.10201624
-0.56218076 -0.52599752 -0.17075783
-0.48215503 -0.36403519 0.08458014
-0.19256002 0.34895548 -0.07566971
-0.16722636 0.41330537 -0.09313326
-0.08748475 0.58878958 0.07191207
-0.36516881 -0.07992919 -0.00902044
-0.48734847 -0.37658131 0.26293296
-0.31429258 0.08860394 -0.25919366
-0.49550089 -0.39625156 0.00512150
-0.35611767 -0.01502882 -0.24463131
-0.47160104 -0.33855203 0.00686006
-0.35201544 -0.04985000 0.11235995
-0.33452117 -0.00312648 -0.02440549
-0.48162448 -0.36268717 -0.00018185
-0.18917368 0.36798003 -0.13505423
-0.31905532 0.02971549 0.31100085
-0.12074198 0.52031547 -0.06461433
-0.44631734 -0.27752516 0.31483594
-0.44700238 -0.27917200 0.15815702
-0.63339674 -0.72916472 0.03507749
-0.52697432 -0.47224110 0.12974653
-0.52475852 -0.46688879 0.06368404
-0.65103036 -0.77173561 0.05589800
-0.56315541 -0.55958664 0.04282497
-0.27103662 0.14566322 0.03880515
-0.38108778 -0.12004595 0.30883154
-0.47443324 -0.31372571 -0.17313772
-0.46645230 -0.30474263 -0.11685040
-0.41239229 -0.19560859 0.00455237
-0.42347798 -0.22237447 0.06035468
-0.58325851 -0.60812402 0.21108977
-0.30308232 0.06828633 0.19769853
-0.42448583 -0.15437824 -0.38531271
-0.38793254 -0.09111264 -0.24859215
-0.23111144 0.24203560 0.22357763
-0.27024254 0.14756157 0.27586323
-0.40812409 -0.13705315 -0.26394579
-0.27777788 0.15641142 -0.14783752
-0.34145162 0.00115072 -0.13939466
-0.41222623 -0.14515243 -0.27381885
-0.42473030 -0.22539799 0.06358006
-0.46251354 -0.27208972 -0.24352261
-0.31905681 0.02971195 0.31043500
-0.41163710 -0.19379662 0.25608349
-0.12086643 0.50820506 0.00688953
-0.26027513 0.17163134 0.19321120
-0.14407939 0.45216480 0.00339822
-0.44590136 -0.27652177 0.33455217
-0.38893050 -0.10958829 -0.16065776
-0.56601375 -0.56648612 0.01555737
-0.39354521 -0.15012521 0.41286319
-0.54014933 -0.50404954 0.15077123
-0.56844723 -0.52906859 -0.23675615
-0.36109671 -0.07178393 0.35629874
-0.19918017 0.35237217 -0.18184881
-0.43824053 -0.25802246 0.23742481
-0.49452722 -0.37202358 -0.11956801
-0.45540971 -0.29947406 0.26700407
-0.43551734 -0.25144157 0.09219645
-0.09546046 0.57708257 -0.04126257
-0.41979986 -0.21350069 0.19608413
-0.37778860 -0.09996808 -0.06609122
-0.50385302 -0.37533560 -0.22466388
-0.59405959 -0.63419944 0.11502460
-0.43013099 -0.23845004 0.36809903
-0.05486668 0.66754031 0.01406066
-0.20017055 0.31674367 0.08571676
-0.45812294 -0.23754235 -0.37459275
-0.35111499 0.01095115 -0.32072785
-0.35662776 -0.05283565 -0.04445395
-0.30846375 0.09163209 -0.19874689
-0.47822130 -0.28922185 -0.35730615
-0.56024885 -0.55257523 0.25216243
-0.36872253 -0.09018641 0.25833169
-0.37806627 -0.06756630 -0.24709339
-0.38379392 -0.12657401 0.19237912
-0.27434719 0.15416095 -0.09018703
-0.34861878 0.01265733 -0.29708213
-0.62201774 -0.70169479 0.18926024
-0.55940604 -0.50521988 -0.24782094
-0.52741241 -0.44530538 -0.15300119
-0.47295964 -0.34062767 -0.00642764
-0.64967591 -0.76846576 0.10466375
-0.52054620 -0.45671698 0.01337171
-0.27660728 0.15496945 -0.12447681
-0.05256103 0.67310482 0.03673907
-0.25681174 0.20257126 -0.12344964
-0.19855206 0.35512412 -0.18861178
-0.07800718 0.61553288 -0.02109493
-0.41984037 -0.21359174 0.04552376
-0.24949040 0.22422111 -0.14520676
-0.46556428 -0.29653233 -0.15005331
-0.51859474 -0.41615382 -0.19604310
-0.23048741 0.26173100 -0.09941415
-0.05372647 0.67999691 -0.05309649
-0.39751059 -0.14494640 -0.08050651
-0.53668177 -0.47625205 -0.10610129
-0.14489026 0.45020562 0.02339232
-0.62534302 -0.70972252 0.16758762
-0.53009796 -0.47977790 0.03176389
-0.43945414 -0.24662898 -0.07818619
-0.35513669 -0.05738100 0.01412871
-0.25428775 0.18608961 0.14714777
-0.49726230 -0.36047181 -0.21893229
-0.51348722 -0.43968046 0.13620549
-0.47651726 -0.35043257 0.26863551
-0.33914649 0.00919072 -0.15294196
-0.25574940 0.18255842 0.17936470
-0.49022478 -0.38352355 0.22213344
-0.55151427 -0.50612879 -0.13856503
-0.62097853 -0.69918591 0.19136506
-0.36114582 -0.07189021 0.05426817
-0.45498949 -0.22676779 -0.39216217
-0.28289834 0.12689409 -0.05393558
-0.39838448 -0.16180044 0.22611067
-0.06459531 0.65447515 -0.05702270
-0.22446211 0.25809282 0.16649391
-0.22629033 0.25368565 0.08429017
-0.47754920 -0.34031701 -0.06877080
-0.25950107 0.17350331 0.15188789
-0.39251292 -0.14762151 0.14384581
-0.36505708 -0.08133819 0.26992536
-0.26720545 0.15491159 0.04902985
-0.10768453 0.54002655 0.03311567
-0.14566240 0.44833538 0.10154704
-0.49185595 -0.38746041 0.19679122
-0.57823145 -0.58326602 -0.06939730
-0.37359664 -0.10195250 0.12502798
