ply
format ascii 1.0
element vertex 117
property float x
property float y
property float z
end_header
-0.01467634 0.64829457 0.00253936
-0.02973470 0.73501813 0.00065321
-0.42330703 0.03129382 0.00640069
-0.54639995 0.05423389 0.00369375
-0.41603574 0.10312664 0.00520410
-0.06578504 0.65438461 0.00147944
-0.04754687 0.05993479 0.01283338
-0.53534126 0.00904987 0.00473620
-0.20462713 0.17594084 0.00777300
-0.41461244 0.18030030 0.00380012
-0.59048152 0.01357878 0.00363013
-0.03309396 0.70908827 0.00107150
-0.14376684 0.47491905 0.00336018
-0.22597423 0.20545781 0.00683046
-0.36830479 0.30735067 0.00230372
-0.58020324 0.04332399 0.00326935
-0.10145713 0.37269601 0.00603856
-0.11607789 0.51394171 0.00315017
-0.09240790 0.37514904 0.00616078
-0.44487658 0.33648488 0.00034433
-0.37705293 0.09496506 0.00607799
-0.20610832 0.58501625 0.00016398
-0.14974350 0.24114506 0.00758165
-0.09431862 0.51828462 0.00347288
-0.55017519 0.03476664 0.00398458
-0.07717842 0.23930988 0.00896026
-0.03178821 0.03871149 0.01351868
-0.13859151 0.36433107 0.00550549
-0.15116376 0.20256837 0.00827021
-0.39245889 0.04329422 0.00675010
-0.78573257 0.01213127 0.00003761
-0.31699848 0.17016983 0.00579734
-0.67885941 0.05368150 0.00124860
-0.62357861 0.15662937 0.00036526
-0.42964259 0.06668737 0.00562725
-0.45194814 0.14298756 0.00379960
-0.46440491 0.26869938 0.00123870
-0.17679577 0.12389840 0.00925312
-0.49180120 0.25553983 0.00097476
-0.10659742 0.43439540 0.00479994
-0.15534759 0.60918194 0.00065703
-0.27438027 0.29974359 0.00418578
-0.02199500 0.57806259 0.00370524
-0.12087853 0.29718661 0.00707798
-0.23133610 0.43976107 0.00238855
-0.01608229 0.67354357 0.00204541
-0.20004278 0.54650378 0.00099022
-0.65474987 0.14261971 0.00004710
-0.38106662 0.28229591 0.00253153
-0.43291309 0.18457945 0.00338157
-0.41521999 0.20580676 0.00331611
-0.27935818 0.35044223 0.00315384
-0.53597414 0.10207529 0.00300030
-0.16052918 0.03845745 0.01113787
-0.18255401 0.57786596 0.00073313
-0.35149923 0.14663918 0.00559393
-0.13362163 0.08195810 0.01083033
-0.57397115 0.10404483 0.00225945
-0.29033211 0.35146824 0.00293140
-0.33667129 0.37679920 0.00160292
-0.37330389 0.36276728 0.00118394
-0.66241974 0.02304551 0.00212116
-0.16293669 0.52539504 0.00206929
-0.15868151 0.62600368 0.00028345
-0.15438062 0.22185645 0.00785317
-0.15291370 0.54418808 0.00190677
-0.21155933 0.48646137 0.00188959
-0.13650891 0.00136005 0.01227042
-0.30105248 0.14301333 0.00659626
-0.54897672 0.10431396 0.00271778
-0.54292589 0.00131915 0.00473889
-0.06692515 0.63008815 0.00190860
-0.38243756 0.12106778 0.00549438
-0.14693771 0.04918489 0.01119092
-0.22429764 0.20954084 0.00678586
-0.04542626 0.65407532 0.00186245
-0.26075283 0.01660237 0.00968577
-0.03440046 0.05293192 0.01320675
-0.02157220 0.10092703 0.01255504
-0.31558764 0.04626191 0.00812005
-0.18688212 0.10484873 0.00941924
-0.09479276 0.63134086 0.00136883
-0.34011158 0.27306378 0.00346182
-0.21696720 0.23058854 0.00653165
-0.12293934 0.04410005 0.01172983
-0.32003915 0.23106676 0.00461229
-0.07827032 0.37096766 0.00650023
-0.50632071 0.14608178 0.00273435
-0.01998744 0.19126238 0.01091037
-0.08609889 0.09597251 0.01145120
-0.08995027 0.59405893 0.00214959
-0.37137219 0.34067363 0.00162924
-0.38747549 0.13448083 0.00515239
-0.00166710 0.41545802 0.00709519
-0.60467845 0.16770498 0.00051033
-0.26830152 0.35816225 0.00321571
-0.46425304 0.29260552 0.00079843
-0.16382915 0.46120656 0.00324244
-0.20875274 0.19917627 0.00726597
-0.18444581 0.48676193 0.00238662
-0.34801963 0.16247679 0.00536489
-0.69681275 0.01299336 0.00166993
-0.30752593 0.38059512 0.00207283
-0.17124587 0.24834371 0.00704982
-0.12571412 0.02000481 0.01212493
-0.43196714 0.11719680 0.00464800
-0.09541899 0.68256521 0.00040781
-0.28916836 0.44655174 0.00119066
-0.08389854 0.48698261 0.00424603
-0.33272743 0.38638666 0.00149833
-0.11562145 0.51378459 0.00316154
-0.25847325 0.28312564 0.00478865
-0.40420577 0.36051059 0.00065294
-0.67678899 0.01266245 0.00204724
-0.01047685 0.70277655 0.00160755
-0.33160648 0.19038486 0.00515188
-0.13075498 0.56645709 0.00190478
