ply
format ascii 1.0
element vertex 970
property float x
property float y
property float z
end_header
-0.34353074 -0.02936229 0.00353490
-0.43215188 -0.24331753 0.09974876
-0.26715401 0.15503454 0.05812213
-0.07093405 0.62874919 0.00895385
-0.35506245 0.23164625 -0.22662456
-0.54657769 -0.10772641 -0.32311878
-0.66398722 -0.80301547 0.05075982
-0.65247953 -0.46835235 -0.24076337
-0.58392525 -0.60972977 0.04008246
-0.48445597 -0.36495781 -0.00361283
-0.42496455 -0.22596723 0.13422874
-0.55967528 -0.55118978 0.15352698
-0.23774809 0.22602703 0.04254778
-0.15805183 0.48093891 -0.04903988
-0.33061686 0.00182361 0.05872377
-0.28134996 0.12075177 0.19731964
-0.55410486 -0.08464350 -0.35548806
-0.50832683 -0.10125124 -0.25574294
-0.50255692 -0.41329625 0.22260723
-0.14141142 0.45859808 0.08254404
-0.40024760 -0.16629699 0.18062550
-0.17235562 0.52881467 -0.11370159
-0.21599762 0.34669167 -0.05346736
-0.59986389 -0.61191827 -0.02845035
-0.12997431 0.48620620 0.12172472
-0.60225266 -0.26143062 -0.30797935
-0.39768013 -0.16010372 0.30296367
-0.44961005 0.02065613 -0.24016929
-0.46183619 -0.31498873 0.25520414
-0.25112975 0.19372393 0.00898777
-0.42049140 -0.21516746 0.12082828
-0.12944546 0.50428754 -0.01317195
-0.40629983 -0.18090996 0.21723600
-0.65808499 -0.78876656 0.01017529
-0.58690631 -0.59625357 -0.01619660
-0.46762738 -0.32895952 0.01026304
-0.28264964 0.19437061 -0.06020513
-0.64430350 -0.75549561 0.02244974
-0.41037798 0.15089180 -0.26804322
-0.62272322 -0.60134751 -0.08004573
-0.24586076 0.20643003 0.18669835
-0.41083536 -0.19186454 0.33059511
-0.13021617 0.48562616 0.07384528
-0.57567370 -0.31164095 -0.21823566
-0.22517385 0.25637689 0.12568918
-0.23436560 0.23418333 0.16307740
-0.27101237 0.35617048 -0.16511874
-0.50712633 -0.42432475 0.15181543
-0.44173259 -0.02678814 -0.18801948
-0.24205054 0.23295102 -0.01357133
-0.27817982 0.12841772 0.03931315
-0.24897785 0.19890004 0.24574742
-0.43685728 0.01349996 -0.21039674
-0.36102408 -0.07159861 0.22941682
-0.38442549 -0.12810542 0.33472002
-0.33055437 0.11262346 -0.08680675
-0.35021806 -0.00770370 -0.02964671
-0.24347392 0.23021828 -0.01412330
-0.62451190 -0.70771593 0.07352004
-0.54526705 -0.31587109 -0.15731896
-0.56378764 -0.25580218 -0.23953350
-0.52316928 -0.46305913 0.22283743
-0.59573895 -0.63825125 0.05481211
-0.44484451 -0.27396110 0.11622828
-0.36082271 0.18342569 -0.19969940
-0.25503632 0.34834713 -0.12871686
-0.35197201 -0.04974111 0.17727783
-0.48390263 -0.36825266 0.03552015
-0.27566659 0.13446808 0.25184882
-0.47065467 -0.11423219 -0.17419736
-0.61080086 -0.67461538 0.09179830
-0.40476787 -0.15596800 -0.01664434
-0.52621973 -0.35905233 -0.08735724
-0.51118523 -0.43412074 0.07633977
-0.36235091 -0.07480930 0.32235187
-0.62699300 -0.59195483 -0.09550352
-0.14344072 0.45370388 0.02119232
-0.67474216 -0.72842425 -0.07887342
-0.41956732 -0.16044722 -0.04116357
-0.62689400 -0.71010399 -0.00261227
-0.65201360 -0.77410936 0.12054371
-0.08661757 0.59088194 0.06325996
-0.06827081 0.63517654 0.03581870
-0.64447975 -0.47613156 -0.21950614
-0.34532481 -0.03369887 0.24399580
-0.43908963 -0.26006812 0.13082127
-0.47828612 -0.35470450 0.30153206
-0.56377840 -0.54716074 -0.01090650
-0.17221585 0.38422644 0.13423283
-0.48007649 -0.12898107 -0.18047214
-0.13911270 0.46415246 0.02199698
-0.50942051 -0.42986548 0.20019232
-0.38560739 0.09453410 -0.17689897
-0.39374891 -0.15060714 0.16822852
-0.57158214 -0.17833513 -0.31508142
-0.32428452 0.01711282 0.03616604
-0.25659895 0.19248556 -0.00937853
-0.23258130 0.23850131 0.03350111
-0.48131996 0.01763873 -0.29786935
-0.49197859 -0.38776028 0.31633496
-0.32398596 0.01782096 0.19377601
-0.44888514 -0.28372309 0.28190294
-0.16659482 0.52989316 -0.10363521
-0.45425525 -0.29668531 0.22446495
-0.48275188 0.03683177 -0.31564185
-0.49063078 0.01436407 -0.31293723
-0.40845054 0.15015996 -0.26381788
-0.66430479 -0.80378211 0.10305300
-0.35313287 -0.05255164 0.27751452
-0.26302189 0.16499519 0.24582975
-0.28953093 0.10099873 0.23122141
-0.20924427 0.38341203 -0.06948760
-0.67925167 -0.64769971 -0.15075444
-0.11257792 0.57401419 -0.03593169
-0.38685688 -0.13397220 0.26091504
-0.46417820 -0.19499488 -0.09856025
-0.46296895 0.06471301 -0.30004460
-0.47414517 -0.11171112 -0.18278734
-0.38804382 -0.01670746 -0.09422740
-0.46744224 -0.32851225 0.00248456
-0.49717596 -0.37791345 -0.01754217
-0.25385991 0.18711434 0.23958287
-0.17860244 0.49346504 -0.09779742
-0.63768399 -0.50248015 -0.18595950
-0.16236523 0.40800610 0.15323257
-0.35287714 -0.05192786 0.19685070
-0.55131602 -0.47728571 -0.04212599
-0.36646438 -0.08473516 0.26283610
-0.26557547 0.38670552 -0.17877936
-0.66358125 -0.70622951 -0.07514678
-0.66519910 -0.63256490 -0.13601090
-0.37644213 0.04652168 -0.12186390
-0.34772980 -0.03950658 0.26354477
-0.54093122 -0.32722071 -0.14020053
-0.21743891 0.27504933 0.13967118
-0.32760322 0.20097546 -0.15054274
-0.34366462 -0.02968988 0.23119007
-0.50868022 -0.05663411 -0.29141864
-0.41173381 -0.19403343 0.32781640
-0.66762608 -0.81180018 0.05004631
-0.27874947 0.12778305 -0.00056849
-0.20612682 0.34609428 -0.03430051
-0.60566413 -0.44416159 -0.17106490
-0.61762857 -0.50835586 -0.14335947
-0.42199433 0.06956380 -0.22623312
-0.36673206 0.21856230 -0.23846371
-0.46478462 -0.24252705 -0.06241364
-0.50846308 -0.42754921 0.08468416
-0.64072895 -0.74686641 0.03731862
-0.47692010 -0.35140240 0.20360728
-0.32353616 0.01890624 0.20145185
-0.27353543 0.13962063 0.15827300
-0.11751819 0.51627731 0.12457619
-0.10497496 0.59778517 -0.04018167
-0.20227516 0.38275650 -0.05577174
-0.54309136 -0.38863966 -0.09610104
-0.49427724 -0.39330083 0.07078597
-0.20005304 0.31702837 0.05961535
-0.60693705 -0.58662611 -0.06169376
-0.37878606 -0.11448886 0.34922400
-0.41832459 0.02508326 -0.18437944
-0.71981698 -0.79772758 -0.10987787
-0.42069933 0.11388052 -0.25855359
-0.64111525 -0.43189996 -0.24783842
-0.28723541 0.18785080 -0.06377609
-0.25864053 0.17559052 0.02151337
-0.50507528 -0.31733596 -0.08003647
-0.47767192 -0.35321441 0.13146482
-0.63343960 -0.72926772 0.02349126
-0.59584105 -0.21136640 -0.33511621
-0.55670619 -0.53993601 -0.00317878
-0.52992046 -0.47935227 0.09082930
-0.54122204 -0.42229870 -0.06615007
-0.13174900 0.48192871 0.03495566
-0.48105663 -0.36139244 0.28619948
-0.57693386 -0.14873442 -0.34844458
-0.20173071 0.31297991 0.03755624
-0.30041057 0.15942249 -0.06642707
-0.24430986 0.36976594 -0.12520437
-0.57761157 -0.51376283 -0.06331503
-0.57569534 -0.58986533 0.17764296
-0.16512139 0.41174081 -0.00813465
-0.38247058 -0.12338152 0.23390605
-0.43043327 -0.23916590 0.03929697
-0.11751434 0.59016836 -0.05795822
-0.38510996 -0.12974875 0.12006542
-0.20927212 0.29477417 0.03078800
-0.50443161 -0.00555269 -0.32345209
-0.35603398 -0.01723797 -0.03318256
-0.08130343 0.60370970 0.08235916
-0.58487505 -0.46796834 -0.11300567
-0.32459867 0.27873853 -0.20586883
-0.35812467 -0.03894841 -0.02010811
-0.50636631 -0.38125584 -0.03232844
-0.51614863 -0.44611046 0.25230825
-0.54284310 -0.51054955 0.06989497
-0.21806714 0.27352908 0.18392710
-0.57435060 -0.56104940 -0.02003535
-0.39752939 -0.10378096 -0.04388053
-0.31103531 0.20384771 -0.12141208
-0.61411726 -0.52668160 -0.12232923
-0.17918882 0.36739302 0.12649533
-0.28825152 0.10409086 0.18848504
-0.56674170 -0.56824988 0.18798982
-0.08734606 0.61451083 -0.01991145
-0.51252019 -0.43734333 0.07058909
-0.22320400 0.44564867 -0.14476597
-0.48559758 -0.21477243 -0.12361571
-0.13373806 0.47712502 0.05698850
-0.18817373 0.38911831 -0.03405143
-0.28242102 0.11818162 0.00220280
-0.24646331 0.23804629 -0.02592842
-0.44145286 -0.26578301 0.35491076
-0.51536441 -0.14214490 -0.23698734
-0.34254292 -0.02699044 0.33792818
-0.62701750 -0.47229418 -0.18943952
-0.35656482 0.21220706 -0.21421732
-0.33339444 -0.00489984 0.28164411
-0.36288884 -0.07611150 0.36699685
-0.44057503 -0.04729121 -0.16974327
-0.63044852 -0.38046855 -0.26798794
-0.57501078 -0.58820814 0.03689243
-0.58305079 -0.53166854 -0.05956877
-0.45862302 -0.30722895 0.19856068
-0.32893446 0.08627705 -0.06306517
-0.47007230 -0.33487174 0.23787665
-0.37061164 0.01860328 -0.08891279
-0.41553760 -0.20321260 0.23154353
-0.25760871 0.32074365 -0.11193035
-0.55503815 -0.44082040 -0.07778844
-0.45499900 -0.19614150 -0.08027292
-0.20464413 0.44714284 -0.11078066
-0.48507035 -0.36809140 -0.00231788
-0.28945282 0.27281189 -0.13464212
-0.44690484 -0.27893162 0.03190053
-0.26018971 0.17184778 0.05594466
-0.40303898 0.08915370 -0.20569761
-0.38497114 -0.12067145 -0.00683929
-0.37963468 -0.11653751 0.29263762
-0.60017961 -0.64814419 -0.00062432
-0.19767369 0.45246509 -0.10175281
-0.55849767 -0.54834461 0.10354001
-0.34476233 -0.03233684 0.03148893
-0.35141084 -0.04840252 0.37939084
-0.17511284 0.37723631 0.08752672
-0.51275021 -0.16231456 -0.21620958
-0.61209589 -0.67774183 0.10883456
-0.30897644 0.12273703 -0.05386763
-0.24337979 0.33484563 -0.09604192
-0.45683667 -0.30291709 0.21561879
-0.37103596 0.06140958 -0.12330502
-0.55596942 -0.54224348 0.16532664
-0.40580788 0.12700514 -0.24064323
-0.54270440 -0.51021492 0.07310836
-0.22615351 0.25400269 0.23943180
-0.26760316 0.34513569 -0.15000221
-0.29940245 0.07716045 0.31366321
-0.48075461 -0.36065608 0.11585565
-0.53719717 -0.49691889 0.06544775
-0.48536643 -0.16891091 -0.15916234
-0.37239447 -0.09904829 0.06223182
-0.43077266 -0.23999906 0.36439013
-0.64523959 -0.64773738 -0.08629820
-0.54091847 -0.17065343 -0.26302427
-0.36892638 -0.09067986 0.27458867
-0.47224414 -0.21363176 -0.09921604
-0.55217201 -0.26437274 -0.21080595
-0.19144966 0.44787660 -0.08636229
-0.40035459 -0.16656503 0.41147536
-0.63106090 -0.64885503 -0.05856335
-0.40150455 -0.16933274 0.20939247
-0.48044929 -0.35992616 0.28585756
-0.51545912 -0.44444302 0.17598480
-0.48491013 0.04125733 -0.32320273
-0.46770227 -0.32915282 0.30396083
-0.22460140 0.26512271 -0.00576149
-0.32516822 0.01495537 0.33622414
-0.33346137 0.13498484 -0.10985951
-0.24060452 0.35484838 -0.10648017
-0.25092167 0.19422412 0.03598242
-0.47598884 -0.01095976 -0.26533055
-0.53871512 -0.34814906 -0.11958161
-0.45074818 -0.28821567 0.15897366
-0.43312401 0.09559048 -0.26773801
-0.17259835 0.51473665 -0.10311491
-0.49746090 -0.40099546 0.28128657
-0.31786543 0.03259389 0.23375221
-0.47765031 -0.35316962 0.31341740
-0.59333122 -0.63244110 0.14811406
-0.25021029 0.19594097 0.04238448
-0.20776343 0.34719771 -0.03826653
-0.33190957 0.24761185 -0.19529390
-0.35144374 0.16803691 -0.16985793
-0.29249093 0.09386592 0.06650173
-0.14166921 0.45797473 0.09465889
-0.29930902 0.07740078 0.12907563
-0.42704463 -0.23099712 0.32501814
-0.40839151 -0.18596222 0.27647042
-0.36792925 0.06980044 -0.12400397
-0.49099198 -0.29212138 -0.07314347
-0.60424471 -0.47161880 -0.14683224
-0.42102358 0.10428551 -0.25163898
-0.43096745 -0.00127633 -0.18764530
-0.64823169 -0.76497924 0.13712989
-0.53149688 -0.06405457 -0.32881737
-0.41552868 -0.20319299 0.27813855
-0.29207623 0.09486956 0.03554649
-0.60302323 -0.65583909 0.11768382
-0.58914822 -0.60551935 -0.01317301
-0.52494007 -0.15046579 -0.24859709
-0.62644207 -0.61364734 -0.07743925
-0.50407195 0.01431255 -0.33835825
-0.16823804 0.40451196 -0.00836629
-0.47980812 -0.35837767 0.27317223
-0.44839117 -0.04850840 -0.18359388
-0.52661854 -0.15474391 -0.24841979
-0.30169475 0.07164391 0.09512733
-0.60064250 -0.65008879 0.03753216
-0.56775624 -0.57069588 0.08077647
-0.54209650 -0.50875264 0.22609517
-0.30547264 0.23931578 -0.13870518
-0.30599627 0.06125761 0.11622088
-0.18503718 0.35503322 -0.00136469
-0.45975396 -0.25609046 -0.04224207
-0.39043584 -0.14261574 0.33441705
-0.27058479 0.28814834 -0.11093454
-0.41040859 -0.08228486 -0.08514347
-0.59114176 -0.38498586 -0.18998720
-0.40257946 0.13332635 -0.23948772
-0.70096779 -0.70086074 -0.15017793
-0.45846954 -0.30686024 0.24101099
-0.22063293 0.35863027 -0.07161572
-0.40092990 -0.16793713 0.01422982
-0.56754738 -0.37896401 -0.15001854
-0.39071989 -0.14330192 0.38145998
-0.47434840 -0.34519830 0.31497788
-0.28527108 0.11128234 0.23609971
-0.59750146 -0.28543228 -0.28014696
-0.48976323 0.01730711 -0.31360310
-0.45678779 -0.27111650 -0.02483351
-0.67881054 -0.58769488 -0.19700049
-0.18675140 0.44183534 -0.07272209
-0.66896504 -0.74229664 -0.05704553
-0.50906527 -0.17151979 -0.20200671
-0.52093011 -0.28104538 -0.13854426
-0.62338245 -0.43049526 -0.21535067
-0.15485361 0.55800533 -0.10345251
-0.09800514 0.62786132 -0.05057837
-0.58124679 -0.60326737 0.18018974
-0.38185409 -0.12188757 0.10121745
-0.43424353 -0.08643487 -0.12703645
-0.49050984 -0.20748197 -0.13864110
-0.33307642 -0.00411975 0.12721692
-0.54409558 -0.27541485 -0.18684319
-0.31548145 0.03835177 0.20189300
-0.46886230 -0.33194086 0.00924787
-0.24176005 0.21633501 0.12246240
-0.45276421 -0.29309022 0.33222568
-0.51908684 -0.45320377 0.27197275
-0.37898299 -0.11495715 0.12638488
-0.34586203 -0.03499313 0.20960909
-0.17946334 0.36672899 0.14286073
-0.37160560 -0.09714340 0.05377112
-0.43461964 -0.03269513 -0.16991055
-0.42818859 -0.23376030 0.35857311
-0.23474357 0.23326880 0.18856907
-0.45174190 -0.29061028 0.05247299
-0.25588030 0.18225063 0.06666368
-0.40364444 -0.17449954 0.22368395
-0.57749486 -0.59420800 0.10190270
-0.57341534 -0.39702579 -0.14696205
-0.50513202 -0.41951132 0.18172827
-0.52493227 -0.14511655 -0.25277948
-0.39754146 -0.15975975 0.08642055
-0.31418809 0.26456797 -0.17502911
-0.18581840 0.41052461 -0.04638647
-0.51801223 -0.45060873 0.22127643
-0.62830347 -0.47687960 -0.18827760
-0.23734970 0.22698972 0.03105747
-0.62658358 -0.63792616 -0.05865733
-0.04698322 0.71944970 -0.02579397
-0.19713260 0.46296236 -0.10896460
-0.45701391 -0.24863715 -0.04289985
-0.48803499 -0.37823746 0.23271315
-0.23786756 0.35945997 -0.10491412
-0.52215677 -0.46061149 0.14930508
-0.48557323 -0.35187736 -0.01599251
-0.66383535 -0.65247172 -0.11780806
-0.30395517 0.06618854 0.07428610
-0.58148205 -0.60383528 0.14371872
-0.36493638 -0.08104124 0.02614217
-0.20394340 0.30762658 0.18127455
-0.50167191 -0.41115263 0.05690896
-0.25445974 0.18568298 0.03060040
-0.09034548 0.62877566 -0.03678625
-0.39065802 -0.14314412 0.14566524
-0.64709115 -0.75858170 -0.00283338
-0.39711216 -0.15873687 0.40684628
-0.51979601 -0.45491260 0.15881532
-0.65387094 -0.55821490 -0.17289004
-0.35608658 -0.05968009 0.24833919
-0.29840055 0.07959584 0.10598419
-0.31711626 0.03440397 0.21549776
-0.56694609 -0.56874299 0.15071476
-0.26606557 0.15765232 0.18194726
-0.28053927 0.35418227 -0.18160540
-0.66938061 -0.55438828 -0.20527139
-0.42338058 -0.22215070 0.31219876
-0.52154875 -0.32591480 -0.10451002
-0.26904809 0.15044840 0.22615761
-0.25639284 0.18099698 0.26965579
-0.55218244 -0.46273920 -0.05518080
-0.31943515 0.02881356 0.11731813
-0.21634789 0.27768007 0.17904191
-0.49993578 -0.40696523 0.15226607
-0.62619621 -0.43845865 -0.21443224
-0.37624609 0.11024220 -0.17149152
-0.14165571 0.45800689 0.10038999
-0.32543361 0.01431662 0.31193554
-0.45704359 -0.30340803 0.01308401
-0.17837383 0.42644987 -0.04478021
-0.21815942 0.27331489 0.07660271
-0.40441045 0.01869318 -0.15300801
-0.44840163 -0.09069216 -0.15051495
-0.34349588 -0.02928500 0.26272675
-0.66077346 -0.79525697 0.13132660
-0.39867848 -0.16251270 0.27389577
-0.54893780 -0.52526850 0.24280842
-0.46036553 0.02385359 -0.26305220
-0.45999023 -0.21890876 -0.07186360
-0.45497692 -0.29842615 0.18986328
-0.55839878 -0.33965451 -0.16353239
-0.43322158 -0.17469177 -0.05585135
-0.41497248 -0.06489037 -0.10743690
-0.66285056 -0.65510565 -0.11387603
-0.46333334 -0.14400907 -0.13696507
-0.42245385 -0.18567809 -0.02683438
-0.10623520 0.63344604 -0.07055064
-0.39102921 -0.14404806 0.33036050
-0.54455924 -0.51469809 0.25695926
-0.64701766 -0.76204747 0.00644848
-0.61046880 -0.67381263 0.05830641
-0.36747414 -0.08717187 0.11757882
-0.37352532 -0.10178024 0.10505278
-0.46101707 -0.31300595 0.13266681
-0.49573109 -0.26582029 -0.10275724
-0.38632059 -0.13266669 0.00731284
-0.44061223 -0.26374003 0.03623074
-0.27429634 0.13779464 0.02048266
-0.43005884 -0.23827399 0.32389212
-0.22912925 0.24681945 0.22968893
-0.39588639 -0.15576997 0.22671285
-0.41677606 -0.20619702 0.10256012
-0.38686860 -0.12721005 -0.00530317
-0.43147287 -0.24168412 0.23766331
-0.29840448 0.07958246 0.15447018
-0.54499698 -0.32902101 -0.14648949
-0.60975695 -0.43409991 -0.18671241
-0.46288309 -0.17510368 -0.11171429
-0.54757565 -0.52197248 0.01106093
-0.52061862 -0.32558379 -0.10300787
-0.50824636 -0.42702785 0.12782338
-0.45051229 -0.28764126 0.04314719
-0.18428805 0.35823935 -0.00246135
-0.46564794 -0.32419249 0.28786629
-0.30098554 0.07335873 0.06190679
-0.56120592 -0.43762869 -0.09197605
-0.15935738 0.49477187 -0.06236716
-0.57483274 -0.45160207 -0.10682457
-0.38322425 -0.12519959 0.19889152
-0.53865135 -0.50042951 0.06397462
-0.29762587 0.08145474 0.24781226
-0.52897912 -0.14423242 -0.26113901
-0.32869074 0.06227447 -0.04376964
-0.67731380 -0.66500133 -0.13350824
-0.71957982 -0.78702575 -0.11782562
-0.37761024 -0.08994365 -0.01700602
-0.15183607 0.43343449 0.04024239
-0.39852428 -0.16213797 0.21554288
-0.45168048 0.09335925 -0.30113852
-0.36871165 0.00144034 -0.07184663
-0.42435041 -0.22447959 0.01789361
-0.35611218 -0.05974034 0.08964111
-0.47490692 -0.10713118 -0.18782386
-0.53346562 -0.40509483 -0.06495627
-0.35273725 -0.05158890 0.18157616
-0.46153715 -0.31426466 0.20577022
-0.14876187 0.54276502 -0.07995455
-0.54720443 -0.52107716 0.03200735
-0.45689374 -0.30305520 0.22375154
-0.40578088 -0.03828157 -0.11090389
-0.17610618 0.37483644 0.10941835
-0.55699128 -0.54470706 0.08605370
-0.49646103 -0.39857391 0.09272708
-0.46544474 -0.32370350 0.33682001
-0.66760534 -0.81175017 0.04297767
-0.27022439 0.35102817 -0.15959114
-0.54405582 -0.31415510 -0.15637101
-0.32719931 0.12614997 -0.09106498
-0.19482905 0.48079133 -0.11859070
-0.13564187 0.55800760 -0.06706174
-0.51711971 -0.44844639 0.04320641
-0.61279643 -0.50848585 -0.13410422
-0.63592035 -0.40508074 -0.25904134
-0.36705744 0.07699618 -0.12799874
-0.22362565 0.39923599 -0.10914652
-0.49173036 -0.21107839 -0.13813116
-0.72479218 -0.81939864 -0.10229826
-0.58693296 -0.16135256 -0.35748467
-0.49424285 -0.39321730 0.05921264
-0.41373783 -0.19887355 0.37386531
-0.30132437 0.22323512 -0.11822927
-0.50304610 -0.17207722 -0.19016752
-0.52089310 -0.10865918 -0.27373400
-0.67970580 -0.84096253 0.11533950
-0.26427978 0.16196190 0.20206138
-0.46194705 -0.12536322 -0.14896926
-0.57520920 -0.58869171 0.21684885
-0.21774258 0.31702814 -0.03349702
-0.59427726 -0.63472039 0.00637530
-0.27251410 0.14208594 0.16217719
-0.45007226 0.08256966 -0.28962594
-0.35575977 0.14106566 -0.15687047
-0.10383325 0.61238503 -0.04947485
-0.23657320 0.22884661 0.25230694
-0.57994878 -0.60013384 0.21987659
-0.50257313 -0.41333017 0.09850022
-0.52520299 -0.12587501 -0.26838985
-0.27254415 0.36918178 -0.17822982
-0.43585110 -0.25224787 0.08972770
-0.48631892 -0.13187405 -0.19002691
-0.53922552 -0.29308501 -0.16375352
-0.44559994 -0.27578813 0.19316895
-0.41048715 -0.19101855 0.20447461
-0.32847327 0.03895775 -0.02506198
-0.21481006 0.28139853 0.10593571
-0.14114228 0.56329393 -0.08162906
-0.40962332 -0.18892442 0.00068275
-0.48497334 -0.37084693 0.25497484
-0.50870001 -0.08179067 -0.27171922
-0.64135504 -0.45320272 -0.23157789
-0.61395562 -0.67698574 -0.00408944
-0.46398488 -0.32017535 0.23684639
-0.42963043 -0.23723826 0.28883958
-0.58650643 -0.61596501 0.15263632
-0.27769259 0.12957382 0.29153016
-0.55239755 -0.38032418 -0.12025385
-0.41346338 -0.19820637 0.26443806
-0.38220772 -0.12275060 0.32058233
-0.18934284 0.36939019 -0.02078619
-0.30981290 0.05203786 0.18730161
-0.35080594 -0.04692960 0.08227845
-0.37078393 -0.09517158 0.36555332
-0.37728700 0.07584564 -0.14647368
-0.53451902 -0.40295899 -0.06862750
-0.33609664 -0.01142680 0.32385495
-0.36768889 -0.08769033 0.11843942
-0.05417788 0.66920191 0.00491380
-0.33022645 0.07192822 -0.05425359
-0.40033942 -0.15881886 -0.00601887
-0.04857967 0.68271333 0.05081238
-0.54838228 -0.17547560 -0.27337888
-0.67253929 -0.60258108 -0.17344113
-0.16757824 0.49514750 -0.07823454
-0.08405464 0.61318851 -0.01263897
-0.50955093 -0.06123349 -0.28945896
-0.34061429 -0.02231362 0.07853251
-0.30131429 0.33123294 -0.20295180
-0.39309517 -0.05732957 -0.07192834
-0.18414846 0.35542038 0.11631687
-0.49216777 -0.38821089 0.13692111
-0.50358117 -0.41577020 0.25005606
-0.37454742 0.03073732 -0.10588942
-0.61783576 -0.51193309 -0.14094517
-0.11553967 0.52105993 0.04784201
-0.44632763 -0.07356499 -0.16002479
-0.03307720 0.73052967 -0.00814600
-0.45278564 -0.29313365 0.13705310
-0.62058651 -0.47646067 -0.17398860
-0.45944360 -0.30921018 0.20081881
-0.26152924 0.16861667 0.02141979
-0.25669730 0.18027301 0.13200089
-0.48203480 -0.32790008 -0.02810321
-0.28743577 0.10606686 0.10535851
-0.31429255 0.04122704 0.13859953
-0.26510346 0.37956318 -0.17228089
-0.25705042 0.17940880 0.27808908
-0.20827445 0.29717514 0.12486856
-0.59860516 -0.64517087 0.05202314
-0.10175793 0.55433297 0.03099722
-0.44042376 -0.26329029 0.15983839
-0.22073501 0.26709843 0.05804743
-0.23788176 0.38677910 -0.12637727
-0.57958966 -0.59926170 0.01591342
-0.38863200 -0.13825770 0.26015902
-0.58146322 -0.25020465 -0.27740738
-0.28266549 0.20131958 -0.06568778
-0.47101891 -0.32991248 -0.00565748
-0.46199095 -0.08190466 -0.18315138
-0.49719924 -0.40036094 0.20678726
-0.49527225 -0.28452843 -0.08720902
-0.41819546 -0.14595868 -0.04993312
-0.52219200 -0.28329995 -0.13916557
-0.40143764 0.12880653 -0.23377824
-0.53109926 -0.48220363 0.27611566
-0.28273809 0.11740290 0.16793610
-0.59978223 -0.64801478 0.20535399
-0.38078320 -0.11930079 0.06883556
-0.49255359 -0.22072203 -0.13212384
-0.37581784 -0.10732693 0.39797425
-0.54688638 -0.30711782 -0.16725449
-0.67237198 -0.57728767 -0.19297016
-0.60447842 -0.65934968 0.04038605
-0.18328176 0.40401047 -0.03646991
-0.21235624 0.40190291 -0.08989162
-0.39362574 0.14592429 -0.23241186
-0.58717209 -0.19077469 -0.33485213
-0.25595385 0.39057332 -0.16358815
-0.22260550 0.42415658 -0.12676822
-0.54827964 -0.52367967 0.24742673
-0.47495496 -0.34665197 0.05901075
-0.40511632 -0.17804734 0.09163293
-0.32621127 0.23573264 -0.17517854
-0.15172699 0.43368903 0.14985678
-0.52648288 -0.03629325 -0.34110260
-0.03694134 0.73852694 -0.02174091
-0.61833286 -0.42229208 -0.21222201
-0.22632116 0.25361151 0.06989761
-0.47135729 -0.00903198 -0.25806972
-0.28736570 0.10623129 0.16443641
-0.64135516 -0.74837673 0.00145311
-0.50296491 -0.41428289 0.27249137
-0.31644496 0.03602268 0.23981613
-0.44458926 -0.27334058 0.01509188
-0.34716332 0.07666660 -0.09005496
-0.26467222 0.26823202 -0.08410686
-0.20101076 0.31470978 0.14003134
-0.29250228 0.09382140 0.28032699
-0.24950644 0.26179296 -0.05032609
-0.25067908 0.19480564 0.08772642
-0.22860211 0.24810894 0.01910421
-0.54947323 -0.27667952 -0.19603752
-0.66209030 -0.79843605 0.03424172
-0.42714131 -0.23122396 0.17102361
-0.55185068 -0.53230065 0.23176356
-0.57333493 -0.31364846 -0.21223035
-0.45953515 -0.30942854 0.13909845
-0.29892811 0.07832424 0.08053325
-0.29245180 0.09396074 0.06228479
-0.65261596 -0.77556354 0.04095484
-0.35887235 -0.03766017 -0.02253522
-0.34767303 0.06006945 -0.07799732
-0.47051263 -0.33593148 0.15898855
-0.51363736 -0.13226375 -0.24146894
-0.48195517 -0.36355928 0.22802243
-0.12821236 0.54612452 -0.04366391
-0.43186897 -0.08098652 -0.12681337
-0.44228619 -0.26779521 0.38353786
-0.38930935 -0.13989066 0.20530912
-0.48867288 -0.13883252 -0.18902604
-0.53025514 -0.48016572 0.26958016
-0.32628593 0.01227686 0.08841804
-0.16725168 0.52807146 -0.10345011
-0.55585164 -0.12070108 -0.33050558
-0.15637185 0.42248365 0.04793771
-0.43453860 -0.24909133 0.37679821
-0.37061253 -0.09474830 0.10933618
-0.33615750 0.25511184 -0.20922570
-0.52482796 -0.23091871 -0.18525872
-0.61895895 -0.69431031 0.07555487
-0.56874728 -0.57309169 0.17744809
-0.15623033 0.42282790 0.01509672
-0.49011728 -0.12930165 -0.19924033
-0.54596561 -0.41722739 -0.07911468
-0.05179422 0.71958625 -0.03501454
-0.49708152 -0.07622034 -0.25408164
-0.29990456 0.07595576 0.22013180
-0.60057455 -0.40342093 -0.19339041
-0.40676039 -0.18201880 0.14565834
-0.33866218 0.12791975 -0.11416764
-0.42102963 0.01883362 -0.18459968
-0.35010421 -0.04523465 0.21159914
-0.54020935 -0.38754722 -0.09149900
-0.36333185 -0.07716685 0.00910933
-0.49699757 -0.39987057 0.12451014
-0.62080514 -0.53701979 -0.12688608
-0.44181320 -0.26664639 0.20043992
-0.52477819 -0.11802626 -0.27374366
-0.67186421 -0.66488075 -0.12328006
-0.36442709 -0.07981685 0.14687479
-0.49918413 -0.40515432 0.23957895
-0.43976119 -0.26169068 0.15936747
-0.52180219 -0.37191176 -0.06889942
-0.71086872 -0.80943602 -0.08374102
-0.24410494 0.21066378 0.25023425
-0.52793694 -0.47456858 0.20574301
-0.40825647 0.11743341 -0.23777100
-0.17529353 0.37680703 0.00108462
-0.35376346 -0.05406966 0.08110226
-0.61307096 -0.68009579 0.13134012
-0.60222578 -0.22434834 -0.33702430
-0.65952492 -0.66028547 -0.10351225
-0.21384510 0.28372249 0.17615172
-0.34235656 -0.02653636 0.28561637
-0.24492536 0.29975042 -0.07143191
-0.41023010 -0.19040252 0.31270641
-0.32018453 0.02699229 0.26947847
-0.16951160 0.53164834 -0.11053763
-0.20227642 0.40297654 -0.07164001
-0.52290595 -0.46242371 0.27089712
-0.41258779 -0.12909979 -0.05253884
-0.38662687 -0.09223329 -0.03228916
-0.27072474 0.20234962 -0.04387676
-0.42401910 0.01961469 -0.19087549
-0.28286409 0.21434902 -0.07628767
-0.08952437 0.58386725 0.02755621
-0.54948741 -0.08684296 -0.34501636
-0.48746705 -0.37686431 0.18407705
-0.27592686 0.36215317 -0.17912260
-0.34542897 -0.03395247 0.26985192
-0.46949527 -0.33076844 -0.00209971
-0.21881253 0.27174234 0.02499779
-0.32776964 0.00868172 0.25330767
-0.37919801 -0.08907162 -0.02069785
-0.60510331 -0.47532228 -0.14555281
-0.32718948 0.01008271 0.24887408
-0.31312773 0.04404267 0.09471870
-0.06726304 0.68131983 -0.03429082
-0.23083447 0.24270122 0.24905431
-0.37716669 0.07294280 -0.14396802
-0.64069879 -0.65529168 -0.07176945
-0.16652280 0.39797863 0.03254853
-0.48183244 -0.36326367 0.24579237
-0.35562751 -0.05857064 0.23312818
-0.26797870 0.15304148 0.08463064
-0.22977117 0.31759790 -0.05672971
-0.21689998 0.27634516 0.20484568
-0.26662049 0.15631323 0.17416248
-0.11794127 0.51526570 0.00240895
-0.47874904 -0.35582036 0.26070774
-0.27093458 0.16932163 -0.01835849
-0.23847412 0.22426134 0.20358512
-0.51989365 -0.09726986 -0.28077728
-0.42005929 0.07622846 -0.22779705
-0.38811859 -0.13702264 0.39096889
-0.42933550 -0.06329030 -0.13589945
-0.17829613 0.49725136 -0.10018813
-0.41458935 -0.20092630 0.30222186
-0.53227812 -0.48504952 0.25828749
-0.28852463 0.10343303 0.16981743
-0.24843299 0.20022225 0.16023391
-0.37127632 -0.07874211 -0.01379714
-0.38144812 -0.12090896 0.13709016
-0.33480671 -0.00830126 0.01999770
-0.14385720 0.45269024 0.12341526
-0.63689590 -0.62342000 -0.08957341
-0.53218651 -0.48482841 0.28601700
-0.42104411 -0.21650101 0.10227623
-0.62321210 -0.70457810 0.08621045
-0.28876340 0.10285000 0.25185525
-0.40511811 -0.17806433 0.39071742
-0.14653295 0.44623145 0.11094188
-0.54605919 -0.51831108 0.00305651
-0.28044158 0.27180395 -0.11678133
-0.65796882 -0.47681707 -0.24451961
-0.43831933 -0.25821051 0.17787956
-0.53818297 -0.48620027 -0.01025407
-0.48396325 -0.36840576 0.19360036
-0.54705226 -0.50824445 -0.00975813
-0.66230065 -0.50720251 -0.22888374
-0.07053325 0.64153022 -0.00926419
-0.66575503 -0.80728322 0.05963568
-0.17251214 0.38351050 0.14224480
-0.57948190 -0.24000356 -0.28165838
-0.59821767 -0.44128782 -0.15921430
-0.28493080 0.11210841 0.17969552
-0.22040674 0.27623791 -0.00653723
-0.10097158 0.63327497 -0.06044557
-0.56719261 -0.56933409 0.05588968
-0.40829742 0.15272573 -0.26554105
-0.36915013 0.07738426 -0.13226740
-0.65416682 -0.63082486 -0.11647850
-0.44250560 -0.04779518 -0.17300478
-0.46871084 -0.33158442 0.22621956
-0.12266596 0.50384945 0.12742242
-0.47570652 -0.34847197 0.18895808
-0.19292630 0.33422878 0.11966331
-0.11710317 0.51728016 0.11323498
-0.38784945 0.16376252 -0.23546688
-0.44496226 -0.27424231 0.04289652
-0.45215386 -0.29160485 0.05382021
-0.41587222 -0.13622022 -0.05317344
-0.65394998 -0.77878404 0.05444871
-0.58449996 -0.14102130 -0.36882854
-0.38390806 -0.12684731 0.12580664
-0.34987280 -0.04467417 0.02058577
-0.34085554 0.07086888 -0.07355693
-0.40240350 0.00237215 -0.13639984
-0.39843020 -0.09343673 -0.05370334
-0.59094387 -0.28153545 -0.27078289
-0.19832519 0.44484526 -0.09700796
-0.55910516 -0.43053821 -0.09356008
-0.30397508 0.06612144 0.31214103
-0.28534192 0.17349353 -0.04892368
-0.34627849 -0.03599736 0.03561407
-0.61079407 -0.43741786 -0.18607359
-0.35712245 -0.01861346 -0.03416513
-0.48959449 -0.38199526 0.06314607
-0.30686647 0.31825683 -0.20328739
-0.23672134 0.22850364 0.06935511
-0.42356700 -0.09911913 -0.09685998
-0.32452425 0.01653227 0.05877793
-0.19644377 0.32573327 0.16614901
-0.46475920 -0.13795081 -0.14441948
-0.22461978 0.40934509 -0.11896188
-0.32029712 0.06625305 -0.03099155
-0.09427760 0.57239372 0.00760034
-0.47321677 -0.34246334 0.24142338
-0.59577787 -0.63834476 0.04436679
-0.32761312 0.00905457 0.31635201
-0.49741468 -0.40088347 0.26446992
-0.36064866 -0.07069624 0.18018331
-0.49077523 -0.38484406 0.02137015
-0.30170181 0.29556790 -0.17570093
-0.63111144 -0.69129968 -0.02535564
-0.44549003 0.09168847 -0.28810105
-0.48776147 -0.04018196 -0.26470181
-0.28405294 0.28760472 -0.13602051
-0.40969804 -0.18911752 0.30068475
-0.32917029 0.06398838 -0.04602288
-0.32926664 0.06520629 -0.04716103
-0.26920778 0.21183319 -0.04844461
-0.60487968 -0.66032076 0.13564856
-0.19313912 0.33372110 0.04372764
-0.01505665 0.76364797 0.00205176
-0.28673679 0.32500824 -0.17045353
-0.41983613 0.12695472 -0.26717719
-0.32848513 0.12406816 -0.09186721
-0.46995360 -0.23536088 -0.07782783
-0.58099604 -0.15133460 -0.35409918
-0.32538202 0.25859919 -0.19155020
-0.46327525 -0.29538307 -0.01808198
-0.20853874 0.37901375 -0.06469997
-0.42715001 -0.23124209 0.10400856
-0.41050535 -0.03115138 -0.12544775
-0.53504962 -0.18466352 -0.24091442
-0.42260814 0.05652940 -0.21716823
-0.36269674 0.17451882 -0.19626044
-0.05690903 0.66260523 0.04556708
-0.28686771 0.22807781 -0.09464408
-0.38220650 -0.12274906 0.38190892
-0.43094853 -0.02125220 -0.17193517
-0.19918275 0.49018261 -0.13420683
-0.45582232 -0.30047110 0.28460112
-0.52311617 -0.43602225 -0.02108516
-0.54823005 -0.08786424 -0.34183329
-0.63339716 -0.43277332 -0.23253334
-0.69352168 -0.68570679 -0.14796354
-0.40996206 -0.18974230 0.00353536
-0.27015293 0.14779221 0.08823074
-0.48365715 -0.32388303 -0.03432825
-0.52620411 -0.47038439 0.18882152
-0.16623373 0.49199119 -0.07321104
-0.35620484 0.06287398 -0.09635964
-0.60962802 -0.67178357 0.07770937
-0.65962464 -0.72504544 -0.05288841
-0.47562957 -0.18853076 -0.12532394
-0.09134783 0.57946461 0.03384466
-0.54927444 -0.43043351 -0.07502050
-0.30642003 0.06023865 0.06466927
-0.22198085 0.40717325 -0.11225885
-0.52632856 -0.31414711 -0.12279749
-0.30329600 0.23510645 -0.13127913
-0.32251352 0.02138251 0.10852865
-0.34965229 -0.04414278 0.20104757
-0.60508007 -0.39937609 -0.20509867
-0.52877051 -0.47658157 0.24837276
-0.54491419 -0.13927823 -0.29521117
-0.49971348 -0.19445971 -0.16629273
-0.54897565 -0.52535266 0.01719729
-0.49281901 -0.38978916 0.28480047
-0.56085771 -0.20536105 -0.27356127
-0.09312563 0.58183980 -0.00522394
-0.03241902 0.73660260 -0.01166440
-0.37240228 -0.09906770 0.07510621
-0.38641530 -0.13290823 0.31152332
-0.65106350 -0.59236175 -0.14077942
-0.39151436 -0.14521456 0.21863107
-0.50819892 -0.42691621 0.19854616
-0.48776299 -0.19143572 -0.14602830
-0.30415836 0.06568086 0.28817716
-0.35273966 0.22363304 -0.21593685
-0.57103598 -0.56284684 -0.01234633
-0.43733063 -0.10546462 -0.11795282
-0.15271498 0.43131474 0.01379287
-0.39877298 0.00582715 -0.13223356
-0.43424416 -0.24837713 0.29614222
-0.64323968 -0.54469335 -0.16336142
-0.27582499 0.30272418 -0.13229807
-0.07521581 0.61841118 0.02207378
-0.42773616 -0.11521938 -0.09212463
-0.56354654 -0.27059823 -0.22746731
-0.34363338 -0.02961310 0.07479201
-0.42768633 -0.23254395 0.26900062
-0.38375971 0.13277201 -0.20340271
-0.51689947 -0.44792005 0.16975448
-0.41749832 -0.06685073 -0.11068327
-0.43004310 -0.23823453 0.28887355
-0.13230082 0.50321037 -0.01773559
-0.43193036 -0.24279469 0.38142279
-0.53527039 -0.49227333 0.27450663
-0.24160211 0.35045952 -0.10492613
-0.28787288 0.27139074 -0.13053410
-0.09856453 0.56630665 -0.00333854
-0.48322082 -0.00852166 -0.28094307
-0.34423205 -0.03105812 0.06747471
-0.19087268 0.33918798 0.10232756
-0.24619640 0.34919402 -0.11263605
-0.62481105 -0.52574348 -0.14332199
-0.40248621 -0.17170613 0.29116032
-0.38658774 -0.13331664 0.12396946
-0.30880961 0.08409819 -0.02323324
-0.39102477 -0.14403646 0.30963778
-0.27248594 0.27127764 -0.10129811
-0.12863329 0.48944512 0.10368910
-0.46730167 -0.32817930 0.15385516
-0.36310616 -0.07663476 0.34978953
-0.23193958 0.24004105 0.15191658
-0.41242906 -0.01710155 -0.14011088
-0.61253613 -0.67880464 0.09514985
-0.51564556 -0.29271677 -0.11937623
-0.47152877 -0.00291816 -0.26319182
-0.33598307 -0.01114786 0.26380995
-0.49679935 -0.39939830 0.27320796
-0.55032992 -0.07221019 -0.35809320
-0.55586910 -0.12027492 -0.33087301
-0.49993297 -0.40696338 0.30875665
-0.55702376 -0.38859040 -0.12253106
-0.45339519 0.04361867 -0.26535723
-0.66228175 -0.79889822 0.13607445
-0.38310266 0.01192040 -0.10733058
-0.60459000 -0.65962154 0.19876467
-0.57616472 -0.32006633 -0.21255498
-0.43392020 0.00689996 -0.19965427
-0.68312347 -0.80278945 -0.03640030
-0.34599847 -0.03532132 0.03588891
-0.42656010 -0.07548175 -0.12107631
-0.43119028 -0.24099775 0.14025319
-0.63774097 -0.54642951 -0.15158340
-0.62528485 -0.70958114 0.04052582
-0.55233437 -0.53346449 0.09210721
-0.19076048 0.38893998 -0.03881156
-0.34093687 -0.02311145 0.31681937
-0.39003742 -0.14165568 0.39891088
-0.56814724 -0.44408688 -0.10005728
-0.63664931 -0.73701745 0.04017699
-0.49807963 -0.38657033 -0.01246150
-0.28453660 0.11307129 0.03963506
-0.38510269 -0.12973419 0.19043587
-0.10732722 0.54088587 0.05321682
-0.67482704 -0.65577871 -0.13603415
-0.46243659 -0.31643587 0.19943079
-0.35983232 -0.06871855 0.01726267
-0.34308353 -0.02829466 0.32652789
-0.57062906 -0.28357986 -0.23069762
-0.42828953 -0.23399688 0.19079676
-0.55120277 -0.06390858 -0.36626056
-0.49084604 -0.38502276 0.20324913
-0.53349328 -0.48797542 0.03269829
-0.62106746 -0.53055316 -0.13245688
