ply
format ascii 1.0
element vertex 1152
property float x
property float y
property float z
end_header
-0.51369399 -0.72872400 -0.00000283
-0.04236504 -0.23687661 0.00000186
-0.58918536 -0.12295304 -0.04765465
-0.08476030 0.02385998 -0.00000891
-0.53496385 -0.73903912 -0.00000300
-0.63481158 -0.73258108 0.16092914
-0.71401978 -0.05298138 -0.08308732
-0.64557707 0.09474462 -0.08141627
-0.03110920 0.14061470 -0.00000790
-0.62432373 0.03258426 -0.07058945
-0.08995252 -0.37606969 0.00000105
-0.10407991 -0.72417951 -0.00000034
-0.02505315 -0.12958711 0.00000236
-0.35871273 -0.34319627 -0.00000045
-0.68422699 0.04240776 -0.08532585
-0.07668881 0.11578957 -0.00000708
-0.16240279 -0.51621461 0.00000008
-0.29578400 0.41299632 -0.03120498
-0.49049610 -0.53840244 -0.00000198
-0.09894419 0.15543520 -0.00000552
-0.50639343 0.28023586 -0.06705292
-0.10467218 -0.39793959 0.00000088
-0.49352038 -0.23575160 -0.01485504
-0.68560451 0.08327000 -0.08954201
-0.31062856 -0.35051945 -0.00000019
-0.03843109 0.35495242 -0.00000285
-0.05043755 -0.39608592 0.00000121
-0.03455036 -0.41790038 0.00000122
-0.35753340 -0.33732349 -0.00000042
-0.14864028 -0.39856413 0.00000061
-0.54291141 -0.28212309 -0.02180808
-0.57659668 -0.46674216 -0.01195240
-0.08474348 -0.35308474 0.00000116
-0.08319421 0.34188941 -0.00000180
-0.66685480 -0.23303270 -0.05504313
-0.32481614 -0.24250278 0.00000013
-0.02668816 0.16291706 -0.00000753
-0.13300698 0.54312032 -0.00612395
-0.01315328 0.29817283 -0.00000489
-0.65836787 -0.05082768 -0.07047305
-0.27407864 0.17479892 -0.00347760
-0.04934207 0.39185894 -0.00000169
-0.39944926 -0.55013478 -0.00000147
-0.50186640 0.08248310 -0.04714170
-0.09763224 0.26505151 -0.00000309
-0.07184802 -0.50226212 0.00000068
-0.56743079 -0.63230103 -0.00000280
-0.45159405 0.16436858 -0.04337418
-0.67969978 -0.69506747 -0.01391738
-0.68981475 -0.73164487 -0.01275724
-0.06062646 0.51412833 0.00000140
-0.19782408 -0.59927237 -0.00000044
-0.31173381 -0.21880545 0.00000030
-0.60463208 -0.12362428 -0.05114884
-0.41635963 -0.38426867 -0.00000095
-0.70162624 -0.32456350 -0.05431961
-0.54049093 -0.55631173 -0.00000235
-0.34234020 -0.39678109 -0.00000055
-0.08251907 0.44424853 0.00000049
-0.12379459 0.52745932 -0.00250753
-0.29357955 -0.46162564 -0.00000050
-0.08379500 -0.37040013 0.00000111
-0.18517447 0.49261373 -0.01332201
-0.48774943 -0.72684824 -0.00000267
-0.00632882 -0.29027948 0.00000187
-0.59699440 -0.34882247 -0.02790236
-0.04599017 -0.79482418 -0.00000026
-0.73222822 -0.28369626 -0.06526828
-0.08052122 0.19625571 -0.00000515
-0.38092053 0.03806489 -0.01504293
-0.34185222 -0.17340125 0.00000029
-0.77164042 -0.06072136 -0.09562209
-0.74994314 -0.62152040 -0.03711512
-0.10504981 -0.36080226 0.00000101
-0.40184316 -0.26531357 -0.00000042
-0.03697958 -0.24421097 0.00000186
-0.54011339 -0.21168226 -0.02788458
-0.30175152 -0.39112607 -0.00000029
-0.06593741 -0.43135417 0.00000098
-0.61723006 -0.69013661 0.18871593
-0.73394281 -0.08041993 -0.08505869
-0.43383288 0.24204268 -0.04669400
-0.50542551 0.13031234 -0.05252515
-0.45513681 -0.40170825 -0.00000125
-0.06335297 -0.05420753 0.00000241
-0.20609501 0.15888432 -0.00000221
-0.58292270 -0.70678282 -0.00000317
-0.50405216 -0.74901754 -0.00000285
-0.17851485 0.51727724 -0.01414118
-0.07679837 0.28170261 -0.00000334
-0.30696815 0.33934757 -0.02675418
-0.54236424 -0.27496091 -0.02236540
-0.27712545 -0.38267303 -0.00000011
-0.25293323 -0.32874602 0.00000024
-0.65045810 -0.59304583 -0.01691568
-0.49375048 -0.62678677 -0.00000233
-0.00845887 -0.73119318 0.00000021
-0.17463754 0.28715459 -0.00000027
-0.11934567 0.66778725 -0.01487197
-0.42719805 -0.39817002 -0.00000107
-0.09552864 -0.65392095 -0.00000003
-0.12057743 -0.46812618 0.00000052
-0.19779120 -0.04477453 0.00000164
-0.55104679 -0.03815906 -0.04695973
-0.42636701 -0.22355364 -0.00054969
-0.45484591 0.19908425 -0.04743563
-0.51907825 -0.11399648 -0.03235962
-0.04048341 0.00073958 -0.00001076
-0.29511759 -0.78540236 -0.00000173
-0.25558650 0.05566101 -0.00000303
-0.26960477 -0.01835371 0.00000130
-0.35393268 -0.17088641 0.00000022
-0.27970532 0.49280876 -0.03511639
-0.44438469 -0.17468080 -0.00936334
-0.15263927 0.05960111 -0.00000605
-0.20081314 -0.00741285 0.00000176
-0.07774609 -0.46011829 0.00000081
-0.17877994 -0.22474609 0.00000108
-0.49854758 -0.42871371 -0.00000162
-0.37839052 0.32976976 -0.04229291
-0.25097558 -0.24136341 0.00000058
-0.23860437 -0.40166354 0.00000005
-0.61174315 -0.21628773 -0.04394552
-0.36646011 0.40053895 -0.04629705
-0.39424229 -0.20556290 -0.00000015
-0.33424431 -0.73884642 -0.00000179
-0.21415642 -0.57916451 -0.00000046
-0.77133006 -0.37122276 -0.06592388
-0.29071543 -0.33769342 -0.00000002
-0.01121854 -0.75771475 0.00000009
-0.47057590 -0.11266344 -0.02131399
-0.08820871 0.20366023 -0.00000476
-0.12952426 0.10465437 -0.00000574
-0.37488985 -0.06576972 -0.00374643
-0.69664216 -0.51514083 -0.03498772
-0.00464014 0.75500029 0.00000513
-0.75735813 -0.11504468 -0.08714887
-0.67232937 -0.67001677 -0.01460975
-0.47964638 -0.78872234 -0.00000285
-0.62221676 -0.70217526 0.18485191
-0.36383516 -0.25876346 -0.00000017
-0.44730115 0.06410598 -0.03281881
-0.37603420 -0.22444282 -0.00000011
-0.57665062 -0.71458435 -0.00000316
-0.31747779 -0.61912441 -0.00000124
-0.00419551 -0.55211079 0.00000094
-0.25750211 -0.09281593 0.00000110
-0.10395043 0.24018173 -0.00000346
-0.48298317 -0.03925980 -0.03117583
-0.04183027 0.47580594 -0.00000003
-0.61451977 0.03466404 -0.06852949
-0.38053828 0.30252135 -0.04018778
-0.60823911 -0.77640682 -0.00000358
-0.02795511 -0.47370452 0.00000105
-0.02422554 0.06719409 -0.00000976
-0.69952899 0.06564453 -0.09106788
-0.32503277 -0.10872107 0.00000063
-0.64511746 -0.75746095 0.12152165
-0.00649237 -0.09829756 0.00000264
-0.63777596 -0.30925828 -0.04107163
-0.56152761 -0.52588922 -0.00283769
-0.11394939 0.21149722 -0.00000380
-0.35936069 -0.62507039 -0.00000151
-0.64711893 0.06409421 -0.07884696
-0.58351755 -0.76928508 -0.00000341
-0.16412896 0.46884853 -0.00620651
-0.32079032 -0.29092374 -0.00000003
-0.24097127 -0.15928482 0.00000095
-0.12677789 0.04116019 -0.00000725
-0.61213553 -0.53803879 -0.01333630
-0.57419509 -0.44119516 -0.01383673
-0.23134072 0.07958105 -0.00000323
-0.44359025 -0.09480162 -0.01680195
-0.70741612 -0.27171147 -0.06069617
-0.56569862 0.17170043 -0.07035845
-0.32660502 0.32777110 -0.03017310
-0.08206502 0.00730836 -0.00000936
-0.34586254 0.20531502 -0.02292514
-0.70601392 -0.41823921 -0.04639235
-0.61528683 -0.37301439 -0.02980788
-0.77493149 -0.25658405 -0.07769183
-0.12257419 -0.30927187 0.00000110
-0.57496887 -0.54921460 -0.00370840
-0.24559239 -0.62264574 -0.00000082
-0.21135429 0.38646692 -0.00922478
-0.28329131 0.46309403 -0.03310724
-0.28054345 -0.43838742 -0.00000034
-0.22515197 -0.73232114 -0.00000111
-0.34258190 -0.50096250 -0.00000095
-0.12495878 0.51404995 -0.00149627
-0.64694309 0.10149338 -0.08237487
-0.26045522 0.48670590 -0.03009971
-0.15773711 0.06921336 -0.00000568
-0.58871323 -0.33163828 -0.02763436
-0.02016173 -0.72240525 0.00000017
-0.10102762 0.28060347 -0.00000264
-0.02471332 -0.10525952 0.00000246
-0.41868743 -0.51238239 -0.00000145
-0.54397678 -0.26805514 -0.02339577
-0.53921682 -0.47035101 -0.00299738
-0.24969599 -0.78867728 -0.00000146
-0.71327591 -0.22140694 -0.06684578
-0.54258567 -0.07965494 -0.04105137
-0.43990764 -0.69341648 -0.00000226
-0.20891941 0.58452982 -0.02756189
-0.74476290 -0.73480368 -0.02511284
-0.35549620 -0.00157158 -0.00540440
-0.45737553 0.28753561 -0.05645787
-0.64267802 -0.56056148 -0.01822297
-0.17920095 -0.73978043 -0.00000086
-0.60717642 -0.67973238 -0.00000321
-0.58070540 -0.51300651 -0.00848460
-0.00823067 0.26101014 -0.00000588
-0.42468455 -0.47198671 -0.00000133
-0.55747467 -0.02079042 -0.05009766
-0.04652939 0.50591153 0.00000079
-0.00212265 -0.38827550 0.00000153
-0.00195827 -0.01345604 0.00000294
-0.36508837 -0.57610160 -0.00000136
-0.06321068 -0.67588729 0.00000008
-0.26166606 0.52767599 -0.03428776
-0.30384085 0.02230905 -0.00000233
-0.68832844 -0.40039346 -0.04402113
-0.79024452 -0.68889499 -0.03996970
-0.32188931 -0.74144655 -0.00000172
-0.04351811 -0.70107204 0.00000011
-0.30411240 -0.05032055 0.00000098
-0.51850879 -0.15259103 -0.02854597
-0.69992733 -0.29404563 -0.05684009
-0.40738675 0.31538972 -0.04760032
-0.11385544 -0.34118891 0.00000103
-0.63863879 -0.33171198 -0.03912800
-0.11016668 0.29577208 -0.00000202
-0.45843947 -0.35178524 -0.00000109
-0.11791637 -0.01677098 0.00000223
-0.15416062 0.53048569 -0.00979130
-0.32749590 0.02233783 -0.00123565
-0.29018506 -0.25314471 0.00000030
-0.63008809 -0.74829155 -0.00000361
-0.31487045 0.41793740 -0.03607311
-0.56920922 -0.00381507 -0.05442046
-0.46728361 -0.06622810 -0.02498618
-0.34957090 -0.34584299 -0.00000041
-0.13814037 0.09607047 -0.00000567
-0.72890902 0.03346743 -0.09476559
-0.02162831 0.63788718 0.00000301
-0.54531717 -0.71135521 -0.00000296
-0.12339368 0.66711068 -0.01573990
-0.06114250 -0.14878447 0.00000207
-0.68491960 0.09552991 -0.09055400
-0.20896025 -0.63029480 -0.00000062
-0.72496897 -0.54511905 -0.03865237
-0.47109807 -0.28017837 -0.00545097
-0.27795306 -0.69421262 -0.00000128
-0.49449134 -0.26960617 -0.01184850
-0.34613290 0.30479056 -0.03247879
-0.37977615 0.32046533 -0.04172432
-0.03064010 -0.59550881 0.00000058
-0.42344970 0.22134925 -0.04232772
-0.52171469 -0.11939884 -0.03245148
-0.70833558 -0.11916170 -0.07546339
-0.45317820 -0.63001662 -0.00000210
-0.59088075 -0.75327033 -0.00000339
-0.40557474 -0.34839314 -0.00000075
-0.25222746 -0.48945361 -0.00000036
-0.45626676 -0.13711686 -0.01568458
-0.64286631 -0.20256235 -0.05242453
-0.45248511 -0.58415347 -0.00000192
-0.09421225 0.36138758 -0.00000103
-0.20018925 -0.51888263 -0.00000015
-0.20644473 -0.41703877 0.00000019
-0.78951651 -0.41283378 -0.06614267
-0.16667101 0.14838985 -0.00000363
-0.71442395 -0.23707578 -0.06561521
-0.74687278 -0.52404422 -0.04570867
-0.72421813 -0.66802722 -0.02675200
-0.67964923 -0.64266300 -0.01890586
-0.10224078 -0.24310181 0.00000147
-0.30717221 -0.31394520 -0.00000003
-0.12595649 -0.48320350 0.00000043
-0.28688249 0.07153270 -0.00000173
-0.73802549 -0.07279847 -0.08672636
-0.59361446 -0.63312483 0.17738475
-0.05157794 -0.73749101 -0.00000008
-0.04166771 0.44790727 -0.00000066
-0.70676249 -0.37602270 -0.05059285
-0.49806330 -0.72341573 -0.00000272
-0.54944497 0.01601926 -0.05176013
-0.49771711 0.21760650 -0.05907857
-0.64502758 -0.66198397 -0.00908705
-0.24673314 0.08009425 -0.00000275
-0.62494451 -0.52592713 -0.01744255
-0.15002011 0.48910305 -0.00488901
-0.46832776 -0.52568424 -0.00000180
-0.58010435 -0.13737097 -0.04418710
-0.73266315 -0.73266250 -0.02253003
-0.63904756 -0.33977976 -0.03845237
-0.32665232 -0.37177622 -0.00000037
-0.76187724 -0.13237225 -0.08653657
-0.30607456 0.05454143 -0.00000154
-0.49047172 -0.46798545 -0.00000172
-0.18515563 -0.09504135 0.00000153
-0.39240468 -0.79440320 -0.00000235
-0.25575599 -0.45840445 -0.00000026
-0.28218833 -0.40092430 -0.00000021
-0.74275130 -0.12089937 -0.08322547
-0.22101721 0.41336441 -0.01401710
-0.16321261 -0.29482561 0.00000091
-0.41613907 -0.31508335 -0.00000069
-0.46838850 0.23787712 -0.05425665
-0.09814382 0.37943548 -0.00000050
-0.31853688 0.07885866 -0.00456477
-0.41256234 -0.15495415 -0.00391507
-0.30004612 0.37519473 -0.02857998
-0.38972625 -0.01643614 -0.01187122
-0.18474358 0.03363755 -0.00000567
-0.51091450 0.18103628 -0.05862936
-0.33112440 0.08579551 -0.00812626
-0.63250488 0.14251639 -0.08296312
-0.27478370 0.05918634 -0.00000238
-0.27006042 -0.38610482 -0.00000008
-0.66551399 -0.65379167 -0.01458789
-0.12900296 -0.60548192 -0.00000005
-0.77100277 -0.39667287 -0.06342015
-0.01957593 0.19625290 -0.00000699
-0.04049313 0.55336368 0.00000167
-0.27664685 0.43381739 -0.02878324
-0.29990795 0.44907874 -0.03559773
-0.56307822 -0.51663339 -0.00407802
-0.21288919 0.46079281 -0.01667010
-0.47086367 -0.36848858 -0.00000122
-0.43897930 -0.38932499 -0.00000111
-0.20575856 0.06746447 -0.00000427
-0.36359286 -0.35829926 -0.00000054
-0.41806927 0.15528412 -0.03478476
-0.15316828 -0.37034103 0.00000069
-0.70961958 -0.05527402 -0.08185497
-0.33689123 -0.76966906 -0.00000192
-0.23556559 0.17592864 -0.00000093
-0.22880729 -0.57459724 -0.00000054
-0.35326219 -0.15321590 0.00000029
-0.15572877 0.08434389 -0.00000540
-0.58800876 -0.61959189 0.20235720
-0.26845428 -0.20060478 0.00000063
-0.20632000 0.04308803 -0.00000480
-0.74561566 -0.39939880 -0.05731227
-0.69811571 -0.70199066 -0.01749880
-0.19483450 0.41103539 -0.00776353
-0.11138109 0.65538126 -0.01185357
-0.53983963 -0.38150159 -0.01161835
-0.46641582 0.25779545 -0.05570272
-0.21126956 -0.11053666 0.00000131
-0.62649769 -0.71251005 0.12437743
-0.10577251 0.59746248 -0.00503533
-0.57656538 -0.66485977 -0.00000297
-0.03671042 0.66425604 0.00000405
-0.11236209 0.40538174 0.00000051
-0.70970738 -0.06518034 -0.08092998
-0.63893920 -0.26627323 -0.04544097
-0.20408323 0.52060133 -0.02034817
-0.23380326 -0.20423758 0.00000082
-0.39276084 -0.12859918 -0.00186830
-0.57511759 -0.59237516 -0.00000269
-0.70414656 -0.19879566 -0.06690022
-0.31440368 0.01195569 -0.00000224
-0.51230007 0.00454733 -0.04210898
-0.69619226 -0.31300834 -0.05417039
-0.10446215 -0.49533841 0.00000051
-0.16977139 -0.32171363 0.00000077
-0.79268610 -0.45721614 -0.06263798
-0.33450556 0.12691210 -0.01282824
-0.04967474 -0.57595009 0.00000054
-0.15426949 -0.67735130 -0.00000047
-0.63740838 -0.73885006 0.17388903
-0.48951393 0.07395038 -0.04348208
-0.38266638 -0.01537010 -0.01034664
-0.59390199 -0.63381898 0.18942446
-0.77783883 -0.03924184 -0.09909939
-0.46851644 0.29872966 -0.06009232
-0.32423010 -0.70382345 -0.00000160
-0.78149933 -0.15122391 -0.08925773
-0.02484105 0.19798867 -0.00000680
-0.62435788 -0.00829812 -0.06669656
-0.35602897 -0.65848297 -0.00000162
-0.32051450 0.46080801 -0.04146372
-0.38513505 -0.25583073 -0.00000028
-0.40661389 0.17565192 -0.03408932
-0.18731715 -0.35432178 0.00000054
-0.75915545 -0.58616561 -0.04261054
-0.54174924 0.09010308 -0.05705602
-0.33278179 -0.37307453 -0.00000041
-0.30596799 -0.35039583 -0.00000016
-0.72485912 -0.45298111 -0.04741850
-0.22873060 -0.14184006 0.00000109
-0.19155084 0.59135836 -0.02421248
-0.30249175 -0.22193857 0.00000034
-0.07259407 0.24181433 -0.00000437
-0.31303987 0.21359552 -0.01615431
-0.59636205 0.02001428 -0.06294895
-0.24687368 0.19336300 -0.00000020
-0.34347633 -0.66527933 -0.00000157
-0.67803931 -0.11495708 -0.06888564
-0.67359954 -0.82622111 0.10924339
-0.11938190 0.46878165 0.00000215
-0.33387735 0.17890579 -0.01764446
-0.36323836 0.17694785 -0.02422114
-0.13683584 -0.33874822 0.00000090
-0.51909119 0.03288280 -0.04637697
-0.68556213 -0.34520197 -0.04864994
-0.11048486 -0.71069044 -0.00000033
-0.18377332 0.38219693 -0.00246391
-0.52139175 0.23026599 -0.06574007
-0.49240816 0.16644748 -0.05297433
-0.58846802 0.17423990 -0.07584582
-0.51242000 -0.46356302 -0.00000183
-0.35973829 0.30242363 -0.03538704
-0.56444740 -0.75594366 -0.00000324
-0.65792626 -0.78756428 -0.00007620
-0.14485583 0.56406868 -0.01085217
-0.23059309 -0.59595460 -0.00000063
-0.09189763 -0.57365274 0.00000029
-0.08187175 0.49157423 0.00000153
-0.15710126 -0.40604863 0.00000053
-0.24591498 0.41315341 -0.01973232
-0.20824862 -0.67421752 -0.00000079
-0.12508865 -0.75229901 -0.00000058
-0.36487073 0.05637079 -0.01309241
-0.30650866 0.35979527 -0.02859933
-0.24541377 -0.74783313 -0.00000129
-0.24925891 0.44015831 -0.02307927
-0.07563067 -0.37495342 0.00000114
-0.16238953 -0.79457092 -0.00000096
-0.35387015 -0.53135318 -0.00000113
-0.66726810 -0.47009265 -0.03251945
-0.14812207 -0.02909771 0.00000200
-0.48212895 -0.61922747 -0.00000223
-0.16334045 0.19136544 -0.00000277
-0.38528928 -0.68474346 -0.00000189
-0.24923249 0.27358693 -0.00717991
-0.00025472 -0.26499075 0.00000200
-0.77989662 -0.65294909 -0.04101594
-0.72329974 -0.22483204 -0.06882804
-0.57977879 -0.75188738 -0.00000332
-0.48433191 -0.19397447 -0.01672455
-0.05218209 -0.36261064 0.00000133
-0.00507979 -0.56708431 0.00000084
-0.21512954 0.44057679 -0.01525729
-0.27772361 0.48286599 -0.03371121
-0.05204168 0.64675570 0.00000412
-0.52537960 -0.46483812 -0.00033590
-0.41628155 -0.32654759 -0.00000074
-0.23472071 0.12664466 -0.00000207
-0.41740534 -0.45429486 -0.00000122
-0.00081828 -0.02578324 0.00000290
-0.14212890 -0.28529233 0.00000107
-0.20696688 0.26066878 0.00000011
-0.15168040 -0.57418084 -0.00000007
-0.64675701 -0.71807146 -0.00413390
-0.13937989 0.46334735 0.00000263
-0.48883107 0.18952586 -0.05435233
-0.13856237 0.11948794 -0.00000513
-0.45489368 -0.01589313 -0.02693475
-0.62947369 -0.68445152 -0.00336040
-0.00097170 -0.07204298 0.00000273
-0.39534312 -0.53305572 -0.00000139
-0.63548732 -0.41640979 -0.03032065
-0.62469494 -0.70815796 0.17292015
-0.36147612 0.40371105 -0.04545162
-0.16636764 -0.46469161 0.00000025
-0.07297955 0.59020716 0.00000348
-0.76077068 -0.30099055 -0.07019287
-0.21740715 -0.31988439 0.00000049
-0.01173298 0.67536408 0.00000355
-0.65164387 -0.77321684 0.12028257
-0.59300482 -0.49803406 -0.01274643
-0.38395274 -0.06182775 -0.00621025
-0.10230717 0.16179997 -0.00000527
-0.29230595 0.03990654 -0.00000228
-0.50106543 -0.41279423 -0.00000157
-0.42272910 -0.16468389 -0.00532869
-0.22132994 -0.07565063 0.00000138
-0.03765890 -0.77619004 -0.00000014
-0.65708631 -0.05618422 -0.06966675
-0.52308261 -0.70833969 -0.00000281
-0.65578151 -0.35873726 -0.04049833
-0.44481954 -0.30714649 -0.00000084
-0.32959238 0.31720695 -0.02985329
-0.64798003 -0.01649286 -0.07135618
-0.43430665 -0.50169677 -0.00000150
-0.33223629 0.34502104 -0.03311619
-0.12773114 0.10034726 -0.00000589
-0.28703082 0.11805759 -0.00104729
-0.07880523 -0.76304674 -0.00000034
-0.50154537 -0.58944488 -0.00000224
-0.09284944 0.14385144 -0.00000596
-0.66582304 -0.80744749 0.06414197
-0.40604591 0.28510273 -0.04440163
-0.05950729 -0.26721543 0.00000164
-0.41188028 -0.66888040 -0.00000199
-0.50215238 -0.53411138 -0.00000203
-0.37588978 0.00984203 -0.01119121
-0.17869048 -0.12207863 0.00000146
-0.62058765 -0.64472681 -0.00510375
-0.46351552 0.21226022 -0.05068991
-0.23307402 0.30183098 -0.00615259
-0.35233968 0.42388359 -0.04527173
-0.09791565 -0.11987475 0.00000196
-0.27322471 0.19172221 -0.00489561
-0.25122494 0.28861257 -0.00907255
-0.02731577 0.52606738 0.00000066
-0.11464793 0.02149890 -0.00000806
-0.37790582 0.20940988 -0.03069722
-0.52007288 -0.47762030 -0.00000193
-0.35909003 0.00579793 -0.00693542
-0.19076979 -0.20760678 0.00000107
-0.33946675 0.09303467 -0.01073869
-0.75196326 -0.33200619 -0.06520474
-0.18171348 -0.50251621 0.00000002
-0.23286892 0.54067093 -0.02889407
-0.05133793 0.70247263 -0.00251544
-0.10099935 0.45653722 0.00000132
-0.26423422 -0.14197721 0.00000087
-0.35148364 -0.46490610 -0.00000086
-0.46555021 -0.15161499 -0.01643976
-0.31506878 0.21664599 -0.01691274
-0.34847388 -0.73661333 -0.00000187
-0.01093655 -0.24102297 0.00000203
-0.19441345 -0.78472352 -0.00000112
-0.08353846 -0.09851159 0.00000213
-0.19227456 0.01777458 -0.00000580
-0.46749747 -0.74504811 -0.00000262
-0.64441210 -0.21785060 -0.05132190
-0.38972148 -0.29720360 -0.00000047
-0.47556871 -0.47182408 -0.00000164
-0.30687726 0.21682239 -0.01504260
-0.35339260 -0.41918564 -0.00000070
-0.77769047 -0.42173827 -0.06256899
-0.29316410 -0.08316285 0.00000092
-0.59324139 0.15615945 -0.07522027
-0.22800085 -0.69113177 -0.00000097
-0.58123314 -0.20336373 -0.03815048
-0.24330018 -0.62679774 -0.00000082
-0.44595310 0.09240662 -0.03520857
-0.31572846 -0.58912051 -0.00000111
-0.02457027 -0.36360708 0.00000149
-0.47117466 -0.61726171 -0.00000216
-0.03950015 -0.33709383 0.00000150
-0.70013517 -0.16170441 -0.06951520
-0.49900922 -0.56474650 -0.00000213
-0.12605371 -0.45351535 0.00000054
-0.19514476 -0.22189923 0.00000099
-0.56537575 -0.69828582 -0.00000303
-0.04639487 0.61962110 0.00000334
-0.35096160 0.09432640 -0.01350985
-0.35744947 -0.22697809 -0.00000001
-0.25241318 -0.29022184 0.00000039
-0.30645242 -0.12629153 0.00000068
-0.68812776 0.09255420 -0.09100909
-0.12108000 0.01510164 -0.00000801
-0.23873717 -0.59279191 -0.00000066
-0.36482576 -0.67548162 -0.00000173
-0.02401427 -0.34939614 0.00000154
-0.73315543 -0.44639659 -0.04995778
-0.59601915 0.08783319 -0.06934084
-0.40145972 -0.25348073 -0.00000037
-0.34183618 -0.08607736 0.00000061
-0.03305760 -0.58549833 0.00000060
-0.27750573 -0.53541285 -0.00000068
-0.03294531 -0.66800183 0.00000030
-0.49492744 -0.60066706 -0.00000224
-0.73132694 -0.76517498 -0.01912003
-0.05958371 -0.07108192 0.00000237
-0.10532756 0.38914195 -0.00000007
-0.55530351 -0.18534577 -0.03389660
-0.65348953 -0.22245386 -0.05297373
-0.66820425 -0.76699847 -0.00440606
-0.13038535 0.11364659 -0.00000551
-0.61345154 -0.52733070 -0.01466114
-0.27078161 0.04447698 -0.00000283
-0.42014498 -0.47185722 -0.00000131
-0.47353473 -0.15929605 -0.01754616
-0.32857284 0.36966059 -0.03462325
-0.64067566 -0.01549742 -0.06976855
-0.50296050 0.26221690 -0.06454289
-0.57112408 0.16780175 -0.07123624
-0.64359570 -0.08916365 -0.06341240
-0.11997961 0.21592747 -0.00000352
-0.34314147 -0.14935640 0.00000037
-0.26692706 -0.42997912 -0.00000022
-0.27923256 -0.55518597 -0.00000077
-0.32761416 -0.74748349 -0.00000178
-0.34448779 0.33683723 -0.03515754
-0.38689342 -0.58916515 -0.00000154
-0.62687123 -0.63357455 -0.00761528
-0.36467829 -0.74525231 -0.00000200
-0.55687565 0.22866006 -0.07376075
-0.40734699 -0.76155680 -0.00000231
-0.12988603 0.42878953 0.00000157
-0.11939619 -0.54103035 0.00000025
-0.44497550 -0.40229434 -0.00000119
-0.45231935 -0.61505431 -0.00000204
-0.41992828 -0.57626033 -0.00000170
-0.33208442 -0.15269835 0.00000042
-0.30600879 -0.32340184 -0.00000006
-0.71791112 0.00052026 -0.08908853
-0.30792552 0.07386449 -0.00164386
-0.30419904 0.14539151 -0.00761014
-0.37463090 0.21288459 -0.03027436
-0.28395450 0.50936747 -0.03767515
-0.38187188 0.00463722 -0.01207261
-0.45570624 -0.17337780 -0.01209566
-0.14718156 0.58338034 -0.01323053
-0.68987799 0.03260145 -0.08569193
-0.40031618 -0.26210636 -0.00000040
-0.41938373 -0.22269735 -0.00000037
-0.18254666 0.36687198 -0.00071913
-0.04895414 -0.30260843 0.00000157
-0.69889420 -0.57594436 -0.02970496
-0.03534728 0.30115956 -0.00000416
-0.50204641 0.14354897 -0.05300972
-0.65859514 -0.78999805 0.02871114
-0.13305663 -0.11249423 0.00000178
-0.66470432 -0.35251987 -0.04314698
-0.03375752 0.45417631 -0.00000076
-0.42128804 0.30309111 -0.04962910
-0.22195767 -0.43670878 0.00000002
-0.76734602 -0.47609967 -0.05499925
-0.00661598 -0.68453294 0.00000044
-0.64920068 -0.76731855 0.13880086
-0.13613698 0.38703665 0.00000082
-0.42448995 0.09348715 -0.03036749
-0.62618792 -0.48060980 -0.02205289
-0.24134037 0.36505133 -0.01408892
-0.02404924 -0.26547125 0.00000186
-0.25317743 -0.18511856 0.00000078
-0.15886576 0.63220650 -0.02058072
-0.58788872 -0.44978303 -0.01617175
-0.29906768 0.26535100 -0.01787393
-0.17077158 0.06268446 -0.00000544
-0.43751743 -0.41195861 -0.00000119
-0.08495910 0.44454896 0.00000057
-0.58596736 -0.56985754 -0.00427234
-0.36489743 -0.62598670 -0.00000155
-0.75619167 -0.54665238 -0.04569805
-0.60915530 -0.67064285 0.18572102
-0.59435803 -0.45758846 -0.01691724
-0.37965024 -0.50025201 -0.00000117
-0.12917517 -0.38256323 0.00000079
-0.34003136 -0.78259271 -0.00000199
-0.05145784 -0.14014366 0.00000216
-0.02088381 -0.68179291 0.00000032
-0.54794616 -0.33944854 -0.01749819
-0.75298738 0.02504173 -0.09950827
-0.31210572 -0.17151482 0.00000047
-0.77399796 -0.70215935 -0.03496176
-0.53196794 -0.72807616 -0.00000294
-0.34227905 -0.64668471 -0.00000149
-0.65457857 -0.41148639 -0.03518821
-0.64502394 -0.30788544 -0.04287224
-0.68761575 -0.45791447 -0.03836863
-0.75170839 -0.18090878 -0.07956304
-0.76009434 -0.58315694 -0.04311388
-0.65917021 -0.33752954 -0.04330246
-0.18795872 -0.26713246 0.00000086
-0.09911137 0.36224663 -0.00000086
-0.26819676 0.49609983 -0.03277933
-0.00545212 0.46442476 -0.00000139
-0.28458026 0.14635298 -0.00318257
-0.34834003 0.02956336 -0.00672664
-0.03993237 -0.26553881 0.00000176
-0.53881985 -0.75487989 -0.00000308
-0.77319205 -0.07908656 -0.09422723
-0.65101588 -0.08452897 -0.06556389
-0.56879956 -0.09564993 -0.04556375
-0.35912725 0.13972040 -0.01972209
-0.66778743 -0.69730055 -0.01096022
-0.26864043 -0.01863702 0.00000131
-0.72063160 -0.37137923 -0.05423072
-0.29431561 -0.35508120 -0.00000011
-0.51327765 -0.44045538 -0.00000175
-0.35966495 0.35469493 -0.04035757
-0.51953924 -0.11758406 -0.03212351
-0.24910465 -0.22980051 0.00000063
-0.25103226 0.33646375 -0.01359384
-0.25806588 -0.43444073 -0.00000019
-0.66945958 -0.05859409 -0.07228707
-0.39555320 0.12715217 -0.02691385
-0.24138284 0.29346424 -0.00726827
-0.18953069 0.36711663 -0.00235129
-0.10987972 -0.78537166 -0.00000061
-0.06525116 -0.71908844 -0.00000009
-0.37279579 0.16595365 -0.02537375
-0.18415155 -0.27933121 0.00000084
-0.49215490 -0.59150916 -0.00000219
-0.02416092 0.08793401 -0.00000929
-0.56159234 -0.15593079 -0.03815188
-0.69071954 -0.62147665 -0.02347746
-0.55871409 -0.25101188 -0.02841677
-0.05286058 -0.39706895 0.00000119
-0.48846909 -0.77354115 -0.00000285
-0.17587458 0.13510869 -0.00000365
-0.23733579 -0.06502073 0.00000132
-0.52835715 -0.79784876 -0.00000318
-0.23530111 0.47199944 -0.02290210
-0.69534534 -0.06544477 -0.07759637
-0.57926828 -0.26074308 -0.03222306
-0.13095579 -0.19176336 0.00000149
-0.38942632 -0.09925330 -0.00390020
-0.33215287 -0.26192084 0.00000001
-0.63991672 -0.74490553 0.10394259
-0.11799908 -0.30025676 0.00000116
-0.48217398 -0.58341938 -0.00000210
-0.07408232 0.41461205 -0.00000044
-0.53291482 -0.53971106 -0.00000224
-0.02270291 -0.12621489 0.00000239
-0.11482400 -0.09025823 0.00000197
-0.04936921 -0.07253256 0.00000243
-0.30410585 0.12434262 -0.00558031
-0.75661564 -0.38384697 -0.06132994
-0.32843897 -0.51003098 -0.00000089
-0.14171977 0.62128329 -0.01558885
-0.15912142 0.32061321 0.00000002
-0.17330799 0.59704286 -0.02055251
-0.51873100 0.18463007 -0.06077283
-0.71595252 -0.33214444 -0.05689643
-0.48794630 -0.73306173 -0.00000269
-0.17441162 0.53457105 -0.01484605
-0.00463522 -0.65567356 0.00000051
-0.27655953 -0.09467115 0.00000098
-0.11063733 -0.04697996 0.00000216
-0.66058540 0.05490887 -0.08107264
-0.21547128 -0.36547270 0.00000033
-0.11597060 0.10636246 -0.00000611
-0.36746010 0.13127530 -0.02083583
-0.02680902 0.06501233 -0.00000973
-0.04522415 -0.34004360 0.00000145
-0.49769396 -0.69540507 -0.00000261
-0.01567634 0.72296345 0.00000474
-0.50374198 -0.76275796 -0.00000290
-0.00101284 0.17061907 -0.00000813
-0.25228247 0.02664151 -0.00000379
-0.09521253 -0.17527264 0.00000177
-0.44151604 -0.60777974 -0.00000194
-0.64820445 -0.07654059 -0.06567846
-0.03773614 0.46462443 -0.00000041
-0.71248674 -0.23637819 -0.06523552
-0.15503842 0.32779071 0.00000005
-0.30558991 0.35467574 -0.02789922
-0.59433889 -0.38102874 -0.02421771
-0.32869107 -0.05676077 0.00000080
-0.28163040 -0.06052651 0.00000107
-0.11488172 -0.36292538 0.00000095
-0.30269009 -0.75321215 -0.00000165
-0.52674502 -0.07907133 -0.03745806
-0.47496668 -0.48875886 -0.00000170
-0.07885060 0.71381396 -0.00993523
-0.74744207 -0.46382552 -0.05158563
-0.04069951 -0.78612024 -0.00000019
-0.64173949 0.08342964 -0.07945266
-0.43156686 -0.03839016 -0.01941474
-0.06082886 -0.53436130 0.00000063
-0.70273161 -0.53029108 -0.03494490
-0.27220398 -0.14756200 0.00000080
-0.56938076 -0.71597445 -0.00000312
-0.41589326 0.02697223 -0.02204072
-0.74035072 -0.69340646 -0.02804648
-0.15372998 -0.79154640 -0.00000090
-0.04327420 0.32915419 -0.00000329
-0.06033881 -0.10309911 0.00000225
-0.10279928 -0.45603433 0.00000067
-0.34587517 -0.70139366 -0.00000172
-0.15438190 -0.56467623 -0.00000005
-0.07310297 -0.48396072 0.00000074
-0.18594112 0.38277256 -0.00301820
-0.69342285 0.06365423 -0.08947138
-0.21388470 0.08393848 -0.00000366
-0.53504437 -0.44200644 -0.00474071
-0.44852203 0.10953968 -0.03743507
-0.16882753 0.27046064 -0.00000082
-0.09387742 -0.54432720 0.00000039
-0.56013113 0.18174016 -0.07003387
-0.41846961 0.34232116 -0.05272296
-0.47339359 -0.51278484 -0.00000178
-0.63959134 -0.56828851 -0.01677466
-0.32475221 -0.09912427 0.00000067
-0.36806136 -0.51400101 -0.00000115
-0.10195047 0.56633830 -0.00118521
-0.52217716 -0.22394811 -0.02258252
-0.29997379 0.25152972 -0.01676392
-0.38021383 0.01598367 -0.01277328
-0.30024999 -0.37808052 -0.00000023
-0.17215207 0.42616314 -0.00398189
-0.34795916 -0.47639090 -0.00000089
-0.78800428 -0.05054292 -0.10036270
-0.63384563 -0.31308383 -0.03980124
-0.71507502 -0.01310928 -0.08713477
-0.19779013 0.56686693 -0.02331291
-0.57489014 -0.34901506 -0.02279212
-0.41294533 -0.79737711 -0.00000248
-0.19251856 0.41506529 -0.00761454
-0.46538341 0.23416705 -0.05321041
-0.24687079 -0.43783322 -0.00000013
-0.23012088 -0.64551133 -0.00000081
-0.31995666 0.00378748 -0.00000226
-0.65211695 -0.77435875 0.09640299
-0.61454093 -0.68364465 0.15907592
-0.21012545 -0.20147339 0.00000098
-0.14984547 -0.68177795 -0.00000046
-0.45144838 0.03239570 -0.03074854
-0.57599044 -0.39835015 -0.01833832
-0.01479081 0.13495354 -0.00000852
-0.71861738 -0.09697377 -0.07994892
-0.42721209 -0.36063388 -0.00000093
-0.61168647 -0.79846692 -0.00000369
-0.31127417 0.28809881 -0.02285624
-0.10274190 0.20954485 -0.00000418
-0.48565465 -0.30051425 -0.00686384
-0.70363635 -0.64531928 -0.02417780
-0.58823824 -0.62014580 0.19918998
-0.03557775 -0.50516796 0.00000089
-0.23486409 -0.56810260 -0.00000055
-0.58741486 -0.55946594 -0.00559728
-0.73816830 -0.73851973 -0.02323924
-0.01181746 -0.10099831 0.00000255
-0.69147503 -0.10915153 -0.07253458
-0.77245808 -0.29416326 -0.07353642
-0.07337510 0.24409178 -0.00000429
-0.23079109 -0.79463047 -0.00000137
-0.11094584 -0.61989105 0.00000001
-0.70535117 0.03039294 -0.08904554
-0.16510844 0.52632785 -0.01191648
-0.02989075 0.76246810 -0.00329937
-0.45213050 0.19948108 -0.04684799
-0.74425107 -0.71567523 -0.02682010
-0.05019126 0.10998450 -0.00000801
-0.76598436 -0.08330136 -0.09216474
-0.01731509 0.58219546 0.00000162
-0.51338381 -0.62454766 -0.00000244
-0.75003743 -0.41591141 -0.05675523
-0.41336381 0.36264062 -0.05348558
-0.64723474 -0.73282903 -0.00283587
-0.20235308 -0.20007756 0.00000103
-0.18181309 -0.16046813 0.00000130
-0.45983633 -0.27987477 -0.00288573
-0.70903337 -0.26677173 -0.06154004
-0.09870096 -0.47425291 0.00000063
-0.00386519 0.48374775 -0.00000100
-0.30202353 -0.09491634 0.00000082
-0.58478588 -0.61181128 0.21059889
-0.58936220 -0.33062819 -0.02788023
-0.47946694 0.05821897 -0.03966670
-0.25240496 -0.55128515 -0.00000059
-0.01516164 0.69114822 0.00000401
-0.26746032 -0.04573996 0.00000121
-0.18593918 -0.36144888 0.00000052
-0.64419448 -0.66483384 -0.00862323
-0.73314571 -0.23135090 -0.07047412
-0.62236989 -0.75259906 -0.00000358
-0.22871098 -0.50285077 -0.00000027
-0.59599984 -0.07007017 -0.05427018
-0.36323398 -0.35244739 -0.00000051
-0.65194666 -0.05923370 -0.06819183
-0.29162997 0.43928644 -0.03275652
-0.66365325 0.01500869 -0.07797229
-0.43721765 -0.69288391 -0.00000224
-0.43321106 0.29640353 -0.05173755
-0.78785866 -0.07415225 -0.09807645
-0.32904300 -0.09184631 0.00000067
-0.60322905 -0.13685277 -0.04956346
-0.23133034 0.37886894 -0.01310143
-0.64519715 -0.01541839 -0.07081764
-0.74332076 -0.01793550 -0.09318086
-0.57680070 -0.28642321 -0.02920440
-0.17346565 -0.43036839 0.00000034
-0.07994084 0.27864975 -0.00000332
-0.11081849 -0.07973772 0.00000203
-0.52841049 -0.39797455 -0.00741382
-0.36279514 -0.35129905 -0.00000051
-0.20002142 0.12465101 -0.00000316
-0.52641833 -0.79702216 -0.00000317
-0.56098348 -0.33842483 -0.02059910
-0.53005874 0.12028012 -0.05724236
-0.78752321 -0.51488912 -0.05594581
-0.33707216 -0.75023669 -0.00000185
-0.42265907 -0.24785964 -0.00000048
-0.40129629 -0.03594309 -0.01267521
-0.61566120 -0.29242283 -0.03758370
-0.47038406 -0.00523047 -0.03152043
-0.16990633 0.37946823 0.00000167
-0.47426674 -0.14342663 -0.01922895
-0.42263439 0.25104997 -0.04497378
-0.62043309 -0.35049173 -0.03314233
-0.62572443 -0.00487562 -0.06733791
-0.48134685 0.20854315 -0.05444281
-0.16057451 -0.70802343 -0.00000062
-0.19685297 0.01151994 -0.00000580
-0.18680802 0.29236352 0.00000022
-0.59649485 -0.37035105 -0.02573316
-0.43069622 0.14225265 -0.03645007
-0.58015376 -0.19633833 -0.03857217
-0.52251631 0.14766802 -0.05811810
-0.48531425 -0.67472607 -0.00000246
-0.46521425 0.03056763 -0.03374517
-0.22270073 0.29527786 -0.00313778
-0.62579000 -0.46309415 -0.02363247
-0.56240380 0.02141180 -0.05525980
-0.14492370 0.47915229 -0.00276558
-0.64516085 -0.17162953 -0.05590453
-0.52145225 -0.29921925 -0.01523360
-0.11005462 -0.11395279 0.00000191
-0.01655299 -0.49418551 0.00000105
-0.07649489 -0.71701288 -0.00000015
-0.00915065 -0.29595637 0.00000183
-0.05188691 -0.78890812 -0.00000027
-0.69328159 0.08611580 -0.09158194
-0.36281097 0.06604444 -0.01354093
-0.11826151 -0.06018546 0.00000206
-0.09918764 -0.27364510 0.00000138
-0.06584424 -0.67604077 0.00000007
-0.14477725 -0.29616237 0.00000102
-0.29926410 -0.48448560 -0.00000062
-0.04308997 -0.62105650 0.00000041
-0.17014986 0.46718389 -0.00743463
-0.50098753 -0.09419469 -0.03008168
-0.41848394 -0.68944907 -0.00000211
-0.22851923 0.39068240 -0.01358105
-0.01919473 0.26221251 -0.00000552
-0.28124163 -0.44249713 -0.00000036
-0.02737572 -0.44220123 0.00000118
-0.20094094 0.07110428 -0.00000434
-0.27264968 0.02057486 -0.00000331
-0.02247066 -0.03288470 0.00000274
-0.49177307 0.19062282 -0.05513470
-0.23717497 -0.30444595 0.00000043
-0.54946554 -0.51681668 -0.00092476
-0.22380693 -0.13441370 0.00000115
-0.52593225 -0.38930297 -0.00767033
-0.01551752 0.46682370 -0.00000103
-0.48913023 -0.67280215 -0.00000248
-0.07187260 -0.22167636 0.00000173
-0.03520570 -0.57460797 0.00000063
-0.23561744 0.22529589 0.00000018
-0.33556357 -0.25392151 0.00000002
-0.17692322 0.21244590 -0.00000188
-0.06161282 -0.58696181 0.00000043
-0.64217073 0.04247031 -0.07564388
-0.24544252 -0.44443077 -0.00000015
-0.37698695 -0.32699478 -0.00000050
-0.70183516 -0.72514969 -0.01614582
-0.47870269 0.19151427 -0.05220891
-0.31430382 -0.74899656 -0.00000171
-0.18955643 -0.64665914 -0.00000057
-0.18670245 -0.46739233 0.00000012
-0.00866775 -0.07509812 0.00000267
-0.16735817 -0.31518778 0.00000081
-0.36352339 -0.13468008 0.00000030
-0.14854248 -0.27411497 0.00000108
-0.20461538 0.55303490 -0.02356538
-0.03690298 0.10580434 -0.00000851
-0.18068898 -0.30196926 0.00000078
-0.00947994 0.59525108 0.00000168
-0.71286911 -0.44584709 -0.04533730
-0.51895630 -0.19564092 -0.02454148
-0.44103435 0.12564877 -0.03724727
-0.06034216 -0.51175445 0.00000072
-0.05014612 -0.09867965 0.00000233
-0.16835745 0.49427161 -0.00960629
-0.46937445 -0.11386997 -0.02092211
-0.79422355 -0.65785336 -0.04384812
-0.33023834 0.13961102 -0.01305692
-0.06234994 -0.69628692 0.00000001
-0.64640790 -0.76057637 0.04552973
-0.69983763 -0.49462485 -0.03768132
-0.35506812 0.15194634 -0.01995357
-0.34792557 -0.41418386 -0.00000065
-0.18408544 -0.75358498 -0.00000094
-0.47015885 -0.59289229 -0.00000206
-0.64241558 -0.04648927 -0.06721229
-0.60124516 0.06849654 -0.06869970
-0.63238364 0.11329545 -0.08014710
-0.26553705 0.43300068 -0.02614610
-0.06744758 -0.49816996 0.00000072
-0.51064819 -0.09804433 -0.03193976
-0.44025421 0.28598475 -0.05236589
-0.56661057 -0.12368314 -0.04238474
-0.29787585 0.21010219 -0.01232787
-0.21754768 0.49130726 -0.02065473
-0.16205885 -0.39053264 0.00000056
-0.17493005 0.00483636 -0.00000661
-0.23083274 -0.44695762 -0.00000007
-0.60714877 -0.67979240 -0.00000321
-0.66622299 -0.17465051 -0.06046808
-0.18726902 0.08903980 -0.00000435
-0.22956662 -0.28737152 0.00000054
-0.71326417 -0.60547066 -0.03019772
-0.58580005 0.10014975 -0.06816199
-0.13631894 -0.53093380 0.00000019
-0.32515931 -0.59246743 -0.00000118
-0.01611651 -0.74470764 0.00000011
-0.69324839 -0.04136565 -0.07941081
-0.57687134 -0.08686173 -0.04826165
-0.58918309 -0.79880846 -0.00000355
-0.67599636 -0.83200741 0.09916510
-0.69849157 -0.27246651 -0.05856831
-0.49928218 -0.79846048 -0.00000301
-0.65980583 -0.24858381 -0.05193556
-0.53635192 0.02132961 -0.04925074
-0.63912821 -0.07012989 -0.06419937
-0.29168344 0.15077847 -0.00524109
-0.64786738 0.02180296 -0.07498419
-0.28718504 0.00262821 -0.00000327
-0.12219536 -0.28499305 0.00000119
-0.45081738 -0.43367398 -0.00000135
-0.72007149 -0.48516378 -0.04324496
-0.16581535 0.29234844 -0.00000042
-0.70995253 -0.55839992 -0.03392620
-0.76296467 -0.41970474 -0.05937100
-0.08804420 -0.21110107 0.00000168
-0.28441906 -0.77248442 -0.00000161
-0.33337837 0.07690916 -0.00779759
-0.61908048 -0.60561812 -0.00848808
-0.05623510 -0.52897364 0.00000068
-0.57936293 0.20724905 -0.07689795
-0.47190648 -0.78091502 -0.00000278
-0.74069619 -0.50771642 -0.04584386
-0.54742312 -0.76391280 -0.00000317
-0.08689276 0.61643064 -0.00249609
-0.01084875 0.64587510 0.00000286
-0.09290593 -0.37179658 0.00000105
-0.34345293 0.00160084 -0.00293285
-0.11676114 -0.58508569 0.00000010
-0.32360339 -0.51975596 -0.00000090
-0.07584486 -0.75862420 -0.00000030
-0.69166124 -0.51075035 -0.03425924
-0.46783018 -0.74862808 -0.00000263
-0.50193852 0.28425452 -0.06641014
-0.65814561 -0.03845832 -0.07160206
-0.11051251 0.64587212 -0.01074619
-0.39312235 -0.35512313 -0.00000070
-0.05059276 -0.21869823 0.00000187
-0.73490316 -0.33848709 -0.06065665
-0.69719297 -0.45657527 -0.04070259
-0.12575509 0.43127233 0.00000150
-0.43991008 -0.06209425 -0.01907495
-0.24728718 -0.42679232 -0.00000009
-0.49106067 -0.70012748 -0.00000259
-0.33479425 -0.71444464 -0.00000170
-0.37624320 -0.73027992 -0.00000201
-0.67415595 -0.49681440 -0.03155648
-0.78008401 -0.55042607 -0.05084144
-0.03668926 -0.11097051 0.00000236
-0.39900458 0.30913520 -0.04507266
-0.34854695 -0.08698741 0.00000057
-0.00208072 -0.46987733 0.00000123
-0.21683438 -0.04120745 0.00000154
-0.27839863 -0.73548466 -0.00000144
-0.47343749 -0.07360638 -0.02569977
-0.10873240 -0.06850839 0.00000209
-0.23944165 -0.74032110 -0.00000122
-0.04073711 -0.19704200 0.00000202
-0.25730535 -0.65090787 -0.00000099
-0.30531693 0.01055063 -0.00000255
-0.46751675 0.18156835 -0.04868318
-0.45113850 -0.62437445 -0.00000206
-0.12332476 0.50875372 -0.00061453
-0.28694445 -0.27279314 0.00000025
-0.17712933 0.25371876 -0.00000095
-0.04092691 -0.35349149 0.00000143
-0.66056240 -0.47137910 -0.03085201
-0.46999657 -0.53115666 -0.00000183
-0.04739607 0.30416736 -0.00000373
-0.45158869 -0.56917340 -0.00000186
-0.65164411 -0.55402482 -0.02091205
-0.08701318 -0.75536865 -0.00000036
-0.22334836 0.55956000 -0.02850323
-0.09345437 0.63554716 -0.00583159
-0.69067609 -0.14488278 -0.06894126
-0.53216082 -0.48297155 -0.00016781
-0.67778891 -0.10078502 -0.07018017
-0.51653218 -0.33101806 -0.01106618
-0.74623942 -0.02884157 -0.09281260
-0.52546692 -0.63273156 -0.00000254
-0.21091355 0.38609910 -0.00908816
-0.52348870 -0.73238105 -0.00000291
-0.39659259 -0.32566690 -0.00000061
-0.00419522 -0.21080092 0.00000218
-0.65732813 -0.07304996 -0.06811322
-0.36218795 0.16035610 -0.02239608
-0.68171954 -0.19579530 -0.06202029
-0.62430352 -0.25373685 -0.04326571
-0.73143309 -0.64805025 -0.03032006
-0.60331553 -0.71838725 -0.00000334
-0.54734462 -0.12489576 -0.03783101
-0.64809412 -0.15949480 -0.05773804
-0.13754161 -0.24036551 0.00000127
-0.25880548 0.31097755 -0.01295270
-0.52515793 -0.47153366 -0.00000194
-0.71828753 -0.09975287 -0.07960776
-0.53537548 -0.44581071 -0.00445400
-0.76212847 -0.06931856 -0.09261067
-0.59351981 -0.55275601 -0.00764382
-0.16658477 -0.68675727 -0.00000058
-0.42819637 -0.55509728 -0.00000167
-0.37571719 -0.45983726 -0.00000099
-0.31594053 -0.09376257 0.00000074
-0.09800725 -0.06868920 0.00000215
-0.25765321 -0.56065941 -0.00000066
-0.71948558 0.02742071 -0.09201790
-0.33876726 -0.74056882 -0.00000182
-0.42484632 0.11356560 -0.03236535
-0.67355043 -0.00436961 -0.07840320
-0.74621493 -0.09289731 -0.08669514
-0.50737929 -0.29900759 -0.01201200
-0.12323331 0.07336218 -0.00000663
-0.37421235 -0.34230214 -0.00000054
-0.13142332 -0.58445448 0.00000002
-0.24548125 -0.31058484 0.00000035
-0.53086704 -0.47753659 -0.00038835
-0.12517738 -0.13918033 0.00000172
-0.17890157 0.37796742 -0.00093812
-0.06394142 -0.08092585 0.00000231
-0.43913004 -0.27667037 -0.00000069
-0.33382097 0.30696538 -0.02985017
-0.78962290 -0.47135943 -0.06058290
-0.27351078 0.15794750 -0.00173893
-0.41454759 -0.44223192 -0.00000116
-0.68201494 -0.13026448 -0.06834091
-0.10057288 -0.38487804 0.00000095
-0.07025544 -0.09626621 0.00000221
-0.20386207 -0.46305087 0.00000003
-0.30693370 -0.66461223 -0.00000134
-0.45056045 0.32278621 -0.05825137
-0.35600412 -0.38418755 -0.00000059
-0.32334810 0.29245231 -0.02605293
-0.73428488 0.04759735 -0.09735213
-0.72550839 -0.29878798 -0.06228037
-0.20641614 -0.17763183 0.00000109
-0.09539521 -0.30659887 0.00000127
-0.05025980 -0.47146663 0.00000093
-0.50626022 -0.13368011 -0.02752880
-0.23233442 0.20579296 -0.00000036
-0.33182979 0.03747626 -0.00367841
-0.46933985 -0.52763349 -0.00000181
-0.07269558 0.32131928 -0.00000258
-0.60054195 -0.77489632 -0.00000353
-0.74030870 -0.59887177 -0.03705692
-0.53202266 -0.23613694 -0.02368751
-0.14458962 -0.19151644 0.00000141
-0.56006956 0.08812620 -0.06108760
-0.21681881 0.48058742 -0.01946400
-0.03587524 0.25417450 -0.00000520
-0.11988501 0.06966811 -0.00000681
