ply
format ascii 1.0
element vertex 1175
property float x
property float y
property float z
end_header
-0.34160766 -0.70801830 -0.00000183
-0.59730351 -0.10000907 -0.27030641
-0.20742592 -0.00658814 0.00000073
-0.21590045 -0.62578976 -0.00000087
-0.28226104 -0.40210924 -0.00000071
-0.52163404 -0.70284814 -0.00000291
-0.72785711 -0.67222083 -0.14211722
-0.54746985 0.02037025 -0.27034214
-0.32343045 0.09973208 -0.04017193
-0.06379517 -0.49280640 0.00000038
-0.40728429 0.25169176 -0.21692163
-0.43840158 -0.20611377 -0.02606581
-0.28471035 -0.68421006 -0.00000143
-0.01751521 -0.54128313 0.00000054
-0.55170810 -0.04265341 -0.24401321
-0.20287651 0.44446510 -0.06695041
-0.03909907 0.09613304 -0.00000890
-0.27015126 -0.26638108 -0.00000030
-0.15226465 0.58583534 -0.07651794
-0.14567636 0.04292489 -0.00000675
-0.44403890 -0.07908975 -0.09620418
-0.01968632 0.17402455 -0.00000793
-0.20306528 -0.37802023 -0.00000017
-0.08649917 0.27137092 -0.00000396
-0.21865413 -0.66104567 -0.00000097
-0.42389390 -0.56163651 -0.00000196
-0.32577881 -0.35292760 -0.00000085
-0.00173386 -0.21553709 0.00000147
-0.19317202 0.13595147 -0.00000345
-0.49083260 -0.40005109 -0.00000196
-0.29988852 0.04811606 -0.00000199
-0.61853540 -0.69328779 0.13067412
-0.65541756 -0.78232712 0.12729160
-0.57357025 -0.01183435 -0.28570637
-0.26032194 0.28888848 -0.05852556
-0.42116466 0.11879179 -0.16735265
-0.08497595 -0.63420290 -0.00000010
-0.62566322 -0.30291024 -0.20325920
-0.40398952 -0.25649819 -0.00000108
-0.24572551 -0.30414698 -0.00000024
-0.29041204 -0.41419864 -0.00000079
-0.70015520 -0.58981478 -0.14986169
-0.35537499 -0.68041927 -0.00000185
-0.00607607 -0.57488561 0.00000053
-0.23823950 -0.67124802 -0.00000112
-0.59165663 -0.25611931 -0.18565033
-0.28487727 -0.34814063 -0.00000059
-0.45223996 0.09322112 -0.19201536
-0.26999256 0.21454623 -0.03309248
-0.71396172 -0.58973730 -0.16652387
-0.18090186 -0.23289442 0.00000033
-0.12617716 -0.23285741 0.00000066
-0.71786952 -0.71121752 -0.11064299
-0.05999854 0.10240723 -0.00000814
-0.08488210 0.59613550 -0.00052426
-0.12266027 -0.04861575 0.00000114
-0.64940095 -0.76780188 0.05291865
-0.58466107 -0.77296627 -0.00000346
-0.39768079 0.21375377 -0.18643785
-0.07008786 -0.31138536 0.00000080
-0.66439259 -0.77961904 -0.01214095
-0.25038898 0.25733963 -0.03083156
-0.32900074 0.10513115 -0.04957142
-0.33232921 -0.73075199 -0.00000183
-0.33650249 0.05043230 -0.03132373
-0.04326891 -0.77929264 -0.00000021
-0.50835311 -0.66929287 -0.00000274
-0.12452620 -0.27093279 0.00000057
-0.67857677 -0.33306509 -0.25192970
-0.48856723 -0.68083334 -0.00000265
-0.47475666 -0.11188550 -0.11683307
-0.70272273 -0.67378318 -0.11107538
-0.17876378 0.49964714 -0.06543895
-0.16286087 0.31825873 -0.00000072
-0.18488824 -0.13795832 0.00000054
-0.27567521 -0.76598930 -0.00000158
-0.04113701 0.09024285 -0.00000895
-0.63962275 -0.74419594 0.15345843
-0.14504428 -0.47270599 -0.00000006
-0.06146781 -0.33044866 0.00000080
-0.44374704 -0.10630074 -0.08228183
-0.40673310 -0.56005365 -0.00000185
-0.34458548 0.10637356 -0.06895554
-0.39439818 -0.71692723 -0.00000217
-0.09514321 -0.02153644 0.00000137
-0.38716853 0.17760672 -0.15575309
-0.03735367 0.28664702 -0.00000514
-0.70158505 -0.76188987 -0.06576399
-0.32104376 -0.08125013 -0.00000014
-0.71123862 -0.68036056 -0.11804845
-0.60669374 -0.05476531 -0.30417708
-0.48721638 -0.69884223 -0.00000269
-0.10108002 0.34884742 -0.00000197
-0.26870513 0.00347937 -0.00000382
-0.50211567 -0.58014297 -0.00000248
-0.00018712 -0.75784612 0.00000011
-0.72463018 -0.64928484 -0.14967076
-0.63727570 -0.72075224 -0.00885008
-0.47972167 0.09594024 -0.22646029
-0.34509256 0.22303008 -0.12774637
-0.00128364 -0.18593115 0.00000154
-0.00207037 -0.44982120 0.00000086
-0.00601458 -0.79705745 -0.00000003
-0.41764611 -0.74146920 -0.00000237
-0.19440623 -0.62741804 -0.00000074
-0.36698660 -0.61314970 -0.00000175
-0.32757744 0.14305663 -0.06677234
-0.30549297 0.38448951 -0.16059212
-0.24069133 0.22251761 -0.00178845
-0.21160983 -0.45669791 -0.00000042
-0.03704040 -0.62248033 0.00000022
-0.56831914 -0.68083155 -0.00000313
-0.53235161 -0.11126048 -0.18649092
-0.35959029 -0.37075630 -0.00000110
-0.57646829 -0.14600383 -0.22228116
-0.59540141 -0.66547966 -0.00000326
-0.63992834 -0.37266120 -0.18564788
-0.03108975 -0.05757214 0.00000167
-0.11470509 0.15274626 -0.00000548
-0.48411742 -0.05564145 -0.15615436
-0.51905125 -0.24485353 -0.10384978
-0.53689492 -0.64136207 -0.00000284
-0.15792030 -0.54467553 -0.00000031
-0.01695097 -0.37360516 0.00000096
-0.19473508 0.32382914 0.00000035
-0.06319435 -0.50861835 0.00000035
-0.09284047 -0.28496107 0.00000073
-0.64962071 -0.76833248 0.05706996
-0.03912426 -0.72706676 -0.00000005
-0.16312627 0.17506906 -0.00000358
-0.00480625 -0.37117115 0.00000104
-0.50452971 -0.46478444 -0.00000221
-0.68045998 -0.58052480 -0.13078117
-0.31288901 0.11552086 -0.03535408
-0.20015904 -0.44466817 -0.00000032
-0.17472337 -0.09603491 0.00000071
-0.20567365 0.49861830 -0.09732616
-0.38467208 0.14411955 -0.13604620
-0.01263658 -0.51037401 0.00000065
-0.53074872 -0.64565796 -0.00000282
-0.01739572 0.75369591 0.00000360
-0.69532257 -0.47712442 -0.20024531
-0.44428214 0.15784951 -0.21466613
-0.71995765 -0.81021029 -0.06378629
-0.33789235 -0.76607913 -0.00000195
-0.07551436 0.67719346 -0.02967138
-0.45987037 -0.38940957 -0.00000175
-0.28042549 0.14881600 -0.01287231
-0.32040849 -0.05921782 -0.00000008
-0.33193585 -0.27990922 -0.00000070
-0.67339325 -0.82572311 0.11565324
-0.47150204 -0.63262272 -0.00000243
-0.57475525 -0.20265725 -0.19196375
-0.69041365 -0.62096041 -0.12259926
-0.01735609 0.41766632 -0.00000312
-0.69654590 -0.64967757 -0.11566049
-0.65283298 -0.47572163 -0.14978597
-0.32231238 0.20024891 -0.08895665
-0.17977640 -0.13367973 0.00000058
-0.53512335 -0.13329428 -0.17883921
-0.14970209 -0.62604934 -0.00000047
-0.60205251 -0.44061175 -0.10615510
-0.16071728 -0.44541347 -0.00000008
-0.30336720 -0.44191635 -0.00000094
-0.53920788 -0.21054435 -0.14523005
-0.46728325 -0.09557631 -0.11596874
-0.16402183 0.54724348 -0.07142699
-0.48219088 -0.71229756 -0.00000269
-0.22032838 0.36879385 -0.05022339
-0.36163381 -0.68104100 -0.00000189
-0.23495658 0.26419353 -0.01566870
-0.01226447 -0.46015334 0.00000078
-0.18910912 -0.52601063 -0.00000046
-0.33389974 -0.79547518 -0.00000200
-0.19954263 -0.32976702 -0.00000003
-0.45352918 -0.09388821 -0.10025032
-0.61943740 -0.58587265 -0.05464089
-0.10186501 0.11769817 -0.00000657
-0.68657982 -0.51342887 -0.17161258
-0.37162033 -0.28586408 -0.00000096
-0.26555073 -0.23031299 -0.00000018
-0.32942215 -0.77970541 -0.00000194
-0.23377933 0.11530184 -0.00000264
-0.46609679 -0.33015779 -0.00000164
-0.02370718 -0.39697206 0.00000086
-0.35422486 -0.60477316 -0.00000165
-0.68327135 -0.52210885 -0.16330001
-0.13441586 0.34634161 -0.00000102
-0.71577764 -0.73691165 -0.09530977
-0.56288469 -0.73220730 -0.00000323
-0.67766255 -0.53636003 -0.14943933
-0.21396171 -0.51789790 -0.00000059
-0.34598023 -0.29413891 -0.00000082
-0.59763294 -0.38133895 -0.13039505
-0.57093251 -0.19557407 -0.19089364
-0.08224198 -0.41373861 0.00000047
-0.08382877 -0.49181384 0.00000026
-0.02116064 -0.35782340 0.00000098
-0.06598115 0.65867144 -0.00895556
-0.17359728 -0.44247758 -0.00000015
-0.18636784 -0.25516656 0.00000024
-0.21559599 0.14744826 -0.00000254
-0.34097046 -0.56380999 -0.00000147
-0.36104396 -0.31553108 -0.00000097
-0.00950620 0.77223921 0.00000373
-0.40268177 -0.11018895 -0.03089878
-0.11390459 0.41754702 -0.00000021
-0.46254432 0.02297505 -0.16938823
-0.32997561 -0.51158375 -0.00000127
-0.07660679 0.29826027 -0.00000372
-0.01399661 -0.30176681 0.00000116
-0.10525133 -0.37156814 0.00000044
-0.42530313 -0.69779754 -0.00000231
-0.37560484 0.13671055 -0.12143386
-0.19735014 -0.07937741 0.00000061
-0.13835187 -0.74052280 -0.00000069
-0.58756006 -0.05951512 -0.27877063
-0.34721768 -0.08564804 -0.00000031
-0.24786173 0.07113243 -0.00000310
-0.48929989 -0.42128003 -0.00000201
-0.39283001 -0.03568299 -0.05619540
-0.28162926 -0.20582253 -0.00000021
-0.17874372 0.04632511 -0.00000568
-0.15400577 0.26006064 -0.00000215
-0.04002666 -0.64115936 0.00000016
-0.22467235 0.12257943 -0.00000277
-0.58252871 -0.47437257 -0.06581027
-0.00437419 0.41901141 -0.00000349
-0.48030996 -0.10448957 -0.12720799
-0.40812817 -0.62750858 -0.00000203
-0.34047276 -0.15989748 -0.00000045
-0.63916922 -0.47661597 -0.13288838
-0.46873236 -0.36271879 -0.00000174
-0.28347448 -0.16575420 -0.00000013
-0.54556936 -0.59980440 -0.00000279
-0.23009050 -0.47042653 -0.00000056
-0.11327374 -0.73025048 -0.00000051
-0.16530609 0.31682518 -0.00000067
-0.69740152 -0.54339516 -0.16969706
-0.52117902 -0.60111010 -0.00000265
-0.44442469 0.20043489 -0.23607640
-0.06302290 0.23123492 -0.00000547
-0.00051191 -0.62277067 0.00000044
-0.00120096 -0.09113298 0.00000178
-0.03932771 0.22849628 -0.00000624
-0.06305777 0.24082240 -0.00000528
-0.28099588 -0.07913805 0.00000011
-0.43530989 -0.63722873 -0.00000222
-0.63583696 -0.11434221 -0.30955356
-0.24919562 0.38147745 -0.09130614
-0.39173511 -0.38542011 -0.00000133
-0.01478512 0.70419729 0.00000253
-0.33039126 0.35394344 -0.17533611
-0.64553642 -0.75847244 0.05601022
-0.13245283 -0.09459063 0.00000096
-0.30350500 -0.21831515 -0.00000038
-0.30277571 -0.60581952 -0.00000134
-0.24401768 -0.10989478 0.00000025
-0.00117457 -0.55472302 0.00000062
-0.46860117 0.08661498 -0.20842010
-0.50793308 -0.24561398 -0.09008395
-0.33878341 -0.53099710 -0.00000137
-0.68692613 -0.43628487 -0.21050364
-0.41469130 -0.34105396 -0.00000136
-0.31721058 0.32708919 -0.14607313
-0.10468573 -0.25964785 0.00000072
-0.48878202 -0.23134688 -0.07414091
-0.70319003 -0.71618885 -0.09048900
-0.03421254 -0.04415435 0.00000168
-0.07888422 -0.71253711 -0.00000026
-0.72920603 -0.72246516 -0.11868292
-0.00729160 0.19781005 -0.00000782
-0.18467860 0.11919387 -0.00000404
-0.20291533 0.49377292 -0.09158851
-0.26690355 0.42268896 -0.13318053
-0.46112660 -0.04966733 -0.13145220
-0.22107553 -0.09839076 0.00000042
-0.33971241 -0.64543432 -0.00000166
-0.15332901 0.48309007 -0.02655716
-0.14878707 0.27290317 -0.00000205
-0.66556275 -0.25517675 -0.27510574
-0.51813710 -0.53192991 -0.00000246
-0.22555964 0.36263114 -0.05344845
-0.08461768 0.01570025 -0.00000913
-0.63614804 -0.19680963 -0.26879895
-0.19180250 -0.61482245 -0.00000069
-0.60656840 -0.66696936 -0.00000333
-0.19363262 0.48974565 -0.07840331
-0.65588963 -0.70461595 -0.03930954
-0.46378738 -0.10006025 -0.10952332
-0.64311880 -0.60925573 -0.07149218
-0.18982807 0.45283815 -0.05541559
-0.68120384 -0.52067608 -0.16152523
-0.64243722 -0.61243683 -0.06908501
-0.01933182 -0.45071632 0.00000076
-0.20000646 0.50229025 -0.09233399
-0.63464892 -0.73218828 0.10893663
-0.06415983 0.38233897 -0.00000242
-0.67812759 -0.74917126 -0.04386362
-0.06106838 0.36254287 -0.00000291
-0.57483745 -0.35569727 -0.11573687
-0.40764624 -0.31505612 -0.00000125
-0.65728313 -0.67303908 -0.05673566
-0.48890525 0.10707428 -0.24307053
-0.61577994 -0.45462510 -0.11569448
-0.15265331 0.54497766 -0.05660890
-0.33728284 -0.54267383 -0.00000139
-0.11545319 -0.52486038 -0.00000001
-0.05630136 -0.27586260 0.00000097
-0.29258952 -0.33727512 -0.00000061
-0.05734758 -0.36684880 0.00000074
-0.66364914 -0.50822723 -0.14659747
-0.46161979 -0.23470372 -0.03976256
-0.11815112 0.02676808 -0.00000790
-0.50472802 0.02134786 -0.21936715
-0.12212629 0.24398649 -0.00000343
-0.05055983 -0.46233025 0.00000054
-0.31933272 0.32330111 -0.14673904
-0.36905879 -0.70173913 -0.00000198
-0.21691662 0.44923317 -0.08623313
-0.13697273 -0.62349808 -0.00000039
-0.09158510 -0.00217398 0.00000144
-0.22454590 0.02895398 -0.00000464
-0.53992373 -0.51309866 -0.00000254
-0.49634442 -0.05054622 -0.17341724
-0.34312737 -0.60975623 -0.00000160
-0.43460435 -0.11408890 -0.06738953
-0.06352198 0.47015020 -0.00000068
-0.22414601 -0.29037887 -0.00000008
-0.06594518 0.65136123 -0.00526643
-0.37390280 -0.78058743 -0.00000221
-0.63703907 -0.42330211 -0.15691286
-0.11552120 0.23296691 -0.00000385
-0.65732712 -0.74157500 -0.02260762
-0.66623062 -0.40937930 -0.19900420
-0.56038523 -0.42202652 -0.06525544
-0.20296805 0.33644924 -0.01318973
-0.17712903 -0.15054667 0.00000055
-0.23967651 0.03456390 -0.00000408
-0.56086224 -0.50222147 -0.02583409
-0.62189704 -0.67487276 -0.01321521
-0.11727211 0.43077067 0.00000015
-0.08363899 0.57566768 0.00000204
-0.21918334 -0.70629561 -0.00000109
-0.49074900 -0.16122653 -0.11148043
-0.50968188 -0.75527722 -0.00000296
-0.16904816 -0.06701954 0.00000081
-0.17129269 -0.44832903 -0.00000015
-0.23830265 -0.22094621 0.00000001
-0.32574233 -0.70410919 -0.00000173
-0.15333799 -0.55520523 -0.00000031
-0.64450669 -0.72965556 -0.01311608
-0.19913943 0.01110111 -0.00000577
-0.37052000 -0.70184839 -0.00000199
-0.20418775 0.33853203 -0.01569704
-0.46078950 0.00898979 -0.16030046
-0.29089120 0.22933938 -0.06563287
-0.28672388 -0.42437297 -0.00000079
-0.65480506 -0.64182884 -0.06931758
-0.41056430 0.05141715 -0.12098763
-0.09141930 0.62609434 -0.02333668
-0.44547418 -0.13676071 -0.06917001
-0.36703950 -0.14801082 -0.00000059
-0.10656091 0.27030474 -0.00000338
-0.40606344 -0.18737580 -0.00000092
-0.18150949 -0.77908343 -0.00000104
-0.66712308 -0.49484721 -0.15745319
-0.35200435 0.31815925 -0.18351215
-0.18401302 0.06375195 -0.00000517
-0.37943384 -0.39566430 -0.00000128
-0.52010608 -0.48376304 -0.00000235
-0.35083574 0.32449684 -0.18526600
-0.23101388 0.48172128 -0.11940938
-0.61050344 -0.67389745 0.18840747
-0.68747610 -0.63922632 -0.10995252
-0.35692933 -0.20079452 -0.00000066
-0.14159048 -0.41355005 0.00000011
-0.28837347 0.29994181 -0.09781312
-0.49349588 -0.11754585 -0.13657267
-0.28778160 0.37255856 -0.13331673
-0.27815902 -0.16807875 -0.00000010
-0.37424868 0.12964861 -0.11627896
-0.60282809 -0.65536797 0.21128473
-0.16030678 0.49981552 -0.04330013
-0.32296887 -0.17180391 -0.00000038
-0.65287018 -0.77617723 0.14522178
-0.55647451 -0.36293656 -0.09001682
-0.39124516 -0.08100457 -0.03168389
-0.66839015 -0.81364483 0.03837835
-0.38349551 0.23683169 -0.18086801
-0.26875916 0.34888631 -0.09860705
-0.50043660 -0.11732380 -0.14504030
-0.59217513 -0.76099479 -0.00000348
-0.18482220 0.53192502 -0.08883148
-0.53967631 -0.15924187 -0.17138024
-0.38074598 -0.21957684 -0.00000085
-0.05036272 0.65520114 0.00000262
-0.59001505 -0.27119124 -0.17615700
-0.45880878 -0.48513126 -0.00000198
-0.05448049 -0.78355628 -0.00000029
-0.63715577 -0.73824024 0.06480132
-0.38054490 -0.00826426 -0.05507832
-0.61094224 -0.60866958 -0.03304292
-0.45525390 0.05878161 -0.17846818
-0.41385257 -0.13111117 -0.03391419
-0.14734669 0.25784683 -0.00000240
-0.33324626 -0.53134131 -0.00000134
-0.32450727 -0.58261371 -0.00000142
-0.14435376 -0.34652296 0.00000026
-0.49662071 -0.54137892 -0.00000235
-0.60551357 -0.48533240 -0.08801874
-0.68335378 -0.72396326 -0.06272811
-0.41274065 -0.08299148 -0.05657420
-0.18980004 -0.44770852 -0.00000026
-0.49616039 -0.56863862 -0.00000242
-0.25863180 -0.24590400 -0.00000018
-0.43785542 -0.06769947 -0.09443977
-0.24765205 -0.20903356 -0.00000002
-0.62240106 -0.61532521 -0.04352029
-0.03385641 0.22413234 -0.00000650
-0.24581683 0.00887771 -0.00000440
-0.55887991 -0.29123759 -0.12867159
-0.55858833 -0.43331149 -0.05746376
-0.07646562 0.37120518 -0.00000227
-0.33912930 -0.11545353 -0.00000034
-0.55226779 0.04359083 -0.28769982
-0.28363630 -0.25501135 -0.00000035
-0.66850567 -0.42694095 -0.19298491
-0.18555091 -0.48757452 -0.00000034
-0.44075024 -0.17511261 -0.04435493
-0.59009206 -0.26726055 -0.17821006
-0.02076344 -0.51224715 0.00000059
-0.11251950 -0.52198023 0.00000002
-0.20385267 -0.61155176 -0.00000076
-0.34367064 -0.46554336 -0.00000124
-0.52236617 0.05779117 -0.25877950
-0.13239390 -0.09868545 0.00000095
-0.56279999 -0.12385005 -0.21687289
-0.54619652 -0.79587060 -0.00000329
-0.32825729 -0.70405608 -0.00000174
-0.03829656 0.74258327 -0.01747183
-0.31202742 0.10519142 -0.02916508
-0.18729691 -0.11974848 0.00000057
-0.13719162 0.57499003 -0.05296064
-0.37614125 -0.65232283 -0.00000190
-0.70143539 -0.55932873 -0.16660745
-0.10686090 0.14855187 -0.00000580
-0.30959722 -0.20034321 -0.00000037
-0.18951645 0.39562318 -0.02650549
-0.16275054 -0.57777846 -0.00000043
-0.43519136 -0.74665993 -0.00000249
-0.09619139 0.36120215 -0.00000187
-0.62629509 -0.72697949 -0.00000360
-0.64128268 -0.50488925 -0.12133228
-0.66929048 -0.46664444 -0.17412849
-0.27093726 -0.00618588 0.00000035
-0.38611156 -0.47824970 -0.00000153
-0.17385314 0.51201093 -0.06569263
-0.55286711 -0.36851633 -0.08289066
-0.13626164 0.11119346 -0.00000566
-0.61656857 -0.46522638 -0.11135679
-0.74439454 -0.81168270 -0.09247483
-0.45973238 -0.29726431 -0.00628915
-0.65647483 -0.25014549 -0.26667282
-0.64860713 -0.76588559 0.08228496
-0.09114375 -0.00439774 0.00000144
-0.57260901 -0.19488545 -0.19325568
-0.03313829 0.01655728 -0.00001067
-0.24345765 0.43100792 -0.10909985
-0.35423413 -0.43478140 -0.00000122
-0.32486621 -0.62346762 -0.00000152
-0.16764662 -0.74950790 -0.00000089
-0.35457304 0.21092026 -0.13312162
-0.13919234 -0.73932117 -0.00000069
-0.21789525 -0.26946071 0.00000001
-0.58106905 -0.27600044 -0.16298723
-0.16538474 -0.00229361 0.00000100
-0.55250025 -0.40579656 -0.06385609
-0.36922249 -0.09205733 -0.00000046
-0.08732543 -0.12354012 0.00000116
-0.44076464 0.06781309 -0.16552696
-0.25361162 0.21636686 -0.01427732
-0.38473806 -0.08131093 -0.02369637
-0.09726846 -0.63878292 -0.00000018
-0.35795543 -0.23004985 -0.00000074
-0.26358610 -0.66088408 -0.00000124
-0.63813996 -0.65143025 -0.04446378
-0.19592822 0.04879605 -0.00000511
-0.17317809 0.55261344 -0.08512957
-0.35887662 -0.24431257 -0.00000078
-0.53972346 -0.42698771 -0.03790372
-0.06133587 0.59511507 0.00000175
-0.20437911 -0.15921812 0.00000037
-0.13643099 0.23126987 -0.00000326
-0.12063389 0.04390607 -0.00000748
-0.62432635 -0.55883187 -0.07401344
-0.43785506 -0.56412792 -0.00000205
-0.60627407 -0.55929595 -0.05204650
-0.02376624 0.56312329 -0.00000002
-0.60771471 -0.47630835 -0.09516961
-0.64267874 -0.23661049 -0.25681224
-0.11397288 -0.12125243 0.00000101
-0.49364862 -0.19979121 -0.09573824
-0.50187397 0.10790009 -0.25909713
-0.43664494 -0.42488128 -0.00000170
-0.33120567 -0.36377117 -0.00000091
-0.14007553 0.61025304 -0.07401970
-0.24634059 -0.07212632 0.00000033
-0.59000921 -0.62442124 0.19376020
-0.18759073 -0.79293817 -0.00000111
-0.42724222 -0.13403003 -0.04858003
-0.48415950 -0.77424014 -0.00000286
-0.18559419 0.03269933 -0.00000575
-0.70584744 -0.70576137 -0.09888916
-0.65031666 -0.68733287 -0.04121909
-0.38228413 0.28140628 -0.20164016
-0.17758898 0.54648262 -0.08738281
-0.43118829 -0.47189149 -0.00000178
-0.05748680 0.10434665 -0.00000818
-0.58826005 -0.11228975 -0.25329310
-0.06179046 -0.45777670 0.00000048
-0.25216779 0.44627914 -0.12720338
-0.32480997 -0.73453844 -0.00000180
-0.04242333 0.74203151 -0.02216549
-0.59528399 -0.63715529 0.18252432
-0.17400374 0.49598190 -0.05787975
-0.13804780 0.49445638 -0.01382685
-0.51678962 -0.06084871 -0.19289570
-0.25752226 -0.67267543 -0.00000124
-0.13906612 0.03656727 -0.00000707
-0.69777220 -0.62288892 -0.13049740
-0.06841746 -0.79162037 -0.00000039
-0.48924252 -0.14332913 -0.11859255
-0.67438298 -0.52104914 -0.15312663
-0.38542312 -0.18120082 -0.00000078
-0.07024378 -0.44770452 0.00000046
-0.48003745 -0.12581649 -0.11624348
-0.10537074 0.16212079 -0.00000558
-0.38370165 -0.26090515 -0.00000097
-0.05622264 0.42731771 -0.00000176
-0.69390541 -0.69502270 -0.08986622
-0.41338909 -0.27877203 -0.00000119
-0.04785642 -0.26069304 0.00000106
-0.37158784 0.13516147 -0.11582466
-0.67503321 -0.69518423 -0.06706289
-0.38106903 -0.39367130 -0.00000128
-0.04903470 0.71853906 -0.01840937
-0.37262139 -0.05728703 -0.02108900
-0.21305354 -0.18189240 0.00000026
-0.40193152 -0.02895067 -0.07051154
-0.29389429 0.22822969 -0.06869528
-0.08927365 -0.08132040 0.00000126
-0.27633771 -0.46913576 -0.00000084
-0.32476977 -0.34971160 -0.00000083
-0.46755961 0.05651349 -0.19215347
-0.49098536 -0.15689620 -0.11392468
-0.31677508 0.03581150 -0.00027945
-0.04091299 0.63577461 0.00000195
-0.69648594 -0.57999021 -0.15034357
-0.51099569 -0.03493644 -0.19884288
-0.44069287 -0.15724698 -0.05319600
-0.13356978 -0.70578104 -0.00000057
-0.62118548 -0.70247096 -0.00000351
-0.41295525 -0.39574847 -0.00000148
-0.00980218 0.51295984 -0.00000144
-0.01785635 -0.00058931 0.00000189
-0.73710304 -0.72311962 -0.12786479
-0.45080268 -0.57563400 -0.00000216
-0.16510496 0.12839629 -0.00000445
-0.71999538 -0.77783042 -0.07998063
-0.01753464 0.63043213 0.00000114
-0.29409096 0.31629476 -0.11285288
-0.16589296 -0.65457696 -0.00000064
-0.32017618 0.32923853 -0.15071575
-0.61691785 -0.05652395 -0.31561014
-0.22748089 -0.71377248 -0.00000116
-0.12703307 -0.74296916 -0.00000062
-0.44567972 -0.42616940 -0.00000176
-0.36779949 -0.51918840 -0.00000152
-0.10493922 0.28766528 -0.00000308
-0.57752597 -0.59428477 0.21746893
-0.62644893 -0.04294280 -0.33385915
-0.37449205 0.02356912 -0.06366681
-0.16887130 0.21792480 -0.00000255
-0.49297538 -0.36820215 -0.01093580
-0.26397690 0.01686109 -0.00000370
-0.13698660 -0.79624516 -0.00000082
-0.11743586 -0.30490416 0.00000053
-0.49815613 -0.30834731 -0.04702507
-0.46457025 0.12240787 -0.22141778
-0.45167211 0.04946591 -0.16950956
-0.44293600 0.11453560 -0.19144332
-0.51775378 -0.27298513 -0.08825750
-0.61023843 -0.32763839 -0.17235456
-0.14632970 0.17897551 -0.00000400
-0.64431316 -0.32523471 -0.21458040
-0.43407059 0.12676804 -0.18686980
-0.07991356 0.54279530 0.00000127
-0.69672614 -0.63478923 -0.12330280
-0.02938170 -0.74887317 -0.00000005
-0.55031985 -0.50411457 -0.01219655
-0.31716597 0.10529142 -0.03540191
-0.54735148 -0.19374982 -0.16341120
-0.16089042 -0.01518077 0.00000099
-0.48684284 -0.71876383 -0.00000274
-0.38474661 0.06016297 -0.09426413
-0.39765236 -0.34285903 -0.00000126
-0.04383163 0.70930761 -0.00754069
-0.18337615 -0.63039267 -0.00000068
-0.63886267 -0.09597555 -0.32235661
-0.59001118 -0.62442607 0.22551408
-0.62223470 -0.12039667 -0.29015645
-0.37001917 0.23858266 -0.16551533
-0.47246486 -0.27789494 -0.03127954
-0.09310866 -0.18487643 0.00000098
-0.09774865 0.49871418 0.00000092
-0.15711518 0.03957513 -0.00000647
-0.47924051 -0.10350963 -0.12640907
-0.50955617 -0.41147056 -0.00932030
-0.49345133 0.08294382 -0.23650955
-0.05547866 0.00475297 -0.00001023
-0.14268981 -0.18595795 0.00000067
-0.03939210 -0.59576088 0.00000027
-0.29249460 -0.74902797 -0.00000164
-0.38395604 -0.59693867 -0.00000181
-0.63207030 -0.41834980 -0.15340023
-0.20673890 -0.78434163 -0.00000121
-0.52350342 -0.43446332 -0.01464603
-0.08361095 -0.05510408 0.00000136
-0.00369639 -0.18028229 0.00000153
-0.68701828 -0.40755230 -0.22494444
-0.59366757 -0.48041993 -0.07620579
-0.54946369 -0.29951227 -0.11320730
-0.36947954 0.28427202 -0.18765233
-0.51201385 -0.01704234 -0.20899314
-0.41535503 -0.03243365 -0.08493679
-0.27072176 -0.01150726 0.00000034
-0.66244614 -0.78213185 -0.00854413
-0.13210110 -0.47624427 0.00000001
-0.39365715 -0.27788290 -0.00000107
-0.44431096 -0.09721249 -0.08749338
-0.64612341 -0.21088444 -0.27379006
-0.59255445 -0.25000852 -0.18977898
-0.53379822 -0.30982101 -0.08920426
-0.12743761 -0.18490876 0.00000077
-0.47668713 0.09368422 -0.22168148
-0.62589765 -0.28538236 -0.21228316
-0.06008049 0.62588823 0.00000233
-0.60416752 -0.54930961 -0.05449066
-0.12090865 -0.03663153 0.00000118
-0.33981794 -0.20447885 -0.00000056
-0.67586404 -0.80080670 -0.01538600
-0.17848878 -0.14705645 0.00000056
-0.35458052 -0.49728414 -0.00000138
-0.20139606 0.15628174 -0.00000280
-0.36961040 -0.73304170 -0.00000206
-0.30821988 -0.02758224 0.00000007
-0.16832966 -0.34916058 0.00000011
-0.11435725 0.59619373 -0.03604230
-0.64202935 -0.39004683 -0.17950679
-0.60161585 -0.09496351 -0.27801505
-0.60494745 -0.44873849 -0.10558769
-0.30096009 -0.23365225 -0.00000040
-0.60454237 -0.55929434 -0.04996227
-0.04332665 0.70640534 -0.00548525
-0.37359637 -0.55515343 -0.00000164
-0.36792976 0.24592155 -0.16665979
-0.58310443 -0.38417819 -0.11148628
-0.14207676 -0.60195601 -0.00000036
-0.26006249 -0.07511094 0.00000024
-0.65196300 -0.26669237 -0.25298798
-0.58112192 -0.57018310 -0.01633272
-0.18303628 -0.28658283 0.00000018
-0.64036870 -0.74599671 0.14234971
-0.15989804 -0.30541417 0.00000027
-0.23572898 -0.32676911 -0.00000024
-0.04250674 0.57885581 0.00000086
-0.08021820 -0.64573240 -0.00000010
-0.13922343 0.52164036 -0.02879983
-0.02071762 0.40377393 -0.00000330
-0.31824350 -0.58870476 -0.00000139
-0.35734543 0.06996624 -0.06616147
-0.50830603 -0.26625371 -0.08023927
-0.28160739 -0.04497238 0.00000019
-0.55740637 -0.75191057 -0.00000324
-0.55018353 -0.09010096 -0.21851400
-0.59819394 -0.73220897 -0.00000344
-0.01696668 -0.01431068 0.00000186
-0.43351838 -0.52234787 -0.00000192
-0.57969773 -0.06165163 -0.26823860
-0.08268354 -0.39983797 0.00000050
-0.00824938 0.05147660 -0.00001072
-0.31887996 -0.38952446 -0.00000090
-0.51883030 -0.36618233 -0.04307328
-0.54003078 -0.27897686 -0.11209146
-0.00054159 -0.48834178 0.00000078
-0.15894932 0.20806092 -0.00000304
-0.50581354 -0.18469022 -0.11791654
-0.16907758 -0.45678890 -0.00000016
-0.28823909 -0.63080364 -0.00000132
-0.33910167 -0.76274210 -0.00000195
-0.39121455 -0.01675164 -0.06369201
-0.59528995 -0.65963697 -0.00000324
-0.04303334 0.37291309 -0.00000324
-0.64546674 -0.75830418 0.09240809
-0.26079434 -0.68352383 -0.00000128
-0.20030148 0.00735296 -0.00000581
-0.67018896 -0.67900884 -0.06929743
-0.16638371 0.23783831 -0.00000222
-0.18788081 0.51127887 -0.08221725
-0.40967384 -0.04333338 -0.07266042
-0.67643315 -0.55150086 -0.14040789
-0.05193552 -0.55145961 0.00000031
-0.61402166 -0.64437211 -0.01894468
-0.30383560 -0.22132637 -0.00000039
-0.66431201 -0.80379957 0.09682062
-0.59139729 -0.61811906 -0.00479745
-0.20547855 -0.21819849 0.00000021
-0.43593457 -0.38925290 -0.00000160
-0.18254809 -0.35931998 -0.00000000
-0.55533284 -0.52010769 -0.01025607
-0.14269716 -0.43564534 0.00000005
-0.27551961 -0.38651004 -0.00000063
-0.20765664 -0.14760357 0.00000038
-0.35054794 -0.61926293 -0.00000166
-0.69073534 -0.46975031 -0.19839980
-0.38581035 0.11383659 -0.12231363
-0.17299531 0.01437572 -0.00000649
-0.06843046 -0.07825958 0.00000139
-0.06911589 0.66213143 -0.01445548
-0.11564329 0.55220252 -0.01565093
-0.55704367 -0.35260686 -0.09585391
-0.61283445 -0.61304283 -0.03314012
-0.08743610 0.21533307 -0.00000505
-0.51398528 -0.55059910 -0.00000248
-0.39239195 0.20664442 -0.17652428
-0.58842522 -0.08494618 -0.26712906
-0.48165852 -0.21960631 -0.07141937
-0.34754807 -0.64018548 -0.00000170
-0.63712764 -0.24849853 -0.24419957
-0.41016263 0.17069589 -0.17999206
-0.44320989 -0.00010797 -0.13459674
-0.73675704 -0.74699062 -0.11554300
-0.04550969 0.70722646 -0.00852320
-0.42483345 -0.35051447 -0.00000144
-0.58462381 -0.01350374 -0.29818261
-0.28420225 0.22949541 -0.05765700
-0.64873058 -0.58025724 -0.09271138
-0.61962354 -0.25281867 -0.22096948
-0.28046870 0.18433174 -0.03063716
-0.34477898 0.06530405 -0.04870588
-0.05467568 -0.79141933 -0.00000031
-0.12483843 -0.77760357 -0.00000070
-0.21666832 0.33464283 -0.02878437
-0.59869504 -0.64539015 0.16070414
-0.30474257 0.10292330 -0.01926270
-0.26641732 -0.35643291 -0.00000050
-0.41784412 -0.30338258 -0.00000128
-0.26004210 0.04045042 -0.00000334
-0.72021717 -0.67370713 -0.13217720
-0.27570257 0.16091724 -0.01322103
-0.33349311 -0.34456646 -0.00000087
-0.65770417 -0.46270984 -0.16214046
-0.29005551 -0.78746766 -0.00000172
-0.60301745 -0.65582514 0.19345219
-0.53433603 -0.42876402 -0.03053122
-0.64575183 -0.35920972 -0.19936825
-0.66972762 -0.53032005 -0.14289775
-0.52206856 -0.56884938 -0.00000257
-0.21449669 0.15612282 -0.00000240
-0.35877872 -0.77659941 -0.00000211
-0.30473721 0.14954875 -0.04250983
-0.56738114 -0.19345935 -0.18767238
-0.56388682 -0.43787491 -0.06156743
-0.18975067 0.52072668 -0.08918055
-0.27772933 0.30370954 -0.08687633
-0.64779198 -0.72641438 -0.01868812
-0.38304424 0.08551658 -0.10485907
-0.28540692 -0.34117597 -0.00000058
-0.46627286 -0.34390476 -0.00000167
-0.19469813 0.22046947 -0.00000172
-0.00351844 -0.61589056 0.00000044
-0.35736156 -0.44462696 -0.00000127
-0.30200726 0.10180959 -0.01541387
-0.18555240 -0.51779127 -0.00000041
-0.39081335 -0.60579926 -0.00000187
-0.02214847 0.15183128 -0.00000829
-0.06927755 0.51569998 0.00000040
-0.41426280 0.03499323 -0.11724960
-0.32079810 -0.21183728 -0.00000047
-0.57967752 -0.01331923 -0.29231912
-0.18582404 -0.00631537 0.00000086
-0.17104454 -0.70771515 -0.00000080
-0.62161100 -0.07474317 -0.31217429
-0.11967070 -0.10364572 0.00000102
-0.47286424 -0.24423625 -0.04854707
-0.26892653 0.35244849 -0.10058513
-0.12384059 0.52827179 -0.01358573
-0.15729605 0.57564646 -0.07749439
-0.57495689 -0.50189662 -0.04296651
-0.34826028 0.25082561 -0.14542292
-0.57770580 -0.75842941 -0.00000338
-0.16144007 -0.35924709 0.00000013
-0.24013038 0.00776768 -0.00000460
-0.03137688 0.31277519 -0.00000480
-0.46567914 -0.12201493 -0.10085158
-0.04125643 0.73839182 -0.01894519
-0.12249705 -0.29620567 0.00000052
-0.10892068 -0.43518981 0.00000025
-0.45391396 -0.01851640 -0.13830389
-0.44695354 0.02512787 -0.15169013
-0.17751168 -0.04710981 0.00000081
-0.00529243 0.57415301 -0.00000036
-0.45461690 -0.47343561 -0.00000193
-0.18190821 -0.09165266 0.00000067
-0.05407431 -0.36268786 0.00000077
-0.07889361 0.25799266 -0.00000446
-0.20147270 -0.04379900 0.00000067
-0.66456413 -0.69995797 -0.05207695
-0.39836019 -0.40281644 -0.00000141
-0.24125022 0.06346605 -0.00000345
-0.74737835 -0.80551332 -0.09914427
-0.46748829 -0.04829858 -0.13979451
-0.01358677 0.04105668 -0.00001077
-0.02122918 -0.21232747 0.00000134
-0.28382856 0.04069009 -0.00000262
-0.68001318 -0.55265266 -0.14414392
-0.50019795 -0.29500505 -0.05613768
-0.31025067 0.37596312 -0.16206804
-0.10002181 0.44426239 -0.00000010
-0.58938611 -0.25432631 -0.18381079
-0.47957215 -0.36213574 -0.00000180
-0.23072433 0.46795312 -0.11219428
-0.56421947 -0.23067465 -0.16530521
-0.49349850 -0.56623691 -0.00000239
-0.61334920 -0.17657226 -0.25144151
-0.37921569 -0.65146852 -0.00000192
-0.52634221 -0.70240819 -0.00000293
-0.34014365 -0.64891398 -0.00000168
-0.49148965 0.12025574 -0.25275621
-0.06541304 0.30296561 -0.00000397
-0.55388528 -0.02407419 -0.25590068
-0.51531190 -0.40359023 -0.02018050
-0.19481178 0.19305634 -0.00000226
-0.00181204 0.73422271 0.00000274
-0.02902528 0.34664878 -0.00000419
-0.58897650 -0.12742518 -0.24660720
-0.05073219 -0.27104720 0.00000102
-0.09186272 -0.52878219 0.00000012
-0.07867573 0.59651154 0.00000230
-0.43941191 -0.41640389 -0.00000169
-0.41132188 -0.10896343 -0.04191294
-0.24171957 -0.27122411 -0.00000014
-0.10633164 0.33049729 -0.00000218
-0.38151994 0.28228834 -0.20116003
-0.35663354 0.29349235 -0.17678383
-0.14636721 0.10789995 -0.00000543
-0.07112096 -0.30800086 0.00000080
-0.55579263 -0.08792853 -0.22635101
-0.18921581 0.47406822 -0.06526651
-0.21337678 -0.74648649 -0.00000115
-0.15680280 0.30478504 -0.00000117
-0.35659921 -0.65153044 -0.00000178
-0.13144080 -0.22454038 0.00000065
-0.37992492 -0.59991324 -0.00000179
-0.50999290 -0.34358180 -0.04370436
-0.15861298 -0.20140652 0.00000054
-0.00615808 -0.61923462 0.00000041
-0.26499325 -0.55958652 -0.00000100
-0.20141913 -0.61110884 -0.00000074
-0.40404394 -0.38835004 -0.00000141
-0.60093182 -0.08032945 -0.28448987
-0.04534681 -0.49997616 0.00000048
-0.09639844 0.20805588 -0.00000493
-0.11922479 -0.45958990 0.00000013
-0.09051313 -0.22330695 0.00000090
-0.42520571 0.20923404 -0.21732458
-0.09240999 0.24282214 -0.00000435
-0.01318420 -0.21310112 0.00000139
-0.05796419 0.03682695 -0.00000951
-0.50977647 -0.21477260 -0.10768502
-0.18628065 0.44115734 -0.04531879
-0.48355564 -0.72226310 -0.00000272
-0.09794582 0.00735365 -0.00000890
-0.18944669 0.48170686 -0.06935413
-0.64100415 -0.51716650 -0.11487388
-0.55977482 -0.40780580 -0.07161284
-0.00318382 -0.73611885 0.00000014
-0.63014948 -0.72132599 0.11268980
-0.18487300 -0.41054246 -0.00000014
-0.50927335 -0.54570431 -0.00000244
-0.16500314 0.33385697 -0.00000034
-0.01927297 -0.43100014 0.00000081
-0.52436405 -0.08895967 -0.18799575
-0.31115657 0.33157879 -0.14102302
-0.07637664 -0.43994766 0.00000044
-0.16278616 -0.69011748 -0.00000071
-0.32407779 -0.43821448 -0.00000105
-0.01281122 0.78190523 -0.00639787
-0.33560163 -0.40719771 -0.00000104
-0.19117813 0.27682450 -0.00000069
-0.05905194 0.22928846 -0.00000563
-0.47948030 -0.10231055 -0.12729581
-0.28120506 0.29172584 -0.08508456
-0.24171060 0.32307583 -0.05316722
-0.25576037 -0.40872926 -0.00000057
-0.70080429 -0.54559201 -0.17269851
-0.22606833 -0.79258841 -0.00000135
-0.04025848 -0.45363620 0.00000062
-0.24262656 0.32685110 -0.05615294
-0.06025021 -0.00984515 0.00000161
-0.50309557 0.07544348 -0.24438085
-0.68816268 -0.63119030 -0.11478707
-0.19134969 -0.50515109 -0.00000042
-0.42538100 -0.09957702 -0.06352187
-0.42400602 -0.72848368 -0.00000238
-0.06407840 0.42314908 -0.00000160
-0.57595307 -0.71388859 -0.00000326
-0.11378925 -0.20657928 0.00000080
-0.00256726 -0.25921524 0.00000137
-0.40506014 -0.07434873 -0.05163704
-0.73265451 -0.68242317 -0.14280522
-0.63703811 -0.73795617 0.15302943
-0.54472947 0.04650831 -0.28007847
-0.30899948 -0.78421140 -0.00000183
-0.00549746 0.54697239 -0.00000089
-0.36810303 -0.26718143 -0.00000089
-0.24071050 0.39095616 -0.08581712
-0.61212146 -0.03203105 -0.32205051
-0.44387230 0.05713250 -0.16394192
-0.15121816 -0.52559817 -0.00000023
-0.58770502 -0.40405837 -0.10711063
-0.46188587 -0.47948998 -0.00000199
-0.58848900 -0.04426866 -0.28749302
-0.23652583 -0.49986148 -0.00000068
-0.10829156 0.63234997 -0.04677127
-0.32408041 -0.10702279 -0.00000022
-0.18533662 -0.69690001 -0.00000086
-0.13857727 0.18920431 -0.00000403
-0.49394068 -0.16997112 -0.11096208
-0.03287497 -0.55497652 0.00000041
-0.24912480 -0.76099819 -0.00000141
-0.08991215 -0.56131047 0.00000005
-0.04791098 -0.27760723 0.00000102
-0.49442247 -0.45695284 -0.00000213
-0.15509082 -0.61966771 -0.00000049
-0.19792436 -0.05793421 0.00000066
-0.54620826 -0.64714718 -0.00000291
-0.59779203 -0.08728331 -0.27724138
-0.42327130 -0.00636324 -0.10747034
-0.50511515 -0.18619710 -0.11632409
-0.47651210 0.14523770 -0.24718210
-0.59324014 -0.22388791 -0.20363173
-0.29944482 0.15470400 -0.03870872
-0.68495405 -0.45078003 -0.20090002
-0.01708910 -0.05172952 0.00000177
-0.33876953 0.24598840 -0.13158327
-0.21791185 0.45203632 -0.08882945
-0.22629964 -0.67896813 -0.00000106
-0.44216797 -0.55360085 -0.00000205
-0.35535127 0.25209215 -0.15459237
-0.23533012 0.31014928 -0.03903805
-0.22122908 -0.21753424 0.00000012
-0.59905040 -0.20046565 -0.22230889
-0.53889138 -0.45187989 -0.02448736
-0.15221862 -0.26986459 0.00000041
-0.36259666 0.08214496 -0.07855803
-0.42702347 -0.08503628 -0.07275138
-0.65701288 -0.51177663 -0.13683699
-0.44845954 -0.08019738 -0.10097439
-0.01866098 0.03034789 -0.00001083
-0.11855705 0.46132010 0.00000080
-0.58626711 -0.02025149 -0.29679587
-0.47836876 -0.64590144 -0.00000250
-0.24701941 0.41235262 -0.10408435
-0.40578315 -0.30177966 -0.00000120
-0.61657292 -0.71113843 -0.00000350
-0.44718611 0.19200821 -0.23519860
-0.03609936 0.51300681 -0.00000065
-0.09926184 -0.38316634 0.00000044
-0.01945613 0.27395254 -0.00000593
-0.54516685 -0.18862987 -0.16333428
-0.39108759 -0.57090485 -0.00000179
-0.18881787 -0.65456969 -0.00000078
-0.29208097 0.09711231 -0.00111963
-0.44249555 0.13489230 -0.20106553
-0.62664258 -0.54033071 -0.08602939
-0.29017946 0.09528169 -0.00000134
-0.41093826 -0.45688617 -0.00000162
-0.08506347 -0.03459731 0.00000140
-0.01097395 0.64401442 0.00000121
-0.29278123 -0.29967877 -0.00000052
-0.54639560 -0.49127230 -0.01387650
-0.45809215 -0.16021967 -0.07266269
-0.65545678 -0.68786603 -0.04714204
-0.20771244 -0.25937715 0.00000010
-0.45654982 0.08186558 -0.19154121
-0.00890623 0.15972294 -0.00000854
-0.66056293 -0.79474866 0.01472186
-0.24413276 0.42966512 -0.10924300
-0.22032157 0.46263096 -0.09701469
-0.42379028 0.00227002 -0.11240089
-0.42668760 -0.71513927 -0.00000236
-0.19890624 -0.18621022 0.00000033
-0.50838000 0.10104210 -0.26351029
-0.62742859 -0.04876657 -0.33213422
-0.20757864 -0.25597021 0.00000011
-0.61032468 -0.27098486 -0.20071337
-0.66283900 -0.80024350 0.00777641
-0.73047948 -0.76968867 -0.09666436
-0.33245310 -0.01665258 -0.00000005
-0.03342713 0.42627081 -0.00000247
-0.66963357 -0.39129540 -0.21212050
-0.57642150 -0.05197946 -0.26911768
-0.47150263 -0.74339378 -0.00000270
-0.15426408 0.08087790 -0.00000573
-0.65795422 -0.70334601 -0.04242868
-0.43941307 -0.74757951 -0.00000252
-0.32520601 0.13679975 -0.06079655
-0.36302719 -0.69425267 -0.00000193
-0.55167812 -0.55039811 -0.00000271
-0.01510190 0.42577881 -0.00000303
-0.40081653 0.19099678 -0.17886373
-0.23315012 -0.78094167 -0.00000136
-0.58978176 -0.47683376 -0.07331573
-0.42891005 -0.24227352 -0.00000119
-0.51845556 0.03442401 -0.24241702
-0.46727434 -0.11627844 -0.10563321
-0.62215889 -0.10182932 -0.29932529
-0.66790754 -0.28520861 -0.26295111
-0.04591922 -0.22801816 0.00000115
-0.34678504 -0.33446968 -0.00000093
-0.26389170 0.32561272 -0.08113918
-0.10443610 -0.32900205 0.00000055
-0.45416072 -0.21419582 -0.04100954
-0.09065886 0.44614738 -0.00000034
-0.11907635 0.33577320 -0.00000169
-0.24578740 0.41226473 -0.10255713
-0.20673150 -0.79400712 -0.00000123
-0.04717574 -0.49268225 0.00000048
-0.63315213 -0.11312932 -0.30692583
-0.16515782 0.40661177 -0.00265729
-0.25425220 -0.28190860 -0.00000024
-0.37135321 -0.06355256 -0.01643724
-0.30809203 -0.07478003 -0.00000005
-0.35456061 -0.54548222 -0.00000150
-0.02006466 -0.35992935 0.00000098
-0.10096757 0.51914358 0.00000143
-0.05792465 0.12550457 -0.00000774
-0.10332280 0.54063964 0.00000193
-0.51996940 -0.37774470 -0.03867826
-0.28968489 0.06927984 -0.00000187
-0.70973676 -0.53806287 -0.18720853
-0.12961161 0.19439749 -0.00000420
-0.36178523 0.01818486 -0.04568212
-0.47816113 0.09740793 -0.22531337
-0.49861082 -0.25192463 -0.07571232
-0.15973911 0.07526617 -0.00000567
-0.46672571 -0.32855538 -0.00000164
-0.19831917 -0.37453333 -0.00000013
-0.46690196 -0.76637644 -0.00000273
-0.34437680 0.07969993 -0.05540131
-0.12130565 0.30004808 -0.00000234
-0.56167644 -0.04942698 -0.25263721
-0.57743645 -0.35510167 -0.11916320
-0.57415324 -0.12207845 -0.23142613
-0.34181845 0.10112605 -0.06300686
-0.21356867 -0.09812828 0.00000047
-0.18201768 -0.33661920 0.00000006
-0.05269010 0.37443084 -0.00000292
-0.23467085 -0.08684064 0.00000037
-0.61572903 -0.74718755 -0.00000358
-0.43754873 -0.53897750 -0.00000199
-0.20735112 0.43038571 -0.06531615
-0.02273015 0.51783466 -0.00000096
-0.67132884 -0.63895392 -0.09064657
-0.40578279 0.20314412 -0.19090155
-0.70285344 -0.65054494 -0.12282244
-0.11420695 -0.67226583 -0.00000037
-0.46362320 -0.25451693 -0.03229326
-0.13801278 -0.73746920 -0.00000068
-0.02362946 0.60610086 0.00000084
-0.39906058 0.13838810 -0.15051194
-0.31748408 0.18608855 -0.07608101
-0.54891884 -0.38978541 -0.06752921
-0.44363609 -0.02931303 -0.12054440
-0.62105983 -0.06830020 -0.31472400
-0.45127645 -0.57310009 -0.00000216
-0.00465838 -0.26663211 0.00000131
-0.00692246 0.20268907 -0.00000774
-0.11479828 -0.64275086 -0.00000030
-0.16511294 -0.14543335 0.00000064
-0.49698189 -0.25039867 -0.07451207
-0.51246709 -0.53650564 -0.00000243
-0.12769632 0.34461355 -0.00000125
-0.02375668 0.61936462 0.00000110
-0.04083656 -0.32893223 0.00000093
-0.38072485 -0.01379018 -0.05253907
-0.09540436 0.64636976 -0.03824681
-0.06719075 0.40945762 -0.00000178
-0.33806559 0.24022488 -0.12786128
-0.64804912 -0.42083946 -0.17139754
-0.67285866 -0.26505664 -0.27896285
-0.65011144 -0.76951718 0.08622089
-0.11221987 -0.36488223 0.00000041
-0.14675032 -0.60952944 -0.00000041
-0.51639169 -0.40966052 -0.01845321
-0.45730275 0.04349614 -0.17331173
-0.60813344 -0.04874601 -0.30891252
-0.41297710 -0.02645780 -0.08505404
-0.36313355 -0.27874753 -0.00000089
-0.00714473 0.07219509 -0.00001034
-0.47098577 -0.13051523 -0.10300154
-0.30539635 -0.32485381 -0.00000066
-0.09416705 0.33164823 -0.00000253
-0.58356851 -0.38721770 -0.11052915
-0.37051585 -0.10359266 -0.00000050
-0.64706558 -0.51361394 -0.12394378
-0.15318923 -0.01647374 0.00000103
-0.20822939 0.29433295 0.00000017
-0.43230256 -0.68315184 -0.00000232
-0.62103570 -0.69932389 0.10982865
-0.50961804 -0.00740978 -0.21091262
-0.04802976 -0.08131404 0.00000151
-0.09550730 0.44075826 -0.00000030
-0.43859836 -0.22269213 -0.01803461
-0.46541747 0.08730858 -0.20493275
-0.46966073 0.16299652 -0.24778970
-0.01063185 -0.62037075 0.00000038
-0.09103460 0.29730934 -0.00000331
-0.12224682 -0.43856800 0.00000017
-0.16075914 -0.53271037 -0.00000030
-0.65480530 -0.71075499 -0.03494220
-0.52865070 0.08516192 -0.27999684
-0.03255442 -0.52476054 0.00000049
-0.63914371 -0.74303949 0.16576274
-0.41877273 -0.27252978 -0.00000121
-0.33527777 -0.50565141 -0.00000129
-0.55174017 -0.23843569 -0.14640903
-0.21807858 -0.25062066 0.00000006
-0.46281883 -0.49322683 -0.00000203
-0.69085646 -0.76044041 -0.05356937
-0.22373660 -0.22026893 0.00000010
-0.48830709 0.05858502 -0.21816722
-0.66420323 -0.80353689 0.03297173
-0.14816640 -0.43894291 0.00000001
-0.58854651 -0.14086345 -0.23938736
-0.54351717 -0.22005410 -0.14567582
-0.14685322 -0.21721892 0.00000057
-0.13715988 0.16779476 -0.00000450
-0.00578000 -0.61886132 0.00000042
-0.29654634 -0.71442032 -0.00000158
-0.00302304 -0.41878584 0.00000093
-0.36480454 -0.17930984 -0.00000065
-0.02662800 -0.74723089 -0.00000003
-0.74631816 -0.76576608 -0.11769101
-0.20194097 0.51645488 -0.10172756
-0.21729264 -0.71710563 -0.00000110
-0.12882470 0.54659992 -0.02872756
-0.20466036 -0.12344099 0.00000046
-0.10549194 0.04359274 -0.00000794
-0.27288511 0.23866951 -0.04860625
-0.16829360 -0.70839405 -0.00000079
-0.02867613 0.07816612 -0.00000957
-0.73183823 -0.69521368 -0.13544337
-0.66065681 -0.27985975 -0.25688860
-0.12366202 -0.55993545 -0.00000015
-0.36203024 -0.43225193 -0.00000127
-0.32646590 0.24190496 -0.11473278
-0.64820337 -0.72181684 -0.02147639
-0.61496705 -0.42726040 -0.12836339
-0.05540534 -0.30423528 0.00000091
-0.20300169 0.44664347 -0.06818756
-0.01887785 0.30670652 -0.00000530
-0.28803328 -0.65696812 -0.00000138
