ply
format ascii 1.0
element vertex 1033
property float x
property float y
property float z
end_header
-0.19963072 0.41117176 -0.00724591
-0.62956005 0.01681191 -0.05735782
-0.73316574 -0.12998126 -0.06540402
-0.39079475 -0.14348263 0.31724271
-0.11442541 0.52373773 0.10277445
-0.62012178 -0.13013904 -0.04414218
-0.77216136 -0.18089487 -0.06877008
-0.31038427 0.05064553 0.30126458
-0.44854775 -0.28291163 0.36245656
-0.09888280 0.56126297 0.03867202
-0.63189912 -0.72554988 0.15307391
-0.10365137 0.54975098 0.02873255
-0.41248241 0.29432330 -0.03815921
-0.35478768 0.03358546 -0.00701317
-0.46052864 -0.31183222 0.24120229
-0.69201505 -0.56464577 -0.02382609
-0.59199375 -0.62921220 0.20106384
-0.60997206 -0.67261249 0.02786303
-0.39485505 -0.15328731 0.38494089
-0.40383959 -0.17497493 0.29720023
-0.24455367 0.20958202 0.07201838
-0.60427916 -0.65886819 0.01278297
-0.18491895 0.35355374 0.03897170
-0.55153996 -0.42396629 -0.00837333
-0.36740878 -0.08701812 0.14046501
-0.39710265 -0.15105401 -0.00059152
-0.79205370 -0.05377309 -0.08240696
-0.59830552 -0.64444989 0.18387878
-0.57175988 -0.58036447 0.17044403
-0.64371407 -0.74054909 -0.00105099
-0.63946003 -0.74380308 0.13843185
-0.50480878 -0.41873005 0.13431630
-0.35251799 0.21370652 -0.02061059
-0.40011546 0.10330913 -0.02096234
-0.61001384 -0.06741048 -0.04712612
-0.06915288 0.63303816 0.00890169
-0.58734524 -0.61798692 0.03132193
-0.56493849 -0.56389660 0.21061721
-0.48838019 -0.37906864 0.15158352
-0.63711464 -0.73814082 0.03861636
-0.11076210 0.53258383 0.03870682
-0.40781045 -0.18417224 -0.00002577
-0.40030298 -0.16643897 0.36241958
-0.50592148 -0.42142057 0.27740976
-0.76459771 -0.32531041 -0.05610406
-0.32436430 0.30795950 -0.02265683
-0.76013398 -0.55727965 -0.03720372
-0.67985338 -0.02001244 -0.06394465
-0.28527343 0.14809141 -0.00286149
-0.19966730 0.31794861 0.02552613
-0.29979563 0.07621162 0.21486551
-0.50012761 -0.09186215 -0.02456637
-0.30296585 0.26210052 -0.01506389
-0.47878772 0.18605755 -0.04219355
-0.23226890 0.23924243 0.00066752
-0.52351189 -0.46387964 0.02643606
-0.43709055 -0.25524896 0.27753386
-0.70826340 -0.16340916 -0.05812031
-0.69488609 -0.39167988 -0.03783275
-0.45064279 -0.28796899 0.33829314
-0.17339484 0.38137048 0.18447264
-0.36288401 0.20855036 -0.02215770
-0.57661659 -0.59208941 0.22535743
-0.38438219 -0.02286049 -0.00818140
-0.34400997 0.09588890 -0.00983811
-0.64491111 -0.75696290 0.16747123
-0.12203350 0.66567832 -0.01247515
-0.71779722 0.07118619 -0.07817781
-0.56654346 -0.25450718 -0.02438756
-0.45638385 -0.30182785 0.30108497
-0.46018109 0.01387922 -0.02529030
-0.55093002 -0.43338162 -0.00752561
-0.32708544 0.01032803 0.22448197
-0.55049568 -0.52902335 0.00028029
-0.54490751 -0.05308967 -0.03600270
-0.76694196 -0.03799516 -0.07891510
-0.18993677 0.34143898 0.06044231
-0.52996409 0.02046978 -0.03892097
-0.66555119 -0.61657000 -0.01480875
-0.17275053 0.58373243 -0.01562850
-0.29710600 0.08270144 0.32042974
-0.17705955 0.37252912 0.00637644
-0.45072326 -0.28815579 0.11659420
-0.34804657 -0.04026953 0.01645677
-0.49600554 -0.19823208 -0.01550964
-0.73597491 -0.09093849 -0.06897191
-0.44203681 -0.26218221 -0.00038572
-0.66168100 -0.79744798 0.14339356
-0.41639611 -0.20528226 0.09693505
-0.36270612 -0.04249510 -0.00257809
-0.70325965 -0.29486188 -0.04694494
-0.35759029 -0.06331736 0.23454013
-0.73081183 -0.52874881 -0.03391361
-0.39363474 -0.15033366 0.15866496
-0.32823223 0.00755607 0.32409608
-0.29149711 0.30408534 -0.01617694
-0.43015492 0.24451944 -0.03760354
-0.21374343 0.28396589 0.02674616
-0.76694214 -0.45118743 -0.04674384
-0.25391811 0.18696941 0.21855441
-0.51392215 0.07493215 -0.04014585
-0.40369213 0.29245967 -0.03636175
-0.47050279 -0.20580597 -0.01012604
-0.64805973 -0.51863891 -0.01914560
-0.35265556 -0.05140260 0.19688371
-0.37984827 -0.11705241 0.22490184
-0.24135236 0.21730433 0.26061907
-0.47796950 -0.22478680 -0.01005178
-0.77439600 -0.56330109 -0.03941565
-0.59577942 -0.63835126 0.11505029
-0.26025796 0.17166549 0.16582158
-0.20406795 0.40011796 -0.00721937
-0.60157019 -0.65233117 0.14856003
-0.63298708 -0.72817487 0.00559550
-0.61922419 -0.31041577 -0.02993727
-0.63543582 0.07541985 -0.06302548
-0.53181714 -0.48393264 0.09585618
-0.33176440 -0.00096526 0.14495634
-0.62653464 -0.39837807 -0.02446280
-0.13388696 0.47675300 0.11706731
-0.19092932 0.33904219 0.07805862
-0.43348870 0.22687417 -0.03685637
-0.42895323 -0.23560700 0.37275437
-0.32646567 0.29415080 -0.02197670
-0.53744537 -0.30995157 -0.01460096
-0.15368973 0.44904098 -0.00155857
-0.58615005 0.16233051 -0.06052772
-0.43731472 -0.25578260 0.05262133
-0.46006125 -0.31070679 0.32965475
-0.23103604 0.37362206 -0.01022577
-0.17934737 0.36700445 0.04759449
-0.61140043 0.00463561 -0.05299621
-0.59439021 0.03797193 -0.05239424
-0.73448247 -0.00765041 -0.07517610
-0.46597660 -0.32498518 0.25437298
-0.35728389 -0.06258015 0.30868369
-0.51127422 0.27850217 -0.05549787
-0.39278403 0.01288947 -0.01254421
-0.49577233 0.28577429 -0.05315010
-0.30795047 0.37604702 -0.02487265
-0.61506164 -0.68490064 0.04828007
-0.56956446 -0.57506043 0.03293064
-0.26595315 0.15791517 0.19328675
-0.54171973 -0.50783956 0.09629144
-0.64196402 -0.03737621 -0.05547043
-0.49226558 -0.38844615 0.07441747
-0.35711154 -0.04865672 -0.00104670
-0.41716379 -0.20713474 0.07248337
-0.25993314 0.31041408 -0.01073642
-0.70947051 -0.54518092 -0.02862276
-0.73849517 -0.35152733 -0.04915642
-0.48278299 0.13249046 -0.03877388
-0.79189563 -0.68375182 -0.03332658
-0.39271799 -0.14812835 0.39552340
-0.52112764 -0.45812687 0.12498142
-0.65699941 0.13050924 -0.07136813
-0.48287013 -0.36576447 0.09865733
-0.34957942 0.37500584 -0.03261683
-0.40934506 0.35473308 -0.04227291
-0.19049804 0.34007916 0.20325910
-0.12360145 0.50158483 0.10444118
-0.58004934 -0.42112043 -0.01395398
-0.60419178 -0.04926449 -0.04744455
-0.47508767 -0.34697279 0.00420864
-0.32423609 0.01720641 0.24007303
-0.38212499 0.16274275 -0.02220800
-0.71850884 -0.25065663 -0.05325320
-0.18535307 0.35250595 0.03218156
-0.62535566 -0.70975304 0.10017032
-0.19788764 0.32224226 0.10981417
-0.41017184 -0.19025946 0.21371745
-0.40042090 -0.16671354 0.06033466
-0.63370657 -0.28134352 -0.03492316
-0.65009397 -0.12796801 -0.04994527
-0.56678116 -0.56834525 0.23891734
-0.54483742 0.07634219 -0.04606696
-0.70655346 -0.45812744 -0.03485239
-0.53545153 -0.17038894 -0.02509238
-0.59646291 -0.30251685 -0.02627370
-0.59347272 -0.05032984 -0.04534667
-0.60758865 -0.66686058 0.12535442
-0.57308441 -0.58356220 0.22292477
-0.24472141 0.20917758 0.05669714
-0.08050382 0.60563260 0.07102797
-0.60119212 -0.30233932 -0.02717650
-0.35853362 0.32369000 -0.03030460
-0.59256858 -0.15546919 -0.03699066
-0.17243654 0.38369006 0.00472873
-0.41571313 -0.20364352 0.39817974
-0.43239203 -0.24390256 0.18282501
-0.33524072 -0.00936123 0.24662787
-0.58209032 -0.48073819 -0.00969584
-0.64027411 -0.28942078 -0.03552881
-0.27623111 0.13309862 0.29774114
-0.50775081 -0.42582858 0.00784431
-0.41799745 -0.20915449 0.28501976
-0.60217732 -0.65379608 0.07706065
-0.40325266 -0.17354807 0.00408754
-0.30593979 0.36612749 -0.02372236
-0.39779568 -0.16037810 0.13138664
-0.20858999 0.29640248 0.17240807
-0.15220205 0.43253931 0.03480194
-0.53580475 -0.00398422 -0.03811490
-0.33440083 -0.00733285 0.22477321
-0.32878965 0.00622030 0.02800211
-0.63292319 -0.35264173 -0.02922468
-0.24880014 0.19932783 0.14100727
-0.47249559 -0.34071603 0.03560965
-0.47979739 -0.35834295 0.00242341
-0.67661577 -0.21281376 -0.04832472
-0.41162887 -0.19378200 0.36190814
-0.42777178 -0.23275153 0.27838001
-0.13209294 0.48108754 0.01575075
-0.30717483 0.36694282 -0.02401800
-0.24562483 0.40985730 -0.01578936
-0.20741031 0.41689906 -0.00915421
-0.28125051 0.21663748 -0.00744222
-0.33075988 0.18669234 -0.01441729
-0.44826603 0.09711660 -0.02953134
-0.63494396 0.09861419 -0.06473892
-0.37193799 0.24818949 -0.02694590
-0.65786040 -0.78822440 0.08278649
-0.63944685 -0.08668697 -0.05115797
-0.25643238 0.18089879 0.23833089
-0.39943254 -0.05618269 -0.00841607
-0.56731826 -0.39319628 -0.01373500
-0.50363344 -0.11646603 -0.02330974
-0.52448994 -0.46624658 0.19438516
-0.64105481 -0.46181694 -0.02225295
-0.46830305 -0.33059502 0.05461250
-0.12441897 0.49961153 0.09270474
-0.37556788 -0.10672018 0.26950473
-0.24139930 0.39997822 -0.01422589
-0.39369604 -0.06432485 -0.00670381
-0.69799238 -0.12937631 -0.05883938
-0.55683637 -0.54433697 0.23934785
-0.27531201 0.35951003 -0.01744985
-0.37603310 -0.10784280 0.25435445
-0.64919716 -0.56112099 -0.01605179
-0.73320287 -0.66625643 -0.02365659
-0.45635596 -0.30175588 0.16413859
-0.29089475 0.10772670 -0.00077541
-0.51987219 -0.45509747 0.16862115
-0.21049473 0.29180795 0.05526633
-0.59921163 0.17580074 -0.06403177
-0.46636987 -0.19698668 -0.01003581
-0.41873652 0.03027383 -0.01877618
-0.49540442 -0.39602357 0.06124793
-0.23118141 0.24186403 0.11473992
-0.62835544 -0.71699494 0.09477760
-0.41274357 -0.19646332 0.06935262
-0.60522121 -0.66114426 0.06267040
-0.70153755 -0.21073371 -0.05317137
-0.21915992 0.27088252 0.23119214
-0.40110272 -0.16835994 0.06978143
-0.45863649 0.10587552 -0.03216270
-0.48273757 -0.36544296 0.05511018
-0.59634554 -0.63971758 0.09457876
-0.31773075 0.03291238 0.21920046
-0.04890677 0.68191546 0.03979993
-0.61198777 -0.67748088 0.13045806
-0.24691407 0.20388299 0.08849094
-0.14379340 0.45283958 0.03322633
-0.30765897 0.48605287 -0.03338281
-0.26891860 0.15075909 0.09915302
-0.35786989 -0.06398705 0.07531046
-0.44515613 -0.27471361 0.05875718
-0.63264304 0.00387947 -0.05693044
-0.43070769 -0.23983952 0.28021067
-0.49371117 0.11609605 -0.03955166
-0.42524761 -0.22665028 0.05697673
-0.45749021 0.14565171 -0.03504417
-0.33473137 0.39999619 -0.03177147
-0.46463642 -0.32175076 0.28547984
-0.57751679 -0.59426123 0.09781855
-0.19013005 0.54627186 -0.01597878
-0.58083034 -0.60226196 0.15780281
-0.42287150 -0.08725677 -0.01040264
-0.69989276 -0.26009279 -0.04901913
-0.65804511 -0.78867024 0.01353234
-0.28876093 0.47487113 -0.02895983
-0.43927434 -0.26051503 0.09670436
-0.59456259 -0.63541383 0.20587836
-0.25482842 0.40368024 -0.01703848
-0.33206251 0.21833315 -0.01712568
-0.61525220 -0.68536168 0.12344870
-0.60126346 -0.34463423 -0.02389687
-0.52644420 -0.47095963 0.04774720
-0.34880662 0.38137457 -0.03296743
-0.51388270 -0.44063553 0.10771540
-0.62126917 -0.69988745 0.06578971
-0.20821217 0.29731891 0.04451891
-0.47653210 -0.35046643 0.19782601
-0.79120791 -0.47904715 -0.04913579
-0.06697951 0.63828492 0.01534730
-0.42051226 -0.21522586 0.28583997
-0.54072982 -0.50545329 0.20950036
-0.63348168 -0.53474462 -0.01515130
-0.35910091 -0.06695890 0.07358133
-0.58323389 0.05171203 -0.05136690
-0.72457457 -0.25184423 -0.05430095
-0.76020211 -0.73649871 -0.02326238
-0.47396663 -0.06287130 -0.02190592
-0.43513593 -0.16667715 -0.00652445
-0.40607181 -0.18036617 0.36306584
-0.61203408 -0.32139394 -0.02773096
-0.60379249 -0.53174084 -0.00980431
-0.24226516 0.21510427 0.15308613
-0.62132430 -0.70001996 0.04915818
-0.51319796 -0.01102138 -0.03331746
-0.34782517 -0.03974052 0.17950800
-0.53963608 -0.03478093 -0.03643730
-0.59065950 -0.62599111 0.13137516
-0.44959787 -0.13487588 -0.01171897
-0.55707061 -0.54490238 0.20646127
-0.32387999 0.01806351 0.31812686
-0.64275044 -0.75174659 0.08074632
-0.36537033 -0.08210407 0.35573310
-0.26542023 0.34592599 -0.01453279
-0.55357808 -0.53646678 0.05964148
-0.48217642 -0.36408877 0.07187844
-0.24162500 0.21664725 0.22741102
-0.69028521 -0.28708658 -0.04511143
-0.66934282 0.07450073 -0.06932762
-0.41450724 -0.01025344 -0.01482576
-0.31150344 0.04794957 0.12454702
-0.07836297 0.61080247 0.02811888
-0.17386916 0.44214341 -0.00481478
-0.75180376 -0.42152029 -0.04620827
-0.13171592 0.52650356 -0.00345919
-0.24117139 0.21774662 0.10024853
-0.40645814 0.23305382 -0.03225641
-0.64972055 -0.17090216 -0.04653226
-0.47994548 -0.13911629 -0.01709344
-0.73478395 0.00023615 -0.07584681
-0.52274227 0.10182722 -0.04389786
-0.32854703 0.29816121 -0.02268019
-0.74317586 -0.25615370 -0.05746201
-0.33278871 0.24327894 -0.01920444
-0.30365801 0.06688864 0.16697389
-0.35126561 -0.04805257 0.36185145
-0.41648233 0.21566117 -0.03278654
-0.51208061 -0.43628842 0.21391332
-0.12206459 0.51399446 -0.00067102
-0.47803354 -0.35408586 0.03875511
-0.41701129 -0.17910805 -0.00214960
-0.27692854 0.13141829 0.19295949
-0.36966637 -0.09247064 0.20719124
-0.29943174 0.07709144 0.17652433
-0.38843474 -0.10157285 -0.00281471
-0.77326614 -0.13880041 -0.07225525
-0.28296810 0.11684284 0.03477047
-0.65855253 -0.63061100 -0.01239995
-0.77983701 -0.39400613 -0.05361982
-0.08682815 0.60740077 -0.00131995
-0.47564217 -0.34831506 0.11229552
-0.72063798 -0.41151193 -0.04112938
-0.55145383 -0.43154043 -0.00776742
-0.32380360 0.01824923 0.27923605
-0.35564026 -0.05860269 0.02986192
-0.40525171 -0.17837755 0.10385465
-0.60780698 -0.40091479 -0.02074494
-0.33944499 -0.01951376 0.32085270
-0.26668659 0.15614900 0.05886930
-0.21254265 0.28686395 0.05209439
-0.39726698 -0.15910557 0.24608368
-0.37009910 -0.09351665 0.24603322
-0.61455488 -0.30683240 -0.02933855
-0.44532189 -0.27511436 0.07474157
-0.56931776 -0.57446891 0.21317413
-0.50536835 -0.42007843 0.05542466
-0.54851019 -0.52423626 0.22785629
-0.22089744 0.26668981 0.17066357
-0.29420185 0.29657203 -0.01610039
-0.78324479 -0.79837608 -0.02277578
-0.29133117 0.09664667 0.21299931
-0.47367111 -0.08286945 -0.02029334
-0.28196141 0.11927153 0.08585402
-0.42075732 -0.21581908 0.33395964
-0.29898703 0.24835873 -0.01324604
-0.06647062 0.63951313 0.02607537
-0.30100378 0.07329527 0.20355935
-0.47853786 0.30184487 -0.05116167
-0.02778353 0.73291236 0.01099736
-0.77215600 -0.78373092 -0.02183175
-0.56120282 -0.55487317 0.01871329
-0.54513299 -0.51607949 0.08475713
-0.34608114 0.19541995 -0.01797684
-0.27879471 0.12691323 0.18469658
-0.47245723 -0.34062335 0.03497772
-0.42543176 -0.22710419 0.33613637
-0.63917416 -0.74311292 0.04280592
-0.52146858 -0.22318567 -0.01835322
-0.15802968 0.41846657 0.14307007
-0.40675128 -0.18200849 0.42154899
-0.41306713 0.25697029 -0.03536085
-0.12714291 0.49303657 0.05725581
-0.21460713 0.28187442 0.21400066
-0.46831715 -0.33062759 0.01135877
-0.38457033 0.10893546 -0.01847828
-0.75821316 -0.72576308 -0.02372441
-0.41030350 -0.19057824 0.24100842
-0.45460889 -0.16207162 -0.01054349
-0.22339769 0.49051365 -0.01789102
-0.36385944 0.03023762 -0.00845779
-0.30807629 0.46390799 -0.03173708
-0.58051884 0.11759820 -0.05598638
-0.15543498 0.42473379 0.05214256
-0.30747804 0.05766526 0.19828470
-0.51838595 -0.45151058 0.20661739
-0.47181478 -0.33908176 0.35365504
-0.60373855 -0.02767772 -0.04904007
-0.71515089 -0.14837480 -0.06058556
-0.44877753 -0.28346390 0.28092095
-0.73629260 -0.61584675 -0.02816229
-0.32720864 0.35332707 -0.02672377
-0.48986185 -0.38264146 0.02702508
-0.42655709 -0.04724198 -0.01421095
-0.38979027 -0.14105105 0.12306828
-0.54400629 -0.51336032 0.11355023
-0.59311163 -0.25447443 -0.02938429
-0.34137675 -0.02417644 0.29119891
-0.50622547 0.22645956 -0.05049685
-0.39025405 0.29679158 -0.03417299
-0.32088378 0.02530179 0.17506239
-0.70511359 -0.48414743 -0.03255584
-0.55162609 -0.53175849 0.21115424
-0.58840299 0.11266751 -0.05708450
-0.44818750 -0.28203630 0.18699645
-0.35474697 0.23251975 -0.02249437
-0.00221126 0.79591709 -0.00009170
-0.67733163 -0.65472376 -0.01405257
-0.38312367 0.12742034 -0.01964556
-0.54870343 0.13340847 -0.05123682
-0.33812222 0.07208506 -0.00687802
-0.16513343 0.43521342 -0.00263311
-0.25614896 0.31383663 -0.01029156
-0.57332867 -0.58414960 0.08096348
-0.43591091 -0.25239733 0.16661553
-0.59379387 -0.63355798 0.19994175
-0.46493143 -0.32246435 0.35103941
-0.58010715 -0.60051441 0.08769536
-0.43735334 0.00535547 -0.02033558
-0.57468390 -0.58742350 0.19474046
-0.40908211 -0.18762641 0.14725310
-0.18880025 0.34418201 0.08454188
-0.23154137 0.24099447 0.13125522
-0.02151711 0.74804074 0.01252143
-0.63380075 -0.73014075 0.16158108
-0.30033392 0.07490876 0.31321350
-0.26612183 0.38073838 -0.01737513
-0.43400186 -0.24778470 0.05358873
-0.61933786 -0.34861484 -0.02698449
-0.33955294 -0.01976397 0.01213600
-0.51847857 -0.45173222 0.14687242
-0.55669194 -0.03143949 -0.03990355
-0.25882438 0.49457583 -0.02486667
-0.21358506 0.28434727 0.05501057
-0.63304818 -0.72832376 0.06266194
-0.15565726 0.42419401 0.14589600
-0.37329748 -0.10123566 0.17217489
-0.41614705 -0.20467916 0.04233496
-0.29025656 0.09923786 0.30635566
-0.58328980 -0.12819853 -0.03736974
-0.32935151 0.00485515 0.28657699
-0.55206782 0.07828313 -0.04757723
-0.21336709 0.28487477 0.01744493
-0.33704114 -0.01370633 0.20126420
-0.60176432 -0.65279984 0.17684628
-0.49338481 -0.39115411 0.24968220
-0.42607620 -0.22865053 0.05292521
-0.56444299 -0.56269938 0.13038719
-0.09525778 0.61329937 -0.00336377
-0.15116119 0.55424130 -0.00927407
-0.61641544 -0.07602609 -0.04765866
-0.38905483 -0.13928530 0.41212612
-0.62402153 0.09890519 -0.06270842
-0.37241635 -0.08425376 -0.00115209
-0.78132260 -0.20601460 -0.06853623
-0.43426967 0.21789315 -0.03630391
-0.33198363 -0.00149306 0.10029033
-0.22528642 0.25609419 0.16129096
-0.37070814 -0.09498981 0.33020473
-0.33933693 -0.01925108 0.26809701
-0.62319988 0.15990566 -0.06730341
-0.31122184 0.13470683 -0.00669706
-0.70575523 -0.65179110 -0.01962366
-0.51227432 -0.43675724 0.26529470
-0.62310594 0.04725261 -0.05851469
-0.12329637 0.54280180 -0.00314548
-0.25914711 0.24879995 -0.00579144
-0.66156411 -0.45714557 -0.02647192
-0.20600742 0.41428238 -0.00868677
-0.42623839 -0.22904804 0.23143931
-0.22909658 0.24689843 0.07910793
-0.76192540 -0.30541897 -0.05715053
-0.40547323 -0.17890979 0.02814418
-0.36755058 -0.08736604 0.30857003
-0.42212960 -0.21912219 0.04013721
-0.10245433 0.55263919 0.07908170
-0.34568483 -0.02934305 -0.00040250
-0.65808660 -0.78877050 0.11285698
-0.27773637 0.12947299 0.04516558
-0.36088622 0.26732102 -0.02635800
-0.41490531 -0.20168848 0.25696829
-0.09629304 0.56751531 0.03555946
-0.09975396 0.65110141 -0.00715218
-0.35657200 -0.06086405 0.38486183
-0.38854918 -0.13805725 0.19471358
-0.51528692 -0.11728475 -0.02543657
-0.04124237 0.70041907 0.03568907
-0.73399550 -0.55970913 -0.03210143
-0.27955234 0.12508427 0.18130048
-0.23461030 0.23358314 0.19893479
-0.65677196 -0.78559667 0.07917053
-0.32098874 0.02505298 0.03930276
-0.79033279 -0.07838838 -0.08016692
-0.57545996 -0.58929718 0.23168030
-0.21537784 0.28001648 0.13363305
-0.43675467 -0.25443685 0.24088953
-0.67383295 -0.34179187 -0.03775950
-0.34878629 -0.04206260 0.23323296
-0.34587276 -0.03502445 0.10398083
-0.27107272 0.14555351 0.25096852
-0.34941432 -0.04358011 0.27083319
-0.41867879 -0.21079788 0.23865674
-0.13192979 0.48147950 0.07287805
-0.43153587 -0.24183349 0.11731102
-0.32987720 0.00358607 0.28751737
-0.47371143 -0.34366056 0.31243190
-0.28438023 0.39631537 -0.02202008
-0.19483964 0.32960379 0.02033771
-0.53834623 -0.48257786 -0.00132977
-0.51295036 -0.32803789 -0.00858830
-0.35282746 -0.05182139 0.30854279
-0.13418587 0.51072854 -0.00269525
-0.51881880 0.10703331 -0.04356567
-0.33965781 0.07855170 -0.00767015
-0.37206879 -0.07869726 -0.00151938
-0.45454288 -0.29737458 0.04112327
-0.47978225 -0.35831043 0.12100005
-0.12644982 0.64876038 -0.01198809
-0.74970412 -0.39448136 -0.04791887
-0.51048213 0.21214157 -0.05018221
-0.72305304 -0.69143581 -0.01978827
-0.57729870 0.09344553 -0.05350057
-0.57728732 -0.16123298 -0.03366939
-0.46880889 -0.33182505 0.31792822
-0.18508910 0.35314417 0.00388962
-0.40433022 0.33672917 -0.03992848
-0.47178149 -0.33899131 0.01371813
-0.62399417 -0.22762087 -0.03728025
-0.57266891 -0.01674226 -0.04405115
-0.73286086 -0.67691284 -0.02276258
-0.26035231 0.17143717 0.18067053
-0.07548882 0.61774027 0.05803684
-0.27737781 0.13033348 0.19710350
-0.62835962 0.00534877 -0.05623966
-0.49154681 -0.38671792 0.30899647
-0.70662743 0.01464315 -0.07167578
-0.73123789 -0.73342210 -0.01805766
-0.21410576 0.35138330 -0.00531180
-0.63313359 -0.62282652 -0.00822790
-0.46669662 -0.32671976 0.14440304
-0.10313453 0.55099761 0.06148212
-0.48153186 0.13327149 -0.03859951
-0.50847626 -0.36379424 -0.00496332
-0.44710016 0.01799180 -0.02315160
-0.63116813 -0.52702296 -0.01531761
-0.45969433 -0.30981416 0.12650615
-0.54329723 -0.35071459 -0.01252720
-0.44698006 -0.27912486 0.29345861
-0.15530987 0.42503464 0.08799134
-0.73048705 -0.11475086 -0.06608632
-0.72649896 -0.21953589 -0.05717819
-0.66689438 -0.81003386 0.07413105
-0.48266697 -0.31927544 -0.00357798
-0.45659256 -0.27623579 -0.00202765
-0.44139671 -0.26564783 0.36302838
-0.37161332 0.35728684 -0.03537908
-0.05030542 0.67853844 0.05121554
-0.43255982 -0.24430411 0.07491466
-0.48505691 -0.14221311 -0.01781315
-0.13051756 0.48488912 0.06724619
-0.46760488 -0.20358478 -0.00975425
-0.62847018 -0.57732195 -0.01089422
-0.28306511 0.44250017 -0.02536878
-0.43070292 0.30377612 -0.04232022
-0.55198359 -0.53262144 0.18831979
-0.34284797 0.28046837 -0.02399088
-0.31770375 0.03297691 0.23950642
-0.13791168 0.63185894 -0.01282671
-0.75129551 -0.19270863 -0.06392809
-0.17765218 0.54127628 -0.01324430
-0.47194999 -0.33940217 0.13545495
-0.38354975 0.22718717 -0.02749341
-0.39754802 -0.15978669 0.32543352
-0.59719646 -0.64177084 0.06443966
-0.31487915 0.03980071 0.10088903
-0.21887663 0.36880416 -0.00756498
-0.58040720 -0.60124058 0.18332937
-0.61155003 -0.67642397 0.08187843
-0.58748138 -0.61831522 0.02357992
-0.68939292 -0.20222461 -0.05155098
-0.26311862 0.16475902 0.17248666
-0.61617827 0.13458452 -0.06401203
-0.67547023 0.00492920 -0.06506265
-0.56783152 -0.00108048 -0.04436125
-0.58511388 -0.61260313 0.20080096
-0.58502954 -0.61239719 0.05880042
-0.38662413 -0.13341255 0.27740833
-0.30160594 0.25342903 -0.01413311
-0.28854606 0.11144962 -0.00062377
-0.19455414 0.33029160 0.06386911
-0.24637818 0.32252285 -0.00913119
-0.46859145 -0.33129066 0.03796682
-0.39970610 -0.16499309 0.21577530
-0.59740674 -0.64227736 0.03191123
-0.64819574 -0.07183541 -0.05395888
-0.55331725 -0.53584111 0.17718381
-0.65091658 -0.58730906 -0.01433602
-0.75583869 -0.22484744 -0.06227980
-0.46358311 0.15921751 -0.03724570
-0.35956943 0.10569112 -0.01352611
-0.50466263 -0.41838145 0.27727783
-0.51755190 -0.44949561 0.16154234
-0.79258931 -0.34405741 -0.05990585
-0.18257198 0.35921702 0.12397488
-0.70772392 -0.69542933 -0.01659600
-0.30225167 0.07028475 0.13944592
-0.78266251 -0.01944551 -0.08331444
-0.66752905 -0.51818538 -0.02284068
-0.54555088 0.15524609 -0.05234447
-0.57311088 -0.58362603 0.21863618
-0.38393876 -0.12693195 0.35115251
-0.31802759 0.46625739 -0.03379060
-0.38457155 0.18826745 -0.02465523
-0.41188729 -0.19439825 0.13389038
-0.60937190 -0.29320180 -0.02942555
-0.32329196 0.01949269 0.03369344
-0.76554793 -0.12721594 -0.07170640
-0.63883370 -0.74228990 0.00638472
-0.44871038 -0.28329849 0.18238083
-0.58962011 -0.62348187 0.16141272
-0.67620552 0.07382015 -0.07056466
-0.42876628 -0.17919575 -0.00435243
-0.23383982 0.49793124 -0.02043142
-0.56448537 0.06984563 -0.04925450
-0.33261338 -0.00301707 0.21026267
-0.55098242 -0.26032257 -0.02100967
-0.22118631 0.55940801 -0.02283939
-0.24373169 0.21156409 0.14288734
-0.63309497 -0.64897728 -0.00618456
-0.64640480 -0.61850339 -0.01105915
-0.43618673 -0.25306568 0.23969214
-0.51505083 -0.44345593 0.11699111
-0.55517191 0.11607127 -0.05110287
-0.10612456 0.54377753 0.11206186
-0.35626945 -0.06012216 0.04343074
-0.15739711 0.41999713 0.04269146
-0.10064361 0.55701119 0.06265620
-0.44921649 -0.11960624 -0.01283616
-0.25160089 0.42490867 -0.01808460
-0.14290500 0.45498365 0.05582784
-0.26845208 0.16223638 -0.00080079
-0.44319880 -0.26998782 0.04548100
-0.66849613 -0.27797046 -0.04172538
-0.41668165 -0.17679331 -0.00226786
-0.43431091 -0.24853109 0.06053236
-0.23416364 0.23466618 0.05828622
-0.43486792 0.20856927 -0.03569042
-0.52827102 -0.47537515 0.20318782
-0.37273866 -0.09988146 0.01969264
-0.54484230 -0.51537824 0.09970957
-0.54234546 -0.50935012 0.09539084
-0.42281663 -0.02430227 -0.01529390
-0.68121350 0.07237288 -0.07139335
-0.43531182 -0.25094873 0.09676657
-0.61296511 -0.30178556 -0.02943266
-0.55132586 -0.53102857 0.03002188
-0.20348649 0.30872545 0.11206484
-0.16723546 0.39624348 0.09578374
-0.63286144 -0.72787303 0.15186726
-0.61995256 -0.00571122 -0.05379820
-0.18095946 0.36310765 0.19193983
-0.15503456 0.42570040 0.05491966
-0.21973182 0.26950842 0.03461673
-0.30720496 0.39540908 -0.02624002
-0.03672000 0.71133816 0.00124610
-0.49625748 -0.39808410 0.09398788
-0.38407388 -0.12725461 0.24590218
-0.30523378 0.34648776 -0.02206052
-0.60823393 -0.36167017 -0.02388075
-0.25352389 0.18792754 0.02660513
-0.21215542 0.52971959 -0.01883029
-0.39710671 -0.15872435 0.41639423
-0.65422332 -0.62621903 -0.01192812
-0.20481388 0.30551776 0.20300797
-0.40883863 0.12159019 -0.02402543
-0.49371269 -0.39194134 0.12119647
-0.36195147 -0.07384543 0.21274661
-0.54338348 -0.51185966 0.24306840
-0.62239754 -0.70261049 0.03598988
-0.70358914 -0.73303092 -0.01289111
-0.65468901 -0.54505289 -0.01833518
-0.59660316 0.11579934 -0.05886978
-0.79324317 -0.76341569 -0.02737717
-0.31409073 0.23942235 -0.01538940
-0.40428022 0.02245134 -0.01544969
-0.14542253 0.44890320 0.13327888
-0.29154304 0.09613449 0.23418975
-0.61678958 -0.44870311 -0.01871270
-0.61969554 -0.69608670 0.01592112
-0.49086776 -0.15088627 -0.01823016
-0.76326025 -0.74673939 -0.02303986
-0.30721876 0.05829547 0.07163795
-0.42723057 -0.23144481 0.27271637
-0.31188205 0.04703876 0.02959029
-0.49918580 -0.40515330 0.08274788
-0.09474686 0.57124710 0.06584433
-0.76458323 -0.32749978 -0.05593087
-0.14310667 0.50416791 -0.00386134
-0.51365447 -0.44008675 0.17336030
-0.34051380 -0.02209183 0.25385371
-0.65215254 -0.18306708 -0.04604227
-0.48491755 -0.16240467 -0.01621486
-0.34240541 -0.02665578 0.17080040
-0.09289108 0.64988542 -0.00576745
-0.46436289 0.04422240 -0.02843887
-0.20008098 0.31694418 0.19781232
-0.58672887 -0.61649847 0.02186008
-0.40493318 -0.17761083 0.17101166
-0.42559370 0.09639667 -0.02521343
-0.34785846 -0.03982615 0.33754241
-0.32136622 0.02413354 0.28158763
-0.46260831 -0.31685293 0.24049398
-0.54724097 -0.52116692 0.03516581
-0.46076736 -0.31240690 0.19246802
-0.55230105 -0.53338319 0.04155168
-0.65425366 -0.77951717 0.06019360
-0.34579042 -0.03482660 0.13364656
-0.48531765 -0.06516085 -0.02386138
-0.32876077 0.00628399 0.20814487
-0.40254074 0.29264358 -0.03615964
-0.33412310 -0.00666383 0.26793990
-0.47629580 -0.34989634 0.20951961
-0.27013093 0.48646688 -0.02636067
-0.40421560 -0.17587973 0.20973489
-0.52447349 -0.46620682 0.19397792
-0.23044924 0.48703498 -0.01894570
-0.40931192 0.25631616 -0.03460404
-0.59890568 -0.60559285 -0.00313566
-0.34821266 -0.04068028 0.30880523
-0.72011006 -0.27438271 -0.05170690
-0.12381587 0.67388022 -0.01344878
-0.20509194 0.30485177 0.04476544
-0.34894222 0.04728782 -0.00698123
-0.45474625 -0.29786918 0.14791992
-0.19164510 0.33731323 0.10502489
-0.19795756 0.32207343 0.11116318
-0.48957843 0.25358871 -0.04947986
-0.73044270 -0.32867181 -0.04942229
-0.62488806 -0.70862252 0.01507512
-0.42136559 0.16618666 -0.02985244
-0.58556235 -0.61368394 0.07372002
-0.67835838 -0.15502702 -0.05315151
-0.44626850 -0.27740917 0.36310688
-0.70889187 -0.56896442 -0.02666220
-0.78127724 -0.01771902 -0.08318846
-0.68187600 -0.34253094 -0.03921386
-0.34924555 0.27600673 -0.02484609
-0.41268679 -0.19633353 0.28621605
-0.42232275 -0.21959072 0.10579674
-0.34659755 0.16455957 -0.01567115
-0.23658770 0.22880951 0.19113722
-0.25665814 0.18035997 0.05327712
-0.31486928 0.03982473 0.09595179
-0.36276439 0.13722774 -0.01658210
-0.22960532 0.24567088 0.05905998
-0.37029314 -0.09398220 0.15926744
-0.48415023 -0.33902061 -0.00231946
-0.22893810 0.24727780 0.17554155
-0.33470762 -0.00807746 0.34267008
-0.52172971 -0.14249822 -0.02468456
-0.62982982 -0.72055429 0.08164889
-0.20018142 0.45140597 -0.01048203
-0.59899813 -0.64612186 0.12457394
-0.54604512 -0.02133491 -0.03868893
-0.32099560 0.02503596 0.05220045
-0.34464225 -0.03205053 0.00824576
-0.50067109 -0.40873760 0.03672027
-0.57730025 -0.59373760 0.07458164
-0.75590962 -0.36112615 -0.05168236
-0.39746904 -0.15959817 0.38948742
-0.37391520 -0.10273117 0.29662997
-0.48441270 -0.36948544 0.00636020
-0.53690696 -0.49622005 0.08404946
-0.20246598 0.31118822 0.13911851
-0.76068270 -0.44230402 -0.04625895
-0.23720247 0.22732510 0.19900902
-0.26719388 0.15491866 0.22647937
-0.45120317 -0.28931528 0.14248978
-0.41880229 -0.21109194 0.11635835
-0.62805808 -0.54091674 -0.01365123
-0.31700298 0.03467210 0.13807465
-0.43070489 0.05069827 -0.02261618
-0.51587766 -0.44545633 0.24270573
-0.43931895 -0.26062882 0.27790201
-0.64875966 0.13747683 -0.07036174
-0.37091881 -0.09549151 0.12514785
-0.54593384 -0.29467115 -0.01738631
-0.36063886 -0.01145812 -0.00460600
-0.49948370 -0.40587550 0.17131583
-0.26625550 0.42626706 -0.02094508
-0.45601422 -0.09999160 -0.01564115
-0.33381668 -0.00592583 0.32155204
-0.27917665 0.41366941 -0.02239310
-0.15669954 0.42167702 0.16679037
-0.35714847 -0.06225104 0.24381764
-0.05411933 0.66933250 0.00297510
-0.50614363 0.00838922 -0.03350271
-0.30044869 0.07463262 0.28597441
-0.25799385 0.17713292 0.12406727
-0.47478819 -0.34625426 0.13828343
-0.50642043 -0.42261732 0.02586170
-0.16011640 0.41594282 -0.00018964
-0.36337972 -0.07729784 0.34179595
-0.40865332 0.20892429 -0.03079035
-0.35035568 0.27795672 -0.02520659
-0.34411579 0.31600377 -0.02699595
-0.37919623 0.31500804 -0.03351270
-0.43310905 0.05616557 -0.02349378
-0.29943758 0.07708246 0.02326928
-0.30209509 0.07065667 0.32104689
-0.39022481 0.39839438 -0.04207819
-0.40470934 0.18489788 -0.02817830
-0.61411333 -0.38947392 -0.02282116
-0.52757806 -0.04094113 -0.03369105
-0.70475900 -0.16563138 -0.05728855
-0.32901123 0.00567453 0.35115096
-0.64639884 -0.76055437 0.07350653
-0.35040933 -0.04598261 0.28123480
-0.66504329 -0.01048956 -0.06190214
-0.37704033 -0.11026694 0.02904895
-0.34958312 0.22122949 -0.02064464
-0.19871451 0.32024914 0.01760783
-0.38563994 -0.13103852 0.33685821
-0.41208336 0.14679624 -0.02659788
-0.61032671 -0.67346960 0.05122103
-0.63376224 0.01352318 -0.05789167
-0.26146793 0.16874626 0.10889148
-0.54399943 -0.29882821 -0.01669903
-0.64553308 -0.39807633 -0.02805754
-0.45634049 -0.30172002 0.20851783
-0.33325675 -0.00456454 0.03863923
-0.19686897 0.32470068 0.13552238
-0.76930106 -0.78149337 -0.02146934
-0.76063246 -0.06992111 -0.07524334
-0.31463376 0.04038869 0.23333120
-0.31804195 0.03215754 0.32418469
-0.67823732 -0.42255190 -0.03229951
-0.74663144 -0.56620449 -0.03397082
-0.46839017 -0.00906950 -0.02504664
-0.29506388 0.08763457 0.22915021
-0.54498011 0.08103328 -0.04645903
-0.37191153 -0.09788484 0.02732079
-0.27716514 0.48676884 -0.02770644
-0.63363475 -0.72973984 0.09280826
-0.56810749 -0.57154375 0.05652239
-0.72499317 -0.04766329 -0.07027697
-0.41808090 -0.20934819 0.05178397
-0.39870605 0.04832211 -0.01641616
-0.71068442 -0.37676618 -0.04196362
-0.66097283 -0.79573822 0.07161983
-0.69338065 -0.17608859 -0.05433550
-0.69971848 -0.79342502 -0.00746123
-0.11064423 0.53286570 0.11925105
-0.20438035 0.41891778 -0.00874183
-0.72860682 -0.39940807 -0.04356972
-0.33941087 -0.01942519 0.13788481
-0.45459220 -0.29749399 0.05012279
-0.38160148 0.01761852 -0.01081036
-0.65510285 -0.11214622 -0.05211868
-0.50696319 -0.22390316 -0.01557069
-0.43227547 -0.24362424 0.27312237
-0.50835055 -0.42727643 0.01002437
-0.01078614 0.77394789 0.00773793
-0.66461307 -0.80452633 0.13596693
-0.78230131 -0.13667555 -0.07411899
-0.09593249 0.56838584 0.03359507
-0.22785616 0.24988857 0.21333583
-0.37266895 -0.09971887 0.18841597
-0.62231088 -0.05705453 -0.05024397
-0.57788187 0.08456192 -0.05291852
-0.43977809 0.34493062 -0.04723039
-0.39522192 -0.15417416 0.41974682
-0.23169506 0.54091674 -0.02337507
-0.78261340 -0.09227491 -0.07763473
-0.73737788 -0.69825417 -0.02194997
-0.20549853 0.30386549 0.18419760
-0.57246208 -0.58205563 0.02484980
-0.60930705 -0.67100912 0.12834644
-0.09994575 0.55869722 0.02626029
-0.28319159 0.30277652 -0.01451380
-0.26253980 0.16615696 0.15505674
-0.14352444 0.45348692 0.09347567
-0.38168061 -0.12146875 0.00625048
-0.62160128 -0.44298127 -0.02006268
-0.71583045 -0.08244256 -0.06584672
-0.51166564 -0.40309915 -0.00250260
-0.74531662 -0.29885873 -0.05453944
-0.37440079 -0.10390489 0.33748990
-0.70961463 -0.39482883 -0.04035619
-0.25277826 0.18972193 0.19792570
-0.35627124 -0.06013758 0.37341246
-0.26608309 0.19650462 -0.00302358
-0.39003694 -0.01935514 -0.00951728
-0.73925829 -0.79002142 -0.01515834
-0.21600814 0.27849841 0.02671409
-0.71573693 -0.19732898 -0.05688419
-0.24924923 0.19824558 0.08291903
-0.50788230 -0.42615426 0.28391111
-0.41022450 0.27235904 -0.03602466
-0.65242720 -0.77510780 0.08987131
-0.36478424 -0.08068323 0.17926198
-0.77604365 -0.78657401 -0.02234114
-0.62748593 -0.71489578 0.16170774
-0.36360055 -0.01497552 -0.00488887
-0.65086907 -0.02259297 -0.05829538
-0.36613947 0.00925387 -0.00725261
-0.54204684 0.17754780 -0.05342219
-0.36612353 -0.08391934 0.26282239
-0.51038474 -0.43219519 0.24187057
-0.54242820 -0.50954694 0.00692520
-0.48582593 -0.37290439 0.21953528
-0.54576319 -0.10334353 -0.03225083
-0.43091917 0.34716386 -0.04573900
-0.35550424 -0.05827842 0.15137023
-0.17981946 0.48144007 -0.00899290
-0.14273992 0.53562647 -0.00624174
-0.65860045 -0.48346800 -0.02386538
-0.69288522 -0.02555598 -0.06596270
-0.37479666 -0.10485279 0.10564750
-0.54084289 -0.50572628 0.26521561
-0.36760426 -0.08748624 0.02801500
-0.02713924 0.76550388 -0.00240963
-0.53456622 -0.42817944 -0.00485463
-0.58219057 -0.60554481 0.10351945
-0.14349160 0.62738299 -0.01352711
-0.52534091 -0.35661495 -0.00869244
-0.14859934 0.61442983 -0.01347873
-0.69799519 -0.06186616 -0.06409618
-0.47103348 -0.33718726 0.06889754
-0.30526727 0.06300167 0.22343644
-0.05440205 0.67513156 -0.00049807
-0.31921399 0.02933836 0.01622977
-0.31715691 0.03429407 0.32860821
-0.51573783 -0.05772338 -0.03015872
-0.54707891 -0.52078092 0.25044593
-0.39255947 -0.14773566 0.09811382
-0.51487249 -0.44302604 0.13575713
-0.61996806 -0.22860046 -0.03644717
-0.35618284 -0.05992168 0.29984382
-0.73692554 -0.52336395 -0.03548204
-0.20376442 0.30805621 0.05860868
-0.33283877 -0.00356153 0.21986602
-0.45735404 -0.09667166 -0.01615149
-0.06978957 0.63150066 0.02197419
-0.53771555 -0.42834187 -0.00543399
-0.28570116 0.11023791 0.23667812
-0.16556413 0.40027678 0.14439811
-0.68721998 -0.42315689 -0.03394093
-0.73208678 -0.62876314 -0.02636605
-0.30186716 0.07121776 0.00074962
-0.21150576 0.28936288 0.18186969
-0.38916960 0.06430896 -0.01586826
-0.73921233 -0.46489370 -0.04046442
-0.43474674 0.05189565 -0.02346918
-0.26148888 0.27829865 -0.00852839
-0.66263264 -0.41140601 -0.03023401
-0.72442335 -0.08373307 -0.06736150
-0.25270528 0.18990462 0.00373262
-0.60374731 -0.42708167 -0.01794449
-0.21660355 0.50082999 -0.01741711
-0.61166656 -0.16315909 -0.03998190
-0.56009859 0.04944077 -0.04684118
-0.51052326 -0.43252334 0.05410454
-0.21068975 0.44730508 -0.01213806
-0.59950304 -0.62169182 -0.00199450
-0.48553869 -0.01244824 -0.02800709
-0.25217530 0.19117841 0.17288001
-0.77415317 -0.17115019 -0.06990320
-0.44731307 -0.27992153 0.07661191
-0.61719680 -0.69005620 0.13212220
-0.06563377 0.64153337 0.02843829
-0.47460109 -0.34580523 0.21738520
-0.71090299 -0.04963961 -0.06747448
-0.39503735 0.15778136 -0.02424893
-0.38150877 -0.12105409 0.01157769
-0.51013154 -0.42177573 -0.00076009
-0.47996393 -0.35875264 0.22912253
-0.44244823 0.24474958 -0.03993230
-0.47453421 -0.34564009 0.10797765
-0.42599201 -0.22844616 0.01882741
-0.45147610 -0.28997955 0.30303779
-0.32696223 0.34480923 -0.02601426
-0.33485869 -0.00843967 0.26709810
-0.51923317 -0.08775226 -0.02847774
-0.40796226 -0.08727970 -0.00759827
-0.53124607 -0.20478567 -0.02162376
-0.34995735 -0.04488972 0.23068957
-0.35869864 0.12912378 -0.01518687
-0.65153563 -0.17416330 -0.04661955
-0.06188502 0.65058273 0.06291865
-0.55449647 -0.48060778 -0.00451902
-0.62133956 -0.70005751 0.12669230
-0.52640736 -0.21660046 -0.01979431
-0.49599442 -0.15630683 -0.01877182
-0.42771065 -0.23260069 0.17981815
-0.46880630 -0.33181158 0.10354704
-0.49753731 -0.32992020 -0.00554447
-0.37642676 -0.10879255 0.23438425
-0.58896875 -0.28453606 -0.02626495
-0.44601613 -0.27679193 0.12064312
-0.38334721 -0.12549376 0.04988194
-0.23380271 0.32608879 -0.00704495
-0.33423126 0.02795218 -0.00271046
-0.28397688 0.11440685 0.05335284
-0.22787525 0.24984206 0.22562328
-0.30147818 0.07214732 0.28426617
-0.32767054 0.00892250 0.01507662
-0.54671335 -0.51809704 -0.00013710
-0.51374197 -0.08124059 -0.02795251
