ply
format ascii 1.0
element vertex 537
property float x
property float y
property float z
end_header
-0.42907813 -0.23350708 0.00802543
-0.38750735 -0.05508041 0.27026570
-0.29126519 0.14637192 0.16648041
-0.47807276 -0.25722313 0.32569471
-0.52623010 -0.43469980 0.12006116
-0.53463894 -0.40641129 0.28328031
-0.43411756 -0.24282075 0.01760766
-0.28403017 0.16768493 0.17940071
-0.16919705 0.40171662 0.03428704
-0.49740472 -0.32892153 0.24162368
-0.30834058 0.07927016 0.07955027
-0.49272662 -0.28580868 0.34850925
-0.53797197 -0.48653734 0.04115263
-0.31321242 0.06397615 0.06768408
-0.39632618 -0.14147878 0.05155546
-0.22102521 0.32773626 0.20608790
-0.47712103 -0.29998428 0.17433333
-0.32820061 0.03280445 0.08452337
-0.23080783 0.30845818 0.22066338
-0.37779874 -0.06821240 0.14741810
-0.37611106 -0.07118331 0.12375149
-0.13998666 0.48979950 0.09328481
-0.57071191 -0.55317259 0.08282599
-0.27605462 0.18633240 0.17736126
-0.36712861 -0.08199823 0.01457631
-0.51217270 -0.43276665 0.01255222
-0.51800883 -0.38123447 0.23298883
-0.42140096 -0.14926203 0.22876099
-0.24101052 0.26069775 0.14296885
-0.38803020 -0.05195667 0.28499922
-0.44901243 -0.24071376 0.14547981
-0.33850724 0.05536391 0.24388960
-0.47655889 -0.25378424 0.32496941
-0.57978272 -0.55631667 0.14582662
-0.31343734 0.04442706 0.00383889
-0.51408458 -0.36612666 0.25191414
-0.36875013 -0.07475233 0.05206690
-0.32808256 0.05310106 0.15174617
-0.30192506 0.07821098 0.02396373
-0.19699670 0.36292768 0.12943669
-0.54192734 -0.46268505 0.15335467
-0.64536405 -0.70920092 0.16410317
-0.60854983 -0.62585127 0.14553970
-0.37551060 -0.00396723 0.34467390
-0.36568308 0.00778485 0.30445251
-0.01707348 0.76256907 0.01277186
-0.39470705 -0.07366788 0.26621488
-0.08724213 0.60126030 0.03995679
-0.41066584 -0.10010044 0.30684504
-0.53847295 -0.48057139 0.06525660
-0.40559450 -0.16180740 0.05843170
-0.65202773 -0.74708563 0.09088423
-0.37090456 0.00637233 0.34205258
-0.40659374 -0.09484771 0.29146606
-0.35269228 -0.01577465 0.11995882
-0.65102619 -0.75095719 0.06975777
-0.69523972 -0.84183174 0.12304837
-0.56320828 -0.49651158 0.21230777
-0.39886940 -0.10896593 0.18139753
-0.42454177 -0.11906611 0.35566655
-0.50386643 -0.38231212 0.11467714
-0.60117972 -0.62345761 0.09381199
-0.37045756 0.00389438 0.33010367
-0.68767357 -0.81970614 0.13601267
-0.26925549 0.19112107 0.13830781
-0.19238932 0.34714070 0.03904022
-0.27571696 0.18961523 0.18565039
-0.10445587 0.56209493 0.04799233
-0.21651284 0.28634271 0.03044432
-0.33573684 0.06775145 0.26303446
-0.27221134 0.15033026 0.02525470
-0.55286878 -0.50278550 0.10738206
-0.51615596 -0.41061178 0.11927869
-0.37949839 -0.08306249 0.11131733
-0.42290130 -0.12693062 0.31594422
-0.46418813 -0.30211154 0.06230428
-0.48307827 -0.36289108 0.01132860
-0.31535867 0.10078967 0.20875362
-0.16097026 0.42388245 0.04202894
-0.49452865 -0.37795025 0.05360202
-0.29492342 0.12873441 0.13690013
-0.45566308 -0.25345746 0.15660664
-0.33729464 0.00087356 0.05101177
-0.07904657 0.62686849 0.05951543
-0.66188592 -0.76959395 0.09522111
-0.39462873 -0.09379650 0.19796371
-0.28815460 0.14711817 0.14376111
-0.61004543 -0.64457524 0.09477286
-0.40001628 -0.12596573 0.13359269
-0.39336681 -0.13924867 0.03504696
-0.63181084 -0.71091962 0.04842148
-0.23298502 0.27862141 0.13809288
-0.61743063 -0.63084334 0.20078835
-0.48460823 -0.35752973 0.04174611
-0.45400289 -0.27832061 0.05962248
-0.16617034 0.43721670 0.12899284
-0.39723280 -0.07995589 0.26557547
-0.54796433 -0.50216794 0.06968223
-0.39931205 -0.08698736 0.25881767
-0.52873385 -0.41130912 0.21894008
-0.44350889 -0.15345187 0.39397714
-0.15474357 0.42898366 0.00866781
-0.25145340 0.20933323 0.05511481
-0.12351891 0.51655042 0.04959650
-0.41101840 -0.12052120 0.24110694
-0.57015407 -0.57033896 0.02063644
-0.62003845 -0.69208366 0.01622371
-0.66965014 -0.79258442 0.08095755
-0.48990527 -0.29511610 0.29436398
-0.36864176 -0.07104426 0.06364414
-0.43413872 -0.18704352 0.20514616
-0.39580408 -0.11397471 0.13971290
-0.47999433 -0.35698670 0.00615253
-0.22258054 0.31899333 0.18933190
-0.49082643 -0.31285125 0.24225841
-0.35576057 -0.01835674 0.13616830
-0.26728520 0.16887052 0.04758496
-0.59916204 -0.60212803 0.14909831
-0.22168911 0.29306024 0.09498829
-0.49376491 -0.39004481 0.00678043
-0.57351482 -0.52265662 0.20806441
-0.29029772 0.18217634 0.27890870
-0.54733229 -0.51756299 0.01284158
-0.26465216 0.19590174 0.11703488
-0.44764736 -0.20742361 0.24623756
-0.58535153 -0.58704025 0.08778167
-0.33776021 0.05007508 0.22006509
-0.50871873 -0.40318394 0.08391585
-0.43007240 -0.23742639 0.00292312
-0.49799293 -0.37130931 0.10400488
-0.44858283 -0.26862940 0.04822177
-0.34440559 0.04610016 0.26060519
-0.51471239 -0.34904516 0.31438524
-0.63070756 -0.68407524 0.12964673
-0.42071629 -0.17413740 0.13964736
-0.34569958 -0.00289706 0.10650785
-0.43166962 -0.13318017 0.36605999
-0.39591938 -0.13543254 0.06856696
-0.52371532 -0.41541123 0.16446093
-0.31135079 0.10633023 0.19486248
-0.15185443 0.47092521 0.12612744
-0.57467550 -0.56119174 0.08803171
-0.41850689 -0.17922176 0.10465001
-0.19931450 0.32998699 0.03757917
-0.43425956 -0.21008739 0.12871724
-0.58178633 -0.55928987 0.15208764
-0.27779379 0.17656264 0.15864679
-0.42116329 -0.16267319 0.18178290
-0.20600423 0.35833466 0.18705694
-0.31483471 0.05285869 0.04349493
-0.38871112 -0.02880286 0.36829957
-0.55813611 -0.48884454 0.19692948
-0.37129012 -0.02650058 0.23475271
-0.48386458 -0.28938252 0.26463529
-0.08823913 0.61197495 0.08403454
-0.09530926 0.58630484 0.05514109
-0.42199162 -0.17896938 0.13375816
-0.63011795 -0.71761751 0.01219328
-0.43277499 -0.15365665 0.30623963
-0.35821027 0.02109553 0.28856277
-0.61677605 -0.64544004 0.14644876
-0.07195406 0.64648491 0.06789184
-0.45566323 -0.28534520 0.04949060
-0.11369300 0.53852910 0.04374114
-0.56080389 -0.47789738 0.25533557
-0.39995453 -0.15880276 0.02278583
-0.31160083 0.06506323 0.05826630
-0.49786660 -0.34941387 0.17653164
-0.46402884 -0.24199270 0.26296338
-0.46916860 -0.24244212 0.30313632
-0.27543935 0.21413016 0.26574978
-0.41631484 -0.13576543 0.23285159
-0.19640595 0.34418952 0.06170045
-0.36898559 -0.03716225 0.18024890
-0.41896072 -0.14037456 0.23882596
-0.62028110 -0.65933514 0.12819864
-0.10520734 0.57556993 0.09935174
-0.34824145 -0.00521168 0.11934646
-0.44779462 -0.23949911 0.13968395
-0.57776755 -0.52915782 0.22071341
-0.17385700 0.40717062 0.09039943
-0.39456832 -0.07797813 0.25061077
-0.51237082 -0.35896397 0.26207727
-0.38433370 -0.08633837 0.13952655
-0.29753101 0.10178631 0.06752308
-0.46267763 -0.21384767 0.34655014
-0.31611618 0.08769705 0.17091626
-0.15475760 0.44746888 0.07087710
-0.39317855 -0.10408500 0.15164180
-0.33104837 0.04091543 0.13486446
-0.56775981 -0.49993092 0.23773201
-0.44914696 -0.25064197 0.11321996
-0.48606032 -0.32152128 0.17448202
-0.36856180 -0.00076278 0.29908496
-0.51155657 -0.33412540 0.33890930
-0.54428613 -0.45481342 0.19892649
-0.34554037 0.01419092 0.16261853
-0.51945567 -0.36544296 0.29776898
-0.40094903 -0.15855177 0.03169426
-0.64181817 -0.71439976 0.11788526
-0.26216102 0.21636093 0.16555876
-0.29697579 0.11586450 0.11031188
-0.35595062 0.02474576 0.28249937
-0.36259839 -0.03627269 0.13143833
-0.05740125 0.66484123 0.01153449
-0.10392464 0.57218266 0.07757091
-0.50110078 -0.37695372 0.11024831
-0.27359706 0.15501808 0.05223980
-0.16307028 0.43997991 0.11313426
-0.23796637 0.29208997 0.22373417
-0.14363109 0.46986493 0.05587625
-0.37192917 -0.01829657 0.26749417
-0.35179460 0.02987050 0.26600999
-0.62419593 -0.64590895 0.20504409
-0.11452739 0.53084856 0.02470743
-0.22019894 0.31014264 0.14028649
-0.45470327 -0.29737893 0.00128165
-0.50183809 -0.37811643 0.11232182
-0.52865040 -0.44812480 0.09459238
-0.39991942 -0.16308722 0.00810884
-0.50206411 -0.30558130 0.35781282
-0.63842428 -0.69426709 0.15798917
-0.31781739 0.09589794 0.21226116
-0.38521481 -0.06578248 0.21572341
-0.53891945 -0.41592678 0.28602982
-0.46988246 -0.25553218 0.26495320
-0.54718786 -0.46426952 0.19069386
-0.25987589 0.19052772 0.06024797
-0.40449509 -0.06864987 0.36245039
-0.46521890 -0.24463597 0.26373529
-0.29515648 0.10900913 0.07252893
-0.15500082 0.43467420 0.02986961
-0.58463222 -0.57344556 0.12761565
-0.56155694 -0.54137909 0.04819747
-0.53289068 -0.46208879 0.08207200
-0.49731272 -0.37410122 0.08910992
-0.29889113 0.08113342 0.00917625
-0.53922850 -0.41281915 0.29897439
-0.13867363 0.50286895 0.12653945
-0.45638251 -0.27102163 0.10343943
-0.32619783 0.10051922 0.29574853
-0.56602186 -0.54574513 0.06974073
-0.44175047 -0.16159989 0.35234603
-0.10512795 0.56949204 0.07829103
-0.31876719 0.04616186 0.05289049
-0.42551681 -0.17594738 0.17249823
-0.47897041 -0.34101355 0.05150578
-0.52139324 -0.39316273 0.22036636
-0.59096086 -0.56273437 0.21491730
-0.52758342 -0.45675835 0.05693751
-0.64912397 -0.75525677 0.03988980
-0.15522172 0.45696893 0.10655347
-0.47460857 -0.32530823 0.06888954
-0.53352517 -0.45074677 0.12531762
-0.35706359 0.00656705 0.23045941
-0.45699945 -0.22661150 0.25762525
-0.36417571 -0.07054075 0.02911680
-0.24540170 0.23816516 0.10288885
-0.23496333 0.25575140 0.07731160
-0.22662354 0.29674312 0.14737704
-0.51804864 -0.43117157 0.06556334
-0.61053002 -0.62394893 0.16798732
-0.31313261 0.07791868 0.11387258
-0.17004557 0.42730016 0.12710860
-0.23653083 0.26016814 0.10486031
-0.52274173 -0.44169474 0.06827382
-0.45505276 -0.26986736 0.09653278
-0.25825307 0.22601783 0.16630569
-0.46021721 -0.28664172 0.08206710
-0.32678854 0.05877682 0.16031814
-0.30865043 0.09231091 0.12586950
-0.40589783 -0.14830486 0.10624937
-0.11830207 0.54502380 0.10293662
-0.21169721 0.30275196 0.04651254
-0.34278321 0.02837989 0.18792212
-0.50437248 -0.39823633 0.06528829
-0.11004953 0.55842787 0.08103725
-0.40782890 -0.17345396 0.03742911
-0.42759439 -0.17989840 0.17607500
-0.51850653 -0.41915679 0.10963668
-0.19244617 0.35043740 0.05057542
-0.28502494 0.15509129 0.14516360
-0.33486646 -0.00597360 0.00831871
-0.53819585 -0.48098794 0.06160991
-0.60065597 -0.63004792 0.06742640
-0.04372752 0.70315254 0.02933857
-0.49413675 -0.29461473 0.33036456
-0.45202324 -0.25455794 0.12339141
-0.44532874 -0.24748485 0.09286041
-0.58399284 -0.56851202 0.13900308
-0.34822381 0.00082280 0.13947454
-0.26635733 0.20559476 0.16342424
-0.24626189 0.22215430 0.05608129
-0.60130084 -0.64358407 0.02718538
-0.42492008 -0.18987189 0.12088387
-0.44925803 -0.24502954 0.13297404
-0.12889065 0.50934064 0.06894107
-0.36637574 -0.06892319 0.05239218
-0.35965213 -0.05628526 0.04031841
-0.47131482 -0.26144388 0.25671092
-0.20316344 0.36041638 0.17101175
-0.66788143 -0.76540440 0.15791364
-0.29644546 0.10007579 0.05297346
-0.51393944 -0.40837672 0.10881121
-0.44073668 -0.14975286 0.38392085
-0.42081064 -0.16081224 0.18517411
-0.63778090 -0.73722535 0.00847128
-0.52829927 -0.41243422 0.21163605
-0.57515901 -0.57139069 0.05769252
-0.41198453 -0.14918493 0.15265480
-0.58662391 -0.56701821 0.16535757
-0.20789634 0.35582751 0.19397953
-0.38083103 -0.09984120 0.06576196
-0.61284292 -0.67187446 0.02575613
-0.22111733 0.29357681 0.09208668
-0.55655706 -0.47538680 0.22933008
-0.30083290 0.12720072 0.17967282
-0.28265643 0.11847732 0.00296171
-0.45063490 -0.18481842 0.34640121
-0.44911456 -0.26803213 0.05454036
-0.51109761 -0.33334395 0.33781272
-0.44400498 -0.15684289 0.38660935
-0.55361676 -0.52577984 0.03620563
-0.47156304 -0.27814123 0.20263416
-0.32510638 0.10381350 0.29796317
-0.33952433 0.01040810 0.10112252
-0.43585315 -0.22640380 0.08683085
-0.37953871 -0.10499001 0.03798544
-0.62719911 -0.69899786 0.05106901
-0.13986823 0.50253260 0.13509741
-0.44385737 -0.19485365 0.25772655
-0.21609072 0.29924408 0.07035929
-0.47302705 -0.33344606 0.02872712
-0.26340747 0.18736961 0.07827960
-0.12350441 0.52242613 0.06921664
-0.51518899 -0.37032384 0.24677198
-0.55805427 -0.47096249 0.25633293
-0.57898998 -0.58087105 0.05691480
-0.41994607 -0.11577824 0.32944098
-0.21393280 0.29703051 0.04542306
-0.55443186 -0.45066386 0.29514119
-0.56842518 -0.56422901 0.02714021
-0.48100966 -0.29599458 0.21927124
-0.45424479 -0.18985796 0.35874784
-0.20131651 0.36794659 0.18132877
-0.25974452 0.18617506 0.04456113
-0.50470942 -0.37292072 0.15306126
-0.34896198 -0.02866731 0.04639770
-0.60672688 -0.61426330 0.16968125
-0.20865268 0.33928743 0.14455183
-0.66367364 -0.78767526 0.04898225
-0.43791977 -0.20931405 0.16099858
-0.14514649 0.47402519 0.08214090
-0.53599805 -0.44082940 0.17868654
-0.67107189 -0.79160058 0.09579208
-0.32235232 0.11409345 0.31016058
-0.31319711 0.06166624 0.05980050
-0.16447610 0.43392646 0.10420040
-0.20084225 0.33396038 0.06331619
-0.25688493 0.19893344 0.06422838
-0.27627176 0.14319722 0.03422245
-0.65215498 -0.74238259 0.10771382
-0.33902735 0.02934222 0.16069545
-0.44104874 -0.22351696 0.13866353
-0.60182941 -0.63503832 0.06017892
-0.11224927 0.53039384 0.00470481
-0.50324059 -0.37105623 0.14741223
-0.65406173 -0.77865475 0.00133593
-0.43545353 -0.21034181 0.13754538
-0.44606712 -0.20442531 0.24349399
-0.54521632 -0.49515966 0.07093898
-0.50514936 -0.39158994 0.09391569
-0.56788367 -0.52459681 0.15588123
-0.22808070 0.25017449 0.00276110
-0.26413196 0.20558345 0.14533898
-0.45729139 -0.24270900 0.20591813
-0.42387760 -0.19679561 0.08917127
-0.47870064 -0.27785686 0.26147380
-0.60733622 -0.61244166 0.18074159
-0.49377948 -0.38875175 0.01124219
-0.52598077 -0.38244215 0.29358190
-0.30227768 0.15350772 0.27976000
-0.34270978 0.04199511 0.23306297
-0.26856446 0.15304665 0.00480417
-0.24389128 0.24278411 0.10615582
-0.46492803 -0.29279569 0.09959832
-0.66296118 -0.77619034 0.08178357
-0.53243124 -0.40571401 0.26771978
-0.51522344 -0.42731112 0.05561939
-0.31738189 0.07070033 0.12408548
-0.42750412 -0.17414868 0.19465715
-0.55063498 -0.46926296 0.20187514
-0.09587363 0.59547269 0.09051466
-0.62205040 -0.69955003 0.00745912
-0.45395470 -0.25921249 0.12341964
-0.47624698 -0.33245426 0.05817160
-0.15163170 0.47678441 0.14400332
-0.37787065 -0.01701826 0.31997257
-0.57207233 -0.53076154 0.16914152
-0.47714898 -0.24158785 0.37072495
-0.29034057 0.16124973 0.20895942
-0.37588426 -0.04371153 0.21419528
-0.52316040 -0.39280686 0.23589338
-0.58420426 -0.58679569 0.07929911
-0.31702599 0.08441778 0.16727899
-0.45060891 -0.23206268 0.18748771
-0.37641707 -0.09229550 0.05531320
-0.42561710 -0.13689993 0.30447990
-0.41086221 -0.18987715 0.00685990
-0.32357949 0.03217990 0.04494908
-0.53570205 -0.46143284 0.10707500
-0.30282065 0.10521574 0.12194100
-0.44480985 -0.17705430 0.32524261
-0.09276467 0.60185504 0.08674120
-0.26559210 0.16814221 0.03140788
-0.49841732 -0.33260280 0.23746943
-0.42781618 -0.18800382 0.15064584
-0.22681125 0.30042329 0.16126166
-0.40641066 -0.12062370 0.20339467
-0.61805248 -0.65190399 0.13508749
-0.30556747 0.12420544 0.20800743
-0.59388816 -0.60173726 0.10764177
-0.19819377 0.35210332 0.10278355
-0.35430169 0.03047814 0.28838313
-0.34250173 -0.01397517 0.04336033
-0.21011017 0.31129977 0.06235573
-0.65970904 -0.74498957 0.16021536
-0.41305670 -0.16423641 0.11078900
-0.32953271 0.08067438 0.25613102
-0.48387128 -0.33663237 0.10596818
-0.08187596 0.62000340 0.05940015
-0.42816260 -0.12482647 0.36568049
-0.31521058 0.10397702 0.21825974
-0.18920694 0.38563791 0.14255156
-0.17179272 0.42607829 0.13717303
-0.37733206 -0.10883633 0.00716960
-0.57428557 -0.56561929 0.06999651
-0.62243086 -0.70074236 0.00653916
-0.54985058 -0.48104680 0.15592965
-0.37945980 -0.01102033 0.35300836
-0.51196563 -0.39634284 0.13322821
-0.43952733 -0.15143029 0.36847851
-0.38571203 -0.07747409 0.18048134
-0.43320295 -0.18260635 0.21246244
-0.11157475 0.55193818 0.07160641
-0.28238598 0.15714499 0.13066097
-0.27891499 0.15493150 0.09507637
-0.27803898 0.19166344 0.21136189
-0.40048787 -0.08188377 0.28549731
-0.26503295 0.20120800 0.13794771
-0.51281506 -0.33801511 0.33604938
-0.18947639 0.36573145 0.07786693
-0.49948251 -0.37805641 0.09342022
-0.39927387 -0.11533062 0.16329738
-0.10523302 0.55782139 0.03993915
-0.42324826 -0.22105145 0.00258744
-0.59650385 -0.63814408 0.00655680
-0.34319261 0.04071871 0.23269080
-0.63360918 -0.67404926 0.18685500
-0.40742460 -0.17751651 0.02050338
-0.51848650 -0.42129946 0.10227652
-0.63650203 -0.69434327 0.14214554
-0.63703495 -0.68311638 0.18417867
-0.63001430 -0.69432026 0.08961152
-0.33354524 0.08236463 0.29434961
-0.53737694 -0.46867833 0.09631930
-0.62220651 -0.70018578 0.00658961
-0.55285817 -0.44910887 0.28760314
-0.34432238 -0.01243895 0.06328582
-0.66237783 -0.77526033 0.08017673
-0.34898853 0.00248377 0.15125588
-0.37652561 -0.00155253 0.36101645
-0.23441148 0.29271030 0.19698846
-0.58395356 -0.54490799 0.21797231
-0.41533175 -0.09645175 0.35694116
-0.34068063 0.01013409 0.10957934
-0.55864656 -0.53501248 0.04598161
-0.19960967 0.36734030 0.16545007
-0.16164614 0.44007346 0.10189912
-0.23201859 0.25717646 0.05821739
-0.23012048 0.26477391 0.06834550
-0.45753425 -0.27276558 0.10692166
-0.49647343 -0.37842247 0.06778769
-0.46586913 -0.22313303 0.34124118
-0.34332514 0.01108160 0.13420860
-0.34359065 0.06339886 0.31210595
-0.34831998 -0.00085943 0.13460344
-0.16763341 0.40455544 0.03114236
-0.23990573 0.28453195 0.21407308
-0.58749694 -0.55312669 0.21909966
-0.30144143 0.14733005 0.25222617
-0.25563881 0.24388742 0.20513193
-0.47428197 -0.23908827 0.35587066
-0.46480682 -0.30942616 0.04275051
-0.39274338 -0.12447517 0.07961819
-0.10259250 0.57452077 0.07462168
-0.20188463 0.35884988 0.15537859
-0.27205575 0.15131821 0.02731142
-0.46874532 -0.30839607 0.07815103
-0.40884694 -0.10994571 0.25902200
-0.39720786 -0.08949273 0.23333710
-0.48200330 -0.25077951 0.37921491
-0.40767717 -0.11211372 0.24225248
-0.29830110 0.14384428 0.21504927
-0.40060553 -0.06251256 0.35152310
-0.24763466 0.20682326 0.01571410
-0.51910144 -0.37821192 0.25200325
-0.11243605 0.55109173 0.07574789
-0.49440077 -0.29949868 0.31609932
-0.22922693 0.25074607 0.01397680
-0.44976655 -0.23002660 0.18749581
-0.64556080 -0.74889731 0.03235612
-0.09609647 0.56816441 0.00058787
-0.60236382 -0.64142698 0.04305224
-0.38694838 -0.06864131 0.22017892
-0.39625135 -0.12325393 0.11216934
-0.46136725 -0.31367984 0.00056711
-0.38094586 -0.08166763 0.12774172
-0.09914677 0.57836443 0.05958915
-0.41368881 -0.15573797 0.14446329
-0.56275624 -0.48969406 0.23154239
-0.52563983 -0.45252520 0.05539523
-0.51098055 -0.34071407 0.31210691
-0.32168755 0.07518429 0.17406596
-0.47799397 -0.27565524 0.26313853
-0.31669873 0.12140634 0.28887668
-0.58988053 -0.61677563 0.02462389
-0.58251464 -0.60076004 0.01868785
-0.16939306 0.41145295 0.06858300
-0.28192198 0.14369392 0.08171306
-0.50498891 -0.40952903 0.03235321
-0.39298972 -0.14136720 0.02487228
-0.25514060 0.25484902 0.23791374
-0.31249911 0.09907566 0.17980555
-0.45439875 -0.29252836 0.01510611
-0.58751380 -0.59103948 0.09188315
-0.53877735 -0.45718083 0.14629848
