ply
format ascii 1.0
element vertex 656
property float x
property float y
property float z
end_header
-0.04223144 -0.45967031 -0.00000025
-0.02405547 0.29944897 -0.00000678
-0.30658618 -0.59635961 -0.00000185
-0.42920002 -0.70652646 -0.00000259
-0.24718171 -0.06480039 -0.00000149
-0.21283303 -0.56585509 -0.00000128
-0.07671038 -0.55753279 -0.00000046
-0.03464848 0.20406602 -0.00000789
-0.11004468 -0.33647600 -0.00000066
-0.06622624 -0.61909890 -0.00000040
-0.10645643 -0.37914497 -0.00000064
-0.53565794 -0.49316734 -0.17407046
-0.06239760 0.54957438 -0.00000187
-0.27752620 -0.72437358 -0.00000168
-0.09393283 0.12504160 -0.00000729
-0.15634766 -0.42078346 -0.00000094
-0.31314695 -0.41054979 -0.00000189
-0.30668542 0.05959026 0.16569650
-0.06244869 0.51359433 -0.00000241
-0.41065478 -0.67224437 -0.00000248
-0.18941544 -0.06987296 -0.00000114
-0.42720008 -0.64431649 -0.00000258
-0.22032383 -0.59435469 -0.00000133
-0.01517355 0.02813327 -0.00001112
-0.13690174 -0.54983383 -0.00000083
-0.35901999 -0.06675677 0.02693295
-0.14373963 0.17498742 -0.00000504
-0.31640771 -0.70490652 -0.00000191
-0.51146013 -0.77282202 -0.00000309
-0.55794251 -0.72653741 -0.00000337
-0.04670563 0.41505414 -0.00000436
-0.48934686 -0.63726550 -0.00000295
-0.34734976 -0.25898355 -0.00000210
-0.32809034 -0.68428200 -0.00000198
-0.15195267 -0.63085622 -0.00000092
-0.04142616 -0.38224384 -0.00000025
-0.20256799 0.03345275 -0.00000539
-0.13317595 -0.19569284 -0.00000080
-0.10939373 -0.19481854 -0.00000066
-0.17725225 0.10391462 -0.00000509
-0.31358057 -0.17133580 -0.00000189
-0.17082931 -0.16997877 -0.00000103
-0.50122601 -0.49678406 -0.00000303
-0.27818814 -0.61545992 -0.00000168
-0.40239680 -0.70391423 -0.00000243
-0.37516913 -0.15086091 -0.00000226
-0.19920087 0.31909540 -0.13768080
-0.30412504 -0.07731575 -0.00000184
-0.05243983 0.16595010 -0.00000793
-0.22221226 0.26352465 0.16348912
-0.29144067 -0.11002332 -0.00000176
-0.31839010 -0.03587649 -0.00000192
-0.37617803 -0.67204708 -0.00000227
-0.05438694 0.30921704 -0.00000572
-0.02013033 -0.79416734 -0.00000012
-0.14676565 -0.06458331 -0.00000089
-0.16182466 0.19116400 -0.00000425
-0.33459285 -0.78779453 -0.00000202
-0.28583220 -0.20809641 -0.00000173
-0.23820266 -0.44018057 -0.00000144
-0.10780986 0.23538747 -0.00000522
-0.35698071 -0.29524240 -0.00000215
-0.22645581 -0.02779134 -0.00000137
-0.45724669 -0.56554598 -0.00000276
-0.28682587 -0.29915667 -0.00000173
-0.15090622 -0.37400889 -0.00000091
-0.36132309 -0.41207728 -0.00000218
-0.31121600 -0.58625263 -0.00000188
-0.23209105 -0.76159668 -0.00000140
-0.66153437 -0.79705560 -0.10994341
-0.17680515 -0.53157479 -0.00000107
-0.16487660 -0.61767453 -0.00000100
-0.17314899 -0.11629782 -0.00000105
-0.16097106 -0.02163704 -0.00000097
-0.18949211 -0.41045922 -0.00000114
-0.14795612 -0.02942364 -0.00000089
-0.15822110 0.14736667 -0.00000501
-0.24662995 -0.63556528 -0.00000149
-0.29804623 -0.06527060 -0.00000180
-0.42853469 -0.23458523 0.12221956
-0.51782954 -0.45013019 -0.29509839
-0.23742244 -0.28211540 -0.00000143
-0.56464404 -0.62695163 -0.00000341
-0.04028948 -0.33473414 -0.00000024
-0.45190927 -0.61928988 -0.00000273
-0.13888726 0.31132463 -0.00000314
-0.01145343 -0.44852442 -0.00000007
-0.17003845 -0.10332127 -0.00000103
-0.41353840 -0.60254312 -0.00000250
-0.38960022 -0.24947961 -0.00000235
-0.03319636 -0.56289136 -0.00000020
-0.18643288 0.18235512 -0.00000364
-0.52236044 -0.57595909 -0.00000315
-0.29067296 -0.28533182 -0.00000175
-0.05084945 -0.40933257 -0.00000031
-0.01457671 -0.52726507 -0.00000009
-0.28335321 -0.05387476 -0.00000171
-0.21584626 -0.00421707 -0.00000130
-0.48809397 -0.37838224 0.31737438
-0.12753452 0.40583766 -0.00000206
-0.06447273 -0.01736897 -0.00000039
-0.12906352 0.44233832 -0.00000147
-0.26826417 -0.05377897 -0.00000162
-0.24124227 0.21759540 0.00097870
-0.13184828 0.48168868 0.05868040
-0.37533021 -0.23991153 -0.00000227
-0.40126556 -0.46623191 -0.00000242
-0.22165921 -0.75769025 -0.00000134
-0.42099106 -0.78248096 -0.00000254
-0.20228189 0.01758277 -0.00000563
-0.09270754 -0.60771638 -0.00000056
-0.54401183 -0.69106239 -0.00000328
-0.42205203 -0.21894313 0.31321138
-0.20843841 0.18385398 -0.00000295
-0.03790633 0.63902915 -0.00000127
-0.07333608 0.19690111 -0.00000683
-0.18958560 -0.40339741 -0.00000114
-0.27332702 -0.05974752 -0.00000165
-0.38057989 -0.69554138 -0.00000230
-0.38361439 -0.64658934 -0.00000232
-0.25899222 -0.50028807 -0.00000156
-0.40747720 -0.38406426 -0.00000246
-0.03363296 0.04574289 -0.00001030
-0.20393039 -0.54225177 -0.00000123
-0.05102223 -0.66599011 -0.00000031
-0.33674371 -0.75214583 -0.00000203
-0.54509652 -0.56217676 -0.00000329
-0.21107753 -0.72137582 -0.00000127
-0.09357931 -0.17638080 -0.00000056
-0.28665537 -0.22650085 -0.00000173
-0.11087245 0.23520824 -0.00000513
-0.00465136 0.11483050 -0.00001014
-0.33179656 -0.21430631 -0.00000200
-0.07928607 -0.75504500 -0.00000048
-0.61447084 -0.70954514 -0.00000371
-0.17108572 -0.79330254 -0.00000103
-0.00417849 -0.46456909 0.00000003
-0.07270125 0.05428231 -0.00000899
-0.17367877 0.11788274 -0.00000499
-0.20624305 0.30209699 -0.02200590
-0.08559360 -0.65023249 -0.00000052
-0.58818442 -0.68755990 -0.00000355
-0.52372116 -0.78131902 -0.00000316
-0.10926949 0.53620553 -0.04940929
-0.07254208 0.53344584 -0.00000181
-0.24905100 0.19873993 0.04804534
-0.34404722 -0.78590858 -0.00000208
-0.38569587 -0.57815343 -0.00000233
-0.06595846 -0.61505944 -0.00000040
-0.07814496 -0.15882370 -0.00000047
-0.06394552 0.35369983 -0.00000476
-0.41634163 -0.20515276 0.21927086
-0.49296775 -0.58123654 -0.00000298
-0.28697369 -0.71414101 -0.00000173
-0.09006195 0.00091423 -0.00000927
-0.04892087 -0.44876608 -0.00000030
-0.28250256 -0.48114565 -0.00000171
-0.41169387 -0.69973046 -0.00000248
-0.05398171 -0.61640251 -0.00000033
-0.18882987 -0.77839047 -0.00000114
-0.42666799 -0.31792885 -0.00000258
-0.05953522 -0.56563282 -0.00000036
-0.45125344 -0.73289776 -0.00000272
-0.13481922 -0.29900175 -0.00000081
-0.31242311 -0.76242369 -0.00000189
-0.01702915 -0.31824324 -0.00000010
-0.12192213 -0.28423634 -0.00000074
-0.13226143 0.18297966 -0.00000526
-0.14025904 0.02794425 -0.00000735
-0.00492245 0.16517010 -0.00000937
-0.03159825 0.61879385 -0.00000176
-0.22044393 -0.37242064 -0.00000133
-0.36082917 -0.07113070 0.16514748
-0.16989066 0.02819022 -0.00000645
-0.11102117 -0.30968988 -0.00000067
-0.13523246 0.43807390 -0.00000135
-0.03110770 -0.74288470 -0.00000019
-0.11397562 0.11545643 -0.00000683
-0.18983078 -0.12966038 -0.00000115
-0.09514804 -0.49522248 -0.00000057
-0.15397748 -0.08971762 -0.00000093
-0.22118363 -0.16648839 -0.00000133
-0.17466448 0.37833053 -0.11444254
-0.65937638 -0.79184127 -0.00957316
-0.28553444 -0.12328504 -0.00000172
-0.59024251 -0.79163575 -0.00000356
-0.23478501 0.00703269 -0.00000481
-0.11132942 0.46515071 -0.00000166
-0.61268616 -0.72285622 -0.00000370
-0.46740314 -0.47893667 -0.00000282
-0.14852944 -0.11613348 -0.00000090
-0.00217463 0.36167282 -0.00000651
-0.10559829 -0.12279542 -0.00000064
-0.62346464 -0.76978022 -0.00000376
-0.15064731 0.18585916 -0.00000467
-0.35613570 -0.05979681 0.10295562
-0.16177718 0.05633994 -0.00000627
-0.27489424 -0.13965584 -0.00000166
-0.01473701 0.24870428 -0.00000782
-0.04488335 -0.47506520 -0.00000027
-0.03466970 -0.54187971 -0.00000021
-0.21082465 -0.69439405 -0.00000127
-0.30743498 -0.28299907 -0.00000186
-0.04567541 -0.38505283 -0.00000028
-0.35057881 -0.70482326 -0.00000212
-0.40792003 -0.18481565 0.09669000
-0.14859961 -0.56577766 -0.00000090
-0.42463186 -0.65128237 -0.00000256
-0.36095849 -0.33237404 -0.00000218
-0.05012052 -0.46081805 -0.00000030
-0.06798668 0.26264209 -0.00000601
-0.02606019 0.45816770 -0.00000434
-0.07299819 -0.36974740 -0.00000044
-0.21753541 -0.72248447 -0.00000131
-0.32605821 -0.09657733 -0.00000197
-0.09611171 0.00098824 -0.00000908
-0.58244473 -0.63896710 -0.00000352
-0.21562523 -0.63470912 -0.00000130
-0.29230669 -0.54336590 -0.00000176
-0.27203292 -0.71292359 -0.00000164
-0.28829819 0.10398479 0.11152309
-0.11179929 0.41065300 -0.00000247
-0.24929506 -0.45341721 -0.00000150
-0.25226471 0.00597305 -0.00000430
-0.34600055 -0.17842925 -0.00000209
-0.05981337 0.10862406 -0.00000857
-0.03454312 -0.52018315 -0.00000021
-0.09828356 -0.21925382 -0.00000059
-0.31744215 -0.19360074 -0.00000192
-0.25080705 -0.07843433 -0.00000151
-0.10830736 0.49304962 -0.00000134
-0.24972221 -0.55477405 -0.00000151
-0.28894722 0.07288208 -0.00000219
-0.17273626 -0.65249473 -0.00000104
-0.22576629 0.25496119 -0.19294538
-0.28811356 -0.24836619 -0.00000174
-0.54997271 -0.72977823 -0.00000332
-0.10212172 -0.55868834 -0.00000062
-0.11582202 -0.55296057 -0.00000070
-0.35666889 -0.06109653 0.38405922
-0.51010716 -0.43151623 0.04555218
-0.00257068 0.72764045 -0.00000101
-0.06616953 -0.23086439 -0.00000040
-0.05888130 0.46406981 -0.00000326
-0.14354005 -0.28860611 -0.00000087
-0.19826283 -0.08034911 -0.00000120
-0.02031233 -0.54665637 -0.00000012
-0.00900685 0.37794143 -0.00000606
-0.17413434 0.08172710 -0.00000552
-0.33875695 -0.42647853 -0.00000204
-0.19658788 -0.51796740 -0.00000119
-0.21755849 0.27476242 0.12927063
-0.25579223 -0.56376231 -0.00000154
-0.54574525 -0.59926498 -0.00000329
-0.13288791 -0.76465458 -0.00000080
-0.36932498 -0.09161035 -0.01606708
-0.21803460 -0.26140764 -0.00000132
-0.08086713 0.39458695 -0.00000364
-0.16467701 0.40244240 -0.08835568
-0.05126028 0.33242440 -0.00000547
-0.14342958 0.26495171 -0.00000370
-0.58611709 -0.63969731 -0.00000354
-0.03620850 -0.35756126 -0.00000022
-0.16309749 0.33120313 -0.00000211
-0.28210524 -0.13297062 -0.00000170
-0.15445660 -0.48653737 -0.00000093
-0.37171245 -0.59869182 -0.00000224
-0.50754309 -0.67962444 -0.00000306
-0.09110580 -0.04306743 -0.00000055
-0.42751014 -0.45719612 -0.00000258
-0.62228465 -0.79906273 -0.00000376
-0.13103808 -0.57928407 -0.00000079
-0.27192813 -0.31220612 -0.00000164
-0.07185286 -0.14120311 -0.00000043
-0.04524177 -0.42446873 -0.00000027
-0.37026489 -0.09387932 -0.00827757
-0.31918088 0.02941959 0.21983179
-0.23508251 -0.50311142 -0.00000142
-0.14783010 0.44310009 0.12752999
-0.51814622 -0.64800960 -0.00000313
-0.39976999 -0.64404339 -0.00000241
-0.19234726 -0.39309046 -0.00000116
-0.33391318 -0.21350650 -0.00000202
-0.16699399 0.33659419 -0.00000191
-0.50857800 -0.42782363 0.02614475
-0.49050945 -0.77716565 -0.00000296
-0.17079458 -0.08861418 -0.00000103
-0.05193339 -0.52891892 -0.00000031
-0.20084009 -0.03554478 -0.00000121
-0.29268163 -0.75127834 -0.00000177
-0.24904531 -0.76062256 -0.00000150
-0.36939764 -0.72977334 -0.00000223
-0.19523099 0.32867950 -0.12838434
-0.26829773 -0.70338458 -0.00000162
-0.57794338 -0.78658223 -0.00000349
-0.27842292 -0.59779942 -0.00000168
-0.06616832 -0.09814738 -0.00000040
-0.45239693 -0.29219890 0.23007026
-0.17104574 -0.68044627 -0.00000103
-0.11571344 0.36738694 -0.00000300
-0.07613161 0.02015209 -0.00000940
-0.04211516 -0.67862576 -0.00000025
-0.15563078 -0.43333828 -0.00000094
-0.39073634 -0.67589271 -0.00000236
-0.08180377 0.24582975 -0.00000584
-0.45525047 -0.48706868 -0.00000275
-0.37488601 -0.10507012 0.30827266
-0.21908121 -0.14275639 -0.00000132
-0.40693182 -0.28148291 -0.00000246
-0.00578817 0.07506213 -0.00001070
-0.40102157 -0.65024561 -0.00000242
-0.15840061 0.37954217 -0.00000153
-0.00631799 0.64973575 -0.00000206
-0.51261151 -0.56247449 -0.00000309
-0.21711405 -0.70306551 -0.00000131
-0.02297620 -0.56806082 -0.00000014
-0.48115498 -0.69676560 -0.00000290
-0.08496394 0.51775342 -0.00000167
-0.24062081 -0.47148934 -0.00000145
-0.10916162 -0.31069103 -0.00000066
-0.03058751 -0.16639540 -0.00000018
-0.45614067 -0.58398283 -0.00000275
-0.40372321 -0.61336839 -0.00000244
-0.00475407 -0.60752743 -0.00000003
-0.07495079 -0.75812542 -0.00000045
-0.43199211 -0.40875259 -0.00000261
-0.27031207 -0.25631347 -0.00000163
-0.17996769 0.36552113 0.03550363
-0.32013980 -0.79373413 -0.00000193
-0.23662467 0.00758742 -0.00000475
-0.12464843 -0.05152116 -0.00000075
-0.24705902 -0.68071800 -0.00000149
-0.46597335 -0.32493949 -0.30710873
-0.15146875 0.43432280 0.03740039
-0.43184260 -0.66380894 -0.00000261
-0.40615249 -0.62707412 -0.00000245
-0.13945863 -0.43922594 -0.00000084
-0.34340957 -0.21400721 -0.00000207
-0.37891489 -0.61058813 -0.00000229
-0.17333476 -0.03056754 -0.00000105
-0.33052924 -0.63357300 -0.00000199
-0.23891832 0.22321318 -0.05324185
-0.34150821 -0.67612010 -0.00000206
-0.30660874 0.05979282 -0.29550812
-0.38955405 -0.68640369 -0.00000235
-0.12974021 0.25293601 -0.00000429
-0.50816554 -0.63918704 -0.00000307
-0.08800191 -0.20093328 -0.00000053
-0.28040642 -0.73377854 -0.00000169
-0.08008344 -0.49173230 -0.00000048
-0.12635759 -0.32066157 -0.00000076
-0.00131114 0.16585448 -0.00000947
-0.59494448 -0.77678174 -0.00000359
-0.26994762 -0.38041848 -0.00000163
-0.23160614 0.24086618 -0.04068437
-0.12127451 0.35695723 -0.00000299
-0.33703473 -0.01368348 0.22594512
-0.34306288 -0.33564788 -0.00000207
-0.05355222 -0.66880435 -0.00000032
-0.57121933 -0.57905662 0.08548225
-0.08076917 -0.30496326 -0.00000049
-0.40528828 -0.30555695 -0.00000245
-0.09400492 -0.44191539 -0.00000057
-0.35865358 -0.30017927 -0.00000216
-0.02599934 0.35801205 -0.00000585
-0.02981207 0.51034105 -0.00000345
-0.40470624 -0.54942048 -0.00000244
-0.05231870 0.05602742 -0.00000958
-0.03359658 -0.46907085 -0.00000020
-0.21609142 0.05625472 -0.00000464
-0.00979157 0.28341198 -0.00000745
-0.22625357 0.15392837 -0.00000286
-0.42620847 -0.22893801 -0.13215889
-0.41478974 -0.20137303 -0.24332768
-0.10147739 -0.34422487 -0.00000061
-0.16636288 0.39835975 0.11111124
-0.03307462 0.12747391 -0.00000909
-0.36415544 -0.47466528 -0.00000220
-0.15206876 0.39821494 -0.00000144
-0.02213569 0.70710427 -0.00000073
-0.03683638 -0.07274680 -0.00000022
-0.27383584 -0.04199777 -0.00000165
-0.37459275 -0.21628310 -0.00000226
-0.02983787 0.15853631 -0.00000872
-0.44273883 -0.26884866 -0.36722338
-0.12459184 0.36967385 -0.00000270
-0.11414507 0.07948384 -0.00000736
-0.21408340 -0.06811583 -0.00000129
-0.23284270 -0.68820238 -0.00000141
-0.37447202 -0.68179983 -0.00000226
-0.20087332 -0.38778532 -0.00000121
-0.08483093 0.33750489 -0.00000438
-0.06067028 0.24047509 -0.00000656
-0.31542808 0.03849046 0.08162733
-0.22439176 -0.15579481 -0.00000135
-0.40611884 -0.34296167 -0.00000245
-0.37119237 -0.21285848 -0.00000224
-0.33297434 -0.00389146 0.35934272
-0.35522625 -0.25128651 -0.00000214
-0.09209686 -0.69000268 -0.00000056
-0.09304250 0.20259540 -0.00000615
-0.41723341 -0.20727122 -0.16186617
-0.20908186 -0.26638389 -0.00000126
-0.01799071 -0.05512545 -0.00000011
-0.51362872 -0.43998450 -0.12446951
-0.42162153 -0.79875100 -0.00000254
-0.01026099 -0.05343753 -0.00000006
-0.35970187 -0.06840945 0.17211245
-0.13514043 0.36614117 -0.00000243
-0.12625176 -0.65355235 -0.00000076
-0.16302937 -0.61379349 -0.00000098
-0.16278771 -0.12055041 -0.00000098
-0.27404410 -0.73269886 -0.00000165
-0.32184821 0.02300614 -0.12173169
-0.01984198 0.26726666 -0.00000739
-0.22017179 -0.45423034 -0.00000133
-0.20969763 -0.52870256 -0.00000127
-0.07081573 0.14847501 -0.00000764
-0.44731623 -0.27992648 0.08530900
-0.04641782 0.32368344 -0.00000574
-0.23580426 -0.16349278 -0.00000142
-0.36040622 -0.75531894 -0.00000218
-0.16201694 -0.59666568 -0.00000098
-0.00282671 0.48510793 -0.00000464
-0.36782047 -0.14852823 -0.00000222
-0.31739673 -0.04059120 -0.00000192
-0.34362137 -0.68102556 -0.00000207
-0.25255468 0.19027920 0.07570243
-0.31938612 -0.47601640 -0.00000193
-0.21912673 -0.52936524 -0.00000132
-0.15018418 0.43742043 0.08269730
-0.14965190 -0.63476616 -0.00000090
-0.20640519 -0.27578643 -0.00000125
-0.15621696 0.27432674 -0.00000317
-0.03917735 0.26351705 -0.00000686
-0.10594285 -0.65931344 -0.00000064
-0.16351917 -0.00914704 -0.00000099
-0.33458877 -0.23109137 -0.00000202
-0.13412970 -0.18583678 -0.00000081
-0.37109017 -0.26939717 -0.00000224
-0.22639078 0.11428415 -0.00000345
-0.04199692 -0.24365149 -0.00000025
-0.34692872 -0.33724043 -0.00000209
-0.54244679 -0.72202057 -0.00000327
-0.20440793 -0.09423454 -0.00000123
-0.03071446 0.52617449 -0.00000318
-0.54198867 -0.50844842 -0.01966206
-0.01026356 0.45197609 -0.00000491
-0.03576896 -0.39804408 -0.00000022
-0.17527179 -0.41991633 -0.00000106
-0.08046862 -0.61098915 -0.00000049
-0.42060986 -0.52845103 -0.00000254
-0.19309942 0.33382475 -0.15985118
-0.38007233 -0.11756045 -0.33447692
-0.41495523 -0.30735964 -0.00000250
-0.05793955 -0.69944829 -0.00000035
-0.38909364 -0.55322808 -0.00000235
-0.25381708 -0.11638713 -0.00000153
-0.01426765 0.11802110 -0.00000980
-0.31436449 0.04106891 -0.31019130
-0.17156474 -0.70678365 -0.00000104
-0.54264921 -0.60012466 -0.00000328
-0.30922779 -0.55485713 -0.00000187
-0.11217466 -0.49645391 -0.00000068
-0.39494362 -0.15348902 0.12732419
-0.48866233 -0.37971234 -0.17330223
-0.16055731 -0.63633305 -0.00000097
-0.00448370 0.23856315 -0.00000829
-0.64289945 -0.79794872 -0.00000388
-0.12273814 -0.66710383 -0.00000074
-0.10634422 0.26145941 -0.00000487
-0.10677040 -0.24284090 -0.00000064
-0.14557980 -0.45849115 -0.00000088
-0.17745648 0.01313870 -0.00000645
-0.09103765 -0.60486275 -0.00000055
-0.05017381 -0.23581390 -0.00000030
-0.39704239 -0.15855797 0.17295197
-0.19167179 0.05290300 -0.00000542
-0.05781644 -0.73275220 -0.00000035
-0.20174770 0.31292593 0.21447118
-0.50428683 -0.74135399 -0.00000304
-0.06558603 0.14070648 -0.00000791
-0.05882984 0.38068840 -0.00000451
-0.01949332 -0.54457337 -0.00000012
-0.39893109 -0.75928265 -0.00000241
-0.38247162 -0.28226790 -0.00000231
-0.22471745 -0.21071365 -0.00000136
-0.06814498 0.63548660 -0.04261262
-0.10061415 0.14871709 -0.00000673
-0.38507643 -0.30005845 -0.00000232
-0.43955868 -0.78193218 -0.00000265
-0.60628593 -0.66367340 -0.08719592
-0.50624734 -0.72176218 -0.00000306
-0.13835517 0.35297987 -0.00000253
-0.22985387 0.24508335 0.07475656
-0.14478943 0.32650530 -0.00000273
-0.52669966 -0.61743683 -0.00000318
-0.04580106 0.00019066 -0.00001061
-0.28121772 -0.08069062 -0.00000170
-0.23287612 -0.15617383 -0.00000141
-0.07381702 -0.41341773 -0.00000045
-0.02290908 -0.02395321 -0.00000014
-0.47414133 -0.71217746 -0.00000286
-0.35012406 -0.08404795 -0.00000211
-0.47798356 -0.35396808 0.16852465
-0.30241537 -0.08483326 -0.00000183
-0.01024109 0.05247754 -0.00001090
-0.41792339 -0.20896378 0.04651619
-0.02553742 0.26732653 -0.00000722
-0.51162195 -0.47919118 -0.00000309
-0.06945669 0.36645928 -0.00000441
-0.07642351 0.47218633 -0.00000261
-0.17809574 0.10352059 -0.00000507
-0.16041525 -0.66522980 -0.00000097
-0.30562204 -0.01504162 -0.00000184
-0.37206987 -0.79012656 -0.00000225
-0.26780298 0.15347815 -0.19182347
-0.20141567 -0.47266215 -0.00000122
-0.59531498 -0.63723016 0.15451044
-0.09504265 0.12753035 -0.00000722
-0.11435046 0.26657817 -0.00000455
-0.39582676 -0.15562208 0.14920989
-0.24877097 -0.30755079 -0.00000150
-0.34815091 -0.09792831 -0.00000210
-0.51360333 -0.67416710 -0.00000310
-0.21906567 -0.18454844 -0.00000132
-0.22169647 -0.27211291 -0.00000134
-0.04275661 -0.40787551 -0.00000026
-0.02753624 0.47234520 -0.00000408
-0.14261672 0.45569012 0.07766437
-0.14281462 -0.25896931 -0.00000086
-0.45528924 -0.59368420 -0.00000275
-0.08012997 0.13740642 -0.00000752
-0.03361575 -0.79191637 -0.00000020
-0.09009179 -0.32246211 -0.00000054
-0.20153049 -0.34796298 -0.00000122
-0.38091913 -0.18721060 -0.00000230
-0.05828542 0.57915640 -0.00000155
-0.31905180 -0.43586850 -0.00000193
-0.22069904 -0.47465381 -0.00000133
-0.25503603 -0.15648012 -0.00000154
-0.15053557 0.16453208 -0.00000499
-0.47281921 -0.66923767 -0.00000285
-0.54850090 -0.62599003 -0.00000331
-0.03964921 0.51265556 -0.00000311
-0.20060238 -0.20107585 -0.00000121
-0.23981455 0.09615229 -0.00000332
-0.12397392 0.39481542 -0.00000234
-0.45110667 -0.78215796 -0.00000272
-0.09912062 0.40866703 -0.00000288
-0.18623818 -0.48058432 -0.00000112
-0.09672321 0.17566013 -0.00000645
-0.36542305 -0.64931887 -0.00000221
-0.02236723 -0.17945147 -0.00000013
-0.35224208 -0.67448604 -0.00000213
-0.41608849 -0.20450884 -0.27064815
-0.40887615 -0.40995213 -0.00000247
-0.41047034 -0.78219634 -0.00000248
-0.16535813 0.40078220 0.15187456
-0.43369958 -0.52219123 -0.00000262
-0.12127812 -0.53233939 -0.00000073
-0.29526144 0.08716313 0.25157580
-0.12127346 -0.67626399 -0.00000073
-0.16152287 0.15407810 -0.00000481
-0.01837883 0.57225323 -0.00000286
-0.26298690 -0.11962857 -0.00000159
-0.18188180 0.01473083 -0.00000629
-0.23078281 0.06124769 -0.00000412
-0.11392466 -0.01660512 -0.00000069
-0.17209563 -0.32540071 -0.00000104
-0.53319323 -0.48721495 -0.02928382
-0.07303813 -0.43108028 -0.00000044
-0.30853975 -0.67485648 -0.00000186
-0.10054844 -0.67121321 -0.00000061
-0.14516762 -0.15501778 -0.00000088
-0.24493268 0.20867832 0.09905913
-0.32669440 -0.43109676 -0.00000197
-0.43355951 -0.35116342 -0.00000262
-0.18121764 -0.05571887 -0.00000109
-0.24052209 0.21932968 0.05653230
-0.35710755 -0.58330959 -0.00000216
-0.10461552 0.46728516 -0.00000183
-0.15051556 0.32234180 -0.00000262
-0.19032562 0.14574833 -0.00000407
-0.08983252 -0.78352094 -0.00000054
-0.34969488 -0.13533899 -0.00000211
-0.06320472 0.45619553 -0.00000325
-0.14675473 -0.29966211 -0.00000089
-0.33812505 -0.18374398 -0.00000204
-0.20321605 -0.34744453 -0.00000123
-0.02007252 -0.03588845 -0.00000012
-0.48812100 -0.67876464 -0.00000295
-0.36184183 -0.47586516 -0.00000218
-0.20901006 -0.75695229 -0.00000126
-0.21447301 -0.79935306 -0.00000129
-0.06328845 0.12873831 -0.00000816
-0.23734361 -0.13923877 -0.00000143
-0.34443724 -0.27503347 -0.00000208
-0.47972548 -0.64120919 -0.00000290
-0.15149827 0.05622675 -0.00000658
-0.27096918 -0.58163208 -0.00000164
-0.00924651 -0.38493744 -0.00000006
-0.30577037 -0.24721599 -0.00000185
-0.47581369 -0.64307284 -0.00000287
-0.21632524 -0.74990880 -0.00000131
-0.20651838 -0.49634445 -0.00000125
-0.09984521 -0.28156969 -0.00000060
-0.19293755 0.15416688 -0.00000387
-0.22516690 -0.13023710 -0.00000136
-0.10650639 -0.57105386 -0.00000064
-0.08932968 -0.70802879 -0.00000054
-0.12612294 -0.45949709 -0.00000076
-0.05071492 0.27562755 -0.00000634
-0.46719038 -0.32787377 -0.05157397
-0.22323759 -0.35800025 -0.00000135
-0.26744193 0.15434964 -0.19854113
-0.17562445 -0.01583478 -0.00000106
-0.00577167 -0.31262773 -0.00000003
-0.22577137 0.25492883 0.20721243
-0.15349023 -0.74035323 -0.00000093
-0.44507149 -0.27447715 -0.18288705
-0.50412452 -0.57377380 -0.00000304
-0.22660711 0.25293413 -0.06255680
-0.07178653 -0.04071716 -0.00000043
-0.01505038 0.42505234 -0.00000517
-0.14620386 -0.78285074 -0.00000088
-0.23258585 0.23849912 -0.12830153
-0.40681314 -0.20469768 -0.00000246
-0.11192799 -0.79143637 -0.00000068
-0.29622287 -0.42958990 -0.00000179
-0.38604915 -0.19403329 -0.00000233
-0.28832775 -0.35369328 -0.00000174
-0.32182366 0.02306328 -0.22077574
-0.43503633 -0.37039155 -0.00000263
-0.47510722 -0.39052448 -0.00000287
-0.51033098 -0.47275013 -0.00000308
-0.25914690 0.17437582 -0.16650519
-0.04808519 0.05368960 -0.00000974
-0.15880489 0.13186423 -0.00000523
-0.26881957 -0.35776061 -0.00000162
-0.47993150 -0.58451265 -0.00000290
-0.20873427 -0.56970841 -0.00000126
-0.31469995 -0.24103555 -0.00000190
-0.35677031 -0.60781181 -0.00000215
-0.08856414 -0.01020409 -0.00000053
-0.02312180 -0.72778487 -0.00000014
-0.42104897 -0.36259338 -0.00000254
-0.21421534 -0.01799224 -0.00000129
-0.23168857 -0.25997332 -0.00000140
-0.19376706 -0.23704495 -0.00000117
-0.38302201 -0.17489171 -0.00000231
-0.18090115 0.09914304 -0.00000505
-0.06928968 -0.13263597 -0.00000042
-0.47955850 -0.35777628 0.31804234
-0.12479532 -0.45783025 -0.00000075
-0.46054095 -0.31182486 -0.31083792
