ply
format ascii 1.0
element vertex 159
property float x
property float y
property float z
end_header
-0.46275052 0.40556261 0.36688092
-0.12397039 0.68477315 0.04695419
-0.60414571 0.24625804 0.27070057
-0.72676510 0.07370271 0.00251583
-0.26894987 0.53258657 0.00824944
-0.37398201 0.44769743 0.11643088
-0.44782364 0.41731173 0.34981433
-0.42601582 0.37458888 0.00324733
-0.45232114 0.42097193 0.39362538
-0.29781482 0.52262074 0.10974950
-0.42178008 0.38690606 0.04664954
-0.19588475 0.63452655 0.16332296
-0.54683799 0.25530064 0.01148698
-0.33938986 0.51059490 0.26844549
-0.40008649 0.47905245 0.42501941
-0.47173831 0.40111247 0.39125046
-0.36292362 0.47055152 0.17978086
-0.24806866 0.55527472 0.01795354
-0.29372403 0.52163911 0.08250758
-0.42586571 0.44784454 0.39586514
-0.38106975 0.43414897 0.08173294
-0.42684898 0.45190799 0.42296866
-0.34626791 0.50730896 0.28773707
-0.19957624 0.61582804 0.08272736
-0.41533583 0.42338157 0.20793553
-0.53094709 0.31817433 0.26381290
-0.33689857 0.52870351 0.35231820
-0.35094014 0.45446903 0.02904934
-0.54333854 0.28647998 0.16014475
-0.15246686 0.68162316 0.18307845
-0.41748399 0.40140998 0.10147177
-0.13211086 0.67524308 0.03949135
-0.43096331 0.44438824 0.40467992
-0.17223153 0.63234812 0.02459213
0.41406581 0.29104069 0.00000055
-0.67615074 0.12710193 0.01747155
-0.25707984 0.59799224 0.29576507
-0.40496913 0.40777245 0.06842951
-0.42643777 0.43354282 0.32213005
-0.54223394 0.28418487 0.14188629
-0.46366766 0.37424505 0.20361449
-0.33282235 0.51087284 0.23466727
-0.39138839 0.42158481 0.06967333
-0.45075998 0.35748687 0.04429064
-0.64781880 0.18507464 0.17666025
-0.33244997 0.53790939 0.37786707
-0.12825511 0.69082326 0.10245791
-0.49345401 0.36093825 0.29211965
-0.46360490 0.41661671 0.43083531
-0.40839678 0.39543650 0.02058661
-0.49073902 0.35325405 0.23626998
-0.38183886 0.45897648 0.21920215
-0.28183496 0.53324628 0.08099346
-0.32420954 0.51269126 0.19817783
-0.64815897 0.18236773 0.16394936
-0.53324956 0.32450870 0.31019756
-0.58847773 0.21388572 0.01269495
-0.54922026 0.29410934 0.23270752
-0.57023573 0.23290446 0.01686624
-0.23287205 0.59081793 0.12722702
-0.47852644 0.39789012 0.41040066
-0.39680034 0.41965577 0.08837875
-0.38891956 0.48797518 0.41296664
-0.42418873 0.40383488 0.15050352
-0.45026138 0.43136972 0.43840471
-0.63653582 0.18880990 0.13612427
-0.58670145 0.24182062 0.15318251
-0.30088726 0.52162284 0.12089105
-0.48815271 0.34709641 0.18930972
-0.46726429 0.33886865 0.03293784
-0.28801340 0.57090122 0.31640208
-0.37636930 0.49302277 0.37267321
-0.19713312 0.62794596 0.13468634
-0.77490807 0.03173372 0.03567444
-0.48606807 0.39087752 0.41324195
-0.55259031 0.25157815 0.02238842
-0.48575902 0.31810370 0.02074566
-0.44741642 0.44708881 0.50754511
-0.48266587 0.40043971 0.44632414
-0.36264706 0.46110123 0.12754174
-0.22695965 0.58008617 0.03783770
-0.41025257 0.43703538 0.25396401
-0.67570412 0.13741605 0.07046608
-0.57258987 0.25924930 0.17099728
-0.46602964 0.36634305 0.17386129
-0.41264445 0.48136297 0.50487071
-0.53530252 0.30730820 0.22884651
-0.38327423 0.45942977 0.22934529
-0.50636339 0.29815432 0.02426358
-0.50229388 0.36862126 0.38085595
-0.43615851 0.41604638 0.28037101
-0.44926032 0.42713383 0.41027969
-0.35973105 0.46277648 0.12087805
-0.45487094 0.42345190 0.42063779
-0.37549493 0.46690321 0.22770239
-0.60615635 0.19991595 0.03261383
-0.58737487 0.21895020 0.03397116
-0.39688715 0.42259374 0.10462364
-0.62325633 0.18827237 0.06191824
-0.45345727 0.43590432 0.47992131
-0.45185292 0.36422324 0.08633883
-0.37155831 0.43972579 0.06060150
-0.40120304 0.47609031 0.41510767
-0.27359730 0.54502219 0.09999581
-0.77147430 0.03226474 0.02008485
-0.38721633 0.46291497 0.26923364
-0.35680524 0.47980952 0.19664235
-0.59852266 0.22256918 0.11327784
-0.46617895 0.41806629 0.45244434
-0.40988714 0.39443353 0.02320415
-0.32340500 0.51314086 0.19627161
-0.51445001 0.35493848 0.37265727
-0.56818980 0.26988134 0.20446657
-0.68202639 0.14186336 0.12830532
-0.25662395 0.57452846 0.16730449
-0.64431417 0.17935269 0.12710784
-0.57084823 0.23510939 0.03199751
-0.46632862 0.36595351 0.17337485
-0.67037034 0.16295245 0.17896631
-0.33233047 0.49393818 0.14107719
-0.40264639 0.47110859 0.39610487
-0.41014993 0.42866492 0.20845892
-0.09285854 0.71604389 0.04780716
-0.57301956 0.27376124 0.25124285
-0.57169801 0.24558426 0.09281781
-0.28421766 0.52135086 0.02990439
-0.26307634 0.57162136 0.18634455
-0.36964604 0.43048128 0.00068285
-0.43444777 0.45725074 0.49247128
-0.57231969 0.24396013 0.08743401
-0.71058601 0.09808114 0.04655106
-0.43508255 0.39822689 0.17889176
-0.12340658 0.67974681 0.01693169
-0.52379864 0.32768884 0.27652004
-0.51373804 0.33539605 0.26388073
-0.56761241 0.28335395 0.27372178
-0.64912325 0.17491405 0.12909739
-0.36054888 0.50518841 0.35304493
-0.46158531 0.43377024 0.51211208
-0.34123155 0.46627992 0.04033997
-0.42118117 0.44047207 0.33111292
-0.45120764 0.43271562 0.45071480
-0.69346052 0.13763885 0.16702551
-0.61266804 0.20834760 0.11286874
-0.07244471 0.73041350 0.01534574
-0.49963489 0.32505298 0.13258947
-0.14844786 0.65211791 0.00303481
-0.30060235 0.56007838 0.32588729
-0.68471926 0.12737732 0.06496888
-0.36704478 0.44842526 0.08308252
-0.30369166 0.55395991 0.30961925
-0.34245750 0.46824527 0.05747907
-0.68993270 0.13074481 0.11105384
-0.28633827 0.55949384 0.24614248
-0.30476996 0.50846136 0.07105849
-0.34149769 0.48643658 0.15002269
-0.76385689 0.04099906 0.02608326
-0.57468736 0.27317381 0.25704515
-0.46626705 0.39595747 0.33418205
