ply
format ascii 1.0
element vertex 362
property float x
property float y
property float z
end_header
0.63064641 0.21201830 0.05225348
0.46119723 0.61793351 0.34185904
0.54821163 0.50343156 0.30819392
0.35026118 0.55393881 0.12761687
0.34306821 0.58538496 0.15732028
0.06442936 0.76459229 0.03554463
0.32187223 0.67194718 0.23737627
0.45013192 0.51567048 0.20306258
0.37410250 0.67360193 0.30337062
0.46728155 0.63093930 0.36523923
0.62283480 0.31270814 0.16600312
0.54871523 0.57808018 0.40023506
0.16839510 0.68155199 0.06117232
0.51086056 0.43911672 0.18368112
0.62274170 0.29806605 0.14795665
0.75183314 0.08274604 0.04235096
0.34753257 0.62236434 0.20807761
0.59104836 0.35904378 0.18382186
0.43532896 0.55360591 0.23139364
0.42388639 0.63366467 0.31542990
0.37635592 0.66333294 0.29355374
0.72219402 0.15217219 0.09107884
0.51073921 0.59660506 0.37641278
0.54887158 0.35419187 0.12622488
0.55133206 0.46515200 0.26513353
0.51087075 0.47993144 0.23368032
0.54730463 0.52718294 0.33617213
0.40716386 0.61188143 0.26827082
0.44211230 0.63177311 0.33543503
0.41227433 0.54471588 0.19227020
0.11234706 0.71760768 0.03668733
0.26222703 0.70060813 0.19942924
0.46268377 0.45348218 0.14227177
0.61811537 0.39027104 0.25521588
0.73332530 0.18098985 0.14000510
0.19183205 0.61719352 0.01105498
0.50399208 0.56712019 0.33203843
0.12571266 0.69114017 0.02064121
0.35272977 0.49634686 0.06010628
0.60986537 0.31641659 0.15466101
0.62326646 0.20981175 0.04051268
0.51538062 0.35727689 0.08898621
0.66733080 0.14389211 0.01374613
0.65262413 0.28536525 0.16899936
0.22053087 0.59565794 0.01982794
0.51385868 0.36797902 0.10022937
0.38369802 0.63272464 0.26505896
0.40261653 0.41952279 0.02711564
0.73841649 0.11537465 0.06588024
0.43817908 0.52257210 0.19687624
0.59748977 0.34478915 0.17425279
0.14595939 0.68851876 0.04222721
0.76355904 0.06049117 0.02945595
0.22428989 0.61985475 0.05406594
0.48780540 0.54578543 0.28608492
0.51493371 0.34987837 0.07937773
0.45145395 0.38552400 0.04528879
0.24716739 0.61035085 0.07044483
0.60815704 0.45087552 0.31724367
0.40188712 0.46672851 0.08403605
0.47987941 0.36932969 0.06026851
0.40890098 0.47988987 0.10874499
0.47876605 0.52222645 0.24616081
0.51460427 0.56877583 0.34706321
0.22003753 0.66402155 0.10295002
0.56097829 0.54890233 0.37951899
0.44478509 0.46591678 0.13557982
0.60231352 0.37012812 0.21119364
0.58251423 0.53591669 0.38999066
0.40577379 0.55891377 0.20169736
0.64822429 0.38877395 0.29025751
0.49690709 0.61243623 0.37886113
0.56928265 0.27228239 0.05090673
0.52682823 0.28356731 0.01273286
0.57630849 0.34993735 0.15461683
0.55098081 0.30884099 0.07326608
0.48951143 0.53927726 0.28020355
0.18726355 0.62482929 0.01481155
0.72920328 0.16857170 0.11974806
0.67522645 0.19141477 0.08161796
0.58797354 0.25370237 0.05104247
0.10390051 0.72087765 0.03034747
0.42144457 0.44301635 0.07894767
0.57797116 0.58559382 0.44526771
0.33726740 0.67212468 0.25644854
0.43262926 0.41336673 0.05633333
0.54761755 0.38109353 0.15763605
0.66340250 0.37804446 0.29570585
0.67235309 0.27759185 0.18364151
0.18453838 0.68830311 0.08921161
0.17594104 0.65772861 0.04123706
0.50237328 0.31387386 0.01989940
0.56293029 0.57116216 0.40917188
0.64242709 0.34785193 0.23303944
0.59696436 0.27710953 0.09072086
0.54083532 0.36982414 0.13552791
0.62754411 0.38106319 0.25548637
0.58452535 0.59592062 0.46594232
0.48327500 0.40235922 0.10487901
0.38329268 0.63694179 0.26972735
0.42249453 0.41830420 0.04996817
0.37544116 0.61891317 0.23803122
0.54436219 0.61461455 0.43964842
0.29048574 0.64958447 0.17154817
0.37637788 0.53727984 0.13919988
0.31452167 0.56433845 0.09658263
0.49681294 0.59175968 0.35342264
0.24475509 0.59297872 0.04621449
0.32586038 0.62040466 0.17913505
0.73866111 0.13763250 0.09343943
0.63711554 0.21258718 0.06087304
0.74332833 0.12565820 0.08449027
0.50765544 0.41304791 0.14782883
0.59182966 0.59929329 0.47901869
0.41745257 0.40336895 0.02550173
0.58223367 0.31589493 0.12018109
0.32471603 0.60432351 0.15803847
0.18311824 0.67243814 0.06804214
0.23969254 0.63464439 0.09104302
0.39250037 0.50936610 0.12475896
0.54004878 0.39894140 0.17022505
0.37140682 0.48792377 0.07266446
0.75269443 0.04758731 0.00034623
0.57439619 0.50318050 0.33995536
0.14920212 0.73428959 0.10225543
0.58165848 0.23024932 0.01458488
0.69708067 0.26448646 0.19787543
0.59749424 0.43064150 0.27940351
0.53405297 0.46395978 0.24251124
0.43642181 0.62026727 0.31437424
0.43781990 0.48548314 0.15101273
0.55685520 0.25460440 0.01403598
0.29367185 0.70024633 0.23749740
0.55012524 0.28750470 0.04608732
0.38919699 0.61254162 0.24707492
0.52596647 0.60822695 0.40929571
0.58026195 0.51208419 0.35804388
0.51380336 0.44366923 0.19286074
0.75656599 0.08536916 0.05135993
0.56472063 0.36181638 0.15497337
0.09576856 0.70524651 0.00124437
0.54675847 0.60266548 0.42794883
0.47402686 0.41768479 0.11232218
0.57297921 0.46806532 0.29521334
0.76494151 0.07199444 0.04523735
0.43969065 0.37269071 0.01516488
0.55129677 0.27257475 0.02923710
0.61582077 0.39064202 0.25285998
0.67647552 0.36420596 0.29476830
0.34358072 0.59196711 0.16600931
0.55843586 0.38988680 0.18165468
0.69435704 0.25961310 0.18857126
0.69774526 0.29914626 0.24113792
0.58535993 0.48574620 0.33203065
0.69880855 0.17916743 0.09549983
0.30342755 0.52739233 0.03774691
0.37663984 0.50719726 0.10267807
0.53084189 0.52512360 0.31348765
0.63370353 0.18199094 0.01922252
0.11525721 0.69398469 0.01131993
0.62231910 0.42560083 0.30363369
0.62146425 0.23512830 0.06931114
0.73720300 0.11773279 0.06728212
0.38357544 0.65018475 0.28629276
0.66969144 0.24534449 0.14088783
0.33484849 0.59996748 0.16511302
0.41191545 0.56398404 0.21542893
0.54762620 0.59798282 0.42327660
0.40525368 0.48345158 0.10864016
0.41470638 0.44949055 0.07862437
0.50519645 0.41282377 0.14454275
0.46145359 0.64439803 0.37458485
0.61999232 0.41239050 0.28460491
0.37894863 0.42216843 0.00136930
0.57872790 0.55773443 0.41207427
0.61044502 0.52981842 0.41672948
0.63521886 0.27038497 0.12933616
0.45255923 0.63471913 0.35183775
0.40251857 0.57172883 0.21340555
0.44759306 0.59432304 0.29628122
0.78456056 0.01569736 0.00031711
0.44584483 0.60001928 0.30111653
0.07703087 0.74674731 0.02912278
0.66135132 0.39562020 0.31471932
0.72234887 0.16730496 0.10980190
0.50098658 0.53005928 0.28296801
0.49007174 0.62317461 0.38364133
0.44165158 0.37673944 0.02252501
0.17979100 0.65516293 0.04280995
0.62098378 0.18482742 0.00711828
0.74122655 0.14020042 0.09972634
0.66570318 0.16538803 0.03807918
0.45720956 0.47800800 0.16560467
0.29884842 0.59454370 0.11438026
0.66018385 0.22602940 0.10558815
0.65089083 0.30751380 0.19400226
0.51590174 0.31428349 0.03696959
0.09704629 0.71394497 0.01346244
0.59502316 0.35592234 0.18486694
0.65904403 0.30427217 0.20001757
0.29845914 0.56076336 0.07253210
0.44741076 0.46902540 0.14260274
0.42881095 0.38778278 0.02032382
0.10148825 0.70725870 0.01071376
0.44084373 0.53011400 0.20937648
0.44449058 0.47608843 0.14767654
0.40047902 0.57360822 0.21320944
0.67933929 0.35187611 0.28317493
0.20347127 0.60987616 0.01634807
0.75124419 0.08473713 0.04406820
0.51221865 0.53405309 0.30161551
0.75973892 0.07684479 0.04480599
0.56353050 0.38110572 0.17713986
0.65933967 0.16314995 0.02754464
0.29797006 0.50677323 0.00581043
0.37250027 0.66014248 0.28492421
0.68377066 0.32279477 0.25298569
0.38032293 0.47154194 0.06352108
0.22415225 0.71791518 0.17399453
0.31002498 0.50758773 0.02157183
0.24388193 0.67580366 0.14658269
0.63847172 0.32070097 0.19494292
0.52517587 0.58664876 0.38189995
0.30183080 0.57182652 0.09021064
0.44583580 0.40412787 0.06119264
0.57418716 0.57215953 0.42418000
0.52213258 0.42182395 0.17630744
0.54464287 0.49955770 0.29907876
0.08175050 0.71951485 0.00155091
0.39629877 0.45479581 0.06257767
0.62816906 0.19981349 0.03427194
0.12231708 0.69942343 0.02662725
0.41731822 0.53970718 0.19231325
0.30859366 0.58493525 0.11454778
0.73110515 0.16479187 0.11744806
0.62191647 0.49087122 0.38307914
0.31475458 0.52098483 0.04377189
0.46771133 0.59326023 0.31961894
0.30816174 0.50739270 0.01905104
0.76991743 0.08540705 0.06775812
0.31526810 0.53364861 0.05991039
0.52312386 0.54845434 0.33260900
0.42540351 0.45840859 0.10264742
0.60545158 0.22414386 0.03624728
0.41080880 0.47099721 0.10019053
0.66887832 0.23498562 0.12720530
0.60244495 0.53080153 0.40813568
0.45954025 0.53139591 0.23384459
0.61537045 0.27098811 0.10576611
0.40292719 0.44934908 0.06402492
0.48488379 0.60854053 0.35936475
0.70264381 0.28282002 0.22714218
0.65559208 0.40595502 0.32032314
0.62548280 0.27000061 0.11694149
0.63009417 0.36284998 0.23630343
0.42409870 0.46947068 0.11459732
0.68551183 0.21537074 0.12355393
0.75824392 0.11562008 0.09046378
0.51112920 0.51394242 0.27565113
0.16228071 0.73615938 0.12056303
0.54473168 0.28409255 0.03530279
0.42494544 0.63923979 0.32355496
0.61675447 0.39292446 0.25679886
0.59344953 0.41971689 0.26107013
0.75927389 0.08010247 0.04822615
0.56355894 0.53179950 0.36173320
0.04927736 0.75816727 0.00911878
0.46155328 0.43235832 0.11501645
0.47878072 0.50894809 0.22991639
0.44803625 0.54102308 0.23154600
0.35140324 0.55297703 0.12783758
0.54009295 0.44703442 0.22917958
0.40770024 0.63777339 0.30063841
0.25845608 0.63868988 0.11897774
0.42103082 0.47529584 0.11797423
0.63587826 0.39948976 0.28826091
0.66879678 0.31804219 0.22882628
0.62983024 0.42671853 0.31420168
0.57522851 0.46818349 0.29811290
0.48179632 0.55934137 0.29532784
0.27787116 0.53381968 0.01431919
0.31812930 0.57602239 0.11531050
0.69797653 0.14831731 0.05669809
0.44551492 0.38515180 0.03755932
0.06142344 0.76157469 0.02816743
0.65484411 0.24028032 0.11650180
0.20994206 0.64222157 0.06388696
0.61052221 0.51186275 0.39483324
0.66056776 0.41071582 0.33224770
0.31714186 0.67536104 0.23576394
0.70401657 0.18090421 0.10400526
0.60147703 0.26368469 0.07980596
0.52068770 0.37655002 0.11908999
0.45885345 0.60286063 0.32052836
0.66274714 0.21765128 0.09846662
0.52398008 0.56626481 0.35547063
0.30781701 0.65418959 0.19841430
0.45527765 0.59667325 0.30857119
0.54445565 0.50545001 0.30606589
0.69073004 0.27460435 0.20248930
0.60968292 0.35459968 0.20120116
0.44034293 0.64782202 0.35292360
0.41122758 0.40464455 0.01944010
0.38629636 0.62602371 0.26003438
0.44402945 0.43049681 0.09127492
0.49335840 0.35772204 0.06256039
0.51692212 0.30598593 0.02805713
0.37456587 0.45077044 0.03103108
0.60946375 0.48308405 0.35829079
0.44561395 0.54829210 0.23748194
0.64478374 0.27979970 0.15258086
0.49915165 0.53092504 0.28178096
0.56319231 0.28852993 0.06334633
0.33172977 0.52599704 0.07070028
0.46654227 0.47589022 0.17444091
0.68880475 0.25930193 0.18139023
0.69420737 0.20100673 0.11661165
0.46727967 0.33693314 0.00516071
0.60668850 0.26870474 0.09233668
0.72303551 0.21735945 0.17194553
0.51674753 0.33696410 0.06578280
0.69446957 0.23442709 0.15786333
0.31819734 0.62151200 0.17110614
0.32900450 0.61124188 0.17176384
0.64281040 0.20287561 0.05595371
0.17181721 0.68295747 0.06708481
0.27455544 0.56399941 0.04722001
0.13796154 0.67180485 0.01196225
0.50807667 0.44197288 0.18376963
0.50102621 0.42828196 0.15836728
0.34414172 0.46376601 0.00968595
0.61895216 0.46882957 0.35245359
0.47589293 0.48629215 0.19863228
0.38941121 0.54577774 0.16556960
0.68531477 0.13252920 0.02185505
0.46499228 0.34096745 0.00730020
0.28802168 0.68958443 0.21751948
0.52337664 0.34720191 0.08644004
0.58153450 0.59371966 0.45958376
0.13500972 0.72137374 0.06905520
0.11764198 0.68302029 0.00081234
0.15731117 0.67409515 0.03846511
0.45166907 0.41613385 0.08304067
0.30767748 0.59733069 0.12860665
0.61935419 0.53473669 0.43366432
0.23076865 0.63659883 0.08250743
0.42963666 0.60298711 0.28490072
0.50255823 0.30571914 0.01013862
0.41795149 0.45920190 0.09449238
0.54094708 0.57231295 0.38365787
0.18727589 0.71829754 0.12929937
0.49971709 0.53789735 0.29101270
0.37860131 0.51036251 0.10895683
0.39973959 0.45304635 0.06464912
0.43225631 0.48097774 0.13868102
0.44066015 0.39213616 0.04016744
0.60342973 0.36950350 0.21179570
0.48497584 0.37665674 0.07548375
0.50174350 0.51833022 0.26953003
0.20128207 0.66507053 0.08126444
0.15836979 0.69047457 0.05982178
0.43828097 0.38007823 0.02248603
