ply
format ascii 1.0
element vertex 530
property float x
property float y
property float z
end_header
-0.16821103 -0.17348187 0.00881859
-0.08186035 0.66849345 0.00429171
-0.22029701 0.39437130 0.01154947
-0.00536835 0.73794949 0.00028144
-0.34018841 -0.37279513 0.01783464
-0.48151344 -0.03479275 0.02524431
-0.64839095 -0.64880019 0.03399261
-0.22552937 -0.20586263 0.01182355
-0.09375539 0.23493610 0.00491520
-0.04127687 -0.28290591 0.00216397
-0.24938826 0.09418907 0.01307437
-0.09928538 -0.70226395 0.00520511
-0.58450615 -0.01884942 0.03064426
-0.40718624 -0.08174007 0.02134724
-0.46030480 -0.60070300 0.02413183
-0.35450250 0.09476721 0.01858534
-0.06335473 -0.03802702 0.00332142
-0.38735837 -0.74059999 0.02030756
-0.75480837 -0.42538795 0.03957237
-0.59567338 -0.42302263 0.03122903
-0.31373188 0.18808091 0.01644790
-0.70453620 -0.37564424 0.03693681
-0.09046316 -0.30557433 0.00474260
-0.23777051 -0.49540716 0.01246530
-0.69088477 -0.18841442 0.03622140
-0.58664572 0.13623351 0.03075672
-0.66896147 -0.57445902 0.03507126
-0.67274493 -0.74896681 0.03526930
-0.64644504 0.13747291 0.03389201
-0.71939951 -0.16842666 0.03771647
-0.37357515 -0.01694019 0.01958512
-0.33734974 -0.64789343 0.01768582
-0.41926417 0.19541362 0.02198099
-0.63928211 -0.36366972 0.03351555
-0.11371811 0.20770243 0.00596176
-0.07130859 0.29974967 0.00373841
-0.11927798 -0.12557375 0.00625324
-0.23283133 -0.59792870 0.01220636
-0.11995722 0.16670118 0.00628885
-0.02808979 -0.46613646 0.00147263
-0.17579930 0.54903972 0.00921673
-0.76786995 -0.12581025 0.04025786
-0.11553211 -0.46163028 0.00605686
-0.28097305 -0.01435081 0.01473023
-0.73561662 -0.56026506 0.03856588
-0.26807123 0.46702975 0.01405441
-0.64506501 -0.15229297 0.03381913
-0.64391738 -0.12008218 0.03375902
-0.17364915 0.51841611 0.00910394
-0.13770650 0.30970100 0.00721937
-0.06155636 -0.73883897 0.00322714
-0.27390522 0.51237231 0.01436037
-0.34211308 -0.56178874 0.01793554
-0.33033282 -0.01274873 0.01731795
-0.35219690 -0.09177411 0.01846419
-0.34461099 0.22750796 0.01806697
-0.68416786 -0.23015192 0.03586916
-0.55604547 -0.58863133 0.02915111
-0.32856879 -0.36905313 0.01722547
-0.01523408 -0.79452187 0.00079866
-0.03130921 0.23890433 0.00164141
-0.71705472 -0.73566467 0.03759231
-0.05924377 -0.03517021 0.00310590
-0.36323357 -0.42516506 0.01904280
-0.08907043 0.69575900 0.00466979
-0.15367059 -0.49996689 0.00805630
-0.17875774 -0.02792475 0.00937151
-0.00229864 -0.64733934 0.00012051
-0.54192263 -0.26811770 0.02841115
-0.26181749 0.29110920 0.01372621
-0.23322421 -0.68456995 0.01222696
-0.55593961 0.12650786 0.02914678
-0.51047170 -0.39691901 0.02676194
-0.12078871 -0.62500018 0.00633244
-0.29482624 -0.46675861 0.01545649
-0.01989578 -0.61340594 0.00104305
-0.00137984 0.05234678 0.00007234
-0.20510246 0.31847227 0.01075268
-0.20354535 -0.50168145 0.01067102
-0.02442101 -0.35341641 0.00128029
-0.36354953 0.33259940 0.01906011
-0.74774140 -0.02168990 0.03920271
-0.53241533 -0.46565863 0.02791232
-0.20111445 -0.06089250 0.01054358
-0.09689342 -0.14074562 0.00507971
-0.04403334 -0.02644402 0.00230848
-0.02919976 -0.49263677 0.00153082
-0.22318754 -0.70293391 0.01170078
-0.05577372 -0.50552374 0.00292398
-0.35118014 -0.30254996 0.01841089
-0.26282606 -0.62412238 0.01377886
-0.27474731 -0.47868773 0.01440384
-0.44778875 -0.57470399 0.02347567
-0.68430763 -0.07899726 0.03587676
-0.41949061 -0.02477369 0.02199246
-0.14406271 0.23513272 0.00755260
-0.19587865 -0.19964641 0.01026909
-0.10559958 -0.15701804 0.00553614
-0.16788101 -0.43245468 0.00880129
-0.19909194 -0.55674541 0.01043755
-0.70572072 -0.53229409 0.03699863
-0.34344468 -0.54862475 0.01800535
-0.47480816 -0.24944319 0.02489236
-0.44919688 -0.76312584 0.02354949
-0.25522700 0.26411125 0.01338062
-0.13216749 0.53277749 0.00692908
-0.50427401 -0.21562982 0.02643732
-0.62005299 -0.42138860 0.03250726
-0.21464109 0.46165431 0.01125305
-0.53449720 -0.47967693 0.02802145
-0.46607661 -0.18644521 0.02443468
-0.28772649 0.14576393 0.01508436
-0.42801148 -0.77447486 0.02243883
-0.78574938 -0.65245640 0.04119389
-0.12032847 0.33796412 0.00630831
-0.02951053 0.15111107 0.00154711
-0.42294407 -0.27856398 0.02217317
-0.13220160 -0.04470138 0.00693077
-0.50024796 0.05783774 0.02622673
-0.61536098 0.16695970 0.03226232
-0.00902937 -0.24959663 0.00047337
-0.79604191 -0.65965778 0.04173347
-0.58863235 -0.21769488 0.03086024
-0.16076484 -0.74487150 0.00842822
-0.07589513 0.65327621 0.00397893
-0.53287488 -0.33030668 0.02793666
-0.61614901 -0.46566302 0.03230249
-0.13998269 -0.04314735 0.00733870
-0.51533961 -0.25176305 0.02701743
-0.05762470 -0.09072486 0.00302102
-0.20101428 0.46454057 0.01053860
-0.16434953 -0.64263380 0.00861615
-0.59589732 0.05093456 0.03124163
-0.52388954 0.26971996 0.02746665
-0.72206491 -0.45226747 0.03785570
-0.53173071 -0.50827253 0.02787639
-0.28238127 0.27306992 0.01480434
-0.63239187 -0.18104202 0.03315462
-0.18861088 -0.75037658 0.00988807
-0.49573740 0.27023074 0.02599063
-0.67131579 -0.08771460 0.03519558
-0.35144398 -0.37042275 0.01842472
-0.73175240 -0.41060448 0.03836368
-0.65798289 -0.41058144 0.03449595
-0.04567887 0.64366353 0.00239475
-0.60928136 0.13664231 0.03194351
-0.19491366 -0.43612525 0.01021850
-0.64331037 0.02657102 0.03372746
-0.14095584 0.46729252 0.00738973
-0.08575346 0.29645085 0.00449569
-0.28236011 0.26740310 0.01480322
-0.52337927 -0.67724085 0.02743856
-0.02921060 -0.01712167 0.00153139
-0.09066073 0.51517659 0.00475296
-0.44127595 0.08063890 0.02313486
-0.47173196 -0.79094625 0.02473091
-0.09776949 -0.62358606 0.00512564
-0.47173506 0.26532790 0.02473217
-0.13667667 -0.11391536 0.00716538
-0.41186124 -0.25029910 0.02159214
-0.12431213 -0.63598537 0.00651716
-0.11296294 -0.25951523 0.00592217
-0.31617865 -0.11043577 0.01657591
-0.47174135 0.13338593 0.02473226
-0.48462790 -0.40629482 0.02540699
-0.03560458 0.06051735 0.00186660
-0.00113400 0.10243222 0.00005945
-0.74211353 -0.24606173 0.03890723
-0.37666687 -0.63967717 0.01974705
-0.65655732 -0.13225313 0.03442171
-0.16625930 -0.43385515 0.00871627
-0.49394861 -0.29105565 0.02589582
-0.50247300 -0.04789874 0.02634320
-0.40893957 -0.62694901 0.02143897
-0.44999734 0.33657283 0.02359259
-0.50286847 0.29062030 0.02636455
-0.24779294 0.24722251 0.01299082
-0.32685810 -0.16143206 0.01713579
-0.52408558 -0.26203728 0.02747596
-0.23154607 -0.76727271 0.01213898
-0.78667855 -0.11734973 0.04124398
-0.35694146 -0.73916328 0.01871293
-0.13493592 -0.69861603 0.00707412
-0.00402126 -0.03905961 0.00021082
-0.11591872 -0.23343495 0.00607713
-0.60934669 -0.40603095 0.03194595
-0.30891699 -0.32809004 0.01619521
-0.49358264 -0.58735520 0.02587645
-0.39800271 0.18576154 0.02086623
-0.34483162 -0.63454926 0.01807806
-0.17383891 -0.77463925 0.00911364
-0.68703288 -0.56781197 0.03601876
-0.65555400 -0.74848449 0.03436799
-0.34080338 -0.76491177 0.01786688
-0.47695136 0.16845845 0.02500549
-0.01818003 -0.16893499 0.00095310
-0.68499488 -0.22764722 0.03591252
-0.49624109 -0.67622858 0.02601582
-0.60031110 0.14638357 0.03147322
-0.10963595 -0.08378852 0.00574775
-0.16256820 0.19941822 0.00852276
-0.41190431 -0.45572200 0.02159440
-0.33013135 0.25610086 0.01730785
-0.45753959 -0.07137469 0.02398729
-0.44899252 -0.08069906 0.02353915
-0.01484476 -0.09969561 0.00077825
-0.62830430 -0.19384293 0.03294029
-0.01022877 0.00199310 0.00053625
-0.15114877 -0.40691996 0.00792409
-0.22890542 0.07834302 0.01200054
-0.63518423 -0.03634969 0.03330129
-0.16517678 -0.21946014 0.00865952
-0.13684078 0.53524131 0.00717410
-0.32352471 -0.56518757 0.01696103
-0.28214601 -0.71583402 0.01479172
-0.08664825 0.25760236 0.00454260
-0.44119063 -0.36942551 0.02312976
-0.43870097 0.00004875 0.02299971
-0.67723125 -0.76792723 0.03550445
-0.35920706 0.30276337 0.01883238
-0.52813524 0.24730390 0.02768921
-0.17489581 0.09087166 0.00916905
-0.75239444 -0.46255141 0.03944572
-0.47178555 -0.49142131 0.02473372
-0.42059430 0.37136105 0.02205105
-0.55543333 -0.50428861 0.02911909
-0.62079036 -0.00847482 0.03254667
-0.65886509 -0.10326884 0.03454276
-0.24168070 0.35509863 0.01267055
-0.18230917 -0.06152310 0.00955770
-0.28802732 0.17963456 0.01510019
-0.72193718 -0.10315715 0.03784964
-0.08295043 0.45531052 0.00434874
-0.45609993 -0.19601531 0.02391158
-0.43404254 -0.19586149 0.02275511
-0.18948910 0.37507206 0.00993417
-0.35147277 -0.44012475 0.01842623
-0.65989518 -0.64183885 0.03459579
-0.42299667 -0.01667346 0.02217630
-0.00835752 0.21218516 0.00043815
-0.62853301 -0.39753085 0.03295191
-0.13055827 0.37849027 0.00684462
-0.17604412 -0.37433863 0.00922925
-0.55658484 0.06721439 0.02918050
-0.44617996 0.18042791 0.02339216
-0.30069870 0.47557434 0.01576509
-0.44958580 -0.79558003 0.02356988
-0.06502181 0.63157946 0.00340882
-0.45021427 -0.34162948 0.02360283
-0.68995082 -0.27599075 0.03617228
-0.13033111 -0.05711905 0.00683271
-0.75014311 -0.31917238 0.03932806
-0.02120161 0.34007072 0.00111151
-0.25191411 -0.17741157 0.01320679
-0.60904413 -0.20705017 0.03193045
-0.45856044 0.17945156 0.02404127
-0.73724884 -0.33595881 0.03865201
-0.14161798 0.49545786 0.00742450
-0.18310215 -0.40845639 0.00959927
-0.44623137 -0.66962492 0.02339402
-0.59154075 -0.07372238 0.03101299
-0.00836349 -0.17163657 0.00043846
-0.60852003 -0.76464498 0.03190213
-0.10787640 0.54204977 0.00565551
-0.13273667 -0.62504923 0.00695882
-0.67194211 0.01072833 0.03522860
-0.77663577 -0.54917353 0.04071637
-0.32241547 0.39559013 0.01690356
-0.36964285 -0.18112914 0.01937881
-0.09859272 0.04173289 0.00516880
-0.64247376 -0.50464082 0.03368263
-0.15528736 -0.50821358 0.00814106
-0.07984605 -0.40442801 0.00418599
-0.30407238 0.06570363 0.01594123
-0.48743042 0.19232850 0.02555495
-0.69591212 -0.03797214 0.03648526
-0.42157719 -0.15240611 0.02210163
-0.12993228 0.26432964 0.00681180
-0.41562900 -0.66241306 0.02178967
-0.46415329 -0.06424072 0.02433406
-0.25011691 -0.38639474 0.01311257
-0.67996305 -0.76634461 0.03564767
-0.25796098 -0.70874041 0.01352380
-0.41680002 -0.33338165 0.02185106
-0.29816043 -0.10030365 0.01563129
-0.27351755 -0.03644432 0.01433937
-0.25988767 0.13362123 0.01362481
-0.21463017 0.10394505 0.01125215
-0.59058189 -0.03236151 0.03096279
-0.59029031 -0.05522307 0.03094746
-0.03484589 0.64085406 0.00182682
-0.03065550 -0.63395768 0.00160714
-0.06799389 0.56566274 0.00356463
-0.20416106 -0.53179681 0.01070330
-0.15803446 -0.04370167 0.00828508
-0.45161203 -0.02010085 0.02367660
-0.31948194 0.43296516 0.01674982
-0.20930509 0.41387501 0.01097320
-0.13605861 0.20398152 0.00713298
-0.44499773 -0.53152537 0.02332935
-0.37849715 0.27344295 0.01984371
-0.49760705 -0.00644993 0.02608815
-0.09395721 -0.54768968 0.00492578
-0.17786141 -0.32971519 0.00932452
-0.18914895 -0.01888594 0.00991628
-0.71602726 -0.08741030 0.03753981
-0.09787920 -0.00985745 0.00513139
-0.39799103 0.14189829 0.02086554
-0.43555814 0.23127563 0.02283535
-0.08442924 -0.17727637 0.00442627
-0.27633646 -0.06878135 0.01448715
-0.22808687 -0.66066891 0.01195763
-0.39977914 -0.79983640 0.02095873
-0.74857688 0.01018783 0.03924657
-0.33100373 0.22991391 0.01735354
-0.47742289 -0.45201221 0.02502926
-0.29785523 -0.47934297 0.01561529
-0.18343765 0.50537562 0.00961713
-0.55002612 -0.11224974 0.02883630
-0.19530699 0.16720778 0.01023912
-0.03658068 0.65716469 0.00191777
-0.26438853 0.05544464 0.01386077
-0.00073395 -0.42532200 0.00003848
-0.07137617 -0.01310130 0.00374195
-0.35084805 -0.74599963 0.01839348
-0.71520454 -0.64988846 0.03749553
-0.30737439 -0.31604460 0.01611434
-0.35794798 -0.67608327 0.01876570
-0.60777116 0.05857883 0.03186419
-0.09202611 -0.68883300 0.00482454
-0.26955411 -0.36807865 0.01413158
-0.07163441 -0.33824828 0.00375549
-0.44054195 -0.05617588 0.02309613
-0.66454452 -0.20537315 0.03484035
-0.33635920 -0.77642405 0.01763389
-0.34318811 -0.61698699 0.01799190
-0.50504500 -0.59974957 0.02647737
-0.12610310 -0.57741463 0.00661105
-0.14921895 0.62211841 0.00782325
-0.26569343 0.04904828 0.01392918
-0.63380927 0.06729075 0.03322939
-0.37714979 -0.60888261 0.01977237
-0.23837043 0.28216669 0.01249686
-0.14363471 -0.75011194 0.00753016
-0.24929689 -0.73881930 0.01306958
-0.25429362 -0.54456848 0.01333154
-0.04903542 -0.18595839 0.00257072
-0.35896108 -0.68995500 0.01881881
-0.35102436 0.30998224 0.01840337
-0.78254443 -0.76928079 0.04102557
-0.13323177 -0.49437445 0.00698478
-0.24252744 -0.17113075 0.01271469
-0.11291814 -0.78702235 0.00591982
-0.47539797 -0.10447297 0.02492355
-0.48350862 -0.16145436 0.02534869
-0.21992908 0.41010091 0.01153021
-0.07101505 -0.44978201 0.00372302
-0.19089261 0.35865092 0.01000773
-0.59326261 0.09510822 0.03110357
-0.16495803 0.06429169 0.00864805
-0.10850843 -0.01486178 0.00568864
-0.35352919 -0.51650870 0.01853404
-0.44124347 -0.06803296 0.02313289
-0.31729147 -0.10309712 0.01663425
-0.17904747 -0.60611212 0.00938670
-0.39694986 -0.19649737 0.02081040
-0.69878381 -0.28144470 0.03663538
-0.62492788 -0.00151925 0.03276361
-0.33339325 0.33129489 0.01747901
-0.59345865 -0.26937118 0.03111319
-0.26930362 0.16045953 0.01411847
-0.46197492 -0.25086248 0.02421951
-0.49939555 -0.04159360 0.02618186
-0.25276747 -0.78418750 0.01325153
-0.49017677 -0.23683390 0.02569816
-0.35578752 0.14282858 0.01865280
-0.41669944 0.05916852 0.02184627
-0.42677972 0.15794624 0.02237496
-0.66340268 -0.61928672 0.03477973
-0.19028063 0.06705969 0.00997561
-0.02875341 0.19669209 0.00150742
-0.20514667 0.28751493 0.01075497
-0.33302262 0.31636652 0.01745955
-0.78779078 -0.63421953 0.04130096
-0.60914040 0.11340022 0.03193608
-0.33998761 -0.39095616 0.01782411
-0.12484850 0.25245941 0.00654528
-0.17736666 0.43474507 0.00929870
-0.12310405 0.67191207 0.00645413
-0.44505247 -0.18611252 0.02333238
-0.50510788 -0.63821477 0.02648067
-0.29867145 -0.12907785 0.01565808
-0.29673114 -0.61804420 0.01555636
-0.06211147 -0.59175688 0.00325624
-0.21151333 0.44453114 0.01108903
-0.08206229 -0.33191663 0.00430218
-0.24960361 0.42801380 0.01308608
-0.03913109 0.70215267 0.00205148
-0.72255182 0.04961758 0.03788214
-0.26123944 0.10367298 0.01369568
-0.02474875 0.42173254 0.00129747
-0.34088674 -0.79664928 0.01787125
-0.31540826 0.01718047 0.01653552
-0.25917828 0.05067903 0.01358762
-0.27666205 0.02437106 0.01450422
-0.41371721 0.09132688 0.02168997
-0.39095095 0.38296521 0.02049686
-0.16337065 0.62323034 0.00856523
-0.48448163 0.01809253 0.02540003
-0.53286600 -0.65324205 0.02793591
-0.06369271 0.60411960 0.00333914
-0.61572284 -0.01823657 0.03228096
-0.21192195 0.31995490 0.01111023
-0.27554041 0.36614880 0.01444584
-0.65504760 -0.04100701 0.03434272
-0.12806624 -0.35334986 0.00671397
-0.71244931 -0.04256939 0.03735230
-0.05691264 0.46258917 0.00298369
-0.06628989 -0.47344574 0.00347530
-0.40916693 -0.43916902 0.02145089
-0.00277015 0.30097502 0.00014523
-0.58587068 0.10495071 0.03071603
-0.39807528 -0.11894575 0.02086948
-0.05268114 0.51418936 0.00276185
-0.38575491 0.23310424 0.02022416
-0.19463637 -0.47660223 0.01020396
-0.24331242 -0.24294662 0.01275584
-0.24655280 -0.01946751 0.01292572
-0.12788743 0.52421534 0.00670466
-0.08737684 0.50244749 0.00458080
-0.10660139 -0.20258808 0.00558866
-0.36472061 0.11326515 0.01912111
-0.45598134 -0.19903535 0.02390536
-0.04101300 -0.03010237 0.00215014
-0.60718900 -0.74320138 0.03183235
-0.02570488 -0.53834981 0.00134760
-0.03362847 0.56339204 0.00176300
-0.48254922 -0.04453734 0.02529860
-0.75533104 -0.76203102 0.03959891
-0.52374762 -0.69582891 0.02745787
-0.27253994 0.42403141 0.01428863
-0.12606607 0.07777043 0.00660911
-0.39300427 -0.79000199 0.02060355
-0.64683241 0.12939671 0.03391231
-0.17382810 0.34841758 0.00911307
-0.04985141 -0.54008055 0.00261350
-0.24959537 0.12420293 0.01308523
-0.72940320 -0.64613438 0.03823992
-0.40545952 -0.15581606 0.02125657
-0.27581421 -0.60315621 0.01445977
-0.71809274 -0.67255908 0.03764689
-0.08005945 0.02916447 0.00419718
-0.17472225 0.19642964 0.00915995
-0.45198175 -0.39740449 0.02369549
-0.65841055 -0.26760504 0.03451863
-0.71304983 -0.78648466 0.03738222
-0.36492983 -0.07063436 0.01913175
-0.28141573 0.41782123 0.01475398
-0.50301236 -0.48119095 0.02637081
-0.16769905 0.37272030 0.00879175
-0.66094488 -0.59016043 0.03465092
-0.05896684 0.60064989 0.00309138
-0.30901644 0.36470640 0.01620099
-0.06269550 0.04935761 0.00328686
-0.42866480 -0.69868028 0.02247308
-0.08569584 -0.72352290 0.00449267
-0.05439593 -0.39302549 0.00285175
-0.36988053 -0.36805239 0.01939127
-0.54127419 0.13250412 0.02837788
-0.52295679 -0.56640810 0.02741641
-0.41690546 -0.25146225 0.02185659
-0.08424445 -0.69643778 0.00441658
-0.20551372 0.32211411 0.01077425
-0.61621982 -0.03269397 0.03230699
-0.12180324 -0.16063499 0.00638563
-0.56410629 -0.13649690 0.02957448
-0.59963346 -0.01930303 0.03143739
-0.67042559 -0.16244690 0.03514877
-0.03158202 0.24207093 0.00165571
-0.03920574 0.06904871 0.00205539
-0.00774945 -0.47040126 0.00040627
-0.21379223 -0.33764148 0.01120822
-0.35411209 -0.23789504 0.01856460
-0.67329270 -0.31233150 0.03529882
-0.35191491 -0.56609672 0.01844941
-0.30786183 0.18126902 0.01614012
-0.03949066 -0.58829015 0.00207033
-0.48414519 0.12343377 0.02538258
-0.49012536 -0.20253868 0.02569553
-0.05067146 0.45602414 0.00265649
-0.75079560 -0.17041966 0.03936257
-0.16323628 0.40013677 0.00855779
-0.03457252 0.31169796 0.00181249
-0.78456140 -0.34894937 0.04113239
-0.57684630 -0.38535818 0.03024199
-0.02070964 0.43410817 0.00108572
-0.13156794 -0.70432067 0.00689755
-0.24201055 0.24311613 0.01268764
-0.47593608 -0.23083995 0.02495153
-0.08545604 0.59210742 0.00448010
-0.16572957 -0.09654603 0.00868850
-0.32733005 -0.04011157 0.01716053
-0.01827920 0.23003991 0.00095830
-0.54979271 0.10187529 0.02882445
-0.31605488 -0.64352375 0.01656942
-0.12819132 -0.53650558 0.00672053
-0.13731433 0.35789832 0.00719881
-0.45850754 -0.28186762 0.02403766
-0.25141665 -0.30861381 0.01318071
-0.61589348 -0.18113887 0.03228961
-0.62818056 0.14067376 0.03293441
-0.03682582 0.51797730 0.00193062
-0.00628146 -0.34989452 0.00032931
-0.33981115 -0.66084605 0.01781486
-0.49557772 -0.39026541 0.02598106
-0.66706467 -0.64685041 0.03497168
-0.43267518 -0.28237754 0.02268333
-0.21255994 -0.08039231 0.01114362
-0.43785080 -0.18990070 0.02295479
-0.07201499 0.38043714 0.00377544
-0.18897924 -0.38459179 0.00990738
-0.46079156 -0.44728240 0.02415735
-0.35483751 -0.48333728 0.01860263
-0.05437174 -0.02482872 0.00285048
-0.51682389 0.08478680 0.02709586
-0.12949848 0.35006952 0.00678906
-0.21649508 -0.22980006 0.01134992
-0.16347899 -0.24800496 0.00857051
-0.73133612 -0.15127669 0.03834234
-0.67262369 -0.29332414 0.03526378
