ply
format ascii 1.0
element vertex 1094
property float x
property float y
property float z
end_header
0.14740403 0.02342620 0.06256885
0.30226442 -0.03873118 0.12830272
0.67850804 0.02890498 0.28800648
0.05933884 -0.16838638 0.02518766
0.16468704 -0.33717594 0.06990500
0.06240544 -0.47812390 0.02648935
0.16562560 0.06170735 0.07030340
0.42556471 -0.60798204 0.18064021
0.44139859 -0.27356714 0.18736117
0.01446685 -0.30560544 0.00614077
0.23981690 0.43611190 0.10179524
0.46121991 -0.44526863 0.19577484
0.61369759 -0.10207265 0.26049659
0.55317760 -0.17080228 0.23480780
0.55928320 -0.08516175 0.23739935
0.43394747 -0.66076452 0.18419845
0.16469055 0.26431715 0.06990649
0.23866753 -0.61725312 0.10130764
0.47095680 -0.70608151 0.19990788
0.45759681 0.27280545 0.19423625
0.49506277 -0.72578406 0.21014018
0.54533738 0.17093563 0.23147950
0.18819056 0.05075483 0.07988159
0.27999195 -0.71035981 0.11884868
0.66884726 -0.74682260 0.28390667
0.61833590 -0.30366179 0.26246560
0.62146884 -0.32013953 0.26379547
0.02981675 0.25624904 0.01265637
0.43667707 -0.03659089 0.18535678
0.41982010 -0.42924088 0.17820179
0.01168727 0.53193825 0.00496092
0.39980209 0.02336655 0.16970442
0.15662315 -0.22074166 0.06648211
0.01167505 0.77791911 0.00495572
0.16002738 0.19828425 0.06792711
0.18813299 0.21508344 0.07985715
0.14825845 0.15600970 0.06293153
0.29561195 0.46576864 0.12547848
0.53688055 -0.07629716 0.22789012
0.12114887 0.66477579 0.05142409
0.73476553 -0.53997433 0.31188676
0.64179671 -0.48797557 0.27242419
0.02388628 -0.15543383 0.01013905
0.39200166 -0.32698569 0.16639365
0.63961506 -0.43077725 0.27149808
0.12802991 -0.49923486 0.05434509
0.07173135 0.63125050 0.03044791
0.28404352 -0.50860918 0.12056847
0.00117535 -0.27900162 0.00049890
0.02895668 0.51736557 0.01229129
0.24406493 0.05525760 0.10359868
0.70378637 -0.32261840 0.29873675
0.66823566 -0.68324107 0.28364697
0.37544841 -0.31470302 0.15936726
0.61689585 -0.70186877 0.26185477
0.35040838 -0.68290013 0.14873847
0.18307455 0.17928861 0.07770998
0.06104331 0.48594981 0.02591116
0.41805008 -0.15974855 0.17745033
0.51848662 -0.55267620 0.22008294
0.62354904 -0.59024179 0.26467872
0.03912348 0.63455647 0.01660682
0.29019138 -0.14943863 0.12317805
0.54372656 -0.61299378 0.23079658
0.69757521 -0.06055218 0.29610002
0.37980843 -0.50674444 0.16121797
0.03336799 -0.11396140 0.01416377
0.25986794 -0.72725070 0.11030661
0.23141637 -0.32239631 0.09822973
0.31533667 0.36617291 0.13385113
0.12954430 0.00730547 0.05498791
0.53606981 -0.43917546 0.22754633
0.64192617 -0.65781724 0.27247933
0.34591857 -0.77471572 0.14683267
0.13843817 -0.24436946 0.05876310
0.54546422 -0.79494989 0.23153418
0.00154814 0.43791690 0.00065714
0.25337309 -0.08662990 0.10754974
0.03785209 -0.28873205 0.01606714
0.57928181 -0.13182381 0.24588819
0.06786740 0.26335242 0.02880780
0.32282525 0.15409181 0.13703001
0.06728060 0.45509264 0.02855872
0.64809269 -0.20459637 0.27509633
0.01169130 -0.67607480 0.00496263
0.54968965 -0.32702750 0.23332743
0.40690145 0.08435085 0.17271782
0.56866610 -0.54416323 0.24138257
0.73631489 -0.66042030 0.31254455
0.04162872 -0.41349119 0.01767022
0.23198308 0.50179094 0.09846995
0.01943539 0.21904299 0.00824978
0.64034307 -0.77896774 0.27180752
0.54212743 -0.58713895 0.23011775
0.29953033 -0.09447558 0.12714218
0.72580403 -0.29834455 0.30808255
0.36434218 0.09529768 0.15465271
0.14270297 -0.20207030 0.06057338
0.36319169 -0.07610958 0.15416455
0.68992311 -0.57611889 0.29285252
0.52686709 0.07489097 0.22363955
0.05088125 -0.35303125 0.02159766
0.23732474 -0.59726721 0.10073766
0.36394259 -0.22026037 0.15448336
0.04139870 0.68099570 0.01757258
0.31738093 0.44265959 0.13471876
0.41709402 -0.30154410 0.17704464
0.49503705 -0.50963539 0.21012928
0.26865792 0.14222579 0.11403766
0.45497939 -0.32488969 0.19312584
0.38072899 0.30719045 0.16160820
0.21452554 0.50001800 0.09105977
0.69232184 -0.14411058 0.29387018
0.37131670 -0.56335366 0.15761347
0.13426697 0.05107610 0.05699254
0.07696353 0.30954888 0.03266885
0.17472607 -0.62389034 0.07416629
0.35059085 0.28532305 0.14881551
0.66423720 -0.63732511 0.28194967
0.39954427 -0.00644653 0.16959502
0.72455233 -0.45177129 0.30755144
0.02808363 -0.30605683 0.01192071
0.04237151 0.22381739 0.01798551
0.72885835 -0.50976646 0.30937928
0.01106766 -0.69052428 0.00469791
0.23394768 -0.46116292 0.09930419
0.16795141 -0.42885077 0.07129063
0.00075385 -0.70644957 0.00031999
0.68224943 -0.12284582 0.28959474
0.26836377 0.05301884 0.11391286
0.24080946 0.48930106 0.10221649
0.08123382 -0.65850633 0.03448146
0.70510346 -0.73083377 0.29929632
0.56756103 -0.42620862 0.24091339
0.37986758 -0.34904787 0.16124308
0.42498016 -0.64875460 0.18039210
0.50353944 -0.00114842 0.21373774
0.40801522 -0.43138519 0.17319095
0.55493665 0.18432809 0.23555408
0.49581838 -0.77387339 0.21046092
0.57404691 -0.74063963 0.24366674
0.02667624 -0.58376455 0.01132331
0.14689721 0.34355712 0.06235372
0.69483495 -0.05636117 0.29493684
0.58453411 -0.10582252 0.24811760
0.66116792 -0.25393060 0.28064641
0.50144219 -0.35022032 0.21284790
0.10422627 -0.01872156 0.04424111
0.62151206 -0.19036599 0.26381367
0.30081210 -0.28141868 0.12768626
0.67777079 -0.75205392 0.28769442
0.05940071 0.34428933 0.02521393
0.54186374 -0.53443384 0.23000579
0.39985806 -0.21417262 0.16972843
0.49941275 -0.62320828 0.21198665
0.22268048 -0.56589139 0.09452158
0.35211241 -0.59488881 0.14946179
0.30096132 0.34317341 0.12774925
0.41838038 -0.47061571 0.17759067
0.72188318 -0.58328027 0.30641863
0.13773185 0.26926622 0.05846329
0.03911380 0.34060404 0.01660271
0.06565014 -0.35622180 0.02786663
0.25975356 0.40019417 0.11025777
0.70362091 -0.76112986 0.29866707
0.15667163 -0.12590428 0.06650269
0.67401171 0.00021176 0.28609797
0.39387751 -0.73890370 0.16718990
0.69158447 -0.30891562 0.29355738
0.22611868 -0.40845072 0.09598100
0.11732617 0.24040858 0.04980165
0.02002396 0.43524185 0.00849961
0.31206769 -0.25596574 0.13246395
0.20932785 -0.60919023 0.08885377
0.58601350 -0.35667416 0.24874580
0.00460838 0.70695978 0.00195613
0.34474534 -0.28770778 0.14633468
0.10701822 -0.52901220 0.04542622
0.53078490 -0.04323513 0.22530264
0.70078981 -0.18093365 0.29746464
0.14968362 -0.07835707 0.06353648
0.71317196 -0.78714246 0.30272123
0.11201503 0.57417464 0.04754715
0.34235933 0.06907777 0.14532170
0.28022006 0.13609597 0.11894544
0.44350207 0.00802124 0.18825375
0.70951068 0.01497778 0.30116615
0.45769539 -0.10709460 0.19427848
0.34797576 0.01885373 0.14770576
0.51516068 -0.51745993 0.21867114
0.01259186 0.35453275 0.00534489
0.58791375 -0.33588865 0.24955238
0.18672766 0.22950523 0.07926063
0.37930027 -0.36989734 0.16100226
0.37385130 -0.70454162 0.15868933
0.12374222 0.16138564 0.05252508
0.71037847 -0.51877314 0.30153513
0.09242365 -0.33208182 0.03923123
0.36217716 -0.76619172 0.15373398
0.42355230 -0.64274627 0.17978601
0.47334114 -0.17208168 0.20091969
0.51662374 -0.71990651 0.21929222
0.02934629 -0.79893017 0.01245667
0.28615597 -0.44950414 0.12146514
0.19254272 0.37968859 0.08172886
0.13418430 0.48198235 0.05695742
0.22698304 -0.56016403 0.09634790
0.18254407 -0.49715608 0.07748481
0.42651790 -0.30603281 0.18104482
0.44855195 -0.40603524 0.19039766
0.60573709 -0.22564588 0.25711772
0.21844131 -0.05072931 0.09272217
0.30725607 -0.06866601 0.13042153
0.00034821 -0.10831665 0.00014781
0.11100528 0.14553192 0.04711861
0.29991427 0.28259301 0.12730487
0.55164939 -0.44752768 0.23415941
0.67721736 -0.04304384 0.28745872
0.50494933 -0.06475487 0.21433628
0.47227654 -0.13869190 0.20046777
0.45069212 0.17131492 0.19130552
0.72748697 -0.71341461 0.30879745
0.21048909 -0.18558951 0.08934668
0.16282994 -0.13400441 0.06911671
0.69574839 -0.22793017 0.29532474
0.51879692 -0.32379740 0.22021441
0.46904632 -0.51873851 0.19909693
0.34979579 0.39795855 0.14847791
0.35545519 0.13926092 0.15088043
0.67261451 0.02769831 0.28550485
0.21863043 -0.71708798 0.09280246
0.06345570 -0.38135338 0.02693516
0.45779720 -0.44137043 0.19432200
0.28364426 0.27616170 0.12039877
0.61027384 -0.23507723 0.25904346
0.25428247 -0.44951847 0.10793574
0.14946525 -0.56074691 0.06344378
0.19979802 -0.73329526 0.08480862
0.05014891 -0.36788613 0.02128680
0.53295541 -0.08648373 0.22622401
0.35838762 -0.43218541 0.15212543
0.27864745 -0.13804778 0.11827799
0.09591081 -0.37960023 0.04071144
0.63643128 -0.44584009 0.27014670
0.18606561 0.42637503 0.07897949
0.15140466 -0.40909466 0.06426701
0.00546538 0.41820481 0.00231990
0.30393264 -0.57182956 0.12901084
0.61361122 -0.56451756 0.26046041
0.34557268 -0.19299011 0.14668585
0.14904471 0.23054525 0.06326527
0.51469690 -0.31710568 0.21847408
0.04544556 0.21548881 0.01929036
0.00590811 0.09037534 0.00250782
0.08939583 -0.03418442 0.03794601
0.26114073 -0.07499229 0.11084687
0.12619314 0.31019488 0.05356543
0.32392350 -0.67961401 0.13749640
0.68762606 -0.60488027 0.29187751
0.26396635 0.47935003 0.11204588
0.36965451 -0.49307013 0.15690792
0.37009171 0.27412784 0.15709303
0.44651860 -0.08831131 0.18953426
0.35506362 -0.01779794 0.15071438
0.61563557 -0.29534587 0.26131940
0.28632721 0.18104076 0.12153769
0.56089878 -0.53152508 0.23808555
0.50976372 0.08293038 0.21637969
0.23252647 -0.44373789 0.09870093
0.20104684 -0.13792446 0.08533871
0.61322963 -0.12790987 0.26029798
0.21503496 -0.33245096 0.09127628
0.10769129 0.15348171 0.04571192
0.68806398 -0.69496047 0.29206353
0.53255618 -0.67222524 0.22605509
0.54204410 -0.67794842 0.23008244
0.14578064 -0.38436434 0.06187977
0.06582289 0.21447407 0.02793996
0.45536914 0.20247655 0.19329074
0.30382669 -0.11659530 0.12896587
0.58381915 -0.33931172 0.24781436
0.62860149 -0.77761877 0.26682356
0.27537495 -0.21081221 0.11688890
0.35696146 -0.45384061 0.15152007
0.15269873 -0.22196335 0.06481630
0.52461457 0.02374083 0.22268347
0.40435022 -0.55475760 0.17163526
0.69155097 -0.58653790 0.29354352
0.36833316 0.17676538 0.15634669
0.66179448 -0.58392423 0.28091276
0.07971195 -0.19303356 0.03383547
0.42217299 -0.12959523 0.17920034
0.55958956 -0.34121791 0.23752965
0.57922029 -0.02132959 0.24586196
0.47572419 -0.03571583 0.20193107
0.28220117 -0.09382346 0.11978644
0.48613378 -0.63479799 0.20635009
0.48833784 0.15915734 0.20728499
0.44251245 -0.21342957 0.18783391
0.44535545 0.00984774 0.18904044
0.44618002 -0.19608419 0.18939066
0.68971580 -0.33223417 0.29276422
0.01531585 -0.70853895 0.00650115
0.53661448 -0.73172343 0.22777772
0.36683604 -0.30813599 0.15571155
0.14879474 -0.27203092 0.06315917
0.43576935 -0.44930682 0.18497179
0.68079895 -0.77765739 0.28897983
0.15742169 0.07606192 0.06682107
0.55461979 -0.01098183 0.23541979
0.65856671 -0.29503623 0.27954236
0.04866197 0.55130249 0.02065563
0.47285655 -0.33682591 0.20071416
0.23067708 -0.15619627 0.09791592
0.47745031 -0.62279582 0.20266420
0.31450689 -0.57360357 0.13349929
0.64020717 0.09688080 0.27174887
0.66579527 -0.10136251 0.28261045
0.68519866 -0.15591568 0.29084665
0.32664320 0.39178765 0.13865036
0.44510385 0.11286208 0.18893354
0.64313269 -0.31818277 0.27299109
0.18528335 -0.07690011 0.07864756
0.31589895 -0.04983690 0.13409020
0.36474726 -0.49784982 0.15482493
0.10808239 -0.13607787 0.04587793
0.29018441 0.33858979 0.12317479
0.57367277 -0.30820861 0.24350750
0.34656522 0.27424303 0.14710677
0.06889216 0.12766024 0.02924278
0.11190539 0.56750286 0.04750062
0.24450721 -0.36535397 0.10378642
0.07286539 0.25677010 0.03092930
0.37583500 -0.45969710 0.15953135
0.01964566 0.24463034 0.00833903
0.24916254 0.27057686 0.10576234
0.71256608 -0.32829651 0.30246347
0.40194947 0.06933235 0.17061588
0.11979207 -0.66147619 0.05084835
0.28250697 -0.00155409 0.11991625
0.00185903 -0.62207735 0.00078911
0.53513479 -0.42303020 0.22714946
0.54016578 -0.46670371 0.22928500
0.10417623 -0.03241571 0.04421987
0.36675486 -0.66649258 0.15567710
0.03405045 0.38599077 0.01445346
0.59911597 -0.40393421 0.25430745
0.18743207 -0.16217498 0.07955963
0.00624306 -0.13926618 0.00265000
0.27957347 0.07052155 0.11867106
0.14710519 0.24099143 0.06244200
0.11402287 0.27391940 0.04839949
0.03551792 -0.58106661 0.01507636
0.53415668 0.12947242 0.22673368
0.25913474 -0.16536513 0.10999539
0.58855420 -0.46116054 0.24982437
0.36904201 0.09363443 0.15664765
0.70870364 -0.36472288 0.30082405
0.39682156 -0.24831602 0.16843957
0.56537670 0.10013109 0.23998564
0.08345541 0.37976816 0.03542447
0.16892047 0.42982990 0.07170190
0.26210532 -0.65304720 0.11125632
0.24279337 -0.06106461 0.10305894
0.18035556 0.48606706 0.07655569
0.14866608 0.03207782 0.06310456
0.64316416 -0.00117575 0.27300414
0.30048683 -0.24723127 0.12754819
0.58024502 -0.19804859 0.24629709
0.62557870 0.06884769 0.26553959
0.41650316 -0.68386430 0.17679384
0.30751181 -0.73355150 0.13053010
0.10190638 -0.60585791 0.04325638
0.42784321 -0.30785245 0.18160737
0.11068046 -0.49754024 0.04698074
0.05786005 0.38461033 0.02455996
0.04746390 -0.14226338 0.02014709
0.60060608 -0.68915534 0.25494027
0.65146393 -0.06483085 0.27652717
0.37289697 -0.27954784 0.15828425
0.48581848 -0.75537187 0.20621625
0.50423485 0.18245232 0.21403274
0.19577916 0.51716369 0.08310249
0.61904222 -0.77555788 0.26276591
0.42816663 -0.51648772 0.18174466
0.47364748 -0.58120996 0.20105000
0.15017517 0.53503168 0.06374499
0.49093744 -0.41774884 0.20838901
0.18866688 0.50229460 0.08008357
0.51837921 -0.68311036 0.22003736
0.59412771 -0.64907044 0.25219035
0.63571298 -0.11643208 0.26984146
0.65933549 -0.45226204 0.27986881
0.61870545 -0.09115334 0.26262227
0.43482676 -0.32234821 0.18457168
0.43374297 0.11515457 0.18411119
0.15772051 0.22035778 0.06694791
0.08884223 0.10778761 0.03771102
0.28168556 -0.67425835 0.11956758
0.66500038 -0.26825377 0.28227320
0.10644292 -0.29152393 0.04518202
0.27304292 0.44845921 0.11589865
0.26642290 -0.06555346 0.11308901
0.14192069 0.63577193 0.06024111
0.58880138 -0.16842949 0.24992898
0.18591793 0.46637002 0.07891676
0.34357020 -0.36698490 0.14583588
0.72144681 -0.58410120 0.30623341
0.46378949 -0.35741115 0.19686550
0.63317204 -0.52634537 0.26876333
0.19657189 -0.47491255 0.08343922
0.44154394 -0.51864839 0.18742296
0.32731330 -0.60276741 0.13893527
0.20093691 0.45416227 0.08529186
0.70993054 -0.70263088 0.30134523
0.09653251 0.08483991 0.04097533
0.26409295 -0.59040958 0.11210001
0.73502445 -0.69172788 0.31199685
0.03172070 0.62298262 0.01346454
0.24543098 -0.21480718 0.10417852
0.40905470 -0.56422907 0.17363219
0.43716422 0.32373926 0.18556318
0.07262290 0.59021074 0.03082637
0.33606875 -0.50010079 0.14265171
0.64947194 -0.23175558 0.27568182
0.72894639 -0.46243623 0.30941659
0.00366967 0.32681111 0.00155767
0.35158393 -0.11398143 0.14923745
0.02295414 0.06478106 0.00974338
0.06578263 -0.27201676 0.02792287
0.13332815 0.24596970 0.05659404
0.15300821 -0.64661080 0.06494767
0.45363522 0.05457993 0.19255491
0.02588070 -0.39731047 0.01098563
0.07591427 0.45226216 0.03222347
0.41434139 -0.28004652 0.17587623
0.22513133 0.44014496 0.09556166
0.28626838 -0.18339346 0.12151286
0.16637810 -0.34833062 0.07062281
0.07090299 0.53815979 0.03009632
0.26551747 -0.27606857 0.11270468
0.71988809 -0.71003175 0.30557194
0.53117758 -0.19591095 0.22546948
0.48951310 -0.26215822 0.20778427
0.05866732 0.71945971 0.02490255
0.05109106 0.28209603 0.02168672
0.35875282 -0.20935012 0.15228045
0.10127291 -0.55554986 0.04298749
0.16991600 -0.50921416 0.07212455
0.55212635 -0.49487555 0.23436189
0.12428569 -0.28946874 0.05275577
0.04264312 0.06080884 0.01810080
0.54010463 0.18253991 0.22925834
0.01890705 -0.60374022 0.00802551
0.60913545 -0.07762526 0.25856006
0.54352862 0.09619838 0.23071182
0.42414352 -0.28567052 0.18003693
0.05214223 -0.37150183 0.02213291
0.20825233 0.02825749 0.08839724
0.13598776 0.11231060 0.05772297
0.10455384 0.36046076 0.04438016
0.42853233 -0.29176107 0.18189986
0.36637890 0.34915361 0.15551698
0.24496746 0.01769492 0.10398178
0.24946375 -0.03198440 0.10589033
0.14727820 -0.73768252 0.06251544
0.65794927 -0.43945232 0.27928042
0.68899959 -0.78751189 0.29246077
0.36185542 0.18856679 0.15359707
0.53459829 -0.31631535 0.22692160
0.43514591 0.23828799 0.18470655
0.07010732 -0.43672806 0.02975858
0.28994301 0.35163513 0.12307230
0.33751839 -0.15939131 0.14326704
0.16373578 -0.09666888 0.06950122
0.69593692 -0.44674370 0.29540503
0.18996231 0.47154540 0.08063347
0.05346806 -0.44694197 0.02269568
0.13478369 -0.19871466 0.05721187
0.41892502 -0.39844093 0.17782184
0.37514493 -0.18273513 0.15923844
0.19478872 0.53629845 0.08268207
0.30284822 0.20246679 0.12855032
0.24128072 -0.62629956 0.10241686
0.12882356 0.24891736 0.05468197
0.42668331 0.07225711 0.18111463
0.62887526 -0.25455478 0.26693919
0.44148678 -0.21496269 0.18739854
0.08903550 0.24659903 0.03779306
0.27516228 0.11235401 0.11679859
0.34107843 -0.36428973 0.14477818
0.03381096 -0.51830161 0.01435180
0.23157506 0.12746675 0.09829708
0.03965281 -0.69154751 0.01683150
0.67634273 -0.44032487 0.28708786
0.23778926 -0.15990774 0.10093483
0.38159114 -0.78622586 0.16197468
0.09842398 -0.60246283 0.04177820
0.23699674 0.10342412 0.10059843
0.19216344 0.37901795 0.08156788
0.12542380 0.15969665 0.05323887
0.38647857 0.00225163 0.16404901
0.06339491 0.50593257 0.02690935
0.20073760 -0.05712422 0.08520745
0.52987677 -0.01777249 0.22491714
0.02404983 0.68987477 0.01020847
0.33547059 0.23005280 0.14239749
0.23703578 0.26483351 0.10061491
0.47673273 -0.55914354 0.20235959
0.01603754 -0.28235066 0.00680748
0.32605514 -0.08382992 0.13840121
0.07458264 -0.29738832 0.03165823
0.61023474 -0.13374223 0.25902674
0.43339399 -0.18517900 0.18396337
0.64019263 -0.34187862 0.27174315
0.29163831 0.42010185 0.12379184
0.17333671 0.33651254 0.07357655
0.40976423 -0.12281333 0.17393319
0.73151833 -0.58410329 0.31050846
0.59496063 0.02404734 0.25254321
0.49419215 0.11548922 0.20976999
0.15618233 0.00523566 0.06629499
0.33031753 -0.07084418 0.14021046
0.33464167 0.40760311 0.14204545
0.43472266 0.00547403 0.18452714
0.13431397 -0.09397907 0.05701249
0.29157430 -0.55705297 0.12376507
0.03974256 -0.42996070 0.01686959
0.71419078 -0.03825246 0.30315277
0.36343414 0.24879830 0.15426712
0.00346115 0.07963599 0.00146916
0.08411223 0.21815370 0.03570327
0.39390409 -0.46849886 0.16720118
0.58001453 -0.00232567 0.24619907
0.63508952 -0.59749573 0.26957729
0.02091198 0.11703319 0.00887655
0.28601539 0.39735049 0.12140511
0.18180650 -0.58136505 0.07717173
0.23634939 -0.60244596 0.10032365
0.71405149 -0.14356259 0.30309376
0.50570953 -0.13107073 0.21465902
0.66235006 -0.62434137 0.28114864
0.07445562 0.39189091 0.03160431
0.68193442 -0.03702729 0.28946093
0.05281895 -0.18672706 0.02242015
0.02643274 0.69877976 0.01121995
0.47368288 -0.79549247 0.20106503
0.01168004 0.35814023 0.00495785
0.45254108 -0.55434215 0.19209093
0.64235055 -0.79853779 0.27265966
0.13788261 -0.22979274 0.05852728
0.44137138 0.12931262 0.18734920
0.37604064 -0.64498633 0.15961865
0.57974625 -0.53150135 0.24608573
0.06335346 -0.65359628 0.02689176
0.67297852 -0.12640439 0.28565955
0.13678683 -0.17880762 0.05806216
0.42362404 -0.47446799 0.17981645
0.17402731 0.31826493 0.07386969
0.32336894 -0.69168293 0.13726100
0.18891922 -0.72757775 0.08019088
0.47604281 0.16915157 0.20206609
0.69303137 -0.49213529 0.29417178
0.33830267 0.30095264 0.14359954
0.19330561 -0.28943476 0.08205278
0.30320761 -0.57499439 0.12870307
0.57097983 -0.15106821 0.24236426
0.21680389 -0.64692378 0.09202714
0.10990809 0.26000720 0.04665289
0.07893675 -0.00623888 0.03350643
0.43886694 -0.70510632 0.18628664
0.06984666 0.19675733 0.02964794
0.06654902 -0.69629997 0.02824818
0.16478160 -0.14839129 0.06994514
0.61047232 -0.30493519 0.25912777
0.52753407 0.04517485 0.22392268
0.32109955 -0.17222758 0.13629770
0.43073109 0.03882897 0.18283282
0.08572014 0.55507880 0.03638578
0.24261148 -0.78825241 0.10298173
0.43704829 -0.13000038 0.18551445
0.05477307 -0.70429474 0.02324962
0.11077733 0.11806295 0.04702185
0.32484931 0.41781181 0.13788888
0.40769234 0.09953159 0.17305352
0.10108419 0.10249031 0.04290739
0.37075290 0.15242571 0.15737382
0.33580613 0.30049637 0.14253984
0.61075938 -0.36959940 0.25924969
0.49109870 -0.28035802 0.20845734
0.00528639 -0.06665877 0.00224392
0.35189345 -0.71112454 0.14936885
0.66249138 -0.71770871 0.28120875
0.48212191 -0.13176042 0.20464681
0.73286563 -0.14955348 0.31107980
0.32336780 -0.64627665 0.13726053
0.62774336 -0.10793275 0.26645860
0.53894037 -0.18696244 0.22876455
0.64495641 0.01370001 0.27376488
0.22861452 -0.00427200 0.09704042
0.45319474 -0.59842598 0.19236837
0.58680063 -0.62075841 0.24908020
0.38344470 -0.25918877 0.16276146
0.01073975 -0.14960548 0.00455872
0.27101380 -0.65704250 0.11503772
0.06436112 0.42316926 0.02731948
0.48552260 -0.34699050 0.20609051
0.30655944 0.15168273 0.13012567
0.34893900 -0.07075377 0.14811473
0.08984340 0.62668055 0.03813592
0.50956637 -0.28299049 0.21629629
0.55741310 0.10741252 0.23660533
0.61423588 -0.76316363 0.26072577
0.60474980 -0.58834654 0.25669903
0.09417756 -0.68828303 0.03997572
0.46488580 -0.16462655 0.19733065
0.46372509 -0.68474168 0.19683823
0.15276353 0.43762946 0.06484377
0.32432246 -0.78049952 0.13766573
0.13809310 -0.20428622 0.05861663
0.17476252 -0.32759127 0.07418176
0.34597743 -0.75639534 0.14685766
0.03643130 -0.42083988 0.01546406
0.35519683 0.15947133 0.15077072
0.02716542 0.44185442 0.01153095
0.07869160 0.61226630 0.03340235
0.17438459 -0.50808358 0.07402135
0.69403291 -0.51445371 0.29459691
0.31865048 -0.20106883 0.13525814
0.72136062 -0.16808371 0.30619630
0.42477059 -0.02905909 0.18030284
0.20051840 -0.12309677 0.08511441
0.61676180 -0.63957387 0.26179782
0.10054418 0.22999734 0.04267817
0.44554186 -0.66516972 0.18911996
0.07770159 0.50446022 0.03298213
0.18536675 -0.69900233 0.07868296
0.24372110 -0.18902840 0.10345273
0.34210014 0.11230081 0.14521165
0.11403171 -0.78162366 0.04840324
0.08937219 0.16283396 0.03793598
0.04291100 0.04309747 0.01821451
0.08913377 0.37091631 0.03783477
0.41052675 -0.41436464 0.17425703
0.36591434 -0.36443856 0.15532032
0.55359572 -0.20927966 0.23498531
0.21195118 0.32127982 0.08996722
0.72277498 -0.42649761 0.30679697
0.15570150 -0.30089101 0.06609090
0.29170635 -0.17209671 0.12382112
0.11439332 -0.54027182 0.04855674
0.56899977 -0.06464056 0.24152371
0.09442987 -0.39031532 0.04008282
0.28376192 -0.15855990 0.12044893
0.24596937 0.03889668 0.10440706
0.05810539 0.62439632 0.02466410
0.55571884 -0.31929684 0.23588662
0.49878839 0.24620335 0.21172082
0.41086006 -0.01427331 0.17439823
0.49870637 0.13897756 0.21168612
0.22368824 -0.28974757 0.09494935
0.39528638 -0.08197264 0.16778776
0.22012894 0.52250749 0.09343822
0.72838986 -0.44506738 0.30918035
0.32727358 -0.52688074 0.13891841
0.38490438 0.02193196 0.16338082
0.04891037 0.62065560 0.02076107
0.48915339 -0.71928680 0.20763183
0.18991649 -0.19212686 0.08061420
0.27587655 -0.76313192 0.11710182
0.31697735 0.41638404 0.13454749
0.20624280 -0.42119423 0.08754425
0.66576993 -0.13481912 0.28259972
0.47470313 -0.57470334 0.20149809
0.59644902 -0.61946535 0.25317565
0.08600451 -0.27727875 0.03650649
0.15677401 -0.35775357 0.06654615
0.65567464 -0.09685118 0.27831453
0.03485273 0.70800114 0.01479400
0.48159367 -0.73665452 0.20442294
0.28851378 -0.45470634 0.12246597
0.38098887 0.29198292 0.16171852
0.33354673 0.26414180 0.14158082
0.49104682 -0.63973778 0.20843554
0.14706983 0.12076640 0.06242700
0.16242263 -0.62140697 0.06894382
0.29375336 -0.67820817 0.12469002
0.43471816 0.24597619 0.18452498
0.17617957 -0.23815051 0.07478326
0.52134299 -0.14305592 0.22129497
0.07919924 -0.60579789 0.03361785
0.56338453 -0.55220956 0.23914070
0.47574151 -0.42974582 0.20193884
0.65408218 -0.55003262 0.27763906
0.04142396 -0.14797901 0.01758330
0.41380244 -0.34395698 0.17564747
0.00882030 -0.26099178 0.00374397
0.23335139 -0.60101622 0.09905109
0.40627313 0.00387232 0.17245120
0.32889217 0.34801644 0.13960502
0.34151250 -0.77783209 0.14496243
0.59503210 -0.08941516 0.25257364
0.31682426 -0.15759672 0.13448296
0.25572374 0.05886927 0.10854751
0.41488057 0.26384261 0.17610452
0.28274858 -0.48941708 0.12001880
0.44898403 -0.63596934 0.19058105
0.59338444 0.08122252 0.25187409
0.10810645 -0.23900855 0.04588814
0.40942237 0.07227565 0.17378789
0.31588602 -0.59517241 0.13408470
0.09462086 -0.42265317 0.04016389
0.72808379 -0.18224522 0.30905008
0.27433980 -0.09207358 0.11644952
0.65053219 -0.59525418 0.27613226
0.13227692 -0.19470289 0.05614782
0.36630267 -0.19710724 0.15548515
0.16766262 -0.02889994 0.07116805
0.20321915 -0.26942211 0.08626079
0.21372116 0.28953102 0.09071856
0.32786411 -0.40430304 0.13916907
0.54120123 -0.74950874 0.22972465
0.37175745 -0.53598756 0.15780056
0.23843336 -0.19349080 0.10120824
0.04264325 0.08890524 0.01810086
0.70343471 -0.24242039 0.29858735
0.50203133 -0.22774047 0.21309783
0.07693356 -0.49773607 0.03265613
0.57297063 -0.19200376 0.24320935
0.30921322 0.18417127 0.13125210
0.70446825 -0.48343930 0.29902637
0.35841799 0.20135674 0.15213796
0.11489420 0.15552580 0.04876935
0.00492268 -0.55871063 0.00208954
0.11910778 -0.54212874 0.05055789
0.23761784 -0.60363692 0.10086207
0.55165237 -0.12112545 0.23416033
0.63447326 -0.22480482 0.26931533
0.08157735 0.02939896 0.03462728
0.31880313 -0.52372742 0.13532294
0.53752804 -0.76834697 0.22816551
0.46481296 0.00832032 0.19729955
0.44477916 -0.77405149 0.18879621
0.49968606 -0.15906571 0.21210226
0.30360243 -0.64553869 0.12887067
0.28634351 0.44074315 0.12154434
0.20597471 0.46711889 0.08743024
0.27714506 -0.63612664 0.11764026
0.58972710 -0.58631837 0.25032234
0.73447764 -0.38061926 0.31176436
0.56331873 -0.28774640 0.23911251
0.18133970 0.17498267 0.07697359
0.03548593 -0.37697542 0.01506278
0.05595715 -0.07250952 0.02375223
0.26814812 -0.78071040 0.11382132
0.60101581 -0.71220762 0.25511420
0.43860596 -0.14243340 0.18617564
0.52741534 -0.29147330 0.22387265
0.08308513 0.09062631 0.03526730
0.39050388 0.00310780 0.16575766
0.25584719 -0.59565014 0.10859992
0.27457649 -0.63230336 0.11654998
0.57052469 -0.59772950 0.24217156
0.09483144 -0.71935588 0.04025327
0.08058440 0.38449693 0.03420580
0.27283719 -0.43110290 0.11581170
0.17324080 0.51435864 0.07353565
0.44092336 0.25665066 0.18715890
0.24587180 0.50895858 0.10436528
0.52717912 -0.04548041 0.22377212
0.56631488 0.16867486 0.24038380
0.23123072 0.54193026 0.09815056
0.17105041 -0.54676360 0.07260608
0.41608411 -0.52469897 0.17661598
0.07407154 0.63836950 0.03144125
0.02682402 -0.50399709 0.01138604
0.60337049 -0.09634183 0.25611305
0.07884362 0.45957953 0.03346689
0.51590878 -0.36521897 0.21898854
0.09776261 0.60270262 0.04149741
0.35243952 -0.33778068 0.14960063
0.37403879 -0.00320382 0.15876874
0.12906666 0.20211615 0.05478516
0.31228670 -0.14416926 0.13255690
0.30206734 0.12088071 0.12821895
0.33756709 -0.39073598 0.14328770
0.49418128 -0.43958411 0.20976596
0.15478468 -0.60808039 0.06570173
0.05120294 -0.01603025 0.02173420
0.23650496 0.08302375 0.10038969
0.09113205 0.08627221 0.03868298
0.33949816 -0.26567274 0.14410740
0.24944794 0.34412065 0.10588341
0.53840911 -0.13732840 0.22853899
0.34649962 -0.53713429 0.14707932
0.40946415 -0.60092491 0.17380600
0.58892393 -0.36959770 0.24998122
0.52964705 -0.42599785 0.22482006
0.73573536 -0.65867734 0.31229857
0.25078443 -0.49142727 0.10645092
0.58663654 -0.46217385 0.24901037
0.30402291 -0.51496780 0.12904917
0.25203538 -0.60761225 0.10698192
0.49834603 0.14450482 0.21153316
0.17328887 -0.45965815 0.07355624
0.24504815 -0.04877707 0.10401603
0.32405865 -0.18240613 0.13755375
0.59171766 0.02706292 0.25116667
0.06239687 0.47520196 0.02648571
0.06443861 0.08870222 0.02735237
0.12702115 0.17478180 0.05391690
0.12638111 -0.30957669 0.05364522
0.26520973 -0.48473826 0.11257405
0.22884846 -0.74639702 0.09713972
0.42043388 -0.43305710 0.17846233
0.28752416 -0.18869162 0.12204589
0.35912010 0.29778445 0.15243590
0.16342463 -0.75153387 0.06936915
0.56409746 -0.60764349 0.23944338
0.27083021 -0.62674457 0.11495979
0.26398858 -0.50658691 0.11205570
0.03906342 -0.31010270 0.01658132
0.19806182 0.57488436 0.08407135
0.11259987 -0.06956671 0.04779547
0.51947635 -0.20935845 0.22050269
0.31228876 -0.14722268 0.13255778
0.28903955 -0.37401187 0.12268913
0.64108497 -0.24880625 0.27212182
0.10731810 0.12427664 0.04555351
0.57616264 -0.46674326 0.24456453
0.14568828 -0.35069507 0.06184057
0.54320425 -0.52216619 0.23057477
0.63932782 -0.19369175 0.27137592
0.03600506 0.65623248 0.01528313
0.59785676 -0.36248836 0.25377291
0.71722668 -0.68336517 0.30444220
0.16019250 0.43126345 0.06799715
0.12812698 0.43903381 0.05438629
0.67351156 -0.00952345 0.28588566
0.14503948 0.14888489 0.06156517
0.43308222 0.04826501 0.18383078
0.45526433 -0.03873494 0.19324650
0.00491715 -0.54192328 0.00208719
0.31466827 -0.00264153 0.13356778
0.67590016 -0.68900543 0.28690034
0.20345606 -0.10366361 0.08636136
0.21595939 -0.36029759 0.09166867
0.33587855 -0.24955134 0.14257097
0.21501118 0.16887750 0.09126618
0.07635429 -0.79802531 0.03241024
0.16679379 -0.71978039 0.07079926
0.52857083 0.02187954 0.22436278
0.14264005 0.35204557 0.06054668
0.35842600 -0.40487790 0.15214173
0.11496208 -0.07009710 0.04879816
0.12653732 -0.07423980 0.05371152
0.11208640 -0.26533449 0.04757751
0.40269154 -0.36405355 0.17093121
0.35586986 0.24743755 0.15105633
0.08858803 -0.72438800 0.03760312
0.65040022 -0.31376621 0.27607593
0.18504889 -0.60273963 0.07854804
0.51927322 -0.30673182 0.22041658
0.35545906 -0.48205245 0.15088235
0.47521552 -0.18442610 0.20171532
0.22942232 -0.07610164 0.09738330
0.01358421 0.05916123 0.00576611
0.23784518 -0.42297164 0.10095857
0.32665953 -0.10506340 0.13865776
0.70899010 -0.72072339 0.30094606
0.23292792 -0.40492067 0.09887133
0.46101013 -0.05945576 0.19568543
0.08139904 0.56606776 0.03455160
0.05266559 -0.24219421 0.02235506
0.00878186 -0.60522985 0.00372765
0.33628947 -0.68587685 0.14274541
0.11928552 -0.33479589 0.05063334
0.53413814 -0.34079340 0.22672629
0.00749009 0.19742045 0.00317933
0.02805801 -0.48561469 0.01190983
0.35603034 -0.11123362 0.15112482
0.10778635 -0.03785188 0.04575226
0.58362663 -0.24409769 0.24773254
0.57744879 -0.11809025 0.24511009
0.30047315 0.08582567 0.12754232
0.14703999 0.11179234 0.06241433
0.50563848 -0.58437848 0.21462928
0.37969118 0.05274661 0.16116793
0.25633281 0.11955463 0.10880605
0.51880574 -0.59949028 0.22021841
0.35188445 -0.39805287 0.14936502
0.15955687 -0.02674742 0.06772739
0.13809113 0.12372354 0.05861579
0.04110587 -0.15675449 0.01744828
0.20797274 -0.77523577 0.08827856
0.13222288 -0.30214483 0.05612489
0.24821524 -0.23860052 0.10536037
0.45235804 -0.31605843 0.19201314
0.34244800 -0.75530052 0.14535952
0.45061731 -0.29999152 0.19127426
0.10947627 0.00838873 0.04646959
0.68160230 -0.79806596 0.28932086
0.47543132 -0.70238382 0.20180719
0.00978151 0.57370025 0.00415198
0.49712190 -0.48501575 0.21101421
0.22604270 -0.47698930 0.09594876
0.07189894 -0.44578886 0.03051907
0.43221700 -0.34571138 0.18346392
0.23965225 0.31673679 0.10172547
0.67590785 -0.25246212 0.28690308
0.14824015 -0.58286047 0.06292376
0.53956103 -0.61780763 0.22902843
0.13633148 -0.56788379 0.05786887
0.69941539 -0.25691462 0.29688132
0.16844817 -0.65015930 0.07150150
0.41187239 -0.75043136 0.17482822
0.21091174 -0.73885190 0.08952608
0.33776113 -0.40862522 0.14337008
0.27175763 -0.22964448 0.11535345
0.35245481 -0.31130582 0.14960714
0.30024388 -0.61186677 0.12744507
0.32586497 0.22969331 0.13832019
0.37188604 -0.78747672 0.15785512
0.00836003 0.77693218 0.00354860
0.50608826 0.18663643 0.21481945
0.31920871 0.07037127 0.13549499
0.58096540 -0.21418731 0.24660291
0.60698998 0.10301785 0.25764921
0.60884345 -0.47557360 0.25843653
0.13836101 -0.70207667 0.05873035
0.09612895 0.62600273 0.04080395
0.20647375 -0.38445967 0.08764229
0.64164013 -0.48745313 0.27235773
0.43183309 0.13319954 0.18330048
0.18946064 -0.03579341 0.08042069
0.04112992 0.35758650 0.01745849
0.03862126 -0.27990490 0.01639364
0.61356729 -0.25237370 0.26044145
0.21711352 -0.03208928 0.09215857
0.16501217 -0.77839261 0.07004301
0.61069089 -0.24333097 0.25922048
0.13663195 -0.67053831 0.05799641
0.43179855 -0.38823140 0.18328631
0.64562941 -0.03114446 0.27405059
0.30017129 -0.61661571 0.12741426
0.54557681 -0.07711740 0.23158140
0.07557445 -0.36537701 0.03207922
0.20352226 -0.65603346 0.08638946
0.26903623 0.20825817 0.11419817
0.63128954 -0.57357472 0.26796430
0.02478868 -0.45150524 0.01052210
0.19548079 -0.29707178 0.08297608
0.20320876 -0.13943675 0.08625639
0.66443491 -0.05320972 0.28203297
0.23166385 -0.02081787 0.09833477
0.08390367 0.13492543 0.03561474
0.62069410 -0.24087574 0.26346654
0.23305295 0.46574658 0.09892412
0.18025696 0.15823422 0.07651400
0.59285009 -0.31738579 0.25164768
0.06868906 -0.13445634 0.02915657
0.30169502 -0.35198998 0.12806103
0.36972195 0.33648837 0.15693600
0.20106106 -0.59380227 0.08534475
0.67377281 -0.25353748 0.28599682
0.33723262 -0.14013800 0.14314573
0.26502091 0.37495366 0.11249363
0.27026305 -0.02212123 0.11471904
0.40558091 -0.64667422 0.17215766
0.73245132 -0.68549031 0.31090462
0.54407716 -0.25670758 0.23094504
0.05831232 -0.28075731 0.02475194
0.44978100 -0.49429017 0.19091935
0.13682389 0.35308993 0.05807788
0.26110518 -0.05976089 0.11083179
0.41679597 -0.57778722 0.17691813
0.19468357 -0.29977450 0.08263768
0.24078290 0.32402569 0.10220539
0.50786054 -0.27040750 0.21557221
0.65726304 -0.56473541 0.27898926
0.65878308 -0.48542371 0.27963439
0.16216514 0.26580441 0.06883453
0.68952453 -0.48359084 0.29268321
0.58537936 -0.74783212 0.24847704
0.04843892 -0.04374815 0.02056095
0.45402363 -0.48905912 0.19272022
0.49595535 -0.40338045 0.21051896
0.12524670 -0.25616741 0.05316369
0.04589068 0.25275469 0.01947930
0.39836389 -0.13444330 0.16909412
0.48313028 0.17336281 0.20507452
0.31216860 -0.11353475 0.13250677
0.24195591 0.09753169 0.10270345
0.61762446 -0.18125603 0.26216352
0.52563459 -0.24748848 0.22311671
0.71970385 -0.73282731 0.30549377
0.48773286 0.01492807 0.20702834
0.52872479 -0.22649190 0.22442839
0.02125284 0.43195981 0.00902123
0.02193517 0.02725889 0.00931086
0.53789926 0.09517713 0.22832233
0.06320220 0.37791958 0.02682755
0.19530378 0.14501143 0.08290095
0.05554558 -0.58288664 0.02357753
0.12905040 0.52375096 0.05477819
0.71338242 -0.45313150 0.30281016
0.42539781 -0.44561926 0.18056937
0.57499540 -0.79925734 0.24406932
0.38130143 -0.18764462 0.16185169
0.58004189 -0.46538398 0.24621116
0.17047477 -0.10655798 0.07236173
0.21108641 -0.13312148 0.08960022
0.10897448 0.46954381 0.04625659
0.07852352 -0.74173993 0.03333102
0.71834552 -0.65350306 0.30491710
0.30636251 0.31271636 0.13004193
0.21392177 0.21746154 0.09080376
0.18342499 -0.42757994 0.07785874
0.59098274 -0.15300886 0.25085488
0.42820501 0.02655824 0.18176059
0.34697673 -0.37178576 0.14728184
0.27522534 -0.49365455 0.11682539
0.26885664 -0.39222178 0.11412206
0.63406503 -0.66739607 0.26914251
0.16411509 0.33611825 0.06966223
0.16732553 0.55143082 0.07102477
0.68280107 -0.19435814 0.28982896
0.23861979 0.20575036 0.10128734
0.15915450 -0.04867675 0.06755660
0.02625764 -0.14107493 0.01114563
0.36330640 -0.41942409 0.15421332
0.65586179 -0.66465122 0.27839461
0.63771099 0.01406733 0.27068940
0.25180662 0.13606501 0.10688481
0.64538050 -0.77508372 0.27394575
0.40767291 -0.20212528 0.17304559
0.28572816 -0.42159340 0.12128355
0.07727833 -0.22907887 0.03280247
0.47335583 -0.26771879 0.20092602
0.71919626 -0.73818499 0.30527830
0.31120643 0.33123288 0.13209799
0.62801516 0.09848684 0.26657376
0.43169677 -0.76152253 0.18324310
0.25635287 0.14132920 0.10881455
0.39843389 0.31148443 0.16912337
0.24686036 0.28276306 0.10478513
0.23764428 -0.40768477 0.10087330
0.65928215 -0.22201224 0.27984595
0.47727793 -0.55159378 0.20259102
0.71861178 -0.38984081 0.30502978
0.34797218 -0.08159398 0.14770433
0.55967557 -0.49394459 0.23756632
0.37481251 0.21057126 0.15909694
0.68019986 -0.78969556 0.28872555
0.35170898 -0.04165554 0.14929046
0.38971129 -0.19343056 0.16542143
0.36063868 -0.71175510 0.15308096
0.09051468 -0.46748704 0.03842093
0.37153995 0.26962313 0.15770778
0.39216349 -0.06766919 0.16646217
0.04449458 0.43210888 0.01888670
0.12166894 -0.68430156 0.05164503
0.01112616 -0.62137240 0.00472274
0.10528271 -0.38935286 0.04468954
0.64907920 -0.78412086 0.27551574
0.39248878 -0.20235607 0.16660039
0.38076058 -0.56394231 0.16162214
0.05145840 -0.05698026 0.02184264
0.45099893 -0.43082124 0.19143634
0.14097454 0.36123541 0.05983971
0.07354233 -0.06871526 0.03121665
0.03807089 0.16199295 0.01616002
0.54552853 -0.45640570 0.23156130
0.31879178 0.20702419 0.13531788
0.23425105 -0.51620013 0.09943296
0.17821094 -0.33871940 0.07564552
0.36462680 0.36504954 0.15477325
0.33031753 -0.30817345 0.14021048
0.17334329 -0.57261080 0.07357934
0.35123610 -0.01979992 0.14908972
0.03479932 -0.55189461 0.01477133
0.05575770 0.31273472 0.02366757
0.71545976 -0.42412779 0.30369186
0.10216706 -0.22021084 0.04336703
0.19119646 -0.44423205 0.08115750
0.72887343 -0.13655949 0.30938524
0.22216657 0.25854114 0.09430340
0.12230077 0.50759262 0.05191320
0.25117376 0.02767577 0.10661618
0.04891596 -0.78600925 0.02076345
0.65594453 -0.73900688 0.27842981
0.16243181 0.51545340 0.06894757
0.01991048 -0.52997220 0.00845144
0.36861771 -0.34074157 0.15646783
