ply
format ascii 1.0
element vertex 164
property float x
property float y
property float z
end_header
-0.23286906 0.23667391 0.14319862
-0.42461449 0.19034792 0.08018297
-0.34409380 0.42596775 0.01297284
-0.62916166 0.15332650 0.00758742
-0.53371888 0.07736836 0.08186203
-0.12330536 0.36173555 0.13648245
-0.63491839 0.07115617 0.04070028
-0.26747075 0.32714397 0.08900067
-0.29008251 0.45220041 0.02501046
-0.29205292 0.07933178 0.18573400
-0.06436894 0.20073254 0.23178911
-0.15361558 0.48831558 0.06849688
-0.13465475 0.42345151 0.10482091
-0.36317971 0.21911570 0.09433891
-0.21043931 0.52877206 0.02634162
-0.22395058 0.22773688 0.15093596
-0.10646797 0.19301797 0.21688937
-0.20418192 0.16349709 0.18733947
-0.16315706 0.29888627 0.14644819
-0.37378281 0.29610339 0.05638252
-0.16838829 0.07739623 0.24016017
-0.16691971 0.23959067 0.17051244
-0.60813403 0.13121545 0.02628106
-0.07999448 0.25140908 0.20305833
-0.57234585 0.11531626 0.04867920
-0.30435157 0.11753074 0.16385180
-0.49342236 0.18166535 0.05412830
-0.46144152 0.23824430 0.04346908
-0.32935065 0.42470986 0.01990672
-0.16805948 0.19206813 0.19061160
-0.02479402 0.52805048 0.10710058
-0.14276969 0.59721100 0.02600836
-0.04866539 0.45772439 0.12723102
-0.36971977 0.20745581 0.09655751
-0.47010881 0.05215589 0.12035228
-0.57109547 0.10017990 0.05578019
-0.18472697 0.11548378 0.21657558
-0.19045834 0.20812292 0.17394847
-0.48201191 0.12444960 0.08386662
-0.19713987 0.28074419 0.13958402
-0.00670298 0.72541130 0.02941712
-0.47441745 0.27891496 0.02022197
-0.24108037 0.05309754 0.21919002
-0.35784575 0.34242696 0.04321494
-0.48627821 0.22184953 0.03981083
-0.09291863 0.67695391 0.01305520
-0.27562252 0.29063594 0.10128848
-0.38894099 0.40568241 0.00232919
-0.26280981 0.45685044 0.03481376
-0.27733892 0.17413080 0.15103051
-0.16980314 0.61286604 0.00750979
-0.16064230 0.41230980 0.09838782
-0.07912003 0.27053761 0.19514824
-0.48375463 0.12870096 0.08126916
-0.43970427 0.30252275 0.02503442
-0.73366976 0.02847773 0.01640160
-0.24279049 0.53244907 0.01072920
-0.63458139 0.10992585 0.02404596
-0.31474838 0.23288582 0.10935900
-0.09326813 0.49042779 0.09373192
-0.26205805 0.39023519 0.06400642
-0.06809932 0.22769675 0.21848817
-0.06857072 0.33422628 0.17212120
-0.01457547 0.68392229 0.04398427
-0.35967448 0.41018209 0.01306164
-0.03298286 0.44837016 0.13808019
-0.11699501 0.16051692 0.22641146
-0.17271920 0.29740158 0.14294802
-0.16025166 0.33431494 0.13235480
-0.07424660 0.65016431 0.03275546
-0.09145477 0.60687858 0.04405581
-0.11414723 0.27688792 0.17721815
-0.15995274 0.15988494 0.20807050
-0.05206831 0.44537136 0.13110940
-0.28107858 0.26794925 0.10875515
-0.27941284 0.34695789 0.07523958
-0.20169771 0.08683125 0.22163774
-0.12903951 0.61024237 0.02631121
-0.00360584 0.79270816 0.00159728
-0.25627053 0.23428239 0.13409442
-0.21458936 0.24239081 0.14864242
-0.17152239 0.56415135 0.02787468
-0.67957693 0.02704685 0.04046220
-0.35507762 0.33611912 0.04714790
-0.65001118 0.04755919 0.04438544
-0.54945713 0.03135315 0.09498214
-0.55235767 0.08047327 0.07243963
-0.32822725 0.40972099 0.02688877
-0.05208481 0.43485096 0.13566108
-0.18621440 0.15671377 0.19806474
-0.50422215 0.16969343 0.05463621
-0.58235872 0.09838186 0.05167854
-0.65868527 0.13083990 0.00453796
-0.18354431 0.59066629 0.01117519
-0.10243889 0.36580765 0.14375992
-0.13448060 0.42601424 0.10378586
-0.39762485 0.12792136 0.11893041
-0.25566038 0.08466261 0.19919391
-0.07437939 0.49074399 0.10177993
-0.37102169 0.23882365 0.08240048
-0.36927724 0.10066071 0.14302760
-0.40210259 0.21567498 0.07896309
-0.46696329 0.10160070 0.10028907
-0.18808603 0.31001651 0.13082266
-0.12107264 0.11223818 0.24556525
-0.12630416 0.22606120 0.19397508
-0.07066724 0.60020769 0.05595435
-0.44260770 0.12676947 0.09993673
-0.45827064 0.16272002 0.07757064
-0.07862139 0.37328839 0.15083908
-0.34145981 0.10657362 0.15251970
-0.60556662 0.04255621 0.06581299
-0.35606870 0.10979077 0.14479499
-0.13687050 0.18256378 0.20824522
-0.36125877 0.08448666 0.15351114
-0.15145262 0.48537394 0.07070890
-0.31142715 0.17443812 0.13612580
-0.17002772 0.10217986 0.22871020
-0.16742525 0.17651080 0.19762793
-0.41200954 0.08657038 0.13061589
-0.44205347 0.23947798 0.05133608
-0.15712002 0.17316304 0.20354417
-0.67371160 0.06818386 0.02517767
-0.32852945 0.14970493 0.13943252
-0.16874994 0.24920353 0.16555378
-0.10413993 0.25003237 0.19319199
-0.05809976 0.44989923 0.12653373
-0.13663046 0.55930156 0.04509632
-0.14049274 0.44398478 0.09339341
-0.37352669 0.41058013 0.00688645
-0.08884346 0.19552229 0.22344138
-0.31680554 0.38915637 0.04074966
-0.37972629 0.21137072 0.09052482
-0.41704220 0.30970165 0.03174390
-0.12554377 0.43145990 0.10529866
-0.39968556 0.32359976 0.03324264
-0.35851008 0.43846759 0.00130905
-0.22692740 0.20635249 0.15891257
-0.27554393 0.31387255 0.09125324
-0.62900281 0.05450617 0.05047880
-0.24843308 0.28612918 0.11502368
-0.09804714 0.07566574 0.27139089
-0.36871803 0.39266109 0.01673522
-0.23863275 0.15038776 0.17809163
-0.17253697 0.45435280 0.07501485
-0.17425695 0.46566725 0.06936654
-0.02462584 0.68668717 0.03843104
-0.33965078 0.33955675 0.05234330
-0.22736087 0.30008331 0.11810813
-0.08540161 0.48170212 0.10092183
-0.42744446 0.28688669 0.03712276
-0.62679309 0.03273541 0.06087045
-0.01315082 0.77829683 0.00370604
-0.34537289 0.22165738 0.10095391
-0.48648909 0.13365881 0.07793579
-0.21625978 0.26987639 0.13600819
-0.07024220 0.13276044 0.25869858
-0.05711430 0.21862158 0.22718085
-0.14844839 0.50625533 0.06296206
-0.35971078 0.21528111 0.09750380
-0.20632748 0.32004020 0.11857453
-0.22154881 0.07953487 0.21619745
-0.21252145 0.46359447 0.05368324
-0.33996695 0.29254571 0.07257794
