ply
format ascii 1.0
element vertex 129
property float x
property float y
property float z
end_header
-0.34798861 0.47249043 0.02612294
-0.23966087 0.60188711 0.05299865
-0.68658388 0.14621475 0.04183970
-0.57928520 0.58847672 0.46912971
-0.38102564 0.52847499 0.13968174
-0.66988724 0.36312869 0.29724300
-0.62491053 0.32153514 0.18681107
-0.18339199 0.64479983 0.03596088
-0.13466083 0.68673307 0.02728901
-0.46211356 0.57633382 0.30417106
-0.35206804 0.67591482 0.29082185
-0.72623056 0.08862631 0.01895282
-0.49038157 0.42538470 0.14767487
-0.52841675 0.56867945 0.37898579
-0.63031292 0.24642257 0.09788665
-0.18957333 0.73197955 0.15505549
-0.34962851 0.53581733 0.10899659
-0.16258661 0.69063991 0.06789581
-0.74224424 0.15831000 0.12827106
-0.20890377 0.67269534 0.10408904
-0.14582108 0.70788366 0.06850578
-0.62345678 0.30151469 0.15941788
-0.64212817 0.22557655 0.08636677
-0.61604351 0.18898572 0.00641587
-0.31687990 0.56915921 0.10975323
-0.20192459 0.66326594 0.08315765
-0.32006407 0.55951935 0.10151816
-0.35667804 0.67597103 0.29677427
-0.43685442 0.62466991 0.33360881
-0.47920841 0.36201760 0.05258899
-0.04659868 0.76213139 0.01113428
-0.34202683 0.60889721 0.19252278
-0.34045637 0.67978787 0.28095016
-0.46653756 0.46508962 0.16790743
-0.26269761 0.65522623 0.15042631
-0.11008895 0.71154594 0.02759633
-0.20223111 0.60839742 0.01355669
-0.65139872 0.34432578 0.24967276
-0.45997515 0.37260625 0.04156158
-0.60670084 0.28997120 0.12331822
-0.45037255 0.35859087 0.01143371
-0.61641389 0.34435233 0.20507877
-0.56155097 0.47152475 0.29731899
-0.58292705 0.26751381 0.06434420
-0.16682912 0.70581299 0.09266306
-0.24440543 0.71433300 0.20249087
-0.13430677 0.69323480 0.03513118
-0.60681313 0.39245957 0.25419876
-0.48023355 0.40699133 0.11126657
-0.64477348 0.41980690 0.33750769
-0.52144212 0.60076404 0.41101697
-0.57931465 0.47403926 0.32318664
-0.53164059 0.58208483 0.40019867
-0.23998059 0.61770982 0.07359042
-0.32029259 0.52272499 0.05487367
-0.16317420 0.71185976 0.09571418
0.03266670 0.58935869 0.00000193
-0.63771969 0.28441235 0.15579592
-0.57369536 0.27009746 0.05586373
-0.17384067 0.66393876 0.04819109
-0.55773693 0.30350125 0.07811748
-0.35269874 0.60538083 0.20165066
-0.35141495 0.46665367 0.02304816
-0.54847437 0.49315810 0.30823427
-0.37408194 0.50893563 0.10589911
-0.27631634 0.63954139 0.14779076
-0.62532061 0.44815117 0.34884986
-0.54409289 0.38496253 0.16462716
-0.48835880 0.42928714 0.15007263
-0.49909168 0.48586252 0.23593329
-0.21534482 0.62603581 0.05278507
-0.58976352 0.41671693 0.26339316
-0.21771231 0.66323650 0.10325952
-0.44284934 0.53935456 0.23242475
-0.29558879 0.65387166 0.19065566
-0.45098126 0.40038657 0.06552608
-0.46329316 0.45372787 0.14927538
-0.20119081 0.71465027 0.14776933
-0.38617688 0.49592075 0.10472567
-0.08836996 0.73077387 0.02441854
-0.05009689 0.77963281 0.03792213
-0.31810758 0.56440949 0.10526043
-0.61388522 0.33307824 0.18747151
-0.64792264 0.23445791 0.10508772
-0.64363158 0.42994606 0.34898493
-0.23729005 0.67265826 0.14025238
-0.69558012 0.18698925 0.10532881
-0.44179714 0.49889427 0.17946994
-0.63139665 0.35339516 0.23572659
-0.35512668 0.66382021 0.27929524
-0.61946821 0.44959518 0.34322634
-0.23854870 0.56367767 0.00283880
-0.26851368 0.64153665 0.14038259
-0.45233425 0.59569865 0.31639868
-0.62632298 0.25858584 0.10831278
-0.54790670 0.57694918 0.41439712
-0.58784044 0.39311078 0.23082723
-0.49403852 0.61290532 0.39154774
-0.05704474 0.76497495 0.02808698
-0.48583406 0.39337102 0.10103627
-0.28734148 0.54561585 0.04204037
-0.40482610 0.46031040 0.08308963
-0.54965299 0.51351947 0.33571148
-0.41100618 0.61110812 0.28333586
-0.53923845 0.54814112 0.36659095
-0.50964344 0.37586650 0.10907907
-0.39480755 0.63792092 0.29687563
-0.65283132 0.29410732 0.18744002
-0.40342709 0.50660664 0.14036191
-0.27053127 0.64986771 0.15358371
-0.62733668 0.20143925 0.03670794
-0.60953397 0.54197711 0.44839960
-0.71578610 0.15248974 0.08709564
-0.69251204 0.25394106 0.18682083
-0.71161968 0.22796807 0.17806326
-0.70088351 0.21890308 0.15280426
-0.36918864 0.44067064 0.01257614
-0.04555554 0.76826233 0.01762439
-0.42398515 0.48977807 0.14511944
-0.39319006 0.62105352 0.27329561
-0.60494953 0.25268593 0.07352197
-0.60678560 0.21354596 0.02593596
-0.62934428 0.46380061 0.37394559
-0.61087251 0.37303612 0.23459987
-0.17667615 0.70977408 0.11027722
-0.63761199 0.32482424 0.20720917
-0.45758992 0.60021269 0.32886130
-0.57401246 0.28620565 0.07681633
-0.04967983 0.75902754 0.01110531
