ply
format ascii 1.0
element vertex 399
property float x
property float y
property float z
end_header
0.45583931 0.34218949 0.00344737
0.58196825 0.12484816 0.16309062
0.29800722 0.48461470 0.03041305
0.67750615 0.11481481 0.01343736
0.12821017 0.60689634 0.11357601
0.31724635 0.29821447 0.32298362
0.31969640 0.32164794 0.27768168
0.46063918 0.27017394 0.12109065
0.69547552 0.07787725 0.04663618
0.66519570 0.08021640 0.09553902
0.20601311 0.54253876 0.09004364
0.41915530 0.35873339 0.03869731
0.66714853 0.07714497 0.09749685
0.25745741 0.28603587 0.44894275
0.38640931 0.24302223 0.29853204
0.18189256 0.45429578 0.28670526
0.53248173 0.18827650 0.13868906
0.55747926 0.14608526 0.16878213
0.21329638 0.39945990 0.32771680
0.64259869 0.09197531 0.11450819
0.33214277 0.30552760 0.28411204
0.21739715 0.56278515 0.03468295
0.07478039 0.65853691 0.11670725
0.39580545 0.22572008 0.31236935
0.12096882 0.55295348 0.22066213
0.37517840 0.42174372 0.00538429
0.18414634 0.42467597 0.33460197
0.29021984 0.24846359 0.45736128
0.41158399 0.21309593 0.30684853
0.56100494 0.19576935 0.07565249
0.38397685 0.26307657 0.26768979
0.60168594 0.16796082 0.05312260
0.53026742 0.20886917 0.10652262
0.39464474 0.40070528 0.00813580
0.33416209 0.45875436 0.01239517
0.20217185 0.53826267 0.10425100
0.37750596 0.20567554 0.37948000
0.57686549 0.11163445 0.19514874
0.53031969 0.15231171 0.20542005
0.32847047 0.30039549 0.29952168
0.07195308 0.66560572 0.10928368
0.30832654 0.37417325 0.20565034
0.13279621 0.59366429 0.12870848
0.28161994 0.30257410 0.37770742
0.33366933 0.43644756 0.05229973
0.39511487 0.36402366 0.07151450
0.32511845 0.32153994 0.26838091
0.26474723 0.51811028 0.03000070
0.59264243 0.16677231 0.07103111
0.41312096 0.23092990 0.27294511
0.09797442 0.64300990 0.10328838
0.39905518 0.37848940 0.03929955
0.24790342 0.40218911 0.26237011
0.46616527 0.29201257 0.07319593
0.28159913 0.50923383 0.01604173
0.07618331 0.63728595 0.15144585
0.47534230 0.31402591 0.01860538
0.27439961 0.24514480 0.49085879
0.21897362 0.50935060 0.12544689
0.13491949 0.64833087 0.02931316
0.28593972 0.36184940 0.26640171
0.30527881 0.38912621 0.18481342
0.38506076 0.38783291 0.04743978
0.60313177 0.11273655 0.14724752
0.71812981 0.03770373 0.07729896
0.55073494 0.19302079 0.09843809
0.51748979 0.24437387 0.06674487
0.21255267 0.52684247 0.10607009
0.13721946 0.63133967 0.05502622
0.23873857 0.40173951 0.27919754
0.22119805 0.36877525 0.36759213
0.64486367 0.13404842 0.03690613
0.19176435 0.58064067 0.04829501
0.25975570 0.38810730 0.26627231
0.39104426 0.28083575 0.22423752
0.38635039 0.31600299 0.17090189
0.39113909 0.23520826 0.30393010
0.30912703 0.40734714 0.14618722
0.64005148 0.10820945 0.09055284
0.31024382 0.43032691 0.10401249
0.31113887 0.44583103 0.07531011
0.24564818 0.52570051 0.05014385
0.48036629 0.21311361 0.18643259
0.16108280 0.59579861 0.07546494
0.31444880 0.30016771 0.32446140
0.39951849 0.30328101 0.17012112
0.65966594 0.13751690 0.00492800
0.34065783 0.30909172 0.26297075
0.13942859 0.63198835 0.05002441
0.35738784 0.39793038 0.07820093
0.44114554 0.24387786 0.20123348
0.12051439 0.65043926 0.05083524
0.11075021 0.65095866 0.06701580
0.48144272 0.17868561 0.24480572
0.37479761 0.24660535 0.31258383
0.23880717 0.28303885 0.48683026
0.74863166 0.02661686 0.04331824
0.43047982 0.34033075 0.05108565
0.43605769 0.30684897 0.09992412
0.23769987 0.53911155 0.04058272
0.12865210 0.55180579 0.20922337
0.20475399 0.56173652 0.05864678
0.47276264 0.23868985 0.15497632
0.20281358 0.52637756 0.12392947
0.57687968 0.18838170 0.06079806
0.16784818 0.55260342 0.13922560
0.39528069 0.36582059 0.06807920
0.27252817 0.32204473 0.35954207
0.76414573 0.02842456 0.01300100
0.23045602 0.37549114 0.33963436
0.62548608 0.13537712 0.06849587
0.10569503 0.68399012 0.01805072
0.35369650 0.34900829 0.17028688
0.42395222 0.29263675 0.14598627
0.24419311 0.32023191 0.41230750
0.35162577 0.29531124 0.26789343
0.46756697 0.19956662 0.23254488
0.37980554 0.35511187 0.11390722
0.11973098 0.62360257 0.09917680
0.50562268 0.20350185 0.15905076
0.19117960 0.43323052 0.30731985
0.34922579 0.25840220 0.33669299
0.55836666 0.12674776 0.20107417
0.22112755 0.52761948 0.08970205
0.63425761 0.10297299 0.10985860
0.29908884 0.33536342 0.28974432
0.50405437 0.27793244 0.03152459
0.44792914 0.35023281 0.00321430
0.12908219 0.65790343 0.02277548
0.20961106 0.47687140 0.19867934
0.30387530 0.35132918 0.25342324
0.59047490 0.13256632 0.13469335
0.50767398 0.18910466 0.18065906
0.25322673 0.50703853 0.06954241
0.60582292 0.16225567 0.05586729
0.42670479 0.29330149 0.14000516
0.27022335 0.27467698 0.44648015
0.49063179 0.24863560 0.10629371
0.40812436 0.31795108 0.12938271
0.44002929 0.23793912 0.21358137
0.26584649 0.28318268 0.43925375
0.69658262 0.07895990 0.04280359
0.23306803 0.44764757 0.20877275
0.33344561 0.42515591 0.07245436
0.34744599 0.20796773 0.42807975
0.27131164 0.51896107 0.01702232
0.43017310 0.24554491 0.21752010
0.29751897 0.26166570 0.42147949
0.40681741 0.28185090 0.19485404
0.70115012 0.09294603 0.01033046
0.35254559 0.20919862 0.41699994
0.21028271 0.43810195 0.26535907
0.44676396 0.18242256 0.29896116
0.25568190 0.30192217 0.42424572
0.64941007 0.07408889 0.13389219
0.74973911 0.03790904 0.02161587
0.40383258 0.34389350 0.09148897
0.30361798 0.25682729 0.41927320
0.40891063 0.31070188 0.14069436
0.50644791 0.13967355 0.26932108
0.30338597 0.25941768 0.41514555
0.04097484 0.75124311 0.01361770
0.43301779 0.25041938 0.20400977
0.39341637 0.30513594 0.17755470
0.60648364 0.16297823 0.05344624
0.26112595 0.32861963 0.36799088
0.41672504 0.26290491 0.21067327
0.37552735 0.30752039 0.20469132
0.42210618 0.19931863 0.31254575
0.29235330 0.44542730 0.10889594
0.16881520 0.44599926 0.32411435
0.27799371 0.27144054 0.43854484
0.45635527 0.30980566 0.05922366
0.09253335 0.61801583 0.15655673
0.10805538 0.58863866 0.18080638
0.32890695 0.23286030 0.41695955
0.29323283 0.29991063 0.36204398
0.18176062 0.44889584 0.29638731
0.31004998 0.34720480 0.24983479
0.28991255 0.50421715 0.01027164
0.32343608 0.24042891 0.41328797
0.27326852 0.36617193 0.28101376
0.39847004 0.23860154 0.28516033
0.42677495 0.36260226 0.01858966
0.58177507 0.21360457 0.00808395
0.49480322 0.27959380 0.04480855
0.22656852 0.48915389 0.14750293
0.46841714 0.30940214 0.03881880
0.27250022 0.35818866 0.29633093
0.40847000 0.31490722 0.13410524
0.48757714 0.27349439 0.06813127
0.25935459 0.49589664 0.07831820
0.24617177 0.37503546 0.31292588
0.10398692 0.63094658 0.11387870
0.29268157 0.45585555 0.09006947
0.32984450 0.24044602 0.40204191
0.47637436 0.26736903 0.09845962
0.07435816 0.69375545 0.05580590
0.18925279 0.53716803 0.12877813
0.20670393 0.43858418 0.27077875
0.05335083 0.68977618 0.09953801
0.44861808 0.20314866 0.25944051
0.16256206 0.45828456 0.31355667
0.63046074 0.16061600 0.01561508
0.26907527 0.41130280 0.20936367
0.24968638 0.42027107 0.22760202
0.32787341 0.24919863 0.39017266
0.62764049 0.08678926 0.14976539
0.50070435 0.16552509 0.23412734
0.54767585 0.24880493 0.00615679
0.31624597 0.30561817 0.31177637
0.48452559 0.18590494 0.22677448
0.50442904 0.26859397 0.04721332
0.66584569 0.08289013 0.08972167
0.37631792 0.34601903 0.13592596
0.06714213 0.65912312 0.12904993
0.17417169 0.53783685 0.15400285
0.13223410 0.62916529 0.06755748
0.48710230 0.18941230 0.21612589
0.14533554 0.60378832 0.08904258
0.50674027 0.22319824 0.12262148
0.32806024 0.21501958 0.44966671
0.16341905 0.48520583 0.26493847
0.51016176 0.28398433 0.01024307
0.42554185 0.25812790 0.20360267
0.38044134 0.24594572 0.30386055
0.61270839 0.18563645 0.00289424
0.15304996 0.58591580 0.10682160
0.49227268 0.14748900 0.28045219
0.17698868 0.51301414 0.19251785
0.30972421 0.32898968 0.28228554
0.11633872 0.64374900 0.06985314
0.47577211 0.21655300 0.18845375
0.06056452 0.69972819 0.06949416
0.39056817 0.33319023 0.13343811
0.58556759 0.14038508 0.12959757
0.11172084 0.63687170 0.08997241
0.30035105 0.31182608 0.32873079
0.50061417 0.20203984 0.17037579
0.16537715 0.62508464 0.01669143
0.20018739 0.42280477 0.30980161
0.29466876 0.47422487 0.05444075
0.44963947 0.27263287 0.13603903
0.28233123 0.48317969 0.06036134
0.30402917 0.46790081 0.04912643
0.40749446 0.19058414 0.35340682
0.40918523 0.18695202 0.35680461
0.61493015 0.11592233 0.12102180
0.72193873 0.06897941 0.01589267
0.57106894 0.13359039 0.16686600
0.10501684 0.62768841 0.11777871
0.28643045 0.40181461 0.19559476
0.19726060 0.58408403 0.03264860
0.28579763 0.24310699 0.47447634
0.07266239 0.66535598 0.10847931
0.42213464 0.22662754 0.26469913
0.38589486 0.24854735 0.28976226
0.41700718 0.30197492 0.14179774
0.50603521 0.15130821 0.24968000
0.23720884 0.49599662 0.11690351
0.39434004 0.33331633 0.12661569
0.13977911 0.53718078 0.21534573
0.60216558 0.15364391 0.07734114
0.41706896 0.21092577 0.30104691
0.18786383 0.57703203 0.06143777
0.48256925 0.25629827 0.10699353
0.32242978 0.27426845 0.35582244
0.56934243 0.10928051 0.21243583
0.42269805 0.29685825 0.14079276
0.24730463 0.47681490 0.13280603
0.29687524 0.26238754 0.42134276
0.19365053 0.55037677 0.09796271
0.12347355 0.66723430 0.01626072
0.23325326 0.40957227 0.27508891
0.23121943 0.44225240 0.22145098
0.27995384 0.30140230 0.38267437
0.29864705 0.28260684 0.38285342
0.26653072 0.45263696 0.14147294
0.22013064 0.49712175 0.14482515
0.26965776 0.45882642 0.12516683
0.51463974 0.22438009 0.10672697
0.39598191 0.39295000 0.01936905
0.46923137 0.16414781 0.29162309
0.31871146 0.34962949 0.23043156
0.13483877 0.62398463 0.07206604
0.18851367 0.60935253 0.00373198
0.58004236 0.13969114 0.14048260
0.20866995 0.47761527 0.19902457
0.14616929 0.55052394 0.18080793
0.67806095 0.06039018 0.10772237
0.16493015 0.55669302 0.13717499
0.54427886 0.13338104 0.21412134
0.50155860 0.26066610 0.06611296
0.05811206 0.68693691 0.09617411
0.33433950 0.28300673 0.31968382
0.44748545 0.32719839 0.04430653
0.69367564 0.10109210 0.00915494
0.01745470 0.76463938 0.03133671
0.63850087 0.11745526 0.07708448
0.21016398 0.45352444 0.23857407
0.50895494 0.24218541 0.08551319
0.22996362 0.36901686 0.35182759
0.27429572 0.32291058 0.35493299
0.35276222 0.37569588 0.12521251
0.42665562 0.26829597 0.18385679
0.20971473 0.41546786 0.30596790
0.24011046 0.36751205 0.33670220
0.52483350 0.24064903 0.06041102
0.45745435 0.15786476 0.32323229
0.34238660 0.41452810 0.07540677
0.43599588 0.18368134 0.31560451
0.18079717 0.46643153 0.26738217
0.26730245 0.31724781 0.37708387
0.60857552 0.15056261 0.07151516
0.58343291 0.13446212 0.14370036
0.40064558 0.21133372 0.32907742
0.35045072 0.44586697 0.00644219
0.34343696 0.37541345 0.14202823
0.71778774 0.05590279 0.04604500
0.65712082 0.07036575 0.12691291
0.42125988 0.18271089 0.34309426
0.36160994 0.43380007 0.00803084
0.36063862 0.34042546 0.17315850
0.32414550 0.46028870 0.02724113
0.45014563 0.20046116 0.26147068
0.07510362 0.64234024 0.14448941
0.56917870 0.16779573 0.11030689
0.20103027 0.49851102 0.17582344
0.30003780 0.23586644 0.46222547
0.06804773 0.71832550 0.02384732
0.41007596 0.28276214 0.18755589
0.69485068 0.09142915 0.02401076
0.53811610 0.20020705 0.10794627
0.29996368 0.34154484 0.27739424
0.32212314 0.30485201 0.30283099
0.33393064 0.42040619 0.07991859
0.61607224 0.18355493 0.00064984
0.37354511 0.40532285 0.03698335
0.31300947 0.28762886 0.34892634
0.32441956 0.31003010 0.28974897
0.33858410 0.24306695 0.38215846
0.08541214 0.61583406 0.17283894
0.41223562 0.30354020 0.14740951
0.33632874 0.37207451 0.16031320
0.21384656 0.58190405 0.00743475
0.41461235 0.34372872 0.07291025
0.39222747 0.34090236 0.11703586
0.29123068 0.30760139 0.35208759
0.18699518 0.42898765 0.32206950
0.63746095 0.14396530 0.03250573
0.27717897 0.45958748 0.11067093
0.49934575 0.19811437 0.17946628
0.53737909 0.16888735 0.16405316
0.29206020 0.50454563 0.00593783
0.15776657 0.59935814 0.07503911
0.45322224 0.34650806 0.00046930
0.28525940 0.37065735 0.25217655
0.32346734 0.26518467 0.36990514
0.37638885 0.24028999 0.32085210
0.64471322 0.09588583 0.10396291
0.28217089 0.25114909 0.46674848
0.24291351 0.28388411 0.47816387
0.05040515 0.72555155 0.04207871
0.34894869 0.30331555 0.25856948
0.32151100 0.41470477 0.11163476
0.23852518 0.32066584 0.42146817
0.29028672 0.40445772 0.18421939
0.38995463 0.36040333 0.08688257
0.33899650 0.38888913 0.12621444
0.33425096 0.23357098 0.40636247
0.58751476 0.16191271 0.08851111
0.11993088 0.64152819 0.06745305
0.37773451 0.20963846 0.37214395
0.60856783 0.16743453 0.04199875
0.59933335 0.13087353 0.12215175
0.26282957 0.24987294 0.50283360
0.15715589 0.46315056 0.31450206
0.28941482 0.35972932 0.26403013
0.42120978 0.29204032 0.15183008
0.54679185 0.19294329 0.10547498
0.13715233 0.61099714 0.09074794
0.25853446 0.33892491 0.35449001
0.35750520 0.43663833 0.01024746
0.35111180 0.40508223 0.07666804
0.24557272 0.41392395 0.24591070
0.67919272 0.07383887 0.08220309
0.30545288 0.42870262 0.11524067
0.33463347 0.38963223 0.13255019
0.25525871 0.30308613 0.42294922
0.39385262 0.31998354 0.15080436
0.33307520 0.23533878 0.40532628
0.30711502 0.29633281 0.34400907
0.03947227 0.72138369 0.06850833
0.25674894 0.32948259 0.37414125
0.75796723 0.02084935 0.03707324
0.30270901 0.34165162 0.27240244
0.31014997 0.31236407 0.31063890
0.31259346 0.37104520 0.20365711
0.23020694 0.45539501 0.20022058
