ply
format ascii 1.0
element vertex 369
property float x
property float y
property float z
end_header
0.10869666 0.69669563 0.01139729
0.52193260 0.39224547 0.24128832
0.58310252 0.30646992 0.18929064
0.41305259 0.57063520 0.38818043
0.59975928 0.20089768 0.00139042
0.36284980 0.51353645 0.16142502
0.64177686 0.26226461 0.21986720
0.50360096 0.47152090 0.37007821
0.56155992 0.41913411 0.38185340
0.62677705 0.25201431 0.16650751
0.61913204 0.18618074 0.01122935
0.19487734 0.68466812 0.16810158
0.38476080 0.48758614 0.15288891
0.47421944 0.46739131 0.29926068
0.48703852 0.31927118 0.01333606
0.25250980 0.60469723 0.12089448
0.29101700 0.53936446 0.06420555
0.72148764 0.10950985 0.06550745
0.23243774 0.62832296 0.12840444
0.51218748 0.43089458 0.30236983
0.58155018 0.22690894 0.01787824
0.55693662 0.27753124 0.07284112
0.34707153 0.45905298 0.01294469
0.20843644 0.61480379 0.04911440
0.15972769 0.71516651 0.15827233
0.62048942 0.26935208 0.18985915
0.76034784 0.07479774 0.07427335
0.65230900 0.19491573 0.09979955
0.35417953 0.59159756 0.30806559
0.40233636 0.57339108 0.37135813
0.46378416 0.49461761 0.33474439
0.20854738 0.60349220 0.02544468
0.55239254 0.43636265 0.39888874
0.49682337 0.33962277 0.07702171
0.52332324 0.49442622 0.46016118
0.59417856 0.23547602 0.06266949
0.23379871 0.60752642 0.08733226
0.11419266 0.73406941 0.10199194
0.45972481 0.49637792 0.32988599
0.25507998 0.56149387 0.03502661
0.35556939 0.56164998 0.24771582
0.27064234 0.56046534 0.06574018
0.68212700 0.21952841 0.21482490
0.55661625 0.42127752 0.37593576
0.42002890 0.53589958 0.32951787
0.59879798 0.35346773 0.32177693
0.64935982 0.24577618 0.20104775
0.42586958 0.50196427 0.27014661
0.44722787 0.48650348 0.28260958
0.76096076 0.04012583 0.00229830
0.23331743 0.58796602 0.04497924
0.53259575 0.41137394 0.30424559
0.27883244 0.60700619 0.18140043
0.24381179 0.58279079 0.05621990
0.44518465 0.37021321 0.03254154
0.69277394 0.14642745 0.08284419
0.29348600 0.56984937 0.13384528
0.53291887 0.34519100 0.16506739
0.46753788 0.41059238 0.16511047
0.34323621 0.50850785 0.10934987
0.15136528 0.65497476 0.01340011
0.04522154 0.76653957 0.02485616
0.40544710 0.46170902 0.14191942
0.41277161 0.57454932 0.39585811
0.66906667 0.14063296 0.02049976
0.47746313 0.50390881 0.38328627
0.22021241 0.58673978 0.01469371
0.33758548 0.50097042 0.08148023
0.20564900 0.66194570 0.14284644
0.67331070 0.20535980 0.16625215
0.12705705 0.70571029 0.06924754
0.18708999 0.67373425 0.12853886
0.61471605 0.20011339 0.03134032
0.44155651 0.48902875 0.27596107
0.42551032 0.49412039 0.25281134
0.41811040 0.44988990 0.14370336
0.13239644 0.72889572 0.12952776
0.70085257 0.13886116 0.08392690
0.47382534 0.51431000 0.39757910
0.52611703 0.48687157 0.45010027
0.49336448 0.50472295 0.41861030
0.41979307 0.42368135 0.09187423
0.66223484 0.24551615 0.22770634
0.46731240 0.46093547 0.27102149
0.53500921 0.46841520 0.42988867
0.68931025 0.12599409 0.03234391
0.31512633 0.59546065 0.23369998
0.50650638 0.49898344 0.43425351
0.54979515 0.43704885 0.39484987
0.30853316 0.63452595 0.30232188
0.41507477 0.51723433 0.27960405
0.17221522 0.65257233 0.05238434
0.52176780 0.36821064 0.19014858
0.66950059 0.17871664 0.10189694
0.55585253 0.37946510 0.28596145
0.24201386 0.58774048 0.06288032
0.66782922 0.23294465 0.21296193
0.64294636 0.27441829 0.24802241
0.30090806 0.59726739 0.20747122
0.27103785 0.55294877 0.05069179
0.62889099 0.23065536 0.12583815
0.50569236 0.33664811 0.08947787
0.18389498 0.68451238 0.14456385
0.42477056 0.56722337 0.40573335
0.39568716 0.55275041 0.31368762
0.40461764 0.54794055 0.32239562
0.56145954 0.24741209 0.01875006
0.70207781 0.10064591 0.00575800
0.20736170 0.68622792 0.19778036
0.63452202 0.19089913 0.05372321
0.36260775 0.55822337 0.25534824
0.46935442 0.49462163 0.34652433
0.56621903 0.28137714 0.10058449
0.18382809 0.62151551 0.01129442
0.38624194 0.55556983 0.29968572
0.21789020 0.67505336 0.19641510
0.49324390 0.43796957 0.27728850
0.51426798 0.32142717 0.07543465
0.13671675 0.70198315 0.08178460
0.37540242 0.46861511 0.09302187
0.60856646 0.32635045 0.28511453
0.37460077 0.47433412 0.10341349
0.72797555 0.12848295 0.11931277
0.44079188 0.50233638 0.30246761
0.32032105 0.50470334 0.05288473
0.52302390 0.41111046 0.28346106
0.60240871 0.34376204 0.30889669
0.23043545 0.65165293 0.17347530
0.28853133 0.64609319 0.28449750
0.56186193 0.37542820 0.29012978
0.62430614 0.17782260 0.00450068
0.57647747 0.25577161 0.06815233
0.30314210 0.51208651 0.03218392
0.48506474 0.34503919 0.06361910
0.54473346 0.44896495 0.40933505
0.58130521 0.32399163 0.22252008
0.57868212 0.39213455 0.36098003
0.60065091 0.28058714 0.17167793
0.25964433 0.61166239 0.15069082
0.46119040 0.44054085 0.21498510
0.30392721 0.61342072 0.24798754
0.47612005 0.52314436 0.42109764
0.26880598 0.61709571 0.18153369
0.47824156 0.50068718 0.37812310
0.45493373 0.43685886 0.19398230
0.16821213 0.70164871 0.14763556
0.17987201 0.65971351 0.08365593
0.45307449 0.47866505 0.27840027
0.49666128 0.30570370 0.00499990
0.65640181 0.20065302 0.12057295
0.27119872 0.61338341 0.17874512
0.59518951 0.30063814 0.20250942
0.06697152 0.76484507 0.06723859
0.31586963 0.54618967 0.13114858
0.40025365 0.43263131 0.06949605
0.51669180 0.38730812 0.21977940
0.47604796 0.37501362 0.10790771
0.47908011 0.43856782 0.24862108
0.31429249 0.61649871 0.27639666
0.26807043 0.58021808 0.10204754
0.69427234 0.13600148 0.06397815
0.30353513 0.56259054 0.13974185
0.69185776 0.18001857 0.15189435
0.53852820 0.38238630 0.25552404
0.46493885 0.54059297 0.43434232
0.57865536 0.23783804 0.03485677
0.63543344 0.30556056 0.29795694
0.65968663 0.22762921 0.18452181
0.36029094 0.55677927 0.24740051
0.38582724 0.53724205 0.26007810
0.22239859 0.57787353 0.00057720
0.34460175 0.53709424 0.17264581
0.49751428 0.42608893 0.26120606
0.50706625 0.31515560 0.04696232
0.59904808 0.31574112 0.24257983
0.38508624 0.52015954 0.22241242
0.70213211 0.11660216 0.03959221
0.20652176 0.62229651 0.06090213
0.27099821 0.61139166 0.17411236
0.58520979 0.36041850 0.30775040
0.40326977 0.51085532 0.24117664
0.41371751 0.55770135 0.36225301
0.61531299 0.31332374 0.27184305
0.61026436 0.24223530 0.11094681
0.45477241 0.42559263 0.16983309
0.47803953 0.42848432 0.22511305
0.73108399 0.09591243 0.05705214
0.61425585 0.26416278 0.16571984
0.33356246 0.51566076 0.10402291
0.40507725 0.48245606 0.18498144
0.40635663 0.41114396 0.03698509
0.34602609 0.48987100 0.07586144
0.36720356 0.57638174 0.30343372
0.41882762 0.51161933 0.27566889
0.63494033 0.28394452 0.25123486
0.10978148 0.71418786 0.05065522
0.45173535 0.38653466 0.08087602
0.59115559 0.36184186 0.32332331
0.48432302 0.48483467 0.35747439
0.39790180 0.55844116 0.33039385
0.53017545 0.34483165 0.15851039
0.22310752 0.59399909 0.03615250
0.52828658 0.27751338 0.01225885
0.14312629 0.71456122 0.12191030
0.56006581 0.35073742 0.23415643
0.65319282 0.22402899 0.16319066
0.66901857 0.17150724 0.08564306
0.53862876 0.34709087 0.18114863
0.12622097 0.70561439 0.06727806
0.65325916 0.21794425 0.15047234
0.18048392 0.64171469 0.04691323
0.44815993 0.46925741 0.24813381
0.66430008 0.17828706 0.08999912
0.64176685 0.18005820 0.04612373
0.42185479 0.49328443 0.24331971
0.40891930 0.54331982 0.32172132
0.51559824 0.45103413 0.35213763
0.31302220 0.54868579 0.13040613
0.16468494 0.64556348 0.02165949
0.16334268 0.66731352 0.06478612
0.23473310 0.61291504 0.10069433
0.64044023 0.21435988 0.11580818
0.28259072 0.62490839 0.22717449
0.64619499 0.17161296 0.03763465
0.47742209 0.50808412 0.39202303
0.47886470 0.32507554 0.00832881
0.43879196 0.38003621 0.03979062
0.59304172 0.20853773 0.00333980
0.63030159 0.19577084 0.05509954
0.65002382 0.23053537 0.17024332
0.08289520 0.75679833 0.08388444
0.65609008 0.26370251 0.25315315
0.48974162 0.34385729 0.07100482
0.57355857 0.39337304 0.35276979
0.67162579 0.15862659 0.06393274
0.73222065 0.07161682 0.00811155
0.65060288 0.23056342 0.17152636
0.09309746 0.71870130 0.02493573
0.25742751 0.66518545 0.25911406
0.34678325 0.48249024 0.06186415
0.32355195 0.55106455 0.15768504
0.62826985 0.20410474 0.06841747
0.57481658 0.32759154 0.21641555
0.51697475 0.46603391 0.38674495
0.53337222 0.34159681 0.15843008
0.15003608 0.67255920 0.04775140
0.52440012 0.39109540 0.24407236
0.22729520 0.64261496 0.14773963
0.23480482 0.61293930 0.10089707
0.41490689 0.47467196 0.18930417
0.44196397 0.43738648 0.16768904
0.42762420 0.52963823 0.33233684
0.55497575 0.44818404 0.42932934
0.61583787 0.31950656 0.28601807
0.38493836 0.57514620 0.33830082
0.45203570 0.35396680 0.01268686
0.65678447 0.19491500 0.10925578
0.24848293 0.56550467 0.02956134
0.25051132 0.54999560 0.00107336
0.59637749 0.25924113 0.11753785
0.45523334 0.51077873 0.35082701
0.36926174 0.54132336 0.23369586
0.53938615 0.32058802 0.12674224
0.31660640 0.60587722 0.25884056
0.53969544 0.26566803 0.01133644
0.34581086 0.57810432 0.26186574
0.69758725 0.15087818 0.10242142
0.50847882 0.35015371 0.12390698
0.71952444 0.14163572 0.12924846
0.54853994 0.36085573 0.23118186
0.18288694 0.70446730 0.18460357
0.63380963 0.32017654 0.32541272
0.21212301 0.66321629 0.15921278
0.43880016 0.44174394 0.17021152
0.69416600 0.11948382 0.02884748
0.38581565 0.59433222 0.38069972
0.55814278 0.34707996 0.22236356
0.39440015 0.57460999 0.35716280
0.34665725 0.60083210 0.31168398
0.35851976 0.56788033 0.26711693
0.63494051 0.31600323 0.31898317
0.31804681 0.50092095 0.04008561
0.57872438 0.34797701 0.26775312
0.51001209 0.48781618 0.41806260
0.35630533 0.57989508 0.28782761
0.24904560 0.55557221 0.00976064
0.54557759 0.28554329 0.06576813
0.53234667 0.31151286 0.09268798
0.51270032 0.52414161 0.50050849
0.63441753 0.18062627 0.03179331
0.41786554 0.51703042 0.28507072
0.49313343 0.39316264 0.18236680
0.43713310 0.46744928 0.22101033
0.78599191 0.02365756 0.02039377
0.26647547 0.53802818 0.00951942
0.49033216 0.34310177 0.07065614
0.51287717 0.34203279 0.11604033
0.56229913 0.37499654 0.29014158
0.49312374 0.36322913 0.11908948
0.51680267 0.30438417 0.04477504
0.38892987 0.54919332 0.29189074
0.62263304 0.28268817 0.22257154
0.24913789 0.60140544 0.10681255
0.46910372 0.44295567 0.23681106
0.29488429 0.53912687 0.07187605
0.34507707 0.57989454 0.26409826
0.27282476 0.65361559 0.26720226
0.34119084 0.60659599 0.31231260
0.03867429 0.76630908 0.01053324
0.58294547 0.38064408 0.34570724
0.37857011 0.56427288 0.30186498
0.41847214 0.44022140 0.12403591
0.22295813 0.65860975 0.17237535
0.55716175 0.32621890 0.17620575
0.52749568 0.39519405 0.25927550
0.08837134 0.74237192 0.06497026
0.61682808 0.20544185 0.04706394
0.53146785 0.27606723 0.01592562
0.34964323 0.58294684 0.28019798
0.62202352 0.34164497 0.34587389
0.49094966 0.36850935 0.12565355
0.42973796 0.45714301 0.18360282
0.53601295 0.29275292 0.06079146
0.45024252 0.48106986 0.27749765
0.09062806 0.74519956 0.07571481
0.40853834 0.52890384 0.29045165
0.39974055 0.51865715 0.25020576
0.44265383 0.43466085 0.16338693
0.53117043 0.27295953 0.00872966
0.53764743 0.40535483 0.30220109
0.52903634 0.41783404 0.31037548
0.21933889 0.66568202 0.17967248
0.56515473 0.32438523 0.18922196
0.59842879 0.25217745 0.10694550
0.35378662 0.54527950 0.20935324
0.29757205 0.50855017 0.01293978
0.70414138 0.13514563 0.08302521
0.66472423 0.14268219 0.01565371
0.65287572 0.19750661 0.10647225
0.55105138 0.25622925 0.01538780
0.34207445 0.52445519 0.14059547
0.56875575 0.31866905 0.18475215
0.26329905 0.60470593 0.14371331
0.28884828 0.52237338 0.02371621
0.12162367 0.70615286 0.05870074
0.60619044 0.25788966 0.13541903
0.71141827 0.13413459 0.09626649
0.31864730 0.55937326 0.16487870
0.57580245 0.42157969 0.41711965
0.06873410 0.74365097 0.02617477
0.37990054 0.50151688 0.17205708
0.55634063 0.42624670 0.38585445
0.50862193 0.42931145 0.29148933
0.46115270 0.53072673 0.40549129
0.36023515 0.56626296 0.26732406
0.59184045 0.32664520 0.25039127
0.71547902 0.13030013 0.09674459
0.15873244 0.65777957 0.03489603
0.20074438 0.62239569 0.04890278
0.47474167 0.34209189 0.03557551
0.27750692 0.60460150 0.17351750
0.74888778 0.05563981 0.00956992
0.37877786 0.47519842 0.11406723
0.56351990 0.32633162 0.18988036
0.42822516 0.47906297 0.22672826
0.45511144 0.54121470 0.41488835
0.49656624 0.41115630 0.22764620
0.58481365 0.30995801 0.20027788
0.65795273 0.17555609 0.07081445
