ply
format ascii 1.0
element vertex 1098
property float x
property float y
property float z
end_header
-0.07628935 0.58600181 0.00000056
-0.00333164 -0.45261475 0.00000041
-0.10902071 -0.42836985 -0.00000019
-0.11198838 -0.64100331 -0.00000048
-0.01803405 -0.50175035 0.00000026
-0.21468797 0.40495020 -0.13697456
-0.27442735 -0.36623293 -0.00000111
-0.05013853 -0.57157731 -0.00000002
-0.29421487 -0.19614130 -0.00000102
-0.25432992 0.19514728 -0.01016122
-0.29245663 -0.67212313 -0.00000161
-0.34103504 -0.57874036 -0.00000178
-0.13575369 0.47225487 0.12716983
-0.35743934 -0.33774501 -0.00000158
-0.10877214 -0.50174981 -0.00000028
-0.28258541 -0.75471282 -0.00000165
-0.00986073 0.26378909 -0.00000709
-0.44296941 -0.62726450 -0.00000246
-0.00028289 -0.27903172 0.00000065
-0.10260851 0.60864896 -0.06264195
-0.11355815 -0.05065112 0.00000025
-0.31037444 -0.32057059 -0.00000127
-0.10139838 -0.07085083 0.00000030
-0.17376950 0.48100483 -0.11171228
-0.30506918 0.06348397 0.26955837
-0.03114228 0.60514283 -0.00000047
-0.58371413 -0.71082866 -0.00000341
-0.29777339 0.12489280 -0.04864489
-0.16576959 0.10885536 -0.00000509
-0.29342467 -0.42951974 -0.00000131
-0.27722996 0.28162330 -0.16771695
-0.56027347 -0.29289323 -0.28863963
-0.22860698 0.26017308 -0.01341337
-0.52424282 -0.76676899 -0.00000312
-0.23795706 0.27033690 -0.04979740
-0.48304382 -0.36619040 0.33774978
-0.42054170 -0.21529622 0.29872167
-0.21013983 0.41684774 -0.13799430
-0.35077325 0.02622006 -0.08118531
-0.40448722 -0.17653319 0.21203156
-0.43737662 -0.05123352 -0.22747280
-0.53780669 -0.49316958 -0.00576647
-0.47305697 -0.34207425 0.16983783
-0.52660453 -0.47135258 0.23778173
-0.34152585 -0.17526884 -0.00000128
-0.26989689 -0.57192600 -0.00000134
-0.62506688 -0.57252038 -0.15170790
-0.36203718 -0.58713382 -0.00000192
-0.56845641 -0.57342857 -0.00000315
-0.31483415 -0.79994965 -0.00000190
-0.41749689 -0.12925327 -0.08741956
-0.15517256 0.05744317 -0.00000631
-0.08353667 0.39116049 -0.00000263
-0.40721989 -0.18313007 0.20237432
-0.69206840 -0.72546929 -0.16149461
-0.40447238 -0.17650534 0.39081934
-0.06861070 0.63435531 0.06952139
-0.13950308 -0.10108836 0.00000003
-0.64358586 -0.75376350 0.11364461
-0.42791501 0.01929728 -0.28047508
-0.20887175 -0.56865966 -0.00000097
-0.45292822 -0.43734816 -0.00000228
-0.27370623 0.13919912 0.28129137
-0.60247451 -0.65451437 0.20111103
-0.60781485 -0.66740680 0.14113316
-0.50676477 -0.17484805 -0.27626485
-0.25856888 0.17574830 0.22144955
-0.54176795 -0.46644899 -0.04609301
-0.09115310 0.20382458 -0.00000568
-0.60005361 -0.64121646 -0.00824283
-0.00291182 0.33178586 -0.00000611
-0.49372584 -0.48755729 -0.00000259
-0.41162559 -0.19377542 0.40456289
-0.09952602 -0.27171788 0.00000006
-0.33397922 0.16357741 -0.18878588
-0.39307860 -0.61452979 -0.00000214
-0.49516338 -0.18179803 -0.23741211
-0.68822652 -0.78594089 -0.08397641
-0.26016319 0.09772921 -0.00000244
-0.20892379 -0.67477840 -0.00000110
-0.40641961 -0.54676658 -0.00000214
-0.00057197 -0.08520117 0.00000090
-0.04675725 0.66427839 0.00000104
-0.16993922 -0.75058472 -0.00000096
-0.34025255 0.04968195 -0.07903253
-0.18566063 0.46959740 -0.13093968
-0.25346172 0.27541050 -0.09703784
-0.47158340 -0.46428221 -0.00000243
-0.37940189 -0.56135756 -0.00000199
-0.41165623 -0.15689929 -0.04102175
-0.21496686 -0.23901729 -0.00000060
-0.50963545 -0.15254208 -0.30875865
-0.16997278 -0.36196524 -0.00000048
-0.42369816 -0.69542462 -0.00000243
-0.17358686 -0.21845394 -0.00000032
-0.25105643 0.31181085 -0.13104014
-0.49517435 -0.43709812 -0.00000254
-0.28528544 -0.50855881 -0.00000136
-0.26381412 0.04167212 -0.00000331
-0.19483057 0.32962677 0.19459607
-0.38355419 -0.41346937 -0.00000183
-0.05782283 -0.72149539 -0.00000025
-0.29812467 0.02237197 -0.00000261
-0.21923669 -0.05811203 -0.00000040
-0.60213929 -0.65370518 0.20178089
-0.18285990 -0.47936112 -0.00000070
-0.07390115 -0.29784393 0.00000018
-0.16766541 -0.33808067 -0.00000043
-0.36189941 -0.07372164 0.35395566
-0.13931222 0.46366215 0.14937393
-0.49455297 -0.39397347 0.23785269
-0.08848352 0.58676732 -0.00042260
-0.60656446 -0.62415797 -0.04467170
-0.06350053 0.29995272 -0.00000483
-0.03674394 0.33636284 -0.00000500
-0.00688746 0.18559749 -0.00000854
-0.11405279 0.50400555 0.00000026
-0.04564233 0.53705299 -0.00000122
-0.45840707 -0.30671051 0.27005470
-0.00540253 -0.60840821 0.00000021
-0.01870054 -0.28739116 0.00000053
-0.40867764 -0.14424033 -0.04709913
-0.01940298 0.46591401 -0.00000326
-0.55694681 -0.65690547 -0.00000318
-0.44107500 -0.26486772 0.28628713
-0.18689109 -0.36568859 -0.00000059
-0.13465926 0.04671622 -0.00000712
-0.61983979 -0.69643676 0.14532658
-0.00576366 0.59160817 -0.00000147
-0.40679511 -0.18211073 0.34129655
-0.17129162 -0.50882715 -0.00000067
-0.23201776 0.11949574 -0.00000291
-0.02251760 0.13475084 -0.00000896
-0.54695237 -0.52047467 0.17428873
-0.07738242 0.42668355 -0.00000220
-0.42610213 -0.07695041 -0.16863923
-0.12282648 -0.34564430 -0.00000017
-0.01069805 -0.05205366 0.00000087
-0.34764376 0.11174434 -0.16784176
-0.09180444 0.19585209 -0.00000580
-0.45844811 -0.21808656 -0.09856723
-0.39641175 -0.40204331 -0.00000190
-0.34613922 -0.17405117 -0.00000131
-0.28319249 0.11629700 0.28799522
-0.27860814 0.23261315 -0.11694396
-0.21386705 -0.78677338 -0.00000127
-0.32003200 0.22227834 -0.21660461
-0.15223733 -0.31322482 -0.00000031
-0.64102131 -0.67930579 -0.07583264
-0.13314462 -0.28199527 -0.00000016
-0.33510169 -0.00901898 0.25452349
-0.45384184 -0.60471368 -0.00000250
-0.28411233 0.24421106 -0.14460276
-0.47937265 -0.07098088 -0.31820738
-0.00716116 0.16032562 -0.00000898
-0.27033958 0.14732981 0.24416202
-0.51773345 -0.44993654 0.28945398
-0.11681871 -0.70606482 -0.00000059
-0.39976615 -0.16513957 0.30461961
-0.45012930 -0.59280127 -0.00000246
-0.50323713 -0.56869203 -0.00000275
-0.10313438 0.27362388 -0.00000410
-0.00271932 -0.06010639 0.00000091
-0.44550440 -0.60760391 -0.00000245
-0.48553997 -0.37221307 0.21493319
-0.06797955 0.47605982 -0.00000162
-0.42620131 -0.22896214 0.35119256
-0.40329039 -0.09407344 -0.08840074
-0.29502010 -0.18625176 -0.00000101
-0.36876345 -0.09029336 0.36256284
-0.02650150 -0.25387913 0.00000052
-0.20933942 -0.70100343 -0.00000114
-0.33029640 0.16931388 -0.18527991
-0.10562923 0.59061086 -0.05069914
-0.03304100 0.64809638 0.00000034
-0.33177480 -0.00099019 0.29148248
-0.10821374 0.55827087 -0.02169051
-0.20944168 -0.18706572 -0.00000050
-0.25034058 -0.21813191 -0.00000078
-0.01611877 -0.46114463 0.00000033
-0.05321041 -0.07811670 0.00000058
-0.34030068 -0.12653545 -0.00000121
-0.50545257 -0.42028806 0.24879938
-0.00107411 -0.72094792 0.00000009
-0.42916840 -0.74137157 -0.00000252
-0.38428515 -0.12776543 0.35864013
-0.43609047 -0.14465161 -0.12019513
-0.30588081 0.18416518 -0.13627492
-0.46819276 -0.33033544 0.27202058
-0.07112878 -0.77095312 -0.00000039
-0.51814318 -0.24670050 -0.22693674
-0.25845963 0.22103713 -0.05001642
-0.55925298 -0.27828750 -0.30213457
-0.38130480 -0.00711507 -0.12605710
-0.17886555 -0.76157308 -0.00000103
-0.13122553 0.53966892 -0.06276029
-0.02578760 -0.75554490 -0.00000010
-0.48222193 -0.24174412 -0.13606280
-0.13072948 0.57001936 -0.09516142
-0.17254010 -0.18714617 -0.00000028
-0.26006839 0.07820147 -0.00000278
-0.13283709 0.56218374 -0.09210779
-0.00235597 -0.41131902 0.00000050
-0.08584250 -0.49623829 -0.00000014
-0.26153532 0.23458770 -0.07332934
-0.49572751 -0.46048740 -0.00000257
-0.40433300 -0.79933488 -0.00000244
-0.40956199 -0.18879282 0.39141667
-0.11661145 0.10385113 -0.00000666
-0.44076023 -0.26410592 0.24473079
-0.56626564 -0.56710058 0.19490746
-0.56133986 -0.79046375 -0.00000338
-0.37955153 -0.69563478 -0.00000216
-0.24604087 0.08671758 -0.00000306
-0.24267198 -0.06318365 -0.00000054
-0.19760031 -0.06253694 -0.00000027
-0.12831634 0.44625866 -0.00000032
-0.37309992 -0.10075573 0.27724296
-0.34597132 -0.73523051 -0.00000201
-0.39247045 -0.14752623 0.30639476
-0.26616532 0.03855147 -0.00000329
-0.26737404 0.15930194 -0.00532148
-0.21904722 -0.47736660 -0.00000092
-0.38080052 -0.25509945 -0.00000162
-0.09883487 0.56138718 0.08500524
-0.29628217 0.03516838 -0.00000244
-0.24398839 -0.68595636 -0.00000133
-0.44287586 -0.47213545 -0.00000226
-0.16306978 0.48144349 -0.08349071
-0.06707503 0.57498527 0.00000009
-0.08561516 0.23797351 -0.00000525
-0.20931306 0.29466233 0.20670588
-0.05303679 0.06148484 -0.00000932
-0.10390013 -0.13460739 0.00000020
-0.52406591 -0.45447218 -0.01190681
-0.55826831 -0.36406186 -0.20416123
-0.43685552 -0.11753543 -0.15238532
-0.48213139 -0.36398736 0.29103306
-0.30280417 -0.04101728 -0.00000088
-0.43843096 -0.25848752 0.35599390
-0.09883217 0.59125310 -0.03317533
-0.02771546 -0.21919857 0.00000056
-0.28654224 -0.35636491 -0.00000117
-0.21180281 0.43440178 -0.16196628
-0.11767316 0.12419373 -0.00000628
-0.32422870 -0.57843518 -0.00000168
-0.25740230 -0.71694303 -0.00000145
-0.48617193 -0.37374085 0.26278034
-0.25087121 -0.37832376 -0.00000099
-0.12739120 0.49244428 0.11738725
-0.44240484 -0.26807979 0.32072112
-0.10219980 0.50674981 -0.00000005
-0.42693692 -0.23073876 0.36654821
-0.52049345 -0.40738827 -0.05465126
-0.47106624 -0.33727470 0.34162021
-0.65929335 -0.77245444 -0.02133226
-0.18622947 0.21596622 -0.00000260
-0.23347762 -0.34664422 -0.00000084
-0.38783383 -0.13633226 0.30425349
-0.23495519 -0.67961133 -0.00000127
-0.02126812 -0.62517434 0.00000009
-0.40666923 0.01241181 -0.21581659
-0.42298424 -0.22119208 0.27633420
-0.13658907 0.33315086 -0.00000205
-0.28340667 -0.70129448 -0.00000159
-0.42973843 -0.16530474 -0.08019725
-0.18040317 -0.45931107 -0.00000066
-0.39208457 -0.14659433 0.30059758
-0.16323967 0.32179251 -0.00000144
-0.58271265 -0.60680580 0.12416661
-0.00105200 -0.40529051 0.00000049
-0.33448783 0.02707577 -0.03843988
-0.00972083 0.11025099 -0.00000978
-0.08299890 0.61054766 -0.01213644
-0.29020792 0.18436320 -0.09444208
-0.52563262 -0.46900570 0.21254516
-0.37206477 0.15677769 -0.28341830
-0.04834911 0.22394267 -0.00000662
-0.35444465 -0.35575897 -0.00000158
-0.33685538 0.20321137 -0.24055310
-0.32474637 0.01840875 -0.00266928
-0.22348833 0.26044142 0.19565935
-0.42740977 -0.11792609 -0.12660664
-0.35872895 -0.01443838 -0.05734311
-0.15453297 0.50234431 -0.08381465
-0.27070501 -0.42159992 -0.00000116
-0.63305581 -0.51049745 -0.24207766
-0.49464393 -0.31341001 -0.08974214
-0.38099143 -0.11981613 0.38864899
-0.42559460 -0.22749594 0.31777421
-0.01574738 0.62859941 -0.00000052
-0.41717744 -0.20717241 0.26019511
-0.12265043 0.47805381 0.00000007
-0.55934656 -0.60965198 -0.00000314
-0.43042389 -0.17673256 -0.06933535
-0.42921489 -0.23623748 0.34866324
-0.60482335 -0.51004368 -0.16682889
-0.12415752 -0.29485282 -0.00000012
-0.10458729 -0.26168334 0.00000004
-0.10809881 -0.60650468 -0.00000041
-0.09172319 -0.36932436 -0.00000002
-0.45463592 -0.30715054 -0.00000213
-0.67290175 -0.68240166 -0.15793328
-0.36582392 0.08309764 -0.18478358
-0.04781962 0.56046170 -0.00000075
-0.23814361 -0.59623468 -0.00000118
-0.31834158 -0.78868598 -0.00000191
-0.38526571 0.00019435 -0.14480866
-0.67054158 -0.81883872 0.09358276
-0.25020334 -0.20197959 -0.00000076
-0.26011202 0.32853264 -0.17392266
-0.01096926 0.21727166 -0.00000787
-0.28296795 0.25302041 -0.15132307
-0.30196917 -0.33472037 -0.00000124
-0.08719447 -0.19964290 0.00000022
-0.33831516 0.05547281 -0.08027031
-0.15217414 0.38475418 -0.00000067
-0.47565952 -0.34835863 0.19857997
-0.35724607 -0.01874838 -0.04857410
-0.44422689 -0.27247757 0.29649785
-0.00099760 0.14798848 -0.00000938
-0.37707123 -0.11034772 0.33470169
-0.14555120 -0.47922060 -0.00000048
-0.18868396 -0.66748208 -0.00000097
-0.44957826 -0.28539664 0.29020375
-0.14178057 -0.14523752 -0.00000004
-0.46708721 -0.30414096 -0.02610475
-0.19409952 0.10627575 -0.00000428
-0.30303591 -0.53900278 -0.00000150
-0.37197363 -0.70529789 -0.00000213
-0.49089482 -0.23693779 -0.16467541
-0.44632390 -0.66618109 -0.00000253
-0.19388410 0.22863685 -0.00000215
-0.00033053 -0.46741876 0.00000041
-0.17862576 -0.04322221 -0.00000013
-0.13038021 0.09092714 -0.00000647
-0.53407341 -0.30367181 -0.20636107
-0.34512410 0.03491554 -0.07569205
-0.06740037 0.67981935 -0.04727298
-0.47334173 -0.70999169 -0.00000274
-0.35636151 -0.00223413 -0.06455493
-0.47712484 -0.21037763 -0.15724780
-0.50197130 -0.24040437 -0.19054264
-0.04654082 0.14878096 -0.00000799
-0.07138585 0.01428683 -0.00000960
-0.22604480 0.08854966 -0.00000363
-0.10864376 -0.75041252 -0.00000059
-0.35821176 -0.53388214 -0.00000183
-0.18416935 -0.21360750 -0.00000038
-0.15527686 -0.38455972 -0.00000042
-0.38037771 -0.13722102 -0.00000147
-0.02477508 -0.63721430 0.00000005
-0.03406780 0.02978201 -0.00001045
-0.08741622 -0.73711032 -0.00000045
-0.48102844 -0.12979586 -0.25728199
-0.34440723 0.20736647 -0.26543397
-0.37605634 -0.26883006 -0.00000161
-0.39573121 -0.26181036 -0.00000172
-0.15082775 -0.74139261 -0.00000084
-0.06719691 -0.42648119 0.00000006
-0.00174280 -0.28428736 0.00000063
-0.00600348 -0.04052880 0.00000091
-0.04545899 0.39215389 -0.00000377
-0.30231687 0.23154245 -0.17936835
-0.09586461 -0.52481771 -0.00000023
-0.25175449 -0.22475922 -0.00000080
-0.54165995 -0.49179438 -0.01763383
-0.22068934 0.34801701 -0.08980055
-0.29999474 0.23583844 -0.17791234
-0.55391324 -0.53727996 0.18986022
-0.28678784 0.10761745 0.28424796
-0.21113396 -0.16509376 -0.00000048
-0.02479278 -0.26275280 0.00000052
-0.61585909 -0.68682677 0.13489442
-0.35682699 -0.06147423 0.33336076
-0.62108755 -0.70796287 -0.00000363
-0.38215593 0.06464206 -0.20809311
-0.32233298 0.18949699 -0.18634468
-0.52769774 -0.47398856 0.15127337
-0.46353385 -0.31909034 0.34171066
-0.31744847 -0.75215429 -0.00000186
-0.00725058 0.00789741 -0.00001164
-0.08599434 -0.77035999 -0.00000048
-0.07778474 -0.31410611 0.00000014
-0.05571277 0.10476156 -0.00000849
-0.11552094 -0.57748806 -0.00000042
-0.33656320 -0.17756668 -0.00000125
-0.22728781 0.25126761 0.21014249
-0.07213122 -0.74430668 -0.00000037
-0.25574446 -0.62631994 -0.00000133
-0.35912403 0.18157782 -0.27625951
-0.09154253 -0.51748401 -0.00000020
-0.19982870 -0.55924177 -0.00000091
-0.50867110 -0.42805406 0.15204133
-0.47847930 -0.22040617 -0.14973609
-0.22135118 0.32220712 -0.06289069
-0.25816488 0.17619880 -0.00000113
-0.20953667 0.38082716 -0.09634194
-0.35755640 -0.41849712 -0.00000168
-0.45782042 -0.57067817 -0.00000248
-0.46089163 -0.31270465 0.17607670
-0.20815048 0.42842388 -0.14552252
-0.20422940 0.30693546 0.20409530
-0.15403824 -0.05815703 -0.00000000
-0.35334262 -0.03781554 -0.01690887
-0.01094929 -0.24194333 0.00000063
-0.23342936 0.32935280 -0.10324030
-0.32063541 0.02590436 0.26699141
-0.58596373 -0.63030660 -0.00000332
-0.12458122 0.53799450 -0.04307157
-0.62229854 -0.49757197 -0.22757956
-0.29971284 0.07641117 0.32018390
-0.27933285 0.26796043 -0.15817411
-0.07669613 0.26503998 -0.00000505
-0.02338251 -0.45057926 0.00000030
-0.04005043 0.51360941 -0.00000180
-0.29321864 0.09209352 0.26835412
-0.31803125 0.03219251 0.25148717
-0.48394829 -0.23803847 -0.14481343
-0.03431946 0.56230366 -0.00000112
-0.20859666 0.36909920 -0.08078505
-0.19541456 -0.59044790 -0.00000092
-0.27160445 -0.41633695 -0.00000116
-0.04290018 0.69032156 0.00000138
-0.16729365 -0.40610650 -0.00000052
-0.40433559 -0.20350674 -0.00000169
-0.43933159 -0.05908882 -0.22398777
-0.17541210 0.11150107 -0.00000476
-0.46922395 -0.19761822 -0.15022950
-0.14109547 0.20666394 -0.00000413
-0.49223280 -0.31554064 -0.08090468
-0.21664540 -0.24220443 -0.00000061
-0.06309600 0.10560920 -0.00000825
-0.66571164 -0.72145319 -0.09523794
-0.29237196 -0.32539696 -0.00000117
-0.28368497 -0.74980539 -0.00000165
-0.31197500 -0.22733100 -0.00000117
-0.14991435 -0.17825893 -0.00000013
-0.29876542 -0.51368988 -0.00000145
-0.12043794 -0.55657434 -0.00000042
-0.39645606 0.06087309 -0.24227379
-0.19977371 0.38016954 -0.06941546
-0.37079418 0.13075234 -0.25108397
-0.25823039 0.08637844 -0.00000270
-0.41774526 -0.12286307 -0.09518813
-0.53916240 -0.56368846 -0.00000296
-0.30947366 -0.05502050 -0.00000094
-0.30891442 0.26726133 -0.23676930
-0.49097171 -0.38532570 0.19688071
-0.23606804 -0.28583610 -0.00000078
-0.07628617 -0.35190272 0.00000010
-0.57083970 -0.32350993 -0.28296259
-0.12541628 0.57566971 -0.08718513
-0.03255424 0.14129345 -0.00000854
-0.46675342 -0.29223636 -0.03844020
-0.40207207 -0.11181104 -0.06541789
-0.15449257 -0.08557759 -0.00000004
-0.15434843 0.35510689 -0.00000113
-0.20245440 0.03856761 -0.00000522
-0.26560608 -0.55237752 -0.00000129
-0.30042952 0.23948477 -0.18313153
-0.17342453 -0.32951391 -0.00000046
-0.06433862 -0.76872396 -0.00000035
-0.60086018 -0.65061706 0.12301392
-0.40227264 -0.17118683 0.21458094
-0.18516923 -0.03763666 -0.00000016
-0.24886626 -0.37298366 -0.00000097
-0.65204662 -0.77418905 0.09248385
-0.38369000 -0.50174713 -0.00000194
-0.26527354 0.34328926 -0.20417267
-0.25752276 -0.55505091 -0.00000125
-0.38996401 -0.14147444 0.29216814
-0.23330842 0.14302416 -0.00000246
-0.13912033 -0.70964462 -0.00000073
-0.20619932 0.03905411 -0.00000509
-0.15487514 0.03351455 -0.00000674
-0.20825739 0.30372858 -0.00722054
-0.39924073 -0.09168437 -0.08019014
-0.16384469 0.07230317 -0.00000579
-0.19674906 0.38430136 -0.06589201
-0.39513758 -0.53736413 -0.00000206
-0.15256324 -0.01271333 0.00000006
-0.20767424 -0.38045639 -0.00000073
-0.21798420 -0.67669946 -0.00000116
-0.03905491 0.62757844 0.00000016
-0.15041316 0.42222443 -0.00000007
-0.11227409 -0.51663101 -0.00000032
-0.53785229 -0.43410471 -0.07153471
-0.29818290 -0.32288215 -0.00000120
-0.46028900 -0.16950241 -0.15750407
-0.60265422 -0.65494817 0.14619017
-0.57237005 -0.29971844 -0.31351128
-0.45887652 -0.07430469 -0.25951880
-0.46587381 -0.33421159 -0.00000223
-0.00287566 -0.07430819 0.00000089
-0.32160965 0.14521658 -0.13518973
-0.16772930 -0.79988170 -0.00000101
-0.21151318 -0.71247613 -0.00000117
-0.23921867 -0.21242203 -0.00000071
-0.34459671 -0.33839822 -0.00000150
-0.08155092 -0.66186476 -0.00000032
-0.18210283 0.37822399 -0.01983925
-0.20438358 0.11603564 -0.00000380
-0.38733712 -0.37818429 -0.00000181
-0.57322586 -0.55457717 -0.03255222
-0.47676602 -0.08949835 -0.29063267
-0.08000490 0.11525752 -0.00000757
-0.20643768 0.04884356 -0.00000492
-0.48787794 -0.26582694 -0.12447265
-0.41294655 -0.76605773 -0.00000245
-0.11313061 0.34344992 -0.00000258
-0.53133059 -0.35113481 -0.14625034
-0.37229809 0.04620279 -0.16114916
-0.33781481 0.06035276 -0.08435145
-0.37598121 -0.10771728 0.34797674
-0.43299031 -0.12136083 -0.13776273
-0.00434486 0.36558896 -0.00000547
-0.22804043 0.38611832 -0.15187126
-0.59372449 -0.63339043 0.14129795
-0.12649074 -0.53621054 -0.00000043
-0.54353446 -0.22923622 -0.31447586
-0.01375317 0.27243981 -0.00000682
-0.14642172 -0.00281971 0.00000011
-0.09560884 -0.27682450 0.00000008
-0.39462197 -0.15271635 0.21378566
-0.01254546 0.52378082 -0.00000246
-0.35843417 -0.11502285 -0.00000131
-0.39892319 -0.65692437 -0.00000223
-0.14166091 0.22468781 -0.00000379
-0.59167182 -0.55528843 -0.08125529
-0.27270785 0.29770678 -0.17345886
-0.18662387 -0.59442097 -0.00000087
-0.20861825 -0.58037221 -0.00000098
-0.03562420 0.54478687 -0.00000139
-0.03839360 -0.58978426 0.00000003
-0.08559467 -0.24339668 0.00000018
-0.30210119 0.10434560 -0.03742052
-0.60851526 -0.59327608 -0.08422875
-0.02209913 0.42244828 -0.00000394
-0.32715252 -0.39368746 -0.00000147
-0.22935361 -0.20414136 -0.00000064
-0.39843675 0.01810902 -0.20005947
-0.29529053 -0.36883798 -0.00000124
-0.39213923 -0.20642486 -0.00000162
-0.50946921 -0.43943372 -0.00000262
-0.22832882 0.24875309 0.22678871
-0.20772988 0.05164614 -0.00000483
-0.08744509 -0.54068965 -0.00000020
-0.05263815 0.45761895 -0.00000240
-0.02434070 -0.49890676 0.00000023
-0.61922616 -0.56421375 -0.14526831
-0.45139408 -0.01582868 -0.30443358
-0.38688210 -0.09475880 -0.04361292
-0.43106872 -0.00740314 -0.25926164
-0.28819528 0.15630668 -0.05785929
-0.66914952 -0.71927023 -0.10688860
-0.47399703 -0.34434500 0.19893353
-0.24051167 -0.10448402 -0.00000058
-0.20551793 0.40146804 -0.10849973
-0.00609886 0.78527570 0.00619111
-0.49745387 -0.23230001 -0.18742894
-0.26158166 0.25804183 -0.09952106
-0.00593218 0.56568891 -0.00000192
-0.21805605 -0.15805022 -0.00000051
-0.34888059 -0.27467445 -0.00000145
-0.49360192 -0.39167735 0.23683409
-0.01151930 0.72477400 0.00000103
-0.18423092 -0.34358963 -0.00000054
-0.32264525 -0.49014065 -0.00000156
-0.34535384 -0.62419152 -0.00000186
-0.21285699 0.31385335 -0.03081490
-0.25405908 -0.62094015 -0.00000131
-0.56452924 -0.56290865 0.16912763
-0.38210511 0.03061729 -0.17014095
-0.57273412 -0.30866379 -0.30454606
-0.21450882 0.33291766 -0.05643546
-0.19444568 0.45011440 -0.13285762
-0.58446795 -0.71862477 -0.00000343
-0.46730083 -0.58822256 -0.00000256
-0.12099557 0.41024935 -0.00000117
-0.49693614 -0.39972749 0.24834260
-0.14253108 0.54279941 -0.09657425
-0.00196120 0.03782504 -0.00001128
-0.46761143 -0.29174432 -0.04128919
-0.36141104 -0.07254130 0.33773583
-0.10254683 -0.28143308 0.00000003
-0.42797130 -0.23323521 0.34911811
-0.43297940 -0.24532387 0.30386269
-0.00298330 0.27965882 -0.00000702
-0.54250431 -0.73784196 -0.00000320
-0.50611705 -0.68298513 -0.00000291
-0.08047189 0.05639357 -0.00000858
-0.62619275 -0.69998723 -0.01305941
-0.20112845 0.42605433 -0.12404772
-0.22009125 -0.29026809 -0.00000069
-0.28326115 -0.41464385 -0.00000123
-0.30927488 -0.17960016 -0.00000109
-0.21354361 -0.70392555 -0.00000117
-0.04848218 -0.70163500 -0.00000017
-0.44727412 0.01703061 -0.32989952
-0.07594779 -0.06911858 0.00000046
-0.43035677 -0.23899382 0.33843750
-0.49926347 -0.24285342 -0.18055512
-0.45349151 -0.68445319 -0.00000259
-0.57119560 -0.74019670 -0.00000337
-0.10409106 -0.29689261 0.00000000
-0.16321442 0.48161206 -0.08406613
-0.03784313 -0.59118199 0.00000003
-0.65213174 -0.77439451 0.15217508
-0.39966756 -0.34981114 -0.00000185
-0.23246188 -0.56347722 -0.00000111
-0.30177438 0.07143874 0.26341408
-0.57034582 -0.47913021 -0.10867793
-0.12545379 0.54926854 -0.05794298
-0.23880100 -0.13397771 -0.00000061
-0.32177910 0.02314468 0.24922200
-0.15250616 0.00907929 -0.00000724
-0.26012447 -0.55516940 -0.00000126
-0.15539037 -0.24097626 -0.00000024
-0.24123506 -0.75634307 -0.00000140
-0.00319605 -0.10912493 0.00000084
-0.27703488 -0.50291187 -0.00000130
-0.20992698 -0.49830523 -0.00000089
-0.15520501 -0.41359285 -0.00000045
-0.48492503 -0.37073195 0.32410637
-0.43441278 0.00290724 -0.27969345
-0.20030880 -0.44022036 -0.00000076
-0.43894243 -0.31173226 -0.00000204
-0.11291357 -0.04211228 0.00000027
-0.25554657 0.23543142 -0.05819826
-0.49432430 -0.29015732 -0.11472804
-0.58696687 -0.61707658 0.20895123
-0.19177973 0.45336971 -0.12932245
-0.26218560 0.27382880 -0.11868749
-0.09166025 0.14509235 -0.00000669
-0.38454697 -0.23711202 -0.00000162
-0.18642165 0.08563827 -0.00000488
-0.56633675 -0.53817785 -0.03229421
-0.31420016 -0.63882953 -0.00000169
-0.07562756 -0.33768177 0.00000012
-0.54701942 -0.52063489 0.13816237
-0.19022571 -0.47500795 -0.00000074
-0.55140561 -0.76804149 -0.00000329
-0.59450573 -0.72120261 -0.00000349
-0.16410388 0.27630800 -0.00000221
-0.26846436 -0.74904019 -0.00000156
-0.13877515 0.23771653 -0.00000365
-0.38222021 -0.12277985 0.35310939
-0.45549715 -0.29968649 0.29597613
-0.09824282 0.56281561 0.09695190
-0.28924540 0.10168319 0.29937688
-0.27430761 -0.73517948 -0.00000157
-0.42894590 -0.23558584 0.29873335
-0.62337518 -0.70497179 0.11606802
-0.18702042 0.34848458 0.16127652
-0.00780852 -0.70046568 0.00000008
-0.27232736 0.09241534 -0.00000216
-0.13798165 -0.68173838 -0.00000068
-0.33168364 -0.24457952 -0.00000131
-0.60937721 -0.57194877 -0.11024505
-0.09993405 0.55873179 0.10759855
-0.32059348 -0.54159772 -0.00000161
-0.05656365 0.16464303 -0.00000741
-0.46827731 -0.16840456 -0.18015815
-0.40988988 -0.08916511 -0.11156345
-0.49413466 -0.39296135 0.18865587
-0.34445170 0.05776709 -0.09928552
-0.18702044 -0.33964300 -0.00000055
-0.16234048 -0.06360062 -0.00000006
-0.19262078 0.40535802 -0.07821796
-0.48318261 -0.11439182 -0.28018233
-0.17446528 -0.20650861 -0.00000031
-0.52998567 -0.47951192 0.14468637
-0.15967561 -0.20459303 -0.00000022
-0.52761257 -0.39403898 -0.08858974
-0.47833031 -0.11381789 -0.26780072
-0.54122055 -0.60902548 -0.00000303
-0.41972959 0.03190668 -0.27252665
-0.09440041 -0.36813232 -0.00000003
-0.36655408 -0.49697402 -0.00000183
-0.45256484 -0.29260528 0.25350863
-0.29060325 -0.17858405 -0.00000098
-0.00561959 -0.79253638 -0.00000002
-0.09313960 0.59858572 -0.02605085
-0.40795407 -0.18490748 0.31408653
-0.05054529 -0.12632512 0.00000054
-0.50982416 -0.14591032 -0.31663564
-0.06642804 0.42379099 -0.00000258
-0.20666277 0.36203250 -0.06774207
-0.05215313 -0.48597845 0.00000008
-0.44692564 -0.27899018 0.23505761
-0.01511899 -0.68512630 0.00000005
-0.00698605 -0.30266735 0.00000058
-0.43115556 -0.09601746 -0.16100696
-0.26656479 0.28754419 -0.14568111
-0.39300928 -0.44872612 -0.00000193
-0.50684059 -0.42363942 0.31268573
-0.52627319 -0.47055089 0.18398963
-0.11470209 0.53584659 -0.01417702
-0.63904643 -0.67340750 -0.07708920
-0.66058135 -0.63830918 -0.17388079
-0.26881206 -0.38878435 -0.00000111
-0.14847720 0.10854537 -0.00000562
-0.15443109 0.42716116 0.16399968
-0.25405481 0.06644009 -0.00000317
-0.03300653 -0.39669311 0.00000030
-0.50261617 -0.29400107 -0.13270444
-0.34429640 -0.01059897 -0.02288546
-0.21248198 0.38242289 -0.10601823
-0.21430750 0.18277340 -0.00000233
-0.57401234 -0.48591673 -0.11097309
-0.00230802 -0.58795989 0.00000025
-0.49735412 -0.30998006 -0.10082610
-0.30952984 0.26621652 -0.23725937
-0.53144228 -0.33140427 -0.16847897
-0.66051936 -0.76866615 -0.02883229
-0.21182904 0.14566939 -0.00000306
-0.32159078 -0.45817634 -0.00000151
-0.39391509 0.03726351 -0.20921578
-0.45446759 -0.03061011 -0.29625192
-0.33899057 0.11130513 -0.14413570
-0.05098381 -0.66731918 -0.00000014
-0.23141730 0.24129759 0.21843161
-0.30826491 0.07416316 -0.02041339
-0.25587660 -0.53324044 -0.00000121
-0.40356639 -0.06111139 -0.12577596
-0.13721552 0.52124137 -0.05835171
-0.42143670 -0.77213055 -0.00000251
-0.49909702 -0.40494341 0.22878292
-0.30704334 0.23649108 -0.19755024
-0.47576019 -0.30487198 -0.04856331
-0.35178003 -0.48138064 -0.00000172
-0.54773319 -0.24295753 -0.31049153
-0.22064438 -0.20439656 -0.00000059
-0.09199336 -0.78748077 -0.00000054
-0.18209255 -0.58756292 -0.00000083
-0.09506895 0.55184144 0.00000053
-0.52919096 -0.47759458 0.17505378
-0.44768634 -0.28083205 0.37216523
-0.27234784 -0.00233718 -0.00000065
-0.38134146 -0.26051778 -0.00000163
-0.20766398 0.30102196 -0.00262011
-0.03583227 0.29352027 -0.00000578
-0.50835496 -0.55156589 -0.00000276
-0.15397136 0.51719999 -0.09881866
-0.30584699 0.06160752 0.25289553
-0.31105712 0.22802277 -0.19890800
-0.52071840 -0.34863672 -0.12055250
-0.46020690 -0.14746779 -0.18177348
-0.55078983 -0.45157418 -0.08683233
-0.28555241 -0.78704351 -0.00000171
-0.32982972 0.02877919 -0.02783468
-0.16975231 -0.69914603 -0.00000090
-0.52830887 -0.65604085 -0.00000301
-0.24816862 0.33169839 -0.14539509
-0.34979081 -0.03411081 -0.01149632
-0.43650615 -0.37157291 -0.00000210
-0.25891227 0.04385470 -0.00000342
-0.06794524 0.63534236 0.00000117
-0.38918358 -0.13355514 -0.00666911
-0.36185959 -0.30218878 -0.00000156
-0.25608623 0.31997326 -0.15360779
-0.01567995 0.15864882 -0.00000875
-0.25645840 -0.42642754 -0.00000108
-0.00043572 -0.13114391 0.00000084
-0.53231609 -0.57114542 -0.00000293
-0.16020142 0.41323113 0.15629414
-0.25208580 -0.35371131 -0.00000096
-0.27939200 -0.18103516 -0.00000091
-0.15969215 0.41446123 0.14799319
-0.17629731 0.45071483 -0.08482990
-0.43879759 -0.25936785 0.24983579
-0.29428276 -0.76916981 -0.00000174
-0.62297666 -0.70516890 -0.00000364
-0.35110658 -0.04766556 0.35239178
-0.29750913 0.27610287 -0.21599376
-0.60627341 -0.53778762 -0.13988446
-0.39266866 0.10698625 -0.28336269
-0.68799061 -0.71143460 -0.16615161
-0.39985803 -0.59779209 -0.00000216
-0.25375047 -0.58407545 -0.00000126
-0.57666337 -0.59220111 0.11490337
-0.15539765 -0.16051465 -0.00000014
-0.24465869 0.20932832 0.24411166
-0.09485060 -0.59603840 -0.00000032
-0.46356341 -0.65674782 -0.00000262
-0.00311516 -0.24999541 0.00000067
-0.25778180 -0.13322467 -0.00000072
-0.66846901 -0.72280234 -0.10113700
-0.50984651 -0.28149694 -0.16600198
-0.48253304 -0.58504903 -0.00000264
-0.23416208 0.23466901 0.24598812
-0.39652401 -0.34273264 -0.00000182
-0.51371473 -0.44023177 0.18089592
-0.35453659 -0.05594769 0.37069327
-0.21020129 0.07243572 -0.00000439
-0.00085430 0.35515496 -0.00000576
-0.62349552 -0.47298843 -0.25811407
-0.37577769 -0.10722405 0.26110917
-0.41632056 -0.71206170 -0.00000240
-0.31932774 0.19097313 -0.17992173
-0.11210188 -0.05124329 0.00000026
-0.31297347 -0.02276706 -0.00000092
-0.20941272 0.15243977 -0.00000301
-0.34038860 -0.02179088 0.35902879
-0.63271582 -0.72752154 0.17916401
-0.12300062 0.47569618 0.00000004
-0.39844903 -0.07961604 -0.09147882
-0.46026456 -0.31119776 0.34504548
-0.47505060 -0.26786649 -0.08778802
-0.04502866 0.64786315 0.00000070
-0.21412610 0.31409833 -0.03449236
-0.16964933 0.41928050 -0.03205553
-0.16064392 0.51892686 -0.11864152
-0.42335069 -0.05700836 -0.18342066
-0.50893807 -0.29144451 -0.15250857
-0.21782129 0.06926739 -0.00000421
-0.34512228 -0.07212885 -0.00000117
-0.15738304 0.42272168 -0.00296769
-0.52297980 -0.53517520 -0.00000283
-0.00082289 -0.02504980 0.00000096
-0.60963845 -0.67180926 0.17487863
-0.48054495 -0.36015189 0.16913362
-0.02890579 -0.05869327 0.00000075
-0.22265977 0.35191187 -0.09941632
-0.42834425 -0.23413651 0.37014300
-0.60616314 -0.56202549 -0.11265017
-0.18784901 0.44670591 -0.11136939
-0.01886204 0.65152186 -0.00000003
-0.57842290 -0.63500607 -0.00000328
-0.23929428 -0.56008792 -0.00000114
-0.07322901 -0.36195356 0.00000011
-0.06106660 -0.20816612 0.00000037
-0.66502982 -0.80553252 0.10500864
-0.28551406 -0.37763205 -0.00000120
-0.31290221 -0.14954121 -0.00000108
-0.31208259 0.13784169 -0.10143048
-0.36339891 0.11135331 -0.20968083
-0.51687789 -0.75846171 -0.00000307
-0.35535547 -0.05791323 0.22659300
-0.13838509 -0.25932810 -0.00000016
-0.08086511 -0.41645181 -0.00000001
-0.09090523 -0.00838483 0.00000044
-0.54362708 -0.51244771 0.23245040
-0.36047751 0.08747878 -0.17530757
-0.10992534 0.53461099 0.10666914
-0.09742588 -0.46897224 -0.00000017
-0.33556005 0.19967631 -0.23314853
-0.30901214 0.09530743 -0.04591851
-0.35974354 0.12795319 -0.21832228
-0.54195803 -0.53109753 -0.00000293
-0.66445559 -0.70375091 -0.11154244
-0.37362614 -0.36349857 -0.00000171
-0.40567863 -0.14248694 -0.04100105
-0.42856893 -0.22548182 -0.01017730
-0.44711459 -0.02187916 -0.28622636
-0.64798188 -0.76437616 0.11085208
-0.24852347 -0.77651972 -0.00000147
-0.57995737 -0.44356030 -0.17400035
-0.23075867 0.05702900 -0.00000404
-0.27392903 0.24555497 -0.11877295
-0.09034320 -0.42287728 -0.00000007
-0.30749509 -0.24416585 -0.00000116
-0.42854634 -0.17523265 -0.06596463
-0.49449870 -0.16484919 -0.25446594
-0.45821765 -0.73626876 -0.00000269
-0.26186651 -0.36195967 -0.00000103
-0.22419213 -0.33174872 -0.00000077
-0.54867369 -0.29043874 -0.26024351
-0.65723902 -0.65602499 -0.14522284
-0.20432596 0.35960016 -0.05876865
-0.43351161 -0.24661051 0.34333271
-0.14819518 0.23235868 -0.00000346
-0.08612384 0.63192946 -0.04428531
-0.12050216 0.20794202 -0.00000472
-0.10120180 0.37490946 -0.00000239
-0.31189272 0.04701228 0.24939269
-0.46520862 -0.40278780 -0.00000231
-0.05060045 0.67783689 0.05147608
-0.38370255 -0.78686678 -0.00000230
-0.18752889 0.28078890 -0.00000143
-0.48536438 -0.66859353 -0.00000277
-0.32598358 -0.52710634 -0.00000163
-0.03477611 -0.01285396 0.00000077
-0.28390759 0.11457032 0.29209840
-0.21027681 -0.66028911 -0.00000109
-0.51292562 -0.44704521 -0.00000265
-0.17848822 -0.46802127 -0.00000066
-0.17943226 -0.29910693 -0.00000046
-0.23053496 -0.65786004 -0.00000121
-0.29276967 0.25848791 -0.18369940
-0.20421672 0.34208959 -0.03901395
-0.45171466 -0.49089226 -0.00000234
-0.48929957 -0.21246400 -0.18759575
-0.48832259 -0.37893003 0.19475289
-0.02448077 -0.21180886 0.00000059
-0.13635540 -0.58370990 -0.00000055
-0.24797577 -0.69025952 -0.00000136
-0.38081574 -0.11939360 0.40968624
-0.05483300 -0.27224916 0.00000033
-0.29498416 0.08783091 0.27235377
-0.06383533 0.42922491 -0.00000256
-0.17164594 -0.12649253 -0.00000019
-0.03612289 0.43763489 -0.00000325
-0.33346859 0.11287104 -0.13105968
-0.49935979 -0.78206468 -0.00000299
-0.33177754 0.19320618 -0.21580841
-0.44198859 -0.23497292 -0.03563580
-0.68964052 -0.76704317 -0.10877384
-0.10975977 0.46493173 -0.00000055
-0.14005969 0.47470704 -0.01426390
-0.47622952 -0.34973344 0.16959316
-0.01534586 0.43431491 -0.00000394
-0.12960659 0.26390189 -0.00000347
-0.23001522 -0.72580922 -0.00000130
-0.48429772 -0.68338847 -0.00000278
-0.22344372 0.03045506 -0.00000472
-0.13248943 0.41706526 -0.00000070
-0.12417640 -0.67727745 -0.00000060
-0.40735844 -0.19405124 -0.00000170
-0.44780284 -0.35967448 -0.00000215
-0.14487322 -0.66597724 -0.00000071
-0.16769207 0.49023426 -0.10566328
-0.04064265 -0.46300134 0.00000018
-0.19309416 0.33382034 0.17487387
-0.04215841 0.40610313 -0.00000362
-0.07920792 -0.19722974 0.00000028
-0.62324387 -0.61473864 -0.09989407
-0.02243286 -0.63222843 0.00000007
-0.19181336 0.41490936 -0.08666707
-0.08639826 0.60779226 -0.01819509
-0.53931147 -0.63649243 -0.00000305
-0.06967626 -0.39475009 0.00000009
-0.46357876 -0.55276191 -0.00000249
-0.25048900 -0.45291123 -0.00000108
-0.53797007 -0.26963317 -0.25464764
-0.42831236 -0.06437756 -0.18854339
-0.38644281 -0.09302105 -0.04436562
-0.46726060 -0.13911279 -0.20998560
-0.41483253 -0.20151462 0.33515778
-0.16487317 -0.73420841 -0.00000091
-0.04591612 0.25586668 -0.00000614
-0.67137444 -0.82084936 0.13240419
-0.28245491 0.11808147 0.23976699
-0.33212209 -0.16902363 -0.00000122
-0.16236442 -0.02352678 -0.00000001
-0.02049478 0.62104970 -0.00000051
-0.37171853 0.10673165 -0.22686706
-0.57648283 -0.59176642 0.15613157
-0.47934875 -0.34360325 -0.01514531
-0.01378058 -0.06456667 0.00000084
-0.35625497 -0.59035784 -0.00000189
-0.37140131 -0.09665532 0.28150144
-0.50898206 -0.54524952 -0.00000275
-0.06228110 -0.48538485 0.00000002
-0.35787725 -0.69758523 -0.00000203
-0.42950648 -0.01697023 -0.24443682
-0.40002376 -0.31764975 -0.00000181
-0.60945767 -0.67137277 0.19058686
-0.31320906 -0.63589013 -0.00000169
-0.25375515 -0.08296391 -0.00000064
-0.36550254 -0.08241618 0.30174032
-0.32379034 -0.46442240 -0.00000153
-0.70638311 -0.79461062 -0.12305829
-0.01676262 0.01839529 -0.00001117
-0.46827471 -0.33053106 0.22207752
-0.11060956 -0.28470352 -0.00000002
-0.56819910 -0.46265376 -0.12123018
-0.29741436 0.13279280 -0.05646179
-0.17689291 0.04022374 -0.00000596
-0.03274596 -0.00631254 0.00000079
-0.22467934 0.25046557 -0.00000084
-0.12542559 0.44637755 -0.00000040
-0.40984616 -0.09022038 -0.11027333
-0.16821201 0.02729573 -0.00000645
-0.41420555 -0.53435832 -0.00000217
-0.55781686 -0.53558433 -0.01231645
-0.01735671 -0.39686087 0.00000040
-0.64561510 -0.75866234 0.09060581
-0.36556786 0.07015217 -0.16970868
-0.02781898 0.48743811 -0.00000263
-0.44657189 -0.55401254 -0.00000239
-0.58871859 -0.51148117 -0.12201957
-0.02546561 -0.47858644 0.00000025
-0.20703650 0.00255978 -0.00000571
-0.34774938 -0.03955404 0.26828986
-0.06756017 -0.31683421 0.00000020
-0.18703327 0.25275749 -0.00000193
-0.45825678 -0.15235111 -0.17111360
-0.11393361 0.52493477 0.10086115
-0.28934813 0.29088783 -0.21052872
-0.43654710 -0.25393578 0.27357715
-0.65954065 -0.69849634 -0.10419476
-0.45592496 -0.31760037 -0.00000215
-0.45413277 -0.32579836 -0.00000215
-0.17921807 -0.61780316 -0.00000085
-0.38135466 -0.53053784 -0.00000196
-0.35296571 -0.30515531 -0.00000151
-0.43702322 -0.06308744 -0.21334989
-0.48769099 -0.30245537 -0.08326144
-0.03171270 -0.10051837 0.00000068
-0.33978656 -0.69015354 -0.00000191
-0.52345937 -0.42797759 -0.03972599
-0.30633447 0.21399455 -0.17064510
-0.11753466 0.58230180 -0.07340851
-0.45283803 -0.07816049 -0.23903112
-0.08063265 0.18625101 -0.00000631
-0.25240546 -0.49147397 -0.00000114
-0.45168555 -0.62765688 -0.00000251
-0.31340754 0.04335286 0.27861470
-0.13167551 0.03577167 -0.00000740
-0.37014762 -0.50586236 -0.00000187
-0.29466495 0.23933829 -0.16750143
-0.15276547 0.50910306 -0.08658398
-0.19571266 0.11408739 -0.00000410
-0.47423127 -0.29759410 -0.05254977
-0.46818700 -0.11294530 -0.24155435
-0.21045066 0.29191628 0.20285910
-0.43022385 -0.52474082 -0.00000225
-0.04381058 0.71569639 -0.02385222
-0.39710125 -0.13943435 -0.02137925
-0.23567826 -0.70808196 -0.00000131
-0.51057607 -0.21404058 -0.24293184
-0.00565444 -0.79462302 -0.00000003
-0.06340291 0.02717398 -0.00000961
-0.34476003 0.02762595 -0.06661340
-0.14620632 0.46907580 -0.02449759
-0.32477692 -0.61925834 -0.00000173
-0.54950315 -0.32584819 -0.22311430
-0.46297461 -0.12535542 -0.21377584
-0.28901467 -0.31014454 -0.00000113
-0.45645553 -0.30200174 0.33033052
-0.05355713 -0.79034972 -0.00000031
-0.22873238 -0.77460140 -0.00000135
-0.61930853 -0.51031661 -0.20539203
-0.53804392 -0.78018415 -0.00000322
-0.51773763 -0.59641147 -0.00000287
-0.35146016 0.14502858 -0.21507455
-0.40515652 -0.08737354 -0.10085426
-0.22280335 -0.07843615 -0.00000044
-0.07178650 -0.15996009 0.00000037
-0.71384048 -0.82785219 -0.10612233
-0.42406088 -0.00377131 -0.24449494
-0.34871721 0.13239306 -0.19367139
-0.20640200 -0.63669127 -0.00000104
-0.48887858 -0.16806389 -0.23581336
-0.34726715 -0.75873500 -0.00000204
-0.34568334 0.17079341 -0.22820993
-0.54396772 -0.30466855 -0.23180138
-0.36137372 0.17423487 -0.27413470
-0.25666344 0.22783570 -0.05275297
-0.43800053 -0.25744504 0.28214869
-0.37234437 -0.09893703 0.34464440
-0.24272133 0.03164335 -0.00000412
-0.49773303 -0.26878947 -0.14762285
-0.24830756 -0.75010866 -0.00000144
-0.29819614 -0.03615866 -0.00000084
-0.18134429 -0.38752931 -0.00000058
-0.22661586 -0.09406072 -0.00000049
-0.01654643 -0.46853796 0.00000031
-0.42649001 -0.20731726 -0.02478768
-0.13418078 -0.29035556 -0.00000017
-0.43112928 -0.31461266 -0.00000200
-0.48681325 -0.37529027 0.28883481
-0.35013485 -0.04531719 0.32181096
-0.49333096 -0.16471182 -0.25148538
-0.31293067 0.04450015 0.32909483
-0.01528011 -0.78254259 -0.00000007
-0.54607475 -0.21639663 -0.33556202
-0.43013546 -0.10173780 -0.15191212
-0.39525798 -0.10624344 -0.05332248
-0.32534596 -0.15102680 -0.00000115
-0.35225326 -0.04074365 -0.01073162
-0.13844655 -0.27738485 -0.00000018
-0.45521435 -0.63660669 -0.00000254
-0.35054824 0.07335727 -0.13297081
-0.16366851 0.43889216 -0.03780481
-0.32614842 0.19726796 -0.20521891
-0.16294774 0.26418415 -0.00000246
-0.39772040 0.08630510 -0.27393189
-0.21236585 0.28729281 0.20056358
-0.35294023 0.07477737 -0.14096723
-0.24246643 -0.65403622 -0.00000128
-0.22280437 -0.44819522 -0.00000090
-0.59820473 -0.54651982 -0.10852974
-0.26246917 -0.22169366 -0.00000086
-0.65473133 -0.69373995 -0.09657684
-0.11359824 0.23988090 -0.00000437
-0.09305606 -0.69793451 -0.00000043
-0.13137826 0.36909655 -0.00000158
-0.25811589 -0.56136751 -0.00000126
-0.34739262 0.02735311 -0.07337380
-0.56208175 -0.77197903 -0.00000336
-0.32675052 0.20052655 -0.21045609
-0.18952605 -0.21594679 -0.00000041
-0.35085502 -0.65346116 -0.00000193
-0.40825531 -0.32482088 -0.00000187
-0.43132573 -0.04675571 -0.21621403
