ply
format ascii 1.0
element vertex 1083
property float x
property float y
property float z
end_header
-0.49384964 -0.77463508 -0.00000293
-0.32382262 0.10284524 -0.07628004
-0.00174793 0.03480117 -0.00001129
-0.38308868 0.03873951 -0.14747997
-0.17116942 -0.33771989 -0.00000017
-0.64610362 -0.75984174 0.14410034
-0.59515822 -0.60028720 -0.03293306
-0.34576461 0.02494675 -0.05380699
-0.14192060 0.56964582 -0.10121419
-0.36604905 0.02479392 -0.09781937
-0.12057219 -0.02686231 0.00000072
-0.33844796 -0.24503393 -0.00000100
-0.21734369 0.39035872 -0.10373662
-0.27804750 -0.79232419 -0.00000166
-0.65614021 -0.76929957 -0.01328706
-0.20311517 0.21250425 -0.00000189
-0.51674545 -0.44755125 0.29512703
-0.25700906 -0.40184847 -0.00000080
-0.03571589 -0.10462940 0.00000109
-0.57408381 -0.25884786 -0.29489499
-0.34678984 -0.57007855 -0.00000166
-0.46618766 -0.42162621 -0.00000210
-0.11325987 -0.72109568 -0.00000054
-0.42772201 -0.11883465 -0.10256254
-0.56213999 -0.49637580 -0.05475049
-0.34015146 0.07964712 -0.09090590
-0.25064832 -0.36917871 -0.00000071
-0.50611407 -0.39599925 -0.02330368
-0.68973696 -0.70655185 -0.14298303
-0.21962273 -0.44237748 -0.00000066
-0.23903371 0.21688236 -0.00000072
-0.12958699 0.22246885 -0.00000392
-0.09956231 0.57883191 -0.01730105
-0.54233748 -0.49551350 -0.01242673
-0.31642535 0.23627825 -0.18047874
-0.32922933 0.14161146 -0.12299849
-0.43164289 -0.16660142 -0.06803147
-0.33895394 0.24772990 -0.23983783
-0.32223234 0.20595334 -0.16577789
-0.14514476 0.17330717 -0.00000437
-0.08092849 0.30251461 -0.00000389
-0.10383232 -0.49744532 -0.00000006
-0.54563576 -0.51729691 0.24179979
-0.39451036 -0.40244684 -0.00000164
-0.17207177 0.47590408 -0.08232506
-0.08501982 0.12989505 -0.00000700
-0.19024955 0.10855571 -0.00000422
-0.54768610 -0.17583801 -0.31227818
-0.61654937 -0.55733418 -0.11821719
-0.36121958 -0.37303534 -0.00000138
-0.16313176 -0.24170335 0.00000006
-0.49895066 -0.59837848 -0.00000263
-0.64604694 -0.75970489 0.14100561
-0.36906829 -0.31617147 -0.00000132
-0.07597994 0.29071873 -0.00000426
-0.43968877 -0.26152465 0.37079871
-0.03067403 -0.22048973 0.00000090
-0.29187718 0.26941493 -0.15692341
-0.57414031 -0.40704659 -0.16140643
-0.05820899 -0.33265844 0.00000052
-0.46835589 -0.77686918 -0.00000278
-0.38361439 -0.38987398 -0.00000155
-0.51820284 -0.73801976 -0.00000301
-0.33163637 0.14148194 -0.12812081
-0.34268528 0.12391983 -0.13633586
-0.10777427 0.57135481 -0.02843366
-0.37256053 0.02585097 -0.11294492
-0.65397900 -0.78792673 -0.00000392
-0.11257061 -0.68506378 -0.00000046
-0.37191409 -0.56052685 -0.00000180
-0.19162384 -0.09435430 0.00000017
-0.57019770 -0.69223875 -0.00000324
-0.45987061 -0.31024623 0.32342574
-0.52028251 -0.31612891 -0.12615073
-0.66797292 -0.64075333 -0.15493464
-0.59709543 -0.56029618 -0.07320419
-0.16362678 0.39361069 0.00000032
-0.38084617 0.06032861 -0.16206306
-0.70171154 -0.73479772 -0.14358060
-0.28157529 -0.70155472 -0.00000151
-0.25187159 -0.53366238 -0.00000102
-0.57046992 -0.62114435 -0.00000311
-0.38300255 -0.07589520 -0.04394121
-0.45367065 0.01481552 -0.27953616
-0.30067405 -0.02767907 -0.00000037
-0.05704908 -0.36324966 0.00000047
-0.43595856 -0.76258588 -0.00000256
-0.21357998 0.42543042 -0.12716430
-0.17195785 -0.09287074 0.00000029
-0.35582262 0.03249987 -0.08250844
-0.56284219 -0.22815314 -0.29810044
-0.06987481 0.54110014 0.00000025
-0.33876613 -0.49993223 -0.00000148
-0.13161714 -0.55403042 -0.00000033
-0.10455533 -0.78791088 -0.00000061
-0.00065719 -0.59033978 0.00000039
-0.58268291 -0.45514724 -0.13663374
-0.35966334 -0.06568378 -0.00234853
-0.51161242 -0.66548568 -0.00000284
-0.05014627 -0.38650796 0.00000047
-0.25960574 -0.68011588 -0.00000134
-0.47747126 -0.30189770 -0.04580022
-0.18423966 -0.08750196 0.00000022
-0.41232410 -0.20326301 -0.00000137
-0.30641183 -0.17988114 -0.00000069
-0.11927849 0.52231514 -0.00926053
-0.41878641 -0.20382108 -0.00649253
-0.09508572 0.18245348 -0.00000571
-0.57244128 -0.58200955 0.24536094
-0.54253787 -0.59334910 -0.00000289
-0.18812254 0.37584832 -0.02705310
-0.40630427 -0.31520909 -0.00000154
-0.28673428 -0.54411131 -0.00000125
-0.51644921 -0.38668549 -0.05419563
-0.20639138 -0.47054505 -0.00000063
-0.39608806 -0.63230312 -0.00000208
-0.10068316 0.11126079 -0.00000688
-0.17795554 0.23870665 -0.00000215
-0.08184979 -0.48081166 0.00000010
-0.19698022 -0.56025571 -0.00000074
-0.22943237 0.06453060 -0.00000387
-0.08035761 0.36740065 -0.00000269
-0.43462735 -0.31639367 -0.00000172
-0.07204589 0.31106493 -0.00000399
-0.54766959 -0.09917892 -0.38135582
-0.00218213 -0.04753352 0.00000143
-0.20263527 0.43294290 -0.11011560
-0.25163466 -0.21731243 -0.00000043
-0.43555185 -0.25153750 0.39333713
-0.09528703 -0.66113454 -0.00000031
-0.22829613 -0.40248919 -0.00000063
-0.13950337 0.19154699 -0.00000420
-0.62356514 -0.56750673 -0.12431606
-0.60997188 -0.35376540 -0.28743225
-0.44430798 0.07463347 -0.31308788
-0.39462245 0.02461562 -0.15985012
-0.43557581 -0.25159296 0.32083717
-0.11828616 -0.55759692 -0.00000026
-0.49897641 -0.72953796 -0.00000288
-0.09159887 -0.67683512 -0.00000032
-0.09745201 0.50226998 0.00000036
-0.50947529 -0.42386007 -0.00550107
-0.64022785 -0.58260703 -0.14696927
-0.62807345 -0.71631420 0.15493254
-0.46549544 -0.21442169 -0.09860000
-0.12606230 0.58178514 -0.07764223
-0.40699223 -0.28465474 -0.00000149
-0.42928016 -0.23639645 0.37886408
-0.24506333 0.27250585 -0.05781728
-0.13965686 0.50657082 -0.03942049
-0.46185571 -0.27621719 -0.03496498
-0.03524245 -0.74076098 -0.00000010
-0.05403142 -0.79902560 -0.00000032
-0.23630707 0.26161757 -0.02894224
-0.10202951 -0.76184148 -0.00000054
-0.33194670 0.06130744 -0.05651329
-0.31786716 -0.50950217 -0.00000137
-0.19729277 -0.40104115 -0.00000044
-0.13135372 0.54247230 -0.05371601
-0.00262528 -0.46626315 0.00000061
-0.50534517 -0.07476368 -0.31124657
-0.30969179 0.17329532 -0.10903921
-0.19081897 0.16612358 -0.00000313
-0.47622338 -0.16843358 -0.16341141
-0.42614672 0.06389645 -0.26387879
-0.46286756 -0.04077983 -0.24943063
-0.10041167 -0.61610043 -0.00000026
-0.37621292 -0.10827968 0.38608932
-0.35438621 -0.68692261 -0.00000193
-0.20345882 0.21374319 -0.00000185
-0.30436227 0.15857457 -0.08416745
-0.08170042 -0.61454546 -0.00000015
-0.66664284 -0.80942661 0.14334141
-0.24823681 -0.37663829 -0.00000070
-0.06015799 -0.46732843 0.00000026
-0.22235298 -0.57919538 -0.00000093
-0.52391827 -0.49452844 -0.00000259
-0.11911855 -0.49101609 -0.00000014
-0.03354022 -0.79085088 -0.00000019
-0.31750327 -0.25515106 -0.00000089
-0.30397990 0.17954522 -0.10224172
-0.02839431 -0.15942466 0.00000103
-0.51385820 -0.24493197 -0.17635697
-0.12639472 -0.78599310 -0.00000074
-0.00653202 -0.20704602 0.00000116
-0.38509339 -0.65106517 -0.00000204
-0.60156327 -0.37083742 -0.25373900
-0.19441012 -0.50404614 -0.00000062
-0.29696441 0.18887392 -0.09538262
-0.46538982 -0.32357094 0.34227297
-0.35679689 -0.07375331 -0.00000079
-0.41309515 -0.19732359 0.41557097
-0.34737545 0.09605325 -0.12142053
-0.32082644 -0.66558534 -0.00000168
-0.35168135 0.14879408 -0.17834213
-0.23971123 0.23168363 -0.00936400
-0.38424003 -0.70315522 -0.00000214
-0.21549661 -0.43793425 -0.00000062
-0.03833451 0.61503392 0.00000069
-0.01146690 0.31500298 -0.00000575
-0.59343719 -0.34585872 -0.25857231
-0.43350026 -0.24019109 -0.00572789
-0.59302455 -0.75577831 -0.00000350
-0.42922941 0.07165429 -0.27758265
-0.65966779 -0.60528690 -0.16883357
-0.65044433 -0.67414147 -0.08668123
-0.09177278 0.59754705 -0.01721976
-0.19651940 -0.23011126 -0.00000012
-0.07521039 -0.09712752 0.00000086
-0.12283074 0.19205834 -0.00000469
-0.07457557 0.09805107 -0.00000791
-0.42100939 -0.02236223 -0.17492881
-0.17064510 0.16502720 -0.00000376
-0.02904844 -0.26316980 0.00000083
-0.29696354 0.09885361 -0.01422109
-0.05170894 0.11101244 -0.00000836
-0.01515616 -0.64043754 0.00000021
-0.30432588 -0.40970716 -0.00000110
-0.59391165 -0.48555285 -0.13366090
-0.28233692 0.09220385 -0.00000175
-0.00964918 -0.79762065 -0.00000005
-0.20001401 0.46095628 -0.12966630
-0.11781266 -0.01737245 0.00000076
-0.47166091 -0.64335036 -0.00000255
-0.46370700 -0.31950796 0.31899235
-0.05025236 -0.70477617 -0.00000012
-0.57027394 -0.78078818 -0.00000341
-0.35787714 0.09348252 -0.14196035
-0.44265091 -0.35804060 -0.00000184
-0.17555892 -0.46621519 -0.00000043
-0.08488533 -0.11834540 0.00000077
-0.63869047 -0.65969151 -0.07412608
-0.08089921 0.39608100 -0.00000213
-0.58303672 -0.45167395 -0.14053527
-0.24222086 0.22316501 -0.00714623
-0.38740915 -0.13530821 0.36928776
-0.37504864 0.04052171 -0.13158713
-0.54868448 -0.49955937 -0.02259372
-0.35775831 -0.58599406 -0.00000176
-0.15814669 -0.46618566 -0.00000033
-0.43008813 0.00784076 -0.22191931
-0.52969921 -0.47882363 0.23876888
-0.46087641 -0.14208534 -0.15376273
-0.46534780 -0.11066465 -0.19182289
-0.26455489 0.36209100 -0.18100895
-0.15040739 -0.59348392 -0.00000052
-0.43910906 0.00963563 -0.24317203
-0.63558072 -0.48012108 -0.22925267
-0.08618803 -0.03170508 0.00000092
-0.16426304 -0.78547508 -0.00000096
-0.12923644 0.54113573 -0.04790261
-0.57501686 -0.25285658 -0.30232736
-0.33951473 0.24867572 -0.24191117
-0.14350653 -0.17565981 0.00000030
-0.24777293 0.02842404 -0.00000399
-0.53185141 -0.32669044 -0.14180911
-0.13006824 -0.56363159 -0.00000034
-0.55358118 -0.50112778 -0.03183755
-0.54772693 -0.27170759 -0.22593395
-0.44417700 -0.27892309 -0.00000170
-0.39249957 -0.05741606 -0.08127221
-0.23714133 -0.46975973 -0.00000081
-0.47883147 -0.35602114 0.32062003
-0.56177860 -0.45078465 -0.09506757
-0.17871110 -0.03279067 0.00000036
-0.48488763 -0.06441127 -0.27605307
-0.17818423 0.37675661 -0.00624071
-0.45121548 -0.31914780 -0.00000182
-0.24813983 0.39788592 -0.17755234
-0.36074123 -0.08092488 -0.00000083
-0.13127238 0.41619712 -0.00000023
-0.12047780 0.38127232 -0.00000122
-0.04156126 -0.52755731 0.00000026
-0.10434317 0.09736839 -0.00000703
-0.20616239 -0.78462642 -0.00000122
-0.30020836 -0.22209512 -0.00000073
-0.09384359 0.27581972 -0.00000400
-0.11561308 0.57254654 -0.04656969
-0.45189494 -0.02308631 -0.24150005
-0.19407950 0.36393473 -0.02927783
-0.26622120 -0.14065851 -0.00000037
-0.33152550 -0.26697218 -0.00000100
-0.67332780 -0.66834450 -0.14171439
-0.17861146 0.43499058 -0.05967261
-0.50361240 -0.66157407 -0.00000278
-0.18869683 0.11252770 -0.00000420
-0.28162834 -0.20165814 -0.00000058
-0.14527319 -0.63314104 -0.00000056
-0.13951004 0.49506140 -0.02872437
-0.27341732 -0.66333282 -0.00000139
-0.51944494 -0.45406827 0.25527081
-0.04857223 0.55343753 -0.00000016
-0.11500523 0.56680089 -0.04006658
-0.04460035 0.05978352 -0.00000953
-0.24304084 -0.15545987 -0.00000026
-0.41861355 -0.07156738 -0.12535226
-0.03397795 -0.49098355 0.00000037
-0.52890408 -0.53157705 -0.00000269
-0.51587534 -0.20990656 -0.21232517
-0.00593785 0.05215304 -0.00001084
-0.40918508 -0.08176977 -0.09563254
-0.14741603 0.09294602 -0.00000581
-0.15785933 0.51170701 -0.08366978
-0.16954339 0.51601839 -0.11298779
-0.19159751 0.26266682 -0.00000129
-0.12498527 0.57107025 -0.06563780
-0.51932216 -0.45377189 0.29596850
-0.41090643 -0.19203892 0.39866266
-0.30795336 0.19158033 -0.12174070
-0.16176394 0.03896291 -0.00000639
-0.00551706 0.78931183 -0.00236899
-0.48706228 -0.11192202 -0.23795201
-0.27262363 -0.58810580 -0.00000125
-0.37834522 -0.01527498 -0.08845771
-0.60703295 -0.55816430 -0.09675580
-0.66063142 -0.56177872 -0.21015656
-0.54871118 -0.72115618 -0.00000316
-0.55854332 -0.35380709 -0.17545794
-0.16317521 0.22802757 -0.00000280
-0.46367627 -0.06575853 -0.22867073
-0.07499307 -0.78347683 -0.00000042
-0.18124530 0.31285083 -0.00000066
-0.04702736 -0.32157588 0.00000061
-0.58608580 -0.61240172 -0.00226432
-0.07407563 -0.08417709 0.00000090
-0.39653033 -0.22656046 -0.00000132
-0.03451337 -0.25939956 0.00000081
-0.47323096 -0.11606846 -0.20410915
-0.07849551 0.32729056 -0.00000349
-0.50287235 -0.24657369 -0.15096557
-0.08417718 -0.56262398 -0.00000006
-0.44905302 -0.38613388 -0.00000193
-0.08041833 0.64040774 -0.03114808
-0.37500322 -0.32246786 -0.00000137
-0.40610614 0.12256989 -0.27315763
-0.01339073 0.51107866 -0.00000201
-0.18712170 0.42511389 -0.06929110
-0.25727788 0.37419128 -0.17607941
-0.70486027 -0.74798930 -0.13854082
-0.37592608 -0.77178144 -0.00000222
-0.48879698 -0.10331935 -0.24948362
-0.51037347 -0.59729129 -0.00000270
-0.27993456 -0.40652344 -0.00000095
-0.53761858 -0.69979203 -0.00000306
-0.22657987 0.38026083 -0.11473573
-0.03258725 -0.33579844 0.00000067
-0.08528779 -0.60331666 -0.00000015
-0.67003191 -0.72075224 -0.08729164
-0.40384647 0.05603324 -0.20825185
-0.22181217 0.20175061 -0.00000152
-0.56334436 -0.61018443 -0.00000304
-0.19194949 -0.62200850 -0.00000082
-0.00124097 0.72098792 0.00000156
-0.03185317 0.38085231 -0.00000390
-0.19607349 -0.04106403 0.00000024
-0.67450202 -0.74794263 -0.07250698
-0.04364204 -0.02975648 0.00000118
-0.50349313 -0.17112952 -0.22033492
-0.22237074 -0.68870944 -0.00000113
-0.66605932 -0.60181326 -0.18587671
-0.01289506 0.64696890 0.00000052
-0.57556534 -0.76144499 -0.00000340
-0.14910994 0.52996284 -0.08108519
-0.41592649 -0.34331185 -0.00000165
-0.06503096 0.33335468 -0.00000379
-0.11948204 -0.23076001 0.00000035
-0.19781420 0.24366359 -0.00000146
-0.48719171 -0.58254004 -0.00000253
-0.62092751 -0.60262418 -0.08691429
-0.49667290 -0.18382762 -0.19404206
-0.55476034 -0.26994574 -0.24283092
-0.38778964 -0.12512481 -0.00997663
-0.16018359 -0.31693965 -0.00000006
-0.35597771 0.10568473 -0.14882727
-0.52850109 -0.66622841 -0.00000294
-0.38853979 0.02403617 -0.14608850
-0.44580051 -0.27627844 0.33810526
-0.54853916 -0.73611486 -0.00000319
-0.39383402 -0.10021260 -0.04559263
-0.23094951 0.21835260 -0.00000094
-0.59327906 -0.61538219 -0.01523379
-0.18693532 0.44828707 -0.08977768
-0.08353263 0.24457726 -0.00000489
-0.64867336 -0.54650646 -0.19789828
-0.38577291 -0.48103586 -0.00000173
-0.35851526 0.06681646 -0.11930793
-0.03210275 -0.14635465 0.00000103
-0.32655847 -0.16200098 -0.00000077
-0.56509358 -0.55488014 -0.00843342
-0.49985769 -0.20258357 -0.18406416
-0.00108895 -0.66730118 0.00000024
-0.37218475 -0.70156986 -0.00000206
-0.37564903 -0.03444669 -0.06530466
-0.36824161 -0.08176358 -0.00652253
-0.16185804 -0.19697429 0.00000015
-0.34170368 0.19138503 -0.19502395
-0.51242763 -0.13225375 -0.27483055
-0.00279774 -0.51611936 0.00000055
-0.48977688 -0.35287616 -0.02662339
-0.07670342 0.16513956 -0.00000659
-0.18641035 -0.24984518 -0.00000009
-0.13897862 0.56635517 -0.09184406
-0.46419507 0.03261546 -0.31849101
-0.33184847 -0.15992741 -0.00000080
-0.05967019 0.23266540 -0.00000584
-0.45310363 -0.38427591 -0.00000196
-0.24916194 -0.26218373 -0.00000050
-0.49246332 -0.08025421 -0.27825838
-0.15772989 0.27406180 -0.00000210
-0.54154909 -0.08894892 -0.37725726
-0.36384568 0.01860663 -0.08744531
-0.13604803 0.55608606 -0.07620715
-0.41289127 -0.28827128 -0.00000153
-0.23335129 0.19156395 -0.00000137
-0.26139060 -0.05144466 -0.00000017
-0.12890749 0.53592068 -0.04248490
-0.24516609 0.25012729 -0.03786505
-0.17424746 -0.77581555 -0.00000101
-0.31079108 0.16682553 -0.10559893
-0.39206913 -0.14656012 0.39314350
-0.52623886 -0.05528549 -0.37428367
-0.41581818 0.05535031 -0.23369320
-0.09938791 0.28901082 -0.00000358
-0.35381362 -0.16202408 -0.00000094
-0.18790722 -0.48839754 -0.00000055
-0.23987803 0.38478240 -0.14775635
-0.39825216 -0.40441129 -0.00000166
-0.59202814 -0.65800959 -0.00000331
-0.41331276 -0.27421343 -0.00000151
-0.02882634 0.56562579 -0.00000052
-0.13409722 -0.42222652 -0.00000010
-0.33930010 0.11832608 -0.12392467
-0.14527576 0.13809073 -0.00000503
-0.63724768 -0.57523692 -0.14712743
-0.26451996 -0.31211048 -0.00000068
-0.23086925 -0.41004071 -0.00000066
-0.26247814 -0.37181658 -0.00000078
-0.42162693 -0.57987869 -0.00000213
-0.22732855 -0.30933192 -0.00000045
-0.40598100 0.00445461 -0.16639604
-0.02929306 -0.79870552 -0.00000017
-0.33977321 0.22179216 -0.21823631
-0.28205326 -0.20186961 -0.00000058
-0.55918020 -0.70728070 -0.00000320
-0.60158789 -0.32494563 -0.29516712
-0.08605453 0.37298441 -0.00000241
-0.19218083 -0.54754448 -0.00000069
-0.29011834 -0.16725127 -0.00000056
-0.41072497 0.11858841 -0.27962118
-0.38137290 -0.08389314 -0.03318349
-0.46034551 -0.39960337 -0.00000203
-0.38084576 -0.49446106 -0.00000173
-0.00621148 -0.16837344 0.00000115
-0.06743635 -0.43339348 0.00000028
-0.42471167 -0.20283243 -0.02028048
-0.44287062 -0.55278212 -0.00000221
-0.08172564 -0.43950960 0.00000018
-0.58598554 -0.28862634 -0.29395235
-0.27356839 -0.36786965 -0.00000084
-0.19492602 0.37730494 -0.04317450
-0.71606332 -0.79634875 -0.11932543
-0.06475417 0.14499046 -0.00000733
-0.45633194 -0.02506795 -0.24937084
-0.50023842 -0.63394696 -0.00000271
-0.14431573 0.50311649 -0.04644650
-0.44929871 -0.28472453 0.36357066
-0.42513385 -0.27733579 -0.00000159
-0.29873806 -0.68357038 -0.00000158
-0.36720511 -0.64392591 -0.00000192
-0.04659735 -0.33180538 0.00000060
-0.48554930 -0.08047391 -0.26301163
-0.33935708 0.20352215 -0.20085894
-0.61785781 -0.51056385 -0.16323183
-0.60953683 -0.62689519 -0.04023987
-0.11869573 -0.00930511 0.00000077
-0.41294998 -0.74538106 -0.00000239
-0.32226357 -0.07404302 -0.00000058
-0.49833617 -0.01425928 -0.35054007
-0.43137497 -0.00004028 -0.21761492
-0.55127752 -0.78576165 -0.00000330
-0.60764539 -0.43319681 -0.21075574
-0.29367274 -0.15737106 -0.00000057
-0.16138071 0.09045142 -0.00000543
-0.29050088 0.30307978 -0.18427902
-0.59600884 -0.50788039 -0.11809572
-0.53496367 -0.39814487 -0.08416194
-0.28252527 0.14743268 -0.02659289
-0.40784287 -0.16687158 -0.01598588
-0.63388330 -0.44799727 -0.25451991
-0.16227853 0.09609626 -0.00000530
-0.49695584 -0.75393945 -0.00000291
-0.64441955 -0.62300217 -0.11967362
-0.59203196 -0.32397339 -0.27524483
-0.32623750 0.19254342 -0.16240537
-0.37400258 0.03229261 -0.12189119
-0.53171283 -0.11802295 -0.32963586
-0.31588727 0.23131365 -0.17483166
-0.22744030 0.40246314 -0.13662542
-0.00334056 -0.59671384 0.00000041
-0.13699196 0.27492106 -0.00000271
-0.25097424 0.25647587 -0.05623048
-0.04520077 0.47287783 -0.00000177
-0.29154250 0.14489895 -0.04393504
-0.14788686 0.34510216 -0.00000107
-0.16611233 0.34960195 -0.00000043
-0.32877657 0.20024359 -0.17487399
-0.03754288 0.29484114 -0.00000534
-0.01272506 0.20974389 -0.00000768
-0.44000423 -0.04826393 -0.19291991
-0.45600206 -0.30090585 0.30470169
-0.48882589 -0.02524732 -0.31993395
-0.20772672 0.00961449 -0.00000555
-0.19420205 0.28453678 -0.00000080
-0.26528960 -0.32065105 -0.00000070
-0.55570573 -0.59790808 -0.00000298
-0.15981358 0.34813976 -0.00000065
-0.16176417 -0.15212625 0.00000024
-0.40625942 -0.18082072 0.41393691
-0.21558204 0.02022994 -0.00000511
-0.15666533 -0.14177923 0.00000029
-0.35647368 0.08573475 -0.13192047
-0.28630319 -0.26116079 -0.00000072
-0.53685254 -0.41827801 -0.07012172
-0.59372973 -0.43989459 -0.17442904
-0.19977991 -0.61704504 -0.00000086
-0.52137774 -0.35728839 -0.09142641
-0.06994358 0.59703249 0.00000131
-0.35870811 -0.09610583 -0.00000085
-0.35777453 -0.02062205 -0.03886371
-0.25165138 0.23063110 -0.03440343
-0.45257869 0.03808333 -0.29813698
-0.53790921 -0.52821714 -0.00000274
-0.11262768 -0.76953125 -0.00000062
-0.47755599 -0.40712956 -0.00000215
-0.27208412 0.03086051 -0.00000321
-0.24431849 -0.63982719 -0.00000117
-0.20116328 0.43454334 -0.10835461
-0.48025009 -0.35944587 0.31737515
-0.55571359 -0.46323714 -0.07063997
-0.11343982 -0.38871977 0.00000009
-0.35592446 -0.05929940 0.38512784
-0.20166856 -0.51736218 -0.00000069
-0.00545446 0.73214418 0.00000189
-0.06332002 -0.69362408 -0.00000018
-0.04998530 -0.11206683 0.00000099
-0.06420576 0.22137156 -0.00000591
-0.28453800 -0.56609344 -0.00000128
-0.09035380 -0.79314679 -0.00000053
-0.22660026 -0.63054174 -0.00000105
-0.43506631 0.06949693 -0.28834197
-0.58935094 -0.50386679 -0.10722291
-0.37555498 -0.29267925 -0.00000132
-0.42788771 -0.23303489 0.38270149
-0.42712429 -0.23119207 0.39029756
-0.23656315 0.35943630 -0.11769006
-0.29623818 -0.54533565 -0.00000131
-0.54386491 -0.48785123 -0.02265936
-0.25755656 0.29337174 -0.10382149
-0.44960299 -0.60993081 -0.00000236
-0.08244058 0.36874449 -0.00000260
-0.29805756 -0.15204069 -0.00000058
-0.51481801 -0.24797851 -0.17569932
-0.36523467 -0.41960686 -0.00000149
-0.30110571 0.08793389 -0.01339186
-0.17032418 -0.69475937 -0.00000083
-0.47362286 -0.32844022 -0.01349405
-0.10078774 -0.50069010 -0.00000005
-0.58722740 -0.37109229 -0.22230650
-0.56591684 -0.31900555 -0.22288276
-0.59288901 -0.38859889 -0.21884581
-0.46475306 -0.32203367 0.35956809
-0.34389028 0.17685448 -0.18668289
-0.41859150 -0.07036288 -0.12639026
-0.55553585 -0.37358776 -0.15107836
-0.47558072 -0.34817329 0.31321502
-0.13829905 -0.23753056 0.00000022
-0.02342890 0.01395773 -0.00001103
-0.22497781 -0.28533703 -0.00000039
-0.16343807 -0.30300727 -0.00000005
-0.36450493 0.01422475 -0.08492967
-0.44197452 -0.26704279 0.36876869
-0.62612200 -0.53923458 -0.15537050
-0.45473236 -0.23850122 -0.05346417
-0.59623855 -0.42531627 -0.19303302
-0.02396051 0.29932731 -0.00000566
-0.05418805 -0.04758308 0.00000108
-0.33780310 -0.66991091 -0.00000179
-0.26661608 0.03711188 -0.00000326
-0.07651047 -0.62342131 -0.00000013
-0.56224120 -0.13868786 -0.37745163
-0.15111142 0.50481677 -0.06277057
-0.40697923 0.11720155 -0.27021801
-0.69693381 -0.70224899 -0.16252658
-0.16949388 -0.18910176 0.00000012
-0.49048695 -0.23464382 -0.13476370
-0.28138813 0.26398349 -0.12919658
-0.54706150 -0.55056286 -0.00000283
-0.28990516 0.14131789 -0.03714272
-0.06642906 -0.39402416 0.00000036
-0.38311353 -0.12493993 0.39740133
-0.43726617 -0.27660784 -0.00000166
-0.45557618 -0.33426535 -0.00000188
-0.38369486 -0.35481033 -0.00000148
-0.56930673 -0.48223117 -0.08310174
-0.20469914 -0.27013072 -0.00000024
-0.55298597 -0.33655763 -0.17891359
-0.13345160 -0.35516071 0.00000003
-0.03482198 -0.23337048 0.00000085
-0.00903924 0.02712741 -0.00001122
-0.00025388 -0.16902865 0.00000118
-0.27428591 -0.26371214 -0.00000065
-0.00607428 -0.54405725 0.00000044
-0.41293767 0.08744073 -0.25635540
-0.71130872 -0.78745562 -0.11699459
-0.46943527 -0.09662045 -0.21338134
-0.35394901 0.09812372 -0.13759492
-0.00159462 -0.54686290 0.00000049
-0.20516920 -0.76591367 -0.00000117
-0.46987283 -0.07217843 -0.23636994
-0.22263335 -0.16839337 -0.00000016
-0.38687545 -0.18443064 -0.00000118
-0.47044319 -0.33577049 0.32340360
-0.30111077 -0.74310100 -0.00000171
-0.49315536 -0.71227384 -0.00000281
-0.40506679 -0.05920785 -0.10701001
-0.37824374 -0.02624540 -0.07834624
-0.10599798 -0.50107431 -0.00000008
-0.48958397 -0.26816812 -0.10257376
-0.27908924 -0.13685134 -0.00000044
-0.00101849 -0.48319620 0.00000059
-0.17915961 0.11880726 -0.00000437
-0.14339907 -0.57985246 -0.00000045
-0.50566065 -0.63795954 -0.00000275
-0.10007792 -0.27356398 0.00000038
-0.42239675 -0.21977761 0.36349800
-0.17299277 0.42589912 -0.03924668
-0.22918874 0.23079868 -0.00000076
-0.60924697 -0.67086411 0.19109906
-0.16543260 0.10149753 -0.00000510
-0.05005478 -0.11406801 0.00000098
-0.12401018 0.51206446 -0.01031760
-0.20697299 -0.09181683 0.00000008
-0.52796167 -0.77221018 -0.00000313
-0.37986121 -0.41012797 -0.00000156
-0.33597893 -0.19061732 -0.00000089
-0.38187218 -0.17367873 -0.00000113
-0.49284080 -0.38984179 0.32864571
-0.47518319 -0.68412447 -0.00000265
-0.06277371 0.41318071 -0.00000236
-0.18631357 -0.12748335 0.00000014
-0.03482409 -0.30198604 0.00000072
-0.15106466 0.50622952 -0.06394246
-0.33361545 -0.33562991 -0.00000114
-0.02960599 -0.07010427 0.00000119
-0.28969237 0.20771137 -0.09653794
-0.49255130 -0.38914287 0.28008747
-0.07074642 -0.33789530 0.00000044
-0.15834299 -0.27205822 0.00000003
-0.35613930 -0.05469864 -0.00458215
-0.10330761 -0.41951415 0.00000009
-0.60941589 -0.55587149 -0.10400947
-0.11580107 0.28990656 -0.00000307
-0.32202813 -0.11666396 -0.00000066
-0.53014916 -0.46088585 -0.01711753
-0.17399618 0.23013256 -0.00000243
-0.42313519 -0.19398029 -0.02483004
-0.29105863 -0.63633496 -0.00000145
-0.66830796 -0.67191285 -0.12757143
-0.39021337 -0.44829571 -0.00000170
-0.12509903 0.00695084 -0.00000809
-0.20859836 0.16974232 -0.00000252
-0.49085498 -0.12438856 -0.23496757
-0.38553876 0.03214540 -0.14686760
-0.31497362 0.19656137 -0.14151140
-0.60562325 -0.71273738 -0.00000349
-0.02721946 -0.31553310 0.00000074
-0.04139113 -0.72298682 -0.00000011
-0.41378835 -0.11958267 -0.07156086
-0.53840327 -0.78046352 -0.00000321
-0.02927010 -0.61515772 0.00000017
-0.46873114 -0.07545105 -0.23093447
-0.07164285 0.29505485 -0.00000431
-0.30712485 -0.27319136 -0.00000087
-0.07731614 -0.41412646 0.00000026
-0.10508239 0.60209686 -0.05029076
-0.09902781 0.51972240 0.00000073
-0.05490152 -0.05796437 0.00000106
-0.16150267 0.41602242 -0.00533336
-0.55702323 -0.11896675 -0.38387436
-0.47954413 -0.17894100 -0.16116609
-0.61201584 -0.68476945 -0.00000348
-0.06728116 0.41608021 -0.00000217
-0.30526277 -0.33590585 -0.00000097
-0.21337005 0.41552046 -0.11777287
-0.26999977 0.23522824 -0.07848432
-0.42866346 0.10131680 -0.30309367
-0.17650984 0.37609342 -0.00199843
-0.17328523 0.50844741 -0.11430632
-0.17225829 0.25808302 -0.00000196
-0.49564475 -0.71228224 -0.00000283
-0.17150427 0.29951471 -0.00000121
-0.48965532 -0.08016980 -0.27222276
-0.06734556 -0.37176535 0.00000040
-0.26309970 0.04998067 -0.00000312
-0.63436860 -0.60469300 -0.11430432
-0.00137677 0.46968216 -0.00000315
-0.08245097 0.18961002 -0.00000596
-0.30142656 -0.02791787 -0.00000037
-0.09607656 -0.59491390 -0.00000020
-0.30816361 -0.19196396 -0.00000072
-0.21121056 0.30522037 -0.01362937
-0.41398838 -0.61380166 -0.00000215
-0.21576145 0.01008711 -0.00000530
-0.03699768 -0.19255529 0.00000092
-0.42060256 -0.31808713 -0.00000163
-0.48822206 -0.74882776 -0.00000285
-0.52263999 -0.05795166 -0.36404684
-0.48473045 -0.16447064 -0.18550038
-0.14156222 0.48468381 -0.02383495
-0.15331601 -0.09198523 0.00000040
-0.41517076 -0.73210090 -0.00000238
-0.18751226 -0.79278654 -0.00000112
-0.00604170 0.19626342 -0.00000814
-0.59351969 -0.34156734 -0.26262081
-0.08603284 -0.32548723 0.00000037
-0.25129536 0.37735513 -0.16591059
-0.02801325 -0.37997204 0.00000062
-0.10391208 -0.07302395 0.00000074
-0.47433513 -0.20464911 -0.12665077
-0.29865804 -0.47479764 -0.00000119
-0.37360737 -0.67193395 -0.00000201
-0.27302030 -0.72915387 -0.00000151
-0.49137324 -0.02450482 -0.32614776
-0.24220547 -0.59238088 -0.00000107
-0.24435155 -0.72544867 -0.00000134
-0.67889899 -0.76849121 -0.06355123
-0.59697819 -0.51554149 -0.11329846
-0.02775158 -0.41656926 0.00000055
-0.40876710 -0.36119020 -0.00000164
-0.12457967 0.11945134 -0.00000600
-0.15815343 -0.04481112 0.00000046
-0.58528942 -0.59403491 -0.01708993
-0.00876694 -0.73042703 0.00000008
-0.15215249 0.45928684 -0.02398810
-0.09434962 -0.45817912 0.00000007
-0.02194088 -0.79306775 -0.00000012
-0.52898103 -0.73497516 -0.00000307
-0.54710859 -0.14469212 -0.33910143
-0.12561551 0.27538863 -0.00000305
-0.41574731 -0.06033825 -0.12923762
-0.14973317 -0.75962543 -0.00000083
-0.07015296 -0.68269950 -0.00000020
-0.22326012 0.31123662 -0.04527992
-0.08920061 0.58125150 0.00000159
-0.65003288 -0.75646883 -0.01156193
-0.16325428 -0.69255102 -0.00000078
-0.51247257 -0.51360661 -0.00000256
-0.53614664 -0.43533254 -0.05320942
-0.52565730 -0.25650385 -0.19160543
-0.08356272 0.50135791 -0.00000008
-0.47890437 -0.28202379 -0.06683720
-0.07386645 -0.04214263 0.00000098
-0.39085984 -0.79670036 -0.00000235
-0.51545262 -0.49274790 -0.00000253
-0.22696923 0.30486083 -0.04760477
-0.39617434 -0.11909384 -0.03366372
-0.42139310 -0.66764069 -0.00000230
-0.08545339 -0.38371953 0.00000026
-0.47628215 -0.74413949 -0.00000277
-0.02357766 -0.70361471 0.00000004
-0.66270536 -0.56438804 -0.21231809
-0.16447610 -0.29770708 -0.00000005
-0.15066096 0.39086649 -0.00000012
-0.23944545 0.32487342 -0.09280268
-0.26141337 0.03089932 -0.00000353
-0.12056045 0.02340372 -0.00000792
-0.20236059 -0.56588221 -0.00000078
-0.56429183 -0.19713391 -0.32922176
-0.32707050 -0.13730110 -0.00000073
-0.55305290 -0.53520304 0.24590653
-0.34816334 0.02994776 -0.06353674
-0.18645076 0.31280500 -0.00000051
-0.49852031 -0.70765531 -0.00000284
-0.02385619 0.02627011 -0.00001079
-0.41469210 -0.37488890 -0.00000171
-0.13420635 0.05593882 -0.00000690
-0.27092102 -0.48259175 -0.00000104
-0.02742788 -0.30064923 0.00000077
-0.46784705 -0.32950202 0.29817152
-0.42548412 -0.22494833 -0.00202273
-0.01927932 0.30909431 -0.00000562
-0.15268300 -0.02469065 0.00000053
-0.39814481 -0.08421277 -0.06940031
-0.38343814 0.06679910 -0.17353825
-0.12142287 0.16780855 -0.00000519
-0.19253814 -0.27688345 -0.00000018
-0.26777086 0.28584015 -0.11926318
-0.60279012 -0.53815299 -0.10556260
-0.22428124 -0.70401484 -0.00000117
-0.58975226 -0.43489110 -0.17028283
-0.07556737 -0.03039542 0.00000099
-0.13218085 -0.13832036 0.00000044
-0.61301160 -0.63975424 -0.03620953
-0.46162182 -0.07484048 -0.21601115
-0.19634876 -0.78814644 -0.00000116
-0.48832893 -0.53549427 -0.00000245
-0.18644996 -0.43511164 -0.00000044
-0.19351600 -0.42059782 -0.00000046
-0.53160214 -0.30480507 -0.16099773
-0.36594516 -0.44894993 -0.00000155
-0.16088668 -0.68594086 -0.00000076
-0.36453706 -0.06096471 -0.01721101
-0.05424216 -0.30626732 0.00000060
-0.42704439 -0.71338040 -0.00000242
-0.40869924 0.01711213 -0.18372408
-0.55783051 -0.75944829 -0.00000329
-0.39670354 -0.00003670 -0.14215390
-0.36836424 0.06970354 -0.14334767
-0.14526223 -0.44300345 -0.00000021
-0.34616637 -0.53878391 -0.00000160
-0.61284280 -0.43323988 -0.22202928
-0.23617665 -0.04022400 -0.00000000
-0.48921987 -0.05044120 -0.29807740
-0.48744974 -0.17025653 -0.18620268
-0.22167955 -0.29033330 -0.00000038
-0.19394781 -0.34253868 -0.00000031
-0.01350095 0.17511983 -0.00000831
-0.01499764 -0.08893899 0.00000124
-0.46942207 -0.04493387 -0.25995168
-0.68908775 -0.69426966 -0.15264322
-0.24685457 -0.01521223 -0.00000002
-0.25440383 -0.13627884 -0.00000029
-0.11427523 0.05540419 -0.00000751
-0.68949872 -0.68248510 -0.16416229
-0.62761652 -0.49155912 -0.20160612
-0.28666249 0.31766474 -0.18907391
-0.35698253 0.18084146 -0.21877341
-0.56080604 -0.60789263 -0.00000302
-0.30237302 -0.44998097 -0.00000117
-0.10585811 0.21720938 -0.00000473
-0.14711769 -0.65401590 -0.00000061
-0.14751454 0.49161187 -0.04303662
-0.33431652 0.16267201 -0.15305862
-0.36925668 0.11192545 -0.18335614
-0.44238287 -0.30986333 -0.00000175
-0.36585900 -0.43680528 -0.00000153
-0.49179128 -0.79245746 -0.00000295
-0.55966473 -0.55116498 0.21239869
-0.22332363 -0.07692382 0.00000001
-0.23810434 -0.06366192 -0.00000006
-0.19217011 -0.13743038 0.00000008
-0.03853112 -0.15779880 0.00000097
-0.47340852 -0.62543166 -0.00000253
-0.21540204 -0.64635980 -0.00000101
-0.30255103 -0.61531234 -0.00000148
-0.26600039 -0.41383728 -0.00000088
-0.15777528 0.01592244 -0.00000694
-0.27791259 0.17828217 -0.04436611
-0.06094605 -0.43811014 0.00000031
-0.08463572 -0.44377068 0.00000016
-0.42317858 0.08723078 -0.27845603
-0.37798148 -0.07706295 -0.03195982
-0.19291294 0.21862990 -0.00000208
-0.50961882 -0.09502658 -0.30227998
-0.32893202 -0.41537571 -0.00000126
-0.30305722 -0.37943670 -0.00000104
-0.54023719 -0.50426388 0.22370206
-0.54940385 -0.13932987 -0.34893167
-0.16537702 -0.04253518 0.00000042
-0.20920923 -0.20723470 -0.00000015
-0.26771906 -0.66031587 -0.00000135
-0.41584128 -0.42562404 -0.00000181
-0.18659332 0.42352858 -0.06671178
-0.05689667 -0.37593952 0.00000045
-0.02199268 -0.16277643 0.00000106
-0.04142883 -0.26402220 0.00000075
-0.13206504 -0.06935846 0.00000057
-0.42621908 -0.22900654 0.38432565
-0.30317372 0.15441027 -0.07782613
-0.49482888 -0.20178996 -0.17383417
-0.69271195 -0.72421920 -0.13352993
-0.33163199 0.13534051 -0.12257429
-0.43278557 -0.30997998 -0.00000169
-0.31517929 0.23456824 -0.17622489
-0.00852660 0.38177165 -0.00000458
-0.49364862 -0.71925992 -0.00000283
-0.47129592 -0.33782914 0.34351295
-0.19240291 -0.48008576 -0.00000056
-0.20871507 -0.08657735 0.00000008
-0.23359932 0.40720642 -0.15430722
-0.32440427 0.27089483 -0.22905453
-0.56893438 -0.57354343 0.24679253
-0.02838083 0.42035738 -0.00000326
-0.46613377 -0.68442249 -0.00000260
-0.51840597 -0.51957554 -0.00000260
-0.27469936 0.06755032 -0.00000244
-0.46162212 -0.31447384 0.30352977
-0.02914326 -0.07687045 0.00000118
-0.48517680 -0.67049116 -0.00000269
-0.58489847 -0.30340445 -0.27826282
-0.41459811 -0.60644668 -0.00000214
-0.41910583 -0.73922414 -0.00000242
-0.21320015 -0.71531034 -0.00000113
-0.53068137 -0.31617507 -0.14874282
-0.06918387 -0.61707598 -0.00000007
-0.48970345 -0.38226685 0.26500994
-0.40015894 -0.30908930 -0.00000149
-0.55436647 -0.15527911 -0.34535366
-0.00746312 -0.11365047 0.00000124
-0.29036602 -0.19092567 -0.00000061
-0.08987548 0.53511792 0.00000075
-0.63091439 -0.52090031 -0.18233089
-0.48703668 -0.13661397 -0.21563479
-0.07064996 -0.23046242 0.00000064
-0.66991776 -0.69496596 -0.11029122
-0.00268477 0.28336108 -0.00000661
-0.47507817 -0.38631630 -0.00000209
-0.62646157 -0.62325507 -0.08035931
-0.53351331 -0.15883419 -0.29676047
-0.65501046 -0.70500433 -0.06879464
-0.32338956 -0.78206176 -0.00000192
-0.58187771 -0.34499264 -0.23419327
-0.06382730 -0.25325254 0.00000064
-0.58278459 -0.56818700 -0.03494174
-0.25613856 -0.25820622 -0.00000053
-0.25711542 -0.20188338 -0.00000043
-0.32711256 -0.18301781 -0.00000082
-0.18776633 0.41790628 -0.06419602
-0.49482036 -0.09683074 -0.26844376
-0.60590792 -0.65114236 -0.01048078
-0.10716771 -0.31533256 0.00000026
-0.51584625 -0.44538045 0.25793576
-0.42928162 -0.44627517 -0.00000193
-0.31903034 -0.57816941 -0.00000151
-0.27167070 0.24977759 -0.09523843
-0.26419824 0.30802503 -0.13148841
-0.24450520 -0.01006550 0.00000001
-0.03006582 0.30217919 -0.00000543
-0.44510949 -0.12093770 -0.13851126
-0.32414526 -0.43232927 -0.00000127
-0.24960558 0.30079499 -0.09320832
-0.61195433 -0.39647144 -0.25324473
-0.29408205 -0.11074260 -0.00000048
-0.66201729 -0.72467023 -0.06631518
-0.38716453 -0.13472101 0.41200632
-0.45962596 0.03137924 -0.30743155
-0.10918711 -0.06278753 0.00000072
-0.65546125 -0.69200951 -0.08149156
-0.18678617 -0.29085940 -0.00000017
-0.06093746 0.10355454 -0.00000822
-0.52244675 -0.31257465 -0.13406578
-0.52470881 -0.46153337 -0.00469246
-0.48751062 -0.24358445 -0.12022491
-0.62459296 -0.47144166 -0.21316241
-0.60344875 -0.38941872 -0.24109049
-0.23359068 0.24354354 -0.00673487
-0.06355165 0.51388901 -0.00000045
-0.66308975 -0.60807651 -0.17376655
-0.32218111 -0.43663970 -0.00000126
-0.30580935 0.11368161 -0.04684296
-0.10163003 0.23836802 -0.00000446
-0.61910844 -0.57381219 -0.10893099
-0.31296760 0.08844488 -0.03967056
-0.22033682 -0.00897167 0.00000015
-0.45282245 -0.79657835 -0.00000273
-0.25022274 -0.46021384 -0.00000087
-0.40882802 0.00239276 -0.17073382
-0.04429591 -0.17204395 0.00000091
-0.66351998 -0.63119733 -0.15385799
-0.11533286 -0.38762936 0.00000008
-0.46770069 -0.21391422 -0.10385738
-0.03739225 -0.71388263 -0.00000006
-0.08814713 -0.25773555 0.00000048
-0.33014858 -0.57198489 -0.00000157
-0.06280124 0.67615145 -0.02502906
-0.56581044 -0.50569946 -0.05433357
-0.38613638 0.12320679 -0.23026663
-0.39928693 0.00290928 -0.15043283
-0.44160080 -0.03458203 -0.20873015
-0.38386539 -0.44357842 -0.00000165
-0.48191562 -0.33107215 -0.02917082
-0.09570183 -0.05509760 0.00000082
-0.36440718 -0.37880662 -0.00000141
-0.36545792 -0.05137713 -0.02785916
-0.26718092 -0.66085136 -0.00000135
-0.13623279 0.56887221 -0.08813690
-0.46716085 -0.22164020 -0.09571689
-0.51735502 -0.69214821 -0.00000292
-0.52188027 -0.45810577 -0.00162622
-0.62201393 -0.70168549 0.17234226
-0.01463857 -0.56890684 0.00000034
-0.27293262 -0.55863905 -0.00000119
-0.56881601 -0.23536143 -0.30460405
-0.41882995 -0.15036197 -0.05478445
-0.30061176 -0.57552910 -0.00000139
-0.23671299 -0.51281285 -0.00000089
-0.17299469 -0.38529003 -0.00000027
-0.07037226 0.67599773 -0.04136916
-0.15543634 -0.48133546 -0.00000034
-0.44304326 -0.40155828 -0.00000193
-0.50942171 -0.05182064 -0.34080410
-0.22700487 -0.57876140 -0.00000096
-0.40645811 0.10394562 -0.25713262
-0.16599359 0.22713117 -0.00000273
-0.58727419 -0.47818992 -0.12585235
-0.17186983 -0.79609060 -0.00000103
-0.39432576 -0.45518941 -0.00000173
-0.46858022 -0.10047469 -0.20804544
-0.50175905 -0.03832033 -0.33629739
-0.44402918 -0.01277925 -0.23367234
-0.14660738 -0.33564407 -0.00000001
-0.32755223 0.10796314 -0.08901188
-0.44939563 -0.28495777 0.33593270
-0.09599272 -0.08448706 0.00000076
-0.00655356 -0.29343218 0.00000091
-0.04385532 -0.07190558 0.00000110
-0.00016334 -0.54731196 0.00000048
-0.53452343 -0.06685603 -0.38188389
-0.29839957 0.17853859 -0.08918828
-0.18174176 0.43293092 -0.06462897
-0.16360427 -0.28322095 -0.00000002
-0.29646537 0.24682917 -0.14654717
-0.59994942 -0.62529117 -0.02081853
-0.34325165 0.01451050 -0.03892836
-0.59988856 -0.74343884 -0.00000351
-0.58615530 -0.55328280 -0.05571543
-0.46907344 0.03982782 -0.33561149
-0.35044792 0.08437861 -0.11758245
-0.56364119 -0.56076485 0.25357851
-0.10755644 0.60161197 -0.05523853
-0.12743855 0.57962167 -0.07868718
-0.55147207 -0.29983178 -0.20872951
-0.46357861 -0.45110869 -0.00000214
-0.53518230 -0.39070344 -0.09134670
-0.65136844 -0.56790966 -0.18446782
-0.27791530 -0.06969354 -0.00000031
-0.05062633 -0.32842639 0.00000058
-0.62467182 -0.60378754 -0.09401509
-0.57272494 -0.39760321 -0.16683966
-0.61405951 -0.57268697 -0.09895626
-0.15551104 -0.43011123 -0.00000025
-0.28525177 0.12356910 -0.01101257
-0.26037294 -0.46161035 -0.00000094
-0.59995335 -0.29205275 -0.32126465
-0.41257834 -0.12879460 -0.06062198
-0.30206794 0.10038751 -0.02671405
-0.53110397 -0.11065130 -0.33495668
-0.37484902 0.17403865 -0.25152752
-0.23009138 -0.51921809 -0.00000086
-0.41995820 -0.18300374 -0.02781131
-0.05524635 -0.64390397 -0.00000004
-0.51950645 -0.45421684 0.29986709
-0.53216833 -0.48689950 -0.00000262
-0.17757602 -0.27903411 -0.00000009
-0.62405103 -0.69738281 -0.00828126
-0.50990868 -0.43104631 0.28539541
-0.23406398 -0.09793769 -0.00000010
-0.40434402 0.09127652 -0.24110907
-0.62548161 -0.60310072 -0.09639693
-0.10958691 -0.13129216 0.00000059
-0.13900800 0.45654583 0.00000076
-0.46317223 -0.61829638 -0.00000245
-0.22071928 0.02748781 -0.00000482
-0.08219994 -0.09863384 0.00000082
-0.20521152 0.17710496 -0.00000249
-0.22588192 -0.11416157 -0.00000008
-0.38267407 -0.11808078 -0.00519299
-0.31527048 -0.20083188 -0.00000078
-0.23940624 -0.30307135 -0.00000051
-0.48380268 -0.06307158 -0.27489942
-0.36373994 -0.49235818 -0.00000162
-0.46525273 -0.14840549 -0.15758999
-0.26589814 0.17591470 -0.01608161
-0.08189796 0.28425944 -0.00000420
-0.00441179 -0.46072146 0.00000067
-0.48273343 -0.54812568 -0.00000244
-0.37937102 -0.04224514 -0.06637487
-0.54432493 -0.27459782 -0.21592356
-0.19274938 -0.44397897 -0.00000050
-0.40566391 -0.06867633 -0.09977320
-0.00577175 -0.36411998 0.00000078
-0.19864862 -0.47717690 -0.00000059
-0.62706017 -0.69599378 -0.01608308
