ply
format ascii 1.0
element vertex 440
property float x
property float y
property float z
end_header
-0.35539567 0.27355868 0.00554410
-0.23623061 0.46841440 0.00399225
-0.65272033 -0.50197554 0.00458685
-0.77507102 -0.40009463 0.01122714
-0.39520752 0.07148364 0.00377128
-0.30479658 0.33278680 0.00449189
-0.61514074 -0.26767486 0.00698552
-0.60693896 -0.47666714 0.00316211
-0.18745160 0.54602551 0.00332103
-0.63939029 -0.64001757 0.00174210
-0.75410980 -0.66995811 0.00587154
-0.17458390 0.44139618 0.00105129
-0.69656265 -0.18016870 0.01173386
-0.35295269 0.40173849 0.00758961
-0.71200788 0.07157428 0.01656372
-0.63086194 -0.08405762 0.01068836
-0.23108941 0.25477549 0.00021100
-0.78549314 -0.15496974 0.01574401
-0.75458020 -0.72574401 0.00495829
-0.64116728 -0.57734692 0.00286108
-0.77839178 -0.12707496 0.01592358
-0.51437658 0.12702973 0.00951193
-0.63898385 -0.42213556 0.00536665
-0.70883977 -0.75721985 0.00258637
-0.52041841 0.13572872 0.00990138
-0.43099767 0.06299989 0.00507441
-0.50426096 -0.25719202 0.00268577
-0.72761714 -0.27494869 0.01140333
-0.62173468 -0.26816085 0.00724352
-0.40099490 0.36028489 0.00883591
-0.71435684 -0.60963064 0.00527538
-0.51021552 -0.36112684 0.00118926
-0.59761471 0.00909004 0.01089984
-0.52756250 0.09916148 0.00957814
-0.49350938 -0.06574588 0.00545104
-0.78104591 -0.49242809 0.00992529
-0.71279627 -0.64581376 0.00460774
-0.66955429 -0.32116118 0.00828777
-0.58116996 -0.47847244 0.00209195
-0.69831133 -0.32042304 0.00946069
-0.21632019 0.49244601 0.00359035
-0.66540331 -0.48788950 0.00533410
-0.68438011 -0.18888213 0.01109658
-0.21112861 0.35817599 0.00113472
-0.76411498 -0.28063923 0.01278121
-0.59778243 -0.33197320 0.00521050
-0.41686606 0.19057029 0.00663779
-0.24396822 0.34890658 0.00230557
-0.70115048 -0.31075701 0.00973680
-0.58473128 -0.59027570 0.00036737
-0.31076407 0.29610729 0.00411927
-0.75602341 0.00065318 0.01715452
-0.65237063 -0.26623616 0.00851210
-0.66812581 -0.60686797 0.00345577
-0.72090960 -0.38165119 0.00934955
-0.69014084 -0.60508788 0.00437400
-0.49973208 0.29397979 0.01171333
-0.79370070 -0.69059879 0.00712437
-0.28781146 0.25176570 0.00245082
-0.44328839 0.27312845 0.00908560
-0.41359130 0.00482936 0.00339856
-0.25815842 0.52146250 0.00576496
-0.34501821 0.06508581 0.00163785
-0.55124283 -0.38099572 0.00251304
-0.34806177 0.15749606 0.00330654
-0.54228657 -0.35394520 0.00260361
-0.70379323 -0.09864897 0.01338792
-0.27444792 0.27657098 0.00232620
-0.36675543 -0.07246913 0.00022311
-0.78650969 -0.26041257 0.01402299
-0.28433764 0.45846125 0.00576809
-0.60342115 -0.41530883 0.00404547
-0.52236682 0.13722284 0.01000504
-0.66843510 0.06863278 0.01475525
-0.74523282 -0.62645328 0.00624030
-0.45496130 0.28056148 0.00968124
-0.61644679 -0.09010535 0.01000553
-0.75318563 -0.04831772 0.01622238
-0.75624090 -0.48494613 0.00904927
-0.61503923 -0.46852818 0.00362503
-0.69944668 -0.09048193 0.01334898
-0.25127420 0.41055062 0.00363171
-0.54125977 0.13841183 0.01078774
-0.25420272 0.36217111 0.00294068
-0.62701076 -0.32084757 0.00657602
-0.22146793 0.27068439 0.00008864
-0.29908818 0.17624022 0.00164276
-0.44854087 -0.27588814 0.00012457
-0.78153640 -0.59185547 0.00828355
-0.65885800 -0.38293666 0.00682377
-0.32625595 0.15005066 0.00230158
-0.30697918 0.11267156 0.00089801
-0.28070307 0.21586847 0.00156334
-0.41165367 0.37537017 0.00951860
-0.38314015 -0.11883258 0.00010961
-0.74458623 -0.50799853 0.00819370
-0.13056582 0.50468409 0.00033270
-0.36627063 -0.07481361 0.00016437
-0.68413329 -0.24218705 0.01019586
-0.32518312 0.46108496 0.00746113
-0.73723400 -0.37451491 0.01012763
-0.40815049 0.28520599 0.00786893
-0.45210400 0.14811945 0.00735043
-0.66419333 -0.29840302 0.00845171
-0.61197197 0.01845403 0.01163616
-0.59535146 0.08309362 0.01204637
-0.73274392 -0.15289082 0.01364990
-0.79131222 -0.49543506 0.01028935
-0.20285894 0.46628878 0.00260930
-0.74846894 -0.30082217 0.01181251
-0.33160132 0.40896448 0.00684842
-0.70629781 -0.00768326 0.01500910
-0.76651055 -0.70316833 0.00581702
-0.74719429 -0.77161556 0.00389366
-0.50019848 0.19196086 0.01002563
-0.62690359 -0.70830536 0.00009702
-0.69686747 -0.38983178 0.00824255
-0.59261060 0.14765047 0.01301559
-0.31182715 0.05653460 0.00015471
-0.51143992 -0.04572621 0.00650923
-0.32074887 0.04539467 0.00032858
-0.21923082 0.42414969 0.00256543
-0.76607388 -0.03193879 0.01701623
-0.62540168 -0.49151182 0.00365917
-0.77921849 0.01609074 0.01834926
-0.33692187 0.12965199 0.00239100
-0.20949455 0.47533581 0.00302855
-0.57565475 0.11614016 0.01180390
-0.72507465 -0.23546092 0.01196058
-0.49376944 0.05140344 0.00741486
-0.55036521 -0.02105554 0.00849245
-0.56147283 0.10393107 0.01102707
-0.21460468 0.54550636 0.00440866
-0.49542138 -0.30347261 0.00155564
-0.72762430 -0.38460547 0.00957118
-0.55026728 0.12997197 0.01101024
-0.59325999 0.04715406 0.01136074
-0.56871152 -0.27131629 0.00505086
-0.47501421 -0.19443601 0.00255411
-0.71206546 -0.77147549 0.00247832
-0.49527854 0.25094131 0.01081359
-0.74599266 -0.14034151 0.01439431
-0.71428496 -0.24405427 0.01138153
-0.62113613 -0.01636604 0.01142702
-0.70174575 -0.78710926 0.00180060
-0.61432558 0.10724172 0.01321640
-0.12061859 0.62964904 0.00202145
-0.07358215 0.70747334 0.00142415
-0.36790371 0.31617695 0.00676202
-0.52739400 -0.04509312 0.00716369
-0.59058630 0.16115287 0.01315972
-0.66493833 -0.24265774 0.00941332
-0.69978148 -0.43098128 0.00767252
-0.48062336 -0.14142299 0.00366637
-0.74200791 -0.09474594 0.01499542
-0.68362361 -0.55038458 0.00502511
-0.48897740 0.01725476 0.00665015
-0.10099053 -0.52195019 0.00000185
-0.08950166 0.59668195 0.00021363
-0.29664993 0.42361671 0.00568234
-0.68108940 -0.73445326 0.00184691
-0.59899396 -0.14381695 0.00840361
-0.69673544 -0.11878355 0.01276662
-0.52281272 0.06165899 0.00875904
-0.48300180 -0.07523089 0.00486847
-0.78873694 -0.08566857 0.01703301
-0.72736108 -0.26707029 0.01152465
-0.41900581 -0.01276398 0.00332956
-0.61915821 -0.10061373 0.00993936
-0.72591442 -0.14480495 0.01350940
-0.79639751 -0.32113063 0.01340737
-0.61186057 -0.28655002 0.00653772
-0.21189176 0.54157251 0.00423332
-0.68988383 -0.15105508 0.01195082
-0.24146733 0.33069962 0.00190004
-0.49906200 0.20814650 0.01025049
-0.61066216 0.07856655 0.01258882
-0.75450158 -0.51285762 0.00851265
-0.28838956 0.21118467 0.00179534
-0.37797424 0.12740010 0.00401083
-0.49850437 -0.03102387 0.00623286
-0.48716080 -0.30856967 0.00113708
-0.69287944 -0.74524420 0.00214239
-0.50693953 -0.17974973 0.00408798
-0.79724890 -0.42486602 0.01170821
-0.64349931 -0.14541909 0.01017300
-0.53250217 -0.28657594 0.00333451
-0.62686878 -0.65768915 0.00094145
-0.72951782 0.00454966 0.01614953
-0.63772470 0.09503615 0.01395697
-0.78609043 -0.35462168 0.01243174
-0.50639027 -0.25234914 0.00285263
-0.71382517 -0.52603728 0.00665084
-0.34499827 0.41530544 0.00749539
-0.48227465 0.05830935 0.00706627
-0.57471412 -0.35318422 0.00392505
-0.43332744 -0.10428799 0.00237813
-0.50114703 -0.28171384 0.00215032
-0.59803110 -0.03879977 0.01011965
-0.08520331 0.60189795 0.00012733
-0.54383194 -0.19208729 0.00537073
-0.49975464 -0.29634640 0.00184960
-0.56105083 0.08553759 0.01070235
-0.43805996 -0.08389154 0.00290997
-0.79967332 -0.43536660 0.01163058
-0.60407537 -0.17725441 0.00804992
-0.39085782 0.06352195 0.00346248
-0.65588921 -0.32027176 0.00775113
-0.39919680 -0.01832602 0.00243716
-0.33958614 0.43764883 0.00765063
-0.58340937 0.08337463 0.01156890
-0.52703822 0.12285920 0.00995338
-0.29834899 0.32071796 0.00402969
-0.33319080 0.00941314 0.00022904
-0.37894979 0.33551258 0.00753145
-0.75356370 -0.05268569 0.01616465
-0.43902177 0.32029605 0.00970234
-0.69982457 0.02327451 0.01526387
-0.51017135 0.14713615 0.00967847
-0.69928247 -0.38340706 0.00844738
-0.72754037 -0.76542753 0.00320390
-0.32200047 0.27766332 0.00426442
-0.42974791 0.17441201 0.00688761
-0.78168613 -0.02136011 0.01782310
-0.69364578 -0.61086094 0.00441899
-0.23846424 0.44631857 0.00371282
-0.78484231 -0.56183141 0.00891870
-0.69032073 -0.31057996 0.00930269
-0.13552541 0.49256542 0.00033023
-0.76379353 -0.35097888 0.01159279
-0.29547578 0.21090847 0.00207683
-0.56018823 0.07405299 0.01047541
-0.56321102 -0.10726020 0.00757035
-0.75689787 -0.72897726 0.00499779
-0.31199336 0.21199317 0.00276187
-0.59800261 -0.47969517 0.00275085
-0.23880723 0.22672287 0.00005335
-0.45726666 0.26957193 0.00959049
-0.32259923 0.24999972 0.00382585
-0.58643752 -0.60843676 0.00013275
-0.59689587 0.18188979 0.01376135
-0.26901254 0.15431167 0.00006163
-0.22356255 0.39403945 0.00223665
-0.64216942 -0.00160638 0.01252253
-0.25330546 0.49610242 0.00514481
-0.29215842 0.32247016 0.00380905
-0.26572508 0.44243497 0.00474852
-0.34223357 0.23850304 0.00442628
-0.53092855 0.01448300 0.00829758
-0.37470484 -0.06544122 0.00066138
-0.53373200 -0.20038611 0.00482443
-0.32620496 0.22829232 0.00360832
-0.65236938 -0.10920854 0.01113608
-0.67532581 -0.40922037 0.00704917
-0.64794397 0.05651361 0.01372519
-0.67690158 -0.42573109 0.00683686
-0.53818214 0.03519630 0.00893693
-0.57270676 -0.10300386 0.00802471
-0.55657268 -0.23367427 0.00518998
-0.17689797 0.38317308 0.00017079
-0.68095452 -0.32545543 0.00867610
-0.42714480 -0.14645836 0.00142392
-0.71859694 -0.72994900 0.00343586
-0.49044403 -0.36591244 0.00031135
-0.73928195 -0.46019986 0.00877840
-0.48585677 0.15340932 0.00880170
-0.13523088 0.63242185 0.00265781
-0.77428305 -0.19082886 0.01469237
-0.49322462 0.02726737 0.00698912
-0.69213706 -0.15543503 0.01196856
-0.72698671 -0.77229893 0.00306673
-0.72735572 -0.01570965 0.01572483
-0.50877655 0.25697467 0.01145950
-0.49010083 -0.11163092 0.00454671
-0.48402172 -0.00773480 0.00603754
-0.26479906 0.48219982 0.00537631
-0.49344203 -0.37800288 0.00023030
-0.65436327 -0.72622603 0.00090578
-0.68001354 0.02892892 0.01455858
-0.27068138 0.42579642 0.00467031
-0.74720222 0.05150047 0.01764892
-0.70809585 -0.33111992 0.00967682
-0.40344408 0.15470465 0.00549593
-0.75227976 -0.34794110 0.01117890
-0.70486706 -0.12663850 0.01296353
-0.54163766 -0.40287527 0.00175977
-0.56958055 0.05856816 0.01059561
-0.22646281 0.31636050 0.00105437
-0.25081369 0.19612168 0.00002623
-0.43727711 0.35836142 0.01026864
-0.41396061 0.19500732 0.00659470
-0.35853505 0.04018454 0.00176706
-0.42835456 0.04158256 0.00460943
-0.44674250 0.12706459 0.00678176
-0.74152285 -0.48465580 0.00846015
-0.43767899 0.08099406 0.00564517
-0.41820285 0.25362432 0.00774651
-0.62355560 -0.59312069 0.00188671
-0.78296947 -0.59040743 0.00836559
-0.65309125 -0.07241107 0.01178012
-0.56976038 -0.32695496 0.00416343
-0.44300663 0.32897457 0.01000840
-0.64592117 -0.16873644 0.00988109
-0.63844877 -0.67641956 0.00109580
-0.41233814 0.37238827 0.00949636
-0.36391380 0.38968945 0.00783062
-0.50985634 -0.15327740 0.00464807
-0.76593775 -0.29306975 0.01264704
-0.56968158 -0.48404181 0.00153523
-0.69894677 -0.48404244 0.00675215
-0.63591689 -0.07570615 0.01103193
-0.56267291 -0.35857886 0.00334894
-0.60463488 -0.00710668 0.01091578
-0.76882422 -0.31242508 0.01244008
-0.23914772 0.45540535 0.00389242
-0.76270151 -0.09466042 0.01583201
-0.50084728 0.03742282 0.00746677
-0.35285619 0.21437258 0.00445153
-0.46643317 -0.10946645 0.00362769
-0.57573295 -0.03727223 0.00924526
-0.53826135 -0.18551534 0.00525573
-0.53904837 0.23918805 0.01238420
-0.54319370 -0.20231441 0.00517407
-0.53780484 0.22307374 0.01206444
-0.49910718 0.24047481 0.01079309
-0.72327149 -0.47379416 0.00790510
-0.61900979 -0.18249483 0.00856508
-0.32247278 0.36865002 0.00580548
-0.66030693 0.03126292 0.01380196
-0.53983593 -0.37235633 0.00219704
-0.69551647 -0.71442527 0.00276382
-0.40560716 0.00611982 0.00309779
-0.71709031 -0.32683265 0.01011147
-0.77296066 -0.50272149 0.00942698
-0.40422606 0.01203746 0.00314101
-0.72241688 -0.06551195 0.01469328
-0.32427582 0.05247422 0.00058941
-0.74820071 -0.34848672 0.01100516
-0.31273457 0.18859129 0.00240034
-0.71023256 0.08238719 0.01667292
-0.39222234 -0.08025224 0.00112085
-0.67602462 0.01985384 0.01424572
-0.58599174 -0.47374362 0.00236557
-0.66844249 -0.11296028 0.01172207
-0.60621351 -0.41865370 0.00410227
-0.48471951 -0.28342786 0.00145869
-0.21122606 0.50379896 0.00357458
-0.15651791 0.61558402 0.00323562
-0.65060049 -0.18417025 0.00981203
-0.58036226 0.15888032 0.01270891
-0.40177539 0.04124453 0.00353063
-0.72715080 -0.09800202 0.01434140
-0.72912085 -0.09324021 0.01450048
-0.72244781 -0.25982103 0.01144750
-0.51137525 0.14937203 0.00976448
-0.75941336 -0.06741120 0.01615466
-0.40323564 -0.15613259 0.00029732
-0.54739892 -0.51268780 0.00015724
-0.38889897 0.04036147 0.00299597
-0.72067374 0.05697820 0.01666945
-0.23423298 0.31558728 0.00135516
-0.55296123 -0.15763734 0.00631485
-0.54399085 0.05204184 0.00945324
-0.51337034 0.20263457 0.01073599
-0.35795608 0.41971979 0.00809241
-0.68265468 -0.47895366 0.00617966
-0.58873165 -0.45418328 0.00280301
-0.75427091 -0.36595839 0.01095817
-0.50266910 0.10242929 0.00862773
-0.71938193 -0.16017558 0.01298890
-0.12236509 0.57145965 0.00111859
-0.55166918 -0.46393639 0.00114425
-0.26742622 0.28639856 0.00220709
-0.15924907 0.46284559 0.00079094
-0.47733539 -0.13264389 0.00368038
-0.67477214 -0.36784530 0.00771823
-0.50809509 -0.04030471 0.00646484
-0.45266882 -0.08905985 0.00341319
-0.46843413 -0.24240695 0.00148692
-0.64948249 -0.29467362 0.00792033
-0.58420116 -0.57756990 0.00055830
-0.68247992 -0.17373687 0.01127298
-0.64825034 -0.74581635 0.00033171
-0.47632912 -0.00045568 0.00584872
-0.52323484 0.05600743 0.00868155
-0.78105712 -0.13309598 0.01593052
-0.71310657 -0.47007218 0.00755706
-0.51676476 -0.17840813 0.00450693
-0.44886902 -0.27584350 0.00013856
-0.25002068 0.31723282 0.00202012
-0.37839612 0.42119443 0.00894235
-0.61948043 -0.50750601 0.00315292
-0.77041668 -0.64037997 0.00702391
-0.65453744 -0.30341741 0.00797822
-0.24997965 0.36392015 0.00279943
-0.65147531 -0.24319066 0.00886107
-0.29794142 0.39745453 0.00529685
-0.41132995 0.38288558 0.00963125
-0.10739240 0.66191250 0.00202713
-0.51710111 0.11530125 0.00942574
-0.65809804 0.08572977 0.01462388
-0.50151658 0.27714217 0.01150373
-0.78781873 -0.44875526 0.01092843
-0.36744019 0.35989869 0.00747467
-0.62463486 0.00108519 0.01185689
-0.63569611 -0.30643457 0.00716740
-0.49045622 -0.06562501 0.00532984
-0.67145181 -0.65485501 0.00278810
-0.53546560 0.20971395 0.01174652
-0.75190902 -0.34170178 0.01126820
-0.58354521 -0.06548313 0.00908913
-0.35715380 0.32656398 0.00650174
-0.70397544 -0.04533250 0.01428623
-0.64491141 -0.44332033 0.00525186
-0.40233776 -0.14846160 0.00038927
-0.77517366 -0.29807487 0.01293613
-0.50453103 -0.27780500 0.00235221
-0.51589483 0.20498636 0.01087726
-0.76073498 -0.71409535 0.00540133
-0.56449592 -0.39870211 0.00275202
-0.65452826 -0.72527105 0.00092840
-0.71529424 -0.52465683 0.00673320
-0.75054353 0.03742478 0.01754837
-0.32440054 0.36274010 0.00578446
-0.26458812 0.26438770 0.00172431
-0.58880502 -0.19735554 0.00709773
-0.33010477 0.46920419 0.00779566
-0.44997674 -0.21518373 0.00119693
-0.68134981 0.11599401 0.01606893
-0.50701737 0.05141904 0.00795001
-0.76232976 -0.53121150 0.00852186
-0.50785691 -0.14100403 0.00477247
-0.65572304 -0.29994366 0.00808412
-0.78871757 -0.13668400 0.01617971
-0.72445858 -0.26903018 0.01137476
-0.55651158 -0.10865028 0.00727675
-0.48924267 0.29352206 0.01128216
-0.14402145 0.64527708 0.00322777
-0.43282315 -0.12219034 0.00205862
-0.59868366 0.05248490 0.01166890
