ply
format ascii 1.0
element vertex 530
property float x
property float y
property float z
end_header
-0.40501076 0.10123075 0.31012249
-0.61038113 -0.41609067 0.28620869
-0.47640875 -0.21948920 0.14523734
-0.48680845 -0.10647579 0.29875207
-0.42980897 -0.00333061 0.26044247
-0.60802794 -0.55507153 0.12542345
-0.48771361 -0.14307392 0.26050365
-0.55855232 -0.53183126 0.01849693
-0.50320858 -0.08120689 0.37084219
-0.04558258 0.70041770 0.01164444
-0.32591614 0.14405768 0.14548190
-0.48630744 -0.32187203 0.05800425
-0.38388136 0.03752014 0.18260649
-0.59278053 -0.57719290 0.05992340
-0.49788731 -0.07076094 0.36817402
-0.54015028 -0.43237007 0.07966596
-0.18536015 0.41752756 0.07228327
-0.64091146 -0.74333543 0.00441209
-0.48284683 -0.06281140 0.33665028
-0.62074351 -0.47850269 0.24464577
-0.57890767 -0.56457037 0.03672800
-0.39150897 -0.11744587 0.03084408
-0.21921031 0.28605479 0.01698042
-0.37040424 0.06902632 0.18146199
-0.68473846 -0.80409110 0.05448481
-0.58731002 -0.39878970 0.24353187
-0.59343988 -0.37060335 0.29130775
-0.42125323 -0.20190765 0.01678074
-0.34543723 0.17471062 0.23193720
-0.24323983 0.25810894 0.05039886
-0.17300349 0.48518103 0.11432464
-0.26803598 0.32322803 0.18931983
-0.34791428 0.08632810 0.14034358
-0.42809656 0.04644865 0.31117901
-0.39746040 0.06417513 0.24867290
-0.57069468 -0.46009067 0.13081495
-0.35699251 0.00927991 0.07906219
-0.36024690 0.14635839 0.24016321
-0.58947456 -0.42931381 0.21541373
-0.49728611 -0.22711149 0.19278528
-0.47734272 -0.18218942 0.18920049
-0.58294141 -0.45239154 0.17223354
-0.66222775 -0.72622937 0.08062223
-0.21220240 0.41645905 0.14312468
-0.46700454 -0.31665128 0.01201179
-0.31448030 0.13378151 0.10337238
-0.26306453 0.26463526 0.11085119
-0.16115290 0.46551630 0.06066636
-0.39463836 0.04727091 0.22231041
-0.52476227 -0.43164766 0.03917857
-0.53512025 -0.19729434 0.32744524
-0.40527856 0.00853981 0.20781144
-0.65729749 -0.72533405 0.06838804
-0.36831963 0.07132421 0.17842232
-0.59214240 -0.49554753 0.14895628
-0.47590208 -0.15420803 0.21643496
-0.46999213 -0.25135791 0.09259905
-0.41336951 -0.09080144 0.11911613
-0.51314169 -0.10381394 0.37237009
-0.43475929 -0.03882292 0.23427518
-0.53614962 -0.14833865 0.38461953
-0.64776760 -0.62050474 0.15932988
-0.44348487 -0.15258110 0.13125876
-0.27799654 0.25565636 0.14093971
-0.58944356 -0.45641086 0.18521328
-0.44505098 -0.14133012 0.14796604
-0.15129183 0.48008239 0.05039568
-0.33362696 0.22351564 0.25449398
-0.51495731 -0.19929360 0.27112037
-0.24923541 0.27734396 0.08786801
-0.18139584 0.43553352 0.08165972
-0.37550244 -0.08781083 0.02083214
-0.61596644 -0.52064604 0.18498710
-0.31538621 0.21854763 0.20002417
-0.53009951 -0.42714360 0.05850598
-0.14384583 0.50089949 0.05355395
-0.31202447 0.19948190 0.16981092
-0.55692339 -0.51449078 0.03339935
-0.27681950 0.25359648 0.13549154
-0.31983298 0.19254956 0.18305890
-0.24015249 0.34507290 0.13877812
-0.27883619 0.28827673 0.17945163
-0.55893666 -0.29979837 0.27742264
-0.21961910 0.34497857 0.08357345
-0.42357373 -0.10140852 0.13470766
-0.31257418 0.26131931 0.24002086
-0.30569863 0.27191490 0.23334813
-0.22025491 0.34342152 0.08354891
-0.57444370 -0.55624664 0.03400137
-0.17263183 0.40183857 0.02068886
-0.54404777 -0.25554329 0.28665924
-0.62581235 -0.60350406 0.11931335
-0.50663692 -0.30858663 0.12732001
-0.21055824 0.40987113 0.13138998
-0.22223178 0.34432358 0.08985633
-0.30759320 0.11714748 0.06640202
-0.36148265 0.03017585 0.11433776
-0.55908036 -0.44431654 0.11718267
-0.53196567 -0.31866440 0.18408322
-0.23822750 0.37375441 0.16549318
-0.48935002 -0.05726102 0.36027056
-0.66209364 -0.79670471 0.00193217
-0.31377339 0.16846874 0.14003165
-0.25659275 0.21123177 0.03412456
-0.59062183 -0.54121137 0.09412292
-0.58563811 -0.44082260 0.19232783
-0.68505543 -0.80061257 0.05920157
-0.58317745 -0.58946574 0.02051496
-0.39401540 -0.00435784 0.16325139
-0.27320951 0.19445163 0.06006261
-0.41934058 -0.20484777 0.00838070
-0.58445293 -0.46032226 0.16747472
-0.62509364 -0.54024237 0.18769740
-0.21881656 0.37313685 0.11271896
-0.21359365 0.41748697 0.14800058
-0.50030112 -0.38767159 0.02241998
-0.59121430 -0.47186670 0.17278627
-0.19546472 0.37796748 0.05542551
-0.68024319 -0.80832267 0.03771951
-0.52818418 -0.17699520 0.33139551
-0.33986649 0.09552063 0.12896577
-0.70062995 -0.81636864 0.08348013
-0.57543409 -0.56618005 0.02561838
-0.65300250 -0.73998576 0.04057862
-0.20034339 0.34516680 0.03205777
-0.32115403 0.09994011 0.08366473
-0.68705195 -0.73347783 0.13917601
-0.56164765 -0.42420763 0.14642154
-0.51514518 -0.35182908 0.10208807
-0.08701330 0.62748307 0.04175084
-0.50823969 -0.11673082 0.34486008
-0.10821804 0.58669299 0.05331240
-0.52680618 -0.44088072 0.03440068
-0.46475926 -0.18353473 0.15394029
-0.48833862 -0.10952066 0.29947373
-0.58709973 -0.47140375 0.16226029
-0.56195664 -0.38212165 0.19402742
-0.49217144 -0.34368601 0.04949371
-0.39696774 -0.11463798 0.04861236
-0.47176740 -0.10820610 0.25646958
-0.49416006 -0.18013015 0.23661487
-0.45094854 -0.19641449 0.10256691
-0.63358790 -0.52352995 0.22906493
-0.37752366 0.09332584 0.22757635
-0.22221099 0.30349430 0.04441723
-0.46642026 -0.24050443 0.09507787
-0.33501190 0.12448629 0.14813530
-0.42077285 -0.01548470 0.22268502
-0.27263772 0.19703437 0.06139904
-0.63524556 -0.55688471 0.19644061
-0.59299392 -0.43815193 0.21503396
-0.53674638 -0.18148883 0.34937587
-0.56040931 -0.54004902 0.01434610
-0.64353490 -0.60653687 0.16349705
-0.31917334 0.16406173 0.14962345
-0.29540068 0.26811457 0.20149016
-0.44539520 -0.10980304 0.18393064
-0.48605269 -0.22716929 0.16257857
-0.57690895 -0.53090584 0.06878151
-0.59645051 -0.51381862 0.14020862
-0.36771137 -0.05518699 0.03618651
-0.50071996 -0.38052660 0.03148514
-0.22838441 0.30242079 0.05978987
-0.66094202 -0.70352966 0.10240196
-0.52309370 -0.17232683 0.32292506
-0.15368901 0.52822745 0.11034348
-0.11728088 0.58744562 0.07846839
-0.54273796 -0.30690718 0.22605588
-0.64594769 -0.67473257 0.09417463
-0.59718680 -0.37765199 0.29352751
-0.66161323 -0.73761553 0.06631812
-0.45992967 -0.00308299 0.34154433
-0.56799328 -0.35412243 0.24134538
-0.57847095 -0.35793033 0.26522756
-0.26132053 0.34643921 0.19709961
-0.22346178 0.33050215 0.07779387
-0.16409254 0.41790199 0.01562947
-0.48777449 -0.34385139 0.03751168
-0.14970282 0.45364198 0.01674214
-0.44436124 -0.12676163 0.16230752
-0.36705458 0.08157047 0.18641676
-0.43286058 -0.19108932 0.05995058
-0.63892913 -0.57517922 0.18599102
-0.54380596 -0.46876472 0.04902411
-0.57814372 -0.34966478 0.27353618
-0.31498763 0.15482245 0.12812155
-0.29083776 0.27427629 0.19609495
-0.52717996 -0.19304602 0.31086108
-0.63072777 -0.72086459 0.00206171
-0.68100137 -0.76466352 0.08827918
-0.42789984 -0.02795567 0.22794776
-0.15376189 0.47595003 0.05243068
-0.56355864 -0.39738488 0.18136166
-0.42339537 -0.12190192 0.11145154
-0.66567904 -0.64438790 0.18084607
-0.36622468 0.03111189 0.12810314
-0.38532847 -0.04306922 0.09692646
-0.62925577 -0.50099593 0.24248627
-0.36612663 0.16930188 0.28144363
-0.59356940 -0.54130936 0.10192319
-0.19749205 0.39248204 0.07699923
-0.43178949 -0.17596605 0.07388544
-0.61386764 -0.57386404 0.12020588
-0.51026881 -0.19707358 0.26100734
-0.41129914 0.08994321 0.31445050
-0.65260577 -0.73530143 0.04472055
-0.60188609 -0.52273381 0.14488502
-0.57305896 -0.32707494 0.28500000
-0.23394006 0.32728764 0.10233854
-0.61826634 -0.56967938 0.13665998
-0.46195641 -0.12874547 0.20731528
-0.21016774 0.43488985 0.15815140
-0.47212461 -0.14721148 0.21407525
-0.30686182 0.25221342 0.21457046
-0.66603744 -0.62830651 0.19968162
-0.43910322 -0.11916017 0.15664747
-0.29645529 0.26289687 0.19852047
-0.56620395 -0.27093318 0.32900518
-0.14090636 0.54563034 0.09538629
-0.45623583 -0.28598979 0.01719521
-0.34752369 0.08295356 0.13554448
-0.49810436 -0.05709887 0.38394243
-0.43568531 -0.23306619 0.02087468
-0.16534933 0.43768263 0.04098897
-0.33057424 0.15618320 0.17145962
-0.34148341 0.06210933 0.09616668
-0.24746624 0.33208671 0.14396933
-0.57871974 -0.37622142 0.24556535
-0.46007279 -0.01597864 0.32759434
-0.50823992 -0.10691191 0.35577404
-0.67447597 -0.70009089 0.14253943
-0.58708072 -0.60933602 0.00890356
-0.50428474 -0.20739034 0.23348366
-0.44224647 -0.25705644 0.01181601
-0.22109409 0.31532988 0.05457576
-0.58382559 -0.49530038 0.12691471
-0.48401082 -0.18734194 0.20136604
-0.26124114 0.19353229 0.02692453
-0.40909556 -0.16782434 0.02204037
-0.51705426 -0.26769021 0.20072733
-0.63146365 -0.68139905 0.04790043
-0.49469024 -0.27487293 0.13273510
-0.42500484 -0.01545368 0.23407570
-0.55155110 -0.31991100 0.23525091
-0.62438393 -0.50123894 0.22914366
-0.42030060 -0.00908247 0.22853406
-0.53867877 -0.30191174 0.22071607
-0.33056766 0.01701487 0.01675084
-0.52531028 -0.20821004 0.28899002
-0.48961115 -0.20154028 0.20061246
-0.45229089 -0.20097807 0.10109662
-0.23046593 0.37747678 0.14880317
-0.16591445 0.48253462 0.09236016
-0.50673956 -0.13675448 0.31857932
-0.54587877 -0.48940071 0.03165000
-0.56334734 -0.29225427 0.29764262
-0.43922642 -0.12737560 0.14784695
-0.23136887 0.25421771 0.01421881
-0.28910306 0.22820348 0.14022827
-0.35910353 0.07188901 0.15431941
-0.51929653 -0.15835939 0.32826024
-0.17531204 0.46397537 0.09694851
-0.19675881 0.35847595 0.03723249
-0.07888123 0.63997555 0.03381493
-0.39397347 0.07646962 0.25298181
-0.36769319 0.04010226 0.14203693
-0.12714937 0.56128109 0.07586684
-0.41160923 -0.12250236 0.07915869
-0.35212505 0.04876171 0.10988629
-0.38548759 0.00511724 0.15089956
-0.20763277 0.42095935 0.13586470
-0.59855473 -0.63205963 0.01443525
-0.59089744 -0.46286359 0.18194264
-0.48812658 -0.10632978 0.30245125
-0.32036999 0.07747433 0.05658923
-0.51436990 -0.23910528 0.22529535
-0.54939222 -0.28904828 0.26376048
-0.48264509 -0.05927081 0.34004441
-0.55680370 -0.44940796 0.10541479
-0.55592620 -0.33118504 0.23445986
-0.55471390 -0.35614002 0.20347057
-0.51323485 -0.33389297 0.11689736
-0.20254108 0.40569749 0.10523740
-0.57805449 -0.46934375 0.14027885
-0.46384469 -0.28178808 0.04228197
-0.41593167 -0.09665332 0.11948703
-0.59920651 -0.44999790 0.21853769
-0.40385976 -0.06983221 0.11690523
-0.57479894 -0.34187815 0.27321589
-0.49253771 -0.25014138 0.15444727
-0.28778425 0.26575121 0.17842509
-0.61031169 -0.56380594 0.12184341
-0.27299806 0.17981020 0.04322062
-0.48135844 -0.14694938 0.23914352
-0.51227260 -0.16475150 0.30230865
-0.08640198 0.64409441 0.05857456
-0.60290533 -0.53713375 0.13161510
-0.23713437 0.37261963 0.16129847
-0.47605741 -0.15237419 0.21888994
-0.49468961 -0.10438320 0.32222521
-0.54078984 -0.36615714 0.15497480
-0.52841800 -0.31191289 0.18206790
-0.22812396 0.39835414 0.16572468
-0.57543135 -0.40182638 0.20828292
-0.49923721 -0.24262011 0.18078348
-0.66274393 -0.73493481 0.07233160
-0.45239013 -0.07218668 0.24450888
-0.53844786 -0.41514987 0.09423739
-0.55595279 -0.31828550 0.24886847
-0.17655253 0.48611376 0.12488498
-0.09046802 0.63695335 0.06154790
-0.25296965 0.36182591 0.19179356
-0.36150187 0.07848358 0.16808528
-0.48102960 -0.27065772 0.10076475
-0.26224104 0.18306056 0.01796792
-0.40754572 -0.13168560 0.05804833
-0.14591184 0.51832914 0.07847168
-0.28673601 0.21096602 0.11471628
-0.40664545 0.09302518 0.30538824
-0.24291350 0.31454831 0.11225775
-0.54649413 -0.24445137 0.30555162
-0.58064830 -0.43708521 0.18309280
-0.38267151 -0.03961401 0.09363738
-0.54194325 -0.23824136 0.30024254
-0.48985803 -0.18926436 0.21491906
-0.63117903 -0.62888515 0.10550375
-0.01277874 0.77593076 0.00755375
-0.36256659 0.03234438 0.11965688
-0.35996407 0.15688559 0.25110567
-0.33629897 0.06786758 0.08865516
-0.18149032 0.44163552 0.08869579
-0.39785600 0.01888944 0.19939762
-0.28911191 0.25807557 0.17345598
-0.45374325 -0.16837385 0.14123189
-0.48511198 -0.20089747 0.18925442
-0.51091719 -0.34362090 0.09986616
-0.52890718 -0.37275863 0.11575303
-0.63583046 -0.60069329 0.14931878
-0.57902235 -0.55335921 0.04949635
-0.30621713 0.12769401 0.07443231
-0.46359387 -0.26595101 0.05921118
-0.27482569 0.16170554 0.02800091
-0.33217010 0.06313534 0.07231557
-0.32826358 0.07983874 0.08039922
-0.34977338 0.02577179 0.07802158
-0.37908173 0.07239339 0.20849007
-0.38238257 0.09823530 0.24607192
-0.41804329 -0.10276218 0.11836341
-0.60365188 -0.42477334 0.25850198
-0.19984321 0.33155373 0.01558418
-0.20704502 0.35143796 0.05701174
-0.70927507 -0.79458541 0.13088845
-0.65281349 -0.71537364 0.06742677
-0.60434151 -0.63430822 0.02746354
-0.18548940 0.47969857 0.14173575
-0.47988397 -0.25417435 0.11601125
-0.52063197 -0.32549232 0.14608271
-0.64550012 -0.65230203 0.11790433
-0.59239876 -0.46995869 0.17808510
-0.15887968 0.49763861 0.09027155
-0.10722717 0.59572852 0.06069682
-0.25712362 0.23475887 0.06170039
-0.55768186 -0.35647991 0.21105656
-0.39050090 0.12294725 0.29532510
-0.63674176 -0.68734467 0.05545480
-0.61521375 -0.50527692 0.20004936
-0.39134133 -0.02956119 0.12806116
-0.37636042 -0.09214893 0.01831270
-0.43523926 0.03954265 0.32266957
-0.33957815 0.15703759 0.19657058
-0.20510180 0.33803371 0.03689792
-0.30677849 0.20253243 0.15912452
-0.54989290 -0.22704116 0.33402225
-0.58597505 -0.43594217 0.19865642
-0.47857803 -0.06287602 0.32512343
-0.35674787 0.01627879 0.08618523
-0.63464254 -0.58868366 0.15947942
-0.58623499 -0.38572922 0.25516328
-0.33916882 -0.01178737 0.00783557
-0.09092116 0.59320313 0.01413380
-0.34099028 0.07634911 0.11067153
-0.53029656 -0.20872848 0.30179349
-0.40574449 -0.06101547 0.13176191
-0.49665147 -0.10041807 0.33189654
-0.39322495 0.05082079 0.22246352
-0.69042385 -0.72905982 0.15313423
-0.39120489 0.11511039 0.28850326
-0.62380093 -0.66891515 0.04121452
-0.64824170 -0.74301457 0.02443776
-0.25530708 0.29833388 0.12749200
-0.31218761 0.08528174 0.04331073
-0.18831713 0.44904959 0.11525610
-0.58715308 -0.37305886 0.27170935
-0.68508524 -0.70061523 0.17042407
-0.21734141 0.28695017 0.01296060
-0.49511948 -0.19883421 0.21840055
-0.49139032 -0.25860760 0.14195864
-0.34899899 -0.01130284 0.03475121
-0.49646062 -0.14407203 0.28286496
-0.31889334 0.06851806 0.04267149
-0.49316794 -0.23263793 0.17559269
-0.59902000 -0.40012276 0.27347130
-0.54220337 -0.50397539 0.00558881
-0.61463296 -0.62114942 0.06970384
-0.49661344 -0.31169522 0.09696923
-0.39297849 0.05698371 0.22865246
-0.20231675 0.42312121 0.12400253
-0.23581308 0.30848932 0.08646952
-0.55952424 -0.47952390 0.07924218
-0.40808871 -0.14401411 0.04580276
-0.35025266 0.02304604 0.07627792
-0.24636653 0.25106457 0.05095904
-0.48443124 -0.14411426 0.25053987
-0.44404936 -0.20389959 0.07573520
-0.47883835 -0.14882250 0.23029958
-0.37990567 0.01474295 0.14662026
-0.29923278 0.24856730 0.19004574
-0.59063232 -0.53817225 0.09752888
-0.36303866 0.10670815 0.20358190
-0.11564942 0.59932947 0.08730000
-0.63832086 -0.64635026 0.10525553
-0.23726039 0.25826195 0.03452354
-0.46620297 -0.05738822 0.29801583
-0.32131746 0.05651274 0.03583205
-0.25994685 0.33511096 0.18082163
-0.39734364 -0.04821500 0.12344720
-0.56161696 -0.28320199 0.30306080
-0.64855951 -0.73435199 0.03491854
-0.29557115 0.21294174 0.14062078
-0.15538406 0.52789748 0.11452521
-0.36665961 0.05887537 0.16013040
-0.46132448 -0.07177679 0.26893127
-0.57952386 -0.51042181 0.09856525
-0.51102495 -0.35598999 0.08640764
-0.14756137 0.52103448 0.08590519
-0.62878597 -0.57588655 0.15798804
-0.29137743 0.13057505 0.03781347
-0.49315181 -0.33122760 0.06597127
-0.32848978 0.01787543 0.01213154
-0.57400090 -0.46521175 0.13399450
-0.53213447 -0.43655342 0.05350767
-0.63644677 -0.55781192 0.19863313
-0.63400215 -0.51982075 0.23429906
-0.66235828 -0.77027631 0.03201624
-0.59715939 -0.54558104 0.10680838
-0.35390174 0.13638242 0.21204782
-0.60283864 -0.63675475 0.02071178
-0.56437385 -0.30563930 0.28552026
-0.36712623 0.15510882 0.26834980
-0.61057985 -0.62213570 0.05773195
-0.67284691 -0.80433971 0.02230024
-0.36420497 -0.04411765 0.03908089
-0.44258299 -0.07452817 0.21559113
-0.40654621 -0.07530044 0.11803606
-0.07866716 0.63148987 0.02380835
-0.29577741 0.20416473 0.13141830
-0.28060704 0.31011903 0.20848219
-0.66427487 -0.77072555 0.03665967
-0.52094316 -0.25021499 0.23058523
-0.29954216 0.16313311 0.09591248
-0.46777472 -0.03516890 0.32693112
-0.38851857 -0.07002137 0.07553029
-0.70880175 -0.79823631 0.12556067
-0.32698253 0.04249651 0.03545425
-0.37482008 0.15386009 0.28760776
-0.63194567 -0.51943952 0.22920468
-0.52853757 -0.32877368 0.16364865
-0.39451957 0.07013716 0.24740843
-0.29688749 0.25551355 0.19147339
-0.53494489 -0.17837358 0.34800443
-0.24864970 0.25724483 0.06395533
-0.25284278 0.24783994 0.06475328
-0.22403967 0.37951663 0.13382617
-0.39731166 0.00272912 0.17997408
-0.42924303 -0.10944856 0.14098382
-0.40855986 -0.02618298 0.17802079
-0.41721746 0.02793623 0.26140845
-0.41223663 -0.11198983 0.09252635
-0.55714446 -0.30005854 0.27232450
-0.40077940 0.06699616 0.26071486
-0.56102496 -0.26786393 0.31851998
-0.66786456 -0.74494535 0.07494537
-0.42951307 -0.01814424 0.24318250
-0.59791946 -0.59977269 0.04861614
-0.33496177 0.20213689 0.23431253
-0.47841951 -0.03103512 0.36009049
-0.28622404 0.28032738 0.19044039
-0.28982356 0.21430312 0.12671085
-0.60455525 -0.51034194 0.16582023
-0.20722190 0.35602704 0.06258733
-0.45705369 -0.03814691 0.29485187
-0.38845041 -0.00811891 0.14413761
-0.52376205 -0.31551203 0.16557427
-0.44108084 -0.18676449 0.08681473
-0.31434157 0.06166741 0.02284242
-0.23226964 0.28784949 0.05401903
-0.54274434 -0.42980331 0.08947939
-0.51542920 -0.26846173 0.19550934
-0.59026927 -0.54809350 0.08552764
-0.20129570 0.38953960 0.08393537
-0.40185559 -0.15319365 0.01887486
-0.38368821 -0.03726272 0.09897883
-0.49749795 -0.05720921 0.38219261
-0.46922210 -0.25244382 0.08932592
-0.54297638 -0.33940533 0.19057530
-0.20942888 0.31403717 0.02183622
-0.55964375 -0.41592953 0.15024534
-0.25287616 0.26269117 0.08135055
-0.49867722 -0.16805816 0.26215318
-0.58989060 -0.61770117 0.00714568
-0.42582536 -0.18286438 0.05021477
-0.19693059 0.34432694 0.02196623
-0.68373340 -0.71278113 0.15327486
-0.38911870 -0.02686346 0.12509559
-0.05914521 0.67695236 0.02195604
-0.58995104 -0.62349337 0.00087010
-0.43020308 -0.08399433 0.17185113
-0.58575207 -0.58712667 0.03002311
-0.45941356 -0.09617946 0.23668782
-0.50323153 -0.10165310 0.34818000
-0.35288784 0.03592642 0.09766625
-0.41017297 -0.17822883 0.01336721
-0.48619381 -0.16149361 0.23595293
-0.13862762 0.50765699 0.04706257
-0.55618852 -0.31826743 0.24952117
-0.24251790 0.24612381 0.03513969
-0.52669138 -0.12679859 0.38318118
-0.26869011 0.30106625 0.16644150
-0.63694543 -0.58800942 0.16640812
-0.26193208 0.26836026 0.11195281
