ply
format ascii 1.0
element vertex 537
property float x
property float y
property float z
end_header
-0.52977836 -0.01820013 0.18261465
-0.11918037 0.64782417 0.05372495
-0.59522498 -0.14073294 0.19667470
-0.67614877 -0.48748124 0.13668315
-0.28911468 0.39694488 0.11688475
-0.54849339 0.03751042 0.22259982
-0.64905864 -0.72304440 0.01741238
-0.34329742 0.18957438 0.08654020
-0.43988812 0.17718139 0.17404380
-0.48276189 0.05067789 0.16492833
-0.34855425 0.19861916 0.09515441
-0.28885025 0.22995350 0.05044976
-0.55392045 -0.02782065 0.20190027
-0.45677063 -0.14990200 0.06057623
-0.55909169 -0.43578985 0.04517496
-0.10272298 0.63224894 0.03180622
-0.63168472 -0.57457715 0.05962689
-0.20659307 0.53510630 0.09268657
-0.53872466 -0.17202511 0.13021764
-0.47310337 -0.17393178 0.06667953
-0.49239063 -0.37026033 0.00732840
-0.24240753 0.46674868 0.09986134
-0.63807601 -0.19172695 0.21746334
-0.34309685 -0.00987953 0.00731018
-0.34804979 0.28256753 0.12794216
-0.44327402 0.05854143 0.13026395
-0.70551062 -0.74596030 0.06234122
-0.69360304 -0.55325776 0.12731563
-0.26010418 0.43144444 0.10280121
-0.25359529 0.39626575 0.08263168
-0.23213002 0.46506986 0.08936276
-0.30032659 0.12098309 0.01824286
-0.44276762 -0.05286843 0.08563291
-0.39560980 -0.10636018 0.01931660
-0.31795001 0.28493294 0.10008102
-0.29279438 0.10693760 0.00546974
-0.23874018 0.49603304 0.10795850
-0.27019837 0.42035413 0.10806373
-0.46621326 0.08905646 0.16430528
-0.68648499 -0.31244019 0.21594021
-0.51316106 -0.29560477 0.05678591
-0.07335001 0.64998823 0.01073344
-0.72301149 -0.79650462 0.05905472
-0.14351906 0.57944345 0.04991087
-0.15083039 0.55170959 0.04591466
-0.69652182 -0.35497415 0.20868696
-0.67050177 -0.52972925 0.11453776
-0.73722178 -0.64911872 0.13105866
-0.15824938 0.51823622 0.03974678
-0.45532975 -0.17744173 0.04828381
-0.23449971 0.43852562 0.08111000
-0.38837272 0.12523970 0.10416984
-0.70633668 -0.36772525 0.21302412
-0.64773929 -0.72504830 0.01535596
-0.41668451 0.23616208 0.17521846
-0.57898849 -0.18924734 0.16191459
-0.42019874 -0.14398099 0.02793288
-0.73328018 -0.64263910 0.12985538
-0.54077941 -0.33531430 0.06747285
-0.57087046 -0.13091458 0.17726471
-0.42716601 -0.19184665 0.01562984
-0.17449415 0.43626699 0.02280326
-0.29170641 0.10876055 0.00515127
-0.42849299 -0.16135605 0.02898269
-0.72063124 -0.49445212 0.17647924
-0.48438811 -0.02117675 0.13800684
-0.36769363 0.27846983 0.14511281
-0.29718879 0.20075470 0.04685576
-0.65137267 -0.36914465 0.15987499
-0.60840112 -0.32542962 0.13608646
-0.68821764 -0.16051821 0.27780381
-0.31016988 0.18389530 0.05259400
-0.38961729 0.07375666 0.08495685
-0.35894471 -0.00879379 0.02290273
-0.21233331 0.41652322 0.05118183
-0.68970692 -0.62324679 0.09585173
-0.58363062 -0.11820012 0.19451155
-0.65317827 -0.24069253 0.21250743
-0.66009182 -0.23406114 0.22174989
-0.64541507 -0.13620336 0.24648862
-0.60737121 -0.23647866 0.17035194
-0.49422994 -0.35281649 0.01600103
-0.74036282 -0.66039842 0.12959379
-0.24534668 0.25401685 0.01836357
-0.65002155 -0.10403821 0.26364270
-0.51047081 -0.32936984 0.04083113
-0.18873179 0.37889323 0.01368707
-0.32024023 0.07352980 0.01848897
-0.30809441 0.24575086 0.07512281
-0.19713357 0.46426421 0.05555986
-0.58875018 -0.01975075 0.23842263
-0.14150938 0.59105664 0.05259061
-0.45523456 0.15950935 0.18172306
-0.53753579 -0.35414037 0.05690885
-0.67219526 -0.41131064 0.16308667
-0.66080010 -0.03961712 0.29948446
-0.22230737 0.43556982 0.06827328
-0.45442554 -0.29613674 0.00038048
-0.57604337 -0.53722811 0.02119381
-0.48659948 0.13315208 0.20128621
-0.68593919 -0.57188916 0.11259972
-0.04123018 0.72880381 0.01123830
-0.26486757 0.29823160 0.05456377
-0.57140321 -0.25223470 0.12969583
-0.33915555 0.36991662 0.15405060
-0.69088131 -0.44458807 0.16777685
-0.44219810 0.07348065 0.13515526
-0.57545167 -0.14364564 0.17660248
-0.58100265 -0.43872634 0.06497435
-0.46180335 -0.25953034 0.02194605
-0.56837267 -0.28342730 0.11443491
-0.41527635 -0.05974045 0.05660756
-0.55545145 -0.04125349 0.19804499
-0.53882527 -0.37772670 0.04879537
-0.65920156 -0.06638965 0.28734550
-0.72911823 -0.67392951 0.11347321
-0.43833119 -0.00651325 0.09975235
-0.43240863 -0.01957694 0.08891529
-0.50050783 -0.10863448 0.11877549
-0.55221999 -0.15704584 0.14906541
-0.64084589 -0.02127098 0.28766382
-0.57860905 -0.50801891 0.03522393
-0.10026522 0.63125855 0.02906220
-0.31629458 0.05768506 0.00843431
-0.47235242 -0.11800180 0.08812583
-0.64091736 -0.17451219 0.22700384
-0.13180733 0.62745738 0.05773430
-0.48349339 0.11656986 0.19174252
-0.43030798 -0.22742333 0.00453702
-0.37140116 0.08137036 0.07054562
-0.64518410 -0.48261800 0.10898521
-0.55304027 -0.39461726 0.05570180
-0.67007035 -0.15620914 0.26214913
-0.18753038 0.50472718 0.06240809
-0.61944669 -0.63305110 0.02474533
-0.54253560 -0.06410192 0.17663316
-0.67014581 -0.31714332 0.19844386
-0.66993231 -0.41609690 0.15902483
-0.61835819 -0.03385444 0.26116115
-0.43550670 0.14566903 0.15736282
-0.25648850 0.24293615 0.02463223
-0.38177246 -0.02956228 0.03651251
-0.54765344 0.02122535 0.21534209
-0.58748484 -0.17010717 0.17762853
-0.54433382 -0.07304087 0.17481109
-0.51897854 0.00806137 0.18268959
-0.47352219 0.02550825 0.14611284
-0.63825309 -0.62217981 0.04704642
-0.43588895 -0.24935915 0.00118351
-0.11958730 0.60851806 0.03853649
-0.68862867 -0.39035118 0.18711546
-0.67490870 -0.58469611 0.09697097
-0.46025255 -0.18588333 0.04964830
-0.35795820 -0.02350971 0.01612705
-0.26365712 0.43045443 0.10580821
-0.70128417 -0.42206946 0.18665378
-0.72339034 -0.57395262 0.14761338
-0.48865581 -0.26386547 0.04591890
-0.63765645 -0.59509206 0.05721033
-0.69192970 -0.29468030 0.22818758
-0.34444547 0.22082156 0.10002248
-0.68092006 -0.38797066 0.18068361
-0.16508529 0.43296170 0.01249119
-0.23217608 0.36189607 0.04851700
-0.43611047 0.12017216 0.14783555
-0.24220441 0.31916565 0.04117691
-0.32449284 0.13707878 0.04774345
-0.22725922 0.28410727 0.01298345
-0.58057344 -0.10837965 0.19547845
-0.44098809 -0.16650318 0.03889748
-0.52084571 0.08853564 0.21636964
-0.35647899 0.08283254 0.05684803
-0.42237219 -0.14312594 0.03035117
-0.52962130 -0.23567098 0.09628555
-0.51919639 -0.14272536 0.12314552
-0.63764346 -0.10571852 0.25113416
-0.60695493 0.01508898 0.26964808
-0.51795739 -0.27996069 0.06757440
-0.54021651 0.11627197 0.24589550
-0.65135866 -0.44717389 0.12893900
-0.34462833 0.07171180 0.04110230
-0.47842550 -0.01893001 0.13319241
-0.49303496 0.13590182 0.20853329
-0.01194113 0.78039992 0.00366394
-0.41320008 -0.03900166 0.06283977
-0.41694415 0.26961434 0.18872470
-0.68284172 -0.45569903 0.15568176
-0.49639061 -0.29987973 0.03904682
-0.60256511 -0.48606569 0.06684362
-0.67485064 -0.61923379 0.08322834
-0.52338117 0.01463586 0.18950756
-0.29275075 0.27803341 0.07323666
-0.39924026 -0.09059455 0.02903786
-0.32918298 0.03375624 0.01128208
-0.69686174 -0.59091300 0.11551083
-0.69755566 -0.53798878 0.13714832
-0.57216388 -0.50420308 0.03056980
-0.61837369 -0.30706739 0.15290450
-0.11100144 0.54409397 0.00478925
-0.47609425 -0.19222483 0.06229158
-0.64208657 -0.63313091 0.04637419
-0.71086133 -0.70647913 0.08310664
-0.54925901 -0.02905182 0.19695237
-0.70086664 -0.55176127 0.13485813
-0.39789703 0.18317775 0.13624442
-0.28177893 0.21450286 0.03756070
-0.39280546 0.11846766 0.10572706
-0.64801705 -0.01407463 0.29737705
-0.28028315 0.14011116 0.00664670
-0.46960586 0.06237417 0.15697649
-0.43091986 0.00292172 0.09640066
-0.43651998 -0.23694912 0.00670529
-0.50021017 -0.27143300 0.05397444
-0.27802625 0.26026452 0.05210652
-0.61482155 -0.53815502 0.05792713
-0.57710183 -0.49690014 0.03818824
-0.42601091 0.09955930 0.13000330
-0.67603552 -0.19936176 0.25075507
-0.47266635 -0.08484176 0.10156733
-0.33749929 0.01904843 0.01340988
-0.53081024 -0.33368486 0.05858066
-0.40735391 -0.12728857 0.02225887
-0.66944516 -0.42763788 0.15398511
-0.56460226 -0.42341730 0.05535032
-0.75346333 -0.76998174 0.09870032
-0.69615370 -0.67288816 0.08234709
-0.52738219 -0.31090829 0.06432712
-0.44280884 -0.24193183 0.01074747
-0.23622806 0.48268661 0.10026552
-0.59801918 -0.40951669 0.09283038
-0.20701849 0.48915565 0.07488246
-0.48445684 -0.28396988 0.03393429
-0.62026817 -0.39139497 0.12129840
-0.29845193 0.29275316 0.08452512
-0.66654700 -0.12465834 0.27128160
-0.09210265 0.63923341 0.02441308
-0.39709461 0.08973906 0.09844506
-0.67914861 -0.68392056 0.06170538
-0.49142197 -0.11100498 0.10914325
-0.59485281 -0.16950446 0.18491663
-0.60483330 0.03363041 0.27496651
-0.22185583 0.45651039 0.07614042
-0.25800580 0.35194942 0.06928808
-0.56212181 -0.24997377 0.12171193
-0.69952071 -0.38706642 0.19883813
-0.47485557 0.18917708 0.21225378
-0.65163267 -0.55672574 0.08578631
-0.63046169 -0.01705123 0.27940086
-0.71568877 -0.71698493 0.08356194
-0.53957456 -0.11365912 0.15416092
-0.46654230 0.02339537 0.13859731
-0.52206498 -0.39949682 0.02413277
-0.62784702 -0.34129539 0.14840361
-0.69833839 -0.28676003 0.23745786
-0.30691206 0.32166573 0.10407817
-0.65432626 -0.04423639 0.29145980
-0.24973220 0.22125563 0.00957558
-0.61040884 -0.19053707 0.19146457
-0.58642167 -0.56132805 0.02157245
-0.36845905 0.23996124 0.13058344
-0.62205684 -0.37013337 0.13143557
-0.41704735 0.19743624 0.16021782
-0.51225823 0.00218860 0.17393234
-0.22962198 0.43573946 0.07533891
-0.50558454 -0.35969317 0.02413923
-0.67827684 -0.38894758 0.17776756
-0.28187597 0.13655324 0.00676059
-0.61268693 -0.20697781 0.18712872
-0.68113256 -0.45396191 0.15473492
-0.54631227 -0.12009864 0.15805522
-0.59196210 -0.58566231 0.01722965
-0.70265186 -0.78482133 0.04420565
-0.64098340 -0.34143242 0.16091740
-0.62834275 0.00449275 0.28591183
-0.57949579 -0.23482516 0.14433765
-0.10819924 0.63641900 0.03869841
-0.35389084 -0.00857682 0.01815347
-0.71670693 -0.74705374 0.07261992
-0.69028938 -0.47352421 0.15574326
-0.31973457 0.03075549 0.00105286
-0.30166575 0.35346013 0.11165940
-0.49117315 -0.19719535 0.07474837
-0.28835991 0.29659727 0.07639287
-0.54663402 -0.06884577 0.17867431
-0.66383779 -0.27104336 0.21067797
-0.60697556 -0.35582218 0.12267816
-0.58668745 -0.28867003 0.12987973
-0.57161558 -0.15603691 0.16802175
-0.67698795 -0.72044104 0.04516529
-0.65614158 -0.33286387 0.17881548
-0.53821129 -0.24521154 0.10072307
-0.58195668 -0.33893919 0.10543225
-0.31889054 0.12590569 0.03795521
-0.18628193 0.50861233 0.06275336
-0.52579230 -0.36068848 0.04307841
-0.11018275 0.62010574 0.03413091
-0.16240810 0.59518445 0.07422185
-0.71190387 -0.61177140 0.12163630
-0.21581842 0.35413915 0.02979225
-0.50429857 0.03330371 0.17864826
-0.26404053 0.40363076 0.09554428
-0.44252220 0.11754501 0.15292893
-0.65173024 -0.16038588 0.24294715
-0.61465150 -0.30212849 0.15130056
-0.24936086 0.20572238 0.00306417
-0.41405541 -0.03223420 0.06634004
-0.68026030 -0.09966621 0.29430598
-0.43241969 0.04208574 0.11335714
-0.61558044 -0.57488048 0.04409904
-0.57831329 -0.03853220 0.22099625
-0.66003233 -0.52660149 0.10576071
-0.64171672 -0.13754405 0.24241892
-0.36732924 0.28120190 0.14584696
-0.48086414 -0.18495911 0.06973449
-0.60241956 -0.31981394 0.13258915
-0.70841521 -0.32935256 0.23021966
-0.50126845 -0.26352707 0.05812002
-0.73333782 -0.66102487 0.12262430
-0.52796268 -0.05069894 0.16800217
-0.63704818 -0.40979421 0.13006102
-0.62309188 -0.43475136 0.10681803
-0.32414567 0.37088746 0.14007431
-0.23159958 0.35572541 0.04551988
-0.63268006 -0.50460422 0.08830908
-0.52204937 -0.10324499 0.14152092
-0.16573313 0.46867427 0.02726461
-0.48299307 -0.29697594 0.02737962
-0.09301987 0.67843485 0.04082694
-0.30050334 0.15879475 0.03339747
-0.65271717 -0.76151305 0.00566768
-0.52034748 0.02707912 0.19153650
-0.60557419 -0.49093983 0.06779095
-0.54174936 -0.27472657 0.09241143
-0.70027459 -0.38159716 0.20172685
-0.71924317 -0.55997342 0.14918542
-0.69374675 -0.67840457 0.07785813
-0.68418926 -0.52327067 0.13019273
-0.20164409 0.37189072 0.02326595
-0.70024884 -0.70082486 0.07519391
-0.36445943 0.20231403 0.11183638
-0.54661655 -0.48423776 0.01403982
-0.40416497 0.22082157 0.15716039
-0.37620977 0.22462662 0.13192168
-0.43379414 -0.08115525 0.06583768
-0.68401968 -0.47920144 0.14749493
-0.45891881 -0.25895497 0.01941433
-0.36340994 0.16876782 0.09753721
-0.27940768 0.31392959 0.07469678
-0.52167422 -0.06999263 0.15433978
-0.49771678 0.05091565 0.17933099
-0.27437717 0.38042995 0.09623915
-0.37318489 -0.08404098 0.00670679
-0.52881056 0.00337097 0.19023770
-0.06869980 0.63760734 0.00137745
-0.45439097 0.00927659 0.12137571
-0.41293469 0.03973625 0.09378330
-0.27144662 0.40724617 0.10406309
-0.70639116 -0.71413690 0.07579511
-0.55779469 0.05302832 0.23764907
-0.41007885 0.10050385 0.11513432
-0.35872027 0.25338629 0.12658626
-0.69667172 -0.60786843 0.10860969
-0.54125822 0.07827390 0.23183279
-0.23475717 0.43415046 0.07962237
-0.54976100 -0.05353713 0.18773276
-0.50140405 -0.38537991 0.00996009
-0.69399101 -0.44641095 0.17002964
-0.66615075 -0.76348811 0.01773743
-0.51345766 -0.16161039 0.11017098
-0.28307101 0.37804699 0.10361275
-0.67287260 -0.07259602 0.29796562
-0.34043136 0.33077419 0.13975832
-0.70602280 -0.41008511 0.19593683
-0.64143664 -0.31896120 0.17025624
-0.38305306 0.02301313 0.05856572
-0.28264359 0.30052596 0.07248066
-0.12392956 0.59320796 0.03662335
-0.52168339 -0.08789503 0.14725392
-0.50989538 -0.28485256 0.05792258
-0.50956368 0.06341669 0.19562016
-0.68051600 -0.35712534 0.19252089
-0.65090877 -0.41323933 0.14195666
-0.23039261 0.47628602 0.09214564
-0.30204922 0.13461354 0.02529304
-0.21326613 0.33302689 0.01898308
-0.21178798 0.34310737 0.02156393
-0.43959278 0.23357791 0.19611228
-0.59283227 -0.13208932 0.19781087
-0.15393871 0.60479969 0.06992933
-0.44368586 0.04337960 0.12464907
-0.51978993 -0.29175317 0.06465440
-0.66198856 -0.13774788 0.26173303
-0.41074473 0.19211067 0.15207702
-0.49003151 0.17924269 0.22283648
-0.69762683 -0.80152047 0.03278015
-0.62673813 -0.36809209 0.13672328
-0.40238535 0.21610159 0.15358709
-0.24754986 0.26996583 0.02679242
-0.55639666 -0.02493711 0.20541222
-0.37708354 0.12302641 0.09249150
-0.62715375 -0.38170457 0.13172638
-0.54943913 -0.43137488 0.03768962
-0.50468349 -0.32879597 0.03552160
-0.55136675 -0.48010689 0.02022157
-0.55722159 0.03274551 0.22906229
-0.71867490 -0.47594389 0.18194219
-0.30882490 0.32233739 0.10617450
-0.64444762 -0.61041170 0.05763662
-0.67681485 -0.54240710 0.11555364
-0.73997521 -0.68773681 0.11838884
-0.60531998 -0.06159551 0.23769476
-0.47731358 -0.04158490 0.12315602
-0.54824269 -0.49982801 0.00941727
-0.44999599 -0.07953001 0.08198272
-0.70777184 -0.38134277 0.20900068
-0.44969854 -0.20319100 0.03269191
-0.67741370 -0.25521815 0.22993807
-0.41945952 -0.19247353 0.00800829
-0.40439498 0.08848353 0.10493226
-0.30652910 0.31914341 0.10271209
-0.69204366 -0.74537921 0.04968694
-0.60770047 -0.52264607 0.05726024
-0.65781361 -0.22346862 0.22376800
-0.69744104 -0.31834954 0.22408059
-0.45253834 -0.16156340 0.05190567
-0.14935964 0.47970214 0.01596951
-0.36721137 -0.01619405 0.02787907
-0.58058906 -0.46756354 0.05315061
-0.25564784 0.18733338 0.00179144
-0.55423385 0.07568399 0.24322109
-0.29509351 0.29646859 0.08278438
-0.28190124 0.18034944 0.02414207
-0.51331466 -0.04740987 0.15529129
-0.69640654 -0.24430691 0.25243351
-0.60076612 -0.36172104 0.11439963
-0.40125281 -0.14416569 0.00973338
-0.60216480 -0.28464141 0.14628409
-0.64400339 -0.60209888 0.06050594
-0.72275126 -0.69427222 0.09931988
-0.27598161 0.21033883 0.03036372
-0.39878532 0.01018113 0.06853229
-0.64729917 -0.66782928 0.03761048
-0.07209558 0.69101238 0.02579192
-0.63577414 -0.26730639 0.18530928
-0.58706576 -0.04296745 0.22761241
-0.52748877 -0.15157743 0.12757114
-0.29132700 0.17660823 0.03167766
-0.65865296 -0.43635246 0.14020620
-0.46306181 0.00661878 0.12861836
-0.06690713 0.71411437 0.02998354
-0.45495635 0.20098716 0.19789536
-0.70595181 -0.44195092 0.18324067
-0.55378956 -0.46484882 0.02858627
-0.61185855 -0.52330148 0.06097870
-0.56711441 -0.12418202 0.17633925
-0.20881504 0.36228034 0.02631812
-0.61134636 -0.14473987 0.21051078
-0.55413985 0.02218905 0.22193004
-0.48684245 -0.05862017 0.12552166
-0.42568037 -0.21308987 0.00578988
-0.21741366 0.43602398 0.06377112
-0.52883244 -0.14759344 0.13043553
-0.54841739 0.01763894 0.21465163
-0.18383804 0.53222865 0.06977474
-0.40407652 0.19034393 0.14499687
-0.23309574 0.33053890 0.03696943
-0.30663881 0.18787993 0.05079475
-0.48294908 -0.26771772 0.03893239
-0.68113106 -0.11157049 0.29042149
-0.65862054 -0.74478483 0.01794502
-0.48484796 0.03126515 0.15923059
-0.50630111 -0.41427416 0.00319464
-0.30322930 0.18212922 0.04525351
-0.64652199 -0.20691264 0.21952589
-0.68628329 -0.22548822 0.25020584
-0.30304459 0.18362813 0.04567081
-0.69956142 -0.42729184 0.18293592
-0.60843742 -0.13340043 0.21222141
-0.30691963 0.38616940 0.12964948
-0.64010066 -0.37205550 0.14793706
-0.58971637 -0.59465826 0.01151605
-0.70790130 -0.66451228 0.09690591
-0.38336232 0.29034740 0.16481148
-0.73424816 -0.62248093 0.13877004
-0.38482207 0.06129049 0.07542832
-0.03864509 0.70889825 0.00087597
-0.50835192 -0.14896286 0.11029830
-0.32199579 0.37968406 0.14150368
-0.32157198 0.33945209 0.12515345
-0.16427171 0.45213535 0.01931168
-0.57067424 -0.27150151 0.12136309
-0.52537513 -0.00409686 0.18399116
-0.39397791 0.22728017 0.14997339
-0.07943405 0.61035007 0.00084508
-0.70196474 -0.58832592 0.12141836
-0.33182320 0.22520661 0.08968375
-0.51079285 -0.11513071 0.12604114
-0.63825732 -0.44677064 0.11656424
-0.48333675 -0.23996004 0.05030353
-0.62256771 -0.38514808 0.12597407
-0.72575957 -0.52712125 0.16843916
-0.50874287 -0.13261518 0.11715082
-0.48239362 0.11903938 0.19166900
-0.66759300 -0.45255998 0.14233658
-0.15847969 0.52878714 0.04414867
-0.33633721 0.10396742 0.04595311
-0.10922477 0.62726921 0.03605338
-0.46727496 0.07407837 0.15938497
-0.69865572 -0.69125080 0.07746387
-0.35361126 0.28995004 0.13618904
-0.62465703 -0.55690014 0.05990854
-0.48940679 0.08432111 0.18461949
-0.42327711 0.04212906 0.10462695
-0.68237489 -0.45424324 0.15581204
-0.23379830 0.45362747 0.08642406
-0.65553713 -0.15836507 0.24739023
-0.58157152 -0.43705794 0.06617975
-0.28409043 0.21331067 0.03929980
-0.63247699 -0.50361931 0.08850510
-0.75044471 -0.77178288 0.09509849
-0.55916172 -0.51157975 0.01520679
-0.29990056 0.32095385 0.09708763
-0.48269364 -0.27213821 0.03693620
-0.56537265 0.05621899 0.24616399
-0.43481162 -0.21947230 0.01199679
-0.42503932 -0.00342105 0.08826057
-0.52709436 -0.28784209 0.07319280
-0.52049237 -0.28649274 0.06741113
-0.22387330 0.46101570 0.07985622
-0.32272074 0.30103859 0.11102850
-0.37289500 -0.07923503 0.00833402
-0.56571084 -0.16169783 0.16012906
-0.60314113 -0.39532354 0.10335540
-0.57388908 -0.42430389 0.06388403
-0.41929895 -0.00759021 0.08111601
-0.49101117 0.02552637 0.16285297
-0.66850221 -0.55063957 0.10433798
