ply
format ascii 1.0
element vertex 1019
property float x
property float y
property float z
end_header
-0.24534571 0.29469302 -0.02554302
-0.52977318 -0.47900224 0.27794871
-0.26965553 0.14899445 0.06365282
-0.53601056 -0.37242237 -0.03570910
-0.49817237 -0.40270588 0.09289233
-0.29180962 0.09549634 0.23882265
-0.59499162 -0.30389684 -0.09764443
-0.68266082 -0.23968881 -0.17864966
-0.16688032 0.39711627 0.00813482
-0.35747913 -0.06303839 0.20302474
-0.24183355 0.34304622 -0.03725254
-0.41718110 0.14329690 -0.10290489
-0.56025451 -0.55258226 0.00675023
-0.58166206 -0.15249030 -0.13265483
-0.05808594 0.65976274 0.03494802
-0.49228120 -0.38848913 0.23786926
-0.50133908 -0.41035795 0.27348742
-0.22781038 0.25000411 0.20900452
-0.53985578 -0.50333929 0.10806225
-0.45334956 -0.18905672 -0.03095348
-0.47942320 -0.35744730 0.24292777
-0.57590443 0.06765372 -0.19321676
-0.38893607 -0.13899596 0.35343251
-0.19136655 0.44242764 -0.03065888
-0.52746028 0.15509763 -0.18455157
-0.33472505 -0.00811728 0.34107858
-0.36984310 0.01395330 -0.03136198
-0.09873924 0.60721457 -0.01338312
-0.40175498 -0.16993234 0.07385918
-0.71767533 -0.40692562 -0.15436320
-0.27895710 0.12652537 0.22949678
-0.44053382 0.22398852 -0.14315651
-0.26711676 0.34771240 -0.05654708
-0.36292920 -0.07619766 0.05542412
-0.55299544 -0.09180012 -0.13015382
-0.42209512 -0.21904527 0.25711152
-0.65447527 -0.13397095 -0.18971194
-0.59321666 -0.34237695 -0.08508657
-0.50392807 -0.41659898 0.03488914
-0.61228997 -0.67821044 0.17192186
-0.29471889 0.08847586 0.20166005
-0.44808632 -0.28178504 0.03998342
-0.40959468 -0.18886524 0.22593704
-0.67752200 -0.31454158 -0.15302639
-0.34728497 0.29620364 -0.09825542
-0.15167989 0.52053541 -0.02546060
-0.55966198 -0.32797563 -0.06552778
-0.16150782 0.51615417 -0.03114140
-0.76233768 -0.65610933 -0.11285211
-0.18617417 0.35053509 0.03824025
-0.38179168 -0.12173850 0.12093288
-0.46046650 -0.31167319 0.03271780
-0.20514841 0.55690175 -0.07404591
-0.46321276 -0.31831458 0.31407136
-0.50242829 -0.19816071 -0.06307320
-0.55607218 0.12548631 -0.19614004
-0.42421335 0.18635719 -0.12053544
-0.48421627 -0.23632170 -0.03895642
-0.09087432 0.58060277 0.07315743
-0.50278038 -0.41383493 0.20027995
-0.39824885 -0.16146700 0.05404022
-0.59587324 -0.38293532 -0.07506007
-0.17855640 0.36891368 0.18646240
-0.53923565 -0.50184602 0.24490479
-0.54617429 -0.51859242 0.07650564
-0.26896363 0.15066794 0.02474649
-0.18880805 0.47880247 -0.03952691
-0.30127206 0.07264868 0.28475016
-0.30385861 0.06640511 0.27432814
-0.57989639 -0.30575129 -0.08639855
-0.22223552 0.26346570 0.17366028
-0.25416747 0.18637396 0.20305988
-0.35470399 -0.05635199 0.36575276
-0.18657608 0.34955767 0.12628561
-0.20847972 0.45024019 -0.04508531
-0.72404879 -0.36507475 -0.17117079
-0.41863358 0.14864913 -0.10550634
-0.39706647 -0.15678787 -0.00052871
-0.60140181 -0.65192473 0.14695320
-0.71930701 -0.18126629 -0.22178432
-0.39430106 -0.15193449 0.01221950
-0.49366120 -0.39181498 0.09545743
-0.31434599 0.04108140 0.33949310
-0.68014663 -0.03156571 -0.23798195
-0.38522634 -0.02705679 -0.03023004
-0.03094170 0.72588462 -0.00016746
-0.40473750 0.07762487 -0.07479784
-0.40029511 -0.16641694 0.29808623
-0.63307375 -0.69076478 -0.01103932
-0.42061931 -0.21547973 0.19140594
-0.14780620 0.44315287 0.15165088
-0.56842601 -0.10069001 -0.13848247
-0.61803538 -0.69208068 0.15145986
-0.23561516 0.23116475 0.17515014
-0.73347020 -0.76081461 -0.06164141
-0.51883578 -0.45259306 0.12255919
-0.29974902 0.07634780 0.01021216
-0.54711628 -0.49970666 -0.00620562
-0.26051831 0.17104097 0.21559317
-0.23340523 0.23649693 0.21212545
-0.50090235 -0.20478503 -0.06004618
-0.31537113 0.03861294 0.26110718
-0.70153105 -0.02896979 -0.25390393
-0.63244188 -0.72686011 0.05030371
-0.43134242 -0.24136995 0.24886382
-0.62455165 -0.70781207 0.15016805
-0.31060907 0.08157602 -0.00922676
-0.40836519 0.15222174 -0.09927582
-0.61100286 -0.67510313 0.17221741
-0.36882013 -0.09042104 0.08849603
-0.37604830 0.17045553 -0.08171963
-0.43627414 -0.25326911 0.07217566
-0.41525567 -0.20253047 0.18507528
-0.56404674 -0.56173974 0.06211103
-0.06763185 0.63671625 0.04700396
-0.20306626 0.48295602 -0.05085485
-0.26652449 0.37895587 -0.06530217
-0.21840326 0.27272084 0.13120887
-0.23906954 0.35743025 -0.03951704
-0.44431654 -0.27269533 0.32261142
-0.67064810 -0.44600612 -0.10954921
-0.33352467 -0.00520657 0.18360351
-0.56776392 -0.57071775 0.22328518
-0.15187083 0.47870022 -0.01331061
-0.12437675 0.52668256 -0.00790948
-0.66160846 -0.54907817 -0.07287404
-0.52895361 -0.47701767 0.07261650
-0.67710179 -0.71062356 -0.03642023
-0.32112882 0.28993782 -0.07787226
-0.41120532 -0.19274832 0.09317025
-0.50637919 -0.42251927 0.10309715
-0.40809849 -0.18525673 0.31651181
-0.49983004 -0.40670681 0.06747092
-0.57367665 -0.20994297 -0.11012301
-0.39062414 -0.14307155 0.35844690
-0.66042084 -0.79440570 0.09016238
-0.62428778 -0.21507046 -0.14449677
-0.39091730 -0.14378165 0.41777349
-0.50535685 -0.42005590 0.22277072
-0.45077491 -0.14454339 -0.04219944
-0.18879369 0.40439847 -0.01766721
-0.12117714 0.50745189 0.00619901
-0.24729478 0.20296131 0.25906345
-0.42695874 0.00513669 -0.06926444
-0.61112142 -0.67538923 0.10419108
-0.44228917 0.20385043 -0.13848718
-0.30276194 0.09022968 -0.00620484
-0.75607240 -0.56194162 -0.13606283
-0.57384849 -0.58540446 0.08930062
-0.13291050 0.47912505 0.01175308
-0.41456965 -0.20086943 0.06570091
-0.53083664 -0.48156345 0.06621266
-0.33938381 -0.01936601 0.36175555
-0.57300031 -0.00426661 -0.17003773
-0.25072905 0.19466998 0.26394635
-0.36987340 -0.09296498 0.11645467
-0.30134583 0.35041258 -0.08160637
-0.45265001 -0.29281506 0.37088862
-0.32227594 0.02194341 0.26222596
-0.48550925 -0.37213516 0.11496709
-0.64228606 -0.75062472 0.01510763
-0.18195634 0.45374835 -0.02731205
-0.24785861 0.39162889 -0.05579075
-0.41782430 -0.20873569 0.28467074
-0.46889967 -0.33204085 0.23468643
-0.26665992 0.33680943 -0.05302143
-0.23345163 0.52750653 -0.08547898
-0.47299406 -0.10806547 -0.06866272
-0.60475063 -0.62305379 -0.01084352
-0.31080580 0.04963762 0.22213590
-0.55307835 -0.14208148 -0.11544767
-0.12260164 0.50400382 0.11749689
-0.48706183 -0.23299411 -0.04195084
-0.24500503 0.20850968 0.00679545
-0.64851540 -0.76566416 0.10121047
-0.38105154 -0.11994717 0.00952164
-0.30896375 0.30455905 -0.07354165
-0.18345319 0.35709813 0.11090151
-0.41034684 -0.19067371 0.04203290
-0.06813682 0.63549554 0.06677195
-0.41691655 -0.02163059 -0.05428936
-0.24073875 0.21880957 0.00226637
-0.57303751 -0.34120119 -0.07112638
-0.42839232 -0.23424616 0.20887855
-0.49669781 -0.39914274 0.01328552
-0.15898189 0.41618329 0.02239478
-0.60220593 -0.65386593 0.20382074
-0.23480619 0.23311989 0.14871475
-0.66423905 -0.80362338 0.04231779
-0.35194176 -0.04966487 0.13717391
-0.21815754 0.27330738 0.21372306
-0.25552270 0.18311304 0.07023115
-0.32431853 0.01701547 0.22277752
-0.65906495 -0.74087912 -0.01474920
-0.32939446 0.00476963 0.12001607
-0.24580148 0.38678253 -0.05290918
-0.54003054 -0.31722608 -0.05476714
-0.42920080 -0.23620009 0.25970587
-0.06400084 0.64548314 0.03507081
-0.11753978 0.51622528 0.10282288
-0.21021786 0.29248944 0.03816145
-0.11128314 0.53132892 0.11434104
-0.62013125 -0.37716642 -0.09395116
-0.31828171 0.29241085 -0.07658007
-0.24258092 0.21435453 0.09736344
-0.22177108 0.26458165 0.23852292
-0.72836274 -0.21875800 -0.21719456
-0.52027196 -0.45606214 0.16947024
-0.18267164 0.35898256 0.13986646
-0.63754708 -0.09694910 -0.18858249
-0.10378480 0.54944038 0.00158063
-0.69030309 -0.59834570 -0.07874882
-0.58848286 -0.04631049 -0.16866957
-0.69493532 -0.43756568 -0.12924534
-0.41176718 -0.02764282 -0.04887338
-0.38958192 0.03556819 -0.05170307
-0.08085720 0.69665253 -0.02697023
-0.58045524 -0.42434686 -0.05196953
-0.22983012 0.27239412 -0.00799510
-0.51002425 -0.20522454 -0.06638385
-0.36562935 -0.08272038 0.27617365
-0.60587776 -0.66273034 0.12596542
-0.31307209 0.04418432 0.00173616
-0.24786443 0.20159668 0.12900282
-0.16055599 0.43119705 -0.00551806
-0.54415607 -0.02550074 -0.14335601
-0.67593485 -0.49486005 -0.09895132
-0.05855164 0.69233233 -0.00988826
-0.74537516 -0.67390859 -0.09560061
-0.28532702 0.11115826 0.09359532
-0.67630100 -0.41601899 -0.12236230
-0.38893986 -0.13899128 0.01047869
-0.22434708 0.25836375 0.22602712
-0.52871025 -0.20045438 -0.08103153
-0.13354288 0.64345288 -0.04869857
-0.41315651 -0.19746257 0.18279406
-0.38721830 0.30168876 -0.12817650
-0.56353891 0.10199274 -0.19453436
-0.51496190 0.08898650 -0.15627678
-0.28821212 0.10417853 0.27379408
-0.12473719 0.49885526 0.03152260
-0.71875542 -0.58193499 -0.10373771
-0.19569080 0.32755807 0.06553597
-0.15899941 0.61294192 -0.05778583
-0.40242016 -0.17154945 0.35317269
-0.71841377 -0.75979799 -0.05126637
-0.14624675 0.44692969 0.00319456
-0.37800145 -0.11259493 0.29275557
-0.59720206 0.04269876 -0.20098722
-0.47096664 -0.33702534 0.09570838
-0.48187193 0.17188586 -0.15716223
-0.72522801 -0.39386302 -0.16355312
-0.67904478 -0.10620799 -0.21528237
-0.38258147 -0.12365203 0.35306615
-0.56173694 -0.26830533 -0.08452075
-0.59675032 -0.64069533 0.13952453
-0.61312318 -0.36628816 -0.09217735
-0.51836824 -0.45145991 0.01471573
-0.50550765 -0.42042157 0.29091403
-0.42184457 -0.21844047 0.25892633
-0.25876912 0.17526156 0.24283065
-0.46541008 -0.32361132 0.11367359
-0.29977354 0.21890952 -0.04187445
-0.14290681 0.55081201 -0.02813205
-0.36798322 -0.08839702 0.00124457
-0.12785833 0.56605411 -0.02193960
-0.42246532 0.29520482 -0.15126044
-0.37587911 0.25837791 -0.10741901
-0.45247698 -0.29239652 0.32527944
-0.10374992 0.54952258 0.02708558
-0.71326679 -0.62129122 -0.08828992
-0.40989625 0.15142711 -0.10012789
-0.30921593 0.40022504 -0.10181375
-0.45464286 0.03955511 -0.09899815
-0.12312139 0.62551379 -0.03604236
-0.29759601 0.08154587 0.00639243
-0.33302519 -0.00399645 0.13072848
-0.19016050 0.34090590 0.10580443
-0.58668745 -0.46974483 -0.04305674
-0.39368537 0.31229576 -0.13587613
-0.62127048 -0.60046697 -0.02918734
-0.25516766 0.18397260 0.03989868
-0.43226275 0.19792198 -0.12963811
-0.27014640 0.14780934 0.06428940
-0.57888556 -0.59756696 0.15858807
-0.42345050 -0.22231582 0.21567346
-0.73379785 -0.37624434 -0.17480199
-0.65146840 -0.65810102 -0.03367132
-0.36898494 -0.09081890 0.24563496
-0.39346170 -0.03911924 -0.03252620
-0.32962257 0.22986174 -0.06625183
-0.05428845 0.66892868 0.05749971
-0.22799972 0.24955730 0.08290203
-0.40653795 -0.18148522 0.21523081
-0.30486584 0.06398501 0.13248973
-0.63808405 -0.61220163 -0.03766107
-0.76322860 -0.73610306 -0.08999366
-0.56492400 0.03533672 -0.17594203
-0.09082508 0.58072382 0.04621731
-0.62074518 -0.69862252 0.12632322
-0.13181475 0.48176572 0.06900748
-0.45185071 -0.29087332 0.04620104
-0.27852497 0.12757660 0.13074581
-0.63732189 0.04769174 -0.23089598
-0.35567462 -0.05869474 0.35942882
-0.57835412 -0.41499275 -0.05322683
-0.31103191 0.04909649 0.16336828
-0.46654084 -0.32634544 0.21884441
-0.43036667 -0.23901756 0.32997575
-0.60719156 -0.03764175 -0.18447816
-0.59705180 -0.64142305 0.15720113
-0.50824869 -0.42703304 0.11132516
-0.41839096 -0.21010701 0.36665878
-0.68041784 -0.20829301 -0.18627883
-0.70051724 -0.22972046 -0.19423570
-0.51422757 -0.44147265 0.25682583
-0.16577047 0.39979622 0.00113406
-0.57169437 -0.58020049 0.00303306
-0.60850066 -0.66905892 0.00184510
-0.35674903 -0.06127517 0.19546939
-0.44811612 -0.28185880 0.08570267
-0.30272728 0.12714627 -0.01702122
-0.30825186 0.05580142 0.24486332
-0.64596426 -0.66233009 -0.02852748
-0.33150649 -0.00034748 0.34566262
-0.39933735 -0.16409390 0.02919662
-0.32241163 0.02161374 0.28799546
-0.41957566 -0.21296185 0.23519640
-0.23618317 0.22980446 0.04057252
-0.48644161 0.09975757 -0.13922063
-0.45469674 -0.29774934 0.17174570
-0.40885165 -0.18706881 0.16223159
-0.60907513 -0.63699228 -0.00981625
-0.31127954 0.09405873 -0.01336775
-0.35947999 0.31581387 -0.11265970
-0.58473486 -0.39741468 -0.06291198
-0.68734831 -0.80131602 -0.01705234
-0.06169075 0.71875030 -0.01987160
-0.44489989 0.13807245 -0.12102162
-0.26816583 0.22538850 -0.02136911
-0.64437437 -0.75566697 0.08110103
-0.61985213 -0.17023712 -0.15451735
-0.37120622 -0.09618475 0.16864619
-0.22895046 0.45791110 -0.06185049
-0.36717993 -0.08646881 0.33793089
-0.52391338 -0.46485391 0.18350635
-0.59645766 -0.01165398 -0.18449821
-0.58205050 -0.60520697 0.11688827
-0.27770644 0.12955113 0.15005741
-0.61752170 -0.24848771 -0.12988727
-0.50328076 -0.41504550 0.26665720
-0.55515599 -0.34522176 -0.05726911
-0.29996446 0.07580586 0.27905199
-0.63093990 -0.72323298 0.02425746
-0.29328156 0.09194792 0.17605320
-0.64572805 -0.75893503 0.14745322
-0.40953442 -0.18871918 0.21092410
-0.38340300 -0.04720627 -0.02302060
-0.44631001 0.21309131 -0.14405137
-0.18069941 0.53222567 -0.04946665
-0.12743570 0.49233815 0.06125047
-0.46512091 -0.32292083 0.30263230
-0.44236407 0.11100472 -0.11127515
-0.47709268 -0.35181382 0.06729812
-0.19293617 0.33420908 0.05505411
-0.31198290 0.15048987 -0.03043799
-0.56835276 -0.57213926 0.22591564
-0.19078504 0.33939561 0.13745376
-0.47403973 -0.34444678 0.15233184
-0.67438745 -0.00203815 -0.24256954
-0.61125147 -0.67570055 0.01890868
-0.74154109 -0.76764494 -0.06535712
-0.36891896 -0.09066244 0.15851003
-0.46846834 0.24491715 -0.16910630
-0.32311147 0.01994734 0.00337822
-0.36997339 -0.09320628 0.11390713
-0.02759777 0.75650537 -0.00678892
-0.15446945 0.42706737 0.14257547
-0.64739323 -0.76295507 0.11432963
-0.28903896 0.10220441 0.00224522
-0.36135933 -0.07241080 0.26382026
-0.26655594 0.15647700 0.06869479
-0.45770299 0.18207549 -0.14302021
-0.37079859 -0.09519396 0.00200262
-0.55229151 -0.31372026 -0.06448872
-0.61482710 0.00727581 -0.20307997
-0.06391568 0.64568871 0.03477658
-0.43047529 -0.23926944 0.07343666
-0.17273857 0.38296917 0.06062235
-0.72132003 -0.57731974 -0.10691101
-0.48609698 -0.37354973 0.00571508
-0.32005256 0.02731052 0.26878506
-0.28032357 0.43634909 -0.09193901
-0.60779637 -0.66736221 0.09929948
-0.41172802 -0.19401853 0.29996541
-0.50768435 -0.42566901 0.07169444
-0.13113344 0.48340514 0.13540643
-0.64576316 -0.48255801 -0.08117436
-0.46677488 -0.14784701 -0.05257208
-0.57538468 -0.58911073 0.03069013
-0.60644263 -0.53975224 -0.03650422
-0.64719123 -0.76246709 0.01940843
-0.67769325 -0.70609891 -0.03816813
-0.36400890 -0.07881608 0.37098515
-0.47463998 -0.34590006 0.25511253
-0.48077613 -0.32312199 -0.01102902
-0.47750232 -0.26604161 -0.02546958
-0.60101902 -0.65100056 0.14864917
-0.30978599 0.05211746 0.00261814
-0.48985216 -0.38262650 0.27783152
-0.29264200 0.09349948 0.08314299
-0.43856424 -0.25879744 0.05971416
-0.45330104 -0.29438436 0.28457937
-0.47554058 -0.34807143 0.18471023
-0.22101068 0.26641759 0.23340791
-0.55611861 -0.29572374 -0.07248646
-0.53818154 -0.27627516 -0.06548146
-0.57426471 -0.19204850 -0.11579451
-0.59205997 -0.19925860 -0.12629279
-0.64342409 -0.25173128 -0.14729761
-0.64448732 -0.49629366 -0.07623646
-0.03229733 0.72202337 0.00479514
-0.28775758 0.24857514 -0.04206747
-0.46931735 0.10731724 -0.12930055
-0.52201921 -0.46027586 0.05629704
-0.36558044 -0.08259922 0.23769988
-0.69504017 -0.55858296 -0.09378320
-0.67200011 -0.82235980 0.12836143
-0.22796814 0.24963383 0.07878707
-0.24048296 0.50544024 -0.08398377
-0.47013584 -0.33502337 0.18959291
-0.48223150 0.16029355 -0.15401293
-0.73884261 -0.50431007 -0.14077196
-0.18729936 0.34781843 0.04182779
-0.53684670 -0.16205308 -0.09807606
-0.41309002 -0.19730966 0.37292293
-0.22133756 0.26564130 0.07766099
-0.44433808 -0.14735807 -0.03680969
-0.03315086 0.75268060 -0.00960253
-0.46523559 -0.26931605 -0.01581189
-0.33471143 0.21103638 -0.06433127
-0.46804494 -0.31462660 -0.00449822
-0.52937585 -0.47803906 0.12228248
-0.43428957 -0.24848647 0.28381324
-0.59257352 -0.62378848 -0.00199513
-0.54837793 -0.45002925 -0.02168764
-0.30753723 0.05753023 0.20112982
-0.15763099 0.41943789 0.10506813
-0.33988905 -0.02057636 0.24546957
-0.51680261 -0.44768620 0.16618533
-0.65001005 -0.55507487 -0.06289075
-0.20645812 0.30156434 0.05961358
-0.63455307 -0.65284342 -0.02322356
-0.40275562 -0.17234696 0.04398691
-0.18976849 0.34184578 0.18550804
-0.53578073 -0.49350536 0.21321908
-0.62366807 -0.70567882 0.14406785
-0.04643974 0.68787760 0.04628949
-0.59442687 -0.21724342 -0.12268958
-0.21504316 0.28083235 0.13606706
-0.21904516 0.27117991 0.02416210
-0.23160934 0.25379434 -0.00379444
-0.35632232 -0.06025108 0.15143543
-0.49735731 -0.40074536 0.32362494
-0.42601618 -0.22850935 0.20188957
-0.31164983 0.24466261 -0.05785668
-0.66169792 -0.79748869 0.05157712
-0.43630978 -0.25336072 0.21044491
-0.66020125 -0.79387563 0.10043064
-0.55280203 -0.53459609 0.15005994
-0.38905382 -0.13928019 0.35185638
-0.57770807 -0.59472007 0.03435832
-0.50412261 -0.41707149 0.10529746
-0.68245590 -0.74188763 -0.03103514
-0.60078847 0.05430995 -0.20693947
-0.25287610 0.18949938 0.10691441
-0.30163217 0.14950879 -0.02281184
-0.13339336 0.60715395 -0.03793299
-0.24267596 0.21411297 0.24683642
-0.19376196 0.43186167 -0.02925427
-0.64665008 0.04148375 -0.23568606
-0.15060571 0.43640164 0.06193229
-0.63956594 -0.74405885 0.16886768
-0.21141855 0.53163552 -0.07107137
-0.33388025 0.02607613 -0.00942649
-0.49078950 -0.06022436 -0.09532670
-0.53072196 0.02165100 -0.14767592
-0.33633620 0.01166108 -0.00693449
-0.54188120 -0.26827419 -0.07045368
-0.71467680 -0.73034650 -0.05726559
-0.62475485 -0.70830256 0.06266658
-0.25720328 0.26149577 -0.02420061
-0.66863155 -0.08331513 -0.21462259
-0.54242420 -0.50954169 0.14760146
-0.45682403 -0.30288702 0.22125870
-0.73115224 -0.61399150 -0.10311252
-0.66568393 -0.80711156 0.05300844
-0.68084270 -0.55664897 -0.08428650
-0.60947502 -0.15491259 -0.15166079
-0.69437802 -0.57555544 -0.08832987
-0.62572831 -0.71065253 0.15508394
-0.67663133 -0.35843807 -0.13950492
-0.48138827 -0.05925168 -0.08894757
-0.17742661 0.37164280 0.16679153
-0.38129824 -0.12055826 0.40432319
-0.27071741 0.14641400 0.27090484
-0.20824236 0.45027959 -0.04492862
-0.14612263 0.62239975 -0.05143448
-0.19977571 0.41118976 -0.02744713
-0.44630191 -0.27748275 0.18203498
-0.35697988 -0.06183375 0.21092167
-0.70749420 -0.47977909 -0.12575249
-0.31794402 0.03241322 0.11738454
-0.69537055 -0.14405747 -0.21574169
-0.18624547 0.35035855 0.09231179
-0.61099195 0.03210758 -0.20765321
-0.40431985 0.24777651 -0.12446857
-0.68665355 -0.24329752 -0.18042055
-0.58487576 -0.61202586 0.06859958
-0.48660502 -0.37478033 0.10680382
-0.38687882 0.03034891 -0.04825404
-0.57448441 0.04896215 -0.18672109
-0.63619721 -0.73592615 0.14688089
-0.27888981 0.12978867 -0.00089786
-0.61044949 -0.17555195 -0.14629093
-0.19015284 0.34091812 0.18305770
-0.33798751 -0.01598178 0.02566675
-0.10949311 0.53565282 0.08435301
-0.29156962 0.09607363 0.26532167
-0.39203233 0.23383164 -0.11166240
-0.43902448 -0.25991249 0.15821445
-0.35963717 0.23217958 -0.08821105
-0.67009360 -0.34407014 -0.13908923
-0.63146317 -0.63328093 -0.02677748
-0.66971064 -0.58311629 -0.06862269
-0.33857280 -0.01738963 0.13449953
-0.37555411 -0.10668229 0.18825459
-0.59242022 -0.63023865 0.03909732
-0.69509417 -0.60769373 -0.07940019
-0.41658697 -0.20574066 0.08928000
-0.22609344 0.35172358 -0.02864194
-0.07148107 0.62742382 0.04367998
-0.35702333 -0.06194589 0.30008113
-0.43691519 -0.25482205 0.20473029
-0.25305480 0.18905467 0.27062204
-0.19134776 0.50440544 -0.04884598
-0.43010780 -0.15126885 -0.02557313
-0.29973468 0.07637210 0.13733432
-0.22919469 0.24666929 0.12133749
-0.22809584 0.48502335 -0.06920641
-0.63850242 -0.03476993 -0.20751846
-0.00708468 0.78289109 0.00568188
-0.28855550 0.10336683 0.06095756
-0.46873450 -0.33164123 0.21405685
-0.66560441 -0.19378921 -0.18003622
-0.47780082 -0.35353300 0.34687853
-0.60997182 0.01269045 -0.20122793
-0.64368367 -0.75399923 0.02260308
-0.70375997 -0.60657418 -0.08587217
-0.54704398 -0.52069163 0.06872765
-0.29407382 0.09003214 0.21446933
-0.10790344 0.53948915 0.10151731
-0.03719271 0.71020520 0.00346796
-0.28221521 0.11866473 0.16778460
-0.29063097 0.09834084 0.25100130
-0.28616691 0.10911539 0.28152427
-0.29028124 0.09918166 0.29412642
-0.53356785 -0.36824483 -0.03520414
-0.01875947 0.75470537 0.01486129
-0.53845614 -0.49995756 0.03822158
-0.62122661 -0.69978362 0.03913510
-0.39926013 -0.16391256 0.15577091
-0.63788581 -0.42378077 -0.09284966
-0.58959889 -0.24870065 -0.11002958
-0.53669739 -0.49571592 0.15001512
-0.07480342 0.61940062 0.07405992
-0.76068419 -0.76152849 -0.08072381
-0.48349661 0.14041340 -0.14907181
-0.21870627 0.54406238 -0.07988723
-0.46536174 -0.32350272 0.31575292
-0.48592731 -0.21569745 -0.04622565
-0.40457270 0.17522986 -0.10334374
-0.58311552 0.08843759 -0.20443238
-0.62177217 -0.49209428 -0.06136630
-0.70922375 -0.46469951 -0.13140666
-0.64714062 -0.50277829 -0.07621326
-0.16462135 0.40255648 0.17255072
-0.63828826 -0.54961574 -0.05618394
-0.27168190 0.14409962 0.09824676
-0.33596197 0.07415923 -0.02502242
-0.33551511 -0.01001222 0.18838938
-0.50843781 0.13030140 -0.16378412
-0.61700833 -0.60961354 -0.02347996
-0.72342658 -0.43307281 -0.15076220
-0.24307001 0.21317394 0.09543870
-0.21851121 0.52161264 -0.07315632
-0.75278312 -0.57539767 -0.12977970
-0.61706281 -0.68973273 0.13347305
-0.48264378 0.04259386 -0.11974147
-0.36355659 0.17413835 -0.07394526
-0.59560823 -0.62427473 -0.00400370
-0.27834266 0.12801167 0.19320650
-0.69674677 -0.17634431 -0.20723644
-0.57631171 -0.59135342 0.21108067
-0.40842548 0.21791454 -0.11860993
-0.15450542 0.42698720 0.06024538
-0.73552936 -0.61580527 -0.10568283
-0.33934477 -0.01925851 0.19859169
-0.38425770 -0.12769844 0.28151435
-0.35835135 0.03497891 -0.02938943
-0.43390703 -0.24756050 0.22483981
-0.43196619 0.15580063 -0.11705849
-0.63114113 -0.33533913 -0.11403874
-0.43251279 0.11967322 -0.10683679
-0.22125082 0.26584670 0.12765501
-0.63099313 -0.57996267 -0.04210097
-0.53250426 -0.21980551 -0.07803883
-0.39816153 -0.16126567 0.29045358
-0.61164826 -0.38863066 -0.08457093
-0.57106447 -0.10429454 -0.13929445
-0.33801374 0.23350671 -0.07327106
-0.60132635 -0.65173995 0.03926664
-0.56660604 -0.36364919 -0.05997519
-0.50646794 -0.17189933 -0.07364854
-0.27714822 0.13088998 0.25768170
-0.34671977 -0.03706793 0.25867698
-0.50220031 -0.01575506 -0.11647433
-0.44847041 0.06504215 -0.10210680
-0.55050975 -0.52905631 0.00712387
-0.51035601 -0.17828283 -0.07453040
-0.59844846 -0.34154144 -0.08904088
-0.13721132 0.59091860 -0.03587202
-0.48007268 -0.03759977 -0.09437292
-0.40751591 -0.16661561 -0.00505069
-0.57896221 -0.04576188 -0.16208127
-0.49887845 0.17443252 -0.16996668
-0.38937494 -0.14005101 0.24237403
-0.30844805 0.20317526 -0.04340362
-0.41475835 -0.20133810 0.39171171
-0.08538129 0.59386241 0.08941288
-0.71600509 -0.79484409 -0.03926765
-0.41139391 0.19106400 -0.11282943
-0.52109122 -0.45804048 0.17942072
-0.34067854 -0.02247516 0.15717326
-0.61053520 -0.29549879 -0.11112971
-0.21293806 0.28591758 0.09717017
-0.56883150 -0.57329351 0.11822066
-0.21633746 0.54538554 -0.07859642
-0.56410640 -0.56188488 0.08662825
-0.47297722 0.16861331 -0.14989541
-0.54061216 0.02826462 -0.15662964
-0.08074681 0.60505551 0.03392547
-0.52611452 -0.20850720 -0.07682670
-0.46045989 -0.11405502 -0.05801815
-0.06921426 0.63289738 0.03054273
-0.32611415 0.01269148 0.08746988
-0.09582245 0.67874134 -0.03231988
-0.63660920 -0.71759731 -0.00566640
-0.44876361 -0.24267101 -0.01195874
-0.71284229 -0.62761152 -0.08613305
-0.47785363 -0.35365602 0.19404685
-0.44613972 -0.22421160 -0.01551915
-0.18572174 0.36843017 -0.00492691
-0.17217012 0.38434467 0.02172072
-0.28039497 0.12306411 0.10548336
-0.40457165 0.11234089 -0.08487500
-0.26067847 0.17065170 0.24765699
-0.41367579 -0.19871056 0.04263141
-0.35728002 -0.02113387 -0.01215749
-0.27982011 0.12444864 0.14675628
-0.54409939 -0.25443006 -0.07609151
-0.37153345 -0.09697627 0.30516246
-0.52786231 0.03518568 -0.14962322
-0.23209973 0.40907955 -0.04974322
-0.37810388 -0.02588723 -0.02552420
-0.40131891 -0.11602073 -0.01551449
-0.13669480 0.46998835 0.02042868
-0.27697113 0.13133354 0.06049863
-0.43677008 -0.25446826 0.11760943
-0.42748022 0.01666287 -0.07301892
-0.45362094 -0.20577516 -0.02623655
-0.51148570 -0.43485057 0.17787391
-0.19378904 0.33215171 0.03518596
-0.34780347 -0.03967684 0.16847783
-0.23385189 0.23542602 0.12084063
-0.72284299 -0.50958949 -0.12787952
-0.61570829 -0.08126365 -0.17770645
-0.21580546 0.49386820 -0.06309065
-0.30443490 0.38922468 -0.09519391
-0.65980113 -0.79290956 0.07731606
-0.68262476 -0.58349776 -0.07766569
-0.58601648 0.10003124 -0.20989358
-0.27347192 0.13976225 0.29207838
-0.43685317 -0.25466916 0.12453881
-0.65896642 -0.69430953 -0.02835433
-0.35721105 0.29081547 -0.10371012
-0.27168298 0.14409804 0.08582840
-0.76833099 -0.77095968 -0.08337519
-0.58240950 -0.54787755 -0.01708060
-0.65223175 -0.48549008 -0.08489909
-0.51953268 -0.40229708 -0.01525495
-0.61711001 0.04522160 -0.21584161
-0.58780926 0.10940617 -0.21391761
-0.18555184 0.58126986 -0.06730907
-0.02456711 0.76203781 -0.00626502
-0.16449858 0.58676922 -0.05399853
-0.22061566 0.26738560 0.05963732
-0.67196208 -0.38434526 -0.12858725
-0.18897676 0.44346154 -0.02926828
-0.23348570 0.35196000 -0.03395204
-0.36856651 0.22584958 -0.09268254
-0.55768257 -0.24429138 -0.08869815
-0.66049910 -0.79459453 0.01657558
-0.28417748 0.11393483 0.07710107
-0.54545039 0.03112468 -0.16089953
-0.49610350 -0.08822465 -0.09087174
-0.65032774 -0.77003938 0.04949852
-0.33008251 0.00309458 0.29247850
-0.51267445 -0.43771407 0.01928611
-0.40949598 0.08768215 -0.08112474
-0.26768222 0.15375602 0.09205312
-0.49037150 -0.38387358 0.11089944
-0.34151816 -0.02450485 0.00785819
-0.41245106 -0.08875022 -0.03141423
-0.71139759 -0.10807842 -0.23766878
-0.16007037 0.41354883 0.10485563
-0.31538877 0.06236059 -0.00697246
-0.00991654 0.77605414 0.00981818
-0.64236760 -0.75082171 0.01592710
-0.56337994 -0.39355010 -0.04890784
-0.23655462 0.43874905 -0.06161424
-0.68235487 -0.43314520 -0.12162496
-0.24824536 0.25847390 -0.01696257
-0.67721099 -0.06223064 -0.22689611
-0.45340103 0.06341178 -0.10512353
-0.58942413 -0.52493656 -0.02878999
-0.62154436 0.02358052 -0.21263015
-0.10951890 0.60105991 -0.01921785
-0.54227573 -0.50918514 0.19473431
-0.41080263 -0.19177821 0.14449087
-0.25331199 0.18845025 0.06830487
-0.72642589 -0.16901155 -0.23042949
-0.38550454 -0.13070261 0.13379070
-0.22093393 0.26660550 0.20380165
-0.41875845 -0.21099415 0.36472785
-0.43618402 -0.25305754 0.22205988
-0.51907897 -0.45317826 0.07614695
-0.09250588 0.59270251 -0.00470243
-0.66144109 -0.79686868 0.01645804
-0.57703084 -0.59308827 0.11449389
-0.28062737 0.12250749 0.05148422
-0.32405362 0.01767038 0.03354205
-0.71513849 -0.61614531 -0.09112787
-0.64345384 -0.53392577 -0.06445327
-0.53974235 -0.50306904 0.19653192
-0.36997664 -0.09321700 0.29471436
-0.15328726 0.48921612 -0.01740288
-0.35064390 -0.04653714 0.02661499
-0.20312098 0.30962229 0.04146928
-0.41721860 0.01590331 -0.06552101
-0.39415762 0.28548524 -0.12833774
-0.47775736 0.00676598 -0.10575606
-0.47723445 -0.35216531 0.29644558
-0.53507304 -0.49178880 0.00895746
-0.14493039 0.52754456 -0.02273392
-0.13097212 0.48380497 0.00789989
-0.72121680 -0.70341855 -0.06980916
-0.48877427 -0.30514711 -0.02197734
-0.30902016 0.05395529 0.13762677
-0.66334653 -0.44032988 -0.10603974
-0.25823280 0.26765311 -0.02673862
-0.09199409 0.66829956 -0.02653946
-0.48031780 -0.35960788 0.26434246
-0.43636614 -0.25349605 0.19160907
-0.55249095 -0.18044084 -0.10376716
-0.68172693 -0.64488590 -0.05900273
-0.23716730 0.22741173 0.24801709
-0.43916416 -0.26025391 0.26303631
-0.72766614 -0.57506144 -0.11207296
-0.43626189 -0.25324285 0.15373804
-0.50152391 0.21094067 -0.18256325
-0.69359815 -0.56819767 -0.08993762
-0.32535580 0.01450942 0.24619077
-0.24223389 0.21518411 0.19864175
-0.45625132 -0.16265413 -0.04076364
-0.55817503 -0.29839590 -0.07315962
-0.39830929 -0.16161831 0.18738107
-0.59333175 -0.01040422 -0.18264914
-0.47057530 -0.33608428 0.18809585
-0.31405315 0.04179381 0.27286652
-0.51467425 -0.44255117 0.29577720
-0.60757071 0.02456777 -0.20301357
-0.32136309 0.02416256 0.07288050
-0.22028580 0.26818237 0.05394001
-0.10930623 0.60174978 -0.01926968
-0.41447204 -0.20064741 0.40389860
-0.37170061 -0.09738468 0.36466679
-0.29639027 0.08445321 0.05032166
-0.50748026 -0.14548708 -0.08212207
-0.20007773 0.31695908 0.16650806
-0.45205200 -0.03365436 -0.07566697
-0.64249253 -0.32784909 -0.12428548
-0.21863270 0.27216569 0.14681898
-0.21860017 0.27223721 0.23328719
-0.25004095 0.19634882 0.04741516
-0.12122080 0.50733644 0.12876996
-0.03027710 0.72690058 0.00519931
-0.43023399 -0.23869291 0.22194020
-0.42510828 -0.22632511 0.40234730
-0.07758153 0.61269748 0.02891100
-0.52923465 -0.47769961 0.15673926
-0.31973425 0.11216218 -0.02467790
-0.45239115 -0.29217896 0.06808955
-0.26573762 0.27913776 -0.03543170
-0.32978016 0.30185810 -0.08750606
-0.32185233 0.19865127 -0.05157793
-0.26243496 0.16642790 0.04218895
-0.40316805 -0.17334265 0.04391324
-0.28564331 0.11039234 0.12317476
-0.51578832 0.11773434 -0.16530474
-0.19508991 0.53138304 -0.05942121
-0.51348490 -0.43967623 0.15816744
-0.51263195 -0.43761969 0.22470289
-0.43611991 -0.25290176 0.19544403
-0.71727407 -0.11864493 -0.23873179
-0.71896267 -0.64838165 -0.08437269
-0.38669968 0.19091669 -0.09527945
-0.69341677 -0.05123175 -0.24161457
-0.63822246 -0.57098973 -0.04986093
-0.72018456 -0.80013162 -0.04067781
-0.51268917 -0.43775883 0.26523930
-0.43461481 -0.24927534 0.37712267
-0.47541419 -0.22951886 -0.03471404
-0.33172810 -0.00086522 0.13285218
-0.63948482 -0.30292541 -0.12947200
-0.40857247 0.01728713 -0.05979780
-0.48734611 -0.37657204 0.17151991
-0.53604287 -0.49413818 0.28368980
-0.23195443 0.32117674 -0.02382663
-0.41783807 -0.20877291 0.38407439
-0.23586342 0.43703353 -0.06062044
-0.76871926 -0.72786510 -0.09630508
-0.74696356 -0.58607095 -0.12252000
-0.21871231 0.27196941 0.19738267
-0.19093698 0.33903617 0.04624334
-0.71409380 -0.23061360 -0.20359793
-0.43357494 -0.24676494 0.38540760
-0.60666180 -0.66462046 0.02625188
-0.43175036 0.19128256 -0.12732512
-0.50200611 -0.25962389 -0.04472546
-0.32777748 0.00865568 0.33718100
-0.50157654 -0.41092074 0.00605813
-0.51776028 -0.35762116 -0.02711740
-0.36412081 -0.07907906 0.16862032
-0.46832067 0.02905246 -0.10561069
-0.09380747 0.57351971 0.09686196
-0.30080602 0.42897192 -0.10429346
-0.36046347 -0.07024704 0.25153878
-0.23910293 0.22273995 0.23339717
-0.43618613 -0.06547676 -0.05507474
-0.55458003 -0.49518442 -0.01282481
-0.23937315 0.22209001 0.20383464
-0.47521120 -0.34727433 0.13658489
-0.44545233 -0.27543879 0.37461972
-0.41224775 0.08855292 -0.08333130
-0.28889403 0.27822760 -0.05158090
-0.44678527 0.17533036 -0.13329943
-0.45788524 -0.30544290 0.06847578
-0.31117824 0.34777915 -0.08780361
-0.55986816 -0.55165607 0.20888630
-0.60349286 -0.65697277 0.20542134
-0.23203567 0.23981684 0.04554148
-0.55518240 -0.54034364 0.16970955
-0.40924889 -0.18802328 0.04876269
-0.30564439 0.41482747 -0.10356990
-0.08057371 0.61631644 -0.00317771
-0.06090522 0.65295839 0.01132076
-0.47527069 -0.00830583 -0.09956717
-0.55909210 -0.46616647 -0.02454454
-0.42178163 -0.21829079 0.31563821
-0.30345988 0.06993035 -0.00073854
-0.40792400 -0.05620332 -0.03776216
-0.36045116 -0.07021381 0.20796184
-0.41643238 -0.20537303 0.22833291
-0.34150186 -0.01285749 -0.00340232
-0.42169139 0.21807054 -0.12806047
-0.24363494 0.21180049 0.21401094
-0.21030788 0.29225895 0.19988140
-0.52365732 -0.36234003 -0.02991226
-0.34347484 -0.02923238 0.23684064
-0.56393582 -0.56147599 0.16481596
-0.43470055 -0.06769398 -0.05337051
-0.13290283 0.47914118 0.04139367
-0.59291524 -0.63143325 0.02587478
-0.42830077 -0.22603834 -0.00233628
-0.51401466 -0.40800497 -0.00966700
-0.58972520 -0.62373561 0.20639801
-0.62196916 -0.54885608 -0.04483802
-0.26425481 0.16202462 0.16303763
-0.21845528 0.44005978 -0.04916780
-0.29604548 0.08592628 -0.00017955
-0.30769134 0.05716607 0.10397522
-0.53233081 -0.48517495 0.17077067
-0.22117376 0.26602402 0.23452884
-0.39952597 -0.16455325 0.12935279
-0.42775044 -0.23269154 0.08536727
-0.57277036 0.02222189 -0.17765334
-0.19457383 0.56526393 -0.06900481
-0.68706244 -0.05202169 -0.23687789
-0.14430404 0.49624643 -0.01309884
-0.40818548 -0.18545824 0.10488812
-0.62170374 -0.36925563 -0.09738893
-0.63220161 0.00357568 -0.21431088
-0.51364899 -0.44006601 0.00024997
-0.30752721 0.05755978 0.13525286
-0.53439826 -0.49016270 0.08229014
-0.76167804 -0.62580407 -0.12128359
-0.58856803 -0.62094200 0.19330277
-0.36802191 0.34044123 -0.12594751
-0.26222262 0.48948309 -0.09470988
-0.05203349 0.72939569 -0.01615131
-0.50574458 -0.42099348 0.29706672
-0.59576190 -0.13562118 -0.14760409
-0.37191063 -0.09788694 0.20848927
-0.31996673 0.23084825 -0.05969613
-0.15625878 0.42274910 0.12453218
-0.34080201 -0.02278292 0.27661687
-0.49404824 -0.39274758 0.04971096
-0.54894316 -0.52527970 0.14189366
-0.57753527 -0.58237731 -0.00349440
-0.64295596 -0.75224286 0.14154495
-0.41389704 -0.02741731 -0.05044951
-0.56257099 -0.55817878 0.10737845
-0.50772315 -0.39808384 -0.00812010
-0.41483256 -0.20150308 0.03802420
-0.50255895 -0.36072451 -0.01542951
-0.40519726 -0.17824522 0.13467027
-0.07321742 0.68243778 -0.01737976
-0.42001116 -0.21401037 0.16241625
-0.32883009 0.39828706 -0.11514990
-0.75223047 -0.63529032 -0.11180054
-0.24900386 0.19883555 0.25602427
-0.14538293 0.44900337 0.14767854
-0.32093063 0.02520661 0.07309295
-0.48238602 0.11331114 -0.14032562
-0.38136071 0.21390350 -0.09824477
-0.60195482 -0.65325677 0.02817961
-0.68115103 -0.56423908 -0.08227627
-0.62744647 -0.06913907 -0.18958826
-0.26297227 0.32137847 -0.04587566
-0.48062783 -0.36035782 0.30940080
-0.61329961 -0.42945468 -0.07375380
-0.56862044 -0.57278216 0.07464310
-0.59038419 -0.62532651 0.19726233
-0.38339326 0.03029197 -0.04576626
-0.42713970 -0.23122400 0.25764728
-0.35499316 -0.05703965 0.23750144
-0.59024829 -0.33063856 -0.08642918
-0.42042825 -0.20403440 -0.00321663
-0.54828054 0.14652500 -0.19679444
-0.18957379 0.55935943 -0.06372616
-0.59768271 -0.64294630 0.20829882
-0.26992196 0.14833993 0.20309688
-0.34331137 0.22316417 -0.07398958
-0.42019367 -0.17683011 -0.01103880
-0.46894452 -0.33214447 0.11971719
-0.77161735 -0.79683506 -0.07810667
-0.25403187 0.18670842 0.11584965
-0.49182522 -0.38738751 0.21879940
-0.70136338 -0.05140868 -0.24719618
-0.62042588 -0.20302591 -0.14529578
-0.61721671 -0.69010425 0.11004939
-0.54281825 -0.12480924 -0.11324598
-0.46454763 -0.32153267 0.20055693
-0.11583583 0.59223288 -0.02110404
-0.72173399 -0.39080691 -0.16197363
-0.39872211 -0.16260971 0.05799709
-0.63377374 -0.64316779 -0.02551226
-0.37306291 -0.10066758 0.29125059
-0.51722813 -0.44871289 0.14963721
-0.64639360 -0.59636563 -0.04820208
-0.62739497 -0.33663037 -0.11100384
-0.73858005 -0.64654428 -0.09881903
-0.13721611 0.57298797 -0.03060990
-0.14533421 0.44912583 0.08798662
-0.57351607 -0.06679758 -0.15204331
-0.46558139 -0.32402566 0.13231155
-0.76444650 -0.78440535 -0.07667317
-0.63190091 -0.09961764 -0.18379617
-0.53809184 0.06400293 -0.16533779
-0.44280520 -0.26903510 0.03734294
-0.38384253 -0.12669577 0.34435892
-0.65966296 -0.29763058 -0.14533155
-0.66519320 -0.72055817 -0.02506085
-0.51504612 -0.44344240 0.08271873
-0.56266057 -0.04065861 -0.15202321
-0.47198266 -0.00001531 -0.09967076
-0.52425790 -0.46567866 0.00908008
-0.35314751 -0.05258223 0.21654472
-0.37960279 -0.11645704 0.19683392
-0.49678481 -0.06513890 -0.09813378
-0.27788255 0.31449309 -0.05442416
-0.49920070 -0.20816280 -0.05784800
-0.44113925 -0.26501498 0.08235807
-0.23091921 0.28695250 -0.01304241
-0.35424352 0.25396276 -0.09078413
-0.47317272 -0.34236005 0.32852384
-0.33762011 0.28699440 -0.08869923
-0.55433559 -0.53829920 0.16833825
-0.73336792 -0.59270447 -0.11093410
-0.42010492 -0.21423703 0.17055859
-0.69039321 -0.22334309 -0.18893121
-0.36631286 -0.08436985 0.13710167
-0.72006780 -0.69549483 -0.07132141
-0.55738091 -0.54564691 0.05819159
-0.55766869 -0.42989162 -0.03418743
-0.60238701 -0.64876950 -0.00161657
-0.44280723 -0.26904643 0.19694816
-0.47968447 -0.35807797 0.24045239
