ply
format ascii 1.0
element vertex 1404
property float x
property float y
property float z
end_header
-0.31153515 -0.32497010 0.00000418
-0.70715129 -0.17333122 -0.00000110
-0.11043573 -0.65020990 0.00000145
-0.32685715 0.22825834 0.00000413
-0.14996786 0.58341116 0.00000293
-0.25308412 -0.76756662 0.00000273
-0.07938909 -0.00146765 0.00000234
-0.23911883 0.43634617 0.04347543
-0.07782635 -0.26949766 0.00000182
-0.16540587 -0.77342099 0.00000180
-0.50663584 0.15652721 0.11795717
-0.18778767 -0.54301244 0.00000247
-0.75117296 -0.55309469 -0.00000062
-0.23321548 0.12638640 0.00000706
-0.45627832 -0.07680122 0.04574028
-0.62641728 -0.55093873 0.03284372
-0.69691217 -0.19904600 -0.00000099
-0.23655656 -0.68454027 0.00000272
-0.57321370 0.07504923 0.00000138
-0.65909660 -0.05895554 0.14900783
-0.06081766 -0.40188104 0.00000139
-0.30907491 0.23907045 0.00000433
-0.72139543 -0.33148164 -0.00000101
-0.02698383 -0.52117574 0.00000081
-0.69412434 -0.31968650 -0.00000082
-0.10684447 -0.50977230 0.00000167
-0.12948555 0.07226767 0.00000923
-0.60490489 0.16735879 -0.00000042
-0.79241365 -0.19435465 -0.00000151
-0.29862827 -0.14241371 0.00000439
-0.11670251 0.54113674 0.00466041
-0.23176928 0.53240401 0.00000202
-0.00072163 -0.44602567 0.00000067
-0.71180373 -0.40105274 -0.00000085
-0.02087281 -0.55184144 0.00000069
-0.12762132 -0.44381210 0.00000202
-0.45336530 -0.06780980 0.04613884
-0.78934878 -0.25839934 -0.00000135
-0.04419154 -0.37804130 0.00000126
-0.66668385 -0.68661898 -0.00000017
-0.18320446 -0.60263318 0.00000231
-0.14394315 0.24466404 0.00000708
-0.00914772 -0.65821499 0.00000036
-0.05361292 0.32880917 0.00000749
-0.41253433 0.34887379 0.00000092
-0.06708938 0.27849659 0.00000785
-0.52294564 0.09649709 0.00000207
-0.39490804 -0.51805854 0.00000470
-0.73216754 -0.60527003 -0.00000049
-0.02196115 0.45162916 0.00000659
-0.37791684 -0.01400242 0.02002298
-0.58719617 -0.54729170 0.01431813
-0.00500255 -0.71900254 0.00000020
-0.63763946 -0.37652758 -0.00000033
-0.70806110 -0.10607840 -0.00000118
-0.71757579 -0.30802581 0.12705474
-0.24903639 -0.10545003 0.00000393
-0.17990617 0.45689425 0.00000399
-0.15049443 0.28640962 0.00000651
-0.48939845 -0.07097892 0.00000041
-0.63650542 -0.29677448 -0.00000042
-0.26309246 0.28421119 0.02429584
-0.64263690 -0.73288071 0.00378969
-0.16079409 -0.07232692 0.00000306
-0.48688987 -0.56573290 0.00000558
-0.43083510 -0.44275421 0.00000522
-0.40330145 -0.71268940 0.00000442
-0.15837470 -0.58801627 0.00000207
-0.72155339 -0.68983459 -0.00000028
-0.53250766 -0.05292332 0.08804735
-0.53027862 -0.21746986 0.05346993
-0.40199092 -0.75171870 0.00000434
-0.52305996 0.20314546 0.00000069
-0.75291842 -0.51741463 0.10180986
-0.17390719 -0.60564560 0.00000220
-0.09505270 -0.76932913 0.00000106
-0.65811127 -0.15042137 0.12991206
-0.36607724 0.09155217 0.00000515
-0.09167723 0.66066265 0.00000304
-0.14564003 -0.65412253 0.00000181
-0.13061915 0.22935393 0.00000745
-0.66735691 -0.29925117 0.10416976
-0.27195477 0.32956618 0.03787848
-0.65004653 -0.45111972 0.06476324
-0.47056127 -0.31586704 0.00411113
-0.28958502 0.11507979 0.00289521
-0.23575681 0.48326978 0.05137195
-0.30828264 -0.05110008 0.00000466
-0.33639500 -0.29567096 0.00000450
-0.12364200 -0.26002502 0.00000232
-0.42331049 -0.75341618 0.00000456
-0.48275718 -0.08676135 0.00000048
-0.65410888 -0.23116212 -0.00000063
-0.51715356 -0.32523051 0.02509470
-0.66301024 -0.09350137 -0.00000086
-0.24389379 -0.26266569 0.00000358
-0.56591767 -0.52368522 0.00866838
-0.58620632 -0.14691243 -0.00000022
-0.62782604 0.04989004 0.00000066
-0.28573912 0.27566069 0.00000431
-0.44557953 -0.21698377 0.01195968
-0.57483649 0.16353172 0.00000021
-0.34435001 0.42349425 0.09255602
-0.33328164 -0.07424339 0.00000488
-0.74657893 -0.57880861 0.08620291
-0.51950490 0.05219016 0.00000271
-0.58453208 0.04017822 0.13254938
-0.31190574 0.31969324 0.05549578
-0.18074879 0.25425833 0.00000641
-0.55423510 -0.32478642 0.04340169
-0.20868379 0.54543930 0.00000229
-0.31316072 0.31191793 0.05453015
-0.00932588 0.16855437 0.00000996
-0.23273274 0.08693801 0.00000751
-0.28147709 0.19826987 0.01583987
-0.28352845 -0.20278117 0.00000411
-0.72276109 -0.73495144 0.04272983
-0.49494255 0.22188266 0.00000098
-0.19964617 0.19533285 0.00000679
-0.07104975 0.62339425 0.00000391
-0.09339665 -0.65933841 0.00000125
-0.45108452 0.25633201 0.11097566
-0.48958555 -0.15077966 0.00000050
-0.56533456 -0.15872638 -0.00000005
-0.46182767 0.25009862 0.11498494
-0.58926052 -0.54176986 0.01645584
-0.68338221 -0.05280676 0.16218951
-0.38846287 0.25531298 0.00000260
-0.60537797 -0.25603020 0.08251679
-0.01138506 -0.14742769 0.00000134
-0.20125125 0.49515408 0.03683904
-0.20260616 0.54062665 0.04675753
-0.08670682 0.65251577 0.00000325
-0.13483055 0.48550144 0.00224515
-0.54046112 -0.52649993 0.00000622
-0.03349834 0.71361387 0.00000347
-0.66948801 -0.14733043 0.13612995
-0.51137161 -0.19004741 0.00000039
-0.49802604 -0.25343341 0.03030761
-0.63608617 -0.49704564 -0.00000017
-0.01840310 -0.58110887 0.00000060
-0.17519845 -0.22651210 0.00000293
-0.10149523 0.62774158 0.00000328
-0.71883976 -0.41137508 -0.00000089
-0.65171677 -0.04285200 0.14865923
-0.64314562 -0.22993900 0.10637959
-0.64401126 -0.49402398 -0.00000023
-0.50706112 -0.16825642 0.00000039
-0.09590143 0.17061327 0.00000863
-0.62773567 -0.50695086 0.04244217
-0.30583179 0.39180300 0.00000241
-0.57913184 0.17797978 -0.00000006
-0.49204442 0.09397015 0.09805973
-0.71350616 -0.34584144 0.11736068
-0.05387315 0.66590190 0.00000370
-0.77022690 -0.50585228 -0.00000074
-0.52692199 -0.17092521 0.06129199
-0.11551619 0.58531469 0.01306707
-0.61745155 -0.02636914 -0.00000060
-0.27495497 0.49635175 0.00000165
-0.36473575 -0.58067846 0.00000426
-0.71112227 -0.74124831 -0.00000015
-0.49296877 -0.02198572 0.00000032
-0.47560146 0.27659866 0.12714374
-0.49447677 0.26856157 0.00000039
-0.58592224 -0.38778099 0.00000007
-0.02928478 -0.76464146 0.00000038
-0.14836255 0.40271682 0.00000523
-0.08718292 0.66427702 0.00000308
-0.62621087 -0.12371280 -0.00000055
-0.20717239 -0.62194473 0.00000252
-0.17442556 0.60335082 0.04567686
-0.34948078 0.22802287 0.05530150
-0.61086500 -0.45040712 -0.00000004
-0.21988414 -0.18615112 0.00000347
-0.51091605 -0.61342943 0.00000575
-0.20656531 -0.39894643 0.00000293
-0.37381998 0.28244948 0.00000253
-0.03855256 -0.16243485 0.00000160
-0.42245564 -0.19191125 0.00570168
-0.67069757 -0.37742183 -0.00000057
-0.10440667 -0.56757301 0.00000154
-0.49045980 0.27796540 0.00000034
-0.21755193 -0.26352307 0.00000330
-0.27670893 0.20432387 0.01472935
-0.69522339 -0.36250323 -0.00000078
-0.28660011 -0.33613858 0.00000390
-0.53326368 -0.67910498 0.00000586
-0.12508348 0.10174272 0.00000897
-0.48013750 0.02235445 0.00000385
-0.72373497 -0.14980254 0.16227619
-0.72972721 -0.43870759 -0.00000090
-0.07474490 -0.06175428 0.00000217
-0.14217462 -0.11507496 0.00000279
-0.34021926 -0.53057379 0.00000410
-0.12182612 0.14217854 0.00000856
-0.00477470 0.61987585 0.00000495
-0.68425399 -0.75158089 -0.00000012
-0.10871384 -0.75885892 0.00000123
-0.61991328 -0.57076627 0.02561401
-0.64124697 -0.55040807 -0.00000014
-0.63130015 -0.58153719 0.02901623
-0.65554512 -0.39293000 0.07930508
-0.32251427 -0.40743372 0.00000414
-0.58743566 -0.00444579 0.12489557
-0.28500488 -0.27780545 0.00000399
-0.65067220 0.01029266 0.15896009
-0.62429202 -0.37121388 -0.00000024
-0.24894229 0.38433957 0.00000360
-0.17937712 0.00070501 0.00000929
-0.16202545 0.59146410 0.00000259
-0.58752137 0.16937704 -0.00000011
-0.07845740 0.49980611 0.00000519
-0.00957385 -0.55736744 0.00000056
-0.15209930 0.11255152 0.00000844
-0.31126150 -0.52842152 0.00000380
-0.26819208 0.10458357 0.00000678
-0.55725479 0.07490462 0.12621538
-0.48042554 -0.12517051 0.00000054
-0.63405371 -0.14914255 0.11835379
-0.41932449 -0.16175494 0.01029977
-0.23201174 -0.67107767 0.00000269
-0.41267663 -0.43013263 0.00000505
-0.56522757 0.12855326 0.14104865
-0.45682353 0.16169757 0.09453852
-0.64334148 -0.64291453 0.02244239
-0.25874439 0.10147322 0.00000695
-0.27560738 -0.14449352 0.00000414
-0.29291859 -0.47911632 0.00000370
-0.26481566 0.23235723 0.01459098
-0.60087883 -0.33631614 -0.00000010
-0.31090173 0.05882462 0.00192027
-0.17886809 -0.06909964 0.00000326
-0.60493934 0.01752645 0.00000152
-0.52712691 0.22703563 0.00000030
-0.71846765 -0.65440673 -0.00000036
-0.37031877 0.03997687 0.02727423
-0.62712544 0.06658428 0.00000046
-0.08016836 -0.46396154 0.00000148
-0.36071914 -0.37479755 0.00000461
-0.59379750 -0.07238768 0.11419586
-0.12363809 0.58950013 0.01790869
-0.51157635 0.01283181 0.00000337
-0.17854343 -0.59551471 0.00000227
-0.39007899 0.03108627 0.03517252
-0.77479917 -0.80448872 0.05414411
-0.73459357 0.02266773 -0.00000104
-0.25162619 0.19054632 0.00000606
-0.45021135 -0.57467949 0.00000518
-0.63468647 -0.30838501 0.08626153
-0.77611053 -0.79908389 -0.00000000
-0.70400721 -0.38351065 0.10502918
-0.43892187 -0.18994071 0.01419183
-0.42759895 -0.41942236 0.00000523
-0.57680207 -0.09619995 0.10100132
-0.53346282 -0.16886760 0.00000020
-0.40628475 -0.16215929 0.00381160
-0.09582984 -0.60881233 0.00000137
-0.06692294 0.07667391 0.00001013
-0.62211013 -0.38955536 0.06356653
-0.36416635 -0.30268890 0.00000478
-0.44590023 0.06698306 0.06989958
-0.19593400 -0.26116675 0.00000308
-0.47597885 -0.66292840 0.00000528
-0.34012356 -0.24215625 0.00000464
-0.00483031 0.51103145 0.00000618
-0.03367306 0.34592149 0.00000760
-0.72342652 -0.59748942 0.07102795
-0.50218010 -0.10137644 0.00000035
-0.32829931 -0.16507769 0.00000466
-0.14430963 -0.29644278 0.00000247
-0.62155807 -0.20666878 0.10050960
-0.24347544 0.23142041 0.00391679
-0.50365740 -0.33964223 0.01553205
-0.51522821 -0.11515034 0.00000027
-0.72577971 -0.60058856 0.07155335
-0.08607269 -0.65295708 0.00000118
-0.79383904 -0.67043132 -0.00000032
-0.53604734 0.21465933 0.14423472
-0.16248851 -0.50450391 0.00000227
-0.00600799 -0.71276200 0.00000023
-0.25897253 0.53775311 0.00000142
-0.62267131 -0.33791751 0.07434963
-0.49409175 -0.12379376 0.05475429
-0.69403487 0.01065008 0.18033512
-0.17799003 0.51759291 0.00000324
-0.62147409 -0.70585263 0.00000674
-0.54316980 -0.21361879 0.00000018
-0.09071199 -0.10212538 0.00000227
-0.49066424 0.24772976 0.12866913
-0.11064279 -0.13505059 0.00000242
-0.23024449 0.37641025 0.02691990
-0.28496817 -0.23001245 0.00000408
-0.54421192 -0.26810274 0.05001188
-0.71170020 -0.35182583 -0.00000091
-0.56555349 0.20398076 -0.00000014
-0.06098099 0.14620014 0.00000944
-0.32159460 0.18478702 0.03280442
-0.22174822 0.01926441 0.00000844
-0.18232097 0.45595303 0.01956264
-0.19004142 0.52098054 0.03658736
-0.04099908 0.36854997 0.00000724
-0.07007981 -0.70086408 0.00000093
-0.23715857 0.49409986 0.00000241
-0.13037348 -0.68714935 0.00000159
-0.23178747 -0.30852428 0.00000337
-0.27261773 -0.08842754 0.00000421
-0.20098712 0.11319399 0.00000769
-0.79001850 -0.07019907 -0.00000182
-0.57867718 -0.33719939 0.05288326
-0.67779040 -0.52670348 -0.00000045
-0.37179366 0.22129805 0.06489452
-0.78642803 -0.07242453 -0.00000181
-0.59311897 -0.29726273 -0.00000009
-0.39532313 -0.29410166 0.00000512
-0.74762022 -0.14600237 -0.00000143
-0.06489104 -0.05496979 0.00000208
-0.11949346 -0.19863378 0.00000239
-0.06366588 0.69475567 0.00000314
-0.71444046 -0.70644188 -0.00000023
-0.59857440 0.17475379 -0.00000040
-0.48073587 0.31863600 -0.00000000
-0.04753563 -0.52103794 0.00000103
-0.00226806 0.47165573 0.00000666
-0.48145083 0.18906623 0.11220594
-0.39457628 0.36186290 0.00000110
-0.38539168 0.27922198 0.00000235
-0.31654856 -0.11394964 0.00000463
-0.09840540 -0.40838724 0.00000177
-0.67126775 -0.08866203 -0.00000093
-0.01833454 0.53080630 0.00000575
-0.71927381 -0.41552296 -0.00000089
-0.36294252 0.38406399 0.09366637
-0.26195848 -0.65657651 0.00000304
-0.09273664 0.16228020 0.00000878
-0.01725191 0.16279103 0.00000991
-0.34122744 0.41701221 0.08970305
-0.44066072 -0.66262108 0.00000491
-0.20229250 -0.29063097 0.00000309
-0.28005525 -0.71738404 0.00000311
-0.38137871 -0.45526153 0.00000467
-0.51478863 -0.25080436 0.03907735
-0.47407803 -0.42455781 0.00000571
-0.08446559 0.35899335 0.00000669
-0.63821596 -0.02341288 -0.00000076
-0.45977682 0.25229773 0.11442491
-0.62845248 -0.35697901 0.07331100
-0.04887370 0.06039115 0.00001058
-0.32453358 -0.71554023 0.00000359
-0.70420820 -0.77633977 -0.00000006
-0.45835289 -0.77377170 0.00000489
-0.38651401 -0.01033584 0.02499252
-0.26296881 0.31097701 0.00000428
-0.40102455 0.21899442 0.00000283
-0.06847469 -0.19816704 0.00000185
-0.11489606 -0.61294758 0.00000156
-0.72958499 -0.76440662 0.04008847
-0.11702295 -0.70681435 0.00000141
-0.50366068 -0.79293734 0.00000533
-0.73858690 -0.60866201 -0.00000048
-0.24299100 0.41849616 0.00000328
-0.14757167 0.55194372 0.00000338
-0.24368900 -0.04302102 0.00000399
-0.33846027 0.23639311 0.00000380
-0.28487301 0.48311368 0.00000163
-0.46622419 -0.05048443 0.05598129
-0.04408379 0.55430108 0.00000510
-0.66982681 -0.64188713 0.03566261
-0.38684091 -0.55599779 0.00000454
-0.65854990 0.10719989 -0.00000067
-0.67749524 -0.52512872 0.06318811
-0.38451192 -0.11816174 0.00206826
-0.32412937 0.33440825 0.00000281
-0.10561722 -0.18727246 0.00000226
-0.63939303 -0.19006257 -0.00000057
-0.10013389 0.05381518 0.00000988
-0.10305115 -0.12505163 0.00000235
-0.16336590 -0.77281815 0.00000178
-0.14652997 0.65183544 0.00000209
-0.72541666 -0.09376479 0.17450507
-0.01593583 -0.08275998 0.00000151
-0.71506047 -0.68500662 -0.00000029
-0.26390272 -0.73934644 0.00000290
-0.15274811 0.62729925 0.03990071
-0.16947667 0.44045076 0.01009832
-0.20798126 0.34779090 0.01015935
-0.36547166 -0.02644861 0.01137660
-0.35651505 -0.20509630 0.00000488
-0.76985085 -0.21798424 -0.00000146
-0.27146533 0.36067215 0.04396757
-0.12698863 0.60643584 0.02300080
-0.75629330 -0.04641155 -0.00000162
-0.68939435 -0.43100408 0.08818641
-0.24750921 0.02526141 0.00000798
-0.58651149 -0.26311600 -0.00000008
-0.37591359 -0.21148115 0.00000507
-0.20974436 0.39900938 0.00000417
-0.36838412 -0.20870364 0.00000500
-0.45476362 0.00744826 0.06213949
-0.23091540 0.04233764 0.00000804
-0.72699058 -0.12833448 -0.00000130
-0.71144873 -0.30554897 -0.00000097
-0.43356404 0.27841204 0.00000143
-0.17902888 -0.05809490 0.00000328
-0.14752533 -0.66771758 0.00000181
-0.35486346 0.40339088 0.09363017
-0.22539043 0.46034321 0.04161422
-0.59123898 -0.77096629 0.00000630
-0.60140371 -0.27769992 0.07615499
-0.18140496 0.20469414 0.00000696
-0.49274817 -0.27607408 0.02310782
-0.61164087 -0.33885849 -0.00000018
-0.04605056 -0.04098214 0.00000191
-0.02963048 -0.21446037 0.00000141
-0.34703732 -0.75870210 0.00000374
-0.66193807 -0.00907248 -0.00000096
-0.18515386 -0.54790533 0.00000243
-0.03090525 -0.53889054 0.00000082
-0.31565267 -0.21106267 0.00000444
-0.50216264 -0.72322208 0.00000545
-0.30354288 -0.51970422 0.00000373
-0.79393476 -0.39538860 -0.00000101
-0.61443782 -0.03175211 -0.00000058
-0.58442777 -0.01774738 -0.00000037
-0.64774072 -0.62808466 0.02762118
-0.36650413 0.10577771 0.00000495
-0.34647119 -0.25617003 0.00000468
-0.64510661 -0.06220558 -0.00000077
-0.13703996 0.14913614 0.00000825
-0.62717843 -0.45407930 0.05292688
-0.35937044 0.13416938 0.00000472
-0.68740517 -0.54826784 -0.00000049
-0.07514816 -0.30556321 0.00000172
-0.73482484 0.06168970 -0.00000159
-0.55231655 0.06415429 0.00000193
-0.05422475 0.59765571 0.00000446
-0.58903211 -0.42658240 0.00000010
-0.64448375 -0.10852891 -0.00000071
-0.76924664 -0.54130560 -0.00000065
-0.62050933 0.08123387 0.15857764
-0.69457531 -0.00210539 0.17800508
-0.24900065 -0.63521028 0.00000294
-0.13660280 0.09544777 0.00000887
-0.70609909 -0.06424057 -0.00000122
-0.18646906 -0.21325824 0.00000307
-0.24241503 0.12753540 0.00000691
-0.46840724 -0.27858260 0.01063969
-0.73520964 -0.32077566 0.13312307
-0.18253118 -0.28680977 0.00000289
-0.36356047 -0.62631917 0.00000417
-0.38309649 -0.17601492 0.00000522
-0.14740933 0.55189979 0.02193550
-0.66034657 -0.06200409 0.14900157
-0.22205535 0.16044758 0.00000684
-0.03813354 0.01283580 0.00001128
-0.59420705 -0.25944814 0.07633348
-0.55768579 -0.21878435 0.00000008
-0.11416744 -0.58196849 0.00000161
-0.17243697 0.61848521 0.00000204
-0.54865438 -0.54510254 0.00000627
-0.19256432 0.47696865 0.00000349
-0.45960021 -0.26716730 0.00863597
-0.40269843 0.00548738 0.03616300
-0.46495327 0.09479404 0.00000321
-0.77869189 -0.03411277 -0.00000180
-0.44934046 0.13197079 0.08481350
-0.53528041 0.10043827 0.12061594
-0.20631564 0.48214093 0.00000316
-0.36292934 0.25836679 0.06808269
-0.17301466 0.27870896 0.00000625
-0.57332629 0.03725181 0.00000187
-0.68416309 -0.28724143 -0.00000078
-0.68807811 0.01517826 -0.00000005
-0.37033010 -0.47472414 0.00000452
-0.57576293 -0.50715405 0.01686875
-0.48102149 0.01818988 0.00000389
-0.26630133 -0.21027195 0.00000392
-0.39481783 -0.25589845 0.00000519
-0.41129428 0.37483093 0.00000061
-0.57831305 -0.69402057 0.00000631
-0.33362600 -0.08386353 0.00000487
-0.31370008 -0.70966268 0.00000348
-0.47085753 -0.35894084 0.00000580
-0.30773380 -0.27342436 0.00000424
-0.50712776 0.07289909 0.10118194
-0.42882898 0.25479499 0.00000183
-0.50738275 0.12505046 0.00000200
-0.35902277 -0.59225512 0.00000418
-0.56004554 -0.54568118 0.00130784
-0.54377860 0.18431179 0.00000053
-0.04331344 0.19410510 0.00000916
-0.70597285 -0.54948336 -0.00000063
-0.59100741 -0.03675269 -0.00000039
-0.12767901 -0.08216447 0.00000269
-0.04749354 -0.04540272 0.00000192
-0.76806384 -0.71415585 0.06921658
-0.44017696 0.16319095 0.08666462
-0.04210109 0.74804461 0.00000286
-0.19188771 0.10239650 0.00000795
-0.06842704 0.63412780 0.00000383
-0.18577822 -0.26476365 0.00000297
-0.08403367 -0.73656511 0.00000101
-0.31501797 -0.59362626 0.00000371
-0.44090337 0.08672790 0.07146256
-0.35028496 -0.38800946 0.00000447
-0.18918426 0.58005822 0.00000222
-0.15594438 0.57119882 0.03005544
-0.49024445 -0.59899753 0.00000555
-0.04221354 0.18234546 0.00000931
-0.17988224 -0.67000192 0.00000214
-0.22384726 0.47832695 0.04451550
-0.72714722 -0.44266838 -0.00000089
-0.62732476 -0.26833236 -0.00000038
-0.56072193 -0.29890051 0.00000015
-0.62531686 -0.21443555 -0.00000043
-0.35207349 0.20895527 0.05269527
-0.08335208 -0.09834413 0.00000220
-0.06805825 -0.69719899 0.00000091
-0.37838587 -0.34041497 0.00000486
-0.71069920 0.08620716 -0.00000140
-0.67752695 -0.04716193 0.16046169
-0.19247901 0.03067474 0.00000875
-0.72947562 -0.38715643 -0.00000100
-0.20122321 0.47289324 0.00000337
-0.01309469 0.78491193 0.00000294
-0.17094968 -0.23467898 0.00000287
-0.53237337 -0.06821759 0.00000008
-0.74412560 -0.26312831 0.14923336
-0.59121233 -0.06765454 0.11388900
-0.19168501 0.46998432 0.02701792
-0.12286219 0.59106582 0.00000335
-0.73008960 0.05378349 -0.00000135
-0.08201559 0.25914618 0.00000785
-0.19236486 -0.00367022 0.00000352
-0.26046488 0.40525082 0.04763449
-0.56619990 -0.06183682 0.10278522
-0.59583199 -0.04629050 -0.00000042
-0.47501737 -0.56663388 0.00000545
-0.29723507 -0.77663946 0.00000318
-0.03332929 0.67753381 0.00000387
-0.44205403 -0.48997474 0.00000525
-0.54062849 -0.59422684 0.00000610
-0.05741413 0.27729443 0.00000801
-0.07235130 0.41086146 0.00000629
-0.07035219 0.72498786 0.00000257
-0.22493991 -0.11298987 0.00000366
-0.18555991 0.48039094 0.02612648
-0.69422472 -0.06673672 -0.00000113
-0.31877437 -0.10717756 0.00000467
-0.06753812 -0.14877482 0.00000193
-0.11374014 -0.72614443 0.00000134
-0.26919493 0.25024721 0.02038264
-0.46251410 -0.54821348 0.00000536
-0.71063364 -0.72600526 -0.00000018
-0.03968628 -0.37504014 0.00000122
-0.05415853 0.17488608 0.00000922
-0.75720608 -0.18421230 0.17171730
-0.58517158 -0.61461610 0.00000653
-0.22201341 -0.02269863 0.00000380
-0.32900345 0.15712093 0.03081451
-0.65070534 -0.11915564 0.13263586
-0.54870588 -0.77471793 0.00000584
-0.70094126 0.04025630 -0.00000062
-0.63185650 0.14577544 -0.00000066
-0.25534809 -0.69884604 0.00000289
-0.67765719 -0.64594704 0.03868322
-0.34678778 -0.17612448 0.00000483
-0.46629140 -0.06589599 0.00000057
-0.31192335 0.41488460 0.00000200
-0.36473113 -0.65858889 0.00000412
-0.03428537 -0.72325313 0.00000051
-0.71547163 -0.48126617 0.09076956
-0.18097584 0.39433375 0.00636337
-0.51484829 -0.16486239 0.00000033
-0.05081107 -0.09206407 0.00000186
-0.25426939 -0.26767606 0.00000368
-0.49574015 -0.79876322 0.00000524
-0.41943216 0.08966270 0.00000415
-0.26917389 -0.42766085 0.00000354
-0.60514963 -0.35771817 -0.00000011
-0.30785212 0.43908823 0.00000176
-0.68796039 -0.62821770 0.04735236
-0.63853288 -0.34724572 0.08024363
-0.11100386 0.16802531 0.00000843
-0.31548157 0.21688251 0.00000450
-0.21732239 -0.32021505 0.00000320
-0.00200832 -0.21617100 0.00000109
-0.28201944 0.02441597 0.00000747
-0.63011897 -0.06437678 -0.00000065
-0.38616037 -0.30436364 0.00000501
-0.74444783 -0.50164831 -0.00000075
-0.59429884 -0.76020616 0.00000635
-0.75112349 -0.72457576 0.05877427
-0.16881357 0.45844176 0.01343342
-0.00178367 -0.39730242 0.00000077
-0.03250044 0.59782755 0.00000478
-0.14018069 -0.40201038 0.00000223
-0.34087226 -0.69544560 0.00000380
-0.54517174 0.11006740 0.12743451
-0.06364848 0.56417495 0.00000469
-0.06668660 -0.46007991 0.00000134
-0.61030126 -0.47166932 -0.00000001
-0.42761207 0.27870414 0.00000154
-0.44317344 -0.20263825 0.01369673
-0.30229136 0.21783300 0.03004582
-0.48055720 0.17266151 0.10842887
-0.10312836 -0.47696990 0.00000169
-0.42517412 0.21709631 0.09026316
-0.02812949 0.53751028 0.00000553
-0.32327944 -0.04703067 0.00000483
-0.76269025 -0.21874294 -0.00000145
-0.56340855 -0.22357388 0.00000004
-0.68640953 -0.63458657 0.04529454
-0.70359474 -0.23367855 -0.00000100
-0.48970717 0.08090105 0.00000291
-0.08940118 0.24516171 0.00000789
-0.31319195 0.37870434 0.06813537
-0.07532686 -0.09939214 0.00000211
-0.74999768 -0.12757190 0.17970149
-0.20289946 0.51750606 0.04219699
-0.24498457 0.09861649 0.00000719
-0.51247245 0.20299289 0.00000089
-0.29060391 0.48147070 0.00000155
-0.46689534 0.10308272 0.08755927
-0.69475305 -0.58026433 0.06044700
-0.55271828 -0.76927328 0.00000590
-0.61747807 -0.05954976 0.12844145
-0.39071012 -0.44507816 0.00000479
-0.08772245 -0.51017290 0.00000147
-0.57117629 -0.06504458 -0.00000021
-0.03267772 0.58121747 0.00000497
-0.44886413 0.29752883 0.11826771
-0.16837721 -0.75948137 0.00000185
-0.49127132 0.08999246 0.00000276
-0.09181785 -0.12583826 0.00000223
-0.65324295 -0.05634237 0.14666392
-0.67184556 -0.24945527 0.11650746
-0.31599194 -0.67084014 0.00000358
-0.13359787 -0.66639972 0.00000166
-0.17973331 0.40303612 0.00752374
-0.18913789 0.56026375 0.04413694
-0.11192113 -0.65687436 0.00000145
-0.04865392 -0.23062184 0.00000158
-0.25630984 0.19929577 0.00368499
-0.11637588 -0.16176371 0.00000243
-0.51853460 0.00460229 0.09288843
-0.37514693 -0.38283059 0.00000474
-0.08546994 0.51398867 0.00000493
-0.59843791 -0.19667958 -0.00000025
-0.15292758 0.10321755 0.00000853
-0.37778449 -0.58963066 0.00000438
-0.75774139 -0.20595314 -0.00000143
-0.23203592 0.15634044 0.00000674
-0.18239398 0.36410928 0.00090989
-0.23013076 0.21243344 0.00000614
-0.79706270 -0.05758616 -0.00000186
-0.76625556 -0.67315173 -0.00000032
-0.76067811 -0.29354411 0.15117575
-0.14276849 -0.49271989 0.00000208
-0.55410182 -0.29284230 0.04983630
-0.60511559 -0.29228246 0.07501118
-0.21753962 -0.66910249 0.00000254
-0.25030348 -0.56899726 0.00000308
-0.03260870 0.42030808 0.00000678
-0.16134319 -0.33403945 0.00000258
-0.17696451 -0.05541885 0.00000327
-0.79820853 -0.61849654 -0.00000045
-0.62579203 -0.34745404 0.07394219
-0.21913791 0.27432597 0.00069131
-0.07423365 -0.67869943 0.00000101
-0.67573094 0.09598705 -0.00000086
-0.14561933 0.60625911 0.00000271
-0.19186582 -0.38969475 0.00000280
-0.59857702 -0.01224998 0.12878083
-0.53209645 0.10761389 0.00000175
-0.64938283 -0.73233873 0.00721398
-0.75463450 -0.27509823 0.15196022
-0.61058486 0.13065989 0.16375948
-0.75810224 -0.38083085 0.13214894
-0.45668557 0.08143795 0.07813929
-0.14580815 -0.07493855 0.00000290
-0.35411659 0.27422869 0.06698097
-0.24469423 0.13490228 0.00000679
-0.68119210 0.10248571 -0.00000105
-0.51638675 0.16481704 0.12443423
-0.21273232 -0.08001178 0.00000360
-0.28068006 0.10663581 0.00000657
-0.02419848 -0.68714231 0.00000047
-0.35360256 0.17676950 0.00000428
-0.34215274 0.15342946 0.00000481
-0.65531749 -0.11894551 0.13494438
-0.18448076 -0.05851800 0.00000334
-0.43021333 0.23436101 0.09625178
-0.00159629 -0.46157005 0.00000063
-0.24576114 -0.27354020 0.00000358
-0.28654099 0.39387134 0.00000276
-0.30122286 -0.04117429 0.00000460
-0.44745439 -0.60724300 0.00000509
-0.44250342 -0.46501711 0.00000530
-0.16971372 -0.18351723 0.00000295
-0.62447089 -0.70073569 0.00140645
-0.03830694 0.48864394 0.00000592
-0.60393912 0.17269407 -0.00000047
-0.51707321 0.06921129 0.10531733
-0.47681937 0.11337519 0.00000274
-0.19305412 0.54701501 0.00000257
-0.12329537 0.65463567 0.03099429
-0.67502147 -0.05420727 -0.00000100
-0.30018330 0.29605076 0.00000376
-0.18070348 -0.40109560 0.00000266
-0.22236744 -0.54958659 0.00000282
-0.37107155 0.17450763 0.05501872
-0.18016852 -0.35770434 0.00000273
-0.34918168 -0.01709882 0.00527653
-0.26523608 0.40862405 0.00000298
-0.17402466 0.33755299 0.00000558
-0.22154139 0.52239233 0.05234927
-0.31406102 0.47924364 0.00000112
-0.48340201 -0.05141989 0.00000043
-0.26213986 0.50125194 0.00000184
-0.63044381 -0.08880287 -0.00000063
-0.17195676 -0.05513381 0.00000321
-0.20028280 0.45180905 0.00000366
-0.29522789 0.02237129 0.00000729
-0.16641472 0.48756373 0.01818078
-0.40819725 0.32565320 0.00000131
-0.67344189 0.04744177 -0.00000018
-0.10801606 -0.32847923 0.00000202
-0.37654871 -0.45476350 0.00000462
-0.32839185 -0.32108662 0.00000437
-0.55665451 -0.46085292 0.01690307
-0.31311598 0.06293792 0.00384503
-0.01355221 -0.16232502 0.00000134
-0.08404202 0.67969042 0.00000294
-0.65540296 0.10744435 -0.00000061
-0.26139602 0.44900718 0.05699558
-0.08508381 0.66370690 0.00000313
-0.33507249 -0.16410252 0.00000473
-0.39725456 0.34128302 0.10181728
-0.47407982 0.16443798 0.00000213
-0.57360154 0.05848639 0.00000159
-0.54875046 -0.77721947 0.00000584
-0.36038804 0.42681184 0.00000091
-0.60694194 -0.27643079 0.07913393
-0.35989290 0.28007919 0.07100911
-0.67046553 0.02487864 0.17165174
-0.74111176 -0.34751695 0.13058113
-0.68427092 -0.33755231 0.10468529
-0.64614701 -0.02641636 -0.00000082
-0.19467582 -0.74498492 0.00000216
-0.22966556 -0.76084733 0.00000250
-0.75932336 -0.80390787 0.04665975
-0.76416820 -0.36148351 -0.00000110
-0.48507401 0.05589453 0.00000332
-0.72538334 -0.52663600 -0.00000068
-0.04634512 -0.55634278 0.00000095
-0.41123682 0.16170323 0.00000337
-0.20176890 -0.76369590 0.00000220
-0.28788698 -0.33054811 0.00000392
-0.49589550 -0.08700789 0.00000038
-0.30928954 -0.38514662 0.00000404
-0.01425607 0.71259159 0.00000377
-0.69015753 -0.11499620 -0.00000104
-0.61298394 -0.40785226 0.05536011
-0.28428176 -0.35909897 0.00000383
-0.54179984 0.09818955 0.00000169
-0.56212854 -0.07959028 -0.00000013
-0.05739400 -0.27545622 0.00000159
-0.22751810 -0.73933029 0.00000252
-0.37315500 -0.06425388 0.00745838
-0.01320556 -0.28151131 0.00000111
-0.59419733 -0.34733343 0.05844556
-0.76770431 -0.66384172 -0.00000034
-0.79416233 -0.30157596 -0.00000125
-0.60972893 0.17706928 -0.00000064
-0.24413297 0.32150185 0.00000451
-0.45991513 -0.02323752 0.00000057
-0.23496147 -0.65907431 0.00000275
-0.23301946 -0.05207509 0.00000386
-0.68519932 -0.59030503 0.05371056
-0.03090933 -0.47879139 0.00000093
-0.50274932 -0.48187050 0.00000591
-0.61010045 0.03791494 0.14464951
-0.37539619 0.23374853 0.06919775
-0.77022040 -0.06158272 -0.00000170
-0.58833492 -0.15905376 0.09387726
-0.11166958 -0.77680129 0.00000122
-0.70814651 -0.77469975 0.02746225
-0.49303573 -0.11648978 0.05572174
-0.18514472 -0.45640525 0.00000260
-0.56211019 0.11165748 0.00000112
-0.04387325 -0.77522004 0.00000051
-0.64793921 -0.48287433 0.05726649
-0.30556113 -0.52792400 0.00000374
-0.07372625 0.00287917 0.00001086
-0.72774655 -0.56089789 -0.00000060
-0.12705392 0.17146465 0.00000815
-0.48480353 0.06802952 0.00000317
-0.07567094 0.10982269 0.00000962
-0.29616213 0.11770697 0.00666086
-0.71034878 -0.56325668 -0.00000059
-0.05834260 -0.00780163 0.00000210
-0.50434500 0.06514721 0.00000283
-0.08833830 0.27152830 0.00000761
-0.21145312 0.45654780 0.00000339
-0.16197097 -0.12927724 0.00000297
-0.20377420 0.40309182 0.00000423
-0.69814593 -0.28785598 0.12161387
-0.39356378 -0.77622306 0.00000420
-0.34590298 0.30683482 0.06958075
-0.73263693 -0.71741158 -0.00000021
-0.03483834 0.26345313 0.00000851
-0.41195515 -0.01715005 0.03610412
-0.56108963 0.04593489 0.00000199
-0.51043832 -0.15417732 0.05660215
-0.55403298 0.00928194 0.11127957
-0.31037611 0.34394136 0.05967841
-0.63709581 -0.50253308 -0.00000017
-0.35478044 0.33038831 0.07873461
-0.52152699 -0.05998507 0.00000015
-0.24290365 0.39094260 0.03609591
-0.12972715 0.37541953 0.00000582
-0.43431976 0.26258969 0.10401316
-0.47895452 -0.05075862 0.00000046
-0.73240620 -0.29135758 0.13773195
-0.31266928 0.33994144 0.00000296
-0.49463010 -0.29454309 0.02027421
-0.69787973 -0.06749867 0.16632201
-0.16288570 0.20036086 0.00000729
-0.47433251 -0.19937214 0.02966849
-0.09516498 0.52789736 0.00000463
-0.41821265 -0.47370565 0.00000503
-0.46421182 0.33306530 0.00000010
-0.08502158 -0.03182742 0.00000234
-0.12560242 0.27233842 0.00000704
-0.13564947 0.26725799 0.00000695
-0.37036732 0.05012169 0.02936237
-0.01198043 -0.32033089 0.00000103
-0.07702975 0.60218400 0.00000406
-0.28231555 -0.68775636 0.00000319
-0.56172305 -0.00220501 -0.00000022
-0.00886107 -0.22019030 0.00000118
-0.29251742 0.45186925 0.07286664
-0.41326901 -0.75034595 0.00000446
-0.02248830 -0.49892825 0.00000080
-0.08182377 0.67728096 0.00000302
-0.12330724 -0.47678235 0.00000191
-0.25282177 -0.23680218 0.00000373
-0.68850702 -0.05150678 0.16497166
-0.14719509 -0.74621773 0.00000166
-0.44731292 -0.61200112 0.00000508
-0.37254027 -0.53128356 0.00000444
-0.27542222 -0.18502156 0.00000406
-0.28439656 0.36925480 0.00000312
-0.20337248 -0.35557172 0.00000298
-0.59633470 -0.28052580 -0.00000014
-0.09457650 0.59995115 0.00575854
-0.54999155 -0.18225376 0.07031994
-0.20186388 -0.63427675 0.00000244
-0.21196704 -0.40895826 0.00000297
-0.55632710 -0.64389890 0.00000617
-0.45789087 -0.52894914 0.00000534
-0.74881166 -0.15114643 0.17432185
-0.32054329 -0.19820870 0.00000451
-0.55968040 -0.09330487 0.09317926
-0.20526318 0.08508015 0.00000795
-0.63242644 -0.54479253 -0.00000008
-0.69166857 -0.56502736 -0.00000050
-0.01742979 -0.71940577 0.00000034
-0.11963896 0.28052339 0.00000704
-0.19757694 -0.18973029 0.00000323
-0.78506327 -0.40008742 -0.00000100
-0.26722020 -0.20808965 0.00000393
-0.18410315 -0.36181140 0.00000277
-0.35358647 0.18626004 0.00000416
-0.01239283 -0.15495892 0.00000134
-0.55927330 -0.55922812 0.00000636
-0.42839435 -0.00286429 0.00000078
-0.06136507 -0.72044641 0.00000080
-0.13789703 0.60714626 0.00000285
-0.07005958 0.69461149 0.01297613
-0.16578534 0.06866952 0.00000873
-0.26980948 -0.65176785 0.00000313
-0.21028605 0.47263193 0.03669460
-0.42132136 0.22596587 0.00000235
-0.36770999 0.33404702 0.08583086
-0.03560174 0.76124746 0.00960768
-0.49537918 -0.38320994 0.00260002
-0.35597911 -0.78929520 0.00000378
-0.18005449 -0.02991513 0.00000335
-0.66746628 -0.22773901 -0.00000073
-0.45681214 -0.69671965 0.00000502
-0.67099732 -0.49227014 0.06668210
-0.37336218 -0.63187206 0.00000426
-0.19041237 0.54120940 0.00000270
-0.44000629 -0.56401271 0.00000509
-0.58291239 -0.69742566 0.00000635
-0.72043484 -0.70697981 0.04727881
-0.19657604 -0.06383858 0.00000346
-0.09241564 -0.05002230 0.00000238
-0.09098821 -0.13958447 0.00000220
-0.50521481 -0.58476138 0.00000574
-0.13619518 0.56856436 0.00000338
-0.23074748 0.00729296 0.00000844
-0.54341972 -0.68386245 0.00000596
-0.57481557 -0.21152601 -0.00000006
-0.06598741 0.68961477 0.00995889
-0.73008823 -0.38380492 0.11778177
-0.13996798 0.10906905 0.00000866
-0.48693725 0.03753087 0.00000353
-0.17289737 -0.76795399 0.00000189
-0.55385542 -0.02151523 -0.00000014
-0.01801904 -0.09991450 0.00000150
-0.36936069 -0.61400777 0.00000425
-0.42888740 0.36780214 0.00000032
-0.49901900 0.05048938 0.09263846
-0.30368868 0.40588486 0.00000227
-0.42402345 -0.44552633 0.00000514
-0.55290383 -0.78041762 0.00000588
-0.01495074 -0.35925615 0.00000098
-0.56767029 -0.74069291 0.00000611
-0.27932638 0.29109746 0.00000423
-0.16268574 -0.77960521 0.00000176
-0.43493104 -0.27257234 0.00000558
-0.79949039 -0.69952041 -0.00000025
-0.06394784 0.05109193 0.00001046
-0.42990673 -0.26659384 0.00000554
-0.49011460 0.14246258 0.10697906
-0.56319255 -0.24787207 0.00000007
-0.72129560 -0.21909149 -0.00000115
-0.71624649 -0.51478136 -0.00000071
-0.14696614 0.19158702 0.00000763
-0.21539982 -0.44427234 0.00000294
-0.18621829 -0.11730186 0.00000325
-0.30690512 0.03176757 0.00000701
-0.17018178 0.49797690 0.02215029
-0.41181654 -0.68279421 0.00000457
-0.66546541 -0.64748031 -0.00000021
-0.67721879 -0.27161810 0.11463735
-0.11002124 0.01004080 0.00001023
-0.20640378 0.53008211 0.00000253
-0.17144766 -0.67994672 0.00000204
-0.59762460 -0.79176736 0.00000633
-0.75998932 -0.18711425 -0.00000147
-0.72798032 -0.30366269 -0.00000109
-0.56327170 -0.27447677 0.05807815
-0.26059139 0.44539142 0.00000259
-0.68326879 -0.50089693 0.07095517
-0.11107135 0.66319412 0.02673062
-0.52051258 -0.77690035 0.00000554
-0.45387945 -0.18996555 0.02153482
-0.00911534 0.53570205 0.00000584
-0.34375331 -0.40706435 0.00000437
-0.42246702 0.07395822 0.00000429
-0.23978086 -0.36558959 0.00000335
-0.57122833 0.10499655 0.00000103
-0.36152214 0.06669385 0.02838924
-0.65665078 0.10467921 -0.00000060
-0.51496536 0.27124947 -0.00000004
-0.03000297 0.47387406 0.00000622
-0.40015623 0.28643522 0.09208217
-0.31995323 -0.33261308 0.00000426
-0.17177880 -0.08984256 0.00000315
-0.48958170 -0.03674362 0.00000036
-0.60438681 -0.14353240 -0.00000036
-0.30816665 0.14947030 0.01902148
-0.00333503 -0.73804110 0.00000012
-0.48390010 -0.63140208 0.00000543
-0.53888446 -0.10176581 0.00000007
-0.14443378 0.63794225 0.03798190
-0.16092844 -0.07858748 0.00000305
-0.30184478 -0.55096883 0.00000366
-0.02614379 -0.53650123 0.00000077
-0.10912230 0.27067608 0.00000731
-0.05542616 0.41800529 0.00000646
-0.23354398 -0.40296730 0.00000321
-0.57360750 -0.64261508 0.00000635
-0.31269890 -0.25202617 0.00000433
-0.12421511 0.20374541 0.00000783
-0.35272896 -0.34783882 0.00000457
-0.54812396 -0.09083636 0.08800434
-0.20821987 0.56343800 0.05415704
-0.57794762 -0.23812068 -0.00000005
-0.10631716 0.27799708 0.00000727
-0.31729257 -0.24101377 0.00000440
-0.16517186 -0.35574719 0.00000258
-0.48736784 0.03006988 0.00000361
-0.31486431 0.31140414 0.05526251
-0.10178159 0.08242738 0.00000954
-0.39081016 -0.24966888 0.00000516
-0.40829623 0.22968888 0.08453412
-0.21819662 0.01698223 0.00000852
-0.43713483 0.17420273 0.00000271
-0.52990693 -0.69156510 0.00000580
-0.37204793 0.38115302 0.00000128
-0.43893155 -0.17310853 0.01762165
-0.36380801 -0.46948576 0.00000446
-0.55856425 -0.28025576 0.05458965
-0.44144639 0.08873519 0.00000374
-0.30305219 0.13268735 0.01309391
-0.23770037 -0.73945284 0.00000262
-0.28829262 0.41242418 0.06276477
-0.40580532 -0.19356991 0.00000542
-0.25892836 0.52766353 0.00000156
-0.25517049 0.39238697 0.00000338
-0.28020343 0.40354148 0.00000275
-0.13002506 0.61971521 0.00000284
-0.23023082 -0.02751132 0.00000388
-0.16954681 0.58026600 0.00000259
-0.10506415 -0.73219293 0.00000124
-0.22427016 0.48731855 0.00000274
-0.18856972 0.50841641 0.03330779
-0.64458507 0.12270067 -0.00000060
-0.10821931 0.20096873 0.00000811
-0.43664628 0.09474276 0.07100211
-0.69017774 -0.67443198 -0.00000031
-0.00213842 0.71548170 0.00000392
-0.29008949 -0.57494450 0.00000349
-0.20540579 -0.09243010 0.00000350
-0.40724537 0.12185975 0.06207649
-0.58203506 -0.46183276 0.02917211
-0.15383904 0.61763924 0.03847099
-0.45839265 -0.07164176 0.04782883
-0.55207789 -0.38358256 0.03037794
-0.07607044 -0.15302356 0.00000202
-0.42391720 0.27650920 0.10173518
-0.28916219 -0.46747145 0.00000368
-0.62122345 -0.15222314 -0.00000048
-0.44000566 -0.68487489 0.00000486
-0.39382404 0.03910864 0.00000529
-0.43636259 -0.18859047 0.01320931
-0.17301299 0.37094900 0.00000522
-0.62212151 -0.71409249 0.00000673
-0.16124988 -0.35339448 0.00000254
-0.04591627 0.69084907 0.00034993
-0.67798072 0.01372358 0.17307378
-0.51202226 0.06141166 0.10124893
-0.33321479 0.22291070 0.04627046
-0.09476360 0.04405273 0.00001007
-0.79974836 -0.36730301 -0.00000108
-0.58386987 -0.19145910 -0.00000015
-0.04134540 0.34218422 0.00000753
-0.01517177 0.26302758 0.00000881
-0.32778749 -0.33680201 0.00000433
-0.36184397 -0.03902972 0.00703443
-0.44314963 0.29882517 0.11572419
-0.33044663 -0.64520812 0.00000378
-0.69557160 -0.15360010 -0.00000103
-0.16319509 -0.27072769 0.00000272
-0.63440269 -0.05456382 0.13777037
-0.30186990 -0.73937732 0.00000330
-0.57719952 -0.26499218 -0.00000001
-0.19438377 -0.34220302 0.00000291
-0.25401947 -0.23771201 0.00000374
-0.47897112 0.05735425 0.08418665
-0.17887281 -0.06038679 0.00000328
-0.58935237 -0.73536032 0.00000635
-0.64248663 0.00814097 0.15450104
-0.19394048 -0.70859158 0.00000222
-0.20809568 -0.15838116 0.00000340
-0.10093965 -0.18988623 0.00000221
-0.35281658 -0.17824253 0.00000489
-0.33738601 0.18036605 0.00000455
-0.04068507 -0.26078808 0.00000144
-0.70572042 -0.48833230 -0.00000070
-0.08079684 0.38999528 0.00000639
-0.44039002 -0.53751451 0.00000514
-0.60192865 -0.25856620 0.08030625
-0.23545648 0.28424346 0.01072599
-0.34084314 0.13995467 0.00000500
-0.29259107 0.21954058 0.02562793
-0.45551649 -0.65283084 0.00000509
-0.08378945 0.14787142 0.00000907
-0.36395323 0.14464746 0.00000450
-0.46957159 0.28669205 0.12623534
-0.37395105 0.12801883 0.00000452
-0.13185546 -0.11939649 0.00000267
-0.34499806 -0.16688313 0.00000483
-0.45077914 -0.71902239 0.00000491
-0.79844272 -0.51740873 -0.00000071
-0.04239911 -0.74138981 0.00000056
-0.23924048 -0.46611553 0.00000315
-0.70374393 -0.37533924 0.10656259
-0.68392909 -0.30097514 -0.00000077
-0.48280555 -0.02243540 0.06983453
-0.68149197 -0.25964001 -0.00000080
-0.61074555 -0.11276418 -0.00000045
-0.02315842 0.65753627 0.00000425
-0.28320470 0.13771001 0.00436568
-0.73080885 -0.16617604 0.16241959
-0.76056325 -0.00062968 -0.00000170
-0.57778901 0.01594775 0.12430629
-0.42271680 -0.17677034 0.00891090
-0.24181212 -0.77142876 0.00000261
-0.14738965 -0.55569232 0.00000201
-0.71665400 -0.52014858 0.08343849
-0.03284089 0.22520655 0.00000897
-0.42429516 0.16770341 0.00000304
-0.35185164 0.14488702 0.00000473
-0.52236712 -0.15108283 0.00000026
-0.17398693 -0.27736831 0.00000282
-0.02813432 0.76729387 0.00716959
-0.68323892 -0.17419820 -0.00000092
-0.36996585 -0.48028320 0.00000451
-0.39839959 -0.20818549 0.00000532
-0.10665570 0.41463053 0.00000573
-0.35113069 -0.49661085 0.00000428
-0.48631823 -0.29460695 0.01617794
-0.72164476 0.05341569 -0.00000119
-0.48395902 -0.77522302 0.00000516
-0.12772758 0.50736970 0.00320557
-0.75390953 -0.79995680 -0.00000000
-0.66273087 -0.23874079 -0.00000068
-0.65533221 0.00884642 0.00000066
-0.35431778 0.11125044 0.00000512
-0.45441461 0.00338468 0.06114117
-0.13251305 -0.27724436 0.00000238
-0.64460784 -0.08457638 -0.00000074
-0.21012071 -0.38653955 0.00000299
-0.35169080 0.34112984 0.00000219
-0.13938810 0.65919024 0.00000215
-0.03941839 0.38504982 0.00000707
-0.69130135 -0.13538928 -0.00000102
-0.64547145 -0.50551659 -0.00000023
-0.13242678 0.19411415 0.00000782
-0.18145658 -0.40892780 0.00000265
-0.24361032 0.19470803 0.00000613
-0.30487606 0.39269841 0.06689767
-0.71056086 -0.02010498 0.18219551
-0.09505262 -0.69726717 0.00000120
-0.07866142 -0.46680909 0.00000146
-0.29549596 -0.16147158 0.00000432
-0.38968855 -0.33677959 0.00000498
-0.51860279 0.08581510 0.10944735
-0.63733536 -0.52952421 -0.00000014
-0.40676883 -0.49171177 0.00000487
-0.49864501 0.28766695 0.00000006
-0.11008033 -0.33320603 0.00000204
-0.65233541 -0.46924505 0.06219950
-0.52188993 -0.66156656 0.00000577
-0.08170572 0.65518272 0.01067432
-0.72470254 -0.39966470 0.11190881
-0.37487262 -0.23951708 0.00000501
-0.20001067 0.49117443 0.03541981
-0.56357431 -0.15563703 -0.00000004
-0.26115677 0.40855199 0.04864612
-0.52776629 -0.62205422 0.00000591
-0.11272678 0.05900962 0.00000964
-0.70635903 -0.53037977 0.07629916
-0.59141076 -0.22642645 -0.00000017
-0.69731939 -0.69724739 0.03790362
-0.55707330 -0.61863732 0.00000622
-0.77554810 -0.39722595 -0.00000101
-0.71345532 -0.01784467 0.18407738
-0.03490042 0.40106851 0.00000696
-0.03300003 -0.15094326 0.00000157
-0.02396399 0.46453643 0.00000641
-0.73710191 -0.14158019 0.17051592
-0.73143107 -0.06976256 0.18234374
-0.45399210 -0.35604236 0.00000563
-0.47659829 -0.05817623 0.05951251
-0.72134793 -0.22115649 -0.00000114
-0.49865273 0.21580765 0.00000099
-0.41714945 -0.09666971 0.02247498
-0.61581099 -0.23012157 0.09291406
-0.26736945 0.47051740 0.00000213
-0.59333348 0.19299501 -0.00000053
-0.00526284 0.04351219 0.00001143
-0.26674151 0.28235886 0.02571155
-0.00276155 -0.71318460 0.00000019
-0.16415396 0.58344483 0.03658033
-0.06190714 -0.02527258 0.00000211
-0.39967027 0.20095132 0.07444894
-0.58431274 -0.09744835 -0.00000027
-0.35013106 -0.34514651 0.00000455
-0.29154921 -0.07742565 0.00000443
-0.16166347 -0.06651471 0.00000308
-0.53524369 -0.10939885 0.00000011
-0.23979965 -0.27885237 0.00000351
-0.69875818 -0.12138248 -0.00000110
-0.17419171 -0.23321606 0.00000290
-0.28427646 -0.22241391 0.00000409
-0.61139852 -0.58164006 0.01921844
-0.38978022 0.05058250 0.00000522
-0.14049567 -0.76897115 0.00000154
-0.56435424 -0.25816596 0.00000007
-0.57726407 0.01682958 0.12422786
-0.41452250 0.29973614 0.00000152
-0.69591147 -0.76225704 0.02398361
-0.57468492 -0.31638747 0.05515688
-0.73240244 -0.26419398 -0.00000117
-0.04704960 -0.62972039 0.00000082
-0.45305467 0.03224073 0.06634480
-0.19808406 0.55776489 0.00000233
-0.68636322 0.00766817 0.17595957
-0.23400772 -0.70204681 0.00000266
-0.46310255 0.03923849 0.00000396
-0.60789585 0.11424190 0.00000021
-0.52130032 0.15334852 0.00000137
-0.64546973 -0.33170143 -0.00000044
-0.33034259 -0.23246419 0.00000455
-0.67270035 -0.58532816 -0.00000034
-0.46646777 -0.35163638 0.00000577
-0.74533337 -0.13117544 0.17667687
-0.51671362 -0.47588965 0.00000607
-0.54667085 0.01044483 0.00000273
-0.04543251 -0.06611600 0.00000186
-0.00915019 0.02059692 0.00001163
-0.08504102 0.09518830 0.00000965
-0.30750126 0.38706398 0.00000244
-0.79198134 -0.55578095 -0.00000061
-0.20773815 0.18391007 0.00000680
-0.64529693 -0.45908299 -0.00000029
-0.51026630 0.19376081 0.12731706
-0.49419907 -0.27626589 0.02378156
-0.44501042 -0.52853400 0.00000521
-0.15210968 0.62914819 0.03996331
-0.32409942 0.22097583 0.00000428
-0.43627065 0.06599671 0.06496825
-0.15953986 0.56729025 0.00000295
-0.17119879 -0.75346482 0.00000190
-0.78048444 -0.09244792 -0.00000174
-0.73135138 -0.60409033 0.07357790
-0.74463004 -0.22039214 0.15817726
-0.37043476 -0.54070431 0.00000440
-0.67597723 0.00519665 0.17035446
-0.38577732 0.21077117 0.00000322
-0.35650730 -0.29123643 0.00000472
-0.55904263 -0.18709385 0.00000003
-0.01117416 0.49708688 0.00000624
-0.57798558 -0.02027883 0.11703139
-0.16564116 0.03275930 0.00000913
-0.49556416 -0.38013768 0.00331605
-0.39565507 0.15978234 0.06409926
-0.15452860 0.16531593 0.00000781
-0.77824104 -0.05544373 -0.00000177
-0.10944120 0.47326338 0.00000502
-0.67913872 -0.14833775 -0.00000092
-0.67843235 -0.13639027 -0.00000093
-0.51219100 -0.16243333 0.05578322
-0.50429320 0.00317732 0.00000364
-0.52333713 -0.38070843 0.01684362
-0.50825691 0.05876337 0.00000284
-0.29742196 0.47174969 0.07932136
-0.24457347 -0.16601355 0.00000377
-0.52952093 -0.77987373 0.00000563
-0.53750604 0.02229564 0.00000275
-0.17577857 -0.64843506 0.00000214
-0.23702280 0.35533097 0.02596054
-0.10693153 0.13060275 0.00000892
-0.20002308 -0.33077690 0.00000299
-0.62807202 -0.46430895 0.05128431
-0.25381950 0.39850020 0.04299625
-0.20549162 -0.09195630 0.00000350
-0.32030734 0.44662920 0.08545241
-0.04682658 0.17905904 0.00000928
-0.41259736 -0.37697968 0.00000515
-0.05609756 -0.70286947 0.00000077
-0.57874882 0.08988458 0.13982269
-0.31562820 -0.09115748 0.00000466
-0.02639771 -0.64891964 0.00000056
-0.31519902 -0.14251061 0.00000456
-0.57982439 -0.13723771 0.09413559
-0.06320567 0.39029890 0.00000666
-0.35549784 0.40435299 0.09413758
-0.21347806 0.16201010 0.00000696
-0.31555966 -0.54325092 0.00000381
-0.05452135 -0.24244066 0.00000162
-0.32832918 -0.33240971 0.00000434
-0.54691058 0.14327236 0.13504536
-0.15780623 0.44166011 0.00461120
-0.14447926 0.57072043 0.02432575
-0.34993517 -0.61379802 0.00000405
-0.36583439 -0.32712260 0.00000475
-0.58560228 -0.03031532 0.11873090
-0.71172160 -0.40680328 0.10407930
-0.07596452 -0.41654482 0.00000152
-0.50987196 -0.16719764 0.05367451
-0.52473253 0.09137903 0.00000210
-0.62291002 -0.68355638 0.00413534
-0.38307583 0.05694744 0.03699447
-0.55013973 0.11719661 0.13132574
-0.21782486 0.44096434 0.03395430
-0.50332677 0.10663102 0.00000232
-0.45119131 -0.75043046 0.00000486
-0.34719223 -0.13870053 0.00000491
-0.42442754 -0.48660028 0.00000507
-0.24923088 0.04850805 0.00000769
-0.06956302 0.70268661 0.00000292
-0.72907233 -0.01784019 -0.00000145
-0.32679522 -0.18233469 0.00000461
-0.72447532 -0.30165175 -0.00000107
-0.14973095 0.04108201 0.00000928
-0.11061826 -0.63124263 0.00000148
-0.75436962 -0.29004890 0.14878789
-0.12464717 -0.49948785 0.00000188
-0.06203481 -0.57230186 0.00000108
-0.61234164 -0.09102448 0.11951358
-0.77785861 -0.64953303 0.08717796
-0.16321468 -0.29706809 0.00000267
-0.19601619 -0.27060747 0.00000306
-0.63194263 -0.30585104 -0.00000037
-0.40355676 0.31063262 0.09867646
-0.47764584 -0.69695544 0.00000524
-0.31728616 0.22331861 0.03852837
-0.32033715 -0.16522104 0.00000457
-0.75302166 -0.14972261 -0.00000147
-0.62769395 -0.00664452 0.14422539
-0.30626962 0.19457763 0.02726811
-0.17667915 0.45457074 0.01650977
-0.26832241 -0.55053478 0.00000330
-0.47303069 -0.11250474 0.00000058
-0.37977481 -0.18499140 0.00000516
-0.64989239 -0.04508882 0.14730781
-0.78933537 -0.73062366 -0.00000017
-0.53601223 0.13952148 0.12892820
-0.38348922 0.16570830 0.05932850
-0.34026921 -0.46018311 0.00000423
-0.12393832 0.41052425 0.00000551
-0.67876947 0.05414168 -0.00000037
-0.77638918 -0.69235176 0.07774320
-0.57188982 -0.20187750 -0.00000005
-0.38799575 0.36894181 0.00000113
-0.44311234 -0.32119370 0.00000558
-0.27152991 -0.42694023 0.00000357
-0.44923255 0.10281644 0.07882808
-0.24208729 0.37263110 0.00000389
-0.38094473 0.19766106 0.00000349
-0.25393805 0.00184668 0.00000815
-0.20541675 -0.06066535 0.00000356
-0.34978595 0.10940987 0.00000523
-0.23841579 0.42062044 0.00000334
-0.52771026 -0.61940408 0.00000591
-0.78898966 -0.38171539 -0.00000105
-0.50926393 0.20158432 0.12841658
-0.41612908 -0.74104226 0.00000451
-0.62128061 -0.27455723 0.08655917
-0.05044875 0.15185376 0.00000953
-0.70326805 -0.64154291 -0.00000040
-0.63973206 -0.36283475 0.07766066
-0.55526960 0.07005684 0.12425371
-0.38945368 0.36964792 0.10375681
-0.68451494 -0.35627139 -0.00000070
-0.74977511 -0.47774476 0.10833785
-0.05568089 0.70717537 0.00000313
-0.06696030 -0.39238909 0.00000147
-0.24124297 -0.05891404 0.00000394
-0.17044026 -0.01619704 0.00000327
-0.32368740 0.32927197 0.00000288
-0.08921173 -0.53135014 0.00000145
-0.31992888 -0.66923255 0.00000362
-0.39564356 0.06080529 0.00000498
-0.43740270 -0.21499617 0.00834718
-0.08307796 0.68494636 0.01740483
-0.03543625 0.37044653 0.00000730
-0.34956762 -0.35590947 0.00000452
-0.07620925 0.27363062 0.00000777
-0.72773647 -0.15759559 -0.00000127
-0.47268698 0.18831165 0.10774708
-0.30875897 -0.54975587 0.00000373
-0.75570393 -0.63363773 -0.00000042
-0.25232235 -0.46777105 0.00000329
-0.76816082 -0.09012841 -0.00000165
-0.46675891 0.13278420 0.09353598
-0.10629366 0.37747857 0.00000615
-0.34769550 -0.55229348 0.00000414
-0.62604797 -0.27287707 -0.00000037
-0.61556280 0.03677094 0.00000107
-0.09948056 -0.24307014 0.00000209
-0.17514434 -0.44776320 0.00000251
-0.34847379 -0.16940895 0.00000486
-0.52111608 -0.13609996 0.00000025
-0.53966343 0.03912729 0.00000249
-0.59218425 -0.04713058 0.11854272
-0.54944545 0.12001058 0.00000126
-0.32559484 -0.67359298 0.00000368
-0.04947911 -0.75962687 0.00000060
-0.70200562 -0.07308418 -0.00000118
-0.66444647 -0.52030587 0.05775916
-0.39605191 -0.31044924 0.00000510
-0.15882297 -0.22859316 0.00000275
-0.69648802 -0.39576805 0.09884116
-0.67378324 -0.17623094 0.13235925
-0.47743365 -0.49089187 0.00000562
-0.27568582 0.47743988 0.06980114
-0.32604137 0.14266406 0.02641764
-0.25552928 -0.76681572 0.00000276
-0.41287321 0.21284090 0.00000268
-0.02229768 0.44461870 0.00000666
-0.36114624 0.30140403 0.00000252
-0.62021309 -0.27086854 -0.00000033
-0.31603336 0.27113107 0.00000378
-0.65001404 -0.54220819 -0.00000022
-0.12963428 -0.35036451 0.00000221
-0.29478988 -0.36995235 0.00000392
-0.51762152 0.12865707 0.11768288
-0.19671060 -0.26299870 0.00000308
-0.29992864 -0.43130109 0.00000386
-0.06268658 -0.09101448 0.00000199
-0.04005396 0.53452522 0.00000538
-0.02142570 -0.13735266 0.00000147
-0.52472442 0.03300279 0.00000286
-0.11150779 0.19199382 0.00000816
-0.46535835 -0.16534844 0.03218310
