ply
format ascii 1.0
element vertex 1406
property float x
property float y
property float z
end_header
-0.28539383 -0.61507863 0.00000000
-0.69936013 -0.47936779 -0.00000072
-0.51367491 0.12403723 0.00000143
-0.20708951 0.53935707 0.00000038
-0.67855889 -0.72517407 -0.00000019
-0.13538112 -0.54674160 0.26007241
-0.13130286 -0.63417405 0.00000000
-0.70035970 -0.02080842 -0.00000154
-0.06091801 0.59679431 0.11702620
-0.47139981 0.23745003 0.00000034
-0.04551347 -0.03340537 0.00000000
-0.35858345 -0.53058398 0.00000000
-0.72590315 -0.36427087 -0.00000104
-0.12063709 0.61422712 0.00000079
-0.49533519 -0.61125195 0.00000000
-0.20011207 -0.61085433 0.38442311
-0.09679389 -0.03091491 0.00000000
-0.68900120 0.01716497 -0.00000016
-0.25961462 -0.35038835 0.00000000
-0.10685179 0.33810759 0.20526673
-0.20880412 -0.47691783 0.00000000
-0.70861703 -0.17066363 -0.00000131
-0.56364083 0.23189355 -0.00000140
-0.53949690 0.20892875 -0.00000049
-0.67747426 -0.32690576 -0.00000090
-0.46568018 -0.14418380 -0.00000032
-0.12725921 -0.26972091 0.00000000
-0.52975410 -0.67321241 0.00000000
-0.02934439 0.18360867 0.05637172
-0.55029470 -0.40951923 -0.00000021
-0.76534522 -0.38092077 -0.00000105
-0.04140880 -0.43450782 0.00000000
-0.18792763 0.09917351 0.00000768
-0.59336978 -0.38418564 -0.00000044
-0.23326597 0.10586230 0.00000689
-0.30180547 -0.24585788 0.00000000
-0.50947046 -0.63117635 0.00000000
-0.09174798 -0.38283038 0.00000000
-0.54706115 -0.77739948 0.00000000
-0.06085054 0.28563091 0.11689626
-0.12212066 -0.65738410 0.23459856
-0.22855167 -0.44186050 0.00000000
-0.17025141 -0.36208808 0.00000000
-0.28998807 -0.31386393 0.00000000
-0.62137270 -0.02535627 -0.00000119
-0.10031858 -0.62569636 0.00000000
-0.42162269 -0.09104302 -0.00000022
-0.39992654 -0.29611427 0.00000000
-0.21007600 -0.16771284 0.40356457
-0.43247873 -0.32394651 0.00000000
-0.09068615 -0.64376479 0.17421164
-0.46476990 -0.06921241 -0.00000045
-0.16679861 0.46383384 0.00000241
-0.28397134 0.05734225 0.00000686
-0.30552992 -0.03698334 0.58693707
-0.32948515 0.07272125 0.00000582
-0.03357615 0.45989615 0.06450109
-0.24877115 0.15967818 0.00000585
-0.44565207 0.03192337 0.00000427
-0.55623394 -0.70805031 0.00000000
-0.69744778 -0.49475417 -0.00000069
-0.26927215 -0.08856682 0.00000000
-0.02830574 0.23081490 0.00000811
-0.25089523 0.07025966 0.48198119
-0.77661479 -0.47322431 -0.00000082
-0.12281932 -0.26763275 0.00000000
-0.26051319 0.22646780 0.50045824
-0.47828573 -0.38991311 0.00000000
-0.28732145 0.37581527 0.00000157
-0.19397651 0.07830766 0.37263727
-0.07400793 0.14191218 0.00000875
-0.28856596 -0.52680254 0.00000000
-0.39677665 -0.75557768 0.00000000
-0.41071415 0.02760231 0.00000502
-0.63358665 -0.59877354 -0.00000023
-0.55401188 -0.08482403 -0.00000080
-0.05383765 0.54270893 0.00000305
-0.24008919 -0.65841460 0.46122071
-0.22734912 -0.72941703 0.00000000
-0.13353308 0.01598543 0.00000975
-0.19043773 -0.09177655 0.36583862
-0.59958357 -0.45528421 -0.00000034
-0.31550181 -0.58912307 0.00000000
-0.06913308 -0.06856266 0.13280734
-0.52882284 -0.35500103 -0.00000022
-0.17421404 -0.53441072 0.00000000
-0.73395234 -0.06070608 -0.00000161
-0.34356555 -0.52736634 0.66000378
-0.28699148 -0.69560003 0.00000000
-0.55163419 -0.75802326 0.00000000
-0.66388285 0.01960158 0.00000029
-0.19290540 -0.33284867 0.37057880
-0.36156562 -0.67970562 0.00000000
-0.73954248 -0.57700646 -0.00000056
-0.36967650 -0.75486410 0.00000000
-0.15750772 -0.11426243 0.00000000
-0.08562018 -0.21102180 0.00000000
-0.49846050 0.24578170 -0.00000031
-0.56874627 -0.42614928 -0.00000026
-0.15030780 0.17029499 0.00000718
-0.61404663 -0.43076232 -0.00000044
-0.24256399 -0.38759372 0.00000000
-0.04203798 0.36032563 0.00000596
-0.54638511 -0.69353038 0.00000000
-0.36660853 -0.67242587 0.00000000
-0.20410618 0.50301653 0.00000104
-0.21549819 0.35761514 0.00000325
-0.63240832 -0.41139391 -0.00000056
-0.11620060 0.33439049 0.00000523
-0.03040155 0.69524419 0.05840272
-0.29262987 0.20225796 0.00000437
-0.60402304 -0.03507874 -0.00000110
-0.26871979 -0.65640324 0.00000000
-0.73412055 -0.69776058 -0.00000026
-0.28859499 0.12942521 0.00000566
-0.13738681 -0.15277889 0.26392543
-0.24007633 -0.53122109 0.00000000
-0.24514776 -0.13941345 0.00000000
-0.79402584 -0.76628053 -0.00000008
-0.29797962 -0.37066096 0.00000000
-0.08535849 0.25043398 0.16397700
-0.72417015 -0.07913346 -0.00000154
-0.12937655 0.18713413 0.00000724
-0.33888999 -0.12217099 0.00000000
-0.37974602 0.37859568 -0.00000025
-0.62035382 -0.25511128 -0.00000078
-0.30362564 -0.45601115 0.00000000
-0.06882111 -0.79240322 0.13220803
-0.47324362 0.07622037 0.00000300
-0.56014061 -0.41284883 -0.00000025
-0.61898613 -0.55453914 -0.00000025
-0.11056573 -0.08518240 0.00000000
-0.05129518 0.05515101 0.00001040
-0.51506311 -0.29891163 -0.00000026
-0.06544866 -0.07989558 0.12572943
-0.75200760 -0.16232634 -0.00000151
-0.24100205 -0.79786438 0.00000000
-0.02002639 0.18443668 0.03847148
-0.36157241 -0.14886430 0.69459730
-0.03469223 -0.00877354 0.06664513
-0.12613165 0.46734229 0.24230476
-0.06039477 -0.51633507 0.11602071
-0.25901461 -0.38522810 0.00000000
-0.18177724 -0.50049818 0.34920117
-0.58633947 -0.02787270 -0.00000104
-0.10243935 -0.69025183 0.19678999
-0.31649205 0.11377693 0.00000539
-0.13639687 0.46703583 0.26202479
-0.53432071 0.15400518 0.00000053
-0.06629297 -0.78109467 0.12735139
-0.79671204 -0.65882301 -0.00000035
-0.17788181 0.12393252 0.00000746
-0.08031988 -0.55012578 0.00000000
-0.39268962 -0.67469162 0.00000000
-0.42673483 -0.57209939 0.00000000
-0.11262883 0.03234001 0.00000982
-0.77483386 -0.43865240 -0.00000090
-0.67068446 -0.53513098 -0.00000050
-0.19845849 -0.41377133 0.00000000
-0.03798110 -0.61011934 0.07296318
-0.12217145 -0.17045583 0.00000000
-0.15883867 -0.69535196 0.00000000
-0.12381323 -0.47373867 0.00000000
-0.16262560 -0.52663761 0.31241012
-0.78600359 -0.41656554 -0.00000096
-0.18771420 -0.15691029 0.00000000
-0.12924014 -0.37864080 0.24827535
-0.50554782 0.22570865 -0.00000012
-0.10006033 -0.15550342 0.19221979
-0.58130163 -0.39352274 -0.00000037
-0.56149650 -0.79976273 0.00000000
-0.06068713 -0.58176643 0.11658234
-0.04745449 0.10705437 0.00000968
-0.18434893 0.10168451 0.00000769
-0.09770271 -0.65039068 0.18769072
-0.52479625 0.06122491 0.00000226
-0.06814837 -0.48834318 0.00000000
-0.07030060 0.50132346 0.00000342
-0.29041898 -0.07998029 0.00000000
-0.00716456 -0.68412471 0.01376340
-0.11610138 -0.01592659 0.22303528
-0.09831827 -0.54865843 0.00000000
-0.61924654 -0.41428560 -0.00000050
-0.11667116 0.59756529 0.00000114
-0.31556186 -0.27365175 0.00000000
-0.55731320 -0.06376623 -0.00000085
-0.06163412 -0.24235080 0.11840155
-0.21484393 -0.79821026 0.41272357
-0.59394735 -0.50098753 -0.00000023
-0.34812826 -0.37730557 0.00000000
-0.70612723 -0.37478182 -0.00000094
-0.09275578 0.48613369 0.00000331
-0.28136578 -0.35810691 0.54051554
-0.03649799 0.73627323 0.00000036
-0.17890836 -0.44718513 0.00000000
-0.26339483 -0.54952848 0.00000000
-0.65564102 -0.30331367 -0.00000085
-0.56613147 -0.74054182 0.00000000
-0.21636993 0.23628683 0.41565669
-0.41601107 0.18180761 0.00000234
-0.42625955 -0.76821887 0.00000000
-0.00542115 0.28694457 0.01041424
-0.40046543 -0.39942044 0.00000000
-0.12067726 -0.10942591 0.00000000
-0.55525559 0.01283361 0.00000249
-0.11474143 0.31304765 0.00000557
-0.33139524 -0.49570817 0.00000000
-0.17195959 0.23926327 0.33034205
-0.31253585 0.37769809 0.00000105
-0.24021070 -0.74153346 0.00000000
-0.48278931 -0.43743280 0.00000000
-0.54914916 -0.43078971 -0.00000017
-0.03571087 -0.51064163 0.00000000
-0.20624331 0.39711598 0.00000277
-0.08140034 -0.43328828 0.00000000
-0.19968919 0.32502770 0.00000410
-0.48086047 -0.45253775 0.00000000
-0.02653695 -0.30566552 0.00000000
-0.79071015 -0.39900747 -0.00000100
-0.62617344 -0.45690784 -0.00000045
-0.01069958 -0.19162561 0.02055431
-0.64315695 -0.57457411 -0.00000031
-0.10992890 0.26736018 0.21117783
-0.17303067 -0.77703667 0.00000000
-0.77845311 -0.05071022 -0.00000182
-0.32262143 -0.42930034 0.00000000
-0.26367173 -0.47929767 0.00000000
-0.23478346 -0.69326478 0.00000000
-0.05575265 0.00929181 0.10710301
-0.07215693 0.72448212 -0.00000012
-0.15255043 0.07594781 0.29305553
-0.11390281 -0.48409712 0.21881174
-0.56554663 -0.50037557 -0.00000011
-0.66312176 -0.51944911 -0.00000050
-0.35576385 -0.33921871 0.00000000
-0.26993677 0.23508720 0.00000425
-0.43941462 -0.75774813 0.00000000
-0.09625210 -0.06581894 0.00000000
-0.27458608 -0.50737375 0.00000000
-0.30183634 0.46468219 -0.00000020
-0.71649176 -0.78953940 -0.00000003
-0.19165505 -0.37055871 0.00000000
-0.59107292 -0.71429127 0.00000000
-0.21507226 0.19769315 0.41316369
-0.46664777 -0.59779710 0.00000000
-0.45340052 -0.74255782 0.00000000
-0.09062511 -0.61597121 0.17409436
-0.15092194 0.25400552 0.28992763
-0.17518288 -0.45576048 0.00000000
-0.05604271 -0.03595979 0.10766023
-0.13308571 -0.03247193 0.00000000
-0.43130678 -0.13544860 -0.00000019
-0.19356249 -0.55459315 0.37184110
-0.39385569 -0.50761628 0.00000000
-0.09302588 0.04433823 0.00000993
-0.32290643 -0.09642419 0.00000000
-0.61403555 -0.54444230 -0.00000024
-0.18206705 -0.31857750 0.34975791
-0.42301419 0.20602590 0.00000180
-0.16002582 -0.62157798 0.30741584
-0.05645129 0.28431407 0.00000688
-0.53801686 -0.56010938 0.00000000
-0.09144639 -0.13649896 0.17567208
-0.23372456 -0.02461439 0.44899514
-0.27369368 -0.09496110 0.00000000
-0.63480699 -0.60798842 -0.00000022
-0.14240234 0.56512302 0.00000119
-0.58097810 -0.23484530 -0.00000065
-0.27130204 -0.28019625 0.52118278
-0.58051217 0.02062880 0.00000187
-0.08858560 -0.74667567 0.00000000
-0.72941285 -0.59507287 -0.00000051
-0.35615155 -0.38886929 0.00000000
-0.13062844 0.01599469 0.00000979
-0.17602831 0.01878135 0.33815765
-0.21518919 0.07078605 0.00000769
-0.19322903 0.04792720 0.37120125
-0.59331697 -0.61411381 -0.00000003
-0.13587478 -0.36530301 0.26102075
-0.05174943 0.20313242 0.09941267
-0.32653245 0.07310265 0.00000587
-0.30380535 -0.39776203 0.00000000
-0.77075267 0.02388124 -0.00000192
-0.05634342 -0.29706129 0.00000000
-0.13941827 -0.16778272 0.00000000
-0.30051917 -0.20984615 0.00000000
-0.17221767 -0.12571716 0.33083686
-0.01208771 0.40157327 0.02322096
-0.14900047 0.00299301 0.00000971
-0.69924247 -0.41637957 -0.00000083
-0.31596443 -0.02748378 0.60698235
-0.12339403 -0.05171570 0.00000000
-0.56063122 -0.75352734 0.00000000
-0.05576535 0.69346493 0.00000071
-0.26585212 -0.47787830 0.51071262
-0.64001721 -0.37436640 -0.00000066
-0.50411594 -0.70912749 0.00000000
-0.24075365 0.40647000 0.00000195
-0.67997593 -0.10793222 -0.00000130
-0.43597230 -0.40494612 0.00000000
-0.21449862 0.15181476 0.00000649
-0.22255751 0.48249450 0.00000103
-0.08565081 -0.20003207 0.16453855
-0.30060586 -0.08392058 0.00000000
-0.31316438 0.06055632 0.00000634
-0.59179193 0.20782414 -0.00000147
-0.27598298 0.02249935 0.00000750
-0.65175617 -0.67064482 -0.00000018
-0.33418563 -0.54792655 0.00000000
-0.33365059 -0.09914378 0.00000000
-0.74424976 -0.53868240 -0.00000065
-0.04388175 0.49171171 0.00000396
-0.42939025 -0.27307156 0.00000000
-0.02914130 -0.67761600 0.00000000
-0.68410504 -0.55327880 -0.00000053
-0.10964574 0.48636582 0.21063448
-0.20917504 -0.17568909 0.00000000
-0.60640001 0.17090380 -0.00000114
-0.09434022 0.04173419 0.18123125
-0.39874199 -0.00409709 -0.00000028
-0.03855595 -0.59352243 0.07406748
-0.46314058 0.32293391 -0.00000093
-0.61464614 -0.55028862 -0.00000024
-0.55720747 -0.12183450 -0.00000075
-0.07934977 -0.68936104 0.15243401
-0.14366695 0.25054103 0.27599040
-0.36146778 -0.57901722 0.00000000
-0.15706164 0.05639591 0.00000878
-0.14710520 0.29392442 0.00000537
-0.08624509 -0.17305478 0.00000000
-0.19658995 -0.67253679 0.00000000
-0.18000954 -0.26384372 0.00000000
-0.12946139 -0.14388119 0.00000000
-0.13047373 0.60730368 0.00000071
-0.02495196 0.16322419 0.04793369
-0.67893726 -0.67627567 -0.00000029
-0.13326944 -0.21153226 0.00000000
-0.32487482 -0.00787881 0.00000000
-0.64221954 -0.74377215 -0.00000001
-0.62126040 0.00479207 0.00000135
-0.11307547 -0.33400545 0.21722239
-0.30112818 -0.43586674 0.57847995
-0.13540336 -0.13396224 0.26011515
-0.59761661 0.10515003 0.00000013
-0.28281912 -0.30296919 0.00000000
-0.19484343 -0.53250027 0.00000000
-0.23904727 0.14092661 0.45922083
-0.67115468 -0.27297238 -0.00000097
-0.02006587 0.37721640 0.03854732
-0.08007109 0.70488149 0.00000005
-0.01077693 -0.67510837 0.02070290
-0.05397188 0.14414136 0.00000902
-0.32346958 0.24014021 0.00000314
-0.35395405 0.06380619 0.00000550
-0.51746887 0.03116888 0.00000291
-0.09290586 -0.24388821 0.00000000
-0.07069061 -0.10067197 0.13579942
-0.05777131 0.03621715 0.11098094
-0.22353813 -0.74191391 0.00000000
-0.04230710 0.12922867 0.00000942
-0.39158916 -0.70876575 0.00000000
-0.19501285 -0.04235057 0.00000000
-0.16259491 0.16437393 0.00000708
-0.17403515 0.11674597 0.00000762
-0.06544637 -0.07699976 0.00000000
-0.25559068 -0.00222095 0.49100119
-0.12628736 -0.13362285 0.00000000
-0.13233984 0.42541361 0.00000362
-0.06016912 -0.62589693 0.00000000
-0.15793039 -0.14894734 0.30339044
-0.40522984 0.00422371 0.00000551
-0.02305246 -0.37279609 0.04428467
-0.04569171 0.62735993 0.00000190
-0.12564506 0.48253006 0.00000287
-0.69038856 -0.00997346 -0.00000151
-0.64141655 -0.67868781 -0.00000012
-0.79035914 -0.67439538 -0.00000031
-0.13558756 -0.09054265 0.00000000
-0.06540066 0.30062950 0.12563722
-0.18675368 0.06764497 0.00000817
-0.31089637 0.30973411 0.00000222
-0.03338332 -0.26773164 0.00000000
-0.51669282 -0.33917716 -0.00000019
-0.28755823 0.38260818 0.00000145
-0.28009412 -0.03016198 0.00000000
-0.16319208 -0.29241806 0.31349835
-0.11907414 0.03246756 0.00000972
-0.08985369 -0.65574962 0.17261244
-0.39143792 -0.78899395 0.00000000
-0.19923061 -0.49951723 0.00000000
-0.61987770 -0.35163727 -0.00000061
-0.45748946 -0.69309461 0.00000000
-0.40277830 -0.19619599 0.00000000
-0.72969794 -0.00542825 -0.00000169
-0.14787953 -0.44980764 0.00000000
-0.63017243 -0.05883389 -0.00000117
-0.40612265 0.30040753 0.00000055
-0.24846131 -0.47959757 0.00000000
-0.16103883 -0.63798350 0.30936188
-0.04434222 0.44433868 0.00000467
-0.41416928 -0.79957080 0.00000000
-0.68244678 -0.20565386 -0.00000113
-0.04163291 -0.71221328 0.00000000
-0.00669118 -0.07916016 0.01285402
-0.58786887 -0.66741192 0.00000000
-0.10401511 0.68136537 -0.00000002
-0.72018307 -0.40512276 -0.00000094
-0.42135686 -0.11522855 -0.00000018
-0.35912564 -0.61039454 0.00000000
-0.01963919 0.36541653 0.00000622
-0.14846022 0.06115811 0.00000884
-0.51500010 -0.49893770 0.00000000
-0.12670723 -0.69142103 0.00000000
-0.27490297 -0.56299418 0.00000000
-0.11694968 -0.44231740 0.22466490
-0.45350787 -0.15274452 -0.00000025
-0.21531633 -0.30389410 0.00000000
-0.11691492 0.30786315 0.00000562
-0.19930670 -0.08141829 0.38287640
-0.05455428 0.35498515 0.10480090
-0.33021533 -0.74096304 0.00000000
-0.21306601 0.21528213 0.00000556
-0.64901459 -0.05136448 -0.00000126
-0.64500499 -0.24983498 -0.00000090
-0.25733811 0.20860012 0.00000494
-0.16472559 -0.36899987 0.31644428
-0.49403143 -0.41442192 0.00000000
-0.49432841 -0.53479528 0.00000000
-0.60233063 0.13911325 -0.00000053
-0.06818988 -0.56227380 0.13099542
-0.75709260 -0.49166569 -0.00000077
-0.03545707 -0.48543924 0.00000000
-0.60256988 -0.00653977 -0.00000115
-0.40213966 -0.19020525 0.00000000
-0.32740539 -0.17607252 0.00000000
-0.02013074 0.23792572 0.03867194
-0.23501062 -0.16322888 0.00000000
-0.08467977 0.61873263 0.00000140
-0.10261243 -0.05134673 0.00000000
-0.30820960 -0.78507394 0.00000000
-0.25438827 0.38732022 0.00000201
-0.75140387 -0.74059039 -0.00000015
-0.51378113 -0.08668990 -0.00000063
-0.20934318 -0.48714209 0.00000000
-0.07518464 0.08286037 0.14443263
-0.33487466 -0.74763793 0.00000000
-0.33560574 -0.73942888 0.00000000
-0.07433436 0.50531471 0.00000330
-0.69679898 0.03205416 -0.00000055
-0.06039046 -0.69621813 0.11601243
-0.77990770 0.01618423 -0.00000188
-0.78554428 -0.02100745 -0.00000190
-0.30106014 0.06790575 0.00000644
-0.58561301 0.06947540 0.00000096
-0.03445629 -0.58777088 0.00000000
-0.04327919 -0.16750471 0.00000000
-0.04839369 0.19898094 0.09296616
-0.04731584 -0.24773926 0.00000000
-0.79345769 -0.38234729 -0.00000104
-0.54007441 -0.44224024 -0.00000011
-0.75463742 -0.62461388 -0.00000044
-0.15377571 -0.64534491 0.00000000
-0.21723916 -0.26982802 0.00000000
-0.15369990 0.08532776 0.29526377
-0.27291039 -0.62533665 0.00000000
-0.17391537 0.36427358 0.33409956
-0.69759011 -0.71054399 -0.00000022
-0.19061153 0.24805085 0.36617345
-0.57315463 0.10475296 0.00000061
-0.02811003 -0.49757144 0.00000000
-0.00843999 0.06552762 0.01621355
-0.32389724 -0.53102714 0.62222028
-0.60185176 -0.49406734 -0.00000028
-0.12660436 0.07061125 0.00000903
-0.18313712 -0.34759346 0.00000000
-0.48970252 0.19797812 0.00000065
-0.13728343 -0.00027597 0.00000000
-0.06636747 0.38267982 0.12749450
-0.11233609 0.16880132 0.21580201
-0.31626511 -0.48261267 0.60755867
-0.40524301 -0.63954175 0.00000000
-0.54337949 0.09426286 0.00000135
-0.18217243 0.19014865 0.00000640
-0.51290870 0.08536212 0.00000209
-0.15410472 0.11104619 0.29604152
-0.72870535 -0.49643117 -0.00000076
-0.64078182 -0.15578020 -0.00000105
-0.16359349 0.40268111 0.00000349
-0.11914839 0.02691412 0.00000980
-0.10319944 0.27752697 0.00000628
-0.31618753 -0.41013247 0.00000000
-0.09356366 -0.77407098 0.00000000
-0.79479390 -0.26683986 -0.00000133
-0.21049172 -0.04337992 0.00000000
-0.20255160 0.59501100 -0.00000050
-0.04457530 0.61304432 0.08563102
-0.05073464 0.63269478 0.09746350
-0.63665783 0.14015654 -0.00000120
-0.14062177 -0.05269127 0.27013990
-0.14207049 -0.72198796 0.00000000
-0.59864360 0.15160568 -0.00000067
-0.10342874 -0.06415999 0.00000000
-0.23317584 0.03921753 0.00000789
-0.12659667 0.51657552 0.24319823
-0.49576947 -0.29618058 -0.00000018
-0.19420542 -0.56799632 0.00000000
-0.47001621 -0.72770113 0.00000000
-0.40113190 0.06043236 0.00000465
-0.01723979 0.75631958 0.03311844
-0.63086414 -0.38971317 -0.00000059
-0.10457290 0.30094057 0.00000591
-0.12907428 0.24682333 0.00000635
-0.20662802 -0.34948412 0.00000000
-0.03904017 0.19019797 0.00000856
-0.11403066 0.31692380 0.00000553
-0.39204314 -0.47351301 0.00000000
-0.02504219 -0.53258723 0.00000000
-0.25971848 -0.72786719 0.00000000
-0.65532404 -0.22418413 -0.00000099
-0.36863118 0.01894151 0.00000597
-0.37811986 -0.23275174 0.00000000
-0.76380074 -0.16528669 -0.00000155
-0.01056777 -0.21499354 0.02030110
-0.42344901 0.02496610 0.00000481
-0.24949421 -0.16387625 0.00000000
-0.31606632 0.34291619 0.00000157
-0.17517477 -0.59616798 0.00000000
-0.12520324 -0.05270306 0.00000000
-0.27513599 -0.20519350 0.00000000
-0.40516934 0.02889760 0.00000510
-0.23377639 -0.27594012 0.00000000
-0.69203830 -0.71656853 -0.00000021
-0.41386393 -0.14189571 -0.00000010
-0.03760781 -0.58719492 0.00000000
-0.15812965 -0.49581152 0.00000000
-0.34870791 -0.27517274 0.00000000
-0.33216906 0.34043431 0.00000130
-0.15089883 0.47484729 0.00000253
-0.67472839 -0.49445468 -0.00000059
-0.54466665 0.20987992 -0.00000060
-0.64167053 0.02076442 0.00000069
-0.33582476 0.40050542 0.00000022
-0.35667238 0.29912278 0.00000152
-0.20816895 -0.70201600 0.00000000
-0.11594261 0.15536369 0.22273028
-0.42642611 0.37262419 -0.00000106
-0.33742511 -0.69528031 0.64820701
-0.73560590 -0.07442077 -0.00000159
-0.39676151 0.22781946 0.00000194
-0.04594513 0.18034644 0.08826239
-0.04838397 -0.69884926 0.09294749
-0.19126540 -0.35396403 0.00000000
-0.59033799 -0.13379905 -0.00000087
-0.17404519 0.16050142 0.00000697
-0.02643233 0.03261201 0.00001111
-0.31971040 -0.68704277 0.61417657
-0.20789817 -0.12743303 0.00000000
-0.00904590 -0.54397780 0.01737753
-0.24085002 -0.48050028 0.46268228
-0.37390590 0.38858882 -0.00000031
-0.28906098 -0.27092928 0.00000000
-0.13928223 0.07724347 0.00000874
-0.75461704 -0.50446194 -0.00000074
-0.24305841 -0.16448364 0.00000000
-0.02908924 -0.37771863 0.00000000
-0.09506035 -0.62172818 0.00000000
-0.63647509 -0.08111859 -0.00000116
-0.24384513 -0.04085982 0.46843725
-0.42173588 -0.47028238 0.00000000
-0.25149685 -0.11113903 0.48313642
-0.04913456 -0.11250940 0.09438941
-0.46553686 -0.34854376 0.00000000
-0.65100205 -0.77531672 0.00000000
-0.73538828 -0.43602693 -0.00000091
-0.61165261 -0.63088727 -0.00000008
-0.13316628 -0.64721185 0.00000000
-0.16787110 0.40286851 0.00000341
-0.02273950 0.06827109 0.00001063
-0.06221156 -0.71277416 0.11951083
-0.72437334 -0.65810472 -0.00000035
-0.50941569 -0.77524889 0.00000000
-0.62479711 -0.73427123 0.00000000
-0.44528902 -0.20912801 -0.00000012
-0.43756661 -0.36027592 0.00000000
-0.39622220 -0.08156526 -0.00000013
-0.12353960 -0.24086082 0.00000000
-0.08242295 0.11611898 0.00000901
-0.04898798 -0.41047424 0.09410782
-0.12711366 0.41767848 0.24419110
-0.74841899 -0.51418859 -0.00000071
-0.71585327 -0.36132905 -0.00000100
-0.65994757 -0.55316961 -0.00000042
-0.06322618 0.70175189 0.00000043
-0.59317750 0.13335392 -0.00000026
-0.10417547 0.09056783 0.20012514
-0.06000940 0.51376092 0.11528048
-0.15785344 0.09306100 0.30324295
-0.36527953 -0.64702165 0.00000000
-0.14773469 0.10534273 0.00000819
-0.32670182 -0.44201756 0.00000000
-0.23267040 -0.72730267 0.44696891
-0.55760205 -0.02389456 -0.00000092
-0.65733957 -0.27943277 -0.00000090
-0.28104857 -0.73863840 0.00000000
-0.10378104 -0.08239808 0.19936742
-0.04520318 -0.56730884 0.00000000
-0.40678993 0.39192680 -0.00000100
-0.43924254 -0.27463132 0.00000000
-0.07578553 -0.46259943 0.14558697
-0.11468711 -0.52545357 0.00000000
-0.04409618 -0.59249592 0.00000000
-0.70082921 -0.04999533 -0.00000149
-0.39720428 -0.00321665 -0.00000028
-0.43219796 -0.39450875 0.00000000
-0.53377622 0.03359784 0.00000255
-0.29802954 -0.06039418 0.00000000
-0.53574020 -0.72206509 0.00000000
-0.43138129 -0.33434749 0.00000000
-0.36350158 -0.40060529 0.00000000
-0.13639258 0.05408253 0.00000913
-0.03786016 0.08529681 0.00001015
-0.62173241 -0.25043488 -0.00000080
-0.19336760 -0.52410221 0.00000000
-0.36803651 -0.48023042 0.70701343
-0.12818211 -0.22081290 0.00000000
-0.00782930 -0.05587277 0.01504039
-0.05519940 -0.39399558 0.00000000
-0.51775920 -0.20956889 -0.00000042
-0.27741575 0.16749056 0.00000524
-0.48365033 -0.32995439 -0.00000007
-0.40181100 -0.19703947 0.00000000
-0.15796731 0.34928611 0.00000438
-0.53252494 -0.17942458 -0.00000054
-0.12698565 -0.51564211 0.00000000
-0.31980768 -0.78784209 0.61436296
-0.29251921 -0.00104622 0.00000000
-0.35406551 -0.37469921 0.00000000
-0.43173811 -0.73972797 0.00000000
-0.04359075 -0.48697001 0.00000000
-0.24622160 -0.63425171 0.00000000
-0.24671926 -0.55188346 0.00000000
-0.01389182 0.51206189 0.00000411
-0.53162146 -0.39834145 -0.00000015
-0.06932704 0.29195386 0.00000657
-0.71320504 0.03351741 -0.00000089
-0.68629408 -0.23514944 -0.00000110
-0.41363180 -0.61022991 0.00000000
-0.56066471 -0.08049893 -0.00000084
-0.14111158 0.61390096 0.00000040
-0.26682442 -0.40561569 0.00000000
-0.05619473 -0.25950849 0.00000000
-0.66029668 0.01151559 0.00000049
-0.24276364 -0.61212897 0.46635842
-0.20845763 -0.26094374 0.00000000
-0.25700161 -0.65276885 0.00000000
-0.74232602 0.01750557 -0.00000118
-0.29419222 -0.29499906 0.00000000
-0.18718804 -0.00034232 0.00000000
-0.51037580 -0.36838508 -0.00000011
-0.35933906 -0.18199866 0.00000000
-0.57774615 0.18716560 -0.00000086
-0.09637441 -0.44579056 0.18513900
-0.68768793 -0.48609453 -0.00000066
-0.20452353 0.36035100 0.00000342
-0.34417641 -0.18445811 0.00000000
-0.57294995 0.05028021 0.00000152
-0.11771855 0.65754145 0.00000012
-0.42668355 -0.63657761 0.00000000
-0.12994021 -0.16891931 0.24962021
-0.01851024 -0.17491584 0.03555889
-0.31025171 -0.08611500 0.00000000
-0.10751008 -0.68341058 0.20653106
-0.29280004 -0.50286907 0.00000000
-0.76946610 -0.53535062 -0.00000066
-0.64374453 -0.72755176 -0.00000005
-0.35067013 -0.38435072 0.00000000
-0.07386757 0.11524589 0.00000916
-0.07527499 -0.21397199 0.00000000
-0.47500816 -0.10903091 -0.00000042
-0.22915553 -0.38483480 0.00000000
-0.76331264 -0.53067172 -0.00000067
-0.00391697 0.25078392 0.00752465
-0.22017500 0.21363579 0.00000547
-0.03158657 -0.15037118 0.06067903
-0.29085028 -0.14518405 0.00000000
-0.57702482 -0.22524577 -0.00000065
-0.32542065 0.23132712 0.00000325
-0.18821412 0.39875078 0.00000309
-0.64589453 -0.55233258 -0.00000037
-0.35126853 0.10358519 0.00000489
-0.62390453 -0.48191044 -0.00000040
-0.16502421 -0.51242012 0.31701794
-0.17704795 -0.46548995 0.34011602
-0.42331585 -0.34136117 0.00000000
-0.07719085 0.10225047 0.00000930
-0.61713165 -0.29964185 -0.00000069
-0.47751731 -0.02722602 -0.00000058
-0.21061666 -0.68008184 0.00000000
-0.27716935 -0.57380784 0.00000000
-0.57871270 -0.19049974 -0.00000072
-0.15694483 0.26342550 0.00000568
-0.36864406 -0.18929172 0.00000000
-0.25131631 -0.14858235 0.00000000
-0.66812789 0.02862682 0.00000005
-0.32309386 0.24661900 0.00000304
-0.19983099 0.16826400 0.38388431
-0.70432967 -0.19344909 -0.00000125
-0.21021649 -0.02372062 0.00000000
-0.24244992 0.48040527 0.00000068
-0.08298275 0.19004720 0.15941310
-0.14131647 0.02471463 0.00000950
-0.06996618 0.72558916 -0.00000010
-0.23411684 -0.23146433 0.44974813
-0.09968163 0.01162871 0.19149230
-0.02518891 0.01138024 0.04838888
-0.28792092 0.51017231 -0.00000072
-0.24964717 -0.41781032 0.00000000
-0.01192476 0.15713060 0.02290793
-0.44081968 -0.79423493 0.00000000
-0.05709380 -0.00739573 0.00000000
-0.18759257 0.27706283 0.36037394
-0.74621719 -0.25806868 -0.00000131
-0.07261100 -0.68610471 0.00000000
-0.43633729 -0.49305043 0.00000000
-0.24907655 -0.04539907 0.00000000
-0.01709803 -0.43227637 0.03284598
-0.33622956 -0.10464888 0.00000000
-0.01869589 0.63443005 0.03591554
-0.09737434 -0.09340325 0.18705991
-0.19435458 0.53704232 0.00000066
-0.20071556 -0.61009085 0.38558242
-0.14822529 -0.67680413 0.00000000
-0.60841453 -0.16437764 -0.00000089
-0.42249942 0.36583671 -0.00000086
-0.32906574 -0.77364796 0.00000000
-0.30496177 0.39252117 0.00000095
-0.22187813 -0.68540817 0.00000000
-0.04663943 -0.69711983 0.08959617
-0.25122318 0.05338265 0.00000741
-0.09392616 -0.32853618 0.18043582
-0.13326856 -0.31592730 0.00000000
-0.13397625 -0.22698453 0.00000000
-0.08462801 0.22141606 0.00000740
-0.67399341 0.03490778 -0.00000016
-0.56290716 -0.20080176 -0.00000063
-0.07558405 -0.78847516 0.00000000
-0.74244630 -0.40911040 -0.00000098
-0.60441792 0.03032852 0.00000125
-0.12020497 -0.64790165 0.00000000
-0.28378394 0.34538671 0.00000214
-0.14533345 0.36976582 0.00000426
-0.12775549 -0.76108897 0.24542329
-0.53727722 -0.14065087 -0.00000063
-0.28532696 0.14102352 0.00000553
-0.20001899 -0.18110168 0.00000000
-0.25604099 -0.28497696 0.00000000
-0.15531319 -0.42341945 0.00000000
-0.55530500 0.15390636 0.00000013
-0.61395067 -0.72813994 0.00000000
-0.22826806 0.56228924 -0.00000041
-0.51337898 0.03534435 0.00000291
-0.28623739 -0.01526115 0.00000000
-0.30187881 -0.30655107 0.57992232
-0.31832355 -0.15127435 0.00000000
-0.16113119 0.44140500 0.00000290
-0.20873207 0.01947026 0.40098333
-0.23567073 0.20971906 0.45273450
-0.41892430 -0.58446890 0.00000000
-0.47836375 -0.06108891 -0.00000052
-0.15868898 -0.50019580 0.00000000
-0.16650711 -0.20648929 0.31986666
-0.39921814 -0.16280624 -0.00000000
-0.31674021 0.09686670 0.00000566
-0.11409228 -0.43553323 0.21917573
-0.48632488 -0.37601888 0.00000000
-0.43462774 -0.30977365 0.00000000
-0.09592402 0.37605754 0.18427400
-0.48805022 -0.18787310 -0.00000034
-0.72707325 -0.33123663 -0.00000110
-0.21031927 -0.36512250 0.40403152
-0.28822723 0.16549389 0.55369824
-0.09917755 -0.17423400 0.19052394
-0.02834964 0.43615574 0.00000503
-0.74578601 -0.45035484 -0.00000087
-0.03663822 -0.35100079 0.00000000
-0.17739545 -0.67186028 0.00000000
-0.01722452 -0.28805396 0.03308898
-0.19775169 -0.31608942 0.00000000
-0.18702175 -0.11509389 0.00000000
-0.62833279 -0.59130555 -0.00000022
-0.05654133 -0.03018028 0.10861810
-0.18640049 0.49732855 0.00000148
-0.30507690 -0.30350056 0.00000000
-0.11160787 0.43588364 0.21440370
-0.24869712 0.21353494 0.00000502
-0.02086533 -0.17063785 0.00000000
-0.04404296 -0.46136618 0.08460824
-0.08861220 0.54340470 0.00000251
-0.13602994 -0.73584026 0.26131883
-0.47972065 0.24706464 0.00000002
-0.14315194 0.09320103 0.00000844
-0.32921028 0.31271717 0.00000182
-0.53388250 -0.33288884 -0.00000028
-0.50347626 0.10076419 0.00000201
-0.02168527 -0.25662202 0.04165825
-0.76934892 -0.70071048 -0.00000025
-0.54446244 -0.39969367 -0.00000020
-0.46888012 -0.17345324 -0.00000028
-0.20492218 0.29871783 0.00000443
-0.43492916 -0.35391808 0.00000000
-0.72058773 0.02702043 -0.00000093
-0.66501415 -0.00208232 -0.00000142
-0.25065520 0.04773269 0.00000750
-0.04131819 0.46386722 0.07937385
-0.45266885 -0.23800381 -0.00000010
-0.27750197 -0.41523576 0.00000000
-0.02172390 0.31160030 0.04173246
-0.65297300 -0.18019672 -0.00000105
-0.42567030 -0.02954141 -0.00000035
-0.45240778 -0.00215738 -0.00000051
-0.71389568 0.04463934 -0.00000109
-0.74242294 -0.44737023 -0.00000088
-0.66457915 -0.35927179 -0.00000079
-0.24819830 -0.58631033 0.00000000
-0.10275536 -0.24486212 0.19739705
-0.68188363 -0.24208248 -0.00000107
-0.14138345 0.09429828 0.00000845
-0.77888852 -0.08977725 -0.00000175
-0.20429379 0.54078519 0.00000041
-0.49532887 -0.22548555 -0.00000030
-0.47311300 0.29328400 -0.00000062
-0.44241413 -0.73749167 0.00000000
-0.49890447 -0.27734157 -0.00000022
-0.35416520 0.02285588 0.00000618
-0.24101080 0.45978722 0.00000105
-0.51243377 -0.07089156 -0.00000065
-0.66280001 -0.24578521 -0.00000098
-0.26574731 0.36495724 0.00000216
-0.31740788 -0.66917312 0.00000000
-0.71528989 0.05706352 -0.00000133
-0.04739284 -0.64393318 0.00000000
-0.20490400 0.42458129 0.00000234
-0.17267582 0.00080355 0.33171728
-0.13337493 -0.58048272 0.00000000
-0.20463935 -0.65106404 0.39312017
-0.14192754 -0.72264218 0.00000000
-0.09755829 0.55945671 0.18741405
-0.51961899 0.11866328 0.00000140
-0.65064430 -0.46007761 -0.00000055
-0.03236388 -0.73855191 0.00000000
-0.36627194 0.22977059 0.00000249
-0.03519090 -0.21653233 0.00000000
-0.27569577 -0.69199860 0.00000000
-0.16645163 -0.72619659 0.31976008
-0.21245550 -0.77144295 0.40813529
-0.10402734 -0.26635349 0.00000000
-0.29097223 -0.42545167 0.55896986
-0.14010076 0.27513435 0.00000576
-0.31112191 -0.39784515 0.00000000
-0.73409677 -0.68206769 -0.00000029
-0.49334005 -0.34848395 -0.00000008
-0.25721386 -0.04270144 0.00000000
-0.15395790 -0.67767823 0.29575914
-0.67555523 -0.15081485 -0.00000120
-0.12065412 0.11311226 0.00000848
-0.43536741 -0.50627744 0.00000000
-0.35846898 -0.10759043 0.00000000
-0.37537715 0.25783634 0.00000185
-0.66392165 -0.14877971 -0.00000116
-0.36258247 -0.76679552 0.69653469
-0.08623677 -0.14814109 0.16566420
-0.10084526 0.34725723 0.19372790
-0.04929996 -0.56300491 0.00000000
-0.19775330 0.24114718 0.37989315
-0.08727194 0.16663484 0.00000818
-0.09911837 -0.72575819 0.00000000
-0.46176678 -0.53073335 0.00000000
-0.04046534 -0.44098666 0.07773550
-0.26774752 0.03611834 0.00000742
-0.33693793 -0.54895276 0.00000000
-0.37190926 0.05426725 0.00000531
-0.19606774 0.39749500 0.00000296
-0.20698091 -0.11445315 0.00000000
-0.03520623 0.52584696 0.00000358
-0.21350813 0.56144965 -0.00000012
-0.08347630 -0.12286823 0.00000000
-0.17567445 0.01907487 0.00000906
-0.33901420 -0.43116724 0.00000000
-0.05216819 -0.41782090 0.00000000
-0.31401306 -0.03506388 0.00000000
-0.55191386 -0.53194088 -0.00000000
-0.09987777 0.50513911 0.19186974
-0.00812068 -0.51744527 0.01560014
-0.61893368 -0.73366266 0.00000000
-0.08891600 0.38338992 0.00000491
-0.53800219 0.01301769 0.00000281
-0.14310350 0.27472082 0.27490804
-0.76138979 0.00872452 -0.00000140
-0.04377271 0.26926899 0.08408908
-0.63420677 -0.69331592 -0.00000007
-0.02243840 0.69711852 0.04310508
-0.54303962 -0.49653244 -0.00000003
-0.31920964 -0.60210812 0.00000000
-0.20668691 -0.73874235 0.00000000
-0.74173099 -0.53030938 -0.00000067
-0.06379254 -0.74795789 0.00000000
-0.41445881 0.22637425 0.00000162
-0.12470925 0.10635890 0.00000852
-0.55956209 0.07409358 0.00000138
-0.62412554 0.12342833 -0.00000068
-0.15646324 0.48829845 0.00000220
-0.53158891 0.21514973 -0.00000044
-0.12770742 0.23861612 0.24533124
-0.21262807 0.08651318 0.00000749
-0.10539838 0.54678929 0.20247525
-0.20605794 -0.15358427 0.00000000
-0.02487429 0.32608008 0.04778448
-0.10654514 0.30723372 0.00000578
-0.10803937 -0.59298819 0.00000000
-0.31382030 -0.11890492 0.00000000
-0.16772090 -0.66674817 0.00000000
-0.66372144 -0.27174020 -0.00000094
-0.02763236 0.30534789 0.00000700
-0.41321069 -0.73828852 0.00000000
-0.01456851 0.71740842 0.02798668
-0.02537228 0.65609831 0.00000178
-0.23463678 -0.20616494 0.45074704
-0.03839946 -0.00994956 0.00000000
-0.09778814 0.23230296 0.00000704
-0.11177298 0.61829078 0.00000089
-0.05034681 -0.43942717 0.00000000
-0.24092180 -0.66648412 0.00000000
-0.29593492 -0.47977147 0.00000000
-0.25724488 -0.70208836 0.00000000
-0.20075771 0.04152450 0.38566422
-0.29483089 -0.52910924 0.00000000
-0.06878132 0.61311108 0.00000177
-0.65627742 -0.76891494 -0.00000003
-0.03367627 -0.67741519 0.00000000
-0.20787983 0.03302888 0.00000837
-0.19598737 0.48578793 0.00000148
-0.07355847 0.49267814 0.14130892
-0.02272927 0.29468465 0.00000724
-0.25897440 -0.77350944 0.00000000
-0.60989046 0.09907173 -0.00000000
-0.44451785 0.02646807 0.00000438
-0.02089983 -0.58621836 0.00000000
-0.21392950 -0.30304837 0.00000000
-0.43307295 -0.12447625 -0.00000021
-0.19937488 0.42743766 0.00000239
-0.64584851 0.05255670 0.00000008
-0.43771869 -0.10805948 -0.00000026
-0.22029769 -0.79122782 0.00000000
-0.29285353 -0.49398282 0.00000000
-0.70120424 -0.65670031 -0.00000036
-0.60654563 -0.25854838 -0.00000072
-0.14237681 0.24432968 0.27351195
-0.15418026 -0.76060426 0.00000000
-0.27780566 0.35314012 0.00000213
-0.14557987 -0.16622251 0.00000000
-0.30894607 -0.29424214 0.59349895
-0.18004566 -0.75009716 0.00000000
-0.01646291 0.72084445 0.00000094
-0.70923054 -0.48006296 -0.00000076
-0.01711831 -0.46004322 0.03288494
-0.57566035 0.03950407 0.00000165
-0.15820467 0.62298208 -0.00000008
-0.47791347 0.20391946 0.00000078
-0.21431977 0.31210819 0.00000403
-0.65825307 0.13973655 -0.00000164
-0.12106253 -0.55060166 0.00000000
-0.09638987 -0.16508305 0.18516870
-0.05249066 -0.05881091 0.00000000
-0.14119498 -0.64172256 0.00000000
-0.17122941 0.34781024 0.00000420
-0.19074745 0.28713715 0.00000481
-0.03054517 -0.14332768 0.00000000
-0.64676899 -0.11649560 -0.00000114
-0.03791979 -0.38978121 0.00000000
-0.77442616 -0.11144061 -0.00000169
-0.49301657 -0.58002615 0.00000000
-0.68861830 -0.73160154 -0.00000017
-0.38312468 -0.20906924 0.00000000
-0.30045131 -0.75846303 0.00000000
-0.64917886 0.14713864 -0.00000162
-0.14563774 -0.64721990 0.00000000
-0.51400220 -0.57438266 0.00000000
-0.24177761 0.39409757 0.00000214
-0.41969225 -0.59393209 0.00000000
-0.66641802 -0.65666658 -0.00000027
-0.18430035 -0.18451598 0.00000000
-0.62541294 -0.73882008 0.00000000
-0.15112796 0.14721665 0.29032311
-0.64148861 0.13225932 -0.00000117
-0.01172507 0.69377232 0.02252432
-0.13541819 -0.39670953 0.00000000
-0.59913921 0.19910672 -0.00000147
-0.32091737 -0.67330116 0.61649525
-0.48555332 -0.63428998 0.00000000
-0.50283480 -0.56465185 0.00000000
-0.39576516 -0.26690233 0.00000000
-0.26548204 0.29985806 0.00000326
-0.04507077 -0.73072237 0.08658271
-0.30132547 -0.36772177 0.57885915
-0.22244595 0.05739293 0.00000778
-0.30082449 -0.13937083 0.00000000
-0.05009058 -0.66144294 0.00000000
-0.24250165 0.36970001 0.00000253
-0.06087999 -0.51493478 0.11695284
-0.18114617 0.02608122 0.00000888
-0.05632781 -0.42654970 0.10820792
-0.36032754 -0.25605503 0.00000000
-0.12605032 0.08902318 0.00000876
-0.23937723 -0.35515347 0.00000000
-0.06280239 -0.20162751 0.00000000
-0.35170558 -0.28399965 0.00000000
-0.63298965 -0.49449489 -0.00000041
-0.78169245 -0.44616151 -0.00000088
-0.31143433 -0.70846248 0.00000000
-0.50507194 -0.16072462 -0.00000046
-0.44869271 0.08839628 0.00000327
-0.22516671 -0.48857823 0.00000000
-0.04864444 -0.21189737 0.00000000
-0.46122745 -0.52653581 0.00000000
-0.15614995 -0.02615297 0.00000000
-0.34218228 -0.70840871 0.00000000
-0.25352705 0.53401589 -0.00000043
-0.04932444 -0.54532784 0.00000000
-0.00824392 0.38515705 0.01583689
-0.36933589 -0.17487030 0.70951104
-0.07929785 0.22943182 0.00000736
-0.36942187 -0.43134847 0.00000000
-0.05601242 -0.57828712 0.00000000
-0.40491951 -0.23647121 0.00000000
-0.09129487 -0.64988321 0.17538100
-0.12977438 0.01209877 0.00000986
-0.42604089 0.08017838 0.00000384
-0.06052713 0.29279464 0.00000669
-0.76246756 -0.05940815 -0.00000173
-0.35947430 -0.77686489 0.00000000
-0.16126718 -0.76347768 0.30980054
-0.18345256 0.00823036 0.00000911
-0.22627388 -0.16785939 0.00000000
-0.19146226 -0.75279683 0.00000000
-0.23970467 0.49444288 0.00000050
-0.16124897 -0.57472807 0.00000000
-0.69326258 0.06303607 -0.00000100
-0.10350332 0.22446775 0.19883391
-0.26059547 -0.77888471 0.00000000
-0.51236427 -0.29103020 -0.00000026
-0.43030030 -0.46722808 0.00000000
-0.39221066 -0.22448507 0.00000000
-0.16856453 0.08085590 0.00000824
-0.02268119 -0.69160891 0.00000000
-0.08247487 0.27059466 0.15843745
-0.08821830 0.32376295 0.16947080
-0.14206167 -0.73007405 0.00000000
-0.16658732 -0.68285328 0.00000000
-0.66618961 -0.64863020 -0.00000028
-0.76925117 -0.17430857 -0.00000156
-0.03557032 0.33780479 0.06833197
-0.75581604 -0.20520353 -0.00000145
-0.76152402 -0.05873408 -0.00000173
-0.62349206 -0.41722304 -0.00000051
-0.40210727 -0.05248636 -0.00000021
-0.07114358 -0.47702655 0.00000000
-0.08206883 0.61528409 0.00000151
-0.12115381 0.25222319 0.00000639
-0.06251555 -0.10532724 0.00000000
-0.05626636 -0.14239694 0.00000000
-0.14859872 -0.55431563 0.28546393
-0.36438683 -0.17263646 0.00000000
-0.23835073 -0.79150671 0.45788106
-0.09059366 -0.43655935 0.00000000
-0.19635662 0.24346729 0.00000539
-0.14440548 -0.72245210 0.00000000
-0.40003014 -0.15137407 -0.00000003
-0.67395526 -0.28721046 -0.00000095
-0.60946047 -0.74822307 0.00000000
-0.46201280 0.01346713 0.00000427
-0.02301958 0.70861363 0.04422159
-0.57798159 -0.46459150 -0.00000023
-0.07917827 -0.76977175 0.15210456
-0.56624395 0.23245661 -0.00000139
-0.04830126 -0.59832734 0.09278861
-0.52393264 -0.59004456 0.00000000
-0.09262891 -0.56967795 0.17794375
-0.27143133 -0.26707542 0.00000000
-0.06103196 -0.18074927 0.11724478
-0.52314246 0.10257502 0.00000160
-0.01667330 0.27181059 0.03203006
-0.62735432 -0.21656317 -0.00000088
-0.04618361 -0.34848964 0.00000000
-0.72875148 -0.75233138 -0.00000012
-0.77564311 -0.58862323 -0.00000053
-0.04990323 0.63046908 0.00000179
-0.30944729 -0.21461494 0.59446204
-0.04406106 -0.47617126 0.00000000
-0.79732066 -0.50836408 -0.00000073
-0.51537484 -0.66374409 0.00000000
-0.56165600 -0.04380869 -0.00000091
-0.21749221 -0.01671076 0.00000000
-0.03392372 -0.27133247 0.06516879
-0.30257636 -0.47658709 0.58126187
-0.20773958 0.05655964 0.00000802
-0.24863987 -0.38160369 0.00000000
-0.45165417 -0.63882792 0.00000000
-0.18319906 0.60058117 -0.00000019
-0.75571162 -0.67844248 -0.00000030
-0.12908813 0.08707469 0.00000875
-0.56457090 -0.02465188 -0.00000095
-0.00426194 0.78104287 0.00818736
-0.15999481 -0.64223182 0.00000000
-0.49286538 0.28688785 -0.00000089
-0.17195436 -0.14187479 0.00000000
-0.23981188 -0.50791180 0.00000000
-0.45829388 -0.62491125 0.00000000
-0.19931528 0.03912397 0.00000841
-0.12787949 -0.44886717 0.24566148
-0.14279123 0.38777772 0.00000403
-0.06485114 0.61091667 0.00000186
-0.06265354 0.41539851 0.12035990
-0.34278005 -0.16538899 0.00000000
-0.06312262 0.17609815 0.00000841
-0.32648471 0.31003490 0.00000191
-0.11221624 -0.35881314 0.21557178
-0.39764121 -0.71300673 0.00000000
-0.41210034 -0.46303216 0.00000000
-0.08160568 0.14826863 0.15676770
-0.08656353 -0.54326987 0.00000000
-0.48771298 -0.40047413 0.00000000
-0.05099199 0.41972536 0.00000493
-0.78806651 -0.50052792 -0.00000075
-0.13141438 0.44686803 0.00000331
-0.70884895 -0.10961323 -0.00000142
-0.11172994 0.00714105 0.21463758
-0.10887182 -0.45712668 0.20914701
-0.64394081 -0.22765014 -0.00000093
-0.66794026 -0.32672772 -0.00000086
-0.69476336 -0.74412233 -0.00000014
-0.65015668 -0.52955341 -0.00000042
-0.06708077 -0.15361935 0.12886478
-0.37631568 -0.46289226 0.00000000
-0.62345660 -0.55134618 -0.00000027
-0.02988858 -0.37418637 0.05741713
-0.09960100 -0.38661095 0.19133741
-0.46751079 -0.79960173 0.00000000
-0.40846282 -0.11800748 -0.00000012
-0.02644967 0.73749202 0.05081106
-0.50387162 -0.37784523 -0.00000007
-0.25536540 0.17896396 0.00000546
-0.07116128 0.10013459 0.00000942
-0.11396888 -0.27386466 0.21893866
-0.61235148 -0.44292995 -0.00000042
-0.52206630 0.11777472 0.00000137
-0.37558091 -0.03258398 -0.00000013
-0.01451679 0.55958068 0.02788732
-0.27500260 0.02216358 0.00000752
-0.18293865 0.60790849 -0.00000030
-0.13320601 -0.50309128 0.25589395
-0.50937372 -0.33471960 -0.00000017
-0.58577329 -0.37265539 -0.00000043
-0.65502280 -0.01288042 -0.00000136
-0.05795657 -0.53246176 0.11133683
-0.55124456 -0.26974791 -0.00000046
-0.02546095 0.34911722 0.04891148
-0.19164556 -0.21973515 0.00000000
-0.22747672 -0.19673844 0.43699220
-0.50284880 -0.63046807 0.00000000
-0.03444303 -0.16315883 0.06616640
-0.13624121 0.39939284 0.00000395
-0.12977989 -0.34074426 0.24931224
-0.53251934 -0.29456338 -0.00000034
-0.07050734 0.17981049 0.00000824
-0.55063450 -0.36453506 -0.00000029
-0.54686701 -0.39694959 -0.00000022
-0.40781578 -0.10589343 -0.00000014
-0.11781265 0.23033448 0.00000677
-0.75727284 -0.44899008 -0.00000088
-0.38794625 -0.69070816 0.00000000
-0.16060299 0.29875198 0.00000510
-0.20875540 -0.71217251 0.00000000
-0.10971179 -0.25066742 0.00000000
-0.67203438 -0.42360926 -0.00000071
-0.50043637 0.20117031 0.00000039
-0.40031821 0.32045436 0.00000032
-0.09788712 -0.14478818 0.00000000
-0.10887226 0.62091029 0.00000090
-0.74873942 -0.73522460 -0.00000016
-0.28132233 -0.23957565 0.00000000
-0.11029701 -0.37912062 0.00000000
-0.28940469 0.39673215 0.00000118
-0.08222467 0.51598698 0.15795721
-0.24973460 -0.06857575 0.00000000
-0.27866229 -0.51820475 0.00000000
-0.18989348 -0.27299318 0.36479279
-0.20433235 0.09953995 0.00000742
-0.16257709 -0.78679729 0.00000000
-0.11660994 -0.13533954 0.00000000
-0.49543700 -0.75459236 0.00000000
-0.16475561 -0.45766133 0.00000000
-0.66085291 -0.37771773 -0.00000074
-0.04547108 -0.46057102 0.08735172
-0.13049316 -0.57906687 0.00000000
-0.05156627 -0.25088665 0.09906082
-0.54291570 -0.26085004 -0.00000044
-0.45602325 -0.23117095 -0.00000012
-0.60192364 -0.34684274 -0.00000054
-0.60185939 0.13102064 -0.00000038
-0.26756495 0.52850634 -0.00000066
-0.16345476 -0.02377671 0.31400305
-0.17243271 -0.35837570 0.00000000
-0.15938169 0.12782094 0.00000768
-0.16751587 0.20662583 0.00000637
-0.38117114 -0.19820701 0.00000000
-0.37835839 -0.21822552 0.00000000
-0.15603565 -0.09991164 0.29975057
-0.14731057 0.36021081 0.00000437
-0.70598477 -0.39707488 -0.00000090
-0.14076622 0.37700805 0.00000422
-0.24529645 -0.24667087 0.00000000
-0.69632185 -0.36509934 -0.00000091
-0.38747376 -0.42430747 0.00000000
-0.57960314 -0.59017694 -0.00000002
-0.60152006 -0.34143820 -0.00000055
-0.00217865 -0.44441557 0.00418527
-0.27501696 0.04255340 0.52832025
-0.00918782 0.26914176 0.01765016
-0.14384855 0.53273511 0.00000170
-0.43355003 -0.58982819 0.00000000
-0.18515933 -0.52749586 0.35569829
-0.20992009 0.33381110 0.00000376
-0.35458633 0.15010764 0.00000405
-0.33902109 -0.16966014 0.00000000
-0.70084357 -0.36735344 -0.00000093
-0.60138798 -0.79959023 0.00000000
-0.15530781 0.47478503 0.00000245
-0.56932062 -0.25378144 -0.00000057
-0.29066071 -0.69908398 0.00000000
-0.02823139 0.02230361 0.05423360
-0.69354087 -0.18759817 -0.00000121
-0.05724487 0.67399198 0.10997012
-0.44552991 0.26331133 0.00000041
-0.45133162 0.30903125 -0.00000047
-0.04122347 -0.76168776 0.07919189
-0.50129193 -0.40089810 -0.00000002
-0.23924807 -0.38336834 0.00000000
-0.23910788 0.47627750 0.00000082
-0.49187171 0.24765822 -0.00000022
-0.44450504 -0.32893354 0.00000000
-0.19750471 0.08052743 0.37941515
-0.10738610 -0.22381069 0.20629288
-0.13196328 0.45745280 0.00000315
-0.21711037 -0.26923981 0.00000000
-0.17867412 0.15961982 0.00000691
-0.18910550 -0.06911715 0.00000000
-0.26467663 -0.53835517 0.00000000
-0.76840585 -0.25839230 -0.00000135
-0.12020405 0.44423202 0.23091744
-0.13671830 -0.34107915 0.26264119
-0.18267459 -0.05521360 0.35092530
-0.29828542 0.07973605 0.00000630
-0.03735366 0.03254173 0.00001095
-0.33548698 -0.38471875 0.00000000
-0.12999766 0.19225879 0.00000715
-0.14936294 -0.51121622 0.00000000
-0.37012526 -0.05072015 -0.00000008
-0.04336483 0.06636573 0.00001035
-0.60337907 -0.51704264 -0.00000025
-0.66803986 -0.18166000 -0.00000112
-0.59227341 0.11051816 0.00000014
-0.29584989 -0.18851268 0.00000000
-0.31377453 -0.05084072 0.00000000
-0.02532502 0.42018774 0.00000532
-0.26170820 0.05280724 0.00000726
-0.02150964 0.14656837 0.00000948
-0.00116238 0.13750704 0.00223298
-0.36167610 -0.23253664 0.00000000
-0.16953108 -0.33721155 0.32567582
-0.23378786 0.07862981 0.44911703
-0.39523104 0.38854438 -0.00000072
-0.00359697 -0.68249553 0.00690992
-0.08063185 0.37310553 0.00000519
-0.32172975 -0.37765718 0.00000000
-0.33770028 -0.26268807 0.00000000
-0.23784924 0.39367184 0.00000222
-0.31348386 -0.45534480 0.60221583
-0.47608706 0.22428891 0.00000047
-0.40098384 -0.11482521 -0.00000009
-0.58253795 -0.66528475 0.00000000
-0.09478392 -0.49954492 0.18208361
-0.78860718 -0.58579546 -0.00000054
-0.12672988 0.07181042 0.00000901
-0.00748621 0.29437280 0.01438130
-0.00410477 0.01355819 0.00788542
-0.39974856 0.38748094 -0.00000079
-0.46602237 -0.59242588 0.00000000
-0.30125788 -0.73379666 0.57872826
-0.00353488 0.27355996 0.00679064
-0.48547980 -0.61770195 0.00000000
-0.04538099 0.23450881 0.00000780
-0.11410614 0.00792407 0.00001016
-0.65430033 -0.56583881 -0.00000038
-0.33489758 -0.11397394 0.64335370
-0.07668670 0.49607748 0.14731842
-0.07307147 -0.04288446 0.00000000
-0.58705246 0.11617597 0.00000015
-0.76506060 -0.25628483 -0.00000136
-0.63549834 -0.54097456 -0.00000034
-0.47600222 -0.70344740 0.00000000
-0.02278526 -0.16911201 0.00000000
-0.04690534 0.42446968 0.00000493
-0.49167708 -0.67252129 0.00000000
-0.61529547 -0.46660477 -0.00000039
-0.27907151 0.40505928 0.00000124
-0.55787688 -0.71549124 0.00000000
-0.59721190 -0.30697283 -0.00000059
-0.67327332 -0.72236782 -0.00000018
-0.19620444 0.45109132 0.00000206
-0.50265276 -0.65053147 0.00000000
-0.31859604 -0.38413361 0.00000000
-0.33838487 -0.06558389 0.00000000
-0.45597789 -0.18459046 -0.00000021
-0.24820475 -0.29694432 0.00000000
-0.54908276 -0.34588304 -0.00000032
-0.41664249 -0.35606012 0.00000000
-0.34666505 -0.54747176 0.00000000
-0.76664466 -0.43927842 -0.00000090
-0.01452783 0.37824693 0.02790853
-0.02957121 -0.33963171 0.00000000
-0.07271386 -0.00003940 0.00000000
-0.04263475 -0.40597218 0.00000000
-0.17109941 -0.11889865 0.00000000
-0.37755689 0.14255919 0.00000373
-0.33885524 -0.11470288 0.65095657
-0.65945750 -0.34091270 -0.00000080
-0.14802958 -0.05362900 0.28437060
-0.44271231 -0.19701084 -0.00000013
-0.27531686 -0.43734518 0.00000000
-0.03918015 -0.44109136 0.07526659
-0.28913891 -0.01003081 0.00000000
-0.14413302 -0.68720067 0.27688515
-0.17371818 0.07614846 0.33371994
-0.05236989 0.40466714 0.00000514
-0.23516253 0.28177527 0.00000414
-0.27056113 -0.26776353 0.51975948
-0.26314816 0.46570221 0.00000053
-0.20049892 -0.09167730 0.38516670
-0.30659041 0.22414564 0.00000373
-0.25806415 0.18937837 0.00000524
-0.03971869 -0.71826273 0.00000000
-0.60737252 -0.44075027 -0.00000040
-0.08578478 -0.06390103 0.00000000
-0.42209870 -0.31285757 0.00000000
-0.03983391 -0.67956853 0.07652250
-0.57932961 -0.40681231 -0.00000034
-0.41787368 -0.71619272 0.00000000
-0.49836883 -0.03632848 -0.00000065
-0.77032816 -0.24527793 -0.00000139
-0.18235095 0.23603521 0.00000571
-0.70546955 -0.41649100 -0.00000086
-0.41888630 -0.45009482 0.00000000
-0.66923457 -0.51290309 -0.00000054
-0.11919965 -0.77099299 0.00000000
-0.22171256 0.20893157 0.42592010
-0.15966845 0.15837286 0.00000722
-0.60547233 -0.61871415 -0.00000008
-0.23343094 0.27054849 0.00000436
-0.26153812 0.47952828 0.00000033
-0.01963007 -0.76686239 0.03771013
-0.13203140 0.22813404 0.00000659
-0.62227309 0.02316682 0.00000103
-0.17429332 -0.64552593 0.00000000
-0.26585132 -0.57868183 0.00000000
-0.75087935 -0.17310449 -0.00000148
-0.26236552 0.25453749 0.00000407
-0.52751571 -0.26233041 -0.00000037
-0.11720623 0.65371633 0.00000019
-0.18919805 -0.04863120 0.36345723
-0.50287485 -0.43319726 0.00000000
-0.10244202 0.26844585 0.00000643
-0.34369767 -0.12318859 0.00000000
-0.03008480 0.29917705 0.00000706
-0.51739615 0.19744129 0.00000013
-0.12745646 0.08328655 0.00000883
-0.28282917 0.11951485 0.00000594
-0.07741037 0.34239849 0.14870834
-0.06358132 0.51265955 0.12214232
-0.70370501 -0.50828302 -0.00000069
-0.46021327 -0.28291342 -0.00000005
-0.16062371 -0.79330188 0.30856442
-0.19055282 -0.73091000 0.36605939
-0.47937989 -0.23461297 -0.00000022
-0.43966395 0.20428586 0.00000151
-0.10314002 -0.49061632 0.19813600
-0.05671903 0.62085855 0.10895981
-0.18145235 -0.48549014 0.00000000
-0.64913911 -0.38591614 -0.00000067
-0.11412122 -0.18521637 0.00000000
-0.15835916 -0.09614859 0.30421412
-0.72343981 -0.52972424 -0.00000068
-0.73542100 -0.68650931 -0.00000028
-0.68504071 -0.03822074 -0.00000144
-0.38591141 -0.73637229 0.00000000
-0.27122921 -0.62171698 0.00000000
-0.56778389 -0.64617586 0.00000000
