ply
format ascii 1.0
element vertex 1194
property float x
property float y
property float z
end_header
-0.13697347 0.38720694 0.07908423
-0.05414724 -0.35259715 0.03126294
-0.63312835 -0.04792792 0.36555144
-0.51474053 -0.33360228 0.29719609
-0.13013120 -0.49499393 0.07513371
-0.41984248 0.26877347 0.24240595
-0.15669525 -0.58012742 0.09047096
-0.65992975 -0.14136066 0.38102570
-0.41144887 0.24152672 0.23755959
-0.28378463 0.25317511 0.16384917
-0.24808520 -0.05649989 0.14323670
-0.27069676 -0.26324654 0.15629192
-0.35857129 0.12290269 0.20702891
-0.19294007 0.11125431 0.11139761
-0.59437084 -0.75168765 0.00000000
-0.35032466 -0.23569714 0.20226659
-0.36852732 -0.49922401 0.21277623
-0.26563349 0.35516724 0.15336943
-0.27314967 -0.17652810 0.15770815
-0.02127815 -0.10137121 0.01228535
-0.23187777 -0.04325898 0.13387904
-0.19200905 -0.79126078 0.11086006
-0.03942901 -0.38360944 0.02276508
-0.35738808 -0.69719183 0.20634478
-0.02317558 0.55225027 0.01338086
-0.50442719 -0.63968986 0.29124060
-0.75819260 -0.68440169 -0.00000029
-0.35256457 -0.77501673 0.00000000
-0.56774235 0.11132829 0.32779950
-0.48459882 -0.77102935 0.27979231
-0.04503222 0.18178862 0.02600021
-0.12908909 -0.74925733 0.07453203
-0.31207103 -0.75752002 0.00000000
-0.20102151 0.31005669 0.11606379
-0.21365441 -0.75081116 0.12335742
-0.10420573 -0.74105686 0.06016515
-0.31895018 -0.12945960 0.18415193
-0.35536417 0.31522092 0.20517777
-0.07715181 -0.55246246 0.04454506
-0.19623378 -0.53235430 0.11329929
-0.18756053 -0.44069248 0.10829162
-0.69129044 -0.18554474 0.39913234
-0.25024050 -0.16792424 0.14448109
-0.22642247 -0.11037084 0.13072930
-0.28226089 -0.52739054 0.16296867
-0.32695219 -0.21039569 0.18877204
-0.02684556 -0.28364754 0.01549979
-0.03539690 0.68185794 0.02043707
-0.04877140 0.00533860 0.02815909
-0.14606418 -0.22936967 0.08433292
-0.11678657 -0.05698460 0.06742894
-0.13866165 0.36934409 0.08005894
-0.62475824 -0.13608633 0.36071846
-0.02563682 0.61794990 0.01480190
-0.30615491 -0.04276355 0.17676437
-0.11072876 0.30679908 0.06393135
-0.06103032 0.33220652 0.03523701
-0.03619331 0.52849662 0.02089689
-0.14913607 0.48083404 0.08610683
-0.20014155 -0.36198691 0.11555552
-0.33071420 -0.56262988 0.19094411
-0.65347660 -0.32766968 0.37729913
-0.76164395 -0.71700191 -0.00000021
-0.23629116 0.12698379 0.13642718
-0.37530714 -0.42103893 0.21669069
-0.19521116 -0.64254349 0.11270886
-0.12156209 0.39256069 0.07018617
-0.33858728 -0.07430021 0.19548999
-0.09743872 -0.78965098 0.00000000
-0.46658179 0.01181607 0.26939139
-0.25298086 0.41614676 0.14606428
-0.47387421 0.00359814 0.27360186
-0.12329551 0.02028896 0.07118700
-0.20330460 -0.75430906 0.11738177
-0.10430127 0.47851771 0.06022031
-0.32136804 -0.35514542 0.18554793
-0.39820823 0.31170857 0.22991496
-0.05917841 0.69463319 0.03416796
-0.49961314 -0.76894122 0.28846112
-0.67315942 -0.13252696 0.38866422
-0.09560636 -0.08320617 0.05520014
-0.37444890 -0.77292502 0.21619517
-0.34998992 -0.11365199 0.20207350
-0.42360520 0.00739631 0.24457766
-0.37136993 -0.11755780 0.21441783
-0.04074679 -0.57844257 0.02352593
-0.08799063 -0.21251380 0.05080306
-0.18202119 -0.50058419 0.10509338
-0.19005910 0.05071234 0.10973422
-0.00158211 -0.42620221 0.00091346
-0.09551357 -0.32702404 0.05514657
-0.13879827 0.18525186 0.08013781
-0.00660883 -0.64678609 0.00381573
-0.39775068 -0.17462406 0.22964931
-0.24803819 -0.76720077 0.00000000
-0.06521692 -0.12487368 0.03765422
-0.15076286 0.57955575 0.08704640
-0.31416309 -0.05329632 0.18138807
-0.11025162 0.15931660 0.06365586
-0.29324812 -0.73559260 0.16931236
-0.42418656 -0.73890448 0.00000000
-0.57132936 -0.27214530 0.32986942
-0.45697898 -0.56484854 0.26384547
-0.52178568 -0.61817318 0.30126294
-0.04513562 0.48197106 0.02605990
-0.59782910 -0.50933295 0.34516904
-0.26757130 -0.17191428 0.15448737
-0.16651426 -0.24031600 0.09614017
-0.61529016 -0.19648169 0.35525164
-0.01551919 -0.35333005 0.00896030
-0.58070230 -0.15036625 0.33528152
-0.02992358 -0.65071404 0.01727695
-0.33368179 -0.13036026 0.19265752
-0.25237542 0.29548132 0.14571434
-0.56650889 -0.15377063 0.32708654
-0.48699036 -0.79476386 0.28117311
-0.15373705 -0.55971217 0.08876301
-0.62288415 -0.77346265 0.35963419
-0.60588193 -0.41734245 0.34981883
-0.16430774 0.56050497 0.09486685
-0.30848360 0.32875404 0.17811003
-0.47806552 -0.54989237 0.27602017
-0.22867800 -0.50965381 0.13203157
-0.04424951 -0.59121436 0.02554829
-0.22512135 -0.12441598 0.12997808
-0.16056105 0.04969256 0.09270297
-0.21873300 0.17989662 0.12628964
-0.41238269 0.07437569 0.23809825
-0.22194839 -0.11179365 0.12814610
-0.45268717 -0.67005765 0.26136750
-0.60137177 -0.25964755 0.34721527
-0.16299476 0.08909201 0.09410811
-0.61857903 -0.06805561 0.35715091
-0.05652019 -0.32657680 0.03263300
-0.26450372 -0.19629410 0.15271623
-0.19470999 -0.72747302 0.11241949
-0.43116507 0.24294941 0.24894328
-0.15183225 -0.54431224 0.08766323
-0.45943859 -0.69595760 0.26526558
-0.47345898 0.21149743 0.27336273
-0.62405318 -0.76342064 0.00000000
-0.63063979 -0.43079606 0.36411345
-0.06787892 -0.33442581 0.03919118
-0.18698545 0.06601796 0.10795959
-0.20604344 0.52516896 0.11896399
-0.79772425 -0.70460528 -0.00000024
-0.03340412 -0.61837059 0.01928650
-0.01564071 0.28577507 0.00903046
-0.01011903 -0.07950194 0.00584241
-0.14699240 -0.29222423 0.08486885
-0.30782947 -0.79583800 0.17773119
-0.63689446 -0.45867696 0.36772457
-0.02020663 0.72971243 0.01166668
-0.06051822 -0.41700551 0.03494134
-0.64050591 -0.04916221 0.36981109
-0.32287523 0.12467799 0.18641882
-0.10801380 -0.51713592 0.06236381
-0.29969829 -0.22664510 0.17303649
-0.56174409 -0.02314191 0.32433584
-0.06305726 0.59707254 0.03640731
-0.32896042 -0.53098571 0.18993153
-0.38962451 -0.18979192 0.22495739
-0.49094066 0.01200358 0.28345564
-0.18414606 -0.08804187 0.10632021
-0.36894348 -0.08909308 0.21301693
-0.44337404 -0.75414228 0.25599039
-0.22432974 -0.37360919 0.12952103
-0.20141001 0.21581937 0.11628788
-0.43376467 0.29356584 0.25044438
-0.54263258 -0.27800471 0.31330055
-0.19063455 -0.79053879 0.00000000
-0.24261291 0.05231761 0.14007717
-0.57089752 -0.26952118 0.32962009
-0.53451949 -0.61808515 0.30861518
-0.47026062 -0.09256630 0.27151516
-0.17631786 -0.03753197 0.10180045
-0.41666493 -0.06256709 0.24057031
-0.06723716 0.72079331 0.03882095
-0.35724077 -0.50071210 0.20625973
-0.03881667 -0.03699389 0.02241154
-0.27077273 0.21797597 0.15633629
-0.19141665 -0.08427184 0.11051803
-0.15093353 -0.06249757 0.08714434
-0.21616305 0.31675774 0.12480620
-0.37426701 0.09701021 0.21609119
-0.66750818 -0.26563635 0.38540083
-0.09077728 -0.05869929 0.05241198
-0.59849989 -0.30953771 0.34555697
-0.49717790 -0.76289570 0.28705508
-0.11336319 0.09713295 0.06545239
-0.22875202 0.51965064 0.13207538
-0.62215996 -0.24423248 0.35921791
-0.45177656 0.01095178 0.26084319
-0.11084837 -0.36881983 0.06400041
-0.12034764 0.28415316 0.06948499
-0.25979450 -0.12307858 0.14999728
-0.06268289 -0.79894203 0.03619116
-0.30911747 -0.57673901 0.17847481
-0.27929610 0.37683225 0.16125798
-0.25077200 0.47521198 0.14478910
-0.52113479 -0.69664037 0.30088705
-0.02134743 -0.44016677 0.01232534
-0.33000875 0.34276062 0.19053821
-0.06760870 -0.65267748 0.03903516
-0.00913111 -0.79366213 0.00527202
-0.14238764 -0.74735057 0.08221020
-0.06532650 0.70689672 0.03771776
-0.42593110 0.28176355 0.24592143
-0.08752092 -0.06431064 0.05053186
-0.00398049 -0.02327172 0.00229821
-0.02923048 0.32306340 0.01687677
-0.18911298 -0.23434313 0.10918797
-0.41628030 -0.22294739 0.24034773
-0.67578912 -0.37392780 0.39018157
-0.51767212 -0.75162971 0.29888779
-0.24835718 0.00599459 0.14339373
-0.23243815 -0.73337436 0.13420255
-0.65454209 -0.72715902 0.37791279
-0.68827128 -0.61782664 0.39738747
-0.10315737 -0.42338058 0.05955986
-0.35144040 -0.37054893 0.20291078
-0.34714448 0.02328589 0.20043103
-0.18492478 -0.53597301 0.10676982
-0.22027391 -0.78760755 0.12717932
-0.25859600 -0.30297616 0.14930531
-0.09508448 -0.30497760 0.05489883
-0.63189214 -0.20953129 0.36483717
-0.20457558 -0.31128380 0.11811560
-0.22324757 -0.49590772 0.12889622
-0.04900334 -0.37147662 0.02829301
-0.50773746 -0.78289562 0.29315186
-0.14856052 -0.41608423 0.08577423
-0.61856967 -0.54040742 0.35714406
-0.11277214 -0.62146896 0.06511113
-0.16001755 -0.72433680 0.09238916
-0.58749282 -0.69161624 0.33920053
-0.18566263 -0.41233099 0.10719583
-0.05444540 0.06670208 0.03143508
-0.56905365 -0.04794813 0.32855615
-0.03868954 -0.22561230 0.02233814
-0.54909408 -0.54672831 0.31703043
-0.26614913 -0.13206983 0.15366624
-0.10130229 0.34275654 0.05848880
-0.54820257 -0.72098178 0.00000000
-0.24747492 -0.18773587 0.14288434
-0.26444897 0.48681983 0.15268593
-0.67587316 -0.48939234 0.39022964
-0.63351125 -0.71455085 0.36577019
-0.40164948 0.03379659 0.23190100
-0.12003987 0.43605700 0.06930730
-0.31414339 -0.08492048 0.18137664
-0.43497467 0.21822117 0.25114277
-0.67188275 -0.56110632 0.38792542
-0.57223362 -0.43747351 0.33039099
-0.10276944 0.36540192 0.05933588
-0.20048264 0.02295682 0.11575244
-0.45613846 0.26848000 0.26336244
-0.28063527 -0.62421781 0.16203009
-0.29730201 -0.38911283 0.17165294
-0.46859533 -0.40506136 0.27055269
-0.36662740 -0.41172990 0.21167928
-0.03010007 -0.14219698 0.01737885
-0.09827915 -0.07596749 0.05674333
-0.51993358 -0.14879456 0.30019504
-0.44037399 -0.30518383 0.25425863
-0.66126299 -0.42715538 0.38179442
-0.32403553 0.38972208 0.18708956
-0.26140931 0.20901757 0.15093005
-0.01451069 0.56786811 0.00837802
-0.50228280 -0.05010749 0.29000416
-0.67536467 -0.77833098 0.38993496
-0.37005678 -0.56213766 0.21365930
-0.47339964 -0.50539005 0.27332631
-0.40539742 -0.58515966 0.23406388
-0.39208347 -0.62942636 0.22637682
-0.57562375 -0.26558334 0.33234891
-0.36348334 -0.67281812 0.20986399
-0.36084807 -0.65852726 0.20834246
-0.56235546 -0.61533439 0.32468706
-0.56211650 -0.35903805 0.32454988
-0.45614383 -0.64762294 0.26336327
-0.24019659 -0.15744644 0.13868205
-0.00110802 0.24346882 0.00063974
-0.59344137 -0.18528251 0.34263667
-0.16004352 0.49226359 0.09240459
-0.50341016 0.21274439 0.29065588
-0.19977513 -0.13728248 0.11534396
-0.05266019 -0.11915262 0.03040436
-0.40304723 -0.57885450 0.23270695
-0.49874437 -0.40722719 0.28796005
-0.21792895 -0.12769419 0.12582541
-0.38376367 0.14572692 0.22157449
-0.75173348 -0.73460847 -0.00000016
-0.40237033 -0.35197276 0.23231614
-0.21462163 0.05841313 0.12391587
-0.57099688 -0.64373773 0.32967633
-0.10259648 -0.43872085 0.05923602
-0.39629441 -0.76814479 0.00000000
-0.04562034 -0.44443834 0.02633977
-0.30790806 -0.46611866 0.17777655
-0.17907684 -0.37586203 0.10339341
-0.30413300 0.30751944 0.17559803
-0.57806814 0.00603945 0.33376107
-0.44762221 -0.36670306 0.25844339
-0.49556059 -0.07230648 0.28612283
-0.04984583 0.42913306 0.02877943
-0.06770863 0.62641323 0.03909291
-0.12899344 -0.75680918 0.07447680
-0.26519656 0.37656534 0.15311722
-0.39015210 -0.00020156 0.22526258
-0.03132009 0.66057718 0.01808325
-0.14208867 0.29146221 0.08203759
-0.12283020 -0.32743561 0.07091834
-0.66260129 -0.38403487 0.38256726
-0.58688569 -0.74614882 0.33884984
-0.45761785 -0.50017530 0.26421434
-0.31868058 -0.48683035 0.18399628
-0.20958018 -0.53727746 0.12100509
-0.11780582 0.50804275 0.06801753
-0.22890955 0.03413453 0.13216525
-0.33640024 0.01596258 0.19422752
-0.50543338 -0.31104851 0.29182243
-0.58702922 -0.76507133 0.33893263
-0.06716874 -0.66422999 0.03878114
-0.62471467 -0.24134696 0.36069298
-0.25066113 -0.67113298 0.14472395
-0.62770331 -0.62173092 0.36241722
-0.13514112 -0.04989709 0.07802629
-0.39170712 -0.65513581 0.22615953
-0.17045292 -0.34360558 0.09841423
-0.27446592 0.26435024 0.15846880
-0.50653821 -0.00314410 0.29246128
-0.48805314 -0.62054461 0.28178671
-0.22855794 -0.77931541 0.00000000
-0.13811940 -0.52100140 0.07974585
-0.01244083 -0.12360707 0.00718295
-0.08896776 0.17854232 0.05136722
-0.12362271 -0.59181899 0.07137591
-0.37116477 0.36748368 0.21430078
-0.05422908 0.62595707 0.03131018
-0.66924340 -0.79181057 0.38640064
-0.30051807 -0.77683306 0.00000000
-0.21251790 -0.06044519 0.12270124
-0.20175590 -0.13363843 0.11648759
-0.68524021 -0.07286711 0.39563954
-0.28081667 -0.04660848 0.16213483
-0.39584389 -0.16457385 0.22854839
-0.35074455 -0.06334283 0.20250934
-0.38975874 0.24528034 0.22503622
-0.31104583 -0.67605317 0.17958821
-0.07705750 -0.21989238 0.04449061
-0.51766080 -0.49086782 0.29888171
-0.43041161 -0.24644148 0.24850675
-0.63413453 -0.26295018 0.36613172
-0.08106185 -0.60172623 0.04680259
-0.03818725 0.63144422 0.02204813
-0.60483605 -0.10951803 0.34921592
-0.09178493 0.51408029 0.05299377
-0.72381884 -0.72784656 -0.00000018
-0.21508358 -0.36771068 0.12418259
-0.16929804 0.38710281 0.09774761
-0.61677104 -0.04849574 0.35610709
-0.38807619 -0.54673320 0.22406314
-0.07436564 -0.01676260 0.04293641
-0.67253232 -0.23733479 0.38830173
-0.57353497 -0.41241041 0.33114246
-0.15154836 0.47695941 0.08749961
-0.17585646 0.10404075 0.10153406
-0.13441123 -0.41948196 0.07760487
-0.10646007 -0.38975957 0.06146674
-0.51722836 -0.37740061 0.29863241
-0.79328370 -0.71852177 -0.00000020
-0.06695747 0.34726945 0.03865916
-0.39406893 0.19137903 0.22752465
-0.55158120 0.05901071 0.31846830
-0.25023869 0.35220966 0.14448081
-0.28306150 0.03692317 0.16343100
-0.35732293 -0.77272415 0.20630717
-0.10496120 -0.56646395 0.06060134
-0.38186127 0.08842999 0.22047591
-0.48472583 -0.45426029 0.27986592
-0.09571290 0.54996085 0.05526171
-0.40206406 -0.75431019 0.00000000
-0.14443418 -0.39411959 0.08339181
-0.45155489 -0.22137278 0.26071450
-0.05312720 -0.27088356 0.03067400
-0.03688371 0.69921029 0.02129551
-0.39235812 -0.79464275 0.22653539
-0.67193627 -0.05729988 0.38795823
-0.01947496 0.09248682 0.01124424
-0.25193557 0.07566790 0.14545977
-0.50355524 -0.61692691 0.29073715
-0.57393432 -0.77444750 0.00000000
-0.26995271 -0.69184113 0.15586232
-0.09359441 0.14343652 0.05403851
-0.14304069 -0.22002637 0.08258725
-0.52232379 -0.62286645 0.30157363
-0.53289223 -0.04502896 0.30767736
-0.18090257 0.48893109 0.10444811
-0.03170380 -0.55163401 0.01830479
-0.42353699 -0.08978040 0.24453799
-0.54181206 -0.27080151 0.31282681
-0.07994322 -0.43650591 0.04615673
-0.32228553 0.12868714 0.18607834
-0.43741092 0.05797368 0.25254893
-0.05799202 -0.12054148 0.03348279
-0.12205619 -0.00467353 0.07047146
-0.15907384 0.44574305 0.09184457
-0.46922389 -0.01224232 0.27091682
-0.16887230 0.53217876 0.09750223
-0.64614666 -0.57060355 0.37306610
-0.23100869 0.48116374 0.13337822
-0.25358936 0.44745746 0.14641570
-0.59856129 0.00199098 0.34559333
-0.09182543 -0.03216845 0.05301715
-0.33791673 0.09813662 0.19510335
-0.13409401 0.59142989 0.07742222
-0.41325507 -0.72720611 0.23860064
-0.59638405 -0.12643290 0.34433585
-0.11985953 0.59792209 0.06920357
-0.14996925 0.23121160 0.08658759
-0.08744413 0.22409952 0.05048753
-0.24663900 0.27691168 0.14240220
-0.64024264 -0.63205141 0.36965707
-0.20863454 0.10708214 0.12045911
-0.10981335 -0.27940744 0.06340282
-0.12483109 -0.20519525 0.07207360
-0.16717380 -0.24143025 0.09652096
-0.09891561 -0.01763333 0.05711080
-0.18447103 0.54616708 0.10650863
-0.06546077 0.40214896 0.03779502
-0.02976828 0.54668975 0.01718728
-0.18290053 -0.79544699 0.10560109
-0.19062527 -0.22640947 0.11006111
-0.07970428 0.00027329 0.04601878
-0.22425731 -0.08559436 0.12947920
-0.21293929 -0.70832425 0.12294453
-0.39757809 -0.63674986 0.22954924
-0.23035450 -0.17833596 0.13299954
-0.10908191 -0.36924320 0.06298051
-0.68908083 -0.76949656 0.39785430
-0.20246848 0.33828110 0.11689933
-0.63151485 -0.20753708 0.36461937
-0.34717509 -0.51552016 0.20044813
-0.18217950 -0.72837806 0.10518478
-0.37587002 -0.60965568 0.21701568
-0.32175457 -0.71484071 0.18577109
-0.32108620 -0.15498225 0.18538521
-0.23297364 0.17305897 0.13451181
-0.10167180 0.56920159 0.05870230
-0.16486669 -0.08296584 0.09518891
-0.66893768 -0.79096055 -0.00000002
-0.07453494 0.45365906 0.04303416
-0.31880894 0.27292392 0.18407150
-0.35240260 0.01645810 0.20346692
-0.05175089 0.16711564 0.02987936
-0.13577212 -0.77133483 0.07839061
-0.47017986 -0.47978342 0.27146736
-0.02897468 -0.51387298 0.01672908
-0.25341520 -0.55628169 0.14631407
-0.34775817 -0.64866179 0.20078477
-0.61140835 -0.61788458 0.35300899
-0.02672106 0.55787468 0.01542791
-0.13220839 0.13918433 0.07633302
-0.67933047 -0.76051199 -0.00000010
-0.47561884 -0.70732296 0.27460754
-0.65446073 0.03597774 0.37786853
-0.15610006 -0.32226887 0.09012734
-0.41434595 -0.57777721 0.23923048
-0.54933286 -0.01139447 0.31716993
-0.12956917 0.54788959 0.07480955
-0.65493643 -0.62614316 0.37814087
-0.08754463 -0.50196022 0.05054555
-0.07538938 -0.27677321 0.04352749
-0.04825680 -0.23947498 0.02786198
-0.02309169 0.00601771 0.01333242
-0.23994239 -0.63743317 0.13853528
-0.44479927 -0.39233708 0.25681344
-0.10486286 0.26363978 0.06054456
-0.22085088 -0.16400672 0.12751244
-0.33510676 -0.65267402 0.19348022
-0.64340603 -0.18702061 0.37148511
-0.56500655 -0.27150813 0.32621875
-0.14975338 -0.77793950 0.00000000
-0.43153593 -0.19090369 0.24915609
-0.49405381 -0.59596556 0.28525132
-0.23600563 -0.74651098 0.13626233
-0.54942405 -0.74351883 0.00000000
-0.09125832 0.02578977 0.05268972
-0.39896369 0.20100914 0.23035081
-0.45293203 -0.64753354 0.26150888
-0.16092081 -0.09504462 0.09291068
-0.27564740 0.03505990 0.15915026
-0.71693295 -0.75289047 -0.00000012
-0.11710255 0.23381864 0.06761138
-0.12981603 -0.39446005 0.07495174
-0.24553885 0.39121056 0.14176735
-0.00647187 -0.63141364 0.00373666
-0.33891061 -0.25039381 0.19567646
-0.50990301 -0.44454303 0.29440269
-0.38424557 -0.10445926 0.22185196
-0.41121411 -0.73362005 0.23742224
-0.49192423 -0.54389536 0.28402185
-0.38985935 0.06656111 0.22509377
-0.35526365 0.33241525 0.20511979
-0.66580170 -0.78650141 0.38441354
-0.35846806 0.27282149 0.20696975
-0.48750743 0.18029886 0.28147390
-0.46708333 -0.66494852 0.26967940
-0.65010750 0.01378573 0.37535501
-0.62624788 0.06510355 0.36157915
-0.68904859 -0.38394994 0.39783719
-0.19992749 -0.01743134 0.11543192
-0.52506661 -0.71911561 0.30315715
-0.38163689 -0.42164591 0.22034529
-0.49369326 -0.07096493 0.28504470
-0.47480226 -0.68775904 0.27413610
-0.19625618 -0.16256849 0.11331222
-0.58182299 -0.77559346 0.00000000
-0.31418446 0.07556846 0.18140082
-0.61447895 -0.18007700 0.35478330
-0.04409835 0.01167546 0.02546102
-0.41106895 -0.63245475 0.23733845
-0.68809402 -0.20980854 0.39728671
-0.66559374 -0.17395112 0.38429582
-0.39900443 -0.31089085 0.23037277
-0.36059093 -0.14624807 0.20819418
-0.07621315 -0.40139052 0.04400311
-0.23366061 0.49862215 0.13490945
-0.10025667 0.30934858 0.05788509
-0.64537621 -0.08845558 0.37262294
-0.46781003 -0.36624080 0.27009940
-0.12412456 -0.36827487 0.07166567
-0.34546471 -0.28945121 0.19946060
-0.14224258 -0.39696747 0.08212645
-0.60173732 -0.09041979 0.34742683
-0.02110033 -0.72594655 0.01218267
-0.65407437 -0.48111978 0.37764370
-0.36870012 -0.65287113 0.21287599
-0.50990379 -0.09591861 0.29440421
-0.67916214 -0.77234972 -0.00000007
-0.55095357 -0.14558408 0.31810528
-0.38210812 -0.79197943 0.22061737
-0.01540182 -0.39400455 0.00889254
-0.53187132 0.07415408 0.30708829
-0.11698262 0.39978623 0.06754213
-0.59967351 -0.02019513 0.34623545
-0.66046661 -0.74005449 0.38133335
-0.31344199 0.05789769 0.18097207
-0.15095761 -0.15324695 0.08715824
-0.05232939 -0.76039994 0.03021337
-0.26810461 0.48431846 0.15479659
-0.19679029 -0.68448627 0.11362061
-0.05834187 -0.43378687 0.03368478
-0.59809464 -0.53820431 0.34532228
-0.57087481 0.06289272 0.32960799
-0.03113474 -0.52182990 0.01797623
-0.26637301 -0.28215060 0.15379551
-0.11281968 -0.16195017 0.06513858
-0.68934488 -0.19307593 0.39800900
-0.16028368 -0.20621246 0.09254283
-0.08719267 -0.79543650 0.05034234
-0.21825609 0.43894246 0.12601504
-0.68379664 -0.78330255 0.39480332
-0.08245803 -0.60389400 0.04760871
-0.32279548 0.21146484 0.18637304
-0.79018599 -0.69768912 -0.00000026
-0.49939674 0.14519131 0.28833842
-0.19004305 -0.55448622 0.10972496
-0.37456131 -0.59658509 0.21626008
-0.18566956 0.08774899 0.10719983
-0.00145858 0.55638760 0.00084214
-0.07854428 0.37412050 0.04534903
-0.03099645 0.30947280 0.01789638
-0.51116687 -0.52160305 0.29513219
-0.54855841 -0.78728431 0.31672060
-0.32090667 0.34290460 0.18528287
-0.34696189 -0.77121997 0.20032503
-0.69277781 -0.77430743 0.39998880
-0.34642336 -0.01237994 0.20001455
-0.05800473 0.11435978 0.03349013
-0.01700425 -0.37307289 0.00981773
-0.65770543 -0.23301218 0.37974113
-0.05452162 -0.27093038 0.03147909
-0.47957838 -0.51488960 0.27689373
-0.40917188 0.08624109 0.23624443
-0.48955661 -0.37819013 0.28265536
-0.68683761 -0.68226808 0.39655945
-0.30122408 0.42837167 0.17391884
-0.16875377 0.51510078 0.09743375
-0.77186871 -0.76375967 -0.00000009
-0.66581970 -0.23875335 0.38442606
-0.11659417 -0.43140042 0.06731785
-0.02760134 0.28118950 0.01593616
-0.04641375 0.08337705 0.02679786
-0.62914127 -0.49808770 0.36324799
-0.19067602 -0.43745828 0.11009042
-0.32796979 -0.69285566 0.18935958
-0.07804402 0.67321736 0.04506047
-0.39297614 0.17554411 0.22689365
-0.57362390 0.04313994 0.33119518
-0.67786694 -0.50002289 0.39138073
-0.10784429 0.12504549 0.06226595
-0.46464318 0.26345551 0.26827285
-0.62371242 -0.60645276 0.36011308
-0.35290933 -0.19719709 0.20375888
-0.32035220 0.17001653 0.18496221
-0.35697049 -0.07146988 0.20610406
-0.36557817 -0.47072089 0.21107349
-0.02359197 0.45307547 0.01362127
-0.24972780 -0.65035039 0.14418508
-0.07012964 -0.15246904 0.04049068
-0.01013931 0.33133158 0.00585412
-0.44822076 -0.57793123 0.25878876
-0.32642421 -0.48167995 0.18846720
-0.13895176 -0.77168876 0.08022643
-0.67356181 -0.65880340 0.38889450
-0.75599629 -0.75372016 -0.00000012
-0.12898302 0.35832158 0.07447079
-0.63056225 0.06424061 0.36407018
-0.56579542 -0.18957552 0.32667449
-0.29578480 -0.59779406 0.17077695
-0.07137165 -0.57193565 0.04120777
-0.01368550 0.64843118 0.00790158
-0.32650819 0.16237278 0.18851653
-0.02453978 -0.25768062 0.01416851
-0.03642911 0.73576850 0.02103315
-0.68621963 -0.29437441 0.39620420
-0.61267877 -0.02074063 0.35374439
-0.25118729 0.33834755 0.14502846
-0.38209584 -0.68664032 0.22061026
-0.56303048 -0.36895722 0.32507753
-0.22264075 -0.54182625 0.12854585
-0.20706189 0.47265244 0.11955186
-0.21800829 0.21398413 0.12587129
-0.20451294 0.04422493 0.11807942
-0.54161978 -0.79242092 0.31271443
-0.14592472 -0.08618196 0.08425240
-0.21765734 0.24677056 0.12566876
-0.27937597 -0.21870905 0.16130300
-0.26915076 -0.44165513 0.15539929
-0.07068429 0.14631934 0.04081091
-0.63780856 -0.11483324 0.36825350
-0.50658762 -0.10866854 0.29248950
-0.27980322 -0.75784445 0.16154969
-0.11475602 -0.33520249 0.06625656
-0.14698882 0.05402124 0.08486679
-0.45924518 -0.35992879 0.26515427
-0.68750083 -0.71699035 -0.00000021
-0.04090034 -0.72071558 0.02361459
-0.67097825 -0.74077034 -0.00000014
-0.50866222 0.06048212 0.29368782
-0.56941700 -0.52646840 0.32876450
-0.01725847 -0.65014452 0.00996450
-0.56371748 -0.53553963 0.32547370
-0.23668331 -0.29341453 0.13665360
-0.20990425 -0.67930198 0.12119220
-0.07808644 -0.59386069 0.04508468
-0.15815836 -0.02256175 0.09131572
-0.53034270 -0.10193310 0.30620515
-0.63058448 -0.62057471 0.36408076
-0.34441915 0.39278033 0.19885860
-0.62759382 -0.41266236 0.36235482
-0.44790298 -0.73313320 0.25860527
-0.38912767 -0.59345102 0.22467023
-0.20379803 -0.77078503 0.00000000
-0.16818446 -0.68382686 0.09710449
-0.45787138 -0.16733754 0.26436165
-0.20164613 -0.15067478 0.11642422
-0.23816264 -0.67862880 0.13750771
-0.56356752 -0.35359040 0.32538766
-0.49245709 0.18837439 0.28433174
-0.32660568 0.17960329 0.18857285
-0.04953874 -0.57526439 0.02860213
-0.45466468 -0.48891807 0.26250926
-0.36388293 0.23586322 0.21009608
-0.08759419 -0.69824243 0.05057417
-0.56890082 -0.28361538 0.32846719
-0.40642044 -0.27853698 0.23465471
-0.19329718 0.22973169 0.11160379
-0.12986618 -0.52908140 0.07498070
-0.01283892 0.66273069 0.00741280
-0.32326165 -0.43867815 0.18664125
-0.74135208 -0.73120159 -0.00000017
-0.15088202 -0.32306758 0.08711459
-0.36728665 -0.56200212 0.21205992
-0.44960219 0.11453238 0.25958806
-0.35254562 -0.30698135 0.20354889
-0.61279935 -0.72346330 0.35381171
-0.50754476 -0.06562690 0.29304224
-0.15688790 -0.29954606 0.09058221
-0.51956517 0.19699699 0.29998335
-0.05255398 -0.09213581 0.03034304
-0.55225474 0.05190031 0.31885713
-0.01992357 -0.73921502 0.01150325
-0.49654868 -0.18590201 0.28669301
-0.41576970 -0.74504030 0.24005252
-0.06389837 -0.65178007 0.03689293
-0.57622308 -0.43013015 0.33269447
-0.46568778 -0.31700850 0.26887420
-0.19950020 0.09505517 0.11518522
-0.65204054 -0.13747285 0.37647063
-0.17953792 0.54073900 0.10366035
-0.19556889 0.50275248 0.11291616
-0.34522852 0.35865530 0.19932580
-0.34710935 0.01785684 0.20041072
-0.17043470 -0.09946763 0.09840370
-0.01643064 0.47339568 0.00948654
-0.41880977 0.16725771 0.24180938
-0.00371932 -0.20022342 0.00214742
-0.33886009 -0.48009908 0.19564728
-0.19771329 0.38139662 0.11415391
-0.57851017 -0.78185421 0.33401391
-0.29120761 0.06396220 0.16813447
-0.04270996 0.30249485 0.02465940
-0.17282797 0.09604392 0.09978551
-0.50936490 -0.43956622 0.29409203
-0.39615142 0.24093202 0.22872718
-0.53037965 0.16599627 0.30622730
-0.30797359 -0.43857649 0.17781439
-0.08710121 -0.66243660 0.05028953
-0.59943622 -0.40344581 0.34609726
-0.30892521 -0.78314537 0.00000000
-0.27851748 -0.61151361 0.16080734
-0.63435531 -0.48051968 0.36625844
-0.60716629 -0.22304235 0.35056099
-0.30152863 0.33466363 0.17409442
-0.68154585 -0.69923538 -0.00000025
-0.13864270 -0.25904045 0.08004799
-0.45856449 -0.04063518 0.26476222
-0.11840485 -0.27723917 0.06836328
-0.42597413 -0.60470408 0.24594425
-0.27763337 0.34723648 0.16029786
-0.48917103 -0.03972331 0.28243375
-0.29652730 -0.28233206 0.17120565
-0.29885575 -0.11803764 0.17255002
-0.48873681 -0.66444725 0.28218144
-0.11299110 0.65459222 0.06523807
-0.22462976 0.42128247 0.12969500
-0.27577779 -0.32773188 0.15922554
-0.06492487 -0.78936416 0.03748561
-0.04319342 0.00574636 0.02493854
-0.39091873 -0.67292327 0.22570434
-0.48960051 -0.29087931 0.28268096
-0.58110821 -0.59231573 0.33551452
-0.38151219 -0.04661254 0.22027396
-0.09051420 0.32957047 0.05226009
-0.41310266 -0.64438260 0.23851265
-0.24138787 0.14741501 0.13936992
-0.04769075 -0.62726951 0.02753516
-0.22116546 -0.51753539 0.12769409
-0.05987833 -0.38323620 0.03457189
-0.56872708 -0.43478450 0.32836640
-0.51529884 -0.08533467 0.29751921
-0.08570599 0.16630355 0.04948398
-0.26733083 0.26294988 0.15434916
-0.47452828 -0.26201159 0.27397868
-0.02000538 0.71243387 0.01155048
-0.16075169 0.58598071 0.09281374
-0.57118607 -0.18406659 0.32978696
-0.05174523 -0.45210832 0.02987609
-0.20883754 -0.22775543 0.12057631
-0.46952620 -0.25609231 0.27109060
-0.16367704 -0.32111087 0.09450203
-0.30138391 -0.42612234 0.17400973
-0.47196564 -0.04845423 0.27249974
-0.09780749 -0.07925088 0.05647101
-0.39391133 0.28936967 0.22743395
-0.11487484 0.40249521 0.06632517
-0.06779182 -0.50463831 0.03914089
-0.08630197 -0.57078612 0.04982808
-0.44904843 0.04113868 0.25926813
-0.60442859 -0.23967946 0.34898025
-0.70435762 -0.75075960 -0.00000012
-0.73231590 -0.76465446 -0.00000009
-0.51540697 -0.37661475 0.29758078
-0.11665238 0.35448742 0.06735146
-0.54885167 -0.25617209 0.31689137
-0.00323271 -0.64937836 0.00186647
-0.57942092 -0.69102919 0.33454001
-0.53734946 -0.66895896 0.31024897
-0.65813786 -0.79834092 0.37998858
-0.30282184 0.01653189 0.17484011
-0.46688554 0.01510892 0.26956677
-0.33947283 -0.12112187 0.19600116
-0.64433706 -0.75758022 0.00000000
-0.04064977 -0.16832054 0.02346991
-0.65956122 -0.63023412 0.38081104
-0.19011626 -0.17151044 0.10976723
-0.67142570 0.01055702 0.38766363
-0.27442062 -0.02127604 0.15844195
-0.69235456 -0.51755059 0.39974543
-0.39467442 -0.76404655 0.00000000
-0.45021498 -0.73313957 0.25994015
-0.52578819 -0.61815250 0.30357391
-0.02706983 -0.06442449 0.01562928
-0.21650760 -0.14644647 0.12500477
-0.60676926 -0.29522085 0.35033157
-0.15125567 -0.29485124 0.08733033
-0.11305844 -0.45387453 0.06527643
-0.36048493 -0.07207324 0.20813321
-0.17412405 0.42462137 0.10053415
-0.08053551 0.19271378 0.04649871
-0.09170986 -0.38131455 0.05295043
-0.28582284 -0.05535360 0.16502523
-0.04013715 0.11870562 0.02317394
-0.10143347 0.65894997 0.05856497
-0.53263044 -0.57808858 0.30752462
-0.00699569 0.46904442 0.00403910
-0.41355908 0.02699079 0.23877732
-0.39909902 -0.23847915 0.23042761
-0.09280027 0.35790488 0.05357999
-0.12965031 0.38636976 0.07485606
-0.33216700 -0.29091990 0.19178292
-0.02311275 0.61672819 0.01334458
-0.24180557 -0.35420841 0.13961104
-0.18738928 -0.71468306 0.10819275
-0.49217582 -0.41773444 0.28416750
-0.15393168 0.15029861 0.08887537
-0.11747254 -0.44575140 0.06782500
-0.34962487 0.32672751 0.20186406
-0.10884500 -0.41140452 0.06284372
-0.21993975 -0.66429549 0.12698638
-0.30631256 -0.28524739 0.17685536
-0.56626612 -0.46022519 0.32694545
-0.18790248 -0.38539687 0.10848905
-0.35654438 0.04904208 0.20585839
-0.08401924 0.01605494 0.04851010
-0.25940740 -0.03935583 0.14977378
-0.62447929 -0.15855268 0.36055732
-0.68507373 -0.46245828 0.39554191
-0.36724707 -0.32916608 0.21203706
-0.25686234 0.17571215 0.14830461
-0.12596805 -0.64682811 0.07273005
-0.51126063 -0.24863917 0.29518715
-0.13676535 0.59782118 0.07896460
-0.12232924 -0.52873224 0.07062911
-0.64722639 -0.57878685 0.37368947
-0.04924781 -0.20011573 0.02843416
-0.56757200 -0.74875081 0.32769856
-0.39215532 -0.51612025 0.22641830
-0.55964547 -0.12075128 0.32312384
-0.68381584 0.00718833 0.39481741
-0.32829222 -0.65774107 0.18954574
-0.65291518 -0.39263865 0.37697473
-0.16189945 -0.64795929 0.09347571
-0.48609573 -0.00661878 0.28065825
-0.57802063 -0.73136473 0.33373141
-0.26223281 -0.60076302 0.15140510
-0.63593602 -0.72912651 0.36717016
-0.16741921 0.12842560 0.09666265
-0.67471069 -0.74312890 0.38955748
-0.19208872 -0.04320821 0.11090606
-0.34066042 0.12916476 0.19668759
-0.28022692 -0.35326716 0.16179432
-0.48032990 -0.11208851 0.27732888
-0.38965026 -0.79872429 0.00000000
-0.50993353 -0.20719045 0.29442105
-0.58682865 -0.42049578 0.33881789
-0.03426222 0.65011293 0.01978194
-0.01672148 -0.35243812 0.00965446
-0.36266616 -0.29346272 0.20939218
-0.29470310 -0.26418793 0.17015241
-0.34027830 0.17456931 0.19646712
-0.60086882 0.00798183 0.34692568
-0.12785788 0.48021978 0.07382128
-0.11530388 -0.00965158 0.06657288
-0.53846323 0.09539213 0.31089437
-0.40958521 -0.02933069 0.23648274
-0.16262577 0.37708783 0.09389517
-0.33043292 0.21491957 0.19078273
-0.30750462 -0.28003132 0.17754363
-0.17371692 -0.29122040 0.10029875
-0.17134619 -0.05635240 0.09892997
-0.66639644 -0.60577565 0.38475761
-0.10016646 0.02684235 0.05783300
-0.12192319 -0.28142101 0.07039466
-0.60495281 -0.00008841 0.34928367
-0.27375054 0.23457348 0.15805566
-0.53257686 -0.38853380 0.30749425
-0.03146312 -0.69808674 0.01816583
-0.29975966 -0.11837935 0.17307191
-0.14443392 -0.38920000 0.08339166
-0.09513073 -0.75396562 0.05492553
-0.31513250 -0.29834685 0.18194772
-0.29307383 -0.03447292 0.16921173
-0.46323732 0.14388491 0.26746076
-0.08126476 0.12936816 0.04691975
-0.25452152 0.32540062 0.14695352
-0.13890374 -0.64082289 0.08019870
-0.63825887 -0.72673076 0.36851132
-0.15007319 -0.36751032 0.08664760
-0.47045487 -0.40190810 0.27162635
-0.53974086 -0.12210116 0.31163138
-0.57179308 0.01926271 0.33013803
-0.37417674 -0.11550068 0.21603844
-0.37720284 0.20042847 0.21778658
-0.23627871 0.35008773 0.13642064
-0.51410496 -0.11780802 0.29682982
-0.04345562 0.57621890 0.02508993
-0.67152780 -0.60209876 0.38772032
-0.30230793 -0.67869180 0.17454322
-0.54315233 -0.77677935 0.00000000
-0.41050738 -0.10979076 0.23701492
-0.56433916 -0.66619891 0.32583225
-0.58467573 -0.65279114 0.33757415
-0.10884791 -0.56491739 0.06284540
-0.58932942 -0.74135137 0.34026077
-0.21878111 0.11456695 0.12631743
-0.40293169 -0.49732918 0.23264025
-0.68634695 -0.33309227 0.39627752
-0.24093306 -0.38504532 0.13910727
-0.00870030 -0.64626497 0.00502329
-0.54649323 0.10920996 0.31553075
-0.06014597 0.22028647 0.03472642
-0.30832264 0.34703696 0.17801715
-0.42900926 -0.13614692 0.24769741
-0.09891135 0.01821928 0.05710834
-0.04611071 -0.56206131 0.02662289
-0.05241850 -0.63912010 0.03026481
-0.10232904 -0.43191481 0.05908161
-0.13917677 -0.47358185 0.08035634
-0.07939203 0.14308946 0.04583849
-0.40810621 -0.24379484 0.23562814
-0.02068841 0.68113160 0.01194484
-0.06387341 -0.03007532 0.03687852
-0.12046675 0.63191742 0.06955427
-0.66555029 -0.72859603 0.38426858
-0.49875495 -0.77926779 0.00000000
-0.11114808 -0.71664017 0.06417345
-0.05242811 0.52478123 0.03027036
-0.11871124 0.17797095 0.06854019
-0.03941924 0.52027804 0.02275944
-0.15733384 -0.19697054 0.09083968
-0.25394586 -0.56011224 0.14662045
-0.59203970 -0.52613699 0.34182632
-0.00969211 -0.68530989 0.00559592
-0.14362112 0.13549210 0.08292237
-0.17693606 0.52331138 0.10215804
-0.00522311 0.30384985 0.00301566
-0.61910439 -0.52867693 0.35745281
-0.07446993 0.05865423 0.04299663
-0.36742911 -0.05543332 0.21214268
-0.01602330 0.70574832 0.00925136
-0.04078900 0.13139167 0.02355030
-0.48714674 -0.72026289 0.28126341
-0.67045921 -0.46315631 0.38710392
-0.65009511 -0.34356979 0.37534669
-0.15572195 0.20382118 0.08990902
-0.49365321 -0.63290125 0.28502005
-0.20619711 -0.48827419 0.11905181
-0.11841908 -0.71331233 0.06837150
-0.00649976 0.22698015 0.00375276
-0.25316510 -0.76505244 0.14616966
-0.18660051 0.00373327 0.10773734
-0.57729822 -0.17689566 0.33331600
-0.47637886 -0.40425628 0.27504674
-0.53444713 -0.35512286 0.30857420
-0.37934288 0.05409649 0.21902175
-0.23573682 0.44519252 0.13610804
-0.36974981 -0.52427107 0.21348207
-0.15669098 0.61815262 0.09046929
-0.00893078 0.60058910 0.00515635
-0.11834547 -0.21956068 0.06832900
-0.48336181 0.17757891 0.27908030
-0.62335426 -0.79289436 0.00000000
-0.02062862 -0.46273223 0.01191032
-0.27666458 -0.76605242 0.15973754
-0.05248182 0.24068902 0.03030137
-0.11810573 -0.49952427 0.06819058
-0.65605432 -0.29411992 0.37878758
-0.18292852 -0.64543492 0.10561725
-0.10086578 0.10978085 0.05823677
-0.19661660 0.30318984 0.11352048
-0.10955059 0.14888079 0.06325111
-0.64222807 -0.29892164 0.37080464
-0.32656947 -0.24612553 0.18855107
-0.51579094 0.02355036 0.29780367
-0.34166214 0.15191190 0.19726604
-0.16381609 -0.35050568 0.09458232
-0.45609525 0.02148250 0.26333672
-0.00807218 0.23023696 0.00466063
-0.01718590 -0.36358887 0.00992261
-0.61836070 -0.67334616 0.35702288
-0.65812296 0.03965876 0.37998304
-0.30971849 -0.09628403 0.17882185
-0.28146458 -0.61726731 0.16250890
-0.12781861 0.24752691 0.07379850
-0.16694216 0.38338077 0.09638737
-0.14435212 -0.30449024 0.08334444
-0.32927984 -0.62368399 0.19011594
-0.66363066 -0.33659208 0.38316178
-0.41375017 -0.35196725 0.23888651
-0.50135487 -0.26229325 0.28946775
-0.17545557 -0.66818982 0.10130260
-0.39084360 -0.43692076 0.22566096
-0.02325014 0.67702603 0.01342391
-0.52225280 -0.12441341 0.30153415
-0.35736462 -0.60833389 0.20633122
-0.14092129 0.56058973 0.08136405
-0.14291888 -0.59951884 0.08251692
-0.14410666 -0.47588149 0.08320271
-0.24293439 -0.20514677 0.14026277
-0.07164482 0.53105652 0.04136549
-0.41471061 -0.53832096 0.23944104
-0.03247341 0.70488119 0.01874914
-0.41305062 -0.31780362 0.23848270
-0.22956869 -0.62609947 0.13254584
-0.47543290 -0.56108135 0.27450019
-0.43299773 -0.76223999 0.00000000
-0.31773415 -0.34563288 0.18344983
-0.23825763 0.44557756 0.13756350
-0.22163142 -0.45632938 0.12796310
-0.44933569 0.12998793 0.25943425
-0.47419393 0.20620017 0.27378705
-0.26426780 0.40568632 0.15258107
-0.05816999 -0.69473886 0.03358554
-0.31138656 0.05612793 0.17978530
-0.18436356 -0.78560567 0.00000000
-0.41809860 0.11515567 0.24139860
-0.19717573 0.51629061 0.11384395
-0.20382994 -0.20827724 0.11768508
-0.79224175 -0.76878595 -0.00000008
-0.66813213 -0.48899603 0.38576019
-0.32205591 0.04721442 0.18594553
-0.23046903 -0.21052600 0.13306566
-0.57767296 0.00043702 0.33353290
-0.56220508 -0.64744729 0.32460013
-0.44521737 -0.26357216 0.25705522
-0.38005868 -0.59764963 0.21943408
-0.61090255 -0.75587410 0.35271645
-0.61044091 -0.36850539 0.35245126
-0.57654667 -0.55380571 0.33288091
-0.50366712 -0.76123321 0.29080173
-0.66486984 -0.37829271 0.38387710
-0.61390013 -0.17018147 0.35444912
-0.49857238 -0.33650833 0.28786099
-0.27087086 0.44318733 0.15639363
-0.04634067 0.44369543 0.02675566
-0.43897441 -0.04291555 0.25345135
-0.38101938 0.02366591 0.21998963
-0.64975500 -0.31700721 0.37515047
-0.27506509 -0.44102618 0.15881404
-0.13859570 0.28528482 0.08002085
-0.44219840 -0.37895110 0.25531179
-0.35101193 -0.43411911 0.20266339
-0.00170867 -0.49063858 0.00098653
-0.47111154 -0.06554832 0.27200654
-0.04837303 0.20222938 0.02792908
-0.50615829 -0.65010506 0.29224008
-0.39892888 -0.33603117 0.23032916
-0.67106521 -0.77980453 0.38745254
-0.25371495 -0.47763136 0.14648713
-0.46416357 -0.47092772 0.26799372
-0.49197394 -0.18069784 0.28405166
-0.16617130 0.06090056 0.09594214
-0.21240567 -0.71215457 0.12263644
-0.23551980 0.29592961 0.13598228
-0.05818840 0.43298760 0.03359617
-0.20989607 -0.32423276 0.12118748
-0.06697247 0.53605556 0.03866782
-0.15327828 0.51603144 0.08849855
-0.68376744 -0.70740563 0.39478672
-0.05234766 0.23828728 0.03022392
-0.17828257 -0.51747471 0.10293483
-0.34936237 -0.71036863 0.20171098
-0.29971111 0.17377821 0.17304452
-0.58633900 -0.70949900 0.00000000
-0.23840213 -0.18227565 0.13764599
-0.52740669 -0.25264177 0.30450952
-0.48538816 -0.79653192 0.28024805
-0.04352567 -0.70505106 0.02513037
-0.03613694 0.07744841 0.02086435
-0.02467700 0.40165770 0.01424773
-0.13490514 0.63146275 0.07789068
-0.19287312 0.15553632 0.11135895
-0.36153263 -0.77101666 0.00000000
-0.40065339 0.04588104 0.23132592
-0.25865927 -0.10017961 0.14934184
-0.19226280 -0.63792151 0.11100657
-0.09283415 0.29768637 0.05359955
-0.11608742 -0.12075075 0.06702527
-0.01903220 -0.45653099 0.01098860
-0.28519943 -0.00688667 0.16466530
-0.18997900 0.51785290 0.10968872
-0.42030126 0.05456450 0.24267019
-0.47046566 -0.08653818 0.27163357
-0.22501655 -0.34422126 0.12991758
-0.31865427 0.42570141 0.18398264
-0.45461822 0.21883991 0.26248452
-0.19901906 -0.52579743 0.11490743
-0.66512030 -0.37030905 0.38402173
-0.53768349 0.14187959 0.31044430
-0.10938000 -0.79579234 0.06315262
-0.57642275 -0.51357704 0.33280948
-0.11702492 -0.41355601 0.06756655
-0.15060920 -0.02136782 0.08695707
-0.54202086 -0.46591333 0.31294674
-0.00036358 0.64089608 0.00020992
-0.29659501 0.43665710 0.17124616
-0.05096944 -0.51054060 0.02942817
-0.67930543 -0.09360721 0.39221290
-0.09759341 -0.17221706 0.05634741
-0.18231653 0.24161063 0.10526390
-0.40353394 -0.63034487 0.23298797
-0.06409103 0.27110818 0.03700417
-0.38030002 0.19503368 0.21957481
-0.10885309 -0.63942719 0.06284840
-0.15709963 -0.28408805 0.09070445
-0.39808080 0.21630082 0.22984108
-0.15586136 0.31114024 0.08998951
-0.35167035 0.19534944 0.20304468
-0.11327755 -0.20318832 0.06540294
-0.55931115 -0.55109429 0.32292953
-0.62005037 -0.14193057 0.35800022
-0.24915607 -0.22076426 0.14385498
-0.14336544 -0.26109228 0.08277476
-0.43464515 0.00167878 0.25095186
-0.23149440 -0.28220132 0.13365768
-0.08982391 -0.33400673 0.05186154
-0.55697900 0.01530072 0.32158470
-0.18313883 -0.49723864 0.10573867
-0.15694474 0.17632480 0.09061502
-0.21866675 0.37058708 0.12625194
-0.18678606 0.19582497 0.10784446
-0.61077696 -0.18818349 0.35264581
-0.31438190 -0.02569578 0.18151450
-0.45149556 -0.70793682 0.26067951
-0.51742756 -0.18669094 0.29874802
-0.47239217 -0.73288226 0.00000000
-0.09516719 0.49697798 0.05494658
-0.01887584 -0.46639943 0.01089833
-0.58959198 -0.51330042 0.34041312
-0.52930927 -0.26947963 0.30560797
-0.13396230 0.11790907 0.07734567
-0.20418786 -0.52701294 0.11789172
-0.07370706 -0.00549289 0.04255617
-0.20682295 0.29482839 0.11941337
-0.49140194 0.14092354 0.28372240
-0.24318682 0.20869920 0.14040878
-0.33760619 0.37043560 0.19492488
-0.34519953 -0.08143956 0.19930772
-0.44856179 -0.44141984 0.25898567
-0.46851632 -0.44090644 0.27050698
-0.27763295 -0.74069321 0.16029663
-0.15211733 0.39743769 0.08782789
-0.19274153 -0.64690888 0.11128298
-0.31360161 -0.74761295 0.18106385
-0.35321891 -0.15799509 0.20393771
-0.33583504 -0.06272552 0.19390094
-0.36786085 -0.24255002 0.21239144
-0.68900341 -0.13303369 0.39781210
-0.47993872 -0.13157423 0.27710295
-0.09479388 -0.73351276 0.05473104
-0.17356907 0.31921294 0.10021340
-0.06545126 -0.62161487 0.03778952
-0.11386958 0.66045499 0.06574530
-0.47411156 -0.70886511 0.27373728
-0.65260774 -0.52392972 0.37679672
-0.61071151 -0.79247892 0.00000000
-0.01857088 -0.42955807 0.01072225
-0.21372709 0.16515617 0.12339938
-0.68255025 -0.77600324 0.39408371
-0.46313602 -0.57553470 0.26740035
-0.40207642 -0.45283419 0.23214643
-0.20262980 -0.76666367 0.11699215
-0.12363953 -0.28318971 0.07138562
-0.49688616 0.07872283 0.28688866
-0.34086496 0.01009462 0.19680531
-0.27669629 0.46463573 0.15975717
-0.19445834 0.06304830 0.11227421
-0.09002029 0.01026676 0.05197492
-0.16413064 -0.78621322 0.00000000
-0.01720437 0.31278884 0.00993327
-0.11881222 0.19133560 0.06859849
-0.18713267 0.03785104 0.10804459
-0.51852649 -0.70060468 0.29938111
-0.51961368 -0.73820215 0.00000000
-0.53718638 -0.55515265 0.31015518
-0.14913030 -0.47965983 0.08610320
-0.01150295 -0.43439925 0.00664145
-0.47665662 -0.48866296 0.27520686
-0.32611975 -0.50071931 0.18829143
-0.16533963 0.02585691 0.09546197
-0.12656751 0.29098532 0.07307616
-0.32528719 -0.32155219 0.18781072
-0.01055309 0.64771837 0.00609303
-0.25115797 0.14251716 0.14501095
-0.16514574 0.54838848 0.09535066
-0.43918353 0.10954902 0.25357255
-0.67073697 -0.33616814 0.38726476
-0.06235912 -0.49258846 0.03600422
-0.60761565 -0.70821583 0.35081884
-0.04806014 -0.31419730 0.02774843
