ply
format ascii 1.0
element vertex 376
property float x
property float y
property float z
end_header
0.41850406 0.40213540 0.01314124
0.37068650 0.55911630 0.08264269
0.73282832 0.44163081 0.23840901
0.49466503 0.42197910 0.07426492
0.63532609 0.41715911 0.16075140
0.74005944 0.15198013 0.05859981
0.37370428 0.58314890 0.09986497
0.69718003 0.28234139 0.11429723
0.20455067 0.64533603 0.03176220
0.40983251 0.60105443 0.13426684
0.68376791 0.25830975 0.09045778
0.29419973 0.53510827 0.01866025
0.64473051 0.38514650 0.14635734
0.69652587 0.55747014 0.28904805
0.26143298 0.68763947 0.09491117
0.58114886 0.69459426 0.30289382
0.42962199 0.56365275 0.12305361
0.08505816 0.73281538 0.01138024
0.64536333 0.21863005 0.04074354
0.39319718 0.41325331 0.00410748
0.27242899 0.72515959 0.12580012
0.61651981 0.67977512 0.31597865
0.63564092 0.30112740 0.08707746
0.59275597 0.48171628 0.17474999
0.53334987 0.69127065 0.27034542
0.39666936 0.48370090 0.05117029
0.58000892 0.54299450 0.20564850
0.21498403 0.70274782 0.07495744
0.61625904 0.31769294 0.08528437
0.65440017 0.66056222 0.32786372
0.71072167 0.46337375 0.23817745
0.48892441 0.41379267 0.06539793
0.52200794 0.60835308 0.21033289
0.74647051 0.22513214 0.10925558
0.56734294 0.49382785 0.16628128
0.58502495 0.70176744 0.30992863
0.67103666 0.23118997 0.06508566
0.16476628 0.73982918 0.06659381
0.28497496 0.69686139 0.11577109
0.58181781 0.46329859 0.15605988
0.10918854 0.71973079 0.01841281
0.70247722 0.26270118 0.10516539
0.39201409 0.41693807 0.00570024
0.45291668 0.36605901 0.01208196
0.52462095 0.33459222 0.03770012
0.67401993 0.40363893 0.17677878
0.57890409 0.36424094 0.09113732
0.68923849 0.62461603 0.32715839
0.24505724 0.69775766 0.09092716
0.62718564 0.39665678 0.14251527
0.23522601 0.62349766 0.03738846
0.65926135 0.14109330 0.00022643
0.18022703 0.66051960 0.02594295
0.10056761 0.77454829 0.04782498
0.69140744 0.19430704 0.05457281
0.23373701 0.64289320 0.04878908
0.71569204 0.32033664 0.15027393
0.66393858 0.60095048 0.29598334
0.76285934 0.08081030 0.02780397
0.70225805 0.57179117 0.30181542
0.28662640 0.71675795 0.12949012
0.64581698 0.26831123 0.07266307
0.69554305 0.24527721 0.08965722
0.30426571 0.72478122 0.14582881
0.63925689 0.44863659 0.18329494
0.30695879 0.70940429 0.13775335
0.73099726 0.44384447 0.23865259
0.68836319 0.25656196 0.09227070
0.34527460 0.73235416 0.17675962
0.07572389 0.77653182 0.03327048
0.16220649 0.65117586 0.00852083
0.68964738 0.62696999 0.32891738
0.22395632 0.63557750 0.03790425
0.25678205 0.55428845 0.00704892
0.73140484 0.41806856 0.22250126
0.50376719 0.36967829 0.04676146
0.49526131 0.32534450 0.01311980
0.52134484 0.60597628 0.20839742
0.30377394 0.56213427 0.04196265
0.49682608 0.62825692 0.20697251
0.57248461 0.56121737 0.21245998
0.62173033 0.26958510 0.05813876
0.56106418 0.33684218 0.06233504
0.59663552 0.42125696 0.13872708
0.57083911 0.51836729 0.18413080
0.39280322 0.64234173 0.14971127
0.48348033 0.41486862 0.06261686
0.71809715 0.13422436 0.03331238
0.27725399 0.65304977 0.08296166
0.56552440 0.28488383 0.03209425
0.60125011 0.57983226 0.24262583
0.33520624 0.65488136 0.12102442
0.37383619 0.68320119 0.16364960
0.43939069 0.58656889 0.14386322
0.61059815 0.58812720 0.25385866
0.63826013 0.38107693 0.13964684
0.40051830 0.49074253 0.05810403
0.48516914 0.52532583 0.13401730
0.61727244 0.22126658 0.02453740
0.76205492 0.24056257 0.12900190
0.42473114 0.63294035 0.16405335
0.71383971 0.32377204 0.15128186
0.45354688 0.65214556 0.19462700
0.62195837 0.51617360 0.21528041
0.30531615 0.64084911 0.09306024
0.44169939 0.39062095 0.02057813
0.36074120 0.51451355 0.04791338
0.15666579 0.67440432 0.01978217
0.61736166 0.56501889 0.24345236
0.72972190 0.36442050 0.18727343
0.50684750 0.67976379 0.24614593
0.49061599 0.57648891 0.17005935
0.47102937 0.66258705 0.21240549
0.64703876 0.16897562 0.01019658
0.05961886 0.74635011 0.00380093
0.64497006 0.39483839 0.15268041
0.40812728 0.56651008 0.11118768
0.29831931 0.67425877 0.10987656
0.36310270 0.70350552 0.16974309
0.39561361 0.57372910 0.10781674
0.63940316 0.38601717 0.14351989
0.62232280 0.65708333 0.30522597
0.56801844 0.56080765 0.20935561
0.54225963 0.57301807 0.20072970
0.73343116 0.19750740 0.08336581
0.69191831 0.44767493 0.21621080
0.14073816 0.68183815 0.01437438
0.56075710 0.55184215 0.19902444
0.32504997 0.73636883 0.16643916
0.41561919 0.40774578 0.01487650
0.21027979 0.71716452 0.08114111
0.25197780 0.68342131 0.08620573
0.70626938 0.13603567 0.02693516
0.50204128 0.33463293 0.02335015
0.68477863 0.66817278 0.35205033
0.68186635 0.52523148 0.25918916
0.44100100 0.52430999 0.10524984
0.40279174 0.43605068 0.02473057
0.60597467 0.34211597 0.09428609
0.34033597 0.71213394 0.16074163
0.70762944 0.17226614 0.05086808
0.44591126 0.61136383 0.16380097
0.59049404 0.35757461 0.09427208
0.75645006 0.05190676 0.00532121
0.61680537 0.43740246 0.16184811
0.74148941 0.12394025 0.04165799
0.52818328 0.62094319 0.22228032
0.22777069 0.73979390 0.10668461
0.58473510 0.26008257 0.02853485
0.36420593 0.60950327 0.11059675
0.73601758 0.36696115 0.19289932
0.56644022 0.26687303 0.02121031
0.41437468 0.69374967 0.19617535
0.45056412 0.40216461 0.03357164
0.76802891 0.14281966 0.07057501
0.18813629 0.63817054 0.01674951
0.08588757 0.75557649 0.02639971
0.57653385 0.37890828 0.09896658
0.35465306 0.47785375 0.02069686
0.53655386 0.56385928 0.19126584
0.70156938 0.53722107 0.27936703
0.55106527 0.34653929 0.06214292
0.51949149 0.40361759 0.07838097
0.43633735 0.48684531 0.07842783
0.14921594 0.65362597 0.00181000
0.46122372 0.44738105 0.06914646
0.47637141 0.33084723 0.00459654
0.40442055 0.53557718 0.08913352
0.69253844 0.25156304 0.09174630
0.65984076 0.50070679 0.22955187
0.64549905 0.22275011 0.04345309
0.52716005 0.28828314 0.00983291
0.62627912 0.51485640 0.21719269
0.67203015 0.53498930 0.25913930
0.39306837 0.41615656 0.00587390
0.71515989 0.52310187 0.27903044
0.57381624 0.46876931 0.15444854
0.18973169 0.77178407 0.10283350
0.50967526 0.69657540 0.25864980
0.69488800 0.55499035 0.28642640
0.49576160 0.48277888 0.11367271
0.42181766 0.54817051 0.10822766
0.77672702 0.12673125 0.06586981
0.50571454 0.46086368 0.10605663
0.50875717 0.60078835 0.19708018
0.32939062 0.74668568 0.17577118
0.57517153 0.65173364 0.27179998
0.43423039 0.60961080 0.15524796
0.66140348 0.29720950 0.10098539
0.67425507 0.29323775 0.10663895
0.64793128 0.36981717 0.13863540
0.71121985 0.37164167 0.18009122
0.73974168 0.21320666 0.09737887
0.54775488 0.38217142 0.08272133
0.63200921 0.34760332 0.11435524
0.52304798 0.54065013 0.16789035
0.70912582 0.46123192 0.23579773
0.63113248 0.65233129 0.30780938
0.67128050 0.45763782 0.20941435
0.56636751 0.66432035 0.27420834
0.08805889 0.76057637 0.03096544
0.54992014 0.49951839 0.15881164
0.47708976 0.38412920 0.03897714
0.64589620 0.22167233 0.04301973
0.20883368 0.64426035 0.03380420
0.56192684 0.42066967 0.11625508
0.14329730 0.68522036 0.01815708
0.50705165 0.63607651 0.21846136
0.38018349 0.49077722 0.04517946
0.32329065 0.54518670 0.04359838
0.47089773 0.37647307 0.03016038
0.57124728 0.23007274 0.00084103
0.55516452 0.49865064 0.16159815
0.25865725 0.71793622 0.11243308
0.15539122 0.76161879 0.07449786
0.66542047 0.17025922 0.02271694
0.58308244 0.35068020 0.08516382
0.28990409 0.65361524 0.09137564
0.51283586 0.55288875 0.16918056
0.63009906 0.25273883 0.05274135
0.67601901 0.20274355 0.05014669
0.73626518 0.26478946 0.12800688
0.51888537 0.36820933 0.05545157
0.47054830 0.60171252 0.17334199
0.53484362 0.32804340 0.04003917
0.49250948 0.39985868 0.05880903
0.65001494 0.47445315 0.20658101
0.62540722 0.18677711 0.00775809
0.53442073 0.70300341 0.27849716
0.63813639 0.27284172 0.07065749
0.60834455 0.33134565 0.08893773
0.17112131 0.76411313 0.08610087
0.64865220 0.56647253 0.26429969
0.74197233 0.21546935 0.10023964
0.37880346 0.66640073 0.15611573
0.56642330 0.43382803 0.12749542
0.72902441 0.09547634 0.01559962
0.52240115 0.62065542 0.21841578
0.59764576 0.61363494 0.26185229
0.69324172 0.11534803 0.00546948
0.55507106 0.61241359 0.23396851
0.61986542 0.24044345 0.03839770
0.56341666 0.37569466 0.08856918
0.70083290 0.30089107 0.12843302
0.61695349 0.23593023 0.03367033
0.48707077 0.44554150 0.08443142
0.52496845 0.34190950 0.04258006
0.35611194 0.59646648 0.09714334
0.75301611 0.18190865 0.08590371
0.61344910 0.29500049 0.06904764
0.59167892 0.21662590 0.00528808
0.61690044 0.62971419 0.28434852
0.66258240 0.19263960 0.03515904
0.53475606 0.31320795 0.03053808
0.50957799 0.56223774 0.17305861
0.40943134 0.57358170 0.11652028
0.35825270 0.63169408 0.12093478
0.45879707 0.43396550 0.05906014
0.34792915 0.53616017 0.05353813
0.69384456 0.58598077 0.30549285
0.34652823 0.57666093 0.07843198
0.56306303 0.64327610 0.25870615
0.48027202 0.68548000 0.23286538
0.29663384 0.57752174 0.04721356
0.60225177 0.58118939 0.24412762
0.15241542 0.71594471 0.04352375
0.28666902 0.72750896 0.13636214
0.61841667 0.20383190 0.01416571
0.41368482 0.61486542 0.14551264
0.40578124 0.56152993 0.10652331
0.29410097 0.51173902 0.00371877
0.68094325 0.69714332 0.36805323
0.73072398 0.13009989 0.03872561
0.27884409 0.58550394 0.04096935
0.65817326 0.46353361 0.20482299
0.66837537 0.66822255 0.34163851
0.64170963 0.57673329 0.26641229
0.65241957 0.32640186 0.11385158
0.66539282 0.42796096 0.18677136
0.65861946 0.23364735 0.05874450
0.67311680 0.34817764 0.14089306
0.07598968 0.77883422 0.03490558
0.47707951 0.46007466 0.08732313
0.52545661 0.50362116 0.14584845
0.45887923 0.44910821 0.06875342
0.38718256 0.67999339 0.17010459
0.45633993 0.60702068 0.16767547
0.35707635 0.63867992 0.12463355
0.37145787 0.56390554 0.08618296
0.67314756 0.21966366 0.05909110
0.15619509 0.66770798 0.01521908
0.61727494 0.24092799 0.03705693
0.62543678 0.22652631 0.03308420
0.52516103 0.53448570 0.16531093
0.35492814 0.63264543 0.11942382
0.68920344 0.37056410 0.16538788
0.68748397 0.23685592 0.07916461
0.44147658 0.52165484 0.10386215
0.67797083 0.19466665 0.04624702
0.48292550 0.59697407 0.17820537
0.73593658 0.24026595 0.11218419
0.74599051 0.28235546 0.14538258
0.71636701 0.27230945 0.12012603
0.32242912 0.69684952 0.13960962
0.53400856 0.60734856 0.21733379
0.58263558 0.36084464 0.09135078
0.69708413 0.51895648 0.26488283
0.52635854 0.69779617 0.27004883
0.77922624 0.09541927 0.04752550
0.53380740 0.70277321 0.27796006
0.42453435 0.48640767 0.07063453
0.41753688 0.42506981 0.02712721
0.65363121 0.16297048 0.01057051
0.57712466 0.42881078 0.13111436
0.24852170 0.64896405 0.06206728
0.42019928 0.62735921 0.15761466
0.36054650 0.70911419 0.17168655
0.27442580 0.59924084 0.04690224
0.62045807 0.27435991 0.06036875
0.26227021 0.55705667 0.01230552
0.42121336 0.47691342 0.06247540
0.37018707 0.44809434 0.01163992
0.17570712 0.70502442 0.05140030
0.47988799 0.33969015 0.01246552
0.55749458 0.49379164 0.15998803
0.14058238 0.74843729 0.05667715
0.47022429 0.72801656 0.25355014
0.75309545 0.31434909 0.17027561
0.65239018 0.65818441 0.32507014
0.54720765 0.46546715 0.13540514
0.56945801 0.64803588 0.26580808
0.68510991 0.30537876 0.12127981
0.62937367 0.20644461 0.02280517
0.40579128 0.49165362 0.06204127
0.70188802 0.23891047 0.08964336
0.51558590 0.42296061 0.08820959
0.47635651 0.70881057 0.24522644
0.42505696 0.51480103 0.08904456
0.76093239 0.10723673 0.04340214
0.24417470 0.70039624 0.09204519
0.31156847 0.61087435 0.07795677
0.37477964 0.45446676 0.01862105
0.55352420 0.24716748 0.00044100
0.39668915 0.47703788 0.04694070
0.30829611 0.55807275 0.04225593
0.60822743 0.40338656 0.13472976
0.38956517 0.49050826 0.05098129
0.71245700 0.10550225 0.01143481
0.64888704 0.29127455 0.08923788
0.65885621 0.29106224 0.09544982
0.16172966 0.73327762 0.06048927
0.56074101 0.58861721 0.22242787
0.42566776 0.55207264 0.11316331
0.58413053 0.24688964 0.01975037
0.20831995 0.72395796 0.08421853
0.64447588 0.23000649 0.04742159
0.60015380 0.33681944 0.08720795
0.73671168 0.37193295 0.19650663
0.68316483 0.67857081 0.35764301
0.65401322 0.66471618 0.33026209
0.71189451 0.30709028 0.13942254
0.20172849 0.62439507 0.01663281
0.47700620 0.57420594 0.15994082
0.24302061 0.62645638 0.04423480
0.50234807 0.47936451 0.11569230
0.22411384 0.63787526 0.03946747
0.60546106 0.69582164 0.31915420
0.61475044 0.27821943 0.05919211
0.73256576 0.19285402 0.07985213
0.65162188 0.37669203 0.14536214
0.60587144 0.61065793 0.26519400
0.17428581 0.63620132 0.00667751
0.58539796 0.33377936 0.07587771
0.63093370 0.70154518 0.33901602
0.75714976 0.10210268 0.03772510
0.50948256 0.65774268 0.23380336
