ply
format ascii 1.0
element vertex 1253
property float x
property float y
property float z
end_header
-0.22008233 0.52503169 0.00000037
-0.62134022 0.12901548 -0.00000072
0.31608599 -0.09853028 0.67783433
0.18693645 0.13913815 0.40087852
0.28549883 -0.43861392 0.61224276
-0.48942432 0.24751250 -0.00000017
0.24898666 -0.71407247 0.53394479
0.08822891 -0.06415389 0.18920438
0.18184270 -0.12981924 0.38995612
0.17163689 0.34718943 0.36806864
0.08039242 -0.58413231 0.17239925
0.25377458 -0.41118065 0.54421157
0.23056704 -0.13343129 0.49444315
0.27679914 -0.15928257 0.59358579
0.10067057 -0.51283020 0.21588515
-0.38842604 0.34338412 0.00000017
0.06044568 -0.11320453 0.12962402
0.25440028 -0.50652218 0.54555362
0.24335761 -0.57020581 0.52187335
0.02354018 -0.63464135 0.05048123
0.26890054 0.16212288 0.57664651
0.06180725 -0.46819812 0.13254389
0.24561095 -0.77548230 0.52670568
0.00088602 -0.24468079 0.00190004
0.25071859 -0.10590355 0.53765708
0.26984724 -0.59225070 0.57867920
0.23217037 0.05491803 0.49788079
0.24025007 -0.26873317 0.51520842
0.07021827 0.00741213 0.15058108
0.04280057 -0.73966044 0.09178459
-0.69223928 -0.08862702 -0.00000138
0.24302027 -0.30774117 0.52114910
0.08299389 -0.66295558 0.17797802
0.06304033 -0.69623744 0.13518819
0.32200035 -0.20344466 0.69051778
-0.27359045 0.52335864 -0.00000068
0.17014235 0.33117822 0.36486375
0.03618853 0.68169487 0.07760498
0.25002033 -0.17374945 0.53615993
0.18584083 -0.71543586 0.39853036
0.02966225 0.49244487 0.06360985
0.06377808 0.09937274 0.13677026
0.21508183 -0.63258106 0.46123683
0.31530154 -0.35503945 0.67615300
0.15080553 -0.41088343 0.32339817
0.07075316 0.29699340 0.15172812
-0.63343590 -0.05234675 -0.00000120
0.12007177 -0.21125354 0.25749049
0.02011977 -0.35395691 0.04314627
0.23536243 -0.04701017 0.50472635
0.04440390 0.51149505 0.09522290
0.32602328 -0.62382931 0.69914639
0.25767499 -0.79771721 0.55257666
0.11953908 -0.72369307 0.25634813
0.10773440 -0.19126564 0.23103334
0.29587826 -0.44138181 0.63450098
0.25406814 0.03602982 0.54483956
0.11940552 -0.28684765 0.25606170
0.00288236 0.74302125 0.00618114
0.04722471 -0.01569381 0.10127203
0.11956555 -0.76764983 0.25640491
-0.60759944 0.17436278 -0.00000122
0.24825560 -0.08325062 0.53237528
0.13199504 -0.62706506 0.28305957
0.05928797 0.57621127 0.12714097
0.31589752 -0.55220795 0.67743182
-0.54107583 0.09258337 0.00000143
0.17971507 0.08327972 0.38539276
0.29651168 0.05041330 0.63585764
0.29495326 -0.33055118 0.63251698
0.14246021 -0.72480422 0.30550185
0.04432637 0.00938426 0.09505663
0.00723397 -0.56535888 0.01551305
0.00082270 -0.68005425 0.00176425
0.19745417 -0.45448273 0.42343482
0.19661671 -0.00084746 0.42163786
-0.66833997 -0.08827523 -0.00000128
0.10289349 0.01489703 0.22065216
0.03637396 0.06383702 0.07800292
0.25266543 0.15906496 0.54183114
0.05923861 0.62885952 0.12703495
0.17973042 -0.06871239 0.38542622
0.15231681 -0.48795795 0.32663903
0.18181908 -0.29808009 0.38990581
-0.66426516 -0.08350484 -0.00000127
0.14842774 0.29973778 0.31829789
0.22528987 -0.33167279 0.48312715
0.07119115 0.23911406 0.15266737
0.23223498 -0.13702928 0.49801999
0.16407682 -0.11277423 0.35185796
0.16398995 -0.00673978 0.35167131
0.13294303 -0.48889837 0.28509253
0.25377512 -0.05007448 0.54421151
0.06421360 0.02050999 0.13770422
0.31814596 -0.07627843 0.68225181
0.03545620 -0.07068656 0.07603480
0.08362638 0.23571683 0.17933439
-0.64602840 0.06395710 -0.00000011
0.06987388 -0.46447292 0.14984255
-0.21712874 0.56044090 -0.00000017
0.12826256 -0.70336455 0.27505541
0.30408898 0.07950062 0.65210676
0.26568365 0.13449138 0.56974816
0.01531537 -0.78103334 0.03284337
0.09008061 0.26402390 0.19317530
0.10342399 0.50020689 0.22178881
0.30304453 0.00622028 0.64986718
0.18383341 -0.76751590 0.39422548
0.22858424 0.07545661 0.49019042
0.03824114 -0.76382828 0.08200702
0.29394895 0.10141266 0.63036197
0.05942223 0.07067281 0.12742928
0.31746161 -0.59111363 0.68078613
0.01377498 0.61289245 0.02954006
-0.33322421 0.37253553 0.00000074
0.14581828 -0.08497381 0.31270313
-0.78548485 -0.05944958 -0.00000183
0.26837912 -0.69981587 0.57553124
0.12732476 -0.45541829 0.27304429
0.10968071 -0.79600620 0.23520716
0.03428582 -0.75494868 0.07352496
0.30156246 -0.62047100 0.64669114
0.08961779 0.00880460 0.19218279
-0.76866263 -0.24429201 -0.00000139
0.10642290 0.25474122 0.22822066
0.20874646 -0.30133015 0.44765052
0.21707626 -0.09178772 0.46551266
0.22127043 0.07206403 0.47450632
0.00120839 -0.09873991 0.00259136
0.00634081 -0.23379920 0.01359768
-0.22794881 0.52331364 0.00000024
0.23626848 -0.27986631 0.50667006
0.30230772 -0.28679582 0.64828813
0.29102579 -0.69519395 0.62409598
0.29453993 0.05552394 0.63162935
0.30807108 -0.70932192 0.66064894
-0.66138273 0.08049418 -0.00000068
0.23194060 -0.27609402 0.49738914
0.04405190 -0.13335964 0.09446805
0.31001297 -0.59644794 0.66481280
0.13681115 0.39744136 0.29338634
-0.38960135 0.33972102 0.00000021
0.21620603 -0.36308295 0.46364740
0.11539208 -0.27932614 0.24745502
0.29930061 -0.35436094 0.64183980
0.32498753 -0.53602165 0.69692492
0.12217182 0.27124226 0.26199341
0.01613342 -0.62174255 0.03459765
0.31560570 -0.67258579 0.67680651
0.17190053 -0.29468718 0.36863577
0.02959718 -0.22028048 0.06347031
0.32214084 -0.47352725 0.69082010
0.25363541 -0.12935662 0.54391211
0.13713844 -0.23055170 0.29408947
0.04652961 -0.06519860 0.09978142
0.32897747 -0.07078814 0.70547944
0.18343677 -0.17356209 0.39337465
0.10175906 -0.67572212 0.21821940
0.12841012 -0.03932549 0.27537182
0.05342662 0.11961326 0.11457187
0.06623686 0.09989668 0.14204305
0.16001719 -0.35450405 0.34315231
0.19978100 -0.15076166 0.42842400
0.14561427 0.12248481 0.31226510
0.07645342 -0.53647989 0.16395219
0.31152195 -0.79054874 0.66804951
0.07741531 0.46570402 0.16601457
-0.59198183 0.18658389 -0.00000112
0.31874338 -0.43901744 0.68353426
0.24058138 -0.58049637 0.51591986
0.00715155 -0.18316031 0.01533629
-0.61311865 -0.00594009 -0.00000119
0.33111638 -0.10199519 0.71006632
0.09185550 -0.15331976 0.19698150
0.24128628 -0.04456596 0.51742977
0.06346666 -0.13891008 0.13610242
0.00067162 -0.39346084 0.00144028
0.24516220 -0.05011194 0.52574152
-0.56554091 0.03792116 0.00000187
0.01821272 -0.33798119 0.03905666
0.04775333 0.35032818 0.10240566
0.29529482 -0.59648544 0.63325036
0.33713248 -0.12102515 0.72296768
0.16510786 -0.16558237 0.35406908
0.16956222 0.39581329 0.36361957
0.32524946 -0.76344490 0.69748753
0.05784371 -0.07436749 0.12404418
0.09698886 0.47639367 0.20798907
0.24513230 -0.29985422 0.52567822
0.06675460 0.39311537 0.14315332
0.18342999 -0.73847729 0.39336038
0.23594078 0.06206792 0.50596625
0.06838672 0.37204313 0.14665337
-0.52256197 0.19047432 0.00000015
0.14984167 0.36081946 0.32132977
0.05962744 -0.52647722 0.12786935
0.10477441 -0.21288079 0.22468571
0.24554226 0.08232249 0.52655607
0.14730562 -0.18547459 0.31589270
0.22025169 -0.48439547 0.47232345
0.12979767 0.36084422 0.27834639
0.32309851 -0.41779754 0.69287360
0.08945694 -0.15237913 0.19183786
0.23458207 -0.28848785 0.50305367
0.09814665 -0.27321973 0.21047270
0.11223239 0.33251667 0.24067858
0.13569719 -0.71153206 0.29099873
0.02521722 0.44302234 0.05407761
0.13600709 -0.20441225 0.29166332
0.10064363 -0.17157130 0.21582738
0.28406569 -0.70686293 0.60917038
0.02168540 -0.54276592 0.04650372
0.02926781 -0.72096360 0.06276398
0.32156852 -0.41739699 0.68959254
0.24900447 -0.78335381 0.53398293
0.33407822 -0.39103124 0.71641898
0.04768983 -0.54688728 0.10226947
0.09656883 0.56858915 0.20708811
0.14571650 0.27149624 0.31248388
0.18587421 -0.21934231 0.39860180
0.06996413 0.32178003 0.15003607
0.27497545 -0.64522403 0.58967656
0.05348263 -0.12746103 0.11469198
0.33234438 -0.35388231 0.71270072
0.08925190 -0.77712548 0.19139814
0.12042298 -0.76227009 0.25824365
0.31253970 -0.36062524 0.67023033
-0.50131083 0.13070948 0.00000155
0.23107950 -0.23165905 0.49554244
0.15300249 -0.54535598 0.32810944
0.21521422 -0.41302371 0.46152073
0.23672703 0.12867843 0.50765210
0.20909029 0.11379637 0.44838646
0.13677935 -0.13019733 0.29331940
0.06695235 -0.45538366 0.14357740
0.17741536 0.13758875 0.38046098
0.24858513 -0.21413483 0.53308237
0.32151884 -0.14973521 0.68948501
0.00898021 0.37752953 0.01925780
0.20603527 0.23555504 0.44183472
0.20056497 -0.55839741 0.43010584
0.07867282 -0.73606002 0.16871162
0.29729664 0.05393571 0.63754100
0.15721603 0.21161436 0.33714426
0.29470602 -0.47717974 0.63198727
0.08417641 -0.16947062 0.18051390
0.21578167 -0.02589875 0.46273628
-0.73561013 -0.20484406 -0.00000136
0.05144340 -0.58976656 0.11031889
0.13683642 0.00955197 0.29344177
0.06513809 -0.07341065 0.13968676
-0.74367476 -0.03637227 -0.00000170
0.18628594 -0.47089303 0.39948490
0.01755624 0.62762314 0.03764886
0.09749764 -0.50816673 0.20908089
0.25513896 -0.42406860 0.54713744
0.00464191 -0.60130405 0.00995445
0.07033034 0.37019625 0.15082140
0.30956188 -0.75668627 0.66384614
0.08912436 -0.76481450 0.19112463
0.27050021 0.05120343 0.58007729
0.11049095 0.36642414 0.23694403
0.01349110 -0.39190134 0.02893128
0.33717763 -0.48459539 0.72306597
0.10301013 -0.53426582 0.22090229
-0.27865759 0.46521819 0.00000024
0.12771986 -0.65600991 0.27389160
-0.78067225 -0.11300591 -0.00000172
0.31128451 0.01547661 0.66753739
0.00240856 0.73667824 0.00516509
0.07799501 0.17069077 0.16725807
-0.68100244 0.06297052 -0.00000077
0.28341550 -0.18143111 0.60777432
-0.08558288 0.71394867 -0.00000021
-0.62026972 -0.04493508 -0.00000115
-0.71138084 0.02393531 -0.00000070
-0.42819944 0.21257018 0.00000159
0.23755807 -0.23305069 0.50943542
0.04846571 0.23572741 0.10393333
0.04248427 -0.44945231 0.09110631
0.16087373 0.09650644 0.34498838
0.23290104 -0.28751647 0.49944881
0.09624897 0.51602280 0.20640229
0.24935403 0.14247818 0.53473002
0.09852407 -0.57186848 0.21128204
-0.31120619 0.38122243 0.00000102
0.21676704 -0.02892403 0.46484938
0.00096828 0.32112455 0.00207645
0.08730218 0.32256135 0.18721697
-0.37442279 0.39016297 -0.00000034
0.17842752 -0.45447046 0.38263270
0.22382580 -0.51160020 0.47998801
0.14371431 -0.74163848 0.30819121
0.32813931 -0.17396632 0.70368236
0.23242030 -0.46617779 0.49841845
0.05585016 -0.19167490 0.11976906
0.03952887 0.33823985 0.08476853
0.19209835 -0.62346584 0.41194943
0.28045735 -0.15094359 0.60143065
0.15192980 -0.26941904 0.32580912
0.09816138 0.49048060 0.21050344
0.22196077 0.12275747 0.47598654
0.03163349 -0.25237593 0.06783711
0.30988553 -0.10394612 0.66453779
0.23602812 -0.14861196 0.50615424
-0.20277442 0.59662580 -0.00000050
0.18395574 -0.45218834 0.39448783
0.27216241 -0.58283567 0.58364391
0.04529938 0.54663986 0.09714320
-0.53775132 0.18600655 -0.00000007
0.07654824 0.55057561 0.16415489
-0.66942799 -0.10610053 -0.00000126
0.31019905 -0.19008788 0.66521043
0.18046789 -0.61317617 0.38700822
0.10818083 -0.71038812 0.23199069
0.12399659 -0.14580929 0.26590714
0.24159862 -0.02521808 0.51809949
0.16486292 -0.79210764 0.35354379
0.03105101 -0.02101835 0.06658799
0.00244249 0.08151327 0.00523785
0.19095004 -0.10509988 0.40948626
0.02376511 0.71764398 0.05096342
0.10311388 -0.43769181 0.22112475
0.04530175 -0.15767293 0.09714832
0.24350163 -0.10630263 0.52218068
0.22064620 0.02900421 0.47316784
0.00559138 -0.65958250 0.01199055
0.14980406 -0.57398975 0.32125050
-0.27268526 0.42875776 0.00000096
0.31366926 -0.41542727 0.67265290
0.07771553 0.30991346 0.16665873
-0.62543088 0.03852763 0.00000071
-0.33152878 0.38667518 0.00000054
-0.61002547 0.05574603 0.00000072
0.26502493 -0.05143378 0.56833619
0.24733797 -0.01373239 0.53040719
0.30145186 0.06866448 0.64645159
-0.43942615 0.33911562 -0.00000074
-0.33741549 0.38790798 0.00000040
0.02311654 -0.63041246 0.04957277
-0.32830292 0.39588243 0.00000045
0.25691330 -0.11526766 0.55094135
0.07504152 -0.29630521 0.16092440
0.06418298 -0.67372191 0.13763857
0.11155141 -0.13623492 0.23921882
0.06131153 -0.60409820 0.13148083
-0.53321499 0.25221679 -0.00000109
0.07963640 0.51104057 0.17077743
0.09512428 -0.05006588 0.20399129
0.14061737 0.07959956 0.30154964
0.30385423 -0.01886568 0.65160364
0.23541558 -0.55462581 0.50484198
0.17312749 0.27264687 0.37126541
0.24141322 0.14334998 0.51770133
0.00294601 -0.57118428 0.00631764
0.04518532 0.18521316 0.09689862
0.08711124 -0.21524683 0.18680757
0.16031067 -0.41782743 0.34378165
0.02277869 0.17376727 0.04884825
0.19071178 0.14023763 0.40897453
0.22007063 0.26305419 0.47193277
0.19666028 0.27145591 0.42173037
0.04130804 0.22657207 0.08858392
0.09173562 0.01683075 0.19672441
0.08562286 0.54129702 0.18361500
0.18174894 0.30149871 0.38975361
-0.02126501 0.77103525 0.00000008
0.08645736 -0.19274288 0.18540534
0.01394951 -0.03745917 0.02991432
0.30470195 -0.08835236 0.65342182
0.28858203 -0.43327141 0.61885452
0.07307357 0.06595871 0.15670417
-0.70643759 -0.14732891 -0.00000134
0.16428351 -0.37165150 0.35230130
-0.64168954 0.01867437 0.00000073
0.02785433 -0.50665593 0.05973281
0.17606969 0.11353131 0.37757534
-0.43206096 0.26874444 0.00000058
0.26879585 -0.04104445 0.57642269
0.04462919 0.25785688 0.09570603
0.07666975 0.46036369 0.16441576
0.16652828 -0.41926751 0.35711515
0.28941920 -0.63104838 0.62065047
-0.48953775 0.15335084 0.00000140
0.21429664 -0.14612730 0.45955208
0.25626504 -0.02929099 0.54955095
0.09020936 -0.44363052 0.19345139
0.05659440 -0.02271613 0.12136508
0.21679570 0.15424059 0.46491021
0.01745294 -0.31016129 0.03742734
0.01750983 0.73672044 0.03754921
0.08492289 -0.24715771 0.18211471
0.00419728 -0.31671715 0.00900095
0.13126881 -0.75509602 0.28150225
0.26527479 -0.62079781 0.56887388
0.09776142 0.34263271 0.20964624
0.10626387 0.36475030 0.22787926
0.05169543 0.47864294 0.11085936
0.23385355 0.13422045 0.50149006
-0.30751482 0.38636893 0.00000100
0.09512219 -0.23358275 0.20398681
0.16861635 0.14926298 0.36159188
-0.48549679 0.23489989 0.00000012
0.18890741 -0.17147143 0.40510619
0.11351067 -0.19999970 0.24342038
0.18106188 -0.78272593 0.38828203
0.07811160 -0.44711766 0.16750810
0.11333722 -0.21039549 0.24304843
0.00809590 0.75179654 0.01736143
0.11823985 -0.63404167 0.25356197
-0.49165562 0.14961931 0.00000142
0.22177438 -0.14540394 0.47558776
0.32787624 0.00072004 0.70311761
0.12181126 0.45133060 0.26121959
0.32060760 -0.37982771 0.68753177
-0.33254507 0.46646085 -0.00000083
0.10944779 -0.42374226 0.23470765
0.30409405 -0.62787497 0.65212005
0.24460302 0.12979849 0.52454180
0.02727292 -0.24839345 0.05848599
0.06905062 0.10146839 0.14807709
0.09480784 -0.33248675 0.20331271
0.27131227 -0.03780300 0.58181906
0.16249436 0.36755663 0.34846285
0.07897006 -0.63951123 0.16934904
0.24499144 0.00103745 0.52537513
0.05978466 0.11403495 0.12820649
0.15796030 0.36576763 0.33873978
0.16376740 -0.25069833 0.35119450
-0.79776752 -0.17691839 -0.00000156
0.12191398 -0.30045524 0.26144105
0.07565146 0.53308576 0.16223183
0.13519242 0.13775280 0.28991592
0.02741704 0.61433923 0.05879506
0.11601457 0.05504024 0.24878994
0.31492373 -0.24147487 0.67534244
-0.54640222 0.19614120 -0.00000041
0.12929067 0.13859092 0.27725989
0.06771972 -0.79108649 0.14522301
0.11020658 -0.31486839 0.23633485
-0.70491868 0.02062280 -0.00000052
0.26633477 -0.46138754 0.57114643
0.05779867 0.19650918 0.12394759
0.14570852 0.36480346 0.31246641
0.23451839 0.00915384 0.50291616
-0.59657174 0.17993912 -0.00000110
0.23364110 -0.47115523 0.50103647
0.04207324 -0.10960769 0.09022485
0.01431700 -0.70051700 0.03070240
0.07724688 0.24589816 0.16565372
0.21846989 -0.67260265 0.46850243
0.03302554 0.05311241 0.07082232
0.16277131 -0.47150594 0.34905842
0.22593085 -0.21362180 0.48450133
0.24666104 0.11374528 0.52895516
0.22992693 -0.36136818 0.49307120
0.08082247 -0.37134612 0.17332147
0.27002609 -0.18485546 0.57906139
0.19360454 -0.55284506 0.41517940
0.22292943 0.01903722 0.47806415
0.14787689 -0.00331468 0.31711763
0.21300793 -0.57983339 0.45678940
0.00386518 -0.49971843 0.00828876
0.04296956 -0.34242591 0.09214700
0.15394410 0.40160069 0.33012712
0.16162944 -0.22961792 0.34660971
-0.51155454 0.09952326 0.00000188
0.11304160 -0.60656494 0.24241447
0.17938352 -0.79292458 0.38468283
0.33683714 -0.54808521 0.72233605
0.27468094 -0.35599151 0.58904403
0.25109178 -0.63725156 0.53845912
-0.52845818 0.15624349 0.00000060
0.06094626 -0.65024972 0.13069750
0.15669453 -0.55775595 0.33602694
0.09113106 -0.22814238 0.19542795
0.27487603 -0.58733571 0.58946323
0.13758661 -0.10613710 0.29505056
0.25160506 -0.34903002 0.53955889
-0.65521646 -0.09733122 -0.00000121
0.09416136 -0.55222827 0.20192634
-0.24578252 0.52919668 -0.00000020
0.14422116 0.18919259 0.30927742
0.19363753 -0.73804629 0.41525018
0.16646466 0.12456728 0.35697779
-0.26333949 0.51298803 -0.00000026
0.03498837 0.70939982 0.07503120
0.04052581 0.06539949 0.08690643
0.29481092 -0.30663285 0.63221169
0.21989278 0.17923301 0.47155166
0.05551801 -0.27371228 0.11905679
0.26411703 -0.07452543 0.56638932
0.31770554 -0.64630085 0.68130946
-0.28129062 0.51315236 -0.00000061
0.03664613 0.51029193 0.07858658
0.14180364 -0.48424897 0.30409387
-0.66995209 0.04237995 -0.00000021
0.28364450 -0.34388211 0.60826594
0.08902425 -0.41816074 0.19090997
0.13364325 -0.69427878 0.28659415
0.02541734 -0.65915048 0.05450677
0.21225932 -0.78726596 0.45518404
0.26243818 0.11196228 0.56278849
0.00917705 0.69692522 0.01967992
0.03369467 -0.26996991 0.07225727
0.18174531 -0.47889861 0.38974759
-0.64047039 -0.05556642 -0.00000122
0.14683588 -0.41763848 0.31488535
0.23073813 -0.66465729 0.49481133
0.22399643 -0.31805828 0.48035339
0.23087622 0.25274384 0.49510488
0.18417244 -0.08698822 0.39495197
0.26009384 0.12345909 0.55776113
0.09903256 -0.07019124 0.21237250
-0.18688983 0.54771096 0.00000063
0.11966385 0.33448976 0.25661498
0.18225442 0.11804664 0.39083821
0.05715431 0.43916893 0.12256578
0.26820445 -0.39030081 0.57515568
0.07707319 0.11510309 0.16528125
0.03954654 -0.76422846 0.08480642
0.06131847 0.21068282 0.13149570
0.24214171 -0.64512300 0.51926601
0.14118494 0.39970577 0.30276570
0.08233524 -0.63872778 0.17656556
0.01165079 -0.60149330 0.02498480
0.10803122 -0.01132494 0.23166984
0.10556836 -0.79109436 0.22638832
0.24796520 -0.67629826 0.53175431
0.03831157 -0.63412440 0.08215806
0.05088890 0.32971799 0.10912980
0.19935952 0.03392924 0.42751953
0.11393769 0.21126395 0.24433590
0.06427028 0.56260210 0.13782534
0.13482602 0.28257385 0.28912970
0.05154534 0.55165410 0.11053735
0.21465681 -0.02003104 0.46032405
0.03971315 0.27672142 0.08516371
0.02874738 -0.55797487 0.06164793
0.06865016 -0.39458317 0.14721832
0.11699373 0.43224683 0.25088871
0.28057623 -0.58046460 0.60168701
-0.06747801 0.71014851 0.00000021
0.11051117 0.48629352 0.23698699
0.21490449 0.15169774 0.46085462
0.01087701 0.48052964 0.02332543
0.02599217 0.58057076 0.05573947
0.13664509 0.11000690 0.29303119
0.22277161 -0.40730897 0.47772717
0.14677209 -0.30317208 0.31474853
-0.78845900 -0.01135709 -0.00000193
0.23209222 -0.02441530 0.49771348
0.08027521 -0.14219318 0.17214788
0.00009577 -0.12335901 0.00020537
0.14826629 -0.71669787 0.31795284
0.26562339 0.14426053 0.56961888
0.01433518 0.11310385 0.03074138
0.04370684 -0.45517665 0.09372808
0.24920326 -0.49366626 0.53440881
0.10339004 -0.43075562 0.22171699
0.00875209 -0.22599465 0.01876861
0.01546550 -0.63886124 0.03316531
0.13827761 0.04131902 0.29653227
0.24714842 -0.05477410 0.53000087
0.27495494 -0.48617083 0.58963203
0.02864402 -0.70174301 0.06142629
0.01711052 -0.01841627 0.03669302
0.22004579 0.00372956 0.47188038
0.10600365 0.29937041 0.22732145
0.01349479 -0.40335017 0.02893920
0.12085073 0.27106160 0.25916040
0.25368527 -0.12237969 0.54401904
0.08150066 -0.79559177 0.17477584
-0.52311909 0.24639452 -0.00000080
0.10390931 0.54110414 0.22282942
0.24128047 -0.02648703 0.51741719
0.02967219 -0.54400700 0.06363117
0.19954297 -0.29211232 0.42791402
0.11553242 0.10720505 0.24775597
0.05838945 -0.63331974 0.12521452
0.19386744 -0.36334839 0.41574317
0.07914724 -0.01048688 0.16972899
-0.63676417 0.06086993 0.00000012
0.00068596 -0.07759926 0.00147102
-0.41110346 0.23454785 0.00000155
0.33325776 -0.52065206 0.71466005
0.03652405 -0.18294512 0.07832478
0.00924530 -0.13601165 0.01982628
0.17373280 -0.20852973 0.37256503
0.12752926 -0.36723694 0.27348286
0.12011441 -0.03874822 0.25758192
0.20783256 -0.14783613 0.44569018
0.10063677 0.30814821 0.21581240
0.10637642 -0.05276098 0.22812118
0.19048542 0.00056673 0.40848956
0.24789135 0.08210021 0.53159356
0.00723242 0.32754353 0.01550972
0.12332491 0.48700586 0.26446545
0.00979723 -0.62649947 0.02100989
0.30278459 -0.66628230 0.64931214
0.09457077 0.30690274 0.20280416
0.16055919 0.25775534 0.34431335
0.07785062 -0.33520314 0.16694842
0.00359826 -0.29127717 0.00771636
0.06855304 -0.10442073 0.14701003
0.19030052 -0.05136154 0.40809324
0.21686625 -0.73827636 0.46506351
0.28997308 -0.27837315 0.62183702
0.00561601 -0.51624942 0.01204338
0.23280419 -0.65640789 0.49924195
0.17937864 0.09548811 0.38467130
0.17622982 0.09698174 0.37791881
0.05645806 0.57439476 0.12107237
0.02450542 -0.60859108 0.05255117
0.23634607 -0.57962430 0.50683737
0.09386378 0.12044469 0.20128819
0.00838933 -0.16690169 0.01799067
0.21248811 -0.49815330 0.45567468
0.15490629 -0.78592891 0.33219212
0.09797807 0.48964292 0.21011034
0.10825545 -0.49490884 0.23215072
0.12410743 -0.48589346 0.26614484
0.11085216 -0.77838308 0.23771930
0.18448590 -0.04515284 0.39562401
0.31970733 0.00842096 0.68559974
0.15953100 0.35449585 0.34210810
0.18344620 -0.29101619 0.39339513
0.04780335 0.31977624 0.10251291
0.11349936 0.06479792 0.24339613
0.20766224 -0.76855654 0.44532573
0.05767809 0.41290125 0.12368902
0.23439926 -0.73593825 0.50266254
0.07768097 0.02968541 0.16658463
0.18138695 -0.31690115 0.38897914
0.25100422 0.09462171 0.53826898
0.17905387 -0.49557459 0.38397592
0.05781973 0.32059357 0.12399276
0.18295351 -0.75510347 0.39233854
0.24234992 -0.73974180 0.51971251
0.33502579 -0.25629428 0.71845049
0.15527986 -0.22931287 0.33299324
0.20077160 -0.77776045 0.43054897
-0.14355733 0.62811458 0.00000011
0.06619664 -0.52071857 0.14195681
0.22594137 -0.62267148 0.48452479
0.14108802 0.04013490 0.30255908
0.01672201 0.59025490 0.03585987
0.16088317 0.20453429 0.34500828
0.08244507 -0.56059563 0.17680110
0.22858468 0.25088930 0.49019080
0.11378318 -0.60430706 0.24400477
0.23890468 -0.00703539 0.51232237
0.08284292 0.55712348 0.17765352
-0.54693210 0.20646968 -0.00000059
0.24846500 -0.75613296 0.53282607
0.07182811 0.38429901 0.15403333
0.09771905 -0.73705512 0.20955572
0.08016556 -0.68567038 0.17191274
0.28959134 -0.49561572 0.62101918
0.17085868 0.08792660 0.36640069
0.06930887 -0.74883842 0.14863089
-0.62514651 -0.02097228 -0.00000122
0.00031885 0.07864142 0.00068377
0.30520204 -0.77135420 0.65449667
0.09073982 0.21808255 0.19458894
0.28011906 -0.50186270 0.60070634
0.16559000 -0.67863512 0.35510302
0.09259735 -0.02072557 0.19857238
-0.41242078 0.37212858 -0.00000077
0.08122734 -0.24770124 0.17418972
-0.41408449 0.25564781 0.00000114
0.27343583 -0.62973064 0.58637488
-0.68681693 -0.00832660 -0.00000150
0.19417703 -0.67392540 0.41640708
0.07413096 -0.41305169 0.15897173
0.14563489 0.12992141 0.31230932
0.14984728 -0.67831910 0.32134321
0.23426352 -0.78834420 0.50237143
0.29835826 -0.55613828 0.63981956
0.28006297 0.09901385 0.60058403
0.21315897 0.23264308 0.45711112
0.04313286 0.41958895 0.09249719
0.06076753 0.41101456 0.13031425
0.11713673 -0.74876440 0.25119638
0.13293405 -0.03762521 0.28507325
0.22291265 -0.59818423 0.47802982
0.26717404 -0.49121892 0.57294631
0.30479705 0.04118997 0.65362525
0.21379776 -0.19139136 0.45848244
0.01813545 0.35218596 0.03889095
0.03390235 -0.25644267 0.07270262
0.00864821 -0.49379724 0.01854583
0.07471857 -0.29355878 0.16023184
0.28309613 -0.40803707 0.60709018
0.22534563 -0.63107961 0.48324725
0.03883652 0.45995128 0.08328381
0.26224270 -0.48401418 0.56237125
0.04926898 -0.23659010 0.10565592
0.03858194 0.24134544 0.08273788
0.22307676 0.14179909 0.47837967
0.09418963 0.39705735 0.20198652
0.14084595 0.21320090 0.30203938
-0.32317337 0.35367128 0.00000125
-0.33384877 0.42580685 -0.00000016
0.17658381 -0.79337329 0.37867895
0.04233242 0.43918338 0.09078066
0.33804667 -0.69168073 0.72493035
0.19639806 -0.60144347 0.42117006
0.01459981 -0.00098833 0.03130889
0.08339783 0.06230813 0.17884427
0.00318562 -0.36907572 0.00683147
0.12401441 -0.08900951 0.26594535
0.05521116 0.36257830 0.11839874
0.10678966 -0.05850158 0.22900736
0.19946820 -0.25671554 0.42775357
0.00735532 0.19020893 0.01577326
0.25193742 -0.58614892 0.54027241
0.09991541 -0.62923557 0.21426575
0.00195822 -0.39018467 0.00419934
0.24402463 -0.77950114 0.52330387
0.32678390 -0.17109120 0.70077574
0.25879431 0.17656264 0.55497414
-0.50572193 0.16518801 0.00000089
0.33110726 -0.01905471 0.71004653
0.09554611 -0.05217542 0.20489590
0.10093822 -0.64686030 0.21645913
-0.19335972 0.60614944 -0.00000048
0.13289088 0.15753624 0.28498030
0.08958257 0.09107884 0.19210725
0.01191012 0.23697278 0.02554091
0.12831981 -0.14550807 0.27517819
0.09078980 -0.76816356 0.19469611
0.26154459 -0.29023337 0.56087357
0.23512989 -0.41956350 0.50422895
0.03820581 -0.23796193 0.08193126
0.05907634 0.50675720 0.12668738
0.32727656 -0.73964423 0.70183444
0.25985748 -0.34928122 0.55725580
0.11629060 -0.64217132 0.24938188
0.22912273 0.11669758 0.49134505
0.18588807 -0.18936299 0.39863142
0.11942178 -0.43665969 0.25609660
0.11157342 -0.21277282 0.23926601
0.22056977 -0.27703428 0.47300497
0.15735985 0.39891681 0.33745205
0.04644625 0.10737169 0.09960264
0.14257585 -0.72757345 0.30574983
-0.70639163 -0.05823871 -0.00000150
-0.58589721 -0.00745938 -0.00000107
0.09722615 -0.10609209 0.20849872
0.31600773 -0.58005679 0.67766827
-0.21516481 0.51772237 0.00000058
0.05813704 -0.42361453 0.12467321
0.05446888 -0.09076956 0.11680695
0.06769007 0.62648112 0.14515871
0.25311145 0.08854703 0.54278785
0.18869556 -0.50257933 0.40465227
0.18776084 -0.18948001 0.40264750
0.15256950 0.23283212 0.32717994
0.04260741 -0.19619326 0.09137037
-0.53985667 0.08757613 0.00000153
0.14611246 0.12075264 0.31333348
0.28175458 -0.08108884 0.60421222
0.06196556 0.03954851 0.13288337
0.08614481 -0.13432643 0.18473509
0.22374207 -0.00355892 0.47980690
0.06688186 0.26283106 0.14342622
0.05706170 -0.41131967 0.12236718
0.11949274 -0.74733770 0.25624877
0.27458611 -0.19608004 0.58884013
0.03469758 -0.45353648 0.07440797
0.22015110 0.16216831 0.47210568
0.01013858 0.59834290 0.02174189
0.33490503 -0.55747956 0.71819270
0.13679324 0.43428743 0.29334781
0.21133344 -0.79605818 0.45319852
0.15092552 -0.41274807 0.32365546
0.25167093 0.18580177 0.53969842
0.06359935 -0.56853759 0.13638698
0.22579309 0.08573221 0.48420492
0.22892293 0.01187325 0.49091694
0.17516330 -0.14376549 0.37563252
0.14023101 0.03623130 0.30072129
0.11662529 0.26400363 0.25009918
0.16242164 -0.75177389 0.34830859
0.07278582 -0.53448445 0.15608712
0.11695582 -0.26051211 0.25080842
0.01432067 -0.61542302 0.03071027
-0.12304053 0.63297546 0.00000043
-0.40046787 0.38669848 -0.00000079
0.23216602 -0.05344378 0.49787182
0.19589967 -0.64084291 0.42010126
0.13077644 -0.15800683 0.28044635
0.15122630 0.33717623 0.32429913
-0.33185065 0.34167212 0.00000128
0.03113326 -0.56068587 0.06676439
0.15558705 0.18055607 0.33365107
0.27187616 -0.33706617 0.58302921
0.22160392 -0.31535918 0.47522277
0.00378845 -0.66288084 0.00812421
0.30252403 -0.64740855 0.64875335
0.23128536 -0.11888890 0.49598351
-0.32453313 0.45476255 -0.00000047
0.15319289 -0.19324327 0.32851779
0.00006528 -0.37323090 0.00013999
0.33000645 -0.12315772 0.70768619
0.16820577 0.36217684 0.36071074
0.11676137 -0.00058819 0.25039142
-0.42537755 0.24018653 0.00000118
0.06683449 -0.12609185 0.14332464
0.00431603 -0.25389364 0.00925561
0.16508201 -0.32898632 0.35401365
0.08493170 -0.33391014 0.18213360
0.27005839 -0.06637262 0.57913023
0.06244027 0.28670153 0.13390137
-0.50842202 0.11277587 0.00000172
0.00049078 -0.44759312 0.00105246
0.08073221 0.03816106 0.17312792
0.09345581 0.33954173 0.20041306
0.10979616 0.18263407 0.23545469
0.25210547 0.02327868 0.54063076
0.18071461 -0.72615492 0.38753730
-0.75172698 -0.16793969 -0.00000150
0.27010393 0.00767242 0.57922769
0.27524215 0.05500939 0.59024614
-0.64373469 0.01984945 0.00000067
0.16376382 -0.04411910 0.35118654
0.06325699 0.64090669 0.13565214
0.07317156 0.01303661 0.15691432
-0.72624034 0.06506623 -0.00000167
0.05737984 -0.61781406 0.12304942
0.15140098 -0.76680923 0.32467508
0.23421457 -0.53276598 0.50226647
0.07760161 0.57146323 0.16641371
0.12406540 0.30322096 0.26605400
0.14427602 0.15825319 0.30939522
0.25692418 -0.30425504 0.55096537
0.12325403 0.27608767 0.26431414
0.04432056 -0.44054309 0.09504418
0.06350922 0.45624539 0.13619365
0.12205545 -0.16345240 0.26174444
0.18802878 0.15552166 0.40322092
0.29546589 -0.11394723 0.63361555
-0.49808419 0.18234050 0.00000075
-0.61523253 0.17761332 -0.00000142
0.25916544 -0.20038122 0.55577129
0.27742249 0.00770692 0.59492201
0.21498822 -0.68008620 0.46103609
0.19878165 -0.57982606 0.42628157
0.02976587 -0.03528711 0.06383205
0.00149368 0.14926080 0.00320316
0.22562121 -0.05156197 0.48383677
0.05277458 0.04621358 0.11317358
0.30416825 -0.32065791 0.65227807
0.27342033 -0.77649599 0.58634210
0.02555498 0.17234728 0.05480191
0.32078680 -0.78502345 0.68791759
0.06538510 -0.57697684 0.14021648
0.10597123 0.28899303 0.22725198
0.11194639 -0.74614179 0.24006584
0.04775596 -0.26442626 0.10241129
0.02071779 0.13451222 0.04442871
0.29907197 -0.69747329 0.64135063
0.16077504 -0.31455040 0.34477749
0.19044606 0.34490880 0.40840402
0.19377613 -0.55919647 0.41554737
0.23433611 -0.27585033 0.50252622
0.10316699 0.17137559 0.22123864
0.06299477 -0.50574297 0.13509049
-0.35442987 0.35719237 0.00000059
0.03674675 0.39684457 0.07880236
0.08587057 -0.10184784 0.18414699
0.02051417 -0.76558763 0.04399205
0.14061981 0.03244049 0.30155504
0.16456825 -0.38252330 0.35291189
0.29746491 -0.29228115 0.63790298
-0.46976313 0.19143867 0.00000114
0.29219809 -0.26679552 0.62660843
0.04781214 0.62611353 0.10253145
0.05816072 -0.11370874 0.12472400
0.33014289 -0.67200780 0.70798093
0.00555713 0.15210705 0.01191711
0.29104534 -0.47323889 0.62413710
0.33483660 -0.78459138 0.71804684
0.02521022 0.25533462 0.05406259
0.04497513 0.11892361 0.09644788
0.00520390 -0.06131771 0.01115962
0.15518469 -0.13997567 0.33278912
0.30137581 -0.66267693 0.64629102
0.09903621 0.42006394 0.21237969
0.00489597 -0.49081248 0.01049927
-0.75577313 -0.00941758 -0.00000179
0.11771317 -0.44632819 0.25243253
0.13880256 -0.58486301 0.29765812
0.05460450 -0.65145600 0.11709780
0.23523583 -0.29602867 0.50445569
0.17166927 0.23552327 0.36813846
0.23219278 -0.39571974 0.49793035
0.27300140 -0.52253902 0.58544290
0.23053733 -0.69144660 0.49438071
0.17447618 0.38711366 0.37415722
0.24473843 -0.37347472 0.52483380
0.02904042 -0.68205875 0.06227636
0.17375997 -0.37623110 0.37262326
0.24212879 -0.10543523 0.51923668
0.02601562 -0.41329622 0.05578975
-0.61941445 0.01503729 0.00000122
0.02932109 -0.75320023 0.06287823
0.25722316 -0.56940383 0.55160737
0.04726657 0.17127538 0.10136182
0.13735552 0.41013482 0.29455367
0.07869756 0.19692074 0.16876467
0.26495677 -0.05884818 0.56819004
0.03075132 -0.17087857 0.06594532
0.01732472 -0.11944435 0.03715238
0.07371497 0.52099186 0.15807918
-0.32142940 0.45234850 -0.00000037
0.14939861 -0.29662257 0.32038105
0.33345276 -0.01922242 0.71507627
-0.51492232 0.12879223 0.00000132
0.19661684 -0.04594136 0.42163828
0.03898256 -0.50224239 0.08359698
0.27090925 -0.77499950 0.58095711
0.06143424 0.01916887 0.13174397
0.08588250 -0.60100341 0.18417257
0.03816456 -0.33901322 0.08184280
0.11690602 -0.13800088 0.25070161
0.31706658 -0.48431417 0.67993855
0.02555231 0.29658717 0.05479620
0.09068482 0.07444502 0.19447102
0.28213450 0.10401384 0.60502630
0.22488756 0.03301674 0.48226324
0.06899542 -0.39447030 0.14795870
0.00100482 0.01319689 0.00215480
0.27710894 -0.70932436 0.59425193
0.22044933 0.04258834 0.47274560
0.32152277 0.03511008 0.68949282
0.06547981 -0.09192357 0.14041959
0.04333246 -0.46115583 0.09292521
-0.77434695 -0.08651879 -0.00000174
0.05697423 -0.14850059 0.12217961
0.23469956 -0.74245012 0.50330651
0.11725921 0.11777278 0.25145903
0.08906370 -0.04934074 0.19099456
0.14976476 -0.38510382 0.32116625
0.22250092 -0.54218125 0.47714686
0.02817898 0.35653919 0.06042902
0.25315452 -0.31214088 0.54288155
0.09870790 0.42009029 0.21167564
0.32101095 0.00671621 0.68839532
0.08005671 0.37464198 0.17167921
0.12307831 0.12332628 0.26393783
0.32339203 -0.57658774 0.69350356
0.03853190 0.57949603 0.08263056
0.02888841 0.29605380 0.06195036
0.02489612 -0.00002951 0.05338903
0.11802951 -0.31432334 0.25311089
0.07909019 0.34023902 0.16960666
0.07774554 -0.18369210 0.16672309
0.28606424 -0.52760392 0.61345553
0.15431224 0.02904954 0.33091781
0.07314024 0.20160940 0.15684715
0.07435744 0.09376715 0.15945740
0.20461622 -0.08882902 0.43879271
0.18834729 -0.30183935 0.40390539
0.21711104 -0.78382546 0.46558839
0.04317125 -0.67003393 0.09257951
0.15179446 0.27927852 0.32551774
-0.36818996 0.39293364 -0.00000027
0.31932718 -0.59790289 0.68478680
0.19732267 -0.43596750 0.42315283
0.26625463 0.06494686 0.57097280
0.11737593 -0.31478128 0.25170931
0.30241862 -0.66881752 0.64852726
0.11794178 0.50044167 0.25292152
0.30801865 -0.29325023 0.66053498
0.02952782 -0.49487808 0.06332157
0.12694530 0.29144502 0.27222985
0.14101462 0.39435154 0.30240047
0.08507918 0.42156866 0.18244950
0.22423799 -0.58622485 0.48087195
-0.57303107 0.01006348 0.00000219
0.18418302 0.31493813 0.39497334
0.08943635 0.45884594 0.19179313
0.10807803 0.04225075 0.23177023
0.20919771 -0.26869592 0.44861811
0.07027161 0.24260430 0.15069546
0.01966196 0.34156138 0.04216451
0.07239147 -0.08767248 0.15524144
0.04453847 0.05876802 0.09551148
-0.49491882 0.23157811 -0.00000001
0.28143641 -0.68560952 0.60353190
0.16788226 -0.24334729 0.36001870
0.16352054 -0.09490424 0.35066500
0.01108325 -0.52393925 0.02376772
-0.48080224 0.15230797 0.00000159
-0.70609492 -0.00854568 -0.00000158
0.28572634 -0.11565003 0.61272961
0.32796291 -0.31476048 0.70330465
0.16208541 0.15599792 0.34758660
-0.79278678 -0.24238226 -0.00000139
0.01619002 -0.26571733 0.03471903
0.03082572 -0.34824899 0.06610488
0.17650118 -0.60167271 0.37850177
0.01861770 -0.12614144 0.03992513
0.17336383 -0.17374180 0.37177372
0.16342933 -0.02839115 0.35046917
0.25684899 -0.63996100 0.55080527
0.14915156 -0.62260312 0.31985128
0.10523563 -0.28025115 0.22567479
0.03135412 -0.03555839 0.06723802
0.07102924 -0.53515369 0.15232018
0.04011298 -0.00737696 0.08602113
0.00338004 -0.13687412 0.00724840
0.07467959 -0.19347632 0.16014825
0.16696566 -0.31481761 0.35805309
0.13261561 -0.44376498 0.28439039
0.20948109 0.17382573 0.44922432
0.23168038 -0.43528983 0.49683166
0.21577275 -0.48095939 0.46271849
-0.31881756 0.39828363 0.00000059
0.09289837 0.54510230 0.19921699
0.14157294 -0.30616111 0.30359909
0.09027444 0.17000355 0.19359095
0.29040650 -0.12229219 0.62276596
0.03267372 0.29646361 0.07006786
0.26436028 0.01178825 0.56691068
0.18129720 -0.54394329 0.38878667
0.33645231 -0.42447028 0.72151029
0.20579915 -0.79591495 0.44133040
0.00490095 -0.55642700 0.01050995
0.32195181 -0.42317054 0.69041449
-0.55565691 0.03467190 0.00000211
0.20297673 0.28339300 0.43527564
0.28400028 -0.53339344 0.60902953
0.21082118 -0.66029054 0.45209998
0.04777634 0.27579373 0.10245500
0.13580465 -0.29952347 0.29122922
0.12861145 -0.57885325 0.27580357
0.20606697 0.01631114 0.44190341
0.04664844 -0.37256449 0.10003624
0.07573641 -0.45590788 0.16241457
-0.78673911 -0.21708216 -0.00000146
0.08784683 -0.27268144 0.18838501
0.04977258 -0.05577115 0.10673587
0.03348460 0.47066075 0.07180678
-0.56553078 0.13050033 0.00000032
0.22337703 -0.41294652 0.47902545
0.14313321 -0.29005638 0.30694509
0.20019060 -0.03805177 0.42930198
0.20943050 -0.56148946 0.44911772
0.27051690 -0.62432444 0.58011538
0.12021798 -0.68346936 0.25780401
0.32065150 -0.34219390 0.68762571
0.15385216 -0.50490147 0.32993156
0.09731703 -0.62621540 0.20869359
0.23784921 0.14405884 0.51005846
0.03095652 -0.54347235 0.06638538
0.25895581 -0.71790183 0.55532336
0.18384703 -0.44580531 0.39425468
-0.61445242 0.08792354 0.00000009
-0.38156566 0.41005546 -0.00000081
0.30820695 -0.12773094 0.66093820
0.29653940 -0.77908915 0.63592005
0.25180027 0.03598657 0.53997624
0.32516861 -0.55631453 0.69731337
0.28923607 -0.07287090 0.62025589
0.06558230 -0.07969148 0.14063936
-0.63046169 0.01808051 0.00000095
0.09273946 -0.40918237 0.19887713
0.03426260 0.52283353 0.07347517
0.01096618 -0.33647677 0.02351666
0.23463649 -0.45340407 0.50317097
-0.26138803 0.45790461 0.00000069
0.09558401 -0.69549930 0.20497717
0.00140067 0.48753735 0.00300371
0.12678657 -0.52439767 0.27189016
0.22474766 -0.46720955 0.48196486
0.17681471 -0.49886990 0.37917408
0.20606986 -0.69439822 0.44191092
0.08074814 -0.15893896 0.17316209
0.02601202 -0.40918785 0.05578203
0.00373850 -0.17014296 0.00801711
0.13560906 -0.04156973 0.29080975
0.10461751 -0.14987575 0.22434925
0.08827487 -0.29086834 0.18930294
0.02830748 0.71203023 0.06070434
0.30964518 -0.37983337 0.66402328
0.26617602 -0.28450128 0.57080537
0.24969848 -0.47624558 0.53547072
0.07227010 0.07881867 0.15498115
0.25142932 -0.48960957 0.53918254
0.15131500 -0.55731773 0.32449073
0.16768503 0.33140638 0.35959414
0.27469662 -0.33646098 0.58907765
0.20242193 -0.67377621 0.43408805
0.12622806 0.41450402 0.27069137
0.05345828 0.34213960 0.11463976
-0.69555581 0.06617617 -0.00000110
0.16907528 -0.38810870 0.36257711
0.20712419 -0.18427502 0.44417125
0.09108303 0.20333163 0.19532496
0.04328030 -0.75251234 0.09281336
0.04423774 -0.70774394 0.09486656
0.06144318 0.53580010 0.13176285
0.08235714 0.22881022 0.17661254
0.11017585 0.37604550 0.23626827
0.04896791 0.17111397 0.10501028
0.07598946 0.41071984 0.16295707
-0.56929302 0.10091599 0.00000074
0.19963641 -0.03590500 0.42811358
0.13761498 0.18373024 0.29511082
-0.76456589 0.02643697 -0.00000176
0.18870948 -0.29844427 0.40468207
0.10109615 -0.78914374 0.21679780
0.06538456 -0.61203545 0.14021534
0.04919220 0.26174772 0.10549127
0.18034728 -0.68083102 0.38674960
0.09313208 -0.70457399 0.19971909
0.04102499 -0.79628026 0.08797692
0.06385824 0.18250944 0.13694216
-0.27935779 0.50917870 -0.00000051
-0.70635104 0.09088290 -0.00000172
0.22488882 0.14134447 0.48226553
0.16555519 -0.62723982 0.35502839
0.15782847 0.10932734 0.33845791
0.18635152 -0.69134498 0.39962551
0.21728116 0.17497772 0.46595120
0.27539402 -0.08412314 0.59057230
0.33494812 -0.06448585 0.71828318
0.18365391 -0.19561259 0.39384037
-0.70477384 0.06220701 -0.00000121
0.12935361 -0.69296706 0.27739513
0.31538236 -0.34428269 0.67632627
0.18188457 -0.59765184 0.39004627
0.00024758 -0.60988265 0.00053093
-0.72793144 -0.10691547 -0.00000150
0.17800660 -0.43333849 0.38173005
0.01521374 0.58387691 0.03262543
0.13302886 -0.29679731 0.28527659
0.27348587 -0.00803549 0.58648008
0.22460043 -0.44065312 0.48164907
0.26196894 0.06302414 0.56178236
0.16922627 -0.20162781 0.36290088
0.08408014 0.27317163 0.18030745
0.01770710 0.19791691 0.03797237
0.00709111 0.03210039 0.01520668
0.21710610 -0.08846126 0.46557665
0.20178352 -0.18390480 0.43271846
-0.37760651 0.39665064 -0.00000051
0.24458493 0.16502972 0.52450287
0.26293051 -0.14056031 0.56384510
0.10032034 0.37647077 0.21513361
0.23807541 -0.05796159 0.51054424
0.21022700 -0.29300123 0.45082542
0.15216573 -0.79067004 0.32631505
0.03101213 -0.58737230 0.06650464
0.28597769 -0.14631046 0.61326867
0.08159680 0.02415809 0.17498200
-0.55105436 0.15122131 0.00000025
-0.61839229 0.15343931 -0.00000108
0.00958513 -0.51235473 0.02055504
0.27824804 -0.44295534 0.59669381
0.02253498 0.02820778 0.04832563
0.33434403 -0.14574435 0.71698809
0.05199329 -0.01733165 0.11149811
0.02185636 -0.43078867 0.04687034
0.06152104 0.14141250 0.13193011
0.18754306 0.33094823 0.40217873
-0.74690425 -0.09463101 -0.00000161
0.30342457 -0.46834296 0.65068376
0.19875856 0.27318937 0.42623004
0.32610556 -0.49750236 0.69932234
0.05780633 0.62843394 0.12396348
0.05469605 -0.36646014 0.11729411
-0.54406673 0.05455711 0.00000200
0.08247045 0.48058277 0.17685501
-0.54835677 0.16431794 0.00000009
0.15201534 -0.63241535 0.32599258
0.06334702 0.21994834 0.13584588
0.25651431 -0.49618411 0.55008703
0.04525079 -0.41630796 0.09703903
0.23116519 -0.57851952 0.49572712
0.33699730 -0.32235238 0.72267854
0.32383832 -0.09781471 0.69445884
0.25612813 -0.31341690 0.54925829
0.27549410 -0.27138066 0.59078753
0.01750139 -0.14508837 0.03753123
-0.70115423 -0.12866047 -0.00000135
0.07028689 0.03863615 0.15072823
0.04433101 -0.32746461 0.09506658
0.17832834 0.04880251 0.38241914
0.28202829 -0.02818327 0.60479903
0.26622957 0.07934011 0.57091904
0.00960460 -0.76035434 0.02059679
0.25048962 -0.71171594 0.53716785
0.01520454 -0.32442012 0.03260571
0.18893889 0.13019527 0.40517268
0.13453545 0.08055805 0.28850725
0.04899647 -0.47518036 0.10507153
0.22433139 -0.59394389 0.48107228
0.20140235 -0.47348392 0.43190157
0.06411992 0.43296608 0.13750334
0.02603623 -0.69564408 0.05583396
0.19160952 -0.58015716 0.41090113
0.24689026 -0.14615920 0.52944756
0.23767681 0.03810999 0.50968915
0.02364663 -0.55787861 0.05070953
0.04083231 0.39439023 0.08756373
0.07785294 0.49796525 0.16695292
0.01475026 -0.09459271 0.03163151
0.23756193 0.15659994 0.50944239
0.06519197 0.36034873 0.13980231
0.12859340 -0.13509977 0.27576488
0.20450968 -0.24818186 0.43856475
0.11005149 0.28192446 0.23600189
0.11405013 -0.37586370 0.24457724
-0.32521522 0.35851267 0.00000113
-0.55205166 0.16848411 -0.00000005
0.09348412 0.51070559 0.20047320
0.05806881 -0.38214958 0.12452691
0.05150787 0.05804752 0.11045715
0.18565325 -0.36670652 0.39812812
-0.76050764 -0.01977125 -0.00000180
0.27839926 -0.74656165 0.59701914
0.00712179 0.52454770 0.01527248
0.30106449 0.05369050 0.64562100
0.14084508 0.08080206 0.30203795
0.01112243 -0.53458345 0.02385173
0.12369430 -0.14426899 0.26525888
0.02671942 0.36283439 0.05729903
0.07698039 -0.14541917 0.16508225
0.26969019 -0.59229362 0.57834244
0.06856988 0.29973775 0.14704613
-0.42864841 0.30575046 0.00000002
0.09710362 0.31914747 0.20823568
0.00350296 0.08493585 0.00751199
0.18893912 -0.55204147 0.40517455
0.15408756 0.28218153 0.33043516
0.13354871 0.04875984 0.28639135
0.03495719 -0.59928238 0.07496469
0.05391167 -0.37251705 0.11561204
0.07902512 -0.65191299 0.16946711
0.13239770 0.11176464 0.28392282
0.23955750 -0.62195492 0.51372421
0.16197132 0.11106391 0.34734207
-0.52423799 0.07567715 0.00000203
0.02242731 -0.18932107 0.04809472
0.20244414 -0.18015121 0.43413505
0.14105812 -0.48083395 0.30249506
0.06370094 -0.33481017 0.13660485
0.22026369 -0.07636565 0.47234792
0.30386627 -0.34274644 0.65163052
