ply
format ascii 1.0
element vertex 357
property float x
property float y
property float z
end_header
0.18262547 0.31883770 0.30715841
0.06021080 0.59445560 0.14952952
0.20396946 0.40585190 0.19567072
0.17594770 0.19993515 0.43636566
0.21547121 0.31821668 0.27400318
0.28706479 0.28149781 0.23812167
0.55793959 0.08682014 0.15972359
0.20647392 0.37060285 0.22936106
0.34251663 0.17524038 0.29039502
0.31598991 0.47777432 0.00641391
0.19479819 0.58573943 0.02002270
0.30596885 0.15960334 0.34408677
0.50668097 0.22474486 0.07055347
0.45333293 0.24636377 0.10319932
0.45459500 0.29503584 0.05182243
0.29768285 0.28165820 0.22703199
0.15992244 0.54106307 0.10187328
0.09346820 0.50658202 0.20572335
0.21061014 0.34033540 0.25624704
0.16877092 0.35155439 0.28775135
0.30741265 0.18978637 0.31154653
0.35033596 0.19562021 0.26138145
0.37836337 0.18974912 0.23858540
0.04304808 0.75046492 0.00667243
0.11260671 0.50260043 0.19012876
0.20550781 0.45777166 0.14066866
0.58794463 0.20902418 0.00311678
0.08891683 0.54565787 0.17020169
0.31778088 0.22627953 0.26333177
0.36430040 0.12520227 0.31946555
0.20098597 0.22049750 0.38944817
0.20771419 0.55621845 0.03710744
0.46509877 0.18257429 0.15672611
0.34561783 0.34128287 0.11636504
0.08403402 0.64727962 0.07066871
0.31319046 0.20812839 0.28673008
0.29727593 0.27459157 0.23472138
0.32420996 0.25046054 0.23183762
0.46195331 0.27688304 0.06292883
0.21135633 0.30050647 0.29645860
0.32225111 0.37046170 0.11038501
0.21254629 0.46163180 0.12945525
0.23653258 0.31758887 0.25297955
0.16729786 0.24599048 0.39787978
0.02767373 0.70559156 0.06866032
0.18258767 0.27730829 0.34992614
0.66445911 0.04096219 0.09730936
0.16560894 0.21868093 0.42771578
0.55650115 0.08856307 0.15941031
0.30922499 0.25712356 0.24039982
0.25518987 0.42158717 0.12678120
0.23076807 0.39308316 0.18123583
0.15700497 0.43546319 0.21352482
0.35648480 0.17126735 0.28011128
0.39479351 0.23448874 0.17564827
0.57608867 0.06668289 0.16176920
0.22424699 0.34669659 0.23567151
0.32859245 0.30978823 0.16628696
0.25682965 0.46026346 0.08530030
0.27963415 0.14816642 0.38294914
0.35933861 0.31254789 0.13181305
0.22738564 0.56848079 0.00425099
0.31288588 0.37113142 0.11933173
0.28746426 0.33425799 0.18342666
0.05775864 0.64588249 0.09914026
0.29644457 0.39611810 0.11053947
0.72923344 0.06948390 0.00131772
0.16582452 0.33905497 0.30364326
0.26518759 0.25979921 0.28295588
0.12149976 0.63888919 0.04075353
0.38777164 0.28143349 0.13457190
0.08401314 0.60713106 0.11199833
0.55453998 0.10452908 0.14500085
0.09752993 0.50459045 0.20359340
0.58628917 0.15531199 0.06008414
0.13976312 0.39045474 0.27757293
0.31482354 0.44141173 0.04502720
0.40245998 0.14114568 0.26380020
0.27198160 0.17554329 0.36265510
0.44322526 0.33957770 0.01769190
0.46640062 0.20023492 0.13721573
0.24404386 0.51060593 0.04665851
0.30786926 0.29234952 0.20555136
0.24702454 0.48752809 0.06733630
0.22272974 0.47760618 0.10254166
0.10637028 0.50925457 0.18969899
0.52395260 0.19647865 0.08186569
0.36795142 0.17869650 0.26066983
0.66329873 0.04322607 0.09617396
0.14362748 0.39606050 0.26782930
0.24652688 0.27059981 0.29104289
0.36290398 0.38995925 0.04849667
0.38565785 0.16166759 0.25997287
0.07915943 0.58151507 0.14334804
0.32557619 0.46501434 0.00967933
0.26289421 0.23363960 0.31223065
0.53322935 0.23022370 0.03760091
0.15934215 0.25761911 0.39410070
0.49775922 0.19871527 0.10651463
0.55731779 0.17795946 0.06659074
0.30553362 0.18871047 0.31458679
0.50019145 0.28306878 0.01722139
0.47004282 0.11716442 0.21893895
0.08545083 0.67802262 0.03757988
0.34085283 0.31529874 0.14800262
0.33127657 0.43521753 0.03447195
0.13250908 0.59126735 0.07842390
0.44472179 0.33391342 0.02198007
0.21102712 0.25713634 0.34142005
0.45012274 0.22084263 0.13276078
0.32467726 0.23560697 0.24663939
0.20306093 0.58178771 0.01558709
0.51873481 0.19895317 0.08468823
0.38678920 0.13058807 0.29078600
0.23625325 0.43176499 0.13579307
0.52973837 0.13778067 0.13630667
0.15905607 0.36003268 0.28902358
0.56368440 0.10990941 0.13005640
0.18231879 0.45993483 0.16230161
0.17413326 0.31850198 0.31624123
0.48113790 0.23987497 0.08126727
0.07477556 0.59949076 0.12936361
0.06294080 0.67714846 0.06163945
0.23829684 0.37783772 0.18917543
0.43570772 0.19376771 0.17544951
0.34414905 0.37211606 0.08615223
0.29389697 0.16881993 0.34702447
0.02543400 0.71447486 0.06182484
0.44939464 0.30045366 0.05159873
0.17515841 0.28354162 0.35115656
0.27188385 0.43155938 0.09934455
0.24628033 0.52676064 0.02773593
0.23163117 0.26307759 0.31410819
0.16004041 0.36745867 0.28037035
0.42193952 0.11216293 0.27357799
0.41656032 0.38055381 0.00296726
0.15654296 0.43889222 0.21047211
0.51888031 0.25484186 0.02703504
0.29755971 0.21898054 0.29164660
0.33020422 0.23922481 0.23723052
0.33143905 0.36307898 0.10852764
0.14851709 0.59157193 0.06163996
0.50384349 0.12342845 0.17771666
0.13399325 0.49664590 0.17425121
0.32631204 0.22765434 0.25313973
0.27411720 0.35620299 0.17458034
0.27053040 0.41560516 0.11715230
0.35476097 0.41137430 0.03484116
0.54662132 0.07781494 0.18063425
0.18069483 0.58650315 0.03374772
0.25254950 0.21274750 0.34436959
0.03684204 0.75859421 0.00469357
0.14969857 0.64668477 0.00371914
0.19667116 0.21245196 0.40216547
0.39268807 0.27599305 0.13511106
0.35290605 0.35560027 0.09413518
0.39177185 0.14997518 0.26571244
0.23425183 0.50262326 0.06494674
0.31013164 0.44166777 0.04959122
0.53110909 0.17858867 0.09290933
0.22906458 0.42116761 0.15409292
0.20059822 0.25531924 0.35401964
0.42628357 0.15832457 0.22161312
0.35845891 0.42168850 0.02042417
0.22160932 0.57408160 0.00443154
0.65507346 0.11595659 0.02980494
0.28391179 0.38335106 0.13657027
0.18155615 0.35606888 0.26995206
0.35149074 0.44128594 0.00743000
0.18534404 0.24668641 0.37859648
0.05952047 0.72297430 0.01800901
0.32912859 0.20687689 0.27161941
0.18668959 0.45316356 0.16477144
0.67911863 0.06196972 0.06061177
0.60554445 0.13815635 0.05792382
0.03949283 0.71463567 0.04719461
0.18966994 0.42050758 0.19530419
0.22006597 0.19104408 0.40012133
0.22466923 0.56295502 0.01273128
0.15784293 0.47663197 0.17030482
0.09308932 0.67639226 0.03139816
0.33687410 0.45062569 0.01285936
0.31691474 0.25726148 0.23234610
0.24697283 0.31373876 0.24619918
0.20911652 0.32549694 0.27305084
0.18290387 0.37907100 0.24489897
0.19356085 0.42625421 0.18538831
0.53522301 0.21834455 0.04777203
0.19074962 0.25839972 0.36098319
0.20142616 0.38085935 0.22400185
0.40576562 0.15870209 0.24233547
0.45856604 0.16990863 0.17647919
0.27912155 0.35453159 0.17115107
0.20420069 0.40532804 0.19597182
0.48196170 0.20883350 0.11235802
0.34145808 0.28161681 0.18203498
0.54913354 0.17215441 0.08098426
0.26863831 0.18918651 0.35205767
0.33592626 0.28011236 0.18927452
0.23680732 0.44993719 0.11652576
0.45058671 0.14023240 0.21522272
0.17589571 0.23961762 0.39559060
0.30175266 0.38905033 0.11235000
0.54965985 0.18531138 0.06690566
0.16404758 0.26825529 0.37831604
0.68373638 0.09899734 0.01776310
0.25128865 0.51691425 0.03271381
0.18475783 0.55026138 0.06685623
0.57333827 0.19218633 0.03546947
0.50502729 0.20284460 0.09478795
0.38908991 0.40015566 0.01106315
0.40021202 0.19994394 0.20561609
0.17832340 0.33458725 0.29538026
0.28626618 0.51352060 0.00021740
0.08469808 0.51377606 0.20734487
0.28663707 0.36328682 0.15441023
0.32162809 0.16829363 0.31903410
0.29661441 0.27162039 0.23845901
0.25210917 0.35786247 0.19551642
0.19638021 0.21720193 0.39757767
0.72445744 0.07143750 0.00422163
0.46724582 0.12603134 0.21269365
0.09615291 0.49395564 0.21595217
0.18294787 0.36625686 0.25803795
0.18717571 0.44299549 0.17473303
0.04113710 0.74619353 0.01303341
0.70949239 0.07276950 0.01824858
0.45543584 0.23964176 0.10795191
0.17812738 0.48906925 0.13663816
0.35406870 0.25780255 0.19356231
0.26125044 0.17923503 0.36989778
0.28326181 0.16247936 0.36449042
0.11794916 0.55305243 0.13272294
0.26910174 0.23284890 0.30665740
0.12826595 0.50846106 0.16798747
0.31439286 0.47375712 0.01219038
0.21224847 0.22561041 0.37259987
0.35453618 0.12491255 0.32980981
0.46117204 0.17823169 0.16523436
0.43479490 0.11030904 0.26225874
0.61188090 0.15878993 0.03017454
0.23607676 0.21495181 0.35904998
0.30870783 0.27147448 0.22616649
0.31928173 0.46372619 0.01748103
0.32928631 0.46917775 0.00157830
0.20018101 0.46794957 0.13567741
0.49102744 0.27504352 0.03490733
0.45798004 0.10756537 0.24122664
0.30915964 0.42289984 0.06990150
0.37991723 0.39906946 0.02161844
0.30229124 0.28757724 0.21620055
0.06137563 0.63072366 0.11101547
0.05544534 0.61326253 0.13508247
0.47821203 0.20895952 0.11608638
0.29854232 0.46275964 0.03981413
0.29976663 0.38039917 0.12329452
0.20127638 0.18179393 0.42897081
0.24261937 0.52247417 0.03591302
0.06185184 0.73329479 0.00499160
0.10137531 0.57539803 0.12678434
0.29315031 0.16707048 0.34959266
0.23616707 0.22359771 0.35006145
0.25887045 0.46825859 0.07497439
0.16461948 0.38585514 0.25673124
0.47458008 0.25435641 0.07311474
0.53113353 0.20871140 0.06189113
0.05600183 0.61072516 0.13712054
0.01231146 0.76620424 0.02210289
0.12045207 0.42485249 0.26205036
0.42924333 0.14670075 0.23052754
0.17320167 0.33403477 0.30121830
0.42977151 0.20770516 0.16721709
0.44340611 0.33286905 0.02440832
0.57614690 0.22218047 0.00171896
0.63216662 0.13389418 0.03491779
0.18140388 0.23057251 0.39922971
0.41142136 0.31426996 0.07645367
0.26724616 0.24758701 0.29340279
0.17472616 0.39685208 0.23501819
0.23670526 0.29529944 0.27573511
0.30262589 0.36663845 0.13451099
0.59834117 0.08751700 0.11743770
0.20126918 0.33276364 0.27364817
0.31796992 0.28501764 0.20270267
0.43967825 0.16865914 0.19719830
0.21968451 0.44197491 0.14233558
0.34279379 0.23708887 0.22647502
0.43057558 0.13400680 0.24221750
0.14706077 0.46096683 0.19751590
0.26432294 0.15980481 0.38672796
0.11199024 0.55429405 0.13757640
0.56006920 0.15466510 0.08772726
0.68124396 0.09372610 0.02575111
0.10383891 0.44106659 0.26246083
0.58281350 0.08762456 0.13330336
0.51910937 0.17406429 0.10991084
0.10287426 0.64594233 0.05266024
0.25076973 0.21010774 0.34891671
0.22590858 0.47751322 0.09936661
0.51933312 0.23210974 0.04995810
0.71287203 0.05884868 0.02909436
0.12206058 0.60776621 0.07219867
0.18531942 0.22271028 0.40329039
0.37117130 0.16060661 0.27596933
0.35804358 0.19640961 0.25263903
0.48907831 0.08950090 0.22781627
0.17279626 0.44544816 0.18700419
0.37599343 0.27905330 0.14913934
0.14110053 0.52808148 0.13459519
0.46747607 0.31104401 0.02209850
0.27688059 0.37075129 0.15676844
0.10360019 0.55343127 0.14709643
0.28348589 0.16880789 0.35774854
0.40252042 0.30592346 0.09419942
0.37066621 0.31542772 0.11719513
0.07936916 0.59223694 0.13210069
0.38323891 0.34400070 0.07486063
0.09125792 0.47605708 0.23940402
0.57463616 0.20179325 0.02424958
0.33135691 0.17226665 0.30493659
0.35575050 0.12676327 0.32665622
0.15696681 0.50895190 0.13795285
0.53580272 0.25419268 0.01029162
0.24079476 0.54216188 0.01753375
0.12361282 0.36741027 0.31789958
0.44525796 0.19393459 0.16545162
0.27269363 0.51312482 0.01458924
0.33272171 0.24912395 0.22445527
0.40442771 0.11606590 0.28757977
0.14121854 0.29751739 0.37169704
0.20220751 0.32443744 0.28124943
0.31164238 0.37472820 0.11691048
0.04430671 0.68095106 0.07689921
0.39309794 0.29437473 0.11577654
0.19518262 0.28876576 0.32517913
0.60702801 0.13982984 0.05467556
0.61682361 0.07931369 0.10686159
0.40726066 0.17431486 0.22473338
0.56615835 0.09511246 0.14273545
0.09227102 0.56583589 0.14598982
0.20387878 0.23530881 0.37123275
0.18359816 0.30812621 0.31717846
0.30333176 0.40257525 0.09680958
0.31400496 0.22530615 0.26821819
0.14579859 0.54897016 0.10826947
0.43171030 0.18365869 0.18996350
0.15324757 0.60892034 0.03892313
0.62518573 0.15815312 0.01714056
0.15970442 0.31326112 0.33647895
0.71640092 0.02861357 0.05657218
0.32513988 0.31800511 0.16138500
0.32670370 0.39226428 0.08337127
0.35690898 0.36876765 0.07646877
0.26440796 0.40983132 0.12939230
0.22143108 0.56918848 0.00964946
0.27796131 0.26024225 0.26935747
0.59869295 0.08879232 0.11576359
