ply
format ascii 1.0
element vertex 1102
property float x
property float y
property float z
end_header
0.32174152 -0.68097812 0.24687904
0.15540592 -0.68276387 0.11924624
0.02027581 0.71808904 0.01555911
0.10199629 0.38314703 0.07826929
0.13458060 -0.28939542 0.10326653
0.24941638 -0.73554641 0.19138244
0.40735158 -0.52602214 0.31256947
0.44502422 -0.17266408 0.34147573
0.28455639 -0.69908541 0.21834613
0.41006812 0.11629778 0.31465602
0.40629789 -0.71057779 0.31176093
0.32973671 -0.27378276 0.25301394
0.46285084 0.07561466 0.35515657
0.51132345 -0.70805824 0.39234918
0.45459956 -0.73999739 0.34882382
0.16908562 -0.41232693 0.12974297
0.24010302 0.31245014 0.18423916
0.08856382 0.32027224 0.06796368
0.40294543 -0.60846740 0.30918854
0.41498050 -0.74637210 0.31842327
0.40844855 -0.72636783 0.31341118
0.33035687 -0.65288526 0.25348979
0.52799684 0.03371281 0.40514341
0.07399343 -0.77292353 0.05677672
0.52854747 -0.70707577 0.40556544
0.14106578 -0.55760485 0.10824274
0.01624399 0.45894846 0.01247015
0.01386684 0.64714509 0.01064278
0.55020410 0.00567581 0.42218345
0.30368316 0.06397655 0.23302887
0.36128575 0.24529289 0.27722302
0.47988945 -0.40201691 0.36822879
0.50619608 0.00873191 0.38841641
0.04075163 -0.07734404 0.03126959
0.11303513 -0.19070677 0.08673424
0.19027708 0.04841758 0.14601320
0.03612016 0.70122683 0.02771675
0.43504065 -0.49922553 0.33381581
0.20082940 0.47064456 0.15410154
0.09416390 -0.68169034 0.07225395
0.15103368 0.60718107 0.11589082
0.37005478 -0.40634942 0.28395081
0.25578132 -0.32148635 0.19626638
0.17021832 0.49985775 0.13061333
0.00686126 -0.66683286 0.00526479
0.39131781 0.19528453 0.30026743
0.16280769 -0.66855055 0.12492577
0.61724979 -0.56180269 0.47362790
0.09070001 0.65294069 0.06959641
0.29474217 0.02593395 0.22616933
0.56330788 -0.08463697 0.43223640
0.04920919 0.24574636 0.03776819
0.29031733 0.18537359 0.22277085
0.63363022 -0.40419617 0.48619652
0.26873937 -0.54304272 0.20620938
0.08272549 0.17157166 0.06348660
0.35686302 0.04824456 0.27383366
0.46936372 -0.30425167 0.36015204
0.36108321 -0.78305620 0.27706677
0.35680512 -0.39253643 0.27378410
0.28089616 -0.48733833 0.21553753
0.33120087 -0.36739221 0.25413740
0.17582493 -0.05381310 0.13491417
0.04221118 0.56113946 0.03239295
0.39223382 -0.64867455 0.30096927
0.16360886 -0.63331890 0.12554052
0.42008761 0.23095042 0.32234147
0.31847376 0.24040030 0.24437387
0.37032020 -0.58121490 0.28415450
0.51698083 -0.43325561 0.39668965
0.42519629 -0.06502966 0.32626125
0.11336944 -0.01675553 0.08699076
0.53101069 -0.46147713 0.40745503
0.34983262 0.21661927 0.26843575
0.43324682 -0.77922976 0.33243942
0.28269276 -0.35147104 0.21691610
0.19647661 0.45226029 0.15076208
0.12265332 0.58894217 0.09411524
0.44690683 -0.28495631 0.34292051
0.16067024 -0.14612129 0.12328566
0.10851315 -0.28448841 0.08326443
0.23855558 0.47850263 0.18304835
0.05569497 0.47267535 0.04274065
0.46727350 -0.67989850 0.35854879
0.23658095 -0.43099913 0.18153356
0.47431868 -0.40134376 0.36395425
0.35276622 -0.53530335 0.27068496
0.52820724 -0.27749261 0.40530354
0.45045400 -0.19385515 0.34564212
0.33962181 0.35157266 0.26059824
0.35305557 -0.42790094 0.27090698
0.44060996 -0.24604364 0.33808875
0.26418966 -0.19335735 0.20271830
0.16726173 -0.42805830 0.12834346
0.37769550 -0.29409641 0.28981361
0.06411867 -0.09097089 0.04919961
0.14184567 -0.75373954 0.10884118
0.24682610 -0.62906808 0.18939486
0.19109109 -0.48585913 0.14662822
0.24757192 -0.22968894 0.18996714
0.31237540 -0.36179271 0.23969223
0.14240305 -0.72423977 0.10926886
0.53884566 0.08781061 0.41346645
0.27782455 0.41006401 0.21318053
0.09697753 0.38521108 0.07441836
0.37704006 0.07074993 0.28931484
0.54713589 -0.64041376 0.41982850
0.14007272 -0.70483106 0.10748075
0.31625792 -0.08632856 0.24267121
0.47951534 -0.28828496 0.36794153
0.18052723 0.39651996 0.13852543
0.16878384 -0.21614584 0.12951140
0.63095868 -0.69944030 0.48414725
0.56236553 -0.24060103 0.43151367
0.17615601 0.30650651 0.13517332
0.13217355 -0.13984606 0.10141956
0.24851975 -0.36397916 0.19069444
0.02808694 -0.54584467 0.02155170
0.03664854 0.27678648 0.02812984
0.13325138 0.46152210 0.10224973
0.01065033 -0.34570214 0.00817222
0.18159179 -0.15360001 0.13933922
0.30642140 -0.31612504 0.23512359
0.20905331 0.09621319 0.16041934
0.56605279 -0.62091452 0.43434370
0.09260857 0.24486183 0.07106857
0.28558999 -0.41649827 0.21913920
0.42301685 -0.39644057 0.32458958
0.02482189 -0.68658936 0.01904636
0.06666841 0.42473403 0.05116144
0.06965642 -0.47263995 0.05344884
0.55972767 -0.44829309 0.42948997
0.34656483 -0.13711099 0.26592627
0.51011968 -0.20675407 0.39142454
0.01475219 0.18348886 0.01133044
0.01253506 -0.53551048 0.00961842
0.44926223 -0.35713404 0.34472799
0.11322298 -0.58576125 0.08687838
0.23864146 -0.62431538 0.18311462
0.26722142 -0.39448875 0.20504463
0.43560326 0.16192509 0.33424795
0.05977191 -0.62357026 0.04586424
0.55459720 -0.27079415 0.42555293
0.47714874 -0.07804569 0.36612520
0.24633057 -0.68616450 0.18901464
0.31978765 -0.78773397 0.24537981
0.17302340 0.30689919 0.13276969
0.06372758 0.59508020 0.04890189
0.35310435 -0.51464158 0.27094442
0.52332920 -0.59477860 0.40156111
0.55792403 -0.38220510 0.42810586
0.62745255 -0.08046346 0.48145562
0.12622762 -0.56403893 0.09685711
0.35914627 -0.75747627 0.27558050
0.09996298 -0.22546296 0.07670370
0.24734674 -0.63205981 0.18979436
0.37444124 -0.21556775 0.28731641
0.03147779 -0.59773010 0.02415357
0.36499140 0.08893007 0.28006962
0.10951093 0.13046551 0.08403982
0.09910668 0.35417160 0.07605261
0.00534678 0.39176315 0.00410992
0.59664875 -0.77639490 0.45782083
0.13371031 -0.33120817 0.10259874
0.41507143 -0.45476922 0.31849304
0.38441211 -0.59189785 0.29496753
0.55573380 -0.08950515 0.42642474
0.61932683 -0.01495598 0.47522047
0.06019814 -0.51447016 0.04619130
0.09896698 0.03656292 0.07595113
0.49998608 0.09587979 0.38364971
0.56561059 -0.53316861 0.43400419
0.47884765 -0.75149012 0.36742991
0.29332840 -0.47783098 0.22507706
0.47136766 -0.43808371 0.36168998
0.20088904 -0.61250043 0.15414639
0.09427911 -0.50747758 0.07234235
0.10000124 0.62936759 0.07673366
0.31599307 -0.79084134 0.24246813
0.11379418 -0.68059146 0.08731668
0.27263361 -0.03537780 0.20919751
0.62372977 -0.13323478 0.47859916
0.38130552 0.01533597 0.29258883
0.02151682 0.36284491 0.01651772
0.21704981 0.01187775 0.16655657
0.35986865 -0.78323984 0.27613479
0.07174862 -0.70136797 0.05505423
0.33043724 0.13911247 0.25355548
0.12629408 0.12461306 0.09691764
0.29349950 -0.50750273 0.22520836
0.20393533 -0.11769304 0.15648387
0.13671523 -0.22386315 0.10490448
0.18593881 -0.67046350 0.14267477
0.09453442 0.61623394 0.07253929
0.29691842 -0.67863768 0.22783175
0.36226484 -0.08565053 0.27797303
0.09883935 -0.76937944 0.07584152
0.10627400 -0.44340265 0.08154628
0.59983420 -0.21337537 0.46026388
0.34467605 -0.16083413 0.26447701
0.32708672 -0.71679860 0.25098053
0.44281405 -0.44153392 0.33978036
0.55644429 -0.52160853 0.42697072
0.42293721 -0.32306343 0.32452831
0.09930605 0.50304562 0.07620289
0.03427487 0.72445983 0.02630039
0.12948604 0.28175274 0.09936401
0.02519361 0.02890848 0.01934492
0.11038453 -0.65018487 0.08470037
0.54726392 -0.66864908 0.41992676
0.09653493 -0.76548988 0.07407329
0.26044750 -0.25016195 0.19984686
0.38815776 -0.77743566 0.29784164
0.17117871 -0.50996035 0.13134903
0.11220589 -0.32282445 0.08609795
0.14275196 -0.15443040 0.10953659
0.17213199 -0.71180117 0.13208050
0.41653591 -0.52670026 0.31961679
0.02468908 0.23001452 0.01895418
0.35774091 -0.30438232 0.27450213
0.43881479 -0.43349016 0.33671165
0.03235379 -0.63945603 0.02482574
0.33565572 -0.76731294 0.25755572
0.17323579 -0.77792609 0.13292748
0.52110505 -0.76249307 0.39985487
0.36060023 -0.12379067 0.27669582
0.28861064 0.37016520 0.22145744
0.12781902 -0.38907844 0.09807823
0.30238181 -0.52472562 0.23202395
0.12556496 0.34510398 0.09635423
0.35680977 -0.13602613 0.27378738
0.62616569 -0.67005509 0.48046944
0.14768852 0.35974586 0.11332936
0.23105252 0.06501772 0.17729992
0.34562331 -0.57285798 0.26520404
0.21708460 0.13974442 0.16658098
0.57247132 -0.16175091 0.43926784
0.34021449 -0.73125154 0.26105374
0.47508204 0.06486017 0.36454171
0.24023546 -0.48675627 0.18433774
0.51881838 -0.13360900 0.39809904
0.21299738 0.33019608 0.16344088
0.38781020 0.29461440 0.29757398
0.19086304 -0.39641342 0.14645325
0.50560772 0.06040983 0.38796389
0.07816549 -0.55390304 0.05997803
0.15471430 -0.27202341 0.11871554
0.01101279 0.69459093 0.00845201
0.05109224 0.35115910 0.03921116
0.35884297 -0.50490874 0.27534777
0.09816305 -0.77892530 0.07532258
0.23141582 0.35099119 0.17757276
0.33112487 -0.69000530 0.25407910
0.21348545 -0.06999726 0.16381189
0.62079650 -0.49873188 0.47634920
0.03349711 0.51141405 0.02570753
0.18383040 0.31460235 0.14106163
0.45421642 -0.46059495 0.34852958
0.49501407 -0.04823690 0.37983349
0.20791326 0.29508370 0.15954062
0.42251146 -0.23359276 0.32420149
0.01168224 0.44610727 0.00897015
0.23942721 -0.09764448 0.18371753
0.27464759 -0.28476036 0.21074288
0.29657769 0.29535940 0.22757204
0.33714074 -0.23513083 0.25869521
0.58001977 0.06006132 0.44505960
0.18589823 -0.64440817 0.14264363
0.49311388 -0.67056978 0.37837660
0.31534877 -0.19889556 0.24197374
0.02824042 0.06897586 0.02168202
0.08155169 -0.04293893 0.06257633
0.27022541 -0.26813397 0.20734966
0.39029390 -0.27449924 0.29948053
0.10947169 -0.43747655 0.08399994
0.05204013 -0.23360743 0.03993149
0.32938278 -0.06212077 0.25274208
0.05627248 0.67425233 0.04318002
0.01949357 -0.58794373 0.01495783
0.41848588 -0.29680943 0.32111269
0.04013595 0.04179862 0.03080995
0.20459597 -0.24470553 0.15699080
0.48093435 -0.74169308 0.36903107
0.36586243 -0.32228652 0.28073394
0.41751036 0.05955248 0.32036757
0.03913670 0.06132209 0.03004288
0.22936995 0.45106685 0.17600086
0.09720982 0.44978717 0.07459543
0.44760910 -0.34863400 0.34345949
0.12010775 0.25423148 0.09216854
0.28406924 -0.16657272 0.21797232
0.45413932 0.19796479 0.34846976
0.45865959 -0.16787477 0.35193837
0.56898761 -0.22337736 0.43659481
0.45895183 0.18254951 0.35216266
0.13268162 -0.63545924 0.10180941
0.33723459 -0.42225200 0.25876722
0.59465152 -0.33413148 0.45628735
0.53942448 -0.37243646 0.41391084
0.24659714 0.46745774 0.18921879
0.18266958 0.13424048 0.14017440
0.06470494 -0.49394298 0.04964946
0.31464869 -0.11823800 0.24143650
0.52111882 -0.27128890 0.39986444
0.01113318 0.38928199 0.00854987
0.03021483 -0.79928958 0.02318448
0.19487144 0.21274805 0.14953548
0.60094410 -0.28096011 0.46111566
0.16810998 -0.03835695 0.12899433
0.28891507 0.37253398 0.22169097
0.53636968 -0.43525952 0.41156700
0.06175416 0.27333775 0.04739345
0.01485900 -0.05063266 0.01140162
0.37961203 -0.36551526 0.29128432
0.17581618 0.07516096 0.13491686
0.08765114 0.17763293 0.06726594
0.20021601 -0.10918589 0.15362997
0.10694898 0.47474667 0.08206784
0.28242132 -0.65944928 0.21670783
0.51884758 -0.21513179 0.39812160
0.05111667 -0.11460172 0.03922290
0.37584594 0.28627378 0.28839406
0.42509264 -0.31365898 0.32618219
0.36172616 -0.49965656 0.27756011
0.19692814 -0.70327055 0.15110710
0.44517106 -0.44390026 0.34158891
0.01829875 -0.63895476 0.01404102
0.14538421 -0.09879809 0.11155636
0.52840585 -0.48400885 0.40545633
0.24791554 -0.41069922 0.19023082
0.28550294 -0.19720645 0.21907242
0.28129461 -0.26081339 0.21584329
0.31801152 0.07556556 0.24402267
0.49205047 -0.33508208 0.37755999
0.18500349 0.04183615 0.14196688
0.21004312 0.06668932 0.16117936
0.22628424 -0.67972112 0.17363267
0.25918838 0.02790553 0.19888918
0.63339329 -0.72072232 0.48601541
0.09018534 0.39184716 0.06920659
0.04846503 -0.79855537 0.03718824
0.04569363 -0.01056907 0.03506169
0.30136898 -0.17406097 0.23124678
0.05477616 0.61624449 0.04203307
0.46859387 -0.20359913 0.35956115
0.52850562 -0.50130296 0.40553293
0.07241843 -0.32690457 0.05556819
0.51988035 0.10873994 0.39891413
0.04861230 -0.62544054 0.03730125
0.51408672 -0.44117224 0.39446896
0.25791383 0.41074386 0.19790319
0.40117303 -0.12288151 0.30782795
0.17251331 0.54172122 0.13237336
0.31374234 -0.42273927 0.24074110
0.16341874 -0.58748740 0.12539464
0.07874163 -0.70044875 0.06042011
0.45681104 -0.38985422 0.35052034
0.49325490 -0.70409471 0.37848490
0.14827804 -0.49933416 0.11377687
0.51113462 -0.66736776 0.39220420
0.24636275 0.04140891 0.18904787
0.23431130 0.38854882 0.17979364
0.14437953 -0.01467066 0.11078545
0.41213846 -0.28013167 0.31624222
0.59026045 -0.62191635 0.45291865
0.61944783 -0.68298548 0.47531474
0.00459871 0.33510637 0.00353694
0.11846467 -0.64082605 0.09090044
0.32159045 -0.37783003 0.24676314
0.25420290 -0.60897028 0.19505523
0.05528637 -0.00168166 0.04242240
0.21748133 0.31179592 0.16688175
0.46262157 -0.73284769 0.35497928
0.18511324 -0.75976175 0.14204130
0.17697418 -0.08398911 0.13579603
0.11127175 0.10733466 0.08539130
0.17767704 0.48011470 0.13633674
0.14137295 -0.25835618 0.10847845
0.26399234 -0.68508106 0.20256688
0.44260854 -0.31415305 0.33962241
0.35447344 -0.59536982 0.27199495
0.29451230 -0.75576460 0.22598550
0.03225170 -0.51138473 0.02474741
0.41233775 -0.26534384 0.31639507
0.18925847 -0.35924554 0.14522201
0.13039458 0.41752124 0.10005865
0.23277175 -0.57672375 0.17861067
0.02075731 -0.12582159 0.01592752
0.59296197 -0.42952198 0.45499113
0.29209867 0.09153831 0.22413963
0.46165645 -0.58872628 0.35423869
0.63214964 -0.02871175 0.48505962
0.06054828 -0.79330426 0.04645997
0.54971057 -0.21496783 0.42180324
0.33919254 -0.45007145 0.26026958
0.46968073 -0.71743751 0.36039594
0.38301048 0.08860396 0.29389551
0.35051653 0.00578281 0.26896492
0.51115996 -0.16290443 0.39222267
0.38785291 0.21044856 0.29760849
0.15000425 -0.55509412 0.11510143
0.46380362 -0.50507569 0.35588610
0.05759923 0.28894421 0.04420509
0.30373886 -0.24681184 0.23306523
0.10914289 0.13789976 0.08375729
0.24565551 0.29298434 0.18849996
0.52620059 -0.69089907 0.40376458
0.01904734 -0.64205241 0.01461543
0.56274796 0.02115343 0.43180791
0.06188810 0.57721114 0.04749077
0.28828692 -0.41682854 0.22120863
0.54128915 -0.47017238 0.41534185
0.62743622 -0.37610659 0.48144373
0.19077951 -0.55996484 0.14638914
0.44148862 -0.75088483 0.33876351
0.31830314 -0.56289274 0.24424070
0.04701074 0.09871087 0.03608396
0.40250823 -0.00098817 0.30885223
0.01519587 -0.23932952 0.01166011
0.53856671 -0.26057032 0.41325250
0.08635208 -0.73722088 0.06625977
0.31207573 0.15111840 0.23946658
0.19498219 0.13573034 0.14962186
0.05490392 0.60955209 0.04213123
0.32414582 -0.46294871 0.24872391
0.35051221 -0.29456052 0.26895541
0.08400344 -0.15667669 0.06445761
0.21732295 0.41150075 0.16675815
0.09063019 0.09821710 0.06955320
0.24315043 -0.52870840 0.18657444
0.22138195 -0.17384085 0.16987105
0.52800995 -0.22549048 0.40515208
0.23957515 -0.23503001 0.18383107
0.17172197 -0.09012654 0.13176589
0.31720191 -0.58836216 0.24339570
0.10478855 -0.57873577 0.08040646
0.42658287 -0.76457536 0.32732603
0.11960561 -0.53633672 0.09177591
0.50107324 -0.06033474 0.38448277
0.27423993 0.38155016 0.21043067
0.22295181 0.00840502 0.17108525
0.14851084 0.27869910 0.11396180
0.44690755 -0.70362240 0.34292158
0.02185808 -0.25162610 0.01677216
0.25781405 -0.37510756 0.19782615
0.28796348 -0.30108380 0.22096045
0.06518099 0.27283183 0.05002287
0.50723130 -0.21449783 0.38920826
0.55982375 -0.38595042 0.42956355
0.02963529 0.43663332 0.02274570
0.63015598 -0.24129266 0.48353034
0.38151464 0.14890838 0.29274651
0.43675497 -0.37712216 0.33513099
0.61734134 -0.73313367 0.47369853
0.21789767 -0.18033747 0.16719748
0.06719904 0.48418996 0.05156753
0.03199923 0.13547993 0.02456496
0.09843304 -0.56266856 0.07552975
0.52625066 -0.07269984 0.40380183
0.21843576 -0.22207455 0.16761038
0.52295494 -0.31690419 0.40127343
0.18343027 0.06044891 0.14075942
0.60910356 -0.40269160 0.46737680
0.28214404 0.07604882 0.21650185
0.31486318 -0.79619414 0.24160115
0.28463280 -0.75317883 0.21840475
0.06355134 -0.02898151 0.04876429
0.36164472 -0.60346800 0.27749762
0.44993448 0.23243029 0.34524268
0.34649280 -0.04153401 0.26587084
0.41930300 -0.23459016 0.32173958
0.05370450 -0.60202885 0.04120859
0.46189725 -0.56970137 0.35442343
0.15431602 -0.74276894 0.11840994
0.14014025 -0.61002356 0.10753256
0.52784109 0.01245280 0.40502438
0.13239023 0.26069012 0.10159277
0.40293840 0.14858454 0.30918479
0.26485813 0.02431216 0.20323962
0.06126402 -0.66116291 0.04700917
0.22386467 -0.02275624 0.17177609
0.48222500 0.10421126 0.37002161
0.43256640 -0.35435149 0.33191702
0.43082532 0.15459730 0.33058202
0.39315477 -0.55033344 0.30167592
0.19237703 -0.70608026 0.14761496
0.38959286 -0.05393015 0.29894218
0.45436242 -0.66227543 0.34864184
0.59787035 -0.61753470 0.45875782
0.16710611 -0.71248943 0.12822405
0.34475070 -0.62360764 0.26453450
0.45891529 0.13008291 0.35213572
0.04189819 0.39233768 0.03215582
0.36076528 -0.01696376 0.27682227
0.57992482 -0.47822359 0.44498762
0.20440738 -0.30623117 0.15684609
0.49140552 -0.12284034 0.37706473
0.60368478 0.01490862 0.46321854
0.53447527 0.00755729 0.41011482
0.35531509 -0.27977142 0.27264076
0.02797128 0.62501526 0.02146552
0.58689368 -0.05757951 0.45033413
0.00798942 -0.03018314 0.00613045
0.30307025 -0.34908581 0.23255219
0.27232087 0.24388365 0.20896108
0.57665336 -0.40442106 0.44247726
0.04106300 -0.22913936 0.03150851
0.24727356 0.14976951 0.18974449
0.09510950 0.53974944 0.07298215
0.15725116 0.22196071 0.12066927
0.25728869 0.43212923 0.19742309
0.18954092 0.05336754 0.14544825
0.20885339 -0.15723971 0.16025761
0.00178535 0.25668302 0.00137966
0.00353564 -0.19725066 0.00271297
0.10353085 0.15656510 0.07945083
0.02295820 -0.60906911 0.01761631
0.14546748 0.26004079 0.11162697
0.37333876 0.03997337 0.28647551
0.28858519 0.17339931 0.22144204
0.22864729 -0.06013571 0.17544588
0.38373429 -0.75215912 0.29444742
0.13846679 0.40771666 0.10625259
0.08659077 0.29280397 0.06645025
0.27117664 -0.71778452 0.20807955
0.42299995 -0.29179823 0.32457641
0.26239252 -0.46249792 0.20133930
0.61595225 -0.37185973 0.47263187
0.05405911 0.14186953 0.04149141
0.44375464 -0.22069962 0.34050167
0.32708389 -0.21452723 0.25097838
0.31582668 -0.13053808 0.24234042
0.39629030 -0.63911033 0.30408189
0.22603884 -0.05127311 0.17344438
0.34687150 -0.17322364 0.26616165
0.20789085 0.17327780 0.15952601
0.03735918 -0.22851722 0.02866649
0.39258623 -0.60545188 0.30123970
0.19832869 0.51248622 0.15218189
0.13049483 0.63215691 0.10013101
0.39940995 -0.11473477 0.30647510
0.35627839 0.18693359 0.27338213
0.56025088 0.06794395 0.42989093
0.30645743 -0.25004292 0.23515125
0.47718701 0.11434994 0.36615580
0.01710911 -0.66262561 0.01312818
0.06296232 0.32003471 0.04831964
0.22638059 0.02488182 0.17371584
0.19914962 -0.01851275 0.15281171
0.12690865 0.24427933 0.09738705
0.16159610 0.14624415 0.12400451
0.38592988 -0.13674031 0.29613167
0.18233328 -0.74974763 0.13990816
0.59050906 -0.36216617 0.45310882
0.16313034 0.17687982 0.12518118
0.13722593 -0.26757544 0.10529635
0.08199968 -0.03647474 0.06292009
0.09003568 0.54151088 0.06908901
0.29407763 0.16631801 0.22565648
0.28917608 -0.57594275 0.22189091
0.25189057 -0.46212044 0.19328095
0.56616080 0.04652717 0.43442601
0.16295375 -0.27788657 0.12503785
0.03195498 0.44051939 0.02452553
0.14470904 0.55365026 0.11103914
0.12039393 -0.68506861 0.09238080
0.08084618 -0.18092054 0.06203498
0.09866249 -0.38068724 0.07570581
0.41339543 -0.40864861 0.31720695
0.32283410 0.39143819 0.24771632
0.54719657 0.09454725 0.41987392
0.31553957 -0.71024102 0.24212016
0.45871469 -0.46891841 0.35198119
0.13562530 -0.55325383 0.10406816
0.17477587 0.28733835 0.13411476
0.34719196 0.05840304 0.26641291
0.15810369 -0.67398763 0.12131630
0.56855750 -0.42155811 0.43626517
0.52087104 -0.23650976 0.39967427
0.49622294 -0.39447108 0.38076171
0.12338892 -0.44794530 0.09467892
0.22589110 0.42109159 0.17333221
0.08467224 -0.49498266 0.06497080
0.09326503 -0.48043594 0.07156422
0.00787376 -0.28221539 0.00604170
0.46937215 -0.75794184 0.36015913
0.58222520 -0.75617480 0.44675338
0.25387391 0.17340624 0.19480839
0.40723616 -0.29157558 0.31248060
0.28258359 0.43092218 0.21683165
0.57411981 0.01120442 0.44053367
0.14551574 -0.20240138 0.11165730
0.60690778 -0.54948151 0.46569225
0.25807086 -0.75003439 0.19802321
0.26727828 0.40690449 0.20508853
0.23571843 -0.60348064 0.18087173
0.38957423 -0.11880352 0.29892799
0.32112306 -0.31823128 0.24640450
0.29938725 0.35909116 0.22972646
0.26720038 0.05270007 0.20503619
0.01769053 0.46418220 0.01357998
0.09566953 0.32664201 0.07341578
0.02857244 -0.25125417 0.02192424
0.63393736 -0.46172267 0.48643234
0.29281875 -0.60109282 0.22468601
0.14432964 0.24479586 0.11075416
0.52985632 -0.45369068 0.40656924
0.38241699 -0.79225767 0.29343662
0.01209165 -0.61958045 0.00927818
0.14607550 -0.79068339 0.11208681
0.56544495 -0.40769708 0.43387684
0.56266034 -0.47119325 0.43174031
0.56170088 -0.59438896 0.43100435
0.29785028 0.42150986 0.22854584
0.09904251 -0.16289896 0.07599741
0.37494841 0.27602938 0.28770563
0.45992804 -0.32853007 0.35291198
0.02861705 -0.41091987 0.02195846
0.47144318 -0.71369046 0.36174828
0.29019111 -0.66579646 0.22266974
0.20659269 0.07228314 0.15853174
0.05211207 0.72448850 0.03998672
0.05611803 0.32273078 0.04306796
0.40150309 -0.41103101 0.30808178
0.50020993 0.14263292 0.38382050
0.13121574 0.20179303 0.10069265
0.10951144 0.47601613 0.08403397
0.23917221 0.18285640 0.18352769
0.04290506 0.09286681 0.03293378
0.34067079 0.00521520 0.26141039
0.36934194 -0.62773168 0.28340384
0.42801145 -0.46847790 0.32842213
0.15066020 0.28728223 0.11561085
0.39475948 -0.31568748 0.30290711
0.29414061 -0.34674406 0.22570027
0.15461944 -0.65875268 0.11864276
0.32334337 -0.47151363 0.24810818
0.17802715 -0.59146881 0.13660400
0.24374641 -0.72537881 0.18703176
0.57155669 -0.12117406 0.43856594
0.45124608 0.08957622 0.34625205
0.10369818 -0.47284755 0.07956980
0.19781265 -0.39447072 0.15178581
0.37401867 -0.37526494 0.28699240
0.42553443 -0.46463531 0.32652149
0.32718903 0.22691797 0.25106132
0.16815388 -0.22639389 0.12902802
0.54361463 -0.29524457 0.41712591
0.00304109 0.41237032 0.00234039
0.46346378 -0.71185255 0.35562551
0.46620849 -0.01360554 0.35773042
0.57668471 0.00629797 0.44250178
0.20212837 -0.60096681 0.15509737
0.36173984 -0.49157631 0.27757061
0.60045928 -0.13655442 0.46074337
0.01208835 0.76785582 0.00927596
0.25168309 0.17684671 0.19312732
0.35936919 -0.64156830 0.27575156
0.18096825 0.07061164 0.13887012
0.60216206 0.01790387 0.46205008
0.11613714 -0.42089522 0.08911448
0.25843224 0.30983627 0.19830307
0.20980829 -0.30759150 0.16099031
0.31000555 -0.13367245 0.23787376
0.27419776 -0.10110325 0.21039774
0.54122800 -0.56316078 0.41529509
0.06407574 0.16258059 0.04917680
0.15040328 0.26704586 0.11541407
0.06301501 -0.03005866 0.04835275
0.59305286 -0.71143728 0.45506150
0.43408623 -0.12870836 0.33308277
0.24736048 0.24470948 0.18980919
0.57674599 -0.55750090 0.44254863
0.11609517 -0.35354215 0.08908227
0.02041733 0.37844044 0.01567380
0.50757384 -0.54499477 0.38947171
0.35380062 -0.33861455 0.27147868
0.46688977 -0.55360091 0.35825425
0.25562474 -0.20761701 0.19614625
0.44827425 0.01535948 0.34397337
0.19509172 -0.61115348 0.14969799
0.04069603 -0.64081478 0.03122692
0.02627466 0.38003936 0.02016810
0.06199514 -0.39507678 0.04757018
0.49684283 -0.09663733 0.38123679
0.53929710 -0.24703678 0.41381288
0.36596841 -0.09700326 0.28081486
0.57087928 -0.39099190 0.43804666
0.63065404 -0.22777513 0.48391250
0.06150521 0.00206130 0.04720731
0.29992568 -0.78970802 0.23013930
0.10001844 -0.55347753 0.07674626
0.10734490 0.09194524 0.08237851
0.18159573 -0.68117911 0.13934223
0.24261872 -0.78073227 0.18616647
0.03650584 -0.23188888 0.02801170
0.52301800 -0.44921759 0.40132207
0.02915953 -0.43838546 0.02237472
0.02397466 0.22266211 0.01840614
0.61102146 -0.25962517 0.46884811
0.04412931 0.71340793 0.03386185
0.01309246 -0.69381350 0.01004612
0.22448923 0.38421625 0.17225733
0.03901273 0.36747888 0.02994225
0.32415062 0.14302848 0.24873172
0.50155544 -0.18473172 0.38485304
0.02369907 0.24555156 0.01819427
0.21051332 -0.33489192 0.16153131
0.07465259 0.44997710 0.05728725
0.57395679 -0.74571794 0.44040883
0.07148218 0.12785803 0.05486038
0.00661474 0.37502527 0.00508313
0.35775155 -0.08768594 0.27450991
0.19015051 0.32459912 0.14591081
0.53253740 0.12730297 0.40862536
0.52999592 -0.29988158 0.40667608
0.42065528 -0.05036180 0.32277682
0.11628705 -0.31899089 0.08922951
0.38879946 -0.62225032 0.29833403
0.28899941 0.10444120 0.22176132
0.06204780 0.05844938 0.04762262
0.45284799 0.16282202 0.34747964
0.57940668 -0.22583517 0.44458953
0.63085502 -0.21330763 0.48406664
0.27984467 -0.22978228 0.21473069
0.24187671 -0.06074489 0.18559709
0.31336367 -0.25081310 0.24045055
0.09997344 -0.08001973 0.07671173
0.51239675 -0.02769250 0.39317140
0.35317376 -0.03217094 0.27099720
0.55207956 -0.16789652 0.42362091
0.11146152 0.59966326 0.08552765
0.21958821 0.10135916 0.16850267
0.31844553 -0.36541295 0.24434999
0.32360879 -0.03470902 0.24831156
0.36769152 -0.03079116 0.28213689
0.28157365 0.00051113 0.21606579
0.56779408 -0.17870083 0.43567896
0.31590351 0.37312648 0.24239893
0.23200269 -0.42764670 0.17802055
0.22419190 -0.26257131 0.17202717
0.16541611 -0.61786020 0.12692727
0.26666325 -0.19777176 0.20461634
0.09097015 0.55660588 0.06980571
0.23209655 -0.57618392 0.17809257
0.44787788 -0.14872859 0.34366533
0.10212055 -0.18957680 0.07835925
0.42703819 -0.18318117 0.32767481
0.39904758 -0.35288644 0.30619749
0.41497815 -0.04077923 0.31842068
0.00584957 -0.13951573 0.00448850
0.62673098 -0.27236941 0.48090234
0.57806611 -0.31759721 0.44356108
0.61469650 -0.50588834 0.47166860
0.04722542 0.40787444 0.03624313
0.10529805 -0.69604218 0.08079741
0.17572632 -0.31367633 0.13483851
0.30703527 -0.53639549 0.23559465
0.33422515 -0.23492923 0.25645801
0.34276262 -0.45801988 0.26300898
0.60067558 -0.48726118 0.46091005
0.52865833 -0.20016268 0.40564951
0.02035902 -0.36171165 0.01562191
0.30770355 -0.03237300 0.23610722
0.29706588 0.31792888 0.22794615
0.07979238 -0.45182452 0.06122637
0.63149381 -0.72199982 0.48455796
0.18167299 -0.70272869 0.13940153
0.55960500 -0.09160704 0.42939514
0.36453614 0.01548625 0.27972183
0.59706104 -0.30034274 0.45813614
0.11348852 -0.35301962 0.08708214
0.00857737 0.22062515 0.00659183
0.11824817 0.28784269 0.09074107
0.22031207 -0.28813514 0.16905008
0.17704138 0.46337405 0.13584936
0.61198670 0.00262889 0.46958873
0.47234786 -0.04917371 0.36244136
0.27134308 -0.30607167 0.20820726
0.30026245 0.38854617 0.23039737
0.39752954 -0.33879694 0.30503267
0.51090407 -0.27096453 0.39202654
0.30779347 -0.53434002 0.23617642
0.21465585 0.27006325 0.16471468
0.12083048 0.52574766 0.09271793
0.17072590 0.05389048 0.13101146
0.17225389 0.38159418 0.13217768
0.35575894 0.03935477 0.27298668
0.45732865 -0.11160950 0.35091698
0.22054289 0.04481700 0.16923623
0.33835548 0.00750350 0.25963384
0.40058511 0.07764142 0.30738059
0.16615765 0.37301236 0.12750028
0.12971348 -0.23528999 0.09953189
0.08471622 0.21929453 0.06501322
0.23738536 -0.73197401 0.18215080
0.26290715 -0.05977995 0.20173420
0.04826642 -0.68476605 0.03703584
0.01409318 -0.49420467 0.01081400
0.14628787 0.28623390 0.11225598
0.19815968 0.51251233 0.15205222
0.38331863 -0.22026300 0.29412818
0.38224709 -0.66265166 0.29330626
0.08056758 -0.33531430 0.06182120
0.48807541 0.01646970 0.37451243
0.20295385 0.28751355 0.15573546
0.30947366 -0.52497882 0.23746566
0.26654419 -0.44943318 0.20452496
0.15125640 0.04544729 0.11607266
0.00025721 -0.79963762 0.00019736
0.34026241 -0.24082509 0.26109052
0.56508988 0.08692524 0.43360344
0.10401931 -0.26426375 0.07981621
0.08947338 -0.26717180 0.06865481
0.24123000 0.16984940 0.18510689
0.13343209 -0.41122463 0.10238526
0.11937513 -0.47243524 0.09159906
0.38023582 -0.69486541 0.29176295
0.11352556 -0.48273221 0.08711055
0.46392331 -0.09220055 0.35597712
0.39736488 0.23049000 0.30490655
0.26147982 -0.21119720 0.20063899
0.36688244 -0.14837079 0.28151631
0.17993096 0.09456266 0.13807379
0.22561619 0.20294586 0.17312585
0.52494317 -0.63623667 0.40279964
0.25209704 0.04774358 0.19344763
0.48142201 0.05095730 0.36940658
0.41400608 -0.05044331 0.31767482
0.13176835 0.32478672 0.10111444
0.24192846 -0.19235867 0.18563680
0.11857869 0.59823430 0.09098862
0.01231977 -0.04681458 0.00945322
0.25687003 -0.63591397 0.19710179
0.46612108 -0.76287633 0.35766453
0.09063419 -0.74096161 0.06954552
0.26421523 -0.20651162 0.20273791
0.54857218 -0.71921456 0.42093077
0.03371258 -0.09114351 0.02586837
0.51202291 0.02510733 0.39288694
0.39542544 -0.69464558 0.30341828
0.53997332 -0.03675688 0.41433135
0.00394000 -0.75511968 0.00302325
0.06005397 -0.12632357 0.04608068
0.59881836 -0.34693125 0.45948467
0.24770828 -0.27476308 0.19007179
0.42694032 -0.64774722 0.32760030
0.05814473 -0.30911148 0.04461568
0.02456172 -0.30274454 0.01884672
0.03275526 -0.25349385 0.02513380
0.09635554 -0.77596200 0.07393563
0.60316586 -0.62668544 0.46282119
0.16890563 -0.11725903 0.12960485
0.32855931 0.16869369 0.25211394
0.51608628 -0.74186021 0.39600381
0.08518229 0.62152541 0.06536337
0.53979820 -0.79464519 0.41419849
0.45694149 -0.03513676 0.35061976
0.58105582 -0.53556132 0.44585559
0.58982664 -0.74195486 0.45258605
0.12634102 -0.09763537 0.09694412
0.62203580 -0.11271764 0.47729930
0.58498454 -0.56281787 0.44887024
0.02901250 -0.73391074 0.02226191
0.05138437 0.72001904 0.03942845
0.09541136 0.05495102 0.07322257
0.02416720 0.73529452 0.01854464
0.39716855 0.08097359 0.30475903
0.08851409 -0.53125107 0.06791873
0.61674285 -0.48390266 0.47323874
0.46122545 -0.51400340 0.35390782
0.07742082 -0.41766876 0.05940663
0.30420682 -0.10994151 0.23342429
0.28168660 0.10477149 0.21615025
0.54745549 -0.41064724 0.42007327
0.25997534 -0.70101875 0.19948457
0.47362942 0.04817894 0.36342746
0.24108487 -0.43043813 0.18498951
0.52689773 -0.45458895 0.40429905
0.47364622 -0.59325248 0.36343864
0.04332539 0.72761643 0.03324471
0.17337981 0.35389492 0.13304217
0.29566962 0.03408982 0.22688077
0.50608742 -0.00186350 0.38833010
0.36301154 0.29807892 0.27854609
0.29727077 -0.35316724 0.22810213
0.11176961 -0.60479140 0.08576318
0.43350792 -0.47279316 0.33263966
0.12236162 -0.01656154 0.09389065
0.31673276 -0.26752612 0.24303573
0.08759533 0.16892929 0.06722328
0.08085051 -0.09573798 0.06203830
0.24567246 0.17585668 0.18851542
0.35455400 -0.65774244 0.27205676
0.51741898 -0.21039140 0.39702544
0.46292076 -0.06740977 0.35520783
0.45211408 -0.01448323 0.34691560
0.36107948 0.19362476 0.27706584
0.49471107 -0.36314523 0.37960157
0.07695618 0.47420877 0.05905437
0.14643203 -0.43778673 0.11236037
0.47017011 -0.12402939 0.36077046
0.18211284 -0.12896696 0.13973902
0.33157235 -0.79862487 0.25442246
0.10229726 0.07458948 0.07850576
0.03642586 0.67592806 0.02795181
0.46034950 -0.67880440 0.35323587
0.53956300 -0.75550169 0.41401792
0.29102021 -0.55687284 0.22330596
0.33226296 0.00406751 0.25495914
0.39173749 0.01857291 0.30059314
0.38508415 -0.58915222 0.29548320
0.12341519 0.44785860 0.09470279
0.00359812 -0.63074255 0.00276092
0.08282140 0.43470642 0.06355546
0.20736390 0.01635870 0.15912449
0.24222562 -0.56131727 0.18586482
0.44581220 -0.53613538 0.34208107
0.17175649 -0.44031897 0.13179237
0.52328295 -0.18220393 0.40152487
0.38158032 -0.19991589 0.29279432
0.42591825 -0.02005508 0.32681513
0.14767367 0.57994449 0.11331332
0.17849091 -0.57142222 0.13695984
0.03269378 0.75765407 0.02508654
0.48904675 -0.34339300 0.37525520
0.10752262 -0.43917289 0.08250438
0.10863228 0.41586280 0.08336050
0.36374187 0.16568369 0.27910924
0.12540400 -0.10418930 0.09622513
0.26800573 -0.62535375 0.20564646
0.06044988 0.34016785 0.04639148
0.62816811 -0.41484848 0.48200542
0.38338596 0.13387065 0.29418266
0.21155092 0.02234498 0.16233709
0.25784877 -0.18399344 0.19785281
0.02436679 -0.49282542 0.01869715
0.60330391 -0.66835874 0.46292719
0.22536486 0.26993909 0.17293161
0.55601329 -0.08996947 0.42663917
0.51776117 -0.78483415 0.39728907
0.29802775 -0.33557978 0.22868297
0.04158880 0.47134998 0.03191701
0.11905211 -0.63861948 0.09135119
0.29585251 -0.72264755 0.22701387
0.38846341 -0.61968553 0.29807615
0.27203393 -0.45546347 0.20873736
0.29226753 -0.07458601 0.22426303
0.24221455 -0.11850763 0.18585633
0.20534851 0.09211238 0.15757672
0.02394202 -0.50866246 0.01837122
0.07695134 -0.10486740 0.05904638
0.01564264 0.10261972 0.01201513
0.04167553 -0.15306763 0.03197851
0.25926647 0.07025159 0.19894822
0.21509746 0.46407413 0.16504943
0.52846962 -0.17843549 0.40550467
0.29016310 0.22096343 0.22265175
0.56311536 0.08219191 0.43208852
0.48506051 -0.14591113 0.37219614
0.26087692 0.38465422 0.20017728
0.06729781 0.13605946 0.05164957
0.60208106 0.03559083 0.46198753
0.08503504 -0.33732668 0.06524918
0.37180477 -0.68028897 0.28529364
0.32634872 0.21411040 0.25041682
0.24212547 -0.73260015 0.18578798
0.56341845 -0.10490070 0.43232131
0.16833557 0.28514549 0.12917320
0.14141504 -0.63502789 0.10851075
0.07928514 -0.53739989 0.06083716
0.15767360 0.59267062 0.12098592
0.00210489 0.73232806 0.00161630
0.55956686 -0.37886849 0.42936644
0.54735994 -0.79803932 0.42000073
0.47962919 -0.16060527 0.36802864
0.10784995 0.10885611 0.08276573
0.04588893 0.06943800 0.03522372
0.53812140 -0.21654116 0.41291070
0.15353760 0.30541933 0.11781836
0.04532206 -0.21930894 0.03477657
0.60410035 -0.39398566 0.46353775
0.31458327 0.39647493 0.24138544
0.47405827 -0.55114162 0.36375472
0.50305063 -0.48504302 0.38600090
0.15514342 -0.48916832 0.11904482
0.13455740 0.37257168 0.10325363
0.35799250 -0.50865662 0.27469519
0.08432265 0.41149175 0.06470779
0.03575950 -0.56724900 0.02743901
0.35070077 -0.10049194 0.26909977
0.01238459 0.32422888 0.00951125
0.48190561 -0.73470581 0.36977634
0.26705182 -0.53403550 0.20491450
0.53953147 -0.37200692 0.41399297
0.02661163 0.08557195 0.02043195
0.32778105 -0.31836507 0.25151330
0.11071589 -0.42236349 0.08495464
0.18315831 -0.51750165 0.14054123
0.14939494 -0.14710455 0.11463389
0.00480809 0.66857153 0.00369161
0.42770138 0.04496228 0.32818735
0.06500661 -0.27365887 0.04988094
0.09805681 0.47222450 0.07524493
0.44859248 -0.04728715 0.34421349
0.37145683 -0.18331604 0.28502637
0.43342909 0.20407416 0.33257884
0.11188306 0.24276873 0.08585793
0.33695173 -0.42931363 0.25855017
0.62581867 -0.55765158 0.48020294
0.10872430 -0.33368257 0.08342645
0.42384756 -0.49017885 0.32522717
0.45039448 -0.26195917 0.34559661
0.02754246 -0.20893458 0.02113391
0.28330353 0.38264790 0.21738505
0.31554008 0.34243995 0.24212073
0.59698528 -0.64758992 0.45807877
0.36230424 -0.30291748 0.27800369
0.50735974 -0.10487626 0.38930660
0.35786161 -0.56542510 0.27459475
0.01886039 -0.09775191 0.01447198
0.00745494 -0.01397853 0.00572034
0.61667562 -0.69802344 0.47318760
0.41657525 -0.47742847 0.31964698
0.18318278 0.02276698 0.14057019
0.42939973 -0.39722887 0.32948726
0.22001906 0.51930362 0.16882458
0.31927741 -0.46097848 0.24498829
0.41364691 0.04967596 0.31740338
0.50157660 -0.69799393 0.38487023
0.01575773 0.34340444 0.01209911
0.34456828 -0.73055869 0.26439452
0.07430010 -0.65521884 0.05701203
0.02497312 -0.17681876 0.01916240
0.11336062 -0.32096326 0.08698399
0.01110479 0.29897431 0.00852971
0.26622722 -0.02880023 0.20428175
0.08676450 0.57307523 0.06657840
0.30145550 0.38598359 0.23131286
0.12786758 0.07216072 0.09812593
0.15885460 -0.04115530 0.12189249
0.31554696 -0.69623405 0.24212582
0.62386835 0.00502958 0.47870538
0.10848496 0.44714162 0.08324690
0.32698634 -0.13474032 0.25090340
0.04815561 -0.77730274 0.03695081
0.03338008 -0.66336113 0.02561324
0.38091782 -0.44586611 0.29228628
0.00915699 0.72739148 0.00702747
0.34278122 -0.42518035 0.26302326
0.43861443 0.07614291 0.33656019
0.36388767 0.33037192 0.27921766
0.17991482 0.38583532 0.13805576
0.28981391 0.33790588 0.22238135
0.16903105 -0.15060245 0.12970109
0.31054330 -0.07837622 0.23828630
0.30839041 -0.71149099 0.23663446
0.30076662 0.17261548 0.23078875
0.20857859 -0.79043466 0.16004676
0.59886450 0.01789600 0.45951989
0.13553815 -0.05895833 0.10400128
0.59845078 -0.58724481 0.45920315
0.27778882 -0.57460225 0.21315321
0.41786149 -0.53049958 0.32063392
0.09238613 -0.69667256 0.07088983
0.41611642 -0.37153903 0.31929472
0.04701897 0.63011295 0.03608073
0.02373391 -0.34882745 0.01821153
0.24515672 0.41125315 0.18811476
0.37488607 -0.78592688 0.28765798
0.08625062 -0.37503859 0.06618192
0.03219388 0.17972554 0.02471352
0.28130192 -0.30279186 0.21584889
0.05256802 -0.42215368 0.04033655
0.11464623 -0.57632887 0.08797047
0.61868978 -0.11849383 0.47473186
0.50425893 0.16259623 0.38692683
0.51771522 -0.06117062 0.39725241
0.04862753 -0.66142839 0.03731293
0.02546757 0.56407553 0.01954551
0.28097507 0.12896036 0.21560380
0.47113159 -0.13233411 0.36150822
0.49007279 -0.20555931 0.37604225
0.06137193 0.51581216 0.04709581
0.62536752 -0.31097662 0.47985625
0.56607038 -0.16272298 0.43435630
0.59768909 -0.20913681 0.45861787
0.01892778 0.07682998 0.01453628
0.01123367 -0.69097579 0.00861983
0.09267822 0.20155600 0.07112279
0.18270861 0.24787427 0.14020230
0.08002335 -0.18284164 0.06140360
0.15421465 0.08681574 0.11834179
0.50096864 -0.70188326 0.38440377
0.44328073 0.14005108 0.34013927
0.43443164 0.12954253 0.33334965
0.07725703 0.69105488 0.05928093
0.47628620 -0.23217438 0.36546364
0.59015572 -0.29218107 0.45283759
0.26676688 -0.72504795 0.20469587
0.06260146 0.29693300 0.04804316
0.59017664 -0.00261165 0.45285308
