ply
format ascii 1.0
element vertex 375
property float x
property float y
property float z
end_header
0.34779164 0.70525157 0.05813719
0.13633882 0.74665684 0.01906841
0.50621897 0.35068864 0.01307463
0.51429933 0.57465380 0.06638751
0.52873945 0.76189381 0.11272403
0.45218778 0.46866271 0.02776562
0.48115638 0.74275875 0.09739540
0.71861112 0.17203920 0.02082707
0.46150962 0.34177804 0.00075535
0.70540804 0.49334803 0.09161493
0.39442295 0.77932334 0.08586901
0.59608346 0.57948464 0.08628749
0.18389967 0.77048695 0.03547065
0.07208153 0.79223400 0.01477663
0.65626621 0.44061348 0.06820865
0.54681522 0.45894149 0.04727297
0.64515686 0.58347201 0.09847831
0.58201414 0.34882650 0.03006087
0.51910788 0.68420166 0.09266119
0.16961867 0.74508512 0.02635342
0.42840710 0.67653412 0.07006085
0.43162626 0.40756041 0.00900320
0.58151305 0.25209716 0.00772200
0.76814228 0.20989144 0.04090358
0.33314788 0.57063091 0.02384336
0.66643429 0.75813890 0.14349702
0.49396092 0.44986060 0.03304326
0.43448535 0.54149646 0.04043213
0.57684094 0.50814772 0.06547666
0.78624535 0.21154173 0.04544193
0.08212319 0.77418041 0.01293586
0.53139913 0.35735652 0.02039177
0.23398562 0.75778168 0.04405894
0.29031670 0.72725040 0.04998647
0.20676474 0.76902843 0.04038885
0.46530071 0.75838721 0.09734319
0.71722114 0.73481953 0.14980774
0.75930023 0.42446029 0.08816967
0.30154258 0.54508561 0.01071291
0.18629318 0.73651350 0.02821506
0.56230587 0.35640267 0.02727350
0.46740690 0.43847394 0.02432632
0.30411336 0.69862896 0.04658044
0.51201385 0.49403808 0.04734081
0.74012840 0.22227551 0.03731259
0.73415428 0.39054483 0.07460021
0.36554250 0.65807933 0.05137753
0.69395888 0.58101350 0.10912583
0.73661214 0.50160503 0.10068121
0.56081355 0.48204699 0.05579765
0.65514696 0.27531275 0.02997335
0.18456312 0.76920581 0.03532872
0.37028396 0.43923345 0.00218663
0.67298609 0.55476373 0.09827633
0.62823385 0.68116146 0.11703462
0.57340223 0.40932494 0.04198190
0.65264857 0.31891677 0.03941745
0.63117063 0.60959065 0.10126577
0.77800173 0.18023866 0.03635601
0.60842705 0.52807570 0.07731211
0.41225469 0.53762865 0.03443598
0.28104427 0.77611989 0.05908400
0.77358466 0.29022107 0.06060985
0.35539961 0.76775545 0.07424556
0.42946133 0.49762434 0.02919816
0.22960147 0.72077858 0.03455010
0.17317057 0.64623106 0.00445756
0.42028344 0.70813632 0.07545511
0.25488734 0.55504125 0.00228111
0.61340100 0.44996107 0.06050791
0.44644335 0.52738905 0.03993830
0.78496790 0.05530278 0.00925226
0.34928626 0.61426789 0.03757685
0.38572237 0.47605041 0.01419240
0.41514453 0.41768891 0.00754355
0.71268368 0.57418734 0.11185957
0.65226144 0.26610616 0.02719517
0.77293277 0.25671813 0.05276270
0.51445514 0.62884450 0.07887375
0.76329660 0.13894865 0.02349103
0.22606683 0.71723455 0.03292377
0.44267142 0.54443055 0.04298701
0.36014804 0.67327112 0.05362849
0.66554683 0.14945544 0.00344679
0.65825951 0.57485527 0.09950896
0.71154225 0.76887625 0.15632762
0.55889285 0.73460007 0.11338103
0.66193426 0.73489690 0.13712321
0.39956963 0.51306748 0.02587858
0.53528523 0.73852634 0.10885920
0.60635304 0.77559710 0.13370429
0.55991060 0.48044500 0.05522213
0.52825969 0.41998479 0.03405944
0.46710545 0.75583750 0.09717204
0.71525097 0.56049949 0.10930459
0.45747674 0.58011883 0.05458802
0.76319897 0.73090237 0.15947126
0.71971464 0.51549631 0.09999052
0.62041116 0.37470508 0.04482831
0.73252970 0.41441375 0.07971088
0.59525764 0.21601377 0.00258962
0.46379635 0.75292319 0.09574220
0.69959861 0.58025193 0.11024660
0.78484857 0.11811853 0.02365687
0.52052712 0.77566779 0.11400184
0.64022762 0.66687924 0.11650883
0.63791889 0.56318820 0.09215512
0.42772123 0.65054792 0.06393287
0.44756743 0.77255160 0.09652324
0.60984057 0.50307637 0.07189324
0.72001904 0.66558480 0.13454369
0.74894881 0.30620760 0.05862264
0.35219875 0.60008180 0.03498673
0.51831055 0.36746427 0.01970691
0.71513826 0.52298301 0.10065919
0.28318411 0.72898030 0.04874519
0.65284967 0.29012710 0.03284918
0.36702144 0.53883868 0.02432155
0.08274352 0.74417359 0.00618425
0.16447172 0.68534130 0.01144462
0.66168195 0.15286119 0.00334131
0.77119124 0.45968723 0.09899510
0.37382185 0.68195242 0.05876463
0.60269743 0.61410695 0.09576163
0.56834674 0.64623153 0.09525018
0.56560075 0.56445253 0.07583035
0.65210301 0.73383540 0.13462058
0.53601837 0.34375709 0.01832856
0.37109655 0.78256685 0.08125491
0.73093539 0.36413723 0.06779347
0.60684991 0.45529348 0.06022792
0.32569411 0.57258934 0.02258080
0.69372731 0.45918569 0.08108240
0.76756245 0.03297698 0.00012394
0.72981590 0.28460374 0.04926329
0.40494102 0.48866272 0.02150563
0.11616613 0.78159213 0.02246016
0.59685737 0.40794405 0.04705349
0.65947723 0.53957242 0.09168240
0.61074251 0.70192999 0.11778757
0.44304129 0.67517608 0.07311107
0.59625471 0.50591582 0.06942422
0.60018235 0.63274795 0.09946659
0.59719390 0.29129106 0.02032958
0.72009420 0.11671535 0.00845707
0.78869367 0.33335432 0.07399111
0.41663176 0.45716697 0.01695539
0.47268400 0.58012277 0.05808281
0.28113273 0.54807156 0.00670973
0.66775548 0.69951773 0.13033220
0.56215554 0.24946822 0.00267058
0.71129948 0.15264168 0.01469059
0.77529275 0.31590608 0.06690346
0.53418350 0.40034091 0.03090722
0.45969361 0.70501852 0.08379336
0.39523545 0.74906468 0.07910367
0.21554470 0.61558217 0.00715146
0.51523614 0.32520062 0.00929041
0.69859242 0.11871095 0.00397547
0.51328313 0.30548340 0.00431164
0.39221480 0.59184009 0.04228694
0.77088797 0.29022306 0.05999074
0.66042918 0.56855339 0.09855957
0.65877795 0.54357797 0.09244202
0.69293374 0.28870347 0.04173147
0.36665207 0.47241119 0.00897485
0.77387482 0.13477392 0.02496225
0.78729367 0.23323116 0.05066598
0.77545744 0.39478564 0.08506402
0.78352082 0.42427570 0.09369199
0.76221502 0.56805068 0.12182959
0.56379277 0.34819272 0.02572886
0.38033658 0.69363892 0.06294641
0.68473029 0.78209305 0.15320410
0.76532871 0.48805678 0.10416615
0.29436401 0.69352084 0.04316690
0.39928177 0.68686491 0.06574277
0.69278723 0.47847545 0.08529827
0.53191394 0.70656723 0.10074196
0.57600486 0.35754555 0.03068345
0.57400125 0.76591074 0.12404593
0.67900437 0.65258026 0.12213266
0.47744617 0.54868168 0.05195328
0.63337696 0.28390574 0.02694591
0.16169731 0.71664387 0.01799903
0.77428663 0.69323647 0.15336484
0.53087729 0.28122884 0.00278140
0.67435724 0.77385539 0.14892824
0.40308484 0.76885110 0.08545307
0.51797140 0.66831428 0.08874990
0.61272854 0.66062695 0.10875438
0.64377946 0.31988931 0.03760319
0.31442297 0.53431791 0.01119830
0.10478760 0.70978987 0.00334920
0.39178902 0.74016440 0.07626699
0.41453949 0.43596417 0.01160331
0.38486531 0.63612294 0.05077245
0.76517701 0.68078423 0.14841095
0.70721787 0.47980642 0.08891954
0.12554874 0.79350114 0.02735197
0.46757790 0.78696245 0.10443162
0.30055183 0.62766582 0.02945823
0.62831342 0.25387493 0.01888293
0.70501935 0.67740816 0.13381392
0.43659076 0.54793251 0.04239455
0.38457397 0.54564458 0.02991794
0.02930259 0.77871644 0.00184239
0.72645867 0.36789742 0.06762884
0.27365282 0.54813141 0.00500496
0.65165424 0.67272246 0.12047662
0.74819660 0.40616474 0.08141516
0.29355338 0.73459589 0.05241776
0.63837618 0.77881849 0.14180180
0.74773073 0.07794691 0.00589949
0.67467052 0.19318962 0.01559098
0.69478762 0.28696451 0.04175789
0.54063839 0.59561592 0.07725506
0.40026715 0.44094145 0.00946775
0.46748906 0.57749367 0.05628522
0.77835435 0.07176998 0.01151616
0.37377271 0.44872761 0.00516949
0.78967243 0.28296351 0.06263861
0.58934969 0.69191962 0.11057261
0.38224438 0.53527939 0.02700130
0.70456368 0.41142184 0.07259824
0.72014874 0.38130426 0.06925938
0.59388793 0.65426826 0.10296478
0.76993245 0.44474807 0.09527359
0.38487038 0.55098957 0.03121406
0.56206095 0.51877195 0.06452187
0.71175271 0.56838280 0.11031206
0.66941130 0.24533737 0.02636372
0.46516249 0.49974191 0.03788708
0.34608543 0.67436051 0.05064788
0.41564381 0.55072170 0.03822278
0.26680121 0.54403263 0.00248909
0.79352522 0.24083503 0.05384468
0.37916064 0.67913300 0.05934346
0.71883714 0.29242590 0.04853806
0.54017854 0.68639547 0.09800625
0.49572378 0.37741068 0.01680277
0.33139342 0.50049043 0.00732537
0.44501722 0.41704929 0.01425989
0.50788128 0.47214547 0.04136147
0.75283188 0.29282767 0.05644073
0.72017503 0.18147685 0.02335470
0.78023845 0.63015115 0.14023826
0.49852198 0.37417024 0.01670117
0.58319849 0.45360047 0.05440499
0.72828799 0.23415788 0.03732223
0.70145953 0.51890630 0.09657982
0.50785893 0.69878197 0.09342657
0.27014714 0.73850417 0.04793806
0.43971986 0.53946543 0.04116814
0.44974607 0.35886306 0.00197796
0.34622428 0.71587634 0.06021814
0.71244329 0.32441697 0.05441908
0.51484394 0.29865122 0.00310054
0.46351260 0.35505483 0.00426590
0.76245058 0.14525194 0.02474484
0.26013696 0.68598300 0.03357133
0.51076055 0.28935349 0.00002619
0.55524069 0.72893232 0.11123977
0.19394736 0.65723288 0.01175875
0.18111098 0.74976993 0.03007014
0.59439975 0.65544677 0.10335315
0.72094178 0.15484145 0.01741133
0.71172017 0.65708661 0.13068452
0.64477521 0.40133375 0.05654398
0.05656861 0.77592790 0.00746613
0.35008931 0.75802374 0.07078962
0.36319408 0.71673495 0.06431426
0.57408994 0.22854197 0.00060468
0.46824154 0.41015008 0.01801061
0.47653949 0.44133323 0.02708147
0.71936125 0.33848643 0.05924097
0.52498925 0.56950366 0.06766028
0.72625953 0.66067028 0.13484833
0.67313826 0.63856602 0.11756508
0.29068756 0.75612563 0.05670584
0.55437207 0.70479047 0.10549354
0.42899361 0.55695474 0.04272197
0.20285539 0.74237949 0.03336800
0.55207753 0.75254369 0.11593780
0.74726802 0.06204927 0.00214066
0.51759058 0.62635922 0.07902313
0.77909523 0.48902595 0.10755171
0.76567978 0.04742310 0.00301041
0.23283155 0.70870578 0.03251847
0.12859482 0.75972092 0.02029071
0.44333950 0.63493770 0.06393471
0.59908766 0.76916623 0.13055754
0.74277687 0.48637620 0.09859871
0.73639816 0.58421034 0.11961083
0.69723517 0.49797723 0.09080077
0.62258005 0.59412670 0.09573918
0.56302381 0.71704149 0.11029599
0.44073299 0.48107430 0.02798544
0.58383828 0.75266647 0.12326310
0.21868606 0.68654853 0.02417784
0.67008579 0.23649348 0.02448678
0.63648510 0.22351582 0.01378531
0.46532747 0.44890180 0.02624439
0.60435009 0.57151014 0.08635459
0.44422412 0.55819064 0.04650516
0.59420270 0.45910379 0.05819762
0.72248060 0.39877635 0.07380937
0.45272660 0.53690290 0.04356772
0.18697108 0.72666806 0.02610880
0.68666232 0.16618495 0.01214175
0.07530649 0.74563503 0.00481136
0.39466092 0.65367025 0.05705456
0.10880105 0.75612050 0.01491584
0.20046894 0.68941933 0.02065199
0.58636653 0.73660207 0.12015314
0.38894376 0.75464916 0.07894119
0.78941661 0.08759964 0.01769462
0.51868743 0.69748867 0.09561731
0.74083877 0.59016943 0.12200019
0.56323051 0.33286816 0.02207884
0.58607173 0.56306374 0.08021453
0.15922959 0.69240838 0.01186392
0.29627958 0.66791713 0.03772449
0.70594776 0.21103267 0.02687647
0.40324727 0.42878139 0.00735864
0.53625417 0.42982382 0.03815671
0.35363388 0.65478170 0.04788386
0.55290830 0.27973264 0.00749932
0.44315732 0.75778347 0.09211699
0.40013385 0.67232257 0.06259739
0.43227470 0.62569976 0.05927010
0.63636446 0.16930664 0.00130295
0.20101041 0.63942772 0.00929074
0.77122456 0.55413705 0.12070285
0.59609753 0.29938674 0.02193768
0.34672913 0.56002963 0.02452801
0.48056757 0.44489789 0.02882591
0.56474566 0.64638358 0.09445777
0.46974286 0.43188587 0.02334938
0.54508781 0.26607585 0.00256487
0.70552033 0.37896785 0.06536168
0.71410185 0.39453366 0.07090956
0.67513996 0.69227517 0.13036481
0.52352268 0.47795647 0.04629020
0.30743393 0.49968624 0.00163587
0.23092361 0.62049282 0.01181301
0.10436860 0.77870965 0.01908739
0.54060954 0.52530539 0.06109443
0.61095178 0.49129617 0.06944201
0.76211774 0.47179800 0.09969293
0.69733405 0.22615680 0.02837224
0.68511182 0.24379149 0.02961576
0.53563046 0.32790688 0.01459781
0.24879631 0.71728021 0.03815641
0.68215752 0.17514038 0.01316430
0.60540199 0.74544418 0.12655807
0.21684189 0.75565368 0.03963120
0.60863703 0.59665364 0.09311631
0.58545017 0.42529681 0.04841950
0.53372163 0.75002652 0.11114217
0.75994891 0.43028966 0.08965801
0.48531088 0.66756940 0.08107494
0.56250960 0.24684498 0.00214923
0.25172862 0.65063852 0.02351904
0.29439202 0.54077721 0.00808019
0.22394657 0.67897052 0.02364538
0.65545332 0.51656789 0.08547254
0.51981670 0.30113080 0.00481272
0.51749086 0.44254813 0.03676925
0.32935956 0.48132589 0.00245500
0.77357084 0.69567341 0.15376025
0.51786613 0.77601469 0.11347017
0.70367032 0.18039383 0.01931389
0.56130028 0.72825813 0.11247707
0.64482540 0.51620156 0.08294659
