ply
format ascii 1.0
element vertex 1105
property float x
property float y
property float z
end_header
-0.27996886 -0.53972697 0.00000000
-0.03986301 0.05514312 0.00000000
-0.22816376 0.27333438 -0.00000004
-0.50715494 0.01389089 -0.00000077
-0.17268510 -0.19117595 0.00000000
-0.62736118 -0.06333259 -0.00000115
-0.14884388 -0.76704824 0.00000000
-0.43803155 0.11128612 -0.00000065
-0.42250031 -0.42282063 0.00000000
-0.51937723 -0.41706243 -0.00000007
-0.47646633 -0.59773648 0.00000000
-0.79715657 -0.67181778 -0.00000032
-0.23252527 -0.45875087 0.00000000
-0.76716125 -0.18393368 -0.00000153
-0.00229829 -0.55249286 0.00000000
-0.34667817 0.37925425 -0.00000074
-0.63671464 -0.02372901 -0.00000126
-0.11734749 -0.38757148 0.00000000
-0.26470384 0.27557480 -0.00000020
-0.48510879 -0.17764501 -0.00000034
-0.60991085 -0.75174272 0.00000000
-0.55397224 -0.52719486 -0.00000002
-0.63644397 -0.55752289 -0.00000032
-0.06041721 0.11472157 0.00000000
-0.39831424 -0.45973191 0.00000000
-0.77687681 -0.27029660 -0.00000132
-0.09706342 0.69653314 -0.00000023
-0.43331003 -0.57551819 0.00000000
-0.16514428 -0.14892668 0.00000000
-0.57669061 -0.25014594 -0.00000060
-0.66060430 -0.03395728 -0.00000135
-0.78729045 -0.53766894 -0.00000066
-0.35520148 0.28986105 -0.00000061
-0.46805868 -0.22796600 -0.00000018
-0.63730270 0.04993431 -0.00000139
-0.07613597 -0.21623106 0.00000000
-0.18839511 -0.36831173 0.00000000
-0.15210406 0.40871415 0.00000000
-0.51892227 -0.79950804 0.00000000
-0.72052181 0.00043852 -0.00000166
-0.01754356 -0.51993185 0.00000000
-0.29879043 -0.49552110 0.00000000
-0.56614184 -0.02247859 -0.00000096
-0.53690666 -0.76379961 0.00000000
-0.59100032 -0.31469980 -0.00000055
-0.28879675 0.02672390 0.00000000
-0.65732336 -0.39317399 -0.00000070
-0.01734766 0.13458765 0.00000000
-0.38209096 -0.79693818 0.00000000
-0.36037880 -0.07143334 0.00000000
-0.38506290 -0.00272499 -0.00000022
-0.41845855 0.11834498 -0.00000058
-0.55815613 -0.18088767 -0.00000065
-0.51900905 -0.31685752 -0.00000024
-0.02500048 -0.45874956 0.00000000
-0.01540598 0.31604180 0.00000000
-0.09183940 -0.02829247 0.00000000
-0.67289633 -0.78272027 -0.00000004
-0.36652321 -0.57293284 0.00000000
-0.11882033 -0.31259507 0.00000000
-0.46767765 -0.00994091 -0.00000056
-0.48705786 0.05202496 -0.00000076
-0.20684718 -0.08539919 0.00000000
-0.37751144 -0.14510790 0.00000000
-0.12898332 0.31022575 0.00000000
-0.06098918 0.02096699 0.00000000
-0.36602721 -0.74708372 0.00000000
-0.62715393 -0.68217564 -0.00000006
-0.74868232 -0.00848227 -0.00000177
-0.66381162 -0.65008092 -0.00000027
-0.36742592 -0.65864378 0.00000000
-0.12822300 0.31921345 0.00000000
-0.27063489 -0.15119582 0.00000000
-0.30879441 0.38340473 -0.00000058
-0.14367773 0.55094415 -0.00000017
-0.45612949 0.21204796 -0.00000091
-0.50433737 0.29189488 -0.00000125
-0.76637459 -0.00030781 -0.00000186
-0.18425004 -0.63814867 0.00000000
-0.24581896 -0.04396964 0.00000000
-0.72205549 -0.07770456 -0.00000153
-0.00031782 0.69078743 0.00000000
-0.38533568 0.04812760 -0.00000032
-0.21888506 -0.40174833 0.00000000
-0.61730605 -0.03886185 -0.00000115
-0.23057753 -0.78681320 0.00000000
-0.39483249 -0.37693778 0.00000000
-0.06520760 -0.19380562 0.00000000
-0.32652691 0.09088747 -0.00000014
-0.57087111 0.08199527 -0.00000117
-0.07964753 0.50340384 0.00000000
-0.64258957 -0.56145120 -0.00000034
-0.00217488 -0.07678296 0.00000000
-0.02103526 0.70524132 0.00000000
-0.23520102 0.52165639 -0.00000051
-0.51515263 0.26747394 -0.00000126
-0.15970477 -0.34521157 0.00000000
-0.15791258 -0.25298622 0.00000000
-0.06797393 0.30090529 0.00000000
-0.28567117 0.47188947 -0.00000064
-0.49850383 -0.15733150 -0.00000044
-0.41743416 -0.18739226 -0.00000004
-0.38126048 -0.21157545 0.00000000
-0.11628489 0.64294845 -0.00000022
-0.22767305 0.16822851 0.00000000
-0.79185808 -0.01244344 -0.00000194
-0.36539367 -0.79871655 0.00000000
-0.40297866 -0.51687127 0.00000000
-0.58456337 -0.73861796 0.00000000
-0.12187490 0.32397306 0.00000000
-0.41912535 -0.74760836 0.00000000
-0.19832247 -0.14548326 0.00000000
-0.49154955 -0.41853493 0.00000000
-0.55412662 0.02527800 -0.00000100
-0.14097667 -0.38077524 0.00000000
-0.31257859 -0.75496542 0.00000000
-0.33489844 0.07740879 -0.00000015
-0.30564669 -0.32865325 0.00000000
-0.78638911 -0.18896461 -0.00000153
-0.68365335 -0.67540216 -0.00000031
-0.10543203 -0.59932333 0.00000000
-0.37163782 -0.08165412 -0.00000003
-0.70598620 -0.76410764 -0.00000009
-0.46821946 -0.53237230 0.00000000
-0.44207317 -0.45925027 0.00000000
-0.34537965 0.18100604 -0.00000038
-0.41500327 -0.49806163 0.00000000
-0.44499242 -0.67124122 0.00000000
-0.16080482 -0.67986834 0.00000000
-0.47249651 0.17981423 -0.00000092
-0.67863578 0.04580472 -0.00000156
-0.10437242 -0.67330992 0.00000000
-0.64690018 -0.07711060 -0.00000121
-0.04060651 0.47257340 0.00000000
-0.46830139 -0.31146759 -0.00000003
-0.50849062 0.04766596 -0.00000084
-0.03532430 -0.77352655 0.00000000
-0.02040424 0.22438353 0.00000000
-0.00427361 0.72346717 0.00000000
-0.10945995 -0.50760204 0.00000000
-0.49711418 0.30135477 -0.00000122
-0.24406795 0.40801319 -0.00000035
-0.52635127 -0.75846869 0.00000000
-0.26582795 -0.33848578 0.00000000
-0.24651375 0.43050268 -0.00000040
-0.24561329 0.08083260 0.00000000
-0.01580653 -0.27963108 0.00000000
-0.13054237 0.50815213 -0.00000004
-0.65069497 -0.41060543 -0.00000064
-0.31870407 0.20023395 -0.00000030
-0.35808593 -0.72889972 0.00000000
-0.23690408 0.48217198 -0.00000045
-0.30288091 -0.04912548 0.00000000
-0.33454415 -0.18668941 0.00000000
-0.29994339 0.32496127 -0.00000044
-0.20256446 0.27473056 0.00000000
-0.70857149 -0.56982625 -0.00000058
-0.27153224 -0.70167053 0.00000000
-0.60663831 -0.27595115 -0.00000069
-0.18103018 -0.15629046 0.00000000
-0.74479592 -0.39157414 -0.00000102
-0.32546476 -0.65792567 0.00000000
-0.08393746 -0.03703317 0.00000000
-0.02652570 0.05995490 0.00000000
-0.55079353 0.20301524 -0.00000130
-0.08387303 -0.50911385 0.00000000
-0.15048774 -0.13260911 0.00000000
-0.24060386 0.35266620 -0.00000024
-0.72984827 0.03043578 -0.00000175
-0.30411920 0.31492341 -0.00000044
-0.74970633 -0.27486891 -0.00000130
-0.02591448 0.02731033 0.00000000
-0.76034927 -0.36100221 -0.00000110
-0.63466489 0.13294870 -0.00000153
-0.42574000 -0.32003951 0.00000000
-0.78297138 -0.07322106 -0.00000180
-0.43936589 -0.68851310 0.00000000
-0.12980513 -0.43986961 0.00000000
-0.65854627 -0.05373429 -0.00000130
-0.38787037 -0.67947423 0.00000000
-0.79903209 -0.20613016 -0.00000148
-0.38575438 0.33383936 -0.00000082
-0.28047261 0.14058328 -0.00000003
-0.14325286 -0.39641717 0.00000000
-0.26617223 0.36322454 -0.00000036
-0.35130581 -0.23548083 0.00000000
-0.19982436 0.18688188 0.00000000
-0.02653410 -0.70677310 0.00000000
-0.70519388 -0.43506837 -0.00000083
-0.15242203 -0.65680832 0.00000000
-0.12634656 0.13660687 0.00000000
-0.55198050 0.12493820 -0.00000116
-0.00335399 -0.18700890 0.00000000
-0.69521379 -0.06917811 -0.00000143
-0.10769649 -0.60056973 0.00000000
-0.29493386 -0.18808784 0.00000000
-0.64880902 -0.78147811 0.00000000
-0.24566019 0.42242578 -0.00000038
-0.14310452 -0.73828304 0.00000000
-0.15763870 0.39466098 0.00000000
-0.78026962 -0.27626520 -0.00000131
-0.17099933 0.24207446 0.00000000
-0.45110112 0.13827103 -0.00000076
-0.04637767 0.31745803 0.00000000
-0.19403295 0.39703426 -0.00000012
-0.00237823 -0.34788135 0.00000000
-0.48592108 0.20139109 -0.00000102
-0.05164391 0.27127710 0.00000000
-0.12456168 -0.35829833 0.00000000
-0.77966160 -0.18525802 -0.00000154
-0.31226996 0.25158304 -0.00000036
-0.04637286 0.44538736 0.00000000
-0.08693857 0.20505778 0.00000000
-0.14541499 0.62357742 -0.00000031
-0.14910787 0.52074814 -0.00000014
-0.16159555 0.00936435 0.00000000
-0.23388302 -0.44364005 0.00000000
-0.09371685 -0.73300153 0.00000000
-0.10776916 -0.22395267 0.00000000
-0.43220285 -0.03473245 -0.00000037
-0.10128190 -0.23166274 0.00000000
-0.74889559 -0.76668572 -0.00000008
-0.35690495 0.37100905 -0.00000076
-0.38059169 -0.44667128 0.00000000
-0.56668490 -0.37732726 -0.00000034
-0.05171367 -0.09049204 0.00000000
-0.63978374 0.02038482 -0.00000135
-0.33728412 -0.24864691 0.00000000
-0.18925592 -0.17567772 0.00000000
-0.27003250 -0.13269620 0.00000000
-0.02771114 0.35281771 0.00000000
-0.79501742 -0.07903184 -0.00000180
-0.59597915 -0.50997156 -0.00000023
-0.50705701 -0.01279749 -0.00000073
-0.65433437 0.10247489 -0.00000156
-0.69607431 -0.76509738 -0.00000009
-0.35102600 0.15887718 -0.00000036
-0.19081092 0.51719606 -0.00000031
-0.21149841 0.26287767 0.00000000
-0.29719397 0.20951323 -0.00000022
-0.26279029 -0.52033019 0.00000000
-0.35506600 -0.58263749 0.00000000
-0.75138426 -0.63981247 -0.00000040
-0.26463175 -0.12304599 0.00000000
-0.08523806 0.06046358 0.00000000
-0.64470607 -0.02584121 -0.00000129
-0.09182424 -0.36693993 0.00000000
-0.10324448 -0.27893579 0.00000000
-0.60319316 -0.15738732 -0.00000088
-0.76651216 -0.52478248 -0.00000069
-0.68516511 -0.69821584 -0.00000025
-0.12249645 0.63250118 -0.00000023
-0.00118385 0.11743393 0.00000000
-0.66788042 -0.65906304 -0.00000027
-0.34523609 -0.70089799 0.00000000
-0.02053635 -0.51630360 0.00000000
-0.42766064 0.04328592 -0.00000049
-0.31675419 -0.64923930 0.00000000
-0.36893240 0.43006772 -0.00000091
-0.22276148 -0.00024562 0.00000000
-0.40981895 -0.59109837 0.00000000
-0.62148350 -0.63100994 -0.00000012
-0.41291872 0.03112315 -0.00000040
-0.30310357 -0.15918259 0.00000000
-0.60340762 0.01325665 -0.00000118
-0.41891900 -0.50611258 0.00000000
-0.43015790 -0.74340516 0.00000000
-0.06959308 0.23807301 0.00000000
-0.01672155 -0.27638397 0.00000000
-0.20459679 0.15663035 0.00000000
-0.08274293 -0.78655374 0.00000000
-0.57097942 -0.41200283 -0.00000029
-0.40546396 -0.46896872 0.00000000
-0.56542933 -0.33612627 -0.00000040
-0.75414467 -0.22988981 -0.00000140
-0.54693878 0.15024474 -0.00000119
-0.64548081 -0.18079045 -0.00000102
-0.60745305 -0.35555220 -0.00000055
-0.12004290 0.48799330 0.00000000
-0.48920622 -0.54011106 0.00000000
-0.16445774 0.47627702 -0.00000013
-0.76375133 -0.65382069 -0.00000037
-0.37656170 -0.71957010 0.00000000
-0.52059895 -0.22040039 -0.00000042
-0.35769784 -0.47786748 0.00000000
-0.08833902 -0.67825776 0.00000000
-0.08995575 0.46413332 0.00000000
-0.56156635 -0.63990623 0.00000000
-0.05052165 0.72031790 -0.00000007
-0.30444741 -0.03121794 0.00000000
-0.05559322 -0.57007223 0.00000000
-0.76828313 -0.77689630 -0.00000006
-0.64181590 -0.07564347 -0.00000119
-0.34848174 -0.49386230 0.00000000
-0.06533176 -0.37897539 0.00000000
-0.77689457 -0.26437873 -0.00000134
-0.05588841 0.62923235 0.00000000
-0.38641188 -0.43697938 0.00000000
-0.37599245 -0.21416350 0.00000000
-0.63567054 -0.44106951 -0.00000052
-0.51591903 -0.65587795 0.00000000
-0.38455245 -0.09431986 -0.00000006
-0.06314833 0.07952761 0.00000000
-0.20380877 -0.34230769 0.00000000
-0.17623693 -0.54770058 0.00000000
-0.14403719 -0.77096915 0.00000000
-0.71056807 -0.74094754 -0.00000015
-0.48125255 -0.09978614 -0.00000046
-0.48740014 0.14998274 -0.00000093
-0.07212709 0.13311695 0.00000000
-0.38590741 0.21899769 -0.00000062
-0.07040901 0.06094273 0.00000000
-0.36305428 -0.54737633 0.00000000
-0.23975915 0.42176268 -0.00000035
-0.13407119 -0.03988577 0.00000000
-0.49448404 -0.05754499 -0.00000059
-0.23918988 -0.59232664 0.00000000
-0.00219905 -0.39058962 0.00000000
-0.19098119 -0.58964670 0.00000000
-0.64905161 -0.51285499 -0.00000045
-0.36026499 0.30540872 -0.00000066
-0.40063262 0.33687925 -0.00000089
-0.03207011 -0.27391234 0.00000000
-0.01566162 -0.13081478 0.00000000
-0.36219454 -0.00443359 -0.00000012
-0.58469152 0.17057247 -0.00000138
-0.55856359 -0.12757757 -0.00000074
-0.53734720 -0.00985716 -0.00000086
-0.23591717 -0.63951433 0.00000000
-0.22358498 0.20335689 0.00000000
-0.55046368 -0.41162944 -0.00000021
-0.11050257 -0.28748694 0.00000000
-0.07821062 -0.73135501 0.00000000
-0.22569425 0.40301174 -0.00000026
-0.46387649 -0.03328082 -0.00000051
-0.72936523 -0.71934736 -0.00000020
-0.54638290 -0.21410593 -0.00000054
-0.27200341 -0.73821932 0.00000000
-0.64522332 -0.34325194 -0.00000073
-0.31893507 0.47995797 -0.00000078
-0.34205419 -0.73556709 0.00000000
-0.69154137 -0.65130198 -0.00000037
-0.78294897 -0.70020247 -0.00000025
-0.46377388 -0.73709160 0.00000000
-0.00154780 0.16782230 0.00000000
-0.50359178 -0.19322075 -0.00000039
-0.15068415 -0.20764846 0.00000000
-0.64528054 -0.46353421 -0.00000052
-0.05247748 0.38210779 0.00000000
-0.13169438 -0.08307606 0.00000000
-0.00834634 -0.51528203 0.00000000
-0.74128622 -0.65252793 -0.00000037
-0.15309699 -0.09317172 0.00000000
-0.43831655 -0.70849895 0.00000000
-0.37694830 0.07936334 -0.00000033
-0.45937815 0.23556925 -0.00000096
-0.18733707 -0.77817482 0.00000000
-0.45485318 0.05130089 -0.00000062
-0.72227705 -0.36920139 -0.00000102
-0.06213727 0.41281101 0.00000000
-0.20840813 -0.16035806 0.00000000
-0.23742352 0.44422495 -0.00000038
-0.57511324 -0.27035689 -0.00000056
-0.18908612 -0.00862337 0.00000000
-0.26312798 -0.35235786 0.00000000
-0.33018750 0.05520299 -0.00000009
-0.14258356 -0.38355419 0.00000000
-0.25859997 -0.30998385 0.00000000
-0.33384669 0.22996013 -0.00000042
-0.20332205 0.56032574 -0.00000044
-0.62815261 0.05373093 -0.00000136
-0.31881717 -0.70640004 0.00000000
-0.05293519 0.10491281 0.00000000
-0.45077404 -0.70495808 0.00000000
-0.38434836 -0.47673866 0.00000000
-0.77645510 -0.11127753 -0.00000170
-0.00793170 0.59184384 0.00000000
-0.48854941 -0.49863851 0.00000000
-0.12797217 0.58972842 -0.00000017
-0.66990638 -0.56914520 -0.00000044
-0.33475441 0.40882167 -0.00000074
-0.79761732 -0.13795631 -0.00000166
-0.18998967 -0.60775530 0.00000000
-0.41383800 -0.27364212 0.00000000
-0.58728606 -0.39324692 -0.00000040
-0.23673034 0.54850638 -0.00000057
-0.17658916 0.41769996 -0.00000008
-0.54003674 0.22758663 -0.00000129
-0.37228382 0.32935098 -0.00000076
-0.20756525 -0.46639127 0.00000000
-0.00712268 0.16123728 0.00000000
-0.48140666 -0.64777875 0.00000000
-0.73360038 -0.17912531 -0.00000140
-0.58508259 -0.55929273 -0.00000009
-0.03904491 0.30891132 0.00000000
-0.68576020 -0.33396313 -0.00000092
-0.05078176 -0.50998724 0.00000000
-0.74228436 -0.12807333 -0.00000153
-0.08831356 0.42090994 0.00000000
-0.58020753 -0.19704720 -0.00000071
-0.19936275 -0.19682533 0.00000000
-0.75471818 -0.64116651 -0.00000040
-0.46539202 -0.04880623 -0.00000049
-0.33956003 -0.06424851 0.00000000
-0.52083451 -0.79472250 0.00000000
-0.41276497 0.23320745 -0.00000076
-0.05416438 0.13541593 0.00000000
-0.75449157 0.02982140 -0.00000186
-0.55715483 -0.13167977 -0.00000073
-0.37308848 0.27941117 -0.00000067
-0.51099801 0.26240200 -0.00000123
-0.32339790 0.32469553 -0.00000054
-0.68632096 -0.61672276 -0.00000042
-0.45435867 0.03277555 -0.00000058
-0.41886342 -0.60541290 0.00000000
-0.19637947 0.55043828 -0.00000040
-0.04508783 -0.22111760 0.00000000
-0.31388924 -0.34940374 0.00000000
-0.18379860 0.52018642 -0.00000029
-0.13660406 0.31336099 0.00000000
-0.44400504 0.00917710 -0.00000050
-0.38185364 -0.32443634 0.00000000
-0.30552435 -0.32280621 0.00000000
-0.63311994 -0.59088022 -0.00000024
-0.23251273 -0.10960146 0.00000000
-0.35247177 0.01579682 -0.00000012
-0.25034484 0.39799568 -0.00000036
-0.78860313 -0.29021564 -0.00000127
-0.36596921 0.27675056 -0.00000064
-0.78623056 -0.55179375 -0.00000062
-0.18620963 0.14654964 0.00000000
-0.18786606 -0.45073837 0.00000000
-0.36782423 0.40602759 -0.00000087
-0.65373045 -0.26202229 -0.00000091
-0.17103741 -0.56253093 0.00000000
-0.27130657 -0.22361419 0.00000000
-0.19300029 -0.18432824 0.00000000
-0.45874634 -0.50709653 0.00000000
-0.03740414 0.13280287 0.00000000
-0.13804327 -0.61183256 0.00000000
-0.68241364 -0.66877407 -0.00000032
-0.63752544 -0.55057651 -0.00000033
-0.21545853 -0.79079378 0.00000000
-0.52639419 -0.52301019 0.00000000
-0.26975361 -0.31477019 0.00000000
-0.28307900 -0.11962154 0.00000000
-0.53408128 -0.64779538 0.00000000
-0.38592571 -0.32200551 0.00000000
-0.10074240 0.07045060 0.00000000
-0.16438736 -0.49429780 0.00000000
-0.76997179 -0.29946080 -0.00000125
-0.56759119 -0.11394755 -0.00000081
-0.70582455 -0.13246492 -0.00000136
-0.38233903 -0.24307665 0.00000000
-0.63632542 -0.03437976 -0.00000124
-0.00123331 0.23471698 0.00000000
-0.16487794 0.20175932 0.00000000
-0.38759154 -0.64489698 0.00000000
-0.26914150 0.37390891 -0.00000040
-0.69230777 -0.60628837 -0.00000047
-0.23447357 -0.13191743 0.00000000
-0.66623229 -0.31499422 -0.00000087
-0.12430589 -0.23067042 0.00000000
-0.24372801 -0.09024296 0.00000000
-0.16490662 0.46472698 -0.00000011
-0.35266998 -0.49238223 0.00000000
-0.09104449 -0.17443219 0.00000000
-0.70435381 -0.41996583 -0.00000085
-0.31028014 0.41827637 -0.00000065
-0.68441767 -0.27234587 -0.00000103
-0.06394251 0.46060422 0.00000000
-0.61002696 -0.17796007 -0.00000087
-0.72246403 -0.47988546 -0.00000080
-0.66973758 -0.61703736 -0.00000035
-0.41868243 0.23760325 -0.00000079
-0.05593751 0.09108818 0.00000000
-0.18068863 0.61567968 -0.00000045
-0.52210844 0.25371590 -0.00000126
-0.14481352 -0.11799317 0.00000000
-0.54841721 -0.09422936 -0.00000076
-0.31833047 -0.71126425 0.00000000
-0.33273661 0.18811424 -0.00000034
-0.67124236 -0.09290074 -0.00000129
-0.52526581 0.07270547 -0.00000096
-0.17235918 0.11166291 0.00000000
-0.18841155 -0.42143402 0.00000000
-0.11152563 -0.62364030 0.00000000
-0.39378619 -0.73462832 0.00000000
-0.44509625 -0.71333545 0.00000000
-0.24551514 -0.22512227 0.00000000
-0.42155519 0.19801588 -0.00000073
-0.07762962 -0.37898454 0.00000000
-0.61152941 -0.27933940 -0.00000070
-0.24257851 -0.29886651 0.00000000
-0.49193391 0.24470289 -0.00000112
-0.13553160 0.65944660 -0.00000033
-0.58893698 -0.55992490 -0.00000011
-0.62628776 0.17015532 -0.00000156
-0.47217464 -0.53925419 0.00000000
-0.35194743 0.28849059 -0.00000060
-0.27842727 -0.04891817 0.00000000
-0.09910303 0.49079561 0.00000000
-0.21028835 0.31964415 -0.00000005
-0.52818227 -0.02209171 -0.00000080
-0.23996080 -0.16766170 0.00000000
-0.25094646 -0.70854312 0.00000000
-0.01248886 -0.53542513 0.00000000
-0.14505140 -0.58861685 0.00000000
-0.46474484 -0.33477932 0.00000000
-0.59594953 -0.69021231 0.00000000
-0.52864784 -0.41739908 -0.00000010
-0.17607588 -0.14784396 0.00000000
-0.73394787 -0.32240048 -0.00000115
-0.46139860 0.07548210 -0.00000069
-0.35239652 -0.79944146 0.00000000
-0.77951056 -0.51707017 -0.00000071
-0.66423202 -0.71944481 -0.00000015
-0.26111436 -0.60795218 0.00000000
-0.22188862 0.03383344 0.00000000
-0.17580068 -0.55843562 0.00000000
-0.25053549 -0.75721169 0.00000000
-0.33866796 -0.47221440 0.00000000
-0.66849875 -0.41851997 -0.00000070
-0.05803671 0.50943631 0.00000000
-0.12775114 -0.58689612 0.00000000
-0.29219434 -0.22516786 0.00000000
-0.29549301 0.44578189 -0.00000063
-0.30943128 0.06413401 -0.00000002
-0.55998272 -0.43672147 -0.00000020
-0.18512148 -0.61066097 0.00000000
-0.37962019 -0.35959399 0.00000000
-0.02618814 0.60000920 0.00000000
-0.28664240 0.33229604 -0.00000040
-0.25729781 -0.76260614 0.00000000
-0.17266302 -0.73995388 0.00000000
-0.18107918 -0.18143165 0.00000000
-0.35981995 0.04639903 -0.00000020
-0.40430430 0.14332882 -0.00000056
-0.51367551 -0.08895734 -0.00000062
-0.61549288 -0.40279385 -0.00000050
-0.52610976 0.25044492 -0.00000127
-0.45713040 -0.78680575 0.00000000
-0.01978660 -0.50476682 0.00000000
-0.38853449 -0.49533072 0.00000000
-0.06070536 -0.21213931 0.00000000
-0.03904326 0.24299598 0.00000000
-0.68539053 -0.18258621 -0.00000119
-0.69240099 -0.18375854 -0.00000122
-0.48583210 0.21216072 -0.00000103
-0.72881693 -0.37094542 -0.00000104
-0.26011705 0.12987933 0.00000000
-0.52872360 -0.03328041 -0.00000078
-0.26016533 -0.25991908 0.00000000
-0.02031124 -0.36150047 0.00000000
-0.60997868 0.18315125 -0.00000151
-0.39275339 -0.77979350 0.00000000
-0.38920236 -0.63440478 0.00000000
-0.24346536 -0.11159052 0.00000000
-0.38629198 -0.21774915 0.00000000
-0.65059859 -0.59708965 -0.00000031
-0.18876375 0.36263204 -0.00000003
-0.02770158 0.35228842 0.00000000
-0.10292896 -0.19458500 0.00000000
-0.48740566 -0.46579155 0.00000000
-0.31498158 -0.66504353 0.00000000
-0.59322149 -0.54100281 -0.00000016
-0.02609948 -0.76776242 0.00000000
-0.69881964 -0.53975594 -0.00000061
-0.25274405 -0.66775244 0.00000000
-0.42075616 0.20070904 -0.00000074
-0.21382234 0.01785215 0.00000000
-0.07801574 -0.18134773 0.00000000
-0.73764855 -0.74680805 -0.00000013
-0.25811216 -0.13638316 0.00000000
-0.60408247 -0.74455708 0.00000000
-0.09135342 0.67693150 -0.00000017
-0.24580894 0.21916682 -0.00000002
-0.63236451 -0.17720349 -0.00000097
-0.50804305 0.00047618 -0.00000075
-0.60305923 0.16670419 -0.00000145
-0.00768979 -0.06139393 0.00000000
-0.04787496 0.32555443 0.00000000
-0.31451130 -0.04560716 0.00000000
-0.74416524 -0.07765536 -0.00000162
-0.17023359 0.14445010 0.00000000
-0.20380738 -0.79348183 0.00000000
-0.35721022 0.19024073 -0.00000045
-0.06141024 -0.19469029 0.00000000
-0.77584380 -0.73209059 -0.00000017
-0.36547217 -0.06431573 -0.00000003
-0.16489515 -0.47342458 0.00000000
-0.56941265 -0.07453375 -0.00000088
-0.08316799 -0.14516617 0.00000000
-0.25506818 0.41132483 -0.00000040
-0.63639748 -0.02490351 -0.00000126
-0.15441048 0.12390883 0.00000000
-0.08683838 0.57954919 0.00000000
-0.36392224 -0.57932913 0.00000000
-0.28826287 -0.63728148 0.00000000
-0.58631778 -0.40094137 -0.00000038
-0.18392146 -0.44732869 0.00000000
-0.06102792 0.62515306 0.00000000
-0.27698547 0.48259076 -0.00000062
-0.24165758 -0.18894434 0.00000000
-0.77904952 -0.55634689 -0.00000061
-0.62703323 -0.09924713 -0.00000109
-0.65871274 -0.34711131 -0.00000078
-0.67653924 -0.72968948 -0.00000018
-0.61524796 0.17706732 -0.00000152
-0.75116807 -0.15156272 -0.00000152
-0.12467153 0.65205014 -0.00000027
-0.27822807 0.09066481 0.00000000
-0.67730170 -0.71145040 -0.00000022
-0.54285663 -0.77946180 0.00000000
-0.71163714 -0.20313470 -0.00000126
-0.02636176 -0.17510740 0.00000000
-0.73480695 -0.58751166 -0.00000053
-0.61924267 -0.06468594 -0.00000111
-0.30214089 -0.51791728 0.00000000
-0.26435328 -0.27567416 0.00000000
-0.17384167 0.50717372 -0.00000022
-0.18807843 -0.71984220 0.00000000
-0.01986646 -0.25934890 0.00000000
-0.60208321 -0.68675607 0.00000000
-0.52307844 -0.44203213 -0.00000004
-0.12227718 0.54807144 -0.00000008
-0.59715825 -0.15723816 -0.00000086
-0.13883162 -0.61572033 0.00000000
-0.19414000 -0.22368601 0.00000000
-0.68414503 -0.36902398 -0.00000085
-0.22298118 0.45415536 -0.00000034
-0.59777963 -0.54451871 -0.00000017
-0.67677212 -0.70924503 -0.00000022
-0.60268408 -0.01984796 -0.00000112
-0.04453507 -0.39308760 0.00000000
-0.66219568 -0.16173831 -0.00000113
-0.68549228 -0.04794647 -0.00000143
-0.09192909 0.04642141 0.00000000
-0.68463671 -0.56982666 -0.00000050
-0.08656923 -0.73538166 0.00000000
-0.69489449 -0.60263175 -0.00000049
-0.06371865 0.07249920 0.00000000
-0.39937392 0.35287669 -0.00000091
-0.48663679 0.19990838 -0.00000102
-0.44595373 -0.57247144 0.00000000
-0.53975761 -0.41748789 -0.00000015
-0.45295745 -0.14851223 -0.00000026
-0.02864114 0.04399418 0.00000000
-0.56610882 -0.70260394 0.00000000
-0.04753191 0.19561411 0.00000000
-0.22599615 0.09028962 0.00000000
-0.09371375 -0.21545796 0.00000000
-0.20491397 -0.43419492 0.00000000
-0.10861594 0.38820371 0.00000000
-0.46564841 0.06815902 -0.00000069
-0.21559855 -0.78275996 0.00000000
-0.15295729 -0.53941953 0.00000000
-0.56669861 -0.66625333 0.00000000
-0.42574877 -0.55404526 0.00000000
-0.08074568 -0.31769919 0.00000000
-0.69246590 -0.41078928 -0.00000081
-0.34429464 -0.58759236 0.00000000
-0.71336073 -0.77082914 -0.00000007
-0.19220720 0.08947510 0.00000000
-0.71033853 0.03638857 -0.00000168
-0.31652939 -0.67107934 0.00000000
-0.26681462 0.26190948 -0.00000019
-0.26556021 -0.48932910 0.00000000
-0.21364076 -0.23604161 0.00000000
-0.48479116 -0.63577747 0.00000000
-0.13492699 0.54212010 -0.00000012
-0.28236452 0.51154166 -0.00000070
-0.17504995 -0.24486575 0.00000000
-0.58115125 0.19968034 -0.00000142
-0.45949030 -0.32874086 0.00000000
-0.36595580 0.29643577 -0.00000067
-0.56409812 -0.40544456 -0.00000028
-0.56519175 0.02151238 -0.00000104
-0.44946900 -0.75501639 0.00000000
-0.69053549 -0.64832395 -0.00000038
-0.57851034 -0.10874303 -0.00000086
-0.53667796 -0.27088234 -0.00000040
-0.15424210 -0.37199557 0.00000000
-0.36029732 -0.26698697 0.00000000
-0.34844592 0.31535044 -0.00000063
-0.79242820 0.00051035 -0.00000197
-0.41295585 -0.18440045 -0.00000002
-0.20388721 -0.06497106 0.00000000
-0.47148478 -0.65068269 0.00000000
-0.43571711 -0.05112121 -0.00000035
-0.68915582 -0.65587515 -0.00000036
-0.20237508 0.00304031 0.00000000
-0.15491334 -0.58089572 0.00000000
-0.43267348 0.08469392 -0.00000058
-0.74254560 -0.63620752 -0.00000041
-0.01502504 -0.48608515 0.00000000
-0.72107434 0.06619017 -0.00000178
-0.03515848 0.49100554 0.00000000
-0.03542703 0.40017602 0.00000000
-0.77582091 -0.06078712 -0.00000179
-0.09766902 0.33272421 0.00000000
-0.56278515 -0.73951161 0.00000000
-0.41876066 -0.29742539 0.00000000
-0.13882118 -0.27482715 0.00000000
-0.59621310 -0.38972616 -0.00000044
-0.76909882 -0.63483518 -0.00000041
-0.17292809 -0.41440973 0.00000000
-0.47256222 -0.06017568 -0.00000050
-0.71774572 -0.04776681 -0.00000156
-0.22944739 -0.65907639 0.00000000
-0.12541936 0.18550707 0.00000000
-0.28788120 0.35955998 -0.00000045
-0.16680133 -0.55489957 0.00000000
-0.45063961 -0.20866698 -0.00000014
-0.15858889 0.05147638 0.00000000
-0.69659644 0.04837532 -0.00000164
-0.09145581 -0.56733751 0.00000000
-0.58315009 -0.24593388 -0.00000064
-0.51675791 -0.01087060 -0.00000077
-0.54222357 -0.01296345 -0.00000088
-0.34120315 -0.18069763 0.00000000
-0.03537427 0.52842224 0.00000000
-0.16793890 -0.42918199 0.00000000
-0.12565444 -0.59073710 0.00000000
-0.03963737 0.64303482 0.00000000
-0.37023404 0.34886774 -0.00000078
-0.12496611 -0.09536832 0.00000000
-0.37230319 -0.23017813 0.00000000
-0.73470408 -0.75980598 -0.00000010
-0.30110893 -0.06050468 0.00000000
-0.50201142 -0.05943578 -0.00000062
-0.21853940 0.05649523 0.00000000
-0.25332022 0.46186551 -0.00000048
-0.70660233 -0.13819908 -0.00000136
-0.11577491 0.37040997 0.00000000
-0.35286537 -0.34633502 0.00000000
-0.72497010 -0.01282941 -0.00000166
-0.54140246 -0.61753130 0.00000000
-0.69002026 0.07587053 -0.00000166
-0.75847030 -0.09924488 -0.00000165
-0.48582885 -0.50535852 0.00000000
-0.61958474 0.03556788 -0.00000129
-0.37428427 -0.25334811 0.00000000
-0.46577522 -0.17933270 -0.00000026
-0.33529133 0.37243879 -0.00000068
-0.14385688 -0.45081449 0.00000000
-0.25828031 -0.14047791 0.00000000
-0.24545392 -0.13251771 0.00000000
-0.01576493 -0.67344970 0.00000000
-0.21328892 0.44245461 -0.00000028
-0.15288340 0.63271481 -0.00000036
-0.73949182 -0.13918437 -0.00000150
-0.45496449 -0.67150789 0.00000000
-0.35467684 0.35265929 -0.00000072
-0.50132686 -0.07563143 -0.00000059
-0.49135634 -0.05139475 -0.00000059
-0.24372429 -0.52948761 0.00000000
-0.37156087 0.15698230 -0.00000045
-0.47606161 -0.73571032 0.00000000
-0.73432785 -0.73689830 -0.00000016
-0.23185664 0.22640181 0.00000000
-0.07029485 -0.69643039 0.00000000
-0.46032438 -0.29547778 -0.00000003
-0.43993819 -0.25861958 -0.00000001
-0.25495195 0.09637655 0.00000000
-0.11859447 -0.51242036 0.00000000
-0.02065038 -0.18596683 0.00000000
-0.00331341 0.67158639 0.00000000
-0.45717072 -0.06993162 -0.00000041
-0.06375035 -0.55215251 0.00000000
-0.25019038 -0.24739763 0.00000000
-0.57057923 -0.65646255 0.00000000
-0.78049910 -0.06925259 -0.00000179
-0.29704717 0.19730359 -0.00000020
-0.18421963 0.07580058 0.00000000
-0.16208234 -0.63644409 0.00000000
-0.56542075 -0.07585246 -0.00000086
-0.55765158 -0.23494151 -0.00000055
-0.17095934 -0.22447599 0.00000000
-0.76192230 -0.01897392 -0.00000180
-0.38162562 -0.09999394 -0.00000004
-0.60302258 -0.74589908 0.00000000
-0.72134048 -0.54017931 -0.00000065
-0.06785068 -0.35914078 0.00000000
-0.17649318 0.23724806 0.00000000
-0.28731057 -0.71521533 0.00000000
-0.34047389 -0.59962404 0.00000000
-0.25533983 -0.66782916 0.00000000
-0.37167197 -0.57031715 0.00000000
-0.44832280 0.23836996 -0.00000092
-0.28794858 -0.27038345 0.00000000
-0.04887310 0.16123158 0.00000000
-0.23511899 -0.56295872 0.00000000
-0.34547463 -0.30619392 0.00000000
-0.27266607 -0.70398551 0.00000000
-0.50082099 0.18537121 -0.00000105
-0.70105916 -0.12871461 -0.00000135
-0.52624661 0.25737649 -0.00000129
-0.66242224 -0.28345844 -0.00000091
-0.27753130 0.44209069 -0.00000055
-0.29428354 0.31377652 -0.00000040
-0.78255099 -0.34372103 -0.00000114
-0.76700807 -0.51057112 -0.00000072
-0.11018621 0.01353716 0.00000000
-0.00903151 -0.46971393 0.00000000
-0.65294743 -0.55480093 -0.00000039
-0.06513724 -0.59513015 0.00000000
-0.59023452 -0.06869947 -0.00000098
-0.74816209 -0.61925870 -0.00000045
-0.14199062 -0.68611276 0.00000000
-0.19664435 0.33660638 -0.00000002
-0.62587619 -0.25866246 -0.00000080
-0.05284287 0.65799046 0.00000000
-0.08926508 -0.72325271 0.00000000
-0.46953869 -0.77856582 0.00000000
-0.01860204 -0.69643533 0.00000000
-0.48183081 -0.50929540 0.00000000
-0.71023250 -0.55553389 -0.00000061
-0.10456594 -0.01255480 0.00000000
-0.24472749 -0.40986729 0.00000000
-0.45993033 -0.13257731 -0.00000031
-0.20748097 -0.36377317 0.00000000
-0.51871288 -0.56055319 0.00000000
-0.50102788 -0.18708698 -0.00000039
-0.05488408 -0.75052679 0.00000000
-0.26872066 -0.02677613 0.00000000
-0.03951601 0.58461553 0.00000000
-0.76354551 -0.47785145 -0.00000081
-0.27236938 -0.50094008 0.00000000
-0.19234946 -0.61064517 0.00000000
-0.52872241 -0.70962942 0.00000000
-0.22343168 -0.36435160 0.00000000
-0.72162247 -0.35741210 -0.00000103
-0.69788229 -0.18627971 -0.00000123
-0.09746142 -0.66942489 0.00000000
-0.64426029 -0.16165528 -0.00000105
-0.18287279 -0.03582967 0.00000000
-0.62978679 -0.13278528 -0.00000104
-0.37551624 -0.65045995 0.00000000
-0.68891829 -0.24600936 -0.00000109
-0.33939278 -0.11736615 0.00000000
-0.17952912 -0.72435760 0.00000000
-0.28885970 -0.26650289 0.00000000
-0.11251805 -0.49643713 0.00000000
-0.34724233 0.08212035 -0.00000021
-0.28906000 -0.66224515 0.00000000
-0.23279350 -0.33412495 0.00000000
-0.77430791 -0.72944182 -0.00000018
-0.14117721 0.02478979 0.00000000
-0.74303102 -0.38449883 -0.00000104
-0.57918042 -0.03400812 -0.00000100
-0.27930820 0.50531715 -0.00000067
-0.29634267 -0.00445642 0.00000000
-0.36339882 -0.33158711 0.00000000
-0.20377114 -0.51727837 0.00000000
-0.17035004 -0.57356650 0.00000000
-0.19885537 0.08654992 0.00000000
-0.76064658 -0.63545090 -0.00000041
-0.11117854 -0.02721381 0.00000000
-0.19227806 0.01826491 0.00000000
-0.24392121 0.21442004 -0.00000001
-0.68335873 -0.79642999 -0.00000001
-0.17142062 -0.65434086 0.00000000
-0.03484301 -0.63691443 0.00000000
-0.36054176 0.31709895 -0.00000069
-0.35491258 0.03229641 -0.00000016
-0.39415333 -0.26815429 0.00000000
-0.17655176 -0.25143296 0.00000000
-0.49957323 -0.78371459 0.00000000
-0.03226420 -0.45926124 0.00000000
-0.42001575 0.05608846 -0.00000048
-0.29181990 -0.69532883 0.00000000
-0.28694037 -0.12102111 0.00000000
-0.44688886 -0.76018560 0.00000000
-0.73736173 -0.03498091 -0.00000167
-0.42279068 -0.11647689 -0.00000018
-0.03278643 0.21658187 0.00000000
-0.64176816 -0.45350379 -0.00000052
-0.40662277 -0.60233808 0.00000000
-0.55991435 -0.21311486 -0.00000060
-0.15864465 0.20992552 0.00000000
-0.63632858 -0.37309405 -0.00000064
-0.57005155 -0.23673126 -0.00000060
-0.25503302 0.03272483 0.00000000
-0.45598641 -0.08458423 -0.00000038
-0.53760940 0.09491476 -0.00000105
-0.35496989 0.02515395 -0.00000015
-0.64221203 -0.46986383 -0.00000050
-0.51412040 -0.53689665 0.00000000
-0.31780452 -0.53258818 0.00000000
-0.44586873 -0.76062924 0.00000000
-0.05116092 0.04435683 0.00000000
-0.05441960 -0.75073522 0.00000000
-0.52601570 -0.42990535 -0.00000007
-0.77161497 -0.11495141 -0.00000168
-0.23124857 0.45908579 -0.00000038
-0.03798842 -0.43657330 0.00000000
-0.30705628 -0.75890529 0.00000000
-0.06188940 -0.39413917 0.00000000
-0.30003208 -0.57019985 0.00000000
-0.56505209 -0.46222490 -0.00000018
-0.17253292 -0.39831790 0.00000000
-0.04313340 0.62240624 0.00000000
-0.40724978 -0.17825322 -0.00000001
-0.36347744 0.17112020 -0.00000044
-0.29919577 0.11950734 -0.00000007
-0.41632774 -0.22251002 0.00000000
-0.38706863 -0.64409178 0.00000000
-0.35198230 -0.18418191 0.00000000
-0.27867752 -0.62560982 0.00000000
-0.09699486 0.68064773 -0.00000020
-0.25139347 -0.21450706 0.00000000
-0.68572569 -0.31187350 -0.00000096
-0.13554791 0.64381611 -0.00000030
-0.10405959 -0.30523914 0.00000000
-0.32839078 0.37137970 -0.00000064
-0.02240041 -0.39667568 0.00000000
-0.68890023 -0.78470588 -0.00000004
-0.28553617 0.41275454 -0.00000053
-0.33975020 0.26099089 -0.00000050
-0.04381466 0.38928699 0.00000000
-0.11658900 0.58257711 -0.00000011
-0.71047187 -0.04815817 -0.00000153
-0.51286018 0.23110016 -0.00000118
-0.57183439 -0.57269752 -0.00000001
-0.26301488 0.53497601 -0.00000065
-0.24361587 0.02015361 0.00000000
-0.70123112 -0.75516582 -0.00000011
-0.12370277 0.06207468 0.00000000
-0.42039329 -0.52113849 0.00000000
-0.29704675 -0.41610527 0.00000000
-0.01560837 0.32766438 0.00000000
-0.30920434 -0.64342618 0.00000000
-0.07862228 0.31853011 0.00000000
-0.53370041 0.05234457 -0.00000096
-0.22344124 0.45110413 -0.00000034
-0.69884735 -0.29537272 -0.00000105
-0.79798204 -0.47683781 -0.00000081
-0.70646214 0.05590306 -0.00000170
-0.20348786 -0.08397387 0.00000000
-0.70271248 -0.45211619 -0.00000079
-0.14300865 0.26882568 0.00000000
-0.19162644 0.20128825 0.00000000
-0.13949840 -0.16971193 0.00000000
-0.44522399 0.27950111 -0.00000098
-0.00568367 0.14398600 0.00000000
-0.50652456 -0.55135381 0.00000000
-0.73077607 -0.20273761 -0.00000135
-0.42458558 0.23043253 -0.00000081
-0.34482777 -0.52270901 0.00000000
-0.09992477 -0.35233578 0.00000000
-0.27346078 0.48960793 -0.00000062
-0.19647536 -0.37293276 0.00000000
-0.76575238 -0.45956796 -0.00000085
-0.38214299 -0.76340890 0.00000000
-0.30596444 -0.29668191 0.00000000
-0.36125973 -0.79173404 0.00000000
-0.17338765 -0.55743635 0.00000000
-0.40876675 -0.06434903 -0.00000022
-0.05344583 0.63881600 0.00000000
-0.42739350 -0.36709148 0.00000000
-0.11966991 -0.47257012 0.00000000
-0.54032856 0.14515577 -0.00000115
-0.31273448 -0.26146045 0.00000000
-0.47310928 -0.01180216 -0.00000058
-0.66276973 -0.41290954 -0.00000068
-0.05592279 -0.49999550 0.00000000
-0.32374159 -0.40648869 0.00000000
-0.76260555 -0.31472436 -0.00000121
-0.17517114 -0.58475727 0.00000000
-0.02839809 0.34525311 0.00000000
-0.72540104 -0.55726105 -0.00000061
-0.79733610 -0.43176654 -0.00000092
-0.56266230 0.05938650 -0.00000109
-0.36830485 -0.33386490 0.00000000
-0.41587639 0.20177443 -0.00000072
-0.47271931 0.18685526 -0.00000093
-0.19360644 -0.61667168 0.00000000
-0.61554021 -0.78186256 0.00000000
-0.22497633 0.03754986 0.00000000
-0.08208988 0.14071116 0.00000000
-0.63590181 -0.18659854 -0.00000097
-0.71698570 -0.70150125 -0.00000025
-0.76284182 -0.45426649 -0.00000086
-0.13430475 -0.08931193 0.00000000
-0.09853463 0.11992062 0.00000000
-0.02803344 0.60696942 0.00000000
-0.29851413 -0.67021561 0.00000000
-0.32632920 0.34801880 -0.00000059
-0.07148752 0.70010895 -0.00000013
-0.79130363 -0.70044923 -0.00000025
-0.56489474 -0.54359561 -0.00000004
-0.30057991 0.38093004 -0.00000054
-0.11784459 -0.67861575 0.00000000
-0.31125870 -0.53840929 0.00000000
-0.32529247 0.34533864 -0.00000058
-0.62732935 -0.44593227 -0.00000047
-0.50331050 -0.66823810 0.00000000
-0.17408764 0.32067576 0.00000000
-0.16550308 -0.37360352 0.00000000
-0.01530695 0.46505079 0.00000000
-0.55842370 -0.55338907 0.00000000
-0.41424444 0.01466594 -0.00000038
-0.73720378 -0.31444183 -0.00000118
-0.42927837 -0.23473553 -0.00000000
-0.17508528 0.33489668 0.00000000
-0.68473423 -0.60576975 -0.00000044
-0.17255823 -0.50034124 0.00000000
-0.26951659 -0.17354730 0.00000000
-0.46027157 -0.38321969 0.00000000
-0.44606161 0.35373458 -0.00000111
-0.05555022 -0.47070768 0.00000000
-0.78389049 -0.55292767 -0.00000062
-0.49691829 -0.59158564 0.00000000
-0.77567643 -0.77208441 -0.00000007
-0.58528435 -0.39810634 -0.00000038
-0.58654666 -0.29878470 -0.00000056
-0.59986866 -0.37373325 -0.00000049
-0.62312001 -0.05649791 -0.00000115
-0.46550909 -0.60260344 0.00000000
-0.26280493 0.08095054 0.00000000
-0.58002633 -0.66104960 0.00000000
-0.31322679 -0.66801333 0.00000000
-0.19524719 -0.66885477 0.00000000
-0.39911452 -0.16816635 0.00000000
-0.07812151 -0.09038153 0.00000000
-0.61921799 0.01795635 -0.00000126
-0.73654562 -0.76678956 -0.00000008
-0.54520524 -0.31829259 -0.00000035
-0.12119118 -0.42628795 0.00000000
-0.36465973 0.18945020 -0.00000048
-0.27834934 -0.76298964 0.00000000
-0.15510929 -0.00956698 0.00000000
-0.40967643 0.13454919 -0.00000057
-0.66847450 -0.34092727 -0.00000084
-0.45698521 -0.59170634 0.00000000
-0.51597834 -0.22266623 -0.00000039
-0.61251289 -0.16177262 -0.00000091
-0.52500653 -0.36186269 -0.00000019
-0.20893537 -0.20283976 0.00000000
-0.69945556 -0.18256114 -0.00000125
-0.29191867 -0.40420109 0.00000000
-0.37427878 0.04365618 -0.00000026
-0.40080428 0.04585062 -0.00000038
-0.12880982 -0.79320234 0.00000000
-0.38827077 -0.40543771 0.00000000
-0.45325059 -0.07151834 -0.00000039
-0.00018253 -0.79617310 0.00000000
-0.07147272 0.47030216 0.00000000
-0.38364315 -0.00689091 -0.00000021
-0.11661404 0.39285028 0.00000000
-0.04847686 -0.70318335 0.00000000
-0.46680418 0.25500417 -0.00000103
-0.02733695 -0.58910811 0.00000000
-0.23380715 -0.60688233 0.00000000
-0.08127401 -0.63252270 0.00000000
-0.64343387 -0.76779026 0.00000000
-0.59970230 -0.74797016 0.00000000
-0.66692716 -0.74366850 -0.00000012
-0.02628088 -0.64071238 0.00000000
-0.64147449 0.04781203 -0.00000141
-0.34847257 -0.54814476 0.00000000
-0.68310791 -0.60631096 -0.00000043
-0.33994067 -0.25859597 0.00000000
-0.63380009 -0.23952343 -0.00000087
-0.37892255 0.06941364 -0.00000033
-0.73434019 -0.56605017 -0.00000058
-0.47033614 -0.19967823 -0.00000024
-0.57492816 0.01462592 -0.00000107
-0.13862376 -0.00271485 0.00000000
-0.31479755 -0.28161243 0.00000000
-0.75386494 -0.12031114 -0.00000159
-0.12294741 -0.37393442 0.00000000
-0.78644234 -0.47285029 -0.00000082
-0.09210643 -0.39994413 0.00000000
-0.70585197 -0.41526252 -0.00000086
-0.00394539 0.79440057 -0.00000001
-0.05757980 0.36104497 0.00000000
-0.30211639 -0.64523345 0.00000000
-0.01139050 0.53855824 0.00000000
-0.27222407 0.18219803 -0.00000007
-0.44007045 0.03328949 -0.00000052
-0.12423229 -0.05194994 0.00000000
-0.65845174 -0.09149359 -0.00000123
-0.56391454 -0.31664142 -0.00000043
-0.33748260 -0.46707106 0.00000000
-0.62366670 -0.57465768 -0.00000023
-0.07593631 -0.35635683 0.00000000
-0.26362753 -0.71399111 0.00000000
-0.33661050 -0.30543664 0.00000000
-0.25681898 0.33534765 -0.00000027
-0.39218360 0.22944558 -0.00000067
-0.05596406 0.72841632 -0.00000011
-0.63070995 -0.54744315 -0.00000031
-0.47211581 -0.17857559 -0.00000028
-0.71668029 0.02971844 -0.00000170
-0.14140204 0.45364454 0.00000000
-0.01242176 -0.76724344 0.00000000
-0.71484727 0.07587066 -0.00000177
-0.07713335 0.26215535 0.00000000
-0.24164630 -0.77798802 0.00000000
-0.74605215 -0.06225458 -0.00000166
-0.58466411 0.11760187 -0.00000129
-0.54615146 -0.56812596 0.00000000
-0.75860190 -0.15488809 -0.00000155
