ply
format ascii 1.0
element vertex 1415
property float x
property float y
property float z
end_header
-0.37689975 -0.51817906 0.00000320
-0.05039877 0.44951946 0.00000516
-0.63621652 -0.66562295 -0.07393063
-0.01391308 0.69724923 0.00000295
-0.21064480 -0.02235127 0.00000256
-0.20916934 0.09483111 0.00000576
-0.37578815 -0.51087731 0.00000320
-0.28561226 0.13941357 -0.03041374
-0.51267356 -0.42418915 -0.01418698
-0.26360038 0.16360021 0.23520704
-0.27008000 -0.14950879 0.00000285
-0.05269091 -0.48819700 0.00000079
-0.49145570 -0.23632176 -0.15786035
-0.10304533 0.62249869 -0.07493259
-0.34643680 -0.42870495 0.00000308
-0.23935610 -0.47063628 0.00000222
-0.43902984 -0.25447333 -0.00569857
-0.20305137 0.30977866 0.21401607
-0.36890522 0.16430742 -0.26802084
-0.57477671 -0.34998822 -0.24984615
-0.20678183 0.44248575 -0.14898060
-0.30770648 0.05713079 0.09511990
-0.31149235 -0.40207666 0.00000285
-0.54555839 -0.22874442 -0.30316034
-0.23711348 0.05426594 0.00000560
-0.36580580 -0.08314114 0.06939546
-0.32490405 0.01559657 0.29820547
-0.25707620 0.17935915 0.12932618
-0.03354386 0.05918785 0.00001045
-0.46065953 -0.69233435 0.00000361
-0.28262153 -0.75346035 0.00000219
-0.51075345 -0.62580317 0.00000407
-0.00989413 0.33295074 0.00000760
-0.52859938 -0.10551172 -0.38968456
-0.13664034 -0.56153315 0.00000133
-0.43830904 -0.15314090 -0.11041446
-0.29353908 -0.47818968 0.00000262
-0.09104613 -0.31050900 0.00000130
-0.52288741 -0.25764003 -0.21523075
-0.64038736 -0.74604177 0.12977944
-0.51762366 -0.44374302 -0.00619230
-0.24343894 -0.53119487 0.00000217
-0.02902520 0.71019477 0.00000242
-0.41424447 -0.57566297 0.00000341
-0.28790626 0.26745799 -0.17087169
-0.40149775 -0.65020031 0.00000322
-0.46906790 -0.00647889 -0.34269869
-0.59989095 -0.46438047 -0.19331822
-0.54957449 -0.46435109 -0.06562723
-0.22341239 -0.65763265 0.00000186
-0.34730846 -0.30021220 0.00000324
-0.16584846 0.39960536 0.06378964
-0.20236312 0.22047085 0.00000436
-0.56194681 -0.40387928 -0.16061553
-0.09712724 0.50261760 0.00000337
-0.64256275 -0.71493560 -0.03819015
-0.41949549 0.02475318 -0.24970290
-0.22694409 0.27341026 -0.02238307
-0.31455970 0.04058459 0.11086297
-0.28265154 0.20077115 -0.08741386
-0.32431704 0.16762680 -0.15832780
-0.32242858 -0.77467376 0.00000246
-0.09044216 -0.30815864 0.00000130
-0.00081654 0.75319898 0.00000257
-0.11250753 0.34648332 0.00000495
-0.29664376 0.08382978 0.20294331
-0.60106546 -0.38932380 -0.27521780
-0.42132950 -0.20531805 -0.01245260
-0.31485438 0.03986766 0.18048225
-0.20402101 0.30744088 0.17471220
-0.04500838 0.33526617 0.00000672
-0.11615265 0.51957768 0.09920049
-0.26166856 0.16826436 0.23032337
-0.43671164 -0.51683748 0.00000365
-0.18481866 -0.15676966 0.00000220
-0.52273273 -0.28655177 -0.18443900
-0.11962191 0.51120871 0.01718260
-0.38021836 -0.11794127 0.18016610
-0.11965975 0.52947187 -0.01929192
-0.65788543 -0.77292675 -0.01611042
-0.14974932 -0.60850173 0.00000137
-0.18601537 0.35683092 -0.00620330
-0.32962418 0.14434844 -0.14732307
-0.15702707 0.34358159 0.00000391
-0.17565995 0.37591669 0.08792585
-0.02717027 0.59270930 0.00000394
-0.53280449 -0.40465167 -0.08582936
-0.52700579 -0.77489245 0.00000401
-0.31056321 -0.24583541 0.00000304
-0.40814626 -0.18535969 0.04893415
-0.52734584 -0.44709632 -0.02734503
-0.04509380 0.07720049 0.00000995
-0.51044858 -0.33011717 -0.10745066
-0.64886898 -0.60177404 -0.17318141
-0.25930849 0.05482745 0.00000505
-0.60036135 -0.53028381 -0.12521854
-0.26677611 -0.67272097 0.00000217
-0.07491201 -0.71927351 0.00000067
-0.16550745 0.40043268 0.01266585
-0.02167950 -0.63234180 0.00000037
-0.35032991 0.02571309 -0.07514132
-0.58396900 -0.48626688 -0.12988999
-0.61507457 -0.52350861 -0.16969006
-0.58713591 -0.44955850 -0.17652579
-0.51379633 -0.41857412 -0.02294086
-0.48466349 -0.37010050 0.32979104
-0.27521119 0.24866681 -0.11888797
-0.26944283 -0.67594141 0.00000219
-0.09561981 -0.23227260 0.00000143
-0.04791959 -0.32362548 0.00000096
-0.38289607 -0.30127597 0.00000351
-0.46411547 -0.30120870 -0.02023559
-0.29427093 -0.01138697 0.00000321
-0.50566643 -0.08891711 -0.34891972
-0.20846877 0.29670933 0.09629746
-0.38206628 -0.70634019 0.00000300
-0.04976653 -0.67490077 0.00000053
-0.18136536 -0.09528472 0.00000225
-0.02222455 -0.56507581 0.00000046
-0.30396578 -0.44650024 0.00000274
-0.16234975 -0.79440415 0.00000123
-0.38946214 -0.14025488 0.11378786
-0.28197405 -0.49458233 0.00000251
-0.16018981 0.43823397 -0.02624012
-0.24394973 -0.04886485 0.00000278
-0.37481466 0.04402389 -0.15654705
-0.47773772 -0.31480235 -0.04052097
-0.26953319 -0.31975868 0.00000263
-0.22792026 -0.77716595 0.00000175
-0.10029560 0.55786049 0.08776183
-0.61591274 -0.60032547 -0.09104881
-0.51470113 -0.19143865 -0.26405808
-0.39248216 -0.00857459 -0.14608875
-0.16968288 -0.37424490 0.00000181
-0.16598175 -0.12069438 0.00000210
-0.22521868 0.41782880 -0.16985495
-0.13190067 0.28041863 0.00000531
-0.43423396 -0.48730043 0.00000367
-0.47462219 -0.34585032 0.10899023
-0.34311816 -0.67890203 0.00000274
-0.41780695 0.06632135 -0.28912443
-0.41687226 -0.20643115 0.15918250
-0.52361608 -0.15794858 -0.32190049
-0.49127191 -0.29339811 -0.09738115
-0.32904133 0.10426409 -0.10369612
-0.21082610 -0.06425604 0.00000251
-0.35522848 -0.78168702 0.00000270
-0.46826684 -0.05363427 -0.29108283
-0.44554305 -0.61693943 0.00000359
-0.01123131 -0.69437057 0.00000022
-0.45135188 -0.60008281 0.00000366
-0.45362785 -0.10305524 -0.20196159
-0.36033753 -0.31885096 0.00000332
-0.48706511 -0.10434667 -0.28547999
-0.20442899 0.30645439 0.19455047
-0.61124533 -0.50220615 -0.18236837
-0.12427741 0.55074453 -0.05338100
-0.47488132 -0.15075779 -0.20575425
-0.65142483 -0.55668873 -0.22707412
-0.33549309 -0.00994757 0.04759465
-0.20029357 -0.31804979 0.00000211
-0.63851941 -0.61700815 -0.13089226
-0.22143488 -0.49578127 0.00000205
-0.47048852 -0.50162286 0.00000392
-0.50125611 -0.26461068 -0.15299317
-0.52431524 -0.29152292 -0.18322919
-0.07347995 0.05206565 0.00000958
-0.49829268 -0.36430234 -0.04065062
-0.46323499 -0.71235019 0.00000360
-0.50912982 -0.26373798 -0.17389724
-0.38296783 -0.12458518 0.35877329
-0.16764338 -0.15502264 0.00000207
-0.08265352 -0.62870359 0.00000084
-0.05122830 0.52900612 0.00000415
-0.47779047 -0.35350442 0.22445334
-0.29069054 0.09820779 0.12937665
-0.52820671 -0.37860441 -0.10154574
-0.12748361 0.18270475 0.00000664
-0.20211822 0.22240525 0.00000434
-0.05619289 -0.21174404 0.00000116
-0.21333729 0.34703761 -0.06526025
-0.14344202 0.45370278 0.01305042
-0.65833610 -0.76223880 -0.02849223
-0.21400440 -0.42172939 0.00000209
-0.49528277 -0.03926094 -0.37477353
-0.09497864 0.61320388 -0.04468271
-0.27421564 0.21854088 -0.08468434
-0.35847959 -0.43587038 0.00000316
-0.26364005 0.16352087 0.02701074
-0.29212019 -0.68030638 0.00000235
-0.15361989 0.09211766 0.00000714
-0.15344851 0.42954478 0.01887996
-0.20777132 0.29839247 0.10426814
-0.52114052 -0.45815986 0.19416948
-0.04929727 0.70648777 -0.02680961
-0.25771916 0.17781249 0.05901062
-0.59658843 -0.52823961 -0.11779088
-0.14893597 0.32414129 0.00000435
-0.37821838 -0.39553040 0.00000336
-0.34975675 -0.50168639 0.00000301
-0.50371552 -0.18367802 -0.24433239
-0.41459233 0.01731713 -0.22943793
-0.35552540 -0.51351476 0.00000304
-0.50295287 -0.12553535 -0.30353025
-0.31899360 0.17129578 -0.14867258
-0.55525839 -0.54052740 0.20469339
-0.30289081 0.06874089 0.29609811
-0.52614963 -0.18117224 -0.30391318
-0.27580392 0.13414542 0.14825764
-0.31457779 0.26686510 -0.23795164
-0.34039709 -0.02179659 0.02080243
-0.35059896 -0.04643376 0.27259198
-0.05580828 -0.16694663 0.00000121
-0.05620868 -0.41758931 0.00000090
-0.52067637 -0.28703287 -0.17871349
-0.28819218 0.10422899 0.26026434
-0.62619311 -0.58903587 -0.12901473
-0.24922821 -0.16492648 0.00000267
-0.42039615 -0.21493997 0.18943642
-0.30862755 -0.17044507 0.00000312
-0.57371688 -0.38940343 -0.20571297
-0.50191313 -0.35156873 -0.06322933
-0.43240845 -0.11346408 -0.13715453
-0.28511736 0.11677686 -0.00535570
-0.38196766 0.00549331 -0.13419057
-0.36013955 -0.06946765 0.28617457
-0.44523716 -0.27490941 0.13624175
-0.59749514 -0.64249116 0.05802917
-0.08031331 0.45542243 0.00000437
-0.47644651 -0.35026178 0.26928681
-0.30961722 -0.17583513 0.00000312
-0.11511009 -0.56249011 0.00000117
-0.37380522 -0.10245565 0.11662822
-0.30549541 -0.33604118 0.00000288
-0.39674881 -0.15785228 0.24177907
-0.07469273 0.22619610 0.00000737
-0.34750471 -0.22622165 0.00000334
-0.05533187 0.66742170 -0.00105112
-0.27820984 0.02189212 0.00000501
-0.42718962 0.03238786 -0.27726144
-0.61565024 -0.43734047 -0.26175267
-0.45965773 -0.47713691 0.00000387
-0.41336673 0.07459784 -0.28655574
-0.27434012 0.13766766 0.29572618
-0.43848351 -0.56734461 0.00000360
-0.43491352 -0.14476089 -0.11060647
-0.14997610 0.13754193 0.00000666
-0.40968603 -0.78762859 0.00000311
-0.43719712 -0.70866734 0.00000341
-0.30644014 0.11113023 -0.05354448
-0.44355235 -0.27085081 0.33608034
-0.03368876 0.60932076 0.00000357
-0.55060315 -0.52928174 0.02339638
-0.47253570 -0.70218575 0.00000369
-0.37050280 -0.77251887 0.00000283
-0.14980203 -0.73266256 0.00000121
-0.16734155 -0.43687445 0.00000172
-0.64597899 -0.71160555 -0.05036320
-0.58257747 -0.78249121 0.00000442
-0.21865715 -0.25212783 0.00000233
-0.16754858 0.39550543 0.00739472
-0.50927055 -0.75525302 0.00000390
-0.36806765 -0.53664851 0.00000311
-0.10477671 -0.33822355 0.00000137
-0.40610072 -0.03749609 -0.15024821
-0.27367705 -0.48639992 0.00000246
-0.35562581 -0.05857410 0.33049116
-0.39192298 -0.14619665 0.13040665
-0.55678385 -0.20056549 -0.36128339
-0.49845800 -0.05227429 -0.36915043
-0.41370058 -0.19441552 -0.00455097
-0.67037171 -0.73831487 -0.08419809
-0.53277844 -0.60600847 0.00000426
-0.53097761 -0.46671182 -0.01593915
-0.15180953 0.09735860 0.00000712
-0.17960408 0.38719830 -0.02185913
-0.31256181 0.16622959 -0.12701905
-0.33099350 0.00089184 0.34416810
-0.22128081 0.19820315 0.00000418
-0.41785336 -0.66853440 0.00000332
-0.42990819 -0.23789756 0.04097625
-0.14602759 0.47753882 -0.03161841
-0.18285553 -0.01683168 0.00000236
-0.13339955 -0.22652997 0.00000172
-0.43243182 -0.14980277 -0.09900571
-0.44452283 -0.20775159 -0.06876718
-0.16465712 -0.16073065 0.00000204
-0.45657399 -0.13573608 -0.17507793
-0.05888244 0.32775685 0.00000648
-0.07531801 -0.56549078 0.00000086
-0.38341820 -0.68212420 0.00000304
-0.00724634 -0.68712080 0.00000020
-0.14465272 0.31124684 0.00000462
-0.51809710 -0.67021763 0.00000407
-0.56623536 -0.41257516 -0.16235818
-0.10385389 -0.24855383 0.00000147
-0.49455687 -0.36991799 -0.02526321
-0.34792769 -0.60850900 0.00000286
-0.48349461 -0.02743265 -0.35728741
-0.48407546 -0.36867717 0.21060561
-0.00989459 0.56565249 0.00000469
-0.06485218 -0.24219717 0.00000119
-0.50868332 -0.22422586 -0.21430866
-0.28509724 0.12526265 -0.01422712
-0.10011457 -0.33016729 0.00000134
-0.39639351 -0.15699559 0.26657966
-0.29753339 0.08167980 0.23137876
-0.38745448 -0.01781834 -0.12360689
-0.55621076 -0.26521811 -0.29184988
-0.26393598 0.16278929 0.24461862
-0.02628825 0.19895485 0.00000888
-0.10565731 -0.62254786 0.00000102
-0.30118534 0.07858196 -0.00598207
-0.08507443 0.32624036 0.00000587
-0.46523502 -0.74507183 0.00000358
-0.50492090 -0.41900104 0.17132780
-0.51914454 -0.23618367 -0.22829010
-0.27635872 -0.26137358 0.00000276
-0.36689708 -0.08577707 0.22886974
-0.09824310 -0.14819191 0.00000156
-0.30341852 0.06747524 0.19015792
-0.54266196 -0.73432863 0.00000418
-0.24307974 -0.29726389 0.00000246
-0.33909240 -0.01865766 0.30936217
-0.16762200 0.21945225 0.00000521
-0.06830766 0.27534086 0.00000691
-0.17090908 0.38739175 0.01785993
-0.27517807 -0.33397070 0.00000266
-0.66128546 -0.73609567 -0.06346705
-0.37791038 -0.06560954 -0.04913452
-0.16362464 0.40497097 0.10351746
-0.50881267 -0.40699452 -0.02246571
-0.43900225 0.04320021 -0.31861567
-0.21146110 -0.41665047 0.00000207
-0.39421114 -0.58965498 0.00000324
-0.37272638 -0.60902143 0.00000305
-0.58545989 -0.41075176 -0.21307451
-0.11968456 0.51105487 0.05008399
-0.00687869 -0.32400182 0.00000065
-0.40214276 -0.17086411 0.00944853
-0.25010556 0.19918326 -0.00312904
-0.35513645 0.08018959 -0.14462271
-0.36883503 -0.74313474 0.00000285
-0.61193120 -0.67734122 0.01585046
-0.12256359 -0.70306206 0.00000105
-0.48597658 -0.19972079 -0.18243624
-0.41515410 -0.13644086 -0.06919774
-0.01713336 -0.71023279 0.00000024
-0.47228473 -0.34021631 0.33631095
-0.36923152 0.17037459 -0.27522868
-0.40492252 -0.35654834 0.00000361
-0.13999179 -0.66911197 0.00000122
-0.50640184 -0.13640995 -0.30085108
-0.49082521 -0.21803690 -0.17548545
-0.42287126 -0.38861212 0.00000370
-0.03182809 0.21797799 0.00000851
-0.26089334 0.17014582 0.10466151
-0.67165875 -0.64654070 -0.18396091
-0.14244519 0.45981473 -0.00388842
-0.49414220 -0.75571686 0.00000378
-0.18462010 0.35428125 0.13828155
-0.17879266 -0.79595679 0.00000135
-0.35853463 -0.33428746 0.00000329
-0.51249796 -0.74012297 0.00000394
-0.15729731 -0.45835873 0.00000161
-0.12006899 -0.16626535 0.00000170
-0.40748855 0.05187661 -0.24774379
-0.49153960 -0.13097568 -0.26883897
-0.45146325 -0.28995007 0.34984046
-0.66257656 -0.69126713 -0.11387923
-0.12244255 0.38755652 0.00000420
-0.44445094 0.02153537 -0.30966678
-0.11911908 0.43922010 0.00000363
-0.22589281 0.25464207 0.12568174
-0.30215475 -0.70872748 0.00000239
-0.42145804 -0.05421245 -0.17165817
-0.14256693 0.45580754 0.11283903
-0.40539232 -0.59142172 0.00000332
-0.07704982 0.61398262 0.05740291
-0.09496230 0.29926720 0.00000597
-0.66999894 -0.76961279 -0.05034380
-0.51332808 -0.42025253 -0.01998757
-0.00387342 0.55966729 0.00000491
-0.13854676 -0.54482323 0.00000136
-0.51841778 -0.28222370 -0.17803688
-0.58919668 -0.52378911 -0.10370723
-0.35604423 0.14734431 -0.21753813
-0.60408056 -0.49666333 -0.17000932
-0.52552545 -0.45898312 -0.01022595
-0.54613000 -0.30730212 -0.22201216
-0.27644417 0.19032630 -0.06067450
-0.20900281 0.33334792 -0.03986328
-0.61182636 -0.56234485 -0.12061056
-0.14131355 0.13010514 0.00000696
-0.64860141 -0.55855846 -0.21794121
-0.58353853 -0.55036753 -0.06139902
-0.63594824 -0.66878080 -0.06992936
-0.11642198 -0.73596573 0.00000096
-0.51685953 -0.10018105 -0.36548933
-0.04894721 0.39152005 0.00000592
-0.65140414 -0.77205765 -0.00057231
-0.04862868 0.62299889 0.00000304
-0.02084218 -0.52031708 0.00000051
-0.34973282 -0.04433559 0.03131629
-0.50660598 -0.42307293 0.25514534
-0.09897123 -0.56836748 0.00000104
-0.03653805 -0.66020948 0.00000045
-0.16842993 -0.48763689 0.00000166
-0.31826034 0.05270734 -0.02211910
-0.58035833 -0.60112250 0.16504079
-0.25194469 -0.65770900 0.00000208
-0.41873932 -0.21093732 0.12981914
-0.52820802 -0.17698753 -0.31353822
-0.46089515 -0.31271219 0.15478688
-0.31976303 0.22737443 -0.20959070
-0.50961876 -0.43033561 0.01160512
-0.24719876 -0.04514914 0.00000281
-0.45843515 -0.30677748 0.25102702
-0.29871470 0.07883044 0.19904606
-0.66185272 -0.79786241 0.03721281
-0.06614611 -0.40330982 0.00000099
-0.10164053 -0.19784062 0.00000152
-0.46962601 -0.19115420 -0.14993969
-0.00142351 0.15212113 0.00001006
-0.18334867 -0.40996838 0.00000187
-0.12029405 0.03082550 0.00000871
-0.29930142 -0.12366923 0.00000310
-0.55262214 -0.53416091 0.13232698
-0.19846083 0.33541641 -0.01527830
-0.34887317 0.09466798 -0.14394753
-0.23573697 -0.63898563 0.00000198
-0.20701990 -0.05471611 0.00000249
-0.19712859 0.05565289 0.00000655
-0.00608385 0.28683540 0.00000827
-0.38616389 0.04851150 -0.19007467
-0.40395078 -0.16913027 -0.00638839
-0.00099254 -0.05077474 0.00000094
-0.21810114 0.16112895 0.00000472
-0.40036234 0.04959915 -0.22725987
-0.43412927 -0.10475789 -0.15067665
-0.41259885 -0.19612281 0.35295051
-0.20447221 0.30635619 0.11632597
-0.45750982 -0.26864767 -0.03770412
-0.33647567 -0.01234347 0.34876341
-0.13925406 -0.65268892 0.00000123
-0.05580155 -0.12632743 0.00000126
-0.36569169 -0.08287119 0.19360055
-0.35015059 0.18242154 -0.23946029
-0.43869439 -0.23263279 -0.02781127
-0.42972970 -0.44858134 0.00000368
-0.18882565 -0.70469046 0.00000154
-0.14884064 0.21287060 0.00000575
-0.09978828 0.29626250 0.00000589
-0.58131337 -0.42320380 -0.18945642
-0.30005339 0.07559725 0.21597914
-0.27132475 -0.68454701 0.00000219
-0.15883023 0.05103841 0.00000753
-0.13212208 -0.06349482 0.00000192
-0.61773223 -0.61479664 -0.08045167
-0.39080456 0.13530070 -0.29311085
-0.63901663 -0.56367481 -0.18823163
-0.13962279 0.46291631 0.09925200
-0.30141559 -0.43558818 0.00000273
-0.38694465 -0.79083085 0.00000293
-0.06376846 -0.43454954 0.00000094
-0.32427850 -0.37086862 0.00000298
-0.48548415 -0.70594561 0.00000378
-0.16948432 0.47177747 -0.08510341
-0.11092687 0.13975519 0.00000758
-0.54783469 -0.52260548 0.26172245
-0.26892224 -0.44039550 0.00000248
-0.13923983 0.17800549 0.00000641
-0.15434295 0.28975356 0.00000465
-0.20094018 -0.53699178 0.00000184
-0.08931545 0.31275493 0.00000593
-0.51624161 -0.27925551 -0.17563379
-0.06649625 0.14488393 0.00000858
-0.21845835 -0.09632910 0.00000253
-0.34898427 -0.04253012 0.06888913
-0.51014853 -0.43162066 0.14741710
-0.38948524 -0.14032082 0.34224638
-0.68688202 -0.73641884 -0.12810127
-0.31338108 0.04342687 0.15031905
-0.24987113 0.19705155 -0.00029255
-0.36002555 -0.52570140 0.00000306
-0.40003398 -0.13922261 -0.02789238
-0.47928891 -0.32190275 -0.03699282
-0.18580472 -0.05233862 0.00000234
-0.30263320 -0.29732126 0.00000291
-0.05973136 -0.40857118 0.00000094
-0.43401304 -0.06999955 -0.18692817
-0.27493447 0.13624266 0.17076240
-0.47472149 -0.22317466 -0.12920617
-0.22578576 0.25490072 0.12321973
-0.64510596 -0.62225705 -0.14209256
-0.17695959 -0.50641543 0.00000170
-0.16904114 -0.38792950 0.00000179
-0.09808173 -0.54518718 0.00000106
-0.21011786 -0.56259984 0.00000188
-0.20038600 -0.60253310 0.00000176
-0.44988242 -0.44357142 0.00000384
-0.25750884 0.17831424 0.13489924
-0.49116585 -0.13942347 -0.25900790
-0.28119251 0.14180438 -0.02170846
-0.38147891 -0.12098912 0.33975893
-0.37959218 0.09471564 -0.22197521
-0.32236832 -0.35643750 0.00000299
-0.08391821 -0.67438781 0.00000079
-0.49401197 -0.39266619 0.21161889
-0.24629796 0.35900813 -0.16151473
-0.01042597 -0.74005884 0.00000015
-0.39321172 -0.13106322 -0.01915405
-0.03730765 -0.69349205 0.00000041
-0.44020307 -0.69192827 0.00000346
-0.62039322 -0.67858088 -0.02014071
-0.11225213 0.13297021 0.00000763
-0.47073978 -0.28850096 -0.05041210
-0.17004074 0.30491558 0.00000408
-0.56884712 -0.26251078 -0.32677245
-0.46499759 -0.51560014 0.00000386
-0.44865271 -0.13259540 -0.15827297
-0.41818091 -0.20959462 0.25069311
-0.14465901 0.45076555 0.00271263
-0.53866482 -0.33219993 -0.17688401
-0.48090228 -0.64257216 0.00000382
-0.21823284 0.27314311 0.01880794
-0.20466140 0.41679487 -0.11658491
-0.40486959 0.10217838 -0.29398659
-0.37168989 0.00045131 -0.10279981
-0.46911588 -0.16099919 -0.18035109
-0.06725728 0.52170354 0.00000386
-0.36893731 -0.09069990 0.03817510
-0.05933472 0.18393447 0.00000827
-0.31333497 0.17217270 -0.13523068
-0.21813606 -0.70960397 0.00000176
-0.25949228 -0.46478307 0.00000238
-0.27578971 -0.46702459 0.00000250
-0.15250073 -0.32149673 0.00000175
-0.09811249 -0.07218110 0.00000165
-0.25933063 0.17391869 0.10198700
-0.44636390 0.02070851 -0.31365320
-0.63041556 -0.71417350 -0.00815736
-0.12701394 -0.76108307 0.00000101
-0.51225716 -0.23465639 -0.21241333
-0.48083758 -0.36085689 0.13625458
-0.49477759 -0.39451277 0.17073880
-0.18499482 0.35338655 0.01209832
-0.25906616 -0.38388041 0.00000247
-0.30561429 0.19552951 -0.14019138
-0.60344917 -0.63597608 -0.02192700
-0.37419152 0.01901534 -0.12866952
-0.64072937 -0.64703393 -0.10493134
-0.40401247 -0.16801512 -0.00771754
-0.35779873 -0.47308409 0.00000311
-0.18234041 0.46692380 -0.11263405
-0.21071465 0.34180886 -0.05310504
-0.10271159 0.25342572 0.00000635
-0.19331346 -0.61056215 0.00000170
-0.59857869 -0.48625070 -0.16699189
-0.12975183 0.50158393 -0.01558649
-0.44970211 -0.27940539 -0.00657411
-0.23166622 0.24069938 0.18396519
-0.02953143 0.12257560 0.00000975
-0.40860376 -0.03685287 -0.15727836
-0.58463895 -0.51909018 -0.09707865
-0.26162428 -0.41011906 0.00000246
-0.61147803 -0.60985279 -0.06977448
-0.12133000 -0.55189127 0.00000123
-0.31457791 0.19276552 -0.16003850
-0.34291360 -0.36612874 0.00000313
-0.39086726 -0.14364946 0.16547348
-0.65599209 -0.71666008 -0.07046585
-0.36338368 -0.01137530 -0.06927993
-0.55984652 -0.39380845 -0.16587315
-0.44227344 -0.26775315 0.11048103
-0.37311932 -0.10080825 0.34903756
-0.00057035 0.47147611 0.00000609
-0.16010199 0.50467730 -0.09588034
-0.45866719 -0.08705848 -0.23157305
-0.00035096 -0.07417919 0.00000091
-0.29944125 -0.43846142 0.00000271
-0.31608662 -0.47407550 0.00000279
-0.57359469 -0.44929489 -0.14243019
-0.09545382 -0.28839093 0.00000136
-0.55204666 -0.36915997 -0.17199077
-0.20447449 0.39923191 -0.09764354
-0.00623771 -0.00378116 0.00000096
-0.62624264 -0.62910455 -0.08701030
-0.03610143 -0.04551971 0.00000122
-0.35643992 -0.05420587 -0.00662482
-0.37306571 -0.24674547 0.00000351
-0.04097491 -0.17047115 0.00000110
-0.25983527 -0.66236413 0.00000213
-0.07762470 0.13018486 0.00000850
-0.25004929 -0.28640598 0.00000253
-0.45652282 -0.30216172 0.27473709
-0.34966004 0.10943750 -0.16147463
-0.19805363 -0.62634015 0.00000171
-0.06267853 0.42921829 0.00000512
-0.57249874 -0.55720389 -0.02618789
-0.13102959 0.51912731 -0.03727633
-0.47119254 -0.06233820 -0.28935751
-0.27832597 0.12805676 0.14762209
-0.38530409 -0.13022386 0.28106794
-0.12229701 0.29298100 0.00000539
-0.35925147 -0.06732855 0.34854594
-0.08267551 -0.02833016 0.00000159
-0.16139048 0.43211105 -0.02284990
-0.37615198 -0.10812985 0.35149103
-0.36582607 -0.08320231 0.36626488
-0.42476439 -0.22547860 0.02664566
-0.05509393 0.67180943 -0.00506075
-0.34551814 -0.42636290 0.00000307
-0.37829125 0.15466444 -0.28170732
-0.23772055 0.22608303 0.18442294
-0.55708677 -0.35363644 -0.20110662
-0.08196645 -0.76009738 0.00000067
-0.17124608 0.38657483 0.05971038
-0.47067454 -0.10644473 -0.24166863
-0.12001925 -0.61817783 0.00000113
-0.46173820 -0.31474662 0.13528210
-0.35799053 -0.06427576 0.23866063
-0.28996363 -0.36685535 0.00000273
-0.51589888 -0.44549909 0.05247392
-0.34492147 -0.00381228 -0.03036746
-0.35854253 -0.06561265 0.29265499
-0.09691382 0.56602812 0.04551783
-0.12822106 0.21341164 0.00000624
-0.35278836 -0.05171386 0.06417834
-0.20888510 0.43071038 -0.14193814
-0.29050502 0.13348196 -0.03659667
-0.41479561 -0.20141251 0.04447847
-0.42362404 -0.22273605 0.26222759
-0.69864601 -0.75956750 -0.13362330
-0.65099716 -0.67489350 -0.10170224
-0.10275601 -0.15135242 0.00000159
-0.27380875 0.15409787 -0.01589165
-0.27832946 -0.70897204 0.00000221
-0.39987409 -0.04587609 -0.12563530
-0.35023570 -0.04554657 0.14299352
-0.46557164 -0.32400334 0.17859320
-0.07160525 -0.00533019 0.00000153
-0.21417446 0.28292999 0.15615295
-0.22074065 -0.20660128 0.00000241
-0.06671440 -0.47024244 0.00000092
-0.14286400 -0.29864916 0.00000170
-0.10437673 0.54801047 0.05510223
-0.60387319 -0.61191428 -0.04830300
-0.07402856 0.37965903 0.00000547
-0.47768164 -0.51916838 0.00000395
-0.37221202 -0.09860534 0.02799780
-0.25071239 0.27702129 -0.08651373
-0.30889538 -0.36043814 0.00000288
-0.63727278 -0.70433420 -0.03590906
-0.19852060 0.42996883 -0.11484902
-0.28812766 -0.77423358 0.00000221
-0.64628232 -0.59237856 -0.17649432
-0.23543808 -0.73296052 0.00000186
-0.20591803 0.20123567 0.00000451
-0.17596515 0.02110506 0.00000749
-0.22326340 -0.13853928 0.00000251
-0.15828662 0.45103869 -0.03487278
-0.27326438 -0.05948896 0.00000299
-0.50493050 -0.32687491 -0.09685279
-0.44897547 -0.25062567 -0.03498991
-0.23513024 -0.33955535 0.00000235
-0.34868687 -0.39325777 0.00000314
-0.60588729 -0.63340861 -0.03081543
-0.24299784 -0.45572644 0.00000226
-0.22049990 0.26766503 0.08175613
-0.21551582 -0.69794863 0.00000175
-0.26580310 -0.47718546 0.00000241
-0.57108450 -0.54034543 -0.04032365
-0.13994142 0.46215272 0.02771337
-0.14115982 0.24739531 0.00000550
-0.41852319 -0.21042770 0.40618360
-0.57006651 -0.57627648 0.19642465
-0.45367992 -0.21785459 -0.08138855
-0.49083599 -0.38499138 0.04813895
-0.63648367 -0.73661733 0.03609531
-0.16480087 0.43899041 -0.03874026
-0.33907792 -0.01860355 0.06649071
-0.13714860 -0.23270880 0.00000174
-0.15678632 0.37216491 0.00000356
-0.27406710 -0.50463051 0.00000244
-0.49276152 -0.20747434 -0.19150652
-0.09848656 -0.73119456 0.00000083
-0.11758624 0.01451592 0.00000898
-0.21405005 -0.53582668 0.00000195
-0.37776643 -0.11202008 0.14271536
-0.59576952 -0.57970566 -0.06159839
-0.67884809 -0.83889192 0.11147414
-0.19018663 0.39149946 -0.05324460
-0.60621917 -0.55310154 -0.11609638
-0.19917247 0.32241878 -0.00341809
-0.45462701 -0.09003954 -0.21818316
-0.54910237 -0.52566308 0.12595287
-0.39045650 -0.05699560 -0.09003835
-0.37120062 0.08054277 -0.18577158
-0.06323198 0.67192179 -0.02583659
-0.32398400 -0.16222067 0.00000324
-0.59416968 -0.33747339 -0.31223169
-0.41466257 -0.12517469 -0.07979585
-0.27991220 0.18549527 -0.06439809
-0.07865796 0.61010265 0.02719541
-0.47563967 -0.19193116 -0.16438764
-0.41811460 -0.20943019 0.15411977
-0.15999877 -0.73461330 0.00000129
-0.49876776 -0.22759867 -0.18559295
-0.52914578 -0.47748089 0.07033394
-0.17329592 0.38162947 0.01785565
-0.15595813 -0.47750691 0.00000158
-0.35438433 -0.61275321 0.00000291
-0.07266395 -0.42392156 0.00000102
-0.53120953 -0.43154693 -0.05350190
-0.35377109 -0.59608573 0.00000292
-0.00227162 -0.76388067 0.00000003
-0.44743761 -0.23802061 -0.04433979
-0.38839778 0.06151563 -0.20941867
-0.60089070 -0.49333954 -0.16540705
-0.44375402 -0.27132440 0.03840782
-0.35425937 0.03649072 -0.09644833
-0.42848232 -0.08711025 -0.15489814
-0.31661174 0.09140856 -0.05862742
-0.64974797 -0.55383521 -0.22581793
-0.15548617 0.42462084 0.07780952
-0.63739181 -0.57226211 -0.17507808
-0.09800718 0.62706441 -0.06694431
-0.42190519 -0.17548674 -0.04527991
-0.18760978 -0.57979214 0.00000169
-0.25919208 0.30455419 -0.13698868
-0.60943508 -0.39709243 -0.28829488
-0.29074132 0.17391627 -0.07971190
-0.08362180 0.50302422 0.00000369
-0.54256195 -0.29856876 -0.22213773
-0.12306479 -0.35464332 0.00000149
-0.57103407 -0.57860559 0.00042710
-0.09948847 0.49294975 0.00000344
-0.45548666 -0.53001398 0.00000377
-0.10082279 -0.01406569 0.00000174
-0.58216566 -0.50591457 -0.10465399
-0.24067782 0.27252927 -0.05631862
-0.00590014 -0.63120753 0.00000018
-0.11613773 0.48507699 0.00000313
-0.01702287 -0.73656148 0.00000021
-0.13693018 0.48166731 -0.01286643
-0.38054207 -0.73504663 0.00000295
-0.21677282 -0.12751105 0.00000248
-0.51200825 -0.26791772 -0.17680901
-0.04802006 0.36829108 0.00000624
-0.37065181 -0.30729979 0.00000341
-0.43887049 -0.06401764 -0.20554785
-0.62000704 -0.65021533 -0.04898521
-0.00779978 -0.29152018 0.00000069
-0.49013689 -0.36974293 -0.01422766
-0.23568484 -0.19261923 0.00000254
-0.44704449 -0.17560044 -0.10897326
-0.51714581 -0.16114978 -0.30211064
-0.36799255 0.02154400 -0.11559276
-0.46467182 0.01110101 -0.35002431
-0.15604477 0.42327011 0.10482004
-0.06863772 -0.42732760 0.00000098
-0.31083521 0.04956905 0.20155014
-0.54548383 -0.33121780 -0.19522591
-0.55824327 -0.72508013 0.00000431
-0.34758028 -0.03914055 0.20164140
-0.01247041 0.06977831 0.00001083
-0.44827580 -0.28224799 0.19443627
-0.51104230 -0.16388334 -0.28374350
-0.21093537 0.38297874 -0.09695420
-0.00637742 0.07012623 0.00001097
-0.60863388 -0.51834810 -0.15876701
-0.34735021 0.09298808 -0.13831523
-0.37920088 -0.55777615 0.00000316
-0.20109858 0.33627155 -0.02287315
-0.04793781 0.54258430 0.00000406
-0.59609085 -0.61941010 -0.02066704
-0.47675729 -0.35101232 0.27479756
-0.59902298 -0.35430330 -0.30685559
-0.13532890 -0.34935158 0.00000158
-0.36189732 -0.45470354 0.00000316
-0.38671142 -0.13362128 0.27660233
-0.16093394 0.41146150 0.17096889
-0.30104274 0.21742690 -0.15161133
-0.36523208 -0.23170595 0.00000347
-0.59908968 -0.57423681 -0.07577636
-0.47812968 -0.07043561 -0.29845268
-0.52525741 -0.46809247 0.04788341
-0.03728392 0.38245192 0.00000632
-0.50209844 -0.41218606 0.15032709
-0.32005844 -0.57720757 0.00000269
-0.24963500 0.19731402 0.25169557
-0.16543724 0.40059081 0.15703510
-0.48814631 -0.37849760 0.04194189
-0.13970757 0.46271899 0.00659961
-0.40900329 -0.52354556 0.00000343
-0.50435960 -0.23923390 -0.18755338
-0.64641410 -0.75379789 -0.00710479
-0.48191208 -0.36345461 0.21799713
-0.09545889 -0.38407362 0.00000124
-0.27853158 -0.04891048 0.00000304
-0.34249100 -0.69664502 0.00000271
-0.32209480 -0.09216511 0.00000331
-0.29857650 0.07917276 0.08882984
-0.13708869 -0.02583488 0.00000200
-0.31185684 0.04711669 0.02362378
-0.27289569 0.22270149 -0.08570849
-0.31727964 0.03401360 0.16824345
-0.22132245 0.18351968 0.00000436
-0.14891738 -0.54792619 0.00000144
-0.32273072 -0.72763884 0.00000253
-0.09081685 -0.45480576 0.00000112
-0.52811050 -0.35094810 -0.13038065
-0.28580731 0.24309187 -0.13992344
-0.02051477 -0.14040722 0.00000098
-0.13646428 -0.14277960 0.00000185
-0.23160318 0.24084824 0.22608957
-0.52144712 -0.23865741 -0.23153394
-0.30802733 0.05636322 0.00621328
-0.62655425 -0.64078909 -0.07551566
-0.24022014 0.22005035 0.16169079
-0.34574789 -0.03471962 0.23795459
-0.37738019 -0.28122818 0.00000350
-0.42183056 -0.20768777 -0.01123284
-0.54751611 -0.18506359 -0.35405785
-0.18163326 0.48141739 -0.12607855
-0.52637309 -0.47079116 0.16413409
-0.25788778 0.21649559 -0.04108692
-0.49506131 -0.21187353 -0.19271873
-0.13104729 0.30966267 0.00000497
-0.21717261 0.27570152 0.03392770
-0.64476752 -0.69621563 -0.06346983
-0.18034352 0.36460748 0.11534879
-0.33291769 -0.31717268 0.00000312
-0.30608466 -0.60165054 0.00000256
-0.39840561 -0.16185185 0.23492551
-0.42373312 -0.41229951 0.00000368
-0.17701849 0.37262890 0.18967132
-0.48823634 -0.37872502 0.26773226
-0.27095866 0.27881274 -0.13979083
-0.48362023 -0.36758193 0.30664185
-0.37349117 -0.25606608 0.00000350
-0.11906803 -0.26373184 0.00000157
-0.45101264 -0.26879838 -0.02105340
-0.24215876 0.21641102 -0.00107119
-0.50382942 -0.10643989 -0.32583320
-0.05799690 0.69695592 -0.03887045
-0.57631749 -0.57037830 -0.02202906
-0.08867250 0.44277951 0.00000432
-0.41385418 -0.04627289 -0.16070470
-0.29094389 -0.33488205 0.00000278
-0.33617738 0.23071875 -0.25477356
-0.00355234 -0.26688024 0.00000064
-0.40694404 -0.66743273 0.00000324
-0.65868062 -0.63913250 -0.15880679
-0.13153377 0.54549158 -0.06627733
-0.28672966 -0.52380192 0.00000251
-0.03274335 -0.43934333 0.00000070
-0.26524654 0.15962631 0.23218074
-0.31939211 -0.38771781 0.00000292
-0.32582295 0.16069545 -0.15486234
-0.05945136 0.32537788 0.00000650
-0.47935861 -0.19788769 -0.16756476
-0.02832511 0.30757600 0.00000747
-0.04250168 -0.48972473 0.00000071
-0.56439704 -0.23307276 -0.34642902
-0.23373543 -0.14975218 0.00000258
-0.49583948 -0.14851381 -0.26131329
-0.27619448 0.13320322 0.13965201
-0.42899734 -0.01114034 -0.23608164
-0.29966295 -0.14858691 0.00000308
-0.34766984 0.09331595 -0.13947135
-0.23738822 -0.75236982 0.00000185
-0.58518755 -0.33407474 -0.29300508
-0.01124017 -0.70984906 0.00000020
-0.37712032 -0.58472890 0.00000311
-0.28359598 -0.21094921 0.00000288
-0.19301084 -0.65789014 0.00000163
-0.21818028 0.27326381 0.09752784
-0.04489229 -0.42352265 0.00000081
-0.22290824 0.17673978 0.00000441
-0.59796625 -0.56998670 -0.07739354
-0.33308259 0.18612719 -0.20003104
-0.23145804 -0.19507135 0.00000250
-0.48367384 -0.36771137 0.32192862
-0.41487586 -0.06907057 -0.13932762
-0.39454740 -0.15252705 0.00644870
-0.48676062 -0.37515482 0.09970744
-0.37909499 -0.11522616 0.11256439
-0.69655108 -0.74758750 -0.14090195
-0.06745575 -0.48971692 0.00000090
-0.53759623 -0.61939806 0.00000428
-0.20144019 0.16683145 0.00000505
-0.15032208 -0.25589901 0.00000181
-0.31923556 0.02929407 0.13713683
-0.02711937 0.26902312 0.00000798
-0.03021425 -0.45311832 0.00000066
-0.35670683 -0.17776799 0.00000347
-0.43627346 -0.66871512 0.00000346
-0.49344486 -0.35931662 -0.03358727
-0.49648750 -0.32441762 -0.07800494
-0.27907342 -0.64227015 0.00000230
-0.05780455 0.54118752 0.00000384
-0.38059601 -0.43595153 0.00000333
-0.56092203 -0.27031493 -0.29844990
-0.60973656 -0.51840329 -0.16150808
-0.43286422 -0.08761464 -0.16549072
-0.00565241 -0.00767984 0.00000096
-0.45446283 -0.51064759 0.00000379
-0.59836245 -0.37337828 -0.28512239
-0.59887075 -0.62326485 -0.02367037
-0.37295404 -0.27933899 0.00000346
-0.06438183 0.13570029 0.00000875
-0.34960729 0.18352629 -0.23924281
-0.04745190 -0.37749982 0.00000089
-0.49074522 -0.05661586 -0.34500721
-0.19584417 -0.00403107 0.00000247
-0.49401212 -0.39265972 0.05819034
-0.52335638 -0.39443550 -0.07258819
-0.47373644 -0.20162284 -0.14936630
-0.59549421 -0.63765985 0.04426423
-0.05847077 0.09407762 0.00000941
-0.09484252 0.58373219 -0.01334855
-0.48803556 -0.10027709 -0.29222229
-0.40448597 -0.04993314 -0.13307615
-0.30041081 0.15131152 -0.08048890
-0.04383819 -0.07808900 0.00000123
-0.01897566 -0.10662234 0.00000101
-0.54195988 -0.21157987 -0.31207365
-0.29725683 0.08234744 0.23215742
-0.45338213 -0.04146863 -0.26609105
-0.01798066 0.42152193 0.00000630
-0.30518648 0.13485982 -0.07531309
-0.16135515 0.03023448 0.00000773
-0.03696555 -0.18352947 0.00000105
-0.55643958 -0.45712581 -0.09065027
-0.45552495 -0.79801810 0.00000344
-0.38972694 0.03669706 -0.18669662
-0.18506370 -0.42985117 0.00000186
-0.64756072 -0.65196949 -0.11708259
-0.43905267 -0.03312582 -0.23848917
-0.05883672 0.09617459 0.00000938
-0.23388578 -0.05293747 0.00000270
-0.07019008 -0.62439317 0.00000075
-0.09245174 0.59488326 -0.01900479
-0.58479947 -0.42551056 -0.19588007
-0.08410645 -0.75155503 0.00000070
-0.02911365 -0.04902159 0.00000116
-0.27372026 0.13918041 0.08920872
-0.17829974 -0.07099025 0.00000226
-0.02818768 0.44956848 0.00000570
-0.13490117 0.52368599 -0.05189729
-0.36510924 -0.69464254 0.00000289
-0.20149310 -0.55355078 0.00000183
-0.47755200 -0.63978094 0.00000380
-0.23163407 0.24078329 0.10437478
-0.44895697 -0.00256624 -0.29576281
-0.40409559 -0.07594944 -0.10473049
-0.07366196 0.54197866 0.00000345
-0.00886788 -0.79921526 0.00000007
-0.12725313 0.49278539 0.01858507
-0.33386502 0.22928138 -0.24739251
-0.29822910 -0.10508693 0.00000312
-0.44157290 -0.01910438 -0.25962964
-0.39507431 -0.15380725 0.18812285
-0.34532708 -0.03370044 0.05980889
-0.02400047 -0.43399593 0.00000064
-0.34723639 -0.47321633 0.00000303
-0.26226923 0.23073609 -0.06718227
-0.61094391 -0.60622030 -0.07223795
-0.27720112 -0.18049777 0.00000287
-0.37166983 -0.09730196 0.26154473
-0.43798259 -0.14862613 -0.11433279
-0.06843679 0.30741632 0.00000651
-0.57576460 -0.30950582 -0.29491878
-0.38786098 -0.13639893 0.36877316
-0.31215087 0.24918696 -0.21320309
-0.24375488 0.21151973 0.12473821
-0.35203207 -0.78761172 0.00000267
-0.10024381 -0.11638920 0.00000161
-0.23797067 0.22547562 0.22989587
-0.59005708 -0.48261404 -0.14918455
-0.08316116 0.11401704 0.00000857
-0.12876536 0.17092748 0.00000675
-0.37196496 -0.09801748 0.29964316
-0.11085779 0.04220079 0.00000880
-0.08903015 0.42701682 0.00000451
-0.48315629 -0.04752127 -0.33530605
-0.45867452 -0.60616708 0.00000370
-0.20168997 -0.35103601 0.00000208
-0.06804120 -0.37069026 0.00000105
-0.41349566 -0.19426461 -0.00418951
-0.20489402 -0.74694443 0.00000161
-0.32281592 0.06597567 -0.04763429
-0.00296814 -0.52157414 0.00000033
-0.41927734 0.08466771 -0.31214744
-0.29163021 -0.55768979 0.00000250
-0.36132962 -0.65080112 0.00000291
-0.28500259 0.11193525 0.18450537
-0.30846271 -0.30743822 0.00000294
-0.19109330 -0.03370828 0.00000240
-0.62952042 -0.57387513 -0.15340140
-0.08717965 -0.46241486 0.00000108
-0.56714815 -0.49347705 -0.07961129
-0.53236318 -0.14868839 -0.35384053
-0.12768108 -0.41351268 0.00000145
-0.38710794 -0.70809293 0.00000304
-0.39367655 -0.66648799 0.00000314
-0.33559668 0.08366192 -0.09867374
-0.00137541 -0.57471246 0.00000027
-0.60667402 -0.47026902 -0.20434482
-0.20532830 0.42644778 -0.12842754
-0.20959657 0.29398766 0.08270702
-0.20979446 -0.16776344 0.00000237
-0.43752769 -0.05362605 -0.21306273
-0.44425446 -0.27254155 0.23934707
-0.35778174 0.16211495 -0.23747955
-0.23823810 0.06460605 0.00000544
-0.04643561 -0.72021919 0.00000045
-0.42036226 -0.21485856 0.19860283
-0.04371517 0.36455169 0.00000639
-0.39315400 -0.42956406 0.00000343
-0.40747061 -0.18372872 0.05315754
-0.59277683 -0.45652911 -0.18351518
-0.05948038 0.02898826 0.00001020
-0.27367660 0.24436022 -0.11046428
-0.15000638 0.43784589 0.13034590
-0.29471692 0.11194314 -0.02464082
-0.08719965 0.03037185 0.00000952
-0.07984265 -0.30402136 0.00000122
-0.02361977 -0.29197359 0.00000081
-0.65004140 -0.67434984 -0.09984771
-0.32883164 0.17211001 -0.17450178
-0.19165975 0.00949454 0.00000725
-0.20148084 -0.18600985 0.00000229
-0.31129706 -0.67305660 0.00000251
-0.34193560 -0.55271715 0.00000289
-0.14357533 -0.65840423 0.00000126
-0.05515057 -0.67508173 0.00000057
-0.22293481 0.33571738 -0.07771987
-0.47858223 -0.10380969 -0.26451185
-0.56716770 -0.56927508 0.08550525
-0.45310777 -0.05043543 -0.25596631
-0.23619863 -0.56674755 0.00000207
-0.34983966 -0.46381387 0.00000306
-0.39750606 -0.15968430 0.32822955
-0.09053345 0.58143359 0.01924999
-0.05296824 -0.73934078 0.00000048
-0.01414486 0.64847273 0.00000355
-0.60289693 -0.52128363 -0.14111799
-0.37258285 0.10831395 -0.21848080
-0.34833539 -0.04096782 0.25677758
-0.04356978 -0.69184810 0.00000046
-0.47377187 -0.34379604 0.07775201
-0.60626644 -0.51134634 -0.16011959
-0.06868466 -0.49109608 0.00000090
-0.04993799 0.67943692 0.04188635
-0.35630918 -0.00042569 -0.06283510
-0.40419111 -0.38542074 0.00000357
-0.05773078 -0.50606990 0.00000080
-0.60709792 -0.41810757 -0.26026601
-0.19936150 -0.27330470 0.00000216
-0.07412084 -0.41713730 0.00000104
-0.41362128 -0.15097682 -0.05002309
-0.10705639 -0.16734792 0.00000160
-0.34077173 -0.12503166 0.00000341
-0.28633824 -0.53364813 0.00000249
-0.53221482 -0.48488966 0.05771337
-0.24177188 0.29619089 -0.08397524
-0.01453450 0.35114303 0.00000726
-0.22752070 0.38787571 -0.14420369
-0.22661600 0.38020924 -0.13384606
-0.38778475 -0.13621601 0.35454544
-0.37324798 -0.10110795 0.06263556
-0.40052631 0.01744347 -0.19386537
-0.19786134 -0.47861150 0.00000189
-0.13075075 0.50574839 -0.02250093
-0.20607896 -0.75287443 0.00000161
-0.08367429 -0.78168619 0.00000065
-0.20912515 0.29512161 0.13546036
-0.23101303 0.24228655 0.05413639
-0.07623044 -0.62215102 0.00000080
-0.12227960 0.50479048 0.04306286
-0.62623423 -0.67591435 -0.03777111
-0.14010306 0.54382229 -0.08627455
-0.13891995 -0.38263565 0.00000157
-0.38053769 0.11665145 -0.24744008
-0.31266722 0.04515261 0.12096862
-0.29489782 -0.31826520 0.00000283
-0.13551748 -0.44483238 0.00000147
-0.68310112 -0.71078271 -0.14545906
-0.12438323 0.56645328 -0.07016688
-0.29186669 -0.75180584 0.00000226
-0.39277977 -0.12283059 -0.02671377
-0.24998274 0.11821323 0.00000449
-0.49416023 -0.71370918 0.00000384
-0.56983644 -0.47381985 -0.10710361
-0.00900152 -0.61541092 0.00000030
-0.69546694 -0.73172903 -0.15482430
-0.41605508 -0.12467963 -0.08385104
-0.26540795 -0.15667324 0.00000281
-0.29849505 0.07935263 0.30189317
-0.22326137 0.26099399 0.13687073
-0.09963156 0.58127236 -0.02291870
-0.36037061 0.12039489 -0.20018385
-0.36679575 0.16630334 -0.26476485
-0.33120474 -0.63846451 0.00000270
-0.38285032 -0.12429918 0.32987627
-0.54195726 -0.42469072 -0.08799244
-0.09341900 0.57446545 0.04308649
-0.17434245 0.12216696 0.00000626
-0.44137520 -0.26558092 0.02819964
-0.44864541 -0.28313902 0.16607763
-0.19859524 -0.28704798 0.00000214
-0.49333942 -0.27448097 -0.12251962
-0.23299615 0.33491653 -0.10241766
-0.54509950 -0.51509923 -0.00090908
-0.21489672 -0.39217347 0.00000213
-0.47105852 -0.25574479 -0.08566246
-0.40749869 -0.60571188 0.00000332
-0.39120296 -0.02419051 -0.12642194
-0.34973767 -0.02298760 -0.02243632
-0.08938004 -0.63306952 0.00000088
-0.10792084 0.60209662 -0.06585641
-0.50765413 -0.20627087 -0.23057492
-0.47221643 -0.33970594 -0.00032114
-0.04636525 -0.12367425 0.00000120
-0.45889154 -0.51787430 0.00000381
-0.35474899 0.12370747 -0.18939689
-0.57957959 -0.41345844 -0.19530223
-0.10560139 0.61612278 -0.07471677
-0.43616074 -0.23898621 -0.01469961
-0.51294512 -0.18540412 -0.26594570
-0.20751037 -0.51324892 0.00000192
-0.30936599 -0.24795328 0.00000302
-0.05061426 0.10143596 0.00000951
-0.44444564 -0.13223279 -0.14797515
-0.41090778 -0.54322517 0.00000342
-0.10022021 -0.65507782 0.00000094
-0.40241495 -0.17152122 0.00884385
-0.44063944 -0.26380885 0.12296827
-0.58475447 -0.78747064 0.00000443
-0.57444447 -0.53861099 -0.05067630
-0.34267870 -0.02731199 0.26278469
-0.04645760 -0.76355034 0.00000040
-0.62860245 -0.71759123 0.15579851
-0.50933200 -0.10915169 -0.33694941
-0.44383553 -0.27152517 0.12815551
-0.16538541 -0.05550713 0.00000218
-0.42167822 -0.15859795 -0.06246146
-0.17277949 -0.39446670 0.00000181
-0.17127518 -0.47860295 0.00000169
-0.41385645 0.03923716 -0.25061819
-0.19412634 0.01753886 0.00000709
-0.57054460 -0.54639059 -0.03259713
-0.30149761 0.27639019 -0.21476406
-0.25771695 -0.26053903 0.00000262
-0.48185161 -0.36330569 0.15179697
-0.10000709 0.35441309 0.00000516
-0.21581605 -0.69103795 0.00000176
-0.12729381 0.49268821 0.00545096
-0.28180730 0.24940993 -0.13641302
-0.32860574 -0.21016707 0.00000322
-0.51899260 -0.32469472 -0.13484003
-0.31004640 0.26770365 -0.22733077
-0.04957648 -0.70610636 0.00000049
-0.34153986 -0.43066740 0.00000304
-0.20070165 0.31545234 0.20108305
-0.49111465 -0.15760888 -0.23975696
-0.19600274 0.32680425 0.10204465
-0.40695423 -0.09903344 -0.08771524
-0.35604736 -0.05958719 0.27176800
-0.51761019 -0.08718038 -0.38106403
-0.52509820 -0.72367901 0.00000406
-0.52176279 -0.29677832 -0.17122437
-0.02462417 0.43030363 0.00000603
-0.41102257 -0.56798100 0.00000339
-0.08232447 -0.69756246 0.00000075
-0.44599143 -0.27673048 0.13824157
-0.25595322 -0.65300596 0.00000211
-0.32758653 -0.17374378 0.00000325
-0.16257121 0.46172184 -0.05698189
-0.04992246 0.56010646 0.00000379
-0.04791241 0.68432719 0.04032462
-0.26377320 -0.51157439 0.00000235
-0.66505414 -0.64755303 -0.16613147
-0.23416559 0.32824320 -0.09836937
-0.22223300 0.26348579 0.02151353
-0.00230591 -0.02877163 0.00000098
-0.39389119 -0.39536995 0.00000348
-0.15015209 0.45295426 -0.01623818
-0.34238175 -0.68596363 0.00000273
-0.51017618 -0.15652198 -0.28928503
-0.25147784 -0.55029500 0.00000221
-0.28418046 -0.06837765 0.00000306
-0.66725200 -0.78317910 -0.02910660
-0.21240379 0.43970016 -0.16032253
-0.25937265 -0.08341980 0.00000285
-0.38004538 0.01656287 -0.14095037
-0.15450892 0.14172845 0.00000650
-0.51791573 -0.32569098 -0.13105901
-0.06463646 0.64441806 -0.00048242
-0.27462953 0.13698196 0.13116781
-0.26091239 0.28836945 -0.12433784
-0.39705059 -0.15858716 0.38440034
-0.34616712 -0.03572688 0.02373874
-0.04085768 0.17315938 0.00000885
-0.17141929 0.45721686 -0.07470517
-0.12530041 -0.64254832 0.00000114
-0.31522453 -0.70918572 0.00000249
-0.37202516 -0.06566231 -0.03414016
-0.42010555 -0.21424448 0.32683823
-0.24535383 0.22558436 -0.01882713
-0.00129235 -0.73057342 0.00000008
-0.27721700 0.13073342 0.15522066
-0.22493419 0.25695840 0.10007087
-0.34951726 0.04242547 -0.09065110
-0.16234931 0.40804613 0.15106075
-0.37449661 -0.10413740 0.40143967
-0.14242190 0.25075111 0.00000543
-0.38923490 -0.13970718 0.13400103
-0.64325380 -0.62430507 -0.13523768
-0.16537587 0.47073856 -0.07358210
-0.33698779 -0.19726498 0.00000330
-0.35612145 0.06923655 -0.13560629
-0.00312081 -0.05425324 0.00000091
-0.18772346 0.22377948 0.00000467
-0.56905144 -0.57382214 0.06957205
-0.01809788 0.60285294 0.00000403
-0.55395609 -0.53737694 0.03320738
-0.14100914 -0.02052236 0.00000204
-0.15010016 0.52926964 -0.09634963
-0.21788092 -0.01382622 0.00000263
-0.57505924 -0.35973364 -0.24031651
-0.31095764 0.08059215 -0.03290186
-0.49795410 -0.14740409 -0.26784775
-0.13177529 0.48186725 0.02836049
-0.38215795 -0.64498639 0.00000308
-0.41314450 -0.19743082 0.14422309
-0.13175291 0.48191369 0.12491987
-0.26552105 0.26668301 -0.11323387
-0.25428483 0.32052371 -0.14132348
-0.30064878 -0.74926627 0.00000233
-0.31361568 -0.70891613 0.00000248
-0.40568671 0.04637883 -0.23738921
-0.03520903 0.05201678 0.00001050
-0.24098581 0.33736667 -0.12527496
-0.27517539 0.18243308 -0.04915437
-0.33800867 -0.01602960 0.00299226
-0.26673290 0.25370872 -0.10266798
-0.44190183 -0.06819197 -0.20885345
-0.42944226 -0.15627883 -0.08460787
-0.29921141 0.23874231 -0.16937518
-0.55347961 -0.18496062 -0.36930364
-0.07515208 0.61856455 0.05254831
-0.19724406 0.38836226 -0.06786057
-0.32718974 -0.43265766 0.00000293
-0.25372651 0.18744110 0.19100329
-0.57644534 -0.39386842 -0.20794407
-0.54799879 -0.32088625 -0.21247281
-0.58849341 -0.56956196 -0.05379443
-0.30936307 0.27446818 -0.23270895
-0.25122869 0.19346708 0.24454182
-0.24841703 0.20027153 0.03418606
-0.36936226 -0.43837109 0.00000324
-0.50957167 -0.11515125 -0.33124959
-0.17748384 0.37151995 0.00595048
-0.37468943 -0.10459978 0.36169013
-0.40674108 -0.37237728 0.00000360
-0.27347308 0.13977273 0.14544748
-0.25366390 -0.71183127 0.00000202
-0.20402940 0.34089562 -0.03517484
-0.50771242 -0.65449542 0.00000401
-0.30049363 -0.79690641 0.00000227
-0.37449694 -0.10413444 0.35404354
-0.50816029 -0.42682269 0.19456676
-0.09809676 0.45640808 0.00000393
-0.50777292 -0.68887967 0.00000397
-0.34060493 -0.70806593 0.00000268
-0.19996695 0.16884699 0.00000506
-0.28832310 0.10393256 0.01120092
-0.45640567 -0.73096651 0.00000353
-0.41933647 -0.11823263 -0.09895912
-0.56544942 -0.29981685 -0.27892247
-0.40636897 -0.01302333 -0.17666155
-0.02894156 0.49655172 0.00000509
-0.50804132 -0.39738995 -0.03060645
-0.28094339 -0.59431452 0.00000238
-0.04734863 0.33796108 0.00000663
-0.13950823 -0.70041716 0.00000118
-0.34513542 -0.30382332 0.00000322
-0.35502321 0.07145001 -0.13514587
-0.21359584 0.28432828 0.13844261
-0.30528879 -0.63866562 0.00000250
-0.28785393 0.11098379 -0.00621100
-0.38115194 -0.24307743 0.00000357
-0.10049566 0.55737835 0.07741550
-0.35049808 -0.04618600 0.09543715
-0.50922424 -0.42184335 -0.00789777
-0.16116992 0.47494310 -0.06732658
-0.42435631 -0.22450793 0.35202339
-0.17542566 -0.46354893 0.00000174
-0.03832174 -0.65423602 0.00000047
-0.33595389 -0.31282133 0.00000314
-0.41702920 -0.00063535 -0.21674722
-0.11968891 -0.03978153 0.00000185
-0.11735133 -0.59963804 0.00000114
-0.36523676 -0.68217266 0.00000290
-0.49212304 -0.38810378 0.16472656
-0.16010174 0.52300990 -0.11515589
-0.36991036 -0.09305428 0.15438807
-0.17205873 -0.25818300 0.00000198
-0.37584585 0.14339446 -0.26364970
-0.21897712 0.27133793 0.12470841
-0.48184729 -0.65540618 0.00000382
-0.20186365 0.44264281 -0.13666138
-0.25034544 0.19560765 0.14057595
-0.38666144 -0.30971906 0.00000353
-0.29211894 -0.69596708 0.00000233
-0.32217124 0.02221656 0.01354509
-0.53234410 -0.48520884 0.27005476
-0.35038218 -0.60433263 0.00000289
-0.05781200 -0.04034475 0.00000139
-0.34309110 0.15204309 -0.18959838
-0.29329890 0.10689212 -0.01573027
-0.43858078 -0.12806419 -0.13747102
-0.17731658 0.05744302 0.00000700
-0.04491814 -0.68858254 0.00000048
-0.39882457 -0.16286397 0.24921754
-0.51779681 -0.45008883 0.22526462
-0.29078329 0.27567029 -0.18680973
-0.12206602 0.50530386 0.07206876
-0.18638161 0.00890823 0.00000739
-0.31016317 -0.40315264 0.00000284
-0.43753964 -0.25632304 0.07381607
-0.26171279 0.22761892 -0.06249223
-0.23689307 -0.57228982 0.00000207
-0.28268966 -0.25103533 0.00000282
-0.05968673 0.65590268 0.02844699
-0.60361493 -0.56269938 -0.09939418
-0.05775787 0.67296708 -0.01304013
-0.17911254 0.30868763 0.00000382
-0.27216849 0.20867056 -0.06910952
-0.46366552 -0.31940210 0.19153196
-0.47266376 -0.21863300 -0.12875815
-0.68158656 -0.75713038 -0.09288227
-0.29737824 -0.40312311 0.00000274
-0.31722173 0.17571314 -0.14881960
-0.23883720 0.22338948 0.15605748
-0.29661822 -0.35247678 0.00000280
-0.00219923 -0.75025016 0.00000008
-0.62230361 -0.51141781 -0.20075306
-0.18247350 -0.46638301 0.00000179
-0.69710010 -0.74102920 -0.14919135
-0.53432661 -0.38460997 -0.11076577
-0.13056730 0.50560284 -0.02188222
-0.03567595 0.71949714 -0.00591201
-0.63397521 -0.55442840 -0.18515673
-0.26886079 0.31711805 -0.17474242
-0.17826274 0.09523348 0.00000651
-0.57399827 -0.58576840 0.23464796
-0.06062186 0.09737863 0.00000932
-0.59087610 -0.54517114 -0.08548819
-0.32844502 0.17795649 -0.17966771
-0.44375673 -0.01457627 -0.26993427
-0.10111808 0.35159078 0.00000516
-0.14419109 0.21761976 0.00000580
-0.26171732 0.07315027 0.00000477
-0.02349270 0.63549417 0.00000349
-0.02780489 -0.70968425 0.00000032
-0.27151686 0.33114493 -0.19623344
-0.32929459 -0.42694700 0.00000295
-0.17723033 0.37211952 0.16371948
-0.25434068 0.21239325 -0.02776939
-0.00365006 -0.50123054 0.00000040
-0.22497334 0.25687009 0.02113761
-0.18051469 0.42206052 -0.06082724
-0.26011074 0.19848619 -0.02779336
-0.57113826 -0.57419688 -0.00486732
-0.34179917 0.08336265 -0.11410357
-0.26621938 0.15728323 0.16196828
-0.02935175 0.33835608 0.00000706
-0.50294197 -0.79881942 0.00000380
-0.31261462 -0.46137810 0.00000278
-0.29736692 0.08208743 0.15901309
-0.10584635 -0.32930946 0.00000139
-0.00348623 0.57295614 0.00000475
-0.00163111 -0.16917238 0.00000080
-0.45186082 -0.24981102 -0.04317058
-0.36729085 -0.08673616 0.33584446
-0.35144800 -0.26369992 0.00000332
-0.23409337 0.23484308 0.14230719
-0.68242502 -0.79047477 -0.05995070
-0.35358575 -0.01548181 -0.04009607
-0.59528142 -0.60045093 -0.03854691
-0.34952900 -0.02978120 -0.01476352
-0.35295069 -0.55893803 0.00000296
-0.48674810 -0.37513250 0.27712095
-0.11286185 0.31412625 0.00000535
-0.18406704 0.40680662 -0.05380554
-0.52136594 -0.15243489 -0.32198623
-0.18162294 -0.65750688 0.00000155
-0.22624283 -0.26254565 0.00000238
-0.64473939 -0.61222929 -0.15170573
-0.23145215 0.16301197 0.00000437
-0.29727674 0.16921036 -0.09135345
-0.24298097 0.35362950 -0.14743939
-0.60105121 -0.65107471 0.02178799
-0.50566304 -0.12589404 -0.31003264
-0.28013641 0.12367897 0.23733798
-0.07856679 0.31300345 0.00000619
-0.22538508 -0.50815231 0.00000207
-0.38625747 -0.79089421 0.00000293
-0.33602342 -0.00563081 -0.00587412
-0.00246205 0.38982740 0.00000707
