ply
format ascii 1.0
element vertex 1381
property float x
property float y
property float z
end_header
-0.32407025 0.12839900 -0.04312947
-0.09363217 0.21234462 0.00000845
-0.34286690 -0.02777468 0.36021930
-0.55225861 -0.40505347 -0.04992386
-0.19071351 0.33957762 0.02230327
-0.30450696 -0.74607825 0.00000247
-0.62060553 -0.41770476 -0.10925370
-0.57733119 -0.75124055 0.00000451
-0.48100877 0.14646620 -0.19771434
-0.10439975 -0.20757817 0.00000264
-0.17168091 0.38551885 0.10607511
-0.24823135 -0.22721958 0.00000366
-0.04465556 0.70394605 -0.00457340
-0.30513719 0.15802301 -0.03686596
-0.20764580 0.53810626 -0.09322722
-0.08628710 -0.33235860 0.00000211
-0.43383265 0.18685593 -0.16909020
-0.45392761 -0.29589748 0.29679391
-0.27199733 0.14332472 0.26325250
-0.38179615 -0.00893991 -0.04392047
-0.46192494 -0.23178209 -0.03247298
-0.55214947 -0.16871718 -0.14185712
-0.17064923 0.38800353 0.17961983
-0.06139783 0.65176684 0.03984182
-0.33041099 -0.32408100 0.00000398
-0.12350972 -0.55802673 0.00000169
-0.47774100 -0.26584780 -0.03407637
-0.57422107 -0.05512662 -0.20684312
-0.38818207 0.19211948 -0.12822074
-0.38225579 -0.25728798 0.00000458
-0.48781419 -0.37770677 0.29915240
-0.56482339 -0.39599100 -0.06526584
-0.37384695 0.17772740 -0.10913844
-0.68067265 -0.75923628 -0.03272403
-0.48280865 -0.14747177 -0.08493965
-0.09923129 -0.76488179 0.00000086
-0.23807226 0.03038167 0.00000742
-0.16282095 0.40691364 0.04071564
-0.15684998 -0.79133946 0.00000121
-0.28519812 0.44354135 -0.12931213
-0.05690673 -0.48675108 0.00000141
-0.29829851 -0.61995411 0.00000281
-0.48383695 -0.36810514 0.33124512
-0.07914904 0.12303529 0.00000949
-0.07749593 0.06449707 0.00001003
-0.38212737 -0.28916815 0.00000448
-0.52062649 -0.37067303 -0.03357347
-0.15196669 0.09413785 0.00000842
-0.49803483 -0.74977857 0.00000391
-0.40153214 -0.30618677 0.00000457
-0.15598261 -0.47836733 0.00000218
-0.51897424 -0.64796972 0.00000439
-0.49512771 -0.25779128 -0.05355999
-0.06946950 0.19828948 0.00000901
-0.53207678 0.03916245 -0.20393856
-0.55378348 -0.39651218 -0.05468367
-0.23699437 0.41003272 -0.07094284
-0.30372158 0.06674911 0.11220662
-0.43791002 0.06009885 -0.12355932
-0.17601730 0.37504891 0.11992076
-0.00016876 0.62225050 0.00000655
-0.36062112 -0.30935603 0.00000425
-0.28967181 0.10066448 0.15201221
-0.16051374 0.59604061 -0.07147708
-0.04962787 -0.06863715 0.00000266
-0.47767633 -0.35322356 0.08405681
-0.55533808 -0.01644730 -0.20415144
-0.23584944 -0.05543660 0.00000411
-0.34462017 -0.03199673 0.08138074
-0.36316365 -0.60293025 0.00000336
-0.37716335 0.05220220 -0.06337190
-0.35403249 -0.05473058 0.36271030
-0.31550008 0.12890613 -0.03526956
-0.01469283 0.36050200 0.00000858
-0.22997864 -0.52428526 0.00000260
-0.35170892 0.34679222 -0.15416555
-0.39282236 -0.13333941 -0.00584221
-0.05297851 0.07988199 0.00001034
-0.33548751 -0.68735546 0.00000288
-0.66352981 -0.50038707 -0.11741039
-0.45253953 0.06004967 -0.13729437
-0.61458236 -0.68374461 0.18769190
-0.16233233 -0.19281162 0.00000312
-0.25948092 0.47477368 -0.11729674
-0.38163805 -0.12137359 0.34267533
-0.39657715 -0.08525754 -0.02809671
-0.51250368 -0.20180941 -0.09169694
-0.64732045 -0.54299098 -0.08557991
-0.20823246 0.29726934 0.20063595
-0.24952927 0.36991927 -0.06710599
-0.60120100 -0.79844218 0.00000454
-0.34341186 0.24645045 -0.10728783
-0.40641046 -0.52844983 0.00000391
-0.65910876 -0.69894642 -0.03592941
-0.32001740 0.27486360 -0.09635827
-0.47072092 -0.13208616 -0.07956687
-0.53043938 -0.48060456 0.07051567
-0.14261404 0.45569855 0.01748180
-0.20364760 -0.65583086 0.00000199
-0.37022042 -0.23471293 0.00000456
-0.66593009 -0.34234470 -0.18121305
-0.54474926 -0.06629108 -0.17478734
-0.18550541 -0.27824852 0.00000303
-0.39824560 0.11699144 -0.10842430
-0.41921413 -0.21207963 0.00020321
-0.04192030 -0.51625556 0.00000120
-0.07326839 0.62310785 0.05695712
-0.11647350 0.23992138 0.00000779
-0.34417513 0.33803681 -0.14367282
-0.40941727 -0.18844420 0.40720773
-0.46860915 -0.76242369 0.00000365
-0.01760947 0.76459777 -0.00276572
-0.16251630 0.25170442 0.00000685
-0.01156847 0.68499893 0.00000580
-0.13258415 -0.71207672 0.00000128
-0.54260218 0.07001428 -0.22584912
-0.45032096 0.01319390 -0.11696103
-0.09557202 0.34786323 0.00000723
-0.64192307 -0.01304229 -0.28688207
-0.10191503 -0.17046148 0.00000274
-0.48068935 -0.36049598 0.04310718
-0.58518296 -0.30504769 -0.11982283
-0.71981782 -0.49671519 -0.17175908
-0.22506082 -0.18567862 0.00000362
-0.63286871 -0.72789061 0.08676944
-0.40228966 -0.77707833 0.00000311
-0.46322319 -0.63758206 0.00000400
-0.44298223 -0.10394508 -0.06444717
-0.24182995 -0.28099918 0.00000345
-0.15135714 0.36899403 0.00000603
-0.01202107 -0.11441785 0.00000223
-0.67892146 -0.38995343 -0.17488669
-0.24311891 0.45161074 -0.09289310
-0.64903557 -0.02447880 -0.28911519
-0.24484649 0.20887788 0.18559343
-0.39628062 -0.76257026 0.00000311
-0.15530603 0.42504981 0.11681608
-0.40721223 0.07015838 -0.09861578
-0.37814656 0.15471324 -0.10421818
-0.26110059 0.27858844 -0.04241710
-0.31607467 0.03691716 0.22826469
-0.40060931 0.27252194 -0.17121640
-0.26668245 0.28364706 -0.04963502
-0.35611612 -0.56165659 0.00000343
-0.11172644 -0.44650823 0.00000195
-0.49411082 -0.29155415 -0.03945578
-0.39132425 -0.14475223 0.12186962
-0.07545055 -0.10532168 0.00000274
-0.21911983 -0.77435178 0.00000173
-0.12321577 -0.20584011 0.00000279
-0.10770936 0.53996587 0.00119743
-0.56954253 -0.25773689 -0.12354257
-0.61666274 -0.63764012 -0.01989798
-0.27679604 -0.35985342 0.00000346
-0.10830218 0.59211820 -0.02086177
-0.25515044 0.18401271 0.05811362
-0.24277879 0.00558207 0.00000756
-0.09622588 0.09803052 0.00000940
-0.47374946 -0.27502441 -0.02675008
-0.28707984 0.14870442 -0.01625997
-0.52681953 -0.33782122 -0.05218932
-0.61692369 -0.45677054 -0.09057894
-0.55431849 -0.25335628 -0.11093550
-0.22285941 -0.37422347 0.00000301
-0.59926492 -0.18546101 -0.17963238
-0.02426214 0.06930010 0.00001095
-0.33498025 -0.16549034 0.00000451
-0.68074828 -0.74923074 -0.03669159
-0.36976263 -0.09269978 0.28773603
-0.47311911 -0.51443279 0.00000446
-0.62940079 -0.16320755 -0.21663083
-0.35256299 -0.05116656 0.16085216
-0.47780007 -0.35352993 0.27382475
-0.32171002 0.02332723 0.04597272
-0.02041735 -0.02500355 0.00000258
-0.50612801 -0.07475028 -0.13518316
-0.32253635 0.02133539 0.00838755
-0.26367018 0.16343793 0.13984659
-0.00577718 -0.11918674 0.00000217
-0.15348892 -0.32778230 0.00000263
-0.19051531 -0.37758097 0.00000276
-0.44224459 -0.26768348 0.08185917
-0.25741786 -0.36022228 0.00000332
-0.31746045 0.27698278 -0.09477963
-0.64899987 -0.57919163 -0.07306133
-0.48688951 -0.18754879 -0.07316917
-0.38835609 -0.13758644 0.12216170
-0.59747452 -0.25548476 -0.15067995
-0.02570149 0.19972631 0.00000979
-0.28624588 0.30135894 -0.07492567
-0.37461349 -0.48742309 0.00000380
-0.62017238 -0.10867184 -0.22919242
-0.50987780 -0.08852588 -0.13334394
-0.28365535 0.16829120 -0.02066825
-0.68580174 -0.54079342 -0.12261385
-0.34817377 0.31760165 -0.13947396
-0.07884933 0.19803891 0.00000884
-0.56666565 -0.36434123 -0.07932313
-0.60646182 -0.38695756 -0.10793026
-0.12436372 -0.22282591 0.00000274
-0.60071760 -0.65027291 0.15266536
-0.03985159 -0.76882076 0.00000040
-0.18445425 0.36155924 -0.00266871
-0.22208881 0.26382542 0.10525014
-0.08839378 0.25200543 0.00000819
-0.14731671 -0.56093824 0.00000186
-0.67232871 -0.06697531 -0.29446518
-0.33508429 -0.60520613 0.00000314
-0.40131378 0.29391608 -0.18021046
-0.46549055 0.11615209 -0.17131907
-0.59141797 -0.12483709 -0.19586366
-0.46954414 -0.33359322 0.14732750
-0.57599574 -0.01260620 -0.22506902
-0.30544481 0.25136527 -0.07350639
-0.18678340 -0.59061885 0.00000206
-0.02144786 -0.76560974 0.00000027
-0.11947223 0.02118632 0.00000965
-0.43367028 -0.50200945 0.00000420
-0.75721788 -0.80421901 -0.08716989
-0.19642772 0.45957896 -0.05209862
-0.08057098 -0.61655849 0.00000118
-0.44994554 -0.28627822 0.15517521
-0.45655769 -0.30224720 0.29926330
-0.36084232 -0.47919452 0.00000372
-0.55148393 0.10480525 -0.24774849
-0.00191058 0.73432463 0.00000554
-0.18619908 0.22853483 0.00000663
-0.02053836 -0.08834728 0.00000238
-0.69442534 -0.35443005 -0.20329635
-0.51406020 0.07732789 -0.20186304
-0.54968238 -0.71542174 0.00000441
-0.50685513 -0.42367455 0.31664562
-0.39589447 0.17429127 -0.12852870
-0.35554472 -0.00945124 -0.01904097
-0.03547669 0.68115234 0.00000540
-0.03598848 0.33187515 0.00000844
-0.46774289 -0.18165064 -0.05746530
-0.17350708 0.38111109 0.09447896
-0.27446693 0.30911681 -0.06687271
-0.08930646 0.58438754 0.07695292
-0.26230913 0.16671427 0.25631300
-0.29848289 -0.40661839 0.00000348
-0.18148495 0.08537600 0.00000797
-0.03806133 0.37347820 0.00000804
-0.48900715 -0.59689867 0.00000432
-0.29474357 0.27976486 -0.07450534
-0.48819232 -0.36848187 -0.00393370
-0.23154467 -0.62123513 0.00000231
-0.06317336 -0.55905098 0.00000123
-0.73595762 -0.69869423 -0.10827651
-0.73959708 -0.65651745 -0.12812293
-0.12778176 0.63403326 -0.05549928
-0.34313664 -0.35610005 0.00000398
-0.49497461 -0.27538162 -0.04656591
-0.73162901 -0.53090060 -0.16955052
-0.19032346 0.51491815 -0.06791087
-0.14131981 -0.41882414 0.00000226
-0.39534533 0.21257494 -0.14292160
-0.31892487 -0.20280643 0.00000427
-0.70094663 -0.31232414 -0.22582451
-0.02661180 -0.26038551 0.00000189
-0.18206181 -0.09461661 0.00000358
-0.44363606 -0.59747607 0.00000398
-0.47348389 0.09550944 -0.17079508
-0.68418533 -0.76975214 -0.03193129
-0.18042053 -0.03456628 0.00000375
-0.36705604 -0.40263447 0.00000401
-0.17762461 -0.31428048 0.00000286
-0.04864537 0.36369503 0.00000794
-0.08161785 0.41123754 0.00000692
-0.64989936 -0.47755986 -0.11348521
-0.00565201 0.73216969 0.00000549
-0.00886639 0.24161308 0.00000973
-0.27127659 0.19677630 -0.02012336
-0.03756524 0.66984600 0.00000546
-0.22262032 0.26254693 0.04776501
-0.31227946 0.39599469 -0.13625662
-0.19157112 0.34447020 -0.00270461
-0.34418318 0.07387014 -0.04080331
-0.40670505 -0.17561731 -0.00242989
-0.60517401 -0.66102850 0.02414734
-0.65195841 -0.77397609 0.14222854
-0.28149655 0.33510488 -0.08360252
-0.00384680 0.70626998 0.00000575
-0.20964888 -0.50734514 0.00000250
-0.37012663 -0.37248558 0.00000413
-0.07197198 0.17384823 0.00000918
-0.35239244 -0.05075762 0.00560024
-0.31867406 0.03063345 0.33049890
-0.05429189 -0.06776177 0.00000270
-0.18107302 0.36284563 0.09383576
-0.56555635 -0.04161114 -0.20396024
-0.23424609 0.14787047 0.00000646
-0.07785796 0.61202765 0.05918521
-0.17015387 0.51901174 -0.05054224
-0.05937979 -0.45550877 0.00000152
-0.24951382 -0.78689563 0.00000192
-0.08855243 -0.77871883 0.00000073
-0.16926551 -0.57226205 0.00000199
-0.34192491 -0.74229175 0.00000276
-0.32341981 0.01918032 0.28191191
-0.33651081 -0.01241680 0.02835149
-0.41060719 -0.19130416 0.08957979
-0.41135612 0.15854035 -0.13693121
-0.15412001 -0.63076878 0.00000169
-0.32902387 0.00567388 0.00200558
-0.15307422 0.11979755 0.00000818
-0.36655644 0.21222226 -0.11571782
-0.54928058 -0.12492835 -0.15621249
-0.63417357 -0.14935289 -0.22651336
-0.00927679 0.51863509 0.00000729
-0.14060915 0.46053189 0.10158145
-0.30827457 0.05575540 0.13631085
-0.71844769 -0.51270199 -0.16424528
-0.16568439 0.52364922 -0.04814619
-0.51540929 -0.01076941 -0.16882284
-0.33880842 -0.63135481 0.00000308
-0.34243035 -0.75185394 0.00000273
-0.03069957 0.72587991 0.01422218
-0.38380986 -0.06345016 -0.02458589
-0.33918583 0.22605827 -0.09537310
-0.35112280 -0.78582317 0.00000269
-0.30055362 -0.21673962 0.00000409
-0.70791519 -0.55114508 -0.13937241
-0.01291644 0.71100605 0.00000554
-0.20646359 0.30154523 0.13271666
-0.38663670 -0.25485787 0.00000462
-0.30255222 0.41976917 -0.13637011
-0.17704923 0.54185593 -0.06592152
-0.67370039 -0.52693939 -0.11663202
-0.37676135 -0.22656788 0.00000463
-0.65587234 -0.19275789 -0.23001046
-0.36241299 -0.45570269 0.00000381
-0.21701415 0.27607328 0.14539994
-0.59424078 -0.75085211 0.00000464
-0.14871375 -0.49921975 0.00000206
-0.51886290 -0.01064388 -0.17211866
-0.21678825 0.27661473 0.19387552
-0.03166828 -0.58759576 0.00000090
-0.09492588 0.57082343 0.05021633
-0.70460951 -0.42438197 -0.18562967
-0.56284577 -0.71510893 0.00000451
-0.61888170 -0.46954295 -0.08744586
-0.73443317 -0.72614640 -0.09615271
-0.10707473 0.07838601 0.00000938
-0.07854530 0.43503621 0.00000677
-0.43567461 -0.22101314 -0.01198737
-0.41354358 0.06917158 -0.10418401
-0.35015860 -0.04536700 0.22311142
-0.27725813 0.13064188 0.04570468
-0.49618441 -0.08086046 -0.12345519
-0.38373438 0.25168878 -0.14723784
-0.10288869 -0.54458314 0.00000157
-0.17544656 -0.27991036 0.00000295
-0.37992692 -0.08636540 -0.01201150
-0.49392477 -0.12118904 -0.10562570
-0.31628311 -0.13370876 0.00000447
-0.15870175 0.59623379 -0.06984866
-0.27025294 0.14754780 0.11736809
-0.42621505 0.16440810 -0.15318628
-0.07168175 -0.62434137 0.00000109
-0.40238118 -0.61487514 0.00000361
-0.50148124 -0.10823880 -0.11777314
-0.20172413 -0.19195245 0.00000342
-0.02638952 0.15801336 0.00001014
-0.05551733 -0.61736465 0.00000099
-0.45989269 -0.31029525 0.21556768
-0.27288526 0.22051913 -0.03088216
-0.44159707 -0.26612505 0.20185994
-0.12334591 -0.67581707 0.00000132
-0.66197568 -0.06349976 -0.28608522
-0.35663664 -0.74431938 0.00000286
-0.53324306 -0.38104826 -0.04139460
-0.04045394 0.30580717 0.00000859
-0.50182545 -0.23400989 -0.06911805
-0.30495575 0.06376065 0.22195303
-0.35737631 -0.55844837 0.00000345
-0.29430622 0.08947469 0.17007528
-0.08686208 0.23444626 0.00000838
-0.21748680 -0.65872782 0.00000208
-0.37768763 -0.02170865 -0.03508533
-0.65049440 -0.74140292 -0.01129685
-0.05547699 0.66606373 0.00404948
-0.61592180 -0.47785464 -0.08142624
-0.67617512 -0.65373033 -0.06958271
-0.03708317 0.71944183 -0.00348875
-0.12949426 -0.20974021 0.00000282
-0.64917558 -0.56836897 -0.07744118
-0.19298428 0.23700312 0.00000643
-0.44344357 -0.27057976 0.12352842
-0.28017610 0.18345577 -0.02330284
-0.68669778 -0.16946121 -0.26806337
-0.58212173 -0.14728408 -0.17838231
-0.40123564 -0.16868865 0.32527116
-0.66380256 -0.05346460 -0.29171073
-0.68448144 -0.44075444 -0.16033056
-0.26505649 0.16009504 0.09166212
-0.07060087 0.01449709 0.00001059
-0.34286132 0.13051856 -0.06162170
-0.32626653 -0.14507177 0.00000451
-0.23415495 -0.01437435 0.00000422
-0.15643921 0.01618084 0.00000903
-0.33030328 -0.74370438 0.00000267
-0.26680639 0.15586363 0.17618179
-0.37335202 0.12300808 -0.08736323
-0.55368954 -0.09291438 -0.17282474
-0.36942863 -0.61313468 0.00000337
-0.42770138 -0.09461710 -0.05371339
-0.43335816 -0.17649695 -0.02714535
-0.29634222 0.08455570 0.21594711
-0.40954936 0.11635027 -0.11880206
-0.03738881 -0.03056536 0.00000269
-0.05471510 0.10670819 0.00001008
-0.00696355 0.32365254 0.00000904
-0.19286038 0.33438206 0.17813697
-0.02034314 -0.10765705 0.00000232
-0.38415208 0.30360433 -0.16784854
-0.35489795 0.15275404 -0.08159757
-0.41585383 0.27340743 -0.18589374
-0.03171163 0.42831117 0.00000768
-0.25791657 0.17732732 0.15022762
-0.27024752 0.27015501 -0.04773246
-0.44337526 -0.27041635 0.16146930
-0.21094662 0.29073086 0.02852703
-0.10142160 0.37116548 0.00000692
-0.08782590 0.58796185 0.07715042
-0.32945314 0.00462559 0.14946873
-0.27942416 0.12541515 0.01547169
-0.15707415 0.04056162 0.00000880
-0.28224191 0.36257011 -0.09499934
-0.57369590 -0.36143658 -0.08706382
-0.17558463 0.37609544 0.09549570
-0.28129816 0.12088886 0.04180089
-0.00034921 -0.40834916 0.00000122
-0.47332263 -0.75111002 0.00000372
-0.02295051 -0.65197337 0.00000064
-0.31872115 -0.40966800 0.00000362
-0.66529042 -0.37219226 -0.16898817
-0.13712277 0.46895316 0.04545804
-0.54218793 -0.14964668 -0.13991828
-0.29679245 0.08346338 0.28280461
-0.32724068 0.00996847 0.12937005
-0.09713481 -0.52555257 0.00000159
-0.37759191 0.30239654 -0.16121051
-0.16472557 -0.44430807 0.00000235
-0.20348291 -0.19715098 0.00000342
-0.21833937 -0.47355011 0.00000267
-0.15714554 0.46846479 -0.01862721
-0.23527931 -0.42979655 0.00000293
-0.39757997 -0.13446213 -0.00987789
-0.41792360 -0.51302814 0.00000405
-0.09088846 -0.39782602 0.00000194
-0.24946210 -0.76756358 0.00000198
-0.59188378 -0.38008308 -0.09690175
-0.45975164 -0.65681756 0.00000392
-0.36078671 -0.42985702 0.00000388
-0.02559875 0.68788075 0.00000552
-0.16258956 0.57266939 -0.06432695
-0.40782800 0.22155821 -0.15815587
-0.51778245 -0.44813108 -0.00073534
-0.17170462 -0.40321714 0.00000254
-0.01506902 0.15048100 0.00001041
-0.01155552 0.32313100 0.00000896
-0.00001416 -0.01615828 0.00000245
-0.08147695 0.60329533 0.00299511
-0.13782281 0.23267189 0.00000747
-0.64119434 -0.23820405 -0.19851290
-0.67157578 -0.73610175 -0.03318092
-0.44612533 0.20171393 -0.18643369
-0.34993699 -0.04483803 0.29711559
-0.39168102 -0.14561701 0.20763697
-0.54474640 -0.40494412 -0.04290379
-0.26423484 -0.58240175 0.00000267
-0.58268929 -0.71381468 0.00000467
-0.26035136 0.41422623 -0.09453549
-0.49852037 0.08154048 -0.18889354
-0.20813726 0.29750928 0.07601585
-0.33112565 0.16756330 -0.06501490
-0.51095229 -0.56618941 0.00000459
-0.64489287 -0.38509169 -0.14478797
-0.42157069 0.02716101 -0.09537026
-0.29934782 -0.16394907 0.00000425
-0.38515994 -0.10673107 -0.00900039
-0.02569775 0.38422227 0.00000817
-0.27556410 0.26237670 -0.04970177
-0.00875002 -0.03615207 0.00000245
-0.66414648 -0.60737866 -0.07632467
-0.57788664 -0.25159732 -0.13377823
-0.47168112 -0.50368166 0.00000448
-0.68286890 -0.77922970 -0.02700287
-0.46309277 -0.74920785 0.00000365
-0.22163309 0.26493251 0.02037807
-0.33630839 -0.35468543 0.00000393
-0.68119663 -0.07034565 -0.30148983
-0.62708646 -0.21929409 -0.19261336
-0.62550288 -0.37910858 -0.12888840
-0.18397561 0.28243434 0.00000620
-0.20847961 -0.09640476 0.00000377
-0.43411753 -0.04812284 -0.07785169
-0.37465382 -0.10451646 0.39191565
-0.34914729 0.18659268 -0.08936909
-0.41351488 -0.19833338 0.32390228
-0.64780462 -0.30554709 -0.17850232
-0.16181096 0.24115385 0.00000696
-0.21998747 0.26888806 0.23328052
-0.61650056 -0.68837541 0.19257355
-0.25056532 0.22916532 -0.01326484
-0.14122383 -0.09760293 0.00000326
-0.06417878 -0.14585635 0.00000253
-0.35531896 -0.32229069 0.00000417
-0.50122011 -0.79330850 0.00000380
-0.36551571 -0.35325870 0.00000415
-0.26500183 0.16023071 0.04609784
-0.27122718 0.14519718 0.10050861
-0.10534167 0.25832242 0.00000783
-0.50912088 0.06150816 -0.19105843
-0.35987377 0.18529077 -0.09894679
-0.16949430 0.08754882 0.00000817
-0.40057528 -0.77804035 0.00000309
-0.33040822 0.38117614 -0.14752986
-0.14913832 0.21360619 0.00000743
-0.05864758 -0.01105097 0.00000291
-0.29346162 0.19074966 -0.03863401
-0.31979150 -0.64361161 0.00000290
-0.22440802 0.25823304 0.02399277
-0.19462851 -0.01841272 0.00000391
-0.33417368 0.14172664 -0.05781873
-0.27933902 0.26341057 -0.05365345
-0.15952435 0.43212980 -0.00671339
-0.63683414 -0.11873299 -0.24093893
-0.61311692 -0.54779392 -0.05155298
-0.16216296 0.18697909 0.00000743
-0.61945307 -0.69550323 0.16633719
-0.65389425 -0.05556115 -0.28157890
-0.64864206 -0.13405795 -0.24607226
-0.13973287 0.46898797 -0.00246010
-0.62880540 -0.71808118 0.13973521
-0.73189110 -0.64792907 -0.12422278
-0.46249780 -0.31658846 0.31289104
-0.03508721 -0.29074708 0.00000186
-0.14428815 -0.51858079 0.00000197
-0.00861150 0.69449013 0.00000577
-0.22177497 -0.70581043 0.00000197
-0.46672693 -0.14990437 -0.06887302
-0.10822880 0.53870767 0.05266066
-0.65087330 -0.20215479 -0.22165120
-0.39114058 -0.14430933 0.13447721
-0.06038780 -0.65483057 0.00000091
-0.50267851 -0.32420635 -0.03479503
-0.33987352 -0.02053502 0.02563875
-0.45834166 -0.06410182 -0.09440347
-0.00354470 -0.15119655 0.00000205
-0.62085009 -0.26281399 -0.16980238
-0.55588454 -0.75416249 0.00000434
-0.03058286 -0.72858793 0.00000045
-0.13164099 0.48218194 0.10964985
-0.13601747 0.47161835 0.08453459
-0.33912599 0.23292680 -0.09799173
-0.12572476 0.56588894 -0.02702722
-0.23421559 0.23454875 0.11147223
-0.38600177 -0.13190307 0.13359465
-0.35982376 -0.06871323 0.38131043
-0.62848645 -0.00379332 -0.27785125
-0.60625428 -0.56720001 -0.03754378
-0.43632689 -0.25340718 0.33842701
-0.23789465 0.22566517 0.13207175
-0.53458178 -0.69771719 0.00000435
-0.08250601 0.67835784 -0.03019417
-0.67364758 -0.47085530 -0.13842309
-0.46867993 -0.11092484 -0.08588885
-0.51559186 -0.44476327 0.16601321
-0.23008184 -0.31960100 0.00000324
-0.00126240 0.19383591 0.00001028
-0.17613108 0.37478128 0.03306783
-0.45990768 -0.31033251 0.24272940
-0.49861085 -0.00595857 -0.15490298
-0.54320031 -0.21941537 -0.11370028
-0.05602406 -0.66601437 0.00000084
-0.41428223 -0.34694219 0.00000454
-0.21208550 -0.31154719 0.00000313
-0.40547624 -0.55098361 0.00000384
-0.08826624 0.58689904 0.07412574
-0.11778257 0.51563734 0.12507083
-0.36904037 -0.09095543 0.15588059
-0.34593663 -0.01715618 -0.00700738
-0.33279437 0.25234514 -0.09960120
-0.08062309 -0.00920570 0.00000308
-0.72404861 -0.67247945 -0.10728915
-0.49670354 -0.19417927 -0.07981377
-0.24754235 0.20238036 0.05321872
-0.27427694 -0.23118684 0.00000385
-0.50231314 -0.39432552 -0.00714519
-0.36627239 -0.63412738 0.00000328
-0.50126779 -0.15243672 -0.10036056
-0.08931009 0.41004601 0.00000679
-0.01126508 0.14390585 0.00001054
-0.26254016 0.16617230 0.06195716
-0.57847446 -0.11894341 -0.18598992
-0.54548961 -0.24108875 -0.10741233
-0.24403036 -0.12679677 0.00000394
-0.13075665 0.57066637 -0.03361856
-0.55482370 -0.02772551 -0.19927564
-0.71959883 -0.41486937 -0.20342623
-0.04332921 0.69538891 0.02438042
-0.70563090 -0.59329855 -0.12080914
-0.12384349 0.40192628 0.00000624
-0.14460292 0.21995407 0.00000746
-0.50415087 -0.35011533 -0.02608959
-0.58112800 -0.60298061 0.20050527
-0.58083689 -0.10735153 -0.19272518
-0.28669691 -0.43503144 0.00000330
-0.56657416 0.09207262 -0.25697726
-0.28915116 0.10192107 0.15584576
-0.21763924 0.14693321 0.00000677
-0.62853980 -0.50504452 -0.08270064
-0.40826088 -0.38964570 0.00000436
-0.42791232 -0.23308057 0.03994044
-0.37449014 -0.10411481 0.21651901
-0.08114086 0.38853937 0.00000713
-0.49015820 -0.38335630 0.05383221
-0.52234435 0.14163528 -0.23469552
-0.26382643 0.16305524 0.20692071
-0.37453845 0.29176316 -0.15419868
-0.22061801 -0.38807446 0.00000295
-0.28580907 -0.54622930 0.00000295
-0.09567404 -0.18110605 0.00000266
-0.05452988 0.45546025 0.00000703
-0.36185217 -0.76282418 0.00000285
-0.06705239 -0.44857678 0.00000160
-0.59898722 -0.61404812 -0.01246765
-0.59707516 0.04390903 -0.26689655
-0.20627971 0.05732720 0.00000776
-0.09995450 0.55868453 0.03701371
-0.47478360 -0.20100586 -0.05654722
-0.42131749 -0.21716362 0.15030427
-0.17372160 0.38058576 0.18624149
-0.33062270 -0.32712632 0.00000397
-0.43748826 -0.25620016 0.06987778
-0.11280895 0.34166297 0.00000697
-0.37483233 -0.03160577 -0.02854670
-0.59408563 -0.07345582 -0.21838094
-0.28607529 -0.18162057 0.00000409
-0.14488317 0.10879649 0.00000842
-0.37290299 0.21787505 -0.12388608
-0.66949660 -0.68216926 -0.05222902
-0.17544822 0.49397844 -0.04577086
-0.63729972 -0.35328394 -0.15003604
-0.48895022 -0.71132082 0.00000397
-0.24161795 0.21667717 0.12366493
-0.60093379 -0.44843730 -0.07879115
-0.61900824 -0.01484149 -0.26463753
-0.58726263 -0.30159080 -0.12312427
-0.34144154 0.34916517 -0.14543660
-0.43122968 -0.09424960 -0.05717366
-0.13118929 0.56238562 -0.03080046
-0.62685621 -0.35127115 -0.14100137
-0.16112074 0.41101414 0.09124760
-0.58879972 -0.39630583 -0.08768469
-0.23833968 0.22459827 0.04022863
-0.24133506 0.21735035 0.24404941
-0.28034925 0.12315853 0.30261096
-0.45395532 -0.73647434 0.00000362
-0.13910775 -0.09831877 0.00000324
-0.23228088 -0.17432319 0.00000371
-0.08353747 0.24150896 0.00000837
-0.40126655 -0.57190692 0.00000374
-0.41492498 0.19785383 -0.15559679
-0.63096458 -0.28087163 -0.17227943
-0.37741804 -0.46246201 0.00000390
-0.54485834 -0.45048586 -0.02527382
-0.36893162 -0.33527485 0.00000424
-0.31622365 0.03655244 0.29027414
-0.39327493 -0.12775584 -0.00844211
-0.47809690 -0.03428475 -0.12458801
-0.35981983 -0.01620588 -0.02042979
-0.37119254 -0.31894127 0.00000430
-0.33583051 -0.76708448 0.00000264
-0.20068535 0.31550395 0.02131171
-0.02177016 0.66397965 0.00000580
-0.24116068 -0.09890528 0.00000401
-0.07097222 0.70752937 -0.03071102
-0.43763998 0.02238145 -0.10861676
-0.41166556 -0.19386804 0.30657116
-0.29769349 0.29504129 -0.08322804
-0.36554480 -0.08252119 0.33677271
-0.11653331 -0.05614945 0.00000320
-0.61036903 -0.33241376 -0.13284448
-0.25279069 -0.60092551 0.00000253
-0.60318577 -0.24073380 -0.16179381
-0.50255239 -0.41328704 0.27198347
-0.04703368 -0.15515172 0.00000237
-0.36177072 0.19650786 -0.10509860
-0.21532503 -0.33303958 0.00000308
-0.42206281 0.04831912 -0.10407277
-0.06337150 0.64700443 0.01088529
-0.42531335 -0.15514839 -0.02789572
-0.12121579 0.61851138 -0.04328130
-0.56629300 -0.24201500 -0.12661003
-0.35715979 0.32734761 -0.15171781
-0.53028071 -0.60748130 0.00000460
-0.27723628 -0.05805234 0.00000441
-0.25190157 0.42651582 -0.09137733
-0.43607771 -0.06433669 -0.07338044
-0.30756950 -0.48319647 0.00000331
-0.49470326 -0.70056581 0.00000404
-0.42135170 -0.36074907 0.00000455
-0.12221477 0.56851202 -0.02474878
-0.37950754 -0.11622846 0.23068836
-0.00504713 -0.10116419 0.00000222
-0.34426415 -0.67882568 0.00000298
-0.48055473 0.10884028 -0.18263441
-0.51787525 -0.21779689 -0.09052112
-0.30745450 0.17582560 -0.04597768
-0.58302540 -0.35212269 -0.09946209
-0.03803137 -0.36199939 0.00000166
-0.13822271 0.46629730 0.05050538
-0.30600932 0.06122285 0.15183482
-0.33815199 0.08053805 -0.03772972
-0.63041490 -0.25298506 -0.18262242
-0.62139261 -0.30787140 -0.15276584
-0.03230812 -0.05191700 0.00000258
-0.26887533 0.15086120 0.27015027
-0.55792743 0.04352917 -0.22994311
-0.14913416 0.43994799 0.13860939
-0.56243604 0.03014326 -0.22896895
-0.42976621 -0.51677728 0.00000413
-0.58654660 0.05462703 -0.26117194
-0.45246714 -0.29237199 0.30610645
-0.52438647 0.01281864 -0.18644904
-0.10374710 -0.23761991 0.00000254
-0.08873806 0.39208901 0.00000696
-0.17656294 -0.01512982 0.00000378
-0.20738459 0.29932383 0.10721165
-0.00075449 -0.78303635 0.00000005
-0.29516464 0.11205411 -0.00958794
-0.02083445 0.30615002 0.00000894
-0.14871290 0.17578442 0.00000777
-0.07559650 0.19584897 0.00000892
-0.20197549 -0.23277284 0.00000330
-0.46943653 -0.33332857 0.02735957
-0.41410843 0.01364809 -0.08309202
-0.37300828 -0.07125678 -0.01139062
-0.35525468 -0.05767191 0.11013170
-0.61074662 -0.67448449 0.09584782
-0.32367030 0.28198051 -0.10256424
-0.28524867 -0.60993242 0.00000275
-0.28526294 0.19915652 -0.03419983
-0.18594123 -0.72263211 0.00000164
-0.44368920 0.22884548 -0.19470941
-0.18854573 0.34480110 0.14423428
-0.60060889 0.03016358 -0.26486582
-0.15523258 0.42522547 0.13712411
-0.57023257 -0.54833406 -0.01102474
-0.18237001 -0.70367658 0.00000168
-0.34395489 0.36706156 -0.15476921
-0.28785476 -0.51687145 0.00000306
-0.05804219 0.42920092 0.00000719
-0.06101672 -0.64078289 0.00000096
-0.55090582 -0.76191533 0.00000428
-0.29560721 -0.79022539 0.00000226
-0.13504218 -0.01213324 0.00000348
-0.73149323 -0.55391371 -0.16046093
-0.60721344 -0.59588647 -0.02727420
-0.36066797 -0.07073840 0.05016686
-0.24423736 0.45511073 -0.09530767
-0.08676074 0.23232007 0.00000840
-0.20829470 0.21336041 0.00000636
-0.05652745 -0.09819307 0.00000262
-0.55914962 -0.69693625 0.00000454
-0.31211421 0.04647538 0.26560998
-0.07315163 0.40677467 0.00000712
-0.58663982 -0.37738243 -0.09302334
-0.45208335 -0.29144409 0.27297378
-0.24368067 0.29198375 -0.03125610
-0.58030289 -0.48656687 -0.04454621
-0.21281809 -0.06385824 0.00000391
-0.50736010 -0.55370659 0.00000460
-0.12611000 -0.51073080 0.00000186
-0.01075533 -0.42651138 0.00000125
-0.11141114 -0.08852083 0.00000306
-0.27398467 -0.10886621 0.00000423
-0.19668140 0.51522130 -0.07400647
-0.15683608 0.23834667 0.00000707
-0.22715925 -0.00368560 0.00000420
-0.62209249 -0.28825265 -0.16106389
-0.24211141 0.21547578 0.24784771
-0.34917444 -0.04299742 0.30104655
-0.73143524 -0.56159645 -0.15741456
-0.66760135 -0.41297674 -0.15527824
-0.06317661 -0.71836793 0.00000073
-0.34780464 -0.03968350 0.05118304
-0.23870394 -0.18458433 0.00000372
-0.45903069 0.09617742 -0.15746678
-0.67490131 -0.82936376 0.12295707
-0.07303524 -0.58948553 0.00000121
-0.67809618 -0.77172858 -0.02543697
-0.47290868 -0.06411698 -0.10809278
-0.54560196 -0.65377301 0.00000457
-0.03047050 0.32113102 0.00000864
-0.55723643 -0.40715507 -0.05378536
-0.07526595 -0.64553416 0.00000105
-0.12163882 -0.24641442 0.00000265
-0.70301569 -0.43490079 -0.18003494
-0.43669054 -0.25427526 0.09344426
-0.20088071 0.43138328 -0.04530465
-0.15405393 0.50089657 -0.02835079
-0.40119252 -0.07111654 -0.03794274
-0.23549891 -0.48751950 0.00000275
-0.07378747 -0.03687452 0.00000294
-0.03915350 0.26486865 0.00000897
-0.72291875 -0.59432453 -0.13666259
-0.36461273 -0.08026410 0.10489619
-0.15237279 0.43213773 0.03583113
-0.01599554 -0.14437443 0.00000217
-0.37321272 -0.34070486 0.00000425
-0.29292297 -0.58425570 0.00000288
-0.47131720 -0.22511315 -0.04390022
-0.35678074 -0.06135315 0.03542660
-0.39706483 -0.15860739 0.02535722
-0.39067671 0.21302029 -0.13870573
-0.05284675 0.35014409 0.00000798
-0.68715501 -0.20018853 -0.25652716
-0.32371715 -0.23028685 0.00000422
-0.10069760 0.28861079 0.00000765
-0.36035812 -0.03998816 -0.01167439
-0.43647382 -0.25375420 0.14761035
-0.61675698 -0.77292252 0.00000474
-0.38347432 0.04334694 -0.06585669
-0.36322832 0.26416412 -0.13281706
-0.36279801 -0.28730020 0.00000434
-0.54252189 0.01091578 -0.20275834
-0.01013844 -0.70344651 0.00000038
-0.41934836 -0.21240680 0.07832500
-0.17798935 -0.24341013 0.00000308
-0.59628868 -0.05688867 -0.22690384
-0.66931903 -0.22608559 -0.22967370
-0.19493493 -0.09796957 0.00000366
-0.01587513 -0.62501854 0.00000067
-0.34216243 0.11953722 -0.05668806
-0.30608770 0.06103201 0.17182001
-0.30949298 0.05280889 0.19867297
-0.26264364 0.03307835 0.00000696
-0.02731236 -0.30099714 0.00000177
-0.60899478 0.01338093 -0.26621413
-0.31985086 -0.68818468 0.00000276
-0.40920776 -0.18793713 0.37462321
-0.15800561 0.41853330 0.10725685
-0.53354961 -0.48811913 0.27673981
-0.02228632 0.18194924 0.00001000
-0.24202934 0.04541461 0.00000722
-0.35971019 -0.62292027 0.00000327
-0.57373047 -0.36908454 -0.08411802
-0.29306677 0.09247574 0.06186004
-0.40164912 -0.16967595 0.05247667
-0.25485525 -0.67981869 0.00000230
-0.48061147 -0.65063220 0.00000409
-0.68735737 -0.77759451 -0.03185945
-0.02484321 -0.56870395 0.00000091
-0.47180638 -0.33905992 0.27601400
-0.53655142 0.10443470 -0.23356508
-0.47608146 0.20195340 -0.21469077
-0.75798339 -0.79914463 -0.08986572
-0.34153345 0.21520181 -0.09335231
-0.26924679 0.14997204 0.17630716
-0.00806504 0.25298211 0.00000964
-0.27606529 -0.29873005 0.00000365
-0.03556114 -0.20655926 0.00000212
-0.28293875 0.11691435 0.21211739
-0.52410799 0.02041131 -0.18914407
-0.31650192 0.03588374 0.25262457
-0.23937334 0.24579275 -0.00921785
-0.42628837 0.08706808 -0.12313590
-0.31215811 0.40824538 -0.14091346
-0.15275633 -0.36821550 0.00000250
-0.23264158 0.23835085 0.08474921
-0.67570037 -0.38676810 -0.17309889
-0.25585005 0.18230651 0.27026117
-0.08203129 -0.02574277 0.00000304
-0.44210929 -0.49825570 0.00000428
-0.28477803 0.20373803 -0.03552816
-0.04517670 0.26996270 0.00000882
-0.09370028 0.57377815 0.10088523
-0.48720086 -0.74816138 0.00000384
-0.29149961 0.09624516 0.23423712
-0.08935450 -0.05284497 0.00000301
-0.45021978 0.13764697 -0.16533293
-0.53398263 0.03033035 -0.20229080
-0.14240323 0.12632255 0.00000832
-0.05103338 0.25534114 0.00000884
-0.32251632 0.25428650 -0.09069413
-0.35803524 -0.06438507 0.25352639
-0.18818574 -0.40361461 0.00000266
-0.40654418 -0.10338285 -0.03040874
-0.10281068 0.21228042 0.00000828
-0.24406654 0.21076830 0.09340644
-0.13927343 0.52745533 -0.02479768
-0.22097693 -0.53385633 0.00000250
-0.33252907 -0.00280926 0.26030624
-0.10070233 -0.22631502 0.00000255
-0.30991772 0.05177833 0.26234213
-0.37179953 -0.44729346 0.00000391
-0.58573067 -0.61408818 0.02848557
-0.46977171 -0.66050363 0.00000398
-0.01259521 -0.29521945 0.00000167
-0.41224173 -0.43211344 0.00000426
-0.45462522 -0.12823479 -0.06593428
-0.30366540 -0.47406021 0.00000331
-0.08576803 0.30550212 0.00000777
-0.45365006 -0.46625015 0.00000447
-0.06481845 0.49579859 0.00000649
-0.36703429 0.03770450 -0.04820288
-0.47608083 -0.34937057 0.05579492
-0.52059639 -0.10968721 -0.13518023
-0.47502363 -0.11810912 -0.08905515
-0.19697911 -0.60975832 0.00000208
-0.10375477 -0.27836135 0.00000241
-0.09975226 -0.08528033 0.00000299
-0.65671206 -0.03512269 -0.29218721
-0.65540409 -0.50584406 -0.10764586
-0.69685721 -0.44684187 -0.16959491
-0.14523700 -0.73048478 0.00000131
-0.08005723 -0.10218377 0.00000278
-0.43787536 -0.25714317 0.27964687
-0.24659941 -0.25491422 0.00000356
-0.19862530 0.32046595 0.16070049
-0.24954709 0.19752729 0.21651348
-0.35017815 -0.59223443 0.00000329
-0.07485105 0.30894849 0.00000794
-0.47256550 -0.34088817 0.16573907
-0.21835241 0.27283964 0.18055384
-0.49239621 0.01931934 -0.15890439
-0.51058018 -0.58887964 0.00000451
-0.23578008 0.28871250 -0.02255426
-0.51324189 -0.07605487 -0.14136328
-0.25020131 -0.02061952 0.00000432
-0.37132546 -0.00616784 -0.03515593
-0.30156451 -0.49591371 0.00000323
-0.36995593 -0.58355564 0.00000347
-0.14107630 -0.52640945 0.00000192
-0.45024884 -0.15360644 -0.05193941
-0.24248350 0.21457852 0.23551014
-0.10019029 0.07018611 0.00000957
-0.25454730 0.18545115 0.27538845
-0.43533972 -0.25102505 0.36603859
-0.34636524 0.08519627 -0.04726566
-0.21003136 0.18718851 0.00000656
-0.32254699 -0.14860195 0.00000447
-0.20699424 -0.25126410 0.00000328
-0.52353162 -0.22004868 -0.09496201
-0.39244848 -0.14747766 0.41393936
-0.15673557 -0.23134124 0.00000296
-0.39027670 0.18422675 -0.12711629
-0.46577322 -0.13242532 -0.07478323
-0.64684093 -0.72961038 -0.01245438
-0.25172707 0.19226716 0.18296655
-0.05965691 0.58860803 0.00000577
-0.17427941 0.25585908 0.00000661
-0.57166910 -0.09850883 -0.18754961
-0.66005671 -0.35805938 -0.16957144
-0.17532586 -0.12706712 0.00000343
-0.39316899 -0.14921331 0.30838314
-0.00007404 -0.50629729 0.00000092
-0.56351835 -0.29122958 -0.10483590
-0.54108858 -0.41905534 -0.03396963
-0.40073660 0.13484833 -0.11772044
-0.38792941 -0.13656335 0.29622814
-0.33033216 -0.75703675 0.00000263
-0.10198048 0.43775594 0.00000632
-0.21905501 -0.33335751 0.00000311
-0.62432498 -0.60091805 -0.04140224
-0.07689270 -0.64303917 0.00000107
-0.68244505 -0.23248281 -0.23952284
-0.26082039 0.17031181 0.21377841
-0.72483641 -0.53954321 -0.15979885
-0.01465449 -0.50973594 0.00000102
-0.24126595 0.41920808 -0.07853210
-0.02432688 -0.63745666 0.00000069
-0.10541381 -0.64443213 0.00000128
-0.13637002 -0.44092846 0.00000215
-0.59977961 -0.77493095 0.00000460
-0.45137054 0.11699455 -0.15837196
-0.52554816 -0.46879652 0.08088067
-0.43001360 0.04683054 -0.11096813
-0.31018469 0.28891978 -0.09258792
-0.16490601 0.40187058 0.15575893
-0.14249089 -0.00818135 0.00000355
-0.68701094 -0.73352844 -0.04869432
-0.64457977 -0.13025755 -0.24373306
-0.30012634 0.29875106 -0.08696005
-0.62726420 -0.15068281 -0.21949959
-0.63857913 -0.56512773 -0.06874111
-0.46666023 -0.32663295 0.20046501
-0.48988178 -0.38269830 0.29968446
-0.36113027 -0.07185955 0.17701969
-0.11809362 0.51489383 0.03369194
-0.66557759 -0.72120243 -0.03334403
-0.28538001 0.11103189 0.07473345
-0.20166083 0.31314394 0.08323744
-0.02765241 0.25868577 0.00000924
-0.47123605 -0.52790493 0.00000441
-0.57205588 -0.58107913 0.22800432
-0.09962800 0.58084357 -0.00831578
-0.29276535 -0.74743164 0.00000237
-0.64346468 -0.68832284 -0.02535873
-0.24205729 0.47514987 -0.10106207
-0.07479115 -0.42262962 0.00000174
-0.13913475 0.46408984 0.12019952
-0.11768645 -0.60890955 0.00000149
-0.38184646 -0.34140643 0.00000431
-0.07380062 0.62182158 0.07397707
-0.25641426 0.18096356 0.03388426
-0.38026521 -0.11804917 0.02025551
-0.08636281 0.68131894 -0.03497337
-0.05564932 0.20464031 0.00000920
-0.36130217 0.14803711 -0.08578163
-0.20084949 -0.11559098 0.00000365
-0.65923429 -0.58635706 -0.07989281
-0.55666381 -0.77457464 0.00000428
-0.17184965 -0.10202902 0.00000348
-0.43117982 -0.24098261 0.37768400
-0.30554533 0.19448882 -0.05145093
-0.55360478 -0.25435936 -0.10987391
-0.47587717 -0.34888723 0.26451263
-0.06835074 0.12721334 0.00000965
-0.24519677 0.36568296 -0.06138292
-0.22846444 0.37887466 -0.05078906
-0.32885143 -0.59242302 0.00000313
-0.15093800 -0.18293150 0.00000307
-0.60919487 -0.30060461 -0.14412796
-0.59046245 -0.61125058 -0.00554251
-0.08470447 -0.41306022 0.00000185
-0.09351203 -0.74741137 0.00000087
-0.05971419 -0.01447535 0.00000291
-0.68870676 -0.75632232 -0.04141203
-0.21476541 0.03912980 0.00000777
-0.27486604 0.33524162 -0.07742198
-0.32974952 -0.11591996 0.00000463
-0.07374757 0.33284268 0.00000775
-0.14659943 0.32689074 0.00000649
-0.45863351 -0.30726019 0.35168526
-0.25248572 -0.17323712 0.00000386
-0.23027910 -0.02345430 0.00000416
-0.65583217 -0.70727396 -0.02960594
-0.42990732 -0.23789814 0.07055396
-0.69407123 -0.57331640 -0.11772298
-0.49001652 -0.38301942 0.18220164
-0.31146312 0.04804187 0.33121321
-0.60861170 -0.75512266 0.00000473
-0.47039288 -0.59979057 0.00000417
-0.68266386 -0.44577253 -0.15666761
-0.59957319 -0.64751011 0.11835472
-0.36437008 -0.36492923 0.00000411
-0.24753162 -0.30053335 0.00000343
-0.58809531 -0.13678895 -0.18808547
-0.20649223 -0.20649686 0.00000341
-0.27088976 -0.06202473 0.00000435
-0.32728496 -0.62665427 0.00000301
-0.33650124 -0.66756904 0.00000295
-0.28653270 0.40348887 -0.11496884
-0.46096951 -0.31288710 0.02149878
-0.65256351 -0.02261928 -0.29315618
-0.12321183 -0.16743597 0.00000291
-0.26129615 -0.56248033 0.00000271
-0.50508380 -0.27486810 -0.05627004
-0.47165132 -0.33867782 0.08337367
-0.53863287 -0.50038528 0.06638873
-0.01727906 -0.36817580 0.00000148
-0.35580358 -0.05899721 0.11404739
-0.39145404 -0.14506353 0.07070988
-0.48978171 -0.38245374 0.21231158
-0.00457363 0.66038704 0.00000614
-0.10146414 -0.04456490 0.00000313
-0.11643259 -0.34368524 0.00000230
-0.74231201 -0.77716088 -0.08369348
-0.02900209 -0.11602832 0.00000236
-0.41728118 0.23552731 -0.17248359
-0.11030531 -0.28355858 0.00000245
-0.02416315 -0.23694104 0.00000194
-0.37245101 0.14070997 -0.09340995
-0.28835645 0.34778166 -0.09498883
-0.31179833 0.09457992 -0.01842128
-0.30168447 -0.38556281 0.00000357
-0.00892271 0.53317189 0.00000717
-0.48098284 0.00946811 -0.14433743
-0.42428622 -0.22433998 0.37957269
-0.19969010 0.54755211 -0.08942611
-0.43866679 -0.78675669 0.00000335
-0.25033870 -0.78613132 0.00000193
-0.27916494 0.12602952 0.15610573
-0.34733811 -0.34680653 0.00000404
-0.61013079 -0.57446837 -0.03835776
-0.08402294 0.05723784 0.00000998
-0.30111724 0.07302475 0.25611147
-0.66381395 -0.54498631 -0.10030931
-0.64332223 -0.72125500 -0.01240009
-0.02704901 0.01023389 0.00001142
-0.19379704 0.33211899 0.20033015
-0.52843034 -0.68595171 0.00000434
-0.50121701 -0.41005829 0.14289650
-0.01313081 -0.55829591 0.00000085
-0.35696661 -0.47927892 0.00000370
-0.22180408 0.30946395 -0.01749590
-0.56200182 -0.22920454 -0.12756442
-0.57446164 -0.00301119 -0.22736339
-0.23137598 0.24140731 0.07187405
-0.56306654 -0.55937749 0.23681466
-0.34586141 -0.57005692 0.00000333
-0.43728557 -0.68907201 0.00000365
-0.24291234 0.21355382 0.10488202
-0.23689811 0.45706841 -0.08916992
-0.40894806 -0.18730770 0.31352696
-0.02015037 -0.29227388 0.00000174
-0.28375891 -0.59733844 0.00000277
-0.66516513 -0.17735834 -0.24474408
-0.18018143 -0.27260652 0.00000301
-0.47220206 -0.66757709 0.00000398
-0.68699604 -0.43848488 -0.16357847
-0.00281990 0.36383405 0.00000877
-0.28731674 -0.75793976 0.00000230
-0.01712676 -0.10823372 0.00000229
-0.22107419 0.26627690 0.08031185
-0.11509668 -0.08937113 0.00000309
-0.23456903 -0.36384791 0.00000313
-0.22836334 -0.68847668 0.00000207
-0.01388967 0.01428426 0.00001162
-0.23781127 -0.77409124 0.00000188
-0.58348590 -0.53046459 -0.03044378
-0.01950835 -0.55819345 0.00000090
-0.04335314 0.19900689 0.00000947
-0.52047491 -0.29049522 -0.06465444
-0.19107004 0.51872247 -0.07009433
-0.02160696 0.37277254 0.00000835
-0.41060895 -0.19131511 0.25604051
-0.71006703 -0.36097342 -0.21545359
-0.34924215 -0.04314866 0.15102802
-0.13806792 0.46667284 0.02798779
-0.61636436 -0.29004005 -0.15498254
-0.26284695 0.41056016 -0.09545405
-0.11025411 -0.63084775 0.00000136
-0.02941146 0.37255806 0.00000821
-0.62288731 -0.13836937 -0.22017983
-0.30438909 0.06512672 0.24602821
-0.15148149 0.43429035 0.02487873
-0.69505650 -0.65163910 -0.08814827
-0.68398702 -0.24767125 -0.23505773
-0.41415489 -0.16239138 -0.01458444
-0.36969766 0.18303902 -0.10730598
-0.22638790 0.27602571 -0.00878328
-0.20029017 -0.73929119 0.00000170
-0.46446714 0.11695123 -0.17066813
-0.24565253 -0.17454331 0.00000381
-0.53120512 -0.78388107 0.00000406
-0.18486629 0.35368824 0.09110643
-0.02927812 0.75167167 -0.00870228
-0.47097817 -0.24648698 -0.03525793
-0.25495699 0.40073478 -0.08420976
-0.70446724 -0.55995911 -0.13269839
-0.60225075 -0.51095343 -0.05568380
-0.33301443 -0.00396412 0.05260996
-0.27735883 0.26124445 -0.05094818
-0.19246987 0.33532867 0.13086940
-0.23925167 0.22239974 0.00093467
-0.24786149 0.21097948 -0.00364047
-0.12483307 0.49861664 0.11961852
-0.50337481 -0.61079282 0.00000439
-0.69150358 -0.26733896 -0.23446520
-0.71846783 -0.70743519 -0.08842971
-0.04290516 -0.17670056 0.00000227
-0.06803227 -0.39672828 0.00000177
-0.53148335 -0.61179197 0.00000460
-0.27549818 0.13488808 0.07794408
-0.17205665 -0.07340638 0.00000357
-0.59650379 -0.12999418 -0.19863679
-0.31715393 0.12654468 -0.03590482
-0.19945472 -0.73624915 0.00000170
-0.63394380 -0.63251877 -0.03813924
-0.46558776 -0.03295608 -0.11334491
-0.22471116 -0.62047046 0.00000226
-0.45069772 -0.02029563 -0.10427632
-0.66950220 -0.32342073 -0.19194087
-0.15764154 -0.20982632 0.00000303
-0.48845166 -0.37924045 0.15586919
-0.04764566 -0.18782113 0.00000227
-0.44395828 0.08990806 -0.14085460
-0.08709254 0.41119742 0.00000683
-0.38858119 -0.13814020 0.39972678
-0.05003214 0.54385614 0.00000634
-0.38394979 0.03450463 -0.06286016
-0.06744057 0.06920130 0.00001017
-0.70661724 -0.29907188 -0.23631646
-0.57588923 -0.59033340 0.16021703
-0.04914213 0.68135637 0.01360167
-0.53391457 -0.19014601 -0.11636849
-0.23977447 -0.60066116 0.00000243
-0.52066272 0.11273305 -0.22185872
-0.05022645 0.29865003 0.00000848
-0.13630939 0.47091073 0.12027668
-0.69145495 -0.34349832 -0.20476085
-0.15144134 0.43438125 0.09972299
-0.46523514 -0.32319665 0.30402434
-0.41248184 0.27467388 -0.18321665
-0.32850632 0.17189309 -0.06423846
-0.39921653 -0.16381155 0.26116538
-0.30209881 0.25591347 -0.07213183
-0.37253356 0.24371779 -0.13360295
-0.12855200 0.36461639 0.00000648
-0.53375381 -0.25729957 -0.09006598
-0.08699692 -0.19482702 0.00000255
-0.30834973 0.05557790 0.08793596
-0.25201851 0.19155669 0.26765263
-0.38593036 -0.13173781 0.31114444
-0.16013223 0.41339752 0.12899031
-0.01429655 -0.30105758 0.00000167
-0.43916664 -0.26025230 0.07315860
-0.49360541 -0.19034699 -0.07839345
-0.25512022 0.18406796 0.27576834
-0.35887614 0.02472550 -0.03547830
-0.22530717 0.34999594 -0.03657417
-0.68921649 -0.41395104 -0.17522015
-0.21567608 -0.39380792 0.00000290
-0.12729213 -0.28207833 0.00000258
-0.55071819 -0.52955991 0.01658141
-0.27548587 -0.40546992 0.00000331
-0.58686662 -0.61683059 0.02773360
-0.15822221 -0.14171249 0.00000325
-0.48694241 -0.37559327 0.06835693
-0.49608192 -0.31132090 -0.03361117
-0.38106909 -0.12000062 0.28544733
-0.48732370 -0.37652075 0.24200396
-0.31586498 0.28485179 -0.09634411
-0.13848025 0.59417206 -0.05003411
-0.16629396 -0.25610322 0.00000295
-0.25123748 -0.19365056 0.00000379
-0.26265725 -0.17014453 0.00000395
-0.19801560 0.32194024 0.13123003
-0.08505600 0.05835151 0.00000995
-0.07075224 -0.12336537 0.00000265
-0.31766856 -0.12096764 0.00000452
-0.29697618 -0.30552179 0.00000379
-0.65877467 -0.70327872 -0.03392820
-0.47451031 -0.34557924 0.06216001
-0.05475590 -0.77550942 0.00000049
-0.37407807 -0.01471456 -0.03441550
-0.36484829 0.07218031 -0.05957392
-0.09808649 0.56319255 0.05787577
-0.00218851 -0.45476556 0.00000110
-0.18380234 0.35625890 0.06546747
-0.64587080 -0.75927967 0.10897374
-0.44503188 -0.27441400 0.11671108
-0.58217740 -0.60551405 0.17593241
-0.52767700 -0.18903448 -0.11093711
-0.16249193 -0.50975347 0.00000213
-0.04122253 0.02354540 0.00001105
-0.67659801 -0.38628229 -0.17413197
-0.50439501 -0.61433607 0.00000439
-0.20496891 -0.26613933 0.00000321
-0.55578804 0.10473031 -0.25176591
-0.42790332 -0.21497199 -0.00703374
-0.00632682 -0.29033065 0.00000164
-0.01449893 0.56150806 0.00000682
-0.51193458 0.09183112 -0.20551273
-0.22388002 -0.00079240 0.00000419
-0.09863410 0.45116878 0.00000627
-0.39652088 0.05726780 -0.08354401
-0.15285918 0.43096384 0.03147703
-0.27887997 -0.66847777 0.00000251
-0.31252527 0.34349811 -0.11604344
-0.12113233 0.50755322 0.09054091
-0.12742570 0.49235624 0.13571335
-0.60300159 -0.64417326 -0.00451025
-0.58320129 -0.22932099 -0.14744982
-0.36700779 0.11641664 -0.07883161
-0.53743523 -0.43620178 -0.02385761
-0.43248302 -0.24412163 0.19890976
-0.21813671 -0.41154656 0.00000286
-0.16791928 -0.17894495 0.00000321
-0.34019801 -0.02131814 0.19532914
-0.49544752 -0.07244586 -0.12603927
-0.45947561 -0.30928332 0.09180574
-0.18164799 -0.60040075 0.00000199
-0.34384617 -0.03013617 0.32769376
-0.36802939 -0.08851257 0.10348830
-0.62641442 -0.24075727 -0.18362316
-0.26465786 0.42242196 -0.10177607
-0.67546064 -0.55957246 -0.10557867
-0.12836336 -0.79910392 0.00000097
-0.64729047 -0.73335618 -0.01141832
-0.30439678 0.35892582 -0.11440946
-0.53993821 0.12344410 -0.24415232
-0.45735216 0.15502016 -0.17880438
-0.50525290 -0.13191061 -0.11210065
-0.41289768 -0.19417711 -0.00102423
-0.42742380 -0.23191097 0.28396407
-0.28762069 0.10561800 0.12974375
-0.10708108 0.54147571 0.08663826
-0.18868649 -0.16192435 0.00000342
-0.30476126 0.06422944 0.23120239
-0.35164136 0.30251342 -0.13685812
-0.11194163 0.31674248 0.00000720
-0.64143521 -0.74724805 -0.00050358
-0.14077796 0.33315021 0.00000654
-0.03552889 0.71924788 -0.00195194
-0.20990267 0.29325077 0.03277824
-0.43167469 0.00033034 -0.09442080
-0.09183544 0.67617047 -0.03811356
-0.44952181 -0.28526157 0.31325668
-0.58134633 -0.60350752 0.12992828
-0.26701534 0.15536913 0.05332314
-0.37112132 0.06245864 -0.06168564
-0.56264728 -0.50811040 -0.01955764
-0.21751744 -0.21464650 0.00000347
-0.38330585 -0.45570809 0.00000397
-0.22811271 -0.56290537 0.00000246
-0.35110256 -0.60177314 0.00000327
-0.48242491 -0.71828634 0.00000389
-0.55340809 0.06345074 -0.23345242
-0.06695857 -0.01346089 0.00000296
-0.65500635 -0.50299525 -0.10838129
-0.55953950 -0.13025594 -0.16378275
-0.02650444 -0.60813016 0.00000080
-0.63659906 -0.68769616 -0.01914803
-0.59991455 -0.64041775 -0.00307042
-0.71008879 -0.34085062 -0.22331043
-0.56544054 -0.39064428 -0.06792824
-0.48449823 0.09753561 -0.18193951
-0.64024305 -0.08823203 -0.25602177
-0.08474303 0.19888996 0.00000873
-0.54310971 -0.09378894 -0.16253746
-0.11000628 0.65908104 -0.04854197
-0.16376682 -0.25883085 0.00000293
-0.34084916 -0.02288917 0.18327533
-0.31007653 -0.47125298 0.00000337
-0.40240473 -0.48435116 0.00000402
-0.40065843 0.03811559 -0.07997535
-0.43090355 -0.24031575 0.38088843
-0.31292653 -0.28392500 0.00000397
-0.27551153 -0.39341861 0.00000335
-0.29966459 0.07653867 0.17042936
-0.42532870 0.12943411 -0.13873266
-0.69448370 -0.75242603 -0.04836052
-0.30977398 0.22852911 -0.06868323
-0.37275282 0.05352302 -0.05973963
-0.60583723 -0.46533060 -0.07682245
-0.08263807 -0.14424920 0.00000267
-0.22510090 0.36192346 -0.04102529
-0.12732689 0.61767048 -0.04869931
-0.11779933 -0.65371984 0.00000135
-0.53324431 -0.11247648 -0.14598504
-0.69515002 -0.79249144 -0.03338437
-0.17635380 -0.78221059 0.00000139
-0.27890170 0.12666804 0.11924246
-0.51109719 0.06772054 -0.19533587
-0.28498679 0.11197161 0.19246404
-0.52597749 -0.39397219 -0.02953091
-0.66081232 -0.13471378 -0.25725877
-0.63695687 -0.32243502 -0.16172718
-0.39937457 -0.16418947 0.17145063
-0.13163067 -0.27383462 0.00000264
-0.18470693 0.35407251 0.09699487
-0.32834414 0.07499314 -0.02634926
-0.39734048 -0.15928087 0.22469109
-0.09284737 0.57583892 0.07955284
-0.28644136 -0.33173281 0.00000362
-0.47359407 -0.13242202 -0.08213730
-0.23928407 -0.20727792 0.00000366
-0.17869841 -0.08988113 0.00000357
-0.09159092 0.64995027 -0.02767247
-0.22709323 -0.17678671 0.00000366
-0.32560724 -0.42528313 0.00000363
-0.33264035 -0.00306973 0.15971895
-0.16043836 0.41266787 0.01308364
-0.09699517 -0.71465218 0.00000100
-0.24033175 0.21978553 0.08364949
-0.29611784 0.08509739 0.21653162
-0.43162394 -0.24205261 0.32406330
-0.19907865 0.52356952 -0.07951141
-0.03808311 -0.38669351 0.00000158
-0.35168186 -0.52034783 0.00000353
-0.14684834 -0.10932218 0.00000327
-0.60303676 -0.78802729 0.00000459
-0.72404194 -0.64983374 -0.11610173
