ply
format ascii 1.0
element vertex 1147
property float x
property float y
property float z
end_header
-0.33550143 -0.00021970 0.07131400
-0.23990326 -0.62807208 0.00000075
-0.14594509 0.25093868 0.00000823
-0.14414363 0.45621264 0.03082134
-0.30596581 -0.70405215 0.00000042
-0.06444519 -0.09537176 0.00000308
-0.02229660 -0.12516384 0.00000295
-0.35769960 -0.06204129 0.01119935
-0.48919731 -0.34610218 0.25515211
-0.25411397 0.19664308 0.07406735
-0.49849188 -0.36103868 0.30994520
-0.14249028 0.06400582 0.00000945
-0.28569588 -0.21091688 0.00000258
-0.60393232 -0.62790060 0.22003973
-0.38663661 -0.10980104 0.17261192
-0.10124773 0.22613570 0.00000906
-0.24530493 -0.43694103 0.00000159
-0.46652725 -0.29152820 0.25401196
-0.55148321 -0.49517781 0.26460022
-0.04106857 -0.53697592 0.00000115
-0.22224829 -0.27869821 0.00000228
-0.33748141 0.01229749 0.19764853
-0.12925427 0.12330708 0.00000928
-0.29585287 -0.27770302 0.00000229
-0.13270083 0.14168578 0.00000911
-0.67892224 -0.82674414 0.09001227
-0.31654027 0.06609286 0.22130701
-0.05879341 -0.74969858 0.00000022
-0.19833001 0.34393907 0.16625676
-0.47305089 -0.69082195 0.00000048
-0.03293911 0.37642363 0.00000915
-0.43602195 -0.24435173 0.06068597
-0.02723838 0.71885210 0.00000710
-0.54398113 -0.66742450 0.00000058
-0.53991556 -0.48061046 0.16703857
-0.08264442 -0.53595275 0.00000116
-0.37673667 -0.09104668 0.13502607
-0.42530847 -0.18080691 0.33589262
-0.48861441 -0.36164272 0.13137051
-0.45832887 -0.25418341 0.38220593
-0.13760607 0.47391999 0.04487630
-0.27919647 0.12683532 0.00648197
-0.28534743 0.02878334 0.00000751
-0.26787442 0.18322077 0.21866822
-0.32263455 0.04464279 0.17209977
-0.12195708 -0.47790942 0.00000141
-0.13273004 -0.30578333 0.00000216
-0.08247422 0.19296449 0.00000955
-0.34960219 -0.32538235 0.00000208
-0.59649253 -0.61575323 0.17758606
-0.08469291 0.49894369 0.00000760
-0.15691847 0.10571974 0.00000897
-0.06786917 0.63934577 0.02345303
-0.11903010 0.43247038 0.00000750
-0.42634648 -0.19512530 0.24961808
-0.34529683 -0.00473012 0.21109030
-0.33638906 -0.01015744 0.01438269
-0.63782358 -0.73093057 0.06514672
-0.28656346 -0.29006413 0.00000223
-0.48228151 -0.76931375 0.00000013
-0.02303745 -0.77461821 0.00000011
-0.31446508 -0.10093234 0.00000306
-0.05251584 -0.57943028 0.00000096
-0.12869754 0.27048174 0.00000837
-0.34468099 -0.43238142 0.00000161
-0.15858641 -0.56240213 0.00000104
-0.34148061 0.02088095 0.33085608
-0.06466578 0.54609513 0.00000761
-0.44140607 -0.23283806 0.23971480
-0.31549069 0.05091091 0.09191549
-0.37842867 -0.07518330 0.28072214
-0.12726331 -0.61561608 0.00000081
-0.33912361 0.01929565 0.27771756
-0.28216270 0.15447523 0.26065868
-0.57456064 -0.58328772 0.02799757
-0.36530843 -0.79710543 0.00000001
-0.38727602 -0.12786043 0.05198532
-0.40708804 -0.15925378 0.17203568
-0.00571703 0.49819681 0.00000880
-0.00616536 -0.05566692 0.00000326
-0.36144975 -0.04216238 0.22251441
-0.16580024 -0.02418801 0.00000339
-0.17994596 0.38680434 0.15517282
-0.43171221 -0.20565128 0.26735088
-0.47504234 -0.33566007 0.08182862
-0.04614201 -0.33007449 0.00000206
-0.04986182 0.68475181 0.03756873
-0.13167395 0.50012064 0.13163811
-0.38046584 -0.69654894 0.00000045
-0.34907329 -0.61871117 0.00000079
-0.31266847 -0.12726441 0.00000294
-0.46946579 -0.28585583 0.34725532
-0.36438936 -0.60675603 0.00000085
-0.18816724 -0.06415718 0.00000322
-0.01458252 -0.40792218 0.00000172
-0.11714710 -0.72922343 0.00000031
-0.10948849 0.55003238 0.10499204
-0.25645545 0.20962891 0.21019872
-0.41316503 -0.16194749 0.25951505
-0.01656534 0.25324222 0.00001017
-0.42923915 -0.44499820 0.00000155
-0.31456876 -0.03468961 0.00000335
-0.36876789 -0.05713677 0.24218366
-0.02425955 0.62391448 0.00000773
-0.15571925 -0.17795007 0.00000272
-0.20401748 0.15936261 0.00000793
-0.17121296 0.39232966 0.04154204
-0.63524467 -0.77387363 0.00000011
-0.32104591 0.01962702 0.00000703
-0.23859882 -0.73399484 0.00000029
-0.00818677 -0.31285912 0.00000208
-0.47184873 -0.44892424 0.00000154
-0.39343461 -0.13359885 0.11866603
-0.28410232 -0.37595388 0.00000186
-0.20331991 0.16813374 0.00000788
-0.30743986 0.08071400 0.16763115
-0.02264743 -0.10285181 0.00000305
-0.36885878 -0.08101643 0.06937620
-0.40400666 -0.14022531 0.25668162
-0.13319729 0.12342262 0.00000922
-0.05439346 0.48605111 0.00000814
-0.13738304 0.14047013 0.00000905
-0.00968383 0.03240133 0.00001165
-0.52622724 -0.42846715 0.30650744
-0.49179384 -0.37847182 0.06451729
-0.57479215 -0.56723756 0.14930589
-0.11315868 0.45769387 0.00000743
-0.13438159 -0.15553540 0.00000282
-0.08956957 0.35384771 0.00000844
-0.39904740 -0.11234219 0.37288731
-0.51126778 -0.40656039 0.20274304
-0.46456081 -0.74485344 0.00000024
-0.17330331 -0.71431482 0.00000037
-0.10728046 -0.34644186 0.00000198
-0.29442331 0.10974593 0.15015565
-0.46973953 -0.64217198 0.00000069
-0.05577881 -0.66670197 0.00000058
-0.48612010 -0.32609484 0.34701586
-0.59949106 -0.67089313 0.00000056
-0.48084852 -0.33209029 0.21027949
-0.02246371 0.71516174 0.00000719
-0.44901523 -0.22998770 0.39470080
-0.32357374 -0.32679817 0.00000207
-0.26461616 -0.14471771 0.00000287
-0.11759644 0.28225604 0.00000846
-0.20327304 -0.62486959 0.00000077
-0.26030153 -0.64759749 0.00000067
-0.13843855 0.07152909 0.00000946
-0.23888780 -0.36495453 0.00000190
-0.12537773 -0.60231858 0.00000086
-0.23897280 -0.53899294 0.00000114
-0.11736558 0.52649081 0.07194531
-0.50463951 -0.41190088 0.04686331
-0.22730482 0.25353557 0.01687747
-0.31914452 -0.44528353 0.00000155
-0.40364298 -0.26488218 0.00000234
-0.42590100 -0.20450540 0.17325312
-0.30609107 -0.49524325 0.00000133
-0.19791099 0.16217859 0.00000800
-0.45817241 -0.73903841 0.00000027
-0.11273184 0.31318122 0.00000834
-0.65871686 -0.78218114 0.05922445
-0.10011600 0.02774442 0.00001032
-0.22825772 -0.37872088 0.00000184
-0.27148041 0.05504275 0.00000756
-0.16366577 0.35630798 0.00000730
-0.60088849 -0.67101842 0.00000056
-0.33000177 0.01397949 0.07804760
-0.17413194 -0.21635391 0.00000255
-0.01551434 -0.25575396 0.00000238
-0.03905513 0.70968896 0.02915194
-0.37075809 -0.06274559 0.23631093
-0.46942443 -0.28436458 0.35741606
-0.06718364 -0.24064881 0.00000245
-0.64216655 -0.74028713 0.07338414
-0.24653172 -0.63881880 0.00000071
-0.07753176 -0.65319705 0.00000064
-0.19831875 0.02976731 0.00000882
-0.05613121 0.66326851 0.00000701
-0.05949665 0.65855938 0.01615427
-0.07399948 0.63139635 0.07348633
-0.06546823 -0.69108135 0.00000048
-0.12167936 0.33503145 0.00000807
-0.10710040 0.29738122 0.00000853
-0.46349704 -0.28331900 0.26053885
-0.11721258 -0.45575485 0.00000151
-0.11883602 -0.34118152 0.00000201
-0.01370697 0.11887549 0.00001105
-0.57557541 -0.58740610 0.01581126
-0.36474133 -0.05127949 0.21396492
-0.35061610 -0.38123357 0.00000183
-0.00596068 -0.14200743 0.00000284
-0.51986378 -0.43992737 0.11061075
-0.10266462 -0.50185716 0.00000130
-0.08265547 0.00153223 0.00001074
-0.36910310 -0.06631774 0.18103905
-0.11970128 0.52207148 0.08085240
-0.48275104 -0.76245528 0.00000016
-0.46913850 -0.32372025 0.06493314
-0.20389625 -0.22034931 0.00000254
-0.42303342 -0.18943302 0.23277441
-0.21475042 0.28629586 0.03478219
-0.57003385 -0.56027079 0.11628790
-0.06104024 -0.59683603 0.00000089
-0.56811333 -0.57625711 0.00000098
-0.23016801 -0.36588871 0.00000190
-0.48829597 -0.38298389 0.00000182
-0.54820657 -0.62855035 0.00000075
-0.48458695 -0.35173526 0.13271697
-0.29627159 0.11274560 0.20465459
-0.01292985 0.74898607 0.00000712
-0.55363578 -0.52180970 0.10805540
-0.35232890 -0.48056483 0.00000140
-0.08487435 -0.48259270 0.00000139
-0.05603009 0.18657191 0.00000999
-0.13160792 -0.47710162 0.00000141
-0.23953135 0.22734118 0.04114739
-0.21599822 -0.48090222 0.00000140
-0.02095490 0.17929819 0.00001056
-0.44150794 -0.25628594 0.07025460
-0.00150534 -0.53228432 0.00000116
-0.17540754 0.32072553 0.00000735
-0.05274770 0.01174379 0.00001113
-0.11188252 -0.25735909 0.00000237
-0.43986708 -0.21800730 0.32089850
-0.24224240 0.23231672 0.12529032
-0.12784401 0.28783882 0.00000827
-0.38766417 -0.13478310 0.00826853
-0.04737735 0.24529821 0.00000975
-0.15980709 0.43078858 0.12131967
-0.24175732 -0.58228737 0.00000095
-0.13011497 -0.33002084 0.00000206
-0.40040541 -0.13795196 0.20978598
-0.22023319 -0.53219819 0.00000117
-0.18066594 0.38168055 0.13044530
-0.06308981 0.41723868 0.00000844
-0.00283416 -0.45148841 0.00000151
-0.09489043 0.20838736 0.00000927
-0.37367773 -0.05056278 0.37677199
-0.31478226 -0.40087181 0.00000175
-0.42404810 -0.21663529 0.05198833
-0.09135311 -0.31105736 0.00000214
-0.14008531 0.21198267 0.00000856
-0.29065144 -0.52757138 0.00000119
-0.36365733 -0.09974656 0.00000306
-0.07286876 -0.05964615 0.00000324
-0.09646797 -0.61114371 0.00000083
-0.62941492 -0.70229310 0.12603152
-0.13076992 0.49521011 0.07983394
-0.22374120 -0.26465428 0.00000234
-0.43286821 -0.70583034 0.00000041
-0.20439370 0.30720690 0.00489407
-0.00089555 -0.74256146 0.00000025
-0.03720923 0.19587697 0.00001021
-0.34803551 -0.02667739 0.09908343
-0.00460222 0.75068486 0.00000724
-0.28174162 -0.00937053 0.00000346
-0.45081928 -0.23982327 0.35467684
-0.31979448 -0.74416876 0.00000024
-0.29675928 -0.10268880 0.00000305
-0.08764699 0.18727791 0.00000951
-0.22199340 -0.47917446 0.00000140
-0.46558937 -0.78192246 0.00000008
-0.40339649 -0.15351996 0.14882247
-0.36682981 -0.16035955 0.00000280
-0.37063521 -0.09087423 0.02870071
-0.13938046 -0.06301381 0.00000322
-0.01044520 -0.70540512 0.00000041
-0.53236687 -0.45397630 0.22846442
-0.54467589 -0.48875150 0.19151619
-0.07135891 -0.27309895 0.00000231
-0.01031241 -0.23237026 0.00000248
-0.64297646 -0.72788727 0.17821249
-0.31431365 -0.42275843 0.00000165
-0.02748973 0.65009248 0.00000752
-0.17014445 -0.09089660 0.00000310
-0.55517256 -0.53750348 0.02052986
-0.17551947 0.39496493 0.13672464
-0.35386768 -0.50792092 0.00000128
-0.19612382 -0.16900820 0.00000276
-0.34216347 -0.21110396 0.00000258
-0.62728459 -0.69293487 0.15681303
-0.44527629 -0.44405293 0.00000156
-0.28169170 0.14272222 0.16651343
-0.04731200 -0.19645843 0.00000264
-0.43923101 -0.21988139 0.29599503
-0.22743948 0.26421791 0.09727293
-0.27029324 0.09145727 0.00000735
-0.02385781 0.05244359 0.00001131
-0.01190792 0.28565267 0.00001003
-0.34719002 -0.01830878 0.14529765
-0.36836827 -0.18529038 0.00000269
-0.25253028 0.21153358 0.15489857
-0.13935269 0.46557611 0.01473253
-0.05822951 0.42581561 0.00000846
-0.47786662 -0.33342934 0.14792097
-0.24706829 -0.58092666 0.00000096
-0.18801998 0.35562855 0.06984006
-0.23875993 0.24295709 0.14159943
-0.42264682 -0.21184871 0.06223977
-0.26735404 0.15535793 0.00599007
-0.37021634 -0.06345149 0.22160271
-0.41327968 -0.18862626 0.06668233
-0.28441161 -0.25559703 0.00000238
-0.43050760 -0.49961618 0.00000131
-0.08157042 -0.44629160 0.00000155
-0.47617605 -0.33075169 0.13766858
-0.08164567 -0.17777550 0.00000272
-0.11037791 -0.44644484 0.00000155
-0.35691953 -0.25096476 0.00000240
-0.45316729 -0.31062856 0.00000214
-0.31754029 -0.46824673 0.00000145
-0.48054272 -0.35739186 0.02009217
-0.57848567 -0.57720065 0.14166483
-0.51934719 -0.42658690 0.19893648
-0.00624548 -0.59923309 0.00000084
-0.48861885 -0.71421725 0.00000038
-0.01325014 -0.69233268 0.00000047
-0.15034503 0.44801921 0.08032606
-0.19797362 0.34620106 0.17649356
-0.23418121 0.02395166 0.00000832
-0.32451960 0.04523744 0.20968126
-0.14742334 -0.03606790 0.00000334
-0.46074370 -0.27630895 0.26318946
-0.23886658 0.25518900 0.23281862
-0.66995835 -0.79917604 0.13330109
-0.31846693 0.05532045 0.17660043
-0.25542435 -0.23875402 0.00000246
-0.36045223 -0.16704842 0.00000277
-0.17914478 -0.47104535 0.00000144
-0.24128900 0.22124527 0.02761669
-0.53325111 -0.48044330 0.05074753
-0.07488910 -0.11764937 0.00000299
-0.13936733 0.39216110 0.00000745
-0.38819638 -0.29398310 0.00000221
-0.43948779 -0.24379759 0.12584554
-0.18610236 -0.03389042 0.00000335
-0.32321000 0.04479536 0.18336102
-0.38949677 -0.09607845 0.32327008
-0.41157934 -0.17580867 0.13031708
-0.49640694 -0.63073593 0.00000074
-0.12955800 0.49836653 0.08151811
-0.39427149 -0.14124483 0.07757840
-0.48535144 -0.35878447 0.09471130
-0.42522138 -0.18602106 0.29627413
-0.14173065 0.46251929 0.03433619
-0.12625366 0.50569928 0.07681009
-0.49296081 -0.79310340 0.00000003
-0.35393029 -0.53499275 0.00000116
-0.35560343 -0.72906661 0.00000031
-0.34584317 -0.76622987 0.00000015
-0.07812484 0.45894080 0.00000795
-0.53917629 -0.49398646 0.05630908
-0.32268685 0.06599335 0.32895955
-0.41911337 -0.20929702 0.01857259
-0.20090184 -0.38077173 0.00000183
-0.09788404 -0.19126385 0.00000266
-0.44185364 -0.47011533 0.00000144
-0.36121571 -0.27310431 0.00000231
-0.01009485 0.35221502 0.00000965
-0.05669462 0.03616234 0.00001092
-0.04079798 -0.04565203 0.00000330
-0.27356115 0.15104701 0.08395222
-0.41581810 -0.16191666 0.30652136
-0.26949987 0.17205441 0.16577297
-0.38004974 -0.10903396 0.06207021
-0.04994979 -0.58621454 0.00000094
-0.45695466 -0.28636184 0.12295559
-0.26764065 -0.72277665 0.00000034
-0.62869895 -0.69206411 0.18810657
-0.04815760 0.37200648 0.00000895
-0.06643052 0.36079863 0.00000874
-0.22141369 0.27664927 0.08181736
-0.26403922 0.13814738 0.00000715
-0.24835651 0.20239520 0.01455973
-0.37435636 -0.62664449 0.00000076
-0.07437963 -0.68595713 0.00000050
-0.47875416 -0.35172948 0.02991145
-0.23927025 0.24283338 0.14969414
-0.23065346 0.26751423 0.17801949
-0.60014766 -0.63211906 0.12251315
-0.46115738 -0.29056638 0.16635160
-0.39987233 -0.12623276 0.28598011
-0.19513601 0.35447285 0.18687369
-0.44905150 -0.77523786 0.00000011
-0.19429035 -0.52038974 0.00000122
-0.59934503 -0.74734443 0.00000023
-0.19145039 0.33543950 0.00000701
-0.37240934 -0.09516544 0.02864152
-0.02266082 0.55699480 0.00000818
-0.24240433 0.22402120 0.06755722
-0.24496143 -0.46079296 0.00000148
-0.15360239 -0.59547299 0.00000089
-0.26456013 -0.04465156 0.00000330
-0.41399392 -0.51302201 0.00000126
-0.52014375 -0.42562962 0.21997377
-0.49790195 -0.36631086 0.26103929
-0.19073009 0.21634419 0.00000777
-0.41429240 -0.54640281 0.00000111
-0.56629759 -0.54236126 0.18121289
-0.23025221 -0.45318913 0.00000152
-0.00075653 -0.76737827 0.00000014
-0.34487316 0.01035604 0.31380489
-0.05973279 0.11305855 0.00001039
-0.31634429 -0.25566104 0.00000238
-0.41254991 -0.16356879 0.23682737
-0.02226900 -0.00623389 0.00000347
-0.36672047 -0.03859270 0.34152299
-0.32384032 -0.18570589 0.00000269
-0.36904052 -0.07643907 0.10601246
-0.57291317 -0.78321415 0.00000007
-0.28009784 0.13649170 0.09290329
-0.14449716 -0.05310760 0.00000327
-0.47620323 -0.36573362 0.00000190
-0.01982063 -0.19685628 0.00000264
-0.45565835 -0.29528734 0.03490848
-0.38383567 -0.73490149 0.00000028
-0.06042771 -0.78737360 0.00000006
-0.20811418 -0.58608383 0.00000094
-0.46672633 -0.30565792 0.15432283
-0.39435226 -0.46631569 0.00000146
-0.30043885 0.09364189 0.13860634
-0.07866379 -0.12789397 0.00000294
-0.22690864 -0.14421938 0.00000287
-0.31840611 -0.73994201 0.00000026
-0.26852238 0.18132427 0.21624172
-0.05648644 0.67041165 0.04964175
-0.67734790 -0.81775969 0.12786737
-0.15103030 0.04994318 0.00000941
-0.19438379 -0.76507503 0.00000015
-0.39075595 -0.79122126 0.00000004
-0.14800598 -0.40031919 0.00000175
-0.42676723 -0.44139642 0.00000157
-0.08406659 -0.43495154 0.00000160
-0.18215252 -0.15071081 0.00000284
-0.04164639 -0.58521688 0.00000094
-0.10307400 0.36146104 0.00000819
-0.22290868 -0.15531656 0.00000282
-0.30495602 -0.70934767 0.00000040
-0.10086295 -0.05546646 0.00000326
-0.28402770 0.14768870 0.24397700
-0.37570226 -0.08704602 0.14600633
-0.49053553 -0.38342479 0.00615493
-0.22716562 -0.64187688 0.00000069
-0.55487901 -0.53646523 0.02293659
-0.48097056 -0.35533178 0.04268235
-0.34723669 -0.22183619 0.00000253
-0.33282509 0.03563786 0.28601664
-0.00343233 0.21784291 0.00001059
-0.35067770 -0.00186745 0.32687750
-0.41318151 -0.16922569 0.20664781
-0.05037182 0.16081522 0.00001023
-0.46737570 -0.30499431 0.17061982
-0.19418359 0.35030243 0.13962044
-0.61954612 -0.67417890 0.15735476
-0.19203359 0.35385391 0.12764931
-0.29806075 -0.33713552 0.00000203
-0.00615334 -0.44918215 0.00000153
-0.33855534 0.00039671 0.12966490
-0.04625265 -0.14700782 0.00000286
-0.34419104 -0.07782698 0.00000316
-0.34063265 -0.47205022 0.00000143
-0.25130463 -0.67762822 0.00000054
-0.37725964 -0.07580140 0.25559491
-0.57710183 -0.57756937 0.11457138
-0.27948177 -0.63871312 0.00000071
-0.26531917 0.12657070 0.00000721
-0.51474750 -0.41555214 0.19842719
-0.24949856 -0.59750539 0.00000089
-0.49668339 -0.36359727 0.25937247
-0.43189952 -0.22982699 0.09408140
-0.00374397 -0.22567376 0.00000251
-0.15763047 0.14284551 0.00000873
-0.00501359 -0.35332474 0.00000192
-0.03061585 -0.06713896 0.00000321
-0.48349372 -0.32871363 0.28158379
-0.31584343 -0.54750985 0.00000110
-0.09944807 0.56987441 0.07287364
-0.22229785 0.27532467 0.08773295
-0.20372012 -0.40318349 0.00000174
-0.14026245 0.19994400 0.00000863
-0.48251426 -0.36055836 0.03172821
-0.55931884 -0.52470851 0.18709014
-0.59762740 -0.61885220 0.17496327
-0.57401168 -0.64226925 0.00000069
-0.62065816 -0.68358469 0.10827301
-0.34864435 -0.06111204 0.00000323
-0.05773649 -0.25627643 0.00000238
-0.25507587 -0.37870836 0.00000184
-0.14988750 -0.26990089 0.00000232
-0.03992669 0.56925619 0.00000784
-0.41053694 -0.14655636 0.32558748
-0.28410402 -0.59785181 0.00000088
-0.40095115 -0.14367324 0.17762198
-0.13352907 -0.75249594 0.00000021
-0.13594083 -0.50036407 0.00000131
-0.29205787 -0.54454762 0.00000112
-0.59526914 -0.63260227 0.03296370
-0.37878031 -0.06702218 0.34652942
-0.40321791 -0.12468284 0.35629153
-0.60577178 -0.63785315 0.17978919
-0.36111858 -0.05488117 0.12378022
-0.38547537 -0.12657543 0.02962056
-0.34934822 -0.03743891 0.04363115
-0.36903521 -0.07951476 0.08345507
-0.37575707 -0.09479342 0.09038825
-0.06958610 0.00975456 0.00001089
-0.21684887 -0.46863124 0.00000145
-0.27720761 -0.07265946 0.00000318
-0.22677508 0.10922166 0.00000790
-0.53228742 -0.46198979 0.16853422
-0.01065013 -0.27506706 0.00000230
-0.13052645 -0.51107818 0.00000126
-0.55804133 -0.52355242 0.17300823
-0.14283106 -0.64632875 0.00000067
-0.16318703 -0.09986812 0.00000306
-0.35731092 -0.46107647 0.00000148
-0.27338499 -0.07456774 0.00000317
-0.48266357 -0.32163653 0.31863523
-0.45839995 -0.28913873 0.12815797
-0.26516786 -0.14955984 0.00000285
-0.21776842 -0.13336001 0.00000292
-0.41681665 -0.44653663 0.00000155
-0.61264282 -0.66107839 0.13132025
-0.36148384 -0.66866612 0.00000057
-0.60230720 -0.63584495 0.13337648
-0.25932479 0.20154040 0.20171683
-0.02294271 0.74522012 0.00455698
-0.47073248 -0.59685755 0.00000089
-0.46772939 -0.29871941 0.22268628
-0.14771938 0.44805560 0.03429493
-0.31096458 0.06058437 0.08276028
-0.39892894 -0.72406560 0.00000033
-0.41189539 -0.21541415 0.00000256
-0.05811306 0.17212577 0.00001005
-0.19553602 0.35245457 0.17918581
-0.04496408 0.24471179 0.00000979
-0.35838637 -0.05793624 0.05329102
-0.08996158 0.38835400 0.00000822
-0.27784818 -0.63463801 0.00000072
-0.33321998 -0.00331378 0.00848761
-0.07624426 0.45774499 0.00000799
-0.18602817 0.35367101 0.02042172
-0.35635635 -0.41127649 0.00000170
-0.10908579 -0.30770102 0.00000215
-0.15148449 -0.39156067 0.00000179
-0.14876506 0.40929484 0.00000720
-0.13954909 0.31525791 0.00000792
-0.47507530 -0.31552532 0.22946836
-0.24135177 -0.66043401 0.00000061
-0.16528057 0.30682686 0.00000759
-0.52661657 -0.44264925 0.20980030
-0.38914311 -0.10842171 0.22688243
-0.14640260 -0.55795127 0.00000106
-0.34481969 0.01564108 0.35146233
-0.11321737 0.52957535 0.02132987
-0.42418733 -0.38323873 0.00000182
-0.31075245 -0.24643466 0.00000242
-0.27601951 0.14018604 0.04797416
-0.02159080 -0.22807007 0.00000250
-0.44340640 -0.22987536 0.29662484
-0.15133886 0.45572084 0.15410063
-0.45558515 -0.78704798 0.00000006
-0.21054827 -0.30270407 0.00000218
-0.19679433 0.33454871 0.07059390
-0.19189449 0.36033115 0.17250450
-0.53777277 -0.46568891 0.23823592
-0.27437091 -0.40775791 0.00000172
-0.40177962 -0.16883609 0.00844784
-0.33599249 -0.67360115 0.00000055
-0.28801343 0.14489494 0.29385039
-0.12028042 -0.02109497 0.00000341
-0.49648866 -0.37848264 0.14722016
-0.32009679 -0.33793056 0.00000202
-0.25274917 0.21675351 0.19688319
-0.34191233 -0.65938789 0.00000062
-0.37245435 -0.06144833 0.27569541
-0.22434035 -0.49033728 0.00000135
-0.00038775 -0.78887308 0.00000005
-0.38998422 -0.10954157 0.23353416
-0.28672108 -0.14766303 0.00000285
-0.14471819 0.44034573 0.00000706
-0.00758110 -0.49965131 0.00000131
-0.21139272 0.30843136 0.13724846
-0.60419041 -0.74071866 0.00000026
-0.32529038 0.05051911 0.26184830
-0.09953482 0.13470091 0.00000966
-0.28214207 0.13886242 0.14626345
-0.52046567 -0.42209959 0.25143242
-0.46916085 -0.29500958 0.27502212
-0.37221253 -0.49919724 0.00000132
-0.02834997 0.24903454 0.00001002
-0.45620638 -0.54594022 0.00000111
-0.28816372 -0.22514541 0.00000251
-0.23793109 -0.31650814 0.00000212
-0.05780671 0.47979519 0.00000813
-0.24390964 0.11334353 0.00000761
-0.60635018 -0.63697845 0.19637427
-0.16598602 -0.75825053 0.00000018
-0.07485206 -0.46915615 0.00000145
-0.43868744 -0.23711599 0.16053361
-0.49374577 -0.37454280 0.12763099
-0.36697295 -0.52239603 0.00000121
-0.17577410 0.12896027 0.00000854
-0.20837842 -0.63110119 0.00000074
-0.41552654 -0.72265697 0.00000034
-0.39442390 -0.16621569 0.00000277
-0.27405927 -0.69941384 0.00000044
-0.50262499 -0.38059679 0.23997858
-0.32721359 -0.58721536 0.00000093
-0.21999639 0.12772782 0.00000788
-0.03540663 0.61045325 0.00000765
-0.46992961 -0.31712127 0.12707968
-0.20040636 0.31985402 0.02695766
-0.20364235 0.11866184 0.00000819
-0.31877986 0.04610970 0.11484536
-0.06123795 -0.45633048 0.00000150
-0.43635991 -0.20497480 0.35424349
-0.28179663 0.15174115 0.23423502
-0.15439650 -0.14364380 0.00000287
-0.08246183 -0.13406318 0.00000291
-0.01258011 -0.61597598 0.00000081
-0.02337819 -0.51581740 0.00000124
-0.30130687 0.10142136 0.21073104
-0.23287237 0.23986822 0.01522570
-0.09195514 0.51175487 0.00000741
-0.32752344 -0.50971651 0.00000127
-0.14195910 -0.19771163 0.00000264
-0.57255936 -0.55266511 0.21635921
-0.27514943 0.17145266 0.26099500
-0.16646211 0.27285922 0.00000778
-0.39942607 -0.39010254 0.00000179
-0.25600147 0.20649305 0.17929055
-0.19047397 0.34447870 0.03167519
-0.18320720 0.10932709 0.00000855
-0.44452953 -0.25180236 0.15628020
-0.20153005 -0.60137457 0.00000087
-0.05173179 -0.46526903 0.00000146
-0.38529196 -0.09006495 0.29304898
-0.07829978 0.61169356 0.00540839
-0.00258405 0.12413150 0.00001119
-0.33442977 -0.76807868 0.00000014
-0.51855439 -0.42494854 0.19692409
-0.07550484 -0.37670556 0.00000185
-0.00216693 0.67181063 0.00000777
-0.54667801 -0.50690347 0.09424173
-0.43761730 -0.23902340 0.12773265
-0.35297725 -0.56651789 0.00000102
-0.00274319 0.17843147 0.00001084
-0.08929541 -0.41630957 0.00000168
-0.17673069 0.38009569 0.04948110
-0.25229856 0.22561711 0.25367537
-0.00672484 0.19368578 0.00001069
-0.57955521 -0.76107627 0.00000017
-0.59155017 -0.61276662 0.11226297
-0.16988905 0.39837423 0.06234614
-0.55890715 -0.69713312 0.00000045
-0.13613577 0.44043306 0.00000719
-0.29161701 -0.21270865 0.00000257
-0.09421498 -0.27326310 0.00000230
-0.53292632 -0.47434616 0.08955238
-0.35919952 -0.03440156 0.23951948
-0.44134700 -0.24164703 0.17433535
-0.24035060 -0.59354931 0.00000090
-0.45089066 -0.72639954 0.00000032
-0.34925559 0.00031508 0.31774223
-0.20944847 0.31059757 0.11878764
-0.34172958 -0.60112935 0.00000087
-0.22187072 0.26942509 0.03711251
-0.01213098 -0.20625179 0.00000260
-0.27855617 -0.33392993 0.00000204
-0.16108364 -0.67801893 0.00000053
-0.43792519 -0.23430818 0.16760020
-0.02236857 -0.30346641 0.00000217
-0.39242813 -0.11976042 0.20199126
-0.18537214 0.35932136 0.05012301
-0.43033099 -0.19181482 0.34405419
-0.29236636 0.09885991 0.03437782
-0.03715937 0.08127262 0.00001093
-0.04653813 -0.01299130 0.00000344
-0.28296524 -0.06198995 0.00000323
-0.51897311 -0.67502558 0.00000055
-0.10506016 -0.36136958 0.00000192
-0.35093126 -0.04008264 0.05223537
-0.15477443 -0.51417875 0.00000125
-0.00707649 -0.04293023 0.00000327
-0.57403666 -0.55115753 0.25341323
-0.31801572 -0.49742842 0.00000132
-0.37944278 -0.06834840 0.34852383
-0.33232069 0.04338714 0.33372122
-0.34977773 -0.06230768 0.00000323
-0.31335256 -0.34177497 0.00000200
-0.00576337 0.23453635 0.00001045
-0.36114430 -0.07114907 0.00541784
-0.54223418 -0.62841612 0.00000075
-0.50510097 -0.78892076 0.00000005
-0.48489776 -0.34965062 0.15342300
-0.06873127 -0.57091552 0.00000100
-0.27287823 -0.10332333 0.00000305
-0.32425767 0.03142687 0.10419448
-0.52511269 -0.43868813 0.21221431
-0.15392601 -0.45434928 0.00000151
-0.52548450 -0.71824604 0.00000036
-0.23064364 -0.15310021 0.00000283
-0.04705780 -0.34885481 0.00000197
-0.48666748 -0.74271786 0.00000025
-0.35761446 -0.38596582 0.00000181
-0.50159776 -0.40332031 0.05590020
-0.47229803 -0.45083636 0.00000153
-0.59192985 -0.68729478 0.00000049
-0.31777248 -0.51000816 0.00000127
-0.20212688 -0.25705299 0.00000238
-0.40299219 -0.14726041 0.18741164
-0.38851959 -0.09961944 0.28017744
-0.47206017 -0.47894624 0.00000140
-0.37816346 -0.14463751 0.00000287
-0.17089602 0.40257749 0.11080099
-0.06877996 0.62211180 0.00000707
-0.00616141 -0.61862284 0.00000079
-0.41095614 -0.33012262 0.00000206
-0.22751018 -0.73662966 0.00000028
-0.17503324 0.38663974 0.06734654
-0.47293451 -0.29646924 0.33090094
-0.20614909 -0.27317429 0.00000230
-0.12043380 -0.79247636 0.00000003
-0.25393555 0.19755910 0.07761198
-0.05341311 0.22880296 0.00000976
-0.50963193 -0.42357516 0.04962793
-0.52844185 -0.44233897 0.24424998
-0.36891237 -0.05065742 0.29205465
-0.36206520 -0.03733059 0.26865628
-0.11341822 0.00746319 0.00001024
-0.56080252 -0.55065852 0.02372060
-0.44387102 -0.29341713 0.00000222
-0.25852287 -0.77013707 0.00000013
-0.26896253 0.17667171 0.19002198
-0.48961753 -0.35066089 0.22926623
-0.26942325 0.18036750 0.22513834
-0.12897632 0.42448956 0.00000740
-0.37784192 -0.59973431 0.00000088
-0.44023585 -0.70425421 0.00000042
-0.13983198 0.46892524 0.04764458
-0.52874643 -0.51278090 0.00000126
-0.67139244 -0.80344844 0.12738405
-0.08738174 0.10057650 0.00001005
-0.20242396 -0.06276122 0.00000323
-0.51774973 -0.44435966 0.04096241
-0.10144548 -0.67504287 0.00000055
-0.30105746 0.09808884 0.18199357
-0.41506964 -0.18133719 0.15148158
-0.54489666 -0.50897986 0.04766700
-0.25992277 0.08392388 0.00000755
-0.25746888 0.16612595 0.00000708
-0.33296439 -0.60249281 0.00000086
-0.44806096 -0.48619208 0.00000137
-0.38036388 -0.08825442 0.21937720
-0.59087974 -0.61009520 0.11995276
-0.29744503 -0.37723920 0.00000185
-0.43853155 -0.24079508 0.13091356
-0.23368239 0.14948441 0.00000754
-0.58448154 -0.59952033 0.08437121
-0.32473299 -0.58142906 0.00000096
-0.25304875 0.20806557 0.13871142
-0.32255855 0.05073652 0.21526660
-0.04222168 -0.38686004 0.00000181
-0.18454497 0.28652903 0.00000742
-0.30033606 0.08094804 0.04408128
-0.53725797 -0.48591027 0.08147009
-0.48355302 -0.33703396 0.22185990
-0.08489396 -0.53534389 0.00000116
-0.57158619 -0.57610929 0.02797949
-0.38060206 -0.09815198 0.15128832
-0.07414243 0.58557844 0.00000722
-0.55660987 -0.52047372 0.17025331
-0.09015404 -0.54781508 0.00000110
-0.03906331 -0.72484523 0.00000033
-0.21391720 -0.43766898 0.00000159
-0.52038705 -0.44702536 0.06799609
-0.01136581 -0.05443732 0.00000326
-0.16609386 -0.74304587 0.00000025
-0.20852140 0.18878905 0.00000767
-0.52261949 -0.70654106 0.00000041
-0.39171264 -0.45661503 0.00000150
-0.19010428 0.19268373 0.00000793
-0.06713441 0.47472557 0.00000802
-0.07725035 0.18177579 0.00000970
-0.64301205 -0.73976147 0.09212849
-0.20113753 0.32140830 0.05120223
-0.35512078 -0.72788823 0.00000032
-0.44129071 -0.23379804 0.23066965
-0.54909092 -0.51073849 0.10877890
-0.54261309 -0.61807561 0.00000080
-0.41869926 -0.16933711 0.30312654
-0.00924125 -0.57297802 0.00000099
-0.14007787 -0.33366951 0.00000204
-0.46023622 -0.50778979 0.00000128
-0.45292383 -0.25814566 0.25796378
-0.06052368 -0.46391407 0.00000147
-0.17760800 0.39594233 0.18068969
-0.21072264 0.02181531 0.00000868
-0.22330497 -0.20863831 0.00000259
-0.48106480 -0.77131814 0.00000013
-0.19838904 0.32200193 0.00707471
-0.05764472 -0.70550388 0.00000041
-0.16469382 0.00062088 0.00000951
-0.37635353 -0.40943369 0.00000171
-0.24442866 -0.57220697 0.00000100
-0.16694188 0.08337300 0.00000896
-0.43547302 -0.20768787 0.31878957
-0.00150833 -0.20709197 0.00000259
-0.67832524 -0.82558852 0.08792723
-0.03200827 0.14469600 0.00001061
-0.02645452 -0.10939232 0.00000302
-0.34571382 -0.15851595 0.00000281
-0.06357400 -0.69233149 0.00000047
-0.20075728 -0.40252179 0.00000174
-0.56604934 -0.55742592 0.06680841
-0.41430393 -0.55451775 0.00000107
-0.02284950 0.40427640 0.00000913
-0.55295724 -0.51723999 0.12946679
-0.47276583 -0.29574332 0.33322844
-0.33258334 -0.38679540 0.00000181
-0.29538405 -0.32215068 0.00000209
-0.43018183 -0.37432012 0.00000186
-0.37152830 -0.05897614 0.27742279
-0.17175943 0.28745705 0.00000761
-0.11260086 0.52986622 0.01258346
-0.24506062 -0.49807376 0.00000132
-0.40611771 -0.14735131 0.24185880
-0.07665488 -0.13653366 0.00000290
-0.32467577 0.05029226 0.24935417
-0.25004262 0.21327610 0.12376183
-0.56198823 -0.54103422 0.11492118
-0.31631055 0.05950524 0.16914228
-0.45040756 -0.26610693 0.15544851
-0.00642634 -0.63099784 0.00000074
-0.01389124 -0.59476721 0.00000090
-0.44374391 -0.24245363 0.21070763
-0.42631504 -0.20325929 0.18965527
-0.59830195 -0.63698995 0.05439422
-0.44404665 -0.23026735 0.30505106
-0.55977261 -0.53040057 0.15351850
-0.23648638 -0.22832415 0.00000250
-0.20565936 0.30732134 0.02804681
-0.57848269 -0.58676088 0.07178738
-0.14861017 -0.43101540 0.00000161
-0.49916360 -0.38668948 0.13444598
-0.14798900 0.44415951 0.01059308
-0.68305480 -0.83510244 0.10183129
-0.43075606 -0.20283246 0.27107978
-0.02017240 0.68693620 0.00000740
-0.38792610 -0.12192161 0.10682349
-0.36139950 -0.20032617 0.00000262
-0.46482363 -0.34181184 0.00000200
-0.02261297 -0.53286779 0.00000117
-0.52319014 -0.76195014 0.00000017
-0.17043076 -0.73621202 0.00000028
-0.00713243 -0.47720397 0.00000141
-0.51250160 -0.39286470 0.32451960
-0.00604950 -0.36640003 0.00000186
-0.18958282 -0.13499217 0.00000291
-0.05115708 0.27214697 0.00000953
-0.31086370 0.06050628 0.08041082
-0.15678851 0.43426120 0.09345713
-0.12322598 -0.03162534 0.00000336
-0.47797659 -0.31779256 0.26406679
-0.42530370 -0.22019900 0.04809945
-0.16381522 -0.37276402 0.00000187
-0.30944389 0.09161874 0.28261292
-0.09522699 -0.62353438 0.00000077
-0.44439000 -0.22949934 0.31671453
-0.36295646 -0.68718261 0.00000049
-0.30551839 0.10419169 0.30522510
-0.15793923 -0.35501760 0.00000195
-0.43476561 -0.23740862 0.08924383
-0.30898950 -0.44975683 0.00000153
-0.19509794 -0.26837036 0.00000233
-0.41890594 -0.16192292 0.36092231
-0.19064534 0.34706622 0.05359512
-0.48127672 -0.31479245 0.34416530
-0.29617411 -0.63305020 0.00000073
-0.40968606 -0.18134992 0.05646172
-0.59453368 -0.61475253 0.15036038
-0.00000670 -0.34432146 0.00000199
-0.25031728 0.20890515 0.09668060
-0.36905301 -0.05536329 0.26016417
-0.20218399 -0.32563546 0.00000208
-0.28463036 0.13540956 0.16492029
-0.37696069 -0.72995651 0.00000031
-0.08688266 0.30787331 0.00000876
-0.01453363 -0.59127331 0.00000091
-0.00451905 0.34371236 0.00000978
-0.46139061 -0.30066791 0.09668541
-0.42557710 -0.76315135 0.00000016
-0.22315989 -0.07928676 0.00000315
-0.47333854 -0.45485267 0.00000151
-0.15300865 0.12271074 0.00000892
-0.44568461 -0.27176836 0.03082082
-0.30791876 0.09384724 0.27199665
-0.43667090 -0.32962021 0.00000206
-0.55240035 -0.51479578 0.13749935
-0.05226445 0.46630281 0.00000830
-0.34329653 -0.28883272 0.00000224
-0.49054059 -0.38375041 0.00386587
-0.39267480 -0.75110745 0.00000021
-0.65964615 -0.78939587 0.02292225
-0.26553911 -0.79909068 0.00000000
-0.08157588 0.10615153 0.00001011
-0.48941988 -0.63185036 0.00000074
-0.50887018 -0.76960987 0.00000013
-0.28946856 0.12296796 0.15936062
-0.28352478 -0.55934197 0.00000105
-0.12616228 0.24098147 0.00000859
-0.23197016 -0.21296991 0.00000257
-0.38590163 -0.09942312 0.23544960
-0.41524452 -0.19827648 0.03084565
-0.40373990 -0.33115181 0.00000205
-0.06267535 0.64757073 0.00000701
-0.40243497 -0.15258887 0.13866876
-0.37970713 -0.08924015 0.20059787
-0.14695711 0.31974363 0.00000778
-0.64072078 -0.72666979 0.14733668
-0.20134497 0.32801467 0.10311083
-0.64544642 -0.74313921 0.11037915
-0.04393440 0.69590014 0.01447688
-0.28102544 0.13353837 0.08768897
-0.44267800 -0.23534790 0.24381123
-0.34787759 -0.03355612 0.04605897
-0.13909933 -0.00384472 0.00000348
-0.11945067 0.52636212 0.10777127
-0.47212771 -0.29994717 0.29127297
-0.48457226 -0.64471126 0.00000068
-0.60288215 -0.62705475 0.20770274
-0.09733261 -0.38266686 0.00000183
-0.32889861 -0.69102204 0.00000048
-0.00418587 -0.79642987 -0.00000001
-0.33536798 -0.31083235 0.00000214
-0.20577700 -0.03167754 0.00000336
-0.57288837 -0.60366213 0.00000086
-0.34483537 -0.40062010 0.00000175
-0.02245758 -0.10075858 0.00000306
-0.15833427 -0.44498834 0.00000155
-0.65349036 -0.76176554 0.11616973
-0.41898754 -0.17047292 0.29991430
-0.07629802 -0.65146631 0.00000065
-0.32003537 -0.07530842 0.00000317
-0.15494280 0.05059981 0.00000935
-0.42328605 -0.18420570 0.27540821
-0.24169815 -0.33466095 0.00000204
-0.04403251 0.47725520 0.00000835
-0.26952684 -0.64097470 0.00000070
-0.11011134 0.53900397 0.03542637
-0.33528745 0.01921098 0.20945740
-0.66641158 -0.79397231 0.10877360
-0.03577183 -0.16732465 0.00000277
-0.14911550 0.45877838 0.13722815
-0.40095019 -0.11578645 0.38128266
-0.13333903 0.05674064 0.00000963
-0.28380233 -0.20286036 0.00000261
-0.24679857 -0.17904094 0.00000272
-0.01637450 -0.56528473 0.00000103
-0.40521079 -0.12710844 0.37371558
-0.61354154 -0.79873842 0.00000001
-0.50973648 -0.42212886 0.06203457
-0.22614093 0.28046146 0.19301435
-0.01146669 -0.10680411 0.00000303
-0.62018389 -0.67642820 0.15217234
-0.43244019 -0.20235306 0.30427673
-0.46762538 -0.30213636 0.19589587
-0.14816423 -0.14723979 0.00000286
-0.23364021 -0.44395933 0.00000156
-0.36130685 -0.10311560 0.00000305
-0.38459241 -0.12658745 0.01396395
-0.06220105 -0.37817088 0.00000185
-0.46912527 -0.28144476 0.37346408
-0.27689427 0.15882453 0.19952863
-0.33736175 -0.03601154 0.00000334
-0.08523263 -0.44748467 0.00000154
-0.00636577 -0.29131478 0.00000223
-0.31883591 0.04546966 0.11115876
-0.22532965 -0.56880814 0.00000101
-0.63901287 -0.73502910 0.05618260
-0.21034963 -0.46892232 0.00000145
-0.44938794 -0.27728927 0.05579750
-0.54600781 -0.50941557 0.06407709
-0.31887600 -0.56316251 0.00000104
-0.24278998 0.23846938 0.17988294
-0.26041088 0.16324934 0.00000705
-0.51933104 -0.42340079 0.22192226
-0.26111379 0.19108433 0.15689354
-0.29232261 -0.35788530 0.00000193
-0.03744951 -0.05306648 0.00000327
-0.44969282 -0.23439485 0.37446216
-0.20641331 -0.52995533 0.00000118
-0.23095533 0.17092142 0.00000745
-0.22165471 -0.37739775 0.00000185
-0.27822369 -0.16803361 0.00000276
-0.31286451 0.05409251 0.06884610
-0.04053360 0.70395190 0.01331929
-0.33596656 -0.10054476 0.00000306
-0.26644686 -0.40908906 0.00000171
-0.20657191 0.31030861 0.06595577
-0.17551613 0.37777820 0.01113885
-0.52859575 -0.44469559 0.22975273
-0.02239444 0.38500565 0.00000926
-0.00970331 -0.28272381 0.00000226
-0.02618218 -0.67350012 0.00000055
-0.24761043 0.21464631 0.09088338
-0.25267640 -0.26834387 0.00000233
-0.00732701 -0.47377750 0.00000138
-0.11436610 0.21698081 0.00000892
-0.48361722 -0.33984643 0.20245089
-0.47677881 -0.32690015 0.17642722
-0.34088966 -0.01970701 0.02399315
-0.50286597 -0.59636956 0.00000089
-0.03121750 -0.15477911 0.00000282
-0.05520279 0.66848683 0.01294930
-0.48134008 -0.31659114 0.33214772
-0.38778397 -0.66277122 0.00000060
-0.05891987 -0.12446077 0.00000296
-0.44708720 -0.23722249 0.30786589
-0.08836372 -0.62985146 0.00000074
-0.00299848 -0.31166676 0.00000214
-0.39333653 -0.20522749 0.00000260
-0.09772784 -0.15066110 0.00000284
-0.51094115 -0.41182420 0.15853852
-0.50178027 -0.38956037 0.15961732
-0.10616256 -0.56378859 0.00000103
-0.31903803 0.06778898 0.27773693
-0.50520170 -0.39071104 0.21154180
-0.24983856 -0.77072966 0.00000013
-0.02164617 0.11849087 0.00001093
-0.18867201 -0.17292406 0.00000274
-0.37114131 -0.06202334 0.24834339
-0.53849024 -0.47434178 0.18769126
-0.52679974 -0.44491887 0.19645333
-0.01326243 -0.78135645 0.00000008
-0.19101179 0.18869533 0.00000794
-0.04648680 -0.31935838 0.00000210
-0.56465268 -0.63439280 0.00000072
-0.18050589 -0.33269474 0.00000204
-0.24410124 0.21445823 0.02763327
-0.55192602 -0.52189606 0.07727658
-0.57346988 -0.56326348 0.15501554
-0.02427135 0.20968778 0.00001032
-0.53695327 -0.54556096 0.00000111
-0.07739082 -0.78317440 0.00000007
-0.38285595 -0.39707506 0.00000176
-0.07437848 0.09079702 0.00001031
-0.18267818 0.12963781 0.00000843
-0.39979297 -0.47900760 0.00000140
-0.48700219 -0.36166695 0.10276535
-0.46605942 -0.34472772 0.00000199
-0.56583512 -0.55033845 0.11479648
-0.63511628 -0.72424024 0.06627354
-0.14876008 0.45030770 0.06909372
-0.50251096 -0.37237459 0.29801893
-0.16054900 0.19548909 0.00000836
-0.45425332 -0.56918877 0.00000101
-0.25040764 -0.24246600 0.00000244
-0.25519386 -0.03491953 0.00000335
-0.36466205 -0.47141913 0.00000144
-0.01864021 0.24098268 0.00001021
-0.49621299 -0.38455391 0.09801683
-0.14363527 0.45974281 0.04764109
-0.18816175 -0.68553734 0.00000050
-0.06510014 -0.38553435 0.00000181
-0.13242187 0.28218928 0.00000824
-0.53802007 -0.69764972 0.00000045
-0.15748912 0.09281278 0.00000904
-0.44044027 -0.21291384 0.36820620
-0.20167723 -0.63271230 0.00000073
-0.37337634 -0.08853313 0.09413284
-0.51997274 -0.63522160 0.00000072
-0.62778115 -0.76611847 0.00000015
-0.60479385 -0.68109006 0.00000052
-0.67758280 -0.81969327 0.11788823
-0.43089604 -0.21224779 0.20478106
-0.28252181 0.12178537 0.02823334
-0.15436406 -0.77605689 0.00000010
-0.43520552 -0.70232058 0.00000043
-0.03940998 0.70687848 0.01488196
-0.61859286 -0.69050902 0.02128820
-0.16063705 -0.62266892 0.00000078
-0.09006175 -0.34463519 0.00000199
-0.43550166 -0.62922031 0.00000075
-0.47562900 -0.33958253 0.06352430
-0.10269130 0.55660117 0.03311630
-0.27242929 0.17495838 0.23863633
-0.07759280 0.09744243 0.00001022
-0.27467909 0.16741312 0.22319756
-0.21175416 -0.14855741 0.00000285
-0.37478614 -0.71094185 0.00000039
-0.52147394 -0.50928199 0.00000127
-0.21279643 -0.37157732 0.00000187
-0.14427894 0.04292519 0.00000955
-0.18203332 -0.02538299 0.00000339
-0.44560045 -0.23747209 0.27982721
-0.27372754 -0.67885935 0.00000053
-0.21664551 0.28551003 0.06245826
-0.34995353 -0.19109941 0.00000266
-0.48190403 -0.33371687 0.21701100
-0.19976456 -0.60292739 0.00000086
-0.11324512 -0.78903931 0.00000005
-0.60571098 -0.63879472 0.17184214
-0.19646057 -0.16646051 0.00000277
-0.10970329 -0.65426552 0.00000064
-0.01037423 -0.57149822 0.00000100
-0.41616362 -0.76553470 0.00000015
-0.31467408 -0.04954832 0.00000328
-0.00142814 -0.64707917 0.00000067
-0.14841048 -0.46916923 0.00000145
-0.33188817 0.03421445 0.25910014
-0.62533200 -0.74537575 0.00000024
-0.22880702 0.25287661 0.03855254
-0.15495759 0.20573178 0.00000838
-0.34432280 0.01191854 0.31551284
-0.14544302 0.34430709 0.00000765
-0.34840244 -0.52001631 0.00000122
-0.45607030 -0.28142926 0.14338791
-0.04047233 0.00947520 0.00001133
-0.01089273 0.54658717 0.00000842
-0.43107840 -0.21410456 0.19443484
-0.32857499 -0.31958485 0.00000210
-0.49504319 -0.55522674 0.00000107
-0.40028551 -0.49729979 0.00000132
-0.25296435 -0.74870044 0.00000022
-0.17120217 0.23216964 0.00000797
-0.60845256 -0.64832413 0.15058565
-0.59324670 -0.70879078 0.00000040
-0.52356917 -0.42663693 0.27301246
-0.52104086 -0.45779517 0.00086401
-0.23426089 0.24018840 0.04204771
-0.57193381 -0.55473965 0.19018289
-0.65304941 -0.75880831 0.12999170
-0.12387177 0.05585750 0.00000978
-0.22872509 0.25642970 0.06305868
-0.59296846 -0.62120837 0.07561462
-0.04808578 -0.46055406 0.00000149
-0.06986466 -0.52706140 0.00000119
-0.62166065 -0.68157917 0.14059228
-0.52893156 -0.76405215 0.00000016
-0.48272645 -0.34885100 0.12097717
-0.40334812 -0.28063464 0.00000227
-0.42385650 -0.20756100 0.11488586
-0.30840325 -0.40841889 0.00000171
-0.24789867 -0.50514799 0.00000129
